<svg height="32" viewBox="0 0 32 32" width="32" xmlns="http://www.w3.org/2000/svg"><path d="m26.4488839 10.3419054c.3157683-.2187503.7461796-.1821551 1.0207438.0924092.2471079.2471078.3014608.6204518.1424291.9332982l-.060942.1017853-.0814798.09628-4.434635 4.4343219 4.4346277 4.4343146c.2556159.2556159.3020916.6411749.1394269.9440428l-.0619675.0976017-.0774594.0897263c-.2471078.2471079-.6204517.3014608-.9332982.1424291l-.1017853-.060942-.09628-.0814798-4.4352642-4.4346927-4.4465621 4.4467459-.0974372.0803487c-.3157682.2187503-.7461795.1821551-1.0207438-.0924092-.2471079-.2471078-.3014607-.6204518-.142429-.9332982l.060942-.1017853.0814797-.09628 4.4337504-4.4343219-4.4337431-4.4343146c-.2556159-.2556159-.3020915-.6411749-.1394269-.9440428l.0619675-.0976017.0774594-.0897263c.2471079-.2471079.6204518-.3014608.9228445-.1503913l.0978993.0579821.1106198.0924019 4.4343795 4.4336927 4.4474467-4.4457459zm-14.0616167 2.0222765.0709409.0463865.0638606.0573328 3.215147 3.2184479.0268364.0371466.0346229.0599398.0315218.0817439.0075608.0359544.0106561.0882959-.0032675.0674094-.0157653.081902-.0227689.0625282-.0341051.0649515-.0173055.0241189-.0592591.0677264-3.1870879 3.188022-.0662143.0561061c-.2757463.1962091-.6705389.0581386-.7659095-.2591388l-.0173625-.082963-.0046159-.0856967-.0006945-2.5753504-2.51271607.0009475c-.2523191.9632133-1.09776326 1.6863654-2.12253259 1.7556563l-.16165514.0054471c-1.30399744 0-2.36109622-1.0570988-2.36109622-2.3610962s1.05709878-2.3610962 2.36109622-2.3610962c1.09631583 0 2.01811511.7471941 2.28392793 1.7601125l2.51297587.000029.0012433-2.5899962.0071475-.0865001c.0562414-.333747.4330325-.5152788.7248187-.3583671z"/></svg>