<svg height="32" viewBox="0 0 32 32" width="32" xmlns="http://www.w3.org/2000/svg"><path d="m17.2451089 10.5063094.0830975.0694265 4.5757359 4.5752641 4.575736-4.5752641.0830974-.0694265c.2338418-.1619953.5571511-.1388531.7654307.0694265.2082796.2082797.2314218.5315889.0694265.7654307l-.0694265.0830975-4.5752641 4.5757359 4.5752641 4.5757359c.2343146.2343146.2343146.6142136 0 .8485282-.2082796.2082796-.5315889.2314218-.7654307.0694265l-.0830974-.0694265-4.575736-4.5752641-4.5757359 4.5752641-.0830975.0694265c-.2338417.1619953-.557151.1388531-.7654306-.0694265-.2082797-.2082797-.2314219-.5315889-.0694266-.7654307l.0694266-.0830975 4.575264-4.5757359-4.575264-4.5757359c-.2343146-.2343146-.2343146-.6142136 0-.8485282.2082796-.2082796.5315889-.2314218.7654306-.0694265zm-4.8578417 1.8578725.0709409.0463865.0638606.0573328 3.215147 3.2184479.0268364.0371466.0346229.0599398.0315218.0817439.0075608.0359544.0106561.0882959-.0032675.0674094-.0157653.081902-.0227689.0625282-.0341051.0649515-.0173055.0241189-.0592591.0677264-3.1870879 3.188022-.0662143.0561061c-.2757463.1962091-.6705389.0581386-.7659095-.2591388l-.0173625-.082963-.0046159-.0856967-.0006945-2.5753504-2.51271607.0009475c-.2523191.9632133-1.09776326 1.6863654-2.12253259 1.7556563l-.16165514.0054471c-1.30399744 0-2.36109622-1.0570988-2.36109622-2.3610962s1.05709878-2.3610962 2.36109622-2.3610962c1.09631583 0 2.01811511.7471941 2.28392793 1.7601125l2.51297587.000029.0012433-2.5899962.0071475-.0865001c.0562414-.333747.4330325-.5152788.7248187-.3583671z"/></svg>