<svg height="32" viewBox="0 0 32 32" width="32" xmlns="http://www.w3.org/2000/svg"><g fill="none"><path d="m22.217 14.727-4.5060617-4.5062504-.1008527-.0870595c-.3559758-.26412765-.8554717-.22941396-1.1719424.0870567l-.0805456.0921647c-.2684854.3527654-.2416369.8584449.0805456 1.1806275l4.5068568 4.506461-4.5068517 4.506456-.0824492.0950953c-.2687402.3617354-.2340265.8612313.0824441 1.1777019l.0921648.0805457c.3527654.2684854.8584449.2416369 1.1806275-.0805457l4.5060645-4.5072532 4.5068547 4.5072504.0950931.082447c.3617354.2687402.8612313.2340265 1.1777019-.0824442l.0805457-.0921647c.2684854-.3527654.2416369-.8584449-.0805457-1.1806275l-4.5066497-4.506461 4.5066491-4.5064604.0824448-.0950909c.2687401-.3617354.2340265-.8612313-.0824442-1.1777019-.3514718-.35147191-.9213203-.35147191-1.2727922 0z" fill="#17bfa8"/><path d="m11.8978702 11.7906887.0859391.0761223 3.5512886 3.5540659.0548742.0693534.0600948.0973427.0571318.1331384.0225896.0798261.0205967.1384097v.1227226l-.0210398.1393568-.0359976.1167492-.0545625.115335-.0370946.059659-.039342.051331-.0676042.0781532-3.510935 3.510935c-.5266507.5266506-1.4084493.1986375-1.4953125-.5076593l-.0069415-.1145947-.0002863-2.6313342-1.94006498.0013225c-.34162936.9476453-1.21874717 1.6394675-2.26617752 1.7102907l-.17782066.0059918c-1.43439718 0-2.59720584-1.1628086-2.59720584-2.5972058s1.16280866-2.5972058 2.59720584-2.5972058c1.12546795 0 2.08373491.7158725 2.44429796 1.7171145l1.9397652-.0003079.0002863-2.6305358c0-.7447965.8554661-1.1363819 1.4163149-.6983763z" fill="#d9541a"/></g></svg>