<svg height="32" viewBox="0 0 32 32" width="32" xmlns="http://www.w3.org/2000/svg"><path d="m13.4999353 4.82639658 2.2356676 1.14547699c.2089168.11060304.4669906.11060304.6759074 0l2.213739-1.13827002c.6426857-.33045898 1.4224377-.11382223 1.8078386.47940874l.0770261.13415332 1.1243176 2.23291043c.110603.20891685.3072306.35638757.5407259.39325525l2.4661834.37699618c.7171703.10963113 1.2228936.74690824 1.1827962 1.45678154l-.0160224.14669379-.4008906 2.4682285c-.0368677.2334953.0368677.4792798.2089168.6390397l1.7816367 1.76587c.547487.542642.5514147 1.4263661.0087727 1.9738531l-1.7781201 1.7781396c-.1720492.1720492-.2457846.4055445-.2089169.6390398l.4008906 2.4682285c.116312.7161171-.3344819 1.3933636-1.0222649 1.5735925l-.1445089.0298827-2.4661833.3769962c-.2334953.0368677-.4424122.1843384-.540726.3932553l-1.1366534 2.2496265c-.3258996.6450097-1.0841536.9278445-1.7445653.674244l-.1376408-.0614961-2.2286402-1.1418827c-.2089168-.1106031-.4669906-.1106031-.6759074 0l-2.213739 1.13827c-.6426857.330459-1.4224377.1138222-1.8078386-.4794087l-.0770261-.1341534-1.1243176-2.2329104c-.110603-.2089168-.3072306-.3563876-.54072593-.3932552l-2.49420668-.3867599c-.71693335-.1111701-1.22128773-.7495311-1.17966691-1.4593167l.01585374-.1437028.40137485-2.4712098c.03686768-.2334953-.03686768-.4792799-.20891685-.6390398l-1.76932285-1.7614592c-.51213982-.5098636-.54587844-1.3184465-.09997288-1.8676506l.10216844-.1127942 1.77941651-1.7636694c.17204917-.1720492.24578453-.4055445.20891685-.6390398l-.40815334-2.4646183c-.11853234-.71575294.33015915-1.39439427 1.01737991-1.57675528l.14869329-.03099151 2.46185747-.3763349c.23349528-.03686767.44241218-.18433839.54072598-.39325524l1.1472223-2.25488528c.3495454-.68703738 1.1898617-.96062874 1.876899-.61108341zm.234057 5.40308302c-.0933415-.0882779-.2405731-.084173-.328851.0091686-.0272338.028796-.0464284.0638148-.0561989.1015765l-.0074144.0582647v9.4512669c0 .1284742.1041489.2326231.2326231.2326231.0390779 0 .0771954-.0098352.111007-.0281942l.0470695-.0337675 2.4259911-2.2470931 1.8369722 3.7453822c.102054.2143134.3265728.3469836.5510917.3469836.0918486 0 .1836972-.0204108.2653404-.0612324.2143134-.102054.3469836-.3265728.3469836-.5510917 0-.0612324-.0090715-.1224648-.0272144-.1806734l-.034018-.084667-1.806356-3.6943552 2.8808204-.4604239c.1268641-.0202759.2132709-.1395565.192995-.2664206-.0053903-.0337262-.0181024-.0656373-.0370069-.0935944l-.0328597-.0387026z"/></svg>