<svg height="32" viewBox="0 0 32 32" width="32" xmlns="http://www.w3.org/2000/svg"><g fill="none"><path d="m25.6284302 18.6789337c-.1720492.1720492-.2457846.4055445-.2089169.6390398l.4008906 2.4682285c.1235815.7608744-.3930464 1.4778676-1.1539209 1.6014491-.0042811.0006954-.0085654.0013707-.0128529.0020261l-2.4661833.3769962c-.2334953.0368677-.4424122.1843384-.540726.3932553l-1.1366534 2.2496265c-.3476263.6880103-1.1871757.9639461-1.875186.6163198-.0023434-.001184-.0046835-.0023746-.0070201-.0035719l-2.2286402-1.1418827c-.2089168-.1106031-.4669906-.1106031-.6759074 0l-2.213739 1.13827c-.6855314.3524896-1.5270138.0825058-1.8795033-.6030257-.001802-.0035045-.0035892-.0070167-.0053614-.0105364l-1.1243176-2.2329104c-.110603-.2089168-.3072306-.3563876-.54072593-.3932552l-2.49420668-.3867599c-.76174169-.1181182-1.28350164-.8313856-1.16538346-1.5931272.0005116-.0032993.00103503-.0065968.00157029-.0098923l.40137485-2.4712098c.03686768-.2334953-.03686768-.4792799-.20891685-.6390398l-1.76932285-1.7614592c-.54628247-.5438545-.54825069-1.4275852-.00439615-1.9738677.00218992-.0021997.00438717-.0043921.00659171-.0065771l1.77941651-1.7636694c.17204917-.1720492.24578453-.4055445.20891685-.6390398l-.40815334-2.4646183c-.12594061-.7604875.3884613-1.47907947 1.14894882-1.60502008.00570242-.00094435.01141066-.00185327.01712438-.00272671l2.46185747-.3763349c.23349528-.03686767.44241218-.18433839.54072598-.39325524l1.1472223-2.25488528c.3495454-.68703738 1.1898617-.96062874 1.876899-.61108341l.0035454.00181016 2.2321222 1.14366683c.2089168.11060304.4669906.11060304.6759074 0l2.213739-1.13827002c.6855314-.35248958 1.5270138-.08250579 1.8795033.60302568.001802.00350454.0035892.0070167.0053614.01053638l1.1243176 2.23291043c.110603.20891685.3072306.35638757.5407259.39325525l2.4661834.37699618c.7619935.11648308 1.285283.82862899 1.1687999 1.59062243-.0006554.0042874-.0013308.0085717-.0020261.0128529l-.4008906 2.4682285c-.0368677.2334953.0368677.4792798.2089168.6390397l1.7816367 1.76587c.547487.542642.5514147 1.4263661.0087727 1.9738531-.0014556.0014686-.0029145.0029339-.0043766.0043961z" fill="#f8813d"/><path d="m16.0612674 25.7974681v-19.74274439c.1208286.00200858.2421192-.02560813.3502429-.08285014l2.213739-1.13827002c.6855314-.35248958 1.5270138-.08250579 1.8795033.60302568.001802.00350454.0035892.0070167.0053614.01053638l1.1243176 2.23291043c.110603.20891685.3072306.35638757.5407259.39325525l2.4661834.37699618c.7619935.11648308 1.285283.82862899 1.1687999 1.59062243-.0006554.0042874-.0013308.0085717-.0020261.0128529l-.4008906 2.4682285c-.0368677.2334953.0368677.4792798.2089168.6390397l1.7816367 1.76587c.547487.542642.5514147 1.4263661.0087727 1.9738531-.0014556.0014686-.0029145.0029339-.0043766.0043961l-1.7737435 1.7737435c-.1720492.1720492-.2457846.4055445-.2089169.6390398l.4008906 2.4682285c.1235815.7608744-.3930464 1.4778676-1.1539209 1.6014491-.0042811.0006954-.0085654.0013707-.0128529.0020261l-2.4661833.3769962c-.2334953.0368677-.4424122.1843384-.540726.3932553l-1.1366534 2.2496265c-.3476263.6880103-1.1871757.9639461-1.875186.6163198-.0023434-.001184-.0046835-.0023746-.0070201-.0035719l-2.2286402-1.1418827c-.1044584-.0553015-.2212061-.0829523-.3379537-.0829523z" fill="#d9541a"/><path d="m13.341528 10.3984894c0-.0594517.0227626-.1166472.0636133-.1598412.0882779-.0933416.2355095-.0974465.328851-.0091686l6.5609747 6.2050496c.0372216.0352024.0617812.0817076.0698666.132297.0202759.1268641-.0661309.2461447-.192995.2664206l-2.8808204.4604239 1.806356 3.6943552c.0408216.0816432.0612324.1734918.0612324.2653404 0 .2245189-.1326702.4490377-.3469836.5510917-.0816432.0408216-.1734918.0612324-.2653404.0612324-.2245189 0-.4490377-.1326702-.5510917-.3469836l-1.8369722-3.7453822-2.4259911 2.2470931c-.0430036.0398325-.0994597.0619617-.1580765.0619617-.1284742 0-.2326231-.1041489-.2326231-.2326231z" fill="#fff"/></g></svg>