<svg height="32" viewBox="0 0 32 32" width="32" xmlns="http://www.w3.org/2000/svg"><path d="m11.4522955 6.02540331c.4711451-.92604387 1.6037906-1.29481216 2.5298345-.82366704l2.061001 1.05604195c.0161763.00856392.0428415.00856392.0653844-.00332192l2.0322123-1.04493187c.8604423-.44242599 1.9134883-.15916327 2.4542935.67493599l.0862778.15207197 1.0264969 2.03891582c.015739.02972926.0373123.04554965.0567802.04863085l2.2639563.3460825c.9605206.14683117 1.6486403 1.00021969 1.5915932 1.99558204l-.0189222.1657101-.367599 2.2632196c-.0041999.0265995.0030736.0493688.0215022.0669155l1.6355425 1.6210686c.7379467.7314162.7432407 1.9225702.0099454 2.6624043l-1.6323166 1.6323345c-.0207335.0207336-.0276229.0420008-.0238106.0661828l.3680176 2.2658337c.155779.95911-.4445345 1.876391-1.4091759 2.1283185l-.1634951.0329736-2.2610453.3456302c-.0246256.0038883-.0444018.0181531-.0544398.0389312l-1.0434478 2.0651571c-.4363218.8635536-1.4548693 1.2530465-2.3817893.8961851l-.1551985-.0702744-2.0530259-1.0519643c-.0161763-.0085639-.0428415-.0085639-.0653843.0033219l-2.0322124 1.0449319c-.8604422.442426-1.9134883.1591633-2.4542935-.674936l-.0862778-.152072-1.0264968-2.0389158c-.0157391-.0297293-.0373123-.0455497-.0580529-.0488268l-2.28968178-.3550456c-.9602032-.1488923-1.64648982-1.0037556-1.58737664-1.9983615l.01869627-.1623162.36804343-2.2659565c.00419993-.0265995-.0030736-.0493688-.022446-.067853l-1.62423837-1.6170196c-.6856644-.682617-.74007964-1.7717371-.11314975-2.5425118l.11610911-.1268899 1.63161457-1.6171671c.02073353-.0207336.02762292-.0420008.02411179-.0643465l-.37468476-2.2625196c-.15875274-.95862227.4387131-1.87776062 1.40346813-2.13286671l.16825849-.03418288 2.25707411-.34502312c.0246256-.00388826.0444019-.01815308.0551972-.04042489zm1.9856858.2458666c-.3353568-.1706201-.7455321-.03707466-.9161522.29828209l-1.0450257 2.05338857c-.1757252.37341599-.5363763.6335578-.9486111.69864019l-2.22822714.33974276-.10503491.02100195c-.33682953.08938114-.55337128.42250783-.49590691.76950423l.37540461 2.26697c.06403085.4055287-.06761598.8119167-.36206917 1.1063615l-1.61118587 1.5957037-.07268105.0789351c-.21862198.269268-.19889928.6640176.04929087.9111047l1.60919092 1.6025514c.30531989.2835113.44111314.7086032.37575412 1.1225063l-.36431958 2.2381736-.01196426.1012473c-.02039973.3478893.22833367.6577206.57590233.7116157l2.29132004.355302c.4010904.06333.7431501.3141738.9387083.6838294l1.0165557 2.0208925.0535217.0950344c.1889574.2908539.570632.3935219.8820865.2333768l2.0258458-1.0416099c.367395-.1945033.8145532-.1945033 1.1748141-.0037159l2.0170473 1.0344274.096689.0441409c.3237918.1243372.6929624-.0168338.850898-.3294146l1.0360807-2.0500547c.1757252-.373416.5363763-.6335578.9486112-.6986402l2.2331204-.3405412.1020707-.0202672c.3371051-.0883361.5546789-.4207896.498291-.7679626l-.3684363-2.2684479c-.0640309-.4055287.067616-.8119167.360177-1.1044778l1.6304352-1.6304447c.2648745-.2672394.2629573-.6986029-.0042821-.9634774l-1.6214388-1.607538c-.3053199-.2835113-.4411132-.7086032-.3757541-1.1225063l.3638039-2.2347885.0121162-.1033556c.019653-.3479323-.2297448-.65722908-.5774283-.71037815l-2.2668674-.34653482c-.4010904-.06333006-.74315-.3141738-.9387083-.68382942l-1.0165556-2.02089255-.0535218-.09503439c-.1889573-.29085382-.5706319-.39352187-.8820865-.23337681l-2.0258457 1.04160996c-.3673951.19450325-.8145533.19450325-1.1748129.00371653zm-.1079813 4.44761739c.2-.09.45-.07.63.08l6.17 5c.19.15.27.39.2.62-.05.23-.24.4-.47.44l-2.66.48 1.77 3.62c.04.08.06.17.06.26 0 .22-.13.44-.34.54-.08.04-.17.06-.26.06-.22 0-.44-.13-.54-.34l-1.8-3.67-2.17 1.81c-.11.09-.24.14-.38.14-.09 0-.18-.02-.26-.06-.21-.1-.34-.32-.34-.55l.05-7.89c0-.23.13-.44.34-.54z"/></svg>