<svg height="32" viewBox="0 0 32 32" width="32" xmlns="http://www.w3.org/2000/svg"><g fill="none" fill-rule="evenodd"><path d="m8.65860678 7h15.19110912c2.5728774 0 4.6586067 2.0857293 4.6586067 4.6586068v8.1019248c0 2.5728775-2.0857293 4.6586068-4.6586067 4.6586068h-15.19110912c-2.57287748 0-4.65860678-2.0857293-4.65860678-4.6586068v-8.1019248c0-2.5728775 2.0857293-4.6586068 4.65860678-4.6586068z" fill="#b34874"/><path d="m12.473422 13.6854132-1.2423459 3.3946556h2.4846917zm-1.7230384 4.7127214-.4073075 1.0957133c-.1219833.325289-.1829905.4342304-.3161665.5407675-.11925503.0968947-.26390466.1499939-.42156951.1499939-.20978566 0-.41815195-.0841111-.55159654-.2245925-.25067657-.2567907-.24296967-.4982735-.06459403-.9739418l2.64903388-7.0539538c.091621-.2504306.164361-.3730111.2862339-.4877126.1501282-.1429793.3223965-.2098795.5490047-.2098795s.3988764.0669002.5485756.2094733c.1223019.1151077.1950419.2376882.2863669.4873204l2.6493465 7.0547964c.178359.4756241.1860659.7171069-.0636681.9729188-.1343871.1414602-.3427534.2255713-.5525391.2255713-.1576648 0-.3023145-.0530992-.4209797-.1495184-.1337658-.1070126-.194773-.215954-.3168568-.5415121l-.407207-1.0954442zm6.7504635-6.8973349c.1077929-.1077928.2336823-.1694025.3810067-.1973831.0889489-.0168937.1587653-.020276.3034249-.020276h2.242208c1.1090482 0 1.9378617.3719628 2.545839 1.1382721.5527242.707487.6592242 1.366819.6592242 3.2881565 0 1.8933453-.115802 2.5891732-.6712792 3.3001838-.5955112.7647618-1.4134429 1.1262448-2.533784 1.1262448h-2.242208c-.1446596 0-.214476-.0033823-.3034249-.020276-.1473244-.0279806-.2732138-.0895903-.3810067-.1973831-.1077929-.1077929-.1694026-.2336823-.1973832-.3810067-.0168936-.0889489-.0202759-.1587653-.0202759-.3034249v-7.0486758c0-.1446596.0033823-.214476.0202759-.3034249.0279806-.1473244.0895903-.2732138.1973832-.3810067zm1.2948529 7.2685207h1.4798756c.6254349 0 1.0825908-.1747538 1.4139365-.5557935.3544131-.3993387.4305258-.9340544.4305258-2.5039577s-.0761127-2.104619-.4311939-2.5047182c-.3306776-.3802792-.7878335-.555033-1.4132684-.555033h-1.4798756z" fill="#fff" fill-rule="nonzero"/></g></svg>