<svg height="32" viewBox="0 0 32 32" width="32" xmlns="http://www.w3.org/2000/svg"><path d="m23.8497159 7c2.5728774 0 4.6586067 2.0857293 4.6586067 4.6586068v8.1019248c0 2.5728775-2.0857293 4.6586068-4.6586067 4.6586068h-15.19110912c-2.57287748 0-4.65860678-2.0857293-4.65860678-4.6586068v-8.1019248c0-2.5728775 2.0857293-4.6586068 4.65860678-4.6586068zm-11.3762939 4.2345291c-.2266082 0-.3988765.0669002-.5490047.2098795-.1015607.0955846-.1690014.1966407-.2416819.372596l-2.69358588 7.1690704c-.17837564.4756683-.18608254.7171511.06459403.9739418.13344459.1404814.34181088.2245925.55159654.2245925.15766485 0 .30231448-.0530992.42156951-.1499939.1141508-.0913175.1752797-.1844015.267233-.41398l.0489335-.1267875.4073075-1.0957133h3.4460767l.407207 1.0954442c.1220838.3255581.183091.4344995.3168568.5415121.1186652.0964192.2633149.1495184.4209797.1495184.2097857 0 .418152-.0841111.5525391-.2255713.2247606-.2302307.2409941-.4488548.1119694-.8370073l-.0483013-.1359115-2.6493465-7.0547964c-.091325-.2496322-.164065-.3722127-.2863669-.4873204-.1496992-.1425731-.3219674-.2094733-.5485756-.2094733zm7.9540647.0486115-2.338138.0007925c-.0848336.0017431-.1407833.0068133-.2074949.0194835-.1473244.0279806-.2732138.0895903-.3810067.1973831-.1077929.1077929-.1694026.2336823-.1973832.3810067-.0126702.0667117-.0177403.1226613-.0194835.2074949v7.2405358c.0017432.0848336.0068133.1407832.0194835.2074949.0279806.1473244.0895903.2732138.1973832.3810067.1077929.1077928.2336823.1694025.3810067.1973831.0667116.0126702.1226613.0177404.2074949.0194835l2.338138.0007925c1.1203411 0 1.9382728-.361483 2.533784-1.1262448.5554772-.7110106.6712792-1.4068385.6712792-3.3001838l-.0031914-.515745c-.0211417-1.5316163-.155949-2.1323042-.6560328-2.7724115-.5645504-.7115729-1.3195155-1.0831226-2.3124534-1.1325706zm-.1519111 1.3666774c.6254349 0 1.0825908.1747538 1.4132684.555033.3353545.3778715.4218759.8758175.4304544 2.2524983l.0007395.2522199c0 1.5699033-.0761127 2.104619-.4305258 2.5039577-.2945295.338702-.6884646.5144126-1.2116325.5492779l-.202304.0065156h-1.4798756v-6.1195024zm-7.8021536 1.0355952 1.2423458 3.3946556h-2.4846917z" fill-rule="evenodd"/></svg>