<svg height="32" viewBox="0 0 32 32" width="32" xmlns="http://www.w3.org/2000/svg"><path d="m8.595 15.44c.33 0 .6-.27.6-.6v-3c0-.33-.27-.6-.6-.6s-.6.27-.6.6v3c0 .33.27.6.6.6zm.6 5.4v-3c0-.33-.27-.6-.6-.6s-.6.27-.6.6v3c0 .33.27.6.6.6s.6-.27.6-.6zm-.6-11.4c.33 0 .6-.27.6-.59h1.81c.33 0 .6-.27.6-.6s-.27-.6-.6-.6h-2.41c-.33 0-.6.27-.6.6v.59c0 .33.27.6.6.6zm11.41-.6h3c.33 0 .6-.27.6-.6s-.27-.6-.6-.6h-3c-.33 0-.6.27-.6.6s.27.6.6.6zm3.4 1.4c-.33 0-.6.27-.6.6v3c0 .33.27.6.6.6s.6-.27.6-.6v-3c0-.33-.27-.6-.6-.6zm-5.8-2c0-.33-.27-.6-.6-.6h-3c-.33 0-.6.27-.6.6s.27.6.6.6h3c.33 0 .6-.26.6-.6zm-5.22 14.21h-3c-.33 0-.6.27-.6.6s.27.6.6.6h3c.33 0 .6-.27.6-.6s-.27-.6-.6-.6zm10.24-4.11-6.17-5c-.18-.15-.43-.17-.63-.08-.21.1-.34.31-.34.54l-.05 7.89c0 .23.13.45.34.55.08.04.17.06.26.06.14 0 .27-.05.38-.14l2.17-1.81 1.8 3.67c.1.21.32.34.54.34.09 0 .18-.02.26-.06.21-.1.34-.32.34-.54 0-.09-.02-.18-.06-.26l-1.77-3.62 2.66-.48c.23-.04.42-.21.47-.44.07-.23-.01-.47-.2-.62z"/></svg>