<svg height="32" viewBox="0 0 32 32" width="32" xmlns="http://www.w3.org/2000/svg"><g fill="none"><g fill="#7c969d"><path d="m7.63101498 14.2724348c.34941176 0 .63529412-.2858823.63529412-.6352941v-3.1764706c0-.3494117-.28588236-.63529408-.63529412-.63529408-.34941177 0-.63529412.28588238-.63529412.63529408v3.1764706c0 .3494118.28588235.6352941.63529412.6352941z"/><path d="m8.2663091 19.9900819v-3.1764706c0-.3494118-.28588236-.6352941-.63529412-.6352941-.34941177 0-.63529412.2858823-.63529412.6352941v3.1764706c0 .3494118.28588235.6352941.63529412.6352941.34941176 0 .63529412-.2858823.63529412-.6352941z"/><path d="m19.7121915 7.91058824h3.1764705c.3494118 0 .6352942-.28588236.6352942-.63529412 0-.34941177-.2858824-.63529412-.6352942-.63529412h-3.1764705c-.3494118 0-.6352942.28588235-.6352942.63529412 0 .34941176.2858824.63529412.6352942.63529412z"/><path d="m23.3121915 9.39294118c-.3494118 0-.6352942.28588235-.6352942.63529412v3.1764706c0 .3494117.2858824.6352941.6352942.6352941.3494117 0 .6352941-.2858824.6352941-.6352941v-3.1764706c0-.34941177-.2858824-.63529412-.6352941-.63529412z"/><path d="m17.171015 7.27529412c0-.34941177-.2858824-.63529412-.6352941-.63529412h-3.1764706c-.3494118 0-.6352941.28588235-.6352941.63529412 0 .34941176.2858823.63529412.6352941.63529412h3.1764706c.3494117 0 .6352941-.27529412.6352941-.63529412z"/><path d="m10.8547833 7.27529412c0-.34941177-.2858824-.63529412-.6352941-.63529412h-2.60144973c-.34941177 0-.63529412.28588235-.63529412.63529412 0 .34941176.28588235.63529412.63529412.63529412h2.60144973c.3494117 0 .6352941-.27529412.6352941-.63529412z"/><path d="m11.6439562 22.3211765h-3.17647063c-.34941177 0-.63529412.2858823-.63529412.6352941s.28588235.6352941.63529412.6352941h3.17647063c.3494117 0 .6352941-.2858823.6352941-.6352941s-.2858824-.6352941-.6352941-.6352941z"/></g><path d="m22.625 18.34-6.17-5c-.18-.15-.43-.17-.63-.08-.21.1-.34.31-.34.54l-.05 7.89c0 .23.13.45.34.55.08.04.17.06.26.06.14 0 .27-.05.38-.14l2.17-1.81 1.8 3.67c.1.21.32.34.54.34.09 0 .18-.02.26-.06.21-.1.34-.32.34-.54 0-.09-.02-.18-.06-.26l-1.77-3.62 2.66-.48c.23-.04.42-.21.47-.44.07-.23-.01-.47-.2-.62z" fill="#000"/></g></svg>