<svg height="32" viewBox="0 0 32 32" width="32" xmlns="http://www.w3.org/2000/svg"><path d="m13.6348238 17.4520002-1.3680002-3.7380006-1.3680003 3.7380006zm.4020001 1.1040002h-3.5400006l-.4260001 1.1460002c-.10800001.2880001-.16200002.3960001-.28200004.4920001-.09600002.078-.21600004.126-.35400006.126-.18000003 0-.36000006-.072-.47400008-.192-.24600004-.2520001-.16800002-.5220001-.042-.8580002l2.61600038-6.9660011c.0900001-.246.1560001-.3480001.2580001-.4440001.126-.12.27-.18.4740001-.18.204 0 .348.06.474.18.1020001.096.1680001.1980001.2580001.4440001l2.6160004 6.9660011c.126.3360001.204.6060001-.042.8580002-.114.12-.294.192-.4740001.192-.138 0-.258-.048-.354-.126-.12-.096-.1740001-.204-.2820001-.4920001zm3.2639993-6.6420011c.186-.186.414-.186.6060001-.186h2.2140003c1.0740002 0 1.8600003.3600001 2.4360004 1.0860002.6000001.7680001.6300001 1.6680003.6300001 3.1860005s-.042 2.4300004-.6420001 3.1980005c-.5700001.7320001-1.3500002 1.0740002-2.4240004 1.0740002h-2.2140003c-.1920001 0-.4200001 0-.6060001-.186-.1860001-.1860001-.1860001-.4140001-.1860001-.6060001v-6.9600012c0-.192 0-.42.1860001-.6060001zm1.1100001.9660002v6.240001h1.5600003c.6180001 0 1.1100002-.168 1.4700002-.5820001.4260001-.4800001.4500001-1.2720002.4500001-2.5380004s-.024-2.0580003-.4500001-2.5380004c-.36-.4140001-.8520001-.5820001-1.4700002-.5820001zm-9.9108233-4.2799995c-1.87776815 0-3.4 1.5222319-3.4 3.4v8c0 1.8777681 1.52223185 3.4 3.4 3.4h15c1.8777681 0 3.4-1.5222319 3.4-3.4v-8c0-1.8777681-1.5222319-3.4-3.4-3.4zm0-1.2h15c2.5405098 0 4.6 2.05949015 4.6 4.6v8c0 2.5405098-2.0594902 4.6-4.6 4.6h-15c-2.54050985 0-4.6-2.0594902-4.6-4.6v-8c0-2.54050985 2.05949015-4.6 4.6-4.6z" fill-rule="evenodd"/></svg>