<svg height="32" viewBox="0 0 32 32" width="32" xmlns="http://www.w3.org/2000/svg"><g fill="none" fill-rule="evenodd"><g fill-rule="nonzero"><path d="m26.2701203 18.6871125c-.040554 2.879333-1.166439 5.5957962-3.1739191 7.6539535-.1463794.1463795-.3338029.223934-.536066.223934-.188874 0-.3746858-.0749767-.5237858-.2117018-.2989011-.2864468-.3027617-.7613022-.0134586-1.0631726 1.7425032-1.7818818 2.7177037-4.1347464 2.7472513-6.6265678.0073239-.7616842-.0724717-1.5165479-.23854-2.2567896.5103873-.0422266 1.0047077-.1417144 1.4768215-.2911439.1888876.8451875.2764758 1.7069391.2616967 2.5714882zm-11.0799851-11.3121125c.7389069 0 1.4847347.08070128 2.2252793.23861717-.1438934.47169235-.2378443.96453297-.2761139 1.47291008-.640277-.14053932-1.2968593-.21415928-1.9602932-.22153149-2.6222915-.01971648-5.0829484.98621244-6.93280618 2.83607024-1.81032849 1.8103285-2.81635467 4.2118936-2.83607049 6.7650923-.01969067 2.5499411.9446542 4.9724374 2.7083027 6.8050559.28824927.3007818.28438866.7756372-.01693953 1.0643589-.14667294.1344502-.33248473.2094269-.5213587.2094269-.20226312 0-.38968656-.0775545-.53785685-.2257556-2.04330298-2.1141105-3.15244911-4.9002431-3.13213961-7.8552753.02025824-2.9475737 1.18473875-5.7258434 3.27393044-7.8150351 2.03490521-2.03490523 4.69951632-3.18346719 7.56168512-3.2688079z" fill="#ffcaaf"/><path d="m14.4454556 17.5775656c-.4479514.4479335-.4514999 1.1718231-.0127547 1.6221141.449947.449965 1.1749218.449965 1.6235004.0013863.4502469-.4386844.4574001-1.1647319.01-1.612132-.4465651-.4465651-1.1704547-.4501136-1.6207457-.0113684z" fill="#af3f00"/><path d="m12.060828 21.3677225c.2862587.2987151.7593044.3140987 1.060666.0378506.3000789-.2875245.3154625-.7605702.0392144-1.0619318-1.0560396-1.1321589-1.0270755-2.8700069.0654929-3.9625753 1.1114214-1.1114213 2.9264466-1.1114213 4.037868 0 1.1017394 1.1017394 1.122021 2.8488527.0472933 3.9806456-.2866332.2990932-.2750488.7740524.0249869 1.0615866.1506284.1381261.3265702.2117018.5137858.2117018.2116294 0 .4098821-.0840054.5445079-.2431087 1.632064-1.7143284 1.5972686-4.3872469-.0884419-6.0729573-1.6779677-1.6986874-4.4434446-1.6986874-6.142132 0-1.6693072 1.6693072-1.7167952 4.3318017-.1032413 6.0487885z" fill="#db640b"/><path d="m22.6878743 16.3169006.0622342.2312486c.1422484.5816921.217031 1.1837871.2201224 1.7961081.0101264 2.0452034-.7692383 3.9814983-2.1940296 5.4368087-.1463794.1463795-.3338029.223934-.536066.223934-.188874 0-.3746858-.0749767-.5237858-.2117018-.2989011-.2864468-.3027617-.7613022-.0137814-1.0628415 1.8584011-1.9121564 2.2376474-4.7506137 1.1490274-7.0395899.5695451.291979 1.186738.5049953 1.8362788.6260338zm-12.90398434-3.377787c2.01732354-2.0241619 4.88735394-2.6910935 7.46658624-2.0007948.1258361.6396188.3414174 1.246405.6326355 1.807633-2.3070099-1.0824433-5.1416552-.670141-7.0469104 1.2351142-1.1642795 1.1642795-1.81632191 2.7173727-1.82606866 4.3548268-.0097959 1.6457113.60849316 3.1965437 1.74830086 4.3753214.2882493.3007818.2843887.7756372-.0122322 1.0598518-.2978524.2978525-.77458248.2901008-1.06400223-.0119038-1.41160575-1.4627509-2.18238904-3.3923854-2.16205627-5.4256621.02038312-2.0383124.82549329-3.9561329 2.26374716-5.3943865z" fill="#ff8f55"/></g><path d="m23.9462266 15.0524532c-3.0078679 0-5.4462266-2.4383587-5.4462266-5.44622662 0-3.00786788 2.4383587-5.44622658 5.4462266-5.44622658s5.4462266 2.4383587 5.4462266 5.44622658c0 3.00786792-2.4383587 5.44622662-5.4462266 5.44622662z" fill="#4da86d"/><path d="m23.9462266 5.80622658c.407841 0 .7444016.30518815.7937668.6996497l.0062332.1003503v2.2h2.2c.4418278 0 .8.3581722.8.8 0 .40784102-.3051882.74440162-.6996497.79376682l-.1003503.0062332h-2.2v2.2c0 .4418278-.3581722.8-.8.8-.4078411 0-.7444016-.3051882-.7937669-.6996497l-.0062331-.1003503v-2.2h-2.2c-.4418278 0-.8-.3581722-.8-.80000002 0-.40784105.3051881-.74440158.6996497-.79376686l.1003503-.00623314h2.2v-2.2c0-.4418278.3581722-.8.8-.8z" fill="#fff" fill-rule="nonzero"/></g></svg>