<svg height="32" viewBox="0 0 32 32" width="32" xmlns="http://www.w3.org/2000/svg"><path d="m5.92830394 12.4938944c.46944203 0 .85.380558.85.85v7.9289138l7.51999996-.0008349.0009547-5.740267c0-.3313709.2686291-.6.6-.6l9.0994099.049118c1.6505097.0089093 2.9838065 1.3494225 2.9838065 2.9999563v7.8690984c0 .4694421-.380558.85-.85.85-.4694421 0-.85-.3805579-.85-.85v-2.8770708h-18.50417106v2.8770708c0 .4694421-.38055797.85-.85.85-.46944204 0-.85-.3805579-.85-.85v-12.5059846c0-.469442.38055796-.85.85-.85zm4.61900856 2.0700023c1.3898219 0 2.516495 1.1266732 2.516495 2.516495s-1.1266731 2.516495-2.516495 2.516495c-1.38982176 0-2.51649494-1.1266732-2.51649494-2.516495s1.12667318-2.516495 2.51649494-2.516495zm13.3989141-9.26377572c-.4078411 0-.7444016.30518815-.7937669.6996497l-.0062331.1003503v2.2h-2.2l-.1003503.00623314c-.3944616.04936528-.6996497.38592582-.6996497.79376686 0 .40784105.3051881.74440158.6996497.79376687l.1003503.00623313h2.2v2.20000002l.0062331.1003503c.0493653.3944615.3859258.6996497.7937669.6996497.407841 0 .7444016-.3051882.7937668-.6996497l.0062332-.1003503v-2.20000002h2.2l.1003503-.00623313c.3944615-.04936529.6996497-.38592582.6996497-.79376687 0-.40784104-.3051882-.74440158-.6996497-.79376686l-.1003503-.00623314h-2.2v-2.2l-.0062332-.1003503c-.0493652-.39446155-.3859258-.6996497-.7937668-.6996497z"/></svg>