<svg height="32" viewBox="0 0 32 32" width="32" xmlns="http://www.w3.org/2000/svg"><g fill="none"><path d="m15.99 26.847c-5.9829 0-10.857-4.8741-10.857-10.857s4.8741-10.857 10.857-10.857 10.857 4.8741 10.857 10.857-4.8741 10.857-10.857 10.857z" fill="#4da86d"/><path d="m17.1137 10.7925c0-.6191774-.5045226-1.1237-1.1237-1.1237s-1.1237.5045226-1.1237 1.1237v4.17775h-4.0738c-.6191774 0-1.1237.5045226-1.1237 1.1237s.5045226 1.1237 1.1237 1.1237h4.0738v3.96985c0 .6191774.5045226 1.1237 1.1237 1.1237s1.1237-.5045226 1.1237-1.1237v-3.96985h4.0738c.6191774 0 1.1237-.5045226 1.1237-1.1237s-.5045226-1.1237-1.1237-1.1237h-4.0738z" fill="#fff"/></g></svg>