<svg height="32" viewBox="0 0 32 32" width="32" xmlns="http://www.w3.org/2000/svg"><path d="m22.3685989 22.1196942 2.2691279 1.0538406.0609736.0352265c.1512019.1065908.2093429.3092043.1287091.482957-.0291174.0627434-.0741977.1162302-.1302112.1554307l-.0594715.0342521-9.6809991 4.4926792-.0998778.0377657c-.1357639.0402835-.2804196.0402835-.4161834 0l-.0998778-.0377657-9.6809991-4.4926792-.06097363-.0352266c-.13230163-.0932669-.19335355-.2600512-.15253099-.4166908l.02382189-.0662662.0342521-.0594716c.02613365-.0373423.05861676-.0698254.09595906-.095959l.05947157-.0342521 2.26873475-1.0538406 6.89898175 3.2024836.1439073.0599258c.4315584.1598021.9058722.1617749 1.3384862.0059186l.1601107-.0658444zm-7.4118712-8.5967822 9.6809991 4.4926792c.1954718.090713.2803957.3227116.1896827.5181835-.0388233.0836579-.1060249.1508595-.1896827.1896828l-9.6809991 4.4926792-.0998778.0377657c-.1357639.0402834-.2804196.0402834-.4161834 0l-.0998778-.0377657-9.6809991-4.4926792c-.19547188-.090713-.28039573-.3227117-.18968273-.5181836.03882326-.0836579.10602486-.1508595.18968273-.1896827l9.6809991-4.4926792c.1953097-.0906378.4206293-.0906378.615939 0zm8.9894989-7.71668542c.407841 0 .7444016.30518815.7937668.6996497l.0062332.1003503v2.2h2.2c.4418278 0 .8.3581722.8.8 0 .40784102-.3051882.74440162-.6996497.79376682l-.1003503.0062332h-2.2v2.2c0 .4418278-.3581722.8-.8.8-.4078411 0-.7444016-.3051882-.7937669-.6996497l-.0062331-.1003503v-2.2h-2.2c-.4418278 0-.8-.3581722-.8-.80000002 0-.40784105.3051881-.74440158.6996497-.79376686l.1003503-.00623314h2.2v-2.2c0-.4418278.3581722-.8.8-.8z"/></svg>