<svg height="32" viewBox="0 0 32 32" width="32" xmlns="http://www.w3.org/2000/svg"><path d="m6.7449735 14.5c.3416149 0 .62676454.2540937.67578666.582619l.00744315.1006108v.4213251c0 1.1501035.31884058 2.0383022.94513457 2.6532091.62719299.606741 1.45029408.8339101 2.01237232.9185249l.2392227.0297938c.0362268.0035663.0704932.0065049.1025911.0089235l.164902.0091367 6.4767711.00153-.0341615-2.6873706c0-.2619048.1480331-.5124224.3871636-.626294.2049689-.0976043.4434022-.0948156.6364196.015537l.0923588.0641731 4.315735 3.4616977c.1594203.136646.2505176.3302278.2505176.5351967 0 .1708075-.0711697.3416149-.1871501.4662938l-.0747546.0689029-4.2132506 3.3706004c-.1138716.1024845-.2732919.1480332-.421325.1480332-.1024845 0-.204969-.0227744-.2960663-.068323-.1992753-.0896739-.3462409-.2839674-.3798686-.5065954l-.0072949-.0969243-.0347764-2.7563738-6.4626952.0012831-.1413574.0060003-.1965626.0163291-.2419451.031676c-.52272403.0820445-1.25880545.2862799-1.8546213.7933614l-.13222422.1199392c-.57811753.5570951-.89426292 1.3664597-.93947986 2.3922684l-.00565471.2609407v.5807454c0 .3757764-.30745342.6832298-.68322981.6832298-.34161491 0-.62676454-.2540937-.67578667-.582619l-.00744315-.1006108v-.5807454c0-1.5486542.46687371-2.7784679 1.37784679-3.6552795.28467909-.2732919.59213251-.489648.89958592-.6604554-.31884058-.1708075-.61490683-.3871636-.89958592-.6604555-.85403726-.8220109-1.31775281-1.9542775-1.37238117-3.3686516l-.00546562-.2866279v-.4213251c0-.3757764.30745342-.6832298.68322982-.6832298zm17.2012531-8.69377342c.407841 0 .7444016.30518815.7937668.6996497l.0062332.1003503v2.2h2.2c.4418278 0 .8.3581722.8.8 0 .40784102-.3051882.74440162-.6996497.79376682l-.1003503.0062332h-2.2v2.2c0 .4418278-.3581722.8-.8.8-.4078411 0-.7444016-.3051882-.7937669-.6996497l-.0062331-.1003503v-2.2h-2.2c-.4418278 0-.8-.3581722-.8-.80000002 0-.40784105.3051881-.74440158.6996497-.79376686l.1003503-.00623314h2.2v-2.2c0-.4418278.3581722-.8.8-.8z" fill-rule="evenodd"/></svg>