<svg height="32" viewBox="0 0 32 32" width="32" xmlns="http://www.w3.org/2000/svg"><g fill="none" fill-rule="evenodd"><path d="m22.2156851 16.3685216.0003149 9.3049484h-16.616v-13.144h12.0076471c.8708743 1.8852408 2.5579858 3.3159927 4.608038 3.8390516z" fill="#d0e7ef"/><path d="m19.0897151 14.6176498-13.4897151-.0010312v-2.1692685l11.9704251.0002473c.3654559.8188145.8840144 1.5542938 1.51929 2.1700524z" fill="#d9541a"/><path d="m16.2802591 21.8478138c.3246222-.134116.6980791-.0593007.9459884.1895117.2479094.2488124.3213663.6225387.1860706.9466709-.1352956.3241322-.4526539.534729-.8038876.5334598-.4779842-.0017407-.8645454-.3897131-.8645454-.8677003 0-.3512358.2117518-.6678261.536374-.8019421zm-2.6894122 0c.3246222-.134116.6980791-.0593007.9459885.1895117.2479093.2488124.3213662.6225387.1860706.9466709s-.452654.534729-.8038877.5334598c-.4779842-.0017407-.8645454-.3897131-.8645454-.8677003 0-.3512358.2117518-.6678261.536374-.8019421zm-2.6900495 0c.3246222-.134116.698079-.0593007.9459884.1895117.2479093.2488124.3213662.6225387.1860706.9466709s-.452654.534729-.8038876.5334598c-.4779843-.0017407-.8645454-.3897131-.8645454-.8677003 0-.3512358.2117518-.6678261.536374-.8019421zm-2.68828456 0c.32462221-.134116.69807908-.0593007.94598842.1895117.24790935.2488124.32136621.6225387.18607061.9466709-.13529561.3241322-.452654.534729-.80388763.5334598-.47798425-.0017407-.86454539-.3897131-.86454539-.8677003 0-.3512358.21175179-.6678261.53637399-.8019421zm0-2.6526058c.32462221-.134116.69807908-.0593007.94598842.1895117.24790935.2488124.32136621.6225387.18607061.9466709-.13529561.3241322-.452654.534729-.80388763.5334598-.47798425-.0017407-.86454539-.3897131-.86454539-.8677003 0-.3512358.21175179-.6678261.53637399-.8019421zm10.75490316 0c.3246222-.134116.6980791-.0593007.9459884.1895117.2479094.2488124.3213662.6225387.1860706.9466709s-.452654.534729-.8038876.5334598c-.4779843-.0017407-.8645454-.3897131-.8645454-.8677003 0-.3512358.2117518-.6678261.536374-.8019421zm-5.3765691 0c.3246222-.134116.6980791-.0593007.9459885.1895117.2479093.2488124.3213662.6225387.1860706.9466709s-.452654.534729-.8038877.5334598c-.4779842-.0017407-.8645454-.3897131-.8645454-.8677003 0-.3512358.2117518-.6678261.536374-.8019421zm-2.6900495 0c.3246222-.134116.698079-.0593007.9459884.1895117.2479093.2488124.3213662.6225387.1860706.9466709s-.452654.534729-.8038876.5334598c-.4779843-.0017407-.8645454-.3897131-.8645454-.8677003 0-.3512358.2117518-.6678261.536374-.8019421zm0-2.6524446c.3246222-.134116.698079-.0593006.9459884.1895117.2479093.2488124.3213662.6225387.1860706.9466709s-.452654.534729-.8038876.5334598c-.4779843-.0017407-.8645454-.3897131-.8645454-.8677003 0-.3512358.2117518-.6678261.536374-.8019421zm2.6900495 0c.3246222-.134116.6980791-.0593006.9459885.1895117.2479093.2488124.3213662.6225387.1860706.9466709s-.452654.534729-.8038877.5334598c-.4779842-.0017407-.8645454-.3897131-.8645454-.8677003 0-.3512358.2117518-.6678261.536374-.8019421zm2.6894122 0c.3246222-.134116.6980791-.0593006.9459884.1895117.2479094.2488124.3213663.6225387.1860706.9466709-.1352956.3241322-.4526539.534729-.8038876.5334598-.4779842-.0017407-.8645454-.3897131-.8645454-.8677003 0-.3512358.2117518-.6678261.536374-.8019421zm2.6871569 0c.3246222-.134116.6980791-.0593006.9459884.1895117.2479094.2488124.3213662.6225387.1860706.9466709s-.452654.534729-.8038876.5334598c-.4779843-.0017407-.8645454-.3897131-.8645454-.8677003 0-.3512358.2117518-.6678261.536374-.8019421z" fill="#7c969d"/><circle cx="16.613341" cy="19.997143" fill="#d9541a" r="1"/><path d="m7.99094954 12.4473501v-2.0178801c0-.3313708.26862915-.59999999.6-.59999999s.6.26862919.6.59999999v2.0178801z" fill="#7c969d" fill-rule="nonzero"/><path d="m23.9462266 15.0524532c-3.0078679 0-5.4462266-2.4383587-5.4462266-5.44622662 0-3.00786788 2.4383587-5.44622658 5.4462266-5.44622658s5.4462266 2.4383587 5.4462266 5.44622658c0 3.00786792-2.4383587 5.44622662-5.4462266 5.44622662z" fill="#4da86d"/><path d="m23.9462266 5.80622658c.407841 0 .7444016.30518815.7937668.6996497l.0062332.1003503v2.2h2.2c.4418278 0 .8.3581722.8.8 0 .40784102-.3051882.74440162-.6996497.79376682l-.1003503.0062332h-2.2v2.2c0 .4418278-.3581722.8-.8.8-.4078411 0-.7444016-.3051882-.7937669-.6996497l-.0062331-.1003503v-2.2h-2.2c-.4418278 0-.8-.3581722-.8-.80000002 0-.40784105.3051881-.74440158.6996497-.79376686l.1003503-.00623314h2.2v-2.2c0-.4418278.3581722-.8.8-.8z" fill="#fff" fill-rule="nonzero"/></g></svg>