<svg height="32" viewBox="0 0 32 32" width="32" xmlns="http://www.w3.org/2000/svg"><path d="m26.2701203 18.6871125c-.040554 2.879333-1.166439 5.5957962-3.1739191 7.6539535-.1463794.1463795-.3338029.223934-.536066.223934-.188874 0-.3746858-.0749767-.5237858-.2117018-.2989011-.2864468-.3027617-.7613022-.0134586-1.0631726 1.7425032-1.7818818 2.7177037-4.1347464 2.7472513-6.6265678.0064323-.6689544-.0543338-1.332648-.1817245-1.9857957.5092058-.0454331 1.0035194-.1449827 1.4765751-.2926846.1497765.7589008.2183363 1.5293506.2051276 2.302035zm-11.0799851-11.3121125c.6492735 0 1.3038907.0623098 1.9555717.18456388-.1425849.47355693-.2364527.96580279-.2770038 1.47308091-.5539674-.10600238-1.1192992-.16131067-1.6896957-.16764903-2.6222915-.01971648-5.0829484.98621244-6.93280618 2.83607024-1.81032849 1.8103285-2.81635467 4.2118936-2.83607049 6.7650923-.01969067 2.5499411.9446542 4.9724374 2.7083027 6.8050559.28824927.3007818.28438866.7756372-.01693953 1.0643589-.14667294.1344502-.33248473.2094269-.5213587.2094269-.20226312 0-.38968656-.0775545-.53785685-.2257556-2.04330298-2.1141105-3.15244911-4.9002431-3.13213961-7.8552753.02025824-2.9475737 1.18473875-5.7258434 3.27393044-7.8150351 2.03490521-2.03490523 4.69951632-3.18346719 7.56168512-3.2688079l.3443809-.0051261zm7.5733963 9.2335266.0520595.2321218c.099702.4901753.1520637.9933414.1546399 1.5036089.0101264 2.0452034-.7692383 3.9814983-2.1940296 5.4368087-.1463794.1463795-.3338029.223934-.536066.223934-.188874 0-.3746858-.0749767-.5237858-.2117018-.2989011-.2864468-.3027617-.7613022-.0137814-1.0628415 1.755418-1.8061946 2.1910734-4.4388727 1.31648-6.6542491.5481076.2491429 1.1330494.4298026 1.7444834.532319zm-5.8051208-5.7423071.0259798.142657c.1101003.5494831.2836271 1.0760488.5126199 1.5717366-2.2304831-.8671331-4.8605397-.3998164-6.6608091 1.4004529-1.1642795 1.1642795-1.81632191 2.7173727-1.82606866 4.3548268-.0097959 1.6457113.60849316 3.1965437 1.74830086 4.3753214.2882493.3007818.2843887.7756372-.0122322 1.0598518-.2978524.2978525-.77458248.2901008-1.06400223-.0119038-1.41160575-1.4627509-2.18238904-3.3923854-2.16205627-5.4256621.02038312-2.0383124.82549329-3.9561329 2.26374716-5.3943865 1.94148364-1.948065 4.67276554-2.6390297 7.17452074-2.0728941zm1.3477906 4.4527145c1.6857105 1.6857104 1.7205059 4.3586289.0884419 6.0729573-.1346258.1591033-.3328785.2431087-.5445079.2431087-.1872156 0-.3631574-.0735757-.5137858-.2117018-.3000357-.2875342-.3116201-.7624934-.0249869-1.0615866 1.0747277-1.1317929 1.0544461-2.8789062-.0472933-3.9806456-1.1114214-1.1114213-2.9264466-1.1114213-4.037868 0-1.0925684 1.0925684-1.1215325 2.8304164-.0654929 3.9625753.2762481.3013616.2608645.7744073-.0392144 1.0619318-.3013616.2762481-.7744073.2608645-1.060666-.0378506-1.6135539-1.7169868-1.5660659-4.3794813.1032413-6.0487885 1.6986874-1.6986874 4.4641643-1.6986874 6.142132 0zm-2.24 2.27c.4474001.4474001.4402469 1.1734476-.01 1.612132-.4485786.4485787-1.1735534.4485787-1.6235004-.0013863-.4387452-.450291-.4351967-1.1741806.0127547-1.6221141.450291-.4387452 1.1741806-.4351967 1.6207457.0113684z"/><path d="m23.9462266 5.80622658c.407841 0 .7444016.30518815.7937668.6996497l.0062332.1003503v2.2h2.2c.4418278 0 .8.3581722.8.8 0 .40784102-.3051882.74440162-.6996497.79376682l-.1003503.0062332h-2.2v2.2c0 .4418278-.3581722.8-.8.8-.4078411 0-.7444016-.3051882-.7937669-.6996497l-.0062331-.1003503v-2.2h-2.2c-.4418278 0-.8-.3581722-.8-.80000002 0-.40784105.3051881-.74440158.6996497-.79376686l.1003503-.00623314h2.2v-2.2c0-.4418278.3581722-.8.8-.8z"/></svg>