<svg height="32" viewBox="0 0 32 32" width="32" xmlns="http://www.w3.org/2000/svg"><path d="m14.315 13.13c.128-.056.2752-.0672.41088-.0336l.09912.0336 9.61 4.46c.21.09.35.31.35.54 0 .1971429-.1028571.3795918-.2644898.4906706l-.0855102.0493294-3.1 1.44 3.1 1.44c.21.1.34.31.34.54 0 .1971429-.1028571.3795918-.2644898.4906706l-.0855102.0493294-9.61 4.46c-.08.04-.17.06-.25.06-.0533333 0-.1111111-.0088889-.1674074-.0266667l-.0825926-.0333333-9.61-4.46c-.21-.09-.35-.31-.35-.54 0-.1971429.10285714-.3795918.2644898-.4906706l.0855102-.0493294 3.1-1.44-3.1-1.44c-.21-.09-.35-.31-.35-.54 0-.1971429.10285714-.3795918.2644898-.4906706l.0855102-.0493294zm5.58 7.65-5.09 2.36c-.08.04-.16.06-.25.06-.0533333 0-.1111111-.0088889-.1674074-.0266667l-.0825926-.0333333-5.09-2.36-2.84 1.32 8.19 3.8 8.17-3.8zm-5.33-6.45-8.19 3.8 8.19 3.8 8.19-3.8zm9.3812266-8.52377342c.407841 0 .7444016.30518815.7937668.6996497l.0062332.1003503v2.2h2.2c.4418278 0 .8.3581722.8.8 0 .40784102-.3051882.74440162-.6996497.79376682l-.1003503.0062332h-2.2v2.2c0 .4418278-.3581722.8-.8.8-.4078411 0-.7444016-.3051882-.7937669-.6996497l-.0062331-.1003503v-2.2h-2.2c-.4418278 0-.8-.3581722-.8-.80000002 0-.40784105.3051881-.74440158.6996497-.79376686l.1003503-.00623314h2.2v-2.2c0-.4418278.3581722-.8.8-.8z"/></svg>