<svg height="32" viewBox="0 0 32 32" width="32" xmlns="http://www.w3.org/2000/svg"><path d="m26.0330799 16.9655957c.0809649.5695584.1168792 1.1448777.1070805 1.7179417-.0401323 2.8492003-1.153769 5.5335413-3.1416441 7.5697156-.2314856.2371099-.6113572.2416693-.8484671.0101838s-.2416693-.6113571-.0101838-.848467c1.7729706-1.8160483 2.7646086-4.2063202 2.8004422-6.7501378.008742-.5114092-.023219-1.0234003-.0952838-1.5303495-.0466368-.3280727.181512-.6318347.5095846-.6784715.3280727-.0466367.6318347.1815121.6784715.5095847zm-10.8429447-9.4605957c.4810536 0 .9663079.0346524 1.4524324.10348725.3280979.04645841.5564118.35009633.5099534.67819426-.0464584.32809794-.3500963.55641188-.6781942.50995347-.2871778-.04066415-.5735923-.06783609-.8583676-.08143248l-.425824-.0102025h-.1c-2.6403876 0-5.0992676 1.01803961-6.965614 2.884386-1.84251804 1.842518-2.86656309 4.2864356-2.88441387 6.8837238-.01638039 2.3833476.79719771 4.6379119 2.30482727 6.4209431l.22008242.251474.23337722.2494408c.22639356.2419765.21376113.6216654-.02821531.8480589-.21509018.2012387-.53899019.2136174-.76731597.043936l-.08074293-.0721513-.23995291-.2565841c-1.85726091-2.050625-2.86125219-4.6967463-2.84203145-7.4933647.0200204-2.9129674 1.17051588-5.6586631 3.2358574-7.7240046 2.00778144-2.00778148 4.63551023-3.14278916 7.46007673-3.23037732zm7.2147359 9.337973c.1464527.5861429.2222733 1.190395.2254502 1.8020131.0098756 2.0139656-.7583067 3.9166181-2.1625801 5.349059-.2319765.2366296-.6118567.2404016-.8484863.0084252-.2366296-.2319765-.2404016-.6118568-.0084252-.8484863 1.1824671-1.2061856 1.8278345-2.8046472 1.8195069-4.5029393-.0026779-.5155476-.0665065-1.0242299-.1896753-1.5171841-.0803264-.3214876.1151735-.6472223.4366611-.7275487.3214877-.0803264.6472223.1151735.7275487.4366611zm-5.6041037-5.531045c.322371.0767042.5215233.4002186.4448191.7225897-.0767042.322371-.4002186.5215234-.7225897.4448192-1.9817444-.4715317-4.0778441.0205693-5.6276708 1.346662l-.1989991.1776876-.1721146.1658123-.203155.2118579c-1.07208284 1.16833-1.66503823 2.6711567-1.68098109 4.2654427-.01682492 1.682492.61885539 3.2760873 1.79055789 4.4902474.2301084.2384465.2233489.6182854-.0150976.8483938-.2384466.2301084-.61828545.223349-.84839384-.0150976-1.39023183-1.440608-2.14698467-3.3377217-2.12700646-5.335543.01785374-1.7853734.64796699-3.4790491 1.7973694-4.8379053l.20820734-.2362731.22816568-.2375306.19637642-.1897386c1.87136366-1.743489 4.47594876-2.4054575 6.93051236-1.8214244zm1.1893678 4.413072c1.63 1.63 1.66 4.21.08 5.87-.11.13-.27.19-.43.19-.15 0-.29-.06-.41-.17-.24-.23-.25-.61-.02-.85 1.13-1.19 1.11-3.03-.05-4.19-1.17-1.17-3.08-1.17-4.25 0-1.15 1.15-1.18 2.98-.07 4.17.22.24.21.62-.03.85-.24.22-.62.21-.85-.03-1.56-1.66-1.51-4.23.1-5.84 1.64-1.64 4.31-1.64 5.93 0zm-2.24 2.26c.38.39.38 1.02-.01 1.41s-1.02.39-1.41 0c-.38-.39-.38-1.02.01-1.41.39-.38 1.02-.38 1.41 0zm8.1960914-12.17877342c-.4078411 0-.7444016.30518815-.7937669.6996497l-.0062331.1003503v2.2h-2.2l-.1003503.00623314c-.3944616.04936528-.6996497.38592581-.6996497.79376686 0 .40784102.3051881.74440162.6996497.79376682l.1003503.0062332h2.2v2.2l.0062331.1003503c.0493653.3944615.3859258.6996497.7937669.6996497.407841 0 .7444016-.3051882.7937668-.6996497l.0062332-.1003503v-2.2h2.2l.1003503-.0062332c.3944615-.0493652.6996497-.3859258.6996497-.79376682 0-.40784105-.3051882-.74440158-.6996497-.79376686l-.1003503-.00623314h-2.2v-2.2l-.0062332-.1003503c-.0493652-.39446155-.3859258-.6996497-.7937668-.6996497z"/></svg>