<svg height="32" viewBox="0 0 32 32" width="32" xmlns="http://www.w3.org/2000/svg"><path d="m5.6 13.2438944c.33137085 0 .6.2686292.6.6v8.1789138h7.5844222v-5.792211c0-.3313709.2686291-.6.6-.6h9.4197488c1.4359404 0 2.6 1.1640596 2.6 2.6v8.1192818c0 .3313709-.2686291.6-.6.6-.3313708 0-.6-.2686291-.6-.6v-3.1270708h-19.004171v3.1270708c0 .3313709-.26862915.6-.6.6s-.6-.2686291-.6-.6v-12.5059846c0-.3313708.26862915-.6.6-.6zm18.204171 3.5867028h-8.8197488v5.192211h10.2197488v-3.792211c0-.7731987-.6268013-1.4-1.4-1.4zm-13.81195991-1.3961056c1.54424641 0 2.79610551 1.2518591 2.79610551 2.7961056 0 1.5442464-1.2518591 2.7961055-2.79610551 2.7961055-1.54424645 0-2.79610554-1.2518591-2.79610554-2.7961055 0-1.5442465 1.25185909-2.7961056 2.79610554-2.7961056zm0 1.2c-.88150475 0-1.59610554.7146008-1.59610554 1.5961056 0 .8815047.71460079 1.5961055 1.59610554 1.5961055.88150471 0 1.59610551-.7146008 1.59610551-1.5961055 0-.8815048-.7146008-1.5961056-1.59610551-1.5961056zm13.95401551-11.58437062c-.4078411 0-.7444016.30518815-.7937669.6996497l-.0062331.1003503v2.2h-2.2l-.1003503.00623314c-.3944616.04936528-.6996497.38592582-.6996497.79376686 0 .40784105.3051881.74440158.6996497.79376687l.1003503.00623313h2.2v2.20000002l.0062331.1003503c.0493653.3944615.3859258.6996497.7937669.6996497.407841 0 .7444016-.3051882.7937668-.6996497l.0062332-.1003503v-2.20000002h2.2l.1003503-.00623313c.3944615-.04936529.6996497-.38592582.6996497-.79376687 0-.40784104-.3051882-.74440158-.6996497-.79376686l-.1003503-.00623314h-2.2v-2.2l-.0062332-.1003503c-.0493652-.39446155-.3859258-.6996497-.7937668-.6996497z" fill-rule="evenodd"/></svg>