<svg height="32" viewBox="0 0 32 32" width="32" xmlns="http://www.w3.org/2000/svg"><path d="m12.5832053 18.9391958c3.1667388 0 5.9565589 2.0822296 6.8573978 5.1181354l.2597495.8753783c.1072719.3615157-.1636032.7244405-.5406985.7244405h-13.15289759c-.37709535 0-.6479704-.3629248-.54069848-.7244405l.25974944-.8753783c.90083892-3.0359058 3.69065904-5.1181354 6.85739783-5.1181354zm-.0997975-9.9841958c2.4792031 0 4.4889942 2.0097912 4.4889942 4.4889942s-2.0097911 4.4889942-4.4889942 4.4889942c-2.479203 0-4.48899415-2.0097912-4.48899415-4.4889942s2.00979115-4.4889942 4.48899415-4.4889942zm11.4628188-3.14877342c.407841 0 .7444016.30518815.7937668.6996497l.0062332.1003503v2.2h2.2c.4418278 0 .8.3581722.8.8 0 .40784102-.3051882.74440162-.6996497.79376682l-.1003503.0062332h-2.2v2.2c0 .4418278-.3581722.8-.8.8-.4078411 0-.7444016-.3051882-.7937669-.6996497l-.0062331-.1003503v-2.2h-2.2c-.4418278 0-.8-.3581722-.8-.80000002 0-.40784105.3051881-.74440158.6996497-.79376686l.1003503-.00623314h2.2v-2.2c0-.4418278.3581722-.8.8-.8z"/></svg>