<svg height="32" viewBox="0 0 32 32" width="32" xmlns="http://www.w3.org/2000/svg"><path d="m12.5832053 18.7758628c2.9343891 0 5.5294937 1.8743252 6.4631144 4.6361298l.0780329.2459666.225982.7615792c.1959209.6602704-.2604347 1.3229713-.9260713 1.3945669l-.1195476.0063777h-11.44302084c-.68872499 0-1.19422757-.6260192-1.07351224-1.2845219l.02789341-.1164227.22598201-.7615792c.85929388-2.8958953 3.52045263-4.8820964 6.54114726-4.8820964zm0 1.2c-2.4091266 0-4.54075866 1.5329768-5.317597 3.7948699l-.07312796.2285893-.18448034.620678h11.149l-.1830697-.620678c-.6624777-2.2326077-2.6244907-3.8091286-4.9129188-4.0032578l-.2378584-.0151213zm-.0997975-11.03729355c1.005039 0 1.9614164.33070553 2.7422038.93037937 1.1030339.84717128 1.7632212 2.15704218 1.7632212 3.57504558 0 .50517-.0833936.9997959-.2449054 1.4684725-.6212661 1.8027956-2.323045 3.0369524-4.2605196 3.0369524-2.48827745 0-4.50542491-2.0171474-4.50542491-4.5054249s2.01714746-4.50542495 4.50542491-4.50542495zm0 1.19999995c-1.8255357 0-3.30542491 1.4798892-3.30542491 3.305425s1.47988921 3.3054249 3.30542491 3.3054249c1.4215303 0 2.6703227-.9056439 3.1259968-2.2279232.118306-.3433012.1794282-.7058309.1794282-1.0775017 0-1.0410954-.4837697-2.0009379-1.2941604-2.6233482-.5729328-.4400338-1.2729042-.6820768-2.0112646-.6820768zm11.4628188-4.33234262c-.4078411 0-.7444016.30518815-.7937669.6996497l-.0062331.1003503v2.2h-2.2l-.1003503.00623314c-.3944616.04936528-.6996497.38592581-.6996497.79376686 0 .40784102.3051881.74440162.6996497.79376682l.1003503.0062332h2.2v2.2l.0062331.1003503c.0493653.3944615.3859258.6996497.7937669.6996497.407841 0 .7444016-.3051882.7937668-.6996497l.0062332-.1003503v-2.2h2.2l.1003503-.0062332c.3944615-.0493652.6996497-.3859258.6996497-.79376682 0-.40784105-.3051882-.74440158-.6996497-.79376686l-.1003503-.00623314h-2.2v-2.2l-.0062332-.1003503c-.0493652-.39446155-.3859258-.6996497-.7937668-.6996497z"/></svg>