<svg height="32" viewBox="0 0 32 32" width="32" xmlns="http://www.w3.org/2000/svg"><path d="m9.044 10.36c.28730563 0 .52726113.2112249.57237917.4861875l.00762083.0938125-.001 1.859h8.0913565c.3203251 0 .58.2596748.58.58s-.2596749.58-.58.58h-8.0913565l.001.981c0 .2873056-.21122494.5272611-.48618748.5723792l-.09381252.0076208c-.28730563 0-.52726113-.2112249-.57237917-.4861875l-.00762083-.0938125v-.981h-1.544v10.52h14.16l.0006713-8.0461121c.0000253-.3202771.2596683-.5798995.5799453-.5798995l.014704.0013869c.1069298.0388729.2151398.075079.3245495.1085379.1218185.0877865.2078618.2216099.2330256.375886l.0075895.0940887-.0004852 8.6271121c0 .2873056-.2112249.5272611-.4861875.5723792l-.0938125.0076208h-15.32c-.28730563 0-.52726113-.2112249-.57237917-.4861875l-.00762083-.0938125v-11.68c0-.1460923.06615841-.2995798.17028459-.4035725.08436708-.0920368.1945404-.1497283.31637448-.1691235l.09334093-.007304 2.124-.001v-1.859c0-.2553828.16689378-.4733531.39709627-.5503259l.08909121-.0220533zm7.448 11.024c.4978519 0 .9.3993746.9.9s-.4021481.9-.9.9c-.4952285 0-.9-.4047715-.9-.9 0-.5006254.4021481-.9.9-.9zm-2.48 0c.4978519 0 .9.3993746.9.9s-.4021481.9-.9.9c-.4952285 0-.9-.4047715-.9-.9 0-.5006254.4021481-.9.9-.9zm-4.96 0c.50062536 0 .9.4021481.9.9 0 .5006254-.40214807.9-.9.9-.49522847 0-.9-.4047715-.9-.9 0-.5006254.40214807-.9.9-.9zm2.48 0c.4952285 0 .9.4047715.9.9 0 .5006254-.4021481.9-.9.9-.4952285 0-.9-.4047715-.9-.9 0-.5006254.4021481-.9.9-.9zm-2.48-2.448c.50062536 0 .9.4021481.9.9 0 .5006254-.40214807.9-.9.9-.49522847 0-.9-.4047715-.9-.9 0-.5006254.40214807-.9.9-.9zm2.48 0c.4952285 0 .9.4047715.9.9 0 .5006254-.4021481.9-.9.9-.4952285 0-.9-.4047715-.9-.9 0-.5006254.4021481-.9.9-.9zm7.44 0c.4952285 0 .9.4047715.9.9 0 .5006254-.4021481.9-.9.9-.4952285 0-.9-.4047715-.9-.9 0-.5006254.4021481-.9.9-.9zm-2.48 0c.5006254 0 .9.4021481.9.9 0 .5006254-.4021481.9-.9.9-.4952285 0-.9-.4047715-.9-.9 0-.5006254.4021481-.9.9-.9zm-2.48 0c.4952285 0 .9.4047715.9.9 0 .5006254-.4021481.9-.9.9-.4952285 0-.9-.4047715-.9-.9 0-.5006254.4021481-.9.9-.9zm-2.48-2.448c.4952285 0 .9.4047715.9.9 0 .5006254-.4021481.9-.9.9-.4952285 0-.9-.4047715-.9-.9 0-.5006254.4021481-.9.9-.9zm4.952 0c.5006254 0 .9.4021481.9.9 0 .5006254-.4021481.9-.9.9-.4923272 0-.8909509-.4013919-.9-.9 0-.5032285.3967715-.9.9-.9zm2.488 0c.5006254 0 .9.4021481.9.9 0 .5006254-.4021481.9-.9.9-.4952285 0-.9-.4047715-.9-.9s.4047715-.9.9-.9zm-4.96 0c.4952285 0 .9.4047715.9.9 0 .5006254-.4021481.9-.9.9-.4952285 0-.9-.4047715-.9-.9 0-.5006254.4021481-.9.9-.9zm9.9342266-10.68177342c.407841 0 .7444016.30518815.7937668.6996497l.0062332.1003503v2.2h2.2c.4418278 0 .8.3581722.8.8 0 .40784102-.3051882.74440162-.6996497.79376682l-.1003503.0062332h-2.2v2.2c0 .4418278-.3581722.8-.8.8-.4078411 0-.7444016-.3051882-.7937669-.6996497l-.0062331-.1003503v-2.2h-2.2c-.4418278 0-.8-.3581722-.8-.80000002 0-.40784105.3051881-.74440158.6996497-.79376686l.1003503-.00623314h2.2v-2.2c0-.4418278.3581722-.8.8-.8z"/></svg>