<svg height="32" viewBox="0 0 32 32" width="32" xmlns="http://www.w3.org/2000/svg"><g fill="none" fill-rule="evenodd"><path d="m17.4033586 20.5921325.0341615 2.7784679c0 .2619048.1594203.5010352.3871635.6035197.0910973.0455486.1935818.068323.2960663.068323.1480331 0 .3074534-.0455487.421325-.1480332l4.2132506-3.3706004c.1594203-.1252588.2619047-.3302277.2619047-.5351967 0-.2049689-.0910973-.3985507-.2505176-.5351967l-4.315735-3.4616977c-.2049689-.1708074-.489648-.1935818-.7287784-.0797101-.2391305.1138716-.3871636.3643892-.3871636.626294l.0341615 2.6873706h-6.3426501c-.0113872 0-1.60559007.0455486-2.65320912-.9679089-.62629399-.6149069-.94513457-1.5031056-.94513457-2.6532091v-.4213251c0-.3757764-.30745342-.6832298-.68322981-.6832298-.3757764 0-.68322982.3074534-.68322982.6832298v.4213251c0 1.5486542.46687371 2.7784679 1.37784679 3.6552795.28467909.2732919.58074534.489648.89958592.6604555-.30745341.1708074-.61490683.3871635-.89958592.6604554-.91097308.8768116-1.37784679 2.1066253-1.37784679 3.6552795v.5807454c0 .3757764.30745342.6832298.68322982.6832298.37577639 0 .68322981-.3074534.68322981-.6832298v-.5807454c0-1.1501035.31884058-2.0496894.94513457-2.6532091 1.03623189-1.0020704 2.61904762-.9679089 2.65320912-.9679089h6.3768116z" fill="#252d4f" fill-rule="nonzero"/><path d="m23.9462266 2.96c-3.6706096 0-6.6462266 2.975617-6.6462266 6.64622658 0 3.67060962 2.975617 6.64622662 6.6462266 6.64622662s6.6462266-2.975617 6.6462266-6.64622662c0-3.67060958-2.975617-6.64622658-6.6462266-6.64622658z" fill="#fff" fill-rule="nonzero"/><path d="m23.9462266 15.0524532c-3.0078679 0-5.4462266-2.4383587-5.4462266-5.44622662 0-3.00786788 2.4383587-5.44622658 5.4462266-5.44622658s5.4462266 2.4383587 5.4462266 5.44622658c0 3.00786792-2.4383587 5.44622662-5.4462266 5.44622662z" fill="#4da86d"/><path d="m23.9462266 5.80622658c.407841 0 .7444016.30518815.7937668.6996497l.0062332.1003503v2.2h2.2c.4418278 0 .8.3581722.8.8 0 .40784102-.3051882.74440162-.6996497.79376682l-.1003503.0062332h-2.2v2.2c0 .4418278-.3581722.8-.8.8-.4078411 0-.7444016-.3051882-.7937669-.6996497l-.0062331-.1003503v-2.2h-2.2c-.4418278 0-.8-.3581722-.8-.80000002 0-.40784105.3051881-.74440158.6996497-.79376686l.1003503-.00623314h2.2v-2.2c0-.4418278.3581722-.8.8-.8z" fill="#fff" fill-rule="nonzero"/></g></svg>