<svg height="32" viewBox="0 0 32 32" width="32" xmlns="http://www.w3.org/2000/svg"><path d="m15.99 5.133c5.9829 0 10.857 4.8741 10.857 10.857s-4.8741 10.857-10.857 10.857-10.857-4.8741-10.857-10.857 4.8741-10.857 10.857-10.857zm0 4.5358c-.6191774 0-1.1237.5045226-1.1237 1.1237v4.17775h-4.0738c-.6191774 0-1.1237.5045226-1.1237 1.1237s.5045226 1.1237 1.1237 1.1237h4.0738v3.96985c0 .6191774.5045226 1.1237 1.1237 1.1237s1.1237-.5045226 1.1237-1.1237v-3.96985h4.0738c.6191774 0 1.1237-.5045226 1.1237-1.1237s-.5045226-1.1237-1.1237-1.1237h-4.0738v-4.17775c0-.6191774-.5045226-1.1237-1.1237-1.1237z"/></svg>