<svg height="32" viewBox="0 0 32 32" width="32" xmlns="http://www.w3.org/2000/svg"><g fill="none" fill-rule="evenodd"><g fill-rule="nonzero"><path d="m24.6016958 22.58745-9.4718 4.3955958c-.2402652.1115004-.5174478.1115004-.757713 0l-9.47179997-4.3955958c-.24046471-.1115929-.34493594-.3969919-.23334304-.6374567.04775942-.1029138.13042918-.1855836.23334304-.233343l9.47179997-4.3955958c.2402652-.1115003.5174478-.1115003.757713 0l9.4718 4.3955958c.2404647.1115929.3449359.396992.233343.6374567-.0477594.1029138-.1304292.1855836-.233343.233343z" fill="#9373b3"/><path d="m24.6016958 18.4151064-9.4718 4.3955958c-.2402652.1115004-.5174478.1115004-.757713 0l-9.47179997-4.3955958c-.24046471-.1115929-.34493594-.3969919-.23334304-.6374566.04775942-.1029139.13042918-.1855837.23334304-.2333431l9.47179997-4.3955958c.2402652-.1115003.5174478-.1115003.757713 0l9.4718 4.3955958c.2404647.1115929.3449359.396992.233343.6374567-.0477594.1029139-.1304292.1855836-.233343.233343z" fill="#ba97dc"/><path d="m23.9462266 2.96c-3.6706096 0-6.6462266 2.975617-6.6462266 6.64622658 0 3.67060962 2.975617 6.64622662 6.6462266 6.64622662s6.6462266-2.975617 6.6462266-6.64622662c0-3.67060958-2.975617-6.64622658-6.6462266-6.64622658z" fill="#fff"/></g><path d="m23.9462266 15.0524532c-3.0078679 0-5.4462266-2.4383587-5.4462266-5.44622662 0-3.00786788 2.4383587-5.44622658 5.4462266-5.44622658s5.4462266 2.4383587 5.4462266 5.44622658c0 3.00786792-2.4383587 5.44622662-5.4462266 5.44622662z" fill="#4da86d"/><path d="m23.9462266 5.80622658c.407841 0 .7444016.30518815.7937668.6996497l.0062332.1003503v2.2h2.2c.4418278 0 .8.3581722.8.8 0 .40784102-.3051882.74440162-.6996497.79376682l-.1003503.0062332h-2.2v2.2c0 .4418278-.3581722.8-.8.8-.4078411 0-.7444016-.3051882-.7937669-.6996497l-.0062331-.1003503v-2.2h-2.2c-.4418278 0-.8-.3581722-.8-.80000002 0-.40784105.3051881-.74440158.6996497-.79376686l.1003503-.00623314h2.2v-2.2c0-.4418278.3581722-.8.8-.8z" fill="#fff" fill-rule="nonzero"/></g></svg>