<svg height="32" viewBox="0 0 32 32" width="32" xmlns="http://www.w3.org/2000/svg"><path d="m6.7449735 14.5c.37577639 0 .68322981.3074534.68322981.6832298v.4213251c0 1.1501035.31884058 2.0383022.94513457 2.6532091.91666667.8867753 2.25181162.9627491 2.57890342.9678866l6.4169558.0000223-.0341615-2.6873706c0-.2619048.1480331-.5124224.3871636-.626294.2391304-.1138717.5238095-.0910973.7287784.0797101l4.315735 3.4616977c.1594203.136646.2505176.3302278.2505176.5351967 0 .204969-.1024844.4099379-.2619047.5351967l-4.2132506 3.3706004c-.1138716.1024845-.2732919.1480332-.421325.1480332-.1024845 0-.204969-.0227744-.2960663-.068323-.2277432-.1024845-.3871635-.3416149-.3871635-.6035197l-.0347764-2.7563738-6.4157882.000588c-.2430052.0015222-1.5380183.0451829-2.4813934.8480619l-.13222422.1199392c-.62629399.6035197-.94513457 1.5031056-.94513457 2.6532091v.5807454c0 .3757764-.30745342.6832298-.68322981.6832298-.3757764 0-.68322982-.3074534-.68322982-.6832298v-.5807454c0-1.5486542.46687371-2.7784679 1.37784679-3.6552795.28467909-.2732919.59213251-.489648.89958592-.6604554-.31884058-.1708075-.61490683-.3871636-.89958592-.6604555-.91097308-.8768116-1.37784679-2.1066253-1.37784679-3.6552795v-.4213251c0-.3757764.30745342-.6832298.68322982-.6832298zm17.2012531-8.69377342c.407841 0 .7444016.30518815.7937668.6996497l.0062332.1003503v2.2h2.2c.4418278 0 .8.3581722.8.8 0 .40784102-.3051882.74440162-.6996497.79376682l-.1003503.0062332h-2.2v2.2c0 .4418278-.3581722.8-.8.8-.4078411 0-.7444016-.3051882-.7937669-.6996497l-.0062331-.1003503v-2.2h-2.2c-.4418278 0-.8-.3581722-.8-.80000002 0-.40784105.3051881-.74440158.6996497-.79376686l.1003503-.00623314h2.2v-2.2c0-.4418278.3581722-.8.8-.8z" fill-rule="evenodd"/></svg>