<svg height="32" viewBox="0 0 32 32" width="32" xmlns="http://www.w3.org/2000/svg"><g fill="none" fill-rule="evenodd"><g fill-rule="nonzero"><path d="m6.77830394 20.7789138h20.20417106v4.5770708c0 .4694421-.380558.85-.85.85-.4694421 0-.85-.3805579-.85-.85v-2.8770708h-18.50417106v2.8770708c0 .4694421-.38055797.85-.85.85-.46944204 0-.85-.3805579-.85-.85v-12.5059846c0-.469442.38055796-.85.85-.85.46944203 0 .85.380558.85.85z" fill="#7c969d"/><path d="m14.2992586 20.7859352v-5.7481233c0-.3313709.2686291-.6.6-.6h9.4832164c1.4359403 0 2.6 1.1640596 2.6 2.6v3.7481233z" fill="#3bbee8"/><path d="m14.2992586 20.7859352v-1.6829429h12.6832164v1.6829429z" fill="#25a5cf"/><path d="m10.5473125 19.1029923c-1.38982176 0-2.51649494-1.1266732-2.51649494-2.516495s1.12667318-2.516495 2.51649494-2.516495c1.3898219 0 2.516495 1.1266732 2.516495 2.516495s-1.1266731 2.516495-2.516495 2.516495z" fill="#f0ab15"/></g><path d="m23.9462266 3.36c1.7248478 0 3.2864045.69913272 4.4167492 1.82947741 1.1303446 1.13034468 1.8294774 2.69190133 1.8294774 4.41674917 0 1.72484782-.6991328 3.28640452-1.8294774 4.41674922-1.1303447 1.1303446-2.6919014 1.8294774-4.4167492 1.8294774-1.7248479 0-3.2864045-.6991328-4.4167492-1.8294774-1.1303447-1.1303447-1.8294774-2.6919014-1.8294774-4.41674922 0-1.72484784.6991327-3.28640449 1.8294774-4.41674917 1.1303447-1.13034469 2.6919013-1.82947741 4.4167492-1.82947741z" fill="#4da86d" stroke="#fff" stroke-width="1.6"/><path d="m23.9462266 15.0524532c-3.0078679 0-5.4462266-2.4383587-5.4462266-5.44622662 0-3.00786788 2.4383587-5.44622658 5.4462266-5.44622658s5.4462266 2.4383587 5.4462266 5.44622658c0 3.00786792-2.4383587 5.44622662-5.4462266 5.44622662z" fill="#4da86d"/><path d="m23.9462266 5.80622658c.407841 0 .7444016.30518815.7937668.6996497l.0062332.1003503v2.2h2.2c.4418278 0 .8.3581722.8.8 0 .40784102-.3051882.74440162-.6996497.79376682l-.1003503.0062332h-2.2v2.2c0 .4418278-.3581722.8-.8.8-.4078411 0-.7444016-.3051882-.7937669-.6996497l-.0062331-.1003503v-2.2h-2.2c-.4418278 0-.8-.3581722-.8-.80000002 0-.40784105.3051881-.74440158.6996497-.79376686l.1003503-.00623314h2.2v-2.2c0-.4418278.3581722-.8.8-.8z" fill="#fff" fill-rule="nonzero"/></g></svg>