<svg height="32" viewBox="0 0 32 32" width="32" xmlns="http://www.w3.org/2000/svg"><path d="m8.56844491 8.85551527c.33137085 0 .6.26862915.6.6l-.00054954 2.01760003 8.39826083.0012766c.6453058 2.20747 2.4051524 3.9392547 4.6292083 4.5450224l.0020938 8.0802232c0 .3313708-.2686291.6-.6.6h-15.41996293c-.33137085 0-.6-.2686292-.6-.6v-12.0262422c0-.3313434.26865661-.5999612.6-.6000703l1.7904-.0002097.00054954-2.01760003c0-.33137085.26862915-.6.6-.6zm7.68930959 12.01834373c-.3246222.134116-.536374.4507064-.536374.8019422 0 .4779872.3865611.8659595.8645454.8677116.3512336.0012578.668592-.2093389.8038876-.5334712.1352956-.3241322.0618388-.6978585-.1860706-.9466708-.2479093-.2488124-.6213662-.3236278-.9459884-.1895118zm-2.6894122 0c-.3246222.134116-.536374.4507064-.536374.8019422 0 .4779872.3865612.8659595.8645454.8677116.3512336.0012578.668592-.2093389.8038876-.5334712.1352956-.3241322.0618388-.6978585-.1860706-.9466708-.2479093-.2488124-.6213662-.3236278-.9459884-.1895118zm-2.6900496 0c-.3246222.134116-.536374.4507064-.536374.8019422 0 .4779872.3865612.8659595.8645454.8677116.3512337.0012578.6685921-.2093389.8038877-.5334712.1352956-.3241322.0618387-.6978585-.1860706-.9466708-.2479094-.2488124-.6213663-.3236278-.9459885-.1895118zm-2.68828448 0c-.32462221.134116-.536374.4507064-.536374.8019422 0 .4779872.38656115.8659595.86454539.8677116.35123363.0012578.66859202-.2093389.80388763-.5334712.1352956-.3241322.06183874-.6978585-.18607061-.9466708-.24790934-.2488124-.62136621-.3236278-.94598841-.1895118zm0-2.6526057c-.32462221.134116-.536374.4507063-.536374.8019421 0 .4779872.38656115.8659596.86454539.8677117.35123363.0012577.66859202-.209339.80388763-.5334712.1352956-.3241323.06183874-.6978586-.18607061-.9466709-.24790934-.2488124-.62136621-.3236277-.94598841-.1895117zm10.75490318 0c-.3246222.134116-.536374.4507063-.536374.8019421 0 .4779872.3865611.8659596.8645454.8677117.3512336.0012577.668592-.209339.8038876-.5334712.1352956-.3241323.0618387-.6978586-.1860706-.9466709-.2479094-.2488124-.6213662-.3236277-.9459884-.1895117zm-2.6854082 0c-.3246222.134116-.536374.4507063-.536374.8019421 0 .4779872.3865611.8659596.8645454.8677117.3512336.0012577.668592-.209339.8038876-.5334712.1352956-.3241323.0618388-.6978586-.1860706-.9466709-.2479093-.2488124-.6213662-.3236277-.9459884-.1895117zm-2.6911609 0c-.3246222.134116-.536374.4507063-.536374.8019421 0 .4779872.3865612.8659596.8645454.8677117.3512336.0012577.668592-.209339.8038876-.5334712.1352956-.3241323.0618388-.6978586-.1860706-.9466709-.2479093-.2488124-.6213662-.3236277-.9459884-.1895117zm-2.6900496 0c-.3246222.134116-.536374.4507063-.536374.8019421 0 .4779872.3865612.8659596.8645454.8677117.3512337.0012577.6685921-.209339.8038877-.5334712.1352956-.3241323.0618387-.6978586-.1860706-.9466709-.2479094-.2488124-.6213663-.3236277-.9459885-.1895117zm0-2.6524446c-.3246222.134116-.536374.4507063-.536374.8019421 0 .4779872.3865612.8659596.8645454.8677117.3512337.0012578.6685921-.209339.8038877-.5334712s.0618387-.6978585-.1860706-.9466709c-.2479094-.2488124-.6213663-.3236277-.9459885-.1895117zm2.6900496 0c-.3246222.134116-.536374.4507063-.536374.8019421 0 .4779872.3865612.8659596.8645454.8677117.3512336.0012578.668592-.209339.8038876-.5334712s.0618388-.6978585-.1860706-.9466709c-.2479093-.2488124-.6213662-.3236277-.9459884-.1895117zm2.6894122 0c-.3246222.134116-.536374.4507063-.536374.8019421 0 .4779872.3865611.8659596.8645454.8677117.3512336.0012578.668592-.209339.8038876-.5334712s.0618388-.6978585-.1860706-.9466709c-.2479093-.2488124-.6213662-.3236277-.9459884-.1895117zm2.6871569 0c-.3246222.134116-.536374.4507063-.536374.8019421 0 .4779872.3865611.8659596.8645454.8677117.3512336.0012578.668592-.209339.8038876-.5334712s.0618387-.6978585-.1860706-.9466709c-.2479094-.2488124-.6213662-.3236277-.9459884-.1895117zm5.0013152-9.76258212c.407841 0 .7444016.30518815.7937668.6996497l.0062332.1003503v2.2h2.2c.4418278 0 .8.3581722.8.8 0 .40784102-.3051882.74440162-.6996497.79376682l-.1003503.0062332h-2.2v2.2c0 .4418278-.3581722.8-.8.8-.4078411 0-.7444016-.3051882-.7937669-.6996497l-.0062331-.1003503v-2.2h-2.2c-.4418278 0-.8-.3581722-.8-.80000002 0-.40784105.3051881-.74440158.6996497-.79376686l.1003503-.00623314h2.2v-2.2c0-.4418278.3581722-.8.8-.8z"/></svg>