<svg fill="none" height="32" viewBox="0 0 32 32" width="32" xmlns="http://www.w3.org/2000/svg"><path clip-rule="evenodd" d="m16.3671 4.01456c5.0154.1691 8.683 4.86942 7.8399 9.81604-.4917 2.8882-2.2906 5.2455-4.2047 7.7536-1.2542 1.6436-2.558 3.352-3.5757 5.317-.144.2783-.5471.2783-.6912-.0019-1.0265-1.9911-2.3437-3.7633-3.6078-5.4639-2.23587-3.0081-4.30533-5.7922-4.30533-9.168 0-4.65656 3.85193-8.41211 8.54483-8.25284zm-.2861 12.14644c2.1497 0 3.8936-1.7439 3.8936-3.8936 0-2.1496-1.7439-3.89361-3.8936-3.89361-2.1501 0-3.8936 1.74401-3.8936 3.89361 0 2.1497 1.7435 3.8936 3.8936 3.8936zm-13.081 2.5254c0-2.2849 1.63419-4.1876 3.79815-4.6024.16069.8336.42431 1.63.75868 2.3965-1.15955.0675-2.07933 1.0297-2.07933 2.2059 0 1.22.98949 2.2097 2.2097 2.2097.77107 0 1.45017-.3953 1.84553-.9943.06612.0957.13263.191.19944.286.48083.6839.97393 1.3478 1.46483 2.0082-.3832.5967-.8281 1.1797-1.28458 1.7779-.71183.9327-1.45171 1.9023-2.02931 3.0175-.08174.1579-.3105.1579-.39223-.0011-.58258-1.13-1.33015-2.1358-2.04754-3.1009-1.26888-1.7071-2.44334-3.2872-2.44334-5.203zm19.257 5.4486c-.4629-.6227-.9121-1.2271-1.2864-1.8395.3231-.4236.6475-.8495.9692-1.2827.1894-.255.3776-.5124.5629-.7728.3348.6699 1.0273 1.1301 1.827 1.1301 1.1269 0 2.0411-.9142 2.0411-2.0412 0-1.1269-.9142-2.0411-2.0411-2.0411l-.0206.0001c.3451-.7032.6363-1.4363.8485-2.208 2.2719.447 3.8347 2.7041 3.4318 5.0685-.2578 1.5141-1.2009 2.7498-2.2043 4.0647-.6575.8616-1.3409 1.7572-1.8745 2.7873-.0755.1459-.2868.1459-.3623-.001-.5381-1.0438-1.2287-1.9728-1.8913-2.8644z" fill="#000" fill-rule="evenodd"/></svg>