<svg fill="none" height="32" viewBox="0 0 32 32" width="32" xmlns="http://www.w3.org/2000/svg"><g clip-rule="evenodd" fill="#000" fill-rule="evenodd"><path d="m11.5116 12.7077c0-2.4809 2.0121-4.49358 4.4936-4.49358 2.4811 0 4.4937 2.01258 4.4937 4.49358 0 2.4811-2.0126 4.4937-4.4937 4.4937-2.4815 0-4.4936-2.0127-4.4936-4.4937zm4.4936-3.29359c-1.8186 0-3.2936 1.47529-3.2936 3.29359 0 1.8184 1.475 3.2937 3.2936 3.2937 1.8183 0 3.2937-1.4754 3.2937-3.2937 0-1.8182-1.4754-3.29359-3.2937-3.29359z"/><path d="m16.3116 3.85523c-5.0333-.17075-9.1651 3.85784-9.1651 8.85247 0 .7702.10092 1.5102.28112 2.2267-2.3175.7465-3.89079 3.2613-3.46578 5.7551.28277 1.6606 1.30411 2.9986 2.27494 4.2705l.04378.0574c.66189.8673 1.31295 1.7228 1.81865 2.6991.29985.5793 1.13039.5774 1.42861-.0022.51208-.9931 1.17248-1.8838 1.83948-2.781.3187-.4289.7268-.9963 1.0773-1.5158.971 1.331 1.9114 2.7028 2.6818 4.197.3669.7126 1.3889.7144 1.7573.0029.7756-1.4975 1.7239-2.8458 2.7036-4.1528.3432.5065.7363 1.0528 1.0455 1.4687.6669.8972 1.3274 1.7879 1.8394 2.781.2982.5796 1.1288.5815 1.4286.0022.5057-.9763 1.1568-1.8318 1.8187-2.6991l.0437-.0574c.9709-1.2719 1.9922-2.6099 2.275-4.2705.4228-2.4812-1.1324-4.9831-3.4307-5.7436.0438-.1892.0823-.3805.1152-.5742.9013-5.28816-3.0158-10.33449-8.4111-10.51647zm-.0406 1.19931c-4.3526-.14772-7.9245 3.33476-7.9245 7.65316 0 3.1408 1.9207 5.7613 4.1869 8.81l.0127.0173c1.1828 1.5911 2.4415 3.2845 3.4602 5.1756 1.011-1.8629 2.2578-3.4966 3.4299-5.0325l.0134-.0176c1.9337-2.5339 3.6276-4.7736 4.0902-7.4903.7848-4.60499-2.6334-8.95938-7.2688-9.11566zm-4.585 17.33476c-.0386-.0519-.0772-.1038-.1157-.1557l-.0654-.0879c-.1826-.2457-.3652-.4913-.5464-.7372-.19.2085-.4123.391-.6481.5397-.43347.2732-.96078.4622-1.49739.4622-1.45828 0-2.64115-1.1829-2.64115-2.6412 0-1.2698.89687-2.3307 2.09148-2.5838-.1762-.3635-.33612-.7318-.47636-1.1058-1.73995.5669-2.96757 2.4991-2.64218 4.4084.22859 1.3426 1.06665 2.4608 2.08971 3.8014l.01294.0169c.51888.6799 1.07635 1.4104 1.56389 2.2256.49177-.8332 1.0554-1.5915 1.58036-2.2978l.0125-.0167c.3955-.5321.9152-1.2604 1.2818-1.8281zm-2.81059-4.0612h-.0624c-.79554 0-1.44115.6456-1.44115 1.4411 0 .7956.64561 1.4412 1.44115 1.4412.2631 0 .57149-.0971.8575-.2774.24397-.1537.43699-.3462.55619-.5344-.48242-.6812-.94167-1.3687-1.35129-2.0705zm12.72049 5.8893c-.3811-.5127-.8774-1.2074-1.241-1.7651l.0957-.1254c.2174-.2849.4348-.5697.6501-.8554.1763.1824.3771.3432.5889.4767.4335.2732.9608.4622 1.4974.4622 1.4583 0 2.6412-1.1829 2.6412-2.6412 0-1.2408-.8565-2.2823-2.0103-2.5652.1681-.3611.3201-.729.4528-1.1051 1.7093.5904 2.9063 2.501 2.5845 4.3891-.2286 1.3426-1.0666 2.4608-2.0897 3.8014l-.0129.0169c-.5189.6799-1.0764 1.4104-1.5639 2.2256-.4918-.8332-1.0554-1.5914-1.5804-2.2977zm.7336-3.2844c-.2079-.131-.3789-.2902-.4986-.4509.5046-.7023.9824-1.4158 1.4031-2.1533.7738.0249 1.3942.6606 1.3942 1.4404 0 .7956-.6456 1.4412-1.4412 1.4412-.2631 0-.5715-.0971-.8575-.2774z"/></g></svg>