<svg height="32" viewBox="0 0 32 32" width="32" xmlns="http://www.w3.org/2000/svg"><g fill="none"><path d="m10.5440682 11.1322411c1.5384121 0 2.893716 1.011554 3.3313465 2.4864071l.1261872.4252617c.052113.1756255-.079479.3519356-.2626732.3519356h-6.38972111c-.18319417 0-.31478616-.1763101-.26267311-.3519356l.12618714-.4252617c.43763052-1.4748531 1.79293437-2.4864071 3.33134658-2.4864071zm-.048482-4.85035535c1.2044051 0 2.1807683.97636319 2.1807683 2.18076822 0 1.20440504-.9763632 2.18076823-2.1807683 2.18076823-1.204405 0-2.1807682-.97636319-2.1807682-2.18076823 0-1.20440503.9763632-2.18076822 2.1807682-2.18076822z" fill="#005a7d"/><path d="m24.816875 7.79185455h-8.63375c-.3772795 0-.683125.26862915-.683125.6v5.37453535c0 .3313708.3058455.6.683125.6h8.63375c.3772795 0 .683125-.2686292.683125-.6v-5.37453535c0-.33137085-.3058455-.6-.683125-.6z" fill="#74a2ab"/><path d="m20.9143378 10.8648259h-.8286756c-.3313708 0-.6.2686292-.6.6v5.1143767c0 .3313709.2686292.6.6.6h.8286756c.3313708 0 .6-.2686291.6-.6v-5.1143767c0-.3313708-.2686292-.6-.6-.6z" fill="#345c64"/><path d="m25.236078 16.0004926c.2982337 0 .5456467.2175896.592147.5026769l.007853.0973231v8.8995074c0 .7619048-1.0884354.7981859-1.1920959.1088435l-.0079041-.1088435-.000156-.7495074h-17.27199997v.7495074c0 .7619048-1.08843537.7981859-1.19209588.1088435l-.00790412-.1088435v-8.8995074c0-.3313708.26862915-.6.6-.6z" fill="#a86726"/></g></svg>