<svg height="32" viewBox="0 0 32 32" width="32" xmlns="http://www.w3.org/2000/svg"><path d="m24.2915831 7.79185455c.2982338 0 .5456467.21758961.592147.50267688l.007853.09732312v5.37453535c0 .2982337-.2175896.5456467-.5026769.592147l-.0973231.007853-2.7878224.0000631.0078923.0556168.0026848.0571328-.0009464 1.5206831 3.745156.0006069c.2982337 0 .5456467.2175896.592147.5026769l.007853.0973231v8.8995074c0 .7619048-1.0884354.7981859-1.1920959.1088435l-.0079041-.1088435-.000156-.7495074h-17.27199998v.7495074c0 .7619048-1.08843537.7981859-1.19209588.1088435l-.00790412-.1088435v-8.8995074c0-.3313708.26862916-.6.6-.6l12.69899998-.0006069.0002708-1.5206831c0-.0385399.0036337-.076231.0105771-.1127496l-2.7878224-.0000631c-.2982338 0-.5456467-.2175896-.592147-.5026769l-.007853-.0973231v-5.37453535c0-.29823377.2175896-.54564675.5026769-.59214701l.0973231-.00785299zm-13.7475149 3.34038655c1.5384121 0 2.893716 1.011554 3.3313465 2.4864071l.1261872.4252617c.052113.1756255-.079479.3519356-.2626732.3519356h-6.38972111c-.18319417 0-.31478616-.1763101-.26267311-.3519356l.12618714-.4252617c.43763052-1.4748531 1.79293437-2.4864071 3.33134658-2.4864071zm-.048482-4.85035535c1.2044051 0 2.1807683.97636319 2.1807683 2.18076822 0 1.20440504-.9763632 2.18076823-2.1807683 2.18076823-1.204405 0-2.1807682-.97636319-2.1807682-2.18076823 0-1.20440503.9763632-2.18076822 2.1807682-2.18076822z"/></svg>