<svg height="32" viewBox="0 0 32 32" width="32" xmlns="http://www.w3.org/2000/svg"><path d="m24.2915831 8.3068259c.2982338 0 .5456467.21758961.592147.50267688l.007853.09732312v5.3745353c0 .2982338-.2175896.5456468-.5026769.592147l-.0973231.007853-3.1921917-.0005353v1.119l4.159156.0006667c.2982337 0 .5456467.2175896.592147.5026769l.007853.0973231v8.8995074c0 .7619048-1.0884354.7981859-1.1920959.1088435l-.0079041-.1088435-.000156-.7501741h-17.27299998l.001.7501741c0 .3313708-.26862915.6-.6.6-.29823376 0-.54564675-.2175896-.59214701-.5026769l-.00785299-.0973231v-8.8995074c0-.3313708.26862916-.6.6-.6l13.11299998-.0006667v-1.119l-3.1909745.0005353c-.2982338 0-.5456467-.2175896-.592147-.5026769l-.007853-.0973231v-5.3745353c0-.29823377.2175896-.54564676.5026769-.59214702l.0973231-.00785298zm.3664169 8.8931741h-17.272v6.35h17.272zm-14.1139318-5.9863376c1.6962939 0 3.1906877 1.1153662 3.6732307 2.7415782l.1391373.4689047c.0574612.1936494-.0876356.3880535-.2896303.3880535h-7.04547542c-.20199474 0-.34709155-.1944041-.28963032-.3880535l.13913728-.4689047c.48254298-1.626212 1.9769368-2.7415782 3.67323076-2.7415782zm13.1469318-1.7076624h-6.383v4.175h6.383zm-13.1469318 2.9076624c-.85844331 0-1.64159934.4159129-2.12692304 1.0816385l-.08014516.1166991h4.413l-.0790088-.1166991c-.4506577-.6181738-1.1581199-1.0209479-1.9442044-1.0753331zm-.0534575-6.54812999c1.3280088 0 2.4045727 1.07656386 2.4045727 2.40457267 0 1.32800882-1.0765639 2.40457272-2.4045727 2.40457272-1.32800881 0-2.40457267-1.0765639-2.40457267-2.40457272 0-1.32800881 1.07656386-2.40457267 2.40457267-2.40457267zm0 1.2c-.66526711 0-1.20457267.53930556-1.20457267 1.20457267 0 .66526712.53930556 1.20457268 1.20457267 1.20457268.6652671 0 1.2045727-.53930556 1.2045727-1.20457268 0-.66526711-.5393056-1.20457267-1.2045727-1.20457267z"/></svg>