<svg fill="none" height="32" viewBox="0 0 32 32" width="32" xmlns="http://www.w3.org/2000/svg"><g fill="#000"><path d="m12.8145 12.9246h6.3709v-5.34579l-3.1855-2.1037-3.1854 2.1037z"/><path d="m16.6437 15.5101c-.0886-.2879-.3467-.4835-.646-.4835l-.0999.0073-.0953.0213c-.2782.0837-.4808.3419-.4808.6474l-.0014 3.1486-2.7349 1.5806-.0773.0526-.0819.0779c-.1983.2204-.236.537-.0882.793l.0563.0828.074.0793c.2118.1928.5319.2362.7932.0853l2.7338-1.5795 2.7419 1.5831.0842.0406.1084.032c.2901.0616.5831-.0641.7309-.3201l.0436-.0902.0316-.1037c.0611-.2798-.0614-.5787-.3227-.7295l-2.7409-1.5832.0014-3.1496-.0068-.0933z"/><path d="m28.1854 26.9246h-6.3709v-5.3458l3.1854-2.1037 3.1855 2.1037z"/><path d="m3.81445 21.5788v5.3458h6.37095v-5.3458l-3.18546-2.1037z"/></g></svg>