<svg fill="none" height="32" viewBox="0 0 32 32" width="32" xmlns="http://www.w3.org/2000/svg"><g clip-rule="evenodd" fill-rule="evenodd"><path d="m15.1223 15.4387c0-.4837.3922-.8759.876-.8759.4358 0 .7966.3179.8646.7344l.0026.016.0088.1096-.0007 3.0506 2.6402 1.525c.4189.2419.5625.7777.3206 1.1967-.2179.3774-.6736.5309-1.0683.3815l-.0152-.0057-.0992-.0471-2.6557-1.5333-2.6339 1.5216c-.419.2419-.9548.0984-1.1967-.3206-.2179-.3774-.1231-.8488.2037-1.1159l.0126-.0103.0903-.0623 2.6496-1.5304z" fill="#bbd3dc"/><g fill="#4588a0"><path d="m19.1854 12.9246h-6.3709v-5.34579l3.1854-2.1037 3.1855 2.1037z"/><path d="m28.1854 26.9246h-6.3709v-5.3458l3.1854-2.1037 3.1855 2.1037z"/><path d="m10.1854 26.9246h-6.37095v-5.3458l3.18549-2.1037 3.18546 2.1037z"/></g></g></svg>