<svg height="32" viewBox="0 0 32 32" width="32" xmlns="http://www.w3.org/2000/svg"><path d="m20.1610848 20.1818892 1.4919163 1.2366549c1.4730913 1.2567751 1.6931995 3.436796.5350325 4.9588982l-.1293691.1604928-1.5249461 1.7874198c-.4652946.5453812-1.2364307.6990388-1.8695419.3906258l-.1355969-.0745416c-.5869318-.3615147-.7949306-1.1049229-.5009002-1.7122947l.0655362-.1195071.4375686-.710408c.0979681-.1590545.1706619-.3323478.215487-.513695.2393011-.9681303-.3515317-1.9469469-1.3196653-2.1862348l-.145003-.0360262zm-9.774431 1.203309 1.455431-1.2062884 2.87539 3.1845027-.1440807.035887c-.9681336.2392879-1.5589664 1.2181045-1.3196653 2.1862348.0448251.1813472.1175189.3546405.215487.513695l.4375686.710408c.3615147.5869318.2127937 1.3444285-.3230665 1.7545604l-.1145021.0785964c-.6547807.4015521-1.5044042.2668978-2.0029342-.3174392l-1.52494611-1.7874198c-1.2567751-1.4730912-1.13080017-3.6605713.25263251-4.9812757zm7.1861451-10.3858156c1.2596909 0 2.4848588.3963953 3.5035277 1.129134l.2313335.1750368 4.234021 3.3675587c.5300619.4215885.6388697 1.1836332.2479759 1.7367195-.3717712.5260293-1.0541005.7181227-1.6393825.4789423l-.1237836-.0578896-3.8805771-2.0535583-.000829 2.6295632-8.291-.0009794.0000014-2.6285838-3.88057706 2.0535583c-.61000557.3228082-1.36483986.1425501-1.76316617-.4210527-.3908938-.5530863-.28208593-1.315131.24797593-1.7367195l4.234021-3.3675587c1.0617193-.844446 2.378271-1.3041708 3.7348612-1.3041708zm-1.4390561-7.87247275c1.9673629 0 3.5506419 1.58541284 3.5506419 3.54210675 0 1.9758981-1.583279 3.5591771-3.5506419 3.5591771-1.9588277 0-3.550642-1.583279-3.550642-3.5591771 0-1.95669391 1.5918143-3.54210675 3.550642-3.54210675z" fill-rule="evenodd"/></svg>