<svg height="32" viewBox="0 0 32 32" width="32" xmlns="http://www.w3.org/2000/svg"><g fill="none"><path d="m15.4985541 17.2922139c0 .8121502-.6612698 1.4873661-1.5324844 1.6255007l-.1392391.0172891v7.8445838c0 .423436-.3595105.7724254-.8226708.8201207l-.1086066.005555h-3.78647941c-.51433038 0-.93127749-.3696677-.93127749-.8256757v-7.8445838c-.93901461-.0847277-1.67172343-.7878949-1.67172343-1.6427898v-6.0205619c0-.8705608.75980859-1.58378218 1.72355024-1.64682181l.13900465-.00452944h5.26737144c1.0286607 0 1.8625549.73933515 1.8625549 1.65135125z" fill="#ff8a00"/><path d="m22.5808023 17.4887218.142563.0045878c.9389911.0606601 1.6892213.7156771 1.7618969 1.5370508l.0057731.1310107v7.6075674l-.0064258.0975331c-.0466843.3519463-.3429064.6372485-.7296912.7167036l-.1076127.0164613-.1113868.0056267h-4.8341279l-.1113868-.0056267c-.4384767-.0445941-.7863755-.3492234-.837304-.7331649l-.0064257-.0975331v-7.6075674l.0059741-.1333688c.0672823-.748579.6956198-1.3684471 1.5163345-1.5178657l.1467539-.0214148z" fill="#5aadca"/><path d="m21.1188899 11.8684211c1.241571 0 2.2480852 1.0065142 2.2480852 2.2481553 0 .9810888-.6284829 1.8154046-1.5096854 2.1240044-.2312807.0803954-.4797391.1240809-.7383998.1240809-1.2415709 0-2.2481554-1.0065143-2.2481554-2.2480853 0-1.2416411 1.0065845-2.2481553 2.2481554-2.2481553z" fill="#5aadca"/><path d="m11.0023373 4c1.2416289 0 2.2480965 1.00652584 2.2480965 2.2481203s-1.0064676 2.2481203-2.2480965 2.2481203c-1.24158132 0-2.24814412-1.00652584-2.24814412-2.2481203s1.0065628-2.2481203 2.24814412-2.2481203z" fill="#ff8a00"/></g></svg>