<svg height="32" viewBox="0 0 32 32" width="32" xmlns="http://www.w3.org/2000/svg"><path d="m17.1270057 10.2014715c3.8447806 0 6.9615911 3.1168105 6.9615911 6.9615911v6.5234541l-1.4481936-.0004215.0009616 2.558134c0 .423436-.3595106.7724254-.8226709.8201206l-.1086066.005555h-2.1374451c-.5143303 0-.9312774-.3696676-.9312774-.8256756l-.0009616-2.558134-1.5133975.0009483v-6.4443407c0-1.1167529-.3110987-2.1974584-.8806783-3.1293405l-1.1750897.8495262-1.0492688.7461382.1294451.0658634c.430487.2302269.7719232.5716632 1.0021502 1.0021502.2300249.4301093.322389.8449881.3361856 1.6069922l.0029832 5.825129c.5253907.2312996.8922081.756518.8922081 1.3674112 0 .8247445-.6685876 1.4933321-1.4933322 1.4933321-.8247445 0-1.4933321-.6685876-1.4933321-1.4933321 0-.6111248.3670956-1.1365098.8928058-1.3676742l.0003206-1.3360532h-5.17999999v3.5970595c0 .3313709-.26862915.6-.6.6-.29823377 0-.54564676-.2175896-.59214702-.5026769l-.00785298-.0973231v-7.8691743c0-.9033955.08710846-1.3544801.33804478-1.8236902.23022697-.430487.57166319-.7719233 1.0021502-1.0021502.43010928-.230025.84498811-.322389 1.60699221-.3361857l.216698-.0018591 1.0076624-.0004097c.0126065-.1987447.0962425-.3930921.2486318-.54208l2.4618206-2.4072604-.0035135-.0031706zm-4.799282 6.4353738h-1.2524353l-.3512971.005315c-.4671706.0163357-.6842578.0720628-.90647448.1909056-.22136484.1183872-.39150578.2885282-.50989299.509893-.13204756.2469075-.18617445.4874822-.1949244 1.0718104l-.00129622 3.258076h5.17999999l.0002057-3.0721148c0-.7222378-.0509683-.9861734-.1962206-1.2577716-.1183872-.2213648-.2885281-.3915058-.509893-.509893-.2222167-.1188428-.4393039-.1745699-.9064744-.1909056zm3.6723001-11.70675013c1.2416289 0 2.2480965 1.00652584 2.2480965 2.2481203s-1.0064676 2.2481203-2.2480965 2.2481203c-1.2415813 0-2.2481441-1.00652584-2.2481441-2.2481203s1.0065628-2.2481203 2.2481441-2.2481203z"/></svg>