<svg height="32" viewBox="0 0 32 32" width="32" xmlns="http://www.w3.org/2000/svg"><g fill="none"><path d="m12.3277237 15.4368453c.9033955 0 1.3544801.0871084 1.8236903.3380448.430487.2302269.7719232.5716632 1.0021502 1.0021502.2300249.4301093.322389.8449881.3361856 1.6069922l.0029832 5.825129c.5253907.2312996.8922081.756518.8922081 1.3674112 0 .8247445-.6685876 1.4933321-1.4933322 1.4933321-.8247445 0-1.4933321-.6685876-1.4933321-1.4933321 0-.6111248.3670956-1.1365098.8928058-1.3676742l.0003206-1.3360532h-5.17999999v3.5970595c0 .3313709-.26862915.6-.6.6-.29823377 0-.54564676-.2175896-.59214702-.5026769l-.00785298-.0973231v-7.8691743c0-.9033955.08710846-1.3544801.33804478-1.8236902.23022697-.430487.57166319-.7719233 1.0021502-1.0021502.43010928-.230025.84498811-.322389 1.60699221-.3361857l.216698-.0018591zm0 1.2h-1.2524353l-.3512971.005315c-.4671706.0163357-.6842578.0720628-.90647448.1909056-.22136484.1183872-.39150578.2885282-.50989299.509893-.13204756.2469075-.18617445.4874822-.1949244 1.0718104l-.00129622 3.258076h5.17999999l.0002057-3.0721148c0-.7222378-.0509683-.9861734-.1962206-1.2577716-.1183872-.2213648-.2885281-.3915058-.509893-.509893-.2222167-.1188428-.4393039-.1745699-.9064744-.1909056z" fill="#9c9c9c"/><path d="m22.6413648 22.8636898v3.3805394c0 .423436-.3595106.7724254-.8226709.8201206l-.1086066.005555h-2.1374451c-.5143303 0-.9312774-.3696676-.9312774-.8256756l-.0001813-3.3805394zm-6.5846972-11.6112722 1.0749396 2.1745548c-.2173858.2136791-1.4698012 1.1268474-3.7572463 2.7395048-.3508671.2473984-.8332579.181617-1.1050954-.1506751-.2728464-.3335254-.2458023-.8202045.0623171-1.1214465zm-.6425733-6.32232243c1.2416289 0 2.2480965 1.00652584 2.2480965 2.2481203s-1.0064676 2.2481203-2.2480965 2.2481203c-1.2415813 0-2.2481441-1.00652584-2.2481441-2.2481203s1.0065628-2.2481203 2.2481441-2.2481203z" fill="#c33c75"/><path d="m24.0885968 17.1630626v6.5234541l-6.9615911.0005268v-6.4443407c0-1.7744578-.7854443-3.4579053-2.1452472-4.5979213l-.1918688-.1608569c1.5580773-1.5216354 2.337116-2.2824531 2.337116-2.2824531 3.8447806 0 6.9615911 3.1168105 6.9615911 6.9615911z" fill="#f8c31c"/></g></svg>