<svg height="32" viewBox="0 0 32 32" width="32" xmlns="http://www.w3.org/2000/svg"><path d="m16.1337428 2.52690985c2.2965097 0 4.1506419 1.85182031 4.1506419 4.14210675 0 1.65134182-.9491085 3.0706948-2.332856 3.7433346 1.1451977.063802 2.2550297.4277404 3.2256452 1.0589464l.2611836.1787489.2427887.183924 4.234021 3.3675587c.7790745.6196424.9389981 1.7396808.3644701 2.5525961-.4998025.7071842-1.3958642.9992713-2.228314.7327115l-.1552266-.0565616-.1502462-.0710693-3.0008505-1.5882059v3.116l1.2974256 1.0750919c1.5958507 1.361508 1.9361725 3.6638099.8641384 5.4236336l-.1202723.1864092-.1311241.1818521-.1400509.1733727-1.5249461 1.7874198c-.6027851.7065365-1.58251.9427251-2.4531817.5983848l-.1618544-.0713937-.1612191-.089463c-.7987341-.4919721-1.1200625-1.4787035-.7793576-2.3577732l.0670343-.1538898.0807552-.1456713.4375686-.710408c.0654153-.106204.1139545-.2219156.1438852-.3430049.1597864-.646441-.2347245-1.3000126-.8811694-1.4597906l-.1895997-.046939-.1347782-.0313015-.1586072-.0323312-.2076285-.0314972c-.1181132-.0142638-.2418668-.0230149-.3846663-.0271479l-.2147474-.00286-.3113291.0053996c-.1366673.0055266-.2487299.0154837-.3536998.0307285l-.0942072.015911-.2077452.0442543-.3082628.0757854c-.6464369.159776-1.0409478.8133476-.8811614 1.4597886.0199538.0807262.048178.1590623.0841594.2337847l.0597258.1092202.4375686.710408c.4919722.7987341.334985 1.8245244-.3652014 2.4565747l-.1291795.1073247-.1403854.0954006c-.8561787.5250618-1.952976.3879422-2.6536502-.3104435l-.1194068-.1290503-1.52494609-1.7874198c-1.41013328-1.6528454-1.33132333-4.0901775.15179422-5.659728l.15843191-.159204.20867206-.1851912 1.2502185-1.0362363v-3.116l-2.99985055 1.5882059c-.77921643.4123527-1.72288006.2534938-2.32499294-.3557418l-.10877008-.1194801-.10002378-.1298587c-.54260977-.7677534-.4301068-1.8094529.24037703-2.4448275l.1240931-.1077686 4.23402102-3.3675587c1.0900318-.8669646 2.4242497-1.3652808 3.8105547-1.4278697l.1710475-.0030546c-1.3735381-.67680986-2.3173552-2.09182015-2.3173552-3.7340296 0-2.28756715 1.859942-4.14210675 4.150642-4.14210675zm-4.3526882 18.48099995-.9955423.8255204-.1772334.1572182c-1.11261588 1.0621672-1.24602783 2.7880727-.3304119 4.0080807l.1199207.1497815 1.524946 1.7874198c.2789515.3269646.7364971.4251846 1.1007296.2672736l.1061985-.0550846.0893861-.0603834c.2661527-.2037056.3562015-.5618318.2278128-.8647821l-.0509447-.0986524-.4375686-.710408c-.1305207-.211905-.2273692-.44278-.2870888-.684385-.252987-1.0234991.1904281-2.0559613 1.0287937-2.5979823zm8.439.002-1.9201109 2.1216154c.8383696.542022 1.2817847 1.5744842 1.0287977 2.5979833-.0447897.1812037-.1104644.3563719-.1955658.5220281l-.091523.1623569-.4223498.6842438-.051577.0924451c-.1460399.3016712-.0653297.662017.1669563.8639289l.0829395.0611382.1093188.0609287c.3523824.1716591.7716666.1096673 1.059516-.1476818l.0908099-.092966 1.5142642-1.7745398.1190128-.1472705c.9314476-1.2241399.7913779-2.9495178-.2992333-4.0052874l-.1412684-.1283989zm-2.6472557-9.4105272h-3.1455978c-1.1270134 0-2.2233227.3525463-3.1368808 1.0045459l-.2244943.1692078-4.23402098 3.3675588c-.28104925.2235345-.33874133.6275856-.13148173.9208429.20180815.2855438.56617546.3962916.88736409.2831122l.10518144-.0460875 3.88057708-2.0535583c.3729567-.1973646.8168631.0418253.874393.4421677l.0062473.0881539-.0000316 2.0285838h7.091l.0008592-2.0285838c0-.4219591.4190426-.7024372.7998017-.5660324l.0808386.0357108 3.8541146 2.0403786.0965797.0459786c.3309823.1352587.7144714.0244203.9224283-.2698236.1865337-.2639315.1584564-.6176061-.0539093-.8486584l-.0775724-.0721845-4.2225658-3.3586716-.219664-.166427c-.8415798-.6053566-1.8384985-.9547947-2.8708327-1.0088306zm-1.4390561-7.87247275c-1.6287385 0-2.950642 1.31806394-2.950642 2.94210675 0 1.64025965 1.3189175 2.95917714 2.950642 2.95917714 1.6370827 0 2.9506419-1.31574309 2.9506419-2.95917714 0-1.62720935-1.3165389-2.94210675-2.9506419-2.94210675z"/></svg>