<svg height="32" viewBox="0 0 32 32" width="32" xmlns="http://www.w3.org/2000/svg"><path d="m13.6359992 9.62030075c1.0286607 0 1.8625549.73933515 1.8625549 1.65135125v6.0205619c0 .8121502-.6612698 1.4873661-1.5324844 1.6255007l-.1392391.0172891v7.8445838c0 .423436-.3595105.7724254-.8226708.8201207l-.1086066.005555h-3.78647941c-.51433038 0-.93127749-.3696677-.93127749-.8256757v-7.8445838c-.93901461-.0847277-1.67172343-.7878949-1.67172343-1.6427898v-6.0205619c0-.8705608.75980859-1.58378218 1.72355024-1.64682181l.13900465-.00452944zm8.9448031 7.86842105.142563.0045878c.9389911.0606601 1.6892213.7156771 1.7618969 1.5370508l.0057731.1310107v7.6075674l-.0064258.0975331c-.0466843.3519463-.3429064.6372485-.7296912.7167036l-.1076127.0164613-.1113868.0056267h-4.8341279l-.1113868-.0056267c-.4384767-.0445941-.7863755-.3492234-.837304-.7331649l-.0064257-.0975331v-7.6075674l.0059741-.1333688c.0672823-.748579.6956198-1.3684471 1.5163345-1.5178657l.1467539-.0214148zm-3.0828023 1.1992782-.0140793.0027305c-.275526.050162-.4667117.2126701-.5188178.33932l-.0136565.0516511-.004772.0796695-.0026744 7.2436289 4.347.001.0011987-7.1918011-.0022666-.0780751c-.0158314-.1789249-.2166601-.3725125-.4966598-.4289826l-.1085043-.0144525-.142563-.0045878zm1.6208899-6.8195789c1.241571 0 2.2480852 1.0065142 2.2480852 2.2481553 0 .9810888-.6284829 1.8154046-1.5096854 2.1240044-.2312807.0803954-.4797391.1240809-.7383998.1240809-1.2415709 0-2.2481554-1.0065143-2.2481554-2.2480853 0-1.2416411 1.0065845-2.2481553 2.2481554-2.2481553zm0 1.2c-.5788593 0-1.0481554.4692859-1.0481554 1.0481553 0 .5788043.4693012 1.0480853 1.0481554 1.0480853.1198163 0 .2353069-.0196335.3417745-.0566393.4210305-.1474461.7063107-.5421532.7063107-.991446 0-.5788944-.4692508-1.0481553-1.0480852-1.0481553zm-10.1165526-9.0684211c1.2416289 0 2.2480965 1.00652584 2.2480965 2.2481203s-1.0064676 2.2481203-2.2480965 2.2481203c-1.24158132 0-2.24814412-1.00652584-2.24814412-2.2481203s1.0065628-2.2481203 2.24814412-2.2481203z" fill-rule="evenodd"/></svg>