<svg height="32" viewBox="0 0 32 32" width="32" xmlns="http://www.w3.org/2000/svg"><path d="m17.9454178 9.99469137.1545602.00641163c3.5706141.2975224 6.3757247 3.2898206 6.3757247 6.9372875v5.9234541c0 .3313531-.2686469.5999749-.6.6000454l-.8474054-.0001227.0001734 2.4845068c0 .4610182-.3595105.8409822-.8226709.8929106l-.1086066.006048h-2.137445c-.5143304 0-.9312775-.4024775-.9312775-.8989586l-.0011734-2.4845068-.9131857.0005587c-.2982338.0000635-.5456632-.2175033-.5921851-.5025867l-.0078149-.0973678v-5.8443408c0-.7097104-.1256453-1.4048622-.3634307-2.0565092l-.5266162.3626074-1.8537674 1.2346384.0610977.1225391c.1827753.3876181.2588319.7922503.2712489 1.478054l.0029831 5.825129c.5253908.2312996.8922082.756518.8922082 1.3674112 0 .8247446-.6685876 1.4933321-1.4933322 1.4933321s-1.4933321-.6685875-1.4933321-1.4933321c0-.6111248.3670955-1.1365098.8928058-1.3676741l.0003206-1.3360533h-5.18000002v3.5970595c0 .3313709-.26862915.6-.6.6-.29823377 0-.54564675-.2175896-.59214701-.5026768l-.00785299-.0973232v-7.8691743c0-.9033954.08710846-1.3544801.33804478-1.8236902.23022698-.430487.57166319-.7719232 1.0021502-1.0021502.43010928-.230025.84498812-.322389 1.60699224-.3361856l.216698-.0018592 1.4315695.0012465.3238072.0104138c.0504398.0026648.0992157.0058105.1464784.0094617.0260629-.3405017.1747763-.6709673.4379496-.9238827l3.1003101-2.9806452 1.0769822-1.0503591c.197098-.1924881.4648768-.29513557.7401383-.28371683zm3.8826881 13.47063653h-1.6v2.179l1.6.002zm-3.846-12.269-1.076 1.051.0211927.023262c1.0834199 1.235287 1.7177212 2.8121516 1.7814886 4.4703636l.0053244.2770772-.0000057 5.2442972 4.561-.001.0005968-5.3229374c0-2.9600362-2.2321706-5.398721-5.1050522-5.7245946zm-6.0414881 5.2158453h-1.2524353l-.3512971.0053151c-.46717061.0163357-.68425779.0720627-.90647451.1909055-.22136484.1183872-.39150578.2885282-.50989299.509893-.13204755.2469075-.18617445.4874822-.1949244 1.0718104l-.00129622 3.258076h5.18000002l.0002057-3.0721148c0-.7222378-.0509683-.9861734-.1962206-1.2577716-.1183872-.2213648-.2885282-.3915058-.509893-.509893-.2222167-.1188428-.4393039-.1745698-.9064745-.1909055zm4.0970016-3.336024-2.1781337 2.0984859c-.0933117.0896747-.1041824.2352058-.0252286.337748.0655661.0851549.1857254.1052924.2754758.0461628l2.5157729-1.682789c-.17286-.2812141-.3693063-.5487877-.5878864-.7996077zm-.526016-7.92138195c1.343157 0 2.4319235 1.08882955 2.4319235 2.4319493 0 1.28939496-1.0034072 2.34443607-2.2720191 2.42677635l-.1599044.0051729c-1.3431056 0-2.4319751-1.0888295-2.4319751-2.43194925 0-1.28939496 1.0035022-2.34443607 2.2720762-2.42677633zm0 1.2c-.6803787 0-1.2319751.55158609-1.2319751 1.2319493s.5515964 1.2319493 1.2319751 1.2319493c.6803907 0 1.2319235-.55154669 1.2319235-1.2319493s-.5515328-1.2319493-1.2319235-1.2319493z"/></svg>