<svg fill="none" height="32" viewBox="0 0 32 32" width="32" xmlns="http://www.w3.org/2000/svg"><g clip-rule="evenodd" fill-rule="evenodd"><path d="m7.25929 18.7666c.15613-.4457.57678-.744 1.04898-.744h5.62363c.6139 0 1.1115.4976 1.1115 1.1115 0 .6138-.4976 1.1115-1.1115 1.1115h-4.83531l-1.57473 4.4947c-.20297.5793-.83716.8844-1.41649.6814-.57934-.2029-.88444-.8371-.68147-1.4165z" fill="#4588a0"/><path d="m11.4225 10.4716c.5793.203.8844.8372.6815 1.4165l-1.4683 4.1907c-.2029.5794-.83713.8845-1.41646.6815-.57934-.203-.88444-.8371-.68147-1.4165l1.46823-4.1907c.203-.5794.8372-.8845 1.4165-.6815z" fill="#cd8b49"/><path d="m16.6656 18.1134c-.5793.203-.8844.8372-.6814 1.4165l1.8254 5.2104c.203.5793.8372.8844 1.4165.6814.5794-.2029.8845-.8371.6815-1.4165l-1.8255-5.2103c-.203-.5793-.8371-.8844-1.4165-.6815z" fill="#b75c64"/><path d="m24.4052 12.5045c.6139 0 1.1115.4976 1.1115 1.1115v10.7567c0 .6139-.4976 1.1115-1.1115 1.1115-.6138 0-1.1115-.4976-1.1115-1.1115v-10.7567c0-.6139.4977-1.1115 1.1115-1.1115z" fill="#59adcb"/><path d="m24.4052 6.51571c.6139 0 1.1115.49763 1.1115 1.11149v2.5246c0 .6139-.4976 1.1115-1.1115 1.1115-.6138 0-1.1115-.4976-1.1115-1.1115v-2.5246c0-.61386.4977-1.11149 1.1115-1.11149z" fill="#9373b3"/><path d="m12.7356 6.57825c-.5794.20297-.8845.83715-.6815 1.41649l1.769 5.04916c.203.5794.8372.8845 1.4165.6815s.8844-.8372.6815-1.4165l-1.769-5.04919c-.203-.57933-.8372-.88444-1.4165-.68146z" fill="#6ec38c"/><path d="m16.1074 17.1509c-.6993 0-1.2714-.5721-1.2714-1.2714s.5721-1.2714 1.2714-1.2714 1.2714.5721 1.2714 1.2714-.5721 1.2714-1.2714 1.2714z" fill="#cfc62a"/></g></svg>