<svg fill="none" height="32" viewBox="0 0 32 32" width="32" xmlns="http://www.w3.org/2000/svg"><g clip-rule="evenodd" fill-rule="evenodd"><path d="m23.1806 4.49348v2.65021h-2.518c-.4453 0-.8149.38879-.8149.85587 0 .46794.3696.8576.8149.8576h2.518v2.64934c0 .4671.3706.8567.815.8567.4445 0 .815-.3896.815-.8567v-2.64934h2.518c.4445 0 .815-.38966.815-.8576.0739-.46708-.2957-.85587-.815-.85587h-2.518v-2.65021c0-.46794-.3705-.85673-.815-.85673-.4444 0-.815.38879-.815.85673z" fill="#5aadca"/><path d="m16.2793 4.93584c0 .85673.7003 1.55864 1.556 1.55864.8575 0 1.5578-.70191 1.5578-1.55864 0-.8576-.7003-1.55864-1.5578-1.55864-.8557 0-1.556.70104-1.556 1.55864z" fill="#9373b3"/><path d="m12.3418 8.93584c0 .54967.4498 1 .9994 1 .5508 0 1.0006-.45033 1.0006-1 0-.55022-.4498-1-1.0006-1-.5496 0-.9994.44978-.9994 1z" fill="#fa8bb9"/><path d="m22.5957 17.2809c0 .8567.7003 1.5586 1.556 1.5586.8575 0 1.5578-.7019 1.5578-1.5586 0-.8576-.7003-1.5587-1.5578-1.5587-.8557 0-1.556.7011-1.556 1.5587z" fill="#f8be1b"/><path d="m18.5879 10.6752 2.7365 2.7365-13.91255 13.9126-2.73655-2.7365z" fill="#979797"/><path d="m18.5879 10.6752 1.3711 1.3711-13.9126 13.9126-1.3711-1.3711z" fill="#d8d8d8"/><path d="m15.2836 13.9805 2.7365 2.7366-10.6072 10.6072-2.73655-2.7365z" fill="#000"/></g></svg>