<svg fill="none" height="32" viewBox="0 0 32 32" width="32" xmlns="http://www.w3.org/2000/svg"><g clip-rule="evenodd" fill="#000" fill-rule="evenodd"><path d="m23.1806 4.49348v2.65021h-2.518c-.4453 0-.8149.38879-.8149.85587 0 .46794.3696.8576.8149.8576h2.518v2.64934c0 .4671.3706.8567.815.8567.4445 0 .815-.3896.815-.8567v-2.64934h2.518c.4445 0 .815-.38966.815-.8576.0739-.46708-.2957-.85587-.815-.85587h-2.518v-2.65021c0-.46794-.3705-.85673-.815-.85673-.4444 0-.815.38879-.815.85673z"/><path d="m16.2793 4.93584c0 .85673.7003 1.55864 1.556 1.55864.8575 0 1.5578-.70191 1.5578-1.55864 0-.8576-.7003-1.55864-1.5578-1.55864-.8557 0-1.556.70104-1.556 1.55864z"/><path d="m12.3418 8.93584c0 .54966.4498 1 .9994 1 .5508 0 1.0006-.45034 1.0006-1 0-.55023-.4498-1-1.0006-1-.5496 0-.9994.44977-.9994 1z"/><path d="m22.5957 17.2809c0 .8567.7003 1.5586 1.556 1.5586.8575 0 1.5578-.7019 1.5578-1.5586 0-.8576-.7003-1.5587-1.5578-1.5587-.8557 0-1.556.7011-1.556 1.5587z"/><path d="m18.1625 11.0993c.2343-.2343.6142-.2343.8486 0l1.888 1.8881c.2343.2343.2343.6142 0 .8485l-3.288 3.288c-.0054.0059-.011.0116-.0167.0173l-9.7587 9.7587c-.11633.1164-.26854.175-.42101.1758-.15486.001-.31004-.0576-.4282-.1757l-1.88802-1.8881c-.23432-.2343-.23432-.6142 0-.8485zm-.9927 4.7688-1.0395-1.0395 2.4565-2.4565 1.0395 1.0395z"/></g></svg>