<svg fill="none" height="32" viewBox="0 0 32 32" width="32" xmlns="http://www.w3.org/2000/svg"><g fill="#000"><path d="m12.8679 6.95574c.3708-.12993.7768.06538.9067.43622l2.0197 5.75354c.1299.3708-.0654.7768-.4363.9067-.3708.1299-.7768-.0654-.9067-.4362l-2.0197-5.75353c-.1299-.37085.0654-.7768.4363-.90673z"/><path d="m23.6938 7.62719c0-.39295.3185-.71149.7115-.71149.3929 0 .7115.31854.7115.71149v2.52461c0 .393-.3186.7115-.7115.7115-.393 0-.7115-.3185-.7115-.7115z"/><path d="m10.6005 10.588c.1299-.3708.5359-.5661.9068-.4362.3708.13.5661.5359.4362.9068l-2.00166 5.6923c-.12993.3709-.53589.5662-.90674.4363-.37084-.13-.56615-.5359-.43622-.9068z"/><path d="m23.6938 12.8401c0-.3929.3185-.7115.7115-.7115.3929 0 .7115.3186.7115.7115v11.5326c0 .393-.3186.7115-.7115.7115-.393 0-.7115-.3185-.7115-.7115z"/><path d="m15.236 15.8795c0-.4784.393-.8714.8714-.8714s.8714.393.8714.8714-.393.8714-.8714.8714-.8714-.393-.8714-.8714z"/><path d="m7.63683 18.8988c.09994-.2852.36921-.4762.67147-.4762h6.143c.393 0 .7115.3185.7115.7115 0 .3929-.3185.7115-.7115.7115h-5.35467c-.16994 0-.32132.1073-.37751.2677l-1.57472 4.4947c-.12993.3708-.53589.5661-.90673.4362-.37085-.1299-.56615-.5359-.43623-.9067z"/><path d="m16.7121 17.7214c.3708-.1299.7768.0654.9067.4363l1.9113 5.9798c.1299.3708-.0654.7768-.4362.9067-.3708.13-.7768-.0653-.9067-.4362l-1.9113-5.9798c-.13-.3709.0653-.7768.4362-.9068z"/></g></svg>