<svg height="32" viewBox="0 0 32 32" width="32" xmlns="http://www.w3.org/2000/svg"><path d="m25.0511579 4.74884211.157115.00552382c1.0898039.07689908 1.9604621.94755724 2.0373612 2.03736117l.0055238.15711501v18.10231579l-.0055238.157115c-.0768991 1.0898039-.9475573 1.9604621-2.0373612 2.0373612l-.157115.0055238h-18.10231579l-.15711501-.0055238c-1.08980393-.0768991-1.96046209-.9475573-2.03736117-2.0373612l-.00552382-.157115v-18.10231579l.00552382-.15711501c.07689908-1.08980393.94755724-1.96046209 2.03736117-2.03736117l.15711501-.00552382zm-1.4511579 17.46886639h-15.2l-.09684328.0070164c-.34772892.0508623-.60915672.3717124-.60915672.7479446s.2614278.6970823.60915672.7479446l.09684328.0070164h15.2l.0968433-.0070164c.3477289-.0508623.6091567-.3717124.6091567-.7479446s-.2614278-.6970823-.6091567-.7479446zm0-4.6484463h-15.2l-.09684328.0070164c-.34772892.0508623-.60915672.3717124-.60915672.7479446 0 .3762321.2614278.6970823.60915672.7479446l.09684328.0070163h15.2l.0968433-.0070163c.3477289-.0508623.6091567-.3717125.6091567-.7479446 0-.3762322-.2614278-.6970823-.6091567-.7479446zm0-4.6484463h-15.2l-.09684328.0070163c-.34772892.0508623-.60915672.3717125-.60915672.7479446 0 .3762322.2614278.6970823.60915672.7479446l.09684328.0070164h15.2l.0968433-.0070164c.3477289-.0508623.6091567-.3717124.6091567-.7479446 0-.3762321-.2614278-.6970823-.6091567-.7479446zm0-4.64844638h-15.2l-.09684328.00701638c-.34772892.0508623-.60915672.37171243-.60915672.74794459 0 .37623217.2614278.6970823.60915672.7479446l.09684328.00701638h15.2l.0968433-.00701638c.3477289-.0508623.6091567-.37171243.6091567-.7479446 0-.37623216-.2614278-.69708229-.6091567-.74794459z" fill-rule="evenodd"/></svg>