<svg height="32" viewBox="0 0 32 32" width="32" xmlns="http://www.w3.org/2000/svg"><path d="m26 23.485c.4404569 0 .8.3595431.8.8 0 .4065756-.3063562.7442069-.6999193.7937444l-.1000807.0062556h-20c-.44045695 0-.8-.3595431-.8-.8 0-.4065756.30635621-.7442069.69991925-.7937444l.10008075-.0062556zm0-5.5233333c.4404569 0 .8.359543.8.8 0 .4065756-.3063562.7442069-.6999193.7937444l-.1000807.0062556h-20c-.44045695 0-.8-.3595431-.8-.8 0-.4065757.30635621-.7442069.69991925-.7937444l.10008075-.0062556zm0-5.5233334c.4404569 0 .8.3595431.8.8 0 .4065757-.3063562.7442069-.6999193.7937444l-.1000807.0062556h-20c-.44045695 0-.8-.359543-.8-.8 0-.4065756.30635621-.7442069.69991925-.7937444l.10008075-.0062556zm0-5.5233333c.4404569 0 .8.35954305.8.8 0 .40657565-.3063562.7442069-.6999193.7937444l-.1000807.0062556h-20c-.44045695 0-.8-.35954305-.8-.8 0-.40657565.30635621-.7442069.69991925-.7937444l.10008075-.0062556z" fill="#007b3d"/></svg>