<svg height="32" viewBox="0 0 32 32" width="32" xmlns="http://www.w3.org/2000/svg"><path d="m25.0511579 4.74884211.157115.00552382c1.0898039.07689908 1.9604621.94755724 2.0373612 2.03736117l.0055238.15711501v18.10231579l-.0055238.157115c-.0768991 1.0898039-.9475573 1.9604621-2.0373612 2.0373612l-.157115.0055238h-18.10231579l-.15711501-.0055238c-1.08980393-.0768991-1.96046209-.9475573-2.03736117-2.0373612l-.00552382-.157115v-18.10231579l.00552382-.15711501c.07689908-1.08980393.94755724-1.96046209 2.03736117-2.03736117l.15711501-.00552382zm-1.4511579 17.41886639h-9.12l-.1038804.0074933c-.3728912.0543166-.6521196.396906-.6521196.7974677s.2792284.7431511.6521196.7974677l.1038804.0074933h9.12l.1038804-.0074933c.3728912-.0543166.6521196-.396906.6521196-.7974677s-.2792284-.7431511-.6521196-.7974677zm0-4.654057h-13.68l-.10388041.0074933c-.37289123.0543166-.65211959.396906-.65211959.7974677s.27922836.7431511.65211959.7974677l.10388041.0074933h13.68l.1038804-.0074933c.3728912-.0543166.6521196-.396906.6521196-.7974677s-.2792284-.7431511-.6521196-.7974677zm0-4.645641h-9.12l-.1038804.0074933c-.3728912.0543166-.6521196.396906-.6521196.7974677s.2792284.7431511.6521196.7974677l.1038804.0074933h9.12l.1038804-.0074933c.3728912-.0543166.6521196-.396906.6521196-.7974677s-.2792284-.7431511-.6521196-.7974677zm0-4.64564098h-15.2l-.10388041.00749331c-.37289123.05431656-.65211959.39690597-.65211959.79746766 0 .4005617.27922836.74315111.65211959.79746767l.10388041.00749331h15.2l.1038804-.00749331c.3728912-.05431656.6521196-.39690597.6521196-.79746767 0-.40056169-.2792284-.7431511-.6521196-.79746766z" fill-rule="evenodd"/></svg>