<svg height="32" viewBox="0 0 32 32" width="32" xmlns="http://www.w3.org/2000/svg"><g fill-rule="evenodd"><path d="m17.8375672 7.09646784c.633629 0 1.1472867.51365779 1.1472867 1.14728678v.91033413h4.3055517c.5087451 0 .9567322.3350355 1.100514.82304001l1.2109586 4.11006974c.0938956.3186877.3213285.5810241.6234802.7191638l1.1043885.504912c.4083404.1866879.6702531.5944182.6702531 1.0434107v5.3824507c0 .1900887-.1540973.3441861-.344186.3441861h-1.8998043c0 1.5009354-1.1716838 2.7282095-2.6502892 2.8170598l-.1719211.0051506c-1.5586638 0-2.8222104-1.2635467-2.8222104-2.8222104h-8.1507924c0 1.5009354-1.1716838 2.7282095-2.65028915 2.8170598l-.17192118.0051506c-1.55866376 0-2.82221039-1.2635467-2.82221039-2.8222104h-1.97218984c-.1900887 0-.34418604-.1540974-.34418604-.3441861v-13.49338108c0-.63362899.51365779-1.14728678 1.14728678-1.14728678zm-8.69898093 13.88357376c-.60822027 0-1.10128021.4930599-1.10128021 1.1012802 0 .6082202.49305994 1.1012802 1.10128021 1.1012802.60822026 0 1.10128023-.49306 1.10128023-1.1012802 0-.6082203-.49305997-1.1012802-1.10128023-1.1012802zm13.79521313 0c-.6082203 0-1.1012802.4930599-1.1012802 1.1012802 0 .6082202.4930599 1.1012802 1.1012802 1.1012802.6082202 0 1.1012802-.49306 1.1012802-1.1012802 0-.6082203-.49306-1.1012802-1.1012802-1.1012802zm-.0960459-10.2004111h-3.5087135c-.1663276 0-.3050994.1179808-.3371934.2748205l-.0069927.0693655v3.6594728c0 .1663276.1179808.3050993.2748206.3371934l.0693655.0069926h4.5869117c.032929 0 .0656876-.0047254.0972741-.0140318.1595467-.0470076.2593172-.1993983.2457767-.3589144l-.0128966-.0685138-1.0781982-3.6594728c-.0431346-.1464014-.1775307-.246912-.3301542-.246912zm-9.6561838-1.14728681h-3.1289678l-.0018311 2.33678281-2.335912.0009603v3.1289678l2.335912-.0011186.0018306 2.3379047h3.1289681l-.0006004-2.3379047 2.3373867.0011184v-3.1289681l-2.3373867-.0009598z"/><path d="m22.7698234 6.70465489c.4327847 0 .7836259.35084126.7836259.78362589s-.3508412.78362589-.7836259.78362589h-1.8746085c-.4327847 0-.7836259-.35084126-.7836259-.78362589s.3508412-.78362589.7836259-.78362589z" fill-rule="nonzero"/></g></svg>