<svg height="32" viewBox="0 0 32 32" width="32" xmlns="http://www.w3.org/2000/svg"><g fill="none" fill-rule="evenodd" transform="translate(4 7.096468)"><path d="m.34418604 14.9848539c-.1900887 0-.34418604-.1540973-.34418604-.344186v-13.49338112c0-.63362899.51365779-1.14728678 1.14728678-1.14728678h12.69028042c.633629 0 1.1472867.51365779 1.1472867 1.14728678v.91033413h4.3055517c.5087451 0 .9567322.3350355 1.100514.82304001l1.2109586 4.11006971c.0938956.31868769.3213285.58102409.6234802.71916388l1.1043885.50491198c.4083404.18668789.6702531.59441818.6702531 1.04341066v5.38245075c0 .1900887-.1540973.344186-.344186.344186z" fill="#e8e8e8"/><path d="m14.9848539 2.05762091 3.8087783 12.92723299h-5.3954692v-12.92723299z" fill="#bedae0"/><path d="m15.32904 3.68316264h3.5087135c.1526235 0 .2870196.10051065.3301542.246912l1.0781982 3.65947278c.053723.18233912-.050541.37370526-.2328801.42742822-.0315865.0093064-.0643451.01403185-.0972741.01403185h-4.5869117c-.1900887 0-.3441861-.15409734-.3441861-.34418604v-3.65947277c0-.1900887.1540974-.34418604.3441861-.34418604z" fill="#74a2ab"/><path d="m0 10.8553162h24v3.7853517c0 .1900887-.1540973.344186-.344186.344186h-23.31162796c-.1900887 0-.34418604-.1540973-.34418604-.344186z" fill="#ec4800"/><path d="m17.576 10.8546209 1.2176322 4.130233h-5.3954692l-.000163-4.130233z" fill="#bb3600"/><path d="m15.4638539 3.68262091 1.281 4.348-1.4158139.00038658c-.1900887 0-.3441861-.15409734-.3441861-.34418604v-3.65947277c0-.1900887.1540974-.34418604.3441861-.34418604z" fill="#498490"/><path d="m5.13858627 12.1626436c1.55866375 0 2.82221038 1.2635466 2.82221038 2.8222103 0 1.5586638-1.26354663 2.8222104-2.82221038 2.8222104-1.55866376 0-2.82221039-1.2635466-2.82221039-2.8222104 0-1.5586637 1.26354663-2.8222103 2.82221039-2.8222103z" fill="#345c64" fill-rule="nonzero"/><rect fill="#00b1dd" height="1.567252" rx=".783626" width="3.44186" x="15.609435"/><g fill-rule="nonzero"><path d="m18.9337994 12.1626436c1.5586637 0 2.8222103 1.2635466 2.8222103 2.8222103 0 1.5586638-1.2635466 2.8222104-2.8222103 2.8222104-1.5586638 0-2.8222104-1.2635466-2.8222104-2.8222104 0-1.5586637 1.2635466-2.8222103 2.8222104-2.8222103z" fill="#345c64"/><path d="m18.9337994 13.8835737c-.6082203 0-1.1012802.49306-1.1012802 1.1012802 0 .6082203.4930599 1.1012803 1.1012802 1.1012803.6082202 0 1.1012802-.49306 1.1012802-1.1012803 0-.6082202-.49306-1.1012802-1.1012802-1.1012802z" fill="#f5f5f5"/><path d="m5.13858627 13.8835737c-.60822027 0-1.10128021.49306-1.10128021 1.1012802 0 .6082203.49305994 1.1012803 1.10128021 1.1012803.60822026 0 1.1012802-.49306 1.1012802-1.1012803 0-.6082202-.49305994-1.1012802-1.1012802-1.1012802z" fill="#f5f5f5"/><path d="m8.23113157 2.53587586h-2.58496786l-.00151273 1.93051159-1.92979218.00079331v2.58496787l1.92979218-.00092405.00151233 1.93143838h2.58496812l-.00049604-1.93143838 1.93101051.0009239v-2.58496812l-1.93101051-.00079291z" fill="#ec4800"/></g></g></svg>