<svg height="32" viewBox="0 0 32 32" width="32" xmlns="http://www.w3.org/2000/svg"><path d="m17.8375672 6.88828078c.9167498 0 1.6686013.70601396 1.7414945 1.6039821l.0057922.14330468-.0008539.31024538 3.7064056.00008875c.6714977 0 1.273493.38325446 1.5646324.96926283l.061558.13874968.0498626.1454552 1.2109586 4.1100697c.0358326.1216181.1124338.2260323.2154379.2966722l.0819791.0463884 1.1043885.504912c.5740536.2624498.9580907.8117421 1.0137765 1.4325256l.0070008.1565606v5.3824508c0 .4842124-.3644938.8832928-.834074.9378338l-.110112.0063522-1.9636397-.000355c-.2749232 1.2706129-1.4054789 2.2225654-2.7583749 2.2225654-1.3528961 0-2.4834517-.9519525-2.758375-2.2225654h-8.2784632c-.2749232 1.2706129-1.4054789 2.2225654-2.75837493 2.2225654-1.35289606 0-2.4834517-.9519525-2.75837495-2.2225654l-2.03602528.000355c-.48421244 0-.8832928-.3644937-.93783381-.834074l-.00635223-.110112v-13.49338114c0-.91674985.70601396-1.6686013 1.6039821-1.74149458l.14330468-.0057922zm-8.69898093 13.96264352c-.89592206 0-1.62221039.7262884-1.62221039 1.6222104 0 .8959221.72628833 1.6222104 1.62221039 1.6222104.89592203 0 1.62221033-.7262883 1.62221033-1.6222104 0-.895922-.7262883-1.6222104-1.62221033-1.6222104zm13.79521313 0c-.8959221 0-1.6222104.7262884-1.6222104 1.6222104 0 .8959221.7262883 1.6222104 1.6222104 1.6222104.895922 0 1.6222103-.7262883 1.6222103-1.6222104 0-.895922-.7262883-1.6222104-1.6222103-1.6222104zm-5.0962322-12.76264352h-12.69028042c-.27203233 0-.49770876.1984732-.54012372.45851402l-.00716306.08877276v13.23724534h1.772l.02589389-.1171508c.27615882-1.124592 1.22360986-1.9849925 2.39286823-2.1327339l.18639748-.0173399.17232047-.0051548c1.27007933 0 2.34461963.8372022 2.70186443 1.9898502l.046099.1667535.0245565.1157757h8.204l.0162162-.0779394c.2693371-1.1480535 1.2334336-2.0284627 2.4244967-2.173435l.1803033-.0161716.1673005-.0048334c1.2866074 0 2.3739008.8533647 2.7267477 2.0249619l.0453527.1694781.0155829.0779394h1.698v-5.126315c0-.1529868-.0637446-.2959312-.1711575-.3975794l-.0695273-.0557835-.079044-.0443721-1.1043885-.504912c-.409039-.1870073-.7281662-.5234649-.8944673-.9368032l-.0550763-.158464-1.2109586-4.1100697c-.0600144-.2036924-.2311317-.3515169-.4355534-.3852903l-.0894215-.007322h-4.9055517v-1.51033414c0-.30225814-.2450286-.54728678-.5472867-.54728678zm-4.6559975 1.93587582-.0006006 2.3367829 2.3373867.0009597v3.1289681l-2.3373867-.0011183.0006004 2.3379047h-3.1289681l-.0018306-2.3379047-2.335912.0011185v-3.1289678l2.335912-.0009602.0018311-2.3367829zm9.6561838 1.1472868c.1526235 0 .2870196.1005107.3301542.246912l1.0781982 3.6594728c.053723.1823391-.050541.3737053-.2328801.4274282-.0315865.0093064-.0643451.0140319-.0972741.0140319h-5.2049174c-.1900887 0-.344186-.1540974-.344186-.3441861v-4.0036588zm-.6407535 1.1993695h-2.6896025v1.948h3.2636025zm.5728234-5.66615801c.4327847 0 .7836259.35084126.7836259.78362589s-.3508412.78362589-.7836259.78362589h-1.8746085c-.4327847 0-.7836259-.35084126-.7836259-.78362589s.3508412-.78362589.7836259-.78362589z"/></svg>