<svg height="32" viewBox="0 0 32 32" width="32" xmlns="http://www.w3.org/2000/svg"><g fill="none"><path d="m26.8392803 23.6777688h-21.58702221c-.49056013 0-.89088501.4003248-.89088501.890885 0 .4905601.40032488.890885.89088501.890885h21.58702221c.4905601 0 .890885-.4003249.890885-.890885 0-.4905602-.4003249-.890885-.890885-.890885z" fill="#a0621b"/><path d="m25.3354413 21.9556002c.3519623 0 .6399315-.2879692.6399315-.6399315 0-5.2687692-4.1168926-9.5883068-9.3003377-9.9189381v-3.25298501h1.9411256c.3519623 0 .6399314-.28796917.6399314-.63993149s-.2879691-.63993149-.6399314-.63993149h-5.162114c-.3519624 0-.6399315.28796917-.6399315.63993149s.2879691.63993149.6399315.63993149h1.9411255v3.24231951c-5.1834451.3306313-9.30033765 4.6501688-9.30033765 9.9189381.01066552.3626278.29863469.650597.65059701.650597z" fill="#f8c31c"/><path d="m25.3354413 21.9556002c.3519623 0 .6399315-.2879692.6399315-.6399315 0-5.2687692-4.1168926-9.5883068-9.3003377-9.9189381v-3.25298501h1.9411256c.3519623 0 .6399314-.28796917.6399314-.63993149s-.2879691-.63993149-.6399314-.63993149h-5.162114c-.3519624 0-.6399315.28796917-.6399315.63993149s.2879691.63993149.6399315.63993149h1.9411255v3.24231951c-5.1834451.3306313-9.30033765 4.6501688-9.30033765 9.9189381.01066552.3626278.29863469.650597.65059701.650597z" fill="#f8c31c"/><g fill="#af8c1d"><path d="m16.6750351 11.3967306v-3.25298501h1.9411256c.3519623 0 .6399314-.28796917.6399314-.63993149s-.2879691-.63993149-.6399314-.63993149h-5.162114c-.3519624 0-.6399315.28796917-.6399315.63993149s.2879691.63993149.6399315.63993149h1.9411255v3.24231951z"/><path d="m17.5942119 20.755-.006-8.052.0290095.0058267c3.8318162.7018449 6.7777114 3.9033361 7.1244667 7.79184l.0195238.2543333z"/></g></g></svg>