<svg height="32" viewBox="0 0 32 32" width="32" xmlns="http://www.w3.org/2000/svg"><path d="m15.7773247 4.15962179c6.0603774 0 11 4.93962265 11 11.00000001 0 2.3324349-.731667 4.4988612-1.9772982 6.2815762l1.0523648 4.3800208c.0645477.2684925-.1007822.5384748-.3692747.6030225-.0986231.0237098-.2021249.0168632-.2967656-.0196307l-4.137053-1.5948753c-1.5667487.8601903-3.3638072 1.3498865-5.2719733 1.3498865-6.06037732 0-10.99999996-4.9396226-10.99999996-11 0-6.06037736 4.93962264-11.00000001 10.99999996-11.00000001zm0 1.2c-5.3976356 0-9.79999996 4.40236435-9.79999996 9.80000001 0 5.3976357 4.40236436 9.8 9.79999996 9.8 1.6624288 0 3.2652583-.4171063 4.6944553-1.2017767.2712234-.1489095.5878336-.1865135.883786-.1083755l.1253794.0405869 2.8930546 1.1149435-.7407681-3.0834623c-.0687629-.2861965-.0296067-.5858901.1068442-.8429415l.0762842-.1247124c1.1402464-1.6318909 1.7609644-3.5676219 1.7609644-5.594262 0-5.39763566-4.4023643-9.80000001-9.8-9.80000001zm.186906 4.04714331.1369446.00797268c.3091255.03716774.5455307.20402231.712617.49496005l.0673743.13226817 3.9147669 8.7329434.0398849.0826235c.0334401.0805487.0480206.1552136.0480206.2270648 0 .3904914-.2909015.6884026-.6733449.6884026-.2944698 0-.5189643-.1438318-.6672459-.4169547l-.052021-.1084532-.859089-1.9744234-.1833917-.1202036h-5.1196083l-.1832627.1199075-.8884026 2.0327856-.0510894.107266c-.1318243.2347602-.3504381.3600758-.6239352.3600758-.3713886 0-.6582873-.2868988-.6582873-.6582873 0-.0686816.0172849-.1439924.0548756-.2352516l3.9630822-8.8380015.0671296-.13089015c.1676813-.28847869.4123075-.45784511.725994-.49567924l.1386423-.00812541zm-.0752884 1.5418465-2.157093 4.9630676h4.314186z"/></svg>