<svg height="32" viewBox="0 0 32 32" width="32" xmlns="http://www.w3.org/2000/svg"><g fill="none"><path d="m15.7773247 4.15962179c6.0603774 0 11 4.93962265 11 11.00000001 0 2.3324349-.731667 4.4988612-1.9772982 6.2815762l1.0523648 4.3800208c.0645477.2684925-.1007822.5384748-.3692747.6030225-.0986231.0237098-.2021249.0168632-.2967656-.0196307l-4.137053-1.5948753c-1.5667487.8601903-3.3638072 1.3498865-5.2719733 1.3498865-6.06037732 0-10.99999996-4.9396226-10.99999996-11 0-6.06037736 4.93962264-11.00000001 10.99999996-11.00000001z" fill="#afdfef"/><path d="m20.2104941 19.9730003c.4969031 0 .8733449-.3914995.8733449-.8884026 0-.1204614-.0301153-.2559805-.1054037-.3914995l-3.9149946-8.73344952c-.2108074-.46678782-.5721915-.75288358-1.09921-.75288358h-.090346c-.5270185 0-.9034603.28609576-1.1142677.75288358l-3.9149947 8.73344952c-.0752883.1505767-.1204613.2860958-.1204613.4216148 0 .4818455.3764418.8582873.8582873.8582873.3914994 0 .7077105-.2108074.8582872-.5872492l.8884027-2.0327857h5.1196083l.8582873 1.972555c.1656344.3914995.4667878.6474799.9034603.6474799zm-2.4694582-4.2613211h-3.7041872l1.8520936-4.261321z" fill="#252d4f"/></g></svg>