<svg height="32" viewBox="0 0 32 32" width="32" xmlns="http://www.w3.org/2000/svg"><path d="m24.9511696 5.71512668c.2284272 1.38367139-.7071509 2.68941707-2.0899821 2.91727609l-.1050423.01513889c.7457222.35817123 1.357849 1.13561137 2.0078499 2.44740724l.372905.7575286.0707051.1330218 1.9022432 3.4440043.3396068.6002095.5157402.9363857c.3148011.5897456.1086932 1.3302297-.4632358 1.659423-.5880203.3485105-1.3354909.1692189-1.6908259-.4069788l-1.6908642-2.7003341-.3551318 1.8926441c-.0512539.3106783.0202564.8749412.1420721 1.1307622l3.5869863 7.8042481c.3000504.6585036.3240274 1.0460655.0332224 1.4896015-.2317553.3627663-.6285654.5822689-1.0565305.5822689-.5746445 0-.8958584-.2534169-1.2984401-.9370652l-4.1385566-6.958579c-.5062601 1.3068685-1.1345966 2.4216864-1.885072 3.3428845-.1757367.1582258-.315208.2144842-.4094269.2393966l-4.0987546.8545951 2.1057446-2.6113546c.6350562-.9146812 1.1102226-2.1602913 1.444034-3.5961587.2164941-.9312349.3410379-1.7888244.3952972-2.4126665l.3548021-4.316985c-.3449519.1569465-.7066692.3806099-1.0692858.661919-1.0251221.8764536-2.1421659 2.149808-2.7352932 3.0793631l-.1937319.3132864-.1380919.2077663c-.2964734.4325823-.5936626.6140586-1.0635329.6140586-.4542859 0-.8716264-.2382951-1.0818864-.6201635-.2369448-.4098073-.1967111-.8114399.0420409-1.2993244l.0696879-.1321461.0961711-.1626624c.6997064-1.21749 1.9501368-2.6963717 3.12897-3.6865584l.2512845-.2044295c1.5873099-1.34030357 3.187703-2.1271104 4.7725272-2.33756306l.3297253-.03541994c-.7273036-.3456343-1.2779919-1.02759827-1.4133787-1.87589703-.2304667-1.39419496.7049314-2.70106766 2.0950973-2.92715978 1.3844574-.2299853 2.6929081.7107669 2.9203505 2.09825649zm-14.9511696-2.61510935c.3313708 0 .6.26862915.6.6l-.000509 2.553 5.573 1.16.0005158-2.18779066c0-.33137085.2686292-.6.6-.6.3313709 0 .6.26862915.6.6l-.0005158 2.43779066 1.1955277.24900121c-.9314686.39948345-1.8495406.96272576-2.7540284 1.68386376l-.5757199.4705935c-1.0897252.9151757-2.2157158 2.185032-3.0065848 3.368511-.0712711-.090285-.1535002-.1597408-.2420503-.2037639l-.0882507-.0346726-.0844325-.0166637-.0494606-.0022044-.0819897.0072911c-.3494763.0626919-.6184814.5231736-.615611 1.1290591.0022913.372524.1109379.7113284.2776146.9410553-.1109183.5629217-.0300822 1.1005512.2723339 1.6235941-.2521207.1305256-.4522328.4730847-.5108388.9085606l-.0137602.1413897-.0037104.1361276.0061223.1440335c.041263.5186184.2853176.9264659.5946183 1.0183304l.0858691.0170655.0820906.0010081.0853803-.0148023c.3076196-.0820403.5518531-.4636638.6162429-.9524063l.0130145-.1358046.0035715-.1402487-.0061251-.1366357-.0078839-.0617403c.2408482.1291775.5052292.2190904.7815728.2632858l.002031.0380515c.0383497.4820221.2510906.8630005.5202655.9520748l.0747219.0169123.0769885.0015774.0803505-.0145416c.2626821-.076024.47063-.4218495.5276953-.8659031l.0124969-.1359914.0030633-.1230624c.2607076-.1031816.4964787-.2552678.7109391-.4553589-.0102405.0400817-.0174975.0830644-.0232751.1272184l-.0132798.1444987-.0027404.1371919.0065385.135149c.0369116.441766.2216103.7907219.4527886.8818163l.0706466.0194274.0728274.0029654.0707587-.0134981c.2289593-.0700985.4101576-.3880102.4612242-.7999139l.0120895-.1405714.0020552-.1327686-.0075844-.141516c-.0374137-.4164401-.2039765-.7542294-.4242261-.8600054l-.0753015-.0264552-.0605856-.0071249.0451032-.0664034.2149628-.3463936.1431589-.2149305c.2111547-.305205.4771052-.6445455.771493-.987417.0709494.2445413.1899287.4322143.3286477.5111189l.0326344.0140256-.0427449.5234751c-.0184825.2124492-.0447217.4419409-.0782404.6827085-.1199918.1315382-.2085083.3559468-.2403109.627911l-.010904.1362418-.0015445.1294149.0072234.1385149c.0059169.0668923.0152307.131502.0275585.1931682l-.0719414.3312704c-.1726215.7425196-.3795356 1.4034741-.6160915 1.9715343-.072054-.1746778-.1731703-.3005667-.2899687-.3575776l-.0699434-.0253139-.0729094-.0086548-.036065.0022044c-.2720334.0317089-.499801.4035357-.5578263.8891197l-.0115223.1350823-.0025397.1397028.0068267.1374192c.0195543.23023.0785755.4307206.1632026.5797545l-1.8282403 2.2627101-.5090003.6073958c-.1414163.1724456-.2829676.3540685-.4010523.5307612l-6.29729178 1.3103163c-.20971165.043666-.40467411-.1276242-.40467411-.3555387v-20.54339594c0-.22791449.19496246-.39920466.40467411-.35553867l2.90032589.60331424.00050899-2.303c0-.33137085.26862915-.6.6-.6zm-.45593997 17.72797987-.09297372-.0077811-.06800834.0044087c-.41615607.0487165-.77426463.5353717-.86236191 1.1564717l-.01544057.1455792-.00527549.1495235.00466586.1373272c.04009191.5834615.33404251 1.0101224.70664638 1.057697l.08730197.0041483.08961591-.0099175.09961804-.0275935c.35906925-.1312082.64577344-.5857426.72155214-1.1317893l.0153333-.1510166.0043269-.1433794-.0056291-.142c-.0385562-.5108608-.27095108-.908576-.59022346-1.0188585zm2.45940137-.288152-.080375-.0072988-.0535824.0033066c-.357765.0408316-.6635214.4858013-.7386977 1.0572106l-.013887.1453257-.0037504.1388198.0053845.1355701c.0394439.5312422.2897439.9244618.6063431.979326l.0804474.006551.0827079-.0082427.0858211-.0242536c.306675-.1156985.5509179-.5251884.6181596-1.0240508l.0147479-.1521355.0036024-.1431206-.0066123-.1433468c-.0389697-.4681249-.2439496-.8340141-.5165867-.9398648zm2.1520823-.2507868-.0757687-.0078096-.0453389.0022044c-.3108952.0358996-.5748534.444292-.6400318.973224l-.0120655.1345984-.0032557.138746.0061071.1355874c.0387834.4863432.2541844.848411.5247472.9092431l.0750663.008989.077254-.006746.0807914-.0239199c.2614019-.1060617.4681474-.4746381.5287642-.9265958l.014668-.153495.0033079-.14366-.0066262-.1357671c-.0363847-.4381728-.2136621-.7743685-.4476416-.878618zm-4.68410313-3.4403121-.09248432-.0074093-.0982077.0082813c-.37146017.0631056-.67974266.4799912-.76024255 1.0350875l-.01528424.1415288-.00522176.146539.00524893.1440779c.0416092.5666179.32599305 1.0105907.68801907 1.1044986l.09202848.0160524.0946902.0006766.09199674-.014716c.35970114-.086636.64721378-.5030952.72303828-1.0349523l.0153262-.1477519.0042866-.1406294-.0059422-.1471813c-.0416015-.5312281-.29733863-.9631215-.64133952-1.0801527z"/></svg>