<svg height="32" viewBox="0 0 32 32" width="32" xmlns="http://www.w3.org/2000/svg"><path d="m24.9511696 5.71512668c.2284272 1.38367139-.7071509 2.68941707-2.0899821 2.91727609l-.1050423.01513889c.7457222.35817123 1.357849 1.13561137 2.0078499 2.44740724l.372905.7575286.0707051.1330218 1.9022432 3.4440043.3396068.6002095.5157402.9363857c.3148011.5897456.1086932 1.3302297-.4632358 1.659423-.5880203.3485105-1.3354909.1692189-1.6908259-.4069788l-1.6908642-2.7003341-.3551318 1.8926441c-.0512539.3106783.0202564.8749412.1420721 1.1307622l3.5869863 7.8042481c.3000504.6585036.3240274 1.0460655.0332224 1.4896015-.2317553.3627663-.6285654.5822689-1.0565305.5822689-.5746445 0-.8958584-.2534169-1.2984401-.9370652l-4.1385566-6.958579c-.5062601 1.3068685-1.1345966 2.4216864-1.885072 3.3428845-.1757367.1582258-.315208.2144842-.4094269.2393966l-4.0987546.8545951 2.1057446-2.6113546c.6350562-.9146812 1.1102226-2.1602913 1.444034-3.5961587.2164941-.9312349.3410379-1.7888244.3952972-2.4126665l.3548021-4.316985c-.3449519.1569465-.7066692.3806099-1.0692858.661919-1.0251221.8764536-2.1421659 2.149808-2.7352932 3.0793631l-.1937319.3132864-.1380919.2077663c-.2964734.4325823-.5936626.6140586-1.0635329.6140586-.4542859 0-.8716264-.2382951-1.0818864-.6201635-.2369448-.4098073-.1967111-.8114399.0420409-1.2993244l.0696879-.1321461.0961711-.1626624c.1587615-.2762451.3458755-.5659474.5540727-.8603447.0622569-.1508313.148074-.2681389.2479818-.3408959.6747595-.8956126 1.5177062-1.8056048 2.3269155-2.4853178l.2512845-.2044295c1.5873099-1.34030357 3.187703-2.1271104 4.7725272-2.33756306l.3297253-.03541994c-.7273036-.3456343-1.2779919-1.02759827-1.4133787-1.87589703-.2304667-1.39419496.7049314-2.70106766 2.0950973-2.92715978 1.3844574-.2299853 2.6929081.7107669 2.9203505 2.09825649zm-14.9511696-2.61510935c.3313708 0 .6.26862915.6.6l-.000509 2.553 5.573 1.16.0005158-2.18779066c0-.33137085.2686292-.6.6-.6.3313709 0 .6.26862915.6.6l-.0005158 2.43779066 1.1955277.24900121c-.2551539.10942912-.5093027.23114601-.7624424.36503016-.6709755.35487515-1.3348614.79523444-1.991586 1.3188336l-.5757199.4705935c-.2718498.2283056-.5459566.4786842-.8165545.7442884l-7.12822489-.81274687.00050899 15.26398267 5.3185889-1.1076851c.2883054-.0600445.5712898.1004889.6736396.3667234l.0287625.1003361c.0634848.3268494-.147439.6440511-.473403.711936l-6.34242288 1.320866c-.20971165.043666-.40467411-.1276242-.40467411-.3555387v-20.54339594c0-.22791449.19496246-.39920466.40467411-.35553867l2.90032589.60331424.00050899-2.303c0-.33137085.26862915-.6.6-.6zm-.54891369 17.72019877.09297372.0077811c.36456471.0617255.63731007.4843755.67937137 1.0416782l.0056291.142-.0043269.1433794c-.039582.6117485-.34517354 1.1396697-.73688544 1.2828059l-.09961804.0275935-.08961591.0099175c-.41318054.0129894-.75077245-.4335022-.79394835-1.0618453l-.00466586-.1373272.00527549-.1495235c.0487877-.6892178.4296344-1.249587.87780248-1.3020509zm2.47200009-.2876697.080375.0072988c.3137034.0574914.5574424.4487236.6003091.963661l.0066123.1433468-.0036024.1431206c-.0337654.566162-.295565 1.0489179-.6329075 1.1761863l-.0858211.0242536-.0827079.0083136c-.3538657.003092-.6440596-.4104355-.6867905-.9859479l-.0053845-.1355701.0037504-.1388198c.0384651-.6397668.3650059-1.1583021.7525847-1.2025363zm2.1566886-.2512976.0757687.0078096c.2728227.0567792.4871919.4177402.5276193.9045989l.0066262.1357671-.0033079.14366c-.0300162.5203059-.2529857.9622445-.5434322 1.0800908l-.0807914.0239199-.077254.006746c-.3050056-.0050176-.5575043-.3876758-.5998135-.9182321l-.0061071-.1355874.0032557-.138746c.0335769-.5928782.3152941-1.0689311.6520973-1.1078224zm1.8928988-.2215387.0729094.0086548c.1462334.0350561.2738706.174558.3596603.3809793-.1953084.4715263-.4111267.8776536-.6445753 1.2138931l-.2259184.2797557c-.0846271-.1490339-.1436483-.3495245-.1632026-.5797545l-.0068267-.1374192.0025397-.1397028c.0285012-.5502505.2725849-.9896105.5693486-1.024202zm-6.59371755-3.2183731.09248432.0074093c.39164574.0632753.69186823.5245803.73725173 1.1041019l.0059422.1471813-.0042866.1406294c-.0394723.6011633-.34596324 1.0881922-.73836448 1.1827042l-.09199674.014716-.0946902-.0006766c-.40497126-.0368165-.73497092-.506715-.78004755-1.120551l-.00524893-.1440779.00522176-.146539c.04484245-.6246874.3731116-1.108252.77552679-1.1766163zm2.24475745.0410282c.2134848.3913659.5454021.7091696.9407167.9211941l.0078839.0617403.0061251.1366357-.0035715.1402487c-.033522.5526851-.2936724.9987123-.6292574 1.0882109l-.0853803.0148023-.0820906-.0010081c-.3491203-.0356913-.6354732-.4696304-.6804874-1.0353959l-.0061223-.1440335.0037104-.1361276c.0305924-.5018608.2453574-.9059866.5284734-1.0462669zm3.0199024 1.0535974-.0030633.1230624c-.02852.5081819-.2512418.9182681-.5401922 1.0018945l-.0803505.0145416-.0769885-.0015774c-.3037754-.0375529-.5531513-.4431448-.5949874-.9689871l-.002031-.0380515c.1293017.0206791.2612224.0313492.3945768.0313492.3309947 0 .630628-.0544195.9030361-.1622317zm1.2528749-1.1289453.0605856.0071249c.2569427.0581379.4579568.4237493.4995276.8864606l.0075844.141516-.0020552.1327686c-.0234795.4787686-.2189144.8625981-.4733137.9404853l-.0707587.0134981-.0728274-.0029654c-.2634072-.0416587-.4828324-.4153011-.5234352-.9012437l-.0065385-.135149.0027404-.1371919c.0051877-.0957955.0171437-.1873959.0349456-.2732725.1590871-.145371.3050742-.3181813.4410065-.5165191zm-4.1289995-3.6293351.0494606.0022044.0844325.0166637c.1223213.0356154.2354237.1191793.3316445.2372726-.0819628.1218049-.1590998.2415484-.2323611.3599272l-.2632117.4420885-.0981686.1831083c-.1398805.2854372-.2383124.5637141-.2919058.8360524-.1665532-.2296385-.2751998-.5684429-.2774911-.9409669-.0028704-.6058855.2661347-1.0663672.615611-1.1290591z"/></svg>