<svg height="32" viewBox="0 0 32 32" width="32" xmlns="http://www.w3.org/2000/svg"><g fill="none" fill-rule="evenodd"><path d="m10.6 3.70001733v3.74388343c0 .4643343-.2686292.84075163-.6.84075163-.29823376 0-.54564675-.30489804-.59214701-.70437735l-.00785299-.13637428v-3.74388343c0-.33137085.26862915-.6.6-.6.3313708 0 .6.26862915.6.6z" fill="#7c969d" fill-rule="nonzero"/><path d="m17.3730068 5.22522667v3.04325707c0 .46433431-.2686291.84075164-.6.84075164-.2982337 0-.5456467-.30489804-.592147-.70437735l-.007853-.13637429v-3.04325707c0-.33137085.2686292-.6.6-.6.3313709 0 .6.26862915.6.6z" fill="#7c969d" fill-rule="nonzero"/><path d="m18.8319604 24.0862519-12.33279528 2.5679245c-.20971165.043666-.40467411-.1276242-.40467411-.3555387v-20.54339594c0-.22791449.19496246-.39920466.40467411-.35553867l12.33279528 2.56792449c.1594646.03320359.2745433.18223267.2745433.35553868v15.40754694c0 .173306-.1150787.3223351-.2745433.3555387z" fill="#d0e7ef"/><path d="m6.09449101 9.86136155v-4.10611979c0-.22791449.19496246-.39920466.40467411-.35553867l12.33279528 2.56792449c.1594646.03320359.2745433.18223267.2745433.35553868v3.02473084z" fill="#d9541a"/><g fill="#b8d0d7"><path d="m11.0698908 14.3140324c.0041218.670127.3524069 1.2311379.7635482 1.2443641.4018675.012124.7192397-.4915734.7130571-1.1429633-.0051521-.6392659-.3297374-1.1936637-.729544-1.2355466-.0164868-.0011022-.0329737-.0022044-.0494606-.0022044-.3884718 0-.7006919.4838582-.6976007 1.1363502z"/><path d="m13.3048922 14.4672358c.007213.6260397.3142809 1.1484742.6749312 1.1605982.3513764.012124.6275315-.4618145.619288-1.0724236-.0082434-.5995873-.2957332-1.1176131-.6471096-1.1539851-.014426-.0011022-.0278216-.0022044-.0412172-.0022044-.3390112 0-.612075.4563036-.6058924 1.0680149z"/><path d="m15.2596167 14.5994977c.0154564.5885655.2823376 1.0790367.6007403 1.0900586.3101592.0099196.5523101-.4364643.5430363-1.0118036-.0103043-.5643175-.2617291-1.05038-.5770405-1.0823433-.0123651-.0011022-.0236999-.0022044-.0350346-.0022044-.3050071 0-.539945.4309534-.5317015 1.0062927z"/><path d="m17.0010423 14.7174312c.0103043.5543979.2534856 1.0173145.5358233 1.026132.2782159.0088175.4915148-.4122163.4801801-.9566945-.0113348-.5323541-.2369988-.9897599-.518306-1.0184166-.0092739-.0011022-.0185477-.0011022-.0278216-.0011022-.2699725 0-.4812105.416625-.4698758.9500813z"/><path d="m17.5585046 16.7972497c-.2833681.0011022-.511093.4485883-.4997583 1.0195189.0092739.5610109.2555465 1.0029861.5389146.9809425.2782159-.0209415.4925452-.4717342.482241-1.0239276-.0123652-.5378651-.2421509-.9765338-.5193364-.9765338-.0010305 0-.0020609 0-.0020609 0z"/><path d="m15.8830264 16.8060672c-.3173722.0022044-.57601.4783472-.5677665 1.0834455.0082434.5962807.283368 1.0636061.6028011 1.0393581.3122201-.024248.5564319-.5025952.5461276-1.086752-.0103043-.5720327-.2617291-1.0360516-.5791013-1.0360516s-.0010304 0-.0020609 0z"/><path d="m13.993219 16.817089c-.3616807.0011022-.6584444.5092084-.6512314 1.1539852.007213.6348571.314281 1.1341458.6780225 1.1043869.3544677-.0264524.6326837-.5378651.6234098-1.1572917-.0082434-.6073026-.2947028-1.1010804-.6471096-1.1010804-.0010305 0-.0020609 0-.0030913 0z"/><path d="m11.8427129 16.829213c-.4132022.0011022-.7553048.5444782-.751183 1.2355467.0041217.6800466.3534372 1.2124008.7687003 1.1804375.4049587-.0330655.7243918-.579748.7182092-1.2432619-.0061825-.6469812-.3317982-1.1727223-.7326352-1.1727223-.0010305 0-.0020609 0-.0030913 0z"/><path d="m9.37483454 16.841337c-.47605837.0033066-.87483454.5874633-.87483454 1.3314366 0 .7318492.40083703 1.3016776.87998668 1.2653055.46678451-.0374742.83773912-.6260396.83464782-1.3380496-.0020609-.6932728-.36580245-1.2586925-.83567825-1.2586925-.00103043 0-.00309129 0-.00412171 0z"/><path d="m15.9366088 20.0619145c-.321494.0374742-.5811622.5499891-.5718883 1.1639048.0092738.6050982.2843985 1.0492778.6058924.9886577.3153114-.0584157.5584928-.5742371.5481885-1.1661091-.0092739-.5654197-.2493639-.9886578-.5461276-.9886578-.0113347 0-.0236999 0-.036065.0022044z"/><path d="m14.0344361 20.2834532c-.3627111.0418829-.6615356.5907698-.655353 1.2465684.007213.645879.3184026 1.116511.6831746 1.0470735.3565286-.0672332.6347445-.6183244.6275315-1.2476707-.0092738-.6006895-.276155-1.0481756-.6100142-1.0481756-.0154564 0-.0298824.0011022-.0453389.0022044z"/><path d="m11.869504 20.535853c-.415263.0473938-.7604568.6392659-.7563351 1.3413561.0041217.6910685.3565285 1.1925616.7748829 1.1132044.4070196-.0771527.7285135-.6690248.722331-1.3435605-.0061826-.6293462-.3060376-1.1143066-.6872964-1.1143066-.0175173 0-.0360651.0011022-.0535824.0033066z"/><path d="m9.38307797 20.8246248c-.48018009.0562113-.88307797.6954772-.88307797 1.4515744 0 .7461776.40495874 1.2807362.88823012 1.189255.46987579-.0892768.84392168-.730747.84083038-1.4537788-.0030913-.6745357-.33591999-1.1914593-.77797419-1.1914593-.02266945 0-.04533889.0011022-.06800834.0044087z"/></g><g fill-rule="nonzero"><path d="m24.9511696 5.71512668c.2284272 1.38367139-.7071509 2.68941707-2.0899821 2.91727609l-.1050423.01513889c.7457222.35817123 1.357849 1.13561137 2.0078499 2.44740724l.372905.7575286.0707051.1330218 1.9022432 3.4440043.3396068.6002095.5157402.9363857c.3148011.5897456.1086932 1.3302297-.4632358 1.659423-.5880203.3485105-1.3354909.1692189-1.6908259-.4069788l-1.6908642-2.7003341-.3551318 1.8926441c-.0512539.3106783.0202564.8749412.1420721 1.1307622l3.5869863 7.8042481c.3000504.6585036.3240274 1.0460655.0332224 1.4896015-.2317553.3627663-.6285654.5822689-1.0565305.5822689-.5746445 0-.8958584-.2534169-1.2984401-.9370652l-4.1385566-6.958579c-.5062601 1.3068685-1.1345966 2.4216864-1.885072 3.3428845-.1757367.1582258-.315208.2144842-.4094269.2393966l-4.0987546.8545951 2.1057446-2.6113546c.6350562-.9146812 1.1102226-2.1602913 1.444034-3.5961587.2164941-.9312349.3410379-1.7888244.3952972-2.4126665l.3548021-4.316985c-.3449519.1569465-.7066692.3806099-1.0692858.661919-1.0251221.8764536-2.1421659 2.149808-2.7352932 3.0793631l-.1937319.3132864-.1380919.2077663c-.2964734.4325823-.5936626.6140586-1.0635329.6140586-.4542859 0-.8716264-.2382951-1.0818864-.6201635-.2369448-.4098073-.1967111-.8114399.0420409-1.2993244l.0696879-.1321461.0961711-.1626624c.6997064-1.21749 1.9501368-2.6963717 3.12897-3.6865584l.2512845-.2044295c1.5873099-1.34030357 3.187703-2.1271104 4.7725272-2.33756306l.3297253-.03541994c-.7273036-.3456343-1.2779919-1.02759827-1.4133787-1.87589703-.2304667-1.39419496.7049314-2.70106766 2.0950973-2.92715978 1.3844574-.2299853 2.6929081.7107669 2.9203505 2.09825649z" fill="#00a088"/><path d="m24.9511696 5.71512668c.2284272 1.38367139-.7071509 2.68941707-2.0899821 2.91727609l-.1050423.01513889c.7457222.35817123 1.357849 1.13561137 2.0078499 2.44740724l.301828.6179151-.1757071.1228546c-1.3500067 1.1178186-2.0397521 2.8774305-2.6069495 4.7257707l-.2080048.6962064-.4067483 1.3914429c-.2410197.8037362-.4971786 1.584758-.8135049 2.2967516-.3868217.870666-.8549242 1.7797471-1.3868592 2.5536701l.0006244-.0029172c-.3292455.4575001-.5860722.5704618-.7321241.6084738l-4.1360036.8621966 1.0271346-1.2330459 1.1187018-1.3866565c.6350562-.9146812 1.1102226-2.1602913 1.444034-3.5961587.2164941-.9312349.3410379-1.7888244.3952972-2.4126665l.3548021-4.316985c-.3449519.1569465-.7066692.3806099-1.0692858.661919-1.0251221.8764536-2.1421659 2.149808-2.7352932 3.0793631l-.1937319.3132864-.1380919.2077663c-.2964734.4325823-.5936626.6140586-1.0635329.6140586-.4542859 0-.8716264-.2382951-1.0818864-.6201635-.2369448-.4098073-.1967111-.8114399.0420409-1.2993244l.0696879-.1321461.0961711-.1626624c.6997064-1.21749 1.9501368-2.6963717 3.12897-3.6865584l.2512845-.2044295c1.5873099-1.34030357 3.187703-2.1271104 4.7725272-2.33756306l.3297253-.03541994c-.7273036-.3456343-1.2779919-1.02759827-1.4133787-1.87589703-.2304667-1.39419496.7049314-2.70106766 2.0950973-2.92715978 1.3844574-.2299853 2.6929081.7107669 2.9203505 2.09825649z" fill="#00b99e"/></g></g></svg>