<svg height="32" viewBox="0 0 32 32" width="32" xmlns="http://www.w3.org/2000/svg"><path d="m24 7.4h-16c-.33 0-.6.27-.6.6v16c0 .33.27.6.6.6h16c.33 0 .6-.27.6-.6v-16c0-.33-.27-.6-.6-.6zm-.6 16h-14.8v-7h14.8zm0-8.2h-14.8v-6.6h14.8zm-8.9 5.4h3c.61 0 1.1-.49 1.1-1.1v-.5c0-.33-.27-.6-.6-.6s-.6.27-.6.6v.4h-2.8v-.4c0-.33-.27-.6-.6-.6s-.6.27-.6.6v.5c0 .61.49 1.1 1.1 1.1zm0-8h3c.61 0 1.1-.49 1.1-1.1v-.5c0-.33-.27-.6-.6-.6s-.6.27-.6.6v.4h-2.8v-.4c0-.33-.27-.6-.6-.6s-.6.27-.6.6v.5c0 .61.49 1.1 1.1 1.1z"/></svg>