<svg height="32" viewBox="0 0 32 32" width="32" xmlns="http://www.w3.org/2000/svg"><g fill="none"><path d="m6.596 7.946c0-.74558441.60441559-1.35 1.35-1.35h16.1172c.7455844 0 1.35.60441559 1.35 1.35v16.1172c0 .7455844-.6044156 1.35-1.35 1.35h-16.1172c-.74558441 0-1.35-.6044156-1.35-1.35z" fill="#785d07"/><path d="m24.0632 24.0632h-16.1172v-7.623h16.1172z" fill="#af8c1d"/><path d="m24.0632 15.1334h-16.1172v-7.1874h16.1172z" fill="#af8c1d"/><g fill="#f3eb5b"><path d="m14.3711 21.2624h3.267c.66429 0 1.1979-.53361 1.1979-1.1979v-.5445c0-.35937-.29403-.6534-.6534-.6534s-.6534.29403-.6534.6534c0 .2405752-.1950248.4356-.4356.4356h-2.178c-.2405752 0-.4356-.1950248-.4356-.4356 0-.35937-.29403-.6534-.6534-.6534s-.6534.29403-.6534.6534v.5445c0 .66429.53361 1.1979 1.1979 1.1979z"/><path d="m14.3711 12.5504h3.267c.66429 0 1.1979-.53361 1.1979-1.1979v-.5445c0-.35937-.29403-.6534-.6534-.6534s-.6534.29403-.6534.6534c0 .2405752-.1950248.4356-.4356.4356h-2.178c-.2405752 0-.4356-.1950248-.4356-.4356 0-.35937-.29403-.6534-.6534-.6534s-.6534.29403-.6534.6534v.5445c0 .66429.53361 1.1979 1.1979 1.1979z"/></g></g></svg>