<svg height="32" viewBox="0 0 32 32" width="32" xmlns="http://www.w3.org/2000/svg"><path d="m20.785 9.88c.297 0 .5454.2187.59211.50301l.00789.09699v7.15l2.4-.03c.23 0 .44.13.54.34.0857143.18.0759184.3820408-.016793.5494461l-.053207.0805539-3.04 3.79c-.12.14-.29.22-.47.22-.15 0-.3-.0625-.4094907-.1643519l-.0605093-.0656481-2.96-3.7c-.14-.18-.17-.42-.07-.63.0771429-.1714286.242449-.2987755.4329446-.3316618l.0970554-.0083382 2.41-.03v-7.17c0-.33.27-.6.6-.6zm-9.04-.23c.18 0 .35.08.47.22l3.04 3.79c.14.18.17.42.07.63-.0857143.18-.2522449.3012245-.4429155.3321866l-.1070845.0078134-2.39-.03v7.15c0 .33-.27.6-.6.6s-.6-.27-.6-.6v-7.17l-2.41-.03c-.23 0-.44-.14-.53-.34-.1-.21-.07-.45.07-.63l2.96-3.7c.11-.14.29-.23.47-.23z"/></svg>