<svg height="32" viewBox="0 0 32 32" width="32" xmlns="http://www.w3.org/2000/svg"><g fill="none"><path d="m24.325 17.94c-.1-.21-.31-.34-.54-.34h-.01l-2.39.03v-7.15c0-.33-.27-.6-.6-.6s-.6.27-.6.6v7.17l-2.41.03c-.23 0-.44.14-.53.34-.1.21-.07.45.07.63l2.96 3.7c.11.14.29.23.47.23s.35-.08.47-.22l3.04-3.79c.14-.18.17-.42.07-.63z" fill="#ac4000"/><path d="m11.745 9.65c.18 0 .35.08.47.22l3.04 3.79c.14.18.17.42.07.63-.0857143.18-.2522449.3012245-.4429155.3321866l-.1070845.0078134-2.39-.03v7.15c0 .33-.27.6-.6.6s-.6-.27-.6-.6v-7.17l-2.41-.03c-.23 0-.44-.14-.53-.34-.1-.21-.07-.45.07-.63l2.96-3.7c.11-.14.29-.23.47-.23z" fill="#2289a3"/></g></svg>