<svg height="32" viewBox="0 0 32 32" width="32" xmlns="http://www.w3.org/2000/svg"><path d="m15.9999894 7.4936507c-.4904559 0-.9082435.35586692-.98693.83828428l-.0116778.12839167-.0023816 8.14567335-3.7388987.0010882c-.5522124 0-.9999236.4477193-.9999236 1 0 .2277943.0777728.4487618.2204492.626339l4.7398116 5.8992398c.3459175.430534.9753558.4991293 1.4058899.1532118.056469-.0453707.1078411-.0967428.1532118-.1532118l4.7398116-5.8992398c.3459175-.430534.2773222-1.0599723-.1532118-1.4058898l-.1000483-.0703205-.1270319-.0659307c-.1289-.0563814-.2630502-.084198-.3992588-.084198l-3.741801-.0010882.0019893-8.11230643c.0000001-.55232394-.4477115-1.00004287-.9999999-1.00004287z"/></svg>