<svg height="32" viewBox="0 0 32 32" width="32" xmlns="http://www.w3.org/2000/svg"><path d="m14.3929118 10.6601777c-.1366766 0-.2692571.0466637-.3758034.1322695l-5.89923981 4.7398117c-.25832041.2075505-.29947757.5852134-.09192708.8435339.02722242.0338814.05804566.0647046.09192708.091927l5.89923981 4.7398117c.2583204.2075504.6359834.1663933.8435339-.0919271.0856059-.1065464.1322695-.2391269.1322695-.3758034l.0004375-4.1406233 8.513.0008117c.3313709 0 .6-.2686292.6-.6 0-.2982338-.2175896-.5456468-.5026769-.5921471l-.0973231-.0078529-8.513-.0008117-.0004375-4.139c0-.3313708-.2686291-.6-.6-.6z" fill-rule="evenodd"/></svg>