<svg height="32" viewBox="0 0 32 32" width="32" xmlns="http://www.w3.org/2000/svg"><path d="m15.4849663 7.6363973-.1112947.07772389c-.056469.04537069-.1078411.09674277-.1532118.1532118l-4.7398116 5.89923981c-.3459175.430534-.2773222 1.0599723.1532118 1.4058898l.1000483.0703205.1270319.0659307c.1289.0563814.2630502.084198.3992588.084198l3.739801-.0009118.0000106 8.1143305c0 .5522999.4477116 1.0000188 1 1.0000188.4904559 0 .9082435-.3558669.98693-.8382843l.0116778-.1283916.0003816-8.1476734 3.7408479.0009118c.5522632 0 .9999744-.4477193.9999744-1 0-.2277943-.0777728-.4487618-.2204492-.626339l-4.7398116-5.89923981c-.3143018-.39118456-.8684631-.48753731-1.2945952-.23093569z" fill="#2289a3"/></svg>