<svg height="32" viewBox="0 0 32 32" width="32" xmlns="http://www.w3.org/2000/svg"><path d="m20.634809 15.09125h-11.639809c-.53710678 0-.975.4378932-.975.975s.43789322.975.975.975h11.6409093l-4.4952971 4.46906c-.3881739.3719126-.3881739.9937083-.0007772 1.381105.1885957.1885957.4332572.289835.695165.289835.251836 0 .5061977-.1008676.685165-.279835l6.1791377-6.1391404c.048329-.0483262.0746986-.0834857.1177162-.148012.1030297-.1545447.1629811-.3472455.1629811-.5380126v-.01c-.0158268-.2800759-.1223301-.5176602-.299835-.695165l-6.3108444-6.27084183-.0048561-.00473875c-.3850496-.36900589-.9838794-.36900589-1.368929 0-.380287.3963307-.380287.99516048-.0112811 1.38021008z"/></svg>