<svg height="32" viewBox="0 0 32 32" width="32" xmlns="http://www.w3.org/2000/svg"><path d="m10.6601777 17.6070882c0 .1366766.0466637.2692571.1322695.3758034l4.7398117 5.8992398c.2075505.2583204.5852134.2994776.8435339.0919271.0338814-.0272224.0647046-.0580457.091927-.0919271l4.7398117-5.8992398c.2075504-.2583204.1663933-.6359834-.0919271-.8435339-.1065464-.0856059-.2391269-.1322695-.3758034-.1322695l-4.1406233-.0004375.0008117-8.513c0-.33137085-.2686292-.6-.6-.6-.2982338 0-.5456468.21758961-.5921471.50267688l-.0078529.09732312-.0008117 8.513-4.139.0004375c-.3313708 0-.6.2686291-.6.6z" fill-rule="evenodd"/></svg>