<svg height="32" viewBox="0 0 32 32" width="32" xmlns="http://www.w3.org/2000/svg"><path d="m21.3398223 14.3929118c0-.1366766-.0466637-.2692571-.1322695-.3758034l-4.7398117-5.89923981c-.2075505-.25832041-.5852134-.29947757-.8435339-.09192708-.0338814.02722242-.0647046.05804566-.091927.09192708l-4.7398117 5.89923981c-.2075504.2583204-.1663933.6359834.0919271.8435339.1065464.0856059.2391269.1322695.3758034.1322695l4.1406233.0004375-.0008117 8.513c0 .3313709.2686292.6.6.6.2982338 0 .5456468-.2175896.5921471-.5026769l.0078529-.0973231.0008117-8.513 4.139-.0004375c.3313708 0 .6-.2686291.6-.6z" fill-rule="evenodd"/></svg>