<svg height="32" viewBox="0 0 32 32" width="32" xmlns="http://www.w3.org/2000/svg"><path d="m15.104365 11.3424131v11.659498c0 .5371068.4378932.975.975.975s.975-.4378932.975-.975v-11.6583968l4.5106107 4.4843353c.3747408.3747431.9878337.3747431 1.3738538.0048071.3836523-.3998424.3787083-1.0129029-.0042994-1.3959106l-6.1708638-6.13086097c-.097489-.09749182-.2030231-.16649489-.33263-.21509748-.2268465-.09765377-.531886-.09303196-.7693764.02571325-.086927.04346351-.1709299.09946545-.252364.16732721l-6.34425279 6.30207749c-.38823983.3719781-.38823983.9937738-.00084313 1.3811705.37113765.3873967.99293342.3873967 1.38033012 0z" fill="#4588a0"/></svg>