<svg height="32" viewBox="0 0 32 32" width="32" xmlns="http://www.w3.org/2000/svg"><path d="m17.6070882 10.2601777-.1127492.0066179-.1250146.0218331c-.4408279.1073641-.7622362.5048142-.7622362.971549l-.0010882 3.7388223-8.11239217.0009894-.12831812.0090606c-.5125682.0820155-.87163901.4973049-.87163901.9909394l.00661783.1127491.02091813.1152329c.1082791.4506097.50572926.772018.97246404.772018l8.1123493-.0019894.0010882 3.7418773c0 .2277214.0777749.4486881.2204492.6262627.3459175.430534.9753558.4991293 1.4058898.1532118l5.8992398-4.7398116c.056469-.0453707.1078411-.0967428.1532118-.1532118.3459175-.4305341.2773222-1.0599724-.1532118-1.4058899l-5.8992398-4.7398116c-.1775772-.1426764-.3985447-.2204492-.626339-.2204492z"/></svg>