<svg height="32" viewBox="0 0 32 32" width="32" xmlns="http://www.w3.org/2000/svg"><path d="m16.8968654 9c0-.53710678-.4378932-.975-.975-.975-.5371067 0-.975.43789322-.975.975v11.6583968l-4.5106106-4.4843353c-.3899745-.373813-.98880425-.373813-1.37385388-.0048071-.38028696.3963307-.38028696.9951605-.01128106 1.3802101l6.17644424 6.1365615c.1828469.1828497.4290554.288974.6943013.288974h.01c.1008608 0 .2008475-.0166644.2985854-.0492438.1341851-.050045.2515918-.1220039.3554614-.211035l6.3402752-6.2987157c.3966038-.3806625.4016937-1.0067229.0051425-1.3867511-.3654371-.3818161-.9872328-.3818161-1.3746295.0055806l-4.659835 4.6246626z"/></svg>