<svg height="32" viewBox="0 0 32 32" width="32" xmlns="http://www.w3.org/2000/svg"><path d="m11.3690907 14.95 4.4952971-4.46906c.3881739-.3719126.3881739-.99370834.0007772-1.38110504-.3711376-.3873967-.9929333-.3873967-1.38033 0l-6.16935304 6.13935454c-.18435762.1843561-.29048196.4305645-.29048196.6958105s.10612434.5114544.28983496.695165l6.32084314 6.2808405c.1855072.1855099.4277173.2789945.6843219.2789945.2548615 0 .5085086-.1031785.695165-.289835.3745865-.3907501.3745865-.9895799.0055806-1.3746295l-4.6505546-4.6155355h11.629809c.5371068 0 .975-.4378932.975-.975 0-.5446018-.4353937-.985-.975-.985z" fill="#4588a0"/></svg>