<svg height="32" viewBox="0 0 32 32" width="32" xmlns="http://www.w3.org/2000/svg"><path d="m17.6070882 10.6601777c.1366766 0 .2692571.0466637.3758034.1322695l5.8992398 4.7398117c.2583204.2075505.2994776.5852134.0919271.8435339-.0272224.0338814-.0580457.0647046-.0919271.091927l-5.8992398 4.7398117c-.2583204.2075504-.6359834.1663933-.8435339-.0919271-.0856059-.1065464-.1322695-.2391269-.1322695-.3758034l-.0004375-4.1406233-8.513.0008117c-.33137085 0-.6-.2686292-.6-.6 0-.2982338.21758961-.5456468.50267688-.5921471l.09732312-.0078529 8.513-.0008117.0004375-4.139c0-.3313708.2686291-.6.6-.6z" fill-rule="evenodd"/></svg>