<svg height="32" viewBox="0 0 32 32" width="32" xmlns="http://www.w3.org/2000/svg"><path d="m14.3929118 10.2601777c-.2277943 0-.4487618.0777728-.626339.2204492l-5.89923981 4.7398116c-.43053402.3459175-.49912928.9753558-.1532118 1.4058899.04537069.056469.09674277.1078411.1532118.1532118l5.89923981 4.7398116c.430534.3459175 1.0599723.2773222 1.4058898-.1532118l.0703205-.1000483.0659307-.1270319c.0563814-.1289.084198-.2630502.084198-.3992588l-.0009118-3.741801 8.1143064.0019893c.552324.0000001 1.0000429-.4477115 1.0000429-.9999999 0-.4904559-.3558669-.9082435-.8382843-.98693l-.1283916-.0116778-8.1476734-.0023816.0009118-3.7388479c0-.5522632-.4477193-.9999744-1-.9999744z" fill="#2289a3"/></svg>