<svg height="32" viewBox="0 0 32 32" width="32" xmlns="http://www.w3.org/2000/svg"><g fill="none" fill-rule="evenodd"><path d="m7.7716157 25.5603152v-15.62192831l5.3266025-5.30716125h11.4017818v20.92908956z" fill="#c8e2a6"/><path d="m13.1112997 9.9371933h-5.33848605v-5.30596766h.01308151z" fill="#3d955c" transform="matrix(-1 0 0 1 20.884114 0)"/><path d="m13.1112997 15.2756156-5.339684-5.3384223h5.338486l.001198.00119359z" fill="#a1cf93" transform="matrix(-1 0 0 1 20.882916 0)"/><g fill-rule="nonzero"><path d="m15.0939225 13.4823773v-6.08092553h6.8311496v6.08092553z" fill="#469055" transform="matrix(1 0 0 -1 0 20.88383)"/><path d="m21.9679112 11.3098953v2.5541843h-7.2451676v-.9471444l1.3024144-1.3818991 2.0277111.6133148 2.2304821-2.1039025zm-4.7734852-1.0810887c-.5590128-.0069876-1.0062231-.4541979-1.0062231-1.01321073v-.00698766c.0069877-.55901283.4611856-1.00622309 1.0201984-1.00622309.5590129.00698766 1.0062231.46118558 1.0062231 1.02019841-.0069876.55901283-.4611856 1.00622307-1.0201984 1.00622307z" fill="#c8e2a6"/><path d="m10.0916264 19.57927v-1.0363636h11.8334457v1.0363636zm0 3.0550483v-1.0363637h7.9364655v1.0363637zm0-6.1840624v-1.0363636h11.8334457v1.0363636z" fill="#81b272"/></g></g></svg>