<svg height="32" viewBox="0 0 32 32" width="32" xmlns="http://www.w3.org/2000/svg"><path d="m24.74 5.23h-10.55c-.16 0-.31.06-.42.18l-.01.01-6.93 6.93c-.06.06-.1.12-.13.19s-.04.14-.05.22v13.41c0 .33.27.6.6.6h17.5c.33 0 .6-.27.6-.6v-20.34c-.01-.33-.28-.6-.61-.6zm-3.67 15.87c.33 0 .6.27.6.6s-.27.6-.6.6h-9.94c-.33 0-.6-.27-.6-.6s.27-.6.6-.6zm0-4.6c.33 0 .6.27.6.6s-.27.6-.6.6h-9.94c-.33 0-.6-.27-.6-.6s.27-.6.6-.6zm-.02-7.8c.33 0 .6.27.6.6v3.15c0 .33-.27.6-.6.6h-3.15c-.33 0-.6-.27-.6-.6v-3.15c0-.33.27-.6.6-.6zm-7.46-1.42v4.9h-4.9z"/></svg>