<svg height="32" viewBox="0 0 32 32" width="32" xmlns="http://www.w3.org/2000/svg"><path d="m21.07 21.1h-9.94c-.33 0-.6.27-.6.6s.27.6.6.6h9.94c.33 0 .6-.27.6-.6s-.27-.6-.6-.6zm3.67-15.87h-10.55c-.16 0-.31.06-.42.18l-.01.01-6.93 6.93c-.06.06-.1.12-.13.19s-.04.14-.05.22v13.41c0 .33.27.6.6.6h17.5c.33 0 .6-.27.6-.6v-20.34c-.01-.33-.28-.6-.61-.6zm-11.15 2.05v4.9h-4.9zm10.55 18.3h-16.3v-12.21h6.35c.33 0 .6-.27.6-.6v-6.34h9.35zm-3.07-9.08h-9.94c-.33 0-.6.27-.6.6s.27.6.6.6h9.94c.33 0 .6-.27.6-.6s-.27-.6-.6-.6zm-3.17-3.45h3.15c.33 0 .6-.27.6-.6v-3.15c0-.33-.27-.6-.6-.6h-3.15c-.33 0-.6.27-.6.6v3.15c0 .33.27.6.6.6zm.6-3.15h1.95v1.95h-1.95z"/></svg>