<svg height="32" viewBox="0 0 32 32" width="32" xmlns="http://www.w3.org/2000/svg"><g fill="none" fill-rule="evenodd"><circle cx="10.907359" cy="12.179472" fill="#fa8bb9" r="7.56"/><path d="m10.9407612 13.7045464c-.3528402 0-.6415276-.2886874-.6415276-.6415276 0-.6629119.4918378-1.1440575.8767543-1.5396662.3100717-.3100717.5987591-.6094512.6842961-.930215.0748449-.2673032.0106922-.5773749-.085537-.70568039l-.0106921-.01069213c-.1389976-.18176615-.3635323-.39560868-.8339859-.39560868-.4597614 0-.6842961.2031504-.8339858.39560868l-.0106922.01069213c-.0534606.06415275-.11761336.26730319-.11761336.47045359 0 .3528402-.28868742.6415276-.6415276.6415276-.35284017 0-.64152759-.2886874-.64152759-.6415276 0-.36353233.09622914-.88744653.38491656-1.25097883 0 0 0-.01069213.01069212-.01069213.56668271-.73775673 1.32582367-.89813863 1.84973787-.89813863s1.2830552.1603819 1.8497379.89813863c.3528402.44906932.4811457 1.17613396.3100717 1.80696936-.171074.6522197-.6201434 1.1119812-1.015752 1.518282-.1817662.1817661-.50253.5025299-.50253.6308355.0106921.3635323-.2779953.6522197-.6308354.6522197zm-.0106922 2.4164206c-.427685 0-.7805252-.3528402-.7805252-.7912174.0106921-.427685.3528402-.7805252.7912174-.7805252.427685.0106921.7805252.3528402.7805252.7912173-.0106921.4276851-.3528402.7805253-.7912174.7805253z" fill="#8c1058" fill-rule="nonzero"/><path d="m14.1467511 14.9307052v8.053717c0 .9297059.7504855 1.6801914 1.6801914 1.6801914h3.9764527v2.6883061l3.4051878-2.5538908c.1120127-.0896102.2576293-.1344153.4032459-.1344153h3.3043762c.9297059 0 1.6801914-.7504855 1.6801914-1.6801914v-8.053717c0-.9297059-.7504855-1.6801913-1.6801914-1.6801913h-11.0892626c-.9297059 0-1.6801914.7504854-1.6801914 1.6801913z" fill="#31afd8" fill-rule="nonzero"/><path d="m18.3920749 13.2505139c-.3619847 2.552486-1.9987923 4.6947607-4.2453238 5.7617252v-4.0815339c0-.9297059.7504855-1.6801913 1.6801914-1.6801913z" fill="#2c538d"/><path d="m20.2718122 21.5146229-1.5987275-2.0467785c-.2036595-.2647574-.1629276-.6517106.1018298-.8553701.2647574-.2036596.6517106-.1629277.8553701.1018297l1.0895786 1.395068 2.7086721-3.8898975c.1934766-.2749404.5702467-.3462212.8553701-.1527447.2749404.1934766.3462213.5702468.1527447.8553702l-3.187272 4.561974c-.1120128.1629276-.2953064.2545744-.4989659.2647574-.1832936 0-.3665872-.0814638-.4786-.2342085z" fill="#fff" fill-rule="nonzero"/></g></svg>