<svg height="32" viewBox="0 0 32 32" width="32" xmlns="http://www.w3.org/2000/svg"><path d="m25.63 11.865c1.49 0 2.7 1.21 2.7 2.7v7.19c0 1.49-1.21 2.7-2.7 2.7h-2.76l-3.84 2.88c-.1.08-.23.12-.36.12-.09 0-.18-.02-.27-.06-.2-.1-.33-.31-.33-.54v-2.4h-2.35c-1.49 0-2.7-1.21-2.7-2.7v-7.19c0-1.49 1.21-2.7 2.7-2.7zm-.01 1.2h-9.9c-.83 0-1.5.67-1.5 1.5v7.19c0 .83.67 1.5 1.5 1.5h2.95c.33 0 .6.27.6.6v1.8l3.04-2.28c.1-.08.23-.12.36-.12h2.95c.83 0 1.5-.67 1.5-1.5v-7.19c0-.83-.67-1.5-1.5-1.5zm-2.09 2.44c.27.19.34.56.15.84l-3.13 4.48c-.0916667.1333333-.2319444.2180556-.3918981.2483796l-.0981019.0116204c-.18 0-.36-.08-.47-.23l-1.57-2.01c-.2-.26-.16-.64.1-.84s.64-.16.84.1l1.07 1.37 2.66-3.82c.19-.27.56-.34.84-.15zm-12.59-10.96c3.21 0 6.08 2.15 6.98 5.23.09.32-.09.65-.41.74s-.65-.09-.74-.41c-.75-2.57-3.15-4.36-5.83-4.36-3.35-.01-6.07 2.72-6.07 6.07s2.72 6.07 6.07 6.07c.33 0 .6.27.6.6s-.26.6-.6.6c-4.01 0-7.27-3.26-7.27-7.27s3.26-7.27 7.27-7.27zm-.02 9.55c.4.01.73.33.73.74-.01.4-.33.73-.74.73-.4 0-.73-.33-.73-.74.01-.4.33-.73.74-.73zm-.01-5.94c.4523077 0 1.092071.12781065 1.6046791.69017751l.1253209.14982249c.33.42.45 1.1.29 1.69-.16.61-.58 1.04-.95 1.42-.17.17-.47.47-.47.59.01.34-.26.61-.59.61s-.6-.27-.6-.6c0-.62.46-1.07.82-1.44.29-.29.56-.57.64-.87.07-.25.01-.54-.08-.66l-.01-.01c-.13-.17-.34-.37-.78-.37-.43 0-.64.19-.78.37l-.01.01c-.05.06-.11.25-.11.44 0 .297-.2187.5454-.50301.59211l-.09699.00789c-.33 0-.6-.27-.6-.6 0-.34.09-.83.36-1.17 0 0 0-.01.01-.01.53-.69 1.24-.84 1.73-.84z"/></svg>