<svg height="32" viewBox="0 0 32 32" width="32" xmlns="http://www.w3.org/2000/svg"><path d="m18.5130893 13.1136974 8.9503322.0000324c.9273816 0 1.6849295.7111788 1.7583658 1.6192585l.0058351.1449424v8.4564029c0 .9273816-.7111788 1.6849294-1.6192586 1.7583657l-.1449423.0058351h-3.4695951c-.114673 0-.2293461.0264631-.3291337.0793891l-.0942745.061747-3.5754471 2.6815854v-2.8227215h-4.1752754c-.9273816 0-1.6849295-.7111787-1.7583658-1.6192585l-.0058351-.1449423.0000896-4.1708349-.0164514.0066371.0007969-4.3421306c0-.9530992.7693692-1.7224684 1.7224684-1.7224684l2.7518135.0002164c-.0003728.0026484-.000747.0052965-.0011225.0079442zm5.354709 3.0373143-.0664301.0801267-2.8441057 4.0843924-1.1440575-1.4648213c-.2138426-.2779953-.6201434-.3207638-.8981387-.1069213-.2501957.1924583-.3098578.5408077-.163397.8112116l.0564758.086927 1.6786638 2.1491175c.1176134.1603819.3100717.2459189.50253.2459189.1782021-.0089101.341554-.0772209.4591179-.1987449l.0647963-.0792504 3.3466356-4.7900727c.2031504-.2993796.1283055-.6949882-.1603819-.8981387-.2694416-.1828353-.6168288-.1404945-.8317085.0802552zm-13.2136653-12.09987588c4.3840364 0 7.938 3.55396365 7.938 7.93799998l-.003.116-2.8267347.000401c-1.5053839 0-2.7224684 1.2170845-2.7224684 2.7224684l-.0001831 4.7344024c-.7529855.2369632-1.5543791.3647282-2.3856138.3647282-4.38403632 0-7.93799998-3.5539636-7.93799998-7.938 0-4.38403633 3.55396366-7.93799998 7.93799998-7.93799998zm.0350723 10.42623998c-.460296 0-.81955148.3704822-.83077821.8195515 0 .4602961.37048221.8307782.81955151.8307782.460296 0 .8195515-.3704821.8307782-.8195515 0-.460296-.3704822-.8195515-.8195515-.8307782zm-.0112267-6.66867932c-.5501099 0-1.34720795.16840099-1.9422248.94304556-.01122673 0-.01122673.01122673-.01122673.01122673-.30312179.38170892-.40416238.93181883-.40416238 1.31352773 0 .3704822.30312179.673604.67360397.673604.37048219 0 .67360397-.3031218.67360397-.673604 0-.17775658.04677806-.35551319.0948555-.44880942l.02863856-.04516681.01122674-.01122673c.15717426-.20208119.39293567-.41538912.87568517-.41538912.43909 0 .6741584.1774101.8234785.35087776l.0522067.06451136.0112267.01122673c.1010406.1347208.168401.46029603.0898139.74096433-.0898139.336802-.3929357.6511506-.718511.9767258-.4041623.4153891-.920592.9205921-.920592 1.6166495 0 .3704822.3031217.673604.6736039.673604s.673604-.3031218.6623773-.6848307c0-.1347208.336802-.4715228.5276564-.6623772.4153891-.4266159.8869119-.9093654 1.0665396-1.5941961.1796278-.66237724.044907-1.42579508-.3255752-1.89731786-.5950169-.77464457-1.3921149-.94304556-1.9422248-.94304556z" fill-rule="evenodd"/></svg>