<svg height="32" viewBox="0 0 32 32" width="32" xmlns="http://www.w3.org/2000/svg"><path d="m23.5473439 6.90936825c-.7920783-.78154195-1.8235813-1.20950597-2.9223426-1.20950597-1.1026008 0-2.1436017.43075897-2.9214214 1.20857864l-10.14027808 10.18027868c-2.09771049 2.1080951-2.09771049 5.5241902-.00007064 7.6322144 1.01884117 1.0188412 2.37011779 1.5789283 3.81177012 1.5789283 1.4416523 0 2.7929294-.5600867 3.8114214-1.5785787l7.5402805-7.570281c.3149162-.3149158.3107978-.8214833-.0002805-1.1325617-.3151968-.3151968-.8217644-.3110783-1.1328428 0l-7.5402805 7.5702811c-.7128552.7128546-1.6722477 1.1111403-2.6782981 1.1111403-1.0123041 0-1.96277008-.3956128-2.67857865-1.1114214-1.48189514-1.4818951-1.48189514-3.8952621 0-5.3771573l10.14027815-10.18027863c.4810198-.48101931 1.1096513-.74114269 1.7883005-.74114269.6821193 0 1.3188061.26245101 1.7872123.74004173.9834823.99276394.9834823 2.59715259.000704 3.58920239l-8.4995866 8.5295839c-.2429786.2429782-.5524119.371172-.8983297.371172s-.6553511-.1281938-.8985786-.3714214c-.4918952-.4918951-.4918952-1.3052621 0-1.7971573l5.1101381-5.1201383c.3150586-.3150585.3109402-.821626-.0001381-1.1327044-.3151968-.3151968-.8217644-.3110783-1.1328428 0l-5.1101381 5.1201383c-1.11796672 1.1179666-1.11796672 2.9445996.0001381 4.0627044.5534808.542642 1.265404.8385787 2.0314214.8385787.7699208 0 1.4917075-.2988648 2.0314214-.8385787l8.5002489-8.5302493c.786878-.7868777 1.2083297-1.8281112 1.2083297-2.92117202 0-1.08377166-.4254059-2.1279498-1.2076574-2.92049403z"/></svg>