<svg height="32" viewBox="0 0 32 32" width="32" xmlns="http://www.w3.org/2000/svg"><path d="m8.33255727 24.5798617c-2.02-2.03-2.02-5.32 0-7.35l10.14000003-10.17999996c.74-.74 1.73-1.15 2.78-1.15s2.03.41 2.78 1.15c.76.77 1.15 1.77 1.15 2.78 0 1.00999996-.38 2.00999996-1.15 2.77999996l-8.5 8.53c-.5.5-1.17.78-1.89.78s-1.38-.28-1.89-.78c-1.04-1.04-1.04-2.74 0-3.78l5.11-5.12c.23-.23.61-.24.85 0 .23.23.24.61 0 .85l-5.11 5.12c-.57.57-.57 1.51 0 2.08.28.28.64.43 1.04.43s.76-.15 1.04-.43l8.5-8.53c1.06-1.07 1.06-2.79999996 0-3.86999996-.51-.52-1.2-.8-1.93-.8s-1.41.28-1.93.8l-10.14000003 10.17999996c-1.56 1.56-1.56 4.1 0 5.66.75.75 1.75000003 1.17 2.82000003 1.17 1.06 0 2.07-.42 2.82-1.17l7.54-7.57c.23-.23.61-.24.85 0 .23.23.24.61 0 .85l-7.54 7.57c-.98.98-2.28 1.52-3.67 1.52s-2.69000003-.54-3.67000003-1.52z"/></svg>