<svg height="32" viewBox="0 0 32 32" width="32" xmlns="http://www.w3.org/2000/svg"><path d="m20.25 4.96335147c.2982338 0 .5456468.21758961.592147.50267688l.007853.09732312v20.87329703c0 .3313709-.2686292.6-.6.6-.2982338 0-.5456468-.2175896-.592147-.5026769l-.007853-.0973231v-20.87329703c0-.33137085.2686292-.6.6-.6zm-8.5 1.84004204c.2982338 0 .5456468.21758962.592147.50267689l.007853.09732311v17.51272019c0 .3313708-.2686292.6-.6.6-.2982338 0-.5456468-.2175897-.592147-.5026769l-.007853-.0973231v-17.51272019c0-.33137085.2686292-.6.6-.6zm4.25 3.00874126c.2982338 0 .5456468.21758963.592147.50267693l.007853.0973231v11.7247255c0 .3313708-.2686292.6-.6.6-.2982338 0-.5456468-.2175896-.592147-.5026769l-.007853-.0973231v-11.7247255c0-.3313709.2686292-.60000003.6-.60000003zm-8.5 3.73224433c.29823376 0 .54564675.2175896.59214701.5026769l.00785299.0973231v5.0859375c0 .3313708-.26862915.6-.6.6-.29823376 0-.54564675-.2175896-.59214701-.5026769l-.00785299-.0973231v-5.0859375c0-.3313709.26862915-.6.6-.6zm17 0c.2982338 0 .5456468.2175896.592147.5026769l.007853.0973231v5.0859375c0 .3313708-.2686292.6-.6.6-.2982338 0-.5456468-.2175896-.592147-.5026769l-.007853-.0973231v-5.0859375c0-.3313709.2686292-.6.6-.6z"/></svg>