<svg height="32" viewBox="0 0 32 32" width="32" xmlns="http://www.w3.org/2000/svg"><path d="m7.5 14.4c.29823376 0 .54564675.2175896.59214701.5026769l.00785299.0973231v2c0 .3313708-.26862915.6-.6.6-.29823376 0-.54564675-.2175896-.59214701-.5026769l-.00785299-.0973231v-2c0-.3313708.26862915-.6.6-.6zm4.3090092 0c.2982337 0 .5456467.2175896.592147.5026769l.007853.0973231v2c0 .3313708-.2686292.6-.6.6-.2982338 0-.5456468-.2175896-.592147-.5026769l-.007853-.0973231v-2c0-.3313708.2686291-.6.6-.6zm4.1909908 0c.2982338 0 .5456468.2175896.592147.5026769l.007853.0973231v2c0 .3313708-.2686292.6-.6.6-.2982338 0-.5456468-.2175896-.592147-.5026769l-.007853-.0973231v-2c0-.3313708.2686292-.6.6-.6zm4.3090092 0c.2982337 0 .5456467.2175896.592147.5026769l.007853.0973231v2c0 .3313708-.2686292.6-.6.6-.2982338 0-.5456468-.2175896-.592147-.5026769l-.007853-.0973231v-2c0-.3313708.2686291-.6.6-.6zm4.1909908 0c.2982338 0 .5456468.2175896.592147.5026769l.007853.0973231v2c0 .3313708-.2686292.6-.6.6-.2982338 0-.5456468-.2175896-.592147-.5026769l-.007853-.0973231v-2c0-.3313708.2686292-.6.6-.6z"/></svg>