<svg height="32" viewBox="0 0 32 32" width="32" xmlns="http://www.w3.org/2000/svg"><path d="m20.3341161 4.90750141c-.4134355 0-.7564191.30164008-.8208815.69685079l-.0108864.13491707v21.28642173l.0108864.134917c.0644624.3952108.407446.6968508.8208815.6968508.4134354 0 .756419-.30164.8208814-.6968508l.0108864-.134917v-21.28642173l-.0108864-.13491707c-.0644624-.39521071-.407446-.69685079-.8208814-.69685079zm-8.6682322 1.87646019c-.4134354 0-.756419.30164008-.8208814.69685079l-.0108864.13491707v17.85933214l.0108864.1349171c.0644624.3952107.407446.6968508.8208814.6968508.4134355 0 .7564191-.3016401.8208815-.6968508l.0108864-.1349171v-17.85933214l-.0108864-.13491707c-.0644624-.39521071-.407446-.69685079-.8208815-.69685079zm4.3341161 3.06829031c-.4134354 0-.7564191.30164009-.8208814.69685079l-.0108865.1349171v11.9567814l.0108865.1349171c.0644623.3952107.407446.6968508.8208814.6968508s.7564191-.3016401.8208814-.6968508l.0108865-.1349171v-11.9567814l-.0108865-.1349171c-.0644623-.3952107-.407446-.69685079-.8208814-.69685079zm-8.66823214 3.80611299c-.41343543 0-.75641905.30164-.82088142.6968508l-.01088644.134917v5.1865985l.01088644.1349171c.06446237.3952107.40744599.6968508.82088142.6968508.41343544 0 .75641906-.3016401.82088143-.6968508l.01088644-.1349171v-5.1865985l-.01088644-.134917c-.06446237-.3952108-.40744599-.6968508-.82088143-.6968508zm17.33646424 0c-.4134354 0-.756419.30164-.8208814.6968508l-.0108864.134917v5.1865985l.0108864.1349171c.0644624.3952107.407446.6968508.8208814.6968508.4134355 0 .7564191-.3016401.8208815-.6968508l.0108864-.1349171v-5.1865985l-.0108864-.134917c-.0644624-.3952108-.407446-.6968508-.8208815-.6968508z" fill-rule="evenodd"/></svg>