<svg height="32" viewBox="0 0 32 32" width="32" xmlns="http://www.w3.org/2000/svg"><g fill="none"><g fill="#17bfa8"><path d="m21.05 5.30359788c.2982338 0 .5456468.21758961.592147.50267689l.007853.09732311v20.87329702c0 .3313709-.2686292.6-.6.6-.2982338 0-.5456468-.2175896-.592147-.5026768l-.007853-.0973232v-20.87329702c0-.33137085.2686292-.6.6-.6z"/><path d="m12.55 7.98388634c.2982338 0 .5456468.21758961.592147.50267689l.007853.09732311v15.51272016c0 .3313708-.2686292.6-.6.6-.2982338 0-.5456468-.2175896-.592147-.5026769l-.007853-.0973231v-15.51272016c0-.33137085.2686292-.6.6-.6z"/><path d="m16.8 12.3778837c.2982338 0 .5456468.2175896.592147.5026768l.007853.0973232v6.7247255c0 .3313708-.2686292.6-.6.6-.2982338 0-.5456468-.2175896-.592147-.5026769l-.007853-.0973231v-6.7247255c0-.3313709.2686292-.6.6-.6z"/><path d="m8.3 13.6972777c.29823376 0 .54564675.2175896.59214701.5026768l.00785299.0973232v4.0859375c0 .3313708-.26862915.6-.6.6-.29823376 0-.54564675-.2175896-.59214701-.5026769l-.00785299-.0973231v-4.0859375c0-.3313709.26862915-.6.6-.6z"/><path d="m25.3 14.1972777c.2982338 0 .5456468.2175896.592147.5026768l.007853.0973232v3.0859375c0 .3313708-.2686292.6-.6.6-.2982338 0-.5456468-.2175896-.592147-.5026769l-.007853-.0973231v-3.0859375c0-.3313709.2686292-.6.6-.6z"/></g><g fill="#139684"><path d="m18.85 7.85179894c.2982338 0 .5456468.21758961.592147.50267688l.007853.09732312v15.77689496c0 .3313708-.2686292.6-.6.6-.2982338 0-.5456468-.2175896-.592147-.5026769l-.007853-.0973231v-15.77689496c0-.33137085.2686292-.6.6-.6z"/><path d="m14.6 9.50169307c.2982338 0 .5456468.21758961.592147.50267693l.007853.0973231v12.4771067c0 .3313708-.2686292.6-.6.6-.2982338 0-.5456468-.2175897-.592147-.5026769l-.007853-.0973231v-12.4771067c0-.33137088.2686292-.60000003.6-.60000003z"/><path d="m23.1 10.7049649c.2982338 0 .5456468.2175896.592147.5026769l.007853.0973231v10.070563c0 .3313709-.2686292.6-.6.6-.2982338 0-.5456468-.2175896-.592147-.5026769l-.007853-.0973231v-10.070563c0-.3313708.2686292-.6.6-.6z"/><path d="m10.35 11.4194383c.2982338 0 .5456468.2175897.592147.5026769l.007853.0973231v8.6416162c0 .3313708-.2686292.6-.6.6-.2982338 0-.54564675-.2175896-.59214701-.5026769l-.00785299-.0973231v-8.6416162c0-.3313708.2686292-.6.6-.6z"/><path d="m6.1 15.2623369c.29823376 0 .54564675.2175896.59214701.5026769l.00785299.0973231v.955819c0 .3313709-.26862915.6-.6.6-.29823376 0-.54564675-.2175896-.59214701-.5026768l-.00785299-.0973232v-.955819c0-.3313709.26862915-.6.6-.6z"/></g></g></svg>