<svg height="32" viewBox="0 0 32 32" width="32" xmlns="http://www.w3.org/2000/svg"><path d="m7.5 14.2c-.40784105 0-.74440158.3051881-.79376686.6996497l-.00623314.1003503v2l.00850091.1134088.02414435.1063009c.10163494.3439949.4095906.5802903.76735474.5802903.40784105 0 .74440158-.3051881.79376686-.6996497l.00623314-.1003503v-2l-.00850091-.1134088-.02414435-.1063009c-.10163494-.3439949-.4095906-.5802903-.76735474-.5802903zm4.3090092 0c-.4078411 0-.7444016.3051881-.7937669.6996497l-.0062331.1003503v2l.0085009.1134088.0241443.1063009c.101635.3439949.4095906.5802903.7673548.5802903.407841 0 .7444016-.3051881.7937668-.6996497l.0062332-.1003503v-2l-.0085009-.1134088-.0241444-.1063009c-.1016349-.3439949-.4095906-.5802903-.7673547-.5802903zm4.1909908 0c-.407841 0-.7444016.3051881-.7937669.6996497l-.0062331.1003503v2l.0085009.1134088.0241444.1063009c.1016349.3439949.4095906.5802903.7673547.5802903.407841 0 .7444016-.3051881.7937669-.6996497l.0062331-.1003503v-2l-.0085009-.1134088-.0241444-.1063009c-.1016349-.3439949-.4095906-.5802903-.7673547-.5802903zm4.3090092 0c-.4078411 0-.7444016.3051881-.7937669.6996497l-.0062331.1003503v2l.0085009.1134088.0241443.1063009c.101635.3439949.4095906.5802903.7673548.5802903.407841 0 .7444016-.3051881.7937668-.6996497l.0062332-.1003503v-2l-.0085009-.1134088-.0241444-.1063009c-.1016349-.3439949-.4095906-.5802903-.7673547-.5802903zm4.1909908 0c-.407841 0-.7444016.3051881-.7937669.6996497l-.0062331.1003503v2l.0085009.1134088.0241444.1063009c.1016349.3439949.4095906.5802903.7673547.5802903.407841 0 .7444016-.3051881.7937669-.6996497l.0062331-.1003503v-2l-.0085009-.1134088-.0241444-.1063009c-.1016349-.3439949-.4095906-.5802903-.7673547-.5802903z" fill-rule="evenodd"/></svg>