<svg height="32" viewBox="0 0 32 32" width="32" xmlns="http://www.w3.org/2000/svg"><path d="m21.8427246 22.4480217c1.7470554 0 3.2861689 1.1487435 3.783152 2.8236198l.1555673.5242753h-7.8774386l.1555672-.5242753c.4969831-1.6748763 2.0360966-2.8236198 3.7831521-2.8236198zm-8.5592969-9.2467489c.2861307-.1335277.6294876 0 .7534775.2956684.0183689.0416833.0364369.0834581.0541841.1256162l.0522593.1279159c.427144 1.0804101.6413822 2.5826945.3322904 9.0647916-.0190754.3052061-.2670553.5436484-.5722614.5436484h-.0286131c-.3147438-.0190754-.5627237-.2861307-.5436484-.6008745.0960834-1.9951436.1419272-3.4979382.1479513-4.6495513l.0004128-.4156689c-.0070649-1.9987938-.1495415-2.8250012-.3587427-3.4091684l-.0427096-.1138819c-.0145195-.0370687-.0293152-.0733375-.0443668-.1090819l-.0459018-.105936c-.12399-.2861308.0095377-.6294876.2956684-.7534776zm3.2641983 6.8661072.0930688.00103c.3052061.0286131.5436483.3052061.524573.6199499-.0095377.0667639-.0095377.1621408-.0190754.276593-.0286131.4196584-.0572262 1.0586837-.1526031 1.449729-.0572261.2575177-.2956684.4387338-.553186.4387338-.0286131 0-.0667639 0-.0953769-.0095377-.2956684-.0476885-.5054976-.3242815-.4768846-.6199499l.1526031-1.6404828c.0286131-.3147438.3052061-.5436483.6199499-.5150353zm-5.8260506-8.0161238.0915904.0150314c.3052061.0667639.4959599.3815077.4196584.6867138-.1621407.6581006.0095377 1.3734274.0190754 1.3734274.3147438 1.2303621.4196584 2.3176588.4196584 4.12982l-.0002307.0464213c-.002229.3133681-.0241434 2.0907279-.2095985 4.0070972-.0286131.2956684-.2861307.5150353-.5722614.5150353h-.0572262c-.3147438-.0381507-.5436484-.3147438-.5150353-.6294876.1780369-1.7888468.1978188-3.4947982.2000168-3.8652112l.0002747-.073855c0-1.7072466-.0953769-2.7182418-.3815076-3.853227-.0190754-.1049146-.22890458-1.0109952-.0095377-1.9170758.0667638-.3052061.3815076-.4959599.6867137-.4196584zm11.0649654 4.6157862c1.3642642 0 2.4702188 1.1059546 2.4702188 2.4702188s-1.1059546 2.4702188-2.4702188 2.4702188-2.4702188-1.1059546-2.4702188-2.4702188 1.1059546-2.4702188 2.4702188-2.4702188zm-10.2675859-8.84502708c3.176051-.93469368 6.5142427.82024139 7.954434 4.17750848.4062564.950227.611183 1.9862056.6844074 3.057243.004813.3363396-.1837883.6928149-.5458922.7008557s-.5511519-.1809179-.5926277-.6020564c-.0637322-.9626693-.2425267-1.8818979-.5950335-2.7077708-1.201749-2.81361877-3.9581416-4.3014985-6.5714688-3.52894556-1.99337733.59133681-3.0329856 1.80262356-3.39541785 3.93906616-.20982919 1.2494375.01907538 3.1951264.28613072 4.4827146.29566841 1.449729.21936688 2.4797996 0 3.6815486-.04768845.276593-.29566841.4673468-.56272374.4673468-.03815077 0-.06676384 0-.1049146-.0095377-.3052061-.0572261-.51503529-.3528945-.45780915-.6676383.22890458-1.2685128.22890458-2.1173673 0-3.2428148-.10491459-.4959599-.60087451-3.0902118-.29566841-4.902373.42919608-2.556101 1.80262352-4.13935768 4.19658383-4.84514678zm-5.36971977.56272374c.20982919-.23844226.57226144-.26705533.8107037-.05722614.23844227.20982919.26705534.56272374.03815076.8107037-.3052061.35289455-.52457298.7057891-.76301524 1.20174898-.68671373 1.449729-.90608061 3.2046641-.63902527 5.1980414.11445228.8297791.26705533 1.4592667.58179912 2.2985834.11445229.2956684-.03815076.6199499-.33381917.7344022-.06676383.0286131-.13352767.0381508-.2002915.0381508-.22890457 0-.44827146-.1430654-.53411067-.37197-.34335686-.9346936-.51503529-1.6214074-.63902527-2.5465633-.29566841-2.222282-.04768846-4.1870462.74393986-5.84660438.28613072-.59133681.56272375-1.03007058.93469368-1.45926666zm6.54285577 2.09829194c1.4115782-.3815076 2.8231564.4196584 3.5575586 1.3352767 1.0396082 1.325739 1.3829651 3.2237394 1.1063721 6.1422727-.0286131.2956684-.2765931.5150353-.5722615.5150353h-.0572261c-.3147438-.0286131-.5436484-.3052061-.5150353-.6199499.24798-2.5751764-.0286131-4.2633477-.8679298-5.331569-.49596-.6294876-1.4783421-1.1635983-2.3462719-.9346937-.3052061.0858392-.6199499-.0953769-.7057891-.400583s.0953769-.6199499.400583-.7057891zm7.6683032-1.55464357c.276593-.15260305.6294876-.05722615.7820906.21936688.5722615 1.03007059 1.1540606 2.15551809 1.4592667 3.71969929.0554004.2793104.1007446.55471.1364383.8302552.0426943.4340895-.221505.726101-.4804658.726101s-.5946724-.0364626-.6497405-.5142114c-.0333332-.2703445-.0770013-.5398494-.1316795-.8132402-.2670553-1.4020405-.7820906-2.403498-1.3352767-3.38588015-.152603-.27659302-.0572261-.62948757.2193669-.78209062zm-12.22731933-2.32719651c2.79454333-1.9266135 6.23764963-2.126905 9.46138903-.53411067.6199499.3052061 1.0205329.56272374 1.5546436 1.00145751.2384423.2002915.276593.55318606.0763015.80116601-.1049146.14306536-.276593.20982919-.4387337.20982919-.12399 0-.2575177-.04768845-.3624323-.13352766-.4673468-.38150763-.7916283-.59133682-1.3352767-.85839216-2.8422318-1.40204051-5.8656797-1.23989977-8.30732847.44827146-.25751764.18121612-.61994988.11445229-.79162832-.14306536-.18121612-.25751764-.11445228-.6104122.14306536-.79162832z"/></svg>