<svg height="32" viewBox="0 0 32 32" width="32" xmlns="http://www.w3.org/2000/svg"><g fill="none" fill-rule="evenodd"><path d="m13.2834277 13.2012728c-.2861307.12399-.4196584.4673468-.2956684.7534776.4196584.9442313.6676383 2.0696788.3433568 8.8032884-.0190753.3147438.2289046.5817991.5436484.6008745h.0286131c.3052061 0 .553186-.2384423.5722614-.5436484.3338192-7.0006649.0572262-8.1928762-.4387338-9.3183237-.1239899-.2956684-.4673468-.4291961-.7534775-.2956684zm-2.0506035-.4482714c.0763015-.3052061-.1144523-.6199499-.4196584-.6867138-.3052061-.0763015-.6199499.1144523-.6867137.4196584-.21936688.9060806-.0095377 1.8121612.0095377 1.9170758.2861307 1.1349852.3815076 2.1459804.3815076 3.853227 0 .0190754 0 1.9266135-.2002915 3.9390662-.0286131.3147438.2002915.5913369.5150353.6294876h.0572262c.2861307 0 .5436483-.2193669.5722614-.5150353.2002915-2.0696788.2098292-3.977217.2098292-4.0535185 0-1.8121612-.1049146-2.8994579-.4196584-4.12982-.0095377 0-.1812161-.7153268-.0190754-1.3734274zm5.4078706 7.3154086c-.3147438-.028613-.5913368.2002915-.6199499.5150353l-.1526031 1.6404828c-.028613.2956684.1812162.5722614.4768846.6199499.028613.0095377.0667638.0095377.0953769.0095377.2575176 0 .4959599-.1812161.553186-.4387338.0953769-.3910453.12399-1.0300706.1526031-1.449729.0095377-.1144522.0095377-.2098291.0190754-.276593.0190753-.3147438-.2193669-.5913368-.524573-.6199499zm-3.9486039-9.585379c-.3052061.0858392-.4864222.400583-.400583.7057891s.400583.4864222.7057891.400583c.8679298-.2289046 1.8503119.3052061 2.3462719.9346937.8393167 1.0682213 1.1159098 2.7563926.8679298 5.331569-.0286131.3147438.2002915.5913368.5150353.6199499h.0572261c.2956684 0 .5436484-.2193669.5722615-.5150353.276593-2.9185333-.0667639-4.8165337-1.1063721-6.1422727-.7344022-.9156183-2.1459804-1.7167843-3.5575586-1.3352767zm-5.73215207-2.15551808c-.23844226-.20982919-.60087451-.18121612-.8107037.05722614-.37196993.42919608-.64856296.86792985-.93469368 1.45926666-.79162832 1.65955818-1.03960827 3.62432238-.74393986 5.84660438.12398998.9251559.29566841 1.6118697.63902527 2.5465633.08583921.2289046.3052061.37197.53411067.37197.06676383 0 .13352767-.0095377.2002915-.0381508.29566841-.1144523.44827146-.4387338.33381917-.7344022-.31474379-.8393167-.46734684-1.4688043-.58179912-2.2985834-.26705534-1.9933773-.04768846-3.7483124.63902527-5.1980414.23844226-.49595988.45780914-.84885443.76301524-1.20174898.22890458-.24797996.20029151-.60087451-.03815076-.8107037zm1.8216989-.79162832c2.44164877-1.68817123 5.46509667-1.85031197 8.30732847-.44827146.5436484.26705534.8679299.47688453 1.3352767.85839216.1049146.08583921.2384423.13352766.3624323.13352766.1621407 0 .3338191-.06676383.4387337-.20982919.2002915-.24797995.1621408-.60087451-.0763015-.80116601-.5341107-.43873377-.9346937-.69625141-1.5546436-1.00145751-3.2237394-1.59279433-6.6668457-1.39250283-9.46138903.53411067-.25751764.18121612-.32428148.53411068-.14306536.79162832.17167844.25751765.53411068.32428148.79162832.14306536zm2.73731717.28613072c-2.39396031.7057891-3.76738775 2.28904578-4.19658383 4.84514678-.3052061 1.8121612.19075382 4.4064131.29566841 4.902373.22890458 1.1254475.22890458 1.974302 0 3.2428148-.05722614.3147438.15260305.6104122.45780915.6676383.03815076.0095377.06676383.0095377.1049146.0095377.26705533 0 .51503529-.1907538.56272374-.4673468.21936688-1.201749.29566841-2.2318196 0-3.6815486-.26705534-1.2875882-.49595991-3.2332771-.28613072-4.4827146.36243225-2.1364426 1.40204052-3.34772935 3.39541785-3.93906616 2.6133272-.77255294 5.3697198.71532679 6.5714688 3.52894556.3525068.8258729.5313013 1.7451015.5950335 2.7077708.0414758.4211385.2305238.6100972.5926277.6020564s.5507052-.3645161.5458922-.7008557c-.0732244-1.0710374-.278151-2.107016-.6844074-3.057243-1.4401913-3.35726709-4.778383-5.11220216-7.954434-4.17750848zm9.6235298 1.32573899c-.152603-.27659303-.5054976-.37196993-.7820906-.21936688s-.3719699.5054976-.2193669.78209062c.5531861.98238215 1.0682214 1.98383965 1.3352767 3.38588015.0546782.2733908.0983463.5428957.1316795.8132402.0550681.4777488.3907797.5142114.6497405.5142114s.5231601-.2920115.4804658-.726101c-.0356937-.2755452-.0810379-.5509448-.1364383-.8302552-.3052061-1.5641812-.8870052-2.6896287-1.4592667-3.71969929z" fill="#469055" fill-rule="nonzero"/><g fill="#007880"><circle cx="21.786541" cy="19.137261" r="2.470219"/><path d="m21.8427246 22.4480217c1.7470554 0 3.2861689 1.1487435 3.783152 2.8236198l.1555673.5242753h-7.8774386l.1555672-.5242753c.4969831-1.6748763 2.0360966-2.8236198 3.7831521-2.8236198z"/></g></g></svg>