<svg height="32" viewBox="0 0 32 32" width="32" xmlns="http://www.w3.org/2000/svg"><path d="m23.7389078 17.487285-1.7550277-1.4726431-.7796275.9291238-.0021898-.0018375-5.7723536 6.8836704-.331508 2.1771776 2.0865357-.7045345zm-1.5040869-3.6528103c.8371874-.9867204 2.3215175-1.1165825 3.3073664-.289357.9867204.8371874 1.1165825 2.3215175.2884855 3.2974044l-7.8450062 9.3493143c-.0727231.0866681-.1580229.1443218-.2649896.1837948l-3.1878321 1.081955c-.0389762.0134482-.0879144.0277679-.1377241.0321257-.1494292.0130734-.3149213-.0427153-.4340898-.1427096-.1625026-.1363558-.2414485-.3502893-.2090699-.5538861l.5119564-3.3272812c.0211703-.1022342.0622645-.2062114.1349876-.2928795l1.2719119-1.5158055h-9.66406049c-.37709535 0-.6479704-.3629248-.54069848-.7244405l.25974944-.8753783c.90083892-3.0359058 3.69065904-5.1181354 6.85739783-5.1181354 2.4646193 0 4.7009298 1.2612577 5.9961068 3.2517446zm-4.4202955 5.2679031c-1.0550099-1.8467042-3.0355977-3.035182-5.2313201-3.035182-2.66735086 0-5.01722232 1.7538665-5.77600086 4.3110164l-.04478751.1509378h9.85490437zm7.0961711-3.0225768c.409939-.4775458.3463154-1.2047679-.1411923-1.6138354-.4875077-.4090676-1.2047679-.3463154-1.6138355.1411923l-.3999771.4766742 1.7550277 1.4726431zm-12.4272887-2.1468126c-2.479203 0-4.48899415-2.0097912-4.48899415-4.48899421 0-2.47920303 2.00979115-4.48899419 4.48899415-4.48899419 2.4792031 0 4.4889942 2.00979116 4.4889942 4.48899419 0 2.47920301-2.0097911 4.48899421-4.4889942 4.48899421zm0-1.08c1.8827355 0 3.4089942-1.5262587 3.4089942-3.40899421 0-1.8827355-1.5262587-3.40899419-3.4089942-3.40899419s-3.40899415 1.52625869-3.40899415 3.40899419c0 1.88273551 1.52625865 3.40899421 3.40899415 3.40899421z"/></svg>