<svg height="32" viewBox="0 0 32 32" width="32" xmlns="http://www.w3.org/2000/svg"><g fill="none" fill-rule="evenodd"><ellipse cx="13.420137" cy="9.417324" fill="#007880" rx="4.198865" ry="4.277958"/><path d="m13.5262491 15.3141804c3.2961346 0 6.1964622 2.1761324 7.1181417 5.3407825l.3207629 1.1013617h-14.87780918l.32076292-1.1013617c.92167946-3.1646501 3.82200706-5.3407825 7.11814166-5.3407825z" fill="#007880"/><path d="m17.2778637 26.5809144-3.898723.664052.664052-3.898723 9.1397433-9.1397433 3.234671 3.234671z" fill="#f8c31c" transform="matrix(.9961947 -.08715574 .08715574 .9961947 -1.730647 1.813125)"/><path d="m13.2828082 26.2112137 2.5287907.0008336-1.2634109 1.7843237z" fill="#252d4f" transform="matrix(.76604444 .64278761 -.64278761 .76604444 20.825381 -3.00968)"/><path d="m17.5474089 13.4654595h2.2872577l.056449 13.8604461-1.3203412-.0023438-1.0233655-1.4397453z" fill="#af8c1d" transform="matrix(.76604444 .64278761 -.64278761 .76604444 17.489568 -7.260826)"/><path d="m22.3132174 14.2319542h4.5745156v1.7800658h-4.5745156z" fill="#fff" transform="matrix(.76604444 .64278761 -.64278761 .76604444 15.475644 -12.275008)"/><path d="m27.2400813 15.5031885-1.0548455 1.0678684-3.2296506-3.2687189 1.0678684-1.0808912.0260455-.0260455c.4297519-.4297519 1.0027544-.6511393 1.6018025-.6511393s1.1720506.247433 1.5887797.6771848c.8855494.911595.8855494 2.3831696 0 3.2817417z" fill="#fa8bb9" fill-rule="nonzero" transform="matrix(.9961947 -.08715574 .08715574 .9961947 -1.128437 2.269857)"/></g></svg>