<svg height="32" viewBox="0 0 32 32" width="32" xmlns="http://www.w3.org/2000/svg"><path d="m25.1059334 17.5891848-2.0639125-1.7318283-.9168419 1.0926495-.0025752-.0021608-6.7882879 8.0951963-.3898533 2.5603609 2.4537659-.8285326zm-13.1191061-1.670025c-3.13680457 0-5.38891933 2.0425888-6.51966172 5.7235301h10.85930812l1.8123861-2.154156c-1.2406917-2.1717241-3.569863-3.5693741-6.1520325-3.5693741zm14.4971297.0148238c.4820883-.5615938.4072669-1.4168071-.1660422-1.8978705s-1.416807-.4072669-1.8978704.1660422l-.4703732.5605688 2.0639126 1.7318283zm-14.6144915-1.7028137c2.214097 0 4.0089772-1.7948802 4.0089772-4.0089772 0-2.21409692-1.7948802-4.00897714-4.0089772-4.00897714-2.21409692 0-4.00897713 1.79488022-4.00897713 4.00897714 0 2.214097 1.79488021 4.0089772 4.00897713 4.0089772z"/></svg>