<svg height="32" viewBox="0 0 32 32" width="32" xmlns="http://www.w3.org/2000/svg"><g fill="none" fill-rule="evenodd"><path d="m24.5897162 7.85229859c.2982338 0 .5456468.21758961.592147.50267688l.007853.09732312v3.56643181c0 .3313708-.2686292.6-.6.6-.2982338 0-.5456468-.2175897-.592147-.5026769l-.007853-.0973231v-3.56643181c0-.33137085.2686291-.6.6-.6zm-7.546141-1.46885377c.2982337 0 .5456467.21758961.592147.50267688l.007853.09732312v4.99516578c0 .3313709-.2686292.6-.6.6-.2982338 0-.5456468-.2175896-.592147-.5026769l-.007853-.0973231v-4.99516578c0-.33137085.2686291-.6.6-.6z" fill="#7c969d" fill-rule="nonzero"/><g transform="translate(5.361264 8.917818)"><path d="m.51025265 2.39494956.06914613.00482126 7.01791991.98169658c.24687155.03453344.43059629.24563095.43073221.49490611l.00118333 7.36107799c0 .2361355-.1651542.4400968-.39613906.4891473l-7.02923424 1.4926841c-.27011914.0573609-.53559409-.1151138-.5929549-.385233-.00729042-.0343315-.01090603-.0693352-.01090603-.1044323l.01013108-9.83478963c.00006715-.27614237.2239792-.49987841.50012157-.49987841z" fill="#457e93"/><path d="m4.23071631 1.16975987.06914613.00482126 9.74294336 1.36288449c.2468716.03453344.4305963.24563095.4307322.49490611l.0016808 10.14838087c0 .2361355-.1651542.4400968-.3961391.4891473l-9.7584859 2.0722509c-.27011914.0573608-.53559409-.1151139-.5929549-.385233-.00729042-.0343315-.01090603-.0693352-.01090603-.1044323l.01341331-11.73822792.00044856-1.84461929c.00006715-.27614237.22397921-.49987842.50012157-.49987842z" fill="#76a6b8"/><g transform="translate(8.277472)"><path d="m12.9988153 3.98842635.0011415 10.69874535c.0000252.2361355-.1651542.4400968-.3961391.4891473l-11.99925087 2.5480858c-.27011914.0573608-.53559409-.1151139-.59295489-.3852331-.00729043-.0343315-.01094582-.0693352-.01090571-.1044322l.01635352-14.31159949c.9226479.06887083 5.24989975.42396627 12.98175555 1.06528634z" fill="#d0e7ef"/><path d="m12.9978676 2.2503648.0009477 1.73806155-12.98175555-1.06528634.00057108-2.34847081c.00006715-.27614237.2239792-.49994555.50012157-.4998784.02313248.00000563.04623669.00161658.06914612.00482125l11.98023688 1.67584664c.2468715.03453345.4305963.24563096.4307322.49490611z" fill="#db5419"/><g transform="translate(2.09669 5.783511)"><path d="m3.59439361.16157386c.20068895.18291838.29878249.4523202.33053257.71674625.03506726.31584224-.01942915.65395692-.20684941.91672439-.1187074.16348922-.30020413.30470601-.51131849.30020413-.16301534.00260635-.31442058-.08174461-.42436117-.19713484-.19121131-.19452849-.28006415-.46772135-.30304742-.73451682-.0260635-.31205118.04525571-.64021434.2345715-.89374112.08814202-.12012904.21300988-.21798563.35920242-.25471147.18434003-.04667736.38431816.01800751.52127.14642948zm2.17132651.10283235c.19026355.22035505.26158276.52055919.26134582.80607298.00308023.27959028-.07605803.56842125-.25921335.78427442-.108282.12581562-.27177123.22106587-.44236868.20045201-.17296687-.01777057-.31773776-.13481938-.41393577-.27342981-.14808807-.21348376-.20756024-.47814676-.20708636-.73522765-.00142165-.25068348.06444793-.50492108.20590165-.71366602.09596107-.13908432.24167973-.25565925.41512048-.27034958.16917581-.01374257.33290198.07534721.44023621.20187365zm1.81188714-.05899828c.19760872.14097984.29167426.38194875.33337586.61296613.04644042.29451755.02108774.61083367-.12368315.87620749-.08198156.1499836-.21395765.28835709-.38787227.32271352-.16491088.03103926-.32840011-.05899829-.42933693-.18505085-.1864725-.22651551-.25115737-.52956294-.24428608-.8172092.01255787-.25708089.08150767-.52340247.25305289-.72172201.06444793-.07274086.14690336-.13244997.24120585-.15946124.12226151-.0364889.25708089-.00473882.35754383.07155616zm1.87088543.14311231c.15614406.19547625.21656399.45042467.22438304.69636933.00544964.25968724-.04762512.53145847-.20353224.74446834-.08008603.10780812-.20021507.20068896-.34001021.2009259-.15258994.00450187-.28385521-.10046295-.36749535-.21940729-.16088288-.23480844-.20779718-.52979987-.18931579-.80915321.01895528-.21703787.07984909-.43857762.21727482-.61130754.06444793-.08055992.15093136-.1499836.25376372-.17130828.15543323-.03577808.31015565.05023147.40493201.16941275zm-.06752816 2.69828309c.13908432.11230999.21300988.28432909.25518536.45374184.06989757.30707542.04667736.6399774-.08932672.92596508-.07653191.15140524-.1968979.2971239-.36559983.34545985-.14903583.03956913-.30375824-.04241243-.39545438-.15780265-.15022053-.19050049-.21135129-.43715598-.21656399-.67622936-.00379105-.24262749.04501878-.49070462.16941275-.70134509.0665804-.11017753.160409-.2113513.28267051-.25873948.12131375-.04501877.26158276-.01232093.3596763.06894981zm-3.57851857.28503991c.16822805.2177487.23078045.50065615.22438304.77171655-.00071082.26821711-.0793752.53951445-.24049502.75536762-.09145919.12012904-.21964423.22035505-.37128641.24736631-.14026902.02653738-.28883097-.02132468-.39308497-.11752269-.17509933-.1511683-.26371523-.37792075-.30067802-.60135603-.04952065-.32674152.00355412-.67575548.18149674-.95747822.09572413-.14974666.24144279-.28219663.42246565-.31015565.18339226-.02866985.36749535.06800204.47719899.21206211zm-2.21089564.00734517c.17486239.14571866.27177123.36417818.3156053.58334852.0625524.33337586.01848139.69281523-.15377466.9880436-.09809353.16609558-.24547078.31370977-.43289104.37270805-.18718332.05828747-.39829767-.0052127-.5357234-.14145372-.19618707-.18931579-.28859403-.46298254-.30826012-.73001495-.02061386-.29688696.04430795-.60491014.20590165-.85677833.10638647-.16254146.26395217-.30849707.46156089-.34119491.15851347-.02701126.32508293.0220355.44758138.12534174zm-2.25307112.19192214c.18765721.20637553.27106041.48786133.28646156.76176503.01516422.3556483-.09453942.72788247-.34356432.98899136-.15472241.16206758-.38550286.27011263-.61201837.22438304-.22841103-.03933219-.40848613-.21443153-.51510954-.41227719-.19050049-.35849159-.19452848-.79991251-.04644042-1.17427915.11610105-.29380673.35801772-.58192687.6921044-.61178143.2021106-.01800751.40469508.07368862.53856669.22319834zm6.30286517 2.51109977c.14974665.12178763.22817409.30920789.26466299.49449568.06752816.30826012.02274633.63784493-.11373163.92098932-.08269238.16017205-.20376919.31560529-.37839464.37910546-.13434549.05094229-.2919112.0156381-.39900849-.07771662-.15140524-.12984362-.23054351-.32437211-.26442606-.51700507-.06041993-.30683848-.00852987-.63215835.12936974-.91127474.08269238-.160409.21040353-.31228812.38787227-.36749535.12771115-.03980608.27177122-.00663435.37365582.07890132zm-1.93249007.22604163c.1720191.13434549.25968724.34806619.29759778.5577589.04880983.29783473.0156381.6127292-.11539022.88615901-.07771662.156381-.1876572.30328436-.33977327.39379579-.1367149.08269238-.31844858.0926439-.45848066.01208399-.1876572-.1030693-.2930959-.30731236-.34664455-.50705355-.09359166-.37792075-.03554114-.79754311.17889039-1.12523239.09833048-.1471403.24191667-.28219662.42293952-.31062953.12652645-.02061386.260635.01232093.36086101.09311778zm-1.98058907.39379579c.16135676.22367222.21466846.50847519.20424306.77977254-.01540116.30731236-.1210768.61794189-.33029563.84777458-.12463092.13624102-.30115189.23907337-.49070462.2293588-.20258448-.00639741-.37649911-.1459556-.47672511-.31418365-.14903584-.25068348-.18931579-.55586338-.15045748-.84185106.04146466-.29025261.15827653-.58240075.38100098-.7807203.10235848-.0950133.23386068-.16135676.37436664-.16988663.19310684-.01184704.37839463.09501331.48857216.24973572zm-2.39168155.21182517c.10378012.11041447.18149673.24523385.22509386.39047863.12463092.41369883.05899829.88331571-.18457697 1.24180731-.13600408.19571319-.33858856.36986476-.58477016.3921372-.21609012.02440492-.4302847-.08695731-.56036526-.25613312-.16301534-.21182517-.23101739-.48383334-.23196515-.74778551.00473882-.29570226.09169613-.5930631.26110888-.83663836.11775964-.16917581.28764627-.30991871.49023075-.36038712.20827106-.052127.4378668.02298326.58524405.17652097z" fill="#7c969d"/><path d="m7.69276054 3.19536528c.12486786.14145372.19192214.32531987.22319834.50942296.04762512.32934786.00710823.68641781-.18268144.96742973-.0926439.13529326-.23267597.25755477-.40351037.26798017-.15732877.0092407-.30209966-.08506178-.39332191-.20708635-.1459556-.19334379-.20282142-.43952539-.20874494-.67812489-.00544965-.27414063.06065687-.55633726.22106586-.78214194.07250392-.10212154.17320381-.18884191.2947545-.22580469.16301534-.05236394.33977326.02558962.44923996.14832501z" fill="#db5419"/></g></g></g></g></svg>