<svg height="32" viewBox="0 0 32 32" width="32" xmlns="http://www.w3.org/2000/svg"><path d="m17.5 5.35288714c.2982338 0 .5456468.21758962.592147.50267689l.007853.09732311-.0001618 3.027 6.631 1.46299996.000682-2.47477138c0-.33137085.2686292-.6.6-.6.2982338 0 .5456468.21758962.5921471.50267689l.0078529.09732311-.000682 2.73977138 1.0579646.2331408v12.6090552l-12.3672566 2.4446902v-17.78169703l2.278292.50281087.0001618-2.763c0-.33137085.2686292-.6.6-.6zm-8.01119716 3.92389577 3.80530976.75221239v13.2113532l-3.80530976.7411505zm7.84784916 11.80434239c-.1926105.0479837-.354133.1817973-.4660948.3426439-.161072.2315832-.2437481.5143038-.2482536.7954476.0009011.2509568.0655552.509573.2205447.7109692.1236762.1608467.3273252.2667261.5327764.2435227.2340611-.0211759.4266716-.1867533.5559797-.3728308.2315831-.3408417.2939844-.7873376.1754896-1.1806685-.0414507-.1380938-.1153411-.2662755-.2140117-.3712539-.1401213-.1459785-.3584132-.2173908-.5564303-.1678302zm2.3658425-.2710063c-.1335883.0081099-.2586162.071187-.3559352.1615225-.2117589.1885555-.3228196.4663201-.3622428.7422825-.0369452.2719074.0013516.5620622.1430499.8004036.0952915.1599455.2606436.2926327.4532541.2987152.1802204.0092363.3480505-.0885333.4665454-.2180666.1989182-.2185172.2993911-.5138533.314034-.8060355.0099121-.2579404-.0407749-.5287214-.1941875-.7413814-.104753-.1471049-.2809184-.2487041-.4645179-.2374403zm2.0954592-.2307384-.0909585.0052377c-.1721104.027033-.3086273.15544-.4021166.2953361-.2038742.3115559-.2590667.7105187-.1700829 1.069833.0509122.1899071.1511598.3840946.3295779.4820894.1331378.0765936.305924.067132.435908-.0114891.1446268-.0860552.2491546-.225726.3230449-.3744077.1245773-.2599679.1561159-.5593589.1097091-.8425301-.036044-.1993688-.1193959-.4025672-.2829459-.5302984-.0476457-.0384094-.1033451-.0654425-.1621701-.0804233zm1.8084972-.2106969-.0742742.0145384c-.1687313.0524891-.2901547.1968907-.3687758.3494021-.1311103.2653745-.1804457.5746776-.1230004.8664093.0322144.1831489.1074564.3681001.2514074.491551.1018244.0887585.2516326.1223246.3793638.0738903.166028-.0603738.2811437-.2081545.3597648-.3604406.1297587-.2692042.1723357-.5825623.1081322-.8756456-.0346924-.1761654-.1092586-.3543583-.2516326-.4701498-.0581211-.0487947-.1306778-.0796664-.2056513-.0883819zm-18.57561266-9.8477071 3.13053097.4200513v10.0205596l-3.13053097.619469zm12.44780816 7.3374868-.0958129.000097c-.3176384.0283847-.5476446.3023196-.6580295.5816611-.1407972.3559352-.1369675.7756233.0441539 1.116465.101374.188105.2725833.3545835.4897488.3919793.2153633.0434781.4347816-.0592475.5818864-.2133359.2367645-.2482535.341067-.6021612.3266494-.9402996-.0146429-.2604184-.0939399-.5280456-.272358-.7242605-.0848537-.0947658-.198743-.1651018-.3221772-.1963901zm2.223785-.0962344-.0909482.006897c-.1878797.031088-.3376878.1698577-.4388365.3243966-.1536378.2394678-.2153633.5323259-.1957643.814596.0186978.2538854.1065553.5140785.2930833.6940736.1306597.1295333.3313802.1899071.5093477.1344894.1781929-.0560936.3183142-.1964402.4115782-.3543583.1637753-.2806931.2056765-.622436.1462038-.9393985-.041676-.2083797-.1338136-.4160837-.3000669-.5546281-.0698804-.058932-.1548453-.0992924-.2441895-.1166043zm2.0698447-.0865787-.0869073.0040414c-.1721104.0265825-.3106548.1525115-.4016661.2948855-.1691818.2678525-.2196435.5996832-.172561.910338.035143.2124347.119396.4280233.2858746.571749.0991211.0914619.2403688.1369675.3737319.1117366.1441763-.0256814.2660503-.1209729.3530066-.2351875.1531873-.2052259.2279787-.4631663.2286545-.718178.0060825-.2577151-.0533902-.526694-.2133358-.7337221-.069535-.0913116-.1705085-.1625988-.2817611-.1919013zm1.8151494-.0800625-.0782269.0149443c-.1155663.035143-.2113083.1175938-.2802426.2146875-.1525115.2146875-.2153633.4829905-.210182.7436342.0056319.2268523.059698.4609135.1984677.6447383.086731.1160168.2243743.2056764.3739572.1968907.1624236-.0099121.2955613-.1261543.383644-.2547865.1804457-.2671767.2189678-.6066667.1736874-.9197996-.0297364-.175039-.0934893-.3498527-.2122095-.4843422-.0693848-.0777951-.1672044-.136667-.2706308-.1525198zm1.6120146-.0508361c-.1162421.0450551-.2054511.1412477-.2687535.2460008-.1182696.2002698-.1646764.4361332-.161072.6668152.0049561.2273029.0630772.4618146.2059018.6429361.0871816.1097091.2342864.1876544.3759847.1500334.1603961-.0459562.274836-.1845005.3475999-.3284515.1293081-.2719075.1513851-.5884195.0849289-.8803764-.0400991-.1610719-.110385-.3246219-.2426217-.4314024-.093264-.0772695-.226627-.1083575-.3419681-.0655552zm-5.5667893-2.8304199-.0885249.013576c-.1389949.0349177-.2577151.1279564-.3415176.2421711-.179995.2410447-.2478029.5530512-.2230226.8497389.0218517.2536601.10633.5134027.2881272.6983538.1045278.1097091.2484788.1899072.4034683.1874292.2007204.0042802.3732814-.129984.4861444-.285424.1781929-.2498305.2300062-.5712985.1966654-.8715906-.0301869-.2514074-.1234509-.5075456-.3142592-.6814582-.0868061-.0813995-.2002448-.1358661-.3181556-.1499834zm2.0529433.0586311c-.1649016.0139671-.303446.1248026-.3946826.2570392-.1344894.1984677-.197116.4401882-.1957643.6785296-.0004506.2444239.0560936.4960565.1968907.6990297.0914618.1317861.2291051.2430722.3935562.2599678.1621983.019599.3176383-.0709618.4205892-.190583.1741379-.2052259.2493799-.4798367.2464513-.7456617.0002253-.2714568-.0675826-.5568808-.2484788-.766387-.1020498-.120297-.2577151-.2050006-.4185617-.1919346zm1.8721235.0545977-.0708212.0132102c-.0896596.0256814-.1680555.0824508-.2293304.1516104-.1630994.1885555-.2286546.4417651-.2405942.6861889-.006533.2734844.0549672.5616116.232259.7769749.0959673.1198466.2514074.2054512.4081991.1759401.1653521-.0326649.2908305-.1642257.3687758-.3068251.1376433-.2523085.1617478-.5530512.1175938-.8330685-.0396485-.2196435-.1290828-.4487487-.3169625-.5827875-.0573101-.0435232-.1263795-.0717998-.1975738-.0799638zm1.7364717.0484887-.0735733.0077491c-.0977695.0202748-.179995.0862805-.2412699.1628741-.1306598.1642258-.1885556.3748583-.2065776.5812106-.0175715.2655997.027033.5460677.1799951.7693156.0795222.1130883.2043248.2128853.3494021.208605.1329125-.0002252.2471272-.0885332.3232703-.1910335.1482312-.2025226.1986929-.4609135.1935116-.7078154-.0074341-.2338359-.0648794-.4762322-.2133359-.6620845-.0600734-.0755423-.1454778-.1370676-.2395261-.1596118z"/></svg>