<svg height="32" viewBox="0 0 32 32" width="32" xmlns="http://www.w3.org/2000/svg"><path d="m17.5 5.35288714c.2982338 0 .5456468.21758962.592147.50267689l.007853.09732311-.0001618 1.798 6.631 1.463.000682-1.24577142c0-.33137085.2686292-.6.6-.6.2982338 0 .5456468.21758962.5921471.50267689l.0078529.09732311-.000682 1.51077142 1.3164454.29030987c.5076215.11197042.8803369.53587179.934674 1.04335179l.0068452.1284791v12.6090552c0 .5320961-.349334.9952512-.8493267 1.1476723l-.1179669.029548-12.3672566 2.4446903c-.700595.1384897-1.3557826-.3601871-1.4264189-1.0530288l-.0062875-.1241916-.0005462-1.5567733-3.70278699.7213661c-.69971053.1362808-1.35274419-.3622308-1.42314389-1.0538938l-.00626628-.1239733-.00080284-1.822499-3.02422267.5992308c-.70065724.138646-1.35599709-.3600423-1.42665011-1.0529673l-.00628898-.124207v-11.0600799c0-.68343325.56681994-1.21947959 1.23352153-1.19966941l.12606303.01032807 3.0975772.41536474.00080284-.47021709c0-.71415177.61626563-1.26019752 1.30965303-1.1951357l.12305332.01791535 3.69949081.73043744.0005462-.61692373c0-.72431961.6329075-1.27307539 1.3341396-1.19264769l.1243412.02081677 2.0198112.44564179.0001618-1.534c0-.33137085.2686292-.6.6-.6zm-2.8784538 2.86018913v17.78169703l12.3672566-2.4446902v-12.6090552l-1.0579646-.2331408.000682.8266604c0 .3313708-.2686291.6-.6.6-.2982337 0-.5456467-.2175896-.592147-.5026769l-.007853-.0973231-.000682-1.0916604-6.631-1.46299996.0001618 1.96816576c0 .3313709-.2686292.6-.6.6-.2982338 0-.5456468-.2175896-.592147-.5026769l-.007853-.0973231-.0001618-2.23216576zm-5.13274336 1.06370664v14.70471609l3.80530976-.7411505v-13.2113532zm8.40427946 11.97217259c.0986706.1049784.172561.2331601.2140117.3712539.1184948.3933309.0560935.8398268-.1754896 1.1806685-.1293081.1860775-.3219186.3516549-.5559797.3728308-.2054512.0232034-.4091002-.082676-.5327764-.2435227-.1549895-.2013962-.2196436-.4600124-.2205447-.7109692.0045055-.2811438.0871816-.5638644.2482536-.7954476.1119618-.1608466.2734843-.2946602.4660948-.3426439.1980171-.0495606.416309.0218517.5564303.1678302zm1.8094122-.4388365c.1835995-.0112638.3597649.0903354.4645179.2374403.1534126.21266.2040996.483441.1941875.7413814-.0146429.2921822-.1151158.5875183-.314034.8060355-.1184949.1295333-.286325.2273029-.4665454.2180666-.1926105-.0060825-.3579626-.1387697-.4532541-.2987152-.1416983-.2383414-.1799951-.5284962-.1430499-.8004036.0394232-.2759624.1504839-.553727.3622428-.7422825.097319-.0903355.2223469-.1534126.3559352-.1615225zm2.3475952-.1369675c.16355.1277312.2469019.3309296.2829459.5302984.0464068.2831712.0148682.5825622-.1097091.8425301-.0738903.1486817-.1784181.2883525-.3230449.3744077-.129984.0786211-.3027702.0880827-.435908.0114891-.1784181-.0979948-.2786657-.2921823-.3295779-.4820894-.0889838-.3593143-.0337913-.7582771.1700829-1.069833.0934893-.1398961.2300062-.2683031.4021166-.2953361.1202971-.019599.247803.0117143.3430945.0885332zm1.8373464-.2149127c.142374.1157915.2169402.2939844.2516326.4701498.0642035.2930833.0216265.6064414-.1081322.8756456-.0786211.1522861-.1937368.3000668-.3597648.3604406-.1277312.0484343-.2775394.0148682-.3793638-.0738903-.143951-.1234509-.219193-.3084021-.2514074-.491551-.0574453-.2917317-.0081099-.6010348.1230004-.8664093.0786211-.1525114.2000445-.296913.3687758-.3494021.1214235-.0378463.2583909-.0063078.3552594.0750167zm-18.85659786-9.9372622v11.0600799l3.13053097-.619469v-10.0205596zm12.86404626 7.5497932c.1784181.1962149.2577151.4638421.272358.7242605.0144176.3381384-.0898849.6920461-.3266494.9402996-.1471048.1540884-.3665231.256814-.5818864.2133359-.2171655-.0373958-.3883748-.2038743-.4897488-.3919793-.1811214-.3408417-.1849511-.7605298-.0441539-1.116465.1103849-.2793415.3403911-.5532764.6580295-.5816611.1921599-.017121.3847704.0700606.512051.2122094zm2.142144-.1824731c.1662533.1385444.2583909.3462484.3000669.5546281.0594727.3169625.0175715.6587054-.1462038.9393985-.093264.1579181-.2333853.2982647-.4115782.3543583-.1779675.0554177-.378688-.0049561-.5093477-.1344894-.186528-.1799951-.2743855-.4401882-.2930833-.6940736-.019599-.2822701.0421265-.5751282.1957643-.814596.1011487-.1545389.2509568-.2933086.4388365-.3243966.1507093-.0256814.3090779.0209506.4255453.1191707zm2.102045-.0069835c.1599456.2070281.2194183.476007.2133358.7337221-.0006758.2550117-.0754672.5129521-.2286545.718178-.0869563.1142146-.2088303.2095061-.3530066.2351875-.1333631.0252309-.2746108-.0202747-.3737319-.1117366-.1664786-.1437257-.2507316-.3593143-.2858746-.571749-.0470825-.3106548.0033792-.6424855.172561-.910338.0910113-.142374.2295557-.268303.4016661-.2948855.1743632-.0272583.3494022.064654.4537047.2016215zm1.7972473-.1297587c.1187202.1344895.1824731.3093032.2122095.4843422.0452804.3131329.0067583.6526229-.1736874.9197996-.0880827.1286322-.2212204.2448744-.383644.2547865-.1495829.0087857-.2872262-.0808739-.3739572-.1968907-.1387697-.1838248-.1928358-.417886-.1984677-.6447383-.0051813-.2606437.0576705-.5289467.210182-.7436342.0689343-.0970937.1646763-.1795445.2802426-.2146875.1549895-.0497858.323045.0243298.4271222.1410224zm1.6050874-.1412476c.1322367.1067805.2025226.2703305.2426217.4314024.0664562.2919569.0443792.6084689-.0849289.8803764-.0727639.143951-.1872038.2824953-.3475999.3284515-.1416983.037621-.2888031-.0403243-.3759847-.1500334-.1428246-.1811215-.2009457-.4156332-.2059018-.6429361-.0036044-.230682.0428024-.4665454.161072-.6668152.0633024-.1047531.1525114-.2009457.2687535-.2460008.1153411-.0428023.2487041-.0117143.3419681.0655552zm-5.5016764-2.7431789c.1908083.1739126.2840723.4300508.3142592.6814582.0333408.3002921-.0184725.6217601-.1966654.8715906-.112863.15544-.285424.2897042-.4861444.285424-.1549895.002478-.2989405-.0777201-.4034683-.1874292-.1817972-.1849511-.2662755-.4446937-.2881272-.6983538-.0247803-.2966877.0430276-.6086942.2230226-.8497389.0838025-.1142147.2025227-.2072534.3415176-.2421711.1752643-.0443793.3653967.0171209.4956059.1392202zm1.6458623-.0941651c.1608466-.013066.3165119.0716376.4185617.1919346.1808962.2095062.2487041.4949302.2484788.766387.0029286.265825-.0723134.5404358-.2464513.7456617-.1029509.1196212-.2583909.210182-.4205892.190583-.1644511-.0168956-.3020944-.1281817-.3935562-.2599678-.1407971-.2029732-.1973413-.4546058-.1968907-.6990297-.0013517-.2383414.0612749-.4800619.1957643-.6785296.0912366-.1322366.229781-.2430721.3946826-.2570392zm2.1412429.1358411c.1878797.1340388.277314.363144.3169625.5827875.044154.2800173.0200495.58076-.1175938.8330685-.0779453.1425994-.2034237.2741602-.3687758.3068251-.1567917.0295111-.3122318-.0560935-.4081991-.1759401-.1772918-.2153633-.238792-.5034905-.232259-.7769749.0119396-.2444238.0774948-.4976334.2405942-.6861889.0612749-.0691596.1396708-.125929.2293304-.1516104.1162421-.0346924.2444238-.0045055.3399406.0680332zm1.7787747.1360663c.1484565.1858523.2059018.4282486.2133359.6620845.0051813.2469019-.0452804.5052928-.1935116.7078154-.0761431.1025003-.1903578.1908083-.3232703.1910335-.1450773.0042803-.2698799-.0955167-.3494021-.208605-.1529621-.2232479-.1975666-.5037159-.1799951-.7693156.018022-.2063523.0759178-.4169848.2065776-.5812106.0612749-.0765936.1435004-.1425993.2412699-.1628741.1477807-.0340166.2948856.0477584.3849957.1610719z"/></svg>