<svg height="32" viewBox="0 0 32 32" width="32" xmlns="http://www.w3.org/2000/svg"><g fill="none"><path d="m23.1454085 12.0914795c2.0013829 0 3.7645527 1.3159717 4.333884 3.234668l.164162.5532401c.067796.2284784-.1033974.4578473-.3417221.4578473h-8.3126477c-.2383248 0-.4095181-.2293689-.3417221-.4578473l.1641619-.5532401c.5693313-1.9186963 2.3325011-3.234668 4.333884-3.234668zm-.0630721-6.31002423c1.5668594 0 2.8370499 1.27019052 2.8370499 2.83704994 0 1.56685939-1.2701905 2.83704989-2.8370499 2.83704989s-2.8370499-1.2701905-2.8370499-2.83704989c0-1.56685942 1.2701905-2.83704994 2.8370499-2.83704994z" fill="#00b1dd"/><path d="m27.5792055 17.9253323c.3313708 0 .6.2686291.6.6 0 .2982338-.2175896.5456467-.5026769.592147l-.0973231.007853-11.5360329-.0011831c.135154.0275094.2620719.1011427.3531351.2209001l.0611432.0984664 2.790817 5.581634c.1861723.3723446-.0541233.8060563-.4496284.8622296l-.0870279.0060986h-5.5816341c-.4162939 0-.696754-.4088887-.5701217-.7877607l.0334654-.0805675 2.790817-5.581634c.0892622-.1785243.2453357-.2849798.4142783-.3193665l-11.37762196.0011831c-.33137085 0-.6-.2686292-.6-.6 0-.2982338.21758961-.5456468.50267688-.592147l.09732312-.007853z" fill="#345c64"/><path d="m8.35556876 6.10652211c.29978351 0 .57268905.17644755.68678396.44556996l.25065261.55464028c.1823311.39939194.57542149.65580782 1.00704917.65580782.1289868 0 .2571846-.02457125.3864779-.07361313l.5720131-.21577873c.3015451-.10594831.6355685-.01610753.8663475.25341348l.0199994.03001938c.1404895.20660219.1715222.46373039.0827373.69779097l-.2129669.56966382c-.1981418.54273628.0568629 1.16241094.5758072 1.40689404l.5498699.2509119c.2723009.1237731.4450408.3955504.4449433.6900118.0081534.3016767-.1619835.5752752-.4335994.7069678l-.0037046.0017612-.5508649.2567127c-.5206016.2409396-.7753852.8600767-.5778223 1.405563l.212094.5674564c.0861506.2192926.0624457.4627085-.0871141.6964716l.0029654.0019487c-.1914958.2914066-.5624663.4133352-.8862101.2860632l-.0098251-.0018243-.5544122-.2132385c-.1272514-.0482678-.260836-.0734518-.3913934-.0734518-.4283502 0-.82559123.2583285-1.0070298.6557654l-.24818336.5436591c-.11629185.2741165-.38882256.4565936-.68393059.4565936h-.00534199c-.29748146 0-.56858884-.1737868-.69212595-.44557l-.25065262-.5546403c-.1823311-.3993919-.57542149-.6558078-1.00704916-.6558078-.1289868 0-.25718461.0245713-.38647795.0736131l-.57201302.2157788c-.30154517.1059483-.63556855.0161075-.84595147-.226642l-.02363535-.0353866c-.00251557-.0031943-.00778823-.0099348-.01676012-.0214043-.14048949-.2066022-.1715222-.4637304-.08273732-.697791l.2129669-.5696638c.19814181-.5427363-.05686289-1.1624109-.577749-1.4077895l-.54334162-.2532078-.00992849-.0021506c-.27230089-.1237731-.44504071-.3955504-.44504071-.6972281 0-.3016776.17273982-.5734549.44274347-.6961707l.55086492-.2567127c.52060158-.2409396.77538511-.86007674.57782229-1.40556303l-.21209399-.56745636c-.08615067-.21929261-.06244574-.46270849.08711407-.69647167l-.00296538-.00194868c.19093069-.2905467.56681717-.41375119.8865379-.2860023l.0094973.00176344.55441218.21323852c.12725139.04826777.26083601.07345175.3913934.07345175.42835018 0 .82559122-.25832852 1.00702979-.65576538l.24630895-.53978344.0018744-.00921763c.11658354-.27480406.38948908-.45125161.68927259-.45125161zm.00013576 3.73377248c-.84212314 0-1.52229952.68827371-1.52229952 1.53849421s.68827372 1.5384942 1.52229952 1.5384942c.83402581 0 1.52229953-.6882737 1.52229953-1.5384942s-.68017638-1.53849421-1.52229953-1.53849421z" fill="#af8c1d"/></g></svg>