<svg height="32" viewBox="0 0 32 32" width="32" xmlns="http://www.w3.org/2000/svg"><path d="m27.5792055 17.9253323c.3313708 0 .6.2686291.6.6 0 .2982338-.2175896.5456467-.5026769.592147l-.0973231.007853-11.5360329-.0011831c.135154.0275094.2620719.1011427.3531351.2209001l.0611432.0984664 2.790817 5.581634c.1861723.3723446-.0541233.8060563-.4496284.8622296l-.0870279.0060986h-5.5816341c-.4162939 0-.696754-.4088887-.5701217-.7877607l.0334654-.0805675 2.790817-5.581634c.0892622-.1785243.2453357-.2849798.4142783-.3193665l-11.37762196.0011831c-.33137085 0-.6-.2686292-.6-.6 0-.2982338.21758961-.5456468.50267688-.592147l.09732312-.007853zm-11.6592055 3.1266677-1.823 3.642 3.644.002zm7.2254085-8.6354537c2.0013829 0 3.7645527 1.3159718 4.333884 3.234668l.164162.5532402c.067796.2284784-.1033974.4578473-.3417221.4578473h-8.3126477c-.2383248 0-.4095181-.2293689-.3417221-.4578473l.1641619-.5532402c.5489981-1.8501714 2.2080832-3.1399012 4.1204052-3.2296649zm-14.79480183-6.1842205.13902736.00718751c.39903008.04279658.75546428.27374339.94707899.61302189l.05759949.11699563.21523671.47628311c.06037466.13224926.18707577.214798.32274918.214798l.0572629-.00587591.0642978-.01899953.5062291-.19079599c.4594536-.16142963.9563376-.04374337 1.3428653.34056401l.1025695.11141216.0923124.15253027c.1394507.2698474.1763493.57935781.1041778.87282479l-.0452051.14513863-.1820761.48698324c-.0551547.15107607.0002002.32690322.1181311.42166523l.0639582.04013566.4734546.2160434c.4482398.2037453.7357171.6512478.7352548 1.1251325.0121891.450995-.2174083.866698-.5976434 1.1026059l-.1184986.0652341-.4839116.2255585c-.1417413.0655992-.2248805.2279054-.2063048.3818864l.0179637.0758105.1793524.4800939c.1479573.3766186.0995018.7875832-.1296044 1.1512733-.2960765.4505511-.8475908.6568002-1.3619747.5176834l-.1276532-.0420329-.475573-.1829222c-.0427871-.0162296-.0860037-.0243494-.1247773-.0243494-.10665209 0-.21118791.0541616-.27915182.1424511l-.04357733.072303-.20752081.4540581c-.1764164.4158387-.56606043.7032715-1.00817825.7520953l-.1340488.0073787-.13408615-.0070362c-.3928019-.0414161-.74186015-.2631766-.94506258-.5990125l-.06916449-.1311563-.21523671-.4762832c-.06037465-.1322492-.18707577-.214798-.32274919-.214798l-.05726284.0058759-.06429781.0189996-.50622917.190796c-.45178155.158734-.94873137.048772-1.32253545-.3162879l-.09876691-.1058763-.03820362-.0509817c-.20236267-.2975922-.26661903-.6618072-.18241897-1.0041854l.04520508-.1451386.1820761-.4869832c.055187-.1511644-.00026281-.3269547-.12196147-.423435l-.06616457-.0411498-.47202521-.2178669c-.36339525-.1651796-.6198004-.4896661-.70483361-.8692161l-.02372864-.1447087-.00699568-.1336419c0-.4492765.23580686-.8609647.61158144-1.0833839l.11683557-.060896.47654704-.222077c.14174128-.06559927.22488054-.2279054.20630485-.38188645l-.01796369-.0758105-.17935238-.48009386c-.12946265-.32954129-.10854677-.68537875.05123052-1.00758758l.07837384-.1436857c.29589919-.45028139.85232249-.65790149 1.36306981-.51794231l.12655805.04229174.47557304.18292225c.04278707.01622958.08600367.02434935.12477731.02434935.10665207 0 .21118789-.0541616.27913123-.14240598l.04355774-.07226007.20756097-.45875351c.15940505-.37574047.49174162-.64195681.88054489-.72634158l.13153269-.02129456zm14.79480183 7.3842205c-1.2144462 0-2.3094828.6596605-2.8893903 1.6836294l-.0870182.1618243h5.952l-.0862012-.1618243c-.549386-.9700758-1.561104-1.6131823-2.6986856-1.6781905zm-14.79019446-6.1842205-.02200345.00323403-.01574041.00846213-.0089998.01183024-.00810939.0227002-.21248061.46564897c-.25342553.55512259-.80845184.91641057-1.41435808.91641057-.13953097 0-.27972461-.01978639-.41691139-.05843826l-.1360486-.04490625-.49359673-.18827195c-.00807965-.00322834-.03080193.00413694-.04057492.01900889-.01232141.02309932-.01688652.03468324-.0163273.0455921l.00435307.01721205.18504141.49516653c.25974369.7171725-.03822572 1.52110515-.68396061 1.89541465l-.12509941.0650223-.48029283.223795c-.01738509.0079014-.03011809.0279262-.03011809.0542049 0 .0175438.00566957.0322847.01518705.0427706l.01693442.0123564.48460026.2236734c.68749569.3238649 1.04059262 1.1041239.84730775 1.8314572l-.04269558.1356304-.19354582.5191934-.00837761-.0060487.02460263.0325554.0140146.0120559.02330029.0087812.01836365-.0004152.49232981-.1857191c.17843915-.0676832.36089852-.1024909.54612132-.1024909.56165617 0 1.07486385.3062182 1.35126398.7931156l.06405753.1254159.21564432.4771779c.00598377.0131644.01684671.0232548.02988202.0285191l.0208439.0040577.01725088-.0043148.01669367-.0138641.01472464-.0247931.21405709-.4689036c.25342553-.5551226.80845184-.9164106 1.4143581-.9164106.139531 0 .2797246.0197864.4169114.0584383l.1360486.0449062.4741342.1824436.0311173.005841.0157212-.0060737.0192144-.0297041.0100694-.0286703-.0041106-.0173775-.1850415-.4951666c-.2597436-.7171725.0382258-1.5211051.6839607-1.8954146l.1250994-.0650223.4709418-.2194477c.0233944-.0113322.035592-.0311431.0348159-.0695822 0-.0133735-.0057076-.0266681-.0154382-.036749l-.017436-.012319-.4808857-.2194825c-.6862958-.3233253-1.0388132-1.1037531-.8455961-1.83074699l.0426753-.13556054.1846946-.49401869c.0046196-.01217848.0052862-.02356718.000873-.03620941l-.005688-.01077376-.0129006-.01058185-.026944-.01409145-.0183928-.00044679-.4923298.18571901c-.1784391.06768324-.3608985.10249091-.5461213.10249091-.56165616 0-1.07486384-.3062182-1.35126396-.7931156l-.06405754-.12541585-.2218307-.49126471c-.00223833-.0052797-.01023278-.01173757-.02131842-.01545618zm.00049048 2.6310504c.72001529 0 1.3015661.5884741 1.3015661 1.3154126s-.58847403 1.3154125-1.3015661 1.3154125c-.71309206 0-1.30156609-.588474-1.30156609-1.3154125s.58155081-1.3154126 1.30156609-1.3154126zm14.72663188-3.95685409c1.5668594 0 2.8370499 1.27019052 2.8370499 2.83704994 0 1.50882755-1.1778447 2.74255475-2.6642247 2.83187225l-.1728252.0051777c-1.5668594 0-2.8370499-1.2701905-2.8370499-2.83704995 0-1.50882759 1.1778447-2.7425548 2.6642247-2.83187228zm0 1.2c-.9041177 0-1.6370499.73293222-1.6370499 1.63704994 0 .90411771.7329322 1.63704995 1.6370499 1.63704995s1.6370499-.73293224 1.6370499-1.63704995c0-.90411772-.7329322-1.63704994-1.6370499-1.63704994z"/></svg>