<svg height="32" viewBox="0 0 32 32" width="32" xmlns="http://www.w3.org/2000/svg"><path d="m23.8558347 8.77569181c.4098965 0 .7430221.33416501.7430221.74739208l-.00059 6.18460791 4.650438.0007495-1.9040631 3.8297525c-.1430713.2126326-.1430756.4907427-.0000109.7033797l1.904074 3.8300252h-10.5917608c-.3728557 0-.6758744-.3039683-.6758744-.6798752v-3.0901654c0-.3908782.4097458-.6398123.6757462-.6398123l4.9165391-.0130096c.5512498-.0014586.997354-.4487448.997354-.9999965l.0000322-.7303739c-.1062231-.4381707-.5010542-.7635607-.9718843-.7635607h-15.09965483c-.55228475 0-1 .4477153-1 1v-8.63172121c0-.44210339.31180332-.74739208.74302209-.74739208zm-16.36826035 6.93274949v2.9532996c0 .5522848.44771525 1 1 1h4.36197565c.2416735.0000032.6783519.2508182.6783519.6343463v3.095662c0 .3758293-.303095.6798495-.6758744.6798495h-10.59176072l1.90407401-3.8300252c.14306467-.212637.14306033-.4907471-.00001096-.7033797l-1.90406305-3.8297525z"/></svg>