<svg height="32" viewBox="0 0 32 32" width="32" xmlns="http://www.w3.org/2000/svg"><path d="m16.7210696 18.0763389h-1.4421392v3.3154103c0 1.07085-.8663553 1.9398495-1.9358744 1.9398495h-9.77495217c-.50438938 0-.80426721-.5631951-.52270449-.9816817l2.3279374-3.4600134-2.32792645-3.4597643c-.28158072-.4184852.01829525-.981698.52269354-.981698h3.86105907v-4.57413715c0-1.10405306.85363171-1.93984949 1.93587442-1.93984949h13.26979718c1.0696126 0 1.9358744.86896457 1.9358744 1.93984949v4.57413715h3.8611873c.5043983 0 .8042742.5632128.5226935.981698l-2.3279264 3.4597643 2.3279374 3.4600134c.2815627.4184866-.0183151.9816817-.5227045.9816817h-9.7749522c-1.0696185 0-1.9358744-.8689705-1.9358744-1.9398752zm5.9137649-1.26c.4505829 0 .6758744.2694084.6758744.8082252v-7.75025995c0-.37588331-.3030207-.67984949-.6758744-.67984949h-13.26979718c-.39224909 0-.67587442.27769943-.67587442.67984949v7.75025995c0-.5388168.22529148-.8082252.67587442-.8082252zm1.9358744.8899777c0 1.070855-.8662826 1.9397854-1.933397 1.9397805l-3.9804961.0156487c-.2660004 0-.6757462.2489341-.6757462.6398123v1.0901654c0 .3759069.3030187.6798752.6758744.6798752h8.5917608l-1.904074-2.8300252c-.1430647-.212637-.1430604-.4907471.0000109-.7033797l1.9040631-2.8297525h-2.6779959zm-11.2301304 1.9554243-3.97554118-.0156389c-1.06959183 0-1.93587441-.8689304-1.93587442-1.9397854v-1.9978753h-2.67786767l1.90406305 2.8297525c.14307129.2126326.14307563.4907427.00001096.7033797l-1.90407401 2.8300252h8.59176077c.3727793 0 .6758744-.3040202.6758744-.6798495 0-.1337837 0-.936446 0-1.095662 0-.3835281-.4366784-.6343431-.6783519-.6343463z"/></svg>