<svg height="32" viewBox="0 0 32 32" width="32" xmlns="http://www.w3.org/2000/svg"><g fill="none" fill-rule="evenodd"><path d="m7.75244346 15.3931076v3.8919315c0 .7654021.61863807 1.3860163 1.38187769 1.3860163l4.20954355.0165543c.7631265 0 1.3818777.6207866 1.3818777 1.3862198v-2.0875051 2.0875322c0 .7654333-.6187512 1.3860841-1.3818777 1.3860841h-10.3438647l2.71382107-4.0335522-2.71382107-4.0332809zm9.83270554 6.6807219c0-.7654332.6186155-1.3862198 1.381742-1.3862198l4.2095435-.0165543c.7632396 0 1.3818777-.6206142 1.3818777-1.3860163v-3.8919315h4.7525792l-2.7138211 4.0332809 2.7138211 4.0335522h-10.3438647c-.7632622 0-1.3818777-.6206508-1.3818777-1.3860841z" fill="#b34874"/><path d="m14.7257424 17.8988193v4.1750102c0-.7654332-.6187512-1.3862198-1.3818777-1.3862198l-4.20954355-.0165543c-.76323962 0-1.38187769-.6206142-1.38187769-1.3860163 0-.7656056.61863806-1.3862198 1.38187769-1.3862198zm9.8325698 1.3862198c0 .7654021-.6186381 1.3860163-1.3818777 1.3860163l-4.2095435.0165543c-.7631265 0-1.381742.6207866-1.381742 1.3862198v-4.1750102h5.5912855c.7632396 0 1.3818777.6206142 1.3818777 1.386152z" fill="#69043f"/><path d="m9.13432115 8.5c-.76326217 0-1.38187769.57261197-1.38187769 1.38608411v9.39895499c0-.7655689.61861552-1.3862198 1.38187769-1.3862198h14.04211335c.7632622 0 1.3818777.6206509 1.3818777 1.3862198v-9.39895499c0-.76543323-.6186155-1.38608411-1.3818777-1.38608411z" fill="#e77aa7"/></g></svg>