<svg height="32" viewBox="0 0 32 32" width="32" xmlns="http://www.w3.org/2000/svg"><path d="m13.2504056 24.2115368c.3313709 0 .6.2686292.6.6 0 .3313709-.2686291.6-.6.6h-3c-.33137082 0-.59999997-.2686291-.59999997-.6 0-.3313708.26862915-.6.59999997-.6zm.8754746-2.1226479 2.1213204 2.1213203c.2343145.2343146.2343145.6142136 0 .8485282-.2343146.2343145-.6142136.2343145-.8485282 0l-2.1213203-2.1213204c-.2343146-.2343145-.2343146-.6142135 0-.8485281.2343145-.2343146.6142135-.2343146.8485281 0zm-7.92565572-1.3846312 2.12132034 2.1213204c.23431458.2343145.23431458.6142135 0 .8485281-.23431457.2343146-.61421356.2343146-.84852814 0l-2.12132034-2.1213204c-.23431458-.2343145-.23431458-.6142135 0-.8485281.23431457-.2343146.61421356-.2343146.84852814 0zm3.25875097-3.0337454.06712635.0037129.10146924.0203438.08931349.0340216.09644313.0576869.06991186.0599707 2.12132038 2.1213203c.2343145.2343146.2343145.6142136 0 .8485282-.2343146.2343146-.6142136.2343146-.8485282 0l-1.9469166-1.9465844-1.333.001c-.33137085 0-.6-.2686292-.6-.6 0-.3313709.26862915-.6.6-.6zm10.33245475 1c.3313708 0 .6.2686291.6.6 0 .3313708-.2686292.6-.6.6h-3c-.3313709 0-.6-.2686292-.6-.6 0-.3313709.2686291-.6.6-.6zm.8754746-2.122648 2.1213203 2.1213204c.2343146.2343146.2343146.6142136 0 .8485281-.2343146.2343146-.6142136.2343146-.8485281 0l-2.1213204-2.1213203c-.2343146-.2343146-.2343146-.6142136 0-.8485282.2343146-.2343145.6142136-.2343145.8485282 0zm-15.7907897 1.122648c.33137085 0 .6.2686291.6.6 0 .3313708-.26862915.6-.6.6h-.63184819c.03254912.2082167-.02454378.4201342-.16536278.5609532-.23431457.2343146-.61421356.2343146-.84852813 0l-.73668916-.7366892c-.37797892-.3779789-.11027884-1.024264.42426407-1.024264zm7.8651339-2.5072791 2.1213204 2.1213203c.2343145.2343146.2343145.6142136 0 .8485281-.2343146.2343146-.6142136.2343146-.8485282 0l-2.1213203-2.1213203c-.2343146-.2343146-.2343146-.6142136 0-.8485281.2343146-.2343146.6142135-.2343146.8485281 0zm3.258751-3.0337455.0671263.0037129.1014693.0203439.0893135.0340215.0964431.0576869.0699119.0599708 2.1213203 2.1213203c.2343146.2343146.2343146.6142136 0 .8485281-.2343146.2343146-.6142136.2343146-.8485281 0l-1.9469166-1.9465844-1.333.001c-.3313709 0-.6-.2686291-.6-.6 0-.3313708.2686291-.6.6-.6zm10.1583518 1c.3313708 0 .6.2686292.6.6 0 .3313709-.2686292.6-.6.6h-3c-.3313709 0-.6-.2686291-.6-.6 0-.3313708.2686291-.6.6-.6zm.8754745-2.1226479 2.1213204 2.1213203c.2343146.2343146.2343146.6142136 0 .8485282s-.6142136.2343146-.8485282 0l-2.1213203-2.1213204c-.2343146-.2343145-.2343146-.6142135 0-.8485281s.6142136-.2343146.8485281 0zm-15.6166866 1.1226479c.3313708 0 .6.2686292.6.6 0 .3313709-.2686292.6-.6.6h-.6318482c.0325491.2082168-.0245438.4201343-.1653628.5609533-.2343146.2343145-.6142136.2343145-.84852816 0l-.73668916-.7366892c-.37797891-.3779789-.11027884-1.0242641.42426407-1.0242641zm7.6910309-2.50727909 2.1213204 2.12132039c.2343145.2343145.2343145.6142135 0 .8485281-.2343146.2343146-.6142136.2343146-.8485282 0l-2.1213203-2.1213203c-.2343146-.2343146-.2343146-.61421361 0-.84852819.2343145-.23431457.6142135-.23431457.8485281 0zm3.258751-3.03374543.0671263.00371291.1014693.02034385.0893135.03402153.0964431.0576869.0699119.05997074 2.1213203 2.12132034c.2343146.23431458.2343146.61421357 0 .84852814-.2343146.23431458-.6142136.23431458-.8485281 0l-1.9469167-1.94658441-1.333.001c-.3313708 0-.6-.26862915-.6-.6s.2686292-.6.6-.6zm-4.5828604 0c.3313709 0 .6.26862915.6.6s-.2686291.6-.6.6h-.6318482c.0325492.20821674-.0245437.42013423-.1653627.56095323-.2343146.23431457-.6142136.23431457-.8485282 0l-.7366891-.73668916c-.3779789-.37797892-.1102789-1.02426407.424264-1.02426407z"/></svg>