<svg height="32" viewBox="0 0 32 32" width="32" xmlns="http://www.w3.org/2000/svg"><path d="m8.45897545 18.6705123c.12730392 0 .2504366.040457.3522087.114251l.07205537.0614849 1.27529308 1.2737244c.2480929-.1690024.5889574-.1291075.7904593.1032003.1823112.2101832.1925739.5110452.042997.7306598l4.4322752 4.4334401c.3543552.3543552.1412191.9445264-.3272569 1.0169137l-.0970072.0073503h-6.54102455c-.12730391 0-.2504366-.040457-.35220869-.114251l-.07205538-.0614849-6.54102454-6.5410246c-.35435524-.3543552-.14121917-.9445265.32725682-1.0169137l.09700725-.0073503zm-.24897545 1.1994877h-4.844l5.341 5.341h4.844l-3.4542519-3.4545368-1.47411434 1.2788366c-.22250973.1930032-.54664615.1931859-.76842576.0150336l-.07797097-.0751383c-.19300316-.2225097-.19318592-.5466461-.01503362-.7684257l.07513828-.077971 1.40940636-1.2233352zm7.79-7.7405123c.1273039 0 .2504366.0404571.3522087.114251l.0720554.061485 1.355484 1.3552395.0933593-.0794441c.2503235-.2171285.6292682-.1902188.8463968.0601047.1930031.2225097.1931859.5466461.0150336.7684257l-.0751383.077971-.0286514.0239427 4.3345405 4.334785c.3543553.3543552.1412192.9445265-.3272568 1.0169137l-.0970073.0073504h-6.5410245c-.1273039 0-.2504366-.0404571-.3522087-.114251l-.0720554-.061485-1.4399454-1.4415447-.9806498.8506078c-.2503234.2171286-.6292682.1902188-.8463967-.0601046-.2171286-.2503235-.1902188-.6292682.0601046-.8463968l.9159243-.7944654-4.25006152-4.2491208c-.35435523-.3543552-.14121916-.9445265.32725683-1.0169137l.09700724-.0073504zm.9333513 2.2199572-1.3264973 1.1973044c-.2503235.2171286-.2772333.5960733-.0601047.8463967.2171286.2503235.5960733.2772333.8463967.0601047l1.3264974-1.1973044c.2503234-.2171286.2772332-.5960733.0601047-.8463968-.2171286-.2503234-.5960733-.2772332-.8463968-.0601046zm6.6076732-8.76098172c.127304 0 .2504366.04045703.3522087.11425101l.0720554.06148492 6.5410246 6.54102459c.3543552.3543552.1412191.9445265-.3272569 1.0169137l-.0970072.0073503h-6.5410246c-.1273039 0-.2504366-.040457-.3522086-.114251l-.0720554-.0614849-1.3548117-1.3573578-.8362958.7253963c-.2503235.2171286-.6292682.1902188-.8463967-.0601046-.2171286-.2503235-.1902188-.6292682.0601046-.8463968l.7713651-.6690759-4.3349901-4.33348575c-.3543552-.35435524-.1412191-.9445265.3272569-1.01691371l.0970072-.00735036zm-.2479754 1.20048773h-4.844l5.341 5.34099999h4.844z"/></svg>