<svg height="32" viewBox="0 0 32 32" width="32" xmlns="http://www.w3.org/2000/svg"><path d="m11.1885199 26.7489748c0 .5011339-.568024.7677381-.9504721.487661l-.0737919-.063397-6.54102458-6.5410245c-.09001746-.0900175-.14847798-.2056929-.16826149-.3298368l-.00747444-.0944273-.00041955-6.5672764.01335455-.1016054.00875922-.0325702c.00482549-.0218267.01167153-.0425621.0195508-.062638l.0070563-.0127949c.01864609-.048495.04446549-.0919898.07494311-.1311805l.07008475-.0759858.06477941-.0520743.04124108-.0243339.06778154-.0351487.09924339-.0306245.05264421-.0099017.05539801-.0053436 7.78508779-.0004723.0004813-5.94009889c0-.0215219.0011331-.04277913.003343-.06371531.0176062-.17911304.1098673-.3236998.2374998-.41761128l.0878183-.05395733.0634261-.02755737.0634181-.01972209.0565078-.01150267.0588561-.0061992 4.1566495-.00063586-.9102277-.83103072c-.4333211-.39593022-.0979972-1.09225965.4508681-1.04197423l.0933596.01547353 12.9230095 3.08937129c.2834604.06776396.4724959.32696518.4600199.60938287l-.0117689.09476835-1.6192372 7.89186671c-.0897787.4375652-.6005193.6174654-.9426298.3636378l-.0705134-.0610945-2.3768801-2.3894011-4.9827075-.0005865.0002133 5.9425367c0 .1742037-.0686394.3200671-.1742627.4244779l-.0799252.065903-.0744759.0449044-.0634234.027556-.0641141.0198977-.0464755.009408-.0669241.007876-7.7906124-.0005597zm-6.5415199-11.6339748v4.844l5.341 5.341v-4.844zm.848-.849 5.341 5.341 6.6622925-.0005865-5.34-5.34zm7.512-5.692.0002925 4.8444135 5.3407075 5.3405865v-4.844zm5.142-2.2.3371017.30891c.3805325.34769674.171402.96475501-.3111187 1.03615078l-.0935992.00679325-4.2270913-.00144054 5.342 5.34200001 5.5852034.0005122c.127745 0 .2512743.040737.3532335.1149956l.0721539.0618666 1.7631167 1.7722121 1.277-6.228z"/></svg>