<svg height="32" viewBox="0 0 32 32" width="32" xmlns="http://www.w3.org/2000/svg"><path d="m5.0974783 13.1358938.06033425-.0065843 6.57167515.0001782c.1273039 0 .2504366.0404571.3522087.114251l.0720554.061485 6.5410245 6.5410245c.1181185.1181184.1731823.2624386.1767527.4050495l-.0010167 6.5602391c0 .2982338-.2175896.5456468-.5026769.592147l-.0973231.007853-6.5391151.0012029c-.0907005.0009166-.1826544-.0188005-.2686454-.0621732l-.0837362-.0513686-.0484279-.0394577-6.56638859-6.5649639c-.09001746-.0900174-.14847798-.2056928-.16826149-.3298368l-.00747444-.0944272v-6.5410246c0-.0381797.00356606-.0755264.01038328-.1117254.02202466-.1241632.08061785-.2293735.16122842-.3101055l.07867034-.0658553.0392117-.0259301.04830962-.0262139.08721019-.0342521.06508033-.0161779c.03578926-.006307.07244681-.0097398.10990612-.0097398zm7.2319849 7.7333665v5.341l5.3405368.0007397-.0005368-5.3407397zm-6.5414632-5.6922603v4.845l5.341 5.341v-4.845zm5.693-.848-4.84453682-.0007397 5.34200002 5.342 4.8435368-.0002603zm2.1575029-9.73413076.0603342-.00658427 6.5716752.00017821c.1273039 0 .2504366.04045703.3522087.11425101l.0720553.06148492 6.5410246 6.54102459c.1181184.1181184.1731822.2624386.1767526.4050494l-.0010167 6.5602392c0 .2982337-.2175896.5456467-.5026769.592147l-.0973231.007853-6.5391151.0012028c-.0907004.0009167-.1826544-.0188005-.2686454-.0621732l-.0837361-.0513686-.0484279-.0394576-6.5663886-6.5649639c-.0900175-.0900175-.148478-.2056929-.1682615-.3298368l-.0074745-.0944273v-6.54102452c0-.03745931.0034328-.07411686.0100009-.10967523.0216866-.12484666.0803821-.23069962.1613234-.31186891l.0789578-.06614206.0392117-.02593015.0483096-.0262139.0872102-.03425203.0650803-.01617793c.0357893-.00630703.0724468-.00973979.1099061-.00973979zm7.2319603 7.73339106v5.341l5.3405368.0007397-.0005368-5.3407397zm-6.5414632-5.6922603v4.845l5.341 5.341v-4.845zm5.693-.848-4.8445368-.00073967 5.342 5.34199997 4.8435368-.0002603z"/></svg>