<svg height="32" viewBox="0 0 32 32" width="32" xmlns="http://www.w3.org/2000/svg"><path d="m15.9090151 5.59486924.0602702-.00658052h6.5717392c.127304 0 .2504366.04063149.3522087.11442547l.0720554.06148492 6.5410246 6.54102459c.3543552.3543552.1412191.9445265-.3272569 1.0169137l-.0970072.0073503-5.9410491-.0004877.0000245 5.9415123c0 .2080899-.0979402.3757415-.2398655.480606l-.0633648.0410349-.0677026.0329312-.0852684.0281669-.0464755.009408-.0663652.0078443-5.9722344-.0012433.0002519 5.9422765c0 .2080899-.0979402.3757416-.2398656.4806061l-.0875786.0540653-.064643.0281699-.0641142.0198978-.0464755.0094079-.0663652.007853h-6.57198245c-.12730391 0-.2504366-.040457-.35220869-.114251l-.07205538-.0614849-6.54102454-6.5410246c-.35435524-.3543552-.14121917-.9445265.32725682-1.0169137l.09700725-.0073503 5.94004909-.0005123.00097545-5.9405123.00735037-.0970072c.02495635-.1615127.11145691-.2926755.22862016-.3806968l.05352322-.0359123.04830961-.0262139.05627198-.0237445.06334001-.0194686.04526154-.0091037.06588021-.0078503 5.97246745-.0004904v-5.94053682l.0073504-.09700724c.0249563-.16151268.1114569-.29267545.2286201-.38069678l.0535232-.03591233.0483097-.0262139.0562719-.02374451.0633401-.01946854zm-11.5430151 14.27513076 5.341 5.341 4.8427481-.0007397-5.34000005-5.34zm6.5407481-6.5417397 5.342 5.342 4.843-.001-5.341-5.34zm11.3852519-6.5402603-4.8442519-.00073967 5.342 5.34199997 4.8432519-.0002603z"/></svg>