<svg height="32" viewBox="0 0 32 32" width="32" xmlns="http://www.w3.org/2000/svg"><g fill="none" fill-rule="evenodd"><path d="m15 25.8115368h-6.54102455l-6.54102454-6.5410245h6.54102454z" fill="#6ad1eb"/><path d="m8.62263376 23.0352998 2.26625344-1.9657302c.2503235-.2171286.2772333-.5960733.0601047-.8463967-.2171286-.2503235-.5960733-.2772333-.8463967-.0601047l-2.26625351 1.9657302c-.25032345.2171286-.27723322.5960733-.06010466.8463967.21712856.2503235.59607329.2772333.84639673.0601047zm4.53250694-3.9314604 2.2662535-1.9657302c.2503234-.2171285.2772332-.5960733.0601047-.8463967-.2171286-.2503235-.5960733-.2772332-.8463968-.0601047l-2.2662535 1.9657302c-.2503234.2171286-.2772332.5960733-.0601046.8463968.2171285.2503234.5960733.2772332.8463967.0601046z" fill="#74a2ab" fill-rule="nonzero"/><path d="m9.45897545 12.7294877h6.54102455l6.5410245 6.5410246h-6.5410245z" fill="#ec4800"/><path d="m16.393146 16.4532507 2.2662535-1.9657302c.2503235-.2171286.2772332-.5960733.0601047-.8463967-.2171286-.2503235-.5960733-.2772332-.8463968-.0601047l-2.2662534 1.9657302c-.2503235.2171286-.2772333.5960733-.0601047.8463967.2171286.2503235.5960733.2772333.8463967.0601047zm4.532507-3.9314604 2.2662535-1.9657302c.2503234-.2171285.2772332-.59607326.0601046-.84639671-.2171285-.25032345-.5960733-.27723322-.8463967-.06010466l-2.2662535 1.96573017c-.2503234.2171286-.2772332.5960733-.0601046.8463968.2171285.2503234.5960732.2772332.8463967.0601046z" fill="#74a2ab" fill-rule="nonzero"/><path d="m17 6.18846318h6.5410245l6.5410246 6.54102452h-6.5410246z" fill="#6ad1eb"/></g></svg>