<svg height="32" viewBox="0 0 32 32" width="32" xmlns="http://www.w3.org/2000/svg"><path d="m22.174918 16.0771081 1.1337933.5809156c.1059498.0560911.2368289.0560911.3427787 0l1.1226725-.5772606c.3160541-.1625101.6974707-.0641274.898513.2163052l.0573747.0948558.5701848 1.132395c.0560911.1059498.1558085.1807379.274223.199435l1.2506968.1911893c.3542333.0541503.6067459.3621347.6008701.7107438l-.0091541.1024404-.2033071 1.2517339c-.018697.1184145.018697.2430613.1059498.3240818l.9035367.8955408c.2776518.2751947.2796437.7233653.004449 1.0010171l-.9017533.9017632c-.0872528.0872528-.1246469.2056673-.1059498.3240817l.2033071 1.251734c.0574502.353713-.1579168.6887267-.4914274.7903801l-.1002887.0228041-1.2506967.1911893c-.1184145.018697-.2243643.0934851-.2742231.1994349l-.5764408 1.1408725c-.1602679.3171969-.526712.4616839-.8541599.35288l-.1003795-.0421319-1.1302294-.5790928c-.1059498-.0560911-.236829-.0560911-.3427788 0l-1.1226724.5772606c-.3160541.1625101-.6974707.0641274-.898513-.2163051l-.0573747-.0948559-.5701848-1.132395c-.0560911-.1059498-.1558085-.1807379-.274223-.1994349l-1.2649085-.1961409c-.3541162-.0549104-.6059673-.3634361-.5993433-.7120318l.0091287-.1009213.2035527-1.2532459c.018697-.1184144-.018697-.2430613-.1059498-.3240817l-.8972919-.8933039c-.2493369-.2482287-.275079-.6360725-.0766689-.9131218l.0777823-.0912382.9024108-.8944249c.0872528-.0872528.1246469-.2056672.1059498-.3240817l-.2069903-1.2499031c-.0585469-.3535332.1557801-.6892131.4889739-.7919003l.1023868-.0234501 1.248503-.190854c.1184145-.018697.2243643-.0934851.274223-.1994349l.5818007-1.1435394c.177268-.3484232.6034248-.4871719.951848-.309904zm1.2995133 1.9611093c-.2824273 0-.5167274.2060574-.5607631.476035l-.0074368.092165v.3812334c-.2606003.0715811-.4963904.1951786-.7023592.369675-.3697802.3132774-.5651884.7303931-.5651884 1.2099307 0 .2452531.0427503.4660821.1321799.6604928.0899033.1954405.2216725.3644201.390774.5019609.1467061.1193253.3185223.2185996.5145191.2989455.1121369.0459688.2346465.0895679.3678275.131008l.3491442.1004174c.1768176.0483406.3253122.0975491.4485391.1480641.0956285.0392014.1715695.0827685.228494.1290688.0349886.0284584.0585667.0586085.0754303.0952682.0167967.0365144.0281325.0983797.0281325.185582 0 .1440145-.0472955.2445777-.1633104.3428654-.137106.1161559-.3079085.1739011-.5359827.1739011-.391943 0-.6373466-.1138676-.7982967-.349507-.1769949-.25913-.530544-.3257136-.789674-.1487186s-.3257136.5305441-.1487186.789674c.244708.3582655.5797791.6052481.9887431.7358438l.1797463.048829v.3941676c0 .3138081.2543917.5681999.5681999.5681999.2824273 0 .5167274-.2060574.5607632-.476035l.0074367-.0921649v-.4074498c.2605888-.0715775.4963789-.1951687.7023592-.3696749.3697803-.3132773.5651884-.730393.5651884-1.2099306 0-.2452532-.0427503-.4660822-.1321799-.6604928-.0899033-.1954406-.2216725-.3644202-.390774-.501961-.1467061-.1193252-.3185223-.2185996-.5145191-.2989455-.1121369-.0459688-.2346465-.0895679-.3678275-.131008l-.3491442-.1004174c-.1768175-.0483405-.3253122-.097549-.448539-.148064-.0956286-.0392015-.1715696-.0827686-.2284941-.1290688-.0349886-.0284584-.0585667-.0586085-.0754303-.0952683-.0167967-.0365143-.0281324-.0983796-.0281324-.1855819 0-.1440145.0472954-.2445777.1633103-.3428654.137106-.1161559.3079085-.1739011.5359827-.1739011.3429501 0 .573706.0871799.7338604.2668348l.0644363.0826722c.1769949.25913.5305441.3257136.789674.1487186.25913-.176995.3257136-.5305441.1487186-.7896741-.2446895-.3582383-.5797579-.6052386-.988736-.7358427l-.1797534-.0488318v-.3679496c0-.3138082-.2543917-.5682-.5681999-.5682zm-13.1570985 4.1692654 1.6549145 1.6555301.0272207.0020009c.2565786.0418502.4524092.2645219.4524092.5329323 0 .2982338-.2417662.54-.54.54-.2506296 0-.490994-.0995622-.6682159-.2767841l-1.69000387-1.6900039c-.21088312-.2108831-.21088312-.5527922 0-.7636753s.55279217-.2108831.76367537 0zm1.9995444-2.8605689c.2982338 0 .54.2417663.54.54v2.7c0 .2982338-.2417662.54-.54.54-.2982337 0-.54-.2417662-.54-.54v-2.7c0-.2982337.2417663-.54.54-.54zm-5.81792106-.9578077 1.90918831 1.9091883c.21088311.2108831.21088311.5527922 0 .7636753-.21088312.2108831-.55279221.2108831-.76367533 0l-1.90918831-1.9091883c-.21088312-.2108831-.21088312-.5527922 0-.7636753s.55279221-.2108831.76367533 0zm9.71379696-1.6866335c.2982337 0 .54.2417663.54.54 0 .2982338-.2417663.54-.54.54h-1.4658759c-.3304499 0-.6473663.0844478-.9280554.2430541-.2596487.1467172-.5890733.0551681-.7357905-.2044806s-.0551681-.5890734.2044806-.7357905c.441748-.2496143.9415047-.382783 1.4593653-.382783zm-10.94330424-3.5232258c.29741285.0221128.52058762.2811395.49847481.5785524-.00617297.0830251-.00927633.1665787-.00927633.2505585v2.4092056c0 .2982337-.24176623.54-.54.54-.29823376 0-.54-.2417663-.54-.54v-2.4092056c0-.1107064.00409546-.2209709.01224913-.3306361.02211281-.2974129.28113954-.5205876.57855239-.4984748zm12.81727684-.3419231c.2688735.1290365.3822338.4516063.2531973.7204798-.1211169.2523715-.1848159.5293332-.1848159.8164392v1.570584c0 .2982337-.2417662.54-.54.54s-.54-.2417663-.54-.54v-1.570584c0-.4497343.1004035-.8862861.2911388-1.2837216.1290365-.2688735.4516062-.3822338.7204798-.2531974zm-5.161811-1.1510441.0747877.0624839 1.9091883 1.9091883c.2108831.2108832.2108831.5527922 0 .7636754-.1874517.1874516-.47843.2082796-.6888876.0624839l-.0747877-.0624839-1.9091883-1.9091883c-.2108831-.2108832-.2108831-.5527923 0-.7636754.1874516-.1874516.47843-.2082796.6888876-.0624839zm9.9299255-.2820369c.2982338 0 .54.2417663.54.54 0 .2982338-.2417662.54-.54.54h-2.7c-.2982337 0-.54-.2417662-.54-.54 0-.2982337.2417663-.54.54-.54zm-14.04569152-1.79162128c.29767299-.01828035.55380378.20821214.57208412.50588508.01828035.297673-.20821213.5538038-.50588512.5720842-.8054625.0494641-1.55300967.3878179-2.12104684.9454233-.21282832.2089198-.55472273.2057514-.76364253-.007077-.20891981-.2128283-.20575134-.5547227.00707698-.7636425.75195956-.7381501 1.74388791-1.18711545 2.81141339-1.25267308zm14.09871022-.86753208 1.9091883 1.90918826c.2108831.2108832.2108831.5527923 0 .7636754s-.5527922.2108831-.7636753 0l-1.9091883-1.90918834c-.2108831-.21088312-.2108831-.5527922 0-.76367532s.5527922-.21088312.7636753 0zm-11.3940299-2.68096742c.2449014.17019602.3054621.50669896.1352661.75160036-.3836392.55203276-.5922179 1.20689731-.5922179 1.89440552v.39236655c0 .29823377-.2417662.54-.54.54-.2982337 0-.53999997-.24176623-.53999997-.54v-.39236655c0-.90963411.27696237-1.77919982.78535147-2.51073981.170196-.2449014.5066989-.30546208.7516003-.13526607zm7.5756533-1.1374092 1.9091883 1.90918831c.2108831.21088312.2108831.55279221 0 .76367532-.2108831.21088312-.5527922.21088312-.7636753 0l-1.9091883-1.90918831c-.2108831-.21088311-.2108831-.5527922 0-.76367532s.5527922-.21088312.7636753 0zm-2.9159257-.6206999c.2982338-.00007612.5400617.24162836.540138.53986211.0000761.29823376-.2416284.54006174-.5398621.54013791l-1.8455834.00040863c-.2638493.0040911-.5229864.03887627-.7738981.10305536-.2889318.07390402-.5830683-.10041043-.6569723-.38934221s.1004104-.58306831.3893422-.65697233c.332769-.08511687.6761063-.13120462 1.0330183-.1366759z"/></svg>