<svg height="32" viewBox="0 0 32 32" width="32" xmlns="http://www.w3.org/2000/svg"><path d="m22.174918 16.0771081 1.1337933.5809156c.1059498.0560911.2368289.0560911.3427787 0l1.1226725-.5772606c.3160541-.1625101.6974707-.0641274.898513.2163052l.0573747.0948558.5701848 1.132395c.0560911.1059498.1558085.1807379.274223.199435l1.2506968.1911893c.3542333.0541503.6067459.3621347.6008701.7107438l-.0091541.1024404-.2033071 1.2517339c-.018697.1184145.018697.2430613.1059498.3240818l.9035367.8955408c.2776518.2751947.2796437.7233653.004449 1.0010171l-.9017533.9017632c-.0872528.0872528-.1246469.2056673-.1059498.3240817l.2033071 1.251734c.0574502.353713-.1579168.6887267-.4914274.7903801l-.1002887.0228041-1.2506967.1911893c-.1184145.018697-.2243643.0934851-.2742231.1994349l-.5764408 1.1408725c-.1602679.3171969-.526712.4616839-.8541599.35288l-.1003795-.0421319-1.1302294-.5790928c-.1059498-.0560911-.236829-.0560911-.3427788 0l-1.1226724.5772606c-.3160541.1625101-.6974707.0641274-.898513-.2163051l-.0573747-.0948559-.5701848-1.132395c-.0560911-.1059498-.1558085-.1807379-.274223-.1994349l-1.2649085-.1961409c-.3541162-.0549104-.6059673-.3634361-.5993433-.7120318l.0091287-.1009213.2035527-1.2532459c.018697-.1184144-.018697-.2430613-.1059498-.3240817l-.8972919-.8933039c-.2493369-.2482287-.275079-.6360725-.0766689-.9131218l.0777823-.0912382.9024108-.8944249c.0872528-.0872528.1246469-.2056672.1059498-.3240817l-.2069903-1.2499031c-.0585469-.3535332.1557801-.6892131.4889739-.7919003l.1023868-.0234501 1.248503-.190854c.1184145-.018697.2243643-.0934851.274223-.1994349l.5818007-1.1435394c.177268-.3484232.6034248-.4871719.951848-.309904zm-3.231457-11.30749124c.127304 0 .2504366.04045703.3522087.11425101l.0720554.06148492 5.8869221 5.88692211c.3543552.3543552.1412192.9445265-.3272568 1.0169137l-.0970073.0073504h-4.0869221c-1.5976808 0-2.9036608 1.2489199-2.9949073 2.8237272l-.0050927.1762728v2.286922c0 .2982338-.2175896.5456468-.5026768.5921471l-.0973232.0078529h-2.286922c-1.5976809 0-2.9036609 1.24892-2.9949074 2.8237273l-.0050926.1762727v4.0869221c0 .501134-.5680241.7677382-.9504721.4876611l-.073792-.063397-5.88692211-5.8869221c-.09001746-.0900174-.14847798-.2056928-.16826149-.3298368l-.00747444-.0944273v-2.286922c0-3.238397 2.56557489-5.8775718 5.77506174-5.9958616l.1133214-.0026774.0026774-.1133214c.1127208-3.05838792 2.5145534-5.53206597 5.5426665-5.7582031l.2282568-.01272017.2249383-.00413847zm4.5309703 13.26860054c-.2824273 0-.5167274.2060574-.5607631.476035l-.0074368.092165v.3812334c-.2606003.0715811-.4963904.1951786-.7023592.369675-.3697802.3132774-.5651884.7303931-.5651884 1.2099307 0 .2452531.0427503.4660821.1321799.6604928.0899033.1954405.2216725.3644201.390774.5019609.1467061.1193253.3185223.2185996.5145191.2989455.1121369.0459688.2346465.0895679.3678275.131008l.3491442.1004174c.1768176.0483406.3253122.0975491.4485391.1480641.0956285.0392014.1715695.0827685.228494.1290688.0349886.0284584.0585667.0586085.0754303.0952682.0167967.0365144.0281325.0983797.0281325.185582 0 .1440145-.0472955.2445777-.1633104.3428654-.137106.1161559-.3079085.1739011-.5359827.1739011-.391943 0-.6373466-.1138676-.7982967-.349507-.1769949-.25913-.530544-.3257136-.789674-.1487186s-.3257136.5305441-.1487186.789674c.244708.3582655.5797791.6052481.9887431.7358438l.1797463.048829v.3941676c0 .3138081.2543917.5681999.5681999.5681999.2824273 0 .5167274-.2060574.5607632-.476035l.0074367-.0921649v-.4074498c.2605888-.0715775.4963789-.1951687.7023592-.3696749.3697803-.3132773.5651884-.730393.5651884-1.2099306 0-.2452532-.0427503-.4660822-.1321799-.6604928-.0899033-.1954406-.2216725-.3644202-.390774-.501961-.1467061-.1193252-.3185223-.2185996-.5145191-.2989455-.1121369-.0459688-.2346465-.0895679-.3678275-.131008l-.3491442-.1004174c-.1768175-.0483405-.3253122-.097549-.448539-.148064-.0956286-.0392015-.1715696-.0827686-.2284941-.1290688-.0349886-.0284584-.0585667-.0586085-.0754303-.0952683-.0167967-.0365143-.0281324-.0983796-.0281324-.1855819 0-.1440145.0472954-.2445777.1633103-.3428654.137106-.1161559.3079085-.1739011.5359827-.1739011.3429501 0 .573706.0871799.7338604.2668348l.0644363.0826722c.1769949.25913.5305441.3257136.789674.1487186.25913-.176995.3257136-.5305441.1487186-.7896741-.2446895-.3582383-.5797579-.6052386-.988736-.7358427l-.1797534-.0488318v-.3679496c0-.3138082-.2543917-.5682-.5681999-.5682zm-12.4558144-6.1826005-.249.0009221c-1.34393481 0-2.55886828.5523202-3.43019461 1.4423547l4.52233871 4.4998581c.6705836-.6819138 1.572282-1.1358446 2.5781936-1.2348909l.206962-.0152598.2096224-.0051401.8380779-.0008441-4.618881-4.6183528zm7.6763831-5.8866169-2.038461.00061686c-1.2240999 0-2.3411781.45821387-3.1890697 1.21247646l4.5382272 4.48928328c.6363887-.5475002 1.438679-.907543 2.3211802-.9944378l.206962-.0152598.2096223-.00514 2.638539-.000539z" fill-rule="evenodd"/></svg>