<svg height="32" viewBox="0 0 32 32" width="32" xmlns="http://www.w3.org/2000/svg"><g fill="none"><path d="m10.3173328 22.2074828 1.6549145 1.6555302.0272207.0020008c.2565786.0418503.4524092.2645219.4524092.5329323 0 .2982338-.2417662.54-.54.54-.2506296 0-.490994-.0995622-.6682159-.2767841l-1.69000387-1.6900039c-.21088312-.2108831-.21088312-.5527922 0-.7636753s.55279217-.2108831.76367537 0zm1.9995444-2.8605689c.2982338 0 .54.2417663.54.54v2.7c0 .2982338-.2417662.54-.54.54-.2982337 0-.54-.2417662-.54-.54v-2.7c0-.2982337.2417663-.54.54-.54zm-5.81792106-.9578077 1.90918831 1.9091883c.21088311.2108831.21088311.5527922 0 .7636753-.21088312.2108832-.55279221.2108832-.76367533 0l-1.90918831-1.9091883c-.21088312-.2108831-.21088312-.5527922 0-.7636753s.55279221-.2108831.76367533 0zm9.71379696-1.6866335c.2982337 0 .54.2417663.54.54 0 .2982338-.2417663.54-.54.54h-1.4658759c-.3304499 0-.6473663.0844478-.9280554.2430541-.2596487.1467172-.5890733.0551681-.7357905-.2044806s-.0551681-.5890734.2044806-.7357905c.441748-.2496143.9415047-.382783 1.4593653-.382783zm-10.94330424-3.5232258c.29741285.0221128.52058762.2811395.49847481.5785524-.00617297.0830251-.00927633.1665787-.00927633.2505585v2.4092056c0 .2982338-.24176623.54-.54.54-.29823376 0-.54-.2417662-.54-.54v-2.4092056c0-.1107064.00409546-.2209709.01224913-.3306361.02211281-.2974128.28113954-.5205876.57855239-.4984748zm12.81727684-.3419231c.2688735.1290365.3822338.4516063.2531973.7204798-.1211169.2523715-.1848159.5293332-.1848159.8164393v1.5705839c0 .2982338-.2417662.54-.54.54s-.54-.2417662-.54-.54v-1.5705839c0-.4497344.1004035-.8862862.2911388-1.2837217.1290365-.2688735.4516062-.3822338.7204798-.2531974zm-5.8506986-1.0885602c.1874516-.1874516.47843-.2082796.6888876-.0624838l.0747877.0624838 1.9091883 1.9091884c.2108831.2108831.2108831.5527922 0 .7636753-.1874517.1874516-.47843.2082796-.6888876.0624839l-.0747877-.0624839-1.9091883-1.9091883c-.2108831-.2108832-.2108831-.5527922 0-.7636754zm10.6188131-.3445207c.2982338 0 .54.2417662.54.54 0 .2982337-.2417662.54-.54.54h-2.7c-.2982337 0-.54-.2417663-.54-.54 0-.2982338.2417663-.54.54-.54zm-14.04569152-1.79162137c.29767299-.01828035.55380378.20821214.57208412.50588517.01828035.2976729-.20821213.5538037-.50588512.5720841-.8054625.0494641-1.55300967.387818-2.12104684.9454233-.21282832.2089199-.55472273.2057514-.76364253-.0070769-.20891981-.2128284-.20575134-.5547228.00707698-.7636426.75195956-.7381501 1.74388791-1.18711543 2.81141339-1.25267307zm14.09871022-.86753208 1.9091883 1.90918835c.2108831.2108831.2108831.5527922 0 .7636753s-.5527922.2108831-.7636753 0l-1.9091883-1.90918833c-.2108831-.21088311-.2108831-.5527922 0-.76367532s.5527922-.21088312.7636753 0zm-11.3940299-2.68096742c.2449014.17019602.3054621.50669896.1352661.75160036-.3836392.55203276-.5922179 1.20689731-.5922179 1.89440552v.39236656c0 .29823376-.2417662.54-.54.54-.2982337 0-.53999997-.24176624-.53999997-.54v-.39236656c0-.90963411.27696237-1.77919982.78535147-2.51073981.170196-.2449014.5066989-.30546208.7516003-.13526607zm7.5756533-1.1374092 1.9091883 1.90918831c.2108831.21088312.2108831.55279221 0 .76367532-.2108831.21088312-.5527922.21088312-.7636753 0l-1.9091883-1.90918831c-.2108831-.21088311-.2108831-.5527922 0-.76367532s.5527922-.21088312.7636753 0zm-2.9159257-.62069988c.2982338-.00007614.5400617.24162834.540138.53986209.0000761.29823376-.2416284.54006174-.5398621.54013791l-1.8455834.00040863c-.2638493.0040911-.5229864.03887627-.7738981.10305536-.2889318.07390402-.5830683-.10041043-.6569723-.38934221s.1004104-.58306831.3893422-.65697233c.332769-.08511687.6761063-.13120462 1.0330183-.1366759z" fill="#74a2ab"/><path d="m28.3257459 23.1022644c-.0872528.0872528-.1246469.2056673-.1059498.3240817l.2033071 1.251734c.0626729.3858688-.1993291.7494837-.5851979.8121567-.0021711.0003526-.0043438.0006951-.0065182.0010275l-1.2506967.1911893c-.1184145.018697-.2243643.0934851-.2742231.1994349l-.5764408 1.1408725c-.1762947.3489166-.6020626.4888543-.9509792.3125596-.0011884-.0006005-.0023751-.0012043-.0035602-.0018115l-1.1302294-.5790928c-.1059498-.0560911-.236829-.0560911-.3427788 0l-1.1226724.5772606c-.3476595.1787611-.7744077.0418419-.9531687-.3058176-.0009139-.0017772-.0018202-.0035584-.002719-.0053434l-.5701848-1.132395c-.0560911-.1059498-.1558085-.1807379-.274223-.1994349l-1.2649085-.1961409c-.3863086-.0599023-.6509132-.4216277-.5910109-.8079363.0002594-.0016732.0005249-.0033455.0007963-.0050168l.2035527-1.2532459c.018697-.1184144-.018697-.2430613-.1059498-.3240817l-.8972919-.8933039c-.2770409-.2758097-.2780391-.7239836-.0022295-1.0010245.0011106-.0011156.0022249-.0022274.0033429-.0033355l.9024108-.8944249c.0872528-.0872528.1246469-.2056672.1059498-.3240817l-.2069903-1.2499031c-.0638693-.3856726.1970037-.7500983.5826763-.8139676.0028919-.0004789.0057868-.0009399.0086844-.0013828l1.248503-.190854c.1184145-.018697.2243643-.0934851.274223-.1994349l.5818007-1.1435394c.177268-.3484232.6034248-.4871719.951848-.309904l.001798.000918 1.1319953.5799976c.1059498.0560911.2368289.0560911.3427787 0l1.1226725-.5772606c.3476595-.1787611.7744076-.0418419.9531687.3058176.0009139.0017773.0018202.0035584.002719.0053434l.5701848 1.132395c.0560911.1059498.1558085.1807379.274223.199435l1.2506968.1911893c.3864363.059073.6518166.4202297.5927435.806666-.0003323.0021743-.0006748.0043471-.0010275.0065182l-.2033071 1.2517339c-.018697.1184145.018697.2430613.1059498.3240818l.9035367.8955408c.2776518.2751947.2796437.7233653.004449 1.0010171-.0007382.0007448-.001478.0014879-.0022195.0022294z" fill="#f7d776"/><path d="m21.737742 23.6262791c-.176995-.2591299-.1104114-.612679.1487186-.789674s.6126791-.1104114.789674.1487186c.1609501.2356394.4063537.349507.7982967.349507.2280742 0 .3988767-.0577452.5359827-.1739011.1160149-.0982877.1633104-.1988509.1633104-.3428654 0-.0872023-.0113358-.1490676-.0281325-.185582-.0168636-.0366597-.0404417-.0668098-.0754303-.0952682-.0569245-.0463003-.1328655-.0898674-.228494-.1290688-.1232269-.050515-.2717215-.0997235-.4485391-.1480641l-.1413319-.0398501c-.2158904-.0590007-.4074345-.122622-.5756398-.1915753-.1959968-.0803459-.367813-.1796202-.5145191-.2989455-.1691015-.1375408-.3008707-.3065204-.390774-.5019609-.0894296-.1944107-.1321799-.4152397-.1321799-.6604928 0-.4795376.1954082-.8966533.5651884-1.2099307.2059688-.1744964.4417589-.2980939.7023592-.369675v-.3812334c0-.3138082.2543917-.5682.5681999-.5682s.5681999.2543918.5681999.5682v.3679496c.4911532.1111346.8888442.3752593 1.1684894.7846745.176995.25913.1104114.6126791-.1487186.7896741-.2591299.176995-.6126791.1104114-.789674-.1487186-.1609501-.2356394-.4063537-.349507-.7982967-.349507-.2280742 0-.3988767.0577452-.5359827.1739011-.1160149.0982877-.1633103.1988509-.1633103.3428654 0 .0872023.0113357.1490676.0281324.1855819.0168636.0366598.0404417.0668099.0754303.0952683.0569245.0463002.1328655.0898673.2284941.1290688.1232268.050515.2717215.0997235.448539.148064l.1413319.0398502c.2158905.0590007.4074345.122622.5756398.1915752.1959968.0803459.367813.1796203.5145191.2989455.1691015.1375408.3008707.3065204.390774.501961.0894296.1944106.1321799.4152396.1321799.6604928 0 .4795376-.1954081.8966533-.5651884 1.2099306-.2059803.1745062-.4417704.2980974-.7023592.3696749v.4074498c0 .3138081-.2543917.5681999-.5681999.5681999s-.5681999-.2543918-.5681999-.5681999v-.3941676c-.4911316-.1111293-.8888231-.3752266-1.1684894-.7846728z" fill="#007b3d"/></g></svg>