<svg height="32" viewBox="0 0 32 32" width="32" xmlns="http://www.w3.org/2000/svg"><g fill="none" fill-rule="evenodd"><path d="m16.45 5.66961686-.2179739.0047679c-2.6014355.11403167-4.6754871 2.25915205-4.6754871 4.88869314l-.000539.9929221-.9929221.000539c-2.7025839 0-4.89346104 2.1908771-4.89346104 4.893461v4.1070649c0 .2784774.11062468.545549.30753788.7424622l4.98692206 4.9869221c.1969132.1969132.4639848.3075378.7424622.3075378.5798989 0 1.05-.470101 1.05-1.05v-4.800526c0-1.1597979.940202-2.1 2.1-2.1h3.186922c.3313709 0 .6-.2686291.6-.6v-3.186922c0-1.159798.9402021-2.1 2.1-2.1h4.800526c.2784774 0 .545549-.1106247.7424622-.3075379.4100505-.4100505.4100505-1.0748738 0-1.4849243l-4.9869221-4.98692206c-.1969132-.1969132-.4639848-.30753788-.7424622-.30753788z" fill="#ec4800" fill-rule="nonzero"/><path d="m10.7696169 11.256539h.4869221v-.4869221c0-2.98233769 2.4176623-5.40000004 5.4-5.40000004h2.286922l5.8869221 5.88692214h-4.0869221c-1.9882251 0-3.6 1.6117749-3.6 3.6v2.286922h-2.286922c-1.9882251 0-3.6 1.6117749-3.6 3.6v4.0869221l-5.88692214-5.8869221v-2.286922c0-2.9823377 2.41766235-5.4 5.40000004-5.4z" fill="#fbd7c7"/><path d="m13.0402644 6.75925037 5.3930016 5.33619863c-.7884288.6603782-1.289805 1.6521827-1.289805 2.76109v2.286922l-.0218441-.0002106-5.919-5.887.0539221.0002886v-.4869221c0-1.59143203.6884274-3.02207317 1.7837254-4.01036653z" fill="#f5b395"/><path d="m6.91392216 12.8758464 5.37312784 5.3461599c-.6374098.6494762-1.030511 1.5395586-1.030511 2.5214547v4.0869221l-5.88692214-5.8869221v-2.286922c0-1.4720937.58905102-2.8066071 1.5443053-3.7806926z" fill="#f5b395"/><path d="m13.5506977 15.4594549.8189192.819162-.1146121.0029873c-2.0758821.1020347-3.740873 1.7670255-3.8429077 3.8429077l-.0049565.2021358-.0005237 1.8539692-.90000004-.9.00052378-.9539692c0-2.4242004 1.74263986-4.4413855 4.04355706-4.8671928zm-1.62-1.62.8189192.819162-.1146121.0029873c-2.0758821.1020347-3.74087297 1.7670255-3.84290766 3.8429077l-.0049565.2021358-.00052378 1.8539692-.9-.901.00052378-.9529692c0-2.4242004 1.74263984-4.4413855 4.04355706-4.8671928zm-1.62-1.62.8189192.819162-.1146121.0029873c-2.07588215.1020347-3.74087297 1.7670255-3.84290766 3.8429077l-.0049565.2021358-.00052378 1.8529692-.9-.9.00052378-.9529692c0-2.4242004 1.74263984-4.4413855 4.04355706-4.8671928zm10.9529192-2.72983804.9.90000004-1.8195542.0001087c-2.1689728 0-3.9397173 1.7050181-4.0450435 3.8478642l-.0044023.1480271-.823101-.822904c.401752-2.2470472 2.3198033-3.96862777 4.6578261-4.06841394l.2147207-.00457332zm-1.621-1.62.901.9-1.8195542.00010878c-2.1689728 0-3.9397173 1.70501806-4.0450435 3.84786416l-.0044023.1480271-.823101-.822904c.401752-2.24704724 2.3198033-3.96862777 4.6578261-4.06841394l.2147207-.00457332zm-1.62-1.62.9.9-1.8185542.00010878c-2.1689728 0-3.9397173 1.70501807-4.0450435 3.84786416l-.0044023.1480271-.823101-.822904c.401752-2.24704724 2.3198033-3.96862777 4.6578261-4.06841394l.2147207-.00457332z" fill="#fbceba"/><path d="m10.9212779 16.8625186.6381034.6347289c-.6690242.6850861-1.0971111 1.6064996-1.1472842 2.6272644l-.0049565.2021358-.0005237 1.8539692-.90000004-.9.00052378-.9539692c0-1.3486608.53935676-2.5713482 1.41413726-3.4641291zm-1.62484571-1.6150477.6381286.6347213c-.66625963.6845718-1.09241117 1.6040087-1.14246365 2.6223197l-.0049565.2021358-.00052378 1.8539692-.9-.901.00052378-.9529692c0-1.3461688.53736537-2.5668293 1.40929155-3.4591768zm-1.6231476-1.6167758.63742581.6354586c-.66405083.6841555-1.08865727 1.6020102-1.13861326 2.6183582l-.0049565.2021358-.00052378 1.8529692-.9-.9.00052378-.9529692c0-1.3445482.53607231-2.5638901 1.40614395-3.4559526zm9.38556241-2.8937246.6418786.6342338c-.8137823.7016548-1.3454341 1.721533-1.4017064 2.8663855l-.0044023.1480271-.823101-.822904c.1996126-1.1164574.7735468-2.1031954 1.5873311-2.8257424zm-1.6289622-1.6120233.6419886.63391173c-.8087841.70140717-1.3367862 1.71803477-1.3928542 2.85873087l-.0044023.1480271-.823101-.822904c.1988791-1.1123545.7693335-2.09594119 1.5783689-2.8177657zm-1.6289427-1.61200192.6409105.6346328c-.8031228.70109962-1.3269973 1.71403351-1.3828334 2.85001172l-.0044023.1480271-.823101-.822904c.1981455-1.10825155.7651303-2.08868347 1.5694262-2.80976762z" fill="#f5a987"/><g fill-rule="nonzero"><path d="m28.3257459 23.1022644c-.0872528.0872528-.1246469.2056673-.1059498.3240817l.2033071 1.251734c.0626729.3858688-.1993291.7494837-.5851979.8121567-.0021711.0003526-.0043438.0006951-.0065182.0010275l-1.2506967.1911893c-.1184145.018697-.2243643.0934851-.2742231.1994349l-.5764408 1.1408725c-.1762947.3489166-.6020626.4888543-.9509792.3125596-.0011884-.0006005-.0023751-.0012043-.0035602-.0018115l-1.1302294-.5790928c-.1059498-.0560911-.236829-.0560911-.3427788 0l-1.1226724.5772606c-.3476595.1787611-.7744077.0418419-.9531687-.3058176-.0009139-.0017772-.0018202-.0035584-.002719-.0053434l-.5701848-1.132395c-.0560911-.1059498-.1558085-.1807379-.274223-.1994349l-1.2649085-.1961409c-.3863086-.0599023-.6509132-.4216277-.5910109-.8079363.0002594-.0016732.0005249-.0033455.0007963-.0050168l.2035527-1.2532459c.018697-.1184144-.018697-.2430613-.1059498-.3240817l-.8972919-.8933039c-.2770409-.2758097-.2780391-.7239836-.0022295-1.0010245.0011106-.0011156.0022249-.0022274.0033429-.0033355l.9024108-.8944249c.0872528-.0872528.1246469-.2056672.1059498-.3240817l-.2069903-1.2499031c-.0638693-.3856726.1970037-.7500983.5826763-.8139676.0028919-.0004789.0057868-.0009399.0086844-.0013828l1.248503-.190854c.1184145-.018697.2243643-.0934851.274223-.1994349l.5818007-1.1435394c.177268-.3484232.6034248-.4871719.951848-.309904l.001798.000918 1.1319953.5799976c.1059498.0560911.2368289.0560911.3427787 0l1.1226725-.5772606c.3476595-.1787611.7744076-.0418419.9531687.3058176.0009139.0017773.0018202.0035584.002719.0053434l.5701848 1.132395c.0560911.1059498.1558085.1807379.274223.199435l1.2506968.1911893c.3864363.059073.6518166.4202297.5927435.806666-.0003323.0021743-.0006748.0043471-.0010275.0065182l-.2033071 1.2517339c-.018697.1184145.018697.2430613.1059498.3240818l.9035367.8955408c.2776518.2751947.2796437.7233653.004449 1.0010171-.0007382.0007448-.001478.0014879-.0022195.0022294z" fill="#f7d776"/><path d="m21.737742 23.6262791c-.176995-.2591299-.1104114-.612679.1487186-.789674s.6126791-.1104114.789674.1487186c.1609501.2356394.4063537.349507.7982967.349507.2280742 0 .3988767-.0577452.5359827-.1739011.1160149-.0982877.1633104-.1988509.1633104-.3428654 0-.0872023-.0113358-.1490676-.0281325-.185582-.0168636-.0366597-.0404417-.0668098-.0754303-.0952682-.0569245-.0463003-.1328655-.0898674-.228494-.1290688-.1232269-.050515-.2717215-.0997235-.4485391-.1480641l-.1413319-.0398501c-.2158904-.0590007-.4074345-.122622-.5756398-.1915753-.1959968-.0803459-.367813-.1796202-.5145191-.2989455-.1691015-.1375408-.3008707-.3065204-.390774-.5019609-.0894296-.1944107-.1321799-.4152397-.1321799-.6604928 0-.4795376.1954082-.8966533.5651884-1.2099307.2059688-.1744964.4417589-.2980939.7023592-.369675v-.3812334c0-.3138082.2543917-.5682.5681999-.5682s.5681999.2543918.5681999.5682v.3679496c.4911532.1111346.8888442.3752593 1.1684894.7846745.176995.25913.1104114.6126791-.1487186.7896741-.2591299.176995-.6126791.1104114-.789674-.1487186-.1609501-.2356394-.4063537-.349507-.7982967-.349507-.2280742 0-.3988767.0577452-.5359827.1739011-.1160149.0982877-.1633103.1988509-.1633103.3428654 0 .0872023.0113357.1490676.0281324.1855819.0168636.0366598.0404417.0668099.0754303.0952683.0569245.0463002.1328655.0898673.2284941.1290688.1232268.050515.2717215.0997235.448539.148064l.1413319.0398502c.2158905.0590007.4074345.122622.5756398.1915752.1959968.0803459.367813.1796203.5145191.2989455.1691015.1375408.3008707.3065204.390774.501961.0894296.1944106.1321799.4152396.1321799.6604928 0 .4795376-.1954081.8966533-.5651884 1.2099306-.2059803.1745062-.4417704.2980974-.7023592.3696749v.4074498c0 .3138081-.2543917.5681999-.5681999.5681999s-.5681999-.2543918-.5681999-.5681999v-.3941676c-.4911316-.1111293-.8888231-.3752266-1.1684894-.7846728z" fill="#007b3d"/></g></g></svg>