<svg height="32" viewBox="0 0 32 32" width="32" xmlns="http://www.w3.org/2000/svg"><g fill="none" fill-rule="evenodd"><path d="m19.6494499 19.2705123h-2.5410245c-1.1045695 0-2 .8954305-2 2v2.5410245c0 1.1045695-.8954305 2-2 2h-4.00000003l-6.54102455-6.5410245h4c1.1045695 0 2-.8954305 2-2v-2.5410246c0-1.1045695.8954305-2 1.99999998-2h2.5410246c1.1045695 0 2-.8954305 2-2v-2.54102452c0-1.1045695.8954305-2 2-2h4l6.5410245 6.54102452h-4c-1.1045695 0-2 .8954305-2 2v2.5410246c0 1.1045695-.8954305 2-2 2z" fill="#caecaa"/><path d="m9.12800526 13.3409099 6.55752374 6.5241249c-.3568229.3612175-.5771036.8576228-.5771036 1.4054775v2.5410245c0 .5581916-.2286717 1.062974-.5974464 1.4257788l-6.55798718-6.5245317c.37871231-.3639199.614409-.8755708.614409-1.4422716v-2.5410246c0-.53936.21350264-1.0288537.56060444-1.3885778zm6.50318414-6.50071432 6.5574256 6.52327992c-.3344331.3574992-.5391651.8378469-.5391651 1.3660122v2.5410246c0 .5781198-.2452909 1.0989488-.6374755 1.4640898l-6.5586676-6.5247932c.4024573-.3658513.6551186-.8935802.6551186-1.4803212v-2.54102452c0-.51947576.1980507-.99269429.522764-1.3482676z" fill="#aed788"/><path d="m7.70684694 19.8966058 3.05951406 3.0425243-1.55970257-.0106078-2.82392415-2.8094843.18722846.0004771c.40237889 0 .78625538-.0792182 1.1368842-.2229093zm4.67588736-6.3185678 4.3836267 4.3610921-.0006267.1059079-.0275172.0016657c-.4002252.0231896-.7794018.1248368-1.1223787.2897903l-4.7831041-4.758456zm2.4517036-.5436896 4.711119 4.6843854c-.313561.2042157-.6879443.3228773-1.0900425.3228773l-.1367801-.0005731-4.5574362-4.5332233c.3920381-.0866433.7552652-.2499793 1.0731398-.4734663zm4.0032964-5.9973104 4.49 4.467-.0484927.0016412c-.4221705.0244611-.820921.1362198-1.1784687.3174933l-4.8130386-4.7861345z" fill="#c0e49e"/><path d="m9.51002874 17.7191362 4.36628936 4.3433644c-.0653718.4066332-.2124679.7859393-.4239055 1.1205353l-4.40055097-4.377715c.21954995-.3226017.37784771-.6902387.45816711-1.0861847zm.05983289-2.9400982 4.76111737 4.7366955c-.2042711.345113-.3413604.7346919-.3932605 1.1507294l-4.36785687-4.3454249zm6.46802137-3.5393452 4.4169786 4.3953452.0006528.4065731c0 .3295378-.0796997.6404608-.2208749.9145449l-4.6726522-4.6473258c.2238995-.3165722.3880116-.6784316.4758957-1.0691374zm.0729786-2.9256548 4.7336556 4.7080926c-.1996811.3518849-.3302812.7481085-.3733624 1.170233l-4.3602932-4.3373256z" fill="#a3d278"/><g fill-rule="nonzero"><path d="m28.3257459 23.1022644c-.0872528.0872528-.1246469.2056673-.1059498.3240817l.2033071 1.251734c.0626729.3858688-.1993291.7494837-.5851979.8121567-.0021711.0003526-.0043438.0006951-.0065182.0010275l-1.2506967.1911893c-.1184145.018697-.2243643.0934851-.2742231.1994349l-.5764408 1.1408725c-.1762947.3489166-.6020626.4888543-.9509792.3125596-.0011884-.0006005-.0023751-.0012043-.0035602-.0018115l-1.1302294-.5790928c-.1059498-.0560911-.236829-.0560911-.3427788 0l-1.1226724.5772606c-.3476595.1787611-.7744077.0418419-.9531687-.3058176-.0009139-.0017772-.0018202-.0035584-.002719-.0053434l-.5701848-1.132395c-.0560911-.1059498-.1558085-.1807379-.274223-.1994349l-1.2649085-.1961409c-.3863086-.0599023-.6509132-.4216277-.5910109-.8079363.0002594-.0016732.0005249-.0033455.0007963-.0050168l.2035527-1.2532459c.018697-.1184144-.018697-.2430613-.1059498-.3240817l-.8972919-.8933039c-.2770409-.2758097-.2780391-.7239836-.0022295-1.0010245.0011106-.0011156.0022249-.0022274.0033429-.0033355l.9024108-.8944249c.0872528-.0872528.1246469-.2056672.1059498-.3240817l-.2069903-1.2499031c-.0638693-.3856726.1970037-.7500983.5826763-.8139676.0028919-.0004789.0057868-.0009399.0086844-.0013828l1.248503-.190854c.1184145-.018697.2243643-.0934851.274223-.1994349l.5818007-1.1435394c.177268-.3484232.6034248-.4871719.951848-.309904l.001798.000918 1.1319953.5799976c.1059498.0560911.2368289.0560911.3427787 0l1.1226725-.5772606c.3476595-.1787611.7744076-.0418419.9531687.3058176.0009139.0017773.0018202.0035584.002719.0053434l.5701848 1.132395c.0560911.1059498.1558085.1807379.274223.199435l1.2506968.1911893c.3864363.059073.6518166.4202297.5927435.806666-.0003323.0021743-.0006748.0043471-.0010275.0065182l-.2033071 1.2517339c-.018697.1184145.018697.2430613.1059498.3240818l.9035367.8955408c.2776518.2751947.2796437.7233653.004449 1.0010171-.0007382.0007448-.001478.0014879-.0022195.0022294z" fill="#f7d776"/><path d="m21.737742 23.6262791c-.176995-.2591299-.1104114-.612679.1487186-.789674s.6126791-.1104114.789674.1487186c.1609501.2356394.4063537.349507.7982967.349507.2280742 0 .3988767-.0577452.5359827-.1739011.1160149-.0982877.1633104-.1988509.1633104-.3428654 0-.0872023-.0113358-.1490676-.0281325-.185582-.0168636-.0366597-.0404417-.0668098-.0754303-.0952682-.0569245-.0463003-.1328655-.0898674-.228494-.1290688-.1232269-.050515-.2717215-.0997235-.4485391-.1480641l-.1413319-.0398501c-.2158904-.0590007-.4074345-.122622-.5756398-.1915753-.1959968-.0803459-.367813-.1796202-.5145191-.2989455-.1691015-.1375408-.3008707-.3065204-.390774-.5019609-.0894296-.1944107-.1321799-.4152397-.1321799-.6604928 0-.4795376.1954082-.8966533.5651884-1.2099307.2059688-.1744964.4417589-.2980939.7023592-.369675v-.3812334c0-.3138082.2543917-.5682.5681999-.5682s.5681999.2543918.5681999.5682v.3679496c.4911532.1111346.8888442.3752593 1.1684894.7846745.176995.25913.1104114.6126791-.1487186.7896741-.2591299.176995-.6126791.1104114-.789674-.1487186-.1609501-.2356394-.4063537-.349507-.7982967-.349507-.2280742 0-.3988767.0577452-.5359827.1739011-.1160149.0982877-.1633103.1988509-.1633103.3428654 0 .0872023.0113357.1490676.0281324.1855819.0168636.0366598.0404417.0668099.0754303.0952683.0569245.0463002.1328655.0898673.2284941.1290688.1232268.050515.2717215.0997235.448539.148064l.1413319.0398502c.2158905.0590007.4074345.122622.5756398.1915752.1959968.0803459.367813.1796203.5145191.2989455.1691015.1375408.3008707.3065204.390774.501961.0894296.1944106.1321799.4152396.1321799.6604928 0 .4795376-.1954081.8966533-.5651884 1.2099306-.2059803.1745062-.4417704.2980974-.7023592.3696749v.4074498c0 .3138081-.2543917.5681999-.5681999.5681999s-.5681999-.2543918-.5681999-.5681999v-.3941676c-.4911316-.1111293-.8888231-.3752266-1.1684894-.7846728z" fill="#007b3d"/></g></g></svg>