<svg height="32" viewBox="0 0 32 32" width="32" xmlns="http://www.w3.org/2000/svg"><path d="m21.1084254 5.58846318c.1273039 0 .2504366.04045703.3522087.11425101l.0720553.06148492 6.5410246 6.54102459c.3543552.3543552.1412191.9445265-.3272568 1.0169137l-.0970073.0073503h-4c-.7277164 0-1.3257521.5552289-1.3935912 1.2651707l-.0064088.1348293-.0002519 1.3849755 1.0595133.5435605c.1059498.0560911.2368289.0560911.3427787 0l1.1226725-.5772606c.3160541-.1625101.6974707-.0641274.898513.2163052l.0573747.0948558.5701848 1.132395c.0560911.1059498.1558085.1807379.274223.199435l1.2506968.1911893c.3542333.0541503.6067459.3621347.6008701.7107438l-.0091541.1024404-.2033071 1.2517339c-.018697.1184145.018697.2430613.1059498.3240818l.9035367.8955408c.2776518.2751947.2796437.7233653.004449 1.0010171l-.9017533.9017632c-.0872528.0872528-.1246469.2056673-.1059498.3240817l.2033071 1.251734c.0574502.353713-.1579168.6887267-.4914274.7903801l-.1002887.0228041-1.2506967.1911893c-.1184145.018697-.2243643.0934851-.2742231.1994349l-.5764408 1.1408725c-.1602679.3171969-.526712.4616839-.8541599.35288l-.1003795-.0421319-1.1302294-.5790928c-.1059498-.0560911-.236829-.0560911-.3427788 0l-1.1226724.5772606c-.3160541.1625101-.6974707.0641274-.898513-.2163051l-.0573747-.0948559-.5701848-1.132395c-.0560911-.1059498-.1558085-.1807379-.274223-.1994349l-1.2649085-.1961409c-.3541162-.0549104-.6059673-.3634361-.5993433-.7120318l.0091287-.1009213.2035527-1.2532459c.018697-.1184144-.018697-.2430613-.1059498-.3240817l-.8972919-.8933039c-.2493369-.2482287-.275079-.6360725-.0766689-.9131218l.0777823-.0912382.9024108-.8944249c.0872528-.0872528.1246469-.2056672.1059498-.3240817l-.0199749-.1156307-1.6057726.0000491c-.7277164 0-1.3257521.5552289-1.3935912 1.2651706l-.0064088.1348294v2.5410245c0 1.3807119-1.0762386 2.5100548-2.4355719 2.5948848l-.1644281.0051152h-4.00000003c-.12730392 0-.2504366-.040457-.3522087-.114251l-.07205537-.0614849-6.54102455-6.5410246c-.35435523-.3543552-.14121917-.9445265.32725683-1.0169137l.09700724-.0073503h4c.72771637 0 1.3257521-.5552289 1.39359119-1.2651707l.00640881-.1348293v-2.5410246c0-1.3807118 1.07623858-2.5100547 2.43557188-2.5948848l.1644281-.0051152h2.5410246c.7277163 0 1.3257521-.5552289 1.3935912-1.2651706l.0064088-.1348294v-2.54102452c0-1.38071188 1.0762385-2.51005476 2.4355719-2.59488482l.1644281-.00511518zm2.3660059 12.44975422c-.2824273 0-.5167274.2060574-.5607631.476035l-.0074368.092165v.3812334c-.2606003.0715811-.4963904.1951786-.7023592.369675-.3697802.3132774-.5651884.7303931-.5651884 1.2099307 0 .2452531.0427503.4660821.1321799.6604928.0899033.1954405.2216725.3644201.390774.5019609.1467061.1193253.3185223.2185996.5145191.2989455.1121369.0459688.2346465.0895679.3678275.131008l.3491442.1004174c.1768176.0483406.3253122.0975491.4485391.1480641.0956285.0392014.1715695.0827685.228494.1290688.0349886.0284584.0585667.0586085.0754303.0952682.0167967.0365144.0281325.0983797.0281325.185582 0 .1440145-.0472955.2445777-.1633104.3428654-.137106.1161559-.3079085.1739011-.5359827.1739011-.391943 0-.6373466-.1138676-.7982967-.349507-.1769949-.25913-.530544-.3257136-.789674-.1487186s-.3257136.5305441-.1487186.789674c.244708.3582655.5797791.6052481.9887431.7358438l.1797463.048829v.3941676c0 .3138081.2543917.5681999.5681999.5681999.2824273 0 .5167274-.2060574.5607632-.476035l.0074367-.0921649v-.4074498c.2605888-.0715775.4963789-.1951687.7023592-.3696749.3697803-.3132773.5651884-.730393.5651884-1.2099306 0-.2452532-.0427503-.4660822-.1321799-.6604928-.0899033-.1954406-.2216725-.3644202-.390774-.501961-.1467061-.1193252-.3185223-.2185996-.5145191-.2989455-.1121369-.0459688-.2346465-.0895679-.3678275-.131008l-.3491442-.1004174c-.1768175-.0483405-.3253122-.097549-.448539-.148064-.0956286-.0392015-.1715696-.0827686-.2284941-.1290688-.0349886-.0284584-.0585667-.0586085-.0754303-.0952683-.0167967-.0365143-.0281324-.0983796-.0281324-.1855819 0-.1440145.0472954-.2445777.1633103-.3428654.137106-.1161559.3079085-.1739011.5359827-.1739011.3429501 0 .573706.0871799.7338604.2668348l.0644363.0826722c.1769949.25913.5305441.3257136.789674.1487186.25913-.176995.3257136-.5305441.1487186-.7896741-.2446895-.3582383-.5797579-.6052386-.988736-.7358427l-.1797534-.0488318v-.3679496c0-.3138082-.2543917-.5682-.5681999-.5682zm-15.09589586 1.0977172c-.42137062.4091832-.98092109.6768446-1.60195235.726285l-.20918227.0082927-2.55240082-.0005123 5.341 5.341 3.7524254.0005368c.3802113 0 .7250229-.1515646.9773119-.3975713zm6.50027786-6.5022982c-.4177598.3885888-.9635703.6413573-1.5671511.6880252l-.2032368.0078261h-2.5410246c-.3991197 0-.75923111.1670145-1.01425831.4349676l5.70713611 5.6772992c.4284102-.4329238 1.0078477-.7161037 1.6527858-.7640131l.195361-.0072291 1.4117726-.0000491-.002333-.0300862c-.0091856-.3136583.1913161-.5970133.489234-.6932284l.1114443-.0263082.9316547-.1433772zm5.9811867-5.8456364-3.7515746.00046318c-.4191872 0-.7953448.1842314-1.0519207.47614207l5.7066345 5.67550795c.4307071-.453891 1.0235046-.752464 1.6856721-.8029989l.2006386-.0076266 2.5515501-.0004877z"/></svg>