<svg height="32" viewBox="0 0 32 32" width="32" xmlns="http://www.w3.org/2000/svg"><path d="m23 4.19703403c1.3807119 0 2.5100548 1.07623859 2.5948848 2.43557191l.0051152.16442809v7.99999997c0 1.3807119-1.0762386 2.5100548-2.4355719 2.5948848l-.1644281.0051152h-1.330967v.3333414l1.9769011.0000519c.8178092 0 1.5532267.4979019 1.8569534 1.2572187l.9485562 2.3713906c.2051134.5127835-.0443025 1.094754-.557086 1.2998674-.1181203.0472481-.2441712.0715233-.3713907.0715233h-.938934l.2893206.5285713c.3728924.6836362.1209849 1.5401218-.5626513 1.9130143-.1656903.0903765-.3474036.1463376-.5342522.165107l-.1409293.0070602-1.2820644-.0005173.2980354.749009c.254468.6414717-.0592604 1.3677743-.700732 1.6222423-.0977661.0387833-.199839.0649897-.3037704.0781514l-.1569848.0099005h-11.1780092c-.69010136 0-1.24953903-.5594377-1.24953903-1.249539 0-.1051777.01327867-.2097212.0393681-.311182l.04868375-.1495732.29694815-.749009-1.0829772.0005173c-.77872149 0-1.41-.6312785-1.41-1.41 0-.1887358.0378858-.3750582.11088111-.5480795l.06128614-.127102.28738654-.5285713h-.937c-.55228475 0-1-.4477152-1-1 0-.1272194.0242752-.2532704.07152331-.3713907l.94855627-2.3713906c.3037267-.7593168 1.03914421-1.2572187 1.85695338-1.2572187l2.52996708-.0000519v-.3333414h-1.884033c-1.38071187 0-2.51005476-1.0762385-2.59488482-2.4355719l-.00511518-.1644281v-7.99999997c0-1.38071187 1.07623858-2.51005476 2.43557191-2.59488481l.16442809-.00511519zm-1.9375436 21.14662877h-10.324l-.4725091 1.1914972-.0034909.018267c0 .0182397.0098575.0341771.0245357.0427754l.0250033.0067636h11.1780092l.018267-.0034909c.0169545-.0067258.028134-.0217654.0307139-.0385798l-.0029328-.0257353zm2.1388814-2.6130686-14.40330484-.0001669-.02994242.0407901-.06549477.1045335-.52247467.9578703c-.01682542.0308466-.02564193.0654219-.02564193.1005589 0 .0966498.06529181.17805.15417369.2024986l.05582631.0075014h15.27104163c.035137 0 .0697124-.0088165.100559-.0256419.0848484-.046281.1250441-.142579.1039462-.2323153l-.0201471-.0526017-.5224747-.9578703c-.0281202-.0515538-.0603175-.1000433-.0960664-.1451567zm-12.3173048-3.8002188-2.52996708.0000519c-.29077659 0-.55551335.1573616-.6960807.4056478l-.04670065.0972397-.83928457 2.0964105h18.455l-.8382846-2.0964105c-.1079917-.2699793-.352419-.4573386-.6351524-.4956409l-.1076289-.0072466-1.9769011-.0000519.0003655.5595c0 .3313708-.2686291.6-.6.6-.2982337 0-.5456467-.2175897-.592147-.5026769l-.007853-.0973231-.0003655-.5595h-8.385l.0003207.5595c0 .3313708-.2686291.6-.6.6-.2982337 0-.5456467-.2175897-.592147-.5026769l-.007853-.0973231zm9.585-1.5333414h-8.385v.3333414h8.385zm2.530967-11.99999997h-14c-.72771638 0-1.3257521.55522888-1.39359119 1.26517066l-.00640881.13482934v7.99999997c0 .7277164.55522888 1.3257521 1.26517066 1.3935912l.13482934.0064088h1.884033l.0003207-.7166586c0-.3313709.2686292-.6.6-.6.2982338 0 .5456468.2175896.592147.5026768l.007853.0973232-.0003207.7166586h8.385l.0003655-.7166586c0-.3313709.2686292-.6.6-.6.2982338 0 .5456468.2175896.5921471.5026768l.0078529.0973232-.0003655.7166586h1.330967c.7277164 0 1.3257521-.5552288 1.3935912-1.2651706l.0064088-.1348294v-7.99999997c0-.72771637-.5552289-1.3257521-1.2651707-1.39359119zm-11.4522138 5.25705577c.9480033 0 1.7831713.6233418 2.0528488 1.5321786l.0777593.2620555c.0321132.1082244-.0489767.2168705-.1618649.2168705h-3.93748641c-.11288827 0-.19397815-.1086461-.16186494-.2168705l.07775929-.2620555c.26967753-.9088368 1.10484546-1.5321786 2.05284886-1.5321786zm10.3532138.5827668c.3313708 0 .6.2686291.6.6 0 .2982338-.2175896.5456467-.5026769.592147l-.0973231.007853h-6c-.3313708 0-.6-.2686292-.6-.6 0-.2982338.2175896-.5456468.5026769-.592147l.0973231-.007853zm-10.3830895-3.57166222c.7421808 0 1.3438373.60165642 1.3438373 1.34383723s-.6016565 1.34383719-1.3438373 1.34383719-1.3438372-.60165638-1.3438372-1.34383719.6016564-1.34383723 1.3438372-1.34383723zm10.3830895.21108956c.3313708 0 .6.26862915.6.6 0 .29823376-.2175896.54564675-.5026769.59214701l-.0973231.00785299h-6c-.3313708 0-.6-.26862915-.6-.6 0-.29823377.2175896-.54564676.5026769-.59214702l.0973231-.00785298z"/></svg>