<svg height="32" viewBox="0 0 32 32" width="32" xmlns="http://www.w3.org/2000/svg"><g fill="none" fill-rule="evenodd"><path d="m23 4.50414852c1.1045695 0 2 .8954305 2 2v7.99999998c0 1.1045695-.8954305 2-2 2h-1.115l.0000448-1.3323932-.0062331-.1003503c-.0493653-.3944616-.3859258-.6996497-.7937669-.6996497-.407841 0-.7444016.3051881-.7937668.6996497l-.0062332.1003503-.0000448 1.3323932h-7.985v-1.3323932l-.0062331-.1003503c-.0493653-.3944616-.3859259-.6996497-.7937669-.6996497s-.7444016.3051881-.7937669.6996497l-.0062331.1003503v1.3323932h-1.7c-1.1045695 0-2-.8954305-2-2v-7.99999998c0-1.1045695.8954305-2 2-2z" fill="#f7d776"/><path d="m9.76972546 23.4863515h12.26254904c.6558012 0 1.2455325.3992675 1.489091 1.0081636l.7606472 1.9016182c.1644805.4112011-.0355261.8778832-.4467272 1.0423636-.0947207.0378883-.195801.0573546-.2978182.0573546h-15.27293457c-.44287714 0-.8019-.3590229-.8019-.8019 0-.1020173.01946628-.2030976.05735454-.2978182l.76064728-1.9016182c.24355844-.6088961.83328973-1.0081636 1.48909091-1.0081636z" fill="#cba940"/><path d="m9.11865933 21.0408515h13.76268137c.7360282 0 1.397904.4481117 1.671258 1.1314968l.8537007 2.1342516c.184602.4615051-.0398723.9852785-.5013775 1.1698806-.1063082.0425233-.2197541.064371-.3342516.064371h-17.14134063c-.49705628 0-.9-.4029437-.9-.9 0-.1144975.02184767-.2279434.06437097-.3342516l.85370065-2.1342516c.27335403-.6833851.93522978-1.1314968 1.67125804-1.1314968z" fill="#e1c05b"/><path d="m23.6459341 18.0408515c.8178092 0 1.5532267.4979019 1.8569534 1.2572186l.9485562 2.3713907c.2051134.5127835-.0443025 1.094754-.557086 1.2998674-.1181203.0472481-.2441712.0715233-.3713907.0715233h-19.04593404c-.55228475 0-1-.4477153-1-1 0-.1272194.0242752-.2532704.07152331-.3713907l.94855627-2.3713907c.3037267-.7593167 1.03914421-1.2572186 1.85695338-1.2572186l2.34496708-.0000962.000967 1.1405.0062331.1003503c.0493653.3944615.3859259.6996497.7937669.6996497s.7444016-.3051882.7937669-.6996497l.0062331-.1003503-.000967-1.1405h7.986l.0000118 1.1405.0062332.1003503c.0493652.3944615.3859258.6996497.7937668.6996497.4078411 0 .7444016-.3051882.7937669-.6996497l.0062331-.1003503-.0000118-1.1405z" fill="#f7d776"/><path d="m11.5477862 10.3612042c.9480033 0 1.7831713.6233418 2.0528488 1.5321787l.0777593.2620555c.0321132.1082243-.0489767.2168705-.1618649.2168705h-3.93748641c-.11288827 0-.19397815-.1086462-.16186494-.2168705l.07775929-.2620555c.26967753-.9088369 1.10484546-1.5321787 2.05284886-1.5321787zm10.3532138.5827669c.3313708 0 .6.2686291.6.6 0 .2982337-.2175896.5456467-.5026769.592147l-.0973231.007853h-6c-.3313708 0-.6-.2686292-.6-.6 0-.2982338.2175896-.5456468.5026769-.592147l.0973231-.007853zm-10.3830895-3.57166224c.7421808 0 1.3438373.60165643 1.3438373 1.34383723 0 .74218081-.6016565 1.34383721-1.3438373 1.34383721s-1.3438372-.6016564-1.3438372-1.34383721c0-.7421808.6016564-1.34383723 1.3438372-1.34383723zm10.3830895.21108956c.3313708 0 .6.26862915.6.6 0 .29823377-.2175896.54564675-.5026769.59214701l-.0973231.00785299h-6c-.3313708 0-.6-.26862915-.6-.6 0-.29823376.2175896-.54564675.5026769-.59214701l.0973231-.00785299z" fill="#83660a" fill-rule="nonzero"/></g></svg>