<svg height="32" viewBox="0 0 32 32" width="32" xmlns="http://www.w3.org/2000/svg"><path d="m22.0968361 26.0044291.1916978.4780614c.1332292.3330729-.0287762.7110854-.3618491.8443145-.0767237.0306895-.1585987.0464572-.2412327.0464572h-11.371077c-.35873046 0-.64953898-.2908085-.64953898-.649539 0-.082634.01576769-.164509.04645718-.2412327l.19054282-.4780614zm2.3050541-2.7.1482349.3665595c.1675855.4147742-.0328005.8868701-.4475748 1.0544557-.0964224.0389586-.199445.0589848-.3034405.0589848h-15.59821963c-.44735065 0-.81-.3626494-.81-.81 0-.1039955.0200262-.2070181.05898478-.3034405l.14701522-.3665595zm-13.7025702-5.1410846.00068 1.1405.0062331.1003503c.0493653.3944616.3859259.6996497.7937669.6996497s.7444016-.3051881.7937669-.6996497l.0062331-.1003503-.00068-1.1405h7.985l.0007248 1.1405.0062332.1003503c.0493652.3944616.3859258.6996497.7937668.6996497.4078411 0 .7444016-.3051881.7937669-.6996497l.0062331-.1003503-.0007248-1.1405 1.8783013.0000962c.7582273 0 1.4512553.4287691 1.7897016 1.1072694l.7262079 1.4558653c.2465208.4942125.045727 1.0946954-.4484855 1.3412162-.1386345.069153-.2914405.1051491-.4463653.1051491h-18.76736c-.55228475 0-1-.4477152-1-1 0-.1549247.03599613-.3077307.10514916-.4463653l.72620791-1.4558653c.33844636-.6785003 1.03147436-1.1072694 1.78970167-1.1072694zm12.30068-13.53660672c1.1045695 0 2 .8954305 2 2v8.00000002c0 1.1045695-.8954305 2-2 2h-1.115l.0000448-1.3323933-.0062331-.1003503c-.0493653-.3944615-.3859258-.6996497-.7937669-.6996497-.407841 0-.7444016.3051882-.7937668.6996497l-.0062332.1003503-.0000448 1.3323933h-7.985v-1.3323933l-.0062331-.1003503c-.0493653-.3944615-.3859259-.6996497-.7937669-.6996497s-.7444016.3051882-.7937669.6996497l-.0062331.1003503v1.3323933h-1.7c-1.1045695 0-2-.8954305-2-2v-8.00000002c0-1.1045695.8954305-2 2-2zm-11.4522138 5.85705572c-.8922385 0-1.68452585.5521644-1.9994807 1.374828l-.05336816.1573506-.07775929.2620556c-.026761.0901869.02509124.1806668.10844754.2083215l.0534174.0085489h3.93748641c.0940735 0 .1660648-.0754487.1688648-.163228l-.0069999-.0536424-.0777593-.2620556c-.2696775-.9088368-1.1048455-1.5321786-2.0528488-1.5321786zm10.3532138.5827668h-6l-.0973231.007853c-.2850873.0465003-.5026769.2939133-.5026769.592147 0 .2982338.2175896.5456468.5026769.5921471l.0973231.0078529h6l.0973231-.0078529c.2850873-.0465003.5026769-.2939133.5026769-.5921471 0-.3313708-.2686292-.6-.6-.6zm-10.3830895-3.57166217c-.7421808 0-1.3438372.60165642-1.3438372 1.34383723 0 .7421808.6016564 1.34383724 1.3438372 1.34383724s1.3438373-.60165644 1.3438373-1.34383724c0-.74218081-.6016565-1.34383723-1.3438373-1.34383723zm10.3830895.21108955h-6l-.0973231.00785299c-.2850873.04650026-.5026769.29391325-.5026769.59214701 0 .29823377.2175896.54564676.5026769.59214702l.0973231.00785298h6l.0973231-.00785298c.2850873-.04650026.5026769-.29391325.5026769-.59214702 0-.33137085-.2686292-.6-.6-.6z" fill-rule="evenodd"/></svg>