<svg height="32" viewBox="0 0 32 32" width="32" xmlns="http://www.w3.org/2000/svg"><g fill="none" fill-rule="evenodd"><path d="m25.9486076 14.5211639v12.8602042h-20.56852558v-12.8602042z" fill="#a1e0f1"/><path d="m27.3532475 14.6053724c-6.5854796-.0005327-13.1709592-.0011138-19.75632932-.0011623-.12720805 0-.25452557.0061988-.38173362.0096371-1.07010212.0000969-2.14020424.0000969-3.24391468.0000969v-3.553175h.69285691c5.70783171 0 11.41577281.0003874 17.12371391-.0014044.2127068-.0000484.425304-.0208722.6381203-.0320106h4.9272865z" fill="#00b1dd"/><path d="m13.835858 8.93869766c0-.56376.04944-1.126128-.012576-1.675968-.076896-.68208-.768576-1.186368-1.446-1.139856-.728352.050016-1.303056.620304-1.338144 1.32792-.036432.73488.451008 1.402512 1.156704 1.476528.543792.057024 1.098336.011376 1.640016.011376m4.308816.014304c.486 0 .965664.011088 1.444608-.002544.750048-.02136 1.3356-.609408 1.358736-1.345056.024528-.77976-.522048-1.399632-1.304928-1.47984-.697728-.071568-1.405056.450192-1.48656 1.174272-.060192.534816-.011856 1.081872-.011856 1.653168m-.382176 18.42897604c-1.179264 0-2.35848-.000384-3.537648-.000624-.001776-.095904-.00504-.191808-.00504-.28776-.00024-4.055712-.000144-8.111424-.000624-12.167184 0-.103776-.006096-.207552-.009312-.311328v-3.546432h-2.160432c-1.786368-.243456-3.06129598-1.62696004-3.14683198-3.41481604-.084528-1.766832 1.27094398-3.375072 3.04655998-3.614736 1.975104-.266592 3.739056 1.070976 4.023792 3.117552.037296-.115728.059664-.166416.069792-.219456.340176-1.781136 1.828176-2.981856 3.639888-2.93592 1.702848.043152 3.194256 1.456848 3.3792 3.128448.197232 1.782768-.999312 3.63297604-3.08016 3.93571204h-2.204496v3.550032c-.003024.103776-.008736.2076-.008736.311376-.00048 3.439872-.000096 6.879696-.000672 10.31952-.000096.711888-.003456 1.423728-.00528 2.135616" fill="#bb3600"/><g fill="#fefcfc"><path d="m18.1446548 8.95301606c0-.571296-.048336-1.118352.011856-1.653168.081504-.72408.78888-1.24584 1.486608-1.17432.782832.080256 1.329408.700128 1.30488 1.479888-.023088.7356-.60864 1.323696-1.358688 1.345056-.478992.013584-.958656.002544-1.444656.002544"/><path d="m13.835858 8.93869766c-.54168 0-1.096224.045648-1.640016-.011376-.705696-.074016-1.193136-.741648-1.156704-1.476528.035088-.707616.609792-1.277904 1.338144-1.32792.677424-.046512 1.369104.457776 1.446 1.139856.062016.54984.012576 1.112208.012576 1.675968"/></g></g></svg>