<svg height="32" viewBox="0 0 32 32" width="32" xmlns="http://www.w3.org/2000/svg"><path d="m5.38008202 28.2902009c-.29823376 0-.54564675-.2175896-.59214701-.5026769l-.00785299-.0973231-.00081214-12.1690139-.80798209.0015899c-.29824006 0-.54566252-.2175839-.59216461-.5026752l-.0078533-.0973248v-3.5531749c0-.2982338.21758961-.5456468.50267688-.592147l.09732312-.007853 5.535748.0010346c-.66360105-.6659851-1.09246032-1.55667555-1.18850056-2.56605069l-.01522183-.21324725c-.0994782-2.079326 1.48299132-3.95691352 3.56561661-4.23801614 1.6840455-.22730603 3.2299145.54710011 4.0741985 1.89451199l.0428894.07298773.052627-.08659812c.7310475-1.16163657 1.9939119-1.8942672 3.4499342-1.92442504l.2092806.0005c1.9921434.05048305 3.7412225 1.68160775 3.9603617 3.6622785.1403729 1.26882223-.3070445 2.49127862-1.171077 3.36430522l4.866121-.0006958c.2982338 0 .5456468.2175896.5921471.5026769l.0078529.0973231v3.5780182c0 .2982509-.2176135.5456719-.5027204.5921541l-.0973294.0078459-.8049278-.0000182.0003377 12.1760139c0 .2982338-.2175896.5456468-.5026769.592147l-.0973231.007853zm8.23718788-12.7684018h-7.6372699v11.5680231h7.6392699zm11.7307301 0h-6.9797301l-.006 11.5680231h6.9857301zm-13.4007301-3.553h-7.3762699v2.3530231l2.62797286.0010769.26492903-.0081588 6.14536801-.0009412-.0002699-2.3379769-1.6405803-.0038354zm10.5100508-.0334322-.3281928.020764-.3410988.0120666-1.7717592-.0003984-.0345879.0064674-1.604682-.0004443-.0047301 2.34h8.3807301v-2.378zm-2.945012-5.50753378-.1300756.00677196c-.6039246.06182269-1.1543871.54049144-1.2257031 1.17406144-.060192.534816-.011856 1.081872-.011856 1.653168l.965216.00417422c.160016-.00037689.319744-.00217422.479392-.00671822.750048-.02136 1.3356-.609408 1.358736-1.345056.022995-.731025-.4559569-1.32152344-1.1609889-1.45856953l-.1439391-.02127047zm-7.0079962.00151602-.1270305.00235738c-.728352.050016-1.303056.620304-1.338144 1.32792-.034155.68895.3921244 1.31879531 1.0270183 1.45582207l.1296857.02070593 1.640016.011376.0046457-.33799987c.0106721-.45020621.0323911-.89809613-.0172217-1.33796813-.067284-.59682-.605262-1.057518-1.1925263-1.13220778z"/></svg>