<svg height="32" viewBox="0 0 32 32" width="32" xmlns="http://www.w3.org/2000/svg"><path d="m19.6978418 3.71029908c1.9921434.05048305 3.7412225 1.68160775 3.9603617 3.6622785.1403729 1.26882223-.3070445 2.49127862-1.171077 3.36430522l4.866121-.0006958c.2982338 0 .5456468.2175896.5921471.5026769l.0078529.0973231v3.5780182c0 .2982509-.2176135.5456719-.5027194.5921541l-.0973291.0078459-.8049291-.0004061.0003377 12.1764018c0 .2982338-.2175896.5456468-.5026769.592147l-.0973231.007853h-20.56852558c-.29823376 0-.54564675-.2175896-.59214701-.5026769l-.00785299-.0973231-.00081214-12.1684018-.80798209.0009778c-.29824006 0-.54566252-.2175839-.59216461-.5026752l-.0078533-.0973248v-3.5531749c0-.2982338.21758961-.5456468.50267688-.592147l.09732312-.007853 5.535748.0010346c-.66360105-.6659851-1.09246032-1.55667555-1.18850056-2.56605069l-.01522183-.21324725c-.0994782-2.079326 1.48299132-3.95691352 3.56561661-4.23801614 1.6840455-.22730603 3.2299145.54710011 4.0741985 1.89451199l.0428894.07298773.052627-.08659812c.7310475-1.16163657 1.9939119-1.8942672 3.4499342-1.92442504zm-6.0805719 11.81150002h-7.6372699v11.5680231h7.6392699zm3.553 0h-2.352l.0007301 11.5680231h2.345l.0030382-.9381698zm8.1777301 0h-6.9797301l-.006 11.5680231h6.9857301zm-20.777-3.553v2.3530231h2.65626988l.23663201-.0070819 6.14536801-.0009412-.0002699-2.345zm12.6052699-.001h-2.367l.002 2.346h2.365zm1.196-.0319769v2.378h8.3807301v-2.378zm1.295164-7.02590845c-1.4545298-.03687964-2.6469962.87464997-2.9948004 2.26466799l-.043492.19886235-.0357615.12666842-.0493415.14941249c-.1955711.60684924-1.0774929.5301399-1.1653525-.10136206-.2378783-1.70978064-1.6922464-2.82928153-3.3492587-2.60562435-1.468622.19822745-2.59707978 1.53713365-2.52750278 2.99145506.06869267 1.43580002 1.04166238 2.54834755 2.37201188 2.81372225l.1283335.0210832h7.958l.1169878-.0200901c1.5558685-.3183951 2.5552215-1.7346868 2.3882232-3.24417374-.15357-1.38802924-1.40969-2.55943905-2.798047-2.59462151zm-.1551252 1.51791937.1307813.0065614c.78288.080208 1.329456.70008 1.304928 1.47984-.023136.735648-.608688 1.323696-1.358736 1.345056l-.479392.00671822-.965216-.00417422c0-.571296-.048336-1.118352.011856-1.653168.07641-.678825.7028606-1.17982969 1.3557787-1.1808334zm-7.1350267.0038734c.677424-.046512 1.369104.457776 1.446 1.139856.0496128.439872.0278938.88776192.0172217 1.33796813l-.0046457.33799987-1.640016-.011376c-.705696-.074016-1.193136-.741648-1.156704-1.476528.035088-.707616.609792-1.277904 1.338144-1.32792z"/></svg>