<svg height="32" viewBox="0 0 32 32" width="32" xmlns="http://www.w3.org/2000/svg"><path d="m13.13 7.25375c.33 0 .6.27.6.6s-.27.6-.6.6h-3.8c-1.23 0-2.23 1-2.23 2.24v9.68c0 1.23 1 2.23 2.23 2.23h4.36c.33 0 .6.27.6.6v2.8l3.22-3.22c.11-.12.26-.18.42-.18h4.74c1.23 0 2.23-1 2.23-2.23v-8.64c0-.33.27-.6.6-.6s.6.26.6.59v8.64c0 1.89-1.54 3.43-3.43 3.43h-4.5l-4.07 4.07c-.11.12-.26.18-.42.18-.08 0-.16-.02-.23-.05-.22-.09-.37-.31-.37-.55v-3.65h-3.75c-1.89 0-3.43-1.54-3.43-3.43v-9.68c0-1.89 1.54-3.43 3.43-3.43zm7.73-2.51c1.05-1.05 2.76-1.05 3.81 0 .51.51.79 1.19.79 1.91s-.28 1.4-.79 1.91l-10.4 10.4c-.08.07-.18.13-.29.16l-3.92.96c-.04.01-.09.02-.14.02-.15 0-.31-.07-.42-.18-.15-.15-.21-.37-.16-.57l.95-3.92v-.01l.02-.05c.04-.09.09-.17.16-.24zm-.68 2.38-8.6671739 8.6860848-.7728261 2.8639152 2.8584914-.7637632 8.7015086-8.6762368zm3.64-1.53c-.58-.58-1.53-.58-2.11 0l-.68.69 2.11 2.11.68-.68c.28-.29.44-.66.44-1.06s-.16-.78-.44-1.06z"/></svg>