<svg height="32" viewBox="0 0 32 32" width="32" xmlns="http://www.w3.org/2000/svg"><path d="m24.6685281 4.74522186c.505837.50583695.7914719 1.19136075.7914719 1.90852814 0 .47556325-.1253485.93188914-.3612112 1.34025499.6897326.59767511 1.1454806 1.46090919 1.2070685 2.42493601l.0071427.2241819v9.79c0 1.8821-1.48016 3.4147178-3.327619 3.5148011l-.192381.0051989h-5.1508508l-4.7875381 4.9127542v-4.9017542h-4.6476111c-1.8821 0-3.41471778-1.48016-3.51480107-3.327619l-.00519893-.192381v-9.79c0-1.8821 1.48016-3.41471778 3.32761896-3.51480108l.19238104-.00519892 10.267-.0003729 1.7030712-1.7059735.6844007-.68255464c1.0486291-1.04862915 2.7584271-1.04862915 3.8070562 0zm-4.4885281 2.37852814-8.6671739 8.6860848-.7728261 2.8639152 2.8584914-.7637632 8.7015086-8.6762368zm2.585-1.965c-.3346875 0-.669375.11101563-.9420947.33304688l-.1129053.10195312-.68.69 2.11 2.11.68-.68.0992969-.11240234c.2182031-.27056641.3407031-.59759766.3407031-.94759766 0-.4-.16-.78-.44-1.06-.25375-.25375-.5783203-.39648437-.9117432-.42820312z"/></svg>