<svg height="32" viewBox="0 0 32 32" width="32" xmlns="http://www.w3.org/2000/svg"><g fill="none" fill-rule="evenodd"><path d="m8.207 7.1341229c-1.936 0-3.52 1.573-3.52 3.52v9.79c0 1.936 1.573 3.52 3.52 3.52h4.6476111v4.9017542l4.7875381-4.9127542h5.1508508c1.936 0 3.52-1.573 3.52-3.52v-9.79c0-1.925-1.573-3.509-3.509-3.509z" fill="#c2a3e2" fill-rule="nonzero"/><path d="m16.3756361 20.7966259-3.2097723-2.2872578 3.2263692-2.2872578h9.920767c.0003121 2.7916508.0003121 4.2304874 0 4.3165097s-.0058444.1720242-.0165968.2580059z" fill="#a887ca"/><path d="m17.1513629 17.766342-3.8987231.664052.6640521-3.898723 9.1397433-9.13974333 3.234671 3.23467098z" fill="#fcca2e"/><path d="m12.6187677 16.9931601 2.3762892.0015429-1.1988895 1.7763189z" fill="#252d4f" transform="matrix(.70710678 .70710678 -.70710678 .70710678 16.688499 -4.525418)"/><path d="m17.4120635 4.53051792h2.2872578l.0530062 13.98093648-1.2369298-.0047798-1.1033342-1.5577997z" fill="#af8c1d" transform="matrix(.70710678 .70710678 -.70710678 .70710678 13.589168 -9.765182)"/><path d="m22.6572223 5.84852091h4.5745156v1.78006576h-4.5745156z" fill="#fff" transform="matrix(.70710678 .70710678 -.70710678 .70710678 12.070946 -15.664734)"/><path d="m26.6188467 8.26396399-3.2296505-3.2687189 1.0678683-1.08089111.0260456-.02604557c.4297518-.42975189 1.0027544-.65113922 1.6018024-.65113922.5990481 0 1.1720506.2474329 1.5887798.67718479.8855493.91159491.8855493 2.38316956 0 3.28174168z" fill="#fa8bb9" fill-rule="nonzero"/></g></svg>