<svg height="32" viewBox="0 0 32 32" width="32" xmlns="http://www.w3.org/2000/svg"><path d="m12.6671505 27.3935417c-.0821398 0-.1642796-.0102674-.236152-.0308024-.4825714-.1232097-.7905958-.5647113-.7392584-1.0575502l1.2731673-12.1772286-4.94892432-1.2012949c-.5544438-.1334773-.90353804-.6365837-.84193317-1.2012949.07187234-.5647113.52364136-.9754104 1.09862012-.9754104h15.45255407c.5647113 0 1.0267478.4106991 1.0986201.9754104.0718723.5647112-.2874894 1.0678176-.8419332 1.2012949l-4.9489243 1.2012949 1.2731673 12.1874961c.0513374.4928389-.256687.9343404-.7392584 1.0575502-.4825715.1129422-.9651429-.1334772-1.1396901-.5852463l-2.4333922-6.1194167-2.4231247 6.1091493c-.1540122.3798966-.5133739.6160486-.9035381.6160486zm3.3266628-17.45471218c-1.4682493 0-2.6695442-1.2012949-2.6695442-2.66954422s1.2012949-2.66954422 2.6695442-2.66954422 2.6695442 1.2012949 2.6695442 2.66954422-1.2012949 2.66954422-2.6695442 2.66954422z"/></svg>