<svg height="32" viewBox="0 0 32 32" width="32" xmlns="http://www.w3.org/2000/svg"><path d="m12.6671505 27.3935417c-.0821398 0-.1642796-.0102674-.236152-.0308024-.4825714-.1232097-.7905958-.5647113-.7392584-1.0575502l1.2731673-12.1772286-4.94892432-1.2012949c-.5544438-.1334773-.90353804-.6365837-.84193317-1.2012949.07187234-.5647113.52364136-.9754104 1.09862012-.9754104h15.45255407c.5647113 0 1.0267478.4106991 1.0986201.9754104.0718723.5647112-.2874894 1.0678176-.8419332 1.2012949l-4.9489243 1.2012949 1.2731673 12.1874961c.0513374.4928389-.256687.9343404-.7392584 1.0575502-.4825715.1129422-.9651429-.1334772-1.1396901-.5852463l-2.4333922-6.1194167-2.4231247 6.1091493c-.1540122.3798966-.5133739.6160486-.9035381.6160486zm-3.33693026-15.4012166 4.43555036 1.0780851c.2977569.0718724.5031064.3593618.472304.6673861l-1.13969 10.8835264 2.32045-5.8421948c.0924073-.236152.3182918-.3901642.5749787-.3901642.256687 0 .4825715.1540122.5749788.3901642l2.3204499 5.8421948-1.13969-10.8835264c-.0308024-.3080243.1642797-.5852462.472304-.6673861l4.4355504-1.0780851zm6.66359306-2.05349558c-1.4682493 0-2.6695442-1.2012949-2.6695442-2.66954422s1.2012949-2.66954422 2.6695442-2.66954422 2.6695442 1.2012949 2.6695442 2.66954422-1.2012949 2.66954422-2.6695442 2.66954422zm0-4.10699111c-.7905958 0-1.4374469.6468511-1.4374469 1.43744689s.6468511 1.43744689 1.4374469 1.43744689 1.4374469-.6468511 1.4374469-1.43744689-.6468511-1.43744689-1.4374469-1.43744689z"/></svg>