<svg height="32" viewBox="0 0 32 32" width="32" xmlns="http://www.w3.org/2000/svg"><g fill="none"><path d="m24.4741912 10.2529843c1.0519873 0 1.2645094 1.4489378.330901 1.7866608l-.1128279.0338909-5.5932611 1.3594732 1.4525809 13.8714939c.1077766 1.0292179-1.2757639 1.4072705-1.7299267.5386721l-.0465149-.1016714-2.8615956-7.2046678-2.861608 7.2046678c-.3819994.9617597-1.7830319.6548135-1.7824027-.3253531l.005961-.1116476 1.4525908-13.8714915-5.59327092-1.3594756c-1.02222598-.2484577-.88652653-1.7065976.10043284-1.8142672l.11764026-.0062845zm-8.5606505-6.86431484c1.5256152 0 2.7700102 1.24439499 2.7700102 2.77001018 0 1.5256152-1.244395 2.77001019-2.7700102 2.77001019s-2.7700102-1.24439499-2.7700102-2.77001019c0-1.52561519 1.244395-2.77001018 2.7700102-2.77001018z" fill="#17bfa8"/><path d="m24.4741912 10.2529843c1.0924483 0 1.2796155 1.562538.2180731 1.8205517l-5.5932611 1.3594732 1.4525809 13.8714939c.1117684 1.0673371-1.380294 1.4343811-1.7764416.4370007l-2.8616018-7.2046678v-10.2838517zm-8.5606505-6.86431484c1.5256152 0 2.7700102 1.24439499 2.7700102 2.77001018 0 1.5256152-1.244395 2.77001019-2.7700102 2.77001019z" fill="#0d9e8a"/></g></svg>