<svg height="32" viewBox="0 0 32 32" width="32" xmlns="http://www.w3.org/2000/svg"><path d="m22.0646145 13.061711c.2982338 0 .5456468.2175896.592147.5026769l.007853.0973231-.0006145.978133.97901.0008886c1.6614989 0 3.0084099 1.346911 3.0084099 3.0084099 0 1.6021597-1.2524211 2.9118008-2.831643 3.003303l-.1767669.005107-1.8040531.0002426c-.5624796 1.2404599-1.3958819 2.350994-2.4490135 3.2436363l3.1100566-.0014314c.3313708 0 .6.2686292.6.6 0 .2982338-.2175896.5456468-.5026769.592147l-.0973231.007853h-14c-.33137085 0-.6-.2686292-.6-.6 0-.2982338.21758961-.5456468.50267688-.592147l.09732312-.007853 3.1079326.0010095c-1.9714206-1.6711155-3.17730151-4.1140118-3.26714527-6.7479965l-.00540184-.3169582v-3.1743438c0-.2982337.21758961-.5456467.50267688-.592147l.09732312-.007853zm-.6006145 1.199289h-11.929l.00038549 2.5750548c0 2.7994211 1.45061851 5.3833648 3.80547341 6.8466033l.2468088.1473347.1273323.0700072h3.569l.1132391-.0613776c2.345314-1.3373161 3.8558445-3.7546844 4.0468249-6.4264528l.0153908-.2871968.0051597-.288918zm1.2006145 2.5750548c0 .9002596-.1306625 1.7816571-.3786101 2.621206l1.3570056.0002917c.9987572 0 1.8084099-.8096527 1.8084099-1.80841 0-.9488193-.7307116-1.7269719-1.6600922-1.8024151l-.1483177-.0059948-.97901-.0008886zm-4.9608917-11.65479608.044878.08671463.2904886.69273635c.3327001.79339956.2257677 1.69822195-.271558 2.38956864l-.1125272.14475982c-.273281.32585049-.3621523.76451899-.2439815 1.16666921l.0470895.1324927.2904886.69273633c.1281448.3055905-.0157034.6572024-.3212939.7853472-.2750315.1153303-.5873403.0103463-.7404693-.2345792l-.0448779-.0867147-.2904886-.6927363c-.3327002-.79339959-.2257677-1.69822198.271558-2.38956866l.1125272-.14475983c.273281-.32585048.3621523-.76451898.2439815-1.16666921l-.0470895-.1324927-.2904886-.69273635c-.1281448-.3055905.0157034-.65720242.3212939-.7853472.2750314-.1153303.5873402-.01034631.7404692.23457927zm-3.4657823 0 .0448779.08671463.2904886.69273635c.3327002.79339956.2257677 1.69822195-.2715579 2.38956864l-.1125273.14475982c-.273281.32585049-.3621523.76451899-.2439815 1.16666921l.0470896.1324927.2904885.69273633c.1281448.3055905-.0157034.6572024-.3212939.7853472-.2750314.1153303-.5873402.0103463-.7404692-.2345792l-.044878-.0867147-.2904885-.6927363c-.3327002-.79339959-.2257678-1.69822198.2715579-2.38956866l.1125273-.14475983c.273281-.32585048.3621522-.76451898.2439814-1.16666921l-.0470895-.1324927-.2904886-.69273635c-.1281447-.3055905.0157034-.65720242.3212939-.7853472.2750315-.1153303.5873403-.01034631.7404693.23457927z"/></svg>