<svg height="32" viewBox="0 0 32 32" width="32" xmlns="http://www.w3.org/2000/svg"><g fill="none"><path d="m8.5 25.1c-.33137085 0-.6-.2686292-.6-.6 0-.2982338.21758961-.5456468.50267688-.592147l.09732312-.007853 3.1079326.0010095c-1.9714206-1.6711155-3.17730151-4.1140118-3.26714527-6.7479965l-.00540184-.3169582v-3.1743438c0-.2982337.21758961-.5456467.50267688-.592147l.09732312-.007853h13.12922901c.2982338 0 .5456468.2175896.592147.5026769l.007853.0973231-.0006145.979.97901.0000216c1.6614989 0 3.0084099 1.346911 3.0084099 3.0084099 0 1.6021597-1.2524211 2.9118008-2.831643 3.003303l-.1767669.005107-1.8040531.0002426c-.5623029 1.2400702-1.3953583 2.3502963-2.4480211 3.242795l3.1090642-.0005901c.3313708 0 .6.2686292.6.6 0 .2982338-.2175896.5456468-.5026769.592147l-.0973231.007853zm15.14301-9.259289h-.97901l.0006145.9953438c0 .9002596-.1306625 1.7816571-.3786101 2.621206l1.3570056.0002917c.9987572 0 1.8084099-.8096527 1.8084099-1.80841 0-.9488193-.7307116-1.7269719-1.6600922-1.8024151z" fill="#f8813d"/><g transform="translate(12.6941 4.899844)"><path d="m8.93668249 9.16115596h-5.165l.00038549 2.77505474c0 2.97089 1.59421521 5.7049723 4.16082427 7.1720342l.16679024.0919111h.837z" fill="#bb3600" transform="matrix(-1 0 0 1 12.708364 0)"/><g fill="#c39f7b"><path d="m4.26915373.0468354c.27503145-.1153303.58734025-.0103463.74046924.23457928l.04487796.08671463.29048857.69273635c.33270018.79339956.22576774 1.69822195-.27155794 2.38956863l-.11252725.14475983c-.273281.32585048-.36215229.76451898-.24398149 1.16666921l.04708954.1324927.29048857.69273635c.12814478.3055905-.0157034.65720242-.3212939.7853472-.27503145.11533031-.58734025.01034631-.74046924-.23457927l-.04487796-.08671463-.29048857-.69273635c-.33270017-.79339956-.22576774-1.69822195.27155794-2.38956863l.11252726-.14475983c.27328099-.32585049.36215228-.76451898.24398148-1.16666921l-.04708954-.1324927-.29048857-.69273635c-.12814478-.3055905.0157034-.65720242.3212939-.78534721z"/><path d="m.80337138.0468354c.27503145-.1153303.58734025-.0103463.74046924.23457928l.04487796.08671463.29048857.69273635c.33270017.79339956.22576774 1.69822195-.27155794 2.38956863l-.11252726.14475983c-.27328099.32585048-.36215228.76451898-.24398148 1.16666921l.04708954.1324927.29048857.69273635c.12814478.3055905-.0157034.65720242-.3212939.7853472-.27503145.11533031-.58734025.01034631-.74046924-.23457927l-.04487796-.08671463-.29048857-.69273635c-.33270018-.79339956-.22576774-1.69822195.27155794-2.38956863l.11252725-.14475983c.273281-.32585049.36215229-.76451898.24398149-1.16666921l-.04708954-.1324927-.29048857-.69273635c-.12814478-.3055905.0157034-.65720242.3212939-.78534721z"/></g></g></g></svg>