<svg fill="none" height="32" viewBox="0 0 32 32" width="32" xmlns="http://www.w3.org/2000/svg"><path d="m15.9999 5.4c-5.84 0-10.6 4.76-10.6 10.6s4.76 10.6 10.6 10.6 10.6-4.76 10.6-10.6-4.76-10.6-10.6-10.6z" fill="#f47321"/><g clip-rule="evenodd" fill-rule="evenodd"><path d="m16 26.6c5.84 0 10.6-4.76 10.6-10.6s-4.76-10.6-10.6-10.6z" fill="#d85e11"/><path d="m17.1432 10.7249c-.0626-.5752-.5517-1.0249-1.1432-1.0249-.6338 0-1.15.5162-1.15 1.15v5.03l.0067.1251c.0626.5752.5517 1.0249 1.1433 1.0249.6337 0 1.15-.5162 1.15-1.15v-5.03zm.4068 9.7751c0-.858-.6905-1.55-1.55-1.55-.8581 0-1.55.6905-1.55 1.55 0 .8538.6962 1.55 1.55 1.55.858 0 1.55-.6905 1.55-1.55z" fill="#fff"/></g></svg>