<svg fill="none" height="32" viewBox="0 0 32 32" width="32" xmlns="http://www.w3.org/2000/svg"><path clip-rule="evenodd" d="m15.9999 5.4c5.84 0 10.6 4.76 10.6 10.6s-4.76 10.6-10.6 10.6-10.6-4.76-10.6-10.6 4.76-10.6 10.6-10.6zm0 13.85c-.6912 0-1.25.555-1.25 1.25 0 .6881.5619 1.25 1.25 1.25.6912 0 1.25-.555 1.25-1.25 0-.6912-.555-1.25-1.25-1.25zm-.8434-7.795c.0527-.4183.4113-.7437.8434-.7437.4681 0 .85.3819.85.85v5.03l-.0066.1064c-.0527.4182-.4113.7436-.8434.7436-.4681 0-.85-.3819-.85-.85v-5.03z" fill="#000" fill-rule="evenodd"/></svg>