<svg height="32" viewBox="0 0 32 32" width="32" xmlns="http://www.w3.org/2000/svg"><path d="m4.99858574 21.2974469c.82439527.9024691 2.00367226 1.4696702 3.31149056 1.4696702h15.3739941c1.3099236 0 2.4877004-.5649704 3.3109296-1.4651295l-.0009296.9051295c0 1.7883333-1.3829778 3.2589555-3.1282086 3.35501l-.1817914.00499h-15.3739941c-1.75933334 0-3.2103-1.4110112-3.3050763-3.1761767l-.0049237-.1838233zm18.42641426-14.13932953c1.9043333 0 3.4629222 1.4297 3.5647122 3.23224333l.0052878.1877567v7.2662305c0 1.827-1.4951111 3.3176-3.3742789 3.4149434l-.1957211.0050566h-14.85c-1.90433333 0-3.46292222-1.4297-3.56471222-3.2322433l-.00528778-.1877567v-7.2662305c0-1.82700003 1.49511111-3.31760003 3.37427889-3.41494336l.19572111-.00505667zm-2.34 4.17000003c-1.2458333 0-2.0967535.8632986-2.1655006 2.1674305l-.0044994.1725695v.73l.0055498.1771614c.0753356 1.3362761.9007002 2.1628386 2.1944502 2.1628386.89 0 1.63-.44 1.93-1.14.13-.3-.01-.66-.32-.79-.27-.117-.5886-.0153-.74439.2322l-.04561.0878c-.0977778.2222222-.3535802.3733333-.6901509.4041701l-.1298491.0058299c-.2565 0-.919125 0-.9847462-.9774075l-.0052538-.1625925v-.73l.0053755-.1583106c.056666-.8045268.5505069-.9816894.9646245-.9816894.475 0 .6861111.2222222.7664352.3541666l.0335648.0658334c.14.3.49.44.79.3s.44-.49.3-.79c-.24-.55-.87-1.13-1.9-1.13zm-10 .09h-.2l-.0921484.006914c-.1807032.0274219-.3375.135-.4282032.2974219l-.0396484.0856641-1.52 4.02-.02259.09393c-.04581.28377.10359.57807.38259.68607s.5904-.0108.73008-.26163l.03992-.08837.23-.61h1.65l.23.61.0400586.085664c.1075976.1894922.3099414.304336.5199414.304336.07 0 .14-.01.21-.04.279-.108.4365-.3942.37773-.67635l-.02773-.09365-.34-.9-.0159259-.0696297-.0248148-.0674074-.0292593-.0629629-1.11-2.93-.0396484-.082793c-.0907032-.1583203-.2475-.2709375-.4282032-.2998828zm4.92 0h-1.31l-.09699.00789c-.25272.04152-.4536.2424-.49512.49512l-.00789.09699v4.02l.00789.09942c.04152.25776.2424.4528.49512.49296l.09699.00762h1.43l.1920013-.0054827c1.304197-.0760876 1.7779987-.9299719 1.7779987-1.6745173 0-.46-.17-.85-.46-1.14.15-.24.23-.53.22-.83 0-.9094737-.6551801-1.50482-1.6764485-1.5649687zm.39 3.13.07.01c.3518182.0327272.4157851.2194215.4274155.3409992l.0025845.0690008-.0018252.0593777c-.0109511.1386667-.0876089.3797334-.6242133.416l-.1439615.0046223h-.83v-.9zm-5.4-1.09.37.99h-.75zm5.01-.84c.5571429 0 .6367347.2057143.648105.3274635l.001895.0725365-.0073148.0730555c-.0192593.0944445-.0755556.1755556-.1570371.2255556l-.0656481.0313889h-1.13v-.73z"/></svg>