<svg height="32" viewBox="0 0 32 32" width="32" xmlns="http://www.w3.org/2000/svg"><path d="m21.115 17.135c.89 0 1.63-.44 1.93-1.14.13-.3-.01-.66-.32-.79-.3-.13-.66.01-.79.32-.11.25-.42.41-.82.41-.27 0-.99 0-.99-1.14v-.73c0-.94.53-1.14.97-1.14.57 0 .76.32.8.42.14.3.49.44.79.3s.44-.49.3-.79c-.24-.55-.87-1.13-1.9-1.13-1.3 0-2.17.94-2.17 2.34v.73c.01 1.44.85 2.34 2.2 2.34zm-11.95-.13c.31.12.66-.04.77-.35l.23-.61h1.65l.23.61c.09.24.32.39.56.39.07 0 .14-.01.21-.04.31-.12.47-.46.35-.77l-.34-.9c-.01-.07-.04-.14-.07-.2l-1.11-2.93c-.09-.23-.31-.39-.56-.39h-.2c-.25 0-.47.15-.56.39l-1.52 4.02c-.1.31.05.66.36.78zm1.83-3.15.37.99h-.75zm3.7 3.18h1.43c1.45 0 1.97-.9 1.97-1.68 0-.46-.17-.85-.46-1.14.15-.24.23-.53.22-.83 0-.96-.73-1.57-1.85-1.57h-1.31c-.33 0-.6.27-.6.6v4.02c0 .34.27.6.6.6zm.6-4.02h.71c.65 0 .65.28.65.38v.02c0 .15-.09.28-.23.33h-1.13zm0 1.93h1.1c.02 0 .04.01.07.01.43.04.43.31.43.41 0 .12 0 .48-.77.48h-.83zm11.7 3.13v-7.1c0-1.89-1.6-3.42-3.57-3.42h-14.85c-1.97 0-3.57 1.53-3.57 3.42v10.05c0 1.89 1.6 3.42 3.57 3.42h14.85c1.97 0 3.57-1.53 3.57-3.42zm-18.42-9.31h14.85c1.31 0 2.37 1 2.37 2.22v7.1c0 1.22-1.06 2.22-2.37 2.22h-14.85c-1.31 0-2.37-.99-2.37-2.22v-7.1c0-1.23 1.06-2.22 2.37-2.22zm14.85 14.49h-14.85c-1.31 0-2.37-1-2.37-2.22v-.39c.63.54 1.46.87 2.37.87h14.85c.91 0 1.74-.33 2.37-.87v.39c0 1.22-1.06 2.22-2.37 2.22z"/></svg>