<svg height="32" viewBox="0 0 32 32" width="32" xmlns="http://www.w3.org/2000/svg"><g fill="none" fill-rule="evenodd"><path d="m26.8354688 18.1132565v3.3804305c0 1.7852856-1.4097299 3.2328451-3.1483601 3.2328451h-15.74753182c-1.73863015 0-3.14836006-1.4475595-3.14836006-3.2328451v-3.3804305" fill="#6da133"/><path d="m23.6871087 21.2624354h-15.74753182c-1.73863015 0-3.14836006-1.40509-3.14836006-3.1379977v-7.8955292c0-1.73290771 1.40972991-3.13777798 3.14836006-3.13777798h15.74753182c1.7388506 0 3.1483601 1.40487027 3.1483601 3.13777798v7.8955292c0 1.7329077-1.4095095 3.1379977-3.1483601 3.1379977z" fill="#a4c555"/><g fill-rule="nonzero"><path d="m9.79041009 14.2350224h1.09435571l-.5471778-1.5258644zm-.69999831 1.9526691c-.10971986.3047124-.44504671.4630149-.74993861.353886-.30477818-.1094622-.463154-.4449605-.35403072-.7500403l.41223234-1.1488696.00686311-.0201209.00423196-.0113642 1.26649707-3.5319008c.08362089-.2328875.30446778-.3882657.55188497-.3882657h.2188697c.2474348 0 .4682712.1553924.5519288.388388l1.6898704 4.7123837c.1090583.3048928-.0494044.6404057-.3542728.7498445-.0640743.0229528-.1307871.0345896-.1978872.0345896-.246583 0-.4680052-.1551533-.5519616-.3887045l-.253973-.7084865-.0256014-.0714181h-1.93507609zm7.27017832-3.2357752.0611781-.0102709c.1873261-.0782123.2992428-.2538053.2992428-.5159238 0-.1115636-.0098203-.1682025-.0436664-.2419334-.0960768-.2092954-.3437103-.3202544-.7649211-.3202544h-.8712881v1.0865707zm1.3078527.5259937c.3182104.3156065.4854404.7412234.4854404 1.2484795 0 1.1300529-.8233423 1.8495327-2.1098145 1.8495327h-1.5892284c-.3238343 0-.5862928-.2624596-.5862928-.5862952v-4.7123859c0-.3238356.2624585-.5862952.5862928-.5862952h1.4575832c1.1885712 0 1.9811778.6916905 1.9811778 1.7347757 0 .3446265-.0820265.6537874-.2417117.9202449l-.0434232.0724578zm3.9281581 3.2089971c-1.4586172 0-2.3527443-.9989669-2.3527443-2.6232088v-.8571963c0-1.5748085.9318076-2.6266788 2.3319222-2.6266788.9459272 0 1.712606.4912207 2.0414098 1.2625044.1270227.2980171-.0114927.6421455-.3095685.7691945-.2977405.1269883-.641925-.01162-.768978-.3095075-.1479194-.3458788-.4741651-.5496035-.9628633-.5496035-.7756748 0-1.1593343.5129268-1.1593343 1.4540909v.8571963c0 .7196424.2236638 1.1665826.6414735 1.3540954.1630237.0731649.3006127.0965231.5386829.0965231.4813316 0 .8495282-.20316.9872657-.5407935.1221176-.3003952.4641308-.4445086.763961-.3219216.3000858.1222648.4442551.4642991.3221109.7642833-.3201008.7852835-1.1140314 1.2710221-2.0733376 1.2710221zm-5.5525322-1.2835752c.4899577 0 .7787018-.1344558.8883445-.3874511.0378347-.0873017.0488821-.155486.0488821-.2894913 0-.1171412-.0096505-.1811736-.0412415-.2613619-.0749367-.1902143-.2561799-.3170963-.5259303-.3417605l-1.3729881-.000712v1.2807768z" fill="#81a42f"/><path d="m9.79041009 15.0203222h1.09435571l-.5471778-1.5258644zm-.69999831 1.9526691c-.10971986.3047125-.44504671.4630149-.74993861.3538861-.30477818-.1094623-.463154-.4449606-.35403072-.7500403l.41223234-1.1488697.00686311-.0201209.00423196-.0113642 1.26649707-3.5319008c.08362089-.2328875.30446778-.3882657.55188497-.3882657h.2188697c.2474348 0 .4682712.1553924.5519288.388388l1.6898704 4.7123837c.1090583.3048928-.0494044.6404058-.3542728.7498445-.0640743.0229529-.1307871.0345896-.1978872.0345896-.246583 0-.4680052-.1551532-.5519616-.3887045l-.253973-.7084865-.0256014-.0714181h-1.93507609zm7.27017832-3.2357752.0611781-.0102709c.1873261-.0782123.2992428-.2538053.2992428-.5159238 0-.1115635-.0098203-.1682025-.0436664-.2419334-.0960768-.2092954-.3437103-.3202544-.7649211-.3202544h-.8712881v1.0865708zm1.3078527.5259937c.3182104.3156065.4854404.7412235.4854404 1.2484795 0 1.1300529-.8233423 1.8495327-2.1098145 1.8495327h-1.5892284c-.3238343 0-.5862928-.2624596-.5862928-.5862952v-4.7123859c0-.3238356.2624585-.5862952.5862928-.5862952h1.4575832c1.1885712 0 1.9811778.6916905 1.9811778 1.7347757 0 .3446265-.0820265.6537875-.2417117.920245l-.0434232.0724578zm3.9281581 3.2089972c-1.4586172 0-2.3527443-.998967-2.3527443-2.6232088v-.8571964c0-1.5748085.9318076-2.6266788 2.3319222-2.6266788.9459272 0 1.712606.4912207 2.0414098 1.2625044.1270227.2980171-.0114927.6421456-.3095685.7691945-.2977405.1269883-.641925-.01162-.768978-.3095074-.1479194-.3458788-.4741651-.5496036-.9628633-.5496036-.7756748 0-1.1593343.5129269-1.1593343 1.4540909v.8571964c0 .7196423.2236638 1.1665825.6414735 1.3540953.1630237.0731649.3006127.0965231.5386829.0965231.4813316 0 .8495282-.20316.9872657-.5407934.1221176-.3003952.4641308-.4445087.763961-.3219217.3000858.1222648.4442551.4642991.3221109.7642833-.3201008.7852835-1.1140314 1.2710222-2.0733376 1.2710222zm-5.5525322-1.2835753c.4899577 0 .7787018-.1344558.8883445-.3874511.0378347-.0873016.0488821-.1554859.0488821-.2894913 0-.1171412-.0096505-.1811735-.0412415-.2613619-.0749367-.1902143-.2561799-.3170962-.5259303-.3417605l-1.3729881-.0007119v1.2807767z" fill="#fff"/></g></g></svg>