<svg height="32" viewBox="0 0 32 32" width="32" xmlns="http://www.w3.org/2000/svg"><path d="m7.49670881 8.82332518c.85070368-.64798524 1.56277271-.28478568 2.43106198.99653876l.11416531.17232839.5994116.94244127c.8069291 1.3188464.8863432 2.253063.1243352 3.0012456l-.1145946.1056391-.71569205.6153979-.25202296.1726951-.18417593.1329794c-1.11212621.8762702-.79895955 2.3369639 1.40338534 4.8527047 2.1663704 2.4746122 3.5526121 3.0105414 4.5738761 2.1216516l.0946869-.087492.3785676-.3954558.6878526-.599744.1199383-.0955866c.8551435-.6339422 1.7552855-.4245277 2.9608954.5529941l.1743361.1448631.8302483.7135732c1.1475936 1.0095402 1.4163575 1.790076.6638141 2.5236789l-.1039614.0954362-.5838078.5037327-.1685373.1650062c-.8571433.8039773-1.9329025 1.3112035-3.1991412 1.446414l-.2955774.0245643-.3159918.0100509-.2610432-.0023435c-2.5965613-.0835653-5.3215401-1.7546866-8.09102927-4.9273205-2.87513165-3.2828867-4.1522031-6.2869126-3.75214149-8.913831.2241489-1.4848429.91604165-2.6622468 1.92643694-3.47574008l.20628153-.15782978.65299818-.5612964zm12.16819179-3.42132227c3.3689369 0 6.1 2.73106302 6.1 6.09999999 0 3.368937-2.7310631 6.1-6.1 6.1-3.368937 0-6.1-2.731063-6.1-6.1 0-3.36893697 2.731063-6.09999999 6.1-6.09999999zm2.9900806 3.39425959-.0825419.06631056-4.0154393 4.01042694-1.7965237-1.7931208-.0811277-.0677903c-.2284468-.158345-.5455246-.1372851-.753975.0624799-.2077414.2076206-.2332129.5246055-.0779185.7577599l.0667058.083126 2.2214537 2.21788.071714.061448c.1009052.0737108.2216606.1139737.3467238.1139737.1300966 0 .2568985-.0432618.3586136-.1218736l.071242-.0654634 4.4199547-4.4120717.0707559-.08159913c.16527-.23058786.1430943-.55618005-.0700048-.76276441-.2030399-.20069232-.5180696-.22338394-.7496326-.06872166z"/></svg>