<svg height="32" viewBox="0 0 32 32" width="32" xmlns="http://www.w3.org/2000/svg"><path d="m15.9138712 10.1876232c5.0150799-.0185287 8.6111023 1.1668134 10.6505553 3.5681866 1.3127748 1.5416556 1.7358862 3.2004085 1.6599377 4.6763847l-.0160823.2314862-.0025503.8776231c-.0060678 1.8573383-1.2552321 2.4086251-3.403961 2.1500722l-.2178587-.0285363-.9743302-.1448125c-2.1419145-.3117121-3.3507081-1.0997408-3.432805-2.7845139l-.0044754-.1909087.0032293-1.0482306.0154676-.1592284.0219958-.1725427c.0435705-.3390232.040603-.5343405-.0263379-.7205394-.2451788-.6819745-1.4508426-1.1565455-4.2766517-1.146694-2.8182232.0098446-4.0340105.489862-4.2922445 1.1738024-.0610618.1617238-.0737242.3282962-.0506953.5907159l.0429993.3977752.0041785.0648944.002466 1.0537111c-.0092316 1.7473652-1.144677 2.5917667-3.21875543 2.9520432l-.23430631.0380597-.96991512.1424474c-2.20430009.3358386-3.53130175-.1382941-3.61255827-1.9143958l-.00395952-.1819683.00422918-.8317612c-.12372196-1.4804195.24202581-3.1549311 1.46507277-4.7136992l.20029068-.2451143.19101455-.2162353c2.08230647-2.2703167 5.61905537-3.4079591 10.47605027-3.4180215zm.0034599 1.1999946c-4.5452571.0094173-7.76176308 1.04132-9.58436261 3.0174799l-.16796849.1889023c-1.08606696 1.2778085-1.4508034 2.6482846-1.39997064 3.9041107l.01432742.234072-.00214522.8824394c-.00105906.8961952.53360742 1.1400161 2.03729543.9364788l1.1720003-.1715799c1.63329428-.2476565 2.36040651-.7104194 2.42542541-1.671099l.0047853-.1341146-.0044177-1.0319815-.0227516-.20402c-.0608878-.5228755-.0511376-.8779722.1055668-1.2930086.4837647-1.2812651 2.1484715-1.9385249 5.4107013-1.9499205 3.2782684-.0114289 4.9439753.6442233 5.4100793 1.9407101.126792.352677.1488619.6634864.1110169 1.0684951l-.0526017.4630734-.0020115.976742c-.0009357 1.0072287.6459558 1.494897 2.1950407 1.7526527l1.1887078.1782078c1.5897758.2245923 2.1957792.0215954 2.2462246-.8237367l.0034645-.1139211.0047613-.9271629c.1111733-1.2904432-.2146073-2.7318889-1.360214-4.0772317-1.7723131-2.0868261-5.0369554-3.1629367-9.7329536-3.1455877z"/></svg>