<svg height="32" viewBox="0 0 32 32" width="32" xmlns="http://www.w3.org/2000/svg"><g fill="none" fill-rule="evenodd" transform="translate(4 10.671943)"><path d="m1.5985678 3.44630953c-1.63909306 1.9073705-1.6365182 3.93725489-1.5834567 4.61490744l-.00692511.90328101c-.01060592 1.65257792 1.32549697 1.79551442 2.98471396 1.55160482l.99601225-.1409656c1.65373946-.2419055 3.00258745-.77955755 3.02003884-2.43851834l.00321-.99642521c.00924089-.724578-.98231349-2.95383584 5.02008516-2.94337496 5.9967899.01049288 4.9738827 2.24099866 4.9618021 2.96246068l-.0072927.99965813c-.0102247 1.65849347 1.3256526 2.2010534 2.977493 2.4502842l.9975711.1536068c1.6523804.2422678 2.9945142.1059797 3.0085879-1.54913234l.0073063-.89736505c.0624285-.6828114.1055848-2.70971528-1.5106445-4.62799036-1.9361863-2.30412356-5.4364887-3.48052446-10.4055306-3.48818383-4.96692363-.01571582-8.488404 1.14915862-10.462971 3.44615261" fill="#ec4800"/><path d="m7.91483457.31529109c4.64292263.10105979 7.93387953 1.27344436 9.78898183 3.48107541 1.1810907 1.4018164 1.4760301 2.86164316 1.5248695 3.8125586l.0079889.28271113-.0038932.24491032-.0183206.28781031-.0073064.89736505c-.0031407.36936314-.0724224.66308485-.1965327.89383829-1.1828764-.32022202-2.0320261-.93306283-2.0238663-2.2566227l.0089058-1.04048477.0626903-.54330337.0089601-.19862998-.0037916-.13819615-.0143065-.14156192c-.1254073-.88113149-.9827633-1.89288377-5.0169675-1.89994262-1.5149547-.00264023-2.58438418.13739297-3.33682568.35989821-.42469572-.03280878-.89834347-.05094844-1.42642724-.05187246-3.49230469-.00608633-4.61706956.7459999-4.94888163 1.51878939l-.06399988.18114997-.039466.17979823-.01693574.14144747-.00642373.13815173.00502887.19868498.04801533.50051939.00257758.0848338-.00320999.99642521c-.01200163 1.14089694-.65369505 1.75146437-1.59119903 2.10022479-.40865783-.2422386-.65085276-.67301201-.64631307-1.38037142l.00692511-.90328101-.01480249-.34358248.00568832-.32347477c.04229038-.94094061.33173006-2.48064211 1.59257087-3.94785019 1.29883629-1.51092323 3.26698837-2.53200294 5.87557699-3.04944395z" fill="#bb3600"/></g></svg>