<svg height="32" viewBox="0 0 32 32" width="32" xmlns="http://www.w3.org/2000/svg"><path d="m9.14687209 8.10827425c1.07223081-.92594344 1.92644091-.20331369 2.70937231.96367049l.0900302.1365555.4826428.75624791c.7705049 1.19926875 1.1896688 2.36267955.2368418 3.30858635l-.126323.1170923-.6718079.5815695c-.488849.4151713-2.578365 1.0406201.9325834 5.0511799 3.3225732 3.7953253 4.3144856 2.2414897 4.8262989 1.7066686l.0841446-.0811673.6672539-.5823991c1.0733011-.9230966 2.1763582-.4206117 3.2641267.4725218l.8143194.6960006c1.0956553.9304088 1.774859 1.8712107.8269373 2.8001357l-.1120821.1031639-.6072356.5252762-.1310464.1289113c-.5324686.5026228-1.8386614 1.4987126-3.8795134 1.5210108-2.6921955.0289751-5.5358899-1.6391599-8.4391902-4.9650823-2.90992274-3.3226106-4.17778805-6.3500889-3.77503497-8.9946832.2893906-1.9170316 1.36970692-3.04439059 1.97048164-3.54183693l.23369174-.18187093zm13.90749301.19361063c.18-.02.36.04.49.17.104.104.1632.24.17248.38752l-.00248.11248-.53 4.71000002c-.02.23-.17.42-.39.5-.06.03-.13.04-.2.04-.128 0-.2496-.0384-.34944-.11008l-.07056-.05992-1.73-1.68-3.15 3.15c-.11.12-.27.18-.42.18s-.3-.06-.42-.18c-.2044444-.2133334-.2271605-.537284-.0681481-.7681756l.0681481-.0818244 3.14-3.14-1.72-1.67000002c-.17-.17-.23-.41-.15-.63.06-.18857143.2155102-.32571428.4035569-.37994169l.0964431-.02005831z" fill-rule="evenodd"/></svg>