<svg height="32" viewBox="0 0 32 32" width="32" xmlns="http://www.w3.org/2000/svg"><path d="m10.5140059 9.43765783.115658.17430695.4816625.75471712c1.0745172 1.672455 1.2591925 2.9971528.1340838 4.0797828l-.1356567.1238506-.6761113.5852594-.1236045.0920925-.34144395.2379391-.03617072.0268167c-.64845156.5109301-.57860768 1.3721226 1.14280197 3.4286093l.3540497.4131823.187707.2121996.3562869.3893671c.0573088.0610743.113599.1202627.168897.1776012l.3200937.3221223c1.3887476 1.3522617 2.0927326 1.4086941 2.6319689.8807781l.3523906-.3693812.0471046-.0440029.6705632-.5852663c1.2277899-1.0559653 2.5084312-.7770979 4.0080553.4410599l.1740148.1447026.6759849.5803104c1.5644952 1.3285383 2.0437748 2.5536674.8486484 3.6964981l-.1296308.1179312-.5697892.489965c-1.0007756 1.0283024-2.4761095 1.8100248-4.4339848 1.8314164-2.8998641.0312101-5.8932299-1.7285921-8.89711367-5.1697408-3.01337778-3.4407378-4.35097988-6.6295513-3.91694481-9.4795488.27550108-1.8250222 1.16026739-3.11157506 2.21696238-3.94561249l.18817129-.14250319.60367283-.52169271c1.30905018-1.13045292 2.46251129-.58979997 3.58167268 1.05723972zm-2.71432576-.21657849-.08287505.06741577-.6425116.55252502c-.94091668.68552617-1.72701542 1.75705807-1.96432777 3.32910047-.37190291 2.4420231.83073227 5.3090785 3.63388336 8.5097762 2.70230242 3.0956661 5.31021592 4.6790932 7.73097212 4.7570007l.2491788.0021025.2951935-.0097937c1.3533835-.0811776 2.3998956-.6143155 3.1692357-1.3359358l.160627-.1574219.6066693-.5247857c.5806379-.5035373.4426427-.9808926-.5629924-1.8655516l-.8258899-.7097836c-1.1191922-.9517636-1.8427449-1.1712146-2.5115728-.6753934l-.1051993.0842291-.6715803.5861391-.3447828.3630614c-1.2492199 1.2229948-2.9080862.8057278-5.4073319-2.0491228-2.45886331-2.808762-2.68302887-4.5139252-1.33662565-5.5747877l.2002099-.1450987.26258085-.1801406.6712955-.5811253c.6636759-.5758432.6175936-1.2803718-.1089906-2.4679024l-.1140878-.1817964-.48030537-.7526145c-.77618768-1.19710473-1.24596028-1.47793372-1.82077279-1.04009616zm11.86522046-3.81907643c3.3689369 0 6.1 2.73106302 6.1 6.09999999 0 3.368937-2.7310631 6.1-6.1 6.1-3.368937 0-6.1-2.731063-6.1-6.1 0-3.36893697 2.731063-6.09999999 6.1-6.09999999zm2.9900806 3.39425959-.0825419.06631056-4.0154393 4.01042694-1.7965237-1.7931208-.0811277-.0677903c-.2284468-.158345-.5455246-.1372851-.753975.0624799-.2077414.2076206-.2332129.5246055-.0779185.7577599l.0667058.083126 2.2214537 2.21788.071714.061448c.1009052.0737108.2216606.1139737.3467238.1139737.1300966 0 .2568985-.0432618.3586136-.1218736l.071242-.0654634 4.4199547-4.4120717.0707559-.08159913c.16527-.23058786.1430943-.55618005-.0700048-.76276441-.2030399-.20069232-.5180696-.22338394-.7496326-.06872166z"/></svg>