<svg height="32" viewBox="0 0 32 32" width="32" xmlns="http://www.w3.org/2000/svg"><path d="m16.3417678 14.3069165c.3884266 0 .7074334.3153818.7193194.7092482.0240493 3.575321 2.6324442 6.6077861 6.0758567 7.2513595l.2415709.0410013.2559491.0347804.0000058-2.1302213c0-.0620381.0105904-.1231465.0308951-.1808359l.037633-.0836586.0515473-.0766629c.1424548-.1773014.376238-.2441416.595973-.1733021l.0930049.0388684.076789.0509815 3.6090976 2.8997707c.0307578.0247128.0587394.0526943.0834521.0834522.1424549.1773014.1573694.4199941.0408621.6193123l-.0579892.0824495-.066325.0640051-3.6090976 2.8997707c-.0967236.0777137-.2170813.1200753-.3411574.1200753-.2274405 0-.4259733-.1403812-.508379-.3560454l-.0279526-.0968468-.0083533-.0918426.0008823-2.2412799c-3.3006533-.321921-6.0649049-2.4638437-7.3043957-5.3752699-1.2383449 2.9114262-4.0025965 5.0533489-7.30324978 5.3752699l.00088223 2.2412799-.00835329.0918426c-.05422453.2695371-.27639958.4528922-.53633159.4528922-.1240761 0-.24443376-.0423616-.34115738-.1200753l-3.60909758-2.8997707-.06632503-.0640051c-.17615493-.2110924-.17993268-.4991316-.01712712-.7017618.02471273-.0307579.05269432-.0587394.08345215-.0834522l3.60909758-2.8997707.07678902-.0509815c.24408081-.1265508.52617235-.0681965.6889779.1344337l.05154724.0766629c.04469969.080472.06852811.1714374.06852811.2644945l.00000581 2.1302213.25594909-.0347804c3.56226504-.5438235 6.29281904-3.6338928 6.31742764-7.2923608.0108955-.3610442.2798578-.6561396.6237965-.7028149zm-.6239963-8.48992431.43158.00330494c4.5733098.06292686 7.8380906 1.2026275 9.6656253 3.43219898.9044985 1.10054419 1.3398179 2.30504939 1.4350173 3.51671119l.015241.2597161.0038704.2778393-.0076048.2461922-.0178104.2223872-.0162428.7976969c-.0321276 1.5503224-1.0438336 2.1313358-2.6941759 2.0082187l-.1932389-.0173155-.3312831-.0414513-.1705167-.0258653-1.112715-.1872434c-1.7284795-.3236701-2.7317193-1.0108153-2.8768138-2.3964361l-.0140479-.1847218-.0024232-.193365.0238664-.9878004.0281778-.2216913.0248336-.1771142.0121183-.1342152.0023055-.1198505-.0085948-.1110489-.0218288-.1002412c-.1302725-.4693775-.769365-.850014-2.3225821-1.0231786l-.2398892-.0244038-.4764551-.0356674c-.2486508-.0144773-.5121835-.02374-.7908983-.0276331-.7860898-.0109746-1.4504759.0238766-1.9906584.0983493l-.2238952.0343246-.3269189.0638007c-.7346001.1644644-1.1154687.3964793-1.2683981.6453925l-.0361511.0682664-.0384931.0985353-.0231152.0858007-.0139953.1024908-.0057519.1053607.0046409.1453638.0373884.4863657-.0138155.926714c-.035506 1.5613717-1.0442137 2.3376936-2.83224336 2.654122l-.21829189.0357847-.18330972.0260497-1.06014535.1362884-.33165905.0330135-.3094734.018042c-1.42985452.0486852-2.35783157-.4769337-2.48437939-1.750181l-.01193665-.1703299-.00158549-.1708232.01624064-.7690284-.00964528-.277566.00056652-.1238956.0098239-.2622086.02312235-.2804927c.13114026-1.2344461.61722565-2.4622463 1.58301236-3.55871827 1.79413371-2.03623621 4.80947321-3.08399659 8.93302911-3.15227407zm-.0027715 1.19900781-.4098686.00441749c-3.8135129.06322681-6.51313409 1.00085611-8.05048399 2.74565779-.72430579.82231512-1.11547255 1.72642722-1.25647923 2.63110062l-.0323164.246682-.02013164.2380801-.00782738.2144475-.00059552.0811399.0095278.2883366-.01588102.7842426.00116895.133558c.02339122.5534578.30520491.7583931 1.07966351.7568268l.16152972-.0030245.26951396-.0153439.29030698-.0291381 1.03593358-.1333413.17009653-.0241986c1.34202845-.2032413 1.94364855-.5934721 2.01782695-1.395196l.0073603-.1300403.015704-.8635951-.0370592-.4556447-.0064633-.2111309.0040714-.1394147.0043416-.0585229.0298875-.2228699.0345741-.1542614.0377928-.1222523.0611172-.1577539c.2868185-.6461097.9172771-1.1067028 1.9415713-1.37585072l.225538-.05474211.3573983-.06980043c.6693942-.11385292 1.4802632-.16573567 2.4472238-.15223594.1973594.00275671.3881101.0080679.5752739.01609629l.2784332.01410082.496776.03719718c2.0888724.19297953 3.2235713.79411331 3.5835042 1.81548801l.0425688.135607.0368416.1703525.0142202.1011767.013223.159925.0021895.0909221-.0038863.1594651-.0174531.2046993-.0276552.2042526-.0228898.15371-.0191472.9035262.0018409.1516825c.0381871.783264.599653 1.1949661 1.9042948 1.4382001l1.0883627.1829927.1460897.0223127.3036194.0379214c1.086231.1130179 1.4930004-.062177 1.545863-.7108405l.0055894-.1125263.0178362-.8306941.0179231-.2270377.0059597-.1911443-.0036489-.2375213c-.0406386-1.0388721-.3879547-2.0864487-1.178364-3.0481762-1.5137277-1.84672978-4.3071137-2.86581492-8.3303348-2.98453066l-.4205803-.00906617z"/></svg>