<svg height="32" viewBox="0 0 32 32" width="32" xmlns="http://www.w3.org/2000/svg"><path d="m16 4.6c6.1267527 0 11.119015 4.99226231 11.119015 11.119015 0 6.1267527-4.9922623 11.119015-11.119015 11.119015l-.3762788-.0063035c-1.6264849-.0545577-3.1979839-.4623063-4.6267014-1.1859678l-.0760198-.0407587-4.55260163 1.7548397-.08456417.0259649c-.4219745.0972213-.82056279-.2852446-.7146515-.7259931l1.15780228-4.8178115-.05709773-.0841177c-1.15969758-1.7843772-1.78890227-3.8672026-1.78890227-6.0388673 0-6.12675269 4.99226231-11.119015 11.11901502-11.119015zm0 1.2c-5.464011 0-9.91901502 4.455004-9.91901502 9.919015 0 2.051264.62862217 4.0116247 1.78270393 5.663297l.05113945.0883412c.05760349.1224998.0725173.2619437.04042218.3955072l-.95225054 3.9628396 3.739821-1.4416188c.1649705-.0635976.3495929-.0511967.5045764.0338916 1.4468582.7943474 3.0701033 1.2167572 4.7526026 1.2167572 5.464011 0 9.919015-4.455004 9.919015-9.919015s-4.455004-9.919015-9.919015-9.919015zm-3.4194902 3.46544671c.7268778-.62770793 1.3002723-.09484461 1.8274609.71823182l.3150711.49368157c.5239464.8155076.7990249 1.6056157.072147 2.2362964l-.4385588.3796508c-.3191225.2710255-1.6831667.6793209.6087941 3.29743 2.2941228 2.6205418 2.8861634 1.3345903 3.2055567 1.0611336l.435586-.3801924c.7298491-.6277094 1.4807755-.245626 2.2195429.3826236l.4428826.3801924c.7417387.6298698 1.1911054 1.2670362.4666603 1.8952853l-.3964058.3429024c-.2750785.2826446-1.1589495 1.0611329-2.6181091 1.0770756-1.7574757.018915-3.6138506-1.07005-5.5091363-3.2412251-1.8996089-2.1690132-2.7272764-4.1453629-2.4643576-5.8717644.2172526-1.4391625 1.1173376-2.19657456 1.438893-2.430851z"/></svg>