<svg height="32" viewBox="0 0 32 32" width="32" xmlns="http://www.w3.org/2000/svg"><g fill="none" fill-rule="evenodd"><g transform="translate(6 7.5)"><path d="m12.2870971 18.6269685c2.2352189-.0244218 3.5891799-1.216952 4.0105598-1.6499221l.6072356-.5252762c1.1097439-.9623857.4213799-1.9384313-.7148552-2.9032996l-.6784312-.5823991c-1.1316836-.9623863-2.2819929-1.5476823-3.4000148-.5861233l-.667254.5823991c-.4892638.4188955-1.3961834 2.3887851-4.91044346-1.6255013-3.51094842-4.0105598-1.42143238-4.6360086-.9325834-5.05117995l.67180785-.58156943c1.11347044-.96611052.69209053-2.17644044-.11051877-3.42567869l-.48264275-.75624791c-.80757568-1.24551405-1.68593212-2.06178264-2.79940256-1.10022599l-.60350888.52155109c-.49257574.35887721-1.87137419 1.51912154-2.20417337 3.72370788-.40275308 2.64459425.86511223 5.6720726 3.77503495 8.9946832 2.90330027 3.3259224 5.7469947 4.9940574 8.43919019 4.9650823" fill="#f8813d"/><path d="m6.47541438 16.2460108c-2.65623932-3.1596343-3.80397618-6.0449644-3.41808966-8.5788078.33279918-2.20458634 1.71159763-3.36483067 2.20417337-3.72370788l.60350888-.52155109c.24848768-.21458582.48526605-.34063127.71216156-.39312473.48009148.97773012.56900704 1.90427331-.31959748 2.67527732l-.67180786.58156943c-.48884897.41517135-2.57836501 1.04062015.93258341 5.05117995.88696958 1.013172 1.60784765 1.645143 2.19783937 2.0170614.22723505.3028409.49298273.6297644.80216063.9829386 3.5142601 4.0142864 4.4211796 2.0443968 4.9104434 1.6255013l.667254-.5823991c.7688837-.6612813 1.5530378-.5909685 2.3359024-.1695394.0779782.4149913-.067593.8294277-.5426011 1.2413614l-.6072356.5252762c-.4213799.4329701-1.7753409 1.6255003-4.0105599 1.6499221-1.8692622.0201182-3.81156036-.7779219-5.79613542-2.3809577z" fill="#df6824"/></g><path d="m24.5443651 7.47188488c-.13-.13-.31-.19-.49-.17l-4.83.53c-.23.03-.43.18-.5.4-.08.22-.02.46.15.63l1.72 1.67000002-3.14 3.14c-.23.23-.23.61 0 .85.12.12.27.18.42.18s.31-.06.42-.18l3.15-3.15 1.73 1.68c.11.11.26.17.42.17.07 0 .14-.01.2-.04.22-.08.37-.27.39-.5l.53-4.71000002c.02-.19-.04-.37-.17-.5z" fill="#00b1dd" fill-rule="nonzero"/></g></svg>