<svg height="32" viewBox="0 0 32 32" width="32" xmlns="http://www.w3.org/2000/svg"><g fill="none" fill-rule="evenodd"><path d="m16.3417678 14.3069165c.3884266 0 .7074334.3153818.7193194.7092482.0240493 3.575321 2.6324442 6.6077861 6.0758567 7.2513595l.2415709.0410013.2559491.0347804.0000058-2.1302213c0-.0620381.0105904-.1231465.0308951-.1808359l.037633-.0836586.0515473-.0766629c.1424548-.1773014.376238-.2441416.595973-.1733021l.0930049.0388684.076789.0509815 3.6090976 2.8997707c.0307578.0247128.0587394.0526943.0834521.0834522.1424549.1773014.1573694.4199941.0408621.6193123l-.0579892.0824495-.066325.0640051-3.6090976 2.8997707c-.0967236.0777137-.2170813.1200753-.3411574.1200753-.2274405 0-.4259733-.1403812-.508379-.3560454l-.0279526-.0968468-.0083533-.0918426.0008823-2.2412799c-3.3006533-.321921-6.0649049-2.4638437-7.3043957-5.3752699-1.2383449 2.9114262-4.0025965 5.0533489-7.30324978 5.3752699l.00088223 2.2412799-.00835329.0918426c-.05422453.2695371-.27639958.4528922-.53633159.4528922-.1240761 0-.24443376-.0423616-.34115738-.1200753l-3.60909758-2.8997707-.06632503-.0640051c-.17615493-.2110924-.17993268-.4991316-.01712712-.7017618.02471273-.0307579.05269432-.0587394.08345215-.0834522l3.60909758-2.8997707.07678902-.0509815c.24408081-.1265508.52617235-.0681965.6889779.1344337l.05154724.0766629c.04469969.080472.06852811.1714374.06852811.2644945l.00000581 2.1302213.25594909-.0347804c3.56226504-.5438235 6.29281904-3.6338928 6.31742764-7.2923608.0108955-.3610442.2798578-.6561396.6237965-.7028149z" fill="#4da86d" fill-rule="nonzero"/><path d="m6.80440086 9.36949232c-1.47750445 1.67743278-1.49725854 3.48158028-1.45745722 4.08444018l-.01596365.8027424c-.02737171 1.4686621 1.15857695 1.61021 2.63590356 1.4114457l.88676599-.1144717c1.47243656-.1970426 2.67710336-.6602495 2.71062846-2.1345103l.0136732-.8855674c.0160813-.6438897-.8409843-2.63597566 4.4937109-2.56149802 5.3297098.07444522 4.3963497 2.04576512 4.3777783 2.68685462l-.0173369.8883964c-.0270971 1.4739239 1.1543115 1.9706464 2.6197269 2.210095l.8849528.1473552c1.4659709.2332659 2.6603118.1267101 2.6907931-1.3441667l.0162383-.7974803c.0628998-.6061908.1232665-2.4071927-1.2923744-4.12966692-1.6958221-2.06888282-4.7940444-3.15245368-9.2103437-3.21322014-4.414329-.06790387-7.55679789.92917275-9.33669564 2.94925198" fill="#f8813d"/><path d="m12.4521689 6.65529593c4.1254369.14023751 7.0376409 1.21796544 8.662445 3.2002072.9800591 1.19248217 1.2526826 2.42260187 1.306793 3.26784477l.0106145.2669133-.0015477.2349265-.0096857.1994621-.0137997.1605203-.0162383.7974803c-.0068023.3282483-.0715679.5885497-.1843804.792291-1.047839-.2974517-1.7958909-.851353-1.7742661-2.0276172l.019214-.9246648.0616175-.4821961.0101205-.176441-.0018692-.122867-.0111781-.1259727c-.1018912-.7844934-.852905-1.6930281-4.4383461-1.74310942-1.3464321-.01879753-2.2984396.09404812-2.9696104.28363542-.3771045-.0337715-.797876-.055037-1.2672159-.0615928-.3879779-.0054165-.7432059.0000975-1.0684018.0152286l-.4656094.0297451c-2.21882389.1831475-2.8247753.8703083-2.96437571 1.5073213l-.02204178.1265698-.01164401.1242473-.00328451.1209397.00303674.1166469.03723989.4453728.00136968.0754265-.01367318.8855674c-.02305584 1.0138755-.60000995 1.5495671-1.43703144 1.8493578-.36057621-.2197343-.57115631-.6052269-.55944029-1.2338641l.01596365-.8027424-.00749131-.1598417-.00155845-.1988642c.0004468-.0361944.0012999-.0738636.00263886-.1129321l.01450046-.2505977c.06841128-.8429033.36965287-2.1363882 1.44936766-3.36220448 1.1707862-1.32877345 2.93112729-2.21491591 5.25520624-2.64648012z" fill="#df6824"/></g></svg>