<svg height="32" viewBox="0 0 32 32" width="32" xmlns="http://www.w3.org/2000/svg"><path d="m5.70390568 14.2105447c-1.5928046 1.8732597-1.57989541 3.8578989-1.52454713 4.5201797l-.00214658.8831886c-.00190944 1.6158078 1.30515278 1.7487193 2.92614875 1.5017506l.97309644-.1429234c1.61565075-.2449812 2.93168994-.777558 2.94025964-2.3996415l-.0019626-.9742383c.0053256-.7084795-.9755464-2.8829866 4.8931543-2.9034873 5.8632171-.0204407 4.8745221 2.1655994 4.8664041 2.8710469l-.0020126.97742c-.0015064 1.6215896 1.307381 2.1452209 2.9236893 2.3804417l.9761287.145077c1.6168005.2284102 2.9283299.0882882 2.9336168-1.530015l.0025497-.8774065c.0575417-.6679159.0893599-2.6498752-1.5006752-4.5171312-1.9048379-2.2428687-5.3331654-3.3751366-10.1915213-3.3571869-4.856326.0100618-8.29337377 1.1670071-10.21218232 3.4229256" fill-rule="evenodd"/></svg>