<svg height="32" viewBox="0 0 32 32" width="32" xmlns="http://www.w3.org/2000/svg"><g fill="none" fill-rule="evenodd"><path d="m16.7310301 27.0395519c2.2352189-.0244218 3.5891799-1.216952 4.0105598-1.6499221l.6072356-.5252762c1.1097439-.9623857.4213799-1.9384313-.7148552-2.9032996l-.6784313-.5823991c-1.1316835-.9623863-2.2819928-1.5476823-3.4000148-.5861233l-.667254.5823991c-.4892638.4188955-1.3961833 2.3887851-4.9104434-1.6255013-3.51094841-4.0105598-1.42143238-4.6360086-.9325834-5.05118l.6718079-.5815694c1.1134704-.9661105.6920905-2.1764404-.1105188-3.4256787l-.4826428-.75624789c-.80757564-1.24551405-1.68593209-2.06178263-2.79940252-1.10022598l-.60350888.52155108c-.49257574.35887721-1.87137419 1.51912149-2.20417338 3.72370789-.40275308 2.6445942.86511223 5.6720726 3.77503496 8.9946832 2.90330022 3.3259224 5.74699472 4.9940574 8.43919022 4.9650823" fill="#f8813d"/><path d="m10.9348946 24.6585942c-2.65623933-3.1596343-3.80397619-6.0449644-3.41808968-8.5788078.33279919-2.2045864 1.71159764-3.3648307 2.20417338-3.7237079l.6035089-.5215511c.2484877-.2145858.485266-.3406312.7121615-.3931247.4800915.9777301.5690071 1.9042733-.3195974 2.6752773l-.6718079.5815694c-.48884898.4151714-2.57836501 1.0406202.9325834 5.05118.8869696 1.013172 1.6078477 1.645143 2.1978394 2.0170614.227235.3028409.4929827.6297644.8021606.9829386 3.5142601 4.0142864 4.4211796 2.0443968 4.9104434 1.6255013l.667254-.5823991c.7688837-.6612813 1.5530378-.5909685 2.3359024-.1695394.0779782.4149913-.067593.8294276-.5426011 1.2413614l-.6072356.5252762c-.4213799.4329701-1.7753409 1.6255003-4.0105598 1.6499221-1.8692623.0201181-3.8115604-.7779219-5.7961355-2.3809577z" fill="#df6824"/><g fill-rule="nonzero"><path d="m15.2795095 11.0086418c1.230047.2391758 2.3327929.8311763 3.2196022 1.7293548.8946233.8833161 1.490124 2.0071777 1.7306569 3.2556582.0690486.4006513.4287012.6926121.8348.6926121.0351681 0 .0351681 0 .0747769-.0018453.030359-.0021685.0591584-.0066374.0897831-.0142935.4530526-.08205.7563414-.5303899.6703795-.988853-.2977521-1.5840414-1.0604273-3.0205662-2.1982347-4.1346693-1.1162291-1.1400262-2.5312151-1.8993613-4.0972087-2.19595101-.4679186-.08508019-.9065867.21460396-.9911817.67987631-.0983373.4348868.2071662.8776455.6632024.9774034z" fill="#ff905e"/><path d="m23.1629073 8.06322599c-1.832732-1.86799418-4.1536599-3.11005321-6.7310373-3.60661217-.459197-.08610133-.9075369.2171874-.991646.67978761-.0848798.4668385.2148044.9055066.6800768.99010158 2.2342791.42613107 4.2561044 1.50935715 5.8508595 3.13853146 1.6268095 1.60392993 2.7134973 3.64737543 3.1527714 5.91310483.0690152.4004785.4286677.6924394.8347666.6924394.0351681 0 .0351681 0 .0747768-.0018454.0303591-.0021685.0591585-.0066373.0897831-.0142935.4408676-.0995104.7306756-.5407107.6472239-.9996952-.4946397-2.5910007-1.7424295-4.93817804-3.6075748-6.79151861z" fill="#ffcab2"/><path d="m14.5857457 14.7178213c-.5518186.5517888-.5561843 1.4424035-.0162439 1.9965528.5543667.5543965 1.4467774.5543965 1.9988633.0023105.5495081-.549508.5538739-1.4401227.0139334-1.9942721-.5366937-.5508172-1.4404772-.5464085-1.9965528-.0045912z" fill="#c54e1a"/></g></g></svg>