<svg height="32" viewBox="0 0 32 32" width="32" xmlns="http://www.w3.org/2000/svg"><path d="m15.971 17.596.4097907.0046541c3.9147157.0698258 6.7382478 1.0632293 8.3627249 2.9964096.8473217 1.0056719 1.2549627 2.1122118 1.346512 3.2257515l.0155719.2570523.0033191.2632115-.0074588.2232213-.0098589.1198524-.0058394.7171804c-.0115373 1.3568315-.8702034 1.9376551-2.2596074 1.9041823l-.1842104-.0078365-.3249664-.0284875-.3262644-.0422457-.8066636-.124291-.3506865-.0599969c-1.4593659-.2814448-2.3495758-.9105172-2.5048795-2.1259194l-.017169-.1776433-.0052125-.1899566.0082259-.8480974.0164781-.1785104.0279705-.2124135.0105097-.1258274.00186-.073665-.0045165-.0828662-.0102191-.0802503-.0290544-.0928692c-.1131968-.2915993-.4917468-.5397893-1.2439069-.6948964l-.1958863-.0368088-.3524855-.0510978c-.2337955-.0284391-.4932038-.0501767-.7799969-.0643999l-.295987-.0116881-.5125356-.0078299-.5123274.0056638-.4639697.0183986c-1.6078164.0895658-2.2854917.419776-2.4344074.8378159l-.0184218.0633456-.0149307.0715949-.0083973.0775773-.0022723.0831507.0023448.0793396.0397878.4214207.0027614.0952819-.0025947.8004878c-.0150424 1.429959-.9258863 2.1576513-2.54206933 2.4707912l-.21479086.038517-1.13763607.1627295-.30833125.033946c-1.46038829.1298516-2.42201376-.307139-2.57167327-1.5605676l-.01489034-.1681413-.00392822-.1669459.00650135-.6827061-.00958417-.1690027-.00085392-.3526606.03126484-.436949c.12167958-1.0941361.55056747-2.1791797 1.38832042-3.1540513 1.65563643-1.9259853 4.49629742-2.9086257 8.40625262-2.9608682zm-.0009176 1.2007233c-3.8059351-.0120416-6.45754218.8622603-7.90357059 2.5444106-.60923031.7089457-.94495126 1.4826184-1.07217946 2.2563871l-.0319787.2320688-.02136046.2514276-.00626466.2954267.01158029.265389-.00571038.7017912.00288762.1267265c.02870639.4826968.30429188.6473335 1.10213757.5982532l.16661421-.0126347.27634954-.0302351 1.10552372-.1582986c1.1641581-.1928101 1.6742831-.5304873 1.7341276-1.2084687l.0059281-.1232161.0029484-.8095251-.0396058-.4165314-.0050936-.1468463.0040726-.1605324.0174531-.1724625.0274075-.1513692c.2839445-1.2551266 1.6951843-1.8936391 4.6073044-1.8885639 2.5796303.0045137 3.9705797.5071228 4.4567446 1.5428326l.0520968.1218728.0570714.1874486.0332856.1673276.0120612.0994674.0097965.1645282-.0019901.1583734-.0153194.1994708-.0405035.3299587-.0060731.77657.0038822.145409c.0403614.6014975.4399312.9360925 1.349474 1.1414904l.1887529.0393977.3283799.05613.7824319.1206626.2863594.037463.2843063.024647c.8236183.0495877 1.1148603-.0937926 1.1522231-.602879l.00417-.1067445.0073691-.755198.0101305-.1336669.0059753-.1710766-.0031471-.2209326c-.0367754-.9350628-.353723-1.8798358-1.0808151-2.7428098-1.4150042-1.6839002-4.0478682-2.5670704-7.8552334-2.5729391zm6.1299176-15.50718991c3.368937 0 6.1 2.73106303 6.1 6.1 0 3.36893701-2.731063 6.10000001-6.1 6.10000001s-6.1-2.731063-6.1-6.10000001c0-3.36893697 2.731063-6.1 6.1-6.1zm2.9900806 3.3942596-.0825419.06631056-4.0154393 4.01042695-1.7965237-1.79312077-.0811277-.06779034c-.2284468-.15834497-.5455245-.13728512-.753975.06247989-.2077414.20762056-.2332128.52460555-.0779185.75775992l.0667058.08312599 2.2214537 2.21787991.0717141.0614481c.1009051.0737107.2216606.1139737.3467237.1139737.1300966 0 .2568986-.0432618.3586136-.1218736l.071242-.0654634 4.4199547-4.41207172.070756-.08159913c.1652699-.23058786.1430942-.55618004-.0700048-.76276441-.20304-.20069232-.5180696-.22338394-.7496327-.06872165z"/></svg>