<svg height="32" viewBox="0 0 32 32" width="32" xmlns="http://www.w3.org/2000/svg"><path d="m23.4939585 19.9018849-.69-.59c-.68-.57-2.47-2.1-4.23-.59l-.67.59c-.08.07-.16.15-.24.24-.27.29-.46.48-.8.48-.4 0-1.34-.31-3.09-2.3s-1.92-2.96-1.86-3.35c.04-.33.27-.51.59-.72.09-.06.18-.12.27-.19l.68-.59c1.75-1.52.48-3.50000002 0-4.25000002l-.49-.77c-.5-.77-1.19-1.66-2.13-1.8-.55-.08-1.09000005.11-1.60000005.56l-.59.51c-.63.46-2.09 1.77-2.45 4.14000002-.44 2.86.9 6.09 3.96000005 9.6 3.03 3.47 6.03 5.24 8.93 5.24h.08c2.42-.03 3.92-1.28 4.47-1.83l.6-.52c.52-.45.78-.96.78-1.51-.02-.96-.82-1.76-1.52-2.35zm-.06 2.94-.61.53c-.01.01-.03.02-.04.04-.43.44-1.64 1.47-3.64 1.49h-.06c-2.53 0-5.23-1.62-8.02-4.82-2.82000005-3.22-4.06000005-6.13-3.68000005-8.63.29-1.95000002 1.49-3.01000002 1.99-3.38000002l.04-.03.61000005-.53c.28-.24.47-.28.58-.28.03 0 .05 0 .07.01.34.05.78.47 1.29 1.26l.49.77c.99 1.54000002.8 2.19000002.22 2.69000002l-.68.59c-.03.02-.09.07-.15.1-.35.23-1 .66-1.12 1.56-.14 1.08.56 2.49 2.15 4.3 1.59 1.82 2.89 2.7 3.98 2.71h.02c.89 0 1.41-.57 1.68-.87.05-.05.1-.11.13-.14l.67-.59c.59-.5 1.26-.59 2.66.6l.69.59c.72.61 1.08 1.09 1.08 1.44.02.07.02.28-.35.59zm2.28-16.78000002c-.13-.13-.31-.19-.49-.17l-4.83.53c-.23.03-.43.18-.5.4-.08.22-.02.46.15.63l1.72 1.67-3.14 3.14000002c-.23.23-.23.61 0 .85.12.12.27.18.42.18s.31-.06.42-.18l3.15-3.15000002 1.73 1.68000002c.11.11.26.17.42.17.07 0 .14-.01.2-.04.22-.08.37-.27.39-.5l.53-4.71000002c.02-.19-.04-.37-.17-.5z"/></svg>