<svg height="32" viewBox="0 0 32 32" width="32" xmlns="http://www.w3.org/2000/svg"><g fill="none" fill-rule="evenodd"><path d="m7.61145381 20.9500812c-1.30957889 1.5239233-1.30752167 3.1457311-1.26512736 3.6871521l-.00553292.7216904c-.00847376 1.3203528 1.05902642 1.4345542 2.38468364 1.2396789l.79577949-.1126267c1.32128084-.1932742 2.39896394-.6228397 2.41290704-1.9482922l.0025646-.7961094c.0073832-.5789129-.7848346-2.3600131 4.0108752-2.3516552 4.7912286.0083834 3.9739609 1.7904807 3.964309 2.366904l-.0058266.7986924c-.0081692 1.3250792 1.0591507 1.7585659 2.3789143 1.9576927l.797025.1227265c1.320195.1935636 2.3925137.0846742 2.403758-1.2377033l.0058376-.7169638c.0498781-.5455428.0843586-2.1649692-1.206953-3.6976049-1.5469462-1.8409154-4.3435672-2.7808192-8.3136606-2.7869387-3.9684008-.0125564-6.78194236.9181381-8.35955339 2.7533572" fill="#ec4800"/><path d="m12.6579334 18.4485053c3.7095353.0807433 6.3388965 1.0174382 7.8210594 2.7812594.9436507 1.120003 1.1792972 2.2863543 1.2183181 3.046103l.0063829.2258764-.0031106.1956749-.0146375.2299506-.0058375.7169637c-.0025094.2951085-.057863.529782-.1570229.714146-.9450775-.2558463-1.6235188-.745485-1.6169994-1.8029638l.0071154-.8313115.0500873-.4340807.0071589-.1586985-.0030293-.1104139-.0114305-.1131031c-.1001961-.7039937-.785194-1.512349-4.0083842-1.5179887-1.2103967-.0021095-2.064834.1097722-2.6660088.2875462-.3393172-.026213-.7177455-.040706-1.1396662-.0414443-2.79023119-.0048627-3.68887959.5960282-3.953986 1.2134604l-.0511337.1447326-.03153198.1436526-.01353107.1130117-.00513234.1103784.0040179.1587425.0383626.3998978.00205939.0677792-.00256467.7961095c-.00958889.9115373-.52227984 1.3993597-1.27131323 1.6780072-.32650352-.1935403-.52000893-.5377134-.51638187-1.1028692l.00553292-.7216904-.01182668-.2745106.00454477-.2584452c.03378856-.7517791.26504089-1.9819476 1.27240927-3.1541963 1.03772546-1.2071756 2.61021119-2.0229831 4.69438369-2.4364007z" fill="#bb3600"/><g fill-rule="nonzero"><path d="m22.1 3.28953339c3.368937 0 6.1 2.73106303 6.1 6.1 0 3.36893701-2.731063 6.10000001-6.1 6.10000001s-6.1-2.731063-6.1-6.10000001c0-3.36893697 2.731063-6.1 6.1-6.1z" fill="#4da86d"/><path d="m20.9910994 10.4772802-1.6542364-1.65142583-.0941729-.07970799c-.3232134-.22501548-.7455027-.19207785-1.0205981.07155526-.3129399.3126956-.3187656.80901801-.0172293 1.12366462l2.2245438 2.22103404.0828891.0717863c.1476562.1086067.309791.1621003.4768562.1621003.2192002 0 .4299742-.0914878.5772865-.252192l4.4138189-4.40566919.0805651-.09212174c.2129425-.29578134.2043419-.67832189-.0037792-.94988944l-.0767332-.08614117c-.305612-.30207839-.7994598-.30327275-1.1111523-.00456745z" fill="#fff"/></g></g></svg>