<svg height="32" viewBox="0 0 32 32" width="32" xmlns="http://www.w3.org/2000/svg"><g fill="none" fill-rule="evenodd"><path d="m16.7310301 27.0395519c2.2352189-.0244218 3.5891799-1.216952 4.0105598-1.6499221l.6072356-.5252762c1.1097439-.9623857.4213799-1.9384313-.7148552-2.9032996l-.6784313-.5823991c-1.1316835-.9623863-2.2819928-1.5476823-3.4000148-.5861233l-.667254.5823991c-.4892638.4188955-1.3961833 2.3887851-4.9104434-1.6255013-3.51094841-4.0105598-1.42143238-4.6360086-.9325834-5.05118l.6718079-.5815694c1.1134704-.9661105.6920905-2.1764404-.1105188-3.4256787l-.4826428-.75624789c-.80757564-1.24551405-1.68593209-2.06178263-2.79940252-1.10022598l-.60350888.52155108c-.49257574.35887721-1.87137419 1.51912149-2.20417338 3.72370789-.40275308 2.6445942.86511223 5.6720726 3.77503496 8.9946832 2.90330022 3.3259224 5.74699472 4.9940574 8.43919022 4.9650823" fill="#f8813d"/><path d="m10.9348946 24.6585942c-2.65623933-3.1596343-3.80397619-6.0449644-3.41808968-8.5788078.33279919-2.2045864 1.71159764-3.3648307 2.20417338-3.7237079l.6035089-.5215511c.2484877-.2145858.485266-.3406312.7121615-.3931247.4800915.9777301.5690071 1.9042733-.3195974 2.6752773l-.6718079.5815694c-.48884898.4151714-2.57836501 1.0406202.9325834 5.05118.8869696 1.013172 1.6078477 1.645143 2.1978394 2.0170614.227235.3028409.4929827.6297644.8021606.9829386 3.5142601 4.0142864 4.4211796 2.0443968 4.9104434 1.6255013l.667254-.5823991c.7688837-.6612813 1.5530378-.5909685 2.3359024-.1695394.0779782.4149913-.067593.8294276-.5426011 1.2413614l-.6072356.5252762c-.4213799.4329701-1.7753409 1.6255003-4.0105598 1.6499221-1.8692623.0201181-3.8115604-.7779219-5.7961355-2.3809577z" fill="#df6824"/><g fill-rule="nonzero"><path d="m19.6649006 5.52625318c3.3689369 0 6.1 2.73106302 6.1 6.10000002 0 3.3689369-2.7310631 6.1-6.1 6.1-3.368937 0-6.1-2.7310631-6.1-6.1 0-3.368937 2.731063-6.10000002 6.1-6.10000002z" fill="#4da86d"/><path d="m18.556 12.714-1.6542365-1.6514258-.0941728-.079708c-.3232134-.2250155-.7455028-.1920779-1.0205982.0715552-.3129399.3126956-.3187656.809018-.0172292 1.1236646l2.2245438 2.2210341.0828891.0717863c.1476562.1086067.309791.1621002.4768562.1621002.2192002 0 .4299742-.0914877.5772864-.252192l4.413819-4.40566911.080565-.09212173c.2129426-.29578135.204342-.6783219-.0037792-.94988945l-.0767331-.08614117c-.305612-.30207838-.7994598-.30327275-1.1111523-.00456745z" fill="#fff"/></g></g></svg>