<svg height="32" viewBox="0 0 32 32" width="32" xmlns="http://www.w3.org/2000/svg"><path d="m15.9710072 18.196724c3.9700934.0061195 6.7667144.9460233 8.3136606 2.7869387.9684837 1.1494768 1.1912094 2.3477733 1.2209996 3.1052302l.0035427.2354865-.0061989.1988016-.0113904.1580866-.0058376.7169638c-.0094452 1.1107971-.7675846 1.365357-1.7924322 1.3036539l-.2996546-.0257689-.3116712-.0401817-.797025-.1227265-.3380185-.0576945c-1.1040321-.2129171-1.9630639-.6462581-2.0359298-1.732164l-.004966-.1678342.0058266-.7986924.0140795-.1564416.0312218-.2449909.0120681-.1668934.0004316-.1173074-.0083681-.1208858c-.002257-.0203859-.0049774-.040876-.0082095-.0614478l-.0259209-.1242319-.0405248-.1251149c-.2430033-.6259856-1.1207169-1.2446589-3.9390867-1.2495903-3.1031063-.0054081-3.8666305.7384034-4.0210429 1.420956l-.0217482.123245-.0106356.1208124-.0018343.1172973.0046556.1126997.037295.3831714.0024352.0734734-.0025646.7961094c-.0133369 1.2678242-.9999255 1.7159709-2.24201493 1.9216883l-1.11843985.1602935-.29554577.032671c-1.06208759.0944364-1.87177883-.1065285-1.93361886-1.1463661l-.00375076-.1470467.00553292-.7216904-.00902251-.1571815c-.00111846-.0297209-.00198296-.0611471-.00250155-.0941932l.00177524-.2170346c.00123295-.0391851.00299574-.0798196.00538034-.1218185l.02250502-.2676825c.08383502-.7538398.37393823-1.8132929 1.24699082-2.8292418 1.57761103-1.8352191 4.39115259-2.7659136 8.35955339-2.7533572zm6.1289928-14.90719061c3.368937 0 6.1 2.73106303 6.1 6.1 0 3.36893701-2.731063 6.10000001-6.1 6.10000001s-6.1-2.731063-6.1-6.10000001c0-3.36893697 2.731063-6.1 6.1-6.1zm2.9900806 3.3942596-.0825419.06631056-4.0154393 4.01042695-1.7965237-1.79312077-.0811277-.06779034c-.2284468-.15834497-.5455245-.13728512-.753975.06247989-.2077414.20762056-.2332128.52460555-.0779185.75775992l.0667058.08312599 2.2214537 2.21787991.0717141.0614481c.1009051.0737107.2216606.1139737.3467237.1139737.1300966 0 .2568986-.0432618.3586136-.1218736l.071242-.0654634 4.4199547-4.41207172.070756-.08159913c.1652699-.23058786.1430942-.55618004-.0700048-.76276441-.20304-.20069232-.5180696-.22338394-.7496327-.06872165z" fill-rule="evenodd"/></svg>