<svg height="32" viewBox="0 0 32 32" width="32" xmlns="http://www.w3.org/2000/svg"><g fill="none" fill-rule="evenodd"><path d="m17.7232442 20.729031c1.2034744-.0131491 1.9324667-.6552247 2.1593438-.8883421l.3269445-.2828164c.5975023-.5181624.2268771-1.0436796-.3848884-1.5631787l-.3652773-.3135722c-.6093149-.5181628-1.2286581-.8332946-1.8306175-.3155773l-.3592592.3135722c-.2634268.2255394-.7517254 1.2861566-2.6438542-.8751936-1.8903458-2.1593438-.7653199-2.4960945-.5021165-2.7196288l.3617111-.3131254c.5995087-.520168.3726316-1.1718273-.0595049-1.8444353l-.2598619-.4071749c-.4348105-.6706029-.9077304-1.1100938-1.5072391-.5923777l-.3249379.2808107c-.26521.1932247-1.0075751.8179172-1.1867591 2.0048985-.2168481 1.4238881.465789 3.0539265 2.0325338 4.8428684 1.5631791 1.790725 3.0942656 2.6888732 4.5437828 2.6732726" fill="#f8813d"/><path d="m14.6025205 19.4470887c-1.4301579-1.7011931-2.0481161-3.2546968-1.8403492-4.618955.1791839-1.1869814.9215491-1.8116738 1.186759-2.0048985l.324938-.2808107c.1337894-.1155362.2612743-.1834009.3834381-.2116641.2584883.5264241.3063617 1.0252885-.1720759 1.4404083l-.3617111.3131254c-.2632034.2235343-1.3882293.560285.5021165 2.7196288.4775573.5455066.8656885.885769 1.1833487 1.0860152.1223466.163054.265429.3390744.4318949.5292285 1.8921288 2.1613502 2.3804275 1.100733 2.6438543.8751935l.3592592-.3135721c.4139782-.3560435.8361782-.318186 1.2576839-.0912825.0419845.2234373-.0363931.4465759-.2921444.668367l-.3269445.2828164c-.2268771.2331174-.9558694.875193-2.1593438.8883421-1.0064379.0108319-2.0521996-.4188445-3.1207237-1.2819423z" fill="#df6824"/><g fill-rule="nonzero"><g fill="#ff905e"><path d="m26.7810589 4.60894113c.3313708 0 .6.26862915.6.6s-.2686292.6-.6.6c-5.6228663 0-10.1811 4.55823377-10.1811 10.18109997 0 .3313709-.2686292.6-.6.6-.3313709 0-.6-.2686291-.6-.6 0-6.28560793 5.095492-11.38109997 11.3811-11.38109997z" transform="matrix(0 1 -1 0 31.99 -10.791018)"/><path d="m.02999029 11.6207878c-.16568542-.2869756-.06736033-.6539298.21961525-.8196152.28697557-.1656855.65392981-.0673604.81961524.2196152 2.81143313 4.869545 9.03809622 6.5379744 13.90764122 3.7265412.2869756-.1656854.6539298-.0673603.8196153.2196153.1656854.2869756.0673603.6539298-.2196153.8196152-5.4434962 3.142804-12.40406772 1.2777245-15.54687171-4.1657717z" transform="matrix(0 1 -1 0 21.930197 6.103729)"/><path d="m19.7426337 31.7403945c-.1656854.2869755-.5326396.3853006-.8196152.2196152s-.3853007-.5326397-.2196152-.8196152c2.8114331-4.8695451 1.1430037-11.0962081-3.7265413-13.9076413-.2869756-.1656854-.3853006-.5326396-.2196152-.8196152s.5326396-.3853007.8196152-.2196153c5.4434962 3.142804 7.3085757 10.1033756 4.1657717 15.5468718z" transform="matrix(0 1 -1 0 42.049803 6.103729)"/></g><path d="m6.73857689 19.267486c1.14128637 0 2.06648178.9251954 2.06648178 2.0664818s-.92519541 2.0664818-2.06648178 2.0664818-2.06648178-.9251954-2.06648178-2.0664818.92519541-2.0664818 2.06648178-2.0664818z" fill="#c54e1a" transform="matrix(0 1 -1 0 28.072545 14.595391)"/><path d="m15.9999589 3.23939545c1.1412863 0 2.0664817.92519541 2.0664817 2.06648178s-.9251954 2.06648178-2.0664817 2.06648178c-1.1412864 0-2.0664818-.92519541-2.0664818-2.06648178s.9251954-2.06648178 2.0664818-2.06648178z" fill="#c54e1a" transform="matrix(0 1 -1 0 21.305836 -10.694082)"/><path d="m25.2613408 19.267486c1.1412864 0 2.0664818.9251954 2.0664818 2.0664818s-.9251954 2.0664818-2.0664818 2.0664818c-1.1412863 0-2.0664817-.9251954-2.0664817-2.0664818s.9251954-2.0664818 2.0664817-2.0664818z" fill="#c54e1a" transform="matrix(0 1 -1 0 46.595309 -3.927373)"/></g></g></svg>