<svg height="32" viewBox="0 0 32 32" width="32" xmlns="http://www.w3.org/2000/svg"><path d="m16.4307202 11.3539052c1.08.21 2.05.73 2.83 1.52.79.78 1.31 1.77 1.52 2.86.05.29.31.49.59.49.04 0 .07 0 .11-.01.33-.06.54-.38.48-.7-.25-1.33-.89-2.54-1.85-3.48-.94-.96-2.13-1.6-3.45-1.85-.33-.06-.64.15-.7.48-.07.31.15.62.47.69zm6.8 8.47-.69-.59c-.68-.57-2.47-2.1-4.23-.59l-.67.59c-.08.07-.16.15-.23.24-.26.29-.46.48-.8.48h-.01c-.4 0-1.34-.31-3.09-2.3s-1.92-2.96-1.86-3.35c.04-.33.27-.51.59-.72.09-.06.18-.12.27-.19l.68-.59c1.75-1.52.48-3.49999999 0-4.24999999l-.49-.77c-.5-.77-1.19-1.66-2.13-1.8-.55-.08-1.09000005.11-1.60000005.56l-.59.51c-.63.46-2.09 1.77-2.45 4.13999999-.44 2.86.9 6.09 3.96 9.6 3.03000005 3.47 6.03000005 5.24 8.93000005 5.24h.08c2.42-.03 3.92-1.28 4.47-1.83l.6-.52c.52-.45.78-.96.78-1.51-.02-.96-.82-1.76-1.52-2.35zm-.06 2.94-.61.53c-.01.01-.03.02-.04.04-.43.44-1.64 1.47-3.64 1.49h-.06c-2.53 0-5.23-1.62-8.02-4.82-2.82000005-3.22-4.06000005-6.13-3.68000005-8.63.29-1.94999999 1.49-3.00999999 1.99-3.37999999l.04-.03.61-.53c.28000005-.24.47000005-.28.58000005-.28.03 0 .05 0 .07.01.34.05.78.47 1.29 1.26l.49.77c.99 1.53999999.8 2.18999999.22 2.68999999l-.68.59c-.03.02-.09.07-.15.1-.35.23-1 .66-1.12 1.56-.14 1.08.56 2.49 2.15 4.3 1.59 1.82 2.89 2.7 3.98 2.71h.02c.89 0 1.41-.57 1.68-.87.05-.05.1-.11.13-.14l.67-.59c.59-.5 1.26-.59 2.66.59l.69.59c.72.61 1.08 1.09 1.08 1.44.02.08.02.29-.35.6zm2.97-7.96c-.42-2.2-1.48-4.19-3.06-5.75999999-1.56-1.59-3.53-2.64-5.71-3.06-.32-.06-.64.15-.7.48s.15.64.48.7c1.94.37 3.7 1.31 5.09 2.73 1.42 1.39999999 2.36 3.17999999 2.74 5.13999999.05.29.31.49.59.49.04 0 .07 0 .11-.01.31-.07.52-.38.46-.71zm-9.78-.41c-.39.39-.39 1.02-.01 1.41.39.39 1.02.39 1.41 0s.39-1.02.01-1.41-1.02-.38-1.41 0z"/></svg>