<svg height="32" viewBox="0 0 32 32" width="32" xmlns="http://www.w3.org/2000/svg"><path d="m16.3417678 14.3069165c.3884266 0 .7074334.3153818.7193194.7092482.0240493 3.575321 2.6324442 6.6077861 6.0758567 7.2513595l.2415709.0410013.2559491.0347804.0000058-2.1302213c0-.0620381.0105904-.1231465.0308951-.1808359l.037633-.0836586.0515473-.0766629c.1424548-.1773014.376238-.2441416.595973-.1733021l.0930049.0388684.076789.0509815 3.6090976 2.8997707c.0307578.0247128.0587394.0526943.0834521.0834522.1424549.1773014.1573694.4199941.0408621.6193123l-.0579892.0824495-.066325.0640051-3.6090976 2.8997707c-.0967236.0777137-.2170813.1200753-.3411574.1200753-.2274405 0-.4259733-.1403812-.508379-.3560454l-.0279526-.0968468-.0083533-.0918426.0008823-2.2412799c-3.3006533-.321921-6.0649049-2.4638437-7.3043957-5.3752699-1.2383449 2.9114262-4.0025965 5.0533489-7.30324978 5.3752699l.00088223 2.2412799-.00835329.0918426c-.05422453.2695371-.27639958.4528922-.53633159.4528922-.1240761 0-.24443376-.0423616-.34115738-.1200753l-3.60909758-2.8997707-.06632503-.0640051c-.17615493-.2110924-.17993268-.4991316-.01712712-.7017618.02471273-.0307579.05269432-.0587394.08345215-.0834522l3.60909758-2.8997707.07678902-.0509815c.24408081-.1265508.52617235-.0681965.6889779.1344337l.05154724.0766629c.04469969.080472.06852811.1714374.06852811.2644945l.00000581 2.1302213.25594909-.0347804c3.56226504-.5438235 6.29281904-3.6338928 6.31742764-7.2923608.0108955-.3610442.2798578-.6561396.6237965-.7028149zm-.6238909-7.88992431.4232196.00324815c4.4162993.06076646 7.5145216 1.14433732 9.2103437 3.21322014 1.0345068 1.25873112 1.2807906 2.55939792 1.313872 3.40508242l.0040304.2513546-.0061197.217629-.0194083.2556009-.0162383.7974803c-.0270944 1.307446-.9737817 1.53691-2.2134204 1.4079306l-.3156502-.039296-.1617225-.0244679-.8849528-.1473552c-1.4067988-.2298706-2.5518569-.6968449-2.6172369-2.0378686l-.00249-.1722264.019214-.9246648.0275422-.2168456.0282907-.2090983.013996-.1727152.0020087-.1209651c-.0002971-.0204843-.000939-.0411174-.0019688-.0618799l-.0111781-.1259727c-.0027538-.0212026-.0059818-.0424957-.0097271-.06386l-.0290244-.1288854c-.1736244-.6255764-.8548648-1.2784159-3.0959273-1.4854554l-.4862699-.0363196c-.2546085-.01482413-.526686-.02452837-.8173974-.02858902-.9699446-.01354139-1.7352029.04123342-2.3382386.14379982l-.3426944.0671107c-1.0796905.2417242-1.5444618.6581956-1.734024 1.0852182l-.0489521.1282592c-.0068959.0213745-.0131887.0427344-.0189208.0640591l-.028005.1273616-.0165881.1255317c-.0019265.0207147-.0034623.0413121-.0046497.0617717l-.0032845.1209398.0062886.1730527.0354114.4279557-.0137269.9220052c-.0321841 1.4152903-1.1436924 1.8987934-2.53527918 2.10954l-.17534928.0249703-1.04389402.1344207-.3065583.0310058-.29461471.0173516c-1.05589345.0359522-1.83027019-.2469719-1.87593439-1.3274287l-.00166813-.1523234.01596365-.8027424-.0092508-.2546226c-.00028626-.0331692-.00024576-.0678888.00020104-.1040833l.00819287-.2342599.02176266-.2660288c.08946114-.8421132.41366376-2.064146 1.43655145-3.22544558 1.72248169-1.95491538 4.72104454-2.95176381 8.91347604-2.95250013z"/></svg>