<svg height="32" viewBox="0 0 32 32" width="32" xmlns="http://www.w3.org/2000/svg"><path d="m25.2613408 19.267486c1.1412864 0 2.0664818.9251954 2.0664818 2.0664818s-.9251954 2.0664818-2.0664818 2.0664818c-.1930909 0-.3799965-.0264831-.5572825-.0760151-3.48352 4.1454898-9.5419142 5.3236563-14.3946494 2.5219284-.2869756-.1656855-.3853007-.5326397-.2196153-.8196153s.5326397-.3853007.8196153-.2196152c4.2943957 2.4793705 9.6442592 1.4746296 12.776386-2.1371702-.3064965-.3599305-.4909358-.8264234-.4909358-1.3359944 0-1.1412864.9251954-2.0664818 2.0664817-2.0664818zm-14.1323167-12.91415135c.1656854.28697558.0673603.65392982-.2196152.81961525-4.29265408 2.47836497-6.09773203 7.6106935-4.53924807 12.1277621.11944136-.021985.24261597-.033226.36841606-.033226 1.14128637 0 2.06648178.9251954 2.06648178 2.0664818s-.92519541 2.0664818-2.06648178 2.0664818-2.06648178-.9251954-2.06648178-2.0664818c0-.5790839.23819201-1.1025351.62194621-1.4777237-1.84508781-5.0883439.16402687-10.92160184 5.01536758-13.72252469.2869755-.16568542.6539298-.06736033.8196152.21961524zm1.5296005 4.57384615c.5662027-.4889541 1.0194913-.1241032 1.4344027.482875l.0728364.1095027.2598619.4071749c.405128.63057.6298522 1.242728.1623802 1.7453898l-.1028753.0990455-.3617111.3131254-.0842345.0610521-.1075754.0725016-.0774497.0578848-.0769717.0677576c-.0125477.0122221-.0248945.0249352-.0369502.0381793l-.0681162.0861553c-.231641.3416047-.2348032.9787963.9534142 2.3360981 1.2433989 1.4203159 1.8805724 1.4492678 2.2460834 1.2381578l.0894082-.0597608.0784031-.0661101.0998574-.1011345.1069444-.1146764.3824169-.3348546c.5643369-.48536 1.1439526-.2387236 1.7162601.2209548l.1143574.0946225.4648808.4002088.1828185.1735526c.3975933.4053262.5760145.8129446.1932107 1.2165633l-.0907443.0864262-.3269445.2828164-.1085616.1045618c-.0219983.0199463-.0459446.0409832-.071832.0628575l-.1785644.1392665c-.3698754.2663103-.9729971.5726163-1.8003858.5816563-1.4495172.0156006-2.9806037-.8825476-4.5437828-2.6732726-1.5667448-1.7889419-2.2493819-3.4189803-2.0325338-4.8428684.134388-.890236.5855654-1.4641845.9146403-1.7770357l.1523303-.134923.1197885-.0929398zm3.3413343-7.68778535c.9607804 0 1.7684184.6556809 1.999857 1.54398578 5.3313539.94513863 9.381243 5.60294817 9.381243 11.20665987 0 .3313709-.2686292.6-.6.6-.3313709 0-.6-.2686291-.6-.6 0-4.9566482-3.5420711-9.08600136-8.233094-9.99494016-.2839073.80305493-1.0489005 1.37725807-1.948006 1.37725807-1.1412864 0-2.0664818-.92519541-2.0664818-2.06648178s.9251954-2.06648178 2.0664818-2.06648178z" fill-rule="evenodd"/></svg>