<svg height="32" viewBox="0 0 32 32" width="32" xmlns="http://www.w3.org/2000/svg"><path d="m16 4c6.4393132 0 11.6877945 5.24848129 11.6877945 11.6877945 0 6.4393132-5.2484813 11.6877944-11.6877945 11.6877944-2.0272062 0-3.9363893-.5201761-5.6009446-1.4339237l-5.34063815 2.0583348 1.35565935-5.6365192c-1.32408763-1.8944374-2.10187107-4.1968259-2.10187107-6.6756863 0-6.43931321 5.24848129-11.6877945 11.68779447-11.6877945zm-3.6205926 5.27994391-.4147084.35839009c-.3384793.24660678-1.2859372 1.0438826-1.5146242 2.5587906-.2767566 1.8172647.5944723 3.8976327 2.5940606 6.1808045 1.9950377 2.2854475 3.9491164 3.4317265 5.7990909 3.4118159 1.5359575-.0167817 2.466348-.8362432 2.7559043-1.1337638l.4172693-.3609498c.7625738-.6613149.2895562-1.3320163-.4912214-1.9950372l-.4661922-.4002025c-.7776499-.6613153-1.5680987-1.0635085-2.336361-.4027617l-.4585116.4002026c-.3362035.2878491-.9594041 1.6414823-3.3742701-1.1169828-2.4125904-2.7559043-.9767543-3.1856889-.6408359-3.4709789l.4616408-.3996324c.7651346-.6638745.4755784-1.4955672-.0759443-2.3539963l-.3316537-.5196648c-.5549353-.85586993-1.1585085-1.41677869-1.9236431-.75603349z"/></svg>