<svg height="32" viewBox="0 0 32 32" width="32" xmlns="http://www.w3.org/2000/svg"><path d="m9.14687209 8.10827425c1.07223081-.92594344 1.92644091-.20331369 2.70937231.96367049l.0900302.1365555.4826428.75624791c.7705049 1.19926875 1.1896688 2.36267955.2368418 3.30858635l-.126323.1170923-.6718079.5815695c-.488849.4151713-2.578365 1.0406201.9325834 5.0511799 3.3225732 3.7953253 4.3144856 2.2414897 4.8262989 1.7066686l.0841446-.0811673.6672539-.5823991c1.0733011-.9230966 2.1763582-.4206117 3.2641267.4725218l.8143194.6960006c1.0956553.9304088 1.774859 1.8712107.8269373 2.8001357l-.1120821.1031639-.6072356.5252762-.1310464.1289113c-.5324686.5026228-1.8386614 1.4987126-3.8795134 1.5210108-2.6921955.0289751-5.5358899-1.6391599-8.4391902-4.9650823-2.90992274-3.3226106-4.17778805-6.3500889-3.77503497-8.9946832.2893906-1.9170316 1.36970692-3.04439059 1.97048164-3.54183693l.23369174-.18187093zm7.28384811 3.24563095c1.08.21 2.05.73 2.83 1.52.79.78 1.31 1.77 1.52 2.86.05.29.31.49.59.49.04 0 .07 0 .11-.01.33-.06.54-.38.48-.7-.25-1.33-.89-2.54-1.85-3.48-.94-.96-2.13-1.6-3.45-1.85-.33-.06-.64.15-.7.48-.07.31.15.62.47.69zm9.71 3.45c-.42-2.2-1.48-4.19-3.06-5.75999999-1.56-1.59-3.53-2.64-5.71-3.06-.32-.06-.64.15-.7.48s.15.64.48.7c1.94.37 3.7 1.31 5.09 2.73 1.42 1.39999999 2.36 3.17999999 2.74 5.13999999.05.29.31.49.59.49.04 0 .07 0 .11-.01.31-.07.52-.38.46-.71zm-9.78-.41c-.39.39-.39 1.02-.01 1.41.39.39 1.02.39 1.41 0s.39-1.02.01-1.41-1.02-.38-1.41 0z"/></svg>