<svg height="32" viewBox="0 0 32 32" width="32" xmlns="http://www.w3.org/2000/svg"><g fill="none" fill-rule="evenodd"><path d="m8.65860678 7h15.19110912c2.5728774 0 4.6586067 2.0857293 4.6586067 4.6586068v8.1019248c0 2.5728775-2.0857293 4.6586068-4.6586067 4.6586068h-15.19110912c-2.57287748 0-4.65860678-2.0857293-4.65860678-4.6586068v-8.1019248c0-2.5728775 2.0857293-4.6586068 4.65860678-4.6586068z" fill="#7c969d"/><g fill="#fff" fill-rule="nonzero"><path d="m10.0099553 14.15c-1.02000001 0-1.85000001.83-1.86000001 1.85 0 1.02.83 1.85 1.84 1.85h.01c.49000001 0 .95000001-.19 1.30000001-.54s.54-.81.55-1.31c0-.49-.19-.96-.54-1.31-.34-.35-.81-.54-1.3-.54z"/><path d="m16.0099553 14.15c-.5 0-.96.19-1.31.54s-.54.81-.55 1.31c0 1.02.83 1.85 1.84 1.85h.01c1.02 0 1.85-.83 1.85-1.84.01-1.02-.82-1.86-1.84-1.86z"/><path d="m22.0099553 14.15c-1.02 0-1.85.83-1.86 1.85 0 1.02.83 1.85 1.84 1.85h.01c1.02 0 1.85-.83 1.85-1.84.01-1.02-.82-1.86-1.84-1.86z"/></g></g></svg>