<svg height="32" viewBox="0 0 32 32" width="32" xmlns="http://www.w3.org/2000/svg"><path d="m23.8497159 7c2.5728774 0 4.6586067 2.0857293 4.6586067 4.6586068v8.1019248c0 2.5728775-2.0857293 4.6586068-4.6586067 4.6586068h-15.19110912c-2.57287748 0-4.65860678-2.0857293-4.65860678-4.6586068v-8.1019248c0-2.5728775 2.0857293-4.6586068 4.65860678-4.6586068zm-13.8397606 7.15c-1.02000001 0-1.85000001.83-1.86000001 1.85 0 1.02.83 1.85 1.84 1.85h.01l.16211251-.0069959c.4287517-.0372016.8267764-.221893 1.1378875-.5330041.35-.35.54-.81.55-1.31 0-.49-.19-.96-.54-1.31-.34-.35-.81-.54-1.3-.54zm6 0c-.5 0-.96.19-1.31.54s-.54.81-.55 1.31c0 1.02.83 1.85 1.84 1.85h.01l.151495-.0061437c.94943-.0773063 1.698505-.8743563 1.698505-1.8338563.01-1.02-.82-1.86-1.84-1.86zm6 0c-1.02 0-1.85.83-1.86 1.85 0 1.02.83 1.85 1.84 1.85h.01l.151495-.0061437c.94943-.0773063 1.698505-.8743563 1.698505-1.8338563.01-1.02-.82-1.86-1.84-1.86z" fill-rule="evenodd"/></svg>