<svg height="32" viewBox="0 0 32 32" width="32" xmlns="http://www.w3.org/2000/svg"><path d="m23.8497159 6.4c2.9042483 0 5.2586067 2.35435845 5.2586067 5.2586068v8.1019248c0 2.9042483-2.3543584 5.2586068-5.2586067 5.2586068h-15.19110912c-2.90424833 0-5.25860678-2.3543585-5.25860678-5.2586068v-8.1019248c0-2.90424835 2.35435845-5.2586068 5.25860678-5.2586068zm0 1.2h-15.19110912c-2.24150663 0-4.05860678 1.81710015-4.05860678 4.0586068v8.1019248c0 2.2415067 1.81710015 4.0586068 4.05860678 4.0586068h15.19110912c2.2415066 0 4.0586067-1.8171001 4.0586067-4.0586068v-8.1019248c0-2.24150665-1.8171001-4.0586068-4.0586067-4.0586068zm-13.8397606 6.55c.49 0 .96.19 1.3.54.35.35.54.82.54 1.31-.01.5-.2.96-.55 1.31s-.81.54-1.30000001.54h-.01c-1.01 0-1.84-.83-1.84-1.85.01-1.02.84-1.85 1.86000001-1.85zm6 0c1.02 0 1.85.84 1.84 1.86 0 1.01-.83 1.84-1.85 1.84h-.01c-1.01 0-1.84-.83-1.84-1.85.01-.5.2-.96.55-1.31s.81-.54 1.31-.54zm6 0c1.02 0 1.85.84 1.84 1.86 0 1.01-.83 1.84-1.85 1.84h-.01c-1.01 0-1.84-.83-1.84-1.85.01-1.02.84-1.85 1.86-1.85z"/></svg>