<svg height="32" viewBox="0 0 32 32" width="32" xmlns="http://www.w3.org/2000/svg"><g fill="none" fill-rule="evenodd" transform="translate(4 8)"><path d="m1.70197433 13.5h2.48963258c.37499621 0 .6789907.3050112.6789907.6812616v2.5080125c0 .3762504-.30399449.6812616-.6789907.6812616h-2.48963258c-.37499621 0-.6789907-.3050112-.6789907-.6812616v-2.5080125c0-.3762504.30399449-.6812616.6789907-.6812616z" fill="#4a4a4a"/><path d="m19.8083931 13.5h2.4896326c.3749962 0 .6789907.3050112.6789907.6812616v2.5080125c0 .3762504-.3039945.6812616-.6789907.6812616h-2.4896326c-.3749962 0-.6789907-.3050112-.6789907-.6812616v-2.5080125c0-.3762504.3039945-.6812616.6789907-.6812616z" fill="#4a4a4a"/><path d="m4.56882397 6.03348214c0 .68282579-.55169452 1.23636546-1.2322442 1.23636546-.23223791 0-.45974838-.06584823-.65630546-.18995413l-2.20207056-1.39038468c-.47811288-.30187989-.62179369-.93548526-.32092007-1.41519719.1872377-.29853121.51415239-.47966874.86569995-.47966874h1.31446392c1.23235516 0 2.23137642 1.00236249 2.23137642 2.23883928z" fill="#bb3600"/><path d="m19.431176 6.03348214c0 .68282579.5516946 1.23636546 1.2322442 1.23636546.2322379 0 .4597484-.06584823.6563055-.18995413l2.2020705-1.39038468c.4781129-.30187989.6217937-.93548526.3209201-1.41519719-.1872377-.29853121-.5141524-.47966874-.8656999-.47966874h-1.3144639c-1.2323552 0-2.2313765 1.00236249-2.2313765 2.23883928z" fill="#bb3600"/><path d="m15.9719492.30255952c.9774301 0 1.8910182.4855177 2.4379299 1.29561463l3.7610005 5.57087128c.3282089.48614986.5035773 1.05932387.5035773 1.64589254v4.32576243c0 .4372786-.1772422.83316-.463804 1.1197218s-.6824432.463804-1.1197218.463804h-18.18186219c-.43727856 0-.83316001-.1772422-1.11972181-.463804s-.46380396-.6824432-.46380396-1.1197218v-4.32576243c0-.58656867.17536832-1.15974268.50357728-1.64589254l3.76100046-5.57087128c.54691175-.81009693 1.46049987-1.29561463 2.43792991-1.29561463z" stroke="#979797" stroke-width=".605119"/><path d="m15.9751708 0c.9089549 0 1.7679381.38199515 2.3765956 1.03935275.1119482.12087731.2152802.25089257.3088749.38952708l3.7610005 5.57087128c.3619681.53615459.5553746 1.16828452.5553746 1.81518686v4.32576243c0 1.0416562-.8444292 1.8860853-1.8860853 1.8860853h-18.18186219c-1.04165614 0-1.88608528-.8444291-1.88608528-1.8860853v-4.32576243c0-.64690234.19340647-1.27903227.55537456-1.81518686l3.76100047-5.57087128c.09359478-.13863451.19692671-.26864977.30874792-.38938261.60878451-.65750207 1.46776768-1.03949722 2.37672258-1.03949722z" fill="#ec4800"/><path d="m3.02298363 11.3080357h17.95403277c1.1045695 0 2 .8954305 2 2v1.71875h-21.95403277v-1.71875c0-1.1045695.8954305-2 2-2z" fill="#bb3600"/><path d="m15.9751708.98404453h-7.95034164c-.68257158 0-1.32475228.30875697-1.75223705.83350204l-.12163025.16381039-2.81384589 4.16657161 17.32455783.00121429-2.8126357-4.1677859c-.3828025-.56701499-.9977315-.92731879-1.6704818-.98814249z" fill="#a1e0f1" fill-rule="nonzero"/><path d="m15.9751708.98404453.2033855.00916994c.6054753.05474133 1.1641153.35206154 1.5488516.8243321l.1216302.16381039 2.8126357 4.1677859-7.0508469-.00074119-3.67549303-5.16435714z" fill="#6ad1eb" fill-rule="nonzero"/><g fill="#fff"><path d="m6.55440122 8.43921887c.3954337.34755747.43518423.95094295.08878529 1.34769919-.18074054.20701546-.44170185.32573834-.71599606.32573834h-2.55348726c-.52569957 0-.95186328-.42758904-.95186328-.95504682 0-.27521159.11832711-.53704568.32465251-.71839071 1.08979921-.95785428 2.71810959-.95785428 3.8079088 0z"/><path d="m21.0395362 8.43921887c.3954337.34755747.4351843.95094295.0887853 1.34769919-.1807405.20701546-.4417018.32573834-.715996.32573834h-2.5534873c-.5256996 0-.9518633-.42758904-.9518633-.95504682 0-.27521159.1183271-.53704568.3246525-.71839071 1.0897992-.95785428 2.7181096-.95785428 3.8079088 0z"/></g></g></svg>