<svg height="32" viewBox="0 0 32 32" width="32" xmlns="http://www.w3.org/2000/svg"><path d="m19.9751708 8 .2087806.00673244.1882828.01802046c.1187662.0145256.2319147.03489517.3433163.06109895l.1247369.03203693.1897527.05903004.1810218.06859347.1768322.07939221.1349129.06980967.1642098.09570861.1015359.0655696.1085611.07674224.1592312.12531872.1170915.10321095.1095872.10612621.1781853.1963545.0943903.11848586.105042.14664897 1.824737 2.70230287c.2928927-.1828483.6311038-.2994961.9938517-.3290925l.1833225-.0074473h1.3144639c.3515475 0 .6784622.1811375.8656999.4796687.2793827.4454468.1754505 1.0235874-.2236263 1.3456082l-.0972938.069589-1.3917962.8774912.2916418.4327511c.3619681.5361546.5553746 1.1682845.5553746 1.8151869v7.5038004c0 .3762504-.3039945.6812616-.6789907.6812616h-2.4896326c-.3749962 0-.6789907-.3050112-.6789907-.6812616l-.0004024-1.2927384h-14.259l.00059761 1.2927384c0 .3762504-.30399449.6812616-.6789907.6812616h-2.48963258c-.37499621 0-.6789907-.3050112-.6789907-.6812616v-7.5038004c0-.6469024.19340647-1.2790323.55537456-1.8151869l.29064181-.4327511-1.39079625-.8774912c-.47823289-.3018799-.62179369-.9354853-.32092007-1.4151972.1872377-.2985312.51415239-.4796687.86569995-.4796687h1.31446392c.43207443 0 .83546596.1232168 1.17717415.3365398l1.82473696-2.70230287.08964134-.12687983.15825311-.19492183.15533162-.16538907.09428208-.08998918.14853886-.12808666.15713213-.11968554.1193194-.08129008.1298822-.07972591.0850843-.04841668.1861486-.09378827.1259819-.05519544.1810226-.068592.1896981-.05901408.1248449-.03159965.1682969-.03529765.1749491-.02625506.1882827-.01802039.1041344-.00504332zm-9.4207696 8.4392189c-1.08979919-.9578543-2.71810957-.9578543-3.80790878 0-.2063254.181345-.32465251.4431791-.32465251.7183907 0 .4922939.37123594.897591.84814729.9494427l.10371599.0056041h2.55348726c.27429425 0 .53525555-.1187229.71599605-.3257383.3463989-.3967563.3066484-1.0001418-.0887853-1.3476992zm14.485135 0c-1.0897992-.9578543-2.7181096-.9578543-3.8079088 0-.2063254.181345-.3246525.4431791-.3246525.7183907 0 .4922939.371236.897591.8481473.9494427l.103716.0056041h2.5534873c.2742942 0 .5352555-.1187229.715996-.3257383.346399-.3967563.3066484-1.0001418-.0887853-1.3476992zm-5.0643654-7.45517437h-7.9503416c-.6825716 0-1.3247523.30875697-1.7522371.83350204l-.1216302.16381039-2.81384593 4.16657164 17.32455783.0012143-2.8126357-4.16778594c-.3828025-.56701499-.9977315-.92731879-1.6704818-.98814249z" fill-rule="evenodd"/></svg>