<svg height="32" viewBox="0 0 32 32" width="32" xmlns="http://www.w3.org/2000/svg"><path d="m19.9945087 7.40031171.2466072.00915009.2039581.01972887c.0926442.01133078.1833962.02579325.2768804.04439334l.1428534.0311291.1537081.04025805.2241272.07087727.2141684.08230004.213592.09742775.2576856.13927148.2068072.13119971.1332922.09519637.1915381.15264378.2160148.19778613.1231011.12752541.0926317.1045676.1519041.18907666.114514.16026648 1.5351077 2.27389016.0819399-.0290749c.0954678-.031329.193327-.057754.293508-.0791301l.1520044-.0282594.2344232-.0279509.207677-.0079418h1.3144639c.5582352 0 1.0770976.2874923 1.3739965.7608669.4116266.6562962.3002203 1.5026958-.2640073 2.0476107l-.1188623.1048176-.1263523.0891171-.871791.5489448.0844573.1338795c.2561104.4396018.4219947.9249968.4889299 1.4276751l.0251815.2526474.0084477.254736v7.5038004c0 .6629753-.5028876 1.2089807-1.1481473 1.2746417l-.1308434.0066199h-2.4896326c-.6626403 0-1.206943-.5045695-1.2723924-1.1502244l-.0065983-.1309044-.0004024-1.2188712h-13.06l.00159761 1.2187384c0 .6187769-.43807098 1.1356601-1.02110047 1.2552126l-.12704682.0194291-.13084341.0066199h-2.48963258c-.66264033 0-1.20694296-.5045695-1.27239235-1.1503338l-.00659835-.1309278v-7.5038004c0-.6813768.18107858-1.3489228.52199157-1.9342156l.0840248-.1347224-.87106922-.5491203c-.66883498-.4221956-.92458243-1.2528731-.64817189-1.9643756l.06241282-.1405552.07681539-.1364391c.26990806-.4303406.7232571-.7070594 1.22286393-.7538154l.1511326-.0070515h1.31446392c.26758329 0 .53003025.0374234.78231901.1096769l.18723344.0606802 1.54233682-2.28235506.0993431-.13907979.15906354-.19874319.1887765-.20531569.14852003-.14219797.17680551-.15100417.18287199-.13823669.14325719-.09677874.16052902-.09731695.257849-.13642327.2100034-.09310938.2153893-.08043647.2207055-.06775456.1489079-.03716591.2024115-.0414297.2068312-.03017022.2164225-.0200473.1330331-.00574574zm-.0395087 1.19868829-8.0057926.00198676-.0759946.00301641-.1564006.01410523-.1408346.02012301-.1442338.02973139-.0938375.02285917-.1553314.04716962-.1478715.05488372-.1393657.06097711-.1897157.10040825-.1059444.06423724-.0935796.06273894-.1288655.09676803-.1233942.10512843-.0969208.09200109-.1351522.14609126-.11246767.14078336-.07268802.1026408-1.82473695 2.70230288c-.18075847.2676901-.54099315.3442434-.81498822.1731927-.20473825-.1278148-.43431887-.2082476-.67605442-.2353081l-.18338247-.0101944h-1.31446392c-.14485991 0-.27982683.0747827-.35740338.1984705-.10964961.174825-.07759529.398814.06499573.5359127l.06778712.0530401 1.39079625.8774912c.25733821.1623617.34827324.4871298.22647318.7550619l-.04854265.086905-.2914499.4339511c-.25814337.3823673-.41110086.8246251-.44530675 1.2824353l-.0073496.1970273.0073496 5.085062 20.74668317.0078564v-5.0929184c0-.4613488-.1206896-.9134794-.3486874-1.3123268l-.1042443-.1675439-.2916418-.4327511c-.1702752-.252662-.1221907-.5870057.097894-.7829687l.0796683-.0598939 1.3627378-.8579631.0695647-.048513c.1663378-.1342203.2074899-.3759061.092112-.5598641-.0620612-.0989502-.1608523-.1666012-.2720545-.1897036l-.0853488-.0087669-1.2901094-.0004945-.1588855.0059547c-.2597536.0211931-.5067259.103836-.7249059.2400423-.2435512.1520451-.5552423.1084524-.7484527-.0911193l-.0665356-.0820734-1.815265-2.68868537-.0833504-.11819716-.1112012-.1383105-.0570756-.06450399-.0794066-.08351328-.1565582-.14419822-.1345001-.10686458-.0818575-.05891731-.142973-.09181641-.1837952-.09967755-.1436855-.06568565-.1466474-.05674624-.1607816-.05080892-.1128616-.0291156-.1360245-.02829638-.1270742-.019592-.1504562-.0156028zm-9.4005988 7.8402189c.3954337.3475574.4351842.9509429.0887853 1.3476992-.1807405.2070154-.4417018.3257383-.71599605.3257383h-2.55348726c-.52569957 0-.95186328-.427589-.95186328-.9550468 0-.2752116.11832711-.5370457.32465251-.7183907 1.08979921-.9578543 2.71810959-.9578543 3.80790878 0zm14.485135 0c.3954337.3475574.4351843.9509429.0887853 1.3476992-.1807405.2070154-.4417018.3257383-.715996.3257383h-2.5534873c-.5256996 0-.9518633-.427589-.9518633-.9550468 0-.2752116.1183271-.5370457.3246525-.7183907 1.0897992-.9578543 2.7181096-.9578543 3.8079088 0zm-5.1388474-7.40679296.1995752.00899815c.6001337.05425839 1.1533763.35138426 1.5312233.82298469l.1079638.14664592 2.1284773 3.1539947c.185365.2746753.1129647.6476115-.1617106.8329764-.0991564.0669159-.2160516.1026565-.3356749.1026565l-14.74203114-.0010332c-.33137085-.0000233-.59995794-.2686713-.59995794-.6000421 0-.1196631.03579755-.2365903.10276884-.3357573l2.12920354-3.152795.1193517-.16074153c.3813421-.46810409.9367947-.7610497 1.5378534-.81044391l.1815573-.00744332zm-.0326888 1.19957406-7.7687114.0004259c-.2621369 0-.5123839.1015159-.679598.2533721l-.0763583.0798861-.0883437.1169693-1.4979886 2.2163466 12.484.001-1.4961125-2.2174966c-.1477033-.2187811-.3720878-.369978-.5904035-.4236984l-.1082689-.0185987z"/></svg>