<svg height="32" viewBox="0 0 32 32" width="32" xmlns="http://www.w3.org/2000/svg"><path d="m11.1144574 5.00143575 9.4758296-.00143575c2.2287968 0 3.0370124.23206403 3.8518273.66783176.8148148.43576773 1.4542862 1.07523917 1.8900539 1.89005398l.113774.22313087c.3622693.75037258.5540578 1.60251744.5540578 3.62869639v9.180574l-.0057323.5737049c-.0381447 1.8020948-.265947 2.5373816-.6620995 3.2781224-.4357677.8148148-1.0752391 1.4542862-1.8900539 1.8900539l-.2231309.113774c-.7503726.3622693-1.6025174.5540578-3.6286964.5540578h-9.180574l-.5737049-.0057323c-1.80209478-.0381447-2.53738162-.265947-3.27812236-.6620995-.81481481-.4357677-1.45428625-1.0752391-1.89005398-1.8900539l-.11377393-.2231309c-.34415591-.712854-.53445278-1.5175574-.55262208-3.3334408l-.00143575-9.4758296c0-2.22879685.23206403-3.03701244.66783176-3.85182726.43576773-.81481481 1.07523917-1.45428625 1.89005398-1.89005398l.22313087-.11377393c.71285395-.34415591 1.51755738-.53445278 3.33344079-.55262208zm6.8855426 4.99856425h-4v4h-4v4h4v4h4v-4h4v-4h-4z" fill-rule="evenodd"/></svg>