<svg height="32" viewBox="0 0 32 32" width="32" xmlns="http://www.w3.org/2000/svg"><path d="m10.409713 3.4 11.5064612.00160879c1.9007685.01945138 2.8380207.21790345 3.8088994.73713505.9193759.49168761 1.6444949 1.21680669 2.1361826 2.13618259.5192316.97087867.7176836 1.90813084.737135 3.80889937l.0016088 11.5064612c0 2.1226204-.190666 3.1099702-.7387438 4.1347866-.4916877.9193759-1.2168067 1.6444949-2.1361826 2.1361826-.9708787.5192316-1.9081309.7176836-3.8088994.737135l-11.5064612.0016088c-2.12262039 0-3.10997019-.190666-4.13478657-.7387438-.9193759-.4916877-1.64449498-1.2168067-2.13618259-2.1361826-.5192316-.9708787-.71768367-1.9081309-.73713505-3.8088994l-.00160879-.3258872.00160879-11.5064612c.01945138-1.90076853.21790345-2.8380207.73713505-3.80889937.49168761-.9193759 1.21680669-1.64449498 2.13618259-2.13618259.97087867-.5192316 1.90813084-.71768367 3.80889937-.73713505zm11.180574 1.2-11.4778069.00130359c-1.7285363.01575971-2.48796766.17650619-3.27163504.59561609-.71025373.37984785-1.26407753.93367165-1.64392538 1.64392538-.39582602.7401303-.56119824 1.45864268-.59162756 2.99234852l-.00529212.57651942.00130359 11.4778069c.01575971 1.7285363.17650619 2.4879677.59561609 3.271635.37984785.7102538.93367165 1.2640776 1.64392538 1.6439254.69387216.3710869 1.36874418.5396265 2.71412743.5843174l.27822109.0073102.57651942.0052921h11.180574c1.9414627 0 2.7416635-.1545259 3.5688679-.5969197.7102538-.3798478 1.2640776-.9336716 1.6439254-1.6439254.3710869-.6938721.5396265-1.3687441.5843174-2.7141274l.0073102-.2782211.0052921-.5765194v-11.180574c0-1.94146274-.1545259-2.74166348-.5969197-3.56886794-.3798478-.71025373-.9336716-1.26407753-1.6439254-1.64392538-.7401303-.39582602-1.4586426-.56119824-2.9923485-.59162756zm-3.590287 4.85510711c.2708424 0 .4955317.19760505.5377612.45650843l.0071317.08838446-.0008929 3.455 3.456.0001071c.2407488 0 .445031.1561324.5171139.3726646l.0206473.0838438.0071317.0883845v4c0 .2708424-.1976051.4955317-.4565084.5377612l-.0883845.0071317-3.456-.0008929.0008929 3.456c0 .2407488-.1561324.445031-.3726646.5171139l-.0838438.0206473-.0883845.0071317h-4c-.2708424 0-.4955317-.1976051-.5377612-.4565084l-.0071317-.0883845-.0001071-3.456-3.455.0008929c-.24074883 0-.44503098-.1561324-.51711389-.3726646l-.02064727-.0838438-.00713173-.0883845v-4c0-.2708424.19760505-.4955317.45650843-.5377612l.08838446-.0071317 3.455-.0001071.0001071-3.455c0-.24074883.1561324-.44503098.3726646-.51711389l.0838438-.02064727.0883845-.00713173zm-.545 1.08889289h-2.911l.0008929 3.456c0 .2407488-.1561324.445031-.3726646.5171139l-.0838438.0206473-.0883845.0071317-3.456-.0008929v2.911l3.456.0001071c.2407488 0 .445031.1561324.5171139.3726646l.0206473.0838438.0071317.0883845-.0008929 3.455h2.911l.0001071-3.455c0-.2407488.1561324-.445031.3726646-.5171139l.0838438-.0206473.0883845-.0071317 3.455-.0001071v-2.911l-3.455.0008929c-.2407488 0-.445031-.1561324-.5171139-.3726646l-.0206473-.0838438-.0071317-.0883845z"/></svg>