<svg height="32" viewBox="0 0 32 32" width="32" xmlns="http://www.w3.org/2000/svg"><g fill="none" fill-rule="evenodd"><path d="m11.1144574 5.00143575 9.4758296-.00143575c1.92487 0 2.7901742.17308908 3.5152432.50099869l.2253798.10867549c.0371438.01896321.0741672.03834996.1112043.05815758.8148148.43576773 1.4542862 1.07523917 1.8900539 1.89005398l.113774.22313087c.3260424.67533532.5139953 1.43310619.5483255 3.05499149l.0057323.5737049v9.180574l-.0057323.5737049c-.032423 1.5317806-.2018736 2.2927924-.4952664 2.9415383l-.1086755.2253798c-.0189632.0371438-.0383499.0741672-.0581576.1112043-.4357677.8148148-1.0752391 1.4542862-1.8900539 1.8900539l-.2231309.113774c-.6753353.3260424-1.4331062.5139953-3.0549915.5483255l-.5737049.0057323h-9.180574l-.5737049-.0057323c-1.53178057-.032423-2.29279239-.2018736-2.94153828-.4952664l-.22537984-.1086755c-.0371438-.0189632-.0741672-.0383499-.11120424-.0581576-.81481481-.4357677-1.45428625-1.0752391-1.89005398-1.8900539l-.11377393-.2231309c-.34415591-.712854-.53445278-1.5175574-.55262208-3.3334408l-.00143575-9.4758296c0-1.92487001.17308908-2.79017424.50099869-3.51524318l.10867549-.22537984c.01896321-.0371438.03834996-.0741672.05815758-.11120424.43576773-.81481481 1.07523917-1.45428625 1.89005398-1.89005398l.22313087-.11377393c.71285395-.34415591 1.51755738-.53445278 3.33344079-.55262208z" fill="#4588a0"/><path d="m18 22h-4v-4h-4v-4h4v-4h4v4h4v4h-4z" fill="#fff"/></g></svg>