<svg height="32" viewBox="0 0 32 32" width="32" xmlns="http://www.w3.org/2000/svg"><path d="m12.6666667 5.4-.0973231.00785299c-.2850873.04650026-.5026769.29391325-.5026769.59214701l-.0006667 6.066-6.066.0006667c-.33137085 0-.6.2686291-.6.6v6.6666666l.00785299.0973231c.04650026.2850873.29391325.5026769.59214701.5026769l6.066-.0003333.0006667 6.067c0 .3313708.2686291.6.6.6h6.6666666l.0973231-.007853c.2850873-.0465002.5026769-.2939132.5026769-.592147l-.0003333-6.067 6.067.0003333c.3313708 0 .6-.2686291.6-.6v-6.6666666l-.007853-.0973231c-.0465002-.2850873-.2939132-.5026769-.592147-.5026769l-6.067-.0006667.0003333-6.066c0-.33137085-.2686291-.6-.6-.6z" fill="#b75c64"/></svg>