<svg height="32" viewBox="0 0 32 32" width="32" xmlns="http://www.w3.org/2000/svg"><g fill="none"><g fill="#b5e0db"><path d="m14.0855 17.136h-7.5705c-.3465 0-.63.2835-.63.63v7.5705c0 .3465.2835.63.63.63h7.5705c.3465 0 .63-.2835.63-.63v-7.5705c0-.357-.273-.63-.63-.63z"/><path d="m25.4465 5.985h-7.5705c-.168 0-.3255.063-.441.189-.1155.1155-.189.2835-.189.441v7.5705c0 .3465.2835.63.63.63h7.5705c.3465 0 .63-.2835.63-.63v-7.5705c0-.3465-.2835-.63-.63-.63z"/><path d="m14.0855 5.985h-7.5705c-.3465 0-.63.2835-.63.63v7.5705c0 .3465.2835.63.63.63h7.5705c.3465 0 .63-.2835.63-.63v-7.5705c0-.3465-.273-.63-.63-.63z"/></g><path d="m25.4465 17.136h-7.5705c-.168 0-.3255.063-.441.189-.1155.1155-.189.2835-.189.441v7.5705c0 .3465.2835.63.63.63h7.5705c.3465 0 .63-.2835.63-.63v-7.5705c0-.357-.2835-.63-.63-.63z" fill="#b34874"/></g></svg>