<svg height="32" viewBox="0 0 32 32" width="32" xmlns="http://www.w3.org/2000/svg"><path d="m14.195 17.105h-7.21c-.33 0-.6.27-.6.6v7.21c0 .33.27.6.6.6h7.21c.33 0 .6-.27.6-.6v-7.21c0-.34-.26-.6-.6-.6zm10.82-10.62h-7.21c-.16 0-.31.06-.42.18-.11.11-.18.27-.18.42v7.21c0 .33.27.6.6.6h7.21c.33 0 .6-.27.6-.6v-7.21c0-.33-.27-.6-.6-.6zm-10.82 0h-7.21c-.33 0-.6.27-.6.6v7.21c0 .33.27.6.6.6h7.21c.33 0 .6-.27.6-.6v-7.21c0-.33-.26-.6-.6-.6zm10.22 17.83h-6.01v-6.01h6.01zm.6-7.21h-7.21c-.16 0-.31.06-.42.18-.11.11-.18.27-.18.42v7.21c0 .33.27.6.6.6h7.21c.33 0 .6-.27.6-.6v-7.21c0-.34-.27-.6-.6-.6z"/></svg>