<svg height="32" viewBox="0 0 32 32" width="32" xmlns="http://www.w3.org/2000/svg"><g fill="none" fill-rule="evenodd"><path d="m11.1863251 20.2841266h9.6273498v9.2634021l-4.7984057-2.7867673-4.8289441 2.7867673z" fill="#bd4b4b" transform="matrix(-1 0 0 1 32 0)"/><path d="m23.458284 18.5241104c-.1960628.099899-.3247373.2801238-.3582811.4912584l-.3449771 2.2349798c-.1063451.6889715-.7510767 1.1612834-1.4400482 1.0549382-.0038765-.0005983-.0077502-.0012148-.011621-.0018492l-2.2265432-.3649573c-.2111346-.0335439-.4320388.0349118-.5749846.1871275l-1.6063399 1.6172668c-.491272.4946138-1.2904903.4973229-1.7851041.0060509l-.0050398-.0050341-1.5977549-1.6049728c-.1487813-.1535158-.3707528-.2256387-.5813538-.1888933l-2.2221638.3603706c-.6881404.1115964-1.33645518-.3557848-1.44805161-1.0439253-.0005705-.0035178-.0011261-.0070381-.00166678-.0105607l-.34301215-2.2347542c-.03674542-.2106009-.16465344-.3923925-.35518148-.4893568l-2.03720219-1.029702c-.62217051-.3144755-.87160658-1.0737771-.55713107-1.6959476l.00411518-.0080696 1.03584559-2.013338c.09696426-.1905281.10223231-.422536-.00110114-.6080288l-1.02954141-2.0095121c-.31787325-.6204414-.07259328-1.3810958.54784817-1.69896905l.00750766-.00381487 2.0233774-1.01966041c.19606289-.09989904.32473735-.2801238.3582812-.49125838l.33772134-2.23390433c.10420797-.68929797.74747163-1.16360713 1.43676959-1.05939916.0051686.00078139.0103323.00159488.0154909.00244042l2.2226375.36431712c.2111346.03354384.4320389-.03491179.5749846-.18712757l1.6169-1.61883625c.4926507-.49324062 1.2918735-.49371888 1.7851141-.00106821l.0025435.00254775 1.6002512 1.60748036c.1487813.15351582.3707528.22563871.5813538.18889329l2.2221638-.36037055c.6881404-.11159643 1.3364552.35578482 1.4480516 1.04392523.0005705.00351788.0011261.00703817.0016668.01056075l.3430122 2.23475415c.0367454.21060099.1646534.39239259.3551814.48935684l2.0158278 1.01347258c.622844.31313951.8739091 1.07190409.5607696 1.69474809-.0017619.0035044-.0035402.0070007-.0053347.0104886l-1.0345959 2.0109091c-.0969642.190528-.1022323.4225359.0011012.6080287l1.0388999 2.0167472c.3192482.6197351.0756553 1.3809314-.5440798 1.7001796l-.0049929.002558z" fill="#f5bd0f" fill-rule="nonzero"/><ellipse cx="16" cy="13.482261" fill="#ffe7a2" rx="5.885798" ry="5.942633"/></g></svg>