<svg height="32" viewBox="0 0 32 32" width="32" xmlns="http://www.w3.org/2000/svg"><path d="m19.001 22.986.6295507.1031163 1.2408871.1533617.0008697 4.9930373c0 .4156465-.4499111.6754599-.8099111.4677051l-4.0752804-2.3518306-4.0482269 2.3510863c-.3599982.209076-.8111966-.0506538-.8111966-.4669608l-.0002547-4.9530373 1.2277609-.1822253.6488013-.1062527 1.0993979 1.1047124.1354257.1258355c1.0160763.8825801 2.522125.8805347 3.5260521-.00215l.1336936-.1258242zm-1.8108463-18.82685394 1.1360952 1.11361639c.2270132.22252147.5463008.32385453.8600862.27296762l1.500903-.24340296c.865624-.1403791 1.6837873.40921608 1.8935031 1.24436053l.0314358.15578796.2545815 1.54867718c.0518976.31570499.2517239.58751749.5375729.73123022l1.3592746.68338557c.7810683.39268793 1.1218141 1.31315923.806996 2.11091543l-.0694884.1533011-.7036319 1.4089009c-.1424534.2852383-.1403528.6213085.005655.9047437l.7027156 1.3641349c.4003484.7771696.1340868 1.7218811-.5908487 2.1820132l-.138211.078885-1.4057122.7360275c-.2813443.1473112-.4759911.4195013-.5244365.7333616l-.2334407 1.5123767c-.1205679.7811155-.7623172 1.3524953-1.5168051 1.4149256l-1.3040906-.1630686-.6601811-.0946516c-.3129282-.0448652-.6286432.0608793-.8514206.2851721l-1.091636 1.0990617-.1191942.1091149c-.615552.5116544-1.5125031.5143671-2.1367197.0016524l-.1210427-.1094172-1.1310194-1.108553c-.2270121-.2225027-.5462862-.3238245-.8600579-.2729399l-.6133434.0994665-1.1012547.1632865-.1258477.0010872c-.7299756-.0302805-1.36881406-.5375265-1.55262103-1.2594004l-.03279963-.1611813-.25565579-1.5508483c-.05189093-.3147785-.25086022-.5859066-.53558332-.7298197l-1.38046181-.6977531c-.78022367-.3943634-1.11899316-1.3155639-.80172483-2.114098l.06742928-.1484993.70516082-1.4135491c.14190604-.2844616.14010846-.6194477-.00484224-.90237l-.69605698-1.3586c-.39862423-.7780553-.13026863-1.7221742.59613684-2.1809275l.14126568-.08003218 1.39951497-.72395548c.28459624-.14721887.48141071-.42189956.52930737-.73871863l.2277008-1.50615826c.13836754-.91525115.99249427-1.54503975 1.90774537-1.40667221l1.5689091.23809529c.3144354.04771825.6328198-.05697664.8575703-.28199631l1.0977464-1.09906088c.6541424-.65492583 1.715352-.65556085 2.3708223-.00087378zm-1.1901537 4.20374611c-2.9654284 0-5.3672687 2.42503293-5.3672687 5.41388173 0 2.9888489 2.4018403 5.4138818 5.3672687 5.4138818s5.3672687-2.4250329 5.3672687-5.4138818c0-2.9888488-2.4018403-5.41388173-5.3672687-5.41388173zm0 1.13566344c2.3433741 0 4.2413832 1.91633669 4.2413832 4.27821829 0 2.3618817-1.8980091 4.2782184-4.2413832 4.2782184s-4.2413832-1.9163367-4.2413832-4.2782184c0-2.3618816 1.8980091-4.27821829 4.2413832-4.27821829z"/></svg>