<svg height="32" viewBox="0 0 32 32" width="32" xmlns="http://www.w3.org/2000/svg"><path d="m19.7923075 22.1022856-1.1079048-.1816026c-.0192612-.0030601-.0371723.0026917-.049627.0156447l-1.4457059 1.4555401c-.6523119.6567491-1.7135155.6603463-2.3713442.0069591l-.0056124-.005609-1.4430524-1.4496403c-.0094465-.0097471-.0292601-.0161849-.0490051-.0127791l-1.1123632.180393v5.1862448l3.5073687-2.0369725c.1672245-.0971189.3736165-.0974027.5411076-.0007442l3.5361387 2.0406937zm1.08.1665084v5.9667213c0 .4156465-.4499111.6754599-.8099111.4677051l-4.0752804-2.3518306-4.0482269 2.3510863c-.3599982.209076-.8111966-.0506538-.8111966-.4669608v-5.9603313c-.8392444.0390783-1.59258862-.556943-1.73030991-1.4061779l-.00221315-.0140226-.30692513-2.0003875c-.00469892-.0269311-.01700481-.0440275-.03129382-.0513019l-1.83348197-.9267317c-.82611918-.4175612-1.15732087-1.4257634-.73888255-2.2536102l.004587-.0089871.93117563-1.8098831c.0096494-.0189604.00974053-.0373318-.00032677-.0560751l-.92658726-1.8085609c-.42207271-.8238233-.09638949-1.8338216.72903836-2.25671298l.00836416-.0042467 1.81889884-.91660956c.02087587-.01063678.03092454-.02449331.03367509-.04170891l.30394921-2.0105139c.13836754-.91525115.99249427-1.54503975 1.90774537-1.40667221l.0205688.0032404 1.9977563.32746296c.0192611.0030601.0371723-.00269171.0506907-.01671263l1.45521-1.45695263c.6541424-.65492583 1.715352-.65556085 2.3708223-.00087378l1.4481319 1.45473542c.0094465.00974712.0292601.01618495.0490051.01277913l1.9999474-.3243335c.9137142-.14817794 1.7745478.47241176 1.9227258 1.3861259l.0022131.01402259.3069251 2.00038747c.004699.02693116.0170048.04402753.030259.05078018l1.8142449.91212532c.8270135.41578723 1.1603782 1.42327623.744591 2.25028963l-.0070834.0139269-.9300509 1.807697c-.0096494.0189604-.0097405.0373318-.0002204.0550101l.93501 1.8150724c.4238983.8228854.1004553 1.8336034-.7234975 2.25805l-.0055622.0028482-1.8191821.9269195c-.0208759.0106368-.0309245.0244933-.033928.0433644l-.3104793 2.0114819c-.1323528.8574652-.8927513 1.4621898-1.7408957 1.4183654zm3.4131067-5.3618723.0034263-.0017539c.2926377-.1507483.4076618-.5101838.2569134-.8028215l-.926701-1.7995685c-.1811162-.3251198-.1791396-.7236029-.009426-1.0570668l.9311363-1.8098182.002519-.0049527c.1478639-.2941058.0293115-.6523929-.2647943-.8002568l-1.8166109-.9133221c-.3231481-.16445777-.544411-.47185474-.6084876-.83975664l-.3087109-2.01127874-.0007871-.00498676c-.0526956-.3249386-.3588286-.54563514-.6837672-.49293952l-1.9935741.32326074c-.3657102.06380869-.7454451-.05957469-.998732-.32099127l-1.4396824-1.44618697-.0017447-.00174839c-.2329073-.23262872-.6102988-.23240289-.8429275.0005044l-1.4436403 1.44500668c-.2523487.26871358-.6304142.39012147-.9984688.3316405l-2.0003738-.3278854-.0073148-.00115237c-.3254852-.0492068-.629233.17476108-.6784399.50024628l-.3045707 2.01452342c-.0575177.36203286-.28146061.6708369-.61275034.83963146l-1.8194324.91688108-.00515237.0026147c-.29297127.1500991-.40879201.5092787-.25869286.8022499l.9177312 1.7919919c.1811162.3251199.17913957.723603.00942595 1.0570669l-.93137769 1.8102797-.00282652.0055349c-.14849474.2937878-.0307115.6523286.26307624.8008233l1.834813.9274069c.32314811.1644578.54441099.4718547.60848759.8397566l.308711 2.0112788.000787.0049867c.0526956.3249386.3588287.5456352.6837673.4929395l1.993574-.3232607c.3657102-.0638087.7454452.0595747.9987321.3209913l1.4369028 1.4433971.0034563.0034555c.2335557.2319777.6109451.2306984.8429228-.0028573l1.4351998-1.444662c.2523488-.2687136.6304143-.3901215.9984689-.3316405l2.0038888.3284615.0054875.0008732c.325331.050216.629772-.1728088.679988-.4981398l.310848-2.0138359c.0575177-.3620328.2814606-.6708369.6106095-.8385466zm-8.2854142 2.283734c-2.9654284 0-5.3672687-2.4250329-5.3672687-5.4138818 0-2.9888488 2.4018403-5.41388173 5.3672687-5.41388173s5.3672687 2.42503293 5.3672687 5.41388173c0 2.9888489-2.4018403 5.4138818-5.3672687 5.4138818zm0-1.08c2.3666253 0 4.2872687-1.9391895 4.2872687-4.3338818 0-2.3946922-1.9206434-4.33388173-4.2872687-4.33388173s-4.2872687 1.93918953-4.2872687 4.33388173c0 2.3946923 1.9206434 4.3338818 4.2872687 4.3338818z"/></svg>