<svg height="32" viewBox="0 0 32 32" width="32" xmlns="http://www.w3.org/2000/svg"><g fill="none"><path d="m19.2853912 25.1369935-.9522376-3.0471601h-4.6663072l-.9522376 3.0471601zm.4244493 1.3582379h-7.419681l-.4523799 1.4476155c-.1118731.357994-.4927756.5575144-.8507696.4456413s-.5575143-.4927757-.4456412-.8507696l5.4586312-17.4676199 5.4586312 17.4676199c.1118731.3579939-.0876472.7388965-.4456412.8507696s-.7388965-.0876473-.8507696-.4456413zm-1.8011362-5.7636359-.8663371-2.7722786h-2.0847344l-.8663371 2.7722786zm-1.2907864-4.1305165-.6179179-1.9773372-.6179179 1.9773372z" fill="#676767"/><path d="m11.1769503 7.12811038c.2586609-.3879914.7968575-.49525037 1.1801462-.22699771.3894533.26562705.4934297.78802169.2358789 1.17434781-.5341937.80129067-.8180125 1.7334886-.8180125 2.69132492 0 .9761784.2783905 1.8960775.8144516 2.6861267.268791.3819662.1635869.9079864-.2302328 1.1847887-.1477117.0939984-.3037795.1390846-.4742188.1390846-.276725 0-.5404314-.1337641-.706769-.3694774-.7262856-1.0686773-1.113231-2.3369986-1.113231-3.6405226 0-1.29967199.3847988-2.55828499 1.1119874-3.63867502zm8.253561.9525484c-.2687911-.3819662-.163587-.90798647.2205782-1.17832496.3806869-.26789081.903385-.16421517 1.1906423.22392901.7262856 1.06867734 1.1132311 2.33699862 1.1132311 3.64052257 0 1.299672-.3847989 2.558285-1.1157581 3.6441708-.1638106.2320651-.427517.3658292-.7042419.3658292-.1758773 0-.343705-.0474295-.4786751-.1419874-.3885791-.2590527-.4955747-.7984886-.2293375-1.1766876.5341938-.8012907.8180126-1.7334886.8180126-2.691325 0-.97617833-.2783906-1.8960775-.8144516-2.68612662z" fill="#168db4"/><path d="m8.12129077 3.27752129c.32044954-.34831472.84526549-.36982357 1.20291391-.0550244.3444332.31573043.36632787.85433933.04544335 1.20312586-1.58500063 1.73085958-2.45437451 3.97950404-2.45437451 6.34116265 0 2.3458881.87552141 4.6063718 2.45767838 6.3448431.31215221.3547184.29029706.8923551-.05090168 1.1919336-.15289356.1528936-.36328099.2332233-.5767767.2332233-.23293918 0-.45856314-.1015308-.62490133-.2817398-1.86496326-2.0494101-2.89509867-4.7105933-2.89509867-7.4882602 0-2.77714321 1.02650424-5.43586958 2.89601725-7.48926411zm14.58320413-.05841424c.3541866-.31168415.8907432-.29036185 1.2014393.06093528 1.870166 2.05489444 2.8939501 4.71422619 2.8837177 7.48674307 0 2.7771433-1.0265042 5.4358696-2.8891534 7.4814856-.1550287.1832157-.3929258.2885144-.6308466.2885144-.1986897 0-.3939952-.0795689-.5692641-.2260172-.3483147-.3204496-.3698236-.8452655-.0551104-1.2028201 1.5850006-1.7308596 2.4543745-3.979504 2.4543745-6.3411627 0-2.34588806-.8755214-4.6063717-2.4576784-6.344843-.3121522-.35471841-.290297-.89235511.0625214-1.20283535z" fill="#85cfe8"/><path d="m16 9.268411c-.825 0-1.5.66-1.5 1.5 0 .825.675 1.5 1.5 1.5s1.5-.66 1.5-1.5c0-.825-.66-1.5-1.5-1.5z" fill="#252d4f"/></g></svg>