<svg height="32" viewBox="0 0 32 32" width="32" xmlns="http://www.w3.org/2000/svg"><path d="m15.564357 9.12791284c.7177222.00932107 1.3235917.59654839 1.3142706 1.31427066-.0065605.505159-.2994074.9456727-.7257916 1.162292l4.8440338 15.5009084c.1118731.357994-.0876472.7388965-.4456412.8507696s-.7388965-.0876472-.8507696-.4456412l-.4523799-1.4476156h-7.419681l-.4523799 1.4476156c-.1118731.357994-.4927756.5575143-.8507696.4456412s-.55751433-.4927756-.4456412-.8507696l4.8488752-15.5164007c-.4099646-.2222147-.6877174-.6561019-.6877174-1.1561208.0093211-.71772224.5965484-1.30494956 1.3235918-1.30494956zm1.789404 12.81828826h-3.3155224l-.0973231.007853c-.2850873.0465002-.5026769.2939132-.5026769.592147 0 .3313708.2686292.6.6.6h3.3155224l.0973231-.007853c.2850873-.0465003.5026769-.2939133.5026769-.592147 0-.3313709-.2686292-.6-.6-.6zm-1.3155224-4.4734592h-1l-.0973231.007853c-.2850873.0465003-.5026769.2939133-.5026769.592147 0 .3313709.2686292.6.6.6h1l.0973231-.0078529c.2850873-.0465003.5026769-.2939133.5026769-.5921471 0-.3313708-.2686292-.6-.6-.6zm-7.19411484-13.35547763c.27311921.18908253.34314978.55324148.15406725.82636069-1.09947991 1.61770611-1.67373056 3.50853143-1.65272139 5.47639034-.01400611 1.974862.57425065 3.8796935 1.68073362 5.5184087.16807336.238104.12605502.5602446-.07003057.7563302-.02801223.0280122-.0490214.0490214-.08403668.0700305-.26611616.1680734-.63027511.0980428-.81935764-.1750764-1.2465441-1.8348009-1.89782837-3.9707332-1.89082532-6.176696-.02100917-2.2059629.62327205-4.32088603 1.85581004-6.14168078.18207947-.26611616.55324148-.34314978.82636069-.15406725zm14.22145874.15406725c1.232538 1.82079475 1.8768192 3.93571788 1.85581 6.14168078.0070031 2.2059628-.6442812 4.3418951-1.8908253 6.176696-.1890825.2731192-.5532415.3431498-.8193576.1750764-.0350153-.0210091-.0560245-.0420183-.0840367-.0700305-.1960856-.1960856-.2381039-.5182262-.0700306-.7563302 1.106483-1.6387152 1.6947398-3.5435467 1.6807337-5.5184087.0210091-1.96785891-.5532415-3.85868423-1.6527214-5.47639034-.1890826-.27311921-.119052-.63727816.1540672-.82636069s.6442812-.11204891.8263607.15406725zm-10.7829579 2.28999955c.2661162.16807336.3291437.53923537.1540673.81235458-.609266.90339432-.9244035 1.94684977-.9174005 3.04632965-.007003 1.0994799.3221406 2.1569415.9384096 3.0673389.1680734.2381039.1260551.5602445-.0700305.7563301-.0280123.0280122-.0490214.0490214-.0840367.0700306-.2731192.1890825-.6442812.1120489-.8263607-.1540673-.7563301-1.1064829-1.1555044-2.4020484-1.1414983-3.7326292-.0140061-1.33058079.3711621-2.61214018 1.1204891-3.71162008.1890826-.27311922.5532415-.34314978.8263607-.15406725zm7.3444571.15406725c.749327 1.0994799 1.1344951 2.38103929 1.120489 3.71162008.0140061 1.3305808-.3851681 2.6261463-1.1414982 3.7326292-.1820795.2661162-.5532415.3431498-.8263607.1540673-.0350153-.0210092-.0560245-.0420184-.0840367-.0700306-.1960856-.1960856-.2381039-.5182262-.0700306-.7563301.616269-.9103974.9454127-1.967859.9384096-3.0673389.0070031-1.09947988-.3081344-2.14293533-.9174004-3.04632965-.1750764-.27311921-.1120489-.64428122.1540673-.81235458.2731192-.18908253.6372781-.11905197.8263607.15406725z"/></svg>