<svg height="32" viewBox="0 0 32 32" width="32" xmlns="http://www.w3.org/2000/svg"><path d="m16 5c6.0751322 0 11 4.92486775 11 11 0 6.0751322-4.9248678 11-11 11-6.07513225 0-11-4.9248678-11-11 0-6.07513225 4.92486775-11 11-11zm4.7271831 6.3089695-6.8301497 6.8240379-3.0261866-3.0207634c-.4223319-.4223323-1.10901425-.424987-1.54180943-.0102249-.43221863.4319468-.43780036 1.1186374-.02158934 1.5529446l3.81048137 3.8043784c.2075041.2075044.4839545.3237607.7730013.3237607.3006172 0 .59172-.1249584.7949849-.3467018l7.5751329-7.5615138c.4416886-.4258576.4445644-1.1325361.0021043-1.5614698-.4215556-.4166857-1.1048517-.4176027-1.5359697-.0044479z" fill-rule="evenodd"/></svg>