<svg height="32" viewBox="0 0 32 32" width="32" xmlns="http://www.w3.org/2000/svg"><path d="m16 4.4c6.4065031 0 11.6 5.1934969 11.6 11.6s-5.1934969 11.6-11.6 11.6-11.6-5.1934969-11.6-11.6 5.1934969-11.6 11.6-11.6zm0 1.2c-5.7437614 0-10.4 4.6562386-10.4 10.4s4.6562386 10.4 10.4 10.4 10.4-4.6562386 10.4-10.4-4.6562386-10.4-10.4-10.4zm5.4573369 5.6934098c.3558954-.3410665.9211591-.3422906 1.2711955.0036885.3663489.3551492.3603638.9376409-.003291 1.2866173l-8.1088727 8.0946652c-.1689116.1842672-.4099339.2840006-.6529238.2840006-.2377614 0-.4654663-.0958758-.6376051-.2680148l-4.06983135-4.063221c-.34229498-.3571773-.34229498-.9252339.01504142-1.2824103.35717738-.342295.92523393-.342295 1.27465243.0071238l3.4243521 3.4182153z"/></svg>