<svg height="32" viewBox="0 0 32 32" width="32" xmlns="http://www.w3.org/2000/svg"><path d="m14.5718994 11.8522063c.355307 0 .6750463.2156777.8081315.5451187l.4082136 1.0104981c.1330851.329441.4528245.5451187.8081315.5451187h8.5642129c.4813613 0 .8715817.3902204.8715817.8715817v9.9159183c0 .4813613-.3902204.8715817-.8715817.8715817h-15.0627201c-.48136133 0-.87158176-.3902204-.87158176-.8715817v-12.0166537c0-.4813613.39022043-.8715818.87158176-.8715818zm-3.6762871-6.3022063c.355307 0 .6750464.21567765.8081316.54511869l.4082135 1.01049807c.1330852.32944104.4528246.54511869.8081316.54511869h8.5642129c.4813613 0 .8715817.39022043.8715817.87158173l-.0008836 4.22968282h-5.538l-.3243278-.8041516c-.3163178-.7830179-1.0762766-1.2956421-1.9207728-1.2956421h-4.4740306c-1.14410303 0-2.07158176.9274788-2.07158176 2.0715818l-.00028704 6.5852119-1.60441827.0008172c-.4813613 0-.87158173-.3902204-.87158173-.8715817v-12.01665377c0-.4813613.39022043-.87158173.87158173-.87158173z" fill-rule="evenodd"/></svg>