<svg fill="none" height="32" viewBox="0 0 33 32" width="33" xmlns="http://www.w3.org/2000/svg"><g fill="#000"><path d="m4.13281 7.32697c0-.88601.71825-1.60425 1.60425-1.60425h20.79154c.886 0 1.6042.71824 1.6042 1.60425v13.09783c0 .886-.7182 1.6042-1.6042 1.6042h-2.865c-.443 0-.8021-.3591-.8021-.8021s.3591-.8021.8021-.8021h2.865v-13.09783h-20.79154v13.09783h2.86449c.443 0 .80212.3591.80212.8021s-.35912.8021-.80212.8021h-2.86449c-.886 0-1.60425-.7182-1.60425-1.6042z"/><path d="m15.9985 10.1011c1.8756 0 3.396 1.5491 3.396 3.46 0 1.6136-1.0841 2.9693-2.5507 3.352l-.2121.048-.2072.0331c-.1396.0178-.2818.027-.426.027-.1114 0-.2216-.0055-.3329-.0164-1.7194-.1704-3.0632-1.6472-3.0632-3.4437 0-1.9109 1.5205-3.46 3.3961-3.46z"/><path d="m16.1334 18.6061.1737.0024.3471.0185c.5778.0464 1.1508.17 1.7034.371 1.2568.457 2.1181 1.608 2.2151 2.9265l.0091.249v4.1038h-8.8969v-4.1038l.0092-.249c.097-1.3185.9583-2.4695 2.2151-2.9265.4421-.1608.8972-.2721 1.3574-.3339l.346-.0371.3471-.0185z"/></g></svg>