<svg height="32" viewBox="0 0 32 32" width="32" xmlns="http://www.w3.org/2000/svg"><path d="m10.8956123 4.95c.5537554 0 1.0563417.31028244 1.3071198.79550772l.0573324.12487264.4082136 1.01049807c.0331751.08212211.1035731.14155734.18709.16204654l.0647209.00781048h8.5642129c.7649243 0 1.3935375.58361762 1.4648452 1.32993999l.0067365.14173938-.0018836 4.82958518 2.2065889.0009418c.7649244 0 1.3935375.5836176 1.4648452 1.3298586l.0067365.1417231v9.9159183c0 .7649244-.5836176 1.3935376-1.3298586 1.4648452l-.1417231.0067365h-15.0627201c-.76492441 0-1.39353758-.5836176-1.46484528-1.3298586l-.00673648-.1417231-.00028704-4.8324418-2.20441827.0018172c-.76492437 0-1.39353755-.5836176-1.46484524-1.3298586l-.00673649-.1417231v-12.01665377c0-.76492437.58361762-1.39353755 1.32985859-1.46484524l.14172314-.00673649zm3.6762871 7.5022063h-4.4740306c-.0221713 0-.0437753.0026812-.0644724.0075854-.09901563.0241625-.17683116.102627-.20001923.2020757l-.00709013.0619207v12.0166537c0 .1285632.08933237.2362618.20931056.2644091l.0622712.0071726h15.0627201c.1285632 0 .2362618-.0893323.2644091-.2093105l.0071726-.0622712v-9.9159183c0-.1285632-.0893323-.2362618-.2093105-.264409l-.0622712-.0071727h-8.5642129c-.0933493 0-.1852446-.0088175-.2747246-.0258041l-.0544575-.0117396c-.4105841-.0938834-.7649467-.3612467-.9668787-.7369828l-.0683914-.1458539-.4165963-1.0291954c-.0363973-.0736312-.103895-.1261947-.1826045-.1442748zm-3.6762871-6.3022063h-4.47403057c-.12856324 0-.23626179.08933237-.26440906.20931053l-.00717267.0622712v12.01665377c0 .1285632.08933237.2362618.20920043.264409l.06220646.0071727 2.20459311-.0008172.00144113-6.0224085.01028074-.1466392.02627342-.1482906.03889929-.1376342.04906497-.1262376.05638031-.1136735.07455281-.1209995.07886053-.1047967.08339752-.0928514.09879387-.092227.10401893-.080861.07591328-.0504262.11648267-.0650506.1189003-.053011.05185494-.0191346c.10144272-.0356611.20810198-.0604639.31851116-.0730367l.16824293-.0095154 4.5389886.001426.1667432.0168941.1064301.0209926.0670072.0174802.1568378.0546891.113359.0526102.1206857.0697879.0933436.0652698.1069555.0893929.0890028.0891662.0177773.0197549c.0484985.054948.0931201.1137484.1332963.1759976l.0693484.1193788.0587073.1275401.4123147 1.020116.0209491.0381335.0356643.0435082.023356.0206353.0467272.0295195c.019735.0098211.0407083.0172681.0624799.0220737l.0584351.0063689 5.1587221-.0009418.0008836-4.82968282c0-.10713604-.0620364-.1997827-.152147-.24397785l-.0571635-.02043121-.0622712-.00717267h-8.5642129c-.5537554 0-1.0563417-.31028244-1.3071198-.79550772l-.0573324-.12487264-.4082136-1.01049807c-.0331751-.08212211-.1035731-.14155734-.18709-.16204654z"/></svg>