<svg height="32" viewBox="0 0 32 32" width="32" xmlns="http://www.w3.org/2000/svg"><g fill="none" fill-rule="evenodd"><path d="m6.42158173 5.55h4.47403057c.355307 0 .6750464.21567765.8081316.54511869l.4082135 1.01049807c.1330852.32944104.4528246.54511869.8081316.54511869h8.5642129c.4813613 0 .8715817.39022043.8715817.87158173v9.91591832c0 .4813613-.3902204.8715817-.8715817.8715817h-15.06272017c-.4813613 0-.87158173-.3902204-.87158173-.8715817v-12.01665377c0-.4813613.39022043-.87158173.87158173-.87158173z" fill="#59adcb"/><path d="m6.42158173 9.7514709h15.06272017c.4813613 0 .8715817.3902204.8715817.8715817v7.8151829c0 .4813613-.3902204.8715817-.8715817.8715817h-15.06272017c-.4813613 0-.87158173-.3902204-.87158173-.8715817v-7.8151829c0-.4813613.39022043-.8715817.87158173-.8715817z" fill="#a8d1e0"/><path d="m10.0978688 11.8522063h4.4740306c.355307 0 .6750463.2156777.8081315.5451187l.4082136 1.0104981c.1330851.329441.4528245.5451187.8081315.5451187h8.5642129c.4813613 0 .8715817.3902204.8715817.8715817v9.9159183c0 .4813613-.3902204.8715817-.8715817.8715817h-15.0627201c-.48136133 0-.87158176-.3902204-.87158176-.8715817v-12.0166537c0-.4813613.39022043-.8715818.87158176-.8715818z" fill="#b18c00"/><path d="m10.0978688 16.0536772h15.0627201c.4813613 0 .8715817.3902205.8715817.8715818v7.8151828c0 .4813613-.3902204.8715817-.8715817.8715817h-15.0627201c-.48136133 0-.87158176-.3902204-.87158176-.8715817v-7.8151828c0-.4813613.39022043-.8715818.87158176-.8715818z" fill="#fac200"/></g></svg>