<svg height="32" viewBox="0 0 32 32" width="32" xmlns="http://www.w3.org/2000/svg"><path d="m24.0987439 11.7949296c1.1235317 0 2.144748.4379372 2.9024082 1.1522919.7717547.7276434 1.269493 1.7423047 1.3240618 2.8730176l.0055766 11.925313h-8.46356l.0003773-5.9253998c-.3161839.1172975-.6385407.2204683-.9662044.3089228l-2.9509267.7966181 1.4440508-2.6939351c.1175741-.2193394.1828309-.4697079.1828309-.7352288 0-.4323106-.1739051-.8240096-.4555999-1.1089266l-1.4833485-1.5003161 1.9981932-.6771228c1.092561-.3702335 2.0336294-1.1067552 2.6603346-2.0961558 1.2643521-1.7942386 2.4905903-2.3190784 3.8018061-2.3190784zm-16.1974878 0c1.39084006 0 2.6251756.670868 3.3962696 1.707172 1.146015 1.9330916 2.8217071 2.9780267 4.7024743 2.9780267.8329561 0 1.5870564.3376222 2.1329176.8834834s.8834834 1.2999615.8834834 2.1329176-.3376222 1.5870564-.8834834 2.1329176-1.2999615.8834834-2.1329176.8834834c-1.347739 0-2.6533797-.2421728-3.8679072-.6928207l.0007625 5.9254425h-8.4630286v-11.7191931c0-1.1684769.47361887-2.2263343 1.23935697-2.9920724.76573811-.7657381 1.82359546-1.239357 2.99207243-1.239357zm16.1974878-7.54048171c1.168477 0 2.2263343.47361887 2.9920724 1.23935698s1.239357 1.82359546 1.239357 2.99207242-.4736189 2.22633431-1.239357 2.99207241-1.8235954 1.239357-2.9920724 1.239357-2.2263343-.4736189-2.9920724-1.239357-1.239357-1.82359545-1.239357-2.99207241.4736189-2.22633431 1.239357-2.99207242 1.8235954-1.23935698 2.9920724-1.23935698zm-16.1974878 0c1.16847696 0 2.2263343.47361887 2.9920724 1.23935698s1.239357 1.82359546 1.239357 2.99207242-.4736189 2.22633431-1.239357 2.99207241-1.82359544 1.239357-2.9920724 1.239357c-1.16847697 0-2.22633432-.4736189-2.99207243-1.239357-.7657381-.7657381-1.23935697-1.82359545-1.23935697-2.99207241s.47361887-2.22633431 1.23935697-2.99207242c.76573811-.76573811 1.82359546-1.23935698 2.99207243-1.23935698z" stroke="#fff" stroke-width="2.639043"/></svg>