<svg height="32" viewBox="0 0 32 32" width="32" xmlns="http://www.w3.org/2000/svg"><g fill="none"><path d="m24.0987439 11.7949296c1.1235317 0 2.144748.4379372 2.9024082 1.1522919.7717547.7276434 1.269493 1.7423047 1.3240618 2.8730176l.0055766 11.925313h-8.46356l.0003773-5.9253314c-1.2144427.4505766-2.5199795.6927096-3.8676078.6927096-1.347739 0-2.6533797-.2421728-3.8679072-.6928207l.0007625 5.9254425h-8.4630286v-11.7191931c0-1.1684769.47361887-2.2263343 1.23935697-2.9920724.76573811-.7657381 1.82359546-1.239357 2.99207243-1.239357 1.39084006 0 2.6251756.670868 3.3962696 1.707172 1.108205 1.8670988 2.6846794 2.8931166 4.4731175 2.9729165 1.0217614-.0019024 1.9529531-.2400731 2.7431556-.6782171.798792-.4429067 1.4503912-1.0892452 1.9045509-1.884545 1.1088936-1.5282055 2.3379925-2.1173264 3.6803942-2.1173264zm0-7.54048171c1.168477 0 2.2263343.47361887 2.9920724 1.23935698s1.239357 1.82359546 1.239357 2.99207242-.4736189 2.22633431-1.239357 2.99207241-1.8235954 1.239357-2.9920724 1.239357-2.2263343-.4736189-2.9920724-1.239357-1.239357-1.82359545-1.239357-2.99207241.4736189-2.22633431 1.239357-2.99207242 1.8235954-1.23935698 2.9920724-1.23935698zm-16.1974878 0c1.16847696 0 2.2263343.47361887 2.9920724 1.23935698s1.239357 1.82359546 1.239357 2.99207242-.4736189 2.22633431-1.239357 2.99207241-1.82359544 1.239357-2.9920724 1.239357c-1.16847697 0-2.22633432-.4736189-2.99207243-1.239357-.7657381-.7657381-1.23935697-1.82359545-1.23935697-2.99207241s.47361887-2.22633431 1.23935697-2.99207242c.76573811-.76573811 1.82359546-1.23935698 2.99207243-1.23935698z" fill="#5aadca" stroke="#fff" stroke-width="2.639043"/><path d="m17.5426179 18.5709586c.9371608 0 1.6968797.7597189 1.6968797 1.6968796 0 .1348433-.0157284.266013-.0454506.3917747-1.0095206.3480081-2.085645.5337961-3.194047.5337961-.9371608 0-1.6968797-.7597189-1.6968797-1.6968797 0-.593981.3051897-1.1166812.7673156-1.4198469.7672431.3203514 1.6044037.4942762 2.472182.4942762z" fill="#4195b2"/><path d="m7.9012561 13.1144509c.9574141 0 1.80690846.4620594 2.3376525 1.1753475.0732504.0836997.13944.1761938.1968919.2768005 1.1329262 1.983919 3.2386144 3.2330507 5.5641995 3.2330507.9371608 0 1.6968797.7597189 1.6968797 1.6968797s-.7597189 1.6968797-1.6968797 1.6968797c-1.8790739 0-3.6653808-.5339624-5.1877002-1.4847997l.0008644 6.7174215h-5.8238162v-10.3996718c0-1.6082024 1.30370566-2.9119081 2.9119081-2.9119081zm0-7.54048171c1.60820243 0 2.9119081 1.30370566 2.9119081 2.9119081 0 1.60820241-1.30370567 2.91190811-2.9119081 2.91190811-1.60820244 0-2.9119081-1.3037057-2.9119081-2.91190811 0-1.60820244 1.30370566-2.9119081 2.9119081-2.9119081z" fill="#f47321"/></g></svg>