<svg height="32" viewBox="0 0 32 32" width="32" xmlns="http://www.w3.org/2000/svg"><path d="m10.6904194 13.8946554c.0669398.0764889.1289344.1576869.1855577.2431261l.0808532.1312809c.2397051.4197586.5269077.8025856.8527089 1.1429959 1.0064457 1.0509497 2.3806396 1.6959642 3.8651009 1.778556l.0798213.0040393.2455386.004996c2.0098893 0 3.855256-1.0314261 4.914857-2.7165671l.1283127-.2140201c.0751446-.1315891.1623351-.2545143.2317322-.331858.6585009-.8878387 1.6972043-1.4227535 2.823842-1.4227535 1.7985895 0 3.2923575 1.3557676 3.4904892 3.1316464l.0162255.1918377.0051934.188424v10.3996718c0 .2982338-.2175896.5456468-.5026769.592147l-.0973231.007853h-5.8238162c-.2982472 0-.5456665-.2176085-.5921525-.5027104l-.0078475-.0973278.0001642-5.6979926-.0315992.0160547c-1.1809823.5759007-2.4648171.9242005-3.7895844 1.0213429l-.3985963.0215844-.3672201.006427c-1.461919 0-2.8891488-.3051402-4.200956-.8847047l-.387044-.1817043.0011642 5.6989536c.0000341.2651208-.1718897.4900977-.4103379.5694837l-.0923305.0227392-.0973316.0078543h-5.8238162c-.29823376 0-.54564675-.2175896-.59214701-.5026769l-.00785299-.0973231v-10.3996718c0-1.9395732 1.57233481-3.5119081 3.5119081-3.5119081 1.12417579 0 2.1607989.5325685 2.7891633 1.3802045zm13.4083245-.1802045c-.6806095 0-1.3112151.2955428-1.7683801.8235921l-.1202884.1497307c-.0468119.0539706-.0885882.1128689-.1248461.1763617-.9316543 1.6314626-2.4572928 2.7981557-4.2272238 3.284184.2764632.3778913.4388742.8440841.4388742 1.3482099 0 .299011-.0571363.5846771-.1610866.8466761.9655736-.229767 1.8881559-.6152022 2.733645-1.1432311.3730072-.2329522.8492883.0018324.9111103.4172644l.0067151.0916815-.0012635 6.1170798h4.624l.0009022-9.7823136-.0041887-.1537175c-.070569-1.2179383-1.0818136-2.175518-2.3079696-2.175518zm-13.1332724 5.413219.0833552.029178.0813253.0428704c1.4526357.9073131 3.1328737 1.3936907 4.869848 1.3936907.6057899 0 1.0968797-.4910898 1.0968797-1.0968797 0-.5654039-.4277938-1.0308913-.9773626-1.0904433l-.1314337-.0065547-.2693877-.0054702-.1301691-.0064004c-.047503-.0027731-.094912-.0060239-.1422213-.0097489l.2723904.0161493c-.154745-.0061557-.3085354-.0173782-.4611738-.0335433l-.4181798-.0570656-.2828319-.0533318-.3148039-.0737266-.371722-.1073328-.1881358-.0629302-.2502659-.0931067-.3100629-.1308661-.3373032-.1630395-.3065663-.1683118-.2280378-.1386137-.2789508-.1864564-.1774369-.1290787-.1923638-.1499105-.2600492-.2207075-.084843-.0769995-.1717157-.163589-.2049489-.2108213-.1854031-.2068798c-.194227-.2254818-.3751943-.4646986-.5413271-.7165712l-.1005959-.1569912-.13720728-.2300525c-.01849125-.0323809-.03841144-.0635555-.06340201-.098068l-.0938243-.1180951c-.43414156-.5834602-1.11552157-.9335214-1.85628831-.9335214-1.22363027 0-2.22523201.9506172-2.30657446 2.1536207l-.00533364.1582874-.000348 9.799641h4.624l-.0007001-6.1173135c-.0000526-.408389.3892026-.6786948.7531716-.5810166zm13.1332724-14.15370071c1.9395733 0 3.5119081 1.57233481 3.5119081 3.5119081 0 1.93957331-1.5723348 3.51190811-3.5119081 3.51190811s-3.5119081-1.5723348-3.5119081-3.51190811c0-1.93957329 1.5723348-3.5119081 3.5119081-3.5119081zm-16.1974878 0c1.93957328 0 3.5119081 1.57233481 3.5119081 3.5119081 0 1.87492081-1.46925954 3.40667771-3.31921954 3.50671161l-.19268856.0051965c-1.93957329 0-3.5119081-1.5723348-3.5119081-3.51190811 0-1.93957329 1.57233481-3.5119081 3.5119081-3.5119081zm16.1974878 1.2c-1.2768316 0-2.3119081 1.03507651-2.3119081 2.3119081 0 1.27683158 1.0350765 2.31190811 2.3119081 2.31190811s2.3119081-1.03507653 2.3119081-2.31190811c0-1.27683159-1.0350765-2.3119081-2.3119081-2.3119081zm-16.1974878 0c-1.27683159 0-2.3119081 1.03507651-2.3119081 2.3119081 0 1.27683158 1.03507651 2.31190811 2.3119081 2.31190811 1.27683158 0 2.3119081-1.03507653 2.3119081-2.31190811 0-1.22363027-.95061715-2.22523201-2.15362068-2.30657446z"/></svg>