<svg height="32" viewBox="0 0 32 32" width="32" xmlns="http://www.w3.org/2000/svg"><path d="m25.9377061 18.6258944c.2982047 0 .545604.2175488.5921351.5026043l.0078649.097313.0009651 7c0 .2982797-.2175872.5457229-.5027112.5922288l-.0973369.0078539-4.7196712-.0003783c-.2989569-.0000239-.5466933-.2186501-.5924015-.5045286l-.0075467-.0975761.0179963-5.1784114-4.1462939-.0001056.0008574 5.181c0 .3313708-.2686291.6-.6.6-.2982338 0-.5456467-.2175896-.592147-.5026769l-.007853-.0973231-.0008574-5.181-4.0947061.0001056-.0180036 5.1826028c-.0009197.2644279-.1727902.4884182-.4107365.5674512l-.0921224.0226384-.0970879.0078237-4.57800003.0003783c-.29824233 0-.54567735-.2175615-.59219207-.5026501l-.0078575-.0973247-.00029388-7c0-.2982427.21758164-.545669.50267449-.5921718l.09732551-.0078534zm-8.2569143-14.90601041c.2356415 0 .4316241.16980016.4722666.3937194l.0077334.0862806-.0007918 2.52611601 2.5194793.0002516c.2061863 0 .3820087.13000324.44997.31251245l.0222966.08120694.0077334.08628061-.000213 1.22563239 4.7794049.00002348c.2370669 0 .4483978.13901422.5449982.34895408l.0341164.0941181 2.2203975 8.19398695c.0954167.3521184-.1420126.6991283-.4899552.7504309l-.0891593.0064969h-24.37946636c-.36481744 0-.63764941-.3199238-.59616309-.6691728l.01704854-.087755 2.22039756-8.19398695c.06200398-.22881477.25145208-.39643083.4793496-.43475961l.09976495-.00831257 4.6232663-.00002348.0003814-1.22563239c0-.2356415.1698001-.43162404.3937194-.47226656l.0862806-.00773344 2.5183523-.0002516.0003352-2.52611601c0-.2061863.1300032-.38200872.3125124-.44996998l.081207-.02229657.0862806-.00773345zm-.4807918.95911601h-2.618l.0003352 3.0072516-2.9993352-.0002516v2.627l2.9993352.0007751-.0003352 3.0062249h2.618l.0007918-3.007h2.9982082v-2.627l-2.999.0002516z"/></svg>