<svg height="32" viewBox="0 0 32 32" width="32" xmlns="http://www.w3.org/2000/svg"><path d="m25.9386712 8.43188399c.2370669 0 .4483978.1390377.5449982.34897756l.0341164.0941181 2.2203975 8.19398695c.0954167.3521184-.1420126.6991283-.4899552.7504309l-.0891593.0064969-1.6208025-.0000104.0004049 8.4000104c0 .2982337-.2175896.5456467-.5026769.592147l-.0973231.007853h-19.9386712c-.29823376 0-.54564675-.2175896-.59214701-.5026769l-.00785299-.0973231-.00073368-8.4000104-1.61966388.0000104c-.36481744 0-.63764941-.3199238-.59616309-.6691728l.01704854-.087755 2.22039756-8.19398695c.06200398-.22881477.25145208-.39643083.4793496-.43475961l.09976495-.00833605 1.86000001-.00024513c.29769747 0 .54469417.21712658.59114832.50169508l.00785167.097226c0 .33088831-.26811162.59919305-.59899984.5994313l-1.40100016.00100876-1.896 6.994h22.811l-1.895-6.994-1.4010002-.00100876c-.3308882-.00023825-.5989998-.26854299-.5989998-.5994313 0-.29769749.2171983-.54466558.501773-.59108222l.097227-.00783886zm-10.6474049 12.28200001-4.0952663.000116-.0167337 4.911884h4.112zm5.3457337.000116-4.1457337-.000116v4.912h4.129zm4.7002663-2.888116h-18.73799998l.00073368 7.799116h3.38l.01810461-5.512432c.00086992-.2644789.17276159-.4885285.41075089-.5675692l.0921394-.0226387.0971065-.0078186h10.6411739c.2989336 0 .5466766.2185736.5924326.5044232l.0075641.0975674-.019272 5.5084679h3.518zm-7.4115671-13.95432406v3.03788585h3.0291034c.2209139 0 .4.1790861.4.4v3.30245781c0 .2209139-.1790861.4-.4.4h-3.0291034v3.0378553c0 .2209139-.1790861.4-.4.4h-3.2920896c-.2209139 0-.4-.1790861-.4-.4v-3.0378553h-3.0291033c-.2209139 0-.4-.1790861-.4-.4v-3.30245781c0-.2209139.1790861-.4.4-.4h3.0291033v-3.03788585c0-.2209139.1790861-.4.4-.4h3.2920896c.2209139 0 .4.1790861.4.4z"/></svg>