<svg height="32" viewBox="0 0 32 32" width="32" xmlns="http://www.w3.org/2000/svg"><g fill="none" fill-rule="evenodd"><path d="m6 17.2258944h19.9386712v9h-19.9386712z" fill="#2289a3"/><path d="m26 26.1918905-17.94896245.0238504 7.84052595-9.0282463h10.0471077z" fill="#005a7d" transform="matrix(1 0 0 -1 0 43.403236)"/><path d="m3.77960244 17.2258944h24.37946636l-2.2203976-8.19398693h-19.9386712z" fill="#97d2e2"/><path d="m15.4080026 20.114.0006363 6.1207323h-4.8306363l.0200988-6.1201908zm5.8312727.0005415-.0200988 6.1201908h-4.8105376l-.0006363-6.1207323z" fill="#bbe6f2"/><path d="m21.2392753 20.1145415-.0202377 6.1004585h-4.811l-.000035-6.101zm-5.8312727-.0005415.000035 5.545-4.81-5.538.0000638-.0064585z" fill="#97d2e2"/><path d="m21.8764583 6.7578145h-3.7483594v-3.75795951h-4.4730708v3.75795951h-3.74835936v4.4844043h3.74835936v3.7579262h4.4730708v-3.7579262h3.7483594z" fill="#b75c64"/></g></svg>