<svg height="32" viewBox="0 0 32 32" width="32" xmlns="http://www.w3.org/2000/svg"><g fill="none"><path d="m15.979 26.7843c-5.95441 0-10.8053-4.85089-10.8053-10.8053s4.85089-10.8053 10.8053-10.8053 10.8053 4.85089 10.8053 10.8053-4.85089 10.8053-10.8053 10.8053z" fill="#b75c64"/><path d="m11.2787831 11.074226-.1095403.0946618-.088707.0996278c-.3548528.4486179-.3257782 1.1056064.0812663 1.5303485l3.2001979 3.2001359-3.1927572 3.1938251c-.4457963.4457964-.4457963 1.1725618-.0074407 1.6299763l.1011111.0902223c.4545753.3609383 1.1115638.3318637 1.5363059-.0751808l3.2007809-3.2008429 3.1931802 3.1934022c.2214132.2214132.5113392.3434873.8133151.3434873.3087705 0 .6153995-.126881.8283388-.3591784l.0857122-.0964999c.342824-.4360548.3137494-1.0930433-.0932951-1.5177853l-3.1902512-3.2004259 3.1937572-3.1935352c.4470364-.4470364.4470364-1.1795938 0-1.6266303l-.0996278-.0887071c-.4486179-.3548527-1.1056064-.3257781-1.5303485.0812664l-3.2007809 3.1896062-3.1931802-3.1931122c-.4139537-.4139537-1.0701716-.4435218-1.5280367-.0946618z" fill="#fff"/></g></svg>