<svg height="32" viewBox="0 0 32 32" width="32" xmlns="http://www.w3.org/2000/svg"><path d="m20.09 11.92c-.23-.23-.61-.23-.85 0l-3.24 3.23-3.24-3.24c-.23-.23-.61-.23-.85 0-.23.23-.23.61 0 .85l3.24 3.24-3.24 3.24c-.23.23-.23.61 0 .85.23.23.61.23.85 0l3.24-3.24 3.24 3.24c.12.12.27.18.42.18s.31-.06.42-.18c.23-.23.23-.61 0-.85l-3.23-3.24 3.24-3.24c.23-.23.23-.61 0-.84zm-4.09-6.52c-5.84 0-10.6 4.76-10.6 10.6s4.76 10.6 10.6 10.6 10.6-4.76 10.6-10.6-4.76-10.6-10.6-10.6zm0 20c-5.18 0-9.4-4.22-9.4-9.4s4.22-9.4 9.4-9.4 9.4 4.22 9.4 9.4-4.22 9.4-9.4 9.4z"/></svg>