<svg height="32" viewBox="0 0 32 32" width="32" xmlns="http://www.w3.org/2000/svg"><path d="m9.56644661 9.56269661-.08437444.0947545c-.33752217.42664529-.30989178 1.05110759.07693373 1.45475159l4.8839941 4.8837973-4.87655339 4.8766966c-.42402203.424022-.42402203 1.1148125-.00744071 1.5495061l.09623776.0858896c.43260274.3436077 1.05706504.3159773 1.46070904-.0708482l4.8840473-4.8842441 4.8764466 4.8768034c.2103109.2103109.4861332.3264466.7735534.3264466.2938598 0 .5856176-.1207274.7885771-.3421377l.0871204-.0989991c.3194129-.4140919.2898332-1.0335603-.0947034-1.4348159l-4.8749941-4.8842973 4.8775534-4.8761966c.424022-.424022.424022-1.1148125.0074407-1.54950608l-.0962378-.0858896c-.4326027-.34360772-1.057065-.31597733-1.460709.07084818l-4.8840473 4.8837441-4.8764466-4.87630339c-.3937347-.39373474-1.0174892-.42185865-1.45262816-.09032918z" fill="#b75c64"/></svg>