<svg height="32" viewBox="0 0 32 32" width="32" xmlns="http://www.w3.org/2000/svg"><path d="m26.5112366 14.4820519v2.2035144l-2.4881334-.0407259c-.5989601.2449737-.9920687.8296655-.9920687 1.4788694v5.3762902c0 1.7120827-1.3879173 3.1-3.1 3.1h-1.9310345v-2.2h1.9310345c.4970563 0 .9-.4029437.9-.9v-5.3762902c0-.9836919.3803408-1.9210495 1.0516564-2.6237098-.6713156-.7026603-1.0516564-1.6400179-1.0516564-2.6237098v-5.3762902c0-.49705627-.4029437-.9-.9-.9h-1.9310345v-2.2h1.9310345c1.7120827 0 3.1 1.38791728 3.1 3.1v5.3762902c0 .7390562.5067693 1.3817038 1.225454 1.5540306.0559656.0134194.1102752.0306887.1626391.0517311zm-15.3422711 3.7331428v5.4572191c0 .4970563.4029437.9.9.9h1.9310345v2.2h-1.9310345c-1.7120827 0-3.09999998-1.3879173-3.09999998-3.1v-5.4572191c0-.7165669-.47527107-1.346176-1.09421538-1.5331428h-2.45417379v-2.2019814l2.38191398.0209295c.68965389-.1954646 1.16647519-.8260683 1.16647519-1.5437809v-5.4572191c0-1.71208272 1.38791728-3.1 3.09999998-3.1h1.9310345v2.2h-1.9310345c-.4970563 0-.9.40294373-.9.9v5.4572191c0 .9857185-.3812511 1.9250191-1.0541323 2.6289878.6728812.7039687 1.0541323 1.6432692 1.0541323 2.6289878z" fill="#248c7d"/></svg>