<svg height="32" viewBox="0 0 32 32" width="32" xmlns="http://www.w3.org/2000/svg"><path d="m24.3074147 14.9820519h.9538219c.3313708 0 .6.2686291.6.6 0 .3313708-.2686292.6-.6.6h-1.4274132c-.778179.3182741-1.3027889 1.0800647-1.3027889 1.9416579v5.3762902c0 1.4359403-1.1640597 2.6-2.6 2.6h-.9310345c-.3313708 0-.6-.2686292-.6-.6s.2686292-.6.6-.6h.9310345c.7731986 0 1.4-.6268014 1.4-1.4v-5.3762902c0-1.0548022.5001899-2.0144476 1.2993072-2.6237098-.7991173-.6092622-1.2993072-1.5689076-1.2993072-2.6237098v-5.3762902c0-.77319865-.6268014-1.4-1.4-1.4h-.9310345c-.3313708 0-.6-.26862915-.6-.6s.2686292-.6.6-.6h.9310345c1.4359403 0 2.6 1.16405965 2.6 2.6v5.3762902c0 .9702887.665325 1.8140049 1.6088683 2.0402484.0621296.0148975.1179669.0372378.1675119.0655133zm-16.39874964 1.2h-1.23808871c-.33137085 0-.6-.2686292-.6-.6 0-.3313709.26862915-.6.6-.6h1.26825571c.90203763-.2556592 1.53013346-1.0806087 1.53013346-2.0248328v-5.4572191c0-1.43594035 1.16405968-2.6 2.59999998-2.6h.9310345c.3313708 0 .6.26862915.6.6s-.2686292.6-.6.6h-.9310345c-.7731986 0-1.4.62680135-1.4 1.4v5.4572191c0 1.0567921-.5010938 2.0184271-1.30187934 2.6289878.80078554.6105607 1.30187934 1.5721957 1.30187934 2.6289878v5.4572191c0 .7731986.6268014 1.4 1.4 1.4h.9310345c.3313708 0 .6.2686291.6.6 0 .3313708-.2686292.6-.6.6h-.9310345c-1.4359403 0-2.59999998-1.1640597-2.59999998-2.6v-5.4572191c0-.9547148-.64213017-1.7874899-1.56030046-2.0331428z"/></svg>