<svg height="32" viewBox="0 0 32 32" width="32" xmlns="http://www.w3.org/2000/svg"><g fill="none" fill-rule="evenodd"><path d="m13.9298937 13.0556766c1.123752 0 2.0217672.2118948 2.7713969.6097889.7496296.3978941 1.3379433.9817875 1.7388496 1.7257848s.6144053 1.6352652.6144053 2.7505739v.2037c0 1.1153086-.213499 2.0065766-.6144053 2.7505739-.4009063.7439972-.98922 1.3278906-1.7388496 1.7257847-.7496297.3978941-1.6476449.6097889-2.7713969.6097889h-1.6076573l-2.0229869 2.1508125c-.1576133.1675465-.42223563.176559-.59105052.02013-.07997401-.0741064-.12749938-.1763691-.13238124-.2848512l-.08509047-1.8860913h-.36607556c-1.123752 0-2.0217672-.2118948-2.77139683-.6097889s-1.33794335-.9817875-1.73884966-1.7257847c-.40090631-.7439973-.61440522-1.6352653-.61440522-2.7505739v-.2037c0-1.1153087.21349891-2.0065766.61440522-2.7505739s.98922003-1.3278907 1.73884966-1.7257848 1.64764483-.6097889 2.77139683-.6097889z" fill="#ff82bb"/><path d="m20.583601 6c1.7600615 0 2.7493537.2504211 3.6352796.72065958s1.5812058 1.16029433 2.0550041 2.03956384c.4737984.87926951.7261153 1.86112868.7261153 3.60796588v1.3749747c0 1.7468372-.2523169 2.7286964-.7261153 3.6079659-.4737983.8792695-1.1690782 1.5693253-2.0550041 2.0395638-.3369507.1788493-.6888541.3259005-1.0924294.43947l-.1351678 2.9973605c-.0048818.1084821-.0524072.2107448-.1323812.2848511-.1558291.1443961-.393293.1478242-.552871.0157173l-.0381795-.0358472-2.8043244-2.9808921h-4.8653101c-1.7600615 0-2.7493537-.2504211-3.6352796-.7206596s-1.58120579-1.1602943-2.05500416-2.0395638-.72611526-1.8611287-.72611526-3.6079659v-1.3749747c0-1.7468372.25231689-2.72869637.72611526-3.60796588s1.16907826-1.56932536 2.05500416-2.03956384 1.8752181-.72065958 3.6352796-.72065958z" fill="#6ad1eb"/><path d="m16.7012906 13.6654655c.7496296.3978941 1.3379433.9817875 1.7388496 1.7257848s.6144053 1.6352652.6144053 2.7505739v.2037c0 .6624645-.0753236 1.2458863-.220503 1.766353l-4.2358253-.0005239c-1.7600615 0-2.7493537-.2504211-3.6352796-.7206596s-1.58120579-1.1602943-2.05500416-2.0395638-.72611526-1.8611287-.72611526-3.6079659l.00026959-.6322153c.29566677-.0366227.60918152-.0552721.94256394-.0552721h4.80524199c1.123752 0 2.0217672.2118948 2.7713969.6097889z" fill="#005aa2"/></g></svg>