<svg height="32" viewBox="0 0 32 32" width="32" xmlns="http://www.w3.org/2000/svg"><path d="m18.02 21.69-3.73 3.73c-.11.12-.26.18-.42.18-.08 0-.16-.02-.23-.05-.22-.09-.37-.31-.37-.55v-3.3zm4.12-15.29c1.6993103 0 3.0909869 1.3424019 3.184944 3.01011768l.005056.17988232v8.9c0 1.7089655-1.3424019 3.100975-3.0191185 3.1949436l-.1808815.0050564h-4.6825917l-4.3523073.01h-4.225101c-1.70896552 0-3.10097503-1.3424019-3.19494362-3.0191185l-.00505638-.1808815v-8.9c0-1.70896552 1.3424019-3.10097503 3.01911846-3.19494362l.18088154-.00505638z"/></svg>