<svg height="32" viewBox="0 0 32 32" width="32" xmlns="http://www.w3.org/2000/svg"><path d="m19.2697856 20.7126972c-.0859334.232057-.1863776.4544728-.3014494.6680217-.4572162.8484966-1.1314976 1.5177117-1.9857436 1.9711349-.7726998.4101394-1.6606194.6326804-2.7004223.6730872l-.3522766.0067307-1.3488937-.0006717-1.8447296 1.9625958c-.3245034.3449545-.83397308.4136755-1.23176455.1961916l-.10549683-.0664173-.09862182-.0806542c-.1629273-.1509734-.27096441-.3501746-.30938166-.5663902l-.01457813-.1315214-.05942741-1.3178043-.14462486-.002059c-.80873558-.0314275-1.52559117-.173035-2.16781714-.4273933l-.27072084-.1159214-.26188427-.1297725c-.85424607-.4534232-1.52852741-1.1226383-1.98574365-1.9711349-.41396161-.7682252-.63862181-1.6512022-.67941423-2.6849709l-.00679501-.3502238v-.2037c0-1.1863588.22625189-2.1816112.68620924-3.0351947.45721624-.8484966 1.13149758-1.5177117 1.98574365-1.9711349.72461056-.3846143 1.55054582-.604254 2.50804105-.6634254l.00182424-.1038799c0-1.7389819.23731404-2.85222201.79791928-3.89258668.5301083-.98376883 1.31135574-1.75914638 2.30189814-2.28491397.9769211-.51853758 2.0174111-.75791601 3.5747825-.78752853l.3417991-.00316012h5.9853838c1.7502047 0 2.8698804.23511267 3.9165816.79068865.9905424.52576759 1.7717898 1.30114514 2.3018981 2.28491397.5232316.97100703.7648406 2.00549668.7947296 3.55296978l.0031897.3396169v1.3749747c0 1.7389819-.237314 2.852222-.7979193 3.8925867-.5301083.9837688-1.3113557 1.7591464-2.3018981 2.2849139-.1301951.069106-.2605004.1328448-.3922665.1915877l-.1989137.0844139-.2030024.0743338-.1153232 2.5834978c-.0079861.1774634-.062413.3480028-.1557399.495657l-.0771712.1062003-.0910517.096122c-.3445923.3193098-.8568182.3576317-1.2633342.0927918l-.1080417-.0797621-.0644957-.0621375-2.6268424-2.7923693zm-10.68906527-7.0380598c-.75960253.0549354-1.39662736.2291121-1.94616346.5207991-.64501318.3423649-1.14735929.8409367-1.49195567 1.4804346-.3246166.6024197-.50443029 1.310844-.53714686 2.1728604l-.00545434.2930927v.2037c0 .9963728.18191609 1.7965978.5426012 2.465953.34459638.639498.84694249 1.1380697 1.49195567 1.4804347.60832147.3228895 1.32385063.5017833 2.19418468.5343332l.29591016.0054266h.36607556c.28877006 0 .53154713.2044676.58775653.4790272l.0116338.0939315.0658824 1.4543696 1.7291838-1.8384062c.0680356-.0723345.1521855-.1258795.2443689-.1571421l.0945619-.0237056.0981218-.0080744h1.6076573c1.0059142 0 1.8141821-.1809937 2.4900949-.5397598.573345-.3043244 1.0339655-.7320715 1.3712683-1.2725091l.1206874-.2079256c.0175943-.0326514.0347634-.0656143.0515066-.0988962l-2.3652337-.0012277c-1.5168441 0-2.5600909-.1765957-3.4926876-.5853473l-.2134156-.0984737-.2104784-.1068677c-.9905424-.5257675-1.77178984-1.3011451-2.30189814-2.2849139-.52323155-.9710071-.76484056-2.0054967-.79472962-3.5529698zm13.00288067-7.0746374h-5.9853838c-1.5666315 0-2.4957655.1951022-3.3539776.65063051-.7813095.41470937-1.3906217 1.01944353-1.8081102 1.79421372-.4276099.79355358-.62699243 1.64803257-.65167627 3.02102847l-.00345313.3891273 4.1488937.0006766c1.0740074 0 1.9920578.1815271 2.7908146.5500454l.2618843.1297726c.854246.4534232 1.5285274 1.1226383 1.9857436 1.9711349.4139616.7682252.6386218 1.6512021.6794142 2.6849708l.0067951.3502239v.2037c0 .4114948-.0272201.799998-.0819712 1.1675724l.890953-.0017433c.1323866 0 .2600709.0437418.3639049.1229496l.0731044.0659265 2.5104634 2.6697706.1160603-2.5668662c.0087436-.1938895.1099825-.3671901.2651472-.471296l.0818977-.0460617.0898139-.0331791c.3448373-.0970401.6570745-.2238348.9736595-.3918742.7813095-.4147094 1.3906217-1.0194436 1.8081102-1.7942137.4276099-.7935536.6269924-1.6480326.6516763-3.0210285l.0026349-.3023166v-1.3749747c0-1.5529333-.1961577-2.4731091-.6543112-3.32334507-.4174885-.77477019-1.0268007-1.37950435-1.8081102-1.79421372-.8009979-.42515976-1.6637768-.62345943-3.0489834-.64800979zm-7.3577971 7.0611032-.2959102-.0054266-4.1488937-.0006766.00081818.088164c0 1.4494044.17087517 2.3476067.56615432 3.1521986l.0881569.1711465c.4174885.7747701 1.0268007 1.3795043 1.8081102 1.7942137.8009979.4251597 1.6637768.6234594 3.0489834.6480098l.3049942.0026207 2.7584557.0007449c.0488763-.2676844.0794915-.5524052.0917443-.8562615l.0061283-.3103125v-.2037c0-.9963728-.1819161-1.7965978-.5426012-2.4659531-.3445964-.6394979-.8469425-1.1380697-1.4919557-1.4804346-.6083215-.3228895-1.3238506-.5017834-2.1941847-.5343333z"/></svg>