<svg height="32" viewBox="0 0 32 32" width="32" xmlns="http://www.w3.org/2000/svg"><path d="m22.1399741 6.4h-12.26999999c-1.76 0-3.2 1.43-3.2 3.2v8.9c0 1.76 1.43 3.2 3.2 3.2h3.39999999v3.3c0 .24.15.46.37.55.07.03.15.05.23.05.16 0 .31-.06.42-.18l3.73-3.73h4.11c1.76 0 3.2000518-1.43 3.2000518-3.2v-8.9c.0099482-1.75-1.4300518-3.19-3.1900518-3.19zm2 12.1c0 1.1-.9 2-2 2h-4.36c-.16 0-.31.06-.42.18l-2.88 2.88v-2.46c0-.33-.27-.6-.6-.6h-3.99999999c-1.1 0-2-.9-2-2v-8.9c0-1.1.9-2 2-2h12.26999999c1.1 0 2 .9 2 2v8.9z"/></svg>