<svg height="32" viewBox="0 0 32 32" width="32" xmlns="http://www.w3.org/2000/svg"><path d="m9.80304773 22.0791952c1.22765547 0 2.22286677.9952114 2.22286677 2.2228668s-.9952113 2.2228668-2.22286677 2.2228668c-1.22765543 0-2.2228668-.9952114-2.2228668-2.2228668s.99521137-2.2228668 2.2228668-2.2228668zm12.36726537 0c1.2276555 0 2.2228668.9952114 2.2228668 2.2228668s-.9952113 2.2228668-2.2228668 2.2228668c-1.2276554 0-2.2228668-.9952114-2.2228668-2.2228668s.9952114-2.2228668 2.2228668-2.2228668zm-6.2505742-18.7291952c2.5007796 0 4.528062 2.02728241 4.528062 4.528062 0 1.88867128-1.1563151 3.5072707-2.799625 4.1864782l3.4208838 8.2559773c.126824.306141-.0185411.6571285-.3246821.7839525s-.6571285-.0185411-.7839525-.3246821l-3.4836639-8.4075849c-.1825371.0223919-.3684333.033921-.5570223.033921-.1446193 0-.287655-.0067798-.4288068-.0200388l-3.4779964 8.3937027c-.126824.306141-.4778115.4515061-.7839525.3246821s-.4515061-.4778115-.3246821-.7839525l3.4022885-8.2101781c-1.7042582-.6499617-2.9149127-2.29973778-2.9149127-4.2322774 0-2.50077959 2.0272824-4.528062 4.528062-4.528062z"/></svg>