<svg height="32" viewBox="0 0 32 32" width="32" xmlns="http://www.w3.org/2000/svg"><path d="m8.095727 26.1367807c-1.24610395 0-2.25627079-1.0101668-2.25627079-2.2562708 0-.9259895.55782338-1.7216924 1.35576426-2.0694028l.00050653-10.5553458c0-2.00982494 1.52422903-3.67582856 3.5017564-3.87946061l.1992241-.0154472.1990195-.00509222 1.8956853.00001944-.0006642-2.31574346c0-.13235409.0350104-.26173693.1006701-.37532947l.0549233-.08203342c.2296314-.2984379.639675-.37627651.9589735-.19818454l.092796.06114084 4.038627 3.10749938c.0514161.03956184.0974818.0856276.1370437.1370437.2296314.2984379.1997991.71473658-.0541657.97773884l-.082878.07403063-4.038627 3.10749939c-.1311202.1008897-.2919203.1555934-.4573629.1555934-.3796957 0-.6934909-.2821539-.7431534-.6482294l-.0068466-.1017706.0006642-2.09925529-1.8956853-.00001944c-1.0535376 0-1.93338149.77852862-2.07845343 1.79206003l-.01617987.1537243-.0053667.1542157.00050653 10.5553458c.79794088.3477104 1.35576427 1.1434133 1.35576427 2.0694028 0 1.246104-1.01016685 2.2562708-2.2562708 2.2562708zm9.798958 1.4738745-.092796-.0611408-4.038627-3.1074994c-.0514161-.0395619-.0974818-.0856276-.1370437-.1370437-.2296314-.2984379-.1997991-.7147366.0541657-.9777389l.082878-.0740306 4.038627-3.1074994c.1311202-.1008897.2919203-.1555934.4573629-.1555934.3796957 0 .6934909.2821539.7431534.6482295l.0068466.1017705.0002919 2.100036 1.8947292-.0007612c1.0535376 0 1.9333815-.7785287 2.0784534-1.7920601l.0161799-.1537242.0053667-.1542157-.0005065-10.5553459c-.7979409-.34771037-1.3557643-1.14341327-1.3557643-2.06940279 0-1.24610395 1.0101669-2.25627079 2.2562708-2.25627079s2.2562708 1.01016684 2.2562708 2.25627079c0 .92598952-.5578234 1.72169242-1.3557643 2.06940279l-.0005065 10.5553459c0 2.0098249-1.524229 3.6758285-3.5017564 3.8794605l-.1992241.0154472-.1990195.0050923-1.8947292.0007612-.0002919 2.3149628c0 .1323541-.0350104.2617369-.1006701.3753294l-.0549233.0820335c-.2066683.2685941-.5594704.3585028-.8607327.2439695z"/></svg>