<svg height="32" viewBox="0 0 32 32" width="32" xmlns="http://www.w3.org/2000/svg"><g fill="none"><path d="m19.8218458 20.8371967c.15853.3826762.5972644.5643826.9799406.4058526s.5643827-.5972643.4058527-.9799406l-4.528062-10.93030771c-.2557164-.61727471-1.130077-.61727471-1.3857933 0l-4.528062 10.93030771c-.15853.3826763.0231764.8214106.4058527.9799406.3826762.15853.8214106-.0231764.9799406-.4058526l3.8351653-9.2577217z" fill="#ffaf87"/><g fill="#d9541a"><path d="m15.9197389 12.406124c-2.5007796 0-4.528062-2.0272824-4.528062-4.528062 0-2.50077959 2.0272824-4.528062 4.528062-4.528062s4.528062 2.02728241 4.528062 4.528062c0 2.5007796-2.0272824 4.528062-4.528062 4.528062z"/><path d="m9.80304773 26.5249288c-1.22765543 0-2.2228668-.9952114-2.2228668-2.2228668s.99521137-2.2228668 2.2228668-2.2228668c1.22765547 0 2.22286677.9952114 2.22286677 2.2228668s-.9952113 2.2228668-2.22286677 2.2228668z"/><path d="m22.1703131 26.5249288c-1.2276554 0-2.2228668-.9952114-2.2228668-2.2228668s.9952114-2.2228668 2.2228668-2.2228668c1.2276555 0 2.2228668.9952114 2.2228668 2.2228668s-.9952113 2.2228668-2.2228668 2.2228668z"/></g></g></svg>