<svg height="32" viewBox="0 0 32 32" width="32" xmlns="http://www.w3.org/2000/svg"><g fill="none"><path d="m13.7407481 4.29489222c.1654426 0 .3262427.05470367.4573629.15559342l4.038627 3.10749938c.3282817.25259455.3896382.72348778.1370437 1.05176947-.0395619.0514161-.0856276.09748186-.1370437.1370437l-4.038627 3.10749941c-.3282817.2525945-.7991749.191238-1.0517695-.1370437-.1008897-.1311203-.1555934-.2919203-.1555934-.4573629l-.0002919-2.54599878-1.8947292.00074289c-1.27025492 0-2.31002124.98683903-2.39446313 2.23568129l-.00553687.1643187-.00019385 10.5572987c.95495989.2626799 1.65646465 1.1372546 1.65646465 2.1756746 0 1.2461039-1.01016685 2.2562708-2.2562708 2.2562708s-2.25627079-1.0101669-2.25627079-2.2562708c0-1.03842.70150475-1.9129947 1.65646464-2.1756746l-.00019385-10.5572987c0-1.9240888 1.50946661-3.49562279 3.4088078-3.5950099l.1911922-.00499009 1.8947292-.00074289.0002919-2.469c0-.41421356.3357865-.75.75-.75z" fill="#2289a3"/><path d="m23.904273 5.85836432c1.2461039 0 2.2562708 1.01016684 2.2562708 2.25627079 0 1.03841995-.7015048 1.91299469-1.6564646 2.17567459l.0001938 10.4490741c0 1.9240888-1.5094666 3.4956227-3.4088078 3.5950099l-.1911922.0049901-1.8956853-.0000195.0006642 2.6157435c0 .1323541-.0350104.2617369-.1006701.3753294l-.0549233.0820335c-.2296314.2984379-.639675.3762765-.9589735.1981845l-.092796-.0611408-4.038627-3.1074994c-.0514161-.0395619-.0974818-.0856276-.1370437-.1370437-.2296314-.2984379-.1997991-.7147366.0541657-.9777389l.082878-.0740306 4.038627-3.1074994c.1311202-.1008897.2919203-.1555934.4573629-.1555934.3796957 0 .6934909.2821539.7431534.6482295l.0068466.1017705-.0006642 2.3992553 1.8956853.0000195c1.2702549 0 2.3100212-.9868391 2.3944631-2.2356813l.0055369-.1643187.0001938-10.4490741c-.9549598-.2626799-1.6564646-1.13725464-1.6564646-2.17567459 0-1.24610395 1.0101669-2.25627079 2.2562708-2.25627079z" fill="#b75c64"/></g></svg>