<svg height="32" viewBox="0 0 32 32" width="32" xmlns="http://www.w3.org/2000/svg"><path d="m8.095727 26.1416729c-1.24610395 0-2.25627079-1.0101668-2.25627079-2.2562708 0-1.0384199.70150475-1.9129947 1.65646464-2.1756746l-.00019385-10.449074c0-1.92408881 1.50946661-3.4956228 3.4088078-3.59500991l.1911922-.00499009 1.8958168.00049153-.0007957-2.61621556c0-.13235409.0350104-.26173693.1006701-.37532946l.0549233-.08203342c.2296314-.29843791.639675-.37627652.9589735-.19818454l.092796.06114084 4.038627 3.10749938c.0514161.03956184.0974818.08562759.1370437.13704369.2296314.29843791.1997991.71473659-.0541657.97773885l-.082878.07403063-4.038627 3.10749936c-.1311202.1008898-.2919203.1555934-.4573629.1555934-.3796957 0-.6934909-.2821539-.7431534-.6482294l-.0068466-.1017706.0007957-2.39878317-1.8958168-.00049153c-1.27025492 0-2.31002124.98683903-2.39446313 2.2356813l-.00553687.1643187.00081482 10.4493517c.95444515.2630182 1.65545598 1.1373426 1.65545598 2.1753969 0 1.246104-1.01016685 2.2562708-2.2562708 2.2562708zm10.1635249 1.5634721c-.1654426 0-.3262427-.0547036-.4573629-.1555934l-4.038627-3.1074994c-.3282817-.2525945-.3896382-.7234877-.1370437-1.0517694.0395619-.0514161.0856276-.0974819.1370437-.1370437l4.038627-3.1074994c.3282817-.2525946.7991749-.191238 1.0517695.1370437.1008897.1311202.1555934.2919203.1555934.4573629l.0002919 2.5459987 1.8947292-.0007429c1.2702549 0 2.3100212-.986839 2.3944631-2.2356812l.0055369-.1643188.0001938-10.5572986c-.9549598-.2626799-1.6564646-1.13725469-1.6564646-2.17567465 0-1.24610395 1.0101669-2.25627079 2.2562708-2.25627079s2.2562708 1.01016684 2.2562708 2.25627079c0 1.03841996-.7015048 1.91299475-1.6564646 2.17567465l.0001938 10.5572986c0 1.9240888-1.5094666 3.4956228-3.4088078 3.59501l-.1911922.00499-1.8947292.0007429-.0002919 2.469c0 .4142136-.3357865.75-.75.75z"/></svg>