<svg height="32" viewBox="0 0 32 32" width="32" xmlns="http://www.w3.org/2000/svg"><g fill="none"><g fill="#9ad4b0"><path d="m17.8451072 12.3719243c-.1614989-.2893523-.0578533-.6548394.2314989-.8163383.2893523-.161499.6548394-.0578534.8163383.2314989l3.3142475 5.9380266c.1614989.2893523.0578533.6548394-.231499.8163384-.2893522.1614989-.6548393.0578533-.8163383-.231499z"/><path d="m19.24 21.635c.3313708 0 .6.2686292.6.6s-.2686292.6-.6.6h-6.48c-.3313708 0-.6-.2686292-.6-.6s.2686292-.6.6-.6z"/><path d="m10.8406454 18.3099509c-.161499.2893523-.5269861.3929979-.8163383.231499-.28935231-.161499-.39299791-.5269861-.23149897-.8163384l3.31424747-5.9380266c.1614989-.2893523.526986-.3929979.8163383-.2314989.2893522.1614989.3929978.526986.2314989.8163383z"/></g><g fill="#007b3d"><path d="m16 10.67c-1.5657273 0-2.835-1.26927273-2.835-2.835s1.2692727-2.835 2.835-2.835 2.835 1.26927273 2.835 2.835-1.2692727 2.835-2.835 2.835z"/><path d="m7.9 25.07c-1.56572727 0-2.835-1.2692727-2.835-2.835s1.26927273-2.835 2.835-2.835 2.835 1.2692727 2.835 2.835-1.26927273 2.835-2.835 2.835z"/><path d="m24.1 25.07c-1.5657273 0-2.835-1.2692727-2.835-2.835s1.2692727-2.835 2.835-2.835 2.835 1.2692727 2.835 2.835-1.2692727 2.835-2.835 2.835z"/></g></g></svg>