<svg height="32" viewBox="0 0 32 32" width="32" xmlns="http://www.w3.org/2000/svg"><path d="m15.8500791 2.09305186c1.1589302 0 2.180023.73020636 2.6402806 1.81679646l.1471384.37385645c.1401633.32462407.3244584.62079566.5435925.87939304l3.8910725-.00127298c1.2633293 0 2.2974266.98145861 2.3814081 2.22349193l.0055067.16342283v17.13462441c0 1.2633292-.9814586 2.2974266-2.2234919 2.3814081l-.1634229.0055066h-14.44416804c-1.26332926 0-2.29742658-.9814586-2.38140808-2.2234919l-.00550908-.1634228v-7.0843121l4.7657405.0008811c.2478159 0 .4717275-.1376341.585586-.351446l.0418074-.0961185.6298875-1.8299432 1.7531514 5.8438351c.1805857.6019521.9972853.6262796 1.2379896.0896458l.0380861-.1071886 1.1704224-4.3305614h1.6503286c.2765597.6741066.9394214 1.1488677 1.7131696 1.1488677 1.0222637 0 1.8509721-.8287084 1.8509721-1.8509721s-.8287084-1.8509722-1.8509721-1.8509722c-.7494225 0-1.3948212.4453785-1.6859486 1.0858881l-.0568708.1401475h-2.1286761c-.2664705 0-.5035204.1588195-.6078414.3973648l-.0326969.0930372-.6956941 2.5740673-1.6765285-5.5884254c-.1743231-.5810769-.9533936-.6306562-1.2193499-.1263487l-.0435808.1010539-1.146578 3.3310277-4.292404-.0008401v-8.72331231c0-1.26332926.981461-2.29742658 2.22349432-2.38140808l.16342284-.00550668 3.89129444.00108466c.2104225-.24803661.3884176-.53036601.5258818-.83883451l.1635091-.41112086c.46138-1.0897253 1.4824065-1.81990226 2.6413987-1.81990226zm0 1.2c-.6488115 0-1.2378881.41382685-1.5238685 1.05939133l-.149057.37700454c-.1411796.33309383-.3177168.64522173-.524616.93087411l-.1008088.13401499-.1208353.14827182-.1590038.17742893-.0411126.04295828c-.0603779.06226478-.1224396.12268059-.1861085.18116276-.1428639.13126145-.2943172.25313359-.4530395.36424228-.2112575.14785982-.4350803.27650939-.6696882.38387419-.0934644.04278414-.1890441.08233989-.2862186.11834397-.4621309.16625102-.8303071.53680075-1.0276119 1.01008524l-.0593341.16142717-.0107763.03686853h10.623l-.0097124-.03688066c-.1424081-.44438098-.4298819-.81520316-.8039079-1.03788846l-.1442026-.0764174-.3598905-.14612473c-.1471729-.06420766-.2902911-.13681221-.4288496-.21726706-.0987283-.05741085-.1928969-.11725524-.2846861-.18071498-.1529421-.10575195-.2990855-.22136871-.4378564-.34614718-.1581711-.14223669-.3066178-.29620285-.444348-.46079449l-.1357594-.17025569-.1331281-.18444419-.1202785-.18464211c-.0436506-.07057567-.0853961-.14219125-.1253626-.2150841-.0780322-.14231377-.149295-.28952905-.2133056-.44111556l-.1468243-.37172282c-.2849159-.64258809-.8740509-1.05644871-1.5228089-1.05644871zm0 .8370396c.4804372 0 .8699085.38947132.8699085.86990854s-.3894713.86990854-.8699085.86990854-.8699085-.38947132-.8699085-.86990854.3894713-.86990854.8699085-.86990854z"/></svg>