<svg height="32" viewBox="0 0 32 32" width="32" xmlns="http://www.w3.org/2000/svg"><path d="m15.8500791 2.09305186c1.2199265 0 2.2871246.80909292 2.7082305 1.99127045l.0791885.19938246c.1401633.32462407.3244584.62079566.5435925.87939304l3.8910725-.00127298c1.2633293 0 2.2974266.98145861 2.3814081 2.22349193l.0055067.16342283v17.13462441c0 1.2633292-.9814586 2.2974266-2.2234919 2.3814081l-.1634229.0055066h-14.44416804c-1.26332926 0-2.29742658-.9814586-2.38140808-2.2234919l-.00550668-.1634228v-17.13462441c0-1.26332926.9814586-2.29742658 2.22349192-2.38140808l.16342284-.00550668 3.89129444.00108466c.2630281-.31004576.4753885-.67367401.6212537-1.07495957l.0681372-.1749958c.46138-1.0897253 1.4824065-1.81990226 2.6413987-1.81990226zm-5.1910274 4.26781287-2.03105664.0009601c-.61454524 0-1.12000495.46705064-1.18078685 1.06555963l-.00612791.12135513v8.72331231l3.0924016.0008401 1.146578-3.3310277c.2097909-.6094826 1.0777124-.5920994 1.2629307.0252948l1.6765285 5.5884254.6956941-2.5740673c.0782151-.289396.340759-.490402.6405383-.490402h2.1286761c.2563292-.7147592.9398668-1.2260356 1.7428194-1.2260356 1.0222637 0 1.8509721.8287085 1.8509721 1.8509722s-.8287084 1.8509721-1.8509721 1.8509721c-.7737482 0-1.4366099-.4747611-1.7131696-1.1488677h-1.6503286l-1.1704224 4.3305614c-.1742181.644607-1.0842034.6571169-1.2760757.0175428l-1.7531514-5.8438351-.6298875 1.8299432c-.092179.2677975-.3441753.4475645-.6273934.4475645l-3.5657381-.0008811v7.0843121c0 .6145452.46705064 1.1200049 1.06555962 1.1807868l.12135514.0061279h14.44416804c.6145453 0 1.120005-.4670506 1.1807869-1.0655596l.0061279-.1213551v-17.13462441c0-.61454523-.4670506-1.12000495-1.0655596-1.18078685l-.1213552-.00612791-2.0326569-.00123248c.8603224.54960485 1.4105729 1.55126134 1.4105729 2.65933235 0 .33137085-.2686291.6-.6.6h-12c-.33137085 0-.6-.26862915-.6-.6 0-1.10852048.55062774-2.11052043 1.4089726-2.65905997zm5.1910274-3.06781287c-.6951551 0-1.3217371.47505633-1.5804221 1.20120722l-.0925034.23518865c-.1650147.38932945-.3783335.7500161-.6319795 1.0732622-.0870045.11088421-.178834.21744735-.2750938.31924182-.0151912.01606601-.0306156.03213929-.0461509.04809047-.0211883.02175121-.0422536.04295075-.0635157.06392658-.0377951.037292-.0764642.07410891-.1157451.11018982-.0060404.00555102-.0128317.0117532-.019641.0179334-.4080487.37012545-.8797635.66079902-1.3963903.85114476-.5063938.18210563-.9038791.61904963-1.079861 1.16889469l-.0107763.03686853h10.623l-.0097124-.03688066c-.1602091-.4999286-.504017-.90675935-.9481105-1.11430586l-.3598905-.14612473c-.4277717-.18662555-.8212886-.44419045-1.1681483-.75927289l-.0009834-.00089359-.0186372-.01703655c-.0457434-.04205325-.0906629-.08511266-.1347296-.12914698l-.0284577-.02869283-.0236958-.02428853c-.0257918-.02663631-.0512781-.05361279-.0764529-.08092287-.0470384-.05102202-.0931651-.10341763-.1381558-.15694361-.1849245-.22003632-.3504998-.45890217-.4941455-.71382594-.0088713-.01573958-.0179115-.03200076-.0268625-.04832601-.1170484-.21347065-.2188653-.4379697-.3038221-.67170747l-.0563078-.14113091c-.2849159-.64258809-.8740509-1.05644871-1.5228089-1.05644871zm0 .8370396c.4804372 0 .8699085.38947132.8699085.86990854s-.3894713.86990854-.8699085.86990854-.8699085-.38947132-.8699085-.86990854.3894713-.86990854.8699085-.86990854z"/></svg>