<svg height="32" viewBox="0 0 32 32" width="32" xmlns="http://www.w3.org/2000/svg"><g fill="none" fill-rule="evenodd"><path d="m8.62799506 5.76182483h14.44416804c.9868858 0 1.7869148.80002899 1.7869148 1.78691476v17.13462441c0 .9868857-.800029 1.7869147-1.7869148 1.7869147h-14.44416804c-.98688577 0-1.78691476-.800029-1.78691476-1.7869147v-17.13462441c0-.98688577.80002899-1.78691476 1.78691476-1.78691476z" fill="#7b2f36"/><path d="m8.62799506 5.76182483h14.44416804c.9868858 0 1.7869148.80002899 1.7869148 1.78691476v16.13462441c0 .9868857-.800029 1.7869147-1.7869148 1.7869147h-14.44416804c-.98688577 0-1.78691476-.800029-1.78691476-1.7869147v-16.13462441c0-.98688577.80002899-1.78691476 1.78691476-1.78691476z" fill="#b75c64"/><path d="m16.4637488 16.8181562-1.1704224 4.3305614c-.1742181.644607-1.0842034.6571169-1.2760757.0175428l-1.7531514-5.8438351-.6298875 1.8299432c-.092179.2677975-.3441753.4475645-.6273934.4475645h-4.18008195v-1.327041h3.70674545l1.146578-3.3310277c.2097909-.6094826 1.0777124-.5920994 1.2629307.0252948l1.6765285 5.5884254.6956941-2.5740673c.0782151-.289396.340759-.490402.6405383-.490402h2.1286761c.2563292-.7147592.9398668-1.2260356 1.7428194-1.2260356 1.0222637 0 1.8509721.8287085 1.8509721 1.8509722s-.8287084 1.8509721-1.8509721 1.8509721c-.7737482 0-1.4366099-.4747611-1.7131696-1.1488677z" fill="#fff" fill-rule="nonzero"/><path d="m17.9944054 4.2892907c-.3326961-.9339542-1.1673749-1.59623884-2.1443263-1.59623884-.9770462 0-1.8116301.66228464-2.1443263 1.59623884-.4021738 1.10645097-1.2381795 1.97542279-2.2801536 2.35934398-.9152462.32913415-1.5755201 1.26648678-1.5755201 2.37129002h12c0-1.10480324-.6603687-2.04215587-1.5756149-2.37129002-1.0419741-.38392119-1.877885-1.25289301-2.2800588-2.35934398z" fill="#85cfe8"/><circle cx="15.850079" cy="5" fill="#69b5cf" r="1"/></g></svg>