<svg height="32" viewBox="0 0 32 32" width="32" xmlns="http://www.w3.org/2000/svg"><path d="m15.9900751 12.9000736c-1.7 0-3.08 1.39-3.08 3.1s1.38 3.1 3.08 3.1 3.08-1.39 3.08-3.1-1.38-3.1-3.08-3.1zm0 5c-1.03 0-1.88-.85-1.88-1.9s.84-1.9 1.88-1.9 1.88.85 1.88 1.9-.85 1.9-1.88 1.9zm9.25-3.85-1.02-.47c-.65-.3-.97-1.08-.72-1.76l.39-1.06c.24-.62.17-1.31999996-.19-1.87999996-.02-.04-.04-.07-.06-.1-.54-.76-1.55-1.08-2.45-.75l-1.07.4h-.01c-.15.06-.31.09-.46.09-.54 0-1.03-.32-1.25-.82l-.47-1.04c-.34-.76-1.1-1.25014728-1.92-1.25014728h-.01c-.84-.00985272-1.6.49014728-1.94 1.26014728l-.47 1.03c-.22.49-.71.81-1.25.82-.16 0-.32-.03-.48-.09l-1.05-.4c-.90999999-.36-1.96999999-.03-2.50999999.79-.4.57-.48 1.29999996-.23 1.94999996l.39 1.06c.25.68-.07 1.45-.72 1.76l-1.03.47c-.74.34-1.22015022 1.11-1.22015022 1.93-.00984978.84.48015022 1.61 1.25015022 1.95l1.02.47c.65.3.97 1.08.72 1.76l-.39 1.06c-.24.62-.17 1.32.19 1.88.02.04.04.07.06.1.56.77 1.57 1.09 2.46999999.76l1.07-.4h.01c.15-.06.31-.09.46-.09.54 0 1.03.32 1.25.82l.47 1.04c.34.76 1.1 1.25 1.93 1.25h.02c.83 0 1.59-.5 1.92-1.26l.45-1.03c.22-.49.71-.81 1.25-.82.16 0 .32.03.48.09l1.05.4c.91.36 1.97.03 2.51-.79.4-.57.48-1.3.23-1.95l-.39-1.06c-.25-.68.07-1.45.72-1.76l1.03-.48c.75-.35 1.24-1.11 1.24-1.94-.01-.83-.5-1.6-1.27-1.94zm-.49 2.81-1.03.48c-1.21.56-1.8 1.99-1.34 3.26l.4 1.07c.11.28.07.59-.1.84l-.01.01c-.23.35-.68.5-1.07.34h-.01l-1.04-.4c-.29-.11-.6-.17-.91-.17-1 0-1.92.6-2.34 1.52l-.47 1.03c-.14.33-.47.55-.82.55h-.01c-.36 0-.69-.21-.84-.54l-.47-1.04c-.42-.92-1.33-1.52-2.34-1.52-.31 0-.61.06-.9.17l-1.06.4c-.37.13-.77999999.02-1.03999999-.28-.01-.02-.02-.04-.04-.06-.17-.25-.21-.56-.1-.85l.4-1.07c.45999999-1.26-.13-2.69-1.34-3.26l-1.03-.48h-.01c-.33-.15-.54-.48-.54-.85s.21-.7.54-.85l1.03-.48c1.21-.56 1.79999999-1.99 1.34-3.26l-.4-1.07c-.11-.28-.07-.58999996.1-.83999996l.01-.01c.23-.35.68999999-.5 1.06999999-.34h.01l1.04.4c.29.11.6.17.91.17 1 0 1.92-.6 2.34-1.52l.47-1.03v-.01c.14-.33.47-.54.83-.54h.01c.36 0 .69.21.83.54l.47 1.04c.42.92 1.33 1.52 2.34 1.52.31 0 .61-.06.9-.17l1.06-.4c.37-.13.78-.02 1.04.28l.04.06c.17.25.21.55999996.1.84999996l-.4 1.07c-.46 1.26.13 2.69 1.34 3.26l1.03.47c.33.15.54.48.54.85.01.37-.2.7-.53.86z"/></svg>