<svg height="32" viewBox="0 0 32 32" width="32" xmlns="http://www.w3.org/2000/svg"><path d="m15.7577079 4.49774c.6450796 0 1.2323227.37968307 1.4778343.95878561l.5393588 1.19348511c.3923434.85941888 1.2382025 1.41117928 2.1669869 1.41117928.2775561 0 .5534145-.05287286.8316303-.15840209l1.2308681-.46431663c.6488704-.2279815 1.367628-.03466048 1.8642225.54529978l.0430351.06459626c.3023078.44457038.3690846.99786355.1780356 1.50151938l-.458266 1.2258131c-.4263652 1.1678698.1223586 2.5012971 1.2390323 3.0273803l1.1832203.5399168c.5859421.2663373.9576468.8511527.957437 1.48478.0161951.5992186-.2945055 1.1469558-.8021013 1.4505622l-.1388974.0744938-1.1853613.5523991c-1.12024.5184582-1.6684878 1.8507289-1.2433686 3.0245163l.4563878 1.221063c.1853806.4718779.1343719.9956646-.1874537 1.4986805l.006381.0041932c-.4120641.6270541-1.2103253.8894223-1.9069631.615556l-.0211419-.0039256-1.1929943-.4588506c-.2738218-.1038634-.5612717-.1580548-.8422074-.1580548-.9217318 0-1.7765223.5558761-2.1669452 1.4110879l-.5340455 1.1698556c-.2309898.544476-.7484438.9209308-1.3261448.9756252l-.1570445.0068813c-.6401261 0-1.2234999-.3739576-1.4893293-.9587856l-.5393589-1.1934851c-.3923434-.8594189-1.2382025-1.4111793-2.1669868-1.4111793-.2775562 0-.5534146.0528729-.8316304.1584021l-1.23086806.4643166c-.64887042.2279815-1.36762805.0346605-1.82033387-.4876924l-.07019611-.1008211c-.00474147-.0060597-.01029231-.0131558-.0167276-.0213825-.30230786-.4445704-.36908462-.9978636-.17803568-1.5015194l.45826607-1.2258131c.42636518-1.1678698-.12235862-2.5012971-1.24321088-3.0293073l-1.16917246-.5448571-.02136429-.0046277c-.58594206-.2663373-.95764675-.8511527-.95764675-1.5003081s.37170469-1.2339708.9527035-1.4980329l1.18536122-.5523991c1.12024003-.5184582 1.66848788-1.8507289 1.24336859-3.0245163l-.45638773-1.221063c-.18538059-.47187785-.13437188-.99566459.18745364-1.4986805l-.00638095-.00419319c.41084815-.62520371 1.21968758-.89031739 1.90766848-.61542499l.02043647.00379459 1.19299431.45885056c.2738219.10386347.5612717.15805483.8422075.15805483.9217317 0 1.7765223-.55587605 2.1669451-1.41108795l.5300121-1.16151589.0040334-.01983468c.2315692-.54584161.749755-.91134636 1.3354783-.96434803zm.0002921 8.0344c-1.812096 0-3.275712 1.48104-3.275712 3.31056s1.48104 3.31056 3.275712 3.31056 3.275712-1.48104 3.275712-3.31056-1.463616-3.31056-3.275712-3.31056z"/></svg>