<svg height="32" viewBox="0 0 32 32" width="32" xmlns="http://www.w3.org/2000/svg"><g fill-rule="evenodd"><path d="m16.1247026 12.4859894c1.9407756 0 3.5139733 1.5732888 3.5139733 3.5140106s-1.5731977 3.5140106-3.5139733 3.5140106c-1.9407013 0-3.5140479-1.5732888-3.5140479-3.5140106s1.5733466-3.5140106 3.5140479-3.5140106z" transform="matrix(-1 0 0 1 32.24933 0)"/><path d="m11.0048666 10.8803008c2.8275321-2.82753211 7.4120225-2.82757492 10.2395477-.0000498.2343145.2343146.2343145.6142136 0 .8485282-.2343146.2343146-.6142136.2343146-.8485282 0-2.3588924-2.35889249-6.1835849-2.35885677-8.5424914.0000498-2.35894838 2.3589484-2.35890015 6.1834419.0000498 8.5423918 2.3589499 2.35895 6.1834435 2.3589982 8.5423918.0000498.2343146-.2343146.6142136-.2343146.8485282 0s.2343146.6142136 0 .8485281c-2.8275824 2.8275824-7.4118739 2.8275245-10.2394481-.0000497-1.26102441-1.2610244-1.95967631-2.871447-2.09594477-4.5196236l-4.05148777-.0001254-.09732312-.007853c-.28508727-.0465002-.50267688-.2939132-.50267688-.592147s.21758961-.5456468.50267688-.592147l.09732312-.007853 4.05147339-.0000007c.13623101-1.648201.83486379-3.2586529 2.09590935-4.5196985zm15.8526173 4.5196992.0973231.007853c.2850872.0465002.5026769.2939132.5026769.592147s-.2175897.5456468-.5026769.592147l-.0973231.007853h-11.1639652l-.0973231-.007853c-.2850873-.0465002-.5026769-.2939132-.5026769-.592147s.2175896-.5456468.5026769-.592147l.0973231-.007853z" fill-rule="nonzero"/></g></svg>