<svg height="32" viewBox="0 0 32 32" width="32" xmlns="http://www.w3.org/2000/svg"><g fill-rule="evenodd"><path d="m16.1247026 12.4859894c1.9407756 0 3.5139733 1.5732888 3.5139733 3.5140106s-1.5731977 3.5140106-3.5139733 3.5140106c-1.9407013 0-3.5140479-1.5732888-3.5140479-3.5140106s1.5733466-3.5140106 3.5140479-3.5140106z" transform="matrix(-1 0 0 1 32.24933 0)"/><path d="m10.8634452 10.7388795c2.9056364-2.90563643 7.6167598-2.90568043 10.5223904-.0000498.3124194.3124194.3124194.8189514 0 1.1313708-.3124194.3124195-.8189514.3124195-1.1313708 0-2.2807871-2.28078698-5.9788465-2.28075244-8.2596487.0000498-2.28084277 2.2808428-2.28079613 5.9787033.0000497 8.2595492 2.2808459 2.2808458 5.9787065 2.2808925 8.2595492.0000497.3124194-.3124194.8189514-.3124194 1.1313708 0 .3124195.3124195.3124195.8189515 0 1.1313709-2.905688 2.905688-7.6166125 2.9056286-10.5222908-.0000498-1.24904611-1.2490461-1.96118341-2.8316709-2.13640172-4.4610883l-3.86960942-.000082-.1003503-.0062331c-.39446155-.0493653-.6996497-.3859259-.6996497-.7937669s.30518815-.7444016.6996497-.7937669l.1003503-.0062331 3.86959802-.0000252c.17519538-1.6294179.88731309-3.2120451 2.13636332-4.4610953zm15.9940387 4.4611205.1003503.0062331c.3944615.0493653.6996497.3859259.6996497.7937669s-.3051882.7444016-.6996497.7937669l-.1003503.0062331h-11.1639652l-.1003503-.0062331c-.3944615-.0493653-.6996497-.3859259-.6996497-.7937669s.3051882-.7444016.6996497-.7937669l.1003503-.0062331z" fill-rule="nonzero"/></g></svg>