<svg height="32" viewBox="0 0 32 32" width="32" xmlns="http://www.w3.org/2000/svg"><g fill="none" fill-rule="evenodd"><path d="m7.5 5h16c1.1045695 0 2 .8954305 2 2v18c0 1.1045695-.8954305 2-2 2h-16c-1.1045695 0-2-.8954305-2-2v-18c0-1.1045695.8954305-2 2-2z" fill="#977712"/><path d="m8.7 5h14.8c1.1045695 0 2 .8954305 2 2v18c0 1.1045695-.8954305 2-2 2h-14.8c-1.1045695 0-2-.8954305-2-2v-18c0-1.1045695.8954305-2 2-2z" fill="#af8c1d"/><g fill-rule="nonzero"><path d="m16 16.0951256c2.1235275 0 3.9943037 1.3962857 4.5983814 3.4320802l.1741808.5870044c.0719336.2424225-.1097078.4857898-.3625775.4857898h-8.8199694c-.2528697 0-.4345111-.2433673-.3625775-.4857898l.1741808-.5870044c.6040777-2.0357945 2.4748539-3.4320802 4.5983814-3.4320802zm-.0669214-6.6951256c1.662485 0 3.0101954 1.3477104 3.0101954 3.0101954s-1.3477104 3.0101954-3.0101954 3.0101954-3.0101954-1.3477104-3.0101954-3.0101954 1.3477104-3.0101954 3.0101954-3.0101954z" fill="#977712"/><path d="m16 17.0951256c2.1235275 0 3.9943037 1.3962857 4.5983814 3.4320802l.1741808.5870044c.0719336.2424225-.1097078.4857898-.3625775.4857898h-8.8199694c-.2528697 0-.4345111-.2433673-.3625775-.4857898l.1741808-.5870044c.6040777-2.0357945 2.4748539-3.4320802 4.5983814-3.4320802zm-.0669214-6.6951256c1.662485 0 3.0101954 1.3477104 3.0101954 3.0101954s-1.3477104 3.0101954-3.0101954 3.0101954-3.0101954-1.3477104-3.0101954-3.0101954 1.3477104-3.0101954 3.0101954-3.0101954z" fill="#fff"/><g fill="#3e5b63"><path d="m8.1 8.9c.33137085 0 .6.26862915.6.6 0 .29823376-.21758961.5456468-.50267688.592147l-.09732312.007853h-3.16897497c-.33137085 0-.6-.26862915-.6-.6 0-.29823376.21758962-.54564675.50267689-.59214701l.09732311-.00785299z"/><path d="m8.1 21.5c.33137085 0 .6.2686292.6.6 0 .2982338-.21758961.5456468-.50267688.592147l-.09732312.007853h-3.16897497c-.33137085 0-.6-.2686292-.6-.6 0-.2982338.21758962-.5456468.50267689-.592147l.09732311-.007853z"/></g></g></g></svg>