<svg height="32" viewBox="0 0 32 32" width="32" xmlns="http://www.w3.org/2000/svg"><path d="m23.5 5c1.1045695 0 2 .8954305 2 2v18c0 1.1045695-.8954305 2-2 2h-15c-1.1045695 0-2-.8954305-2-2l-.00097497-2.3h-1.568c-.33137085 0-.6-.2686292-.6-.6 0-.2982338.21758962-.5456468.50267689-.592147l.09732311-.007853h1.568v-11.4h1.60097497l.01102503-.001.59002874.001.09732312-.007853c.28508727-.0465002.50267688-.29391324.50267688-.592147 0-.33137085-.26862915-.6-.6-.6h-1.16897496l-.09732312.00785299c-.28508727.04650026-.50267688.29391325-.50267688.59214701 0 .33137085.26862915.6.6.6h-2.60105378c-.33137085 0-.6-.26862915-.6-.6 0-.29823376.21758962-.54564675.50267689-.59214701l.09732311-.00785299 1.567-.001.00197497-1.899c0-1.1045695.8954305-2 2-2zm-14.79894623 16.5h-1.16897496l-.09732312.007853c-.28508727.0465002-.50267688.2939132-.50267688.592147 0 .3313708.26862915.6.6.6h1.16897496l.09732312-.007853c.28508727-.0465002.50267688-.2939132.50267688-.592147 0-.3313708-.26862915-.6-.6-.6zm7.29894623-4.4048744c-2.0503024 0-3.8649841 1.3016504-4.5314136 3.223793l-.0669678.2082872-.1741808.5870044c-.0647402.2181803.0759152.4371258.2890358.4787331l.0735417.0070567h8.8199694c.2275828 0 .3974705-.1971275.3767327-.413279l-.0141552-.0725108-.1741808-.5870044c-.6040777-2.0357945-2.4748539-3.4320802-4.5983814-3.4320802zm-.0669214-6.6951256c-1.662485 0-3.0101954 1.3477104-3.0101954 3.0101954s1.3477104 3.0101954 3.0101954 3.0101954 3.0101954-1.3477104 3.0101954-3.0101954-1.3477104-3.0101954-3.0101954-3.0101954z" fill-rule="evenodd"/></svg>