<svg height="32" viewBox="0 0 32 32" width="32" xmlns="http://www.w3.org/2000/svg"><g fill="none" transform="translate(4.850642 6.039282)"><path d="m8.93342769 8.20127281c.28613072-.13352767.62948758 0 .75347756.29566841l.05418404.12561618.10247482.25988183.07123012.20937128.04458421.14974824.06222446.24424905.0562847.27305182.0499426.30776168.0431982.3483787.0360514.3949027.0285024.4473338.0205511.505672.0121974.5699174.0034415.6400697-.0057169.7161293-.0309725 1.3786137-.0593922 1.6336463-.0500516 1.11398c-.0169559.2712943-.21477465.489837-.47288104.5350527l-.09938038.0085957h-.02861307c-.31474379-.0190754-.56272375-.2861307-.54364837-.6008745l.05494966-1.2161578.05279819-1.4249418.03074285-1.2183629.00946053-.7900888-.00165389-.7068099-.01002096-.5323072-.01752747-.470327-.02462186-.41393c-.00467195-.0645987-.00962232-.1270802-.01484254-.1875608l-.03449072-.3398032c-.01253049-.1058844-.02607165-.2046956-.04055481-.2973643l-.04620678-.2605088c-.00814923-.04065702-.01651678-.08001103-.02509408-.11817835l-.053912-.21569417-.05853365-.19279685-.0735807-.20343865-.09026863-.21501791c-.11159098-.25751765-.01459266-.56138847.2145122-.70997615zm-2.5618523-1.15001658.09159044.0150314c.3052061.06676383.49595991.38150762.41965838.68671372-.07566567.30711364-.07863296.62668986-.05930606.88021439l.0208501.19929958c.00399311.0299102.0081473.0580146.01231563.08408428l.03392874.17350967.01128698.03631953c.29226209 1.1424791.40360003 2.1616008.41801431 3.7522783l-.00078277.6183667-.01808237.7665706-.02834381.7342438-.04667181.8640142-.04976281.7080166-.04126738.4907843c-.00745679.082686-.01521091.1657436-.02327417.249064-.02543384.2628164-.23173056.4653451-.47821902.5071069l-.09404242.0079284h-.05722614c-.31474379-.0381507-.54364836-.3147438-.51503529-.6294876l.06436169-.7240003.04884534-.6956938.04468963-.8506199.03015007-.8760437.01224477-.7927085c0-1.7072466-.09537691-2.7182418-.38150762-3.85322698l-.04038616-.21638635-.02885524-.19738549-.0249433-.24432881c-.02742086-.35289455-.02503644-.80593485.08464701-1.25897515.06008745-.27468549.32103866-.45666463.59512328-.43468979zm8.78124281-.10076962c.6539215 1.53204478.8475278 3.21441219.6627591 5.49334879-.0267785.3302871-.3162374.5763293-.6465245.5495507s-.5763293-.3162375-.5495507-.6465245c.1702285-2.0995989-.0016101-3.59281361-.5702953-4.9251617-.3326414-.77880332-.7835228-1.45440472-1.316566-2.00821857-1.3960806-1.43642228-3.34998853-2.050362-5.2298667-1.49463159-1.51417339.44918062-2.47802662 1.25606934-3.01278675 2.55443393-.1624763.40165433-.28442298.85053848-.36927289 1.35070522-.1529239.91058874-.08560253 2.36018781.16184861 3.82077491l.06028342.3370133.06481414.3276747c.26369867 1.2929904.2590857 2.2838627-.00345287 3.7076113-.06009152.3258768-.37298061.5413383-.69885735.4812468-.32587674-.0600916-.54133824-.3729807-.48124672-.6988574.21417355-1.1614647.23686185-1.9582773.06459759-2.9498013l-.05753132-.3038579-.06653962-.3364703c-.32102805-1.7036925-.41923354-3.44146436-.22717801-4.58505824.43764317-2.57979136 1.79610698-4.15258691 4.22341759-4.87264978 3.20160138-.94645881 6.55828408.8422769 7.99194828 4.19887163zm-13.35358307-3.56574755c.20982919-.23844226.57226144-.26705533.8107037-.05722614.23844227.20982919.26705534.56272374.03815076.8107037-.3052061.35289455-.52457298.7057891-.76301524 1.20174901-.68671373 1.44972897-.90608061 3.20466404-.63902527 5.19804137.11445228.8297791.26705533 1.4592667.58179912 2.2985834.11445229.2956684-.03815076.6199499-.33381917.7344022-.06676383.0286131-.13352767.0381508-.2002915.0381508-.22890457 0-.44827146-.1430654-.53411067-.37197-.34335686-.9346936-.51503529-1.6214074-.63902527-2.5465633-.29566841-2.22228195-.04768846-4.18704622.74393986-5.84660438.28613072-.59133681.56272375-1.03007058.93469368-1.45926666zm6.54285574 2.09829193c1.41157821-.38150762 2.82315643.41965839 3.55755863 1.33527668 1.0396082 1.325739 1.3829651 3.22373943 1.1063721 6.14227273-.0254339.2628164-.2241946.4653451-.4757071.5071069l-.0965544.0079284h-.0572261c-.3147438-.0286131-.5436484-.3052061-.5150353-.6199499.24798-2.5751764-.0286131-4.26334768-.8679298-5.33156902-.4649625-.59014461-1.3574444-1.09646185-2.18234054-.9688347l-.16393139.03414102c-.3052061.08583922-.61994988-.09537691-.7057891-.400583-.07725529-.27468549.06180424-.55709651.31288394-.67340865zm7.66830323-1.55464356c.276593-.15260305.6294876-.05722615.7820906.21936688l.2856009.52457298c.4729105.89283382.9193274 1.89164197 1.1736658 3.19512635.0554004.27931033.1007446.55470994.1364383.8302552.0426943.43408944-.221505.72610099-.4804658.72610099s-.5946724-.03646267-.6497405-.51421138c-.0333332-.27034451-.0770013-.53984943-.1316795-.81324024-.2670553-1.40204051-.7820906-2.40349803-1.3352767-3.38588016-.152603-.27659302-.0572261-.62948757.2193669-.78209062zm-12.22731933-2.32719651c2.79454335-1.9266135 6.23764963-2.126905 9.46138903-.53411067.6199499.3052061 1.0205329.56272374 1.5546436 1.00145751.2384423.2002915.276593.55318606.0763015.80116601-.1049146.14306536-.276593.20982919-.4387337.20982919-.12399 0-.2575177-.04768845-.3624323-.13352766-.4673468-.38150763-.7916283-.59133682-1.3352767-.85839216-2.84223176-1.40204051-5.86567968-1.23989977-8.30732847.44827146-.25751764.18121612-.61994988.11445229-.79162832-.14306536-.18121612-.25751764-.11445228-.6104122.14306536-.79162832z" fill="#c33c75"/><path d="m20.8645346 12.7671415c.2800526-.3465208.7879908-.4004039 1.1345116-.1203513.3291948.26605.394284.7377667.1598598 1.0813715l-.0395085.0531401-4.720192 5.8404907c-.3010971.3725601-.8539049.3993448-1.190045.071167l-.0444504-.0469526-2.4754693-2.8285024c-.2934258-.3352722-.2595028-.8449326.0757694-1.1383585.3176262-.2779824.7917672-.2621669 1.090288.0253397l.0480704.0504296 1.843409 2.1067909z" fill="#4da86d"/></g></svg>