<svg height="32" viewBox="0 0 32 32" width="32" xmlns="http://www.w3.org/2000/svg"><path d="m17.463125 6.4c.3313708 0 .6.26862915.6.6 0 .29823376-.2175896.54564675-.5026769.59214701l-.0973231.00785299-9.44108849-.00040481-.12715247.00426426c-.68193617.05031139-1.2233237.58807853-1.28833332 1.2600595l-.00655072.13608105-.00040481 14.9779635.00426426.1271525c.05031139.6819361.58807853 1.2233237 1.2600595 1.2883333l.13608105.0065507 14.9575696.0004048.1271524-.0042642c.6819362-.0503114 1.2233237-.5880786 1.2883334-1.2600596l.0065507-.136081v-9.463125c0-.3313708.2686291-.6.6-.6.2982337 0 .5456467.2175896.592147.5026769l.007853.0973231v9.463125c0 1.3069776-.9675577 2.3985501-2.258532 2.5761807l-.1701692.0179288-.1712988.0058905h-14.9796061c-1.30697756 0-2.39855007-.9675577-2.57618069-2.258532l-.01792876-.1701691-.00589055-.1712989v-15c0-1.30697756.96755769-2.39855007 2.25853201-2.57618069l.17016913-.01792876.17129886-.00589055zm3.5443383 1.76523326 2.800767 2.80076694-10.1149242 10.1137504-3.4737506 1.1793835c-.083436.0283276-.1738908.0283126-.25731739-.0000427-.20916267-.071091-.32109188-.2982815-.25000089-.5074442l1.18030198-3.4726636zm3.5549038-2.82135383c.5084365 0 .999875.21019357 1.3593457.58089773l.128528.14549223.112467.15450768c.5221904.79303798.442274 1.87827758-.2370149 2.56755604l-1.1302685 1.16886557-2.8054623-2.80663615 1.1901709-1.25263874.1415213-.12790974c.343308-.28003197.7755854-.43013462 1.2407128-.43013462z"/></svg>