<svg height="32" viewBox="0 0 32 32" width="32" xmlns="http://www.w3.org/2000/svg"><path d="m26.7423333 18.8653807.0835487.0570602c.2522649.2038765.3048764.5671156.1233236.8332247l-.0351505.0470229-4.7156131 5.834585c-.2306178.285353-.6565434.3092908-.916923.055079l-.0393423-.0417653-2.4706011-2.8231547c-.2261365-.2583865-.1999928-.65117.0583937-.8773066.2433323-.2129613.6088629-.2033454.8401165.0193758l.0424943.0448247 1.9829315 2.2665033 4.2560228-5.2656298c.1942522-.2403564.5307569-.2980285.7907989-.1498192zm-12.1123071-4.2366733.0541841.1256162.1024748.2598818.0712301.2093713.0445842.1497482.0622245.2442491.0562847.2730518.0499426.3077617.0431982.3483786.0360514.3949027.0285024.4473338.0205511.5056721.0121974.5699173.0034414.6400698-.0057168.7161292-.0309725 1.3786138-.0593922 1.6336463-.0500516 1.11398c-.0169559.2712943-.2147747.4898369-.472881.5350526l-.0993804.0085957h-.0286131c-.3147438-.0190753-.5627237-.2861307-.5436484-.6008745l.0549497-1.2161577.0527982-1.4249418.0307428-1.2183629.0094606-.7900888-.0016539-.7068099-.010021-.5323073-.0175275-.4703269-.0246218-.41393c-.004672-.0645988-.0096223-.1270803-.0148426-.1875609l-.0344907-.3398031c-.0125305-.1058844-.0260716-.2046957-.0405548-.2973643l-.0462068-.2605088c-.0081492-.0406571-.0165168-.0800111-.025094-.1181784l-.053912-.2156942-.0585337-.1927968-.0735807-.2034387-.0902686-.2150179c-.111591-.2575176-.0145927-.5613884.2145122-.7099761l.0811562-.0435014c.2861307-.1335277.6294876 0 .7534775.2956684zm-3.3153298-1.445685.0915904.0150314c.3052061.0667638.4959599.3815076.4196584.6867137-.0756657.3071136-.078633.6266899-.0593061.8802144l.0208501.1992996c.0039932.0299102.0081473.0580146.0123157.0840843l.0339287.1735096.011287.0363196c.2922621 1.142479.4036 2.1616007.4180143 3.7522783l-.0007828.6183667-.0180823.7665706-.0283438.7342438-.0466719.8640141-.0497628.7080166-.0412674.4907844c-.0074567.0826859-.0152109.1657436-.0232741.249064-.0254339.2628163-.2317306.4653451-.478219.5071068l-.0940425.0079285h-.0572261c-.3147438-.0381508-.5436484-.3147438-.5150353-.6294876l.0643617-.7240003.0488453-.6956939.0446897-.8506198.03015-.8760437.0122448-.7927085c0-1.7072466-.0953769-2.7182418-.3815076-3.853227l-.0403862-.2163864-.0288552-.1973855-.0249433-.2443288c-.0274209-.3528945-.0250364-.8059348.084647-1.2589751.0600875-.2746855.3210387-.4566647.5951233-.4346898zm8.7812428-.1007696c.6539215 1.5320447.8475278 3.2144122.6627591 5.4933488-.0267785.330287-.3162375.5763293-.6465245.5495507-.3302871-.0267786-.5763293-.3162375-.5495507-.6465246.1702285-2.0995988-.0016101-3.5928136-.5702953-4.9251616-.3326414-.7788034-.7835228-1.4544048-1.316566-2.0082186-1.3960806-1.4364223-3.3499885-2.05036201-5.2298667-1.4946316-1.5141734.4491806-2.47802663 1.2560693-3.01278675 2.5544339-.1624763.4016544-.28442298.8505385-.36927289 1.3507052-.1529239.9105888-.08560254 2.3601878.1618486 3.8207749l.06028342.3370133.06481414.3276748c.26369868 1.2929904.2590857 2.2838627-.00345287 3.7076113-.06009151.3258767-.37298061.5413382-.69885735.4812467s-.54133823-.3729806-.48124672-.6988573c.21417355-1.1614648.23686185-1.9582773.06459759-2.9498013l-.05753132-.303858-.06653962-.3364703c-.32102805-1.7036925-.41923353-3.4414643-.22717801-4.5850582.43764318-2.5797913 1.79610698-4.15258689 4.22341758-4.87264976 3.2016014-.94645881 6.5582841.8422769 7.9919483 4.19887166zm-12.54287938-3.62297372c.23844227.20982919.26705534.56272372.03815077.81070372-.3052061.3528945-.52457299.7057891-.76301525 1.201749-.68671372 1.449729-.90608061 3.204664-.63902527 5.1980414.11445229.829779.26705534 1.4592666.58179913 2.2985834.11445228.2956684-.03815077.6199499-.33381917.7344022-.06676384.028613-.13352767.0381507-.20029151.0381507-.22890457 0-.44827145-.1430653-.53411067-.3719699-.34335686-.9346937-.51503529-1.6214074-.63902527-2.5465634-.29566841-2.2222819-.04768845-4.1870462.74393987-5.8466043.28613071-.5913368.56272374-1.0300706.93469367-1.45926668.2098292-.23844226.57226144-.26705533.8107037-.05722614zm9.28971068 3.49079472c1.0396082 1.325739 1.3829651 3.2237395 1.1063721 6.1422728-.0254339.2628163-.2241946.4653451-.4757071.5071068l-.0965544.0079285h-.0572261c-.3147438-.0286131-.5436484-.3052061-.5150353-.6199499.24798-2.5751765-.0286131-4.2633477-.8679298-5.3315691-.4649625-.5901446-1.3574444-1.0964618-2.1823405-.9688347l-.1639314.0341411c-.3052061.0858392-.6199499-.0953769-.7057891-.400583-.0772553-.2746855.0618042-.5570966.3128839-.6734087l.0876991-.0323804c1.4115782-.3815077 2.8231564.4196583 3.5575586 1.3352766zm4.8928352-2.6705533.2856009.524573c.4729105.8928338.9193274 1.8916419 1.1736658 3.1951263.0554004.2793103.1007446.5547099.1364383.8302552.0426943.4340894-.221505.726101-.4804658.726101s-.5946724-.0364627-.6497405-.5142114c-.0333332-.2703445-.0770013-.5398494-.1316795-.8132402-.2670553-1.4020405-.7820906-2.4034981-1.3352767-3.3858802-.152603-.276593-.0572261-.6294876.2193669-.7820906.276593-.15260306.6294876-.0572262.7820906.2193669zm-3.5480209-3.08067409c.6199499.3052061 1.0205329.56272374 1.5546436 1.00145751.2384423.2002915.276593.55318605.0763015.80116601-.1049146.14306536-.276593.20982919-.4387337.20982919-.12399 0-.2575177-.04768845-.3624323-.13352767-.4673468-.38150762-.7916283-.59133681-1.3352767-.85839215-2.8422318-1.40204051-5.8656797-1.23989977-8.30732847.44827146-.25751765.18121612-.61994989.11445229-.79162832-.14306536-.18121612-.25751765-.11445229-.6104122.14306536-.79162832 2.79454333-1.9266135 6.23764963-2.126905 9.46138903-.53411067z"/></svg>