<svg height="32" viewBox="0 0 32 32" width="32" xmlns="http://www.w3.org/2000/svg"><path d="m23.5 4.4c1.3807119 0 2.5100548 1.07623858 2.5948848 2.43557191l.0051152.16442809v18c0 1.3807119-1.0762386 2.5100548-2.4355719 2.5948848l-.1644281.0051152h-15c-1.38071187 0-2.51005476-1.0762386-2.59488482-2.4355719l-.00511518-.1644281-.00097497-2.301-.968.001c-.33137085 0-.6-.2686292-.6-.6 0-.2982338.21758962-.5456468.50267689-.592147l.09732311-.007853.968-.001v-11.4l-.968.001c-.33137085 0-.6-.26862915-.6-.6 0-.29823376.21758962-.54564675.50267689-.59214701l.09732311-.00785299.968-.001.00097497-1.899c0-1.38071187 1.07623858-2.51005476 2.43557191-2.59488482l.16442809-.00511518zm0 1.2h-15c-.72771638 0-1.3257521.55522888-1.39359119 1.26517066l-.00640881.13482934-.00097497 1.899 1.00097497.001c.33137085 0 .6.26862915.6.6 0 .29823376-.21758961.5456468-.50267688.592147l-.09732312.007853-1.00097497-.001v11.4l1.00097497.001c.33137085 0 .6.2686292.6.6 0 .2982338-.21758961.5456468-.50267688.592147l-.09732312.007853-1.00097497-.001.00097497 2.301c0 .7277164.55522888 1.3257521 1.26517066 1.3935912l.13482934.0064088h15c.7277164 0 1.3257521-.5552289 1.3935912-1.2651707l.0064088-.1348293v-18c0-.72771638-.5552289-1.3257521-1.2651707-1.39359119zm-7.5669214 4.2c1.9938558 0 3.6101954 1.6163395 3.6101954 3.6101954 0 1.4557815-.861663 2.7103107-2.1028008 3.2813996 1.6838775.4649428 3.0691153 1.7325961 3.6578247 3.4307321l.0752946.2341973.1741808.5870045c.1751084.5901305-.2307517 1.1824257-.824379 1.2500656l-.1134096.0064055h-8.8199694c-.6155624 0-1.0679325-.5575817-.9639092-1.1459249l.0261206-.1105462.1741808-.5870045c.5302845-1.7871052 1.9281668-3.1361927 3.6517838-3.6428338-1.2693346-.5580755-2.1553081-1.8273203-2.1553081-3.3034952 0-1.9938559 1.6163395-3.6101954 3.6101954-3.6101954zm.0669214 7.8951256c-1.7890847 0-3.3731117 1.1328095-3.9599309 2.8071936l-.0632393.1955679-.0908298.3021129h8.227l-.0898298-.3021129c-.4885815-1.6465623-1.9242684-2.8149664-3.606217-2.9821256l-.2114754-.0156422zm-.0669214-6.6951256c-1.3311142 0-2.4101954 1.0790812-2.4101954 2.4101954s1.0790812 2.4101954 2.4101954 2.4101954c1.3311141 0 2.4101954-1.0790812 2.4101954-2.4101954s-1.0790813-2.4101954-2.4101954-2.4101954z"/></svg>