<svg height="32" viewBox="0 0 32 32" width="32" xmlns="http://www.w3.org/2000/svg"><path d="m26.9496799 18.7860616c.3291948.26605.394284.7377666.1598598 1.0813715l-.0395085.0531401-4.720192 5.8404907c-.3010971.37256-.8539049.3993448-1.190045.071167l-.0444503-.0469526-2.4754693-2.8285025c-.2934259-.3352721-.2595028-.8449326.0757693-1.1383585.3176262-.2779824.7917672-.2621668 1.090288.0253397l.0480705.0504297 1.8434089 2.1067909 4.117757-5.0945647c.2800526-.3465209.7879908-.400404 1.1345116-.1203513zm-12.1755704-4.3224587.0470735.0933956.056598.1314652.1057593.2688308.0735724.2167175.046709.1574435.0642967.2532462.0578205.281393.051005.3151869.04389.3548069.0364749.4003681.0287422.4519297.0206702.5095142.0122403.5731214.003438.6427416-.0057609.7190249-.0310541 1.3813879-.0594617 1.635357-.0502396 1.1174786c-.0203259.3252146-.2362324.5980439-.5479425.6958731l-.1073148.02596-.1166146.0093396-.0407121-.0003663c-.3905419-.0236692-.7010828-.3304322-.7304567-.7056634l-.0008888-.1038722.054883-1.2145358.0527247-1.4225813.0306935-1.2157126.0094467-.7872261-.001619-.7035135-.0099176-.5286235-.0173133-.4658995-.038795-.5931698-.0341271-.3364956-.038867-.2859395-.0684056-.3651188-.0512555-.2060898-.0552354-.1828742-.0699128-.1940449-.0893714-.2129146c-.1345734-.3105538-.0461766-.673105.2114627-.896662l.0920744-.0691091.0910653-.0484646c.3573959-.1667847.7779621-.0277683.9746252.3042954zm-3.5377167-1.4738049.1018001.0013693.118346.0190117c.4154486.0908794.6745896.5160326.571112.9299383-.0460366.1868541-.0657478.3915937-.0637069.601037l.0091223.210523.0305338.2658118.0286361.1525378.0140577.0461066c.2723958 1.0648203.3909307 2.0262938.4190663 3.4391573l.0051873.3629409-.0008383.6228299-.0181756.769569-.0284861.7373167-.0468728.8672488-.0499739.710752-.0647683.7423554c-.0303014.3131145-.2516371.5707427-.5560772.6627508l-.10441.0243842-.1108442.0086355-.0812924-.0014533c-.3872138-.046935-.6766965-.3641207-.6927242-.7414906l.0025408-.1042533.0640672-.7202985.0486296-.6921791.0445325-.847006.0300556-.8722535.0122209-.7896195-.0061872-.6915652c-.0231538-1.1958432-.1138357-2.0205757-.3144538-2.8872513l-.0574716-.2377163-.0416777-.2241506-.0299245-.2060032-.0253764-.2491472c-.0351736-.4526687-.0124439-.8997898.0886659-1.3172084.0735768-.3363508.3688137-.5747823.704687-.59268zm9.0509847.0214019c.6630145 1.5533482.8668339 3.2612054.6781794 5.5880692-.0357047.4403827-.4216499.768439-.8620327.7327343-.4403828-.0357048-.7684391-.42165-.7327343-.8620328.167972-2.0717666-.0009466-3.5326662-.554875-4.8304413-.3176888-.7437952-.7511936-1.4020604-1.2760613-1.9473836-1.3732753-1.4129579-3.2577196-1.96607732-5.0295656-1.4422835-1.4654711.434733-2.3764414 1.2047461-2.88426183 2.4376925-.15590266.3854038-.27448395.8198279-.35744007 1.3088296-.13564263.8076871-.09339965 2.0812655.10786707 3.4173459l.05361876.3350888.05960697.3334213.06458151.3265166c.26753936 1.3118224.26579557 2.3276031-.00273492 3.783846-.08012202.4345024-.49730748.7217843-.9318098.6416623s-.72178431-.4973075-.64166229-.9318098c.19119267-1.0368393.2248586-1.7649163.10894119-2.5952118l-.04416836-.2811148-.12410339-.6405c-.33106733-1.7569709-.42102822-3.5050849-.22781959-4.6555433.45069345-2.6567193 1.86484004-4.28964624 4.36390195-5.03099405 3.2921171-.97321712 6.7556111.85414353 8.2325723 4.31210845zm-12.59467937-3.69455833c.29956487.26361709.34778208.69086003.1248385 1.00809213l-.06754068.0835847c-.28606649.3307643-.49706443.6646737-.73354032 1.1565359-.67096856 1.4164891-.88302184 3.1341207-.62164861 5.0850966.11567688.8386574.26941828 1.4516263.57018852 2.2537121.15398192.3977866-.0484637.8384035-.44154893.99043-.08867975.0380056-.18005018.0543217-.27907536.0543217-.31680082 0-.60781829-.1989233-.72184463-.5030064-.3475261-.9460433-.5232708-1.6469545-.64954432-2.5891499-.30092284-2.2617749-.04658987-4.264647.76216102-5.9600935.29875678-.6174307.58585961-1.06730047.96458283-1.50428006.28324045-.32186415.77207508-.35763253 1.09297198-.07524327zm9.18105887 3.35889563.1325413.1569047.1311004.1750153c.9761436 1.3650968 1.2874391 3.2720625 1.0183266 6.1116594-.0304853.3150144-.2475719.5717143-.5533374.6630116l-.105072.0241595-.112922.0085994-.0753333-.0008214c-.4246053-.0386005-.7347333-.4123445-.6960073-.8382991.2432714-2.5262793-.0244974-4.1685944-.8259491-5.188624-.4389678-.5571515-1.1911662-.9427741-1.8374042-.9115318l-.1470601.0147214-.1505601.0308724c-.4110906.1156193-.8365911-.1269558-.9524684-.538964-.0927417-.3297483.0449716-.6735883.3342203-.8593485l.1019204-.0558291.1047907-.0378333c1.2927047-.3493797 2.7230489.2224827 3.6332142 1.2463075zm4.987689-2.573219.0573261.0890738.2866856.526593c.5933311 1.1201824.9656094 2.0839054 1.1931057 3.2498286.056452.2846124.1024511.5643926.1392997.8495903.0504209.5126494-.2663032.9456773-.6795055.9456773-.4833506 0-.7883883-.1704561-.8482373-.6897369-.0326834-.265074-.0755317-.529656-.1296504-.8002923-.2240743-1.17639-.5850154-2.0322297-1.3139245-3.3266871-.2063309-.3739748-.0748233-.8481995.297867-1.05382165.3428102-.18913669.7698581-.09439511.9970336.20977495zm-3.8862798-3.22204241.3085243.146768.259543.13177035c.496101.26053411.8667008.51104634 1.335146.89585401.3234217.27167422.3707398.74879824.1089441 1.07257971-.1386023.18900322-.3649267.29155646-.6000147.29155646-.1722016 0-.3500467-.06498186-.4889076-.17859543-.4588006-.37453116-.7706672-.57527288-1.2972797-.83396003-2.7790925-1.37089462-5.7250226-1.21219132-8.10375147.43246838-.34861155.24531924-.83851545.15624581-1.07028828-.19152796-.24443882-.34736042-.15684667-.82513576.19310632-1.07138767 2.76937173-1.90925967 6.16028083-2.1569774 9.35497803-.69552582z"/></svg>