<svg height="32" viewBox="0 0 32 32" width="32" xmlns="http://www.w3.org/2000/svg"><path d="m17.463125 6.4c.3313708 0 .6.26862915.6.6 0 .29823376-.2175896.54564675-.5026769.59214701l-.0973231.00785299-9.44108849-.00040481-.12715247.00426426c-.68193617.05031139-1.2233237.58807853-1.28833332 1.2600595l-.00655072.13608105-.00040481 14.9779635.00426426.1271525c.05031139.6819361.58807853 1.2233237 1.2600595 1.2883333l.13608105.0065507 14.9575696.0004048.1271524-.0042642c.6819362-.0503114 1.2233237-.5880786 1.2883334-1.2600596l.0065507-.136081v-9.463125c0-.3313708.2686291-.6.6-.6.2982337 0 .5456467.2175896.592147.5026769l.007853.0973231v9.463125c0 1.3069776-.9675577 2.3985501-2.258532 2.5761807l-.1701692.0179288-.1712988.0058905h-14.9796061c-1.30697756 0-2.39855007-.9675577-2.57618069-2.258532l-.01792876-.1701691-.00589055-.1712989v-15c0-1.30697756.96755769-2.39855007 2.25853201-2.57618069l.17016913-.01792876.17129886-.00589055zm6.97023-1.79430714c.7594517 0 1.4883987.31177854 2.0191473.85911339 1.0677397 1.09914381 1.1104493 2.84289015.1290671 3.97814319l-.1280065.13864675-1.3897502 1.43779021-9.1397433 9.1397433c-.0433643.0433643-.0929888.0796942-.1470614.1078626l-.0842184.0359905-4.898723 1.664052c-.441702.1500422-.86481409-.2360859-.7841047-.6731526l.0230033-.0879488 1.664052-4.898723c.019725-.0580676.0481752-.1125932.0842233-.1617647l.0596298-.0695151 9.1285568-9.12825378 1.4118158-1.48906323.1769791-.16632394c.5177546-.44696822 1.178379-.68659679 1.875133-.68659679zm-3.0187776 3.59908333-8.617 8.61600001-1.228 3.613 3.614-1.227 8.617-8.616zm3.0187776-2.39908333c-.3962465 0-.7645077.12787388-1.0569751.36643577l-.1205633.10896753-1.0143816 1.06752547 2.39 2.39.9633502-.99515832c.5786927-.58720286.6467742-1.51172879.2019152-2.18732538l-.0958117-.13162656-.1094942-.12394621c-.3062366-.3158064-.7248977-.4948723-1.1580395-.4948723z"/></svg>