<svg height="32" viewBox="0 0 32 32" width="32" xmlns="http://www.w3.org/2000/svg"><g fill="none"><path d="m14.81511 24.1086631v1.2h-8.39649287v-1.2zm-.0402915-3.4244102.0039176 1.1999936-8.48769555.0277091-.00391752-1.1999936zm.0367779-3.4188986v1.2h-8.4480014v-1.2zm10.8596625-3.7251545v1.2h-8.4313088v-1.2zm-.0367779-3.4707083.0039176 1.1999936-8.4876956.0277091-.0039175-1.1999936zm.0433343-3.46590264v1.2h-8.4480014v-1.2z" fill="#3e5b63"/><path d="m14.195 6.485h-7.21c-.33 0-.6.27-.6.6v7.21c0 .33.27.6.6.6h7.21c.33 0 .6-.27.6-.6v-7.21c0-.33-.26-.6-.6-.6z" fill="#5aadca"/><path d="m25.015 17.105h-7.21c-.16 0-.31.06-.42.18-.11.11-.18.27-.18.42v7.21c0 .33.27.6.6.6h7.21c.33 0 .6-.27.6-.6v-7.21c0-.34-.27-.6-.6-.6z" fill="#e3974b"/></g></svg>