<svg height="32" viewBox="0 0 32 32" width="32" xmlns="http://www.w3.org/2000/svg"><path d="m25.015 17.105c.297 0 .5454.2106.59211.50058l.00789.09942v7.21c0 .297-.2187.5454-.50301.59211l-.09699.00789h-7.21c-.297 0-.5454-.2187-.59211-.50301l-.00789-.09699v-7.21c0-.15.07-.31.18-.42.088-.096.2016-.1536.32544-.1728l.09456-.0072zm-10.79989 7.0036631c.3313709 0 .6.2686291.6.6 0 .2982338-.2175896.5456467-.5026768.592147l-.0973232.007853h-7.19649287c-.33137085 0-.6-.2686292-.6-.6 0-.2982338.21758961-.5456468.50267688-.592147l.09732312-.007853zm10.19989-5.8036631h-6.01v6.01h6.01zm-10.2401783 2.3812051c.3313691-.0010753.6008738.2666755.6019621.5980446.0009671.2982322-.2158136.5463542-.5007476.5937849l-.0972969.0081706-7.28770194.0237981c-.33136909.0010753-.60087377-.2666755-.60196208-.5980445-.0009671-.2982322.21581365-.5463542.50074759-.5937849l.09729696-.0081707zm.0367747-3.4208508c.3313709 0 .6.2686292.6.6 0 .2982338-.2175896.5456468-.5026769.592147l-.0973231.007853h-7.2480014c-.33137085 0-.6-.2686291-.6-.6 0-.2982337.21758961-.5456467.50267689-.592147l.09732311-.007853zm-.0165964-10.7803543c.306 0 .5472.2187.59238.50301l.00762.09699v7.21c0 .297-.2187.5454-.50301.59211l-.09699.00789h-7.21c-.297 0-.5454-.2187-.59211-.50301l-.00789-.09699v-7.21c0-.297.2187-.5454.50301-.59211l.09699-.00789zm10.8762589 7.0551998c.3313709 0 .6.2686292.6.6 0 .2982338-.2175896.5456468-.5026769.592147l-.0973231.007853h-7.2313088c-.3313709 0-.6-.2686291-.6-.6 0-.2982338.2175896-.5456467.5026769-.592147l.0973231-.007853zm-11.4762589-5.8551998h-6.01v6.01h6.01zm11.4394842 2.3864438c.3313691-.0010753.6008738.2666755.6019621.5980445.0009671.2982322-.2158136.5463542-.5007476.5937849l-.0972969.0081707-7.2877019.0237981c-.3313691.0010753-.6008738-.2666755-.6019621-.5980446-.0009671-.2982322.2158136-.5463542.5007476-.5937849l.0972969-.0081706zm.0433311-3.46785494c.3313708 0 .6.26862915.6.6 0 .29823377-.2175896.54564676-.5026769.59214702l-.0973231.00785298h-7.2480014c-.3313709 0-.6-.26862915-.6-.6 0-.29823376.2175896-.54564675.5026769-.59214701l.0973231-.00785299z"/></svg>