<svg height="32" viewBox="0 0 32 32" width="32" xmlns="http://www.w3.org/2000/svg"><path d="m14.2 16.4c.6627417 0 1.2.5372583 1.2 1.2v6.3029437c0 .6627417-.5372583 1.2-1.2 1.2-.3182598 0-.6234845-.1264282-.8485281-.3514718l-6.30294376-6.3029438c-.46862915-.4686291-.46862915-1.2284271 0-1.6970562.22504365-.2250437.53026835-.3514719.84852813-.3514719zm3.4-9.70294373c.3182598 0 .6234845.12642821.8485281.35147187l6.3029438 6.30294376c.4686291.4686291.4686291 1.2284271 0 1.6970562-.2250437.2250437-.5302684.3514719-.8485282.3514719h-6.3029437c-.6627417 0-1.2-.5372583-1.2-1.2v-6.30294373c0-.66274169.5372583-1.2 1.2-1.2z" fill-rule="evenodd"/></svg>