<svg height="32" viewBox="0 0 32 32" width="32" xmlns="http://www.w3.org/2000/svg"><g fill="none" fill-rule="evenodd"><path d="m25.1067515 27.1090802v-18.04375741c0-1.19831745-.9714282-2.16974567-2.1697456-2.16974567l-18.04375744-.00465732v20.2181604z" fill="#d2eab1"/><path d="m14.1451365 23.0752433-3.4160666-2.4380807 3.4160666-2.524687h10.8178563v4.9627677z" fill="#bbd895"/><g transform="translate(8.863562 2.378714)"><path d="m6.64391735 17.4476208-4.6818523.797439.79743895-4.6818523 10.9756267-10.97562667 3.8844133 3.88441335z" fill="#ffc200"/><path d="m1.20086815 16.5191314 2.85361004.0018528-1.43970818 2.1331248z" fill="#252d4f" transform="matrix(.70710678 .70710678 -.70710678 .70710678 13.205246 3.292956)"/><path d="m6.95698445 1.5531413h2.74670769l.06365372 16.7892613-1.4853964-.0057399-1.32496501-1.8707121z" fill="#af8c1d" transform="matrix(.70710678 .70710678 -.70710678 .70710678 9.483358 -2.999309)"/><path d="m13.2557286 3.13588911h5.49339v2.13762428h-5.49339z" fill="#fff" transform="matrix(.70710678 .70710678 -.70710678 .70710678 7.660174 -10.083894)"/><path d="m19.2798476 4.75414871-1.2667305 1.28236906-3.8783844-3.92530042 1.282369-1.2980077.0312773-.0312773c.5160754-.51607535 1.2041758-.78193235 1.9235536-.78193235s1.4074782.29713429 1.907915.81320965c1.063428 1.09470529 1.063428 2.86187241 0 3.94093906z" fill="#fa8bb9" fill-rule="nonzero"/></g></g></svg>