<svg height="32" viewBox="0 0 32 32" width="32" xmlns="http://www.w3.org/2000/svg"><path d="m16 2.47772862c.2982338 0 .5456468.21758961.592147.50267688l.007853.09732312.0008283 1.62544794c1.7239183.28640208 3.0382716 1.78457614 3.0382716 3.58973386 0 .79990363-.2580817 1.53952906-.6955197 2.14015098l2.8144198 8.6656672 2.742.0006139c.3313708 0 .6.2686292.6.6 0 .2982338-.2175896.5456468-.5026769.592147l-.0973231.007853-2.352-.0006139.9605657 2.9542079c.3792009 1.1670603.0045217 2.3981349-.855522 3.1662323l.7706917 2.3751533c.1022995.3151848-.0702782.6536226-.385463.7559221-.2836664.0920694-.5861676-.0385115-.7184075-.2953182l-.0375146-.0901449-.6933503-2.1350525-.0065528.0034284-2.1884472-6.7344284h-2.394v.9006139c0 .3313709-.2686292.6-.6.6-.2982338 0-.5456468-.2175896-.592147-.5026769l-.007853-.0973231v-.9006139h-2.409l-.658 2.025-2.2152581 6.8407681c-.0919281.2837122-.3751859.4520079-.66072504.4083681l-.09500488-.0225284c-.28371216-.0919282-.45200788-.375186-.4083681-.6607251l.02252845-.0950049.76692887-2.3661893c-.8674207-.7674388-1.24665262-2.0037249-.86592612-3.1754806l.95982492-2.9542079-1.837.0006139c-.33137085 0-.6-.2686291-.6-.6 0-.2982337.21758961-.5456467.50267688-.592147l.09732312-.007853 2.227-.0006139 2.8199121-8.6787827c-.3964243-.54941444-.6432985-1.21388827-.6809677-1.9337667l-.0050443-.19326878c0-1.80550817 1.3148637-3.30391347 3.0392757-3.58990053l-.0001758-1.62528127c0-.33137085.2686292-.6.6-.6zm-4.272 17.82099998h-.63l-1.0795571 3.3250283c-.15359883.4727286-.10104535.9629622.10809 1.3734135l.0480173.086635zm9.159 0h-.621l1.55 4.776.0432079-.0775582c.1829934-.3591449.2461039-.7793731.156123-1.1955098l-.048033-.1779037zm-6.9132744-8.8492236-2.4857256 7.6492236h.629l2.419-7.467zm4.0383221-.0000105-.5590477.1812341 2.424 7.468h.62zm-2.2989743.4713704-2.3320734 7.1778637h2.019v-.8993861c0-.3313708.2686292-.6.6-.6.2982338 0 .5456468.2175896.592147.5026769l.007853.0973231v.8993861h2.004l-2.3321357-7.1767201-.2718643.0100018c-.0965669 0-.1922552-.0037613-.2869266-.0111454zm.2869266-6.06705434c-1.3470777 0-2.4390999 1.0920222-2.4390999 2.43909986 0 .95582197.5497943 1.78323258 1.3503897 2.18323868l.5124469-1.58026244c.1680631-.51868271.8664581-.55127174 1.1010398-.09751945l.0404376.09723509.5154042 1.584571c.8049803-.3984623 1.3584816-1.22822401 1.3584816-2.18726288 0-1.34707766-1.0920222-2.43909986-2.4390999-2.43909986z"/></svg>