<svg height="32" viewBox="0 0 32 32" width="32" xmlns="http://www.w3.org/2000/svg"><path d="m14.5884631 16.2857461c.5113001 0 .9257908.4144907.9257908.9257908v4.8626724c0 .5113001-.4144907.9257907-.9257908.9257907-.2455349 0-.4810134-.0975384-.6546329-.2711578l-1.7240663-1.7241203-3.2579872 3.2520548c-.33485286.3348528-.87307634.330477-1.2035534 0-.30694844-.3069485-.32885059-.7847847-.07555629-1.1171051l.07589592-.0867873 3.26020097-3.2491624-1.93760607-1.9375521c-.36154377-.3615438-.36154377-.9477221 0-1.3092658.17361944-.1736195.40909793-.2711579.6546329-.2711579zm9.6633136-8.5425228c.3069484.30694845.3288506.78478473.0755563 1.11710509l-.0758959.08678728-3.2616732 3.24760623 1.7390783 1.7391083c.3615437.3615438.3615437.9477221 0 1.3092658-.1736195.1736195-.409098.2711579-.6546329.2711579h-4.8626724c-.5113001 0-.9257908-.4144907-.9257908-.9257908v-4.86267237c0-.5113001.4144907-.92579073.9257908-.92579073.2455349 0 .4810134.09753839.6546329.27115783l1.9235941 1.92356407 3.2584594-3.2514986c.3348529-.33485285.8730763-.33047705 1.2035534 0z" fill="#005a7d"/></svg>