<svg height="32" viewBox="0 0 32 32" width="32" xmlns="http://www.w3.org/2000/svg"><path d="m24.8 12.11h-4.9v-2.74c0-.33-.27-.6-.6-.6s-.6.27-.6.6v2.74h-6c-.33 0-.6.27-.6.6v12.09c0 .33.27.6.6.6h12.1c.33 0 .6-.27.6-.6v-12.09c0-.33-.27-.6-.6-.6zm-.6 12.09h-10.9v-10.89h10.9zm-14.74-16.4h3c.33 0 .6-.27.6-.6s-.27-.6-.6-.6h-3c-.33 0-.6.27-.6.6s.27.6.6.6zm-2.26 3.75c.33 0 .6-.27.6-.6v-3c0-.33-.27-.6-.6-.6s-.6.27-.6.6v3c0 .33.27.6.6.6zm8.26-3.75h3c.33 0 .6-.27.6-.6s-.27-.6-.6-.6h-3c-.33 0-.6.27-.6.6s.27.6.6.6zm-4.61 10.9h-3c-.33 0-.6.27-.6.6s.27.6.6.6h3c.33 0 .6-.27.6-.6s-.27-.6-.6-.6zm-3.05-1.75v-3c0-.33-.27-.6-.6-.6s-.6.27-.6.6v3c0 .33.27.6.6.6s.6-.27.6-.6z"/></svg>