<svg height="32" viewBox="0 0 32 32" width="32" xmlns="http://www.w3.org/2000/svg"><path d="m11.5832053 16.9391958c3.1667388 0 5.9565589 2.0822296 6.8573978 5.1181354l.2597495.8753783c.1072719.3615157-.1636032.7244405-.5406985.7244405h-13.15289759c-.37709535 0-.6479704-.3629248-.54069848-.7244405l.25974944-.8753783c.90083892-3.0359058 3.69065904-5.1181354 6.85739783-5.1181354zm0 1.128c-2.66735086 0-5.01722232 1.7538665-5.77600086 4.3110164l-.04478751.1509378h11.64157677l-.0447875-.1509378c-.7587786-2.5571499-3.10865-4.3110164-5.7760009-4.3110164zm11.0507171-5.6793184c.2227989-.1060947.4880357-.0848758.6790062.0742663l4.02099 3.2252795c.1485326.1167042.2334084.2970652.2227989.4986452 0 .1909705-.0954852.381941-.2440178.4986452l-3.9255047 3.1404038c-.1060948.0954852-.2546274.1379231-.3925505.1379231-.0954853 0-.1909705-.0212189-.2758463-.0636568-.2121894-.0954853-.360722-.3182842-.360722-.5623021l-.0318285-2.5568827h-4.7212151c-.3501126 0-.6365683-.2864558-.6365683-.6365684s.2864557-.6365683.6365683-.6365683h4.6999962l-.0318284-2.5356639c0-.2440178.1379231-.4774262.360722-.5835209zm-11.1505146-5.4328774c2.4792031 0 4.4889942 2.00979116 4.4889942 4.4889942 0 2.479203-2.0097911 4.4889942-4.4889942 4.4889942-2.47920299 0-4.48899415-2.0097912-4.48899415-4.4889942 0-2.47920304 2.00979116-4.4889942 4.48899415-4.4889942zm0 1.08c-1.88273546 0-3.40899415 1.52625869-3.40899415 3.4089942 0 1.8827355 1.52625869 3.4089942 3.40899415 3.4089942 1.8827355 0 3.4089942-1.5262587 3.4089942-3.4089942 0-1.88273551-1.5262587-3.4089942-3.4089942-3.4089942z"/></svg>