<svg height="32" viewBox="0 0 32 32" width="32" xmlns="http://www.w3.org/2000/svg"><path d="m26.81 17.475c.34 0 .6.27.6.6-.0294643 5.01875-3.9173469 9.1790019-8.8309832 9.6575648l-.2690168.0224352.01 1.58c0 .22-.13.44-.34.54-.18.0857143-.3893878.0759184-.5525948-.016793l-.0774052-.053207-2.75-2.2c-.14-.12-.22-.29-.22-.47 0-.144.0512-.288.14336-.39616l.07664-.07384 2.72-2.18c.18-.14.42-.17.63-.07.18.0857143.3012245.2522449.3321866.4429155l.0078134.0970845.01 1.6c4.38-.34 7.88-4.02 7.91-8.48 0-.34.27-.6.6-.6zm-9.14625-1.932231c.7025887.2554868 1.2399535.800946 1.4969093 1.4719278.9331838-.2303545 1.9604827-.2728638 2.8368927.0687805.8885516.3463774 1.4767363 1.1613568 1.5428599 2.1632249l.0062262.1899716v1.4107423c0 .3313708-.2686291.6-.6.6h-13.9091381c-.33137085 0-.6-.2686292-.6-.6v-1.4107423c0-1.0881368.605-1.9851705 1.54908608-2.3531965.88104162-.3434498 1.91457112-.298675 2.85218942-.0659217.2558971-.6721912.7938239-1.2189137 1.4974745-1.4747866 1.0747408-.3908148 2.2527592-.3908148 3.3275 0zm-7.2413219 2.658761c-.44359828.1729245-.73349069.5689665-.77872554 1.0900143l-.00620256.1451295-.0005.8103262h3.022l.001-2.035-.147159-.0388717c-.7954387-.1921076-1.5387894-.1866336-2.0904129.0284017zm4.3239136-1.5310089c-.4808989.1748723-.8144196.6083975-.8666668 1.1094134l-.0071749.1381704-.0005 2.3288951 4.2525-.0005839-.001-2.396-.0031749-.0704816c-.0474975-.455469-.3274523-.8551605-.7392671-1.0554517l-.1273997-.0539617c-.8098318-.2944843-1.6974848-.2944843-2.5073166 0zm4.9618848 1.4509143-.2369294.0516929-.1437971.0372878v2.036l3.0196881.0005839-.00055-.8103262-.0062026-.1451295c-.0452348-.5210478-.3351272-.9170898-.7787255-1.0900143-.4412988-.1720282-1.005303-.2099372-1.6205173-.1198606zm-8.8507265-5.9329354c1.1026365 0 1.9965.8938635 1.9965 1.9965s-.8938635 1.9965-1.9965 1.9965-1.9965-.8938635-1.9965-1.9965.8938635-1.9965 1.9965-1.9965zm10.285 0c1.1026365 0 1.9965.8938635 1.9965 1.9965s-.8938635 1.9965-1.9965 1.9965-1.9965-.8938635-1.9965-1.9965.8938635-1.9965 1.9965-1.9965zm-10.285 1.2c-.4398948 0-.7965.3566052-.7965.7965s.3566052.7965.7965.7965.7965-.3566052.7965-.7965-.3566052-.7965-.7965-.7965zm10.285 0c-.4398948 0-.7965.3566052-.7965.7965s.3566052.7965.7965.7965.7965-.3566052.7965-.7965-.3566052-.7965-.7965-.7965zm-7.4825-11.2635c.18-.08571429.3893878-.07591837.5588921.016793l.0811079.053207 2.75 2.2c.14.12.22.29.22.47 0 .144-.0512.288-.14336.39616l-.07664.07384-2.72 2.18c-.18.14-.42.17-.63.07-.18-.08571429-.3012245-.2522449-.3321866-.44291545l-.0078134-.09708455-.01-1.6c-4.38.34-7.88 4.02-7.91 8.48-.01.33-.28.6-.61.6s-.6-.27-.6-.6c.02946429-5.01875 3.91734694-9.17900191 8.8309832-9.6575648l.2690168-.0224352-.01-1.58c0-.23.13-.44.34-.54zm2.2388395 7.22241607c1.4029762 0 2.5403132 1.15876083 2.5403132 2.58816473 0 1.3744268-1.051532 2.4986289-2.3796598 2.5830728l-.1606534.0050919c-1.4029763 0-2.5403133-1.1587608-2.5403133-2.5881647 0-1.3744268 1.051532-2.49862892 2.3796598-2.58307283zm0 1.20000003c-.7351704 0-1.3403133.6165418-1.3403133 1.3881647s.6051429 1.3881647 1.3403133 1.3881647c.7351703 0 1.3403132-.6165418 1.3403132-1.3881647s-.6051429-1.3881647-1.3403132-1.3881647z"/></svg>