<svg height="32" viewBox="0 0 32 32" width="32" xmlns="http://www.w3.org/2000/svg"><g fill="none"><g fill="#e44e0c"><path d="m19.7783852 7.76846675c0-.33-.27-.6-.6-.6s-.6.27-.6.6v2.71999995c0 .33.27.6.6.6s.6-.27.6-.6z" transform="matrix(-1 0 0 -1 38.35677 18.256934)"/><path d="m6.47838518 16.9584667v2.9c0 .33.27.6.6.6s.6-.27.6-.6v-2.9c0-.33-.27-.6-.6-.6s-.6.27-.6.6z" transform="matrix(-1 0 0 -1 14.15677 36.816934)"/><path d="m15.8883852 7.16846675h-3c-.33 0-.6.27-.6.6s.27.6.6.6h3c.33 0 .6-.27.6-.6s-.27-.6-.6-.6z" transform="matrix(-1 0 0 -1 28.77677 15.536934)"/><path d="m16.1783852 19.2584667c-.33 0-.6.27-.6.6s.27.6.6.6h3c.33 0 .6-.27.6-.6s-.27-.6-.6-.6z" transform="matrix(-1 0 0 -1 35.35677 39.716934)"/><path d="m7.07838518 7.16846675c-.33 0-.6.27-.6.6s.27.6.6.6h2.81c.33000002 0 .60000002-.27.60000002-.6s-.27-.6-.60000002-.6z" transform="matrix(-1 0 0 -1 16.96677 15.536934)"/><path d="m7.07838518 10.3584667c-.33 0-.6.27-.6.6v3c0 .33.27.6.6.6s.6-.27.6-.6v-3c0-.33-.27-.6-.6-.6z" transform="matrix(-1 0 0 -1 14.15677 24.916934)"/><path d="m10.1583852 19.2684667c-.33000002.01-.59000002.27-.59000002.6s.27.6.60000002.6h3c.33 0 .6-.27.6-.6s-.27-.6-.6-.6z" transform="matrix(-1 0 0 -1 23.33677 39.736934)"/><path d="m19.1777501 12.8853082c-.33 0-.6.27-.6.6v3c0 .33.27.6.6.6s.6-.27.6-.6v-3c0-.33-.27-.6-.6-.6z" transform="matrix(-1 0 0 -1 38.3555 29.970616)"/></g><path d="m25.2 12.5h-12.1c-.33 0-.6.27-.6.6v12.09c0 .33.27.6.6.6h12.1c.33 0 .6-.27.6-.6v-12.09c0-.33-.27-.6-.6-.6z" fill="#6ec18d" transform="matrix(-1 0 0 -1 38.3 38.29)"/></g></svg>