<svg height="32" viewBox="0 0 32 32" width="32" xmlns="http://www.w3.org/2000/svg"><path d="m26.81 17.475c.34 0 .6.27.6.6-.0294643 5.01875-3.9173469 9.1790019-8.8309832 9.6575648l-.2690168.0224352.01 1.58c0 .22-.13.44-.34.54-.18.0857143-.3893878.0759184-.5525948-.016793l-.0774052-.053207-2.75-2.2c-.14-.12-.22-.29-.22-.47 0-.144.0512-.288.14336-.39616l.07664-.07384 2.72-2.18c.18-.14.42-.17.63-.07.18.0857143.3012245.2522449.3321866.4429155l.0078134.0970845.01 1.6c4.38-.34 7.88-4.02 7.91-8.48 0-.34.27-.6.6-.6zm-15.3357844.6271543-.0056147.0614667-.0061009.2141309-.001 3.0696642h-3.024v-1.4489141c0-.7747921.48297916-1.4674467 1.21-1.7352965.5872018-.2163375 1.2179178-.2700212 1.8267156-.1610512zm10.8782844.1610512c.7270208.2678498 1.21.9605044 1.21 1.7352965v1.4489141h-3.026l.001-3.0696642-.005671-.2064631-.0043126-.0673227c.6070658-.1107818 1.2377818-.0570981 1.8249836.1592394zm-6.3525-2.5539005.1299551.0017343.2596282.0138751c.4321653.0346877.8608049.1271883 1.2741667.2775017.9400885.3418503 1.5843703 1.2028494 1.6569152 2.1890518l.0068348.186284v3.0696642h-6.655v-3.0696642l.0068348-.186284c.0725449-.9862024.7168267-1.8472015 1.6569152-2.1890518.3306895-.1202507.6711567-.2035012 1.0153846-.2497515l.2587821-.0277502.2596282-.0138751zm-5.1425-2.7318889c1.0023968 0 1.815.8126031 1.815 1.815 0 1.0023968-.8126032 1.815-1.815 1.815-1.00239682 0-1.815-.8126032-1.815-1.815 0-1.0023969.81260318-1.815 1.815-1.815zm10.285 0c1.0023968 0 1.815.8126031 1.815 1.815 0 1.0023968-.8126032 1.815-1.815 1.815s-1.815-.8126032-1.815-1.815c0-1.0023969.8126032-1.815 1.815-1.815zm-7.4825-10.8524161c.18-.08571429.3893878-.07591837.5588921.016793l.0811079.053207 2.75 2.2c.14.12.22.29.22.47 0 .144-.0512.288-.14336.39616l-.07664.07384-2.72 2.18c-.18.14-.42.17-.63.07-.18-.08571429-.3012245-.2522449-.3321866-.44291545l-.0078134-.09708455-.01-1.6c-4.38.34-7.88 4.02-7.91 8.48-.01.33-.28.6-.61.6s-.6-.27-.6-.6c.02946429-5.01875 3.91734694-9.17900191 8.8309832-9.6575648l.2690168-.0224352-.01-1.58c0-.23.13-.44.34-.54zm2.2388395 7.22241607c1.4029762 0 2.5403132 1.15876083 2.5403132 2.58816473 0 1.2069967-.810945 2.2210192-1.9080041 2.5073507l-.1586125.0358965-.1550452.0247521c-.1043808.0133089-.2107302.0201654-.3186514.0201654-.0833316 0-.1657261-.004088-.2489991-.0122752-1.2861134-.1274758-2.2913142-1.2320828-2.2913142-2.5758895 0-1.4294039 1.137337-2.58816473 2.5403133-2.58816473z"/></svg>