<svg height="32" viewBox="0 0 32 32" width="32" xmlns="http://www.w3.org/2000/svg"><g fill="none"><path d="m12.1 20.87c.33 0 .6.27.6.6v2.72c0 .33-.27.6-.6.6s-.6-.27-.6-.6v-2.72c0-.33.27-.6.6-.6zm6.29 2.72c.33 0 .6.27.6.6s-.27.6-.6.6h-3c-.33 0-.6-.27-.6-.6s.27-.6.6-.6zm5.81 0c.33 0 .6.27.6.6s-.27.6-.6.6h-2.81c-.33 0-.6-.27-.6-.6s.27-.6.6-.6zm0-6.19c.33 0 .6.27.6.6v3c0 .33-.27.6-.6.6s-.6-.27-.6-.6v-3c0-.33.27-.6.6-.6zm-12.0993649-2.5268414c.33 0 .6.27.6.6v3c0 .33-.27.6-.6.6s-.6-.27-.6-.6v-3c0-.33.27-.6.6-.6zm12.0993649-3.3731586c.33 0 .6.27.6.6v2.9c0 .33-.27.6-.6.6s-.6-.27-.6-.6v-2.9c0-.33.27-.6.6-.6zm-9.1 0c.33 0 .6.27.6.6s-.27.6-.6.6h-3c-.33 0-.6-.27-.6-.6s.27-.6.6-.6zm6.01-.01c.33 0 .6.27.6.6s-.27.6-.6.6h-3c-.33 0-.6-.27-.6-.6s.26-.59.59-.6z" fill="#e44e0c"/><path d="m18.2 5.5h-12.1c-.33 0-.6.27-.6.6v12.09c0 .33.27.6.6.6h12.1c.33 0 .6-.27.6-.6v-12.09c0-.33-.27-.6-.6-.6z" fill="#6ec18d"/><path d="m12.1006351 14.8731586c.33 0 .6.27.6.6v3c0 .1172928-.0341098.2270058-.0928998.3197091l-1.0152398-.0016449c-.0581524-.0923552-.0918604-.2014644-.0918604-.3180642v-3c0-.33.27-.6.6-.6zm2.9993649-3.3731586c.33 0 .6.27.6.6s-.27.6-.6.6h-3c-.33 0-.6-.27-.6-.6s.27-.6.6-.6zm3.7-.01v1.2h-.69c-.33 0-.6-.27-.6-.6s.26-.59.59-.6z" fill="#571200"/></g></svg>