<svg height="32" viewBox="0 0 32 32" width="32" xmlns="http://www.w3.org/2000/svg"><path d="m11.6700127 17.1821146c3.1032391 0 5.8371176 2.0404766 6.7198929 5.0155063l.2763292.9312535h-13.99244426l.27632919-.9312535c.88277525-2.9750297 3.61665374-5.0155063 6.71989297-5.0155063zm11.0507171-4.9369156c.2227989-.1060948.4880357-.0848758.6790062.0742663l4.0209899 3.2252795c.1485327.1167042.2334084.2970652.222799.4986452 0 .1909705-.0954853.381941-.2440179.4986452l-3.9255047 3.1404037c-.1060947.0954853-.2546273.1379232-.3925505.1379232-.0954852 0-.1909705-.021219-.2758462-.0636568-.2121895-.0954853-.3607221-.3182842-.3607221-.5623021l-.0318284-2.5568828h-4.7212151c-.3501126 0-.6365684-.2864557-.6365684-.6365683s.2864558-.6365683.6365684-.6365683h4.6999961l-.0318284-2.5356639c0-.2440178.1379232-.4774262.3607221-.5835209zm-11.1505146-5.33165455c2.4232992 0 4.3877713 1.96447214 4.3877713 4.38777135 0 2.4232992-1.9644721 4.3877713-4.3877713 4.3877713s-4.38777133-1.9644721-4.38777133-4.3877713c0-2.42329921 1.96447213-4.38777135 4.38777133-4.38777135z" fill-rule="evenodd"/></svg>