<svg height="32" viewBox="0 0 32 32" width="32" xmlns="http://www.w3.org/2000/svg"><path d="m12.7 21.48c.297 0 .5454.2187.59211.50301l.00789.09699v2.21c.17.11.29.3.28.51 0 .297-.2187.5454-.50301.59211l-.09699.00789h-.28c-.297 0-.5454-.2187-.59211-.50301l-.00789-.09699v-2.72c0-.33.27-.6.6-.6zm6.29 2.72c.33 0 .6.27.6.6 0 .297-.2187.5454-.50301.59211l-.09699.00789h-3c-.33 0-.6-.27-.6-.6 0-.297.2187-.5454.50301-.59211l.09699-.00789zm5.81-.19c.297 0 .5454.2187.59211.50301l.00789.09699v.19c0 .297-.2187.5454-.50301.59211l-.09699.00789h-2.81c-.33 0-.6-.27-.6-.6 0-.297.2187-.5454.50301-.59211l.09699-.00789h2.38c.11-.12.26-.19.43-.19zm0-6c.297 0 .5454.2187.59211.50301l.00789.09699v3c0 .33-.27.6-.6.6-.297 0-.5454-.2187-.59211-.50301l-.00789-.09699v-3c0-.33.27-.6.6-.6zm-5.4742324-11.38441701c.297 0 .5454.2187.59211.50301l.00789.09699v4.87400001l1.7842324.000417c.33 0 .6.27.6.6 0 .297-.2187.5454-.50301.59211l-.09699.00789-1.7842324-.000417v6.016c0 .297-.2187.5454-.50301.59211l-.09699.00789h-12.09999995c-.297 0-.5454-.2187-.59211-.50301l-.00789-.09699v-12.09000001c0-.297.2187-.5454.50301-.59211l.09699-.00789zm-6.5980968 8.44251751c-.297 0-.5454.2187-.59211.50301l-.00789.09699v3.0285553l.007853.0973231c.0465002.2850873.2939132.5026769.592147.5026769.2982337 0 .5456467-.2175896.592147-.5026769l.007853-.0973231v-3.0285553l-.00789-.09699c-.04671-.28431-.29511-.50301-.59211-.50301zm12.0723292-2.9581005c.297 0 .5454.2187.59211.50301l.00789.09699v2.9c0 .33-.27.6-.6.6-.297 0-.5454-.2187-.59211-.50301l-.00789-.09699v-2.58c-.07-.09-.1-.2-.1-.32 0-.297.2187-.5454.50301-.59211l.09699-.00789zm-9.0729643.0081934h-3l-.09699.00789c-.28431.04671-.50301.29511-.50301.59211s.2187.5454.50301.59211l.09699.00789h3l.09699-.00789c.28431-.04671.50301-.29511.50301-.59211s-.2187-.5454-.50301-.59211zm4.1317319-.0106104-1.1317319.0006104-.09671.01032c-.28269.05238-.49329.29268-.49329.58968s.2187.5454.50301.59211l.09699.00789h1.1797324v-.0086104l-.0424137.000417z"/></svg>