<svg height="32" viewBox="0 0 32 32" width="32" xmlns="http://www.w3.org/2000/svg"><path d="m13.3 24.29v-2.21c0-.33-.27-.6-.6-.6s-.6.27-.6.6v2.72c0 .33.27.6.6.6h.28c.33 0 .6-.27.6-.6.01-.21-.11-.4-.28-.51zm11.5-12.18h-.1c-.33 0-.6.27-.6.6 0 .12.03.23.1.32v2.58c0 .33.27.6.6.6s.6-.27.6-.6v-2.9c0-.33-.27-.6-.6-.6zm-5.81 12.09h-3c-.33 0-.6.27-.6.6s.27.6.6.6h3c.33 0 .6-.27.6-.6s-.27-.6-.6-.6zm-6.29-12.09c-.33 0-.6.27-.6.6v.37c0 .33.27.6.6.6.25 0 .47-.15.56-.37h2.44c.33 0 .6-.27.6-.6s-.27-.6-.6-.6zm12.1 11.9c-.17 0-.32.07-.43.19h-2.38c-.33 0-.6.27-.6.6s.27.6.6.6h2.81c.33 0 .6-.27.6-.6v-.19c0-.33-.27-.6-.6-.6zm0-6c-.33 0-.6.27-.6.6v3c0 .33.27.6.6.6s.6-.27.6-.6v-3c0-.33-.27-.6-.6-.6zm-11.56 1.34c.04-.08.07-.18.07-.27v-3c0-.33-.27-.6-.6-.6s-.6.27-.6.6v2.62h-4.31v-10.9h10.9v4.3c-.33.01-.59.27-.59.6s.27.6.6.6h3c.33 0 .6-.27.6-.6s-.27-.6-.6-.6h-1.81v-4.9c0-.33-.27-.6-.6-.6h-12.1c-.33 0-.6.27-.6.6v12.1c0 .33.27.6.6.6h5.44c.31 0 .57-.24.6-.55z"/></svg>