<svg height="32" viewBox="0 0 32 32" width="32" xmlns="http://www.w3.org/2000/svg"><g fill="none" fill-rule="evenodd"><path d="m23.81 29.875c-.21-.1-.34-.32-.34-.54l.01-1.58c-5.04-.35-9.07-4.57-9.1-9.68 0-.33.26-.6.6-.6.33 0 .6.26.6.6.03 4.46 3.53 8.14 7.91 8.48l.01-1.6c0-.23.13-.44.34-.54s.45-.07.63.07l2.72 2.18c.14.11.22.29.22.47s-.08.35-.22.47l-2.75 2.2c-.17.14-.42.17-.63.07z" fill="#4da86d" fill-rule="nonzero" transform="matrix(-1 0 0 1 41.79 0)"/><path d="m16.06 13.925c-.03-4.46-3.53-8.14-7.91-8.48l-.01 1.6c0 .23-.13.44-.34.54s-.45.07-.63-.07l-2.72-2.18c-.14-.11-.22-.29-.22-.47s.08-.35.22-.47l2.75-2.2c.18-.14.43-.17.64-.07s.34.31.34.54l-.01 1.58c5.04.35 9.07 4.57 9.1 9.68 0 .33-.27.6-.6.6s-.6-.27-.61-.6z" fill="#4da86d" fill-rule="nonzero" transform="matrix(-1 0 0 1 21.5 0)"/><path d="m12.0675 18.2632055c.2286077.0842239.4330856.2104505.6060051.368026l-.0010051 2.8161846h-4.235v-1.4489141c0-.7747921.48297916-1.4674467 1.21-1.7352965.7810074-.2877395 1.6389926-.2877395 2.42 0zm-1.21-5.2857894c1.0023968 0 1.815.8126031 1.815 1.815 0 1.0023968-.8126032 1.815-1.815 1.815-1.00239682 0-1.815-.8126032-1.815-1.815 0-1.0023969.81260318-1.815 1.815-1.815z" fill="#67aec0"/><path d="m22.3525 18.2632055c.7270208.2678498 1.21.9605044 1.21 1.7352965v1.4489141h-4.235l-.0005673-2.8165834c.1728268-.1573897.3771525-.2834744.6055673-.3676272.7810074-.2877395 1.6389926-.2877395 2.42 0zm-1.21-5.2857894c1.0023968 0 1.815.8126031 1.815 1.815 0 1.0023968-.8126032 1.815-1.815 1.815s-1.815-.8126032-1.815-1.815c0-1.0023969.8126032-1.815 1.815-1.815z" fill="#67aec0"/><path d="m17.66375 16.0024161c.998844.363216 1.66375 1.3125022 1.66375 2.3753358v3.0696642h-6.655v-3.0696642c0-1.0628336.664906-2.0121198 1.66375-2.3753358 1.0747408-.3908149 2.2527592-.3908149 3.3275 0zm-1.7649105-6.65500003c1.4029762 0 2.5403132 1.15876083 2.5403132 2.58816473s-1.137337 2.5881647-2.5403132 2.5881647c-1.4029763 0-2.5403133-1.1587608-2.5403133-2.5881647s1.137337-2.58816473 2.5403133-2.58816473z" fill="#2289a3"/></g></svg>