<svg height="32" viewBox="0 0 32 32" width="32" xmlns="http://www.w3.org/2000/svg"><g fill="none" fill-rule="evenodd"><circle cx="11.570215" cy="11.301316" fill="#007880" r="4.387771"/><path d="m11.6700127 17.1821146c3.1032391 0 5.8371176 2.0404766 6.7198929 5.0155063l.2763292.9312535h-13.99244426l.27632919-.9312535c.88277525-2.9750297 3.61665374-5.0155063 6.71989297-5.0155063z" fill="#007880"/><path d="m27.4207259 15.5447448-4.0209899-3.2252795c-.1909705-.1591421-.4562073-.1803611-.6790062-.0742663-.2227989.1060947-.3607221.3395031-.3607221.5835209l.0318284 2.5356639h-4.6999961c-.3501126 0-.6365684.2864557-.6365684.6365683s.2864558.6365683.6365684.6365683h4.7212151l.0318284 2.5568828c0 .2440179.1485326.4668168.3607221.5623021.0848757.0424378.180361.0636568.2758462.0636568.1379232 0 .2864558-.0424379.3925505-.1379232l3.9255047-3.1404037c.1485326-.1167042.2440179-.3076747.2440179-.4986452.0106094-.20158-.0742663-.381941-.222799-.4986452z" fill="#4da86d" fill-rule="nonzero"/></g></svg>