<svg height="32" viewBox="0 0 32 32" width="32" xmlns="http://www.w3.org/2000/svg"><path d="m12.992037 15.4461723.1017706.0068467.0916693.0195933c.2675395.0785596.4632724.3302706.4632724.6237856 0 .2935149-.1957329.545226-.4681791.6242829l-.0934933.0197782-.0950399.0061644-2.4150374-.0002255-.1762519.0050483-.176845.0153534c-1.40053096.1624255-2.50992694 1.2695778-2.67553412 2.6666357l-.01619499.1838153-.00513233.1762605.00514584.178873c.08541408 1.4799493 1.2244158 2.6833275 2.6884656 2.853435l.1771996.0154048.1762605.0051323 10.7566936.0000024-.0289664-1.8369166c0-.23.13-.45.34-.55.18-.0942857.3893878-.0857143.5588921.0131195l.0811079.0568805 3.12 2.54c.14.11.22.29.22.46 0 .152-.0512.2912-.14336.39712l-.07664.07288-3.05 2.47c-.11.08-.25.13-.38.13-.08 0-.17-.02-.25-.06-.18-.0771429-.3085714-.242449-.3416326-.4329446l-.0083674-.0970554-.0290336-1.8630834-10.7658068.0000393-.2103145-.0050038c-2.16063912-.1030248-3.91798304-1.784954-4.12026711-3.9310222l-.01468271-.2090955-.0047624-.2071895.00500613-.2101106c.1030484-2.1585979 1.78497833-3.915878 3.93104649-4.1181601l.2090955-.0146826.2071895-.0047624zm4.0582339-.399128c.5243997.5381998.5201596 1.4031806-.0135324 1.9368726-.5361957.5361958-1.4029209.5361958-1.9413317-.002244-.5243997-.5381997-.5201596-1.4031806.0157764-1.9390877.5400706-.5262226 1.4178412-.5305044 1.9390877.0044591zm-.9373107-7.23193164.2481895.00699331c4.3686337.18749023 7.8543056 3.80220243 7.8543056 8.20897013 0 .3865993-.3134006.7-.7.7-.3865993 0-.7-.3134007-.7-.7 0-3.7237563-3.0026215-6.76766737-6.720691-6.81595399-.3865599-.00502026-.6958798-.32246107-.6910358-.7090467.0047684-.3543353.2719122-.64377507.6141677-.68577904zm-.0139943 3.39585494.2177507.0077031c2.5259069.1461555 4.529569 2.248027 4.529569 4.8057284 0 .3865994-.3134007.7-.7.7-.3865994 0-.7-.3134006-.7-.7 0-1.8646095-1.5039558-3.3893736-3.3655-3.4135495-.3865667-.0050204-.6958712-.3224644-.6908508-.7090311.0046019-.3543529.2717266-.6437839.6139702-.6856947zm-8.10407611-5.34260898c1.25645547 0 2.31104511.86429036 2.60167341 2.03077554l2.9201649.00030781.0960522.00704767c.3134396.04642587.5539478.31660225.5539478.64295233s-.2405082.59652646-.5539478.64295233l-.0960522.00704767-2.9201496.00024623c-.2906065 1.1665163-1.34521113 2.0308371-2.60168871 2.0308371-1.48072144 0-2.68108334-1.2003619-2.68108334-2.68108333 0-1.48072145 1.2003619-2.68108335 2.68108334-2.68108335z"/></svg>