<svg height="32" viewBox="0 0 32 32" width="32" xmlns="http://www.w3.org/2000/svg"><g fill="none"><path d="m13.4541826 8.54944197c0 .41421356-.3357865.75-.75.75h-3.21433775c-.19725118 0-.35715486-.33578644-.35715486-.75 0-.37969577.13436351-.69349096.30869107-.74315339l.04846379-.00684661h3.21433775c.4142135 0 .75.33578643.75.75z" fill="#fa8bb9"/><path d="m10.5769996 24.2463979c-2.38774247 0-4.33578938-1.8798257-4.44515717-4.2404935l-.00484285-.2095065c0-2.3877425 1.8798257-4.3357894 4.24049352-4.4451572l.2095065-.0048428h2.1563166l.1017706.0068466c.3660756.0496624.6482294.3634576.6482294.7431534 0 .3796957-.2821538.6934909-.6482294.7431534l-.1017706.0068466h-2.1563166l-.1733651.0050067c-1.49144866.0863834-2.68524476 1.2801795-2.77162822 2.7716282l-.0050067.1733651c0 1.5713451 1.22782285 2.8552874 2.77663492 2.9449933l.1733651.0050067h11.3814291c.4142135 0 .75.3357864.75.75 0 .3796957-.2821539.6934909-.6482295.7431534l-.1017705.0068466z" fill="#6ec18d"/><path d="m25.40184 23.069442-3.12-2.54c-.18-.15-.43-.18-.64-.07-.21.1-.34.32-.34.55l.03 1.89.01 1.2.03 1.91c0 .23.14.44.35.53.08.04.17.06.25.06.13 0 .27-.05.38-.13l3.05-2.47c.14-.11.22-.28.22-.47 0-.17-.08-.35-.22-.46z" fill="#257843"/><circle cx="7.99489" cy="8.549442" fill="#b75c64" r="2.681083"/><path d="m15.1111832 15.0425852c-.535936.5359071-.5401761 1.400888-.0157764 1.9390877.5384108.5384398 1.405136.5384398 1.9413317.002244.533692-.533692.5379321-1.3986728.0135324-1.9368726-.5212465-.5349635-1.3990171-.5306817-1.9390877-.0044591z" fill="#c54e1a"/><path d="m15.303853 8.5047924c.0058064-.44179054.3685996-.79528135.8103902-.78961267 4.5372533.05899423 8.2012121 3.76973157 8.2012121 8.31589637 0 .4418278-.3581722.8-.8.8s-.8-.3581722-.8-.8c0-3.6705056-2.9601076-6.66840551-6.6219896-6.71596242-.4417905-.00573754-.7952814-.36853073-.7896127-.81032128z" fill="#ffcab2"/><path d="m15.2899432 11.9005199c.0057375-.4417906.3685307-.7952814.8103213-.7895438 2.6814015.0348234 4.8460211 2.2270791 4.8460211 4.913423 0 .4418278-.3581722.8-.8.8s-.8-.3581722-.8-.8c0-1.8106847-1.4607684-3.290103-3.2667986-3.313558-.4417906-.0057375-.7952814-.3685307-.7895438-.8103212z" fill="#ff905e"/></g></svg>