<svg height="32" viewBox="0 0 32 32" width="32" xmlns="http://www.w3.org/2000/svg"><g fill="none" fill-rule="evenodd"><g fill-rule="nonzero" transform="translate(5 8.810195)"><path d="m7.22742438 16.675294-7.13493449 2.3988673h-.09248989v-16.70892298c.02642568-.01120966.06606421-.03362898.10570273-.04483864l7.12172165-2.05136783z" fill="#6ec38c"/><path d="m14.4548488 18.8173908-7.22742442-2.1410451v-16.3838429l7.22742442 2.14104512z" fill="#399058"/><path d="m21.6822731 16.6865037c-.0264256.0224193-.0660642.0560483-.1189155.0784676l-7.1085088 2.0513679v-16.4174719l7.1349345-2.3988673h.079277v16.6865037z" fill="#6ec38c"/></g><path d="m19.4548488 22.8631418-3.6137122-2.4556055 3.6137122-2.1891713z" fill="#115e25"/><path d="m19.4548488 22.8631418v-4.6882862l7.2274243-3.1748556v4.756625z" fill="#399058"/><path d="m19.5478454 19.0117733-3.7003854 1.395763-.0920599-3.9537996 7.2278753-10.71576578 3.7924453 2.55803664z" fill="#f8c31c"/><path d="m22.6996572 6.15845216 1.8962227 1.27901832-8.7484199 12.97006582-.0537225-2.065865-.0383374-1.8879346z" fill="#af8c1d"/><path d="m23.6950574 4.68271076 3.7924452 2.55803665-.9954001 1.4757414-3.7924453-2.55803665z" fill="#fff"/><path d="m27.8599519 6.62797709-.8317062 1.2495226-3.7940137-2.59241696.8420048-1.26479097.0205973-.03053677c.3398556-.50385666.8600878-.83051052 1.4481297-.94481429.5880418-.11430376 1.1977291.01924907 1.6888023.36158954 1.0432198.72587557 1.3240095 2.17041324.6261858 3.22144685z" fill="#fa8bb9" fill-rule="nonzero"/></g></svg>