<svg height="32" viewBox="0 0 32 32" width="32" xmlns="http://www.w3.org/2000/svg"><path d="m11.627 9.876v15.178l-6.027 2.026v-15.469zm15.6439733-6.31725.0758273.00179782.2189546.01219016c.7093741.06748327 1.3783842.37643639 1.8915889.88964117.5806398.58063973.9086292 1.36781433.9086292 2.19137085 0 .64420729-.2004553 1.26023506-.600755 1.82177578l-.1408341.18512611-.1670401.18446896-.3863441.38587915-3.003 2.99475.001 12.87125-6.015 1.732-.001-8.60325-1.121948 1.1195084-.078052.0204916.001 7.45825-6.027-1.786v-15.133l5.25 1.57575 6.6050682-6.618298.0049318.004548.4566649-.46074936.1750424-.15524142c.4937193-.40195523 1.0939414-.63629363 1.7175-.68340642zm-2.585 3.565-8.6671739 8.6860848-.7728261 2.8639152 2.8584914-.7637632 8.7015086-8.6762368zm2.585-1.965c-.286875 0-.57375.0815625-.8216016.2446875l-.1204931.08835938-.1129053.10195312-.68.69 2.11 2.11.68-.68.0992969-.11240234.0875781-.11931641c.163125-.24515625.253125-.52828125.253125-.82828125 0-.4-.16-.78-.44-1.06-.2175-.2175-.4870313-.3534375-.7695703-.4078125l-.1421729-.02039062z"/></svg>