<svg height="32" viewBox="0 0 32 32" width="32" xmlns="http://www.w3.org/2000/svg"><path d="m11.1706225 5.84625c.0975-.0375.211875-.046875.3178125-.028125l.1021875.028125 6.09 2.20213323c.31.1.48.45.37.76-.09.279-.3825.4446-.66609.39474l-.09391-.02474-5.3-1.93213323v16.4l5.47 1.91v-5.1420726c0-.33.27-.6.6-.6.297 0 .5454.2187.59211.50301l.00789.09699v5.1620726l5.38-1.83.0525-.035.0375-.035v-8.8526329c0-.33.27-.6.6-.6.297 0 .5454.2106.5994.50058l.0106.09942v8.9226329c0 .4727273-.3471075.8380165-.6806912 1.0357626l-.0993088.0542374-.08.03-6.21 2.11c-.04.02-.0844445.0311111-.1303704.0362963l-.0896296.0037037c-.0466667 0-.0933334-.0088889-.1370371-.0207407l-.0629629-.0192593-6.44-2.25-5.68000003 2.25c-.04666667.02-.09333334.0311111-.14296297.0362963l-.07703703.0037037h-.22c-.62533334 0-1.09386667-.4268444-1.15355852-1.0284919l-.00644148-.1315081v-16.78c0-.55785714.3210204-.83790816.57986516-.99537172l.19013484-.10462828.08-.03zm-.37 1.4-5.39000003 1.83-.04375.02-.03625.02v16.69h.07l5.40000003-2.14zm13.8853508-.85775973 2.12 2.11-8.7015086 8.67623673-2.8584914.7637633.7728261-2.8639152zm2.585-1.965.1432568.00679688.1421729.02039062c.282539.054375.5520703.1903125.7695703.4078125.28.28.44.66.44 1.06 0 .3-.09.583125-.253125.82828125l-.0875781.11931641-.0992969.11240234-.68.68-2.11-2.11.68-.69.1129053-.10195312.1204931-.08835938c.1982813-.1305.4215375-.2088.6497888-.2349z"/></svg>