<svg fill="none" height="32" viewBox="0 0 33 32" width="33" xmlns="http://www.w3.org/2000/svg"><g fill="#000"><path d="m20.6596 11.3001c-.3314 0-.6.2686-.6.6v1.8502c0 .3314.2686.6.6.6h2.9689c.3314 0 .6-.2686.6-.6v-1.8502c0-.3314-.2686-.6-.6-.6z"/><path clip-rule="evenodd" d="m24.2867 6.36243h-16.30877c-2.54051 0-4.6 2.05949-4.6 4.59997v10.0752c0 2.5405 2.05949 4.6 4.6 4.6h16.30877c2.5405 0 4.6-2.0595 4.6-4.6v-10.0752c0-2.54048-2.0595-4.59997-4.6-4.59997zm-19.70877 4.59997c0-1.87774 1.52223-3.39997 3.4-3.39997h16.30877c1.8777 0 3.4 1.52223 3.4 3.39997v7h-23.10877zm.00412 10.2439h23.10055c-.088 1.7994-1.5748 3.2313-3.3959 3.2313h-16.30877c-1.82118 0-3.30793-1.4319-3.39588-3.2313z" fill-rule="evenodd"/></g></svg>