<svg fill="none" height="32" viewBox="0 0 33 32" width="33" xmlns="http://www.w3.org/2000/svg"><path d="m7.49899 9.33765c-2.07024 0-3.7485 1.67825-3.7485 3.74845v8.9029c0 2.0702 1.67826 3.7485 3.7485 3.7485h17.98041c2.0702 0 3.7485-1.6783 3.7485-3.7485v-8.9029c0-2.0702-1.6783-3.74845-3.7485-3.74845z" fill="#22687f"/><path d="m7.49899 6.33765c-2.07024 0-3.7485 1.67826-3.7485 3.74845v9.9029c0 2.0702 1.67826 3.7485 3.7485 3.7485h17.98041c2.0702 0 3.7485-1.6783 3.7485-3.7485v-9.9029c0-2.07019-1.6783-3.74845-3.7485-3.74845z" fill="#45889f"/><path d="m3.75098 17h25.4775v3.2439h-25.4775z" fill="#ccc"/><rect fill="#d5b13e" height="3.05023" rx=".6" width="4.16895" x="21.0596" y="10.3376"/></svg>