<svg fill="none" height="32" viewBox="0 0 33 32" width="33" xmlns="http://www.w3.org/2000/svg"><path clip-rule="evenodd" d="m7.97793 6.86243h16.30877c2.5405 0 4.6 2.05949 4.6 4.59997v6.5h-25.50877v-6.5c0-2.54048 2.05949-4.59997 4.6-4.59997zm-4.55174 14.34387h25.41221c-.3238 2.2236-2.2384 3.9313-4.5517 3.9313h-16.30877c-2.31337 0-4.22788-1.7077-4.55174-3.9313zm18.23341-9.9062c-.3314 0-.6.2686-.6.6v1.8502c0 .3314.2686.6.6.6h2.9689c.3314 0 .6-.2686.6-.6v-1.8502c0-.3314-.2686-.6-.6-.6z" fill="#000" fill-rule="evenodd"/></svg>