<svg height="32" viewBox="0 0 32 32" width="32" xmlns="http://www.w3.org/2000/svg"><g fill="none" fill-rule="evenodd"><path d="m16.7940023 6c2.4716199 0 4.5879814 1.52104167 5.4640945 3.67813484.3579311-.07423193.7302468-.11271483 1.1115005-.11271483 3.091728 0 5.5982546 2.52835139 5.5982546 5.64708299 0 2.904944-2.1741465 5.2974747-4.9703184 5.6123226-.1105247 1.7763501-1.5398974 3.1959464-3.3210656 3.2917374l-.2044679.0047199.0000851-.2465342c0-.8890069-.1428586-1.5707686-.4128631-2.1496709l-.094689-.189301c-.3311835-.6192593-.8171818-1.1052576-1.4364411-1.436441-.5573333-.2980652-1.2059277-.4707303-2.0501688-.5022827l-.2888031-.0052695h-.326871c-.9877855 0-1.7197127.1763687-2.3389719.5075522-.6192593.3311834-1.1052576.8171817-1.4364411 1.436441-.2980651.5573333-.4707302 1.2059277-.5022826 2.0501689l-.0052695.288803v2.3183995c-2.1421954 0-3.89107888-1.6839685-3.9951047-3.8003596l-.0021792-.0845057-.18520855.0072035-.06252762.0004448c-2.39370327 0-4.33426383-1.9605358-4.33426383-4.3793931 0-1.6209562.87188357-3.0362411 2.16731687-3.7934519-.26670686-.6136847-.41504173-1.2909943-.41504173-2.0030757 0-2.78174144 2.25831531-5.0367276 5.04375584-5.0367276.98708092 0 1.90785922.28326853 2.68538822.7727775 1.0745946-1.15363933 2.6092236-1.8760604 4.3125831-1.8760604zm-.8304591 6.3399987c-1.5437361 0-2.7951815 1.2514454-2.7951815 2.7951814 0 1.5437361 1.2514454 2.7951815 2.7951815 2.7951815s2.7951814-1.2514454 2.7951814-2.7951815c0-1.543736-1.2514453-2.7951814-2.7951814-2.7951814z" fill="#00a1e0"/><path d="m22.9043003 14.0482156c2.515568 0 4.6458162 1.6483578 5.3664666 3.9225463-.8606071 1.5499323-2.4254142 2.6478099-4.2571594 2.8540637-.1105246 1.7763501-1.5398973 3.1959464-3.3210656 3.2917374l-.2044679.0047199.0000851-.2465342c0-.8890069-.1428586-1.5707686-.4128631-2.1496709l-.094689-.189301c-.3311835-.6192593-.8171818-1.1052576-1.436441-1.436441-.5573334-.2980652-1.2059277-.4707303-2.0501689-.5022827l-.2888031-.0052695h-.326871c-.9877854 0-1.7197126.1763687-2.3389719.5075522-.6192593.3311834-1.1052576.8171817-1.436441 1.436441-.2980652.5573333-.4707303 1.2059277-.5022827 2.0501689l-.0052695.288803v2.3183995c-2.14219536 0-3.89107884-1.6839685-3.99510466-3.8003596l-.0021792-.0845057-.18520855.0072035-.06252763.0004448c-2.07336945 0-3.80676328-1.4709149-4.23356962-3.4365172 1.14515583-1.2799165 2.80076336-2.0840067 4.6424822-2.0840067.89935852 0 1.75414126.1919237 2.52637616.5369736.635389-1.1320725 1.6695984-1.9999527 2.9066333-2.4026669-.0053125.0677362-.0078241.1363079-.0078241.2054661 0 1.5437361 1.2514453 2.7951815 2.7951814 2.7951815 1.2381818 0 2.288329-.8050718 2.6555356-1.9203094 1.0306589-1.2014969 2.5609196-1.9618366 4.2691475-1.9618366z" fill="#018dc3" fill-rule="nonzero"/></g></svg>