<svg height="32" viewBox="0 0 32 32" width="32" xmlns="http://www.w3.org/2000/svg"><path d="m16.7940023 5.4c2.4091057 0 4.5724425 1.32385673 5.6957309 3.37039092l.1262668.24260908.1299348-.01613755.1547912-.01373661.1555905-.00982793.3132808-.0078779c3.4242831 0 6.1982546 2.79815359 6.1982546 6.24708299 0 2.8650435-1.9231477 5.310388-4.5779331 6.0319687l-.2361142.0591623-.2188046.045366-.0226929.1237266c-.3560293 1.6548716-1.7071132 2.9390627-3.4075189 3.2008194l-.2056841.0264614-.2087896.0163958-.2044679.0047199c-.3061667.0070675-.563074-.2162144-.6071667-.5099672l-.0066799-.0900801.0000851-.2463271c0-.6848631-.0904763-1.2314525-.26805-1.6899858l-.0814257-.1912695-.0871644-.1747573c-.2752636-.5146982-.6756142-.9150488-1.1903124-1.1903124-.4301424-.2300427-.917149-.367149-1.5149931-.4159491l-.2631622-.0155213-.2778573-.0051697h-.326871c-.8638755 0-1.5076586.1433771-2.0560126.4366401-.5146982.2752636-.9150489.6756142-1.1903124 1.1903124-.2300427.4301424-.367149.917149-.4159491 1.5149931l-.0155214.2631622-.0051696.2778573v2.3183995c0 .3313709-.2686292.6-.6.6-2.16384765 0-3.9891009-1.4976538-4.47427252-3.5351738l-.04536879-.2126644-.02364259-.14031-.12768577-.0073561c-2.38223734-.2054751-4.27969559-2.1184266-4.48910809-4.5187814l-.01465025-.2264239-.00455589-.2159005c0-1.4752639.64173043-2.8387888 1.70923569-3.7689842l.19275914-.1595885.13400517-.1019654-.02030078-.0605186c-.11574736-.3642662-.19424228-.7406305-.23371141-1.1245332l-.0222568-.2892692-.00745587-.2916685c0-3.11324014 2.52707192-5.6367276 5.64375584-5.6367276.78383372 0 1.54476912.16023357 2.24496092.46385179l.2596506.12054508.0803575.04232023.0621299-.05765292c1.0356034-.93575939 2.3483435-1.51797067 3.7597097-1.6456984l.3038802-.02037707zm0 1.2c-1.489632 0-2.8791826.61751163-3.8735448 1.68501681-.1963782.21082339-.5148847.25229864-.7587046.09879693-.7027134-.44240731-1.5158532-.68053084-2.36572192-.68053084-2.45432322 0-4.44375584 1.98661076-4.44375584 4.4367276 0 .6151353.12544954 1.2119885.36532066 1.7639249.12109854.2786442.014802.6038301-.24749658.7571497-1.14775042.6708867-1.87009922 1.9088849-1.87009922 3.275453 0 2.0214052 1.56703669 3.6699073 3.53219591 3.7741726l.24127675.005229.18520855-.0072035c.3007711-.0116982.55789741.1999559.61260012.4861315l.01051927.0979478.00165512.0705171c.07328209 1.4909142 1.10478085 2.7228156 2.48434738 3.1060877l.1818672.0451309.1293297.0244488.0003837-1.6751971.0055883-.3002658c.0339043-.9071707.2199133-1.6509235.5727761-2.3107196.3871034-.7238204.9587493-1.2954663 1.6825696-1.6825697.6596775-.3527993 1.4038205-.5391158 2.3127437-.5728512l.3091876-.005613.3378168.0000999.3002658.0055882c.9071708.0339043 1.6509235.2199133 2.3107196.5727761.6433959.3440919 1.1665552.8339952 1.5520295 1.4571913l.1380649.2399221.1018402.204101c.2114537.4533666.3494577.948504.4179655 1.5095281l.0284809.2861142.0105678.1958955.1017169-.0201805c1.1101065-.2636228 1.9758143-1.1614682 2.1909973-2.2897917l.0297708-.1901188.0162065-.1753434c.0180858-.2906742.242299-.526385.5317065-.5589721 2.5140776-.2830843 4.4374539-2.4380876 4.4374539-5.0160905 0-2.7885081-2.239056-5.047083-4.9982546-5.047083-.3377862 0-.6693652.0337872-.9896582.1002133-.2836077.0588179-.5687479-.0933647-.6777408-.36171781-.8045546-1.98090784-2.7335141-3.30391549-4.908196-3.30391549zm-.8304591 5.1399987c1.8751069 0 3.3951814 1.5200745 3.3951814 3.3951814 0 1.875107-1.5200745 3.3951815-3.3951814 3.3951815-1.875107 0-3.3951815-1.5200745-3.3951815-3.3951815 0-1.8751069 1.5200745-3.3951814 3.3951815-3.3951814zm0 1.2c-1.2123653 0-2.1951815.9828162-2.1951815 2.1951814 0 1.2123653.9828162 2.1951815 2.1951815 2.1951815 1.2123652 0 2.1951814-.9828162 2.1951814-2.1951815 0-1.2123652-.9828162-2.1951814-2.1951814-2.1951814z"/></svg>