<svg height="32" viewBox="0 0 32 32" width="32" xmlns="http://www.w3.org/2000/svg"><g fill="none" fill-rule="evenodd"><path d="m6.5 6.5h19v19h-19z" fill="#d2eab1"/><g fill-rule="nonzero"><path d="m22.0952561 21.866705v-11.89028031h-12.0730738v11.89028031z" fill="#6ec38c"/><path d="m20.1019368 16.966099-1.8801615-1.4188255-2.489473 2.3589062-2.2631573-.6876516-1.4536434 1.5493923v1.061943h8.0864352z" fill="#257843"/><path d="m14.2090233 15.2948444c.6963561 0 1.2621455-.5570849 1.2708499-1.253441 0-.6963561-.5570849-1.2621454-1.253441-1.2708499-.6963561 0-1.2621454.5570849-1.2708498 1.253441v.0087044c0 .6963561.5570848 1.253441 1.2534409 1.2621455z" fill="#257843"/><path d="m23.1 10.1v12.4c0 .33-.27.6-.6.6h-12.4v3.4c0 .33-.27.6-.6.6s-.6-.27-.6-.6v-3.4h-3.4c-.33 0-.6-.27-.6-.6s.27-.6.6-.6h3.4v-12.4c0-.33.27-.6.6-.6h12.42v-3.4c0-.33.27-.6.6-.6s.6.27.6.6v3.4h3.38c.33 0 .6.27.6.6s-.27.6-.6.6zm-1.2 0h-11.8v11.8h11.8z" fill="#252d4f"/></g></g></svg>