<svg height="32" viewBox="0 0 32 32" width="32" xmlns="http://www.w3.org/2000/svg"><path d="m22.52 4.9c.297 0 .5454.2187.59211.50301l.00789.09699v3.4h3.38c.33 0 .6.27.6.6 0 .297-.2187.5454-.50301.59211l-.09699.00789h-3.4v12.4c0 .297-.2187.5454-.50301.59211l-.09699.00789h-12.4v3.4c0 .33-.27.6-.6.6-.297 0-.5454-.2187-.59211-.50301l-.00789-.09699v-3.4h-3.4c-.33 0-.6-.27-.6-.6 0-.297.2187-.5454.50301-.59211l.09699-.00789h3.399l.001-12.4c0-.297.2187-.5454.50301-.59211l.09699-.00789h12.42v-3.4c0-.33.27-.6.6-.6zm-4.08 10.88-2.76 2.55-2.51-.74-1.61 1.67v1.14h8.96v-3.09zm-4.57-3.82h-.03l-.1383402.0077829c-.7740363.0782665-1.3716598.7288838-1.3716598 1.5222171.0094118.7717647.6034602 1.4195156 1.356955 1.5013882l.163045.0086118.1484961-.0069922c.3427539-.0325391.6577539-.1780078.9115039-.4230078.29-.28.45-.66.46-1.07s-.15-.79-.43-1.08c-.245-.25375-.5665625-.4079688-.917793-.4492578z"/></svg>