<svg height="32" viewBox="0 0 32 32" width="32" xmlns="http://www.w3.org/2000/svg"><path d="m26.5 8.9h-3.38v-3.4c0-.33-.27-.6-.6-.6s-.6.27-.6.6v3.4h-12.42c-.33 0-.6.27-.6.6v11c0 .33.27.6.6.6s.6-.27.6-.6v-10.4h16.4c.33 0 .6-.27.6-.6s-.27-.6-.6-.6zm-4 1.97c-.33 0-.6.27-.6.6v10.43h-16.4c-.33 0-.6.27-.6.6s.27.6.6.6h3.4v3.4c0 .33.27.6.6.6s.6-.27.6-.6v-3.4h12.4c.33 0 .6-.27.6-.6v-11.03c0-.33-.27-.6-.6-.6zm-10.94 9.53h8.96v-3.09l-2.08-1.53-2.76 2.55-2.51-.74-1.61 1.67zm2.29-5.4c.4 0 .77-.15 1.06-.43s.45-.66.46-1.07-.15-.79-.43-1.08-.66-.45-1.07-.46h-.03c-.84.01-1.51.69-1.51 1.53.01.82.68 1.5 1.5 1.51z"/></svg>