<svg height="32" viewBox="0 0 32 32" width="32" xmlns="http://www.w3.org/2000/svg"><path d="m16.6 15.4h1.9c.3313708 0 .6.2686292.6.6s-.2686292.6-.6.6h-1.9v1.9c0 .3313708-.2686292.6-.6.6s-.6-.2686292-.6-.6v-1.9h-1.9c-.3313708 0-.6-.2686292-.6-.6s.2686292-.6.6-.6h1.9v-1.9c0-.3313708.2686292-.6.6-.6s.6.2686292.6.6zm-9.5-2.9c0 .3313708-.26862915.6-.6.6s-.6-.2686292-.6-.6v-4c0-1.43594035 1.16405965-2.6 2.6-2.6h4c.3313708 0 .6.26862915.6.6s-.2686292.6-.6.6h-4c-.77319865 0-1.4.62680135-1.4 1.4zm12.4-5.4c-.3313708 0-.6-.26862915-.6-.6s.2686292-.6.6-.6h4c1.4359403 0 2.6 1.16405965 2.6 2.6v4c0 .3313708-.2686292.6-.6.6s-.6-.2686292-.6-.6v-4c0-.77319865-.6268014-1.4-1.4-1.4zm5.4 12.4c0-.3313708.2686292-.6.6-.6s.6.2686292.6.6v4c0 1.4359403-1.1640597 2.6-2.6 2.6h-4c-.3313708 0-.6-.2686292-.6-.6s.2686292-.6.6-.6h4c.7731986 0 1.4-.6268014 1.4-1.4zm-12.4 5.4c.3313708 0 .6.2686292.6.6s-.2686292.6-.6.6h-4c-1.43594035 0-2.6-1.1640597-2.6-2.6v-4c0-.3313708.26862915-.6.6-.6s.6.2686292.6.6v4c0 .7731986.62680135 1.4 1.4 1.4z"/></svg>