<svg height="32" viewBox="0 0 32 32" width="32" xmlns="http://www.w3.org/2000/svg"><path d="m25.5 18.8c.3865993 0 .7.3134007.7.7v4c0 1.4911688-1.2088312 2.7-2.7 2.7h-4c-.3865993 0-.7-.3134007-.7-.7s.3134007-.7.7-.7h4c.7179702 0 1.3-.5820298 1.3-1.3v-4c0-.3865993.3134007-.7.7-.7zm-19 0c.38659932 0 .7.3134007.7.7v4c0 .7179702.58202983 1.3 1.3 1.3h4c.3865993 0 .7.3134007.7.7s-.3134007.7-.7.7h-4c-1.49116882 0-2.7-1.2088312-2.7-2.7v-4c0-.3865993.31340068-.7.7-.7zm15.7487309-9.52373086c.2623352 0 .475.21266475.475.475v12.49746176c0 .2623352-.2126648.475-.475.475h-12.49746176c-.26233525 0-.475-.2126648-.475-.475v-12.49746176c0-.26233525.21266475-.475.475-.475zm-6.2487309 3.52373086c-.3543827 0-.6472582.2633436-.6936098.6050141l-.0063902.0949859v1.8h-1.8c-.3865993 0-.7.3134007-.7.7 0 .3543827.2633436.6472582.6050141.6936098l.0949859.0063902h1.8v1.8c0 .3865993.3134007.7.7.7.3543827 0 .6472582-.2633436.6936098-.6050141l.0063902-.0949859v-1.8h1.8c.3865993 0 .7-.3134007.7-.7 0-.3543827-.2633436-.6472582-.6050141-.6936098l-.0949859-.0063902h-1.8v-1.8c0-.3865993-.3134007-.7-.7-.7zm-3.5-7c.3865993 0 .7.31340068.7.7s-.3134007.7-.7.7h-4c-.71797017 0-1.3.58202983-1.3 1.3v4c0 .3865993-.31340068.7-.7.7s-.7-.3134007-.7-.7v-4c0-1.49116882 1.20883118-2.7 2.7-2.7zm11 0c1.4911688 0 2.7 1.20883118 2.7 2.7v4c0 .3865993-.3134007.7-.7.7s-.7-.3134007-.7-.7v-4c0-.71797017-.5820298-1.3-1.3-1.3h-4c-.3865993 0-.7-.31340068-.7-.7s.3134007-.7.7-.7z" fill-rule="evenodd"/></svg>