<svg height="32" viewBox="0 0 32 32" width="32" xmlns="http://www.w3.org/2000/svg"><g fill="none" fill-rule="evenodd"><rect fill="#d2eab1" height="13.447462" rx=".475" width="13.447462" x="9.276269" y="9.276269"/><path d="m18.5 15.3c.3865993 0 .7.3134007.7.7s-.3134007.7-.7.7h-1.8v1.8c0 .3865993-.3134007.7-.7.7s-.7-.3134007-.7-.7v-1.8h-1.8c-.3865993 0-.7-.3134007-.7-.7s.3134007-.7.7-.7h1.8v-1.8c0-.3865993.3134007-.7.7-.7s.7.3134007.7.7v1.8zm-11.3-2.8c0 .3865993-.31340068.7-.7.7s-.7-.3134007-.7-.7v-4c0-1.49116882 1.20883118-2.7 2.7-2.7h4c.3865993 0 .7.31340068.7.7s-.3134007.7-.7.7h-4c-.71797017 0-1.3.58202983-1.3 1.3zm12.3-5.3c-.3865993 0-.7-.31340068-.7-.7s.3134007-.7.7-.7h4c1.4911688 0 2.7 1.20883118 2.7 2.7v4c0 .3865993-.3134007.7-.7.7s-.7-.3134007-.7-.7v-4c0-.71797017-.5820298-1.3-1.3-1.3zm5.3 12.3c0-.3865993.3134007-.7.7-.7s.7.3134007.7.7v4c0 1.4911688-1.2088312 2.7-2.7 2.7h-4c-.3865993 0-.7-.3134007-.7-.7s.3134007-.7.7-.7h4c.7179702 0 1.3-.5820298 1.3-1.3zm-12.3 5.3c.3865993 0 .7.3134007.7.7s-.3134007.7-.7.7h-4c-1.49116882 0-2.7-1.2088312-2.7-2.7v-4c0-.3865993.31340068-.7.7-.7s.7.3134007.7.7v4c0 .7179702.58202983 1.3 1.3 1.3z" fill="#3e5b63" fill-rule="nonzero"/></g></svg>