<svg height="32" viewBox="0 0 32 32" width="32" xmlns="http://www.w3.org/2000/svg"><g fill="none" fill-rule="evenodd"><path d="m26.1 19.4725002v3.622045c0 1.912888-1.5104896 3.463911-3.3733875 3.463911h-13.45322505c-1.86289783 0-3.37338745-1.551023-3.37338745-3.463911v-3.622045" fill="#bb3600"/><path d="m22.7266125 23.2165805h-13.45322505c-1.86289783 0-3.37338745-1.5055181-3.37338745-3.3622845v-11.4656665c0-1.85676637 1.51048962-3.36204902 3.37338745-3.36204902h13.45322505c1.8631341 0 3.3733875 1.50528265 3.3733875 3.36204902v11.4656665c0 1.8567664-1.5102534 3.3622845-3.3733875 3.3622845z" fill="#f8813d"/><g fill-rule="nonzero"><path d="m15.9924753 14.4335507c-.5371068 0-.975-.4378932-.975-.975v-5.02999997c0-.53710678.4378932-.975.975-.975s.975.43789322.975.975v5.02999997c0 .5371068-.4378932.975-.975.975zm0 1.6060595c.7642417 0 1.375.6149998 1.375 1.375 0 .7642417-.6149997 1.375-1.375 1.375-.7571068 0-1.375-.6178932-1.375-1.375 0-.7642416.6149997-1.375 1.375-1.375zm-1.375 1.375h2.7485656v1.0425898h-2.7485656z" fill="#bb3600"/><path d="m15.9924753 15.4335507c-.5371068 0-.975-.4378932-.975-.975v-5.02999997c0-.53710678.4378932-.975.975-.975s.975.43789322.975.975v5.02999997c0 .5371068-.4378932.975-.975.975zm0 1.6060595c.7642417 0 1.375.6149998 1.375 1.375 0 .7642417-.6149997 1.375-1.375 1.375-.7571068 0-1.375-.6178932-1.375-1.375 0-.7642416.6149997-1.375 1.375-1.375z" fill="#fff"/></g></g></svg>