<svg height="32" viewBox="0 0 32 32" width="32" xmlns="http://www.w3.org/2000/svg"><path d="m22.7266125 4.42658048c2.1275345 0 3.8651663 1.66757344 3.9685236 3.76426482l.0048639.1977842v8.9580907c0 .0088694-.002061.0201484-.0061831.0338372l.0061831.0919428v5.622045c0 2.1728533-1.6695345 3.9530332-3.7747817 4.0589276l-.1986058.0049834h-13.45322505c-2.1312743 0-3.86539289-1.7143358-3.96853389-3.8613955l-.00485356-.2025155v-5.622045c0-.034938.00298621-.0691786.00871733-.1024803l-.00871733-.0404469v-8.9409435c0-2.12222931 1.67331253-3.85418304 3.77512514-3.95720114l.19826231-.00484788zm2.7745209 17.43571072c-.2802295 1.1079864-.9521484 1.8871569-2.5595147 1.9501642l-.2150062.0041251h-13.45322505c-1.76341727 0-2.48227724-.7984608-2.77462175-1.9549656l.0012343 1.2329303c0 1.5263164 1.15491996 2.7687585 2.60482994 2.8586975l.16855751.0052135h13.45322505c1.4713295 0 2.6807431-1.1859118 2.768311-2.6891068l.0050765-.1748042zm-9.5086581-4.822681c-.7600003 0-1.375.6107584-1.375 1.375 0 .7571068.6178932 1.375 1.375 1.375.7600003 0 1.375-.6107583 1.375-1.375 0-.7600002-.6107583-1.375-1.375-1.375zm0-8.58605947c-.498742 0-.9119376.37757119-.968421.86154769l-.006579.11345231v5.02999997c0 .5371068.4378932.975.975.975.498742 0 .9119377-.3775712.968421-.8615477l.006579-.1134523v-5.02999997c0-.53710678-.4378932-.975-.975-.975z"/></svg>