<svg height="32" viewBox="0 0 32 32" width="32" xmlns="http://www.w3.org/2000/svg"><path d="m22.17 4.47775045c2.1021875 0 3.8195996 1.66110352 3.9248849 3.73777618l.0051151.20222382-.0003241 11.78800005.0046482.0484572v3.4084247c0 2.0614391-1.5826707 3.7510002-3.5798975 3.8545846l-.1945349.0050325h-12.65978337c-2.02275677 0-3.66863868-1.6251411-3.76953096-3.6613246l-.00490149-.1982925v-3.4084247l.004-.0554572.00032412-11.78100005c0-2.1021875 1.65171875-3.82898437 3.72780487-3.93485626l.20219513-.00514374zm-15.07559274 19.07640205.00126862.1084799c0 1.4155798 1.06914113 2.5678563 2.41202351 2.6543989l.16240894.0052182h12.65978337c1.363509 0 2.4850928-1.0978311 2.5693514-2.4910627l.005081-.1685544.0002802-.1075182c-.6530653.6351859-1.5250308 1.045766-2.4911776 1.1051737l-.2434267.0074626h-12.34c-1.0632208 0-2.02801527-.4249137-2.73559274-1.113598zm15.07559274-17.87640205h-12.34c-1.44444444 0-2.63851852 1.14057613-2.72498704 2.57342275l-.00501296.16657725v12.32000005c0 1.454074 1.14057613 2.6485048 2.56449322 2.7349865l.16550678.0050135h12.34c1.4444444 0 2.6385185-1.1405762 2.724987-2.5734228l.005013-.1665772v-12.32000005c0-1.45407407-1.1313032-2.6485048-2.5634629-2.73498654zm-6.17 12.50000005c.56 0 1 .45 1 1 0 .56-.45 1-1 1s-1-.45-1-1c0-.56.45-1 1-1zm0-8.91000005c.297 0 .5454.2187.59211.50301l.00789.09699v6.03000005c0 .33-.27.6-.6.6-.297 0-.5454-.2187-.59211-.50301l-.00789-.09699v-6.03000005c0-.33.27-.6.6-.6z"/></svg>