<svg height="32" viewBox="0 0 32 32" width="32" xmlns="http://www.w3.org/2000/svg"><g fill="none" fill-rule="evenodd"><path d="m25.3278711 14.7235113h-8.4166308v-2.8559602c0-.9190253.7111529-1.671952 1.6131795-1.7385011l.1301032-.0047816h4.9300654c.9627885 0 1.7432827.7804943 1.7432827 1.7432827zm-4.2082921-9.83397259c1.2153152 0 2.2004528.98518419 2.2004528 2.20045277 0 1.21526859-.9851376 2.20045278-2.2004528 2.20045278-1.2152686 0-2.2004993-.98518419-2.2004993-2.20045278 0-1.21526858.9852307-2.20045277 2.2004993-2.20045277z" fill="#f8c31c"/><path d="m27 14.1235113c.8836556 0 1.6.7163444 1.6 1.6v10.8947014c0 .3313709-.2686292.6-.6.6s-.6-.2686291-.6-.6v-10.8947014c0-.2209139-.1790861-.4-.4-.4h-22c-.2209139 0-.4.1790861-.4.4v10.8947014c0 .3313709-.26862915.6-.6.6s-.6-.2686291-.6-.6v-10.8947014c0-.8836556.7163444-1.6 1.6-1.6z" fill="#777" fill-rule="nonzero"/><path d="m15.0887597 17.2232802c0 .8573629-.6189241 1.5701684-1.4343489 1.715993l-.1303226.0182516v7.2812951c0 .447009-.3364886.8154268-.7699896.8657772l-.1016518.0058642h-3.54400511c-.48139422 0-.87164134-.3902471-.87164134-.8716414v-7.2812951c-.87888305-.0894445-1.56467149-.8317573-1.56467149-1.7342446v-5.3557291c0-.9190253.71115282-1.671952 1.61317946-1.7385011l.13010324-.0047816h4.93006544c.9627884 0 1.7432827.7804943 1.7432827 1.7432827zm-4.2082921-12.33374149c1.2153151 0 2.2004527.98518419 2.2004527 2.20045277 0 1.21526859-.9851376 2.20045278-2.2004527 2.20045278-1.21526863 0-2.20049941-.98518419-2.20049941-2.20045278 0-1.21526858.98523078-2.20045277 2.20049941-2.20045277z" fill="#2289a3"/></g></svg>