<svg height="32" viewBox="0 0 32 32" width="32" xmlns="http://www.w3.org/2000/svg"><path d="m13.345477 10.1242684c.9627884 0 1.7432827.7804943 1.7432827 1.7432827l-.0007597 2.2549876h1.823l.0002403-2.2549876c0-.9190253.7111529-1.671952 1.6131795-1.7385011l.1301032-.0047816h4.9300654c.9627885 0 1.7432827.7804943 1.7432827 1.7432827l-.0008711 2.2549876 1.673.0009726c.8836556 0 1.6.7163444 1.6 1.6v10.8947014c0 .3313709-.2686292.6-.6.6s-.6-.2686291-.6-.6v-10.8947014c0-.2209139-.1790861-.4-.4-.4l-11.912-.0009726.0007597 1.9007415c0 .8573629-.6189241 1.5701684-1.4343489 1.715993l-.1303226.0182516v7.2812951c0 .447009-.3364886.8154268-.7699896.8657772l-.1016518.0058642h-3.54400511c-.48139422 0-.87164134-.3902471-.87164134-.8716414v-7.2812951c-.87888305-.0894445-1.56467149-.8317573-1.56467149-1.7342446l-.00012886-1.8997689h-1.672c-.2209139 0-.4.1790861-.4.4v10.8947014c0 .3313709-.26862915.6-.6.6s-.6-.2686291-.6-.6v-10.8947014c0-.8836556.7163444-1.6 1.6-1.6h1.672l.00012886-2.2559602c0-.9190253.71115282-1.671952 1.61317946-1.7385011l.13010324-.0047816zm-4.88599242 1.1991904-.08588349.0023386c-.28104032.0207344-.50147223.2570131-.50147223.5417537v5.1347102c0 .4121537.33257808.7470807.74472156.7499814l.81994993.0057709-.00067149 8.1515251 2.88700004.002.0009593-8.1645374h.8146715c.4142135 0 .75-.3357864.75-.75v-5.1294502c0-.3000467-.243236-.5432827-.5432827-.5432827zm10.23911152 0-.0858835.0023386c-.2810404.0207344-.5014723.2570131-.5014723.5417537v2.2519876h6.016l.0006308-2.2519876c0-.2700421-.1970211-.4940674-.4551594-.536172l-.0881233-.0071107zm-7.8181285-6.43392009c1.2153151 0 2.2004527.98518419 2.2004527 2.20045277 0 1.16243083-.9013357 2.11434965-2.0433008 2.19492779l-.1571519.00552499c-1.21526863 0-2.20049941-.98518419-2.20049941-2.20045278 0-1.16243082.90142098-2.11434964 2.04335271-2.19492778zm10.2391114 0c1.2153152 0 2.2004528.98518419 2.2004528 2.20045277 0 1.16243083-.9013357 2.11434965-2.0433008 2.19492779l-.157152.00552499c-1.2152686 0-2.2004993-.98518419-2.2004993-2.20045278 0-1.16243082.9014209-2.11434964 2.0433527-2.19492778zm-10.2391114 1.2c-.5525437 0-1.00049941.44794263-1.00049941 1.00045277 0 .55251015.44795571 1.00045278 1.00049941 1.00045278.5525534 0 1.0004527-.44790587 1.0004527-1.00045278 0-.5525469-.4478993-1.00045277-1.0004527-1.00045277zm10.2391114 0c-.5525436 0-1.0004993.44794263-1.0004993 1.00045277 0 .55251015.4479557 1.00045278 1.0004993 1.00045278.5525535 0 1.0004528-.44790587 1.0004528-1.00045278 0-.5525469-.4478993-1.00045277-1.0004528-1.00045277z"/></svg>