<svg height="32" viewBox="0 0 32 32" width="32" xmlns="http://www.w3.org/2000/svg"><path d="m13.345477 10.1242684c.9627884 0 1.7432827.7804943 1.7432827 1.7432827l-.0007597 2.2549876h1.823l.0002403-2.2549876c0-.9190253.7111529-1.671952 1.6131795-1.7385011l.1301032-.0047816h4.9300654c.9627885 0 1.7432827.7804943 1.7432827 1.7432827l-.0008711 2.2549876 1.673.0009726c.8836556 0 1.6.7163444 1.6 1.6v10.8947014c0 .3313709-.2686292.6-.6.6s-.6-.2686291-.6-.6v-10.8947014c0-.2209139-.1790861-.4-.4-.4l-11.912-.0009726.0007597 1.9007415c0 .8573629-.6189241 1.5701684-1.4343489 1.715993l-.1303226.0182516v7.2812951c0 .447009-.3364886.8154268-.7699896.8657772l-.1016518.0058642h-3.54400511c-.48139422 0-.87164134-.3902471-.87164134-.8716414v-7.2812951c-.87888305-.0894445-1.56467149-.8317573-1.56467149-1.7342446l-.00012886-1.9007415-1.672.0009726c-.2209139 0-.4.1790861-.4.4v10.8947014c0 .3313709-.26862915.6-.6.6s-.6-.2686291-.6-.6v-10.8947014c0-.8836556.7163444-1.6 1.6-1.6l1.672-.0009726.00012886-2.2549876c0-.9190253.71115282-1.671952 1.61317946-1.7385011l.13010324-.0047816zm4.0660008 13.3237492c.55 0 1 .45 1 1 0 .56-.45 1-1 1s-1-.45-1-1c0-.56.45-1 1-1zm6.95.4c.33 0 .6.27.6.6s-.27.6-.6.6h-4c-.33 0-.6-.27-.6-.6s.27-.6.6-.6zm-6.95-5.34c.55.01 1 .45 1 1 0 .56-.45 1-1 1s-1-.45-1-1c0-.56.45-1 1-1zm7.14.4c.33 0 .6.27.6.6s-.27.6-.6.6h-4c-.33 0-.6-.27-.6-.6s.27-.6.6-.6zm-13.6710102-14.01847889c1.2153151 0 2.2004527.98518419 2.2004527 2.20045277 0 1.21526859-.9851376 2.20045278-2.2004527 2.20045278-1.21526863 0-2.20049941-.98518419-2.20049941-2.20045278 0-1.21526858.98523078-2.20045277 2.20049941-2.20045277zm10.2391114 0c1.2153152 0 2.2004528.98518419 2.2004528 2.20045277 0 1.21526859-.9851376 2.20045278-2.2004528 2.20045278-1.2152686 0-2.2004993-.98518419-2.2004993-2.20045278 0-1.21526858.9852307-2.20045277 2.2004993-2.20045277z" fill-rule="evenodd"/></svg>