<svg height="32" viewBox="0 0 32 32" width="32" xmlns="http://www.w3.org/2000/svg"><path d="m7.58127038 21.9396084c.18205605.3167432.07287054.7210998-.24387265.9031559-.31674319.182056-.72109988.0728705-.90315593-.2438727-.9510659-1.6546753-1.4592418-3.5298868-1.4592418-5.4746416 0-6.0762864 4.94871364-11.025 11.025-11.025 6.0762864 0 11.025 4.9487136 11.025 11.025 0 1.9447548-.5081759 3.8199663-1.4592418 5.4746416-.1820561.3167432-.5864127.4259287-.9031559.2438727-.3167432-.1820561-.4259287-.5864127-.2438727-.9031559.8366229-1.4555661 1.2832704-3.1037327 1.2832704-4.8153584 0-5.3456136-4.3563864-9.702-9.702-9.702s-9.702 4.3563864-9.702 9.702c0 1.7116257.4466475 3.3597923 1.28327038 4.8153584zm10.27134942-5.7406208c.4313351.7990306.311127 1.8101933-.3676956 2.4890158-.8202438.8202439-2.1496046.8202439-2.9698484 0-.8202439-.8202438-.8202439-2.1496046 0-2.9698485.6788225-.6788225 1.6899852-.7990306 2.4890158-.3676955l3.5284629-3.5284628c.2333452-.2333453.6151829-.2333453.8485281 0 .2333452.2333452.2333452.6151829 0 .8485281z"/></svg>