<svg height="32" viewBox="0 0 32 32" width="32" xmlns="http://www.w3.org/2000/svg"><g fill="none"><path d="m6.11630342 23.7723596c-.25445897.0024843-.50280073-.1288022-.63863744-.3651324-1.04617249-1.8201429-1.60516598-3.8828756-1.60516598-6.0221058 0-6.683915 5.443585-12.12750003 12.1275-12.12750003s12.1275 5.44358503 12.1275 12.12750003c0 2.1392302-.5589935 4.2019629-1.605166 6.0221058-.1312094.2282795-.3673893.3585502-.6126582.3649217-.129079.0033531-19.67268698-.0009676-19.79337238.0002107z" fill="#f2d784"/><path d="m6.11630342 23.7723596c-.25445897.0024843-.50280073-.1288022-.63863744-.3651324-1.04617249-1.8201429-1.60516598-3.8828756-1.60516598-6.0221058 0-6.683915 5.443585-12.12750003 12.1275-12.12750003l.0129896 18.51582993c-6.56179282-.0010793-9.86068822-.0014432-9.89668618-.0010917z" fill="#e3bf4e"/><path d="m17.6628288 18.8541782c-.9769603.9769602-2.5603343.9769602-3.5372946 0-.9769603-.9769603-.9769603-2.5603344 0-3.5372946.7758563-.7758563 1.9402365-.9533137 2.8979193-.4722955l3.9827667-3.9827668c.3058711-.3058711.8057999-.3058711 1.1116709 0 .305871.305871.305871.8057998 0 1.1116708l-3.9827668 3.9827668c.4810182.9576828.3035608 2.122063-.4722955 2.8979193z" fill="#252d4f"/></g></svg>