<svg height="32" viewBox="0 0 32 32" width="32" xmlns="http://www.w3.org/2000/svg"><path d="m16 6.09925c6.0762864 0 11.025 4.9487136 11.025 11.025 0 1.9447548-.5081759 3.8199663-1.4592418 5.4746416-.1192813.2075269-.3339903.3259548-.556962.331747l-.3064777.0005709c-.038134.000031-.0796128.0000606-.124319.0000889l-10.3596915-.0000205c-.1310514-.0000151-.2615736-.0000303-.3914494-.0000455l-6.81203731-.0004022c-.23132633.0022585-.45709157-.1170929-.58057949-.3319386-.9510659-1.6546753-1.4592418-3.5298868-1.4592418-5.4746416 0-6.0762864 4.94871364-11.025 11.025-11.025zm5.3810826 5.7227466c-.2333452-.2333453-.6151829-.2333453-.8485281 0l-3.5284629 3.5284628c-.7990306-.4313351-1.8101933-.311127-2.4890158.3676955-.8202439.8202439-.8202439 2.1496047 0 2.9698485.8202438.8202439 2.1496046.8202439 2.9698484 0 .6788226-.6788225.7990307-1.6899852.3676956-2.4890158l3.5284628-3.5284629c.2333452-.2333452.2333452-.6151829 0-.8485281z"/></svg>