<svg height="32" viewBox="0 0 32 32" width="32" xmlns="http://www.w3.org/2000/svg"><g fill="none"><path d="m22.8529352 7.81586593c.1645096-.0004244.3247046.05260999.4564604.15111901l3.23197 2.41642696c.3357234.2510082.4043986.7266482.1533903 1.0623716-.0429257.0574131-.0937687.1084556-.1510133.1516059l-3.2194005 2.426742c-.3347379.252321-.8106431.1855089-1.0629642-.1492289-.098825-.1311047-.1524748-.2907191-.1529009-.4548978l-.0044975-1.5979388-3.3291431.000144c-.9851053 0-1.8764184.5842035-2.2694649 1.4875012l-2.6276774 6.0389154c-.6550776 1.5054962-2.1405994 2.4791686-3.7824416 2.4791686h-4.116173c-.45563492 0-.825-.3693651-.825-.825s.36936508-.825.825-.825h4.116173c.9851053 0 1.8764184-.5842034 2.269465-1.4875012l2.6276773-6.0389153c.6550777-1.5054962 2.1405994-2.4791687 3.7824416-2.4791687l3.3247431-.000144-.0036719-1.59523015c-.0010879-.41918271.3378449-.75987936.7570276-.76096982z" fill="#b34874"/><path d="m22.8529352 10.1722099c.1645096-.0004244.3247046.05261.4564604.151119l3.23197 2.416427c.3357234.2510082.4043986.7266482.1533903 1.0623715-.0429257.0574132-.0937687.1084557-.1510133.151606l-3.2194005 2.426742c-.3347379.252321-.8106431.1855089-1.0629642-.1492289-.098825-.1311047-.1524748-.2907191-.1529009-.4548978l-.0044975-1.5979388-3.3291431.000144c-.9851053 0-1.8764184.5842035-2.2694649 1.4875012l-2.6276774 6.0389153c-.6550776 1.5054963-2.1405994 2.4791687-3.7824416 2.4791687h-4.116173c-.45563492 0-.825-.3693651-.825-.825s.36936508-.825.825-.825h4.116173c.9851053 0 1.8764184-.5842034 2.269465-1.4875012l2.6276773-6.0389153c.6550777-1.5054962 2.1405994-2.4791687 3.7824416-2.4791687l3.3247431-.000144-.0036719-1.5952302c-.0010879-.4191827.3378449-.7598793.7570276-.7609698z" fill="#4588a0" transform="matrix(1 0 0 -1 0 34.35635)"/></g></svg>