<svg height="32" viewBox="0 0 32 32" width="32" xmlns="http://www.w3.org/2000/svg"><path d="m23.229824 17.9149328.0945181.0609409 3.2194005 2.426742c.0572446.0431503.1080876.0941927.1510133.1516059.2281893.3052031.1921775.7260397-.06849.9886193l-.0849003.0737523-3.23197 2.4164269c-.1317558.098509-.2919508.1515434-.4564604.151119-.3842508-.0009998-.7010695-.2873627-.7503662-.6579604l-.0066614-.1030094.0036719-1.5955034-3.3247431.0001292c-1.6418422 0-3.1273639-.9736724-3.7824416-2.4791686-.1817935-.417797.0095251-.9038611.4273221-1.0856546.4177969-.1817935.903861.0095251 1.0856546.427322.3684811.8468417 1.1748918 1.4132293 2.0859555 1.4807198l.1835094.0067814 3.3291431-.0001292.0044975-1.5976655c.0003196-.1231341.0305775-.2437007.0873783-.3515979l.0655226-.1032999c.2293828-.3043072.6435459-.387188.9684461-.2101698zm-.3768888-10.09906687c.1645096-.0004244.3247046.05260999.4564604.15111901l3.23197 2.41642696c.3357234.2510082.4043986.7266482.1533903 1.0623716-.0429257.0574131-.0937687.1084556-.1510133.1516059l-3.2194005 2.426742c-.3347379.252321-.8106431.1855089-1.0629642-.1492289-.098825-.1311047-.1524748-.2907191-.1529009-.4548978l-.0044975-1.5979388-3.3291431.000144c-.9851053 0-1.8764184.5842035-2.2694649 1.4875012l-2.6276774 6.0389154c-.6550776 1.5054962-2.1405994 2.4791686-3.7824416 2.4791686h-4.116173c-.45563492 0-.825-.3693651-.825-.825s.36936508-.825.825-.825h4.116173c.9851053 0 1.8764184-.5842034 2.269465-1.4875012l2.6276773-6.0389153c.6550777-1.5054962 2.1405994-2.4791687 3.7824416-2.4791687l3.3247431-.000144-.0036719-1.59523015c-.0010879-.41918271.3378449-.75987936.7570276-.76096982zm-12.7576827 2.35634397c1.6418422 0 3.127364.9736725 3.7824416 2.4791687.1817935.417797-.0095251.9038611-.427322 1.0856546-.417797.1817935-.9038611-.0095251-1.0856546-.4273221-.3684812-.8468416-1.1748919-1.4132293-2.0859556-1.4807198l-.1835094-.0067814h-4.116173c-.45563492 0-.825-.3693651-.825-.825 0-.4176653.31036927-.76284.71305238-.8174687l.11194762-.0075313z"/></svg>