<svg fill="none" height="32" viewBox="0 0 32 32" width="32" xmlns="http://www.w3.org/2000/svg"><path d="m7.58008 22.3779c1.01952 0 1.87859.6862 2.14062 1.6221l4.1367.001c.3314 0 .5996.2682.5996.5996 0 .3313-.2682.5996-.5996.5996h-4.13572c-.2617.9364-1.12172 1.623-2.1416 1.623-1.22755-.0001-2.22264-.995-2.22266-2.2226 0-1.2276.9951-2.2226 2.22266-2.2227zm8.41992-17.75681c4.3419 0 7.8789 3.537 7.8789 7.87891 0 4.1383-3.2128 7.546-7.2734 7.8564l.0107 2.6485c.0024.5506.4494.9961 1 .9961l4.6631-.001c.262-.9359 1.1211-1.622 2.1406-1.6221 1.2277 0 2.2227.995 2.2227 2.2227 0 1.2276-.995 2.2226-2.2227 2.2226-1.0198 0-1.8789-.6867-2.1406-1.623h-4.6631c-1.2115 0-2.1951-.979-2.2002-2.1904l-.0107-2.6534c-4.0654-.3056-7.28421-3.7147-7.28421-7.8564 0-4.34183 3.53711-7.87877 7.87891-7.87891zm-3.3389 9.94921-.5468 1.6104c-.0328.0968.0185.2023.1152.2353.0386.013.0815.0131.1201 0l1.6104-.5469 4.6884-4.6884-1.2978-1.29886zm6.3369-5.99608c-.2154 0-.4161.06958-.5751.19922l-.0655.05957-.5517.58105 1.3007 1.30074.5235-.5419c.3146-.31951.3522-.82295.1103-1.19048l-.0527-.07129-.0596-.06738c-.1665-.17173-.3943-.2694-.6299-.26953z" fill="#000"/></svg>