<svg fill="none" height="32" viewBox="0 0 32 32" width="32" xmlns="http://www.w3.org/2000/svg"><path clip-rule="evenodd" d="m24.0335 23.3936c.0985-.1318.1515-.292.1511-.4565-.0011-.4192-.3418-.7581-.761-.757l-1.8489.0042-.0001-2.4958c0-1.4302-.8467-2.7248-2.157-3.2981l-6.3107-2.761c-.8736-.3822-1.438-1.2453-1.4381-2.1987v-.4562c1.3278-.305 2.3181-1.49402 2.3181-2.91437 0-1.65146-1.3387-2.99024-2.9902-2.99024-1.65146 0-2.99024 1.33878-2.99024 2.99024 0 1.47134 1.06267 2.69447 2.46234 2.94377v.4268c.0001 1.4302.8468 2.7248 2.1571 3.2981l6.3107 2.761c.8735.3822 1.438 1.2452 1.438 2.1987l.0001 2.499-1.7943.0052c-.1641.0004-.3238.054-.4549.1529-.3347.2523-.4015.7282-.1492 1.0629l2.4267 3.2194c.0432.0573.0942.1081.1517.151.3357.2511.8113.1824 1.0623-.1533zm-11.4862-7.0071c-1.3003.5777-2.1384 1.8671-2.1384 3.2899l-.0001 2.5079-1.83191-.0042-.10301.0067c-.3706.0493-.65696.3661-.65796.7503-.00042.1645.05261.3247.15112.4565l2.41646 3.232.0737.0849c.2626.2606.6834.2966.9886.0684.0575-.0429.1085-.0937.1516-.151l2.4268-3.2194.0609-.0945c.177-.3249.0942-.739-.2101-.9684l-.1033-.0655c-.1079-.0569-.2285-.0871-.3516-.0874-.7751-.0022-.9287-.0029-1.0399-.0033h-.0005c-.11-.0005-.1793-.0008-.7709-.0022l.0001-2.5107c0-.9486.5587-1.8082 1.4256-2.1933l.0191-.0085c.3028-.1345.4393-.4891.3047-.7919-.1345-.3028-.4891-.4393-.7919-.3047zm8.3674-10.22064c-.3314-.00001-.6.26862-.6001.59999v4.66475c0 .9535-.5645 1.8166-1.438 2.1988l-.0462.0202c-.3036.1328-.442.4866-.3092.7902s.4866.442.7902.3092l.0462-.0202c1.3103-.5733 2.157-1.8679 2.157-3.2981v-4.66484c.0001-.33137-.2686-.6-.5999-.6z" fill="#000" fill-rule="evenodd"/></svg>