<svg fill="none" height="32" viewBox="0 0 32 32" width="32" xmlns="http://www.w3.org/2000/svg"><path d="m15.9199 5.17657c1.6569 0 3 1.34314 3 3 0 1.42264-.9902 2.61403-2.3191 2.92243l-.0006 3.5995c0 .5523.4477 1 1 1h5.3c1.215 0 2.2.985 2.2 2.2l.0009 4.5855c.8945.2876 1.5418 1.1265 1.5418 2.1166 0 1.2276-.9952 2.2228-2.2229 2.2228s-2.2229-.9952-2.2229-2.2228c0-1.0486.726-1.9275 1.7028-2.1617l.0003-4.5404c0-.5523-.4477-1-1-1h-5.3c-1.215 0-2.2-.985-2.2-2.2l.0002-3.5668c-1.4092-.246-2.4805-1.47545-2.4805-2.95513 0-1.65686 1.3432-3 3-3z" fill="#f47321"/><path d="m13.7772 15.6985c.3314 0 .6.2686.6.6s-.2686.6-.6.6h-4.67709c-.55229 0-1 .4477-1 1l.00031 4.5404c.97674.2342 1.70274 1.1131 1.70274 2.1617 0 1.2276-.99522 2.2228-2.22287 2.2228-1.22766 0-2.22287-.9952-2.22287-2.2228 0-.9901.64727-1.829 1.54172-2.1166l.00097-4.5855c0-1.215.98497-2.2 2.2-2.2z" fill="#b2b2b2"/></svg>