<svg fill="none" height="32" viewBox="0 0 32 32" width="32" xmlns="http://www.w3.org/2000/svg"><path clip-rule="evenodd" d="m23.8793 12.5c0-4.34192-3.5373-7.87915-7.8792-7.87915s-7.87914 3.53723-7.87914 7.87915c0 4.1417 3.21854 7.5512 7.28394 7.8569l.0108 2.6524c.0048 1.2116.9883 2.1913 2.2 2.1913l4.6632-.0004c.2617.9364 1.1211 1.6232 2.141 1.6232 1.2277 0 2.2229-.9952 2.2229-2.2228 0-1.2277-.9952-2.2229-2.2229-2.2229-1.0195 0-1.8788.6864-2.1408 1.6223l-4.6634.0006c-.5508 0-.9978-.4453-1-.9961l-.0103-2.6484c4.0606-.3105 7.2739-3.7178 7.2739-7.8561zm-14.15824 11.4999c-.26203-.9358-1.12125-1.6222-2.14077-1.6222-1.22766 0-2.22287.9952-2.22287 2.2229 0 1.2276.99521 2.2228 2.22287 2.2228 1.01988 0 1.87934-.6868 2.14104-1.6232l4.13607.0004c.3314 0 .6-.2687.6-.6 0-.3314-.2686-.6-.6-.6zm5.99274-7.9999c-.4618 0-.8397.3695-.8397.8397 0 .4618.3779.8397.8397.8397s.8397-.3695.8397-.8397c0-.4618-.3695-.8397-.8397-.8397zm.1543-8.76661.2127-.00644c.9355 0 1.6933.36333 2.1963 1.0247l.0534.05959c.4145.52825.5465 1.39391.3533 2.12956l-.0101.0041c-.146.6039-.4452 1.0374-1.0781 1.7038l-.278.2869-.2809.2852c-.507.5313-.6921.8425-.6921 1.18l-.0078.0973c-.0465.2851-.2939.5027-.5922.5027-.3313 0-.6-.2686-.6-.6 0-.7864.3246-1.2999 1.1398-2.1286l.2715-.2739c.5609-.5746.8195-.9059.9327-1.2507l.0361-.1207.0265-.1244c.051-.31627.0042-.6576-.0792-.83244l-.0378-.06418-.0568-.06391c-.3241-.42087-.729-.61502-1.2966-.61502-.5108 0-.8899.15726-1.1969.49553l-.0842.10047-.03.04-.0356.05889c-.0747.14397-.1444.42566-.1444.67084 0 .33142-.2686.60002-.6.60002s-.6-.2686-.6-.60002c0-.41839.1021-.87259.2982-1.23944l.0748-.12629.023-.043.0477-.07409c.5114-.66423 1.1965-1.02491 2.0347-1.07647z" fill="#000" fill-rule="evenodd"/></svg>