<svg fill="none" height="32" viewBox="0 0 32 32" width="32" xmlns="http://www.w3.org/2000/svg"><g fill="#000"><path d="m15.8915 9.75878c.3577 0 .652.27182.6873.62022l.0036.0707v4.3757c0 .1271.1032.2303.2303.2303.1112 0 .2041-.079.2256-.1839l.0047-.0464v-3.9151l.0036-.0707c.0354-.3484.3296-.6202.6873-.6202s.652.2718.6873.6202l.0036.0707v4.3757c0 .1271.1032.2303.2303.2303.1112 0 .2041-.079.2256-.1839l.0047-.0464v-2.9939l.0036-.0707c.0353-.3484.3296-.6202.6873-.6202s.6519.2718.6873.6202l.0036.0707-.0012 6.3039-.0091.1718c-.0719.9369-.5862 2.9665-3.4935 2.9665-1.8797 0-2.913-.7139-3.5588-1.6432l-2.2088-3.345c-.2727-.4247-.175-.9691.2188-1.2188.3719-.2297.8716-.1168 1.1595.2525l.9841 1.3486v-5.7575l.0036-.0707c.0354-.3484.3296-.6202.6873-.6202s.652.2718.6873.6202l.0036.0707v3.4545c0 .1271.1032.2303.2303.2303.1113 0 .2041-.079.2256-.1839l.0047-.0464v-4.3757l.0036-.0707c.0354-.3484.3296-.62022.6873-.62022z"/><path clip-rule="evenodd" d="m15.9999 5.39999c-5.84 0-10.6 4.76001-10.6 10.60001s4.76 10.6 10.6 10.6 10.6-4.76 10.6-10.6-4.76-10.60001-10.6-10.60001zm0 20.00001c-5.18 0-9.4-4.22-9.4-9.4s4.22-9.40001 9.4-9.40001 9.4 4.22001 9.4 9.40001-4.22 9.4-9.4 9.4z" fill-rule="evenodd"/></g></svg>