<svg fill="none" height="32" viewBox="0 0 32 32" width="32" xmlns="http://www.w3.org/2000/svg"><g fill="#000"><path d="m7.58008 22.3779c1.01952 0 1.87859.6862 2.14062 1.6221l4.1367.001c.3314 0 .5996.2682.5996.5996 0 .3313-.2682.5996-.5996.5996h-4.13572c-.2617.9364-1.12172 1.623-2.1416 1.623-1.22755-.0001-2.22264-.995-2.22266-2.2226 0-1.2276.9951-2.2226 2.22266-2.2227z"/><path d="m18.6484 11.1807-4.6894 4.6884-1.6104.5469c-.0384.0129-.0807.013-.1191 0-.0968-.033-.148-.1385-.1152-.2353l.5468-1.6104 4.6885-4.68846z"/><path d="m18.998 8.57422c.2355.00016.4634.09783.6299.26953l.0596.06738.0518.07129c.2419.36754.2053.87094-.1094 1.19048l-.5244.5419-1.2998-1.30074.5517-.58105.0655-.05957c.159-.1296.3597-.19922.5751-.19922z"/><path clip-rule="evenodd" d="m16 4.02051c4.6733 0 8.4795 3.80621 8.4795 8.47949 0 4.4691-3.4808 8.1454-7.8721 8.458l.0078 2.0469c.0024.5504.4496.9958 1 .9961l4.6641-.001c.262-.9359 1.1211-1.6221 2.1406-1.6221 1.2277 0 2.2227.995 2.2227 2.2227 0 1.2276-.995 2.2226-2.2227 2.2226-1.0198 0-1.8789-.6867-2.1406-1.623h-4.6641c-1.2112-.0003-2.1941-.9792-2.1992-2.1904l-.0098-2.0508c-4.3976-.3061-7.88471-3.9853-7.88472-8.459 0-4.67324 3.80532-8.47941 8.47852-8.47949zm0 1.20019c-4.0104.00019-7.27832 3.26887-7.27832 7.2793.00001 4.0104 3.26792 7.2791 7.27832 7.2793 4.0105 0 7.2793-3.2688 7.2793-7.2793 0-4.01054-3.2688-7.2793-7.2793-7.2793z" fill-rule="evenodd"/></g></svg>