<svg fill="none" height="32" viewBox="0 0 32 32" width="32" xmlns="http://www.w3.org/2000/svg"><path d="m16.5907 12.0843c1.3892-.2748 2.4366-1.5 2.4366-2.96978 0-1.67195-1.3553-3.02734-3.0273-3.02734s-3.0273 1.35539-3.0273 3.02734c0 1.46998 1.0477 2.69528 2.4371 2.96988-.0032 2.5642-.0095 7.579-.0095 8.2894l-2.5077.0003c-.1654 0-.3262.0547-.4573.1556-.3283.2526-.3897.7235-.1371 1.0518l3.1075 4.0386c.0396.0515.0856.0975.1371.1371.3282.2526.7991.1912 1.0517-.1371l3.1075-4.0386c.1009-.1311.1556-.2919.1556-.4574 0-.4142-.3358-.75-.75-.75l-2.5073-.0003c-.0001-.7104-.0063-5.7254-.0096-8.2895z" fill="#000"/></svg>