<svg fill="none" height="32" viewBox="0 0 32 32" width="32" xmlns="http://www.w3.org/2000/svg"><path clip-rule="evenodd" d="m26.5 16c0-5.7862-4.7138-10.5-10.5-10.5s-10.5 4.7138-10.5 10.5 4.7138 10.5 10.5 10.5 10.5-4.7138 10.5-10.5zm-10.4379-6.45599c.649 0 1.166.52799 1.166 1.17699s-.528 1.166-1.177 1.166c-.638 0-1.166-.528-1.166-1.177s.528-1.16599 1.177-1.16599zm.121 4.28999c.484 0 .88.396.88.88v4.862h.737c.484 0 .88.396.88.88s-.396.88-.88.88h-3.3c-.484 0-.88-.396-.88-.88s.396-.88.88-.88h.803v-3.982h-.693c-.484 0-.88-.396-.88-.88s.396-.88.88-.88z" fill="#000" fill-rule="evenodd"/></svg>