<svg fill="none" height="32" viewBox="0 0 32 32" width="32" xmlns="http://www.w3.org/2000/svg"><path clip-rule="evenodd" d="m16.0001 4.62085c4.3419 0 7.8792 3.53723 7.8792 7.87915 0 4.1383-3.2133 7.5456-7.2739 7.8561l.0103 2.6484c.0022.5508.4492.9961 1 .9961l4.6634-.0006c.262-.9359 1.1213-1.6223 2.1408-1.6223 1.2277 0 2.2229.9952 2.2229 2.2229 0 1.2276-.9952 2.2228-2.2229 2.2228-1.0199 0-1.8793-.6868-2.141-1.6232l-4.6632.0004c-1.2117 0-2.1952-.9797-2.2-2.1913l-.0108-2.6524c-4.0654-.3057-7.28394-3.7152-7.28394-7.8569 0-4.34192 3.53724-7.87915 7.87914-7.87915zm-8.41981 17.75685c1.01952 0 1.87874.6864 2.14077 1.6222l4.13634.0007c.3314 0 .6.2686.6.6 0 .3313-.2686.6-.6.6l-4.13607-.0004c-.2617.9364-1.12116 1.6232-2.14104 1.6232-1.22766 0-2.22287-.9952-2.22287-2.2228 0-1.2277.99521-2.2229 2.22287-2.2229zm5.26921-14.50216h.4131c.3314 0 .6.26863.6.6s-.2686.6-.6.6h-.4131c-.0362 0-.0674.01431-.0918.04243-.0158.01824-.0224.04138-.0187.06701l.4006 2.56812c.0882.5666.5745.9771 1.1652.9771.5908 0 1.0771-.4105 1.1653-.9772l.402-2.57691c.0028-.01648-.0036-.03912-.0192-.05712-.0253-.02912-.0565-.04343-.0927-.04343h-.372c-.3314 0-.6-.26863-.6-.6s.2686-.6.6-.6h.372c.3848 0 .7462.1658.9995.45752.2491.28799.3589.67172.2968 1.03618l-.4007 2.56856c-.1482.9514-.8482 1.6878-1.7496 1.9175l-.0006.9809c0 .9333.7566 1.6899 1.6899 1.6899.9334 0 1.69-.7566 1.69-1.6899l-.0005-.2801c-.4526-.2222-.7642-.6876-.7642-1.2259 0-.7536.611-1.3646 1.3647-1.3646.7536 0 1.3646.611 1.3646 1.3646 0 .5387-.312 1.0044-.7652 1.2263l.0006.2797c0 1.596-1.2939 2.8899-2.89 2.8899-1.596 0-2.8899-1.2939-2.8899-2.8899l-.0001-.9804c-.9023-.2291-1.6033-.9659-1.7516-1.9178l-.4015-2.57397c-.0544-.37346.0519-.74691.2984-1.03196.2525-.29075.6139-.45653.9987-.45653z" fill="#000" fill-rule="evenodd"/></svg>