<svg fill="none" height="32" viewBox="0 0 32 32" width="32" xmlns="http://www.w3.org/2000/svg"><path d="m16.0002 4.62085c4.342 0 7.8792 3.53724 7.8792 7.87915 0 4.1383-3.2133 7.5456-7.2739 7.8561l.0103 2.6484c.0022.5508.4493.9961 1 .9961l4.6635-.0006c.262-.9359 1.1212-1.6223 2.1408-1.6223 1.2276 0 2.2228.9952 2.2228 2.2229 0 1.2276-.9952 2.2228-2.2228 2.2228-1.0199 0-1.8794-.6868-2.1411-1.6232l-4.6632.0004c-1.2116 0-2.1952-.9797-2.2-2.1913l-.0108-2.6524c-4.0654-.3057-7.28391-3.7152-7.28391-7.8569 0-4.34191 3.53721-7.87915 7.87911-7.87915z" fill="#9373b3"/><path d="m7.58029 22.3777c1.01952 0 1.87874.6864 2.14077 1.6222l4.13634.0007c.3314 0 .6.2686.6.6 0 .3313-.2686.6-.6.6l-4.13607-.0004c-.2617.9364-1.12116 1.6232-2.14104 1.6232-1.22766 0-2.22287-.9952-2.22287-2.2228 0-1.2277.99521-2.2229 2.22287-2.2229z" fill="#b2b2b2"/><path clip-rule="evenodd" d="m14.5896 9.79269c0-.24519.0698-.52688.1445-.67085l.0355-.05889.03-.04.0843-.10047c.3069-.33827.686-.49553 1.1968-.49553.5676 0 .9726.19415 1.2967.61502l.0568.06391.0378.06418c.0833.17485.1301.51617.0791.83244l-.0265.1244-.036.1207c-.1133.3448-.3719.6761-.9328 1.2507l-.2715.2739c-.8152.8287-1.1397 1.3422-1.1397 2.1286 0 .3314.2686.6.6.6.3313 0 .6-.2686.6-.6 0-.3375.1851-.6487.692-1.18l.2809-.2852.278-.2869c.633-.6664.9322-1.0999 1.0781-1.7038l.0102-.0041c.1932-.73565.0612-1.60131-.3533-2.12956l-.0535-.05959c-.5029-.66137-1.2608-1.0247-2.1963-1.0247l-.2127.00644c-.8381.05156-1.5232.41224-2.0347 1.07647l-.0477.07409-.023.043-.0748.12629c-.1961.36685-.2982.82105-.2982 1.23945 0 .33141.2687.60001.6.60001.3314 0 .6-.2686.6-.60001zm.2845 7.04701c0-.4702.3778-.8397.8397-.8397.4702 0 .8397.3779.8397.8397 0 .4702-.3779.8397-.8397.8397-.4619 0-.8397-.3779-.8397-.8397z" fill="#fff" fill-rule="evenodd"/></svg>