<svg width="32" height="32" viewBox="0 0 32 32" fill="none" xmlns="http://www.w3.org/2000/svg">
<path fill-rule="evenodd" clip-rule="evenodd" d="M16 5.5C21.7862 5.5 26.5 10.2138 26.5 16C26.5 21.7862 21.7862 26.5 16 26.5C10.2138 26.5 5.5 21.7862 5.5 16C5.5 10.2138 10.2138 5.5 16 5.5ZM11.6064 18.7236L10.8867 20.8418C10.8437 20.9692 10.9118 21.108 11.0391 21.1514C11.0898 21.1685 11.1455 21.1686 11.1963 21.1514L13.3145 20.4316L19.4824 14.2646L17.7754 12.5566L11.6064 18.7236ZM19.9434 10.8359C19.6597 10.8359 19.3959 10.9279 19.1865 11.0986L19.0996 11.1758L18.374 11.9404L20.085 13.6514L20.7744 12.9385C21.1884 12.5182 21.2371 11.8565 20.9189 11.373L20.8506 11.2793L20.7715 11.1904C20.5524 10.9646 20.2532 10.8361 19.9434 10.8359Z" fill="black"/>
</svg>
