<svg fill="none" height="32" viewBox="0 0 32 32" width="32" xmlns="http://www.w3.org/2000/svg"><path clip-rule="evenodd" d="m26.5 16c0-5.7862-4.7138-10.5-10.5-10.5s-10.5 4.7138-10.5 10.5 4.7138 10.5 10.5 10.5 10.5-4.7138 10.5-10.5zm-11.469-5.7763c.0381-.37488.3548-.66745.7397-.66745.385 0 .7016.29257.7397.66745l.0038.0761v4.7088c0 .1369.1111.2479.2479.2479.1197 0 .2196-.085.2428-.1979l.005-.05v-4.2132l.0038-.076c.0381-.3749.3547-.6675.7397-.6675s.7016.2926.7397.6675l.0038.076v4.7089c0 .1368.111.2479.2479.2479.1197 0 .2196-.085.2428-.1979l.005-.05v-3.2219l.0038-.076c.0381-.3749.3547-.6675.7397-.6675s.7016.2926.7397.6675l.0038.076-.0013 6.784c-.0248.8922-.4321 3.3773-3.7693 3.3773-2.0228 0-3.1348-.7682-3.8298-1.7684l-2.377-3.5997c-.2934-.457-.1884-1.0429.2355-1.3115.4002-.2473.9379-.1257 1.2477.2717l1.0591 1.4512v-6.1959l.0039-.076c.038-.3749.3547-.6675.7396-.6675.385 0 .7016.2926.7397.6675l.0038.076v3.7175c0 .1369.1111.2479.2479.2479.1197 0 .2196-.085.2428-.1979l.005-.05v-4.7088z" fill="#000" fill-rule="evenodd"/></svg>