<svg fill="none" height="32" viewBox="0 0 32 32" width="32" xmlns="http://www.w3.org/2000/svg"><g clip-rule="evenodd" fill-rule="evenodd"><path d="m24.1846 22.9371c.0004.1645-.0526.3247-.1511.4565l-2.4165 3.232c-.251.3357-.7266.4044-1.0623.1533-.0575-.0429-.1085-.0937-.1517-.151l-2.4267-3.2194c-.2523-.3347-.1855-.8106.1492-1.0629.1311-.0989.2908-.1525.4549-.1529.8267-.0024 1.401-.004 1.7943-.0052l-.0001-2.499c0-.9535-.5645-1.8165-1.438-2.1987l-6.3107-2.761c-1.3103-.5733-2.157-1.8679-2.1571-3.2981v-.4268c-1.39967-.2493-2.46234-1.47243-2.46234-2.94377 0-1.65146 1.33878-2.99024 2.99024-2.99024 1.6515 0 2.9902 1.33878 2.9902 2.99024 0 1.42035-.9903 2.60937-2.3181 2.91437v.4562c.0001.9534.5645 1.8165 1.4381 2.1987l6.3107 2.761c1.3103.5733 2.157 1.8679 2.157 3.2981l.0001 2.4958c.3848-.0009.9714-.0022 1.8489-.0042.4192-.0011.7599.3378.761.757z" fill="#fac200"/><path d="m10.4089 19.6764c0-1.4228.8381-2.7122 2.1384-3.2899l.0191-.0084c.3028-.1346.6574.0019.7919.3047.1346.3028-.0019.6574-.3047.7919l-.0191.0085c-.8669.3851-1.4256 1.2447-1.4256 2.1933l-.0001 2.5107c.5916.0014.6609.0017.7709.0022.1112.0004.2641.0011 1.0404.0033.1231.0003.2437.0305.3516.0874l.1033.0655c.3043.2294.3871.6435.2101.9684l-.0609.0945-2.4268 3.2194c-.0431.0573-.0941.1081-.1516.151-.3052.2282-.726.1922-.9886-.0684l-.0737-.0849-2.41646-3.232c-.09851-.1318-.15154-.292-.15112-.4565.001-.3842.28736-.701.65796-.7503l.10301-.0067c.75862.0017 1.35735.0031 1.83191.0042zm9.9057-12.91055c.0001-.33137.2687-.6.6001-.59999.3313 0 .6.26863.5999.6v4.66484c0 1.4302-.8467 2.7248-2.157 3.2981l-.0462.0202c-.3036.1328-.6574-.0056-.7902-.3092s.0056-.6574.3092-.7902l.0462-.0202c.8735-.3822 1.438-1.2453 1.438-2.1988z" fill="#979797"/></g></svg>