<svg fill="none" height="32" viewBox="0 0 32 32" width="32" xmlns="http://www.w3.org/2000/svg"><g fill="#000"><path clip-rule="evenodd" d="m16.0001 4.62085c4.3419 0 7.8792 3.53723 7.8792 7.87915 0 4.1383-3.2133 7.5456-7.2739 7.8561l.0103 2.6484c.0022.5508.4492.9961 1 .9961l4.6634-.0006c.262-.9359 1.1213-1.6223 2.1408-1.6223 1.2277 0 2.2229.9952 2.2229 2.2229 0 1.2276-.9952 2.2228-2.2229 2.2228-1.0199 0-1.8793-.6868-2.141-1.6232l-4.6632.0004c-1.2117 0-2.1952-.9797-2.2-2.1913l-.0108-2.6524c-4.0654-.3057-7.28394-3.7152-7.28394-7.8569 0-4.34192 3.53724-7.87915 7.87914-7.87915zm-5.2184 5.11102c0-.32556.264-.58947.5895-.58947.3256 0 .5895.26391.5895.58947v3.43303l4.0457-.0003.0004-2.4303c0-.2622.2126-.4749.4749-.4749h3.3453c.7684 0 1.3913.6229 1.3913 1.3913v3.8114c0 .3256-.2639.5895-.5895.5895-.3255 0-.5894-.2639-.5894-.5895v-1.1182h-8.0787v1.1182c0 .3256-.2639.5895-.5895.5895-.3255 0-.5895-.2639-.5895-.5895zm3.1559-.23187c.7455 0 1.3498.6043 1.3498 1.3497 0 .7455-.6043 1.3498-1.3498 1.3498-.7454 0-1.3497-.6043-1.3497-1.3498 0-.7454.6043-1.3497 1.3497-1.3497z" fill-rule="evenodd"/><path d="m7.58029 22.3777c1.01952 0 1.87874.6864 2.14077 1.6222l4.13634.0007c.3314 0 .6.2686.6.6 0 .3313-.2686.6-.6.6l-4.13607-.0004c-.2617.9364-1.12116 1.6232-2.14104 1.6232-1.22766 0-2.22287-.9952-2.22287-2.2228 0-1.2277.99521-2.2229 2.22287-2.2229z"/></g></svg>