<svg fill="none" height="32" viewBox="0 0 32 32" width="32" xmlns="http://www.w3.org/2000/svg"><g fill="#000"><path d="m17.7992 11.3977c0 1.0004-.8116 1.812-1.8121 1.812-1.0006 0-1.812-.8116-1.812-1.812 0-1.0005.8114-1.81207 1.812-1.81207 1.0005 0 1.8121.81157 1.8121 1.81207z"/><path clip-rule="evenodd" d="m16.0002 4.89871c4.342 0 7.8792 3.53723 7.8792 7.87919 0 4.1383-3.2133 7.5456-7.2739 7.8561l.0103 2.6484c.0022.5507.4493.996 1 .996l4.6635-.0005c.262-.9359 1.1212-1.6223 2.1408-1.6223 1.2276 0 2.2228.9952 2.2228 2.2228 0 1.2277-.9952 2.2229-2.2228 2.2229-1.0199 0-1.8794-.6869-2.1411-1.6232l-4.6632.0003c-1.2116 0-2.1952-.9796-2.2-2.1912l-.0108-2.6525c-4.0654-.3056-7.28391-3.7151-7.28391-7.8568 0-4.34196 3.53721-7.87919 7.87911-7.87919zm3.7685 7.22639c.3924-2.30203-1.3145-4.48948-3.6485-4.56817-2.184-.07412-3.9766 1.67364-3.9766 3.84077 0 1.571.963 2.8667 2.0036 4.2665.5882.7915 1.2013 1.6162 1.679 2.5428.067.1304.2546.1304.3216.001.4737-.9145 1.0804-1.7096 1.6641-2.4745.8908-1.1672 1.728-2.2642 1.9568-3.6084z" fill-rule="evenodd"/><path d="m7.58029 22.6555c1.01952 0 1.87874.6864 2.14077 1.6223l4.13634.0006c.3314 0 .6.2686.6.6s-.2686.6-.6.6l-4.13607-.0003c-.2617.9363-1.12116 1.6232-2.14104 1.6232-1.22766 0-2.22287-.9952-2.22287-2.2229 0-1.2276.99521-2.2229 2.22287-2.2229z"/></g></svg>