<svg fill="none" height="32" viewBox="0 0 32 32" width="32" xmlns="http://www.w3.org/2000/svg"><path clip-rule="evenodd" d="m24.4793 12.5c0-4.67328-3.8059-8.47915-8.4792-8.47915s-8.47914 3.80587-8.47914 8.47915c0 4.4738 3.48784 8.1526 7.88564 8.4586l.0091 2.0507c.0048 1.2116.9883 2.1913 2.2 2.1913l4.6632-.0004c.2617.9364 1.1211 1.6232 2.141 1.6232 1.2277 0 2.2229-.9952 2.2229-2.2228 0-1.2277-.9952-2.2229-2.2229-2.2229-1.0195 0-1.8788.6864-2.1408 1.6223l-4.6634.0006c-.5508 0-.9978-.4453-1-.9961l-.0084-2.0469c4.3913-.3126 7.872-3.9884 7.872-8.4576zm-14.75824 11.4999c-.26203-.9358-1.12125-1.6222-2.14077-1.6222-1.22766 0-2.22287.9952-2.22287 2.2229 0 1.2276.99521 2.2228 2.22287 2.2228 1.01988 0 1.87934-.6868 2.14104-1.6232l4.13607.0004c.3314 0 .6-.2687.6-.6 0-.3314-.2686-.6-.6-.6zm6.27904-18.77905c-4.0105 0-7.27914 3.26861-7.27914 7.27915 0 4.0105 3.26864 7.2791 7.27914 7.2791 4.0106 0 7.2792-3.2686 7.2792-7.2791 0-4.01054-3.2686-7.27915-7.2792-7.27915zm-2.1375 3.25469c0-.33137-.2686-.6-.6-.6h-.4131c-.3848 0-.7462.16578-.9987.45653-.2465.28506-.3528.6585-.2984 1.03196l.4015 2.57397c.1483.9519.8493 1.6887 1.7516 1.9178l.0001.9804c0 1.596 1.2939 2.8899 2.8899 2.8899 1.5961 0 2.89-1.2939 2.89-2.8899l-.0006-.2797c.4532-.2219.7652-.6876.7652-1.2263 0-.7536-.611-1.3646-1.3646-1.3646-.7537 0-1.3647.611-1.3647 1.3646 0 .5383.3116 1.0037.7642 1.2259l.0005.2801c0 .9333-.7566 1.6899-1.69 1.6899-.9333 0-1.6899-.7566-1.6899-1.6899l.0006-.9809c.9014-.2297 1.6014-.9661 1.7496-1.9175l.4007-2.56856c.0621-.36446-.0477-.74819-.2968-1.03617-.2533-.29173-.6147-.45753-.9995-.45753h-.372c-.3314 0-.6.26863-.6.6s.2686.6.6.6h.372c.0362 0 .0674.01432.0927.04343.0156.018.022.04065.0192.05712l-.402 2.57691c-.0882.5667-.5745.9772-1.1653.9772-.5907 0-1.077-.4105-1.1652-.977l-.4006-2.56822c-.0037-.02563.0029-.04877.0187-.06701.0244-.02812.0556-.04243.0918-.04243h.4131c.3314 0 .6-.26863.6-.6z" fill="#000" fill-rule="evenodd"/></svg>