<svg fill="none" height="32" viewBox="0 0 32 32" width="32" xmlns="http://www.w3.org/2000/svg"><path clip-rule="evenodd" d="m18.9198 8.17657c0-1.65686-1.3431-3-3-3-1.6568 0-3 1.34314-3 3 0 1.47968 1.0713 2.70913 2.4805 2.95513l-.0002 3.5668c0 1.215.985 2.2 2.2 2.2h5.3c.5523 0 1 .4477 1 1l-.0003 4.5404c-.9767.2342-1.7027 1.1131-1.7027 2.1617 0 1.2276.9952 2.2228 2.2228 2.2228 1.2277 0 2.2229-.9952 2.2229-2.2228 0-.9901-.6473-1.829-1.5417-2.1166l-.001-4.5855c0-1.215-.985-2.2-2.2-2.2h-5.3c-.5523 0-1-.4477-1-1l.0007-3.5995c1.3288-.3084 2.319-1.49979 2.319-2.92243zm-4.5426 8.12193c0-.3314-.2686-.6-.6-.6h-4.67709c-1.21503 0-2.2.985-2.2 2.2l-.00097 4.5855c-.89445.2876-1.54172 1.1265-1.54172 2.1166 0 1.2276.99521 2.2228 2.22287 2.2228 1.22765 0 2.22287-.9952 2.22287-2.2228 0-1.0486-.726-1.9275-1.70274-2.1617l-.00031-4.5404c0-.5523.44771-1 1-1h4.67709c.3314 0 .6-.2686.6-.6z" fill="#000" fill-rule="evenodd"/></svg>