<svg fill="none" height="32" viewBox="0 0 32 32" width="32" xmlns="http://www.w3.org/2000/svg"><path d="m16.0002 4.62085c4.342 0 7.8792 3.53723 7.8792 7.87915 0 4.1383-3.2133 7.5456-7.2739 7.8561l.0103 2.6484c.0022.5508.4493.9961 1 .9961l4.6635-.0006c.262-.9359 1.1212-1.6223 2.1408-1.6223 1.2276 0 2.2228.9952 2.2228 2.2229 0 1.2276-.9952 2.2228-2.2228 2.2228-1.0199 0-1.8794-.6868-2.1411-1.6232l-4.6632.0004c-1.2116 0-2.1952-.9797-2.2-2.1913l-.0108-2.6524c-4.0654-.3057-7.28391-3.7152-7.28391-7.8569 0-4.34192 3.53721-7.87915 7.87911-7.87915z" fill="#f8c31c"/><path d="m7.58029 22.3777c1.01952 0 1.87874.6864 2.14077 1.6222l4.13634.0007c.3314 0 .6.2686.6.6 0 .3313-.2686.6-.6.6l-4.13607-.0004c-.2617.9364-1.12116 1.6232-2.14104 1.6232-1.22766 0-2.22287-.9952-2.22287-2.2228 0-1.2277.99521-2.2229 2.22287-2.2229z" fill="#b2b2b2"/><path d="m18.6481 11.1807-4.6885 4.6884-1.6104.5469c-.0386.0131-.0814.0132-.1201 0-.0967-.033-.148-.1385-.1152-.2353l.5469-1.6104 4.6894-4.68846zm.3496-2.60648c.2356.00003.4632.09771.6299.26953l.0595.06738.0528.07129c.242.36762.2045.87093-.1104 1.19048l-.5234.5419-1.3008-1.30074.5518-.58105.0654-.05957c.1591-.12975.3596-.19922.5752-.19922z" fill="#fff"/></svg>