<svg fill="none" height="32" viewBox="0 0 32 32" width="32" xmlns="http://www.w3.org/2000/svg"><path clip-rule="evenodd" d="m16.0001 4.02085c4.6733 0 8.4792 3.80587 8.4792 8.47915 0 4.4692-3.4807 8.145-7.872 8.4576l.0084 2.0469c.0022.5508.4492.9961 1 .9961l4.6634-.0006c.262-.9359 1.1213-1.6223 2.1408-1.6223 1.2277 0 2.2229.9952 2.2229 2.2229 0 1.2276-.9952 2.2228-2.2229 2.2228-1.0199 0-1.8793-.6868-2.141-1.6232l-4.6632.0004c-1.2117 0-2.1952-.9797-2.2-2.1913l-.0091-2.0507c-4.3978-.306-7.88564-3.9848-7.88564-8.4586 0-4.67328 3.80584-8.47915 8.47914-8.47915zm-8.41981 18.35685c1.01952 0 1.87874.6864 2.14077 1.6222l4.13634.0007c.3314 0 .6.2686.6.6 0 .3313-.2686.6-.6.6l-4.13607-.0004c-.2617.9364-1.12116 1.6232-2.14104 1.6232-1.22766 0-2.22287-.9952-2.22287-2.2228 0-1.2277.99521-2.2229 2.22287-2.2229zm1.14067-9.8777c0-4.01054 3.26864-7.27915 7.27914-7.27915 4.0106 0 7.2792 3.26861 7.2792 7.27915 0 4.0105-3.2686 7.2791-7.2792 7.2791-4.0105 0-7.27914-3.2686-7.27914-7.2791zm6.99284 3.5c.4702 0 .8397.3779.8397.8397 0 .4702-.3779.8397-.8397.8397s-.8397-.3779-.8397-.8397c0-.4702.3779-.8397.8397-.8397zm2.5633-7.74835c-.503-.66137-1.2608-1.0247-2.1963-1.0247l-.2127.00644c-.8382.05156-1.5233.41224-2.0347 1.07647l-.0477.07409-.023.043-.0748.12629c-.1961.36685-.2982.82105-.2982 1.23945 0 .33141.2686.60001.6.60001s.6-.2686.6-.60001c0-.24519.0697-.52688.1444-.67085l.0356-.05889.03-.04.0842-.10047c.307-.33827.6861-.49553 1.1969-.49553.5676 0 .9725.19415 1.2966.61502l.0568.06391.0378.06418c.0834.17485.1302.51617.0792.83244l-.0265.1244-.0361.1207c-.1132.3448-.3718.6761-.9327 1.2507l-.2715.2739c-.8152.8287-1.1398 1.3422-1.1398 2.1286 0 .3314.2687.6.6.6.2983 0 .5457-.2176.5922-.5027l.0125-.1889c.0316-.3043.2265-.6054.6874-1.0884l.2809-.2852.278-.2869c.6329-.6664.9321-1.0999 1.0781-1.7038l.0101-.0041c.1932-.73565.0612-1.60131-.3533-2.12956z" fill="#000" fill-rule="evenodd"/></svg>