<svg fill="none" height="32" viewBox="0 0 32 32" width="32" xmlns="http://www.w3.org/2000/svg"><g fill="#000"><path d="m16.2947 19.4201c.5777 1.3003 1.8671 2.1384 3.2899 2.1385h2.5079l-.0042 1.8319.0067.103c.0493.3706.3661.657.7503.658.1645.0004.3247-.0526.4565-.1511l3.2319-2.4165.0849-.0737c.2607-.2626.2967-.6834.0685-.9886-.0429-.0574-.0937-.1085-.151-.1516l-3.2194-2.4268-.0945-.0609c-.3249-.177-.7391-.0941-.9684.2102l-.0656.1033c-.0568.1079-.087.2284-.0873.3516-.0022.775-.0029.9286-.0033 1.0398-.0005.11-.0008.1798-.0022.7714h-2.5108c-.9485-.0001-1.8081-.5588-2.1932-1.4257l-.0085-.0191c-.0303-.0681-.1567-.31-.2796-.5425-.1451-.2744-.4806-.3848-.7611-.252-.2844.1345-.4105.4705-.2848.7588.0971.2226.1959.4486.2288.5229z"/><path d="m11.1587 15.1024c-1.29196-.4699-2.70806-.4699-4.00001 0-1.15268.4191-1.93541 1.4875-1.99619 2.7027l-.00381.1527v5.1446h8.00001v-4.8974c1.2911-.1234 2.4276-.9361 2.9546-2.1406l1.2888-3.0346c.3822-.8735 1.2452-1.438 2.1987-1.438h2.4977l.0051 1.7952c.0005.1642.0541.3238.1529.4549.2524.3347.7283.4015 1.063.1492l3.2194-2.4267c.0573-.0432.1081-.0942.151-.1516.251-.3358.1824-.8114-.1534-1.0624l-3.2319-2.41644c-.1318-.09851-.292-.15155-.4565-.15112-.4192.00109-.7581.34178-.757.76097l.0041 1.84799h-2.4944c-1.4302 0-2.7248.8467-3.2981 2.157l-1.2888 3.0346c-.3562.8141-1.13 1.3597-2.0054 1.4302-.285-.8712-.9562-1.5863-1.8498-1.9112z"/><path d="m8.97119 13.7305c1.65151 0 2.99021-1.3388 2.99021-2.9903 0-1.65143-1.3387-2.9902-2.99021-2.9902-1.65146 0-2.99023 1.33877-2.99023 2.9902 0 1.6515 1.33877 2.9903 2.99023 2.9903z"/></g></svg>