<svg fill="none" height="32" viewBox="0 0 32 32" width="32" xmlns="http://www.w3.org/2000/svg"><g fill="#000"><path d="m16.2948 19.4201c.5776 1.3003 1.867 2.1384 3.2898 2.1385h2.5079l-.0042 1.8319.0067.103c.0493.3706.3661.657.7503.658.1645.0004.3247-.0526.4565-.1511l3.232-2.4164.0849-.0738c.2606-.2626.2966-.6834.0685-.9886-.043-.0574-.0938-.1085-.1511-.1516l-3.2194-2.4268-.0945-.0609c-.3249-.177-.739-.0941-.9684.2102l-.0655.1033c-.0568.1079-.0871.2284-.0874.3516-.0022.775-.0028.9286-.0033 1.0398-.0005.11-.0008.1798-.0022.7714h-2.5107c-.9486-.0001-1.8082-.5588-2.1933-1.4257l-.0085-.0191c-.0303-.0681-.1567-.31-.2796-.5425-.1451-.2744-.4806-.3848-.7611-.252-.2843.1345-.4105.4705-.2847.7588.097.2226.1958.4486.2288.5229z"/><path d="m10.8807 14.8142c1.028.3739 1.8 1.1969 2.1272 2.1994.8754-.0705 1.6498-.6161 2.006-1.4302l1.2888-3.0346c.5733-1.3103 1.8679-2.157 3.2981-2.157h2.4945l-.0042-1.84799c-.0011-.41919.3378-.75988.757-.76097.1645-.00043.3247.05261.4565.15112l3.232 2.41644c.3357.251.4044.7266.1533 1.0624-.0429.0574-.0937.1084-.151.1516l-3.2194 2.4267c-.3347.2523-.8106.1855-1.0629-.1492-.0989-.1311-.1525-.2907-.1529-.4549l-.0052-1.7952h-2.4977c-.9534 0-1.8165.5645-2.1987 1.438l-1.2888 3.0346c-.5241 1.1979-1.651 2.0083-2.9333 2.1385l.0036 4.8944c.0002.3314-.2682.6002-.5996.6004-.3314.0003-.6002-.2681-.6004-.5995l-.0037-4.9936-.0032-.1301c-.0485-.914-.6385-1.717-1.5061-2.0325-1.09766-.3992-2.30081-.3992-3.39847 0-.86761.3155-1.45756 1.1185-1.50609 2.0324l-.00324.1297.00363 4.9932c.00024.3314-.2682.6002-.59957.6004-.33137.0003-.60019-.2681-.60043-.5995l-.00364-5.0086.00401-.1605.00038-.0075c.06987-1.3972.96965-2.6255 2.29485-3.1074 1.36258-.4954 2.85609-.4954 4.21867 0z"/><path clip-rule="evenodd" d="m8.6647 6.94098c-1.82385 0-3.28335 1.50324-3.28335 3.33392 0 1.7756 1.3722 3.2423 3.11942 3.3298l.0075.0004.15643.0039.16369-.0041.15023-.0112.00724-.0007c1.67194-.1652 2.96224-1.5959 2.96224-3.3181 0-1.83068-1.4595-3.33392-3.2834-3.33392zm-2.08335 3.33392c0-1.18915.94325-2.13392 2.08335-2.13392s2.0834.94477 2.0834 2.13392c0 1.1149-.8307 2.0167-1.87344 2.1232l-.10579.0079-.10417.0026-.11093-.0028c-1.08908-.0583-1.97242-.9807-1.97242-2.1309z" fill-rule="evenodd"/></g></svg>