<svg width="32" height="32" viewBox="0 0 32 32" fill="none" xmlns="http://www.w3.org/2000/svg">
<path d="M16 5.5C21.7862 5.5 26.5 10.2138 26.5 16C26.5 21.7862 21.7862 26.5 16 26.5C10.2138 26.5 5.5 21.7862 5.5 16C5.5 10.2138 10.2138 5.5 16 5.5Z" fill="#F8C31C"/>
<path d="M19.4822 14.2644L13.3142 20.4314L11.1961 21.1511C11.1452 21.1684 11.0897 21.1684 11.0388 21.1511C10.9115 21.1077 10.8433 20.969 10.8865 20.8416L11.6062 18.7234L17.7752 12.5564L19.4822 14.2644ZM19.9431 10.8357C20.253 10.8358 20.5521 10.9643 20.7713 11.1902L20.8504 11.2791L20.9187 11.3728C21.2371 11.8563 21.1882 12.5179 20.7742 12.9382L20.0847 13.6511L18.3738 11.9402L19.0994 11.1755L19.1863 11.0984C19.3956 10.9276 19.6595 10.8357 19.9431 10.8357Z" fill="white"/>
</svg>
