<svg fill="none" height="32" viewBox="0 0 32 32" width="32" xmlns="http://www.w3.org/2000/svg"><path d="m16.0002 4.62085c4.342 0 7.8792 3.53724 7.8792 7.87915 0 4.1383-3.2133 7.5456-7.2739 7.8561l.0103 2.6484c.0022.5508.4493.9961 1 .9961l4.6635-.0006c.262-.9359 1.1212-1.6223 2.1408-1.6223 1.2276 0 2.2228.9952 2.2228 2.2229 0 1.2276-.9952 2.2228-2.2228 2.2228-1.0199 0-1.8794-.6868-2.1411-1.6232l-4.6632.0004c-1.2116 0-2.1952-.9797-2.2-2.1913l-.0108-2.6524c-4.0654-.3057-7.28391-3.7152-7.28391-7.8569 0-4.34191 3.53721-7.87915 7.87911-7.87915z" fill="#17bfa8"/><path d="m7.58029 22.3777c1.01952 0 1.87874.6864 2.14077 1.6222l4.13634.0007c.3314 0 .6.2686.6.6 0 .3313-.2686.6-.6.6l-4.13607-.0004c-.2617.9364-1.12116 1.6232-2.14104 1.6232-1.22766 0-2.22287-.9952-2.22287-2.2228 0-1.2277.99521-2.2229 2.22287-2.2229z" fill="#b2b2b2"/><path clip-rule="evenodd" d="m11.3712 9.1424c-.3255 0-.5895.26391-.5895.58947v5.73023c0 .3256.264.5895.5895.5895.3256 0 .5895-.2639.5895-.5895v-1.1182h8.0787v1.1182c0 .3256.2639.5895.5894.5895.3256 0 .5895-.2639.5895-.5895v-3.8114c0-.7684-.6229-1.3913-1.3913-1.3913h-3.3453c-.2623 0-.4749.2127-.4749.4749l-.0004 2.4303-4.0457.0003v-3.43303c0-.32556-.2639-.58947-.5895-.58947zm3.9162 1.7073c0-.7454-.6043-1.3497-1.3498-1.3497-.7454 0-1.3497.6043-1.3497 1.3497 0 .7455.6043 1.3498 1.3497 1.3498.7455 0 1.3498-.6043 1.3498-1.3498z" fill="#fff" fill-rule="evenodd"/></svg>