<svg fill="none" height="32" viewBox="0 0 32 32" width="32" xmlns="http://www.w3.org/2000/svg"><path d="m15.9199 5.17657c1.6569 0 3 1.34314 3 3 0 1.42264-.9902 2.61403-2.3191 2.92243l-.0006 3.5995c0 .5523.4477 1 1 1h5.3c1.215 0 2.2.985 2.2 2.2l.0009 4.5855c.8945.2876 1.5418 1.1265 1.5418 2.1166 0 1.2276-.9952 2.2228-2.2229 2.2228s-2.2229-.9952-2.2229-2.2228c0-1.0486.726-1.9275 1.7028-2.1617l.0003-4.5404c0-.5523-.4477-1-1-1h-5.3c-1.215 0-2.2-.985-2.2-2.2l.0002-3.5668c-1.4092-.246-2.4805-1.47545-2.4805-2.95513 0-1.65686 1.3432-3 3-3z" fill="#40896b"/><path clip-rule="evenodd" d="m14.3772 16.2985c0-.3314-.2686-.6-.6-.6h-4.67709c-1.21503 0-2.2.985-2.2 2.2l-.00097 4.5855c-.89445.2876-1.54172 1.1265-1.54172 2.1166 0 1.2276.99521 2.2228 2.22287 2.2228 1.22765 0 2.22287-.9952 2.22287-2.2228 0-1.0486-.726-1.9275-1.70274-2.1617l-.00031-4.5404c0-.5523.44771-1 1-1h4.67709c.3314 0 .6-.2686.6-.6zm2.2229 2.3855c0-.3313-.2686-.6-.6-.6s-.6.2687-.6.6l-.0005 3.7758c-.9359.262-1.6224 1.1212-1.6224 2.1408 0 1.2276.9953 2.2228 2.2229 2.2228 1.2277 0 2.2229-.9952 2.2229-2.2228 0-1.0199-.6869-1.8794-1.6232-2.1411z" fill="#b2b2b2" fill-rule="evenodd"/></svg>