<svg fill="none" height="32" viewBox="0 0 32 32" width="32" xmlns="http://www.w3.org/2000/svg"><g fill="#000"><path clip-rule="evenodd" d="m19.7687 12.1251c.3924-2.30203-1.3145-4.48947-3.6485-4.56817-2.184-.07412-3.9766 1.67364-3.9766 3.84077 0 1.571.963 2.8667 2.0036 4.2665.5882.7915 1.2013 1.6162 1.679 2.5429.067.1303.2546.1303.3216.0009.4737-.9145 1.0804-1.7096 1.6641-2.4745.8908-1.1672 1.728-2.2642 1.9568-3.6084zm-1.9695-.7274c0 1.0004-.8116 1.812-1.8121 1.812-1.0006 0-1.812-.8116-1.812-1.812 0-1.0005.8114-1.81206 1.812-1.81206 1.0005 0 1.8121.81156 1.8121 1.81206z" fill-rule="evenodd"/><path clip-rule="evenodd" d="m24.4793 12.5c0-4.67328-3.8059-8.47915-8.4792-8.47915s-8.47914 3.80587-8.47914 8.47915c0 4.4738 3.48784 8.1526 7.88564 8.4586l.0091 2.0507c.0048 1.2116.9883 2.1913 2.2 2.1913l4.6632-.0004c.2617.9364 1.1211 1.6232 2.141 1.6232 1.2277 0 2.2229-.9952 2.2229-2.2228 0-1.2277-.9952-2.2229-2.2229-2.2229-1.0195 0-1.8788.6864-2.1408 1.6223l-4.6634.0006c-.5508 0-.9978-.4453-1-.9961l-.0084-2.0469c4.3913-.3126 7.872-3.9884 7.872-8.4576zm-8.4792-7.27915c-4.0105 0-7.27914 3.26861-7.27914 7.27915 0 4.0105 3.26864 7.2791 7.27914 7.2791 4.0106 0 7.2792-3.2686 7.2792-7.2791 0-4.01054-3.2686-7.27915-7.2792-7.27915z" fill-rule="evenodd"/><path d="m9.72106 23.9999c-.26203-.9358-1.12125-1.6222-2.14077-1.6222-1.22766 0-2.22287.9952-2.22287 2.2229 0 1.2276.99521 2.2228 2.22287 2.2228 1.01988 0 1.87934-.6868 2.14104-1.6232l4.13607.0004c.3314 0 .6-.2687.6-.6 0-.3314-.2686-.6-.6-.6z"/></g></svg>