<svg fill="none" height="32" viewBox="0 0 32 32" width="32" xmlns="http://www.w3.org/2000/svg"><path clip-rule="evenodd" d="m14.198 5.45047c-.1311-.10089-.2919-.15559-.4574-.15559-.4142 0-.75.33578-.75.75l-.0002 2.469-1.8948.00074-.1912.00499c-1.89931.09939-3.40877 1.67089-3.40877 3.59499l.00019 8.5573c-.95496.2627-1.65646 1.1373-1.65646 2.1757 0 1.2461 1.01016 2.2563 2.25627 2.2563 1.2461 0 2.25627-1.0102 2.25627-2.2563 0-1.0384-.70151-1.913-1.65647-2.1757l.0002-8.5573.00553-.1643c.08444-1.2488 1.12421-2.23568 2.39444-2.23568l1.8948-.00074.0002 2.54602c0 .1654.0548.3262.1556.4573.2526.3283.7235.3897 1.0518.1371l4.0386-3.10752c.0515-.03956.0975-.08563.1371-.13704.2526-.32828.1912-.79918-.1371-1.05177zm11.9624 3.66415c0-1.2461-1.0101-2.25627-2.2562-2.25627s-2.2563 1.01017-2.2563 2.25627c0 1.03838.7015 1.91298 1.6565 2.17568l-.0002 8.4491-.0056.1643c-.0844 1.2488-1.1242 2.2357-2.3944 2.2357l-1.8957-.0001.0007-2.3992-.0069-.1018c-.0497-.3661-.3635-.6482-.7431-.6482-.1655 0-.3263.0547-.4574.1556l-4.0386 3.1075-.0829.074c-.254.263-.2838.6793-.0542.9778.0396.0514.0856.0974.1371.137l4.0386 3.1075.0928.0611c.3193.1781.7293.1003.959-.1981l.0549-.0821c.0656-.1136.1007-.243.1007-.3753l-.0007-2.6158 1.8957.0001.1912-.005c1.8993-.0994 3.4088-1.6709 3.4088-3.595l-.0002-8.4491c.9549-.2627 1.6564-1.1373 1.6564-2.17568z" fill="#000" fill-rule="evenodd"/></svg>