<svg fill="none" height="32" viewBox="0 0 32 32" width="32" xmlns="http://www.w3.org/2000/svg"><path clip-rule="evenodd" d="m26.5 16c0-5.7862-4.7138-10.5-10.5-10.5s-10.5 4.7138-10.5 10.5 4.7138 10.5 10.5 10.5 10.5-4.7138 10.5-10.5zm-10.0908-3.1075-.0004 2.5073c-.7731 0-4.7015.0075-6.2051.0104-.3252.0006-.58651.2644-.58651.5896s.26131.5891.58651.5897c1.5036.0029 5.432.0103 6.2052.0103l.0003 2.5077c0 .1654.0547.3262.1556.4573.2526.3283.7235.3897 1.0517.1371l4.0387-3.1075c.0514-.0396.0975-.0856.137-.1371.2526-.3282.1913-.7991-.137-1.0517l-4.0387-3.1075c-.1311-.1009-.2919-.1556-.4573-.1556-.4142 0-.75.3358-.75.75z" fill="#000" fill-rule="evenodd"/></svg>