<svg fill="none" height="32" viewBox="0 0 32 32" width="32" xmlns="http://www.w3.org/2000/svg"><g fill="#000"><path d="m10.7817 9.73187c0-.32556.264-.58947.5895-.58947.3256 0 .5895.26391.5895.58947v3.43303l4.0457-.0003.0004-2.4303c0-.2622.2126-.4749.4749-.4749h3.3453c.7684 0 1.3913.6229 1.3913 1.3913v3.8114c0 .3256-.2639.5895-.5895.5895-.3255 0-.5894-.2639-.5894-.5895v-1.1182h-8.0787v1.1182c0 .3256-.2639.5895-.5895.5895-.3255 0-.5895-.2639-.5895-.5895z"/><path d="m13.9376 9.5c.7455 0 1.3498.6043 1.3498 1.3497 0 .7455-.6043 1.3498-1.3498 1.3498-.7454 0-1.3497-.6043-1.3497-1.3498 0-.7454.6043-1.3497 1.3497-1.3497z"/><path clip-rule="evenodd" d="m24.4793 12.5c0-4.67329-3.8059-8.47916-8.4792-8.47916s-8.47914 3.80587-8.47914 8.47916c0 4.4738 3.48784 8.1526 7.88564 8.4586l.0091 2.0507c.0048 1.2116.9883 2.1913 2.2 2.1913l4.6632-.0004c.2617.9364 1.1211 1.6232 2.141 1.6232 1.2277 0 2.2229-.9952 2.2229-2.2228 0-1.2277-.9952-2.2229-2.2229-2.2229-1.0195 0-1.8788.6864-2.1408 1.6223l-4.6634.0006c-.5508 0-.9978-.4453-1-.9961l-.0084-2.0469c4.3913-.3126 7.872-3.9885 7.872-8.4576zm-8.4792-7.27916c-4.0105 0-7.27914 3.26861-7.27914 7.27916 0 4.0105 3.26864 7.2791 7.27914 7.2791 4.0106 0 7.2792-3.2686 7.2792-7.2791 0-4.01055-3.2686-7.27916-7.2792-7.27916z" fill-rule="evenodd"/><path d="m9.72106 23.9999c-.26203-.9358-1.12125-1.6222-2.14077-1.6222-1.22766 0-2.22287.9952-2.22287 2.2229 0 1.2276.99521 2.2228 2.22287 2.2228 1.01988 0 1.87934-.6868 2.14104-1.6232l4.13607.0004c.3314 0 .6-.2687.6-.6 0-.3314-.2686-.6-.6-.6z"/></g></svg>