<svg fill="none" height="32" viewBox="0 0 32 32" width="32" xmlns="http://www.w3.org/2000/svg"><path clip-rule="evenodd" d="m5.3999 16c0-5.84 4.76-10.60001 10.6-10.60001s10.6 4.76001 10.6 10.60001-4.76 10.6-10.6 10.6-10.6-4.76-10.6-10.6zm1.2 0c0 5.18 4.22 9.4 9.4 9.4s9.4-4.22 9.4-9.4-4.22-9.40001-9.4-9.40001-9.4 4.22001-9.4 9.40001zm11.05 4.22h-.87v-5.43c0-.33-.27-.6-.6-.6h-1.43c-.33 0-.6.27-.6.6s.27.6.6.6h.83v4.83h-.93c-.33 0-.6.27-.6.6s.27.6.6.6h3c.33 0 .6-.27.6-.6s-.27-.6-.6-.6zm-.65-9.14c0 .56-.45 1-1 1s-1-.45-1-1c0-.56.45-1 1-1 .56 0 1 .44 1 1z" fill="#000" fill-rule="evenodd"/></svg>