<svg fill="none" height="32" viewBox="0 0 32 32" width="32" xmlns="http://www.w3.org/2000/svg"><path d="m16 5.5c5.7862 0 10.5 4.7138 10.5 10.5s-4.7138 10.5-10.5 10.5-10.5-4.7138-10.5-10.5 4.7138-10.5 10.5-10.5z" fill="#31afd8"/><path clip-rule="evenodd" d="m17.2281 10.721c0-.649-.517-1.17699-1.166-1.17699s-1.177.51699-1.177 1.16599.528 1.177 1.166 1.177c.649 0 1.177-.517 1.177-1.166zm-.165 3.993c0-.484-.396-.88-.88-.88h-1.573c-.484 0-.88.396-.88.88s.396.88.88.88h.693v3.982h-.803c-.484 0-.88.396-.88.88s.396.88.88.88h3.3c.484 0 .88-.396.88-.88s-.396-.88-.88-.88h-.737z" fill="#fff" fill-rule="evenodd"/></svg>