<svg fill="none" height="32" viewBox="0 0 32 32" width="32" xmlns="http://www.w3.org/2000/svg"><path d="m13.7406 5.29487c.1655 0 .3263.05471.4574.1556l4.0386 3.1075c.3283.25259.3897.72348.1371 1.05177-.0396.05141-.0856.09748-.1371.13704l-4.0386 3.10752c-.3283.2526-.7992.1912-1.0518-.1371-.1008-.1311-.1556-.2919-.1556-.4573l-.0002-2.54603-1.8948.00075c-1.27023 0-2.31.98688-2.39444 2.23568l-.00553.1643-.0002 8.5573c.95496.2627 1.65647 1.1373 1.65647 2.1757 0 1.2461-1.01017 2.2563-2.25627 2.2563-1.24611 0-2.25627-1.0102-2.25627-2.2563 0-1.0384.7015-1.913 1.65646-2.1757l-.00019-8.5573c0-1.9241 1.50946-3.49561 3.40877-3.59499l.1912-.00499 1.8948-.00075.0002-2.469c0-.41421.3358-.75.75-.75z" fill="#9fc4b5"/><path d="m23.9044 6.85835c1.2461 0 2.2563 1.01016 2.2563 2.25627 0 1.03838-.7015 1.91298-1.6565 2.17568l.0002 8.4491c0 1.9241-1.5095 3.4956-3.4088 3.595l-.1912.005-1.8957-.0001.0007 2.6158c0 .1323-.035.2617-.1007.3753l-.0549.0821c-.2297.2984-.6397.3762-.959.1981l-.0928-.0611-4.0386-3.1075c-.0514-.0396-.0975-.0856-.1371-.137-.2296-.2985-.1998-.7148.0542-.9778l.0829-.074 4.0386-3.1075c.1311-.1009.2919-.1556.4574-.1556.3797 0 .6935.2821.7431.6482l.0069.1018-.0007 2.3992 1.8957.0001c1.2702 0 2.31-.9869 2.3945-2.2357l.0055-.1643.0002-8.4491c-.955-.2627-1.6565-1.1373-1.6565-2.17568 0-1.24611 1.0102-2.25627 2.2563-2.25627z" fill="#40896b"/></svg>