<svg fill="none" height="32" viewBox="0 0 32 32" width="32" xmlns="http://www.w3.org/2000/svg"><path d="m16.0002 4.89871c4.342 0 7.8792 3.53723 7.8792 7.87919 0 4.1383-3.2133 7.5456-7.2739 7.8561l.0103 2.6484c.0022.5507.4493.996 1 .996l4.6635-.0005c.262-.9359 1.1212-1.6223 2.1408-1.6223 1.2276 0 2.2228.9952 2.2228 2.2228 0 1.2277-.9952 2.2229-2.2228 2.2229-1.0199 0-1.8794-.6869-2.1411-1.6232l-4.6632.0003c-1.2116 0-2.1952-.9796-2.2-2.1912l-.0108-2.6525c-4.0654-.3056-7.28391-3.7151-7.28391-7.8568 0-4.34196 3.53721-7.87919 7.87911-7.87919z" fill="#af8c1d"/><path d="m7.58029 22.6555c1.01952 0 1.87874.6864 2.14077 1.6223l4.13634.0006c.3314 0 .6.2686.6.6s-.2686.6-.6.6l-4.13607-.0003c-.2617.9363-1.12116 1.6232-2.14104 1.6232-1.22766 0-2.22287-.9952-2.22287-2.2229 0-1.2276.99521-2.2229 2.22287-2.2229z" fill="#b2b2b2"/><path clip-rule="evenodd" d="m16.1202 7.55693c2.334.07869 4.0409 2.26614 3.6485 4.56817-.3788 2.225-2.4244 3.7728-3.6209 6.0829-.067.1294-.2546.1294-.3216-.001-1.3227-2.5655-3.6826-4.3501-3.6826-6.8093 0-2.16713 1.7926-3.91489 3.9766-3.84077zm-.1331 5.65277c1.0005 0 1.8121-.8116 1.8121-1.812 0-1.0005-.8116-1.81207-1.8121-1.81207-1.0006 0-1.812.81157-1.812 1.81207 0 1.0004.8114 1.812 1.812 1.812z" fill="#fff" fill-rule="evenodd"/></svg>