<svg fill="none" height="32" viewBox="0 0 32 32" width="32" xmlns="http://www.w3.org/2000/svg"><path d="m16 5.5c5.7862 0 10.5 4.7138 10.5 10.5s-4.7138 10.5-10.5 10.5-10.5-4.7138-10.5-10.5 4.7138-10.5 10.5-10.5z" fill="#b75c64"/><path d="m15.7712 9.55625c.385 0 .7016.29257.7397.66745l.0038.0761v4.7089c0 .1368.111.2478.2479.2478.1197 0 .2196-.085.2427-.1979l.0051-.0499v-4.2133l.0038-.076c.0381-.3749.3547-.6675.7397-.6675s.7016.2926.7397.6675l.0038.076v4.7089c0 .1368.111.2479.2478.2479.1197 0 .2197-.085.2428-.1979l.0051-.05v-3.2219l.0038-.076c.0381-.3749.3547-.6675.7397-.6675s.7016.2926.7397.6675l.0038.076-.0013 6.784c-.0248.8922-.4321 3.3774-3.7693 3.3774-2.0228 0-3.1349-.7683-3.8298-1.7685l-2.377-3.5997c-.2934-.457-.1884-1.0429.2354-1.3115.4003-.2473.938-.1257 1.2478.2717l.0554.0777 1.0037 1.3735v-6.1959l.0038-.076c.0381-.3749.3547-.6675.7397-.6675s.7016.2926.7397.6675l.0038.076v3.7176c0 .1368.1111.2478.2479.2478.1197 0 .2196-.085.2428-.1979l.005-.0499v-4.7089l.0038-.0761c.0381-.37488.3547-.66745.7397-.66745z" fill="#fff"/></svg>