<svg fill="none" height="32" viewBox="0 0 32 32" width="32" xmlns="http://www.w3.org/2000/svg"><path d="m16.0002 4.62085c4.342 0 7.8792 3.53724 7.8792 7.87915 0 4.1383-3.2133 7.5456-7.2739 7.8561l.0103 2.6484c.0022.5508.4493.9961 1 .9961l4.6635-.0006c.262-.9359 1.1212-1.6223 2.1408-1.6223 1.2276 0 2.2228.9952 2.2228 2.2229 0 1.2276-.9952 2.2228-2.2228 2.2228-1.0199 0-1.8794-.6868-2.1411-1.6232l-4.6632.0004c-1.2116 0-2.1952-.9797-2.2-2.1913l-.0108-2.6524c-4.0654-.3057-7.28391-3.7152-7.28391-7.8569 0-4.34191 3.53721-7.87915 7.87911-7.87915z" fill="#e65290"/><path d="m7.58029 22.3777c1.01952 0 1.87874.6864 2.14077 1.6222l4.13634.0007c.3314 0 .6.2686.6.6 0 .3313-.2686.6-.6.6l-4.13607-.0004c-.2617.9364-1.12116 1.6232-2.14104 1.6232-1.22766 0-2.22287-.9952-2.22287-2.2228 0-1.2277.99521-2.2229 2.22287-2.2229z" fill="#b2b2b2"/><path d="m13.2627 7.87554c.3313 0 .6.26863.6.6s-.2687.6-.6.6h-.4132c-.0362 0-.0674.01431-.0918.04243-.0158.01824-.0223.04138-.0186.06701l.4005 2.56822c.0883.5665.5745.977 1.1653.977s1.077-.4105 1.1653-.9772l.402-2.57691c.0028-.01647-.0037-.03912-.0192-.05712-.0253-.02911-.0565-.04343-.0927-.04343h-.3721c-.3314 0-.6-.26863-.6-.6s.2686-.6.6-.6h.3721c.3848 0 .7462.1658.9995.45752.2491.28799.3588.67172.2967 1.03618l-.4006 2.56856c-.1482.9514-.8483 1.6878-1.7496 1.9175l-.0006.9809c0 .9333.7566 1.6899 1.6899 1.6899s1.6899-.7566 1.6899-1.6899l-.0004-.2801c-.4526-.2222-.7642-.6876-.7642-1.2259 0-.7536.611-1.3646 1.3646-1.3646.7537 0 1.3647.611 1.3647 1.3646 0 .5387-.3121 1.0044-.7652 1.2263l.0005.2797c0 1.596-1.2938 2.8899-2.8899 2.8899-1.596 0-2.8899-1.2939-2.8899-2.8899l-.0002-.9804c-.9023-.2291-1.6032-.9659-1.7515-1.9178l-.4015-2.57397c-.0544-.37346.0518-.7469.2984-1.03196.2525-.29075.6138-.45653.9986-.45653z" fill="#fff"/></svg>