<svg fill="none" height="32" viewBox="0 0 32 32" width="32" xmlns="http://www.w3.org/2000/svg"><path d="m16 5.5c5.7862 0 10.5 4.7138 10.5 10.5s-4.7138 10.5-10.5 10.5-10.5-4.7138-10.5-10.5 4.7138-10.5 10.5-10.5z" fill="#4da86d"/><path d="m16.4088 15.3998c.0001-.442.0002-1.1267.0004-2.5073 0-.4142.3358-.75.75-.75.1654 0 .3262.0547.4573.1556l4.0387 3.1075c.3283.2526.3896.7235.137 1.0517-.0395.0515-.0856.0975-.137.1371l-4.0387 3.1075c-.3282.2526-.7991.1912-1.0517-.1371-.1009-.1311-.1556-.2919-.1556-.4573-.0002-1.3597-.0003-2.0573-.0003-2.5077-.7732 0-4.7016-.0074-6.2052-.0103-.3252-.0006-.58651-.2645-.58651-.5897 0-.3252.26131-.589.58651-.5896 1.5036-.0029 5.432-.0104 6.2051-.0104z" fill="#fff"/></svg>