<svg width="32" height="32" viewBox="0 0 32 32" fill="none" xmlns="http://www.w3.org/2000/svg">
<path d="M19.4824 14.2646L13.3145 20.4316L11.1963 21.1514C11.1455 21.1685 11.0898 21.1686 11.0391 21.1514C10.9118 21.108 10.8437 20.9691 10.8867 20.8418L11.6064 18.7236L17.7744 12.5566L19.4824 14.2646Z" fill="black"/>
<path d="M19.9424 10.8359C20.2524 10.8359 20.5523 10.9644 20.7715 11.1904L20.8496 11.2793L20.9189 11.373C21.2372 11.8565 21.1883 12.5182 20.7744 12.9385L20.085 13.6514L18.374 11.9404L19.0996 11.1758L19.1865 11.0986C19.3957 10.928 19.659 10.8361 19.9424 10.8359Z" fill="black"/>
<path fill-rule="evenodd" clip-rule="evenodd" d="M16 5.40039C21.8396 5.40066 26.6004 10.1603 26.6006 16C26.6004 21.8397 21.8396 26.6003 16 26.6006C10.1603 26.6004 5.39963 21.8397 5.39941 16C5.39963 10.1603 10.1603 5.4006 16 5.40039ZM16 6.60059C10.8203 6.6008 6.6008 10.8203 6.60059 16C6.6008 21.1797 10.8203 25.4002 16 25.4004C21.1796 25.4001 25.4002 21.1797 25.4004 16C25.4002 10.8203 21.1796 6.60085 16 6.60059Z" fill="black"/>
</svg>
