<svg height="32" viewBox="0 0 32 32" width="32" xmlns="http://www.w3.org/2000/svg"><path d="m26.0785611 5.59c1.8458976 0 3.3785881 1.39308884 3.5787463 3.21629726l.0159108.19010259.0055896.17627279c.008381.30728903-.2150735.56605863-.5098388.61056807l-.0904079.00675929h-5.5561276l-.0004695 2.521.010036.01.2351733-.0370207c.9236055-.149782 1.8074364.3948909 2.1119904 1.3097637l.0453029.155851.0209139.1076151.0406195.2507909.2106616.1063553c.8331386.4188667 1.2301073 1.3735623.9441846 2.2940364l-.0540191.1529977-.0483495.1046107-.1164776.2319999.1116659.2146129c.4258114.8265992.18743 1.8284303-.5776528 2.4038444l-.1404541.0969948-.095792.0537641-.235767.1227838-.0363441.2395011c-.1267046.8208729-.7678465 1.4522809-1.5672943 1.5836693l-.1516646.0187c-.082574.0068326-.1656335.0050947-.2478494-.0051859l-.4488476-.0566845-.009036.009.0000632 1.131c0 1.912694-1.4916409 3.4769967-3.462872 3.5858574l-.0315246.006364-.1056034.0077786h-14.00158835c-1.84589752 0-3.37858806-1.3930888-3.57874622-3.2162973l-.01591084-.1901026-.00558955-.1762727c-.00838102-.3072891.21507343-.5660587.50983872-.6105681l.09040789-.0067593h5.40099469l.0005937-13.02c0-1.92408881 1.5094666-3.49562279 3.40880776-3.59500991l.1911922-.00499009zm-9.7061222 17.82h-12.77600005l.0580063.1904962c.29065514.834145 1.02846576 1.4558351 1.92166728 1.5847881l.18062573.0191378.16470069.0055779h11.31900005l-.0839124-.0959388c-.3114086-.3740355-.5467346-.8104899-.6866171-1.2845648l-.061898-.2400577zm6.9389103-2.9814188.2750569.0394356.5433347.0679407c.3143488-.0260109.5817264-.2640698.6319596-.5895128l.0972604-.6301146c.0201843-.1307663.1012816-.2441713.2185006-.3055468l.585674-.3066576.0575841-.0328665c.3020362-.1917088.412971-.5853122.2461704-.9091111l-.2927785-.5683513c-.0608325-.1180901-.0617076-.25811-.0023561-.3769513l.2931603-.5870026.0289516-.0638712c.1311653-.332376-.0108025-.71588-.3362258-.879489l-.5663264-.2847248c-.1190957-.0598763-.2023511-.1731239-.2239736-.3046588l-.1060685-.6452388-.0130974-.0649073c-.0873757-.3479535-.4282542-.5769361-.7889066-.5184487l-.6253343.101411-.0783902.0052139c-.0780136-.0021898-.1539193-.0262802-.2189179-.0694785l-.061037-.0494642-.4733413-.4639757c-.0819282-.0818304-.1790707-.1390878-.282284-.171784l-.1048981-.0245094-.1069135-.0081378-.1068968.0082312c-.141615.0218866-.2777674.0874171-.3867838.1965641l-.4573636.4579112c-.0561839.0562512-.1264119.0944548-.2019021.1117232l-.0769191.010183-.0784758-.0044156-.6536682-.0991997-.0946438-.0078611-.1017524.0059214c-.3003518.0397708-.5508837.2734173-.5984443.5880137l-.094869.6275238c-.0199556.1319991-.1019561.2464417-.2205299.3077788l-.5830921.3016278-.0588567.0333445c-.3026486.1911344-.4144559.5844909-.2483737.9086588l.2900043.5660453c.0603921.1178764.061141.2574445.0020175.3759622l-.2937973.5889393-.0280937.0618705c-.1321862.3327002.0089583.716508.3340296.880815l.5751538.290711c.1186267.0599597.201525.1729222.2231447.3040711l.1065161.6461433.0136656.0671544c.0765811.3007606.3427459.5120989.646882.5247149l.052433-.000453.4588253-.0680314.2555426-.0414416.0783869-.0052139.0769819.0093852c.0756278.016478.1462154.0539241.2029646.109546l.4712264.4618661.0504311.0455874c.1155879.0949408.2536215.1474624.3938323.1578021l.1052495-.0001506.1041657-.0159466c.1029905-.0238372.2015049-.071335.2869925-.1423934l.049661-.0454614.4548177-.4579116c.0556906-.0560695.1253209-.0943579.2002763-.1119799l.0764114-.0106263zm-8.4242252-2.5040982h-3.32l-.09699.00789c-.28431.04671-.50301.29511-.50301.59211s.2187.5454.50301.59211l.09699.00789h3.32l.09699-.00789c.28431-.04671.50301-.29511.50301-.59211 0-.33-.27-.6-.6-.6zm0-3.69868h-3.32l-.09699.00789c-.28431.04671-.50301.29511-.50301.59211s.2187.5454.50301.59211l.09699.00789h3.32l.09699-.00789c.28431-.04671.50301-.29511.50301-.59211 0-.33-.27-.6-.6-.6zm3-3.6986801h-6.32l-.09699.00789c-.28431.04671-.50301.29511-.50301.59211s.2187.5454.50301.59211l.09699.00789h6.32l.09699-.00789c.28431-.04671.50301-.29511.50301-.59211 0-.33-.27-.6-.6-.6zm8.1270971-3.73737315-.1588936.00433831c-.9830404.05695867-1.8026805.70421575-2.1187613 1.58767708l-.0641273.20823486h4.73l-.056884-.19049623c-.2906552-.83414498-1.0284658-1.45583508-1.9216673-1.58478812l-.1806258-.01913773z"/></svg>