<svg height="32" viewBox="0 0 32 32" width="32" xmlns="http://www.w3.org/2000/svg"><path d="m26.0785611 5.59c1.8458976 0 3.3785881 1.39308884 3.5787463 3.21629726l.0159108.19010259.0064336.17627279c.007537.30728903-.2159175.56605863-.5106828.61056807l-.0904079.00675929h-5.5561276l-.0005061 1.6905c-.0000991.3311237-.2685557.5995-.5996795.5995-.2979564 0-.5451393-.2173873-.5915964-.5022094l-.0078456-.0972906.0002213-2.2905c0-.82308243.2762231-1.58164951.7410268-2.18805879l.1313744-.161546.0440105-.05039521h-11.3164117c-1.2702549 0-2.31002121.98683903-2.3944631 2.23570408l-.00553687.16432184-.00158838 13.01997408h7.40158835c.1486435 0 .2846624.0540526.3894732.1435743l.0494195.0473096.0503421.0616553.0493509.0827218.0342015.0855539.0163654.065183.0083013.0595089.0042657.145827.0094454.1406662.0111794.0970213.0220964.1330282.0293333.1306752c.0603185.2373946.1561257.4616873.2817197.6661287l.1096712.1621466.0675988.0890231.0827881.0973338c.0489872.0551047.1007904.1077599.154961.15794.0886144.081629.1829271.1566715.2827185.2242858.1068699.0725549.2204229.1366374.3396276.1911451l.182917.0744429.8625436.1445296c1.1983191-.0187576 2.1834367-.9157602 2.339989-2.075644l.0161546-.1597376.0055368-.1643187-.000091-.29c-.0000935-.2981402.2173502-.5455438.5023334-.5921189l.0974783-.0078811c.3314013 0 .6000843.2685987.6001883.6l.000091.29c0 1.912694-1.4916409 3.4769967-3.462872 3.5858574l-.0315246.006364-.1056034.0077786h-14.00158835c-1.84589752 0-3.37858806-1.3930888-3.57874622-3.2162973l-.01591084-.1901026-.00643354-.1762727c-.00753703-.3072891.21591742-.5660587.51068271-.6105681l.09040789-.0067593h5.40099469l.0005937-13.02c0-1.92408881 1.5094666-3.49562279 3.40880776-3.59500991l.1911922-.00499009zm-9.7061222 17.82h-12.77600005l.0580063.1904962c.29065514.834145 1.02846576 1.4558351 1.92166728 1.5847881l.18062573.0191378.16470069.0055779h11.31900005l-.0839124-.0959388c-.3114086-.3740355-.5467346-.8104899-.6866171-1.2845648l-.061898-.2400577zm5.6357137-10.6222204.1069135.0081378c.1416593.0217643.2779444.0871862.3871821.1962934l.4733413.4639757c.0756659.0741688.1759368.1160229.2799549.1189427l.0783902-.0052139.6253343-.101411c.3606524-.0584874.7015309.1704952.7889066.5184487l.0130974.0649073.1060685.6452388c.0216225.1315349.1048779.2447825.2239736.3046588l.5663264.2847248c.3254233.163609.4673911.547113.3362258.879489l-.0289516.0638712-.2931603.5870026c-.0593515.1188413-.0584764.2588612.0023561.3769513l.2927785.5683513c.1668006.3237989.0558658.7174023-.2461704.9091111l-.0575841.0328665-.585674.3066576c-.117219.0613755-.1983163.1747805-.2185006.3055468l-.0972604.6301146c-.0502332.325443-.3176108.5635019-.6319596.5895128l-.5433347-.0679407-.2750569-.0394356-.0780471-.0037924-.0764114.0106263c-.0749554.017622-.1445857.0559104-.2002763.1119799l-.4548177.4579116-.049661.0454614c-.0854876.0710584-.184002.1185562-.2869925.1423934l-.1041657.0159466-.1052495.0001506c-.1402108-.0103397-.2782444-.0628613-.3938323-.1578021l-.0504311-.0455874-.4712264-.4618661c-.0756656-.0741626-.1759328-.1160124-.2799465-.1189312l-.0783869.0052139-.2555426.0414416-.4588253.0680314-.052433.000453c-.3041361-.012616-.5703009-.2239543-.646882-.5247149l-.0136656-.0671544-.1065161-.6461433c-.0216197-.1311489-.104518-.2441114-.2231447-.3040711l-.5751538-.290711c-.3250713-.164307-.4662158-.5481148-.3340296-.880815l.0280937-.0618705.2937973-.5889393c.0591235-.1185177.0583746-.2580858-.0020175-.3759622l-.2900043-.5660453c-.1660822-.3241679-.0542749-.7175244.2483737-.9086588l.0588567-.0333445.5830921-.3016278c.1185738-.0613371.2005743-.1757797.2205299-.3077788l.094869-.6275238c.0528452-.3495516.356272-.5991649.7001967-.5939351l.0946438.0078611.6536682.0991997.0784758.0044156.0769191-.010183c.0754902-.0172684.1457182-.055472.2019021-.1117232l.4573636-.4579112c.1090164-.109147.2451688-.1746775.3867838-.1965641zm-7.1210286 5.1367034c.33 0 .6.27.6.6 0 .297-.2187.5454-.50301.59211l-.09699.00789h-3.32c-.33 0-.6-.27-.6-.6 0-.297.2187-.5454.50301-.59211l.09699-.00789zm0-3.69868c.33 0 .6.27.6.6 0 .297-.2187.5454-.50301.59211l-.09699.00789h-3.32c-.33 0-.6-.27-.6-.6 0-.297.2187-.5454.50301-.59211l.09699-.00789zm3-3.6986801c.33 0 .6.27.6.6 0 .297-.2187.5454-.50301.59211l-.09699.00789h-6.32c-.33 0-.6-.27-.6-.6 0-.297.2187-.5454.50301-.59211l.09699-.00789zm8.1270971-3.73737315-.1588936.00433831c-.9830404.05695867-1.8026805.70421575-2.1187613 1.58767708l-.0641273.20823486h4.73l-.056884-.19049623c-.2906552-.83414498-1.0284658-1.45583508-1.9216673-1.58478812l-.1806258-.01913773z"/></svg>