<svg height="32" viewBox="0 0 32 32" width="32" xmlns="http://www.w3.org/2000/svg"><g fill="none" fill-rule="evenodd"><path d="m26.7154798 5.59c-1.7630069 0-3.1922063 1.42919947-3.1922063 3.19220637l-.0002463 14.02779363c0 1.912694-1.4916409 3.4769967-3.462872 3.5858574l-.0315246.006364-.1056034.0077786h-.0373081c-1.9115997 0-3.472933-1.4996688-3.571675-3.3866815l-.0049577-.1899512v-.6163622h-7.98684656l.0007874-13.0270051c0-1.92408881 1.5094666-3.49562279 3.40880776-3.59500991l.1911922-.00499009z" fill="#a1e0f1" fill-rule="nonzero"/><path d="m22.536205 13.2893186.5916765.5799696c.1056814.1035904.2497607.1567511.3958682.1479393l-.0017057 8.566552-.0720217-.0037384c-.1292471.0058731-.2530419.0598087-.3458596.1532577l-.5685222.5723895-.0620762.0568269c-.3205784.2664688-.7877091.2678816-1.1128001.0008606l-.0630388-.0569843-.589033-.5773326c-.1182275-.115879-.284505-.1686473-.4479167-.1421466l-.3194283.051802-.5735316.0850393-.0655413.0005662c-.3801701-.01577-.7128761-.2799429-.8086025-.6558936l-.0170819-.083943-.1331452-.8076792c-.0270247-.1639362-.1306475-.3051393-.2789309-.3800889l-.7189422-.3633887c-.2794298-.1412376-.4501362-.4122271-.4757763-.702966l-.0030973-.1831599.0026058-3.9384836 2.5967697-1.7236905.8170852.1239996c.1637575.0248516.3295715-.0296733.4466212-.1468632l.5717045-.5723891c.3406763-.3410843.8933525-.341415 1.2347204-.0004551z" fill="#6db3c6" fill-rule="nonzero"/><path d="m29.9076862 8.78220637c0-1.7630069-1.4291995-3.19220637-3.1922064-3.19220637s-3.1922063 1.42919947-3.1922063 3.19220637v.55011389h6.3844127z" fill="#2289a3"/><path d="m16.3090864 22.2170051v.6163622c0 1.9753197 1.601313 3.5766327 3.5766327 3.5766327h-13.79632339l-.00093615-.0019949-.02436726.0019949c-1.91159972 0-3.47293303-1.4996688-3.57167504-3.3866815l-.0049577-.1899512v-.6163622z" fill="#00b1dd"/><g fill-rule="nonzero"><path d="m15.2777684 18.1699635c.3605255 0 .655501.2949754.655501.6555009 0 .3244729-.2389301.5958503-.5495392.6468811l-.1059618.0086198h-4.0896127c-.3605255 0-.6555009-.2949754-.6555009-.6555009 0-.324473.23893-.5958504.5495391-.6468811l.1059618-.0086198zm0-4.0408137c.3605255 0 .655501.2949754.655501.6555009 0 .324473-.2389301.5958504-.5495392.6468811l-.1059618.0086199h-4.0896127c-.3605255 0-.6555009-.2949755-.6555009-.655501 0-.3244729.23893-.5958503.5495391-.646881l.1059618-.0086199zm5-4.0408136c.3605255 0 .655501.2949754.655501.6555009 0 .324473-.2389301.5958503-.5495392.6468811l-.1059618.0086198h-9.0896127c-.3605255 0-.6555009-.2949754-.6555009-.6555009 0-.324473.23893-.5958503.5495391-.6468811l.1059618-.0086198z" fill="#2289a3"/><path d="m22.536205 11.9433186.5916765.5799696c.1182281.1158888.2845125.1686629.4479315.1421611l.7816678-.1267639c.4508155-.0731092.8769136.2131191.9861332.648061l.0163718.0811341.1325856.8065485c.0270281.1644186.1310974.3059781.279967.3808235l.707908.355906c.4067791.2045113.5842389.6838912.4202822 1.0993613l-.0361894.079839-.3664504.7337533c-.0741894.1485516-.0730955.3235764.0029452.471189l.3659731.7104391c.2085007.4047487.0698321.8967529-.3077131 1.1363889l-.07198.0410832-.7320926.3833219c-.1465237.0767194-.2478954.2184756-.2731257.3819335l-.1215755.7876433c-.0627916.4068037-.3970136.7043773-.7899496.7368909l-.6791683-.0849258-.3438212-.0492944c-.1629725-.0233658-.3273963.0317058-.4434184.1485171l-.5685222.5723895-.0620762.0568269c-.3205784.2664688-.7877091.2678816-1.1128001.0008606l-.0630388-.0569843-.589033-.5773326c-.1182275-.115879-.284505-.1686473-.4479167-.1421466l-.3194283.051802-.5735316.0850393-.0655413.0005662c-.3801701-.01577-.7128761-.2799429-.8086025-.6558936l-.0170819-.083943-.1331452-.8076792c-.0270247-.1639362-.1306475-.3051393-.2789309-.3800889l-.7189422-.3633887c-.4063392-.2053838-.5827698-.6851435-.417537-1.1010187l.0351171-.0773382.3672466-.7361741c.0739044-.1481471.0729682-.3226073-.0025218-.4699528l-.3625054-.7075566c-.2076028-.4052099-.0678437-.8969055.3104671-1.1358234l.0735709-.0416807.7288651-.3770348c.1482173-.0766713.2507179-.2197246.2756624-.3847234l.1185862-.7844048c.0720616-.4766612.5168894-.8046541.9935507-.7325925l.8170852.1239996c.1637575.0248516.3295715-.0296733.4466212-.1468632l.5717045-.5723891c.3406763-.3410843.8933525-.341415 1.2347204-.0004551z" fill="#f8c31c"/><path d="m21.9324213 13.0337795.3554524.3464725.1217885.1085647c.3365748.272538.7640041.4081923 1.1961421.3796226l.1621043-.0184651.4590914-.0749742.0814637.4940802.0343217.1605686c.111321.4213676.3787396.7851221.7477137 1.0170728l.1430192.0806583.4164817.2086201-.2254732.4519548-.0660787.1496974c-.156316.405241-.1535044.855069.007865 1.2583244l.0679448.1488597.2167421.4211637-.4524102.2374438-.140663.0823514c-.3626201.2360315-.623206.6004296-.729332 1.0198834l-.0324546.1597327-.0701402.4545887-.1857045-.0226509-.3224091-.046421-.1615251-.0154413c-.4302386-.0207375-.8530041.1208622-1.1839585.3965513l-.1196395.1096136-.333342.3351278z" fill="#a57d00"/></g></g></svg>