<svg fill="none" height="32" viewBox="0 0 32 32" width="32" xmlns="http://www.w3.org/2000/svg"><g fill="#000"><path d="m17.9999 4.78338c-.2314-.8883-1.039-1.54398-1.9998-1.54398-1.1413 0-2.0665.92519-2.0665 2.06648 0 1.14128.9252 2.06648 2.0665 2.06648.8991 0 1.6641-.5742 1.948-1.37726 4.691.90894 8.2331 5.0383 8.2331 9.9949 0 .3314.2686.6.6.6.3313 0 .6-.2686.6-.6 0-5.6037-4.0499-10.26148-9.3813-11.20662z"/><path d="m11.1292 6.35332c.1657.28698.0674.65393-.2196.81962-4.29266 2.47836-6.09774 7.61066-4.53925 12.12776.11944-.022.24261-.0332.36841-.0332 1.14129 0 2.06648.9252 2.06648 2.0665 0 1.1412-.92519 2.0664-2.06648 2.0664-1.14128 0-2.06648-.9252-2.06648-2.0664 0-.5791.23819-1.1026.62195-1.4778-1.84509-5.0883.16402-10.92157 5.01537-13.72249.287-.16569.6539-.06736.8196.21961z"/><path d="m25.2618 19.2675c1.1413 0 2.0665.9252 2.0665 2.0665s-.9252 2.0664-2.0665 2.0664c-.1931 0-.38-.0264-.5573-.076-3.4835 4.1455-9.5419 5.3237-14.3946 2.522-.287-.1657-.38533-.5327-.2196-.8197.1656-.2869.5326-.3853.8196-.2196 4.2944 2.4794 9.6442 1.4747 12.7764-2.1371-.3065-.36-.491-.8265-.491-1.336 0-1.1413.9252-2.0665 2.0665-2.0665z"/><path d="m12.8574 13.6437v7.1368h-2.2363v-7.1368z"/><path clip-rule="evenodd" d="m14.1221 20.7805v-9.0597l3.6281-2.39597 3.6281 2.39597v9.0597zm4.7814-6.6032c-.1949.4669-.6521.7703-1.1581.7685-.6885-.0025-1.2454-.5614-1.2454-1.25 0-.506.305-.962.7727-1.1552.4676-.1933 1.0056-.0855 1.3628.273.3571.3584.4629.8968.268 1.3637zm0 3.9958c-.1949.4669-.6521.7703-1.1581.7685-.6885-.0025-1.2454-.5614-1.2454-1.25 0-.506.305-.9621.7727-1.1553.4676-.1932 1.0056-.0854 1.3628.273.3571.3585.4629.8969.268 1.3638z" fill-rule="evenodd"/></g></svg>