<svg fill="none" height="32" viewBox="0 0 32 32" width="32" xmlns="http://www.w3.org/2000/svg"><g clip-rule="evenodd" fill-rule="evenodd"><path d="m14.1214 13.6437v7.1368h-3.5003v-7.1368z" fill="#224e5e"/><path d="m21.3783 20.7805h-7.2562v-9.0597l3.6281-2.39597 3.6281 2.39597z" fill="#4588a0"/><g fill="#f1eb7c"><path d="m17.7454 18.9416c.506.0018.9632-.3016 1.1581-.7685.1949-.467.0891-1.0053-.268-1.3638-.3572-.3584-.8952-.4662-1.3628-.273-.4677.1932-.7727.6493-.7727 1.1553 0 .6886.5569 1.2475 1.2454 1.25z"/><path d="m17.7454 14.9458c.506.0018.9632-.3016 1.1581-.7685s.0891-1.0053-.268-1.3638c-.3572-.3584-.8952-.4662-1.3628-.273-.4677.1932-.7727.6493-.7727 1.1553 0 .6886.5569 1.2475 1.2454 1.25z"/></g></g><g fill="#bbd3dc"><path d="m27.3809 15.99c0 .3314-.2687.6-.6.6-.3314 0-.6-.2686-.6-.6 0-5.6228-4.5583-10.18105-10.1811-10.18105-.3314 0-.6-.26863-.6-.6s.2686-.6.6-.6c6.2856 0 11.3811 5.09549 11.3811 11.38105z"/><path d="m10.3099 6.13372c.2869-.16568.6539-.06736.8196.21962.1657.28697.0673.65393-.2196.81961-4.86958 2.81144-6.53801 9.03815-3.72658 13.90765.16568.287.06736.6539-.21962.8196-.28697.1657-.65393.0674-.81961-.2196-3.1428-5.4435-1.27773-12.40407 4.16581-15.54688z"/><path d="m10.3092 25.8464c-.287-.1657-.38533-.5327-.2196-.8197.1656-.2869.5326-.3853.8196-.2196 4.8695 2.8115 11.0962 1.143 13.9076-3.7265.1657-.287.5326-.3853.8196-.2196s.3853.5326.2196.8196c-3.1428 5.4435-10.1033 7.3086-15.5468 4.1658z"/></g><path d="m8.80469 21.334c0 1.1413-.9252 2.0665-2.06648 2.0665-1.14129 0-2.06649-.9252-2.06649-2.0665s.9252-2.0665 2.06649-2.0665c1.14128 0 2.06648.9252 2.06648 2.0665z" fill="#4588a0"/><path d="m18.0664 5.30588c0 1.14128-.9252 2.06648-2.0665 2.06648s-2.0665-.9252-2.0665-2.06648c0-1.14129.9252-2.06648 2.0665-2.06648s2.0665.92519 2.0665 2.06648z" fill="#4588a0"/><path d="m27.3281 21.334c0 1.1413-.9252 2.0665-2.0665 2.0665-1.1412 0-2.0664-.9252-2.0664-2.0665s.9252-2.0665 2.0664-2.0665c1.1413 0 2.0665.9252 2.0665 2.0665z" fill="#4588a0"/></svg>