<svg fill="none" height="32" viewBox="0 0 32 32" width="32" xmlns="http://www.w3.org/2000/svg"><g fill="#000"><path d="m16.0001 3.23938c.9608 0 1.7684.65568 1.9998 1.54399 5.3314.94513 9.3813 5.60293 9.3813 11.20663 0 .3314-.2687.6-.6.6-.3314 0-.6-.2686-.6-.6 0-4.9566-3.5421-9.08598-8.2331-9.99491-.2839.80305-1.0489 1.37725-1.948 1.37725-1.1413 0-2.0665-.92519-2.0665-2.06648 0-1.14128.9252-2.06648 2.0665-2.06648z"/><path d="m10.9096 7.17292c.287-.16568.3853-.53264.2196-.81961-.1657-.28698-.5326-.3853-.8196-.21962-4.85135 2.80093-6.86046 8.63421-5.01537 13.72251-.38376.3752-.62195.8987-.62195 1.4777 0 1.1413.9252 2.0665 2.06648 2.0665 1.14129 0 2.06648-.9252 2.06648-2.0665 0-1.1412-.92519-2.0664-2.06648-2.0664-.1258 0-.24897.0112-.36841.0332-1.55849-4.5171.24659-9.64941 4.53925-12.12778z"/><path d="m25.2618 19.2675c1.1413 0 2.0665.9252 2.0665 2.0665 0 1.1412-.9252 2.0664-2.0665 2.0664-.1931 0-.38-.0264-.5573-.076-3.4835 4.1455-9.5419 5.3237-14.3946 2.5219-.287-.1656-.38533-.5326-.2196-.8196.1656-.2869.5326-.3853.8196-.2196 4.2944 2.4794 9.6442 1.4746 12.7764-2.1372-.3065-.3599-.491-.8264-.491-1.3359 0-1.1413.9252-2.0665 2.0665-2.0665z"/><path d="m17.5291 15.0206c.4554.0016.8668-.2714 1.0423-.6916.1754-.4203.0801-.9048-.2413-1.2274s-.8056-.4196-1.2265-.2457-.6954.5843-.6954 1.0397c0 .6197.5012 1.1227 1.1209 1.125z"/><path d="m17.5291 18.6168c.4554.0017.8668-.2714 1.0423-.6916.1754-.4203.0801-.9048-.2413-1.2274s-.8056-.4196-1.2265-.2457-.6954.5843-.6954 1.0397c0 .6197.5012 1.1228 1.1209 1.125z"/><path clip-rule="evenodd" d="m17.2778 9.44701c.1805-.11919.4147-.11919.5951 0l3.2653 2.15639c.1514.1.2425.2692.2425.4506v8.1537c0 .2982-.2418.54-.54.54h-9.6815c-.2983 0-.54-.2417-.54-.54v-6.4231c0-.2982.2417-.54.54-.54h2.6109v-1.1906c0-.1814.091-.3506.2424-.4506zm-2.4277 10.22069h5.4506v-7.3232l-2.7253-1.7998-2.7253 1.7998zm-1.08 0v-5.3431h-2.0709v5.3431z" fill-rule="evenodd"/></g></svg>