<svg height="32" viewBox="0 0 32 32" width="32" xmlns="http://www.w3.org/2000/svg"><path d="m25.26 23.069442-3.12-2.54c-.18-.15-.43-.18-.64-.07-.21.1-.34.32-.34.55l.03 1.89h-10.68c-1.74 0-3.15-1.41-3.15-3.15s1.41-3.15 3.15-3.15h10.98c2.4 0 4.35-1.95 4.35-4.35 0-2.40000003-1.95-4.35000003-4.35-4.35000003h-10.82l.03-1.89c0-.23-.13-.45-.34-.55s-.46-.07-.64.07l-3.13 2.54c-.14.11-.22.29-.22.47s.08.35.22.47l3.05 2.46000003c.11.09.24.13.38.13.09 0 .17-.02.25-.06.21-.1.34-.31.35-.53l.03-1.91000003h10.84c1.74 0 3.15 1.41000003 3.15 3.15000003s-1.41 3.15-3.15 3.15h-10.98c-2.4 0-4.35 1.95-4.35 4.35s1.95 4.35 4.35 4.35h10.69l.03 1.91c0 .23.14.44.35.53.08.04.17.06.25.06.13 0 .27-.05.38-.13l3.05-2.47c.14-.11.22-.28.22-.47 0-.17-.08-.35-.22-.46z"/></svg>