<svg height="32" viewBox="0 0 32 32" width="32" xmlns="http://www.w3.org/2000/svg"><g fill="none"><path d="m10.51 22.749442c-1.65715729 0-3-1.3428427-3-3s1.34284271-3 3-3h10.98c2.4828427 0 4.5-2.0171573 4.5-4.5 0-2.48284275-2.0171573-4.50000003-4.5-4.50000003h-10.6676002l.0275813-1.73761935c.0000189-.29288469-.1654574-.56398419-.4254911-.68780973-.2597804-.12370495-.57053302-.08878892-.79658109.08702624l-3.13242774 2.54192885c-.17283891.13577835-.27548117.35816991-.27548117.58647399 0 .22385896.09917003.43542169.27238129.58388849l3.05344836 2.46286744c.13346123.1092003.29559256.1632441.47417035.1632441.1123532 0 .2153462-.024968.317082-.075836.2534871-.1206773.4200403-.3774469.4327633-.6573529l.0278121-1.76681113h10.6923426c1.6571573 0 3 1.34284273 3 3.00000003s-1.3428427 3-3 3h-10.98c-2.48284271 0-4.5 2.0171573-4.5 4.5s2.01715729 4.5 4.5 4.5h10.5423375l.027681 1.7623557c-.0000185.2870481.1751847.5516408.4408936.665516.0906457.0456123.2033387.0721283.3090879.0721283.1605233 0 .3313205-.0591221.4682258-.1586896l3.0561759-2.4747415c.175342-.137748.2755983-.3516281.2755983-.5865689 0-.2199408-.1039666-.4417362-.2773268-.5779478l-3.1179721-2.538378c-.2263098-.1886044-.5417959-.2240522-.8043021-.086549-.2549227.1212712-.420399.3923707-.420399.6828748l.0276017 1.74z" fill="#257843"/><path d="m17 16.749442h4.49c2.4828427 0 4.5-2.0171573 4.5-4.5 0-2.48284275-2.0171573-4.50000003-4.5-4.50000003h-10.6676002l.0275813-1.73761935c.0000189-.29288469-.1654574-.56398419-.4254911-.68780973-.2597804-.12370495-.57053302-.08878892-.79658109.08702624l-3.13242774 2.54192885c-.17283891.13577835-.27548117.35816991-.27548117.58647399 0 .22385896.09917003.43542169.27238129.58388849l3.05344836 2.46286744c.13346123.1092003.29559256.1632441.47417035.1632441.1123532 0 .2153462-.024968.317082-.075836.2534871-.1206773.4200403-.3774469.4327633-.6573529l.0278121-1.76681113h10.6923426c1.6571573 0 3 1.34284273 3 3.00000003s-1.3428427 3-3 3h-6.49z" fill="#4da86d"/></g></svg>