<svg height="32" viewBox="0 0 32 32" width="32" xmlns="http://www.w3.org/2000/svg"><path d="m23.9133116 15.298681h4.7999992c.3313709 0 .6.2686814.6.6000522 0 .2982338-.2175896.5456468-.5026769.5921471l-.0973231.0078529-4.2209016.0010597c-.3084012 4.4191909-3.9910421 7.9084287-8.4886382 7.9084287-2.3489323 0-4.5467396-.9572334-6.14098506-2.618805-.2294202-.2391088-.22156605-.6189266.01754274-.8483468.23910882-.2294202.61892662-.221566.84834682.0175427 1.3702195 1.428085 3.2564385 2.2496091 5.2750955 2.2496091 4.0369478 0 7.3095406-3.2725928 7.3095406-7.3095406 0-.3313708.2686292-.6.6-.6zm-10.072145-2.2923716.0830975.0694265 2.0754251 2.0759818 2.0760467-2.0759818.0830975-.0694265c.2338418-.1619953.557151-.1388531.7654307.0694265.2082796.2082797.2314218.5315889.0694265.7654307l-.0694265.0830975-2.0765749 2.0754536 2.0765749 2.0760182c.2343145.2343146.2343145.6142136 0 .8485282-.2082797.2082796-.5315889.2314218-.7654307.0694265l-.0830975-.0694265-2.0760467-2.0765464-2.0754251 2.0765464-.0830975.0694265c-.2338418.1619953-.557151.1388531-.7654307-.0694265-.2082796-.2082797-.2314218-.5315889-.0694265-.7654307l.0694265-.0830975 2.0759533-2.0760182-2.0759533-2.0754536c-.2343145-.2343146-.2343145-.6142136 0-.8485282.2082797-.2082796.5315889-.2314218.7654307-.0694265zm2.1550632-5.50659173c2.3489323 0 4.5467396.95723341 6.1409851 2.61880503.2294202.2391088.221566.6189266-.0175428.8483468s-.6189266.2215661-.8483468-.0175427c-1.3702195-1.42808495-3.2564385-2.24960913-5.2750955-2.24960913-3.9562089 0-7.17833118 3.14299813-7.30563359 7.06826103l-.00390704.2412274c0 .2982337-.21758961.5456467-.50267689.592147l-.09732311.0079052h-4.8c-.33137085 0-.6-.2686814-.6-.6000522 0-.2982338.21758961-.5456468.50267688-.592147l.09732312-.007853 4.22083278-.0000601c.30791555-4.4196644 3.99077265-7.90942833 8.48870785-7.90942833z"/></svg>