<svg fill="none" height="32" viewBox="0 0 33 32" width="33" xmlns="http://www.w3.org/2000/svg"><g fill="#000"><path d="m16.1331 17.825c.33 0 .6-.27.6-.6v-6.03c0-.33-.27-.6-.6-.6s-.6.27-.6.6v6.03c0 .33.27.6.6.6z"/><path d="m16.1331 19.405c-.55 0-1 .44-1 1 0 .55.45 1 1 1s1-.44 1-1c0-.55-.44-1-1-1z"/><path clip-rule="evenodd" d="m11.5854 6.0254-1.0531 2.06999c-.0108.02227-.0306.03653-.0552.04042l-2.25709.34502-.16826.03419c-.96476.2551-1.56222 1.17424-1.40347 2.13288l.37468 2.2625c.00351.0223-.00337.0436-.02411.0644l-1.63161 1.6171-.11611.1269c-.62693.7708-.57252 1.8599.11315 2.5425l1.62424 1.617c.01937.0185.02664.0413.02244.0679l-.36804 2.2659-.0187.1624c-.05911.9946.62718 1.8494 1.58738 1.9983l2.2897.3551c.0207.0032.0423.0191.058.0488l1.0265 2.0389.0863.1521c.5408.8341 1.5939 1.1173 2.4543.6749l2.0322-1.0449c.0226-.0119.0492-.0119.0654-.0033l2.053 1.0519.1552.0703c.9269.3569 1.9455-.0326 2.3818-.8962l1.0435-2.0651c.01-.0208.0298-.0351.0544-.039l2.261-.3456.1635-.033c.9647-.2519 1.565-1.1692 1.4092-2.1283l-.368-2.2658c-.0038-.0242.0031-.0455.0238-.0662l1.6323-1.6323c.7333-.7399.728-1.931-.0099-2.6624l-1.6356-1.6211c-.0184-.0176-.0257-.0403-.0215-.0669l.3676-2.2632.019-.1658c.057-.99532-.6311-1.84871-1.5916-1.99554l-2.264-.34608c-.0195-.00308-.041-.0189-.0568-.04863l-1.0265-2.03892-.0862-.15207c-.5409-.8341-1.5939-1.11736-2.4543-.67494l-2.0323 1.04493c-.0225.01189-.0492.01189-.0653.00333l-2.061-1.05605c-.9261-.47114-2.0587-.10237-2.5299.82367zm1.9857.24587 2.0508 1.05077c.3603.19079.8075.19079 1.1748-.00372l2.0259-1.04161c.3114-.16014.6931-.05747.8821.23338l.0535.09503 1.0166 2.0209c.1955.36965.5376.6205.9387.68383l2.2668.34653c.3477.05315.5971.36242.5775.71042l-.0122.1033-.3638 2.2348c-.0653.4139.0705.839.3758 1.1225l1.6214 1.6075c.2673.2649.2692.6963.0043.9635l-1.6304 1.6305c-.2926.2925-.4242.6989-.3602 1.1044l.3684 2.2685c.0564.3472-.1611.6796-.4983.768l-.102.0202-2.2331.3406c-.4123.065-.7729.3252-.9487.6986l-1.036 2.0501c-.158.3125-.5271.4537-.8509.3294l-.0967-.0442-2.0171-1.0344c-.3602-.1908-.8074-.1908-1.1748.0037l-2.0258 1.0416c-.3115.1602-.6932.0575-.8821-.2333l-.0535-.0951-1.0166-2.0209c-.1956-.3696-.5376-.6205-.9387-.6838l-2.29132-.3553c-.34757-.0539-.5963-.3637-.5759-.7116l.01196-.1013.36432-2.2381c.06536-.4139-.07043-.839-.37575-1.1225l-1.6092-1.6026c-.24819-.2471-.26791-.6418-.04929-.9111l.07268-.0789 1.61119-1.5957c.29445-.2945.4261-.7009.36207-1.1064l-.37541-2.267c-.05746-.347.15908-.68009.49591-.76948l.10504-.021 2.2282-.33974c.4123-.06508.7729-.32522.9486-.69864l1.0451-2.05339c.1706-.33536.5808-.4689.9161-.29828z" fill-rule="evenodd"/></g></svg>