<svg height="32" viewBox="0 0 32 32" width="32" xmlns="http://www.w3.org/2000/svg"><path d="m23.9133119 15.098681h4.7999989c.4418278 0 .8.3582244.8.8000522 0 .4078411-.3051881.7444016-.6996497.7937669l-.1003503.0062331-4.036306.0005673c-.4041825 4.4348705-4.133004 7.9089211-8.6732335 7.9089211-2.4039782 0-4.6537169-.9798516-6.28530001-2.6803377-.3058936-.3188117-.2954214-.8252354.02339032-1.131129.31881169-.3058936.82523539-.2954214 1.13112899.0233903 1.3328819 1.3891705 3.1671695 2.1880764 5.1307807 2.1880764 3.9264908 0 7.1095406-3.1830497 7.1095406-7.1095406l.0065729-.1030287.0258683-.1231723.0271389-.0773036.0289036-.062569.0316819-.0557761.0503372-.0718543.0830463-.0905357.0769891-.0635493.0793125-.0507391.0876947-.04227.0968984-.0324949c.0715892-.0182295.1375827-.026707.2055562-.026707zm-9.9373528-2.2418258.0897263.0774594 1.9340038 1.9344031 1.9346254-1.9344031.0897263-.0774594c.3131856-.2323781.7576269-.2065583 1.0416445.0774594.2840177.2840176.3098375.7284589.0774594 1.0416445l-.0774594.0897263-1.9349962 1.9340323 1.9349962 1.9345969c.3124195.3124194.3124195.8189514 0 1.1313708-.2840176.2840177-.7284589.3098375-1.0416445.0774594l-.0897263-.0774594-1.9346254-1.9349677-1.9340038 1.9349677-.0897263.0774594c-.3131856.2323781-.7576269.2065583-1.0416445-.0774594-.2840177-.2840176-.3098375-.7284589-.0774594-1.0416445l.0774594-.0897263 1.9343746-1.9345969-1.9343746-1.9340323c-.3124195-.3124194-.3124195-.8189514 0-1.1313708.2840176-.2840177.7284589-.3098375 1.0416445-.0774594zm2.0202707-5.55713753c2.4039782 0 4.6537169.97985162 6.2853 2.68033773.3058936.3188117.2954214.8252354-.0233903 1.131129-.3188118.3058936-.8252355.2954214-1.1311291-.0233903-1.3328818-1.38917045-3.1671695-2.18807643-5.1307806-2.18807643-3.8463584 0-6.9793106 3.05445503-7.10558421 6.87009283l-.00395642.2393956-.00385187.0790051-.01625606.1000694-.02908644.0978112-.0250413.0601198-.05355754.0969197-.07577185.0992953-.04709636.0483552-.06828988.0576938-.09392099.0609927-.06647282.0328939-.02500479.010438c-.03216076.0128335-.0649894.0234975-.09866923.0320253l-.09663057.0181474-.1003503.0062854h-4.8c-.4418278 0-.8-.3582244-.8-.8000522 0-.4078411.30518815-.7444016.6996497-.7937669l.1003503-.0062331 4.03629918-.0004809c.40414202-4.4349117 4.13298245-7.90900753 8.67324145-7.90900753z"/></svg>