<svg height="32" viewBox="0 0 32 32" width="32" xmlns="http://www.w3.org/2000/svg"><g fill="none"><path d="m3.28668917 16.8092061c-.4418278 0-.8-.3581722-.8-.8 0-.4078411.30518815-.7444016.6996497-.7937669l.1003503-.0062331 4.03629918-.0004809c.40414202-4.4349117 4.13298245-7.90900753 8.67324145-7.90900753 2.4039782 0 4.6537169.97985162 6.2853 2.68033773.3058936.3188117.2954214.8252354-.0233903 1.131129-.3188118.3058936-.8252355.2954214-1.1311291-.0233903-1.3328818-1.38917045-3.1671695-2.18807643-5.1307806-2.18807643-3.8463584 0-6.9793106 3.05445503-7.10558421 6.87009283l-.00395642.2393956c0 .0533194-.00521624.1054206-.01516626.155821-.0030528.0155342-.00659708.0310276-.01058373.0463424-.00424886.0162472-.00891414.0320873-.01404786.0477148-.00591878.0180865-.01254453.0360405-.01978222.0536786-.00467777.0113412-.00954563.0224626-.0146556.0334487-.00874169.0188598-.01830037.0374612-.02854812.0556222-.00799116.0141023-.0163037.0278389-.02500942.0412975-.00798018.012397-.01642663.024694-.02520112.0367367-.01097136.0150063-.02246783.0296817-.0344525.0439329-.01066506.0127222-.02145283.0247797-.03259215.0364999-.00960574.0100722-.01997603.0204212-.03062244.030481-.01792087.016966-.03624891.0327671-.05527189.0477241-.00415279.0032155-.00856732.0066153-.01301799.0099697-.02043844.0154486-.04146931.0297836-.06318521.043111-.00968478.0059039-.02013658.0120096-.03073578.0178817-.01435639.0079873-.02824776.015143-.04236813.0218967-.01566379.0074565-.03224556.0147244-.04910948.0214352-.03216076.0128335-.0649894.0234975-.09866923.0320253l-.09663057.0181474-.1003503.0062854z" fill="#45889f"/><path d="m23.9133119 15.098681 4.7999989.0000522c.4418278 0 .8.3581722.8.8 0 .4078411-.3051881.7444016-.6996497.7937669l-.1003503.0062331-4.036306.0005673c-.4041825 4.4348705-4.133004 7.9089211-8.6732335 7.9089211-2.4039782 0-4.6537169-.9798516-6.28530001-2.6803377-.3058936-.3188117-.2954214-.8252354.02339032-1.131129.31881169-.3058936.82523539-.2954214 1.13112899.0233903 1.3328819 1.3891705 3.1671695 2.1880764 5.1307807 2.1880764 3.9264908 0 7.1095406-3.1830497 7.1095406-7.1095406 0-.0350488.0022539-.0695712.0066246-.1034302l-.0066257.1034824c0-.0887587.0144547-.1741415.0411385-.2539225.0056439-.0169146.0117844-.0334081.0184427-.0496343.0046767-.0113412.0095445-.0224626.0146545-.0334486.0090746-.0195738.0190206-.0388583.029707-.0576671.0052524-.0091927.0106521-.0182702.016224-.0272294.0128225-.0206716.0265898-.0407099.0412166-.0600625.006054-.0079555.0121438-.0157081.0183718-.0233435.0129995-.0160019.0268354-.0316872.0412576-.0468083.0105055-.0109481.0209018-.0212547.0315731-.0312718.0123696-.0116852.0256959-.0234133.039404-.0346943.0127525-.0104323.0255024-.0202879.0385495-.0297589.0141223-.0103068.0287114-.0201862.0436328-.0295863.0118228-.0073917.0236555-.014423.0356797-.0211528.0231779-.0130406.0474696-.0250839.0724203-.0358929.0051084-.0021607.0101782-.0042945.0152744-.0063771.0246884-.0101425.0500239-.0190439.0759051-.0266717.0066596-.0019152.0138066-.003918.0209933-.0058232.0715892-.0182295.1375827-.026707.2055562-.026707z" fill="#45889f"/><path d="m13.9759591 12.8568552.0897263.0774594 1.9343146 1.9346854 1.9343146-1.9346854.0897263-.0774594c.3131856-.2323781.7576269-.2065583 1.0416445.0774594.2840177.2840176.3098375.7284589.0774594 1.0416445l-.0774594.0897263-1.9346854 1.9343146 1.9346854 1.9343146c.3124195.3124194.3124195.8189514 0 1.1313708-.2840176.2840177-.7284589.3098375-1.0416445.0774594l-.0897263-.0774594-1.9343146-1.9346854-1.9343146 1.9346854-.0897263.0774594c-.3131856.2323781-.7576269.2065583-1.0416445-.0774594-.2840177-.2840176-.3098375-.7284589-.0774594-1.0416445l.0774594-.0897263 1.9346854-1.9343146-1.9346854-1.9343146c-.3124195-.3124194-.3124195-.8189514 0-1.1313708.2840176-.2840177.7284589-.3098375 1.0416445-.0774594z" fill="#cd5145"/></g></svg>