<svg fill="none" height="32" viewBox="0 0 33 32" width="33" xmlns="http://www.w3.org/2000/svg"><path clip-rule="evenodd" d="m15.8681 5.97187-2.2357-1.14548c-.687-.34954-1.5273-.07595-1.8769.61109l-1.1472 2.25488c-.0983.20892-.3072.35639-.5407.39326l-2.46186.37633-.14869.03099c-.68722.18236-1.13591.861-1.01738 1.57676l.40815 2.4646c.03687.2335-.03687.467-.20892.6391l-1.77941 1.7636-.10217.1128c-.44591.5492-.41217 1.3578.09997 1.8677l1.76932 1.7614c.17205.1598.24579.4056.20892.6391l-.40137 2.4712-.01586.1437c-.04162.7098.46274 1.3481 1.17967 1.4593l2.49423.3868c.2335.0368.4301.1843.5407.3932l1.1243 2.2329.077.1342c.3854.5932 1.1652.8098 1.8079.4794l2.2137-1.1383c.2089-.1106.467-.1106.6759 0l2.2287 1.1419.1376.0615c.6604.2536 1.4187-.0292 1.7446-.6742l1.1366-2.2497c.0983-.2089.3073-.3564.5408-.3932l2.4661-.377.1445-.0299c.6878-.1802 1.1386-.8575 1.0223-1.5736l-.4009-2.4682c-.0368-.2335.0369-.467.2089-.6391l1.7782-1.7781c.5426-.5475.5387-1.4312-.0088-1.9739l-1.7816-1.7658c-.1721-.1598-.2458-.4056-.209-.6391l.4009-2.4682.016-.1467c.0401-.70987-.4656-1.34715-1.1827-1.45678l-2.4662-.37699c-.2335-.03687-.4302-.18434-.5408-.39326l-1.1243-2.23291-.077-.13415c-.3854-.59323-1.1652-.80987-1.8078-.47941l-2.2138 1.13827c-.2089.1106-.467.1106-.6759 0zm.2644 3.85313c.5915 0 1.0807.4497 1.1433 1.0249l.0067.1251v5.03c0 .6338-.5162 1.15-1.15 1.15-.5915 0-1.0806-.4497-1.1432-1.0249l-.0068-.1251v-5.03c0-.6338.5163-1.15 1.15-1.15zm0 9.25c.8595 0 1.55.692 1.55 1.55 0 .8595-.6919 1.55-1.55 1.55-.8537 0-1.55-.6962-1.55-1.55 0-.8595.692-1.55 1.55-1.55z" fill="#000" fill-rule="evenodd"/></svg>