<svg fill="none" height="32" viewBox="0 0 33 32" width="33" xmlns="http://www.w3.org/2000/svg"><path d="m25.7609 18.6789c-.172.1721-.2457.4056-.2089.6391l.4009 2.4682c.1236.7609-.393 1.4779-1.1539 1.6015-.0043.0006-.0086.0013-.0129.002l-2.4661.377c-.2335.0368-.4425.1843-.5408.3932l-1.1366 2.2497c-.3476.688-1.1872.9639-1.8752.6163-.0024-.0012-.0047-.0024-.007-.0036l-2.2287-1.1419c-.2089-.1106-.467-.1106-.6759 0l-2.2137 1.1383c-.6855.3525-1.527.0825-1.8795-.603-.0018-.0035-.0036-.0071-.0054-.0106l-1.1243-2.2329c-.1106-.2089-.3072-.3564-.5407-.3932l-2.49423-.3868c-.76174-.1181-1.2835-.8314-1.16538-1.5931.00051-.0033.00103-.0066.00157-.0099l.40137-2.4712c.03687-.2335-.03687-.4793-.20892-.6391l-1.76932-1.7614c-.54628-.5439-.54825-1.4276-.00439-1.9739.00219-.0022.00438-.0044.00659-.0066l1.77941-1.7636c.17205-.1721.24579-.4056.20892-.6391l-.40815-2.4646c-.12594-.76049.38846-1.47908 1.14895-1.60502.0057-.00094.01141-.00185.01712-.00272l2.46186-.37634c.2335-.03687.4424-.18434.5407-.39325l1.1472-2.25489c.3496-.68704 1.1899-.96063 1.8769-.61108l.0036.00181 2.2321 1.14366c.2089.11061.467.11061.6759 0l2.2138-1.13827c.6855-.35249 1.527-.0825 1.8795.60303.0018.0035.0036.00702.0053.01054l1.1243 2.23291c.1106.20891.3073.35638.5408.39325l2.4662.377c.7619.11648 1.2852.82863 1.1688 1.59057-.0007.0043-.0014.0086-.0021.0129l-.4009 2.4682c-.0368.2335.0369.4793.209.6391l1.7816 1.7658c.5475.5427.5514 1.4264.0088 1.9739-.0015.0015-.003.0029-.0044.0044z" fill="#f47321"/><path d="m16.1943 25.7975v-19.74278c.1209.00201.2422-.0256.3503-.08285l2.2137-1.13827c.6855-.35249 1.527-.0825 1.8795.60303.0018.0035.0036.00702.0054.01054l1.1243 2.23291c.1106.20891.3072.35638.5407.39325l2.4662.377c.762.11648 1.2853.82863 1.1688 1.59057-.0006.0043-.0013.0086-.002.0129l-.4009 2.4682c-.0369.2335.0369.4793.2089.6391l1.7816 1.7658c.5475.5427.5515 1.4264.0088 1.9739-.0014.0015-.0029.0029-.0044.0044l-1.7737 1.7737c-.1721.1721-.2458.4056-.2089.6391l.4009 2.4682c.1236.7609-.3931 1.4779-1.1539 1.6015-.0043.0006-.0086.0013-.0129.002l-2.4662.377c-.2335.0368-.4424.1843-.5407.3932l-1.1367 2.2497c-.3476.688-1.1871.9639-1.8752.6163-.0023-.0012-.0046-.0024-.007-.0036l-2.2286-1.1419c-.1045-.0553-.2212-.0829-.338-.0829z" fill="#d85e11"/><path clip-rule="evenodd" d="m17.2762 10.8499c-.0625-.5752-.5517-1.0249-1.1432-1.0249-.6337 0-1.15.5162-1.15 1.15v5.03l.0068.1251c.0626.5752.5517 1.0249 1.1432 1.0249.6338 0 1.15-.5162 1.15-1.15v-5.03zm.4068 9.7751c0-.858-.6905-1.55-1.55-1.55-.858 0-1.55.6905-1.55 1.55 0 .8538.6963 1.55 1.55 1.55.858 0 1.55-.6905 1.55-1.55z" fill="#fff" fill-rule="evenodd"/></svg>