<svg height="32" viewBox="0 0 32 32" width="32" xmlns="http://www.w3.org/2000/svg"><path d="m17.8021534 26.3506551c1.1687488-.0279711 2.2878454-1.6226797 2.2878454-3.4100112 0-1.0841358-.0765039-1.8509442-.3092614-2.7905888l-.0947642-.3614257-.0889732-.3081781 5.9774139-.8191826c.4696676-.0643406.8505338-.3901925.9991839-.8505947l.0346758-.1288048.0225144-.1349044.0045533-.139768c-.070922-2.3371945-.4694619-4.5783055-1.0840018-6.6469412l-.1517017-.4925038-.1535309-.4664488c-.2807058-.82678694-.5504686-1.48520782-.698379-1.77173088-.2905417-.54383895-.7688662-.8324209-1.5285683-.87047816l-.1958417-.00429779-9.5685141 1.10657399-.1481779.02298344c-.1357574.02284808-.3033722.07645074-.4787199.18565539-.2686249.16729663-.4639027.4211966-.524873.76274603l-.0177294.15174768-.0013191.053794-.0046319 8.8785564c0 .5705005.3821944 1.0645803.8868342 1.2202033 2.3473172.9591788 3.6271193 3.2162002 3.6551578 5.6645853.0064624.5951178.4609637 1.080417 1.0404764 1.1424786zm-8.37409694-6.7654058c.54819965 0 1.01829584-.3697067 1.16275874-.9234503l.0274445-.1309695.0097968-.1455802v-10.0038637c0-.54819965-.3697067-1.01829582-.92345044-1.16275877l-.13096942-.02744447-.14558018-.00979676h-3.26878716c-.54819965 0-1.01829582.36970671-1.16275878.9234504l-.02744446.13096942-.00979676.14558018v10.0038637c0 .5481997.3697067 1.0182959.9234504 1.1627588l.13096942.0274445.14558018.0097967zm8.39194354 5.559202-.0062349-.2272942c-.1189341-2.7045418-1.5530401-5.2034109-4.1752897-6.3935399l-.2661807-.1146096c-.0470027-.0147049-.0757813-.0403938-.0872329-.0662838l-.0057093-.0255577.0041809-8.83978646.0175405-.00825866.1143892-.01877788 9.4767564-1.09951625c.3814321 0 .5012672.06484804.5931068.23662476l.0769032.16168941.1073011.25059205c.1968596.47797244.4766503 1.24440383.7314954 2.10225183.5333412 1.7953086.8964 3.7274589 1.0090017 5.7028364l.0261866.5938165-.0005129.0497284-.0078734.0158443-.0162776.0081615-6.6783647.9148174c-.3702648.0507197-.60457.4239376-.4893373.7794512.5107628 1.5757958.6461504 2.354185.6461504 3.7740033 0 1.1403495-.6277333 2.0948855-1.0484897 2.2006925zm-8.39194316-6.7591881-3.22053048.0019299-.04825706-.0019438-.00194377-9.95560663.00197121-.04899128 3.22050265-.00120956.04899128.00197121.00120956 9.95557926z"/></svg>