<svg height="32" viewBox="0 0 32 32" width="32" xmlns="http://www.w3.org/2000/svg"><path d="m16.787798 25.7546244c.655707-.0156927 1.7022008-1.1223895 1.7022008-2.810183 0-1.5240482-.1603763-2.3701131-.6753842-3.9590057l6.6783648-.9148174c.2864544-.0392419.5047203-.2673057.5384055-.5466135l.0042325-.0948118c-.1581194-5.2107353-1.9946725-9.06963326-2.0171014-9.113096-.1872434-.35048406-.4884065-.56147258-1.1262965-.56147258l-9.545658 1.10348557-.1403556.02172s-.4950978.0833253-.5211555.52590015l-.001066.03667715-.0046318 8.87824341c0 .3022479.2065296.5686569.5137934.664785 2.9190539 1.1928062 4.0027512 3.994445 4.0281632 6.2134885.0033405.3076253.2558605.5557002.5664888.5557002zm-7.35974154-6.7655775c.29823376 0 .54564675-.2175896.59214704-.5026769l.007853-.0973231v-10.00386373c0-.29823376-.21758966-.54564675-.50267693-.59214701l-.09732311-.00785299h-3.26878716c-.29823377 0-.54564675.21758961-.59214701.50267688l-.00785299.09732312v10.00386373c0 .2982338.21758961.5456468.50267688.592147l.09732312.007853z"/></svg>