<svg height="32" viewBox="0 0 32 32" width="32" xmlns="http://www.w3.org/2000/svg"><g fill="none"><path d="m16.787798 7.75462442c.655707.01569271 1.7022008 1.1223895 1.7022008 2.81018298 0 1.5240482-.1603763 2.3701131-.6753842 3.9590057l6.6783648.9148175c.2864544.0392419.5047203.2673057.5384055.5466135l.0042325.0948118c-.1581194 5.2107352-1.9946725 9.0696332-2.0171014 9.1130959-.1872434.3504841-.4884065.5614726-1.1262965.5614726l-9.545658-1.1034856-.1403556-.02172s-.4950978-.0833253-.5211555-.5259001l-.001066-.0366772.001066-9.5430284c2.9190538-1.1928061 4.5108468-3.994445 4.5362588-6.2134885.0033405-.30762529.2558605-.55570018.5664888-.55570018z" fill="#f5a8c6" transform="matrix(1 0 0 -1 0 33.509248)"/><path d="m11.6831943 12.4732996 13.0934639 2.0740957c.1330471.8967058.228057 1.863435.2589592 2.8817977l-.0042325.0948118c-.0336852.2793078-.2519511.5073716-.5384055.5466135l-6.6783648.9148174c.5150079 1.5888926.6753842 2.4349575.6753842 3.9590057 0 1.6877935-1.0464938 2.7944903-1.7022008 2.810183-.3106283 0-.5631483-.2480749-.5664888-.5557002-.025412-2.2190435-1.617205-5.0206823-4.5362588-6.2134885z" fill="#ff82bb"/><path d="m5.559269 7.754624h4.468787v11.234423h-4.468787z" fill="#6bbfdd" transform="matrix(1 0 0 -1 0 26.743672)"/></g></svg>