<svg height="32" viewBox="0 0 32 32" width="32" xmlns="http://www.w3.org/2000/svg"><path d="m16.0798034 2.72093437c3.4096335.06267708 6.1540504 2.84598569 6.1540504 6.27060249v.4824398l-.0014577-.00004229-.005212.26735615c-.0077259.16868479-.0221146.33563078-.042909.50058108.5600605.2908677.9828862.8188596 1.1365591 1.4643069l.0340761.1720928.0194777.1571195.0072188.1742426c0 1.0979832-.8006828 2.0195109-1.8872928 2.1919583l-.1439179.0173427-.0561743.2051317c-.457785 1.5021571-1.5344839 2.7416967-2.9435437 3.4107118l-.2378715.1061671-.1268066.049055.1506439.6027051.0657522.2572293.2405392.0004477c1.9882251 0 3.6 1.6117749 3.6 3.6v.2307076c0 .0305825-.0022881.0606306-.0067024.0899824 1.1480668.2326372 2.0337217 1.1363117 2.3359546 2.3726312l.4570131 2.083192c.1729347 1.0943978-.658012 2.0440564-1.7370486 2.0440564h-.3684776c-.3313708 0-.6-.2686291-.6-.6 0-.3313708.2686292-.6.6-.6h.3684776c.3484402 0 .6091841-.2979948.5582377-.6224636l-.4471123-2.0337793c-.2230881-.9118479-.9072664-1.5024691-1.7603421-1.5024691-.8527661 0-1.5362748.5902484-1.7638133 1.5170084l-.4502985 2.0546699c-.0442933.2890779.216402.5870337.5648962.5870337h.3741392c.3313709 0 .6.2686292.6.6 0 .3313709-.2686291.6-.6.6h-.3741392c-1.0791061 0-1.909986-.9496356-1.7437127-2.0086009l.4603419-2.1046647c.306452-1.2488431 1.1917366-2.1537643 2.3392951-2.3865716-.0044184-.0293653-.0067087-.0594276-.0067087-.0900248v-.2307076c0-1.270255-.986839-2.3100213-2.2356813-2.3944632l-.1868579-.0065368-2.4230234 5.0112699-2.4127868-5.0019913c-1.6054844.1168626-2.8717039 1.4564213-2.8717039 3.0917214l.0002578 1.5640892c.9889326.2644568 1.7172281 1.1666744 1.7172281 2.2389945 0 1.2799122-1.0375738 2.3174859-2.3174859 2.3174859-1.27991214 0-2.31748591-1.0375737-2.31748591-2.3174859 0-1.0723201.72829542-1.9745377 1.71722801-2.2389945l.00025787-1.5640892c0-2.3355351 1.86200183-4.2361763 4.18250773-4.2984259l.2136103-.8729562-.104002-.0408558c-1.5124186-.6351245-2.6738788-1.9121594-3.1628532-3.4753712l-.071571-.2491492-.0025738-.0106238-.028798-.0048638c-.89555908-.1914001-1.59084464-.9232337-1.72804141-1.8376855l-.01909693-.1735125-.00557065-.1584472c0-.7639872.38633905-1.4383213.97479062-1.8374662-.02975718-.1936474-.05014789-.39145457-.0611519-.59180058l-.00958362-.32524756v-.4824398c0-3.4246168 2.74447419-6.20792541 6.15411439-6.27060249zm-5.9669214 23.31504563c-.61717044 0-1.11748591.5003154-1.11748591 1.1174858 0 .6171705.50031547 1.1174859 1.11748591 1.1174859.6171704 0 1.1174859-.5003154 1.1174859-1.1174859 0-.6171704-.5003155-1.1174858-1.1174859-1.1174858zm8.8904283-19.93852448c-1.671247 2.86777032-5.6111531 3.32764094-7.4157353 3.38256422l.0013746 1.12990446c-.0000043.2961654-.2147004.5425896-.497522.5912646l-.096596.0086979-.1178258.0079178c-.5023375.0629961-.89051279.4918309-.89051279 1.0106865 0 .5250817.39728529.9573724.91203989 1.0126971l.1120006.0059819.0561494.000504c.2900457.0026036.5366995.21232.5859146.4981716.2628376 1.5266162 1.3237197 2.797691 2.7452961 3.3382383l.2054888.0722002.1896091.0561968c.1226624.0363549.2252923.1086408.2994502.2021856l-.0357404.1926276c-.2590306 1.3847723-.4095363 2.2056406-.4515172 2.4626049-.1141122.6984787.5902645 1.2765668 1.3997961 1.2765668.8095315 0 1.5061982-.5715384 1.389112-1.2765668-.0450947-.271535-.2342844-1.1598952-.567569-2.6650806.073812-.0891921.1752701-.1560449.2947406-.1887898 1.6322174-.4473633 2.8719792-1.8126255 3.1534477-3.4872708.0431769-.2568884.2456901-.4526438.4959806-.4929184l.0958806-.0076306.2694673.0006832.1203254-.0047913c.4814337-.0434382.862438-.4212248.9186803-.8731737l.0071649-.1143817-.0047913-.1203254c-.0434383-.4814337-.4212248-.862438-.8948205-.9182056l-.1202569-.0070361-.228459-.0002323c-.2980994-.0003031-.5452278-.2179557-.5915806-.5029438l-.0078093-.0972842.0005655-2.40649037c-.5735256-.55118092-.8854718-1.04225199-1.3317482-2.08657201z"/></svg>