<svg height="32" viewBox="0 0 32 32" width="32" xmlns="http://www.w3.org/2000/svg"><g fill="none" fill-rule="evenodd"><path d="m13.3710672 19.8585018h5.2578656l-2.6289328 5.4444177z" fill="#17bfa8"/><g fill-rule="nonzero"><path d="m10.112882 29.3378913c1.2799121 0 2.3174859-1.0375738 2.3174859-2.3174859s-1.0375738-2.3174859-2.3174859-2.3174859c-1.27991214 0-2.31748591 1.0375738-2.31748591 2.3174859s1.03757377 2.3174859 2.31748591 2.3174859z" fill="#4588a0"/><g fill="#252d4f"><path d="m10.112882 28.1378913c-.61717044 0-1.11748591-.5003155-1.11748591-1.1174859s.50031547-1.1174859 1.11748591-1.1174859c.6171704 0 1.1174859.5003155 1.1174859 1.1174859s-.5003155 1.1174859-1.1174859 1.1174859z"/><path d="m24.3721875 25.2106428.4570131 2.0831921c.1729347 1.0943978-.658012 2.0440564-1.7370486 2.0440564h-.3684776c-.3313708 0-.6-.2686292-.6-.6 0-.3313709.2686292-.6.6-.6h.3684776c.3484402 0 .6091841-.2979948.5582377-.6224636l-.4471123-2.0337793c-.2230881-.9118479-.9072664-1.5024692-1.7603421-1.5024692-.8527661 0-1.5362748.5902485-1.7638133 1.5170084l-.4502985 2.05467c-.0442933.2890778.216402.5870337.5648962.5870337h.3741392c.3313709 0 .6.2686291.6.6 0 .3313708-.2686291.6-.6.6h-.3741392c-1.0791061 0-1.909986-.9496357-1.7437127-2.0086009l.4603419-2.1046647c.306452-1.2488431 1.1917366-2.1537644 2.3392951-2.3865716-.0044184-.0293653-.0067087-.0594276-.0067087-.0900248v-.2307077c0-1.3254834-1.0745166-2.4-2.4-2.4h-4.6300533c-1.7120828 0-3.1 1.3879173-3.1 3.1v3.5104079c0 .3313708-.2686292.6-.6.6-.33137088 0-.60000003-.2686292-.60000003-.6v-3.5104079c0-2.3748244 1.92517553-4.3 4.30000003-4.3h4.6300533c1.9882251 0 3.6 1.6117749 3.6 3.6v.2307077c0 .0305824-.0022881.0606305-.0067024.0899823 1.1480668.2326372 2.0337217 1.1363118 2.3359546 2.3726312z"/></g></g><path d="m21.9213597 9.53444256h-.0124634c-.062336-3.23067415-2.6802005-5.82395701-5.9151265-5.82395701-3.2286992 0-5.8527949 2.59328286-5.9088921 5.82395701h-.0062326c0 4.49919154-1.20297104 7.66736664-1.7390097 8.52971224 2.2999794.8436026 4.9053757 1.3247655 7.660366 1.3247655 2.7549856 0 5.3603819-.4811629 7.6603632-1.3247655-.542267-.8623456-1.7390049-4.0305207-1.7390049-8.52971224z" fill="#522c19"/><path d="m11.9178448 13.5480544v-3.96883706c0-1.84475143 1.4951975-3.33995103 3.3399463-3.33995103h1.4844199c1.8447514 0 3.3399442 1.49515908 3.3399442 3.33995103v3.96883706c0 1.885144-1.2779126 3.4718812-3.0146908 3.9411685.145119 1.283096.2539949 2.1433214.3266278 2.5806761.1170862.7050284-.5795805 1.2765668-1.389112 1.2765668-.8095316 0-1.5139083-.5780881-1.3997961-1.2765668.0708427-.4336272.1773283-1.2945669.3194567-2.5828189-1.7327566-.4719581-3.006796-2.0567407-3.006796-3.9390257z" fill="#d5b13e"/><path d="m17.0674644 17.4892229c0-2.8273012.0383341-6.5338394.1150025-11.11961432 1.9331256.50752978 2.8996883.87434498 2.8996883 1.10044562v6.0780002c0 1.885144-1.2779126 3.4718812-3.0146908 3.9411685.145119 1.283096.2539949 2.1433214.3266278 2.5806761.1170862.7050284-.5795805 1.2765668-1.389112 1.2765668-.8095316 0-1.5139083-.5780881-1.3997961-1.2765668.0708427-.4336272.1773283-1.2945669.3194567-2.5828189 0 0 1.082128.3679619 2.1428236.0021428z" fill="#c29e2d"/><path d="m16.1103918 4.56206594c3.2005781.05883414 5.7767262 2.67148932 5.7767262 5.88613206v.4528599l-.9057115-.4528599c-1.183336-.9718338-2.1153019-2.21450178-2.7171429-3.62285443-.9056621 3.62285443-7.2456676 4.07571433-7.2456676 4.07571433-.4528566 0-.905714-.0226451-.905714 0v-.4528599c0-3.21464274 2.5762017-5.82729792 5.7767861-5.88613206z" fill="#522c19"/></g></svg>