<svg height="32" viewBox="0 0 32 32" width="32" xmlns="http://www.w3.org/2000/svg"><path d="m16.0798034 2.72093437c3.4096335.06267708 6.1540504 2.84598569 6.1540504 6.27060249l-.0012704.48239751-.0053993.26735615c-.0077259.16868479-.0221146.33563078-.042909.50058108.5600605.2908677.9828862.8188596 1.1365591 1.4643069l.0340761.1720928.0194777.1571195.0072188.1742426c0 1.0979832-.8006828 2.0195109-1.8872928 2.1919583l-.1447306.0173427-.0553616.2051317c-.457785 1.5021571-1.5344839 2.7416967-2.9435437 3.4107118l-.2378715.1061671-.1268066.049055.2325834.9249344 1.2873708.0005366c.4682489.6481077.780661 1.498985.8335933 2.1972912l.0079917.2045594v.2307077c0 .0305972.0022903.0606595.0067088.0900248-.5534522.1122798-1.0458993.3808936-1.4418298.7690248-.0445953.0816969-.1089127.1500466-.1860147.2011724l-.1099227.1347315c-.2362602.3105714-.4218841.6735376-.5451473 1.0767431l-.0563806.2048998-.460342 2.1046647c-.159044 1.0129233.5942412 1.9258172 1.604429 2.0032845l.1392837.0053164h.3741392c.3313709 0 .6-.2686292.6-.6 0-.2982338-.2175896-.5456468-.5026769-.592147l-.0973231-.007853h-.3741392c-.3168129 0-.5610647-.2462445-.5695777-.5082047l.0046815-.078829.4502985-2.05467c.2275385-.9267599.9110472-1.5170084 1.7638133-1.5170084.7997585 0 1.451072.5191007 1.7131811 1.3353278l.0471611.1671414.4471122 2.0337793c.046315.2949716-.1649655.5680639-.4655511.6152793l-.0926866.0071843h-.3684776c-.3313708 0-.6.2686291-.6.6 0 .2982337.2175896.5456467.5026769.592147l.0973231.007853h.3684776c1.032122 0 1.8372581-.8688748 1.7539743-1.9021959l-.0169257-.1418605-.4570131-2.0831921c-.3022329-1.2363194-1.1878878-2.139994-2.3359546-2.3726312l.0050066-.0445297.0016958-.0454526v-.2307077c0-.7380464-.222096-1.5620155-.6028932-2.3060324l.2577417.0571844c2.6597848.6539417 4.5635624 3.0464657 4.5635624 5.8257128v4.9058136h-19.39036667v-4.9058136c0-2.6950275 1.79014538-5.0264146 4.32387837-5.7615117l.239684-.0642011-.1550437.1689938c-.4350222.7893073-.7079636 1.6716856-.7582016 2.5043402l-.0084146.275514-.0002579 1.5640893c-.98893257.2644568-1.717228 1.1666744-1.717228 2.2389945 0 1.2799121 1.03757377 2.3174859 2.3174859 2.3174859 1.2799121 0 2.3174859-1.0375738 2.3174859-2.3174859 0-1.0127468-.6496216-1.8737663-1.5548994-2.1890934l-.1623286-.0499011-.0002579-1.5640893c0-.9361112.4149244-2.0742664 1.0708937-2.9136684l.1541181-.1881822 1.2380857-.0005366.2284166-.9359344-.104002-.0408558c-1.5124186-.6351245-2.6738788-1.9121594-3.1628532-3.4753712l-.0741448-.259773-.028798-.0048638c-.89555908-.1914001-1.59084464-.9232337-1.72804141-1.8376855l-.01909693-.1735125-.00557065-.1584472c0-.7643954.38675198-1.4390418.97573396-1.8381057-.03097438-.1986126-.05194148-.40093351-.06284025-.606081l-.00883861-.31032764v-.4824398c0-3.4246168 2.74447419-6.20792541 6.15411439-6.27060249zm-5.4623175 22.18198513c.6171704 0 1.1174859.5003155 1.1174859 1.1174859s-.5003155 1.1174859-1.1174859 1.1174859-1.1174859-.5003155-1.1174859-1.1174859.5003155-1.1174859 1.1174859-1.1174859zm8.3858244-18.80546398c-1.3164137 2.25889538-4.0404063 3.0238207-6.0196873 3.27364788l-.4425577.04895422-.4102404.03334001c-.0653538.004404-.1291161.00826879-.1911644.01165008l-.3507433.01493112.0000324 1.12994537c-.0000043.2961654-.2147004.5425896-.497522.5912646l-.2144218.0166157c-.5023375.0629961-.89051279.4918309-.89051279 1.0106865 0 .5250817.39728529.9573724.91203989 1.0126971l.1120006.0059819.0561494.000504c.2900457.0026036.5366995.21232.5859146.4981716.2628376 1.5266162 1.3237197 2.797691 2.7452961 3.3382383l.2054888.0722002.1896091.0561968c.1198746.0355287.2206169.1053736.29435.1958407l-.4826494 2.5787997c-.0036809.0215701-.0068942.0407597-.0096404.057569-.019547.1196468-.0150056.2366134.0100141.3483074l-.0034824.0139367.0161254.0360105c.0314972.1115006.0834589.2171892.1521307.3143696l1.2301605 2.545605 1.2251579-2.5342571c.1388424-.1999707.2038172-.4386263.1612532-.6949228l-.1972401-.9707593-.3696361-1.6931763c.0759407-.0909491.1793911-.1602446.3017289-.1937754 1.6322174-.4473633 2.8719792-1.8126255 3.1534477-3.4872708.0431769-.2568884.2456901-.4526438.4959806-.4929184l.0958806-.0076306.2694673.0006832.1203254-.0047913c.4814337-.0434382.862438-.4212248.9186803-.8731737l.0071649-.1143817-.0047913-.1203254c-.0434383-.4814337-.4212248-.862438-.8948205-.9182056l-.1202569-.0070361-.228459-.0002323c-.2980994-.0003031-.5452278-.2179557-.5915806-.5029438l-.0078093-.0972842-.0009065-2.40790549c-.5725877-.55060681-.8843818-1.0417307-1.3302762-2.08515689z" fill-rule="evenodd"/></svg>