<svg height="32" viewBox="0 0 32 32" width="32" xmlns="http://www.w3.org/2000/svg"><path d="m6.37558343 30v-4.9058136c0-2.6950275 1.79014538-5.0264146 4.32387837-5.7615117l.239684-.0642011-.1550437.1689938c-.4350222.7893073-.7079636 1.6716856-.7582016 2.5043402l-.0084146.275514-.0002579 1.5640893c-.98893257.2644568-1.717228 1.1666744-1.717228 2.2389945 0 1.2799121 1.03757377 2.3174859 2.3174859 2.3174859 1.2799121 0 2.3174859-1.0375738 2.3174859-2.3174859 0-1.0127468-.6496216-1.8737663-1.5548994-2.1890934l-.1623286-.0499011-.0002579-1.5640893c0-.9361112.4149244-2.0742664 1.0708937-2.9136684l.1541181-.1881676-.4455742-.0729958-.1985311-.0358701-.5383343-.1066699c-1.016307-.2145047-1.99318462-.4956961-2.9204227-.835795.53603866-.8623456 1.7390097-4.0305207 1.7390097-8.52971224h.0062326c.0560972-3.23067415 2.6801929-5.82395701 5.9088921-5.82395701 3.234926 0 5.8527905 2.59328286 5.9151265 5.82395701h.0124634c0 4.49919154 1.1967379 7.66736664 1.7390049 8.52971224-.8356564.3065076-1.7116306.5651696-2.6204487.7702916l-.5485455.116478-.5152466.0962925-.3713694.061699-.0988002.0065551c.4682489.6481077.780661 1.498985.8335933 2.1972912l.0079917.2045594v.2307077c0 .0305972.0022903.0606595.0067088.0900248-1.0838053.2198735-1.9336687 1.0392561-2.2829145 2.1816718l-.0563806.2048998-.460342 2.1046647c-.159044 1.0129233.5942412 1.9258172 1.604429 2.0032845l.1392837.0053164h.3741392c.3313709 0 .6-.2686292.6-.6 0-.2982338-.2175896-.5456468-.5026769-.592147l-.0973231-.007853h-.3741392c-.3168129 0-.5610647-.2462445-.5695777-.5082047l.0046815-.078829.4502985-2.05467c.2275385-.9267599.9110472-1.5170084 1.7638133-1.5170084.7997585 0 1.451072.5191007 1.7131811 1.3353278l.0471611.1671414.4471122 2.0337793c.046315.2949716-.1649655.5680639-.4655511.6152793l-.0926866.0071843h-.3684776c-.3313708 0-.6.2686291-.6.6 0 .2982337.2175896.5456467.5026769.592147l.0973231.007853h.3684776c1.032122 0 1.8372581-.8688748 1.7539743-1.9021959l-.0169257-.1418605-.4570131-2.0831921c-.3022329-1.2363194-1.1878878-2.139994-2.3359546-2.3726312l.0050066-.0445297.0016958-.0454526v-.2307077c0-.7380464-.222096-1.5620155-.6028932-2.3060324l.2577417.0571844c2.6597848.6539417 4.5635624 3.0464657 4.5635624 5.8257128v4.9058136zm4.24190247-5.0970805c.6171704 0 1.1174859.5003155 1.1174859 1.1174859s-.5003155 1.1174859-1.1174859 1.1174859-1.1174859-.5003155-1.1174859-1.1174859.5003155-1.1174859 1.1174859-1.1174859zm7.6467777-18.07757593c-.6722436 2.68912726-4.3385991 3.63171083-6.1838222 3.93895153l-.1625966.0262117v2.7575476l.0052015.2078771c.089801 1.7902727 1.3330141 3.2766704 3.0015945 3.7311486l-.1225939 1.0807642-.1239829 1.0001706-.0404901.2909352-1.2665067-.0004483 2.6289328 5.4444177 2.6289328-5.4444177-1.2676809.0014773-.041476-.2917355-.1269064-1.0002215c-.038264-.3183224-.0800657-.6779221-.1254051-1.0787992 1.6724531-.4519063 2.9194012-1.9400213 3.0094736-3.7329776l.0052172-.2081909v-3.94129924l-.248502-.27516372c-.6480671-.74626525-1.1783952-1.59129185-1.5693896-2.50624787z" fill-rule="evenodd"/></svg>