<svg height="32" viewBox="0 0 32 32" width="32" xmlns="http://www.w3.org/2000/svg"><path d="m11.9178448 13.5480544c0 1.882285 1.2740394 3.4670676 3.006796 3.9390257-.1421284 1.288252-.248614 2.1491917-.3194567 2.5828189-.1141122.6984787.5902645 1.2765668 1.3997961 1.2765668.8095315 0 1.5061982-.5715384 1.389112-1.2765668-.0726329-.4373547-.1815088-1.2975801-.3266278-2.5806761 1.7367782-.4692873 3.0146908-2.0560245 3.0146908-3.9411685v-3.94129924c-.76181-.81126497-1.3780229-1.75208607-1.8178916-2.78141159-.6926146 2.77061596-4.5635518 3.68723333-6.3464188 3.96516323zm.5125231 13.472351c0 1.2799121-1.0375738 2.3174859-2.3174859 2.3174859-1.27991214 0-2.31748591-1.0375738-2.31748591-2.3174859 0-1.0724133.72842203-1.9746945 1.71748588-2.2390635v-1.5640203c0-1.9140527 1.25059043-3.5360143 2.97924333-4.0933569-1.462597-.2239398-2.85606241-.5842971-4.1524899-1.0598099.53603866-.8623456 1.7390097-4.0305207 1.7390097-8.52971224h.0062326c.0560972-3.23067415 2.6801929-5.82395701 5.9088921-5.82395701 3.234926 0 5.8527905 2.59328286 5.9151265 5.82395701h.0124634c0 4.49919154 1.1967379 7.66736664 1.7390049 8.52971224-1.2677739.4650026-2.628343.8198841-4.0556102 1.0447611 1.4181392.4832623 2.4381809 1.8267122 2.4381809 3.4084057v.2307077c0 .0305824-.0022881.0606305-.0067024.0899823 1.1480668.2326372 2.0337217 1.1363118 2.3359546 2.3726312l.4570131 2.0831921c.1729347 1.0943978-.658012 2.0440564-1.7370486 2.0440564h-.3684776c-.3313708 0-.6-.2686292-.6-.6 0-.3313709.2686292-.6.6-.6h.3684776c.3484402 0 .6091841-.2979948.5582377-.6224636l-.4471123-2.0337793c-.2230881-.9118479-.9072664-1.5024692-1.7603421-1.5024692-.8527661 0-1.5362748.5902485-1.7638133 1.5170084l-.4502985 2.05467c-.0442933.2890778.216402.5870337.5648962.5870337h.3741392c.3313709 0 .6.2686291.6.6 0 .3313708-.2686291.6-.6.6h-.3741392c-1.0791061 0-1.909986-.9496357-1.7437127-2.0086009l.4603419-2.1046647c.306452-1.2488431 1.1917366-2.1537644 2.3392951-2.3865716-.0044184-.0293653-.0067087-.0594276-.0067087-.0900248v-.2307077c0-1.305204-1.0418888-2.3670619-2.3393411-2.3992484l-2.5035942 5.1794161-2.4965914-5.1649136c-1.5667824.1552906-2.7905266 1.4771079-2.7905266 3.0847459v1.5640203c.9890638.264369 1.7174859 1.1666502 1.7174859 2.2390635zm-2.3174859 1.1174859c.6171704 0 1.1174859-.5003155 1.1174859-1.1174859s-.5003155-1.1174859-1.1174859-1.1174859c-.61717044 0-1.11748591.5003155-1.11748591 1.1174859s.50031547 1.1174859 1.11748591 1.1174859z" fill-rule="evenodd"/></svg>