<svg height="32" viewBox="0 0 32 32" width="32" xmlns="http://www.w3.org/2000/svg"><path d="m18.4429353 16.0503821c1.9882251 0 3.6 1.6117749 3.6 3.6v.2307076c0 .0305825-.0022881.0606306-.0067024.0899824 1.1480668.2326372 2.0337217 1.1363117 2.3359546 2.3726312l.4570131 2.083192c.1729347 1.0943978-.658012 2.0440564-1.7370486 2.0440564h-.3684776c-.3313708 0-.6-.2686291-.6-.6 0-.3313708.2686292-.6.6-.6h.3684776c.3484402 0 .6091841-.2979948.5582377-.6224636l-.4471123-2.0337793c-.2230881-.9118479-.9072664-1.5024691-1.7603421-1.5024691-.8527661 0-1.5362748.5902484-1.7638133 1.5170084l-.4502985 2.0546699c-.0442933.2890779.216402.5870337.5648962.5870337h.3741392c.3313709 0 .6.2686292.6.6 0 .3313709-.2686291.6-.6.6h-.3741392c-1.0791061 0-1.909986-.9496356-1.7437127-2.0086009l.4603419-2.1046647c.306452-1.2488431 1.1917366-2.1537643 2.3392951-2.3865716-.0044184-.0293653-.0067087-.0594276-.0067087-.0900248v-.2307076c0-1.270255-.986839-2.3100213-2.2356813-2.3944632l-.1868579-.0065368-2.2469849 3.9108931c-.0550307.0957724-.1772809.1287999-.2730533.0737692-.0306829-.0176305-.0561387-.0430863-.0737691-.0737692l-2.2420029-3.9016145c-1.6054844.1168626-2.8717039 1.4564213-2.8717039 3.0917214l.0002578 1.5640892c.9889326.2644568 1.7172281 1.1666744 1.7172281 2.2389945 0 1.2799122-1.0375738 2.3174859-2.3174859 2.3174859-1.27991214 0-2.31748591-1.0375737-2.31748591-2.3174859 0-1.0723201.72829542-1.9745377 1.71722801-2.2389945l.00025787-1.5640892c0-2.3748245 1.92517553-4.3 4.30000003-4.3zm-8.3300533 6.9855979c-.61717044 0-1.11748591.5003154-1.11748591 1.1174858 0 .6171705.50031547 1.1174859 1.11748591 1.1174859.6171704 0 1.1174859-.5003154 1.1174859-1.1174859 0-.6171704-.5003155-1.1174858-1.1174859-1.1174858zm5.887118-18.94529511c2.8775609 0 5.2102848 2.33272398 5.2102848 5.21028484 0 2.87756087-2.3327239 5.21028487-5.2102848 5.21028487s-5.2102848-2.332724-5.2102848-5.21028487c0-2.87756086 2.3327239-5.21028484 5.2102848-5.21028484zm0 1.2c-2.2148192 0-4.0102848 1.79546568-4.0102848 4.01028484 0 2.21481917 1.7954656 4.01028487 4.0102848 4.01028487s4.0102848-1.7954657 4.0102848-4.01028487c0-2.21481916-1.7954656-4.01028484-4.0102848-4.01028484z" fill-rule="evenodd"/></svg>