<svg height="32" viewBox="0 0 32 32" width="32" xmlns="http://www.w3.org/2000/svg"><g fill="none" fill-rule="evenodd"><path d="m13.3710672 19.8585018h5.2578656l-2.6289328 5.4444177z" fill="#098c7a"/><g fill-rule="nonzero"><path d="m10.112882 29.3378913c1.2799121 0 2.3174859-1.0375738 2.3174859-2.3174859s-1.0375738-2.3174859-2.3174859-2.3174859c-1.27991214 0-2.31748591 1.0375738-2.31748591 2.3174859s1.03757377 2.3174859 2.31748591 2.3174859z" fill="#4588a0"/><g fill="#252d4f"><path d="m10.112882 28.1378913c-.61717044 0-1.11748591-.5003155-1.11748591-1.1174859s.50031547-1.1174859 1.11748591-1.1174859c.6171704 0 1.1174859.5003155 1.1174859 1.1174859s-.5003155 1.1174859-1.1174859 1.1174859z"/><path d="m24.3721875 25.2106428.4570131 2.0831921c.1729347 1.0943978-.658012 2.0440564-1.7370486 2.0440564h-.3684776c-.3313708 0-.6-.2686292-.6-.6 0-.3313709.2686292-.6.6-.6h.3684776c.3484402 0 .6091841-.2979948.5582377-.6224636l-.4471123-2.0337793c-.2230881-.9118479-.9072664-1.5024692-1.7603421-1.5024692-.8527661 0-1.5362748.5902485-1.7638133 1.5170084l-.4502985 2.05467c-.0442933.2890778.216402.5870337.5648962.5870337h.3741392c.3313709 0 .6.2686291.6.6 0 .3313708-.2686291.6-.6.6h-.3741392c-1.0791061 0-1.909986-.9496357-1.7437127-2.0086009l.4603419-2.1046647c.306452-1.2488431 1.1917366-2.1537644 2.3392951-2.3865716-.0044184-.0293653-.0067087-.0594276-.0067087-.0900248v-.2307077c0-1.3254834-1.0745166-2.4-2.4-2.4h-4.6300533c-1.7120828 0-3.1 1.3879173-3.1 3.1v3.5104079c0 .3313708-.2686292.6-.6.6-.33137088 0-.60000003-.2686292-.60000003-.6v-3.5104079c0-2.3748244 1.92517553-4.3 4.30000003-4.3h4.6300533c1.9882251 0 3.6 1.6117749 3.6 3.6v.2307077c0 .0305824-.0022881.0606305-.0067024.0899823 1.1480668.2326372 2.0337217 1.1363118 2.3359546 2.3726312z"/></g></g><path d="m16.0798034 8.00110322c3.4096335.06267708 6.1540504 2.84598568 6.1540504 6.27060248-.5997959.8561389-.9924024 1.2842083-1.1778194 1.2842083-2.3609942 0-5.5559759.4873427-9.8707802-.2175528-.2936122-.0479664-.7918475-.4035183-1.49470609-1.0666555 0-3.4246168 2.74447419-6.2079254 6.15411439-6.27060248z" fill="#252d4f" transform="matrix(1 0 0 -1 0 23.721138)"/><path d="m17.7641782 16.6024092.0745399 3.0992914c.1544293.8467115-.7644295 1.5331069-1.8321496 1.5331069s-1.9967478-.6942613-1.8462412-1.5331069v-3.1018649z" fill="#b39120"/><g transform="translate(8.470738 2.493328)"><path d="m2.53441018 8.11650803h5.07291067v3.23730967h-5.07291067c-.89395837 0-1.61865482-.7246965-1.61865482-1.61865485 0-.89395837.72469645-1.61865482 1.61865482-1.61865482z" fill="#d5b13e"/><path d="m9.23795843 8.09765042h5.07291067v3.23730968h-5.07291067c-.89395837 0-1.61865481-.7246965-1.61865481-1.61865486 0-.89395838.72469644-1.61865482 1.61865481-1.61865482z" fill="#b39120" transform="matrix(-1 0 0 1 21.930172 0)"/><path d="m2.51824718 10.504583v-4.83516274c0-2.24742741 1.82157226-4.06900214 4.06899638-4.06900214h1.80844201c2.24742743 0 4.06899393 1.82152537 4.06899393 4.06900214v4.83516274c0 2.2966369-1.556858 4.2297302-3.67274359 4.8014545-.7341571.2041078-1.83845568.2041078-2.61056337-.0026106-2.11098609-.574978-3.66312536-2.5056901-3.66312536-4.7988439z" fill="#d5b13e"/><path d="m12.4646795 3.09986483v7.40471817c0 2.0160663-1.1997036 3.7519886-2.92412579 4.5327851l.0005268-13.11488963c1.94906599.53433701 2.92359899.92679913 2.92359899 1.17738636z" fill="#b39120"/><path d="m7.60906571.22760624c3.40963349.06267708 6.15405049 2.84598569 6.15405049 6.27060249v.4824398l-.9648708-.4824398c-1.2606291-1.03531204-1.6245207-1.3937379-2.2656727-2.89408134-2.20297961 3.78019483-8.34788878 3.37652114-8.34788878 3.37652114-.48243629 0-.96487346-.02412419-.96487346 0v-.4824398c0-3.4246168 2.74447415-6.20792541 6.15411435-6.27060249z" fill="#252d4f"/></g></g></svg>