<svg height="32" viewBox="0 0 32 32" width="32" xmlns="http://www.w3.org/2000/svg"><path d="m15.8143645 6.03078081c5.4457407 0 9.8603917 4.41465109 9.8603917 9.86039179 0 2.5530083-.9702572 4.8794027-2.5621455 6.6305571l2.720852 2.7215155c.2343146.2343145.2343146.6142135 0 .8485281-.2082796.2082796-.5315889.2314218-.7654306.0694265l-.0830975-.0694265-2.7318254-2.7324599c-1.7275418 1.4907588-3.9778665 2.392253-6.4387447 2.392253-5.4457475 0-9.86039479-4.4146499-9.86039479-9.8603938 0-5.4457435 4.41464699-9.86039179 9.86039479-9.86039179zm.2873554 4.93649399h-.1931695c-1.380933 0-2.3080505.9373261-2.3800104 2.3848421l-.004512.1835658c0 1.3977336-.1843251 2.4604004-.5165656 3.3187212l-.0861207.2103987-.1273118.2717632-.0480299.0904342.4380281-.0040734.4107032-.0167977 1.1126794-.0722701c.3070506-.0199434.5738409.1944541.628625.487743l.0099034.090198.0093365.2795976c0 .8503111-.2899108 1.2703013-1.0052934 1.5194754l-.1487897.0476342-.8159619.2225827c-.2161633.0633828-.4249267.1319579-.6419969.2125864l-.3314626.128779c-.8645811.3542949-1.1120226.6366569-1.166803 1.3057219l-.0120258.2529443-.0038329 1.1142037c-.0001986.0766774-.014772.1499582-.0411624.2172979 1.336857.8478989 2.9242923 1.3389435 4.6264175 1.3389435 1.8473179 0 3.5595462-.5783927 4.96547-1.5639628l-.0030913-1.1260335c-.0201386-.9090234-.2462582-1.1984208-1.5097852-1.6682389l-.2210245-.0789982-.2108684-.0696346-.3909872-.1153679-.5115705-.1364109-.2807404-.0837465c-.6583147-.2223855-.9564377-.6206595-.9931986-1.3633515l-.0039129-.1644814.0095643-.2742265c.012905-.306846.2536953-.5490168.5505716-.5728823l.0905736-.0004569.689862.0481208.6587356.0347315.3795032.0110345.2295342-.0006613-.1241016-.2502641-.1216436-.2829743c-.3395483-.8560443-.5314291-1.9371063-.5314291-3.3580789 0-.6848325-.1883512-1.2766699-.5309933-1.7196259-.3860203-.4992148-.9570276-.7964151-1.6585833-.8424818zm-.2873554-3.73649399c-4.7830061 0-8.66039479 3.87738989-8.66039479 8.66039179 0 2.5596309 1.11043441 4.8599066 2.87584779 6.4453703l.0018178-.3170609c0-1.5656882.5134137-2.2888765 2.2936126-2.950656.1632454-.0606359.3222536-.1152048.4850787-.1667931l.2481071-.0755326.8755663-.2405003-.2756172.0183561-.6499185.0229537-.38.000038c-.5026191-.0103197-.7960567-.0519832-1.0244172-.2163494-.3229484-.2325683-.3847593-.5685143-.2508085-.9265914l.0459927-.1080059.2264326-.3974043.093967-.1760357.1069015-.2291926c.2883457-.6675917.4682625-1.536314.4942358-2.73222l.0032598-.3058658c0-2.1246359 1.3702517-3.66627947 3.3813078-3.76352949l.2032146-.00487845h.1931695c1.1564784 0 2.1503284.47143434 2.8023477 1.31464814.5109468.6605346.7817581 1.5114783.7817581 2.4537598 0 1.1682306.1388934 2.0481128.3737793 2.7209976l.0664075.1784429.1009164.2365588.0988272.1996267.0968578.17465.1686449.2909685.0613686.1298005.054929.1653005c.0678985.3059853-.0478262.5962421-.301742.7789711-.144883.1043355-.3078473.1540007-.538188.1837069l-.1466839.0157063-.3289044.0164648-.3742523.0005418-.4122528-.011857-.514533-.0275621.1665286.0498993.5103851.1360605.4172674.1230086c.1656557.0522889.3309039.1088063.4997625.1715127 1.6350472.6079605 2.2118198 1.2842785 2.2849264 2.6029693l.0067249.1756933-.0000373.1292373c1.5446578-1.5640773 2.4981986-3.7132882 2.4981986-6.0852084 0-4.782999-3.8773927-8.66039179-8.6603917-8.66039179z"/></svg>