<svg height="32" viewBox="0 0 32 32" width="32" xmlns="http://www.w3.org/2000/svg"><g fill="none" fill-rule="evenodd"><path d="m13.0061718 16.2517852h5.9876564l-2.820417 4.90849c-.0550307.0957724-.1772809.1287999-.2730533.0737692-.0306829-.0176305-.0561387-.0430863-.0737691-.0737692z" fill="#098c7a"/><g fill-rule="nonzero"><path d="m10.112882 26.4709517c1.2799121 0 2.3174859-1.0375737 2.3174859-2.3174859 0-1.2799121-1.0375738-2.3174858-2.3174859-2.3174858-1.27991214 0-2.31748591 1.0375737-2.31748591 2.3174858 0 1.2799122 1.03757377 2.3174859 2.31748591 2.3174859z" fill="#4588a0"/><g fill="#252d4f"><path d="m10.112882 25.2709517c-.61717044 0-1.11748591-.5003154-1.11748591-1.1174859 0-.6171704.50031547-1.1174858 1.11748591-1.1174858.6171704 0 1.1174859.5003154 1.1174859 1.1174858 0 .6171705-.5003155 1.1174859-1.1174859 1.1174859z"/><path d="m24.3721875 22.3437033.4570131 2.083192c.1729347 1.0943978-.658012 2.0440564-1.7370486 2.0440564h-.3684776c-.3313708 0-.6-.2686291-.6-.6 0-.3313708.2686292-.6.6-.6h.3684776c.3484402 0 .6091841-.2979948.5582377-.6224636l-.4471123-2.0337793c-.2230881-.9118479-.9072664-1.5024691-1.7603421-1.5024691-.8527661 0-1.5362748.5902484-1.7638133 1.5170084l-.4502985 2.0546699c-.0442933.2890779.216402.5870337.5648962.5870337h.3741392c.3313709 0 .6.2686292.6.6 0 .3313709-.2686291.6-.6.6h-.3741392c-1.0791061 0-1.909986-.9496356-1.7437127-2.0086009l.4603419-2.1046647c.306452-1.2488431 1.1917366-2.1537643 2.3392951-2.3865716-.0044184-.0293653-.0067087-.0594276-.0067087-.0900248v-.2307076c0-1.3254834-1.0745166-2.4-2.4-2.4h-4.6300533c-1.7120828 0-3.1 1.3879172-3.1 3.1v3.5104078c0 .3313709-.2686292.6-.6.6-.33137088 0-.60000003-.2686291-.60000003-.6v-3.5104078c0-2.3748245 1.92517553-4.3 4.30000003-4.3h4.6300533c1.9882251 0 3.6 1.6117749 3.6 3.6v.2307076c0 .0305825-.0022881.0606306-.0067024.0899824 1.1480668.2326372 2.0337217 1.1363117 2.3359546 2.3726312z"/></g></g><circle cx="16" cy="9.30097" fill="#d5b13e" r="5.210285"/><path d="m16 14.5112546c2.8775609 0 5.2102848-2.332724 5.2102848-5.21028487 0-2.87756086-2.3327239-5.21028484-5.2102848-5.21028484z" fill="#c29e2d"/></g></svg>