<svg height="32" viewBox="0 0 32 32" width="32" xmlns="http://www.w3.org/2000/svg"><path d="m16.0193674 4.52003029c6.3365135 0 11.4732726 5.13675912 11.4732726 11.47327261 0 2.9217014-1.0920917 5.5883293-2.8903342 7.6139438l-2.879182-2.8192691.0714353-.0844844c2.4555274-2.9040206 2.2688012-7.2496338-.4570573-9.9200894-2.8455324-2.80193033-7.4294547-2.86419545-10.341219-.1874024l-.1958982.186753-.101131.1011188c-2.82004625 2.875778-2.77520436 7.5014636.1006121 10.3215457.8643958.8538541 1.8955463 1.4548752 2.9945605 1.8001128l.0330702.0132727c1.4017914.5240693 2.9537861.5358706 4.3623965.0353843.8674855-.2523692 1.6980511-.6630925 2.4444844-1.2340427l.2950368-.2368277 2.8866648 2.8271442c-2.0466478 1.8966855-4.7862795 3.0561196-7.7967115 3.0561196-6.33652237 0-11.47328047-5.1367582-11.47328047-11.4732792 0-6.33651349 5.1367581-11.47327261 11.47328047-11.47327261zm.0407979 5.232615c3.4981715 0 6.3340038 2.83583231 6.3340038 6.33400381 0 2.0006841-.9275886 3.7847204-2.3761628 4.9455053l-.0014088-.9399644c-.0174626-.7882285-.2220274-1.2108078-1.4196066-1.6561044l-.1822284-.0649897-.1697356-.0557937-.3033546-.0893426-.3698456-.0984395-.193744-.0574946c-.2866884-.0968463-.4137875-.2180413-.4363405-.57961l-.0029053-.1804866.0059896-.1424151.5228809.0364065.5027659.0263751.297114.00842.265837-.0005834.2232015-.0116851c.132065-.011957.2281341-.0327139.2730627-.0650687.0356039-.0256221.0519999-.0529195.0533139-.0859612l-.0035604-.0351072-.0243217-.0663937-.0197593-.0388986-.1187402-.2044086-.0766194-.1379741-.0831114-.166759-.0858477-.1992473c-.1862554-.4695733-.3653329-1.1939993-.3653329-2.3427976 0-.6166841-.1763694-1.152733-.4901976-1.5584394-.357995-.4629714-.8946625-.7560411-1.5553073-.801671l-.1832086-.0062514h-.1442709c-1.3433082 0-2.2290247.9821812-2.2290247 2.3663618 0 1.1487983-.1790406 1.8732243-.3652681 2.3427976l-.0430249.1039162-.084938.1825402-.0803266.1519036-.1757651.3089276c-.0405712.0859687-.0410645.1396341.0253503.1874621.0574059.0413188.1982063.0637534.3908621.0731086l.1215639.00409.2744081-.0001228.1498166-.0036554.3172888-.013106.8310173-.0539758.0067038.1932879c0 .4640541-.1214861.6016889-.4399993.7092855l-.091809.0288224-.6175125.1685317c-.1516164.0444565-.3209525.0987033-.5095406.1687525-1.1975793.4451937-1.4021441.8678595-1.4196066 1.6561027l-.0027749.847647c-1.3841125-1.1619032-2.26398616-2.9049484-2.26398616-4.8534974 0-3.4981715 2.83582766-6.33400381 6.33400586-6.33400381z" fill-rule="evenodd"/></svg>