<svg height="32" viewBox="0 0 32 32" width="32" xmlns="http://www.w3.org/2000/svg"><g fill="none" fill-rule="evenodd"><path d="m16.0193674 4.52003029c6.3365135 0 11.4732726 5.13675912 11.4732726 11.47327261 0 6.336521-5.1367591 11.4732792-11.4732726 11.4732792-6.33652237 0-11.47328047-5.1367582-11.47328047-11.4732792 0-6.33651349 5.1367581-11.47327261 11.47328047-11.47327261z" fill="#9373b3"/><path d="m15.932725 11.5174691h.1442709c.7448009 0 1.3479759.3028627 1.7385159.8079224.3138282.4057064.4901976.9417553.4901976 1.5584394 0 1.1487983.1790775 1.8732243.3653329 2.3427976l.0858477.1992473.0831114.166759.0766194.1379741.1187402.2044086c.0073525.0136769.013965.0266174.0197593.0388986l.0243217.0663937c.0110428.0497644-.0022816.0869056-.0497535.1210684-.0449286.0323548-.1409977.0531117-.2730627.0650687l-.2232015.0116851-.265837.0005834-.297114-.00842-.5027659-.0263751-.5228809-.0364065-.0059896.1424151-.0008157.0507646c0 .4640578.1215189.601725.4400615.709332l.193744.0574946.3698456.0984395.3033546.0893426c.1090685.0344273.2262385.0740947.351964.1207834 1.1975792.4452966 1.402144.8678759 1.4196066 1.6561044l.0017868.942757c-2.3413364 1.8766067-5.7197049 1.8474812-8.0286687-.0872348l.001885-.7276587c0-.8713685.1603168-1.3150317 1.4209265-1.7836567.1885881-.0700492.3579242-.124296.5095406-.1687525l.6175125-.1685317c.3872298-.1140922.5318083-.2318671.5318083-.7381079l-.0067038-.1932879-.8310173.0539758-.3172888.013106c-.0510879.0015714-.1011109.0028053-.1498166.0036554l-.2744081.0001228c-.2545638-.0052267-.4435389-.027616-.512426-.0771986-.0664148-.047828-.0659215-.1014934-.0253503-.1874621l.1757651-.3089276.0803266-.1519036.084938-.1825402c.2006482-.4645504.408293-1.2095464.408293-2.4467138 0-1.3841806.8857165-2.3663618 2.2290247-2.3663618z" fill="#fff"/><path d="m21.3141463 10.4163323.1987621.1889353.1878287.19063c2.571446 2.7038994 2.763374 6.9216085.4578794 9.8565885l-.0966165.1175139 2.7045869 2.648097c-.3510407.4131576-.7308318.8011258-1.136281 1.1608124l-2.7173059-2.6619094-.1219727.0980813c-2.8941059 2.2175679-7.0024967 2.0978489-9.7581681-.2562281l-.2092634-.1854882-.1987686-.1894482c-2.90965692-2.8532667-3.01746186-7.4935242-.2884751-10.4802063l.1861354-.1966246.1021491-.102131c2.930717-2.89690072 7.6693104-2.95967795 10.6895097-.1886226zm-5.253981-.413687c-3.3601051 0-6.08400586 2.7239016-6.08400586 6.0840038 0 3.3601025 2.72390106 6.0840052 6.08400586 6.0840052 3.3601 0 6.0840038-2.7239046 6.0840038-6.0840052 0-3.3601003-2.7239035-6.0840038-6.0840038-6.0840038z" fill="#4e2b71"/></g></svg>