<svg height="32" viewBox="0 0 32 32" width="32" xmlns="http://www.w3.org/2000/svg"><path d="m26.0785611 5.59c1.8458976 0 3.3785881 1.39308884 3.5787463 3.21629726l.0159108.19010259.0058178.17627279c.0081528.30728903-.2153017.56605863-.510067.61056807l-.0904079.00675929h-5.5561276l.0005937 13.02c0 1.912694-1.4916409 3.4769967-3.462872 3.5858574l-.0315246.006364-.1056034.0077786h-14.00158835c-1.84589752 0-3.37858806-1.3930888-3.57874622-3.2162973l-.01591084-.1901026-.00581775-.1762727c-.00815282-.3072891.21530163-.5660587.51006692-.6105681l.09040789-.0067593h5.40099469l.0005937-13.02c0-1.92408881 1.5094666-3.49562279 3.40880776-3.59500991l.1911922-.00499009zm-9.7061222 17.82h-12.77600005l.0580063.1904962c.29065514.834145 1.02846576 1.4558351 1.92166728 1.5847881l.18062573.0191378.16470069.0055779h11.31900005l-.0839124-.0959388c-.3114086-.3740355-.5467346-.8104899-.6866171-1.2845648l-.061898-.2400577zm-4.4714623-9.7327812c-1.2480469 0-2.04199222.805664-2.04199222 2.1855468 0 1.3828125.77636722 2.1884766 2.07714842 2.1884766.8115235 0 1.4853516-.3867188 1.7402344-.9873047.0439453-.1025391.0673828-.2080078.0673828-.3105469 0-.2841797-.1992187-.4746093-.5039062-.4746093-.1933594 0-.3178412.0688775-.4195689.2343066l-.0491811.0908887c-.1816407.3984375-.4658204.5859375-.8554688.5859375-.5917969 0-.9609375-.5009766-.9609375-1.3300782 0-.8203125.3720703-1.321289.9580078-1.321289.3307292 0 .5920139.1504629.779739.4596193l.0669407.1233885c.1171875.234375.2636719.3310547.5009766.3310547.28125 0 .46875-.178711.46875-.4541016 0-.1289062-.038086-.2636719-.1083985-.3925781-.3164062-.6005859-.9199218-.9287109-1.7197265-.9287109zm4.0576172 0c-.9726563 0-1.678711.524414-1.678711 1.3388671 0 .6015625.3828125 1.0015105 1.1174722 1.1807882l.1628013.0350322.4365234.0820312.1407685.0297979c.3941631.0920478.538919.2104365.538919.421374 0 .2578125-.2724609.4453125-.6914063.4453125-.3398437 0-.6240234-.1113281-.7675781-.375-.1376953-.2109375-.2783203-.2841797-.4863281-.2841797-.2724609 0-.4658203.1816406-.4658203.4511719 0 .0878906.0175781.1787109.055664.2666015.1757813.4365235.7294922.7822266 1.6464844.7822266 1.1132813 0 1.7783203-.5390625 1.7783203-1.3886719 0-.6207031-.3572916-.9810937-1.1385694-1.1669219l-.1739306-.0371796-.4335937-.0820313-.1299815-.0274863c-.3661611-.0860098-.5204091-.2057168-.5204091-.4061074 0-.2490235.2285156-.4248047.618164-.4248047.3105469 0 .5449219.102539.6826172.3662109.1259766.2050781.2724609.2900391.5068359.2900391.2695313-.0029297.4511719-.1699219.4511719-.4189453 0-.0878907-.0146484-.1582032-.0439453-.2314454-.2050781-.5361328-.796875-.8466796-1.6054687-.8466796zm5.493164.008789c-.2512207 0-.4104767.0986939-.5013199.3157082l-.0348129.1003074-.8466797 2.8242188h-.0234375l-.8554687-2.8095703-.0360546-.1034603c-.0940876-.2240239-.2591115-.3272038-.5205861-.3272038-.3398437 0-.5683593.2109375-.5683593.5185547 0 .0722656.0078125.140625.0225694.2059462l.0272353.0958116 1.0488281 2.8828125.0522041.1286397c.1658232.3633134.4168388.5246806.8149834.5246806.3928711 0 .6481054-.1613672.8126894-.5246806l.0515684-.1286397 1.0576172-2.9179687.0292969-.0932075c.015625-.062066.0234375-.124566.0234375-.1909722 0-.2988281-.225586-.5009766-.553711-.5009766zm4.5624633-6.89625805-.1588936.00433831c-.9830404.05695867-1.8026805.70421575-2.1187613 1.58767708l-.0641273.20823486h4.73l-.056884-.19049623c-.2906552-.83414498-1.0284658-1.45583508-1.9216673-1.58478812l-.1806258-.01913773z"/></svg>