<svg height="32" viewBox="0 0 32 32" width="32" xmlns="http://www.w3.org/2000/svg"><path d="m26.0785611 5.59c1.8458976 0 3.3785881 1.39308884 3.5787463 3.21629726l.0159108.19010259.0055896.17627279c.008381.30728903-.2150735.56605863-.5098388.61056807l-.0904079.00675929h-5.5561276l.0005937 13.02c0 1.912694-1.4916409 3.4769967-3.462872 3.5858574l-.0315246.006364-.1056034.0077786h-14.00158835c-1.84589752 0-3.37858806-1.3930888-3.57874622-3.2162973l-.01591084-.1901026-.00558955-.1762727c-.00838102-.3072891.21507343-.5660587.50983872-.6105681l.09040789-.0067593h5.40099469l.0005937-13.02c0-1.92408881 1.5094666-3.49562279 3.40880776-3.59500991l.1911922-.00499009zm-9.7061222 17.82h-12.77600005l.0580063.1904962c.29065514.834145 1.02846576 1.4558351 1.92166728 1.5847881l.18062573.0191378.16470069.0055779h11.31900005l-.0839124-.0959388c-.3114086-.3740355-.5467346-.8104899-.6866171-1.2845648l-.061898-.2400577zm6.867-16.62h-11.3164117c-1.2702549 0-2.31002121.98683903-2.3944631 2.23570408l-.00553687.16432184-.00158838 13.01997408h7.40158835c.1486435 0 .2846624.0540526.3894732.1435743l.0494195.0473096.0503421.0616553.0493509.0827218.0342015.0855539.0163654.065183.0083013.0595089.0007111.0244932.0015324.0109451.0020222.1103887.0094454.1406662.0111794.0970213.0220964.1330282.0293333.1306752c.0603185.2373946.1561257.4616873.2817197.6661287l.1096712.1621466.0675988.0890231.0827881.0973338c.0489872.0551047.1007904.1077599.154961.15794.0886144.081629.1829271.1566715.2827185.2242858.1068699.0725549.2204229.1366374.3396276.1911451l.182917.0744429.8625436.1445296c1.1983191-.0187576 2.1834367-.9157602 2.339989-2.075644l.0161546-.1597376.0055368-.1643187v-13.62c0-.82308243.2762231-1.58164951.7410268-2.18805879l.1313744-.161546zm2.7747822-.00025025-.1588936.00433831c-.9830404.05695867-1.8026805.70421575-2.1187613 1.58767708l-.0641273.20823486h4.73l-.056884-.19049623c-.2906552-.83414498-1.0284658-1.45583508-1.9216673-1.58478812l-.1806258-.01913773z"/><path d="m11.1975212 17.8258893c.2322 0 .4158-.1836.4158-.4158v-.7506h.6318c.8478 0 1.5282-.4536 1.5282-1.3284v-.0108c0-.7722-.5454-1.3068-1.4472-1.3068h-1.1286c-.2322 0-.4158.1836-.4158.4158v2.9808c0 .2322.1836.4158.4158.4158zm1.0746-1.9062h-.6588v-1.1556h.6426c.4158 0 .675.1998.675.5724v.0108c0 .324-.243.5724-.6588.5724zm3.4592456 1.9042069c1.188 0 2.0088-.8262 2.0088-1.89v-.0108c0-1.0638-.8208-1.8792-2.0088-1.8792h-1.0584c-.2322 0-.4158.1836-.4158.4158v2.9484c0 .2322.1836.4158.4158.4158zm.0189-.7810069h-.6426v-2.2788h.6426c.6804 0 1.1394.4698 1.1394 1.1394v.0108c0 .6696-.459 1.1286-1.1394 1.1286zm2.973212.8134069c.2322 0 .4158-.1836.4158-.4158v-1.08h1.458c.2106 0 .378-.1674.378-.378s-.1674-.378-.378-.378h-1.458v-.8046h1.701c.2106 0 .378-.1674.378-.378s-.1674-.378-.378-.378h-2.1168c-.2322 0-.4158.1836-.4158.4158v2.9808c0 .2322.1836.4158.4158.4158z"/></svg>