<svg height="32" viewBox="0 0 32 32" width="32" xmlns="http://www.w3.org/2000/svg"><path d="m12.6825643 6.705c.6419963 0 1.2197263.38970314 1.4601949.98496284l.4565763 1.13021598c.057236.14168289.1947465.2344395.3475536.2344395h9.5788508c.8697611 0 1.5748417.70508062 1.5748417 1.57484168v3.0986528h.9117252c.5522847 0 1 .4477153 1 1 0 .0709741-.0075559.1417465-.02254.2111208l-1.7327232 8.0222692c-.1585724.737115-.8102355 1.2634972-1.5642141 1.2634972h-17.18144241c-.75397864 0-1.40564171-.5263822-1.56421414-1.2634972l-1.66037117-8.0309246c-.11181853-.5408466.23597746-1.0699363.77682408-1.1817548.06660848-.0137711.13444818-.0207106.20246534-.0207106h.83754381v-5.44827116c0-.86976102.70508062-1.57484164 1.57484164-1.57484164zm-4.11741251 4.7463089-.00785299 2.2768039h15.1989781v-2.2689509z"/></svg>