<svg height="32" viewBox="0 0 32 32" width="32" xmlns="http://www.w3.org/2000/svg"><g fill="none" fill-rule="evenodd"><path d="m26.7154798 5.59c-1.7630069 0-3.1922063 1.42919947-3.1922063 3.19220637l-.0002463 14.02779363c0 1.912694-1.4916409 3.4769967-3.462872 3.5858574l-.0315246.006364-.1056034.0077786h-.0373081c-1.9115997 0-3.472933-1.4996688-3.571675-3.3866815l-.0049577-.1899512v-.6163622h-7.98684656l.0007874-13.0270051c0-1.92408881 1.5094666-3.49562279 3.40880776-3.59500991l.1911922-.00499009z" fill="#d31a16" fill-opacity=".395084" fill-rule="nonzero"/><path d="m29.9076862 8.78220637c0-1.7630069-1.4291995-3.19220637-3.1922064-3.19220637s-3.1922063 1.42919947-3.1922063 3.19220637v.55011389h6.3844127z" fill="#e47471"/><path d="m16.3090864 22.2170051v.6163622c0 1.9753197 1.601313 3.5766327 3.5766327 3.5766327h-13.79632339l-.00093615-.0019949-.02436726.0019949c-1.91159972 0-3.47293303-1.4996688-3.57167504-3.3866815l-.0049577-.1899512v-.6163622z" fill="#d31a16"/><path d="m10.648 18.036c.258 0 .462-.204.462-.462v-.834h.702c.942 0 1.698-.504 1.698-1.476v-.012c0-.858-.606-1.452-1.608-1.452h-1.254c-.258 0-.462.204-.462.462v3.312c0 .258.204.462.462.462zm1.194-2.118h-.732v-1.284h.714c.462 0 .75.222.75.636v.012c0 .36-.27.636-.732.636zm3.99 2.082c1.32 0 2.232-.918 2.232-2.1v-.012c0-1.182-.912-2.088-2.232-2.088h-1.176c-.258 0-.462.204-.462.462v3.276c0 .258.204.462.462.462zm0-.834h-.714v-2.532h.714c.756 0 1.266.522 1.266 1.266v.012c0 .744-.51 1.254-1.266 1.254zm3.516.87c.258 0 .462-.204.462-.462v-1.2h1.62c.234 0 .42-.186.42-.42s-.186-.42-.42-.42h-1.62v-.894h1.89c.234 0 .42-.186.42-.42s-.186-.42-.42-.42h-2.352c-.258 0-.462.204-.462.462v3.312c0 .258.204.462.462.462z" fill="#c41612" fill-rule="nonzero"/></g></svg>