<svg height="32" viewBox="0 0 32 32" width="32" xmlns="http://www.w3.org/2000/svg"><path d="m26.0785611 5.59c1.8458976 0 3.3785881 1.39308884 3.5787463 3.21629726l.0159108.19010259.0055896.17627279c.008381.30728903-.2150735.56605863-.5098388.61056807l-.0904079.00675929h-5.5561276l.0005937 13.02c0 1.912694-1.4916409 3.4769967-3.462872 3.5858574l-.0315246.006364-.1056034.0077786h-14.00158835c-1.84589752 0-3.37858806-1.3930888-3.57874622-3.2162973l-.01591084-.1901026-.00558955-.1762727c-.00838102-.3072891.21507343-.5660587.50983872-.6105681l.09040789-.0067593h5.40099469l.0005937-13.02c0-1.92408881 1.5094666-3.49562279 3.40880776-3.59500991l.1911922-.00499009zm-9.7061222 17.82h-12.77600005l.0580063.1904962c.29065514.834145 1.02846576 1.4558351 1.92166728 1.5847881l.18062573.0191378.16470069.0055779h11.31900005l-.0839124-.0959388c-.3114086-.3740355-.5467346-.8104899-.6866171-1.2845648l-.061898-.2400577zm-4.4704389-9.61h-1.254c-.258 0-.462.204-.462.462v3.312c0 .258.204.462.462.462s.462-.204.462-.462v-.834h.702c.942 0 1.698-.504 1.698-1.476v-.012c0-.858-.606-1.452-1.608-1.452zm9.798 0h-2.352c-.258 0-.462.204-.462.462v3.312c0 .258.204.462.462.462s.462-.204.462-.462v-1.2h1.62c.234 0 .42-.186.42-.42s-.186-.42-.42-.42h-1.62v-.894h1.89c.234 0 .42-.186.42-.42s-.186-.42-.42-.42zm-5.868 0h-1.176c-.258 0-.462.204-.462.462v3.276c0 .258.204.462.462.462h1.176c1.32 0 2.232-.918 2.232-2.1v-.012c0-1.182-.912-2.088-2.232-2.088zm0 .834c.756 0 1.266.522 1.266 1.266v.012c0 .744-.51 1.254-1.266 1.254h-.714v-2.532zm-4.008 0c.462 0 .75.222.75.636v.012c0 .36-.27.636-.732.636h-.732v-1.284zm14.1902211-7.84425025-.1588936.00433831c-.9830404.05695867-1.8026805.70421575-2.1187613 1.58767708l-.0641273.20823486h4.73l-.056884-.19049623c-.2906552-.83414498-1.0284658-1.45583508-1.9216673-1.58478812l-.1806258-.01913773z"/></svg>