<svg height="32" viewBox="0 0 32 32" width="32" xmlns="http://www.w3.org/2000/svg"><path d="m26.0785611 5.59c1.8458976 0 3.3785881 1.39308884 3.5787463 3.21629726l.0159108.19010259.0058178.17627279c.0081528.30728903-.2153017.56605863-.510067.61056807l-.0904079.00675929h-5.5561276l.0005937 13.02c0 1.912694-1.4916409 3.4769967-3.462872 3.5858574l-.0315246.006364-.1056034.0077786h-14.00158835c-1.84589752 0-3.37858806-1.3930888-3.57874622-3.2162973l-.01591084-.1901026-.00581775-.1762727c-.00815282-.3072891.21530163-.5660587.51006692-.6105681l.09040789-.0067593h5.40099469l.0005937-13.02c0-1.92408881 1.5094666-3.49562279 3.40880776-3.59500991l.1911922-.00499009zm-9.7061222 17.82h-12.77600005l.0580063.1904962c.29065514.834145 1.02846576 1.4558351 1.92166728 1.5847881l.18062573.0191378.16470069.0055779h11.31900005l-.0839124-.0959388c-.3114086-.3740355-.5467346-.8104899-.6866171-1.2845648l-.061898-.2400577zm6.867-16.62h-11.3164117c-1.2702549 0-2.31002121.98683903-2.3944631 2.23570408l-.00553687.16432184-.00158838 13.01997408h7.40158835c.1486435 0 .2846624.0540526.3894732.1435743l.0494195.0473096.0503421.0616553.0493509.0827218.0342015.0855539.0163654.065183.0083013.0595089.0042657.145827.0094454.1406662.0111794.0970213.0220964.1330282.0293333.1306752c.0603185.2373946.1561257.4616873.2817197.6661287l.1096712.1621466.0675988.0890231.0827881.0973338c.0489872.0551047.1007904.1077599.154961.15794.0886144.081629.1829271.1566715.2827185.2242858.1068699.0725549.2204229.1366374.3396276.1911451l.182917.0744429.8625436.1445296c1.1983191-.0187576 2.1834367-.9157602 2.339989-2.075644l.0161546-.1597376.0055368-.1643187v-13.62c0-.82308243.2762231-1.58164951.7410268-2.18805879l.1313744-.161546zm-11.1220317 7.2456172c.741211 0 1.2890625.2819824 1.5952149.8217773.0778808.1342774.118164.2766114.118164.4135743 0 .290039-.1960449.4780273-.4941406.4780273-.2117745 0-.3525191-.07103-.4662047-.2418402l-.0547914-.0938532c-.171875-.3303222-.3867187-.4833984-.6848144-.4833984-.4672852 0-.7626954.4135742-.7626954 1.1064453 0 .7009277.2927247 1.114502.7653809 1.114502.272583 0 .4732018-.1213112.6288428-.3819247l.0640283-.1202726c.1154785-.2443848.2524414-.3383789.4914551-.3383789.3249512 0 .5371094.1987305.5371094.5021973 0 .0966796-.0214844.1987304-.0617676.2980957-.225586.5612793-.8781739.9345703-1.6328125.9345703-1.2299805 0-1.9523926-.7277832-1.9523926-2.0061035 0-1.2783204.7385254-2.003418 1.9094238-2.003418zm3.8000489 0c.7680664 0 1.3186035.2712402 1.5200195.7546387.0322265.0778808.0483398.1503906.0483398.2390136 0 .2578125-.1879883.4323731-.4726562.4350586-.2071708 0-.3492307-.0611647-.471842-.2088619l-.0598963-.0811771c-.1262207-.1933594-.3061523-.2658692-.5505371-.2658692-.3168945 0-.4780274.1396485-.4780274.314209 0 .1551649.1315587.2381848.4323989.3037578l.1208238.0238789.3894043.0698242c.8325195.1503907 1.2246094.4914551 1.2246094 1.1198731 0 .7976074-.6230469 1.3051758-1.6918946 1.3051758-.8728027 0-1.3776855-.314209-1.5441894-.6928711-.0402832-.0886231-.059082-.1799317-.059082-.2685547 0-.2739258.2067871-.4619141.4887695-.4619141.2148437 0 .3598633.0671387.5129394.2819825.1342774.1906738.3598633.2685546.6149903.2685546.3410644 0 .5505371-.1396484.5505371-.3303222 0-.1623264-.1188272-.2418982-.4507888-.312275l-.5240647-.0959282c-.770752-.1369628-1.1923828-.5263671-1.1923828-1.1279296 0-.7788086.6713867-1.2702637 1.5925293-1.2702637zm5.1267089 0c.3518067 0 .5881348.2175293.5881348.5371094 0 .0716145-.0071615.1384548-.0222801.2037037l-.0287453.0970775-.8674316 2.4545899c-.1745606.4941406-.4699707.717041-.9479981.717041-.4370117 0-.7164417-.1819958-.8968031-.5883588l-.0511949-.1286822-.8566895-2.4143067c-.0322265-.0939941-.0510254-.201416-.0510254-.3195801 0-.3303222.2470703-.5585937.6096192-.5585937.2864583 0 .4646991.1145833.5630144.3644976l.033177.100102.6713867 2.3981934h.0214844l.6633301-2.4143067c.0859375-.3088379.2631835-.4484863.5720214-.4484863zm4.9700561-7.24586745-.1588936.00433831c-.9830404.05695867-1.8026805.70421575-2.1187613 1.58767708l-.0641273.20823486h4.73l-.056884-.19049623c-.2906552-.83414498-1.0284658-1.45583508-1.9216673-1.58478812l-.1806258-.01913773z"/></svg>