<svg height="32" viewBox="0 0 32 32" width="32" xmlns="http://www.w3.org/2000/svg"><g fill="none" fill-rule="evenodd"><path d="m7.67847665 7.305h5.00408765c.3974017 0 .7550219.24122987.9038742.60970117l.4565764 1.13021598c.1488523.3684713.5064725.60970117.9038742.60970117h9.5788508c.5383902 0 .9748417.43645148.9748417.97484168v11.0906984c0 .5383901-.4364515.9748416-.9748417.9748416h-16.84726325c-.53839017 0-.97484164-.4364515-.97484164-.9748416v-13.44031676c0-.53839017.43645147-.97484164.97484164-.97484164z" fill="#b18c00"/><path d="m9.9706524 20.4263519v-9.5h12.0586952v9.5z" fill="#d8c88c" transform="matrix(-1 0 0 1 32 0)"/><path d="m8.61869062 21.8360742v-9.5h14.76261878v9.5z" fill="#fff" transform="matrix(-1 0 0 1 32 0)"/><path d="m5.94163863 14.3281128h20.32093937c.5522847 0 1 .4477153 1 1 0 .0706983-.0074974.1411972-.0223662.2103143l-1.5697485 7.2968871c-.0991077.4606969-.5063972.7896858-.9776338.7896858h-17.18144241c-.47123665 0-.87852607-.3289889-.97763384-.7896858l-1.56974846-7.2968871c-.11615334-.5399323.22738735-1.0717948.76731961-1.1879481.06911701-.0148689.13961596-.0223662.21031423-.0223662z" fill="#f8c31c"/></g></svg>