<svg height="32" viewBox="0 0 32 32" width="32" xmlns="http://www.w3.org/2000/svg"><g fill="none" fill-rule="evenodd"><path d="m26.7154798 5.59c-1.7630069 0-3.1922063 1.42919947-3.1922063 3.19220637l-.0002463 14.02779363c0 1.912694-1.4916409 3.4769967-3.462872 3.5858574l-.0315246.006364-.1056034.0077786h-.0373081c-1.9115997 0-3.472933-1.4996688-3.571675-3.3866815l-.0049577-.1899512v-.6163622h-7.98684656l.0007874-13.0270051c0-1.92408881 1.5094666-3.49562279 3.40880776-3.59500991l.1911922-.00499009z" fill="#e9acc5" fill-rule="nonzero"/><path d="m29.9076862 8.78220637c0-1.7630069-1.4291995-3.19220637-3.1922064-3.19220637s-3.1922063 1.42919947-3.1922063 3.19220637v.55011389h6.3844127z" fill="#dc6998"/><g fill="#b34874"><path d="m16.3090864 22.2170051v.6163622c0 1.9753197 1.601313 3.5766327 3.5766327 3.5766327h-13.79632339l-.00093615-.0019949-.02436726.0019949c-1.91159972 0-3.47293303-1.4996688-3.57167504-3.3866815l-.0049577-.1899512v-.6163622z"/><path d="m20.2777684 18.1699635c.3605255 0 .655501.2949754.655501.6555009 0 .3244729-.2389301.5958503-.5495392.6468811l-.1059618.0086198h-9.0896127c-.3605255 0-.6555009-.2949754-.6555009-.6555009 0-.324473.23893-.5958504.5495391-.6468811l.1059618-.0086198zm0-4.0408137c.3605255 0 .655501.2949754.655501.6555009 0 .324473-.2389301.5958504-.5495392.6468811l-.1059618.0086199h-9.0896127c-.3605255 0-.6555009-.2949755-.6555009-.655501 0-.3244729.23893-.5958503.5495391-.646881l.1059618-.0086199zm0-4.0408136c.3605255 0 .655501.2949754.655501.6555009 0 .324473-.2389301.5958503-.5495392.6468811l-.1059618.0086198h-9.0896127c-.3605255 0-.6555009-.2949754-.6555009-.6555009 0-.324473.23893-.5958503.5495391-.6468811l.1059618-.0086198z" fill-rule="nonzero"/></g></g></svg>