<svg height="32" viewBox="0 0 32 32" width="32" xmlns="http://www.w3.org/2000/svg"><g fill="none" fill-rule="evenodd"><path d="m26.7154798 5.59c-1.7630069 0-3.1922063 1.42919947-3.1922063 3.19220637l-.0002463 14.02779363c0 1.912694-1.4916409 3.4769967-3.462872 3.5858574l-.0315246.006364-.1056034.0077786h-.0373081c-1.9115997 0-3.472933-1.4996688-3.571675-3.3866815l-.0049577-.1899512v-.6163622h-7.98684656l.0007874-13.0270051c0-1.92408881 1.5094666-3.49562279 3.40880776-3.59500991l.1911922-.00499009z" fill="#afd3bf" fill-rule="nonzero"/><path d="m29.9076862 8.78220637c0-1.7630069-1.4291995-3.19220637-3.1922064-3.19220637s-3.1922063 1.42919947-3.1922063 3.19220637v.55011389h6.3844127z" fill="#107c41"/><path d="m16.3090864 22.2170051v.6163622c0 1.9753197 1.601313 3.5766327 3.5766327 3.5766327h-13.79632339l-.00093615-.0019949-.02436726.0019949c-1.91159972 0-3.47293303-1.4996688-3.57167504-3.3866815l-.0049577-.1899512v-.6163622z" fill="#107c41"/><path d="m13.621 17.954c.264 0 .456-.198.456-.456 0-.132-.066-.252-.138-.342l-1.128-1.386 1.068-1.308c.09-.114.138-.222.138-.354 0-.264-.216-.426-.42-.426s-.324.09-.45.252l-.912 1.2-.918-1.224c-.114-.15-.228-.228-.426-.228-.264 0-.456.198-.456.456 0 .132.066.252.138.342l1.068 1.302-1.134 1.392c-.09.114-.138.222-.138.354 0 .264.216.426.42.426s.324-.09.45-.252l.972-1.266.984 1.29c.114.15.228.228.426.228zm3.87-.036c.234 0 .42-.186.42-.42s-.186-.42-.42-.42h-1.71v-2.934c0-.258-.204-.462-.462-.462s-.462.204-.462.462v3.312c0 .258.204.462.462.462zm2.574.06c.906 0 1.542-.468 1.542-1.302v-.012c0-.732-.48-1.038-1.332-1.26-.726-.186-.906-.276-.906-.552v-.012c0-.204.186-.366.54-.366.288 0 .576.102.882.282.072.042.144.066.234.066.24 0 .432-.186.432-.426 0-.18-.102-.306-.204-.366-.378-.24-.822-.372-1.332-.372-.858 0-1.47.504-1.47 1.266v.012c0 .834.546 1.068 1.392 1.284.702.18.846.3.846.534v.012c0 .246-.228.396-.606.396-.408 0-.756-.144-1.074-.378-.06-.042-.144-.084-.264-.084-.24 0-.432.186-.432.426 0 .144.072.276.174.348.468.336 1.026.504 1.578.504z" fill="#07602f" fill-rule="nonzero"/></g></svg>