<svg height="32" viewBox="0 0 32 32" width="32" xmlns="http://www.w3.org/2000/svg"><g fill="none" fill-rule="evenodd"><path d="m26.7154798 5.59c-1.7630069 0-3.1922063 1.42919947-3.1922063 3.19220637l-.0002463 14.02779363c0 1.912694-1.4916409 3.4769967-3.462872 3.5858574l-.0315246.006364-.1056034.0077786h-.0373081c-1.9115997 0-3.472933-1.4996688-3.571675-3.3866815l-.0049577-.1899512v-.6163622h-7.98684656l.0007874-13.0270051c0-1.92408881 1.5094666-3.49562279 3.40880776-3.59500991l.1911922-.00499009z" fill="#b8d492" fill-rule="nonzero"/><path d="m29.9076862 8.78220637c0-1.7630069-1.4291995-3.19220637-3.1922064-3.19220637s-3.1922063 1.42919947-3.1922063 3.19220637v.55011389h6.3844127z" fill="#589b00"/><path d="m16.3090864 22.2170051v.6163622c0 1.9753197 1.601313 3.5766327 3.5766327 3.5766327h-13.79632339l-.00093615-.0019949-.02436726.0019949c-1.91159972 0-3.47293303-1.4996688-3.57167504-3.3866815l-.0049577-.1899512v-.6163622z" fill="#518f00"/><path d="m11.9009766 13.6772188c.7998047 0 1.4033203.328125 1.7197265.9287109.0703125.1289062.1083985.2636719.1083985.3925781 0 .2753906-.1875.4541016-.46875.4541016-.2373047 0-.3837891-.0966797-.5009766-.3310547-.1904297-.3925781-.4746094-.5830078-.8466797-.5830078-.5859375 0-.9580078.5009765-.9580078 1.321289 0 .8291016.3691406 1.3300782.9609375 1.3300782.3896484 0 .6738281-.1875.8554688-.5859375.1113281-.2314453.243164-.3251953.46875-.3251953.3046875 0 .5039062.1904296.5039062.4746093 0 .1025391-.0234375.2080078-.0673828.3105469-.2548828.6005859-.9287109.9873047-1.7402344.9873047-1.3007812 0-2.07714842-.8056641-2.07714842-2.1884766 0-1.3798828.79394532-2.1855468 2.04199222-2.1855468zm4.0576172 0c.8085937 0 1.4003906.3105468 1.6054687.8466796.0292969.0732422.0439453.1435547.0439453.2314454 0 .2490234-.1816406.4160156-.4511719.4189453-.234375 0-.3808593-.084961-.5068359-.2900391-.1376953-.2636719-.3720703-.3662109-.6826172-.3662109-.3896484 0-.618164.1757812-.618164.4248047 0 .2226562.1904296.3457031.6503906.4335937l.4335937.0820313c.9023438.1728515 1.3125.5390625 1.3125 1.2041015 0 .8496094-.665039 1.3886719-1.7783203 1.3886719-.9169922 0-1.4707031-.3457031-1.6464844-.7822266-.0380859-.0878906-.055664-.1787109-.055664-.2666015 0-.2695313.1933594-.4511719.4658203-.4511719.2080078 0 .3486328.0732422.4863281.2841797.1435547.2636719.4277344.375.7675781.375.4189454 0 .6914063-.1875.6914063-.4453125 0-.234375-.1787109-.3544922-.6796875-.4511719l-.4365234-.0820312c-.8408204-.1582032-1.2802735-.5712891-1.2802735-1.2158204 0-.8144531.7060547-1.3388671 1.678711-1.3388671zm5.493164.008789c.328125 0 .553711.2021485.553711.5009766 0 .0996094-.0175782.1904297-.0527344.2841797l-1.0576172 2.9179687c-.1611328.4541016-.4277344.6533203-.8642578.6533203-.4423828 0-.703125-.1992187-.8671875-.6533203l-1.0488281-2.8828125c-.0322266-.09375-.0498047-.1933594-.0498047-.3017578 0-.3076172.2285156-.5185547.5683593-.5185547.2988282 0 .4716797.1347656.5566407.4306641l.8554687 2.8095703h.0234375l.8466797-2.8242188c.0820313-.2871093.2490234-.4160156.5361328-.4160156z" fill="#366000" fill-rule="nonzero"/></g></svg>