<svg height="32" viewBox="0 0 32 32" width="32" xmlns="http://www.w3.org/2000/svg"><g fill="none"><path d="m26.0785611 5.59c1.8458976 0 3.3785881 1.39308884 3.5787463 3.21629726l.0159108.19010259.0055896.17627279c.008381.30728903-.2150735.56605863-.5098388.61056807l-.0904079.00675929h-5.5561276l.0005937 13.02c0 1.912694-1.4916409 3.4769967-3.462872 3.5858574l-.0315246.006364-.1056034.0077786h-14.00158835c-1.84589752 0-3.37858806-1.3930888-3.57874622-3.2162973l-.01591084-.1901026-.00558955-.1762727c-.00838102-.3072891.21507343-.5660587.50983872-.6105681l.09040789-.0067593h5.40099469l.0005937-13.02c0-1.92408881 1.5094666-3.49562279 3.40880776-3.59500991l.1911922-.00499009zm-9.7061222 17.82h-12.77600005l.0580063.1904962c.29065514.834145 1.02846576 1.4558351 1.92166728 1.5847881l.18062573.0191378.16470069.0055779h11.31900005l-.0839124-.0959388c-.3114086-.3740355-.5467346-.8104899-.6866171-1.2845648l-.061898-.2400577zm9.6417822-16.62025025-.1588936.00433831c-.9830404.05695867-1.8026805.70421575-2.1187613 1.58767708l-.0641273.20823486h4.73l-.056884-.19049623c-.2906552-.83414498-1.0284658-1.45583508-1.9216673-1.58478812l-.1806258-.01913773z" fill="#000"/><path d="m13.621 17.954c.264 0 .456-.198.456-.456 0-.132-.066-.252-.138-.342l-1.128-1.386 1.068-1.308c.09-.114.138-.222.138-.354 0-.264-.216-.426-.42-.426s-.324.09-.45.252l-.912 1.2-.918-1.224c-.114-.15-.228-.228-.426-.228-.264 0-.456.198-.456.456 0 .132.066.252.138.342l1.068 1.302-1.134 1.392c-.09.114-.138.222-.138.354 0 .264.216.426.42.426s.324-.09.45-.252l.972-1.266.984 1.29c.114.15.228.228.426.228zm3.87-.036c.234 0 .42-.186.42-.42s-.186-.42-.42-.42h-1.71v-2.934c0-.258-.204-.462-.462-.462s-.462.204-.462.462v3.312c0 .258.204.462.462.462zm2.574.06c.906 0 1.542-.468 1.542-1.302v-.012c0-.732-.48-1.038-1.332-1.26-.726-.186-.906-.276-.906-.552v-.012c0-.204.186-.366.54-.366.288 0 .576.102.882.282.072.042.144.066.234.066.24 0 .432-.186.432-.426 0-.18-.102-.306-.204-.366-.378-.24-.822-.372-1.332-.372-.858 0-1.47.504-1.47 1.266v.012c0 .834.546 1.068 1.392 1.284.702.18.846.3.846.534v.012c0 .246-.228.396-.606.396-.408 0-.756-.144-1.074-.378-.06-.042-.144-.084-.264-.084-.24 0-.432.186-.432.426 0 .144.072.276.174.348.468.336 1.026.504 1.578.504z" fill="#fff"/></g></svg>