<svg height="32" viewBox="0 0 32 32" width="32" xmlns="http://www.w3.org/2000/svg"><g fill="none"><path d="m26.0785611 5.59c1.8458976 0 3.3785881 1.39308884 3.5787463 3.21629726l.0159108.19010259.0055896.17627279c.008381.30728903-.2150735.56605863-.5098388.61056807l-.0904079.00675929h-5.5561276l.0005937 13.02c0 1.912694-1.4916409 3.4769967-3.462872 3.5858574l-.0315246.006364-.1056034.0077786h-14.00158835c-1.84589752 0-3.37858806-1.3930888-3.57874622-3.2162973l-.01591084-.1901026-.00558955-.1762727c-.00838102-.3072891.21507343-.5660587.50983872-.6105681l.09040789-.0067593h5.40099469l.0005937-13.02c0-1.92408881 1.5094666-3.49562279 3.40880776-3.59500991l.1911922-.00499009zm-9.7061222 17.82h-12.77600005l.0580063.1904962c.29065514.834145 1.02846576 1.4558351 1.92166728 1.5847881l.18062573.0191378.16470069.0055779h11.31900005l-.0839124-.0959388c-.3114086-.3740355-.5467346-.8104899-.6866171-1.2845648l-.061898-.2400577zm9.6417822-16.62025025-.1588936.00433831c-.9830404.05695867-1.8026805.70421575-2.1187613 1.58767708l-.0641273.20823486h4.73l-.056884-.19049623c-.2906552-.83414498-1.0284658-1.45583508-1.9216673-1.58478812l-.1806258-.01913773z" fill="#000"/><path d="m11.3974214 17.918c1.32 0 2.232-.918 2.232-2.1v-.012c0-1.182-.912-2.088-2.232-2.088h-1.176c-.25800003 0-.46200003.204-.46200003.462v3.276c0 .258.204.462.46200003.462zm0-.834h-.714v-2.532h.714c.756 0 1.266.522 1.266 1.266v.012c0 .744-.51 1.254-1.266 1.254zm4.694.906c1.296 0 2.238-.978 2.238-2.172v-.012c0-1.194-.93-2.16-2.226-2.16s-2.238.978-2.238 2.172v.012c0 1.194.93 2.16 2.226 2.16zm.012-.852c-.744 0-1.272-.6-1.272-1.32v-.012c0-.72.516-1.308 1.26-1.308s1.272.6 1.272 1.32v.012c0 .72-.516 1.308-1.26 1.308zm4.616.852c.672 0 1.116-.198 1.494-.528.084-.072.156-.186.156-.33 0-.234-.198-.426-.432-.426-.108 0-.204.042-.276.102-.264.21-.522.33-.912.33-.72 0-1.218-.6-1.218-1.32v-.012c0-.72.51-1.308 1.218-1.308.33 0 .6.108.858.3.066.042.15.09.276.09.252 0 .456-.198.456-.45 0-.162-.084-.294-.18-.366-.348-.258-.774-.426-1.404-.426-1.29 0-2.19.978-2.19 2.172v.012c0 1.206.918 2.16 2.154 2.16z" fill="#fff"/></g></svg>