<svg height="32" viewBox="0 0 32 32" width="32" xmlns="http://www.w3.org/2000/svg"><path d="m26.0785611 5.59c1.8458976 0 3.3785881 1.39308884 3.5787463 3.21629726l.0159108.19010259.0055896.17627279c.008381.30728903-.2150735.56605863-.5098388.61056807l-.0904079.00675929h-5.5561276l.0005937 13.02c0 1.912694-1.4916409 3.4769967-3.462872 3.5858574l-.0315246.006364-.1056034.0077786h-14.00158835c-1.84589752 0-3.37858806-1.3930888-3.57874622-3.2162973l-.01591084-.1901026-.00558955-.1762727c-.00838102-.3072891.21507343-.5660587.50983872-.6105681l.09040789-.0067593h5.40099469l.0005937-13.02c0-1.92408881 1.5094666-3.49562279 3.40880776-3.59500991l.1911922-.00499009zm-9.7061222 17.82h-12.77600005l.0580063.1904962c.29065514.834145 1.02846576 1.4558351 1.92166728 1.5847881l.18062573.0191378.16470069.0055779h11.31900005l-.0839124-.0959388c-.3114086-.3740355-.5467346-.8104899-.6866171-1.2845648l-.061898-.2400577zm6.867-16.62h-11.3164117c-1.2702549 0-2.31002121.98683903-2.3944631 2.23570408l-.00553687.16432184-.00158838 13.01997408h7.40158835c.1486435 0 .2846624.0540526.3894732.1435743l.0494195.0473096.0503421.0616553.0493509.0827218.0342015.0855539.0163654.065183.0083013.0595089.0007111.0244932.0015324.0109451.0020222.1103887.0094454.1406662.0111794.0970213.0220964.1330282.0293333.1306752c.0603185.2373946.1561257.4616873.2817197.6661287l.1096712.1621466.0675988.0890231.0827881.0973338c.0489872.0551047.1007904.1077599.154961.15794.0886144.081629.1829271.1566715.2827185.2242858.1068699.0725549.2204229.1366374.3396276.1911451l.182917.0744429.8625436.1445296c1.1983191-.0187576 2.1834367-.9157602 2.339989-2.075644l.0161546-.1597376.0055368-.1643187v-13.62c0-.82308243.2762231-1.58164951.7410268-2.18805879l.1313744-.161546zm2.7747822-.00025025-.1588936.00433831c-.9830404.05695867-1.8026805.70421575-2.1187613 1.58767708l-.0641273.20823486h4.73l-.056884-.19049623c-.2906552-.83414498-1.0284658-1.45583508-1.9216673-1.58478812l-.1806258-.01913773z"/><path d="m13.8577 17.7404c.2376 0 .4104-.1782.4104-.4104 0-.1188-.0594-.2268-.1242-.3078l-1.0152-1.2474.9612-1.1772c.081-.1026.1242-.1998.1242-.3186 0-.2376-.1944-.3834-.378-.3834s-.2916.081-.405.2268l-.8208 1.08-.8262-1.1016c-.1026-.135-.2052-.2052-.3834-.2052-.2376 0-.4104.1782-.4104.4104 0 .1188.0594.2268.1242.3078l.9612 1.1718-1.0206 1.2528c-.081.1026-.1242.1998-.1242.3186 0 .2376.1944.3834.378.3834s.2916-.081.405-.2268l.8748-1.1394.8856 1.161c.1026.135.2052.2052.3834.2052zm3.483-.0324c.2106 0 .378-.1674.378-.378s-.1674-.378-.378-.378h-1.539v-2.6406c0-.2322-.1836-.4158-.4158-.4158s-.4158.1836-.4158.4158v2.9808c0 .2322.1836.4158.4158.4158zm2.3166.054c.8154 0 1.3878-.4212 1.3878-1.1718v-.0108c0-.6588-.432-.9342-1.1988-1.134-.6534-.1674-.8154-.2484-.8154-.4968v-.0108c0-.1836.1674-.3294.486-.3294.2592 0 .5184.0918.7938.2538.0648.0378.1296.0594.2106.0594.216 0 .3888-.1674.3888-.3834 0-.162-.0918-.2754-.1836-.3294-.3402-.216-.7398-.3348-1.1988-.3348-.7722 0-1.323.4536-1.323 1.1394v.0108c0 .7506.4914.9612 1.2528 1.1556.6318.162.7614.27.7614.4806v.0108c0 .2214-.2052.3564-.5454.3564-.3672 0-.6804-.1296-.9666-.3402-.054-.0378-.1296-.0756-.2376-.0756-.216 0-.3888.1674-.3888.3834 0 .1296.0648.2484.1566.3132.4212.3024.9234.4536 1.4202.4536z"/></svg>