<svg height="32" viewBox="0 0 32 32" width="32" xmlns="http://www.w3.org/2000/svg"><g fill="none" fill-rule="evenodd"><path d="m26.7154798 5.59c-1.7630069 0-3.1922063 1.42919947-3.1922063 3.19220637l-.0002463 14.02779363c0 1.912694-1.4916409 3.4769967-3.462872 3.5858574l-.0315246.006364-.1056034.0077786h-.0373081c-1.9115997 0-3.472933-1.4996688-3.571675-3.3866815l-.0049577-.1899512v-.6163622h-7.98684656l.0007874-13.0270051c0-1.92408881 1.5094666-3.49562279 3.40880776-3.59500991l.1911922-.00499009z" fill="#a6bfe6" fill-rule="nonzero"/><path d="m29.9076862 8.78220637c0-1.7630069-1.4291995-3.19220637-3.1922064-3.19220637s-3.1922063 1.42919947-3.1922063 3.19220637v.55011389h6.3844127z" fill="#195cbf" fill-opacity=".718414"/><path d="m16.3090864 22.2170051v.6163622c0 1.9753197 1.601313 3.5766327 3.5766327 3.5766327h-13.79632339l-.00093615-.0019949-.02436726.0019949c-1.91159972 0-3.47293303-1.4996688-3.57167504-3.3866815l-.0049577-.1899512v-.6163622z" fill="#1a5bbf"/><path d="m11.3974214 17.918c1.32 0 2.232-.918 2.232-2.1v-.012c0-1.182-.912-2.088-2.232-2.088h-1.176c-.25800003 0-.46200003.204-.46200003.462v3.276c0 .258.204.462.46200003.462zm0-.834h-.714v-2.532h.714c.756 0 1.266.522 1.266 1.266v.012c0 .744-.51 1.254-1.266 1.254zm4.694.906c1.296 0 2.238-.978 2.238-2.172v-.012c0-1.194-.93-2.16-2.226-2.16s-2.238.978-2.238 2.172v.012c0 1.194.93 2.16 2.226 2.16zm.012-.852c-.744 0-1.272-.6-1.272-1.32v-.012c0-.72.516-1.308 1.26-1.308s1.272.6 1.272 1.32v.012c0 .72-.516 1.308-1.26 1.308zm4.616.852c.672 0 1.116-.198 1.494-.528.084-.072.156-.186.156-.33 0-.234-.198-.426-.432-.426-.108 0-.204.042-.276.102-.264.21-.522.33-.912.33-.72 0-1.218-.6-1.218-1.32v-.012c0-.72.51-1.308 1.218-1.308.33 0 .6.108.858.3.066.042.15.09.276.09.252 0 .456-.198.456-.45 0-.162-.084-.294-.18-.366-.348-.258-.774-.426-1.404-.426-1.29 0-2.19.978-2.19 2.172v.012c0 1.206.918 2.16 2.154 2.16z" fill="#0a46a3" fill-rule="nonzero"/></g></svg>