<svg height="32" viewBox="0 0 32 32" width="32" xmlns="http://www.w3.org/2000/svg"><path d="m6.10363501 13.7281128v-5.44827116c0-.86976102.70508062-1.57484164 1.57484164-1.57484164h5.00408765c.6419963 0 1.2197263.38970314 1.4601949.98496284l.4565763 1.13021598c.057236.14168289.1947465.2344395.3475536.2344395h9.5788508c.8697611 0 1.5748417.70508062 1.5748417 1.57484168v3.0986528h.1619964c.8836556 0 1.6.7163444 1.6 1.6 0 .1131172-.0119957.2259156-.0357859.3365028l-1.5697485 7.2968872c-.1585724.737115-.8102355 1.2634972-1.5642141 1.2634972h-17.18144241c-.75397864 0-1.40564171-.5263822-1.56421414-1.2634972l-1.56974847-7.2968872c-.18584534-.8638916.36381976-1.7148716 1.22771138-1.9007169.11058723-.0237902.22338554-.0357859.33650277-.0357859zm-.16913763 1.2c-.2209139 0-.4.1790861-.4.4 0 .0282793.00299892.0564789.00894646.0841257l1.56974846 7.2968872c.03964311.1842787.20255888.3158743.39105354.3158743h17.18858366c.1884947 0 .3514104-.1315956.3910535-.3158743l1.5697485-7.2968872c.0059475-.0276468.0089465-.0558464.0089465-.0841257 0-.2209139-.1790861-.4-.4-.4zm18.96608422-1.2v-3.0986528c0-.2070194-.1678223-.3748417-.3748417-.3748417h-9.5788508c-.6419963 0-1.2197263-.38970312-1.4601949-.98496282l-.4565763-1.13021598c-.0572361-.14168289-.1947466-.2344395-.3475536-.2344395h-5.00408765c-.20701932 0-.37484164.16782232-.37484164.37484164v5.44827116h1.25366379v-2.2768039h15.1989781v2.2768039z"/></svg>