<svg height="32" viewBox="0 0 32 32" width="32" xmlns="http://www.w3.org/2000/svg"><path d="m16 5.44c5.83 0 10.56 4.741 10.56 10.56s-4.73 10.56-10.56 10.56-10.56-4.741-10.56-10.56 4.741-10.56 10.56-10.56zm3.264 14.616h-6.347c.781 2.64 2.2 4.488 3.179 5.17.979-.682 2.398-2.53 3.168-5.17zm-7.722 0h-3.795c1.21 2.53 3.531 4.433 6.325 5.06-.473-.572-.935-1.254-1.331-1.991-.407-.77-.858-1.804-1.199-3.069zm12.892 0h-3.795c-.33 1.265-.792 2.299-1.199 3.069-.396.748-.858 1.419-1.331 1.991 2.805-.627 5.126-2.53 6.325-5.06zm.517-6.6h-17.71c-.253.836-.385 1.727-.385 2.64s.132 1.804.385 2.64h17.71c.253-.836.385-1.727.385-2.64s-.132-1.804-.385-2.64zm-14.551 1.1121419c.234 0 .402.15.468.366l.51 1.632.504-1.644c.06-.192.198-.348.438-.348.252 0 .426.192.426.42 0 .06-.018.144-.03.186l-.81 2.298c-.096.282-.282.408-.504.408h-.03c-.222 0-.408-.126-.492-.39l-.51-1.62-.516 1.62c-.084.264-.27.39-.492.39h-.03c-.222 0-.408-.126-.504-.408l-.786-2.268c-.018-.054-.042-.144-.042-.222 0-.21.168-.414.438-.414.228 0 .378.144.444.354l.492 1.632.504-1.626c.066-.216.234-.366.468-.366zm5.594 0c.234 0 .402.15.468.366l.51 1.632.504-1.644c.06-.192.198-.348.438-.348.252 0 .426.192.426.42 0 .06-.018.144-.03.186l-.81 2.298c-.096.282-.282.408-.504.408h-.03c-.222 0-.408-.126-.492-.39l-.51-1.62-.516 1.62c-.084.264-.27.39-.492.39h-.03c-.222 0-.408-.126-.504-.408l-.786-2.268c-.018-.054-.042-.144-.042-.222 0-.21.168-.414.438-.414.228 0 .378.144.444.354l.492 1.632.504-1.626c.066-.216.234-.366.468-.366zm5.594 0c.234 0 .402.15.468.366l.51 1.632.504-1.644c.06-.192.198-.348.438-.348.252 0 .426.192.426.42 0 .06-.018.144-.03.186l-.81 2.298c-.096.282-.282.408-.504.408h-.03c-.222 0-.408-.126-.492-.39l-.51-1.62-.516 1.62c-.084.264-.27.39-.492.39h-.03c-.222 0-.408-.126-.504-.408l-.786-2.268c-.018-.054-.042-.144-.042-.222 0-.21.168-.414.438-.414.228 0 .378.144.444.354l.492 1.632.504-1.626c.066-.216.234-.366.468-.366zm-7.714-7.4371419c-2.706.671-4.95 2.53-6.127 5.016h3.707c.242-1.067.583-2.046 1.023-2.926.396-.792.869-1.496 1.397-2.09zm4.444-.011c.528.594 1.001 1.298 1.397 2.09.44.88.781 1.87 1.023 2.926h3.707c-1.177-2.475-3.421-4.334-6.127-5.016zm-2.222-.165c-1.265.759-2.607 2.464-3.278 5.181h6.567c-.682-2.717-2.024-4.411-3.289-5.181z"/></svg>