<svg height="32" viewBox="0 0 32 32" width="32" xmlns="http://www.w3.org/2000/svg"><g fill="none" fill-rule="evenodd"><path d="m25.9165307 11.8016235c-1.5906903-3.83019246-5.1939185-6.37390318-9.2904522-6.62082481-.0727292-.0071769-.1525407-.0071769-.2326245-.01462634h-.0291462c-.0432198 0-.0868937-.00708605-.1304767-.00708605h-.0219731c-.0798115 0-.1596229-.00744944-.2468798-.00744944-1.4166306 0-2.7966695.27608346-4.1114246.82116433-2.65838412 1.09761118-4.7286695 3.16900932-5.82569104 5.82882231-1.10410378 2.6600854-1.10410378 5.5888049 0 8.2418044 1.67095575 4.040957 5.57881124 6.6570726 9.95164334 6.6570726.0582015 0 .1088668 0 .1670683-.0071769.0290553 0 .0652838.0071769.0943391.0071769.0145277 0 .0290554 0 .0365008-.0071769.0652838 0 .1234853-.0074494.1886783-.0074494h.0727292c.0216099 0 .0362284 0 .0582015-.0070861 1.1984429-.0653188 2.3752759-.3342254 3.5009896-.7995428 2.6587473-1.0972478 4.7289419-3.1685551 5.825691-5.8287314 1.0970215-2.6600855 1.1041038-5.588805 0-8.241441-.007173 0-.007173 0-.007173-.0074494z" fill="#009f27"/><path d="m15.98 5.15412963h-.4654707v21.54934307h.4654707c5.9362341 0 10.7746716-4.8384374 10.7746716-10.7746715 0-5.93623415-4.8384375-10.77467157-10.7746716-10.77467157z" fill="#007c20"/><path d="m15.5145293 20.4937555v4.6661648c-1.5035243-.4435142-2.8398893-2.2459149-3.602865-4.6661648zm-5.1137439 0c.450449 1.606535 1.1331592 2.9944018 1.9684101 4.0554925-1.9028539-.7995428-3.50807189-2.2093944-4.53245502-4.0554925zm-.3557466-7.6818247c-.1670683.9811456-.25432518 2.0277009-.25432518 3.1249487 0 1.0830756.09433913 2.1369895.27593518 3.125312h-2.88356318c-.72638407-2.0351503-.72638407-4.2225598 0-6.2502607zm5.4694905-.0071769v6.2499881h-3.9731393c-.2035691-.9883224-.3124359-2.0418729-.3124359-3.1249486 0-1.0972478.1017845-2.1512525.2759351-3.1250395zm0-6.10517822v4.67334162h-3.6681488c.7335571-2.5001042 2.0702854-4.26625706 3.6681488-4.67334162zm-3.2977837.69061746c-.7987501 1.03937837-1.4382405 2.39817413-1.8592708 3.97563816h-2.52073432c.98070929-1.75915766 2.50620662-3.14702439 4.38000512-3.97563816z" fill="#42c787"/><path d="m20.5555439 20.4937555c-.7625217 2.4202499-2.0989776 4.2226506-3.6027742 4.6661648v-4.6661648zm3.5521996 0c-.864397 1.5553883-2.1426514 2.8127081-3.7117317 3.6558574.7043201-.9957719 1.2782543-2.2455515 1.6779472-3.6558574zm-3.1453338-7.6818247c.1815961.9736962.2762984 2.0206148.2762984 3.1249487 0 1.0830756-.10923 2.1369895-.3125268 3.125312h-3.9734116v-6.2502607zm3.7989887-.0071769c.7263841 2.0348778.7263841 4.2222873 0 6.2499881h-2.3607482c.181596-.9883224.2762983-2.0347869.2762983-3.1249486 0-1.0972478-.0872569-2.1441664-.2543252-3.1250395zm-4.2203822-5.01501648c1.4747412.82861376 2.716858 2.05686265 3.5667273 3.57609388h-1.9975561c-.3703651-1.38832097-.9005347-2.60194353-1.5691712-3.57609388zm-3.5882465-1.09724779c1.5981357.41417061 2.9275094 2.18032347 3.6684211 4.67334167h-3.6684211z" fill="#009f27"/><path d="m5.09796825 16.2794638c-.03342479-1.0035435.07444541-2.0104733.32361061-2.9959927.34344733.0476564.59070623.3083582.70017116.6987405l.52747581 1.9609122.53983977-1.9518869c.11920001-.4372066.43602335-.7252847.85062744-.7252847h.07738703c.41460409 0 .73142743.2880781.85034196.7242493l.5495012 1.9706939.54434657-1.9899672c.1172769-.4205939.3974471-.6953394.8073492-.6953394.4599071 0 .7970053.3853516.7970053.8610734 0 .1005092-.0222482.240764-.0515847.3546925l-1.1602647 3.6890887c-.154017.5070459-.47747181.7875933-.90073546.7875933h-.0429928c-.42103088 0-.74714682-.2781587-.88463991-.7624519l-.55236905-1.966413-.55900945 1.9669124c-.13735206.4837938-.463468.7619525-.88449888.7619525h-.04299279c-.42326365 0-.74671844-.2805474-.90046199-.7867009zm21.43328935-2.9845597c.2604399 1.0342254.3643356 2.093081.3128111 3.1477517l-.546556 1.7377876c-.1540171.5070459-.4774718.7875933-.9007355.7875933h-.0429928c-.4210309 0-.7471468-.2781587-.8846399-.7624519l-.5523691-1.966413-.5590094 1.9669124c-.1373521.4837938-.463468.7619525-.8844989.7619525h-.0429928c-.4232636 0-.7467184-.2805474-.900462-.7867009l-1.1269963-3.6445839c-.0402109-.1351965-.0679295-.2820492-.0679295-.4097263 0-.4613967.3412659-.8514368.8142025-.8514368.4038732 0 .6949475.2734937.8163988.7066228l.5274758 1.9609122.5398398-1.9518869c.1192-.4372066.4360233-.7252847.8506274-.7252847h.077387c.4146041 0 .7314275.2880781.850342.7242493l.5495012 1.9706939.5443466-1.9899672c.0991023-.3554138.3145223-.6066812.62625-.6760241zm-11.0953605 4.9111801c-.137352.4837938-.463468.7619525-.8844989.7619525h-.0429928c-.4232636 0-.7467184-.2805474-.9004619-.7867009l-1.1269964-3.6445839c-.0402109-.1351965-.0679294-.2820492-.0679294-.4097263 0-.4613967.3412658-.8514368.8142024-.8514368.4038732 0 .6949475.2734937.8163988.7066228l.5274758 1.9609122.5398398-1.9518869c.1192-.4372066.4360233-.7252847.8506274-.7252847h.0773871c.414604 0 .7314274.2880781.8503419.7242493l.5495012 1.9706939.5443466-1.9899672c.1172769-.4205939.3974471-.6953394.8073492-.6953394.4599071 0 .7970053.3853516.7970053.8610734 0 .1005092-.0222482.240764-.0515847.3546925l-1.1602647 3.6890887c-.154017.5070459-.4774718.7875933-.9007355.7875933h-.0429928c-.4210309 0-.7471468-.2781587-.8846399-.7624519l-.552369-1.966413z" fill="#fff" fill-rule="nonzero"/></g></svg>