<svg height="32" viewBox="0 0 32 32" width="32" xmlns="http://www.w3.org/2000/svg"><path d="m13.9102951 18.05733 5.68 2.32c.27.11.5.28.68.49 1.05-.64 3.26-2 4.26-2.57.78-.44 1.74-.21 2.24.53l.01.02c.49.73.33 1.72-.37 2.26l-6.71 5.12c-.58.46-1.3.69-2.03.69-.33 0-.66-.05-.98-.15l-4.71-1.44c-.27-.08-.56-.05-.8.09l-2.11999999 1.25c-.27.16-.62.09-.82-.16l-3.17-4.05c-.21-.27-.17-.66.1-.88l.37-.3 3.19-2.5c1.46999999-1.15 3.44999999-1.43 5.17999999-.72zm-4.41999999 1.72-3.06 2.39 2.44 3.14 1.64999999-.97c.37-.2.76-.31 1.16-.31.22 0 .44.03.66.1l4.71 1.44c.65.2 1.36.07 1.89-.34l6.71-5.12c.17-.13.21-.37.09-.55l-.01-.02c-.13-.19-.38-.25-.58-.14-.4323529.2429412-1.1088581.646955-1.8186749 1.0766009l-.6116548.3713861c-.8133035.4951272-1.591435.9731895-2.0196703 1.232013 0 .19-.04.38-.11.57l-.01.03c-.31.85-1.2 1.33-2.08 1.11l-5.27-1.33c-.34-.08-.54-.43-.46-.76.08-.34.43-.54.76-.46l5.28 1.33c.25.06.5-.07.59-.31l.01-.03c.04-.1.04-.21.02-.3 0-.01 0-.02-.01-.03-.04-.15-.15-.28-.31-.35-1.9-.77-3.79-1.54-5.69-2.32-1.31-.53-2.81-.32-3.92999999.55zm9.17073859-15.830305c3.5085132 0 6.352725 2.84421186 6.352725 6.352725 0 3.5085131-2.8442118 6.352725-6.352725 6.352725-3.5085131 0-6.352725-2.8442119-6.352725-6.352725 0-3.50851314 2.8442119-6.352725 6.352725-6.352725zm0 1.2c-2.8457714 0-5.152725 2.30695356-5.152725 5.152725 0 2.8457714 2.3069536 5.152725 5.152725 5.152725 2.8457715 0 5.152725-2.3069536 5.152725-5.152725 0-2.84577144-2.3069535-5.152725-5.152725-5.152725zm0 1.02223897c.3475081 0 .629219.28171096.629219.62921903v.40746381c.5438983.12306939.9842974.41555843 1.2939737.86894088.1960025.28695798.1222685.67847481-.1646895.8744773s-.6784748.1222685-.8744773-.16468949c-.1782345-.26094478-.449992-.38704067-.8840259-.38704067-.2525672 0-.4417122.06394646-.5935419.19257641-.1284738.10884278-.1808483.2202055-.1808483.37968576 0 .09656697.012553.16507601.0311536.20551163.0186746.04059662.0447847.07398458.0835308.10549916.0630375.0512724.1471338.09951819.253032.14292953.1364602.05593977.3009017.11043277.4967077.16396464l.1565096.04412969c.239075.06533676.4511889.1357904.6374579.21214854.2170449.08897426.4073125.19890971.5697734.33104931.1872613.1523113.3331812.3394377.4327393.5558666.0990335.2152885.1463747.4598323.1463747.7314233 0 .5310352-.2163931.9929451-.6258841 1.3398653-.2281006.1932464-.4892122.3301101-.7777857.4093743v.4512059c0 .3475081-.2817109.629219-.629219.629219s-.629219-.2817109-.629219-.629219v-.4364973c-.5438743-.1230635-.984274-.4155222-1.2939737-.8689389-.1960025-.286958-.1222685-.6784748.1646895-.8744773s.6784748-.1222685.8744773.1646895c.1782346.2609448.4499921.3870406.8840259.3870406.2525672 0 .4417122-.0639464.593542-.1925764.1284737-.1088427.1808483-.2202055.1808483-.3796857 0-.096567-.0125531-.165076-.0311536-.2055117-.0186746-.0405966-.0447848-.0739845-.0835308-.1054991-.0630376-.0512724-.1471339-.0995182-.2530321-.1429295-.1364601-.0559398-.3009017-.1104328-.4967077-.1639647l-.1565096-.0441297c-.2390749-.0653367-.4511889-.1357904-.6374579-.2121485-.2170449-.0889743-.4073125-.1989097-.5697734-.3310493-.1872613-.1523113-.3331812-.33943772-.4327393-.55586664-.0990334-.21528846-.1463746-.45983232-.1463746-.73142326 0-.53103521.216393-.99294509.6258841-1.33986532.2280877-.1932356.4891994-.33010635.7777856-.40937453v-.42217415c0-.34750807.2817109-.62921903.629219-.62921903z"/></svg>