<svg height="32" viewBox="0 0 32 32" width="32" xmlns="http://www.w3.org/2000/svg"><g fill-rule="evenodd"><path d="m12.0898835 25.0826131c.2437325 0 .4874649.0332362.7311973.1107875l7.0870529.6780114c.6931748.0663154 1.3772014-.197086 1.8468735-.7111844l3.8846722-4.2521233c.170312-.1864218.1801739-.4627657.037249-.6593339l-.0802033-.0874362c-.2322081-.2018668-.5772592-.2031404-.810951-.0029933l-3.4662814 2.9687224c-.5167934.4426115-1.2082943.6232348-1.8755283.4898971l-5.5184452-1.1027874c-.3766774-.08863-.5982523-.4763861-.5096224-.8419847.08863-.3766774.4763861-.5982524.8419848-.5096224l4.6750017.6589422c.2769687.0664725.5539373-.0775512.6536461-.3434412l.0110787-.0332362c.0332363-.0830906.0415453-.172413.0342749-.2539457l-.0121174-.0784167c0-.0110788 0-.0221575-.0110787-.0332363-.044315-.1661812-.1661812-.3102049-.3434412-.3877561-2.1049619-.8530635-3.0242684-.8915959-5.1292303-1.7557381-1.4513159-.5871736-3.1131279-.3545199-4.35394753.6093311l-3.90971519 2.9691041 3.10440299 3.9865197 1.82799323-1.0746385c.4099136-.2215749.8419848-.3434411 1.2851346-.3434411z"/><path d="m19.6714324 3.79c3.3716984 0 6.105 2.7333016 6.105 6.105s-2.7333016 6.105-6.105 6.105-6.105-2.7333016-6.105-6.105 2.7333016-6.105 6.105-6.105zm.1129287 1.68187697c-.3822589 0-.692141.30988205-.692141.69214093v.46439157c-.3174448.08719499-.6046676.23775282-.8555641.45031197-.4504402.38161226-.6884726.88971313-.6884726 1.47385186 0 .29875003.0520754.56774827.1610122.80456558.1095138.23807182.2700258.44391084.4760132.6114533.178707.14535362.3880013.26628252.6267507.36415422.2048959.083994.4382213.161493.7012037.2333634l.1721606.0485427c.2153866.058885.3962723.1188273.5463784.1803611.116488.0477524.208994.1008228.2783353.1572224.0426206.0346661.0713418.0713928.0918839.1160491.0204605.0444792.0342689.1198391.0342689.2260628 0 .1754283-.057612.2979273-.1989331.4176543-.1670128.141493-.3750723.2118341-.6528961.2118341-.4774373 0-.7763705-.1387055-.9724285-.4257447-.2156028-.3156538-.6462713-.3967612-.9619251-.1811585-.3156537.2156028-.3967611.6462713-.1811584.9619251.3406697.4987583.8251094.8204629 1.423371.9558328v.480147c0 .3822589.3098821.6921409.692141.6921409.3822588 0 .6921409-.309882.6921409-.6921409v-.4963265c.3174308-.0871906.6046536-.2377407.8555642-.4503117.4504401-.3816123.6884725-.8897132.6884725-1.4738519 0-.29875-.0520754-.5677483-.1610121-.8045656-.1095139-.2380718-.2700259-.4439108-.4760133-.61145327-.178707-.14535359-.3880013-.26628254-.6267507-.36415423-.2048959-.08399394-.4382213-.16149295-.7012037-.23336339l-.1721606-.04854266c-.2153866-.05888505-.3962723-.11882736-.5463784-.1803611-.116488-.04775247-.208994-.10082284-.2783353-.15722248-.0426206-.03466604-.0713418-.0713928-.0918839-.11604908-.0204605-.04447918-.0342689-.11983912-.0342689-.22606279 0-.17542829.057612-.29792728.1989331-.41765434.1670128-.14149294.3750723-.21183405.6528962-.21183405.4774372 0 .7763704.13870548.9724284.42574474.2156028.31565378.6462713.39676118.9619251.18115844s.3967611-.64627125.1811584-.96192503c-.3406439-.49872069-.825083-.82045864-1.423371-.95583498v-.44821018c0-.38225888-.3098821-.69214093-.6921409-.69214093z" fill-rule="nonzero"/></g></svg>