<svg height="32" viewBox="0 0 32 32" width="32" xmlns="http://www.w3.org/2000/svg"><g fill="none" fill-rule="evenodd"><path d="m10.5121562 10.005c0-3.16766643 2.4125094-5.77186112 5.5003815-6.0754375l2.4350352-.0295625v12.21l-2.4350352-.0295625c-3.0878721-.3035764-5.5003815-2.9077711-5.5003815-6.0754375z" fill="#af8c1d"/><path d="m18.4475729 3.9c3.3716984 0 6.105 2.7333016 6.105 6.105s-2.7333016 6.105-6.105 6.105-6.105-2.7333016-6.105-6.105 2.7333016-6.105 6.105-6.105z" fill="#f8c31c" fill-rule="nonzero"/><path d="m16.4449896 12.3888582c-.2156027-.3156538-.1344953-.7463223.1811585-.9619251.3156537-.2156027.7463223-.1344953.961925.1811585.196058.2870392.4949912.4257447.9724285.4257447.2778239 0 .4858834-.0703411.6528961-.2118341.1413212-.119727.1989332-.242226.1989332-.4176543 0-.1062237-.0138084-.1815836-.034269-.2260628-.0205421-.0446563-.0492632-.081383-.0918839-.1160491-.0693413-.0563996-.1618473-.10947-.2783352-.1572224-.1501062-.0615338-.3309919-.1214761-.5463785-.1803611l-.1721605-.0485427c-.2629825-.0718704-.4963079-.1493694-.7012038-.2333634-.2387494-.0978717-.4480437-.2188006-.6267507-.3641542-.2059874-.16754248-.3664994-.3733815-.4760132-.61145332-.1089368-.23681731-.1610121-.50581555-.1610121-.80456558 0-.58413873.2380323-1.0922396.6884725-1.47385186.2508965-.21255915.5381194-.36311698.8555641-.45031197v-.46439157c0-.38225888.3098821-.69214093.692141-.69214093s.6921409.30988205.6921409.69214093v.44821018c.5982881.13537634 1.0827271.45711429 1.423371.95583498.2156028.31565378.1344954.74632229-.1811584.96192503s-.7463223.13449534-.961925-.18115844c-.196058-.28703926-.4949913-.42574474-.9724285-.42574474-.2778239 0-.4858834.07034111-.6528962.21183405-.1413211.11972706-.1989331.24222605-.1989331.41765434 0 .10622367.0138084.18158361.034269.22606279.020542.04465628.0492632.08138304.0918838.11604908.0693414.05639964.1618473.10947001.2783353.15722248.1501062.06153374.3309919.12147605.5463784.1803611l.1721606.04854266c.2629825.07187044.4963078.14936945.7012037.23336339.2387494.09787169.4480438.21880064.6267508.36415423.2059874.16754247.3664993.37338147.4760132.61145327.1089368.2368173.1610121.5058156.1610121.8045656 0 .5841387-.2380323 1.0922396-.6884725 1.4738519-.2509106.212571-.5381334.3631211-.8555642.4503117v.4963265c0 .3822589-.309882.6921409-.6921409.6921409s-.692141-.309882-.692141-.6921409v-.480147c-.5982616-.1353699-1.0827013-.4570745-1.423371-.9558328z" fill="#846913" fill-rule="nonzero"/><path d="m13.9077825 22.0654445c-.1172916-.023017 4.1227621-1.3995736 4.0521446-1.4208468l1.7203669-.8452661c.3559931-.1909739.7905237-.1460786 1.1010942.1137641.3119917.2610318.7465025.3115874 1.1088278.1290128l.5474842-.2758755c.3374734-.1700518.7435659-.111634 1.0209202.1468627l.041629.0387986c.2505869.2335492.620042.2800312.9194482.1156778.3069214-.1684786.681389-.1475112.9680963.0542063l.0661822.0465636c.2098211.147623.2617361.4395382.1159554.6520109-.0294214.0428811-.0657155.0804796-.1073812.1112406l-4.9692123 3.6844292c-1.4130621 1.043235-3.2078348 1.4040434-4.907273.9865235l-5.2983726-1.30171-3.6710542 1.9599859-2.44565406-4.4534504 4.05621414-2.2648864c1.78775172-.9982349 3.80351972-.1439117 5.64305222.7526776l2.1895753.0849925c.4417008.2152852.8971755.3998331 1.3632485.5524391.2106921.0710323-1.6602129 1.4968856-3.5152918 1.13285z" fill="#69043f"/><path d="m17.8876545 20.8410739c.4836183.0287064.8523972.4440277.8236908.927646s-.4440277.8523972-.927646.8236908c-.0136944-.0008129-.0273678-.0019469-.041009-.0034011l-3.348698-.3570005c-.0710733-.0075767-.1348317.0438976-.1424084.1149709-.0004857.0045568-.0007291.0091362-.0007291.0137188 0 .085821.0552966.1618681.1369378.1883248l2.6344396.8537182c1.7811001.5771845 3.7147516.4580061 5.4114921-.333531l.4008344-.1869911-2.3412207 1.733803c-1.4130621 1.043235-3.2078348 1.4040434-4.907273.9865235l-5.2983726-1.30171-3.6710542 1.9599859-2.44565406-4.4534504 4.05621414-2.2648864c1.78775172-.9982349 3.94204242-1.0586036 5.78157492-.1620143.5929681.3748538 1.2766524.7080819 2.0510526.9996844.5185602.1952652 1.1278364.3489047 1.8278287.4609185z" fill="#fa8bb9"/></g></svg>