<svg height="32" viewBox="0 0 32 32" width="32" xmlns="http://www.w3.org/2000/svg"><g fill="none" fill-rule="evenodd"><path d="m7.5593367 4.48386033h16.8662773c1.6568542 0 3 1.34314575 3 3v17.44526157c0 1.6568542-1.3431458 3-3 3h-16.8662773c-1.65685425 0-3-1.3431458-3-3v-17.44526157c0-1.65685425 1.34314575-3 3-3z" fill="#ffd03c"/><path d="m10.4991421 4.48386033h5.6568543l-11.5966597 11.59665967v-5.6568543zm11.3164532 0h2.6100187c.8403387 0 1.5999788.34551215 2.1446096.9022259l-21.38162864 21.38162867c-.39441833-.5078402-.62925826-1.1457917-.62925826-1.838593v-3.189003zm5.6100187 5.70643447v5.6568543l-12.0819729 12.0819728h-5.6568542zm0 11.3164532v3.4223739c0 1.6568542-1.3431458 3-3 3h-3.4223739z" fill="#252d4f"/><path d="m24.7772727 18.9760216v3.1281297c0 1.6520396-1.3045137 2.9915595-2.91338 2.9915595h-11.6186944c-1.60886636 0-2.91338012-1.3395199-2.91338012-2.9915595v-3.1281297" fill="#8e2900"/><path d="m21.8638927 22.2095455h-11.6186944c-1.60886636 0-2.91338012-1.3002202-2.91338012-2.9037912v-9.90216651c0-1.60357096 1.30451376-2.90358779 2.91338012-2.90358779h11.6186944c1.6090703 0 2.91338 1.30001683 2.91338 2.90358779v9.90216651c0 1.603571-1.3043097 2.9037912-2.91338 2.9037912z" fill="#d9541a"/><g fill-rule="nonzero"><path d="m15.9924753 15.2300991c-.4680712 0-.85-.3819288-.85-.85v-5.02999999c0-.46807119.3819288-.85.85-.85s.85.38192881.85.85v5.02999999c0 .4680712-.3819288.85-.85.85zm0 1.8560595c.6950117 0 1.25.5588424 1.25 1.25 0 .6950117-.5588424 1.25-1.25 1.25-.6880712 0-1.25-.5619288-1.25-1.25 0-.6950117.5588424-1.25 1.25-1.25z" fill="#be4700"/><path d="m15.9924753 15.8355942c-.4680712 0-.85-.3819289-.85-.85v-5.03000004c0-.46807119.3819288-.85.85-.85s.85.38192881.85.85v5.03000004c0 .4680711-.3819288.85-.85.85zm0 1.8560595c.6950117 0 1.25.5588424 1.25 1.25 0 .6950117-.5588424 1.25-1.25 1.25-.6880712 0-1.25-.5619288-1.25-1.25 0-.6950117.5588424-1.25 1.25-1.25z" fill="#fff"/></g></g></svg>