<svg height="32" viewBox="0 0 32 32" width="32" xmlns="http://www.w3.org/2000/svg"><path d="m20.9950093 9.1h-9.9900186c-1.03766759 0-1.9049907.9598996-1.9049907 2.1724428v9.4549202c0 .6130113.22167287 1.1614795.57495065 1.5539962.34553765.3839168.81697655.6186408 1.33004005.6186408h9.9900186c1.0377275 0 1.9049907-.9599726 1.9049907-2.172637v-9.4549202c0-.6369883-.2393004-1.2042217-.6169194-1.59921357-.3412432-.35694261-.7954403-.57322923-1.2880713-.57322923zm-13.0950093 3.6398567-3.3406633 3.3406633v-5.6568543l5.9398054-5.93980537h5.6568543l-3.4161397 3.41613967h5.6595989l3.4161397-3.41613967h2.6100187c.8403387 0 1.5999788.34551215 2.1446096.9022259l-3.4384045 3.43840457c.597863.61664394.9681809 1.4882866.9681809 2.447952v2.243466l3.325614-3.325614v5.6568543l-3.325614 3.3256139v1.5546c0 1.8497562-1.3758086 3.372637-3.1049907 3.372637h-1.8222463l-3.8291219 3.8291219h-5.6568542l3.8291219-3.8291219h-2.5109181c-.8534897 0-1.62093744-.3710734-2.17932883-.969352l-3.63706691 3.6370669c-.39441833-.5078402-.62925826-1.1457917-.62925826-1.838593v-3.189003l3.3406633-3.3406633zm19.525614 8.7668913v3.4223739c0 1.6568542-1.3431458 3-3 3h-3.4223739zm-11.425614-4.776748c-.33 0-.6-.27-.6-.6v-5.03c0-.33.27-.6.6-.6s.6.27.6.6v5.03c0 .33-.27.6-.6.6zm0 1.791004c.56 0 1 .45 1 1 0 .56-.45 1-1 1s-1-.45-1-1c0-.56.45-1 1-1z" fill-rule="evenodd"/></svg>