<svg height="32" viewBox="0 0 32 32" width="32" xmlns="http://www.w3.org/2000/svg"><path d="m18.3023367 24.9688603-2.9586956 2.9602616h-5.6568542l2.9585498-2.9602616zm9.1232773-3.4621123v3.4223739c0 1.6568542-1.3431458 3-3 3h-3.4223739zm-20.3952773-2.2398877.0006633 1.5077764.00977093.283911c.08205012 1.0385432.46310076 1.9333127 1.084365 2.6235813l.07120077.0757313-3.00774174 3.0098546c-.39441833-.5078402-.62925826-1.1457917-.62925826-1.838593v-3.189003zm14.0146227-10.2358603c.4975573 0 .9562964.21844949 1.300952.57896152.339018.35461495.5676543.84668288.6142769 1.40350438l.0088117.2117014v9.5494694c0 1.1715392-.8014233 2.1095702-1.7883655 2.1889235l-.1356751.0054398h-10.0899188c-.5181942 0-.99434745-.2370712-1.34334044-.6248272-.31716495-.3523927-.52930592-.8292387-.57253274-1.3656967l-.00816742-.2038394v-9.5494694c0-1.1714223.80147869-2.10938071 1.7883727-2.18872791l.1356679-.00543939zm-5.0449594 9.490004c-.55 0-1 .44-1 1 0 .55.45 1 1 1s1-.44 1-1c0-.55-.44-1-1-1zm11.425614-8.3307092v5.6568543l-2.4572773 2.4547112v-5.657zm-11.425614.3097052c-.297 0-.5454.2187-.59211.50301l-.00789.09699v5.03c0 .33.27.6.6.6.297 0 .5454-.2187.59211-.50301l.00789-.09699v-5.03c0-.33-.27-.6-.6-.6zm.1559964-6.01613967-2.5486597 2.547-2.6522961.00013967-.2157904.00704494c-2.16851678.17273324-3.7082502 2.03162886-3.7082502 4.18712236l-.0006633 2.381693-2.471 2.4736597v-5.6568543l5.9398054-5.93980537zm8.2696176 0c.8403387 0 1.5999788.34551215 2.1446096.9022259l-2.8118869 2.8097741-.1250811-.1247014c-.702436-.65816423-1.614931-1.04015893-2.5882962-1.04015893l-1.7776227-.00013967 2.5482586-2.547z" fill-rule="evenodd"/></svg>