<svg height="32" viewBox="0 0 32 32" width="32" xmlns="http://www.w3.org/2000/svg"><g fill="#005a7d"><path d="m26 14.4c.2982338 0 .5456468.2175896.592147.5026769l.007853.0973231v7c0 .2982338-.2175896.5456468-.5026769.592147l-.0973231.007853h-20c-.29823376 0-.54564675-.2175896-.59214701-.5026769l-.00785299-.0973231v-7c0-.3313708.26862915-.6.6-.6.29823376 0 .54564675.2175896.59214701.5026769l.00785299.0973231v6.399h18.8v-6.399c0-.2982338.2175896-.5456468.5026769-.592147z"/><path d="m15.99 6.00962181c.297 0 .5454.2187.59211.50301l.00789.09699v6.41999999l2.39-.03c.23 0 .45.13.55.34.0857143.18.0832653.3893878-.0136443.5588921l-.0563557.0811079-3.04 3.79-.0598148.0656019c-.1074074.1016203-.2518519.1627314-.4101852.1543981-.15 0-.3-.0625-.4094907-.1643518l-.0605093-.0656482-2.96-3.7c-.09-.1-.13-.24-.13-.37 0-.09.02-.18.06-.26.0771429-.1714286.242449-.2987755.4329446-.3316618l.0970554-.0083382 2.41-.03v-6.44999999c0-.33.27-.6.6-.6z"/></g></svg>