<svg height="32" viewBox="0 0 32 32" width="32" xmlns="http://www.w3.org/2000/svg"><path d="m20.6390559 16.1177058c.0967219 0 .1889716.0432144.2539578.1202677l6.6609827 7.9308034c.0906812.1065395.1032757.2576873.0324666.3763806-.0620857.1049674-.1663187.1646037-.2852096.1646037-.0197894 0-.0408734-.0019202-.0621745-.0057431l-2.9219139-.5684446 1.2605158 3.6121815c.071746.20249.0598454.4183594-.0336447.6127501-.0938874.1953003-.2551806.3392476-.4578877.4092244-.0877292.0309708-.1775492.0463551-.2682101.0463551-.3379758 0-.641797-.2165722-.7544265-.5389746l-1.2885263-3.6868532-1.868741 2.5273572-.0251849.0291693c-.0537364.0552697-.1268043.0916675-.2035501.1009389l-.035162.0017611-.1070761-.0162955c-.1324085-.0445365-.2229339-.171191-.2229339-.3161625v-10.4698189c0-.1363852.0874874-.262037.2155126-.3094269.0363724-.013431.0733065-.0200737.1112058-.0200737zm-14.74583295-6.6517124c-.00289519.26116284.00829699.5512001.03222775.8799435l.84801219 9.7146146c.12205138 1.3950537.32426723 2.1035397.79120713 2.8187831.43271555.6628196 1.03395136 1.1673164 1.76184155 1.4783606.78546053.3356453 1.51829733.4117617 2.91335113.2897103l6.4723079-.5672008.0026507 2.3034788-.169297.0195235-.4577236.0448383-7.9117443.6921879c-1.54773668.1354094-2.29443022.0578538-3.09273319-.2832794-.72081651-.3080215-1.31239852-.8044177-1.74090891-1.4607961-.44491358-.6815041-.65380999-1.3585649-.78975801-2.7158311l-.71845321-8.1924698c-.13540942-1.5477367-.05785375-2.2944302.28327945-3.0927332.30802146-.7208165.80441771-1.3123985 1.46079603-1.74090891.10426815-.06807047.20843228-.13061623.31494439-.18822129zm16.52686535-3.74914306c.5098163.21785623.9254793.5666389 1.2285545 1.03087962l.1080423.17607371c.1754643.30753144.3036234.66180502.3997163 1.28858604l.0493258.37026305c.0077215.06666709.0152009.13592554.0224496.20794499l.8473279 9.66873255c.0091548.1046399.0169955.2041159.0235665.2988408l-2.9808618-3.5492241c-.3685967-.4370458-.9069087-.6912412-1.4791535-.6912412-.227953 0-.4524694.0404905-.6654459.1191346-.6930234.25653-1.1743475.8853368-1.2506484 1.6082897l-1.3079501.5268545-3.9076135-3.1035151-2.5453516 2.2950071.3631657 4.1510032 7.3869585-.6472751v3.409l-6.5768948.5757672-.4620013.0339015c-.994221.0566419-1.4291346-.0410263-1.87522389-.2316505-.50981632-.2178562-.92547931-.5666389-1.22855449-1.0308796l-.10804231-.1760737c-.22217884-.3894067-.36851092-.8537573-.46993486-1.8514035l-.84888476-9.6841231-.0339015-.4620013c-.04855016-.85218947.01627027-1.29345916.15582444-1.68306379l.07582602-.19216011c.21785623-.50981631.5666389-.92547931 1.03087962-1.22855449l.17607371-.1080423c.38940669-.22217885.8537573-.36851093 1.85140352-.46993487l9.6841231-.84888475c1.0824039-.09469807 1.6122769-.04878572 2.0463797.0886137l.1952181.06973237c.0319574.01264512.0637639.02578687.0956274.03940288zm-3.4736002 3.42012032c-1.0082587.1009248-1.7439986.99167804-1.6556908 2.00104054.1009248 1.0082587.991678 1.7439986 2.0010405 1.6556908.9578458-.0958786 1.6707396-.8931904 1.6639214-1.8380841l-.0082306-.1629564c-.1009248-1.00825869-.991678-1.74399862-2.0010405-1.65569084z"/></svg>