<svg height="32" viewBox="0 0 32 32" width="32" xmlns="http://www.w3.org/2000/svg"><path d="m20.6390559 16c.0967219 0 .1889716.0432143.2539578.1202677l6.6609827 7.9308034c.0906812.1065395.1032757.2576873.0324666.3763806-.0620857.1049674-.1663187.1646037-.2852096.1646037l-.0621745-.0057432-2.9219139-.5684445 1.2605158 3.6121815c.071746.20249.0598454.4183593-.0336447.61275-.0938874.1953004-.2551806.3392477-.4578877.4092245-.0877292.0309708-.1775492.0463551-.2682101.0463551-.3379758 0-.641797-.2165723-.7544265-.5389746l-1.2885263-3.6868533-1.868741 2.5273573-.0251849.0291693c-.0537364.0552697-.1268043.0916675-.2035501.1009389l-.035162.0017611-.1070761-.0162955c-.1324085-.0445366-.2229339-.171191-.2229339-.3161626v-10.4698188c0-.1363852.0874874-.262037.2155126-.309427.0363724-.0134309.0733065-.0200736.1112058-.0200736zm2.0168019-10.95259159c.6188533.26445022 1.1273027.69108992 1.495198 1.25462011.3786417.57999097.5572514 1.15599532.672197 2.2910848l.0237064.25199608.8262623 9.4442217.0359335.4880521c.0127935.223471.0184194.4249503.0165389.6097998l-1.2963701-1.5443306-.7777982-8.89315611-.0441023-.44158581c-.0928753-.80664279-.2184656-1.17828793-.4611936-1.55009072-.238255-.36495127-.5611315-.63587689-.9619109-.80713913-.3711851-.1586159-.7254313-.22191717-1.3957245-.19559592l-.2109023.01057935-.4425354.03324832-9.4442217.82626233-.4415858.04410227c-.80664278.09287533-1.17828792.21846561-1.55009071.46119356-.36495127.23825499-.63587689.56113158-.80713913.96191096-.18901728.44232883-.24268116.86060333-.17062414 1.8183186l.01885589.2308436.84777847 9.6748325c.0953432.955678.22082441 1.3582793.48377969 1.7610657.23825499.3649512.56113158.6358769.96191093.8071391.4423289.1890173.8606034.2426812 1.8183186.1706241l.2308436-.0188558 6.6293415-.5816969v2.978l-9.0164618.7899433c-1.1656657.1019825-1.69052632.0408903-2.14506506-.1219229l-.1921601-.0758261c-.50981632-.2178562-.92547932-.5666389-1.22855449-1.0308796-.30307518-.4642407-.48404813-.9351893-.6005996-2.2673787l-.82626233-9.4442216c-.09469806-1.0824039-.04878571-1.6122769.08861371-2.0463797l.06973236-.1952181c.01264513-.0319574.02578687-.0637639.03940289-.0956274.21785623-.5098163.56663889-.92547931 1.03087962-1.22855449l.17607371-.10804231c.11885273-.06781229.24468695-.128559.3905348-.18311978.02488533-.51625765.11846662-.90272515.29018953-1.30458256.26445022-.61885325.69108993-1.12730266 1.25462011-1.49519802.57999098-.37864164 1.15599532-.55725135 2.29108475-.67219692l.2519961-.02370645 9.4442217-.82626233.4880521-.03593349c.9877014-.05654511 1.545801.02692937 2.137236.27966316zm-9.1484598 8.50335519 3.9076135 3.1035152 1.3079784-.5271219c-.007051.0667186-.0106524.1342394-.0106524.2023437l-.0000137 3.0203518-7.3871117.6469216-.3631657-4.1510033zm7.4191521-3.0249339.0209785.1491259.0011039.0126171.0071267.1503394c.0068182.9448937-.7060756 1.7422055-1.6639214 1.8380841-1.0093625.0883078-1.9001157-.6474322-2.0010405-1.6556908-.0883078-1.0093625.6474321-1.90011576 1.6556908-2.00104057.9588944-.08389238 1.8107439.57591828 1.980062 1.50656487z" fill-rule="evenodd"/></svg>