<svg height="32" viewBox="0 0 32 32" width="32" xmlns="http://www.w3.org/2000/svg"><g fill="none" fill-rule="evenodd"><path d="m8.92950716 8.56409939h9.48029704c1.3372781 0 1.8222075.13923842 2.3110964.40069906.4888888.26146064.8725717.6451435 1.1340323 1.13403235.2614607.4888889.4006991.9738183.4006991 2.3110964v9.480297c0 1.3372781-.1392384 1.8222075-.4006991 2.3110964-.2614606.4888889-.6451435.8725717-1.1340323 1.1340324-.4888889.2614606-.9738183.400699-2.3110964.400699h-9.48029704c-1.33727811 0-1.82220747-.1392384-2.31109636-.400699-.48888889-.2614607-.87257175-.6451435-1.13403239-1.1340324s-.40069905-.9738183-.40069905-2.3110964v-9.480297c0-1.3372781.13923841-1.8222075.40069905-2.3110964.26146064-.48888885.6451435-.87257171 1.13403239-1.13403235s.97381825-.40069906 2.31109636-.40069906z" fill="#d2d2d2" transform="matrix(.9961947 -.08715574 .08715574 .9961947 -1.44271 1.25665)"/><path d="m11.3689209 5.89956032h9.4802971c1.3372781 0 1.8222074.13923842 2.3110963.40069906s.8725718.6451435 1.1340324 1.13403239c.2614607.48888888.4006991.97381824.4006991 2.31109635v9.48029708c0 1.3372781-.1392384 1.8222074-.4006991 2.3110963-.2614606.4888889-.6451435.8725718-1.1340324 1.1340324s-.9738182.4006991-2.3110963.4006991h-9.4802971c-1.3372781 0-1.82220744-.1392385-2.31109633-.4006991s-.87257175-.6451435-1.13403239-1.1340324-.40069905-.9738182-.40069905-2.3110963v-9.48029708c0-1.33727811.13923841-1.82220747.40069905-2.31109635.26146064-.48888889.6451435-.87257175 1.13403239-1.13403239s.97381823-.40069906 2.31109633-.40069906z" fill="#9373b3" transform="matrix(.9961947 -.08715574 .08715574 .9961947 -1.201198 1.45912)"/><g fill-rule="nonzero"><path d="m19.8855218 13.3899946 2.7356888 2.0644318v4.1668595h-11.7659951v-1.5451576l2.1150928-2.2544103 3.2929588 1.0005529zm-5.8133389-4.04020718c1.0132181.01266522 1.8237926.83590488 1.8237926 1.84912298-.0126652 1.0132181-.8359049 1.8237926-1.849123 1.8237926-1.0132181-.0126652-1.8237926-.8232397-1.8237926-1.8364578v-.0126652c.0126652-1.0132181.835905-1.82379258 1.849123-1.82379258z" fill="#4e2b71" transform="matrix(-.9961947 .08715574 .08715574 .9961947 32.150234 -1.40371)"/><path d="m19.7156262 15.8018859c1.5912938-.7645821 1.6242073-.2749893 1.7899854-.0784256l6.6575901 7.9267909c.1563339.1836735.2450007.4058785.2646039.6331357.0198207.2297779-.0309504.4648511-.1527725.6690435-.2119768.358386-.5695208.5573308-.9737797.5573308l-1.7699504-.3229843.8004434 2.2937983c.1435958.4052725.1204346.8374455-.0666983 1.2265444-.1881195.3913179-.5119935.6787133-.9125859.8169818-.1748382.0617226-.3538881.0919832-.5345239.0919832-.3391453 0-.6614286-.1080791-.9269631-.2977813-.2633137-.1881156-.4705803-.4563984-.5826696-.7772547l-.7894384-2.2588157-.9873387 1.3353147c-.2453802.2709997-.5144056.4039161-.7948328.428213-.6377474-.0959127-.8640557-.255989-1.016704-.4724732-.1309726-.1857439-.2076542-.413125-.2076542-.6562621v-10.4698189c0-.2336143.0733313-.4587313.2032887-.6453205z" fill="#000" stroke="#fff" stroke-width="1.6"/></g></g></svg>