<svg height="32" viewBox="0 0 32 32" width="32" xmlns="http://www.w3.org/2000/svg"><path d="m19.952 10.145 6.7523036.0004735c.5522847 0 1 .4477152 1 1v14.5067897c0 .5522848-.4477153 1-1 1h-11.7521269c-.5522847 0-1-.4477152-1-1l-.0001767-2.9462632 3.8001268.0007898c1.2150265 0 2.2-.9849736 2.2-2.2l.0007796-4.8359116c.6233848.262683 1.2100101.6279703 1.7320019 1.0928062l.2196724.2053014-.7627918.6277052c-.1934328.1566388-.2878166.4232334-.2244447.6621665.0533331.2141767.2009906.3813842.3983686.4621082l.1026259.0329721 2.5737632.5580888.0765781.0080487c.1750359.018397.3460309-.0299943.4801658-.1486232.1309702-.1060576.2127534-.2556897.2356989-.4179075l.0066295-.098593-.01828-2.6675225c-.0063735-.2550635-.1474734-.4911055-.380099-.5929796-.1984078-.0966975-.424717-.0825615-.6078637.0289813l-.0876474.0638264-.7639415.638645c-.8511437-.8709397-1.8777832-1.4982889-2.9804422-1.8712405zm-2.1998732-5.145c.5522848 0 1 .44771525 1 1l.0001913 7.9538063c-2.06018-.3433309-4.2521546.1506241-5.9951681 1.5449586-.2889995.2240185-.3326924.6397287-.1086739.9287281.1174792.1450747.2746764.2279603.4497123.2463573.1640961.0172472.3350911-.031144.4790159-.1376834 1.5067363-1.2020279 3.4108405-1.5943583 5.1755057-1.235836l-.0005832 5.2064589c0 .5522847-.4477152 1-1 1h-11.7521268c-.55228475 0-1-.4477153-1-1v-14.5067898c0-.55228475.44771525-1 1-1z" fill-rule="evenodd"/></svg>