<svg height="32" viewBox="0 0 32 32" width="32" xmlns="http://www.w3.org/2000/svg"><path d="m19.0844779 12.05v-1.81c0-.33.27-.6.6-.6h5.84c.33 0 .6.27.58.6v14.86c0 .33-.27.6-.6.6h-13.18c-.33 0-.6-.27-.6-.6v-3.34c0-.33.27-.6.6-.6.04 0 .07 0 .1.01.04-.01.07-.01.1-.01h3c.33 0 .6.27.6.6s-.27.6-.6.6h-2.59v2.14h11.99v-13.66h-4.64v1.21c0 .3313708-.2686291.6-.6.6-.3313708 0-.6-.2686292-.6-.6zm-12.58999996 1.34c-.33 0-.6-.27-.6-.6v-3c0-.33.27-.6.6-.6s.6.27.6.6v3c0 .33-.27.6-.6.6zm6.10999996-5.89c-.33 0-.6-.27-.6-.6s.27-.6.6-.6h3c.33 0 .6.27.6.6s-.27.6-.6.6zm6 0c-.33 0-.6-.27-.6-.6s.27-.6.6-.6h1.08c.33 0 .6.27.6.6v3.5409483c0 .33-.27.6-.6.6s-.6-.27-.6-.6v-2.9409483zm-12.10999996 11.89c-.33 0-.6-.27-.6-.6v-3c0-.33.27-.6.6-.6s.6.27.6.6v3c0 .33-.27.6-.6.6zm12.58999996.52c0-.33.27-.6.6-.6s.6.27.6.6v1.85c0 .33-.27.6-.6.6h-1.15c-.33 0-.6-.27-.6-.6s.27-.6.6-.6h.55zm-9.55999996 1.25c.33 0 .59999996.27.59999996.6s-.26999996.6-.59999996.6h-3c-.33 0-.6-.27-.6-.6s.27-.6.6-.6zm.08-14.86c.33 0 .59999996.27.59999996.6s-.26999996.6-.59999996.6h-3c-.33 0-.6-.27-.6-.6s.27-.6.6-.6zm9.90999996 9.53c-2.22-1.77-5.5-1.64-7.58.4-.12.11-.27.17-.42.17-.16 0-.31-.06-.43-.18-.23-.24-.23-.62.01-.85 2.53-2.5 6.57-2.63 9.26-.4l.64-.65c.16-.17.4-.23.62-.15.22.07.37.27.4.5l.27 2.41c.02.18-.04.36-.17.49-.11.12-.26.18-.42.18h-.07l-2.38-.26c-.23-.03-.42-.18-.5-.4-.08-.21-.02-.46.14-.62z"/></svg>