<svg height="32" viewBox="0 0 32 32" width="32" xmlns="http://www.w3.org/2000/svg"><path d="m19.952 10.145 6.7523036.0004735c.5522847 0 1 .4477152 1 1v14.5067897c0 .5522848-.4477153 1-1 1h-11.7521269c-.5522847 0-1-.4477152-1-1l-.0001767-2.9462632 3.8001268.0007898c1.2150265 0 2.2-.9849736 2.2-2.2l.0005254-4.8360187c.6234689.2626863 1.2101734.6280018 1.7322295 1.0928896l.219699.2053251-.7627918.6277052c-.1934328.1566388-.2878166.4232334-.2244447.6621665.0533331.2141767.2009906.3813842.3983686.4621082l.1026259.0329721 2.5737632.5580888.0765781.0080487c.1750359.018397.3460309-.0299943.4801658-.1486232.1309702-.1060576.2127534-.2556897.2356989-.4179075l.0066295-.098593-.01828-2.6675225c-.0063735-.2550635-.1474734-.4911055-.380099-.5929796-.1984078-.0966975-.424717-.0825615-.6078637.0289813l-.0876474.0638264-.7639415.638645c-.8512404-.8710386-1.8780164-1.4984314-2.980818-1.8713675zm-7.7442616 11.2396274c.4418278 0 .8.3581722.8.8s-.3581722.8-.8.8h-2.2c-.44182782 0-.80000002-.3581722-.80000002-.8s.3581722-.8.80000002-.8zm-7.77245807-1.2133284c.4418278 0 .8.3581722.8.8v.2133284c0 .1104569.08954305.2.2.2h.57245805c.4418278 0 .8.3581722.8.8s-.3581722.8-.8.8h-.57245805c-.99411255 0-1.8-.8058875-1.8-1.8v-.2133284c0-.4418278.3581722-.8.8-.8zm14.31742967-4.8709681-.0005832 5.2064589c0 .5522847-.4477152 1-1 1h-3.8001268l-.0003461-5.2473403c1.4404618-.9840511 3.1796202-1.2885414 4.8010561-.9591186zm-14.31742967-1.329032c.4418278 0 .8.3581722.8.8v2.2c0 .4418279-.3581722.8000001-.8.8000001s-.8-.3581722-.8-.8000001v-2.2c0-.4418278.3581722-.8.8-.8zm14.31684647-3.8262989.0001913 3.8088063c-1.6125261-.268729-3.3057944-.0245057-4.8013223.7629244l.0010042-3.5717307c0-.5522847.4477153-1 1-1zm-14.31684647-2.37370114c.4418278 0 .8.3581722.8.8v2.20000004c0 .4418278-.3581722.8-.8.8s-.8-.3581722-.8-.8v-2.20000004c0-.4418278.3581722-.8.8-.8zm2.53294491-4.24914535c.44182307-.00202882.80165026.35448071.80371398.79630377.00202882.44182307-.35448071.80165025-.79630377.80369653l-1.56629471.00158852c-.02979987.00370559-.05798683.01416357-.08293928.03049631l-.03480009.02879549c-.30750766.31725516-.81397801.32515707-1.13123317.0176494s-.32515707-.81397801-.0176494-1.13123318c.28368195-.2926742.65943956-.48252803 1.16419764-.53958515zm6.20370506.00000888c.4418279 0 .8000001.3581722.8000001.8s-.3581722.8-.8000001.8h-2.2c-.4418278 0-.8-.3581722-.8-.8s.3581722-.8.8-.8zm4.0000001 1.6c-.4418278 0-.8-.3581722-.8-.8s.3581722-.8.8-.8h1.1449161c.9941125 0 1.8.80588745 1.8 1.8v.78578648c0 .4418278-.3581722.8-.8.8s-.8-.3581722-.8-.8v-.78578648c0-.11045695-.0895431-.2-.2-.2z" fill-rule="evenodd"/></svg>