<svg height="32" viewBox="0 0 32 32" width="32" xmlns="http://www.w3.org/2000/svg"><g fill="none" fill-rule="evenodd"><path d="m13.9521767 25.6522632v-14.5067897c0-.5522848.4477153-1 1-1h11.7521269c.5522847 0 1 .4477152 1 1v14.5067897c0 .5522848-.4477153 1-1 1h-11.7521269c-.5522847 0-1-.4477152-1-1z" fill="#becfe2"/><path d="m11.6873441 20.9067898c.3313709 0 .6.2686291.6.6 0 .3313708-.2686291.6-.6.6h-2.74999999c-.33137085 0-.6-.2686292-.6-.6 0-.3313709.26862915-.6.6-.6zm-6.68793558-2.4984426c.33137069-.000326.60026452.2680382.60059119.5994089l.00062605 1.5218954c.00880715.160042.11321834.2970137.25818469.3516807l.07560792.0202005c.32705363.0533156.5489621.3616659.49564643.6887195s-.36166591.5489621-.68871955.4956464c-.7377192-.1202616-1.29759479-.7395999-1.33981276-1.5226873l-.00153279-1.5542723c-.00032607-.3313707.26803813-.6002645.59940882-.6005918zm.00059148-5.8499996c.33137085 0 .6.2686292.6.6v2.75c0 .3313709-.26862915.6-.6.6s-.6-.2686291-.6-.6v-2.75c0-.3313708.26862915-.6.6-.6zm0-5.84999987c.33137085 0 .6.26862915.6.6v2.74999997c0 .3313709-.26862915.6-.6.6s-.6-.2686291-.6-.6v-2.74999997c0-.33137085.26862915-.6.6-.6zm13.7521268 3.12743861c.2256678 0 .4222373.12458436.5246813.30872586h-1.0493625c.102444-.1841415.2990135-.30872586.5246812-.30872586zm-1-5.43578634c.8836556 0 1.6.7163444 1.6 1.6v1.33578644c0 .33137085-.2686291.6-.6.6-.3313708 0-.6-.26862915-.6-.6v-1.33578644c0-.19329966-.1371128-.35457492-.319386-.39187342l-.080614-.00812658c-.3313708 0-.6-.26862915-.6-.6s.2686292-.6.6-.6zm-8.62468819 0c.33137085 0 .6.26862915.6.6s-.26862915.6-.6.6h-2.75c-.33137085 0-.6-.26862915-.6-.6s.26862915-.6.6-.6zm5.84999989 0c.3313709 0 .6.26862915.6.6s-.2686291.6-.6.6h-2.75c-.3313708 0-.6-.26862915-.6-.6s.2686292-.6.6-.6z" fill="#738dc1" fill-rule="nonzero"/><path d="m17.537344 20.9067898c.3313709 0 .6.2686291.6.6 0 .3313708-.2686291.6-.6.6h-2.75c-.3313708 0-.6-.2686292-.6-.6 0-.3313709.2686292-.6.6-.6zm1.8145524-3.8611313.0002304 1.9901277c0 .3313709-.2686291.6-.6.6-.3313708 0-.6-.2686291-.6-.6l-.0002715-2.3140387c.4108557.0555345.8145459.163828 1.2000411.323911zm-.0747252-6.9004927c.0477597.0861001.0749556.1851844.0749556.2906205l.0000229 2.1038463c-.3962418-.0818635-.7973178-.1374844-1.2003029-.1666399l.00028-1.9372064c0-.1054361.027196-.2045204.0749556-.2906205z" fill="#5472ae"/><path d="m22.9333426 16.1259022.7639415-.638645c.1945827-.1675785.4640353-.2056215.6955111-.0928077.2326256.1018741.3737255.3379161.380099.5929796l.01828 2.6675225c.0011709.199215-.0851642.3892314-.2423284.5165005-.1341349.1186289-.3051299.1670202-.4801658.1486232l-.0765781-.0080487-2.5737632-.5580888c-.2481646-.0592649-.4387725-.2452075-.5009945-.4950803-.0633719-.2389331.0310119-.5055277.2244447-.6621665l.7627918-.6277052c-2.2360453-2.1927425-5.8282882-2.4265147-8.3273764-.4328189-.1439248.1065394-.3149198.1549306-.4790159.1376834-.1750359-.018397-.3322331-.1012826-.4497123-.2463573-.2240185-.2889994-.1803256-.7047096.1086739-.9287281 3.0552077-2.4440325 7.4898106-2.1217247 10.1761926.6271373z" fill="#252d4f" fill-rule="nonzero"/></g></svg>