<svg height="32" viewBox="0 0 32 32" width="32" xmlns="http://www.w3.org/2000/svg"><g fill="none" fill-rule="evenodd"><path d="m13.9521767 25.6522632v-14.5067897c0-.5522848.4477153-1 1-1h11.7521269c.5522847 0 1 .4477152 1 1v14.5067897c0 .5522848-.4477153 1-1 1h-11.7521269c-.5522847 0-1-.4477152-1-1z" fill="#becfe2"/><path d="m5 20.5067898v-14.5067898c0-.55228475.44771525-1 1-1h11.7521268c.5522848 0 1 .44771525 1 1v14.5067898c0 .5522847-.4477152 1-1 1h-11.7521268c-.55228475 0-1-.4477153-1-1z" fill="#738dc1"/><path d="m18.752 10.145.0001268 10.3617898c0 .5522847-.4477152 1-1 1l-3.8001268-.0007898.0001767-10.3605265c0-.5522848.4477153-1 1-1z" fill="#5472ae"/><path d="m22.9333426 16.1259022.7639415-.638645c.1945827-.1675785.4640353-.2056215.6955111-.0928077.2326256.1018741.3737255.3379161.380099.5929796l.01828 2.6675225c.0011709.199215-.0851642.3892314-.2423284.5165005-.1341349.1186289-.3051299.1670202-.4801658.1486232l-.0765781-.0080487-2.5737632-.5580888c-.2481646-.0592649-.4387725-.2452075-.5009945-.4950803-.0633719-.2389331.0310119-.5055277.2244447-.6621665l.7627918-.6277052c-2.2360453-2.1927425-5.8282882-2.4265147-8.3273764-.4328189-.1439248.1065394-.3149198.1549306-.4790159.1376834-.1750359-.018397-.3322331-.1012826-.4497123-.2463573-.2240185-.2889994-.1803256-.7047096.1086739-.9287281 3.0552077-2.4440325 7.4898106-2.1217247 10.1761926.6271373z" fill="#252d4f" fill-rule="nonzero"/></g></svg>