<svg height="32" viewBox="0 0 32 32" width="32" xmlns="http://www.w3.org/2000/svg"><path d="m25.51 9.64h-5.24v-2.74c0-.33-.27-.6-.6-.6h-13.18c-.33 0-.6.27-.6.6v14.86c0 .33.27.6.6.6h5.24v2.74c0 .33.27.6.6.6h13.18c.33 0 .6-.27.6-.6v-14.86c0-.33-.27-.6-.6-.6zm-.6 14.86h-11.98v-2.14h6.74c.33 0 .6-.27.6-.6v-1.85c0-.33-.27-.6-.6-.6s-.6.27-.6.6v1.25h-11.98v-13.66h11.98v4.57c0 .33.27.6.6.6s.6-.27.6-.6v-1.21h4.64zm-4.56-9.53c-2.69-2.23-6.73-2.1-9.26.4-.24.23-.24.61-.01.85.12.12.27.18.43.18.15 0 .3-.06.42-.17 2.07-2.04 5.34-2.17 7.57-.4l-.63.64c-.16.16-.22.41-.14.62.08.22.27.37.5.4l2.38.26h.07c.16 0 .31-.06.42-.18.13-.13.19-.31.17-.49l-.27-2.41c-.03-.23-.18-.43-.4-.5-.22-.08-.46-.02-.62.15z"/></svg>