<svg height="32" viewBox="0 0 32 32" width="32" xmlns="http://www.w3.org/2000/svg"><path d="m21.2388601 6.4370132c.7770319-.06798148 1.5412343.17634363 2.1379486.686277 1.2467245 1.05535675 1.4114489 2.9381647.3669256 4.1939797l-1.062704 1.2774819-.0372331.0333721-.0263996.0424625-9.3822029 11.3227899c-.1184966.1430061-.2744764.2501878-.4504599.3095341l-4.37657933 1.4758997c-.26166442.0882402-.5453182-.0523479-.63355844-.3140123-.0255428-.0757436-.03255335-.1565074-.02044384-.2355194l.70088288-4.5731153c.02708642-.1808616.10325084-.3508324.22020792-.4914226l9.41200561-11.31386085.0463235-.04420558.0173093-.03162895 1.0899752-1.30998248c.5090618-.60667625 1.2110087-.9591964 1.9980025-1.02804944zm-8.7195775 16.5111541 8.7954708-10.5952569-2.6893238-2.2843024-8.81179805 10.5738913c-.11726804.1407182-.19363235.310943-.22075978.4920989l-.4678315 3.124161 2.94690593-1.0026143c.1746679-.0594266.3294904-.1660172.4473364-.3079776zm10.3036039-12.4035805c.6172749-.74664028.5187889-1.87234029-.2196325-2.51041067-.3475437-.30085441-.802429-.45178288-1.2606785-.41169124-.4582496.04009164-.8817588.24779327-1.1817416.60529891l-.0181808.02166701-.7445404.89830931 2.6893238 2.28430248z"/></svg>