<svg height="32" viewBox="0 0 32 32" width="32" xmlns="http://www.w3.org/2000/svg"><g fill="none" fill-rule="evenodd"><path d="m12.7266869 24.2335817-4.64689689 1.2161586.39075724-4.7874837 10.09097855-12.02595995 4.2561396 3.57132515z" fill="#f8c31c"/><path d="m8.3599049 22.0709089 3.0242395 2.5104537-3.3088348.8700626z" fill="#252d4f"/><path d="m18.1655609 9.10818926 2.1280698 1.78566254-10.42761813 12.427834-1.50610767-1.2507769.11064235-1.4086523z" fill="#af8c1d"/><path d="m19.5552585 7.45201206 4.2561396 3.57132514-1.3896976 1.6561772-4.2561396-3.57132514z" fill="#fff"/><path d="m24.3390743 10.3304562-1.163252 1.4037092-4.2536693-3.61305227 1.1776301-1.42084447.0287563-.03427043c.4744791-.56546216 1.1443382-.89398119 1.8691457-.95739363.7248075-.06341245 1.4442938.1753092 1.9939993.65116682 1.1679518 1.00922785 1.3237258 2.78973331.3473899 3.97068478z" fill="#fa8bb9" fill-rule="nonzero"/></g></svg>