<svg height="32" viewBox="0 0 32 32" width="32" xmlns="http://www.w3.org/2000/svg"><path d="m16 5.2354414.1290201.0092917c.0855577.01238892.169748.03716678.2498364.07433356l11.909327 5.52678344c.2404647.1115929.344936.396992.2333431.6374567-.0477595.1029139-.1304292.1855836-.2333431.2333431l-11.909327 5.5267834-.1228672.0464585-.1269692.0278751-.1290201.0092917c-.0862413 0-.1724826-.0123889-.2559893-.0371668l-.1228672-.0464585-5.91138532-2.7439919 6.57098092-3.0454491c.2705228-.125542.4033522-.4270628.3255239-.705235l-.0338451-.0915859c-.1211923-.2611498-.4063801-.3939825-.6762452-.3328579-.0371618.0348922-.0802453.0622168-.1275367.0841634l-7.61242004 3.5464851c-.45185882.2108361-.75427209.6441051-.8015364 1.1338411l-.00648484.1348397v4.5560721c0 .2697932.02481387.5388229.07402493.8037038l.05732802.2633728.85073529 3.4032128c.08738193.3495557-.14994141.6890057-.49398119.7391603l-.08810705.0063502h-2c-.36031204 0-.63207338-.3125611-.59729517-.6584937l.01520694-.0870168.85073528-3.4032128c.06542955-.2617391.10660081-.5287552.12309709-.7976633l.00825586-.2694133v-4.5560721c0-.7638854.33458302-1.4754813.89355644-1.961773l-3.32993468-1.5452199c-.24046471-.1115929-.34493594-.396992-.23334304-.6374567.04775942-.1029139.13042918-.1855836.23334304-.2333431l11.90932702-5.52678344c.1201326-.05575017.2494945-.08362526.3788565-.08362526zm9.4967582 9.429v3.5734578c0 2.1779409-3.0608108 4.047417-6.2887395 4.851252l-.5244557.1208912-.4990881.0970019c-.7475793.1320294-1.4877662.2027337-2.1847167.2027337-2.3467073 0-5.1836041-.8016036-7.14236922-2.0467699l-.1577968-.6146417-.06123594-.2653515c-.05449954-.2666841-.08875729-.5371087-.10247994-.8089584l-.00686676-.2722391-.00025136-3.896376 6.46095772 2.9986165.1770312.0737192c.5308925.1965847 1.1143817.1990116 1.6465728.007281l.1969642-.0810002z"/></svg>