<svg height="32" viewBox="0 0 32 32" width="32" xmlns="http://www.w3.org/2000/svg"><g fill="none"><path d="m25.4967582 12.0224919v6.2154073c0 2.2956675-3.4006524 4.2486212-6.8131952 4.9721432l-.4990881.0970019c-.7475793.1320294-1.4877662.2027337-2.1847167.2027337-3.9493861 0-9.28714246-2.2703926-9.49098021-5.1045276l-.00601981-.1673512v-6.2154073z" fill="#2289a3"/><path d="m25.4967582 12.0224919v6.2154073c0 2.2956675-3.4006524 4.2486212-6.8131952 4.9721432l-.4990881.0970019c-.7475793.1320294-1.4877662.2027337-2.1847167.2027337l-6.88974721-10.8847187z" fill="#005a7d"/><path d="m29.3830402 11.7166499-13.0041837 6.0348756c-.2402652.1115004-.5174478.1115004-.757713 0l-13.0041837-6.0348756c-.2404647-.1115929-.34493594-.396992-.23334304-.6374567.04775943-.1029139.13042919-.1855836.23334304-.2333431l13.0041837-6.03487561c.2402652-.11150034.5174478-.11150034.757713 0l13.0041837 6.03487561c.2404647.1115929.3449359.396992.233343.6374567-.0477594.1029139-.1304291.1855836-.233343.2333431z" fill="#2289a3"/><path d="m11.0793436 15.6923303-2.28620295-1.0943565c.22604332-.3329272.57776307-.6695065.95270412-.8840159l7.12916753-3.6784175c.0346743.6513506-.2750888 1.2730989-.8159328 1.6377189z" fill="#005a7d"/><path d="m15.9940011 9.56244495-6.54492557 3.12179485c-.98433948.4592822-1.61451159 1.4487204-1.61451159 2.5366434v4.5560721l-.00816202.2632874c-.01547333.2507003-.05479777.5055754-.11722034.7552856l-.85073528 3.4032129-.01819169.1010904c-.04895479.4816466.31912218.8929235.79430933.8929235h2l.10248432-.0068675c.47914044-.0693144.78887444-.526145.67363334-.9871464l-.85073529-3.4032129-.05593343-.2574069c-.04578777-.2469688-.06944894-.503772-.06944894-.7611661v-4.5560721l.00625395-.1252322c.0400027-.4120803.30082445-.7823295.68633411-.9622072l6.5422852-3.1205662c.3988612-.1850879.5729799-.6607531.3869917-1.06152758-.1859881-.40077451-.6616533-.57489324-1.0624278-.38890507z" fill="#f8c31c"/></g></svg>