<svg height="32" viewBox="0 0 32 32" width="32" xmlns="http://www.w3.org/2000/svg"><path d="m16.3214821 4.67028526.1571359.04355482.1528096.06097675 11.9093269 5.52678347c.5410456.251084.7761059.893232.5250219 1.4342776-.0895489.1929634-.2336452.3542955-.4131923.4648995l-.1118296.0601223-3.0441402 1.4115417.0001439 4.5654578c0 2.1779409-3.0608108 4.047417-6.2887395 4.851252l-.5244557.1208912-.4990881.0970019c-.7475793.1320294-1.4877662.2027337-2.1847167.2027337-2.3026798 0-5.0773283-.7718073-7.03120336-1.9771574-.211531-.0953616-.3591184-.3087635-.3591184-.5566363 0-.3374793.27358109-.6110604.61106046-.6110604.16731372 0 .31892171.0672442.42927253.1761811l.0638383.0403113c1.65108287.9823646 4.06997497 1.7283617 6.28615047 1.7283617 3.7868051 0 8.1048256-2.1599007 8.290776-3.9529157l.006224-.1189631-.0007582-3.8928992-7.7933758 3.5972282c-.2734903.1262251-.582625.1442573-.8662994.0540964l-.1394327-.0540964-5.53925888-2.5603696c-.28509831-.1317789-.42546913-.4491079-.34395147-.7421855l.04307785-.112328c.16071104-.3237745.5502039-.460445.8779889-.3080807l5.298603 2.4629491.0813346.0324654c.0370865.0110042.0758346.0146722.1017228.0151503l.0273723-.0011572.0825043-.0294885 11.6737145-5.4181835-11.6737145-5.41768351c-.0600663-.02787509-.1270546-.03484386-.1905819-.02090632l-.0619891.02090632-11.6747145 5.41768351 3.43451458 1.5937129 7.62997942-3.55473567c.3005809-.13949113.6573297-.00890208.7968208.2916788.1394912.30058088.0089021.65732977-.2916788.79682087l-7.61242004 3.5464851c-.45185882.2108361-.75427209.6441051-.8015364 1.1338411l-.00648484.1348397v4.5560721c0 .2697932.02481387.5388229.07402493.8037038l.05732802.2633728.85073529 3.4032128c.08738193.3495557-.14994141.6890057-.49398119.7391603l-.08810705.0063502h-2c-.36031204 0-.63207338-.3125611-.59729517-.6584937l.01520694-.0870168.85073528-3.4032128c.06542955-.2617391.10660081-.5287552.12309709-.7976633l.00825586-.2694133v-4.5560721c0-.4693152.12629224-.9188931.35332257-1.3086108l.00109699-.2425906-3.04336883-1.4115417c-.54104558-.251084-.77610587-.893232-.52502184-1.4342776.08954892-.1929634.23364524-.3542955.41319229-.4648995l.11182955-.0601223 11.90932695-5.52678347c.3003316-.13937543.6352732-.17421929.9529097-.10453157z"/></svg>