<svg height="32" viewBox="0 0 32 32" width="32" xmlns="http://www.w3.org/2000/svg"><g fill="none" fill-rule="evenodd"><path d="m6.33239902 5.96289474h5.79420668c.4601494 0 .8742359.2793188 1.0465913.70596978l.5286673 1.30867112c.1723553.42665098.5864419.70596978 1.0465912.70596978h11.091301c.6233991 0 1.128764.50536486 1.128764 1.12876401v12.84186127c0 .6233992-.5053649 1.128764-1.128764 1.128764h-19.50735748c-.62339915 0-1.12876401-.5053648-1.12876401-1.128764v-15.56247195c0-.62339915.50536486-1.12876401 1.12876401-1.12876401z" fill="#4588a0"/><path d="m6.33239902 11.4041161h19.50735748c.6233991 0 1.128764.5053649 1.128764 1.128764v11.2791454c0 .6233991-.5053649 1.128764-1.128764 1.128764h-19.50735748c-.62339915 0-1.12876401-.5053649-1.12876401-1.128764v-11.2791454c0-.6233991.50536486-1.128764 1.12876401-1.128764z" fill="#6cacc8"/><path d="m17.6340446 13.4771245h-3.0959337l-.001119 3.1441258-3.1404664.0010956v3.1002264l3.1404664-.0006505.001119 3.1458593h3.0959337l-.0005864-3.1458593 3.1421718.0006505v-3.1002264l-3.1421718-.0010956z" fill="#fff" fill-rule="nonzero"/></g></svg>