<svg height="32" viewBox="0 0 32 32" width="32" xmlns="http://www.w3.org/2000/svg"><path d="m25.8397565 12.6c.6233991 0 1.128764.5053649 1.128764 1.128764v11.2791454c0 .6233991-.5053649 1.128764-1.128764 1.128764h-19.50735748c-.62339915 0-1.12876401-.5053649-1.12876401-1.128764v-11.2791454c0-.6233991.50536486-1.128764 1.12876401-1.128764zm-8.2057119 2.0730083h-3.0959337l-.001119 3.1441259-3.1404664.0010956v3.1002264l3.1404664-.0006505.001119 3.1458593h3.0959337l-.0005864-3.1458593 3.1421718.0006505v-3.1002264l-3.1421718-.0010956zm-5.5074389-8.71011356c.4601494 0 .8742359.2793188 1.0465913.70596978l.5286673 1.30867112c.1723553.42665098.5864419.70596978 1.0465912.70596978h11.091301c.6233991 0 1.1289721.50536486 1.1289721 1.12876401v1.87920567c-.3344095-.1857107-.7193395-.2914751-1.1289721-.2914751h-19.50735748c-.41030511 0-.79582646.1061119-1.1306187.2923904l.00185469-4.60073165c0-.62339915.50536486-1.12876401 1.12876401-1.12876401z" fill-rule="evenodd"/></svg>