<svg height="32" viewBox="0 0 32 32" width="32" xmlns="http://www.w3.org/2000/svg"><path d="m12.1266057 5.36289474c.6544051 0 1.2479809.36886153 1.5407891.94473618l.0621228.13649527.5286674 1.30867113c.0692048.17131077.2216048.29191515.3994783.32287741l.0907922.00783069h11.091301c.9045189 0 1.6467902.69466499 1.7224184 1.57959964l.0063456.14916437v13.99975607c0 .9045189-.694665 1.6467902-1.5795996 1.7224184l-.1491644.0063456h-19.50735748c-.90451895 0-1.64679019-.694665-1.72241842-1.5795997l-.00634559-.1491643v-16.72036675c0-.90451895.69466498-1.64679019 1.57959963-1.72241842l.14916438-.00634559zm13.7131508 6.64122136h-19.50735748c-.25958071 0-.47547345.1870504-.52024492.433718l-.00851909.095046v11.2791454c0 .2595807.18705044.4754734.43371801.5202449l.095046.0085191h19.50735748c.2595807 0 .4754734-.1870505.5202449-.433718l.0085191-.095046v-11.2791454c0-.2920283-.2367357-.528764-.528764-.528764zm-8.2057119 1.4730084-.0005864 3.1441258 3.1421718.0010956v3.1002264l-3.1421718-.0006505.0005864 3.1458593h-3.0959337l-.001119-3.1458593-3.1404664.0006505v-3.1002264l3.1404664-.0010956.001119-3.1441258zm-5.5074389-6.91422976h-5.79420668c-.25958071 0-.47547345.18705043-.52024492.43371801l-.00871859.095046v3.79488235c.11114474-.0356821.2271921-.0604214.34687378-.0729496l.18208973-.0094754h19.50735748c.1844984 0 .3622464.0289018.5289635.082425v-1.07427167c0-.25958071-.1872499-.47547345-.4339175-.52024491l-.095046-.0085191h-11.091301c-.6544051 0-1.2479808-.36886153-1.540789-.94473617l-.0621229-.13649528-.5286673-1.30867112c-.0692049-.17131078-.2216049-.29191516-.3994783-.32287742z"/></svg>