<svg height="32" viewBox="0 0 32 32" width="32" xmlns="http://www.w3.org/2000/svg"><path d="m21.1277177 16.2520382c.0508317-.2300838.3390611-.3378713.5294797-.1712553l4.8419069 4.2366607.0483995.0527134c.096799.1321488.0806661.3219483-.048399.4348806l-4.8419068 4.2366815-.0405519.0305231-.064599.0318424c-.1987475.0712648-.4321217-.0713259-.4321217-.3061622l.0005295-2.425429-.3251399-.0090843c-1.4113259.0048761-2.7740912.565519-3.7836514 1.5750621l-.180649.180649-.0537515.0438749c-.206059.1351123-.4992654-.0083842-.4992654-.272942l.0020535-.1470787.0111341-.2249053c.180339-2.5344395 2.1890172-4.5634494 4.7145599-4.7755547l.1147097-.0085168-.0005295-2.4094175zm-8.0565313-10.80630427c.0527236 0 .1054406.00312411.1652232.01046923l.0958571.01432055.1504715.03506938.1636773.05837503.1435467.06846534.0721632.03957343 8.1510839 5.08288961c.1182237.0737224.2019077.181872.2461642.3033656.0247798.0522053.0425989.1092891.0515848.1702783l.0066197.0942915-.0231837 2.3594453c-.0021075.3333592-.2729429.6024879-.6063088.6024879-.2933256 0-.5366668-.2140086-.5824018-.4944041l-.0075967-.1079662.013913-1.2803948-7.3160454 4.5475847-.0679162.0354786c-.0660625.0338565-.1326274.0626613-.207941.0876601l-.1205626.0347995-.1096436.0224672c-.0520573.0087342-.104066.0147265-.1642371.0175633l-.0974047.0018369-.0958159-.0050156-.1071411-.0137576-.1078015-.0213822-.1349101-.0382908-.1021477-.0396013-.1026061-.0485026-.1033607-.0559992-7.2794663-4.542841.02 8.242 9.8054235.0000818c.3313021.0000024.5998743.2685766.5998743.5998787 0 .3313045-.2685699.5998827-.5998743.599893l-10.40335757.0003707c-.29771397 0-.54488071-.21686-.59193147-.5013796l-.00806671-.0971411-.02467719-9.9260746c-.00028484-.1966766.08957771-.361502.22353793-.4687505l.11713212-.081726 8.18523829-5.1017615.0694653-.03628834c.0670514-.0343633.1345837-.0635876.2073153-.0881384l.132948-.03784744c.048962-.01129012.0973288-.02043019.1536315-.02778047l.0914722-.00972813zm5.0948136 6.61126607h-10.192l.00058545.7717339 4.89551265 3.0573735.0940793.0474611.042725.0107058.0489018.0057491.0730463-.0112978.0723541-.0304238 4.9643809-3.0875679zm-5.075-5.412-.0616077.00498329-.0604134.01544068-.0552704.02483906-7.39112305 4.60747087 1.252.782.00036877-.622205c0-.2982338.21758961-.5456468.50267688-.592147l.09732312-.007853h11.39135728c.2982337 0 .5456467.2175896.592147.5026769l.007853.0973231-.000726.617205 1.25-.777-7.4115248-4.62092903-.0297515-.01332782z"/></svg>