<svg height="32" viewBox="0 0 32 32" width="32" xmlns="http://www.w3.org/2000/svg"><path d="m11.4246118 19.9739677.0973595-.1367031.1798541-.2135485.8545575-.9397187 2.931444-3.1360898 3.3901731-3.5939076-8.91871866 7.3357349c-.13860077.1139814-.31744178.157664-.48736804.1271235l-.10049274-.0272624-.09599375-.0452644-4.8561884-2.8569373c-.12702713-.0747311-.22922131-.1852314-.29381867-.3176996-.16642336-.3412802-.05035499-.7469973.25691558-.9520886l.08847303-.0507607 21.23670825-10.355962c.4902414-.2249455 1.0052143.26085637.8092059.76336791l-.2898739.76381302c-.4490798 1.20960542-1.061138 2.95939226-1.8319881 5.22576387l-.5704486 1.6852839-3.6786779 11.0138897c-.0212092.0635392-.048749.1247866-.0822045.1828193-.2561323.4442937-.8016772.6176685-1.2613953.4193208l-.1043945-.0524171-4.0263709-2.3213658-1.9053694 2.6149018c-.309208.4242984-.9582222.2700668-1.068924-.2132592l-.0142339-.0944193-.3413597-4.4693878c-.0036051-.0472014-.0018737-.0929107.004577-.1367375l.0205345-.100596z"/></svg>