<svg height="32" viewBox="0 0 32 32" width="32" xmlns="http://www.w3.org/2000/svg"><path d="m26.8994501 7.49811671c.5698271 0 1.0385065.43306515 1.0948655.98802293l.005682.11252459-.061694 14.80849387c-.0030033.5676887-.4354244 1.0331219-.9884174 1.0890835l-.1121147.0056417h-21.70642967c-.56876548 0-1.03696509-.431513-1.09458581-.9853419l-.0059579-.1123051-.03080049-14.80557207c0-.56982714.4330695-1.03850649.98802728-1.09486552l.1125246-.005682zm-21.79890494 4.23710799.03079667 11.6661111h21.70642967l.0616786-11.6584791-10.3169689 6.4144692-.0800505.0418434-.1105197.0502193-.1132497.0368032-.1081234.0226445-.0848433.010954-.0847757.003846-.0865977-.0039812-.0848433-.0110892-.1081234-.0223741-.1132483-.0368032-.1105211-.0502193-.0800505-.0418434-9.08621046-5.6709775zm21.79890494-3.13656047h-21.79890059v1.84778027l.41303792.2507345.08557893.0395006.08409664.0477513 1.16531848.7279329 9.18308202 5.601171 10.8677866-6.6670903z"/></svg>