<svg height="32" viewBox="0 0 32 32" width="32" xmlns="http://www.w3.org/2000/svg"><path d="m26.5167225 5.57425131-.364773.97140745-1.763102 5.15316344c-1.0081991 2.9729244-2.4225703 7.1609842-4.2431135 12.5641796-.0212092.0635392-.048749.1247866-.0822045.1828193-.2561323.4442937-.8016772.6176685-1.2613953.4193208l-.1043945-.0524171-3.3723709-1.9663658-1.6989497 2.4429698c-.2613785.3754967-.8172971.3264199-1.0211226-.0582379l-.0380521-.0875306-1.7028756-4.8982013-6.44513039-3.7579647c-.12702713-.0747311-.22922131-.1852314-.29381867-.3176996-.16642336-.3412802-.05035499-.7469973.25691558-.9520886l.08847303-.0507607 21.09341075-10.2900761.1432975-.0658859c.4902414-.2249455 1.0052143.26085637.8092059.76336791zm-1.9643537 1.93210767-12.342 12.13500002 6.8746312 4.010641zm-12.095 13.66800002.8556312 2.462641.9723688-1.396641zm10.314-13.59900002-17.0213688 8.29864102 5.3863688 3.140359z"/></svg>