<svg height="32" viewBox="0 0 32 32" width="32" xmlns="http://www.w3.org/2000/svg"><g fill="none" fill-rule="evenodd"><path d="m15.9329332 3.4c.0628212 0 .1258455.00374118.196146.01229771l.111792.01658058.1803409.04132499.1949627.06854199.1855544.08836988.082801.04510144c7.4639001 4.63395888 11.2009249 6.95322411 11.2110742 6.95779581.1747048.0786939.3117231.2393686.3459897.4456725l.008283.1046939-.0672677 13.7120133c-.0014576.2971964-.2188056.5430557-.5029927.5892556l-.097.0078017h-23.66796071c-.29771855 0-.54488746-.2168665-.59193338-.5013911l-.00806483-.0971427-.03360273-13.7390587c-.00061723-.2627089.15993684-.468586.37146437-.5563219.00776075-.003219 3.72988243-2.31853044 11.16636508-6.94593441l.0915794-.04784766c.0812146-.04162185.162553-.07683879.2488797-.10609309l.1338393-.03946475.1160526-.02472591.0951365-.01499597.1065832-.01149922z" fill="#005a7d" fill-rule="nonzero"/><path d="m15.9329332 3.4c.0628212 0 .1258455.00374118.196146.01229771l.111792.01658058.1803409.04132499.1949627.06854199.1855544.08836988.082801.04510144c7.4639001 4.63395888 11.2009249 6.95322411 11.2110742 6.95779581.1747048.0786939.3117231.2393686.3459897.4456725l.008283.1046939-24.96883255-.0285219c-.00060673-.2627089.15994734-.468586.37147487-.5563219.00776075-.003219 3.72988243-2.31853044 11.16636508-6.94593441l.0915794-.04784766c.0812146-.04162185.162553-.07683879.2488797-.10609309l.1338393-.03946475.1160526-.02472591.0951365-.01499597.1065832-.01149922z" fill="#1b6d87" fill-rule="nonzero"/><path d="m8.746203 9.337049h14.507594v10.764313h-14.507594z" fill="#fff"/><path d="m3.48105505 11.5649761c0-.1311719.01371856-.2588467.0352515-.3845973l-.0352515 14.5075944c.00949474.0057334 8.32063085-4.8301315 24.93340815-14.5075944l-.0352234 14.5075944h-24.86293325z" fill="#61a3c0"/><path d="m3.51630655 11.1803788 24.86293325 14.5074493h-24.86293325z" fill="#6cacc8"/></g></svg>