<svg height="32" viewBox="0 0 32 32" width="32" xmlns="http://www.w3.org/2000/svg"><path d="m15.9329332 5.4c.0628212 0 .1258455.00374118.196146.01229771l.111792.01658058.1803409.04132499.1949627.06854199.1855544.08836988.082801.04510144c7.4639001 4.63395891 11.2009249 6.95322411 11.2110742 6.95779581.1747048.0786939.3117231.2393686.3459897.4456725l.008283.1046939-.0672677 13.7120133c-.0014576.2971964-.2188056.5430557-.5029927.5892556l-.097.0078017h-23.66796071c-.29771855 0-.54488746-.2168665-.59193338-.5013911l-.00806483-.0971427-.03360273-13.7390587c-.00061723-.2627089.15993684-.468586.37146437-.5563219.00776075-.003219 3.72988243-2.3185304 11.16636508-6.94593441l.0915794-.04784766c.0812146-.04162185.162553-.07683879.2488797-.10609309l.1338393-.03946475.1160526-.02472591.0951365-.01499597.1065832-.01149922zm-11.2489332 8.834.029 12.055h22.472l.059-12.03-10.3654607 6.444296-.0915794.0478477c-.0812188.041624-.1625566.0768411-.2524172.1068728l-.1422334.041311-.1416052.029161c-.0635376.0106603-.1268006.0179549-.1980012.021446l-.1137806.0023291-.1214144-.0061924-.131574-.0169271-.1719845-.0355392c-.0840128-.0213378-.1662839-.0497934-.2491646-.0855502l-.125072-.0591341-.1270238-.0683682zm18.294-1.252h-13.986l.00010245 2.4647509c0 .0204043-.00097262.0404652-.00286613.0601537l6.61908438 4.1329142.1053219.0544767.0829296.0331398.1030366.0217535.0668684.0037078.0619557-.0033963.0931921-.0189701.0536035-.01769.1085608-.050827 6.6982878-4.1660132-.0034366-.0492491zm-7.0046328-6.38006326-.0803111-.00008035-.1042399.01765352-.066621.02054708-.1079012.05041574-10.087294 6.28952727 2.265 1.393.00010245-1.9902406c0-.2650967.17192265-.4900387.41035359-.5694116l.09232329-.0227354.09732312-.007853h15.18653805c.2982338 0 .5456468.2175896.592147.5026769l.007853.0973231-.0006405 1.9772406 2.175-1.369-10.0626182-6.27725575-.1165618-.06216223-.0610369-.02349478-.0941832-.02022069z"/></svg>