<svg height="32" viewBox="0 0 32 32" width="32" xmlns="http://www.w3.org/2000/svg"><path d="m23.0365647 16.2520382c.0457484-.2070754.2837891-.3150908.4697549-.2131601l.0597247.0419048 4.8419069 4.2366607.0483995.0527134c.0829706.1132704.0829708.2688964.0000004.3821671l-.0483993.0527135-4.8419069 4.2366815-.0405518.0305231-.0645991.0318424c-.1766645.0633465-.3806882-.0422793-.4238458-.2314668l-.0082759-.0746954.0005295-2.425429-.3251399-.0090843c-1.323118.0045713-2.6035558.4976096-3.5902941 1.3910594l-.1933573.1840027-.180649.180649-.0537515.0438749c-.185453.1216011-.4414956.017529-.4908495-.197364l-.0084159-.075578.0020535-.1470787.0111341-.2249053c.1748742-2.4576383 2.0689581-4.440015 4.4864255-4.7513036l.2281344-.0242511.1147097-.0085168-.0005295-2.4094175zm-18.64397137-3.9518886 8.19955857 5.1176964.0636212.0332556c.0578353.0296401.1171185.0537391.1778437.0691623l.0187967.0043379c.0445816.0102801.0895918.0181519.1345661.0222575l.0688246.0031641c.0448224 0 .0899129-.0042302.1348069-.0117625l.0859325-.017997c.0607283-.0154232.1200084-.0395222.1778437-.0691623l.0636212-.0332556 8.1995457-5.0979831-.0309609 5.4241371-.015247.0046543c-1.8264074.4986541-3.3196344 1.788732-4.0987175 3.4774029l-13.15556287.000167zm8.63876087-6.3001496c.0448224 0 .0899128.00423012.1348069.01176243l.0859325.01799706.0900067.02924977.1514581.07316805 7.9573384 4.96207289-2.8466215 1.7914433v-2.2333293h-11.0693982v2.2333293l-2.9192781-1.7950878 7.9521029-4.95842839.0636212-.03325556c.0578352-.02964009.1171185-.05373913.1778436-.06916226l.0187968-.00433795c.0445816-.01028005.0895917-.01815183.1345661-.02225745z" fill-rule="evenodd"/></svg>