<svg height="32" viewBox="0 0 32 32" width="32" xmlns="http://www.w3.org/2000/svg"><path d="m23.0063345 16.0388781c.1859658-.1019307.4240064.0060847.4697549.2131601l.0077924.0725419-.0005296 2.4094175.1147098.0085168.2281344.0242511c2.4174674.3112886 4.3115512 2.2936653 4.4864254 4.7513036l.0111341.2249053.0020535.1470787-.0084158.075578c-.049354.214893-.3053965.3189651-.4908496.197364l-.0537514-.0438749-.180649-.180649-.1933573-.1840027c-.9867383-.8934498-2.2671761-1.3864881-3.5902941-1.3910594l-.32514.0090843.0005296 2.425429-.0082759.0746954c-.0431576.1891875-.2471814.2948133-.4238458.2314668l-.0645991-.0318424-.0405518-.0305231-4.8419069-4.2366815-.0483994-.0527135c-.0829703-.1132707-.0829701-.2688967.0000005-.3821671l.0483995-.0527134 4.8419069-4.2366607zm-9.9351481-10.59314417c.0527236 0 .1054406.00312411.1652232.01046923l.0958571.01432055.1504715.03506938.1636773.05837503.1435467.06846534.0721632.03957343 8.1510839 5.08288961c.1182237.0737224.2019077.181872.2461642.3033656.0247798.0522053.0425989.1092891.0515848.1702783l.0066197.0942915-.0231837 2.6672723c-.0021075.3333592-.2729429.6024879-.6063088.6024879-.2933256 0-.5366668-.2140086-.5824018-.494404l-.0075967-.1079663.013913-1.5882218-7.3160454 4.5475847-.0679162.0354786c-.0660625.0338565-.1326274.0626613-.207941.0876601l-.1205626.0347995-.1096436.0224672c-.0520573.0087342-.104066.0147265-.1642371.0175633l-.0974047.0018369-.0958159-.0050156-.1071411-.0137576-.1078015-.0213822-.1349101-.0382908-.1021477-.0396013-.1026061-.0485026-.1033607-.0559992-7.2794663-4.542841.02 8.242 10.3305553.0000818c.3313021.0000024.5998743.2685766.5998743.5998787 0 .3313045-.2685699.5998827-.5998743.599893l-10.92848937.0003707c-.29771397 0-.54488071-.21686-.59193147-.5013796l-.00806671-.0971411-.02461442-9.9260746c-.00034761-.1966766.08951494-.361502.22347516-.4687505l.11713212-.081726 8.18523829-5.1017615.0694653-.03628834c.0670514-.0343633.1345837-.0635876.2073153-.0881384l.132948-.03784744c.048962-.01129012.0973288-.02043019.1536315-.02778047l.0914722-.00972813zm5.0948136 6.61126607h-10.192l.00058545.7717339 4.89551265 3.0573735.0940793.0474611.042725.0107058.0489018.0057491.0730463-.0112978.0723541-.0304238 4.9643809-3.0875679zm-5.075-5.412-.0616077.00498329-.0604134.01544068-.0552704.02483906-7.39112305 4.60747087 1.252.782.00036877-.622205c0-.2982338.21758961-.5456468.50267688-.592147l.09732312-.007853h11.39135728c.2982337 0 .5456467.2175896.592147.5026769l.007853.0973231-.000726.617205 1.25-.777-7.4115248-4.62092903-.0297515-.01332782z"/></svg>