<svg height="32" viewBox="0 0 32 32" width="32" xmlns="http://www.w3.org/2000/svg"><g fill="none" fill-rule="evenodd"><path d="m27.7826167 7.92983247h.0284821v10.54728833h-23.73000004v-10.54728833z" fill="#85cfe8"/><path d="m4.08109876 10.072143 11.24927584 6.9941214c.0135576.0082656.028434.014049.0419916.021819.0148764.0082656.0304164.0160356.0452928.0238056.0793464.0406644.1606794.0737268.2439906.0948864.009093.0026418.0175224.0041328.025788.0059514.0917448.0211554.1848126.0348768.277053.0348768h.0019866c.0922404 0 .1853082-.0130578.277053-.0348768.0082656-.0018186.016695-.0033096.025788-.0059514.0833154-.0211596.1646442-.054222.2439906-.0948864.0148806-.00777.0304164-.01554.045297-.0238056.0135534-.00777.0284298-.0135534.0419874-.021819l11.215554-6.9941214c.020664.1188558.0337218.2390346.0337218.36351l-.0672523 13.3485033h-23.66796071z" fill="#6cacc8"/><path d="m4.08108108 11.168477 11.26609582 8.8413561c.3624121.2844121.8722313.2844326 1.2346663.0000496l11.2680258-8.8414057v-2.23864453h-23.76878792z" fill="#368ba6"/><path d="m15.3303746 17.0662644c.0135576.0082656.028434.014049.0419916.021819.0148764.0082656.0304164.0160356.0452928.0238056.0793464.0406644.1606794.0737268.2439906.0948864.009093.0026418.0175224.0041328.025788.0059514.0917448.0211554.1848126.0348768.277053.0348768h.0019866c.0922404 0 .1853082-.0130578.277053-.0348768.0082656-.0018186.016695-.0033096.025788-.0059514.0833154-.0211596.1646442-.054222.2439906-.0948864.0148806-.00777.0304164-.01554.045297-.0238056.0135534-.00777.0284298-.0135534.0419874-.021819 7.4995172-4.7457312 11.2492758-7.07710503 11.2492758-6.9941214l-.0672523 13.7120133z" fill="#61a3c0"/><path d="m27.849869 10.072143-.0058564 1.0998608-9.55 7.493-2.8763536-1.5531148.1205085.0547575.1366863.0434133.0125838.002667c.0611632.0141036.1229144.0249032.1846164.0305358l.0944232.004341c.0614936 0 .1233549-.0058035.1849468-.0161374l.1178942-.0246908.1234836-.0401289.165804-.0785631.0419874-.021819 6.6713154-4.2053231 3.3707699-2.0930774.9931733-.5922597.183921-.09696.0267521-.0086404c.0022294 0 .0033441.0007084.0033441.0021392z" fill="#1b6d87"/><path d="m4.08108108 10.072143 11.24929352 6.9941214c.0135576.0082656.028434.014049.0419916.021819.0148764.0082656.0304164.0160356.0452928.0238056.0793464.0406644.1606794.0737268.2439906.0948864.009093.0026418.0175224.0041328.025788.0059514.0917448.0211554.1848126.0348768.277053.0348768.094227 0 .1872948-.0130578.2790396-.0348768.0082656-.0018186.016695-.0033096.025788-.0059514.0833154-.0211596.1646442-.054222.2439906-.0948864.0148806-.00777.0304164-.01554.045297-.0238056.0135534-.00777.0284298-.0135534.0419874-.021819l11.2492758-6.9941214v-2.14231053h-23.76878792z" fill="#85cfe8"/></g></svg>