<svg height="32" viewBox="0 0 32 32" width="32" xmlns="http://www.w3.org/2000/svg"><path d="m23.4760894 16.2520382.0077924.0725419-.0005296 2.4094175.1147098.0085168c2.5255426.2121053 4.5342208 2.2411152 4.7145598 4.7755547l.0111341.2249053.0020535.1470787c0 .2645578-.2932064.4080543-.4992654.272942l-.0537514-.0438749-.180649-.180649c-1.0095603-1.0095431-2.3723255-1.570186-3.7836514-1.5750621l-.32514.0090843.0005296 2.425429c0 .2348363-.2333742.377427-.4321217.3061622l-.0645991-.0318424-.0405518-.0305231-4.8419069-4.2366815c-.129065-.1129323-.1451979-.3027318-.0483989-.4348806l.0483995-.0527134 4.8419069-4.2366607c.1904186-.166616.478648-.0588285.5294796.1712553zm-19.08349607-3.9518886 8.19955857 5.1176964.0636212.0332556c.0578353.0296401.1171185.0537391.1778437.0691623l.0187967.0043379c.0445816.0102801.0895918.0181519.1345661.0222575l.0688246.0031641c.0448224 0 .0899129-.0042302.1348069-.0117625l.0859325-.017997c.0607283-.0154232.1200084-.0395222.1778437-.0691623l.0636212-.0332556 8.1995457-5.0979831-.0189609 3.2571371-4.3840951 3.8373508c-.5346558.467823-.6573532 1.216047-.3680918 1.8125676l-12.52934047-.0006942zm8.63876087-6.3001496c.0448224 0 .0899128.00423012.1348069.01176243l.0859325.01799706.0900067.02924977.1208537.05726428.0306044.01590377 7.9573384 4.96207289-2.8466215 1.7914433v-2.2333293h-11.0693982v2.2333293l-2.9192781-1.7950878 7.9521029-4.95842839.0636212-.03325556c.0578352-.02964009.1171185-.05373913.1778436-.06916226l.0187968-.00433795c.0445816-.01028005.0895917-.01815183.1345661-.02225745z" fill-rule="evenodd"/></svg>