<svg height="32" viewBox="0 0 32 32" width="32" xmlns="http://www.w3.org/2000/svg"><g fill="none" fill-rule="evenodd"><path d="m13.1872129 5.80351225c.0425617 0 .0852608.00253466.1328897.00833174l.0757394.0112334.1221816.02799783.132088.04643745.1257138.05987091.0560979.03055638c5.0568193 3.13952384 7.588667 4.71083444 7.5955432 4.71393174.1183631.0533154.2111935.1621731.2344093.3019447l.0056118.0709305-.0455741 9.2899384c-.0009876.2013517-.1482417.3679222-.3407794.3992228l-.0657179.0052857h-16.03512862c-.20170539 0-.36916322-.1469278-.40103699-.3396943l-.00546395-.0658145-.02276598-9.3082618c-.00041817-.1779862.10835779-.3174687.25166845-.3769101.00525794-.0021808 2.52700878-1.5708127 7.56525249-4.70589555l.0620454-.03241697c.0550232-.02819895.1101303-.05205855.1686169-.07187845l.0906767-.02673751.078626-.01675189.0644553-.01015983.0722105-.00779076z" fill="#005a7d" fill-rule="nonzero"/><path d="m13.1872129 5.80351225c.0425617 0 .0852608.00253466.1328897.00833174l.0757394.0112334.1221816.02799783.132088.04643745.1257138.05987091.0560979.03055638c5.0568193 3.13952384 7.588667 4.71083444 7.5955432 4.71393174.1183631.0533154.2111935.1621731.2344093.3019447l.0056118.0709305-16.91647405-.0193237c-.00041106-.1779862.1083649-.3174687.25167556-.3769101.00525794-.0021808 2.52700878-1.5708127 7.56525249-4.70589555l.0620454-.03241697c.0550232-.02819895.1101303-.05205855.1686169-.07187845l.0906767-.02673751.078626-.01675189.0644553-.01015983.0722105-.00779076z" fill="#1b6d87" fill-rule="nonzero"/><path d="m8.318177 9.825884h9.828947v7.292861h-9.828947z" fill="#fff"/><path d="m4.75102066 11.3353129c0-.0888694.00929438-.1753695.02388302-.260566l-.02388302 9.8289475c.00643272.0038843 5.63725734-3.2724315 16.89247384-9.8289475l-.023864 9.8289475h-16.84472682z" fill="#61a3c0"/><path d="m4.77490368 11.0747469 16.84472682 9.8288492h-16.84472682z" fill="#6cacc8"/><g fill-rule="nonzero"><path d="m17.3144982 19.4143508-.0937211.0915047-.0483995.0527134-.0841447.1024763c-.4640545.6335214-.3721163 1.5235001.2262625 2.0470832l4.8419069 4.2366815.1091061.0861907c.0598875.045077.1238668.0844437.191099.117584l.0645991.0318424.1255207.0532364.1223924.0382602c.940449.251573 1.9147622-.4481629 1.9147622-1.4740012l-.0008818-1.1409224.0626068.013857c.7412839.1750201 1.4401378.558281 1.9980158 1.1161495l.1806418.1806418.0897168.0810983.0537514.0438749.1008113.0738853c1.0021168.6570855 2.3572655-.0550359 2.3572655-1.2764537l-.0021704-.1638314-.0124849-.2674867-.0216176-.2408628c-.2859826-2.6348839-2.1523874-4.777974-4.6274698-5.463361l-.1790667-.0465112.0008817-1.3831562-.0068639-.1284287-.0077923-.0725419-.021391-.1307047c-.2470553-1.1182681-1.6127587-1.5843138-2.4914294-.8154784z" fill="#fff"/><path d="m23.4760894 16.2520382.0077924.0725419-.0005296 2.4094175.1147098.0085168c2.5255426.2121053 4.5342208 2.2411152 4.7145598 4.7755547l.0111341.2249053.0020535.1470787c0 .2645578-.2932064.4080543-.4992654.272942l-.0537514-.0438749-.180649-.180649c-1.0095603-1.0095431-2.3723255-1.570186-3.7836514-1.5750621l-.32514.0090843.0005296 2.425429c0 .2348363-.2333742.377427-.4321217.3061622l-.0645991-.0318424-.0405518-.0305231-4.8419069-4.2366815c-.129065-.1129323-.1451979-.3027318-.0483989-.4348806l.0483995-.0527134 4.8419069-4.2366607c.1904186-.166616.478648-.0588285.5294796.1712553z" fill="#007b3d"/></g></g></svg>