<svg height="32" viewBox="0 0 32 32" width="32" xmlns="http://www.w3.org/2000/svg"><path d="m4.08108108 14.1503906 11.24929352 7.0211668.0872844.0456246c.0793464.0406644.1606794.0737268.2439906.0948864l.025788.0059514c.0611632.0141036.1229144.0249032.1846164.0305359l.0944232.0043409c.0614936 0 .1233549-.0058034.1849468-.0161373l.1178942-.0246909c.0833154-.0211596.1646442-.054222.2439906-.0948864l.0872844-.0456246 11.2492758-6.9941214-.0672523 12.7120134h-23.66796071zm11.85185212-8.1503906c.0614936 0 .1233549.00580347.1849468.01613733l.1178942.02469087.1234837.0401289.1658039.0785631.0419874.021819 10.916982 6.8076608-3.9053907 2.4577509v-3.0639915h-15.18653805v3.0639915l-4.00507122-2.4627509 10.90979937-6.8026608.0872844-.0456246c.0793464-.0406644.1606794-.0737268.2439906-.0948864l.025788-.0059514c.0611632-.0141036.1229144-.0249032.1846164-.03053587z" fill-rule="evenodd"/></svg>