<svg height="32" viewBox="0 0 32 32" width="32" xmlns="http://www.w3.org/2000/svg"><path d="m19.8998716 4.47006712h2.0825635c1.6770888 0 3.0366379 1.35974142 3.0366379 3.03683019v17.05646489c0 1.6770887-1.3595491 3.0366378-3.0366379 3.0366378h-10.9648702c-1.6770888 0-3.03663787-1.3595491-3.03663787-3.0366378v-17.05646489c0-1.67708877 1.35954907-3.03683019 3.03663787-3.03683019h2.0813621c.2982062 0 .5456165.21751912.5921388.50257575l.0078612.09736883c0 .33137982-.2686201.60002483-.6.60005545l-2.0813621.00019232c-1.0143471 0-1.83663787.82229077-1.83663787 1.83663784v17.05646489c0 1.014347.82229077 1.8366378 1.83663787 1.8366378h10.9648702c1.0143471 0 1.8366379-.8222908 1.8366379-1.8366378v-17.05646489c0-1.01434707-.8222908-1.83663784-1.8366379-1.83663784l-2.0825081-.00019235c-.3313798-.0000306-.6-.2686756-.6-.60005542 0-.33134024.2686044-.59994458.5999446-.59994458zm-.3998716 17.98144448c.3313708 0 .6.2686291.6.6 0 .2982337-.2175896.5456467-.5026769.592147l-.0973231.007853h-6c-.3313708 0-.6-.2686292-.6-.6 0-.2982338.2175896-.5456468.5026769-.592147l.0973231-.007853zm0-2.3605727c.3313708 0 .6.2686292.6.6 0 .2982338-.2175896.5456468-.5026769.592147l-.0973231.007853h-6c-.3313708 0-.6-.2686291-.6-.6 0-.2982337.2175896-.5456467.5026769-.592147l.0973231-.007853zm-3-5.5411474c1.3805109 0 2.5967075.907729 2.98942 2.2312044l.1132354.3816132c.0467642.1575994-.0713213.3158132-.2357126.3158132h-5.7338856c-.1643913 0-.2824768-.1582138-.2357126-.3158132l.1132354-.3816132c.3927125-1.3234754 1.6089091-2.2312044 2.98942-2.2312044zm0-4.352519c1.0807859 0 1.956936.8761501 1.956936 1.956936s-.8761501 1.956936-1.956936 1.956936-1.956936-.8761501-1.956936-1.956936.8761501-1.956936 1.956936-1.956936zm0-7.9892608c.8841042 0 1.6008122.71670805 1.6008122 1.60081223v3.80322581h-3.2016244v-3.80322581c0-.88410418.716708-1.60081223 1.6008122-1.60081223zm0 2.34800469c.4076933 0 .7381941-.33050074.7381941-.73819406s-.3305008-.73819406-.7381941-.73819406-.7381941.33050074-.7381941.73819406.3305008.73819406.7381941.73819406z" fill-rule="evenodd"/></svg>