<svg height="32" viewBox="0 0 32 32" width="32" xmlns="http://www.w3.org/2000/svg"><path d="m21.9824351 5.07025947c1.345718 0 2.4366379 1.09091992 2.4366379 2.43663784v17.05646489c0 1.3457179-1.0909199 2.4366378-2.4366379 2.4366378h-10.9648702c-1.34571795 0-2.43663787-1.0909199-2.43663787-2.4366378v-17.05646489c0-1.34571792 1.09091992-2.43663784 2.43663787-2.43663784l2.6813621-.00024777.0002608 2.54203804c0 .62132034.4721997 1.13235254 1.0773069 1.19380453l.1226931.00619547h3.2016244c.6627417 0 1.2-.5372583 1.2-1.2l-.0008852-2.54203804zm-2.4824351 17.38125213h-6l-.0973231.007853c-.2850873.0465002-.5026769.2939132-.5026769.592147 0 .3313708.2686292.6.6.6h6l.0973231-.007853c.2850873-.0465003.5026769-.2939133.5026769-.592147 0-.3313709-.2686292-.6-.6-.6zm0-2.3605727c.3313708 0 .6.2686292.6.6 0 .2982338-.2175896.5456468-.5026769.592147l-.0973231.007853h-6c-.3313708 0-.6-.2686291-.6-.6 0-.2982337.2175896-.5456467.5026769-.592147l.0973231-.007853zm-3-5.0322222c1.2317371 0 2.3168676.8099056 2.6672586 1.9907538l.1010323.3404877c.0417246.1406155-.0636352.281779-.2103105.281779h-5.1159608c-.1466753 0-.2520351-.1411635-.2103105-.281779l.1010323-.3404877c.350391-1.1808482 1.4355215-1.9907538 2.6672586-1.9907538zm0-3.8834602c-.9643127 0-1.7460425.7817298-1.7460425 1.7460425 0 .9643126.7817298 1.7460425 1.7460425 1.7460425s1.7460425-.7817299 1.7460425-1.7460425c0-.9643127-.7817298-1.7460425-1.7460425-1.7460425zm1.6008122-3.56320676h-3.2016244v-3.80322581c0-.83498728.6392859-1.52066134 1.4551057-1.59427023l.1457065-.006542c.8841042 0 1.6008122.71670805 1.6008122 1.60081223zm-1.6008122-3.05603335c.4076933 0 .7381941-.33050074.7381941-.73819406s-.3305008-.73819406-.7381941-.73819406-.7381941.33050074-.7381941.73819406.3305008.73819406.7381941.73819406z" fill-rule="evenodd"/></svg>