<svg height="32" viewBox="0 0 32 32" width="32" xmlns="http://www.w3.org/2000/svg"><g fill="none" fill-rule="evenodd"><path d="m21.9824351 5.07025947c1.345718 0 2.4366379 1.09091992 2.4366379 2.43663784v17.05646489c0 1.3457179-1.0909199 2.4366378-2.4366379 2.4366378h-10.9648702c-1.34571795 0-2.43663787-1.0909199-2.43663787-2.4366378v-17.05646489c0-1.34571792 1.09091992-2.43663784 2.43663787-2.43663784zm-3.5394514 1.63535407h-3.8859674c-.4625064 0-.8374419.37493553-.8374419.83744195s.3749355.83744195.8374419.83744195h3.8859674c.4625064 0 .8374419-.37493553.8374419-.83744195s-.3749355-.83744195-.8374419-.83744195z" fill="#f7d776"/><path d="m16.5 15.4852684c1.3805109 0 2.5967075.907729 2.98942 2.2312045l.1132354.3816131c.0467642.1575995-.0713213.3158132-.2357126.3158132h-5.7338856c-.1643913 0-.2824768-.1582137-.2357126-.3158132l.1132354-.3816131c.3927125-1.3234755 1.6089091-2.2312045 2.98942-2.2312045zm0-4.352519c1.0807859 0 1.956936.8761502 1.956936 1.9569361s-.8761501 1.956936-1.956936 1.956936-1.956936-.8761501-1.956936-1.956936.8761501-1.9569361 1.956936-1.9569361z" fill="#83660a" fill-rule="nonzero"/><path d="m19.5 22.4515116c.3313708 0 .6.2686291.6.6 0 .2982337-.2175896.5456467-.5026769.592147l-.0973231.007853h-6c-.3313708 0-.6-.2686292-.6-.6 0-.2982338.2175896-.5456468.5026769-.592147l.0973231-.007853zm0-2.3605727c.3313708 0 .6.2686292.6.6 0 .2982338-.2175896.5456468-.5026769.592147l-.0973231.007853h-6c-.3313708 0-.6-.2686291-.6-.6 0-.2982337.2175896-.5456467.5026769-.592147l.0973231-.007853z" fill="#83660a" fill-rule="nonzero" opacity=".208682"/><path d="m16.5 2.2080117c.8841042 0 1.6008122.71670805 1.6008122 1.60081223v3.80322581h-3.2016244v-3.80322581c0-.88410418.716708-1.60081223 1.6008122-1.60081223z" fill="#8fb4bb"/><circle cx="16.5" cy="3.817822" fill="#74a2ab" r="1"/></g></svg>