<svg height="32" viewBox="0 0 32 32" width="32" xmlns="http://www.w3.org/2000/svg"><g fill="none" fill-rule="evenodd" transform="translate(7.056826 6)"><path d="m6.48634769 0h10.80000001c.3313708 0 .6.26862915.6.6v18.8c0 .3313708-.2686292.6-.6.6h-10.80000001c-.33137085 0-.6-.2686292-.6-.6v-18.8c0-.33137085.26862915-.6.6-.6z" fill="#a1e0f1"/><path d="m4.07473663 6.12635574-3.78710283 3.03763127-.08016015.07696201c-.15269486.16980684-.22568785.37016514-.20360124.57998794-.0010989.21940604.11623998.45775064.30533679.60632674l3.6986253 2.9589101c.12460275.112596.3082932.1738262.49493901.1738262.12182711 0 .24227589-.0275311.34944271-.0811146l.09600908-.052353c.21398812-.1387158.35454821-.3888704.35454821-.6565324l.02622588-1.94h7.88536351c.4448267 0 .80543-.3606033.80543-.80543l-.0085814-.11434688-.0243135-.1069873c-.102341-.34621942-.4123878-.5840724-.7725542-.584038l-7.86934441.00080218.03775151-2.45699282c.00002261-.31250901-.17627218-.60133238-.45399068-.73357928-.28340693-.13495569-.61613995-.10130853-.85402359.09692784z" fill="#007b3d" fill-rule="nonzero" transform="matrix(-1 0 0 1 14.019792 0)"/></g></svg>