<svg height="32" viewBox="0 0 32 32" width="32" xmlns="http://www.w3.org/2000/svg"><path d="m24.3431738 6c.3313709 0 .6.26862915.6.6v18.8c0 .3313708-.2686291.6-.6.6h-10.8c-.3313708 0-.6-.2686292-.6-.6l-.0003476-8.571-5.08057005.001c-.4448267 0-.80543-.3606033-.80543-.80543l.00858138-.1143469.02431355-.1069873c.102341-.3462194.4123878-.5840724.77255417-.584038l5.08055095-.0001978.0003476-8.619c0-.33137085.2686292-.6.6-.6zm-7.3412914 6.1263557c-.2378836-.1982363-.5706166-.2318835-.8540236-.0969278-.2430036.115716-.4083548.3513109-.4458805.6177582l-.0081101.1158211.0377515 2.4569928-1.3032993-.0008022c-.3201478-.0000306-.6006951.1878993-.7309638.4728228l-.0415903.1112152-.0243136.1069873-.0085814.1143469c0 .4106093.3072597.7494542.7043986.7991546l.1010314.0062754h1.3193184l.0262259 1.94c0 .2294246.1032686.4459866.2675303.5905339l.0870179.0659985.096009.052353c.1071669.0535835.2276156.0811146.3494428.0811146.1493166 0 .2967418-.0391873.4135359-.1125114l.0814031-.0613148 3.6986253-2.9589101c.1890968-.1485761.3064357-.3869207.3053368-.6063267.0184055-.1748524-.0292165-.3431321-.1339669-.4926362l-.0696344-.0873518-.0801601-.076962z" fill-rule="evenodd"/></svg>