<svg height="32" viewBox="0 0 32 32" width="32" xmlns="http://www.w3.org/2000/svg"><path d="m24.1746208 5.4c.6213203 0 1.1323525.47219968 1.1938045 1.07730697l.0061955.12269303v18.8c0 .6213203-.4721997 1.1323525-1.077307 1.1938045l-.122693.0061955h-10.8c-.6213204 0-1.1323526-.4721997-1.1938046-1.077307l-.0061954-.122693v-6.04c0-.3313708.2686291-.6.6-.6.2982337 0 .5456467.2175896.592147.5026769l.007853.0973231v6.04h10.8v-18.8h-10.8v5.5482052c0 .3313708-.2686292.6-.6.6-.2982338 0-.5456468-.2175896-.592147-.5026769l-.007853-.0973231v-5.5482052c0-.62132034.4721997-1.13235254 1.0773069-1.19380454l.1226931-.00619546zm-8.5722222 6.81c.18-.0857143.3893878-.0832653.5588922.0136443l.0811078.0563557 3.79 3.04.0655556.0640278c.1013889.1131944.1611111.2576389.1444444.4159722 0 .15-.0625.3-.1643518.4094907l-.0656482.0605093-3.7 2.96c-.1.09-.24.13-.37.13-.09 0-.18-.02-.26-.06-.1714285-.0771429-.2987755-.242449-.3316618-.4329446l-.0083382-.0970554-.03-2.24h-8.08158937c-.30093278 0-.55058486-.2195588-.59750595-.5072261l-.00792405-.0982039.00793268-.0982516c.04172806-.2556758.24361821-.4575274.49930205-.4992067l.09819526-.0079139 8.07158938.0008022-.04-2.56c0-.23.13-.45.34-.55z"/></svg>