<svg height="32" viewBox="0 0 32 32" width="32" xmlns="http://www.w3.org/2000/svg"><g fill="none" fill-rule="evenodd"><g fill-rule="nonzero"><path d="m23.0224806 4.88839585.0076283-.00482277 4.3779073 20.85091362c.0790168.3725848-.1589704.7386667-.5313725.8176471-.0475635.0101432-.0957149.0151746-.1438609.0151746-.32336 0-.6061951-.2264968-.6740231-.5466265l-1.3403595-6.3188963h-4.8379552l.0250516-.1191432 3.0861914-14.54908257z" fill="#3e5b63"/><path d="m12.4235102 18.1571154-.1778599-.1156086-1.0557913.2239507-.1156099.1778619 1.6073723 7.5773504c.067832.3201391.3506719.5466252.6740745.5466252.0480211 0 .0961165-.0050146.1436322-.0151003.3725934-.0790662.6105612-.4450955.5315576-.8177137z" fill="#3e5b63"/><path d="m8.78144742 4.97130771.14673499-.11887373h14.10192649l-.0384209.18112585-3.0861914 14.54908257-1.3536916 6.4380268c-.0678915.3201512-.3507615.5466347-.6741216.5466347-.0478343 0-.0957288-.0050123-.1436291-.0150997-.3725536-.0790699-.6105211-.4451438-.5315126-.8177285l1.279679-6.0326981h-11.4274991l-1.34037508 6.3188911c-.06789157.3201564-.35072219.5466352-.67407672.5466352-.0478554 0-.09580565-.0050167-.14362413-.0150987-.37260556-.0790685-.61058041-.4451539-.53151824-.8177295z" fill="#cfc62a"/></g><g fill="#345c64"><path d="m18.2569842 9.33758985h-6.1569686c-.2980067 0-.5396159-.24160917-.5396159-.53966743 0-.2980099.2416092-.53961907.5396159-.53961907h6.1569686c.2979616 0 .5396159.24160917.5396159.53961907 0 .29805826-.2416543.53966743-.5396159.53966743"/><path d="m17.6678998 11.6570395h-6.1569236c-.2980066 0-.5396593-.2416075-.5396593-.5396594 0-.2980082.2416527-.5396158.5396593-.5396158h6.1569236c.2979631 0 .5396609.2416076.5396609.5396158 0 .2980519-.2416978.5396594-.5396609.5396594"/><path d="m17.1758981 13.9764714h-6.1569235c-.2980067 0-.5396594-.2416075-.5396594-.5396593 0-.2980083.2416527-.5396159.5396594-.5396159h6.1569235c.2980083 0 .539661.2416076.539661.5396159 0 .2980518-.2416527.5396593-.539661.5396593"/><path d="m16.6838529 16.2959662h-6.1568783c-.2980083 0-.53966101-.2416091-.53966101-.5396609 0-.2980067.24165271-.5396594.53966101-.5396594h6.1569219c.2980083 0 .539661.2416527.539661.5396594 0 .2980518-.2416527.5396609-.5397046.5396609"/></g></g></svg>