<svg height="32" viewBox="0 0 32 32" width="32" xmlns="http://www.w3.org/2000/svg"><path d="m20.4993287 19.457014h4.70328l-2.3516037-11.08639476zm2.944171-14.07628538 4.4047211 20.76560618c.1659996.7825881-1.0078825 1.0315875-1.1738821.2489994l-1.2171906-5.7383202h-5.2115784l-1.253339 5.9612167c-.1646003.7828835-1.3389257.535983-1.1743253-.2469006l1.2014301-5.7143242h-6.8159849l1.2119453 5.713259c.1660089.7825861-1.0078703 1.0315994-1.1738792.2490133l-1.2647681-5.9622723h-4.66060997l-1.21723599 5.7383281c-.16600531.7825869-1.33988564.5335789-1.17388033-.249008l4.41632016-20.76316877c.05880534-.27721921.30355229-.47549492.58693994-.47549492h13.86999609c.2758342-.03033128.5685011.1109058.6453212.47306631zm-7.0764546 10.62173948h-6.1569219c-.33137082 0-.59999997.2686291-.59999997.6 0 .3313708.26862915.6.59999997.6h6.1569219c.3313709 0 .6-.2686292.6-.6 0-.3313709-.2686291-.6-.6-.6zm.5976054-2.6129912h-6.1569236c-.3313708 0-.6.2686292-.6.6 0 .3313709.2686292.6.6.6h6.1569236c.3313708 0 .6-.2686291.6-.6 0-.3313708-.2686292-.6-.6-.6zm.5976053-2.6129911h-6.1569235c-.8 0-.8 1.2 0 1.2h6.1569235c.8 0 .8-1.2 0-1.2zm.5976504-2.6129912h-6.1569686c-.8 0-.8 1.2 0 1.2h6.1569686c.8 0 .8-1.2 0-1.2z"/></svg>