<svg height="32" viewBox="0 0 32 32" width="32" xmlns="http://www.w3.org/2000/svg"><path d="m25.9386712 3.99868936c.2982338 0 .5456468.21758962.592147.50267689l.007853.09732311v23.28478594c0 .2982689-.2176389.5456538-.5027645.5921481l-.0973354.0078519-4.7196712-.0007859c-.2989027-.0000498-.5465947-.218621-.5923361-.5044446l-.0075607-.0975578.0179967-5.473687-4.068-.0003106.0003356 5.6459068c0 .3313708-.2686291.6-.6.6-.2982338 0-.5456467-.2175896-.592147-.5026769l-.007853-.0973231-.0003356-5.6459068-4.173.0003106-.0180033 5.4776746c-.0008749.264443-.1727263.4884703-.4106764.5675326l-.0921248.0226489-.0970925.0078333-4.57799999.0007859c-.29826997 0-.54573743-.217557-.59224822-.5026671l-.00785479-.0973329v-23.28478594c0-.29823376.21758961-.54564675.50267688-.59214701l.09732312-.00785299zm-8.1952823 4.21273875h-3.727469v3.13155719h-3.1235573v3.7369134h3.1235573v3.1315294h3.727469v-3.1315294h3.1235573v-3.7369134h-3.1235573z"/></svg>