<svg height="32" viewBox="0 0 32 32" width="32" xmlns="http://www.w3.org/2000/svg"><path d="m25.9386712 3.99868936c.2982338 0 .5456468.21758962.592147.50267689l.007853.09732311v23.28478594c0 .2982689-.2176389.5456538-.5027645.5921481l-.0973354.0078519-3.3925713-.0017859-.008538.0017859h-13.00000002l-.00946198-.0017859-3.52789699.0017859c-.29826997 0-.54573743-.217557-.59224822-.5026671l-.00785479-.0973329v-23.28478594c0-.29823376.21758961-.54564675.50267688-.59214701l.09732312-.00785299zm-.6006712 1.19931064h-18.738v22.085l2.906.0026894.03146198-.0022141.44153802-.0007859.01700648-4.8796334c.00203732-.6198735.47380192-1.1287053 1.07757822-1.1898879l.1224153-.0061681h9.441c.6227653 0 1.134447.4743158 1.194175 1.0809547l.0058185.1229907-.0169935 4.8710546 3.518.001zm-9.969 17.2086894-4.173.0003106-.017 4.8756894h4.19zm1.2 0v4.876h4.052l.016-4.8756894zm1.1743889-14.19526129v3.13155719h3.1235573v3.7369134h-3.1235573v3.1315294h-3.727469v-3.1315294h-3.1235573v-3.7369134h3.1235573v-3.13155719z"/></svg>