<svg height="32" viewBox="0 0 32 32" width="32" xmlns="http://www.w3.org/2000/svg"><path d="m22.5360647 4.875c.4142136 0 .75.33578644.75.75v2.52235006h2.388889c.3313709 0 .6.26862915.6.6v15.33280264c0 .3313709-.2686291.6-.6.6h-19.5749537c-.33137085 0-.6-.2686291-.6-.6v-15.33280264c0-.33134339.26865661-.59996117.6-.60007029l2.388-.00027977.00068693-2.522c0-.41421356.33578643-.75.75-.75.41421356 0 .75.33578644.75.75l-.00068693 2.522 11.7980647.00035006v-2.52235006c0-.41421356.3357864-.75.75-.75zm-6.6265207 6.4812302c-.4318821 0-.7819918.3501097-.7819918.7819918v4.3880082l-2.2500753.03c-.23 0-.44.14-.53.34-.1.21-.07.45.07.63l2.96 3.7c.11.14.29.23.47.23s.35-.08.47-.22l3.04-3.79c.14-.18.17-.42.07-.63-.0857143-.18-.2522449-.3012244-.4429155-.3321865l-.1070845-.0078135-2.1859411.03v-4.3680082c0-.4318821-.3501097-.7819918-.7819918-.7819918z"/></svg>