<svg height="32" viewBox="0 0 32 32" width="32" xmlns="http://www.w3.org/2000/svg"><path d="m22.5360647 5.875c.4142136 0 .75.33578644.75.75v2.52235006h2.238889c.4142136 0 .75.33578644.75.75v15.03280264c0 .4142136-.3357864.75-.75.75h-19.2749537c-.41421356 0-.75-.3357864-.75-.75v-15.03280264c.00008787-.41417924.33582076-.74995147.74999999-.75008786l2.23800001-.0002622.00068693-2.522c0-.41421356.33578643-.75.75-.75.41421356 0 .75.33578644.75.75l-.00068693 2.522 11.7980647.00035006v-2.52235006c0-.41421356.3357864-.75.75-.75zm-8.9790237 7.2959634-2.4117187 2.0091015c-.2263709.18858-.2268321.5360829-.0009627.7252633l2.4560156 2.0570728c.3089749.2587865.7792898.0367847.7758739-.3662343l-.0107268-1.2655681h4.450275c1.0581079 0 1.9195312.8614233 1.9195312 1.9195312 0 1.058108-.8614233 1.9195313-1.9195312 1.9195313h-7.0727344c-.4233764 0-.7678125.3444361-.7678125.7678125s.3444361.7678125.7678125.7678125h7.0727344c1.9048608 0 3.4551562-1.5502955 3.4551562-3.4551563-.0057079-1.9071719-1.5572184-3.4551562-3.465-3.4551562h-4.4632263l-.0107752-1.2650011c-.0033958-.3986715-.4685904-.6141919-.774911-.3590091z"/></svg>