<svg height="32" viewBox="0 0 32 32" width="32" xmlns="http://www.w3.org/2000/svg"><path d="m22.5360647 5.875c.4142136 0 .75.33578644.75.75v2.52235006h2.238889c.4142136 0 .75.33578644.75.75v15.03280264c0 .4142136-.3357864.75-.75.75h-19.2749537c-.41421356 0-.75-.3357864-.75-.75v-15.03280264c.00008787-.41417924.33582076-.74995147.74999999-.75008786l2.23800001-.0002622.00068693-2.522c0-.41421356.33578643-.75.75-.75.41421356 0 .75.33578644.75.75l-.00068693 2.522 11.7980647.00035006v-2.52235006c0-.41421356.3357864-.75.75-.75zm-2.5032553 15.2598193c-.3098866-.3110154-.7767077-.4045346-1.1824855-.2368896-.4057777.167645-.6704646.5633829-.6704675 1.0024277-.0000039.597484.4832014 1.0824494 1.0806818 1.0846182.439042.0015936.83574-.2616524 1.0048595-.6668176.1691195-.4051653.0772984-.8723232-.2325883-1.1833387zm-3.3617652 0c-.3098867-.3110154-.7767078-.4045346-1.1824855-.2368896-.4057778.167645-.6704646.5633829-.6704675 1.0024277-.000004.597484.4832014 1.0824494 1.0806817 1.0846182.4390421.0015936.83574-.2616524 1.0048595-.6668176.1691196-.4051653.0772985-.8723232-.2325882-1.1833387zm-3.362562 0c-.3098866-.3110154-.7767077-.4045346-1.1824855-.2368896-.4057777.167645-.6704646.5633829-.6704675 1.0024277-.0000039.597484.4832015 1.0824494 1.0806818 1.0846182.439042.0015936.83574-.2616524 1.0048595-.6668176.1691195-.4051653.0772984-.8723232-.2325883-1.1833387zm-3.36035562 0c-.30988668-.3110154-.77670777-.4045346-1.18248552-.2368896-.40577776.167645-.67046461.5633829-.6704675 1.0024277-.00000393.597484.48320143 1.0824494 1.08068174 1.0846182.43904204.0015936.83574-.2616524 1.0048595-.6668176.1691195-.4051653.0772985-.8723232-.23258822-1.1833387zm0-3.3157572c-.30988668-.3110154-.77670777-.4045346-1.18248552-.2368896-.40577776.167645-.67046461.5633829-.6704675 1.0024277-.00000393.5974839.48320143 1.0824494 1.08068174 1.0846181.43904204.0015937.83574-.2616523 1.0048595-.6668176.1691195-.4051652.0772985-.8723231-.23258822-1.1833386zm13.44362892 0c-.3098867-.3110154-.7767078-.4045346-1.1824855-.2368896-.4057778.167645-.6704646.5633829-.6704675 1.0024277-.0000039.5974839.4832014 1.0824494 1.0806817 1.0846181.4390421.0015937.8357401-.2616523 1.0048596-.6668176.1691195-.4051652.0772984-.8723231-.2325883-1.1833386zm-3.3567602 0c-.3098867-.3110154-.7767078-.4045346-1.1824855-.2368896-.4057778.167645-.6704646.5633829-.6704675 1.0024277-.000004.5974839.4832014 1.0824494 1.0806817 1.0846181.4390421.0015937.83574-.2616523 1.0048596-.6668176.1691195-.4051652.0772984-.8723231-.2325883-1.1833386zm-3.3639511 0c-.3098867-.3110154-.7767078-.4045346-1.1824855-.2368896-.4057778.167645-.6704646.5633829-.6704675 1.0024277-.000004.5974839.4832014 1.0824494 1.0806817 1.0846181.4390421.0015937.83574-.2616523 1.0048595-.6668176.1691196-.4051652.0772985-.8723231-.2325882-1.1833386zm-3.362562 0c-.3098866-.3110154-.7767077-.4045346-1.1824855-.2368896-.4057777.167645-.6704646.5633829-.6704675 1.0024277-.0000039.5974839.4832015 1.0824494 1.0806818 1.0846181.439042.0015937.83574-.2616523 1.0048595-.6668176.1691195-.4051652.0772984-.8723231-.2325883-1.1833386zm0-3.3155557c-.3098866-.3110155-.7767077-.4045347-1.1824855-.2368897-.4057777.167645-.6704646.563383-.6704675 1.0024277-.0000039.597484.4832015 1.0824495 1.0806818 1.0846182.439042.0015936.83574-.2616523 1.0048595-.6668176s.0772984-.8723232-.2325883-1.1833386zm3.362562 0c-.3098867-.3110155-.7767078-.4045347-1.1824855-.2368897-.4057778.167645-.6704646.563383-.6704675 1.0024277-.000004.597484.4832014 1.0824495 1.0806817 1.0846182.4390421.0015936.83574-.2616523 1.0048595-.6668176.1691196-.4051653.0772985-.8723232-.2325882-1.1833386zm3.3617652 0c-.3098866-.3110155-.7767077-.4045347-1.1824855-.2368897-.4057777.167645-.6704646.563383-.6704675 1.0024277-.0000039.597484.4832014 1.0824495 1.0806818 1.0846182.439042.0015936.83574-.2616523 1.0048595-.6668176s.0772984-.8723232-.2325883-1.1833386zm3.3589461 0c-.3098867-.3110155-.7767078-.4045347-1.1824855-.2368897-.4057778.167645-.6704646.563383-.6704675 1.0024277-.0000039.597484.4832014 1.0824495 1.0806817 1.0846182.4390421.0015936.8357401-.2616523 1.0048596-.6668176s.0772984-.8723232-.2325883-1.1833386z"/></svg>