<svg height="32" viewBox="0 0 32 32" width="32" xmlns="http://www.w3.org/2000/svg"><path d="m22.195 6.575c.297 0 .5454.2187.59211.50301l.00789.09699v2.45h2.78c.297 0 .5454.2187.59211.50301l.00789.09699v14.6c0 .297-.2187.5454-.50301.59211l-.09699.00789h-19.15c-.297 0-.5454-.2187-.59211-.50301l-.00789-.09699v-14.6c0-.15.07-.31.18-.42.088-.096.2016-.1536.32544-.1728l.09456-.0072h2.78v-2.45c0-.33.27-.6.6-.6.297 0 .5454.2187.59211.50301l.00789.09699v2.45h11.19v-2.45c0-.33.27-.6.6-.6zm-12.99 4.25h-2.18v13.4h17.95v-13.4h-2.18v1.35c0 .33-.27.6-.6.6-.297 0-.5454-.2187-.59211-.50301l-.00789-.09699v-1.35h-11.19v1.35c0 .33-.27.6-.6.6-.297 0-.5454-.2187-.59211-.50301l-.00789-.09699zm6.704544 1.870237c.3766537 0 .6819918.3053382.6819918.6819918v4.3680082l.1013723.0999906 2.185941-.03.0984352.0075577c.1519671.0250706.2893524.1272814.3599065.2754451.0826662.1735991.0596941.373457-.0586492.5256126l-3.0390712 3.7888242c-.0993145.1157852-.2417884.1825698-.3919935.1825698-.1477192 0-.2993256-.074637-.3913682-.1917821l-2.960545-3.7006874c-.1174948-.1510801-.140467-.350938-.0578008-.5245371.0759834-.1687953.2520387-.2829934.439714-.2829934l2.2514085-.0300088.0986668-.0999912v-4.3880082c0-.3766536.3053381-.6819918.6819918-.6819918z"/></svg>