<svg height="32" viewBox="0 0 32 32" width="32" xmlns="http://www.w3.org/2000/svg"><path d="m22.5360647 4.875c.4142136 0 .75.33578644.75.75v2.52235006h2.388889c.3313709 0 .6.26862915.6.6v15.33280264c0 .3313709-.2686291.6-.6.6h-19.5749537c-.33137085 0-.6-.2686291-.6-.6v-15.33280264c0-.33134339.26865661-.59996117.6-.60007029l2.388-.00027977.00068693-2.522c0-.41421356.33578643-.75.75-.75.41421356 0 .75.33578644.75.75l-.00068693 2.522 11.7980647.00035006v-2.52235006c0-.41421356.3357864-.75.75-.75zm-8.7711193 11.6151702c-.1727144-.0822776-.3715803-.0740094-.5370604.0172879l-.0796822.052533-2.7349152 2.1879143-.0561486.0506124c-.105526.108678-.1692112.2597793-.1692112.4119652 0 .141004.0499491.2757628.1395973.3837421l.0745195.0756424 2.8035199 2.2488342.068305.0460339c.1133814.0656585.2449649.0926906.3739346.0775343l.0959119-.0193333.0794991-.0296379.0769816-.0434272.068398-.0527056c.1022937-.091154.1696372-.2136328.1924828-.3467761l.0086417-.1015343-.0199459-1.6178336h6.7055141l.0739333-.0046212c.2584351-.0325291.4659682-.2332165.5088961-.4883592l.00816-.098009-.0046212-.0739333-.0151356-.0775737c-.058826-.2208885-.2430044-.3917009-.4710504-.4309526l-.1001822-.0085299h-6.7313698l-.0206961-1.6344473-.0062196-.0831461c-.0287224-.1914238-.1547257-.3614805-.3320565-.4412794zm4.7932785-5.7302469c-.1404876-.0812909-.3054865-.1019363-.4600804-.0572759l-.0912285.0346703-.0717681.0390864-.0649166.0490646c-.0979386.0858464-.1663509.2054044-.1897982.3365697l-.0089134.1002051-.0199459 1.6318696-6.7321085.0007387-.0739334.0046212c-.2584351.0325291-.4659682.2332165-.5088961.4883592l-.00816.098009.0046213.0739334.0151355.0775737c.058826.2208884.2430044.3917008.4710504.4309525l.1001823.0085299 6.7062527-.0007387-.020673 1.6167179.0059929.0854401c.0231042.1638237.111782.3119906.2445859.4062987l.0848059.0498161.0791664.0305661.0840367.0186351c.1344551.0206191.2676637-.0025438.3819385-.0642544l.0818796-.0534289 2.8015497-2.2471321.0646694-.0635812c.0989566-.1118958.1531548-.2519984.1531548-.3988776 0-.1420402-.0554769-.2831356-.1491903-.3900885l-.077185-.0732943-2.7323107-2.1858558z"/></svg>