<svg height="32" viewBox="0 0 32 32" width="32" xmlns="http://www.w3.org/2000/svg"><g fill="none" fill-rule="evenodd"><path d="m22.5360647 4.875c.4142136 0 .75.33578644.75.75v2.52235006h-1.5v-2.52235006c0-.41421356.3357864-.75.75-.75zm-13.29737777 0c.41421356 0 .75.33578644.75.75v2.52235006h-1.5v-2.52235006c0-.41421356.33578643-.75.75-.75z" fill="#7c969d" fill-rule="nonzero"/><path d="m5.5 10.858936h20.774954v13.821217h-20.774954z" fill="#d0e7ef"/><path d="m5.5 10.8589358h20.7749537v-2.71158574h-20.7749537z" fill="#d9541a"/><g fill="#7c969d"><path d="m12.536211 15.5385149c.439042.0015936.83574-.2616524 1.0048595-.6668176.1691195-.4051653.0772984-.8723232-.2325883-1.1833386-.3098866-.3110155-.7767077-.4045347-1.1824855-.2368897-.4057777.167645-.6704646.5633829-.6704675 1.0024277-.0000039.597484.4832015 1.0824494 1.0806818 1.0846182z"/><path d="m15.8987729 15.5385149c.4390421.0015936.83574-.2616524 1.0048595-.6668176.1691196-.4051653.0772985-.8723232-.2325882-1.1833386-.3098867-.3110155-.7767078-.4045347-1.1824855-.2368897-.4057778.167645-.6704646.5633829-.6704675 1.0024277-.000004.597484.4832014 1.0824494 1.0806817 1.0846182z"/><path d="m19.2605382 15.5385149c.439042.0015936.83574-.2616524 1.0048595-.6668176.1691195-.4051653.0772984-.8723232-.2325883-1.1833386-.3098866-.3110155-.7767077-.4045347-1.1824855-.2368897-.4057777.167645-.6704646.5633829-.6704675 1.0024277-.0000039.597484.4832014 1.0824494 1.0806818 1.0846182z"/><path d="m22.6194842 15.5385149c.4390421.0015936.8357401-.2616524 1.0048596-.6668176.1691195-.4051653.0772984-.8723232-.2325883-1.1833386-.3098867-.3110155-.7767078-.4045347-1.1824855-.2368897-.4057778.167645-.6704646.5633829-.6704675 1.0024277-.0000039.597484.4832014 1.0824494 1.0806817 1.0846182z"/><path d="m9.1758553 18.8540706c.43904204.0015936.83574-.2616523 1.0048595-.6668176s.0772985-.8723231-.23258822-1.1833386c-.30988668-.3110155-.77670777-.4045347-1.18248552-.2368897-.40577776.167645-.67046461.563383-.6704675 1.0024277-.00000393.597484.48320143 1.0824495 1.08068174 1.0846182z"/><path d="m19.2605382 22.1698278c.439042.0015936.83574-.2616523 1.0048595-.6668176s.0772984-.8723231-.2325883-1.1833386c-.3098866-.3110155-.7767077-.4045346-1.1824855-.2368896-.4057777.167645-.6704646.5633829-.6704675 1.0024276-.0000039.597484.4832014 1.0824495 1.0806818 1.0846182z"/><path d="m15.8987729 22.1698278c.4390421.0015936.83574-.2616523 1.0048595-.6668176.1691196-.4051653.0772985-.8723231-.2325882-1.1833386s-.7767078-.4045346-1.1824855-.2368896c-.4057778.167645-.6704646.5633829-.6704675 1.0024276-.000004.597484.4832014 1.0824495 1.0806817 1.0846182z"/><path d="m12.536211 22.1698278c.439042.0015936.83574-.2616523 1.0048595-.6668176s.0772984-.8723231-.2325883-1.1833386c-.3098866-.3110155-.7767077-.4045346-1.1824855-.2368896-.4057777.167645-.6704646.5633829-.6704675 1.0024276-.0000039.597484.4832015 1.0824495 1.0806818 1.0846182z"/><path d="m9.1758553 22.1698278c.43904204.0015936.83574-.2616523 1.0048595-.6668176s.0772985-.8723231-.23258822-1.1833386c-.30988668-.3110155-.77670777-.4045346-1.18248552-.2368896-.40577776.167645-.67046461.5633829-.6704675 1.0024276-.00000393.597484.48320143 1.0824495 1.08068174 1.0846182z"/><path d="m22.6194842 18.8540706c.4390421.0015936.8357401-.2616523 1.0048596-.6668176s.0772984-.8723231-.2325883-1.1833386-.7767078-.4045347-1.1824855-.2368897c-.4057778.167645-.6704646.563383-.6704675 1.0024277-.0000039.597484.4832014 1.0824495 1.0806817 1.0846182z"/><path d="m15.8987729 18.8540706c.4390421.0015936.83574-.2616523 1.0048595-.6668176.1691196-.4051653.0772985-.8723231-.2325882-1.1833386s-.7767078-.4045347-1.1824855-.2368897c-.4057778.167645-.6704646.563383-.6704675 1.0024277-.000004.597484.4832014 1.0824495 1.0806817 1.0846182z"/><path d="m12.536211 18.8540706c.439042.0015936.83574-.2616523 1.0048595-.6668176s.0772984-.8723231-.2325883-1.1833386c-.3098866-.3110155-.7767077-.4045347-1.1824855-.2368897-.4057777.167645-.6704646.563383-.6704675 1.0024277-.0000039.597484.4832015 1.0824495 1.0806818 1.0846182z"/><path d="m19.262724 18.8540706c.4390421.0015936.83574-.2616523 1.0048596-.6668176.1691195-.4051653.0772984-.8723231-.2325883-1.1833386s-.7767078-.4045347-1.1824855-.2368897c-.4057778.167645-.6704646.563383-.6704675 1.0024277-.000004.597484.4832014 1.0824495 1.0806817 1.0846182z"/></g><path d="m17.8119007 27.393443c.1503458.3052536.0190852.6752204-.2924911.8286246-.1525506.0711356-.3273634.0776541-.4794451.0223009-.1541697-.0561132-.2776884-.1638838-.3478279-.3143066l-2.400699-5.0587079c-2.5641947.83613-5.41681046-.3690117-6.582205-2.8287002-1.25699882-2.6281947-.1431322-5.7833531 2.4866097-7.0410839l.0911518-.042502c2.6770402-1.2294635 5.8863239-.0613797 7.1540556 2.6033635 1.1722168 2.4478952.2757369 5.3883444-2.0236771 6.7854775z" fill="#4a4a4a" fill-rule="nonzero"/><path d="m15.5532629 20.6344553.0177266-.0218363c1.5572274-1.5874649 1.5315051-4.148004-.0606473-5.7099734-.7899841-.7752181-1.8397945-1.1947446-2.9343119-1.1947446-1.0969972 0-2.1504232.4181842-2.93330665 1.1937487l-.06190717.0619017c-1.56091033 1.5835322-1.53513429 4.1517632.05332241 5.7099643 1.61795241 1.5952708 4.25799701 1.5952708 5.87519801.0007461.0249196-.0235351.0249196-.0235351.0394364-.0362588.0076272-.0074209.0076272-.0074209.0044896-.0035477z" fill="#d0e7ef" fill-rule="nonzero"/><path d="m12.5334191 19.5388212c.7162306.0025997 1.3633832-.4268461 1.639276-1.0878119.2758929-.6609657.1261007-1.423063-.3794324-1.9304376-.5055332-.5073746-1.2670811-.659937-1.929046-.3864496s-1.0937613.9190739-1.0937661 1.6353089c-.0000064.9747045.7882699 1.7658522 1.7629685 1.7693902z" fill="#ec4800"/><path d="m9.34619343 14.4592017-.05052885.0723596c-.57808501.8548568-.86938577 1.9368266-.86938577 3.2575784 0 1.313296.26504109 2.3920548.7897198 3.245244l.05519594.0843777.05259273-.0290113c.05882271-.0357247.11633527-.0727538.17230238-.110919l.16302964-.1177352.22335595-.1832966.16162525-.1510763c1.4054374-1.3786672 1.5388732-3.598717.3554949-5.1182627l-.1227289-.1495625-.1723709-.1879463-.22813807-.2181128c-.12695493-.1126282-.26044395-.2163455-.39975349-.310857z" fill="#fff" fill-rule="nonzero" transform="matrix(-1 0 0 1 19.627584 0)"/><path d="m11.2013061 17.7891052c0 .3692021-.0267961.7146921-.0801916 1.0367962-.220949-.2958786-.3506665-.6610714-.3506639-1.0564704.0000026-.3819631.1228072-.7438337.3378341-1.0398909.062533.328994.0930214.6817837.0930214 1.0595651z" fill="#fb8a59"/><g fill-rule="nonzero"><path d="m13.5146361 21.0049008c.1846403.1853129.3082604.4143184.3652256.65835-.8681985.2819556-1.81128.2752184-2.6743269-.0191259.1038113-.4191068.3998442-.770777.8088773-.939767.5148118-.2126918 1.1070695-.0940437 1.500224.3005429z" fill="#b7d0d6"/><path d="m16.4883619 16.4324628c.3068038.8639954.3115592 1.8121516.0128736 2.6782705-.6138791-.1381815-1.0713527-.6864796-1.0713527-1.3413056 0-.5570177.3358129-1.059092.8506247-1.2717839l.1301564-.0463021z" fill="#b7d0d6"/><path d="m9.25133973 16.7981867c.39315444.3945865.50964821.9872715.29508563 1.5013063-.16556261.3966439-.50303791.6860819-.90445502.7966654-.29125733-.8574186-.28770429-1.7941236.01214636-2.6487597.22207332.0623362.42807519.181024.59722303.350788z" fill="#d0e7ef"/><path d="m12.5760303 13.707901c.4434928 0 .8796454.0688791 1.2941469.2023905-.0151617.0625178-.0355845.1231588-.0604555.182743-.2145626.5140348-.7178549.8480159-1.2748692.8460032-.6303206-.0022971-1.1603953-.4281108-1.3211065-1.0073523.4349055-.1477875.8946358-.2237844 1.3622843-.2237844z" fill="#b7d0d6"/></g></g></svg>