<svg height="32" viewBox="0 0 32 32" width="32" xmlns="http://www.w3.org/2000/svg"><path d="m22.195 6.575c.297 0 .5454.2187.59211.50301l.00789.09699v2.45h2.78c.297 0 .5454.2187.59211.50301l.00789.09699v14.6c0 .297-.2187.5454-.50301.59211l-.09699.00789h-8.863l.4300935.9066629c.122461.2486377.0618464.5390917-.1299214.7253825l-.0779594.0646913-.0896465.0532153c-.1532585.0714656-.330186.0792591-.4863894.0224057-.1269145-.0461931-.2321652-.1269511-.3050787-.2343792l-.048455-.0854484-.6896431-1.4525301h-8.89c-.297 0-.5454-.2187-.59211-.50301l-.00789-.09699v-14.6c0-.15.07-.31.18-.42.088-.096.2016-.1536.32544-.1728l.09456-.0072h2.78v-2.45c0-.33.27-.6.6-.6.297 0 .5454.2187.59211.50301l.00789.09699v2.45h11.19v-2.45c0-.33.27-.6.6-.6zm-12.99 4.25h-2.18v13.4h7.721l-.757-1.596-.1270381.0390255c-2.0471006.5626331-4.24552389-.3280479-5.32672246-2.1389409l-.11150983-.1975212-.09933948-.1974944c-1.06632166-2.2295176-.18046665-4.8925733 1.97461107-6.052639l.1993936-.1012662.0784591-.0365819c2.3385354-1.074001 5.1413237-.0540047 6.2487546 2.2737899.9888973 2.0650756.2948528 4.544132-1.5831933 5.8112214l-.1094152.0694068 1.009 2.127h8.833v-13.4h-2.18v1.35c0 .33-.27.6-.6.6-.297 0-.5454-.2187-.59211-.50301l-.00789-.09699v-1.35h-11.19v1.35c0 .33-.27.6-.6.6-.297 0-.5454-.2187-.59211-.50301l-.00789-.09699zm9.91 9.53c.55 0 1 .44 1 1s-.45 1-1 1-1-.45-1-1c0-.56.45-1 1-1zm-7.8895697-5.4010007c-1.29264698.5340505-2.13583631 1.7947137-2.13583631 3.1933278 0 1.9033398 1.53928261 3.4482403 3.44260921 3.4552171 1.3986181.0050085 2.662332-.8335894 3.2010757-2.124276.5387459-1.2906916.2462413-2.7788664-.7409314-3.769635-.9871727-.9907685-2.4742745-1.2886826-3.7669172-.7546339zm1.3247848 1.6804541.1467266.0077041c.3407535.0345067.6673724.1843316.9195071.4373847.4322308.4338053.5603031 1.0853984.3244147 1.6505241-.1995978.4781833-.626466.8146395-1.1240799.9055059l-.1373493.0186148-.1401518.0059685-.1373304-.0066524c-.7688423-.072026-1.3700076-.7191123-1.3700076-1.5061862 0-.6123809.36919-1.1643574.93517-1.3981891.141495-.0584579.2883115-.0941488.4356988-.108029zm9.6647849.6605466c.55 0 1 .45 1 1 0 .56-.45 1-1 1s-1-.45-1-1c0-.56.45-1 1-1zm-3.1 0c.56 0 1 .45 1 1 0 .56-.45 1-1 1s-1-.45-1-1c0-.56.45-1 1-1zm-.01-3.06c.56 0 1 .45 1 1 0 .56-.45 1-1 1s-.99-.45-1-1c0-.56.44-1 1-1zm3.11 0c.56 0 1 .45 1 1 0 .56-.45 1-1 1s-1-.45-1-1 .45-1 1-1z"/></svg>