<svg height="32" viewBox="0 0 32 32" width="32" xmlns="http://www.w3.org/2000/svg"><path d="m22.195 6.575c.297 0 .5454.2187.59211.50301l.00789.09699v2.45h2.78c.297 0 .5454.2187.59211.50301l.00789.09699v14.6c0 .297-.2187.5454-.50301.59211l-.09699.00789h-19.15c-.297 0-.5454-.2187-.59211-.50301l-.00789-.09699v-14.6c0-.15.07-.31.18-.42.088-.096.2016-.1536.32544-.1728l.09456-.0072h2.78v-2.45c0-.33.27-.6.6-.6.297 0 .5454.2187.59211.50301l.00789.09699v2.45h11.19v-2.45c0-.33.27-.6.6-.6zm-12.99 4.25h-2.18v13.4h17.95v-13.4h-2.18v1.35c0 .33-.27.6-.6.6-.297 0-.5454-.2187-.59211-.50301l-.00789-.09699v-1.35h-11.19v1.35c0 .33-.27.6-.6.6-.297 0-.5454-.2187-.59211-.50301l-.00789-.09699zm12.2412768 9.2352859c0 .3003524-.2263166.549773-.5170561.5863682l-.0739333.0046212h-6.7055141l.0199459 1.6178336c0 .1714803-.0732574.3343679-.2011245.4483104l-.068398.0527056-.0769816.0434272-.0794991.029638c-.1579522.0455914-.3281198.0238721-.4698465-.0582011l-.068305-.0460338-2.8035199-2.2488343c-.1360714-.1166326-.2141168-.2831295-.2141168-.4593845 0-.1521859.0636852-.3032872.1692112-.4119652l.0561486-.0506124 2.7349152-2.1879143c.1781473-.1385591.4152424-.1658114.6167426-.0698209.1773308.0797989.3033341.2498557.3320565.4412794l.0062196.0831461.0206961 1.6344473h6.7313698c.2730476 0 .5040029.1870386.5712326.4394825l.0151356.0775737zm.140547-4.7837407c0 .1468792-.0541982.2869818-.1531548.3988776l-.0646694.0635812-2.8015497 2.2471321c-.1296279.1008217-.2957493.1434572-.4638181.1176833l-.0840367-.018635-.0791664-.0305662c-.1795158-.0854837-.3016667-.2595263-.3293918-.4561148l-.0059929-.0854401.020673-1.6167179-6.7062527.0007387c-.2730477 0-.5040029-.1870385-.5712327-.4394824l-.0151355-.0775737-.0046213-.0739334c0-.3003523.2263166-.549773.5170561-.5863682l.0739334-.0046212 6.7321085-.0007387.0199459-1.6318696c0-.1694844.0762883-.3294667.1987116-.4367748l.0649166-.0490646.0717681-.0390864c.1788425-.0851631.3827237-.0749434.5513089.0226056l.0699139.0471299 2.7323107 2.1858558c.1396927.1097586.2263753.2858326.2263753.4633828z"/></svg>