<svg height="32" viewBox="0 0 32 32" width="32" xmlns="http://www.w3.org/2000/svg"><g fill="none" fill-rule="evenodd"><path d="m21.7860647 8.14735006v-2.52235006c0-.41421356.3357864-.75.75-.75s.75.33578644.75.75v2.52235006z" fill="#7c969d" fill-rule="nonzero"/><path d="m8.48868693 8.14735006v-2.52235006c0-.41421356.33578643-.75.75-.75.41421356 0 .75.33578644.75.75v2.52235006z" fill="#7c969d" fill-rule="nonzero"/><path d="m5.5 24.6801527h20.7749537v-16.43161159h-20.7749537z" fill="#d0e7ef"/><path d="m5.5 10.8589358h20.7749537v-2.71158574h-20.7749537z" fill="#d9541a"/><path d="m21.4360335 13.6251989c-.34146-.3375154-.8949298-.3382581-1.2441354-.0036028l-5.5324212 5.5274707-2.4512112-2.4468183c-.3420888-.3420892-.8983015-.3442394-1.2488656-.0082822-.3500971.3498769-.3546183.9060963-.0174874 1.2578851l3.0864899 3.0815465c.1680783.1680786.3920032.2622462.6261311.2622462.2434999 0 .4792932-.1012163.6439377-.2808285l6.1358577-6.1248261c.3577677-.3449447.3600972-.9173543.0017044-1.2647906z" fill="#007b3d" fill-rule="nonzero"/></g></svg>