<svg height="32" viewBox="0 0 32 32" width="32" xmlns="http://www.w3.org/2000/svg"><g fill="none" fill-rule="evenodd"><path d="m21.7860647 8.14735006v-2.52235006c0-.41421356.3357864-.75.75-.75s.75.33578644.75.75v2.52235006z" fill="#7c969d" fill-rule="nonzero"/><path d="m8.48868693 8.14735006v-2.52235006c0-.41421356.33578643-.75.75-.75.41421356 0 .75.33578644.75.75v2.52235006z" fill="#7c969d" fill-rule="nonzero"/><path d="m5.5 24.6801527h20.7749537v-16.43161159h-20.7749537z" fill="#d0e7ef"/><path d="m5.5 10.8589358h20.7749537v-2.71158574h-20.7749537z" fill="#d9541a"/><path d="m15.909544 12.595237c-.4318821 0-.7819918.3501097-.7819918.7819918v4.3880082l-2.2500753.03c-.23 0-.44.14-.53.34-.1.21-.07.45.07.63l2.96 3.7c.11.14.29.23.47.23s.35-.08.47-.22l3.04-3.79c.14-.18.17-.42.07-.63-.0857143-.18-.2522449-.3012244-.4429155-.3321865l-.1070845-.0078135-2.1859411.03v-4.3680082c0-.4318821-.3501097-.7819918-.7819918-.7819918z" fill="#005a7d" fill-rule="nonzero"/></g></svg>