<svg height="32" viewBox="0 0 32 32" width="32" xmlns="http://www.w3.org/2000/svg"><path d="m25.575 9.625h-2.78v-2.45c0-.33-.27-.6-.6-.6s-.6.27-.6.6v2.45h-11.19v-2.45c0-.33-.27-.6-.6-.6s-.6.27-.6.6v2.45h-2.78c-.16 0-.31.06-.42.18-.11.11-.18.27-.18.42v14.6c0 .33.27.6.6.6h19.15c.33 0 .6-.27.6-.6v-14.6c0-.33-.27-.6-.6-.6zm-.6 14.6h-17.95v-13.4h2.18v1.35c0 .33.27.6.6.6s.6-.27.6-.6v-1.35h11.19v1.35c0 .33.27.6.6.6s.6-.27.6-.6v-1.35h2.18zm-15.16-6.93c-.55 0-1 .44-1 1 0 .55.45 1 1 1s1-.44 1-1c0-.55-.44-1-1-1zm3.1 0c-.55 0-1 .44-1 1 0 .55.45 1 1 1s1-.44 1-1c0-.55-.45-1-1-1zm0-3.06c-.55 0-1 .44-1 1 0 .55.45 1 1 1s1-.44 1-1c0-.55-.45-1-1-1zm6.19 2c.55 0 1-.44 1-1 0-.55-.44-1-1-1s-1 .44-1 1c.01.55.45 1 1 1zm-9.29 4.12c-.55 0-1 .44-1 1 0 .55.45 1 1 1s1-.44 1-1c0-.55-.44-1-1-1zm3.1 0c-.55 0-1 .44-1 1 0 .55.45 1 1 1s1-.44 1-1c0-.55-.45-1-1-1zm9.3-3.06c-.55 0-1 .44-1 1 0 .55.45 1 1 1s1-.44 1-1c0-.55-.45-1-1-1zm-6.2 3.06c-.55 0-1 .44-1 1 0 .55.45 1 1 1s1-.44 1-1-.45-1-1-1zm3.1-3.06c-.55 0-1 .44-1 1 0 .55.45 1 1 1s1-.44 1-1c0-.55-.44-1-1-1zm2.1-2.06c0 .55.45 1 1 1s1-.44 1-1c0-.55-.44-1-1-1-.55 0-1 .45-1 1zm-5.2 2.06c-.55 0-1 .44-1 1 0 .55.45 1 1 1s1-.44 1-1c0-.55-.45-1-1-1zm0-3.06c-.55 0-1 .44-1 1 0 .55.45 1 1 1s1-.44 1-1c0-.55-.45-1-1-1zm3.1 6.12c-.55 0-1 .44-1 1 0 .55.45 1 1 1s1-.44 1-1-.45-1-1-1z"/></svg>