<svg height="32" viewBox="0 0 32 32" width="32" xmlns="http://www.w3.org/2000/svg"><path d="m22.5360647 5.875c.4142136 0 .75.33578644.75.75v2.52235006h2.238889c.4142136 0 .75.33578644.75.75v15.03280264c0 .4142136-.3357864.75-.75.75h-19.2749537c-.41421356 0-.75-.3357864-.75-.75v-15.03280264c.00008787-.41417924.33582076-.74995147.74999999-.75008786l2.23800001-.0002622.00068693-2.522c0-.41421356.33578643-.75.75-.75.41421356 0 .75.33578644.75.75l-.00068693 2.522 11.7980647.00035006v-2.52235006c0-.41421356.3357864-.75.75-.75zm.1141692 7.2296938-4.8297967.5299776c-.2945534.0383885-.5398793.2311445-.6265774.5036244-.0977061.2683278-.024957.5697168.1868728.7815466l1.5262315 1.4791498-2.0013529 2.6377278-2.9313248-2.1047873c-.1679304-.1162865-.3688277-.1623941-.5651311-.1255872-.1983553.0371917-.3729333.1491851-.4856855.3120494l-3.2224246 3.89207c-.24550486.2965227-.20414671.7359229.09237601.9814278l.04052652.0311222c.34577977.2459311.82222897.1864748 1.09696587-.1368909l2.7859965-3.2791208 2.9025506 2.0787243c.3245846.237205.7865771.1640562 1.0362315-.1604945l2.328234-3.0755612 1.6982938 1.6516374c.1365594.13658.3246276.2124672.5245786.2124672.0994344 0 .1883372-.0164635.2670821-.055836.2593949-.0932734.4473319-.3334151.472354-.6211696l.5296232-4.7062213c.0252342-.2271062-.051871-.4517169-.2129933-.6128392-.1611222-.1611222-.3857329-.2382274-.6126307-.2130165z"/></svg>