<svg height="32" viewBox="0 0 32 32" width="32" xmlns="http://www.w3.org/2000/svg"><path d="m22.5360647 4.875c.4142136 0 .75.33578644.75.75v2.52235006h2.988889v16.53280264h-20.7749537v-16.53280264h2.98868693v-2.52235006c0-.41421356.33578643-.75.75-.75.41421356 0 .75.33578644.75.75v2.52235006h11.79737777v-2.52235006c0-.41421356.3357864-.75.75-.75zm-2.3441666 7.7465961-5.5324212 5.5274707-2.4512112-2.4468183c-.3420888-.3420892-.8983015-.3442394-1.2488656-.0082822-.3500971.3498769-.3546183.9060963-.0174874 1.2578851l3.0864899 3.0815465c.1680783.1680786.3920032.2622462.6261311.2622462.2434999 0 .4792932-.1012163.6439377-.2808285l6.1358577-6.1248261c.3577677-.3449447.3600972-.9173543.0017044-1.2647906-.34146-.3375154-.8949298-.3382581-1.2441354-.0036028z"/></svg>