<svg height="32" viewBox="0 0 32 32" width="32" xmlns="http://www.w3.org/2000/svg"><g fill="none" fill-rule="evenodd"><path d="m22.5360647 4.875c.4142136 0 .75.33578644.75.75v2.52235006h-1.5v-2.52235006c0-.41421356.3357864-.75.75-.75zm-13.29737777 0c.41421356 0 .75.33578644.75.75v2.52235006h-1.5v-2.52235006c0-.41421356.33578643-.75.75-.75z" fill="#7c969d" fill-rule="nonzero"/><path d="m5.5 10.858936h20.774954v13.821217h-20.774954z" fill="#d0e7ef"/><path d="m5.5 10.8589358h20.7749537v-2.71158574h-20.7749537z" fill="#d9541a"/><path d="m18.8503239 20.082782c.4057778-.167645.8725989-.0741259 1.1824855.2368896.3098867.3110155.4017078.7781733.2325883 1.1833386s-.5658175.6684112-1.0048595.6668176c-.5974804-.0021687-1.0806857-.4871342-1.0806818-1.0846182.0000029-.4390447.2646898-.8347826.6704675-1.0024276zm-3.3617652 0c.4057777-.167645.8725988-.0741259 1.1824855.2368896s.4017078.7781733.2325882 1.1833386c-.1691195.4051653-.5658174.6684112-1.0048595.6668176-.5974803-.0021687-1.0806857-.4871342-1.0806817-1.0846182.0000029-.4390447.2646897-.8347826.6704675-1.0024276zm-3.362562 0c.4057778-.167645.8725989-.0741259 1.1824855.2368896.3098867.3110155.4017078.7781733.2325883 1.1833386s-.5658175.6684112-1.0048595.6668176c-.5974803-.0021687-1.0806857-.4871342-1.0806818-1.0846182.0000029-.4390447.2646898-.8347826.6704675-1.0024276zm-3.36035564 0c.40577775-.167645.87259884-.0741259 1.18248552.2368896.30988672.3110155.40170772.7781733.23258822 1.1833386s-.56581746.6684112-1.0048595.6668176c-.59748031-.0021687-1.08068567-.4871342-1.08068174-1.0846182.00000289-.4390447.26468974-.8347826.6704675-1.0024276zm0-3.3157573c.40577775-.167645.87259884-.0741258 1.18248552.2368897.30988672.3110155.40170772.7781733.23258822 1.1833386s-.56581746.6684112-1.0048595.6668176c-.59748031-.0021687-1.08068567-.4871342-1.08068174-1.0846182.00000289-.4390447.26468974-.8347827.6704675-1.0024277zm13.44362894 0c.4057777-.167645.8725988-.0741258 1.1824855.2368897s.4017078.7781733.2325883 1.1833386-.5658175.6684112-1.0048596.6668176c-.5974803-.0021687-1.0806856-.4871342-1.0806817-1.0846182.0000029-.4390447.2646897-.8347827.6704675-1.0024277zm-6.7207113 0c.4057777-.167645.8725988-.0741258 1.1824855.2368897s.4017078.7781733.2325882 1.1833386c-.1691195.4051653-.5658174.6684112-1.0048595.6668176-.5974803-.0021687-1.0806857-.4871342-1.0806817-1.0846182.0000029-.4390447.2646897-.8347827.6704675-1.0024277zm-3.362562 0c.4057778-.167645.8725989-.0741258 1.1824855.2368897.3098867.3110155.4017078.7781733.2325883 1.1833386s-.5658175.6684112-1.0048595.6668176c-.5974803-.0021687-1.0806857-.4871342-1.0806818-1.0846182.0000029-.4390447.2646898-.8347827.6704675-1.0024277zm0-3.3155557c.4057778-.167645.8725989-.0741258 1.1824855.2368897.3098867.3110154.4017078.7781733.2325883 1.1833386-.1691195.4051652-.5658175.6684112-1.0048595.6668176-.5974803-.0021688-1.0806857-.4871342-1.0806818-1.0846182.0000029-.4390448.2646898-.8347827.6704675-1.0024277zm3.362562 0c.4057777-.167645.8725988-.0741258 1.1824855.2368897.3098867.3110154.4017078.7781733.2325882 1.1833386-.1691195.4051652-.5658174.6684112-1.0048595.6668176-.5974803-.0021688-1.0806857-.4871342-1.0806817-1.0846182.0000029-.4390448.2646897-.8347827.6704675-1.0024277zm3.3617652 0c.4057778-.167645.8725989-.0741258 1.1824855.2368897.3098867.3110154.4017078.7781733.2325883 1.1833386-.1691195.4051652-.5658175.6684112-1.0048595.6668176-.5974804-.0021688-1.0806857-.4871342-1.0806818-1.0846182.0000029-.4390448.2646898-.8347827.6704675-1.0024277zm3.3589461 0c.4057777-.167645.8725988-.0741258 1.1824855.2368897.3098867.3110154.4017078.7781733.2325883 1.1833386-.1691195.4051652-.5658175.6684112-1.0048596.6668176-.5974803-.0021688-1.0806856-.4871342-1.0806817-1.0846182.0000029-.4390448.2646897-.8347827.6704675-1.0024277z" fill="#7c969d"/><path d="m19.262724 18.8540706c.4390421.0015936.83574-.2616523 1.0048596-.6668176.1691195-.4051653.0772984-.8723231-.2325883-1.1833386s-.7767078-.4045347-1.1824855-.2368897c-.4057778.167645-.6704646.563383-.6704675 1.0024277-.000004.597484.4832014 1.0824495 1.0806817 1.0846182z" fill="#fe5e00"/></g></svg>