<svg height="32" viewBox="0 0 32 32" width="32" xmlns="http://www.w3.org/2000/svg"><path d="m25.575 9.625h-2.78v-2.45c0-.33-.27-.6-.6-.6s-.6.27-.6.6v2.45h-11.19v-2.45c0-.33-.27-.6-.6-.6s-.6.27-.6.6v2.45h-2.78c-.16 0-.31.06-.42.18-.11.11-.18.27-.18.42v14.6c0 .33.27.6.6.6h19.15c.33 0 .6-.27.6-.6v-14.6c0-.33-.27-.6-.6-.6zm-.6 14.6h-17.95v-13.4h2.18v1.35c0 .33.27.6.6.6s.6-.27.6-.6v-1.35h11.19v1.35c0 .33.27.6.6.6s.6-.27.6-.6v-1.35h2.18z"/><path d="m21.6424387 14.0037862c.1828134-.0203125.3620079.0417822.4902033.1699775.128211.1282111.1902875.3074122.1699767.4902083l-.5295997 4.7060116c-.0200934.2305182-.1672026.4224137-.3740505.4967923-.0699462.0337977-.1348913.0469878-.2163265.0469878-.16086 0-.3105734-.0605776-.4185046-.1685251l-1.8214954-1.7714749-2.4307027 3.2109209c-.2003078.2603928-.570585.3181364-.8281307.1299231l-3.0222181-2.1743081-1.8419988 2.5385088c-.2012307.2773215-.5876435.3420926-.86830449.1455465-.2733584-.1914321-.33977279-.5682193-.14834069-.8415777.0024834-.0035462.00500484-.0070656.00756389-.0105576l2.21372119-3.0207989c.0884653-.1277362.2285059-.2176749.3884104-.247657.1550428-.0290705.3155087.0068957.4520929.1014759l3.0326935 2.1780279 2.1967197-2.8428816-1.6331805-1.5782705c-.1699459-.169972-.2275729-.4103456-.1503178-.6225094.06995-.2194241.2645749-.374869.5019922-.4058422z"/></svg>