<svg height="32" viewBox="0 0 32 32" width="32" xmlns="http://www.w3.org/2000/svg"><path d="m22.195 6.575c.297 0 .5454.2187.59211.50301l.00789.09699v2.45h2.78c.297 0 .5454.2187.59211.50301l.00789.09699v14.6c0 .297-.2187.5454-.50301.59211l-.09699.00789h-19.15c-.297 0-.5454-.2187-.59211-.50301l-.00789-.09699v-14.6c0-.15.07-.31.18-.42.088-.096.2016-.1536.32544-.1728l.09456-.0072h2.78v-2.45c0-.33.27-.6.6-.6.297 0 .5454.2187.59211.50301l.00789.09699v2.45h11.19v-2.45c0-.33.27-.6.6-.6zm-12.99 4.25h-2.18v13.4h17.95v-13.4h-2.18v1.35c0 .33-.27.6-.6.6-.297 0-.5454-.2187-.59211-.50301l-.00789-.09699v-1.35h-11.19v1.35c0 .33-.27.6-.6.6-.297 0-.5454-.2187-.59211-.50301l-.00789-.09699zm5.1722708 9.3914859 5.8441291-5.839078c.2344159-.2342133.6143148-.234049.8485281.0003668.2081895.2083697.2311919.5316889.0690956.7654606l-.0694625.0830675-6.2680128 6.2625953c-.2081738.2079939-.5311278.231174-.7648846.0694928l-.0830794-.0692958-3.0229482-3.0175308c-.2345247-.2341044-.2348654-.6140032-.000761-.8485278.2080927-.2084664.5313811-.2318985.7653681-.070113l.0831597.0693519 2.5988679 2.5942105 5.8441291-5.839078z"/></svg>