<svg height="32" viewBox="0 0 32 32" width="32" xmlns="http://www.w3.org/2000/svg"><path d="m22.5360647 5.875c.4142136 0 .75.33578644.75.75v2.52235006h2.238889c.4142136 0 .75.33578644.75.75v15.03280264c0 .4142136-.3357864.75-.75.75l-8.5269537-.0001527.8139007 1.713443c.1503458.3052536.0190852.6752204-.2924911.8286246-.1525506.0711356-.3273634.0776541-.4794451.0223009-.1541697-.0561132-.2776884-.1638838-.3478279-.3143066l-1.0681366-2.2500619-9.374.0001527c-.41421356 0-.75-.3357864-.75-.75v-15.03280264c.00008787-.41417924.33582076-.74995147.74999999-.75008786l2.23800001-.0002622.00068693-2.522c0-.41421356.33578643-.75.75-.75.41421356 0 .75.33578644.75.75l-.00068693 2.522 11.7980647.00035006v-2.52235006c0-.41421356.3357864-.75.75-.75zm-12.2288723 6.9919696-.212406.0920983-.0911518.042502c-2.62974189 1.2577308-3.74360852 4.4128892-2.4866097 7.0410839 1.13111823 2.3873447 3.8516689 3.5928543 6.3552543 2.897199l.2269507-.0684988.8610345 1.8143557c.1508958.3179648.5205164.4669503.8497359.3425089.0146272-.0055289.0290223-.0116533.0431494-.0183577.257745-.1223216.3823236-.4118481.3055814-.6773036l-.0331305-.0873313-.9004357-1.8973171c2.299414-1.3971331 3.1958939-4.3375823 2.0236771-6.7854775-1.2343703-2.5946184-4.3094503-3.7703125-6.9416496-2.6954618zm8.5431315 8.0309601c-.4057777.167645-.6704646.5633829-.6704675 1.0024277-.0000039.597484.4832014 1.0824494 1.0806818 1.0846182.439042.0015936.83574-.2616524 1.0048595-.6668176.1691195-.4051653.0772984-.8723232-.2325883-1.1833387-.3098866-.3110154-.7767077-.4045346-1.1824855-.2368896zm-6.4605724-7.1900287c1.0945174 0 2.1443278.4195265 2.9343119 1.1947446 1.5390807 1.5099037 1.6144194 3.9529154.2110941 5.5480564l-.1504468.161917-.0177266.0218363c.0031375-.0038732.0031375-.0038732-.0044896.0035477-.0145169.0127237-.0145169.0127237-.0394364.0362588-1.617201 1.5945247-4.2572457 1.5945247-5.87519802-.0007461-1.53550814-1.506261-1.61077803-3.9563389-.20412538-5.5484026l.15080297-.1615617.06190717-.0619017c.78288346-.7755645 1.83630936-1.1937487 2.93330666-1.1937487zm9.8195185 3.8742715c-.4057778.167645-.6704646.5633829-.6704675 1.0024277-.0000039.5974839.4832014 1.0824494 1.0806817 1.0846181.4390421.0015937.8357401-.2616523 1.0048596-.6668176.1691195-.4051652.0772984-.8723231-.2325883-1.1833386-.3098867-.3110154-.7767078-.4045346-1.1824855-.2368896zm-3.3567602 0c-.4057778.167645-.6704646.5633829-.6704675 1.0024277-.000004.5974839.4832014 1.0824494 1.0806817 1.0846181.4390421.0015937.83574-.2616523 1.0048596-.6668176.1691195-.4051652.0772984-.8723231-.2325883-1.1833386-.3098867-.3110154-.7767078-.4045346-1.1824855-.2368896zm-7.1403469-1.4284853c-.6619649.2734874-1.0937614.9190739-1.0937661 1.6353089-.0000064.9747045.7882699 1.7658522 1.7629685 1.7693902.7162305.0025997 1.3633832-.4268461 1.639276-1.0878119.2758929-.6609657.1261007-1.423063-.3794325-1.9304376-.5055331-.5073746-1.267081-.659937-1.9290459-.3864496zm7.138161-1.8870705c-.4057777.167645-.6704646.563383-.6704675 1.0024277-.0000039.597484.4832014 1.0824495 1.0806818 1.0846182.439042.0015936.83574-.2616523 1.0048595-.6668176s.0772984-.8723232-.2325883-1.1833386c-.3098866-.3110155-.7767077-.4045347-1.1824855-.2368897zm3.3589461 0c-.4057778.167645-.6704646.563383-.6704675 1.0024277-.0000039.597484.4832014 1.0824495 1.0806817 1.0846182.4390421.0015936.8357401-.2616523 1.0048596-.6668176s.0772984-.8723232-.2325883-1.1833386c-.3098867-.3110155-.7767078-.4045347-1.1824855-.2368897z"/></svg>