<svg height="32" viewBox="0 0 32 32" width="32" xmlns="http://www.w3.org/2000/svg"><g fill="none" fill-rule="evenodd"><path d="m21.7860647 8.14735006v-2.52235006c0-.41421356.3357864-.75.75-.75s.75.33578644.75.75v2.52235006z" fill="#7c969d" fill-rule="nonzero"/><path d="m8.48868693 8.14735006v-2.52235006c0-.41421356.33578643-.75.75-.75.41421356 0 .75.33578644.75.75v2.52235006z" fill="#7c969d" fill-rule="nonzero"/><path d="m5.5 24.6801527h20.7749537v-16.43161159h-20.7749537z" fill="#d0e7ef"/><path d="m5.5 10.8589358h20.7749537v-2.71158574h-20.7749537z" fill="#d9541a"/><path d="m14.331952 13.5299725c-.0033958-.3986715-.4685904-.6141919-.774911-.3590091l-2.4117187 2.0091015c-.2263709.18858-.2268321.5360829-.0009627.7252633l2.4560156 2.0570728c.3089749.2587865.7792898.0367847.7758739-.3662343l-.0107268-1.2655681h4.450275c1.0581079 0 1.9195312.8614233 1.9195312 1.9195312 0 1.058108-.8614233 1.9195313-1.9195312 1.9195313h-7.0727344c-.4233764 0-.7678125.3444361-.7678125.7678125s.3444361.7678125.7678125.7678125h7.0727344c1.9048608 0 3.4551562-1.5502955 3.4551562-3.4551563-.0057079-1.9071719-1.5572184-3.4551562-3.465-3.4551562h-4.4632263z" fill="#005a7d" fill-rule="nonzero"/></g></svg>