<svg height="32" viewBox="0 0 32 32" width="32" xmlns="http://www.w3.org/2000/svg"><path d="m22.195 6.575c.297 0 .5454.2187.59211.50301l.00789.09699v2.45h2.78c.297 0 .5454.2187.59211.50301l.00789.09699v14.6c0 .297-.2187.5454-.50301.59211l-.09699.00789h-19.15c-.297 0-.5454-.2187-.59211-.50301l-.00789-.09699v-14.6c0-.15.07-.31.18-.42.088-.096.2016-.1536.32544-.1728l.09456-.0072h2.78v-2.45c0-.33.27-.6.6-.6.297 0 .5454.2187.59211.50301l.00789.09699v2.45h11.19v-2.45c0-.33.27-.6.6-.6zm-12.99 4.25h-2.18v13.4h17.95v-13.4h-2.18v1.35c0 .33-.27.6-.6.6-.297 0-.5454-.2187-.59211-.50301l-.00789-.09699v-1.35h-11.19v1.35c0 .33-.27.6-.6.6-.297 0-.5454-.2187-.59211-.50301l-.00789-.09699zm4.9769575 2.7062502v1.4137234h4.623996c1.824798 0 3.3095392 1.4807841 3.3150007 3.3056052 0 1.8215691-1.4831388 3.3047073-3.3051569 3.3047073h-7.0727344c-.3405337 0-.6178125-.2772788-.6178125-.6178125s.2772788-.6178125.6178125-.6178125h7.0727344c1.1409507 0 2.0695312-.9285806 2.0695312-2.0695313 0-1.1409506-.9285805-2.0695312-2.0695312-2.0695312h-4.5895428v1.4168394c.0023315.2750765-.3186771.4266016-.5295647.2499695l-2.4560157-2.0570729c-.1541648-.129123-.15385-.3663076.0006571-.4950209l2.4117188-2.0091015c.2090759-.1741724.5265897-.0270712.5289075.245038z"/></svg>