<svg height="32" viewBox="0 0 32 32" width="32" xmlns="http://www.w3.org/2000/svg"><g fill="none" fill-rule="evenodd"><path d="m22.5360647 4.875c.4142136 0 .75.33578644.75.75v2.52235006h-1.5v-2.52235006c0-.41421356.3357864-.75.75-.75zm-13.29737777 0c.41421356 0 .75.33578644.75.75v2.52235006h-1.5v-2.52235006c0-.41421356.33578643-.75.75-.75z" fill="#7c969d" fill-rule="nonzero"/><path d="m5.5 10.858936h20.774954v13.821217h-20.774954z" fill="#d0e7ef"/><path d="m5.5 10.8589358h20.7749537v-2.71158574h-20.7749537z" fill="#d9541a"/><g fill="#005a7d" fill-rule="nonzero" transform="translate(10.187928 12.086133)"><path d="m11.258349 7.56048117c0 .3003524-.2263167.54977304-.5170562.58636821l-.0739333.00462124h-6.705514l.0199459 1.61783361c0 .1714803-.07325744.33436787-.20112452.44831027l-.06839801.0527057-.07698163.0434272-.07949905.0296379c-.1579522.0455915-.32811985.0238722-.46984651-.058201l-.06830503-.0460339-2.8035199-2.24883424c-.13607135-.11663259-.21411675-.28312944-.21411675-.45938446 0-.1521859.06368514-.30328719.16921116-.41196524l.05614862-.05061237 2.73491513-2.18791435c.17814734-.13855904.41524247-.16581135.6167426-.06982086.17733087.07979889.30333414.24985565.3320565.44127939l.00621963.08314607.02069607 1.63444739h6.73136979c.2730476 0 .5040029.18703851.5712327.43948241l.0151355.0775737z"/><path d="m11.3988959 2.77674046c0 .14687918-.0541982.28698186-.1531547.39887764l-.0646694.0635812-2.80154973 2.24713206c-.12962795.10082174-.29574929.14345719-.46381808.11768331l-.08403675-.01863504-.07916638-.03056614c-.17951577-.0854837-.30166675-.25952632-.32939177-.45611481l-.00599292-.08544012.02067299-1.61671792-6.70625274.00073874c-.27304763 0-.5040029-.18703852-.57123267-.43948242l-.01513554-.0775737-.00462124-.07393333c0-.3003524.22631661-.54977303.51705612-.58636821l.07393333-.00462124 6.73210853-.00073873.0199459-1.63186961c0-.16948441.07628834-.3294667.19871158-.43677476l.06491659-.04906464.07176815-.03908637c.17884245-.08516307.38272372-.07494341.55130889.0226056l.0699139.04712993 2.73231064 2.1858558c.1396928.1097586.2263753.28583254.2263753.46338276z"/></g></g></svg>