<svg height="32" viewBox="0 0 32 32" width="32" xmlns="http://www.w3.org/2000/svg"><path d="m16.4693301 5.4.122693.00619546c.5647668.0573552 1.0137563.5063447 1.0711115 1.07111151l.0061955.12269303v5.5482052l-.007853.0973231c-.0465003.2850873-.2939132.5026769-.592147.5026769s-.5456468-.2175896-.592147-.5026769l-.007853-.0973231v-5.5482052h-10.80000001v18.8h10.80000001v-6.04l.007853-.0973231c.0465002-.2850873.2939132-.5026769.592147-.5026769s.5456467.2175896.592147.5026769l.007853.0973231v6.04l-.0061955.122693c-.0573552.5647668-.5063447 1.0137563-1.0711115 1.0711115l-.122693.0061955h-10.80000001l-.12269303-.0061955c-.56476681-.0573552-1.01375632-.5063447-1.07111151-1.0711115l-.00619546-.122693v-18.8l.00619546-.12269303c.05735519-.56476681.5063447-1.01375631 1.07111151-1.07111151l.12269303-.00619546zm3.8810699 6.81c.18-.0857143.3893878-.0832653.5588922.0136443l.0811078.0563557 3.79 3.04.0655556.0640278c.1013889.1131944.1611111.2576389.1444444.4159722 0 .15-.0625.3-.1643518.4094907l-.0656482.0605093-3.7 2.96c-.1.09-.24.13-.37.13-.09 0-.18-.02-.26-.06-.1714285-.0771429-.2987755-.242449-.3316618-.4329446l-.0083382-.0970554-.03-2.24h-7.0815894c-.3009328 0-.5505848-.2195588-.5975059-.5072261l-.0079241-.0982039.0079327-.0982516c.0417281-.2556758.2436182-.4575274.4993021-.4992067l.0981952-.0079139 7.0715894.0008022-.04-2.56c0-.23.13-.45.34-.55z"/></svg>