<svg height="32" viewBox="0 0 32 32" width="32" xmlns="http://www.w3.org/2000/svg"><g fill="none" fill-rule="evenodd"><path d="m17.2068265 6h-10.80000004c-.33137085 0-.6.26862915-.6.6v18.8c0 .3313708.26862915.6.6.6h10.80000004c.3313708 0 .6-.2686292.6-.6v-18.8c0-.33137085-.2686292-.6-.6-.6z" fill="#a1e0f1"/><path d="m20.9184375 12.1263557 3.7871029 3.0376313.0801601.076962c.1526949.1698069.2256878.3701652.2036012.579988.0010989.219406-.1162399.4577506-.3053367.6063267l-3.6986253 2.9589101c-.1246028.112596-.3082932.1738262-.4949391.1738262-.1218271 0-.2422758-.0275311-.3494427-.0811146l-.096009-.052353c-.2139882-.1387158-.3545483-.3888704-.3545483-.6565324l-.0262258-1.94h-6.8853636c-.4448267 0-.80543-.3606033-.80543-.80543l.0085814-.1143469.0243136-.1069873c.102341-.3462194.4123878-.5840724.7725541-.584038l6.8693445.0008022-.0377515-2.4569928c-.0000227-.312509.1762721-.6013324.4539906-.7335793.283407-.1349557.61614-.1013085.8540236.0969278z" fill="#bb3600" fill-rule="nonzero"/></g></svg>