<svg height="32" viewBox="0 0 32 32" width="32" xmlns="http://www.w3.org/2000/svg"><path d="m6.40682646 6c-.33137085 0-.6.26862915-.6.6v18.8c0 .3313708.26862915.6.6.6h10.80000004c.3313708 0 .6-.2686292.6-.6l.0013477-8.571 1.8560006.001.0262258 1.94c0 .2294246.1032687.4459866.2675304.5905339l.0870179.0659985.096009.052353c.1071669.0535835.2276156.0811146.3494427.0811146.1493167 0 .2967419-.0391873.4135359-.1125114l.0814032-.0613148 3.6986253-2.9589101c.1890968-.1485761.3064356-.3869207.3053367-.6063267.0184055-.1748524-.0292164-.3431321-.1339668-.4926362l-.0696344-.0873518-.0801601-.076962-3.7871029-3.0376313c-.2378836-.1982363-.5706166-.2318835-.8540236-.0969278-.2430037.115716-.4083548.3513109-.4458805.6177582l-.0081101.1158211.0377515 2.4569928-1.8400006-.001-.0013477-8.619c0-.33137085-.2686292-.6-.6-.6zm5.75524204 9.2191978 4.0643047.0006696c.4459207.0000734.8086085.3592339.8131194.8051326.004295.4401929-.3490056.8005861-.7891985.8049606l-4.0882447.0000394c-.4448267 0-.80543-.3606033-.80543-.80543l.0085814-.1143469.0243136-.1069873c.102341-.3462194.4123878-.5840724.7725541-.584038z" fill-rule="evenodd"/></svg>