<svg height="32" viewBox="0 0 32 32" width="32" xmlns="http://www.w3.org/2000/svg"><path d="m12.0487609 18.7432233c.3348528-.3348528.8730763-.330477 1.2035533 0 .3069485.3069485.3288506.7847847.0755563 1.1171051l-.0758959.0867873-2.2592285 2.2506304 1.7360961 1.7360841c.3615437.3615438.3615437.9477221 0 1.3092658-.1736195.1736195-.409098.2711579-.6546329.2711579h-4.86267243c-.5113001 0-.92579073-.4144907-.92579073-.9257908v-4.8626724c0-.5113001.41449063-.9257907.92579073-.9257907.24553497 0 .48101346.0975384.6546329.2711578l1.92457637 1.9245883zm6.4944624.0055376c.3069485-.3069485.7847847-.3288506 1.1171051-.0755563l.0867873.0758959 2.2496304 2.2586456 1.9370841-1.9365883c.3615438-.3615437.9477221-.3615437 1.3092658 0 .1736195.1736195.2711579.409098.2711579.6546329v4.8626724c0 .5113001-.4144907.9257908-.9257908.9257908h-4.8626724c-.5113001 0-.9257907-.4144907-.9257907-.9257908 0-.2455349.0975384-.4810134.2711578-.6546329l1.7245883-1.7250841-2.2525228-2.2564319c-.3069484-.3069484-.3288506-.7847847-.0758179-1.1168439zm6.0452398-12.46301476c.5113001 0 .9257908.41449063.9257908.92579073v4.86267243c0 .5113001-.4144907.9257907-.9257908.9257907-.2455349 0-.4810134-.0975384-.6546329-.2711578l-1.7250841-1.7250961-2.2564319 2.2530306c-.3069484.3069484-.7847847.3288506-1.1168439.0758179l-.0867094-.0758179c-.3069485-.3069485-.3288506-.7847847-.0755563-1.1171051l.0758959-.0867873 2.2586456-2.25013816-1.9365883-1.93657637c-.3615437-.36154377-.3615437-.94772204 0-1.3092658.1736195-.17361945.409098-.27115783.6546329-.27115783zm-12.5142538 0c.5113001 0 .9257907.41449063.9257907.92579073 0 .24553497-.0975384.48101346-.2711578.6546329l-1.9250961 1.92457637 2.2530306 2.25801476c.3069484.3069484.3288506.7847847.0758179 1.1168439l-.0758179.0867094c-.3069485.3069485-.7847847.3288506-1.1171051.0755563l-.0867873-.0758959-2.25113816-2.2592285-1.73557637 1.7360961c-.36154377.3615437-.94772204.3615437-1.3092658 0-.17361945-.1736195-.27115783-.409098-.27115783-.6546329v-4.86267243c0-.5113001.41449063-.92579073.92579073-.92579073z" fill="#4da86d"/></svg>