<svg height="32" viewBox="0 0 32 32" width="32" xmlns="http://www.w3.org/2000/svg"><path d="m15.857 5c5.9829 0 10.857 4.8741 10.857 10.857s-4.8741 10.857-10.857 10.857-10.857-4.8741-10.857-10.857 4.8741-10.857 10.857-10.857zm-4.1616792 9.6384045c-.5005071 0-.9062482.4057412-.9062482.9062483v4.7600264c0 .5005071.4057411.9062482.9062482.9062482h4.7600264c.240352 0 .4708598-.0954794.6408143-.2654339.353912-.353912.353912-.9277166 0-1.2816286l-4.7600264-4.7600264c-.1699545-.1699545-.4004623-.265434-.6408143-.265434zm8.6093584-3.8493319h-4.7600264c-.240352 0-.4708598.0954794-.6408143.2654339-.353912.353912-.353912.9277166 0 1.2816286l4.7600264 4.7600264c.1699545.1699545.4004623.265434.6408143.265434.5005071 0 .9062482-.4057412.9062482-.9062483v-4.7600264c0-.5005071-.4057411-.9062482-.9062482-.9062482z"/></svg>