<svg height="32" viewBox="0 0 32 32" width="32" xmlns="http://www.w3.org/2000/svg"><path d="m10.3 14.1970563c.3182598 0 .6234845.1264282.8485281.3514718l6.3029438 6.3029438c.4686291.4686291.4686291 1.2284271 0 1.6970562-.2250437.2250437-.5302684.3514719-.8485282.3514719h-6.3029437c-.6627417 0-1.2-.5372583-1.2-1.2v-6.3029437c0-.6627417.5372583-1.2 1.2-1.2zm11.4-5.0970563c.6627417 0 1.2.5372583 1.2 1.2v6.3029437c0 .6627417-.5372583 1.2-1.2 1.2-.3182598 0-.6234845-.1264282-.8485281-.3514718l-6.3029438-6.3029438c-.4686291-.4686291-.4686291-1.22842709 0-1.69705624.2250437-.22504365.5302684-.35147186.8485282-.35147186z" fill-rule="evenodd"/></svg>