<svg height="32" viewBox="0 0 32 32" width="32" xmlns="http://www.w3.org/2000/svg"><path d="m14.0487609 16.7432233c.3348528-.3348528.8730763-.330477 1.2035533 0 .3348529.3348529.3304771.8730763-.0003396 1.2038924l-2.2592285 2.2506304 1.7360961 1.7360841c.3615437.3615438.3615437.9477221 0 1.3092658-.1736195.1736195-.409098.2711579-.6546329.2711579h-4.86267243c-.5113001 0-.92579073-.4144907-.92579073-.9257908v-4.8626724c0-.5113001.41449063-.9257907.92579073-.9257907.24553497 0 .48101346.0975384.6546329.2711578l1.92457633 1.9245883zm8.5397022-8.45747716c.5113001 0 .9257908.41449063.9257908.92579073v4.86267243c0 .5113001-.4144907.9257907-.9257908.9257907-.2455349 0-.4810134-.0975384-.6546329-.2711578l-1.7250841-1.7250961-2.2564319 2.2530306c-.3069484.3069484-.7847847.3288506-1.1168439.0758179l-.0867094-.0758179c-.3348529-.3348529-.3304771-.8730763.0003396-1.2038924l2.2586456-2.2501382-1.9365883-1.93657633c-.3615437-.36154377-.3615437-.94772204 0-1.3092658.1736195-.17361945.409098-.27115783.6546329-.27115783z" fill="#2289a3"/></svg>