<svg height="32" viewBox="0 0 32 32" width="32" xmlns="http://www.w3.org/2000/svg"><g fill="none" fill-rule="evenodd" transform="translate(7 7)"><rect fill="#afdfef" height="13.555166" rx="3" width="13.555166" y="4.037137"/><path d="m17.8162139.17871593c-.1272792-.12727922-.3040559-.19091883-.4879037-.1767767l-4.8295393.53033009c-.2333452.0212132-.4242641.18384776-.5020458.40305086-.0777818.21920311-.0212132.45961941.1414213.62225397l.0070711.00707107 1.7111984 1.668772-7.40229579 7.40229578c-.23334524.2333453-.23334524.6151829 0 .8485282.23334523.2333452.6151829.2333452.84852813 0l7.41643796-7.41643798 1.7253405 1.68291414c.1626346.16263456.410122.21213204.6151829.13435029.205061-.07778174.3676956-.26870058.3959798-.49497475l.5303301-4.71640223c.0212132-.17677669-.0424264-.36769552-.1697056-.49497474z" fill="#252d4f" fill-rule="nonzero"/></g></svg>