<svg height="32" viewBox="0 0 32 32" width="32" xmlns="http://www.w3.org/2000/svg"><path d="m14.75 10.905c.33 0 .6.27.6.6s-.27.6-.6.6h-4.09c-1.03 0-1.87.85-1.87 1.9v7.2c0 1.05.84 1.9 1.87 1.9h7.1c1.03 0 1.87-.85 1.87-1.9v-3.56c0-.33.27-.6.6-.6s.6.27.6.6v3.56c0 1.71-1.38 3.1-3.07 3.1h-7.1c-1.69 0-3.07-1.39-3.07-3.1v-7.2c0-1.71 1.38-3.1 3.07-3.1zm8.9462204-3.07174469c.1838477-.01414214.3606244.04949747.4879036.17677669.1272793.12727922.1909189.31819805.1697057.49497475l-.5303301 4.71640225c-.0282843.2262741-.1909189.417193-.3959798.4949747-.205061.0777818-.4525484.0282843-.6151829-.1343503l-1.7253406-1.6829141-5.4164379 5.4164379c-.2333452.2333453-.6151829.2333453-.8485281 0-.2333453-.2333452-.2333453-.6151829 0-.8485281l5.4022958-5.4022958-1.7111985-1.66877201c-.1697056-.16970563-.2262741-.41012193-.1484924-.62932503.0777818-.21920311.2687006-.38183767.5020458-.40305087z"/></svg>