<svg height="32" viewBox="0 0 32 32" width="32" xmlns="http://www.w3.org/2000/svg"><path d="m10.1304622 21.1946389c2.275208 0 4.2796112 1.4960203 4.9268372 3.6772287l.1866223.6289334c.0770717.2597383-.117544.520489-.3884758.520489h-9.44996731c-.27093184 0-.46554754-.2607507-.38847584-.520489l.18662228-.6289334c.64722607-2.1812084 2.65162918-3.6772287 4.92683717-3.6772287zm11.54354 0c2.2752081 0 4.2796112 1.4960203 4.9268372 3.6772287l.1866223.6289334c.0770717.2597383-.117544.520489-.3884758.520489h-9.4499673c-.2709318 0-.4655475-.2607507-.3884758-.520489l.1866222-.6289334c.6472261-2.1812084 2.6516292-3.6772287 4.9268372-3.6772287zm-11.6152415-7.1733489c1.7812339 0 3.2252094 1.4439754 3.2252094 3.2252093 0 1.781234-1.4439755 3.2252094-3.2252094 3.2252094-1.78123393 0-3.22520934-1.4439754-3.22520934-3.2252094 0-1.7812339 1.44397541-3.2252093 3.22520934-3.2252093zm11.54354 0c1.781234 0 3.2252094 1.4439754 3.2252094 3.2252093 0 1.781234-1.4439754 3.2252094-3.2252094 3.2252094-1.7812339 0-3.2252093-1.4439754-3.2252093-3.2252094 0-1.7812339 1.4439754-3.2252093 3.2252093-3.2252093zm-4.6204419-7.40710446c.711683-.60012731 1.5852655-.64972151 2.3968864-.13624872.6503045.41149445 1.0040848 1.05176349 1.0231147 1.85280768.0076619.37505874-.0927341.73695899-.3158039 1.13887606-.3058517.55086624-.7113499 1.08411844-1.2396468 1.63023754-.7111417.7351268-1.5252611 1.4261144-2.5622005 2.1745662-.1031443.0744121-.2005838.1000212-.2857808.1000212-.1287118 0-.2294825-.058422-.2798679-.0949826-1.3194306-.9570723-2.2542251-1.7870152-3.0311176-2.6910372-.3175944-.3696038-.5967544-.77951585-.8296931-1.21845159-.341871-.64418328-.3469095-1.41195647-.0134083-2.05376622.3342924-.64330882.9672327-1.08161994 1.6931568-1.17243854.5271726-.06595904 1.0332334.09315048 1.4635078.46000599.1296695.11057022.2504001.22802505.3664607.34601042l.4246678.43851278.0553875.06070188c.0448471.04959421.0872375.09644011.1281287.13329223.0174892.01574022.0254842.01761406.0452636-.00033313l.063065-.06223739.1737463-.18615002.1988764-.20662168c.1638983-.1725595.333418-.35099036.5252572-.51276489z"/></svg>