<svg height="32" viewBox="0 0 32 32" width="32" xmlns="http://www.w3.org/2000/svg"><g fill-rule="evenodd"><path d="m17.1560711 17.3509734c0 .9836189-.7100674 1.8013927-1.6455723 1.9686916l-.1495141.0209393v9.5008058c0 .5128358-.3860402.9355071-.8833789.9932722l-.1166211.0067278h-4.0658983c-.5522848 0-1.00000005-.4477153-1.00000005-1v-9.5008058c-1.00830812-.1026161-1.79508635-.9542426-1.79508635-1.9896309v-7.2916792c0-1.05436181.81587779-1.91816514 1.85073766-1.99451428l.14926234-.00548574h5.6560711c1.1045695 0 2 .8954305 2 2.00000002z"/><path d="m23.6517172 17.7449813.1492624.0054857c.9831169.0725317 1.7686024.8557408 1.8446932 1.8378638l.0060444.1566505v9.0964288l-.0067277.1166211c-.0488782.420825-.3590205.761963-.7639814.8569682l-.1126697.0196829-.1166212.0067278h-5.0612966l-.1166211-.0067278c-.4590819-.0533216-.8233295-.4175692-.8766512-.8766511l-.0067277-.1166211v-9.0964288l.0062549-.1594701c.070444-.8950819.7283088-1.6362631 1.5875911-1.814924l.1536503-.0256059z"/><path d="m22.1211054 12.0015026c1.2906451 0 2.3369426 1.0462975 2.3369426 2.3370155 0 1.0198672-.6533242 1.88716-1.569357 2.2079574-.2404222.0835731-.4987012.1289853-.7675856.1289853-1.2906451 0-2.3370156-1.0462976-2.3370156-2.3369427 0-1.290718 1.0463705-2.3370155 2.3370156-2.3370155z"/><path d="m12.3280623 2.05369368c1.3942835 0 2.5244933 1.13026326 2.5244933 2.52449334s-1.1302098 2.52449334-2.5244933 2.52449334c-1.3942301 0-2.52454683-1.13026326-2.52454683-2.52449334s1.13031673-2.52449334 2.52454683-2.52449334z"/></g></svg>