<svg height="32" viewBox="0 0 32 32" width="32" xmlns="http://www.w3.org/2000/svg"><path d="m17.4385708 8.05929418c1.1045695 0 2 .8954305 2 2.00000002v.7423995l-.0349657-.0001911c-1.8882927 0-3.4310307 1.4797631-3.5317818 3.3429493l-.0052338.1940662c0 .9170469.3490281 1.7525849.920355 2.3806558-1.1818602.4290361-2.0300404 1.5370413-2.1081395 2.8304649l-.0058847.1953425v9.0964288l.0055238.157115c.0213104.302008.1035785.5871863.2345755.8433063l-2.3354335-.0004213c-.5522848 0-1-.4477153-1-1v-9.5008058c-1.0083082-.1026161-1.79508639-.9542426-1.79508639-1.9896309v-7.2916792c0-1.10456952.89543049-2.00000002 1.99999999-2.00000002zm3.4956462 9.68568712.1492623.0054857c.9831169.0725317 1.7686024.8557408 1.8446932 1.8378638l.0060445.1566505v9.0964288l-.0067278.1166211c-.0488781.420825-.3590205.761963-.7639814.8569682l-.1126697.0196829-.1166211.0067278h-5.0612967l-.1166211-.0067278c-.4590819-.0533216-.8233295-.4175692-.8766512-.8766511l-.0067277-.1166211v-9.0964288l.0062549-.1594701c.070444-.8950819.7283088-1.6362631 1.5875911-1.814924l.1536503-.0256059zm-1.5306119-5.7434787c1.2906451 0 2.3369426 1.0462975 2.3369426 2.3370155 0 1.0198672-.6533242 1.88716-1.5693569 2.2079574-.2404223.0835731-.4987013.1289853-.7675857.1289853-1.2906451 0-2.3370156-1.0462976-2.3370156-2.3369427 0-1.290718 1.0463705-2.3370155 2.3370156-2.3370155zm-4.7930431-9.94780892c1.3942835 0 2.5244933 1.13026326 2.5244933 2.52449334s-1.1302098 2.52449334-2.5244933 2.52449334c-1.3942301 0-2.5245468-1.13026326-2.5245468-2.52449334s1.1303167-2.52449334 2.5245468-2.52449334z" fill-rule="evenodd"/></svg>