<svg height="32" viewBox="0 0 32 32" width="32" xmlns="http://www.w3.org/2000/svg"><path d="m18.890464 11.582673c.8745389.2694819 1.5101065 1.0840199 1.5101065 2.04701 0 .7566045-.3923633 1.4215753-.9847144 1.8025368h.2206894c1.3254834 0 2.4 1.0745166 2.4 2.4v10.776725c0 .3313708-.2686291.6-.6.6h-10.2209678c-.3313708 0-.6-.2686292-.6-.6v-8.9724674c-.94534905-.3263877-1.6155777-1.2243425-1.6155777-2.2689257v-6.5625112c0-1.32548345 1.0745166-2.40000005 2.4-2.40000005h1.1903349c-.9030019-.48402712-1.517171-1.43679761-1.517171-2.53299644 0-1.58617268 1.285909-2.87204401 2.8720921-2.87204401 1.5862114 0 2.872044 1.28585144 2.872044 2.87204401 0 1.09620961-.6141293 2.04897265-1.5171139 2.53299644h1.1902779c1.3254834 0 2.4 1.0745166 2.4 2.40000005zm.7460815 5.0495468h-2.8524905c-.0179992.0039772-.036323.0071585-.0549354.0095033-.5953585.0750024-1.0477411.5842786-1.0477411 1.1904967v10.176725h5.155167v-10.176725c0-.6627417-.5372583-1.2-1.2-1.2zm-1.9460815-5.8271793c0-.6627417-.5372583-1.20000005-1.2-1.20000005h-5.090464c-.6627417 0-1.2.53725835-1.2 1.20000005v6.5625112c0 .6168538.4679688 1.1318382 1.0763263 1.1937512.3062664.0311689.5392514.2890684.5392514.5969167v8.8507252h2.6658008v-10.176725c0-1.1630779.8315696-2.1469199 1.952434-2.3582605.0682055-.0269388.1425307-.0417395.2203127-.0417395h.4479764c-.5923658-.3809621-.984748-1.0459339-.984748-1.8025368 0-.9859491.6662693-1.8162869 1.5731104-2.0653515zm-2.073164-4.93299649c0-.9234548-.7485782-1.67204401-1.672044-1.67204401-.9234493 0-1.6720921.74862089-1.6720921 1.67204401 0 .92342311.7486428 1.672044 1.6720921 1.672044.9234658 0 1.672044-.74858921 1.672044-1.672044zm2.6416861 8.69922339c.5200143 0 .9415844-.4215701.9415844-.9415844 0-.5200579-.4215656-.9416325-.9415844-.9416325-.5200339 0-.9416325.4215895-.9416325.9416325 0 .5199993.4216032.9415844.9416325.9415844z"/></svg>