<svg height="32" viewBox="0 0 32 32" width="32" xmlns="http://www.w3.org/2000/svg"><path d="m15.1560711 8.05929418c1.1045695 0 2 .8954305 2 2.00000002v7.2916792c0 .9836189-.7100674 1.8013927-1.6455723 1.9686916l-.1495141.0209393v9.5008058c0 .5128358-.3860402.9355071-.8833789.9932722l-.1166211.0067278h-4.0658983c-.5522848 0-1.00000005-.4477153-1.00000005-1v-9.5008058c-1.00830812-.1026161-1.79508635-.9542426-1.79508635-1.9896309v-7.2916792c0-1.05436181.81587779-1.91816514 1.85073766-1.99451428l.14926234-.00548574zm8.4956461 9.68568712.1492624.0054857c.9831169.0725317 1.7686024.8557408 1.8446932 1.8378638l.0060444.1566505v9.0964288l-.0067277.1166211c-.0488782.420825-.3590205.761963-.7639814.8569682l-.1126697.0196829-.1166212.0067278h-5.0612966l-.1166211-.0067278c-.4590819-.0533216-.8233295-.4175692-.8766512-.8766511l-.0067277-.1166211v-9.0964288l.0062549-.1594701c.070444-.8950819.7283088-1.6362631 1.5875911-1.814924l.1536503-.0256059zm-14.10764418-8.48649674-.1050426.00304278c-.38001638.02803657-.6843269.32261562-.73240632.69455341l-.0066241.10321345v7.2916792c0 .3768195.26233588.6969132.6175358.7793446l.09904779.0164529c.57169722.058182 1.01572201.511379 1.07238451 1.0721308l.0061183.1217026-.0000864 9.3003957 3.665.002.0009847-9.3023957c0-.5556898.3801756-1.0325111.9089963-1.1642481l.1245688-.0241539.1047011-.0137969c.3425311-.0612558.605105-.3405865.6500148-.6829778l.0068054-.1044542v-7.2916792c0-.40784107-.3051882-.7444016-.6996497-.79376688l-.1003503-.00623314zm14.06357118 9.68568714-3.1790994.0012891c-.3026483.0629263-.5470639.3098677-.615575.5835184l-.0172163.1035637-.0053329.1124384-.0024206 8.8960187 4.663.002.0016096-8.8517503-.0033515-.1102257c-.0275487-.3555789-.2902912-.6472413-.5986613-.7171909l-.0936902-.0141757zm-1.4865388-6.9426691c1.2906451 0 2.3369426 1.0462975 2.3369426 2.3370155 0 1.0198672-.6533242 1.88716-1.569357 2.2079574-.2404222.0835731-.4987012.1289853-.7675856.1289853-1.2906451 0-2.3370156-1.0462976-2.3370156-2.3369427 0-1.290718 1.0463705-2.3370155 2.3370156-2.3370155zm0 1.2c-.6279344 0-1.1370156.5090702-1.1370156 1.1370155 0 .6278779.5090867 1.1369427 1.1370156 1.1369427.1298718 0 .2551903-.0213042.3709603-.0615436.4565347-.1598798.7659823-.5880243.7659823-1.0753991 0-.6279708-.5090337-1.1370155-1.1369426-1.1370155zm-9.7930431-11.14780892c1.3942835 0 2.5244933 1.13026326 2.5244933 2.52449334s-1.1302098 2.52449334-2.5244933 2.52449334c-1.3942301 0-2.52454683-1.13026326-2.52454683-2.52449334s1.13031673-2.52449334 2.52454683-2.52449334zm0 1.2c-.7315065 0-1.3245468.59302301-1.3245468 1.32449334s.5930403 1.32449334 1.3245468 1.32449334c.7315194 0 1.3244933-.59298257 1.3244933-1.32449334s-.5929739-1.32449334-1.3244933-1.32449334z"/></svg>