<svg height="32" viewBox="0 0 32 32" width="32" xmlns="http://www.w3.org/2000/svg"><g fill="none" fill-rule="evenodd"><path d="m17.6434844 29.8414101h-5.0658983c-.5522848 0-1-.4477153-1-1v-9.5008058c-1.0083082-.1026161-1.79508639-.9542426-1.79508639-1.9896309v-7.2916792c0-1.10456952.89543049-2.00000002 1.99999999-2.00000002h5.6560711c1.1045695 0 2 .8954305 2 2.00000002v7.2916792c0 1.0353883-.7867782 1.8870148-1.7950864 1.9896309zm-.5084291-25.26322308c0 1.39423008-1.1302098 2.52449334-2.5244933 2.52449334-1.3942301 0-2.5245468-1.13026326-2.5245468-2.52449334s1.1303167-2.52449334 2.5245468-2.52449334c1.3942835 0 2.5244933 1.13026326 2.5244933 2.52449334z" fill="#a2dace"/><path d="m20.934217 17.7449813c1.1045695 0 2 .8954305 2 2v9.0964288c0 .5522847-.4477153 1-1 1h-5.0612967c-.5522847 0-1-.4477153-1-1v-9.0964288c0-1.0190415.7621308-1.8758651 1.7474963-2zm-1.5306119-5.7434787c1.2906451 0 2.3369426 1.0462975 2.3369426 2.3370155 0 1.2906451-1.0462975 2.3369427-2.3369426 2.3369427s-2.3370156-1.0462976-2.3370156-2.3369427c0-1.290718 1.0463705-2.3370155 2.3370156-2.3370155z" fill="#2aa589"/></g></svg>