<svg height="32" viewBox="0 0 32 32" width="32" xmlns="http://www.w3.org/2000/svg"><g fill="none" fill-rule="evenodd" transform="translate(4.5 5)"><path d="m16.5917823 16.0786175c2.6997834 0 5.0782271 1.775192 5.8462317 4.3634345l.2214478.7462983c.091454.308208-.1394788.6176173-.4609691.6176173h-11.2134209c-.3214903 0-.5524231-.3094093-.4609691-.6176173l.2214478-.7462983c.7680046-2.5882425 3.1464483-4.3634345 5.8462318-4.3634345zm-.0850818-8.51196384c2.1136291 0 3.8270641 1.71343493 3.8270641 3.82706404 0 2.1136291-1.713435 3.827064-3.8270641 3.827064s-3.827064-1.7134349-3.827064-3.827064c0-2.11362911 1.7134349-3.82706404 3.827064-3.82706404z" fill="#6ec18d" fill-rule="nonzero"/><path d="m6.08785518 16.0786175c2.69978342 0 5.07822722 1.775192 5.84623182 4.3634345l.2214477.7462983c.091454.308208-.1394788.6176173-.4609691.6176173h-11.21342086c-.32149029 0-.55242313-.3094093-.46096912-.6176173l.22144777-.7462983c.7680046-2.5882425 3.14644836-4.3634345 5.84623179-4.3634345zm-.08508171-8.51196384c2.1136291 0 3.82706403 1.71343493 3.82706403 3.82706404 0 2.1136291-1.71343493 3.827064-3.82706403 3.827064-2.11362909 0-3.82706402-1.7134349-3.82706402-3.827064 0-2.11362911 1.71343493-3.82706404 3.82706402-3.82706404z" fill="#007880" fill-rule="nonzero"/><path d="m14.2247369.39131476c-.6545192-.4140822-1.3590063-.37408772-1.9329321.10987567-.1547057.13046058-.2914123.27435338-.4235855.41351133-.055005.05785935-.1069541.11256212-.1603808.16662686-.0311628.03156575-.059572.06266138-.0870409.09274958-.0363006.03979299-.0705864.07733609-.1039319.10755861-.0159508.01447324-.0223983.01296211-.0365021.00026865-.0329762-.02971882-.0671612-.06749698-.1033275-.10749145-.0290808-.03213662-.059169-.0653814-.0925817-.09906273-.0526879-.05312449-.1046035-.10708849-.1565526-.16111965-.136035-.14144142-.2766705-.28768487-.4335254-.42143634-.3469882-.29584496-.75509304-.42415638-1.18022324-.37096473-.58541035.07323926-1.09583524.4267085-1.36542018.94549496-.26894691.51757756-.26488366 1.13673639.01081295 1.65622805.18784979.35397295.41297403.68454023.66909316.9826015.62651298.72903451 1.38036351 1.39832915 2.44439801 2.17014533.0406325.02948375.1218975.07659731.2256951.07659731.0687058 0 .1472844-.02065206.2304635-.08066057.8362238-.60357744 1.4927578-1.16081367 2.066247-1.75364532.4260369-.44040938.7530446-.87044235.999694-1.31467991.1798912-.32411981.260854-.61596868.2546752-.91842901-.0153463-.64598972-.300647-1.1623248-.825075-1.49416814z" fill="#b34874"/></g></svg>