<svg height="32" viewBox="0 0 32 32" width="32" xmlns="http://www.w3.org/2000/svg"><path d="m10.1304622 21.1946389c2.275208 0 4.2796112 1.4960203 4.9268372 3.6772287l.1866223.6289334c.0770717.2597383-.117544.520489-.3884758.520489h-9.44996731c-.27093184 0-.46554754-.2607507-.38847584-.520489l.18662228-.6289334c.62565187-2.1085014 2.51951028-3.5767327 4.70025932-3.672272zm11.54354 0c2.2752081 0 4.2796112 1.4960203 4.9268372 3.6772287l.1866223.6289334c.0770717.2597383-.117544.520489-.3884758.520489h-9.4499673c-.2709318 0-.4655475-.2607507-.3884758-.520489l.1866222-.6289334c.6256519-2.1085014 2.5195103-3.5767327 4.7002594-3.672272zm-11.54354 1.2c-1.54271989 0-2.9230058.8973419-3.56441839 2.2617905l-.07304381.1645706h7.274l-.0721194-.1645706c-.613525-1.3051247-1.9030703-2.1828778-3.3641626-2.256737zm11.54354 0c-1.5427199 0-2.9230058.8973419-3.5644184 2.2617905l-.0725838.1645706h7.273l-.0715793-.1645706c-.6135251-1.3051247-1.9030704-2.1828778-3.3641627-2.256737zm-11.6152415-8.3733489c1.7812339 0 3.2252094 1.4439754 3.2252094 3.2252093 0 1.7198121-1.3461079 3.1252239-3.0421923 3.2201039l-.1830171.0051055c-1.78123393 0-3.22520934-1.4439754-3.22520934-3.2252094 0-1.719812 1.34610787-3.1252238 3.04219221-3.2201038zm11.54354 0c1.781234 0 3.2252094 1.4439754 3.2252094 3.2252093 0 1.7198121-1.3461079 3.1252239-3.0421922 3.2201039l-.1830172.0051055c-1.7812339 0-3.2252093-1.4439754-3.2252093-3.2252094 0-1.719812 1.3461078-3.1252238 3.0421922-3.2201038zm-11.54354 1.2c-1.11849223 0-2.02520934.9067171-2.02520934 2.0252093 0 1.1184923.90671711 2.0252094 2.02520934 2.0252094 1.1184922 0 2.0252094-.9067171 2.0252094-2.0252094 0-1.1184922-.9067172-2.0252093-2.0252094-2.0252093zm11.54354 0c-1.1184922 0-2.0252093.9067171-2.0252093 2.0252093 0 1.1184923.9067171 2.0252094 2.0252093 2.0252094 1.1184923 0 2.0252094-.9067171 2.0252094-2.0252094 0-1.1184922-.9067171-2.0252093-2.0252094-2.0252093zm-5.0072307-9.06579218c.913888-.77063687 2.0739569-.83655726 3.1044595-.18460878.8220708.52018338 1.2784256 1.34648287 1.3022052 2.34760088.0099531.48721342-.1189454.9520086-.3911096 1.44238172-.3326203.59907886-.7697288 1.17390956-1.3329751 1.75615716-.7373248.762193-1.5781683 1.4758346-2.642398 2.2439843-.1965759.1418171-.4150299.2134324-.6368241.2134324-.2503319 0-.4603897-.0846573-.6321655-.2093012-1.3547617-.9827004-2.3237823-1.8430075-3.1338923-2.7856825-.3467558-.4035406-.6509861-.8503064-.9046099-1.32822002-.4341344-.81803392-.4405177-1.79439576-.0158266-2.61169686.425511-.81884898 1.2299433-1.37589321 2.1510739-1.49113361.6974257-.08726085 1.3709434.12445316 1.9273045.59881114.1317216.1123201.2576212.23208839.4081679.38515792l.1985201.20561963.3035316-.3120396c.0780921-.07765578.146238-.14164302.2192946-.20577321zm2.3262236.75018326c-.5460013-.28825961-1.0824129-.22933233-1.5526377.16718514-.0783835.06609938-.1467963.12906809-.2350661.21725086l-.4372388.45285385-.1909195.20380818-.0813332.07952521c-.2530964.22965169-.6082574.21937729-.8501276.00169389-.0275604-.02483804-.050347-.04677147-.0760591-.07335111l-.1367911-.14894317-.4213928-.43515736c-.1247339-.12680238-.2268208-.22391771-.328002-.3101958-.3042776-.25942951-.6428955-.36587092-.999744-.32122258-.5306765.06639164-.9921435.38594317-1.2352292.85373471-.2422967.46629039-.2386409 1.02547479.0109893 1.4958497.2121598.39978134.4662164.7728665.7547526 1.1086535.7437758.8654859 1.6444002 1.6650701 2.9284434 2.5964736l-.0729378-.0538397.3034565-.2227053c.7169224-.5363702 1.3173407-1.0458434 1.8517643-1.5706998l.261946-.2639058c.4933794-.5100237.8672544-1.00169759 1.1462744-1.50423738.1740864-.31366102.2459123-.5726584.2405879-.83345746-.0143167-.60264815-.2652721-1.05704097-.7441119-1.36003738z"/></svg>