<svg height="32" viewBox="0 0 32 32" width="32" xmlns="http://www.w3.org/2000/svg"><path d="m22.2383352 5.42366239c.1587498 0 .3110295.06291332.4234877.17496098l2.654307 2.66432504h.019778c1.5048427 0 2.7241945 1.21935186 2.7241945 2.72267669v12.4323052c0 1.5036801-1.2191208 2.7232837-2.7220873 2.7232837h-10.31125c-1.5033825 0-2.7232808-1.219433-2.7232808-2.7226943v-12.4328946c0-1.50326161 1.2198956-2.72267669 2.7232808-2.72267669l-.0065815-2.23928602c0-.33137085.2686292-.6.6-.6zm-14.25413692 2.83928602c1.50332481 0 2.72267672 1.21935186 2.72267672 2.72267669v12.4323052c0 1.5036801-1.21912084 2.7232837-2.7220874 2.7232837h-1.32160929c-1.50338243 0-2.72328074-1.219433-2.72328074-2.7226943v-12.4328946c0-1.50326161 1.21989559-2.72267669 2.72328074-2.72267669zm15.48247872 12.27308279c-.6447161 0-1.1678826.5232191-1.1678826 1.1679001 0 .6446868.5231665 1.1679059 1.1678826 1.1679059.6458274 0 1.1678825-.5232191 1.1678825-1.1679059 0-.644681-.5220551-1.1679001-1.1678825-1.1679001zm-3.2965887 0c-.644716 0-1.167941.5232191-1.167941 1.1679001 0 .6446868.523225 1.1679059 1.167941 1.1679059.6458275 0 1.1678826-.5232191 1.1678826-1.1679059 0-.644681-.5220551-1.1679001-1.1678826-1.1679001zm-3.2966471 0c-.6446576 0-1.1678825.5232191-1.1678825 1.1679001 0 .6446868.5232249 1.1679059 1.1678825 1.1679059.6458275 0 1.1678825-.5232191 1.1678825-1.1679059 0-.644681-.522055-1.1679001-1.1678825-1.1679001zm6.5932358-3.1268559c-.6447161 0-1.1678826.5232191-1.1678826 1.1679 0 .6446869.5231665 1.167906 1.1678826 1.167906.6458274 0 1.1678825-.5232191 1.1678825-1.167906 0-.6446809-.5220551-1.1679-1.1678825-1.1679zm-3.2965887 0c-.644716 0-1.167941.5232191-1.167941 1.1679 0 .6446869.523225 1.167906 1.167941 1.167906.6458275 0 1.1678826-.5232191 1.1678826-1.167906 0-.6446809-.5220551-1.1679-1.1678826-1.1679zm-3.2966471 0c-.6446576 0-1.1678825.5232191-1.1678825 1.1679 0 .6446869.5232249 1.167906 1.1678825 1.167906.6458275 0 1.1678825-.5232191 1.1678825-1.167906 0-.6446809-.522055-1.1679-1.1678825-1.1679zm6.5932358-3.126856c-.6446576 0-1.1678826.5232191-1.1678826 1.1679059 0 .644681.523225 1.1679001 1.1678826 1.1679001.6458859 0 1.167941-.5232191 1.167941-1.1679001 0-.6446868-.5220551-1.1679059-1.167941-1.1679059zm-3.2965594 0c-.6447161 0-1.167941.5232191-1.167941 1.1679059 0 .644681.5232249 1.1679001 1.167941 1.1679001.6458274 0 1.1678825-.5232191 1.1678825-1.1679001 0-.6446868-.5220551-1.1679059-1.1678825-1.1679059zm-3.2966764 0c-.6446576 0-1.1678825.5232191-1.1678825 1.1679059 0 .644681.5232249 1.1679001 1.1678825 1.1679001.645886 0 1.167941-.5232191 1.167941-1.1679001 0-.6446868-.522055-1.1679059-1.167941-1.1679059zm4.8396474-7.65865691h-5.4706664v4.56865621h8.314342v-1.74293647h-2.2436756c-.3313708 0-.6-.26862915-.6-.6z"/></svg>