<svg height="32" viewBox="0 0 32 32" width="32" xmlns="http://www.w3.org/2000/svg"><g fill="none" fill-rule="evenodd" transform="translate(3.14375 4.65625)"><path d="m11.5973233 21.8390854c-1.2891461 0-2.33560878-1.0458177-2.33560878-2.3349638v-13.67618401c0-1.28914935 1.04646268-2.33494434 2.33560878-2.33494434h11.3417268c1.2891493 0 2.3349443 1.04579499 2.3349443 2.33494434v13.67553581c0 1.2897943-1.045795 2.335612-2.3342961 2.335612z" fill="#4588a0"/><path d="m2.3356088 21.8390854c-1.28914611 0-2.3356088-1.0458177-2.3356088-2.3349638v-13.67618401c0-1.28914935 1.04646269-2.33494434 2.3356088-2.33494434h2.61489105c1.28914936 0 2.33494435 1.04579499 2.33494435 2.33494434v13.67553581c0 1.2897943-1.04579499 2.335612-2.33429609 2.335612z" fill="#4588a0"/><path d="m20.8812264 16.3333844c.7104102 0 1.2846708.575541 1.2846708 1.28469 0 .7091556-.5742606 1.2846966-1.2846708 1.2846966-.7091877 0-1.2846708-.575541-1.2846708-1.2846966 0-.709149.5754831-1.28469 1.2846708-1.28469zm-3.6262475 0c.7104102 0 1.2846708.575541 1.2846708 1.28469 0 .7091556-.5742606 1.2846966-1.2846708 1.2846966-.7091877 0-1.2847351-.575541-1.2847351-1.2846966 0-.709149.5755474-1.28469 1.2847351-1.28469zm-3.6263118 0c.7104102 0 1.2846708.575541 1.2846708 1.28469 0 .7091556-.5742606 1.2846966-1.2846708 1.2846966-.7091234 0-1.2846708-.575541-1.2846708-1.2846966 0-.709149.5755474-1.28469 1.2846708-1.28469zm7.2525593-3.4395416c.7104102 0 1.2846708.575541 1.2846708 1.2846901 0 .7091555-.5742606 1.2846965-1.2846708 1.2846965-.7091877 0-1.2846708-.575541-1.2846708-1.2846965 0-.7091491.5754831-1.2846901 1.2846708-1.2846901zm-3.6262475 0c.7104102 0 1.2846708.575541 1.2846708 1.2846901 0 .7091555-.5742606 1.2846965-1.2846708 1.2846965-.7091877 0-1.2847351-.575541-1.2847351-1.2846965 0-.7091491.5755474-1.2846901 1.2847351-1.2846901zm-3.6263118 0c.7104102 0 1.2846708.575541 1.2846708 1.2846901 0 .7091555-.5742606 1.2846965-1.2846708 1.2846965-.7091234 0-1.2846708-.575541-1.2846708-1.2846965 0-.7091491.5755474-1.2846901 1.2846708-1.2846901zm7.2525593-3.43954158c.7104745 0 1.2847351.57554098 1.2847351 1.28469648 0 .7091491-.5742606 1.2846901-1.2847351 1.2846901-.7091234 0-1.2846708-.575541-1.2846708-1.2846901 0-.7091555.5755474-1.28469648 1.2846708-1.28469648zm-3.6262153 0c.7104102 0 1.2846708.57554098 1.2846708 1.28469648 0 .7091491-.5742606 1.2846901-1.2846708 1.2846901-.7091877 0-1.2847351-.575541-1.2847351-1.2846901 0-.7091555.5755474-1.28469648 1.2847351-1.28469648zm-3.626344 0c.7104745 0 1.2847351.57554098 1.2847351 1.28469648 0 .7091491-.5742606 1.2846901-1.2847351 1.2846901-.7091234 0-1.2846708-.575541-1.2846708-1.2846901 0-.7091555.5755474-1.28469648 1.2846708-1.28469648z" fill="#fff"/><path d="m12.5494128 6.71530044v-3.23653088l3.1203798-3.10899093h6.6792838v6.34552181z" fill="#bcda93" transform="matrix(-1 0 0 1 34.89849 0)"/><path d="m22.3483747 3.47807034h-3.1273414v-3.10829171h.0076633z" fill="#6a9a29"/></g></svg>