<svg height="32" viewBox="0 0 32 32" width="32" xmlns="http://www.w3.org/2000/svg"><path d="m21.8854874 6.62366239h-4.8651096v4.56865621h7.7087851v-1.74293647h-2.2436755c-.3313709 0-.6-.26862915-.6-.6zm3.7045393 1.63928602h.2754759c1.5033248 0 2.7226767 1.21935186 2.7226767 2.72267669v12.4323052c0 1.5036801-1.2191208 2.7232837-2.7220874 2.7232837h-10.31125c-1.5033824 0-2.7232807-1.219433-2.7232807-2.7226943v-12.4328946c0-1.50326161 1.2198956-2.72267669 2.7232807-2.72267669h.2655359v-2.23928602c0-.33137085.2686292-.6.6-.6h6.0720762c.1587498 0 .3110296.06291332.4234877.17496098zm-9.7696489 1.2h-.2655359c-.8407492 0-1.5232807.68226259-1.5232807 1.52267669v12.4328946c0 .8404171.6825375 1.5226943 1.5232807 1.5226943h10.31125c.8401185 0 1.5220874-.682239 1.5220874-1.5232837v-12.4323052c0-.8192582-.6479242-1.48796628-1.4590164-1.52136826v2.32806176c0 .3313708-.2686291.6-.6.6h-8.9087851c-.3313708 0-.6-.2686292-.6-.6zm-9.68527635 16.67826559c-1.50338243 0-2.72328073-1.219433-2.72328073-2.7226943v-12.4328946c0-1.50326161 1.21989559-2.72267669 2.72328073-2.72267669h2.37717368c1.50332477 0 2.72267667 1.21935186 2.72267667 2.72267669v12.4323052c0 1.5036801-1.2191208 2.7232837-2.72208735 2.7232837zm0-1.2h2.377763c.84011848 0 1.52208735-.682239 1.52208735-1.5232837v-12.4323052c0-.8405831-.68209355-1.52267669-1.52267667-1.52267669h-2.37717368c-.84074925 0-1.52328073.68226259-1.52328073 1.52267669v12.4328946c0 .8404171.68253754 1.5226943 1.52328073 1.5226943zm17.85965235-10.6588947c.645886 0 1.167941.5232191 1.167941 1.1679059 0 .644681-.522055 1.1679001-1.167941 1.1679001-.6446576 0-1.1678825-.5232191-1.1678825-1.1679001 0-.6446868.5232249-1.1679059 1.1678825-1.1679059zm0 3.126856c.6458275 0 1.1678825.5232191 1.1678825 1.1679 0 .6446869-.522055 1.167906-1.1678825 1.167906-.6447161 0-1.1678825-.5232191-1.1678825-1.167906 0-.6446809.5231664-1.1679 1.1678825-1.1679zm0 3.1268559c.6458275 0 1.1678825.5232191 1.1678825 1.1679001 0 .6446868-.522055 1.1679059-1.1678825 1.1679059-.6447161 0-1.1678825-.5232191-1.1678825-1.1679059 0-.644681.5231664-1.1679001 1.1678825-1.1679001zm-3.2965594-6.2537119c.6458275 0 1.1678826.5232191 1.1678826 1.1679059 0 .644681-.5220551 1.1679001-1.1678826 1.1679001-.644716 0-1.167941-.5232191-1.167941-1.1679001 0-.6446868.523225-1.1679059 1.167941-1.1679059zm-.0000292 3.126856c.6458274 0 1.1678825.5232191 1.1678825 1.1679 0 .6446869-.5220551 1.167906-1.1678825 1.167906-.6447161 0-1.167941-.5232191-1.167941-1.167906 0-.6446809.5232249-1.1679 1.167941-1.1679zm0 3.1268559c.6458274 0 1.1678825.5232191 1.1678825 1.1679001 0 .6446868-.5220551 1.1679059-1.1678825 1.1679059-.6447161 0-1.167941-.5232191-1.167941-1.1679059 0-.644681.5232249-1.1679001 1.167941-1.1679001zm-3.2966471-6.2537119c.6458859 0 1.167941.5232191 1.167941 1.1679059 0 .644681-.5220551 1.1679001-1.167941 1.1679001-.6446576 0-1.1678826-.5232191-1.1678826-1.1679001 0-.6446868.523225-1.1679059 1.1678826-1.1679059zm0 3.126856c.6458274 0 1.1678825.5232191 1.1678825 1.1679 0 .6446869-.5220551 1.167906-1.1678825 1.167906-.6446576 0-1.1678826-.5232191-1.1678826-1.167906 0-.6446809.523225-1.1679 1.1678826-1.1679zm0 3.1268559c.6458274 0 1.1678825.5232191 1.1678825 1.1679001 0 .6446868-.5220551 1.1679059-1.1678825 1.1679059-.6446576 0-1.1678826-.5232191-1.1678826-1.1679059 0-.644681.523225-1.1679001 1.1678826-1.1679001z"/></svg>