<svg height="32" viewBox="0 0 32 32" width="32" xmlns="http://www.w3.org/2000/svg"><path d="m12.6902601 3.44276745 6.9020723.48263991c.1587654.01110196.3066154.08482756.4110158.20495362l6.3397886 7.29473872c.0775967.089285.1264652.1987666.1418696.3142881.0000395.0032836.0005449.0066185.0010207.0099544l-.0010207-.0099544c.0018254.0136891.0031808.027463.0040586.0412981.004606.0458207.0031278.0919092-.0034476.1370615l-.7202374 10.2882575c-.0231153.3305636-.3098287.5797998-.6403923.5566845l-3.0513511-.2134083.3489187 2.4822841.0057682.0974689c-.0063712.2887844-.2210938.5386897-.5164252.5801958l-13.61829204 1.9139262-.0974689.0057682c-.28878441-.0063713-.53868969-.2210938-.58019581-.5164252l-2.39453678-17.0380145-.0057682-.09746894c.00637124-.28878441.22109381-.53868969.51642518-.5801958l5.99957485-.84353874.3182312-4.55382913c.0231152-.33056364.3098286-.57979981.6403923-.55668454zm-1.0446235 6.33451367-5.15240452.72405688 2.22746548 15.8492405 12.43083504-1.7470399-.301896-2.1402575-9.4432763-.6598916c-.3305636-.0231152-.5797998-.3098286-.5566845-.6403923zm1.5601398-5.09553499-1.1164524 15.96601267 12.521424.8755832.6378886-9.1320609-6.2584467-.4367409c-.2975073-.0208037-.5291393-.2551219-.5556396-.5427585l-.0010449-.0976338.4351312-6.23686678zm6.8009938 1.3220544-.3353193 4.79529037 4.8112514.3364355z"/></svg>