<svg height="32" viewBox="0 0 32 32" width="32" xmlns="http://www.w3.org/2000/svg"><g fill="none" fill-rule="evenodd"><g transform="matrix(.99026807 -.1391731 .1391731 .99026807 5.835029 8.769327)"><path d="m.87055883 18.0565518v-10.37072904l6.83320036-6.83472779h6.91892651v17.20545683z" fill="#de9eb8" transform="matrix(-1 0 0 1 15.493244 0)"/><path d="m3.89776075 13.7364371 11.85436605-1.5309802c-.3870046-.9643593-.6990717-.8323116-.9362012.396143s-.3015428 3.0467719-.1932399 5.4549519l-7.82323941-.0141683z" fill="#bd7592"/></g><g transform="matrix(.99756405 .06975647 -.06975647 .99756405 12.67642 4.533628)"><path d="m13.7521268 17.2054569v-10.37072911l-6.83320033-6.83472779h-6.91892647v17.2054569z" fill="#ffcde2"/><path d="m13.7404453 13.6592272-6.83320035-6.83158576h6.83166735l.001533.00152743z" fill="#f7b8d2"/><path d="m13.7395345 6.85071228h-6.87507858v-6.83320035h.01684679z" fill="#de9eb8"/></g></g></svg>