<svg height="32" viewBox="0 0 32 32" width="32" xmlns="http://www.w3.org/2000/svg"><path d="m26.8319535 5.4c.3313709 0 .6.26862915.6.6 0 2.56060278-.7395846 5.0637186-2.1255469 7.2100241l-.2241941.3358815-4.8504254 7.03308c-.9389126 1.3614161-1.4346019 2.9384716-1.4346019 4.5760476 0 .3313709-.2686291.6-.6.6-.3313708 0-.6-.2686291-.6-.6 0-1.7644221.5012428-3.4694229 1.4508617-4.961746l.1958865-.2955836 4.8504255-7.03308c1.3920974-2.0185306 2.1375946-4.41260381 2.1375946-6.8646236 0-.33137085.2686292-.6.6-.6zm-21.66390702 0c.33137085 0 .6.26862915.6.6 0 2.31252258.66619829 4.5730855 1.91460339 6.512884l.22633336.3389329 4.85950577 7.016932c1.0755368 1.5530323 1.6517663 3.397187 1.6517663 5.2862843 0 .3313709-.2686292.6-.6.6-.3313709 0-.6-.2686291-.6-.6 0-1.5352845-.4370859-3.0364789-1.2568-4.3292978l-.1814897-.2737796-4.85950576-7.016932c-1.53306091-2.2136787-2.35441336-4.84232088-2.35441336-7.5350238 0-.33137085.26862915-.6.6-.6zm10.83195352 11.6876927c.81312 0 1.452.6534 1.452 1.452 0 .81312-.6534 1.452-1.452 1.452s-1.452-.6534-1.452-1.452c0-.81312.6534-1.452 1.452-1.452zm2.57125-4.235c.81312 0 1.452.6534 1.452 1.452 0 .81312-.6534 1.452-1.452 1.452s-1.452-.6534-1.452-1.452c0-.81312.63888-1.452 1.452-1.452zm-5.1425 0c.81312 0 1.452.6534 1.452 1.452 0 .81312-.6534 1.452-1.452 1.452s-1.452-.6534-1.452-1.452c0-.81312.6534-1.452 1.452-1.452zm7.71375-4.23499995c.81312 0 1.452.6534 1.452 1.45199995 0 .81312-.6534 1.452-1.452 1.452s-1.452-.6534-1.452-1.452c0-.81311995.63888-1.45199995 1.452-1.45199995zm-5.1425 0c.81312 0 1.452.6534 1.452 1.45199995 0 .81312-.6534 1.452-1.452 1.452s-1.452-.6534-1.452-1.452c0-.81311995.63888-1.45199995 1.452-1.45199995zm-5.1425 0c.81312 0 1.452.63888 1.452 1.45199995 0 .81312-.6534 1.452-1.452 1.452s-1.452-.6534-1.452-1.452c0-.81311995.63888-1.45199995 1.452-1.45199995z"/></svg>