<svg height="32" viewBox="0 0 32 32" width="32" xmlns="http://www.w3.org/2000/svg"><path d="m26.8319535 6c0 2.57369557-.7824908 5.0865691-2.2436678 7.2052646l-4.8504255 7.03308c-1.0033566 1.4548594-1.540675 3.1493912-1.540675 4.9166886h-4.3769299c0-1.7670225-.5389931-3.4920067-1.545028-4.9446809l-4.85950576-7.016932c-1.46355897-2.1133206-2.24767506-4.62279218-2.24767506-7.1934203zm-10.8319535 11.0876927c-.7986 0-1.452.63888-1.452 1.452 0 .7986.6534 1.452 1.452 1.452s1.452-.63888 1.452-1.452c0-.7986-.63888-1.452-1.452-1.452zm2.57125-4.235c-.81312 0-1.452.63888-1.452 1.452 0 .7986.6534 1.452 1.452 1.452s1.452-.63888 1.452-1.452c0-.7986-.63888-1.452-1.452-1.452zm-5.1425 0c-.7986 0-1.452.63888-1.452 1.452 0 .7986.6534 1.452 1.452 1.452s1.452-.63888 1.452-1.452c0-.7986-.63888-1.452-1.452-1.452zm7.71375-4.23499995c-.81312 0-1.452.63888-1.452 1.45199995 0 .7986.6534 1.452 1.452 1.452s1.452-.63888 1.452-1.452c0-.79859995-.63888-1.45199995-1.452-1.45199995zm-5.1425 0c-.81312 0-1.452.63888-1.452 1.45199995 0 .7986.6534 1.452 1.452 1.452s1.452-.63888 1.452-1.452c0-.79859995-.63888-1.45199995-1.452-1.45199995zm-5.1425 0c-.81312 0-1.452.63888-1.452 1.45199995 0 .7986.6534 1.452 1.452 1.452s1.452-.63888 1.452-1.452c0-.81311995-.63888-1.45199995-1.452-1.45199995z" fill-rule="evenodd"/></svg>