<svg height="32" viewBox="0 0 32 32" width="32" xmlns="http://www.w3.org/2000/svg"><path d="m20.6625978 21.706365c-3.8096864 3.0209186-9.3630344 2.7708648-12.88406062-.7501615-3.79019577-3.7901958-3.79019577-9.9353173 0-13.72551304 3.79019582-3.79019577 9.93531732-3.79019577 13.72551302 0 3.7726066 3.77260654 3.7901142 9.87833234.0525229 13.67259364l4.1567812 4.1567811c.5656854.5656855-.2828427 1.4142136-.8485281.8485282zm2.0454694 2.0454694.8485282-.8485281zm-2.0525451-3.644159c3.3215666-3.3215666 3.3215666-8.7068902 0-12.0284568-3.3215666-3.32156662-8.7068902-3.32156662-12.02845678 0-3.32156662 3.3215666-3.32156662 8.7068902 0 12.0284568 3.32156658 3.3215666 8.70689018 3.3215666 12.02845678 0zm-.2345143-6.009809c0 .3252691-.2687006.5939697-.5939697.5939697h-4.582052l-.007071 4.5749809c-.0070711.3323402-.2757717.6010407-.6010408.6010407-.1626346.0070711-.3181981-.0636396-.4242641-.1697056s-.1697056-.2545584-.1697056-.4242641v-4.5820519h-4.58205194c-.33234019-.0070711-.60104077-.2757716-.60104077-.6010408.00707107-.3323401.27577165-.6010407.60104077-.6010407h4.58205194v-4.58205197c.0070711-.33234018.2757716-.60104076.6010408-.60104076.3323401.00707107.6010407.27577164.6010407.60104076v4.58205197l4.5749809.007071c.3323402.0070711.6010408.2757717.6010408.6010408z"/></svg>