<svg height="32" viewBox="0 0 32 32" width="32" xmlns="http://www.w3.org/2000/svg"><g fill="none" fill-rule="evenodd"><path d="m20.6551985 21.8304876c-3.8441289 2.9957467-9.4076601 2.726239-12.94242225-.8085232-3.82651453-3.8265145-3.82651453-10.0305203 0-13.85703487 3.82651455-3.82651453 10.03052035-3.82651453 13.85703495 0 3.7869421 3.78694217 3.8261053 9.90245557.1174894 13.73756017l4.0918147 4.0918146c.6533666.6533667-.3266834 1.6334167-.98005.98005z" fill="#252d4f" fill-rule="nonzero"/><path d="m20.5897612 20.0419144c3.2852478-3.2852478 3.2852478-8.611687 0-11.89693487-3.2852479-3.28524786-8.6116871-3.28524786-11.89693495 0-3.28524786 3.28524787-3.28524786 8.61168707 0 11.89693487 3.28524785 3.2852479 8.61168705 3.2852479 11.89693495 0z" fill="#def7ff" fill-rule="nonzero"/><path d="m16.1291467 12.5312277h2.9515637c.5522848 0 1 .4477153 1 1v.9757061c0 .5522847-.4477152 1-1 1h-2.9515637v3.1002961c0 .5522848-.4477152 1-1 1h-.975706c-.5522848 0-1-.4477152-1-1v-3.1002961h-2.9515637c-.55228473 0-.99999998-.4477153-.99999998-1v-.9757061c0-.5522847.44771525-1 .99999998-1h2.9515637v-2.95156365c0-.55228475.4477152-1 1-1h.975706c.5522848 0 1 .44771525 1 1z" fill="#b75c64"/></g></svg>