<svg height="32" viewBox="0 0 32 32" width="32" xmlns="http://www.w3.org/2000/svg"><path d="m20.9238706 7.81087013c3.1722328 3.17223287 3.4442569 8.14642427.8160724 11.62769887l4.6121856 4.5262894c.4927457.4835215.5002234 1.2749424.016702 1.7676881-.4512867.459896-1.1707881.4970696-1.6653363.1068613l-.1023518-.0901593-4.631662-4.5443986c-3.4804553 2.6145417-8.4436712 2.3382664-11.61076364-.8288261-3.46977139-3.4697713-3.46977139-9.0953823 0-12.56515367 3.46977134-3.46977138 9.09538234-3.46977138 12.56515374 0zm-6.2799252.19579174-.1113315.00697075c-.4378871.05520704-.7799373.43159487-.7896414.88768848l-.0009725 4.2876789-4.28114734.0007546c-.48990227 0-.89046009.4005578-.90097289.8946592l.00695626.1126938c.05515365.4429063.43154148.7849565.88763509.7946606l4.28752888-.0007682.0009046 4.282888c0 .2447943.0921444.470967.2575736.6363961.1692219.1692219.4070392.2678291.6494273.2572905l.1085497-.0069103c.4276377-.0549844.7696879-.4313722.779392-.8874658l.0061528-4.2821985 4.2830381.0008361c.4909545 0 .8939697-.4030151.8939697-.8939697l-.0069708-.1113315c-.055207-.4378871-.4315949-.7799373-.8876885-.7896414l-4.2823485-.0078935.0009861-4.28129737c0-.45221748-.3413037-.82830714-.7824361-.89175984z"/></svg>