<svg height="32" viewBox="0 0 32 32" width="32" xmlns="http://www.w3.org/2000/svg"><path d="m23.1248017 7.30625c-2.38-.63-4.9-.63-7.28 0-2.18.58-4.48.58-6.65999999 0-.18-.05-.37-.01-.52.1s-.23.29-.23.48v16.68c0 .33.27.6.6.6s.6-.27.6-.6v-6.19c2.14999999.45 4.38999999.39 6.51999999-.18 2.18-.58 4.48-.58 6.66 0 .18.05.37.01.52-.1s.23-.29.23-.48v-9.73c.01-.27-.17-.51-.44-.58zm-.75 9.55c-2.15-.45-4.39-.39-6.52.18-2.03.54-4.17.58-6.21999999.11v-8.5c2.14999999.45 4.38999999.39 6.51999999-.18 2.03-.54 4.17-.58 6.21-.11v8.5z"/></svg>