<svg height="32" viewBox="0 0 32 32" width="32" xmlns="http://www.w3.org/2000/svg"><g fill="none" fill-rule="evenodd"><path d="m9.30254451 25.427466c0 .3867521-.31352453.7002767-.70027665.7002767s-.70027666-.3135246-.70027666-.7002767v-17.36226722c-.32753847-.22931326-.54171685-.60946885-.54171685-1.03964848 0-.70042701.56780828-1.26823529 1.26823529-1.26823529s1.26823529.56780828 1.26823529 1.26823529c0 .45275286-.23724569.85009401-.59420042 1.07448679z" fill="#9b9b9b"/><g fill-rule="nonzero"><path d="m24.1717521 19.5113844c-2.5093246-.625247-5.1236908-.5418807-7.6096729.2500988-2.3692694.7502965-4.8669228.805874-7.25953469.1528382v-11.81022135c2.50932469.62524701 5.12369089.54188074 7.60967299-.25009881 2.3692693-.75029641 4.8669227-.80587393 7.2478634-.15283816z" fill="#c56f76"/><path d="m24.1717521 19.5113844c-2.5093246-.625247-5.1236908-.5418807-7.6096729.2500988-.8481556.2685926-1.7127638.4481562-2.5831159.5380534l4.0177244-12.73858196c2.0386681-.45783057 4.1430492-.41392417 6.1633932.14020844z" fill="#a2474f"/></g></g></svg>