<svg height="32" viewBox="0 0 32 32" width="32" xmlns="http://www.w3.org/2000/svg"><path d="m29.055 21.685-4.96-15.74c-.08-.25-.31-.42-.57-.42h-4.09c-.18 0-.34.08-.46.21-.04.04-.07.09-.09.14l-2.88 3.37-2.99-3.48-.04-.05s-.01 0-.01-.01l-.04-.03-.01-.01-.04-.03-.02-.01-.04-.02-.02-.01c-.01-.01-.02-.01-.04-.01l-.02-.01c-.01 0-.02-.01-.04-.01-.01 0-.02 0-.02-.01-.01 0-.02 0-.04-.01h-4.15c-.26 0-.49.17-.57.42l-4.97 15.7c-.06.18-.03.38.09.54.11.15.29.25.48.25h6.37l5.77 3.92c.1.07.22.1.34.1s.24-.03.34-.1l5.73-3.89h6.42c.19 0 .37-.09.48-.25.12-.17.15-.37.09-.55zm-20.13-14.93h2.93l-2.29 14.49h-5.23zm6.47 17.97-4.67-3.17 2.22-14.03 2.45 2.86zm1.2-14.33 2.44-2.86 2.22 14.03-4.66 3.16zm5.82 10.87-2.29-14.54h2.95l4.59 14.54z"/></svg>