<svg height="32" viewBox="0 0 32 32" width="32" xmlns="http://www.w3.org/2000/svg"><g fill="none" fill-rule="evenodd"><path d="m8 5h16c1.1045695 0 2 .8954305 2 2v18c0 1.1045695-.8954305 2-2 2h-16c-1.1045695 0-2-.8954305-2-2v-18c0-1.1045695.8954305-2 2-2z" fill="#cd8b49"/><path d="m14.6035 11.4223113v-1.2467532h7.0658783v1.2467532z" fill="#ac4000" fill-rule="nonzero"/><rect fill="#fff" height="2.909091" rx=".831169" width="2.909091" x="10.181818" y="9.344389"/><path d="m14.6035 16.6414672v-1.2467533h7.0658783v1.2467533z" fill="#ac4000" fill-rule="nonzero"/><rect fill="#fff" height="2.909091" rx=".831169" width="2.909091" x="10.181818" y="14.563545"/><path d="m14.6035 21.860623v-1.2467532h7.0658783v1.2467532z" fill="#ac4000" fill-rule="nonzero"/><rect fill="#fff" height="2.909091" rx=".831169" width="2.909091" x="10.181818" y="19.782701"/></g></svg>