<svg height="32" viewBox="0 0 32 32" width="32" xmlns="http://www.w3.org/2000/svg"><path d="m22.126928 18.793253c-1.0942187 0-1.9840361-.8898174-1.9840361-1.9840361v-4.3350904c0-.340754-.2762641-.6170181-.6170181-.6170181s-.6170181.2762641-.6170181.6170181v.054969c0 .2069291-.2370375.3242709-.4015873.1987996-.7426697-.5662952-1.6373295-.8707867-2.5650694-.8707867-2.2522977 0-4.0850905 1.8327928-4.0850905 4.0850904s1.8327928 4.0850904 4.0850905 4.0850904c1.2061779 0 2.3376277-.5115641 3.1519276-1.4098685.1079425-.1190781.2985868-.106833.3904084.0250759.5991491.8607246 1.5777341 1.3847926 2.642393 1.3847926 1.892094 0 3.2172598-1.5438834 3.218072-4.0877514-.0014664-5.1118688-4.2459253-9.2845378-9.402801-9.2845378-5.1207403 0-9.287199 4.1664586-9.287199 9.2871988 0 5.1596454 4.1765389 9.4028012 9.287199 9.4028012 2.0768797 0 4.1793366-.6985204 5.7631394-1.9136464.2703789-.2074427.3213888-.5947621.1139399-.8651491-.2074383-.2703731-.5948048-.3213876-.8651466-.1139418-1.3813209 1.0598184-3.2080482 1.6702614-5.0119327 1.6702614-4.4395196 0-8.05316282-3.6745662-8.05316282-8.1803253 0-4.442821 3.61450882-8.0647229 8.05316282-8.0647229 4.5092033 0 8.211169 3.628561 8.211169 8.0647229 0 .0119649-.0008405.0237334-.0024658.0352499-.011683 1.809579-.8004758 2.8158043-2.0239742 2.8158043zm-6.126928.0849427c-1.5895836 0-2.8781957-1.2886121-2.8781957-2.8781957s1.2886121-2.8781957 2.8781957-2.8781957 2.8781957 1.2886121 2.8781957 2.8781957-1.2886121 2.8781957-2.8781957 2.8781957z"/></svg>