<svg height="32" viewBox="0 0 32 32" width="32" xmlns="http://www.w3.org/2000/svg"><g fill="none"><path d="m27.6645345 24.8h-23.32906897v-17.6h23.32906897z" fill="#afdfef"/><g fill="#4588a0"><path d="m7.96717142 20.7452593h8.37829618c.3313709 0 .6-.2686291.6-.6 0-.3313708-.2686291-.6-.6-.6h-8.37829618c-.33137085 0-.6.2686292-.6.6 0 .3313709.26862915.6.6.6z"/><path d="m7.96717142 16.6332548h15.50876128c.3313708 0 .6-.2686292.6-.6 0-.3313709-.2686292-.6-.6-.6h-15.50876128c-.33137085 0-.6.2686291-.6.6 0 .3313708.26862915.6.6.6z"/><path d="m7.96717142 12.1201445h15.87122578c.3313709 0 .6-.2686292.6-.6 0-.3313709-.2686291-.6-.6-.6h-15.87122578c-.33137085 0-.6.2686291-.6.6 0 .3313708.26862915.6.6.6z"/></g></g></svg>