<svg height="32" viewBox="0 0 32 32" width="32" xmlns="http://www.w3.org/2000/svg"><path d="m24 5c1.1045695 0 2 .8954305 2 2v18c0 1.1045695-.8954305 2-2 2h-16c-1.1045695 0-2-.8954305-2-2v-18c0-1.1045695.8954305-2 2-2zm0 1.2h-16c-.40784105 0-.74440158.30518815-.79376686.6996497l-.00623314.1003503v18c0 .407841.30518815.7444016.6996497.7937669l.1003503.0062331h16c.407841 0 .7444016-.3051881.7937669-.6996497l.0062331-.1003503v-18c0-.40784105-.3051881-.74440158-.6996497-.79376686zm-8.45 10.4h5.25c.33 0 .6-.27.6-.6s-.27-.6-.6-.6h-5.25c-.33 0-.6.27-.6.6s.27.6.6.6zm0 5.51h5.25c.33 0 .6-.27.6-.6s-.27-.6-.6-.6h-5.25c-.33 0-.6.27-.6.6s.27.6.6.6zm0-11.02h5.25c.33 0 .6-.27.6-.6s-.27-.6-.6-.6h-5.25c-.33 0-.6.27-.6.6s.27.6.6.6zm-4.96 1.38h2.71c.33 0 .6-.27.6-.6v-2.76c0-.33-.27-.6-.6-.6h-2.71c-.33 0-.6.27-.6.6v2.76c0 .33.26.6.6.6zm.6-2.76h1.51v1.56h-1.51zm-.6 8.27h2.71c.33 0 .6-.27.6-.6v-2.76c0-.33-.27-.6-.6-.6h-2.71c-.33 0-.6.27-.6.6v2.76c0 .33.26.6.6.6zm.6-2.76h1.51v1.56h-1.51zm-.6 8.27h2.71c.33 0 .6-.27.6-.6v-2.76c0-.33-.27-.6-.6-.6h-2.71c-.33 0-.6.27-.6.6v2.76c0 .33.26.6.6.6zm.6-2.75h1.51v1.55h-1.51z"/></svg>