<svg height="32" viewBox="0 0 32 32" width="32" xmlns="http://www.w3.org/2000/svg"><path d="m24 5c1.1045695 0 2 .8954305 2 2v18c0 1.1045695-.8954305 2-2 2h-16c-1.1045695 0-2-.8954305-2-2v-18c0-1.1045695.8954305-2 2-2zm-11.7402597 14.7827009h-1.2467533c-.4237309 0-.7734042.3170786-.8246928.7269088l-.006476.1042601v1.2467532c0 .423731.3170786.7734043.7269088.8246929l.10426.0064759h1.2467533c.4237309 0 .7734042-.3170785.8246928-.7269087l.006476-.1042601v-1.2467532c0-.423731-.3170786-.7734043-.7269088-.8246929zm9.409638.8311689h-7.0658783v1.2467532h7.0658783zm-9.409638-6.0503247h-1.2467533c-.4237309 0-.7734042.3170786-.8246928.7269088l-.006476.10426v1.2467533c0 .4237309.3170786.7734042.7269088.8246928l.10426.006476h1.2467533c.4237309 0 .7734042-.3170786.8246928-.7269088l.006476-.10426v-1.2467533c0-.4237309-.3170786-.7734042-.7269088-.8246928zm9.409638.8311688h-7.0658783v1.2467533h7.0658783zm-9.409638-6.05032465h-1.2467533c-.4237309 0-.7734042.31707859-.8246928.72690875l-.006476.1042601v1.2467532c0 .423731.3170786.7734043.7269088.8246929l.10426.006476h1.2467533c.4237309 0 .7734042-.3170786.8246928-.7269088l.006476-.1042601v-1.2467532c0-.42373098-.3170786-.77340426-.7269088-.82469287zm9.409638.83116885h-7.0658783v1.2467532h7.0658783z" fill-rule="evenodd"/></svg>