<svg height="32" viewBox="0 0 32 32" width="32" xmlns="http://www.w3.org/2000/svg"><path d="m22.775 7.72h-13.56c-1.83 0-3.31 1.51-3.31 3.36v9.84c0 1.85 1.49 3.36 3.31 3.36h13.57c1.83 0 3.31-1.51 3.31-3.36v-9.84c0-1.85-1.49-3.36-3.32-3.36zm-15.68 3.36c0-1.19.95-2.16 2.11-2.16h13.57c1.17 0 2.11.97 2.11 2.16v6.95c0 1.19-.95 2.16-2.11 2.16h-13.56c-1.16 0-2.11-.97-2.11-2.16v-6.95zm15.68 12.01h-13.56c-1.16 0-2.11-.97-2.11-2.16v-.3c.57.48 1.31.77 2.11.77h13.57c.8 0 1.54-.29 2.11-.77v.3c0 1.19-.95 2.16-2.12 2.16zm-12.09-7.19 1.93 1.58c.11.09.24.14.38.14.09 0 .18-.02.26-.06.21-.1.34-.32.34-.55l-.01-.99h7.34c.33 0 .6-.27.6-.6v-3.64c0-.33-.27-.6-.6-.6s-.6.27-.6.6v3.04h-6.76l-.01-.94c0-.23-.14-.44-.35-.54s-.45-.07-.63.08l-1.81 1.47c-.18.1-.3.3-.3.52v.01c0 .19.08.36.22.48z"/></svg>