<svg height="32" viewBox="0 0 32 32" width="32" xmlns="http://www.w3.org/2000/svg"><path d="m15.733255 22.5498283c1.2242196 0 2.2166456.992426 2.2166456 2.2166456 0 1.2242195-.992426 2.2166455-2.2166456 2.2166455-1.2242195 0-2.2166456-.992426-2.2166456-2.2166455 0-1.2242196.9924261-2.2166456 2.2166456-2.2166456zm-6.01660942-6.0166094c1.22421952 0 2.21664562.992426 2.21664562 2.2166455 0 1.2242196-.9924261 2.2166456-2.21664562 2.2166456-1.22421955 0-2.21664558-.992426-2.21664558-2.2166456 0-1.2242195.99242603-2.2166455 2.21664558-2.2166455zm6.01660942 0c1.2242196 0 2.2166456.992426 2.2166456 2.2166455 0 1.2242196-.992426 2.2166456-2.2166456 2.2166456-1.2242195 0-2.2166456-.992426-2.2166456-2.2166456 0-1.2242195.9924261-2.2166455 2.2166456-2.2166455zm6.0166094 0c1.2242196 0 2.2166456.992426 2.2166456 2.2166455 0 1.2242196-.992426 2.2166456-2.2166456 2.2166456-1.2242195 0-2.2166455-.992426-2.2166455-2.2166456 0-1.2242195.992426-2.2166455 2.2166455-2.2166455zm-12.03321882-6.0166095c1.22421952 0 2.21664562.9924261 2.21664562 2.2166456 0 1.2242196-.9924261 2.2166456-2.21664562 2.2166456-1.22421955 0-2.21664558-.992426-2.21664558-2.2166456 0-1.2242195.99242603-2.2166456 2.21664558-2.2166456zm6.01660942 0c1.2242196 0 2.2166456.9924261 2.2166456 2.2166456 0 1.2242196-.992426 2.2166456-2.2166456 2.2166456-1.2242195 0-2.2166456-.992426-2.2166456-2.2166456 0-1.2242195.9924261-2.2166456 2.2166456-2.2166456zm6.0166094 0c1.2242196 0 2.2166456.9924261 2.2166456 2.2166456 0 1.2242196-.992426 2.2166456-2.2166456 2.2166456-1.2242195 0-2.2166455-.992426-2.2166455-2.2166456 0-1.2242195.992426-2.2166456 2.2166455-2.2166456zm-12.03321882-6.0166094c1.22421952 0 2.21664562.99242603 2.21664562 2.21664558s-.9924261 2.21664558-2.21664562 2.21664558c-1.22421955 0-2.21664558-.99242603-2.21664558-2.21664558s.99242603-2.21664558 2.21664558-2.21664558zm6.01660942 0c1.2242196 0 2.2166456.99242603 2.2166456 2.21664558s-.992426 2.21664558-2.2166456 2.21664558c-1.2242195 0-2.2166456-.99242603-2.2166456-2.21664558s.9924261-2.21664558 2.2166456-2.21664558zm6.0166094 0c1.2242196 0 2.2166456.99242603 2.2166456 2.21664558s-.992426 2.21664558-2.2166456 2.21664558c-1.2242195 0-2.2166455-.99242603-2.2166455-2.21664558s.992426-2.21664558 2.2166455-2.21664558z" fill-rule="evenodd"/></svg>