<svg height="32" viewBox="0 0 32 32" width="32" xmlns="http://www.w3.org/2000/svg"><path d="m9.215 22.48h13.57c1.3099236 0 2.4877004-.5649704 3.3109296-1.4651295l-.0009296.9051295c0 1.7883333-1.3829778 3.2589556-3.1282085 3.35501l-.1817915.00499h-13.57c-1.75933333 0-3.2103-1.4110111-3.3050763-3.1761767l-.0049237-.1838233-.00149056-.9096701c.82439528.902469 2.00367226 1.4696701 3.31149056 1.4696701zm13.56-14.76c.61 0 1.1822222.16777778 1.6740741.46l.1451018.09135667c.8556334.57002 1.4370667 1.5292 1.4959 2.62482003l.0049241.1838233v6.84c0 1.7883333-1.3829778 3.2589556-3.1282085 3.35501l-.1817915.00499h-13.57c-1.75933333 0-3.2103-1.4110111-3.3050763-3.1761767l-.0049237-.1838233v-6.84c0-1.17166667.59364444-2.20695556 1.49387148-2.80864333l.14464704-.09135667c.44133333-.263.94806667-.4252 1.48969-.45501l.18179148-.00499zm-1.85 3.46c-.33 0-.6.27-.6.6v3.04h-6.76l-.01-.94c0-.23-.14-.44-.35-.54s-.45-.07-.63.08l-1.81 1.47c-.1542857.0857143-.2644898.244898-.292828.427172l-.007172.102828c0 .152.0512.2912.14336.40224l.07664.07776 1.93 1.58c.11.09.24.14.38.14.09 0 .18-.02.26-.06.21-.1.34-.32.34-.55l-.01-.99h7.34c.33 0 .6-.27.6-.6v-3.64c0-.33-.27-.6-.6-.6z"/></svg>