<svg height="32" viewBox="0 0 32 32" width="32" xmlns="http://www.w3.org/2000/svg"><path d="m16 15.19c-2.71 0-4.92-2.24-4.92-5s2.21-5 4.92-5 4.92 2.24 4.92 5c0 2.75-2.2 5-4.92 5zm0-8.8c-2.05 0-3.72 1.7-3.72 3.8s1.67 3.8 3.72 3.8 3.72-1.7 3.72-3.8-1.67-3.8-3.72-3.8zm0 10.42c2.71 0 4.92 2.24 4.92 5 0 1.33-.51 2.59-1.44 3.53-.93.95-2.17 1.47-3.48 1.47-2.71 0-4.92-2.24-4.92-5s2.21-5 4.92-5zm0 8.8c2.05 0 3.72-1.7 3.72-3.8s-1.67-3.8-3.72-3.8-3.72 1.7-3.72 3.8c0 2.09 1.67 3.8 3.72 3.8zm0-5.21c.76 0 1.39.63 1.39 1.41s-.62 1.41-1.39 1.41c-.76 0-1.38-.63-1.38-1.41s.62-1.41 1.38-1.41z"/></svg>