<svg height="32" viewBox="0 0 32 32" width="32" xmlns="http://www.w3.org/2000/svg"><path d="m16 4.405c6.4037417 0 11.595 5.19125833 11.595 11.595 0 6.4037417-5.1912583 11.595-11.595 11.595-6.40374167 0-11.595-5.1912583-11.595-11.595 0-6.40374167 5.19125833-11.595 11.595-11.595zm-.0481926 3.595c-4.3846266 0-7.9518074 3.5671807-7.9518074 7.9518072 0 4.4011085 3.5598555 8.0481928 7.9518074 8.0481928 1.7770603 0 3.5746989-.597253 4.9320001-1.6386024.3167711-.2430362.3765301-.6968193.133494-1.0135904-.2430362-.3167711-.6968675-.3765301-1.0135904-.1334939-1.1098314.851518-2.5866989 1.3495421-4.0519037 1.3495421-3.5874218 0-6.50602424-2.9714699-6.50602424-6.6120482 0-3.5874217 2.91860244-6.51566262 6.50602424-6.51566262 3.5631193 0 6.5099336 2.80496052 6.6337169 6.28759532l.0040478.2280673c-.0033751 1.5535993-.6847684 2.1686747-1.4811381 2.1686747-.7503104 0-1.3689655-.5745192-1.4391523-1.3067445l-.0066309-.1390386v-3.6144578c0-.399229-.3236626-.7228916-.7228915-.7228916-.3659599 0-.6684231.2719665-.7162922.6248022l-.0065994.0980894v.0458313c-.6528193-.4977831-1.4425061-.7687229-2.2650603-.7687229-1.9930121 0-3.6144579 1.6214458-3.6144579 3.6144578 0 1.9930121 1.6214458 3.6144579 3.6144579 3.6144579 1.0806265 0 2.0751326-.4637109 2.7824097-1.2439518.5227952.7510361 1.3918072 1.2439518 2.3742169 1.2439518 1.5939476 0 2.8908145-1.2629941 2.891566-3.6167363-.0012613-4.3967322-3.653289-7.9495288-8.0481926-7.9495288zm.0481926 5.8086957c1.210224 0 2.1913043.9810803 2.1913043 2.1913043s-.9810803 2.1913043-2.1913043 2.1913043-2.1913043-.9810803-2.1913043-2.1913043.9810803-2.1913043 2.1913043-2.1913043z" fill-rule="evenodd"/></svg>