<svg height="32" viewBox="0 0 32 32" width="32" xmlns="http://www.w3.org/2000/svg"><g fill="none"><path d="m26.1290177 18.8169091c0 1.1912727-.9466363 2.1485454-2.106 2.1485454h-15.63545451c-1.15936364 0-2.106-.967909-2.106-2.1485454v-9.7429091c0-1.19127273.94663636-2.14854545 2.106-2.14854545h15.62481821c1.1593636 0 2.106.96790909 2.106 2.14854545v9.7429091z" fill="#000"/><path d="m24.0230177 8.84h-15.63545451c-1.86136364 0-3.38236364 1.5422727-3.38236364 3.4249091v9.7429091c0 1.8932727 1.521 3.4249091 3.38236364 3.4249091h15.62481821c1.8613636 0 3.3824191-1.5422728 3.3824191-3.4249091v-9.7429091c.0105809-1.8826364-1.5104191-3.4249091-3.3717828-3.4249091z" fill="#989110"/><path d="m24.0230177 6.71272727h-15.63545451c-1.86136364 0-3.38236364 1.54227273-3.38236364 3.42490913v7.6156363c0 1.8932728 1.521 3.4249091 3.38236364 3.4249091h15.62481821c1.8613636 0 3.3824191-1.5422727 3.3824191-3.4249091v-7.6156363c.0105809-1.8826364-1.5104191-3.42490913-3.3717828-3.42490913z" fill="#cfc62a"/><path d="m22.8104723 15.4132727c.4360909 0 .6594545.5424546.3403636.8615455l-1.7443636 1.7762727-.0106364.0106364c-.1914545.1914545-.4999091.1808182-.6913636-.0106364l-1.7443637-1.7762727c-.3084545-.3190909-.0957272-.8615455.351-.8615455zm-1.755-5.71172725c.1276363 0 .2552727.05318182.351.1489091l1.755 1.77627275c.3084545.3190909.0957272.8615454-.351.8615454h-3.4993637c-.4467272 0-.6594545-.5424545-.351-.8615454l1.7443637-1.77627275c.0957272-.09572728.2233636-.1489091.351-.1489091z" fill="#1e3d4d"/></g></svg>