<svg height="32" viewBox="0 0 32 32" width="32" xmlns="http://www.w3.org/2000/svg"><path d="m22.126928 20.2772892c-1.1782776 0-2.2205489-.5911908-2.8475764-1.4919647-.8482905.9358015-2.0410762 1.4919647-3.3371526 1.4919647-2.3903689 0-4.3350905-1.9447216-4.3350905-4.3350904s1.9447216-4.3350904 4.3350905-4.3350904c.986551 0 1.9336815.3249584 2.7166567.9219871v-.054969c0-.4788252.3881929-.8670181.8670181-.8670181s.8670181.3881929.8670181.8670181v4.3350904c0 .9561475.7778886 1.7340361 1.7340361 1.7340361.955146 0 1.772392-.737706 1.7741032-2.6010542h.0023368c0-4.3026639-3.5947503-7.8147229-7.961169-7.8147229-4.302664 0-7.80316282 3.512059-7.80316282 7.8147229 0 4.3664186 3.50049882 7.9303253 7.80316282 7.9303253 1.7573301 0 3.528648-.5973177 4.859752-1.6186071.3798695-.2914915.9241835-.219818 1.215675.1601093.2914914.3799273.2198179.9241835-.1601094 1.2156749-1.6279132 1.2489685-3.7839559 1.9652988-5.9153176 1.9652988-5.2675973 0-9.537199-4.3742218-9.537199-9.6528012 0-5.2588114 4.2783875-9.5371988 9.537199-9.5371988 5.2711375 0 9.6512882 4.2611355 9.652801 9.5344661-.0009013 2.8230195-1.556331 4.3378231-3.468072 4.3378231zm-6.126928-1.6490935c1.4515124 0 2.6281957-1.1766833 2.6281957-2.6281957s-1.1766833-2.6281957-2.6281957-2.6281957-2.6281957 1.1766833-2.6281957 2.6281957 1.1766833 2.6281957 2.6281957 2.6281957z" fill="#45889f" fill-rule="evenodd"/></svg>