<svg height="32" viewBox="0 0 32 32" width="32" xmlns="http://www.w3.org/2000/svg"><path d="m22.775 7.72c1.769 0 3.2202889 1.41101111 3.3150759 3.1761767l.0049241.1838233v9.84c0 1.7883333-1.3829778 3.2589556-3.1282085 3.35501l-.1817915.00499h-13.57c-1.75933333 0-3.2103-1.4110111-3.3050763-3.1761767l-.0049237-.1838233v-9.84c0-1.78833333 1.38297778-3.25895556 3.12820852-3.35501l.18179148-.00499zm2.12 12.91c-.513.432-1.1637.7101-1.87191.7614l-.23809.0086h-13.57c-.72 0-1.3914-.2349-1.93401-.6318l-.17599-.1382v.3c0 1.1382609.86918715 2.0752363 1.9599474 2.1545607l.1500526.0054393h13.56c1.1191304 0 2.0369754-.8874858 2.1146725-2.0060919l.0053275-.1539081zm-2.12-11.71h-13.57c-1.10956522 0-2.02699433.88748582-2.1046733 2.0060919l-.0053267.1539081h.01v6.95c0 1.1382609.86918715 2.0752363 1.9599474 2.1545607l.1500526.0054393h13.56c1.1095652 0 2.0269943-.8874858 2.1046733-2.0060919l.0053267-.1539081v-6.95c0-1.13826087-.8600378-2.07523629-1.958754-2.1545607zm-.5600261 7.0099479c.3826667 0 .5911111.4442667.3732919.7474134l-.0532919.0625866-1.65 1.68c-.1575.1575-.3992187.1695313-.5777734.0494922l-.0722266-.0594922-1.64-1.67c-.2706666-.28-.1144889-.7429333.2490134-.8034133l.0809866-.0065867zm-1.65-5.37c.09 0 .18.028125.2573438.0801563l.0726562.0598437 1.65 1.67c.2706667.28.1144889.7429334-.2490133.8034134l-.0809867.0065866h-3.29c-.392 0-.5923555-.4442666-.3815466-.7474133l.0515466-.0625867 1.64-1.67c.09-.09.21-.14.33-.14z"/></svg>