<svg height="32" viewBox="0 0 32 32" width="32" xmlns="http://www.w3.org/2000/svg"><g fill="none" fill-rule="evenodd"><path d="m27.5714286 21.5h-23.5714286v-11h23.5714286z" fill="#d2eab1"/><path d="m27.5714286 12.5067221h-23.5714286v-2.0067221h23.5714286z" fill="#bedb96"/><path d="m19.8382317 6.47186923c.7520549-1.07570041 1.9986347-1.7791978 3.4094416-1.7791978.4142136 0 .75.33578644.75.75s-.3357864.75-.75.75c-1.4683733 0-2.6594097 1.19339203-2.6594097 2.66615259v14.42564218c0 1.4727636 1.1910363 2.6661568 2.6594097 2.6661568.4142136 0 .75.3357864.75.75 0 .4142135-.3357864.75-.75.75-1.4108071 0-2.6573868-.7034979-3.4094416-1.7791993-.7520549 1.0757014-1.9986345 1.7791993-3.4094417 1.7791993-.4142136 0-.75-.3357865-.75-.75 0-.4142136.3357864-.75.75-.75 1.4683734 0 2.6594098-1.1933932 2.6594098-2.6661568v-14.42564218c0-1.47276056-1.1910365-2.66615259-2.6594098-2.66615259-.4142136 0-.75-.33578644-.75-.75s.3357864-.75.75-.75c1.410807 0 2.6573867.70349739 3.4094417 1.7791978z" fill="#30748b" fill-rule="nonzero"/></g></svg>