<svg height="32" viewBox="0 0 32 32" width="32" xmlns="http://www.w3.org/2000/svg"><path d="m5.90350944 21.0103299c.82439528.902469 2.00367226 1.4696701 3.31149056 1.4696701h13.57c1.3099236 0 2.4877004-.5649704 3.3109296-1.4651295l-.0009296.9051295c0 1.7883333-1.3829778 3.2589556-3.1282085 3.35501l-.1817915.00499h-13.57c-1.75933333 0-3.2103-1.4110111-3.3050763-3.1761767l-.0049237-.1838233zm16.87149056-13.2903299c.61 0 1.1822222.16777778 1.6740741.46l.1451018.09135667c.8556334.57002 1.4370667 1.5292 1.4959 2.62482003l.0049241.1838233v6.84c0 1.7883333-1.3829778 3.2589556-3.1282085 3.35501l-.1817915.00499h-13.57c-1.75933333 0-3.2103-1.4110111-3.3050763-3.1761767l-.0049237-.1838233v-6.84c0-1.17166667.59364444-2.20695556 1.49387148-2.80864333l.14464704-.09135667c.44133333-.263.94806667-.4252 1.48969-.45501l.18179148-.00499zm-.5600261 8.1549479h-3.29l-.0809866.0065867c-.3355405.0558277-.4944259.4545742-.3039977.7358171l.0549843.0675962 1.64 1.67.0722266.0594922c.1530469.1028907.3525.10875.5055469.0091407l.0822265-.0686329 1.64-1.67.0532919-.0625866c.2010639-.2798277.0389209-.6798997-.2881916-.7397934zm-1.65-5.37c-.09 0-.18.028125-.2573437.0801563l-.0726563.0598437-1.64 1.67-.0515466.0625867c-.1945929.2798277-.0388444.6798997.294587.7397934l.0869596.0076199h3.29l.0809867-.0065866c.3355405-.0558277.4944259-.4545742.3039977-.7358171l-.0549844-.0675963-1.65-1.67-.0726562-.0598437c-.0773438-.0520313-.1673438-.0801563-.2573438-.0801563z"/></svg>