<svg height="32" viewBox="0 0 32 32" width="32" xmlns="http://www.w3.org/2000/svg"><g fill="none" fill-rule="evenodd"><path d="m12.5527667 4h6.8944666c3.0060859 0 5.443 2.4369141 5.443 5.44299999 0 3.00608591-2.4369141 5.44300001-5.443 5.44300001h-6.8944666c-3.00608591 0-5.44300002-2.4369141-5.44300002-5.44300001 0-3.00608589 2.43691411-5.44299999 5.44300002-5.44299999z" fill="#00b1dd"/><circle cx="19.456305" cy="9.443" fill="#fff" r="3.628667"/><path d="m19.4472333 17.114h-6.8944666c-3.00608591 0-5.44300002 2.4369141-5.44300002 5.443s2.43691411 5.443 5.44300002 5.443h6.8944666c3.0060859 0 5.443-2.4369141 5.443-5.443s-2.4369141-5.443-5.443-5.443z" fill="#c2c2c2"/><path d="m12.543695 26.1856667c-2.0040573 0-3.62866665-1.6246094-3.62866665-3.6286667 0-2.0040572 1.62460935-3.6286666 3.62866665-3.6286666s3.6286667 1.6246094 3.6286667 3.6286666c0 2.0040573-1.6246094 3.6286667-3.6286667 3.6286667z" fill="#fff"/></g></svg>