<svg height="32" viewBox="0 0 32 32" width="32" xmlns="http://www.w3.org/2000/svg"><path d="m22.565 6.22c.33 0 .6.27.6.6s-.27.6-.6.6c-1.27 0-2.3 1.05-2.3 2.35v.72h5.66c.33 0 .6.27.6.6v9.82c0 .33-.27.6-.6.6h-5.66v.72c0 1.29 1.03 2.35 2.3 2.35.33 0 .6.27.6.6s-.27.6-.6.6c-1.21 0-2.27-.63-2.9-1.57-.63.95-1.69 1.57-2.9 1.57-.33 0-.6-.27-.6-.6s.27-.6.6-.6c1.27 0 2.3-1.05 2.3-2.35v-.72h-12.99c-.33 0-.6-.27-.6-.6v-9.82c0-.33.27-.6.6-.6h12.99v-.72c0-1.29-1.03-2.35-2.3-2.35-.33 0-.6-.27-.6-.6s.27-.6.6-.6c1.21 0 2.27.63 2.9 1.57.63-.95 1.69-1.57 2.9-1.57zm-2.9 5.47c-.3313708 0-.6.2686292-.6.6v7.42c0 .3313708.2686292.6.6.6s.6-.2686292.6-.6v-7.42c0-.3313708-.2686292-.6-.6-.6z"/></svg>