<svg height="32" viewBox="0 0 32 32" width="32" xmlns="http://www.w3.org/2000/svg"><g fill="none" fill-rule="evenodd"><path d="m27.6198533 17.9725002v3.622045c0 1.912888-1.5104896 3.463911-3.3733874 3.463911h-16.87307845c-1.86289783 0-3.37338745-1.551023-3.37338745-3.463911v-3.622045" fill="#257843"/><path d="m24.2464659 21.6841914h-16.87307845c-1.86289783 0-3.37338745-1.505518-3.37338745-3.3622844v-8.45985798c0-1.85676638 1.51048962-3.36204902 3.37338745-3.36204902h16.87307845c1.863134 0 3.3733874 1.50528264 3.3733874 3.36204902v8.45985798c0 1.8567664-1.5102534 3.3622844-3.3733874 3.3622844z" fill="#6ec18d"/><g fill-rule="nonzero"><path d="m12.8324805 14.6856619.0156781 1.0951094c.0090647.6331712-.7221522.9919175-1.2173586.5972549l-2.64454992-1.5183567c.00359645-.4800899.00367158-.7907849.0002254-.9320851-.00548747-.2249976.08922266-.4520176.28402328-.6063555l2.30884704-1.8292695c.4877317-.3864234 1.2067669-.0450738 1.2156745.5771206l.0159855 1.1165819h8.6600239v-3.63654419c0-.41421356.3357864-.75.75-.75s.75.33578644.75.75v4.38654419c0 .4142136-.3357864.75-.75.75z" fill="#55aa75"/><path d="m12.8324805 15.6856619.0156781 1.0951094c.0090647.6331712-.7221522.9919175-1.2173586.5972549l-2.3619853-1.8824218c-.3774439-.3008099-.37662101-.8746494.00168406-1.1743755l2.30884704-1.8292695c.4877317-.3864234 1.2067669-.0450738 1.2156745.5771206l.0159855 1.1165819h8.6600239v-3.6365442c0-.4142135.3357864-.74999999.75-.74999999s.75.33578649.75.74999999v4.3865442c0 .4142136-.3357864.75-.75.75z" fill="#fff"/></g></g></svg>