<svg height="32" viewBox="0 0 32 32" width="32" xmlns="http://www.w3.org/2000/svg"><path d="m22.975 19.745-.67.68c-.23.24-.23.62.01.85.12.11.27.17.42.17.16 0 .31-.06.43-.18l.67-.68c.23-.24.23-.62-.01-.85s-.62-.22-.85.01zm2.95-11.98h-19.85c-.33 0-.6.27-.6.6v15.27c0 .33.27.6.6.6h19.85c.33 0 .6-.27.6-.6v-15.27c0-.34-.27-.6-.6-.6zm-.6 15.27h-18.65v-14.07h18.65zm-5.55-1.54c.16 0 .31-.06.43-.18l3.51-3.57c.23-.24.23-.62-.01-.85s-.62-.23-.85.01l-3.51 3.57c-.23.24-.23.62.01.85.12.11.27.17.42.17z"/></svg>