<svg height="32" viewBox="0 0 32 32" width="32" xmlns="http://www.w3.org/2000/svg"><path d="m19.4472333 16.514c3.3374568 0 6.043 2.7055433 6.043 6.043 0 3.2616055-2.5839615 5.9196944-5.8164497 6.0388319l-.2265503.0041681h-6.8944666c-3.33745676 0-6.04300002-2.7055433-6.04300002-6.043 0-3.2616054 2.58396151-5.9196943 5.81644972-6.0388318l.2265503-.0041682zm0 1.2h-6.8944666c-2.67471506 0-4.84300002 2.168285-4.84300002 4.843 0 2.6024255 2.05266421 4.7254255 4.62727382 4.8382813l.2157262.0047187h6.8944666c2.6747151 0 4.843-2.168285 4.843-4.843 0-2.6024254-2.0526642-4.7254255-4.6272738-4.8382813zm-6.9035383 1.2143334c2.0040573 0 3.6286667 1.6246094 3.6286667 3.6286666 0 2.0040573-1.6246094 3.6286667-3.6286667 3.6286667s-3.62866665-1.6246094-3.62866665-3.6286667c0-2.0040572 1.62460935-3.6286666 3.62866665-3.6286666zm6.9035383-15.5283334c3.3374568 0 6.043 2.70554325 6.043 6.04299999 0 3.26160541-2.5839615 5.91969431-5.8164497 6.03883181l-.2265503.0041682h-6.8944666c-3.33745676 0-6.04300002-2.7055433-6.04300002-6.04300001 0-3.26160545 2.58396151-5.91969435 5.81644972-6.03883186l.2265503-.00416813zm0 1.2h-6.8944666c-2.67471506 0-4.84300002 2.16828495-4.84300002 4.84299999 0 2.60242541 2.05266421 4.72542551 4.62727382 4.83828131l.2157262.0047187h6.8944666c2.6747151 0 4.843-2.168285 4.843-4.84300001 0-2.60242544-2.0526642-4.72542547-4.6272738-4.83828126zm.0090717 1.21433333c2.0040573 0 3.6286667 1.6246094 3.6286667 3.62866666 0 2.00405721-1.6246094 3.62866661-3.6286667 3.62866661s-3.6286667-1.6246094-3.6286667-3.62866661c0-2.00405726 1.6246094-3.62866666 3.6286667-3.62866666z"/></svg>