<svg height="32" viewBox="0 0 32 32" width="32" xmlns="http://www.w3.org/2000/svg"><path d="m15.6333333 16.7333333c2.8350617 0 5.1333334 2.2982717 5.1333334 5.1333334s-2.2982717 5.1333333-5.1333334 5.1333333-5.1333333-2.2982716-5.1333333-5.1333333 2.2982716-5.1333334 5.1333333-5.1333334zm0 2.9333334c-1.2150264 0-2.2.9849735-2.2 2.2 0 1.2150264.9849736 2.2 2.2 2.2 1.2150265 0 2.2-.9849736 2.2-2.2 0-1.2150265-.9849735-2.2-2.2-2.2zm0-14.6666667c2.8350617 0 5.1333334 2.29827162 5.1333334 5.1333333 0 2.8350617-2.2982717 5.1333334-5.1333334 5.1333334s-5.1333333-2.2982717-5.1333333-5.1333334c0-2.83506168 2.2982716-5.1333333 5.1333333-5.1333333z" fill-rule="evenodd"/></svg>