<svg height="32" viewBox="0 0 32 32" width="32" xmlns="http://www.w3.org/2000/svg"><path d="m12.3374666 13.114c3.0060859 0 5.443 2.4369141 5.443 5.443 0 2.9327667-2.3194899 5.3237876-5.2240853 5.4386781l-.2189147.0043219h-6.89446661c-3.00608589 0-5.44299999-2.4369141-5.44299999-5.443 0-2.9327667 2.31948992-5.3237875 5.22408536-5.438678l.21891463-.004322zm-6.90353828 1.8143334c-2.00405726 0-3.62866666 1.6246094-3.62866666 3.6286666 0 2.0040573 1.6246094 3.6286667 3.62866666 3.6286667s3.62866666-1.6246094 3.62866666-3.6286667c0-2.0040572-1.6246094-3.6286666-3.62866666-3.6286666zm6.90353828-14.9283334c3.0060859 0 5.443 2.4369141 5.443 5.44299999s-2.4369141 5.44300001-5.443 5.44300001h-6.89446661c-3.00608589 0-5.44299999-2.43691412-5.44299999-5.44300001s2.4369141-5.44299999 5.44299999-5.44299999zm.0090717 1.81433333c-2.0040572 0-3.62866665 1.6246094-3.62866665 3.62866666s1.62460945 3.62866666 3.62866665 3.62866666c2.0040573 0 3.6286667-1.6246094 3.6286667-3.62866666s-1.6246094-3.62866666-3.6286667-3.62866666z" fill-rule="evenodd" transform="translate(7.109767 4)"/></svg>