<svg height="32" viewBox="0 0 32 32" width="32" xmlns="http://www.w3.org/2000/svg"><path d="m9.58356881 5.9344751c-3.25807811 0-5.95022467 2.61812497-6.07098905 5.8416813l-.00422813.2258562.0053439.2618172.01806819.2754594c.22810353 2.5792794 2.1082557 4.7309625 4.61813471 5.3315514l.23711486.0517267.56612486.0978717-.0553965 4.0570647-1.95360029-.0622396-.09898048.0025537-.11693739.0257509c-.26815532.0789298-.45656849.2960573-.49560039.5421708l-.0074987.093438.00268951.086736.01888495.1038793c.06775885.2675985.29062568.4672001.56062952.5082524l.10325011.0077857 2.0494976-.001017-.06211961 1.9554899.00255369.0989805.02575097.1169374c.07892978.2681553.29605728.4565685.54217077.4956004l.09343797.0074987.08673607-.0026895.10387925-.018885c.2675985-.0677588.4672001-.2906256.5082524-.560594l.0077858-.1032351-.0013143-2.051632 1.9557872.0642035.0989804-.0025537.1169374-.0257509c.2681554-.0789298.4565685-.2960573.4956004-.5421708l.0074987-.093438-.0026895-.086736-.0188849-.1038793c-.0677589-.2675985-.2906257-.4672001-.5608419-.5082524l-.1033401-.0077857-2.0504909-.0007538.0625768-4.0558457.553834-.0891091c2.7566679-.5148316 4.7919799-2.992356 4.7919799-5.8606035 0-3.35024968-2.7056822-6.0751347-6.03058779-6.0751347zm12.96639679.03111992c-.205027-.06432788-.4306796-.02834797-.6062475.0985248l-.0832829.0709672-2.6534429 2.65179152-.0695445.07474898-.0678806.11154791c-.1224865.24021654-.1014164.51397257.0353055.70894499l.0655945.07840866.066645.06286637.1045153.06919702c.2314957.12759363.5154102.10924923.7281299-.04268878l.0864464-.0732595 1.609625-1.6106353-.1066435 5.86539031-.5530488.0915213c-2.756668.5148316-4.7919799 2.992356-4.7919799 5.8606034 0 3.3502497 2.7056821 6.0751348 6.0305878 6.0751348 3.2580781 0 5.9502246-2.618125 6.070989-5.8416813l.0042282-.2258563-.0053599-.2620605-.0173225-.2668978c-.2328854-2.675898-2.2400139-4.8826617-4.8816269-5.3966881l-.2418628-.0420324-.2999405-.0459382.0568575-5.8594013 1.4736249 1.63032311.0826348.07831206.1115479.06788802c.2745367.14000021.5929019.09247522.8034228-.11808159.2407299-.24072993.2647989-.61607405.0722016-.88373941l-.0722238-.08490133-2.6518057-2.65345499-.1067508-.09123875-.0983582-.05920992zm-.2052212 9.35725018c2.5938606 0 4.7052257 2.0902322 4.7052257 4.6606787 0 2.5944518-2.1107753 4.7052258-4.7052257 4.7052258-2.570468 0-4.6606788-2.1113422-4.6606788-4.7052258 0-2.5698834 2.0907953-4.6606787 4.6606788-4.6606787zm-12.76117559-8.01846111c2.57046799 0 4.66067879 2.11134216 4.66067879 4.70522571 0 2.5698835-2.0907953 4.6606788-4.66067879 4.6606788-2.59386063 0-4.70522573-2.0902322-4.70522573-4.6606788 0-2.59445174 2.11077529-4.70522571 4.70522573-4.70522571z"/></svg>