<svg height="32" viewBox="0 0 32 32" width="32" xmlns="http://www.w3.org/2000/svg"><path d="m9.58356881 5.5844751c3.51912779 0 6.38058779 2.88250608 6.38058779 6.4251347 0 3.0478297-2.1661163 5.6608867-5.0777254 6.2046549l-.272658.0439234-.0525676 3.4071106 1.6951799.0006232c.4836425 0 .889816.331767 1.0033453.7801257l.0235452.1250087.0080639.1298201c0 .462835-.3056876.8612256-.7535978.9930651l-.1384762.0313531-.152488.0103852-1.6293372-.0520318.0010826 1.690045c0 .4836425-.331767.889816-.78012568 1.0033453l-.12500869.0235453-.12982012.0080639c-.46283501 0-.86122562-.3056877-.99306506-.7535978l-.03135319-.1384762-.01038519-.152488.050326-1.6290924-1.6883392.0008378c-.4836425 0-.889816-.331767-1.0033453-.7801257l-.02354523-.1250087-.00806396-.1298201c0-.462835.30568769-.8612256.7535978-.9930651l.13847623-.0313532.152488-.0103852 1.63227662.0505709.04645504-3.4022206-.27170166-.0469718c-2.78665878-.5494638-4.89513835-2.8803283-5.14426527-5.6973297l-.01867111-.2832726-.00601924-.2772393c0-3.52708794 2.89795546-6.4251347 6.42513472-6.4251347zm13.22330139.10859322.1266622.07502672.0219158.01669465.1211373.10280996 2.6728166 2.67281664c.4041801.4041801.4041817 1.0594559.0000221 1.46361551-.31968.3197345-.802687.3900575-1.209912.1823928l-.1326069-.0795565-.1314832-.1136771-.9034127-.99711123-.0452326 4.66139673c2.9255772.4480747 5.1657554 2.8423932 5.4191844 5.7543402l.0178986.2744679.0060193.2772393c0 3.527088-2.8979555 6.4251348-6.4251347 6.4251348-3.5191278 0-6.3805878-2.8825061-6.3805878-6.4251348 0-3.0478297 2.1661163-5.6608866 5.0777254-6.2046548l.272658-.0451576.0855751-4.70662922-.9963463.99697162c-.3334523.3334523-.8378455.3918065-1.2310883.1750625l-.1265773-.0824369-.105972-.0926256c-.3196922-.31969217-.390008-.8026531-.1823689-1.20986797l.0795468-.13260501.1028221-.12116463 2.6728166-2.67281664c.3196934-.31969335.8026902-.39001092 1.1939224-.19453133zm-.4621258 9.97977688c-2.3765838 0-4.3106788 1.9340949-4.3106788 4.3106787 0 2.4018514 1.9347818 4.3552258 4.3106788 4.3552258 2.4011494 0 4.3552257-1.9540723 4.3552257-4.3552258 0-2.3758768-1.9533986-4.3106787-4.3552257-4.3106787zm-12.76117559-8.01846111c-2.40114947 0-4.35522573 1.95407232-4.35522573 4.35522571 0 2.3758769 1.95339865 4.3106788 4.35522573 4.3106788 2.37658379 0 4.31067879-1.934095 4.31067879-4.3106788 0-2.40185131-1.9347818-4.35522571-4.31067879-4.35522571z"/></svg>