<svg height="32" viewBox="0 0 32 32" width="32" xmlns="http://www.w3.org/2000/svg"><path d="m18.665639 3.54440225c1.5536487 0 2.2907414.14233917 3.0562749.55175095.6912278.36967264 1.2372948.91573972 1.6069675 1.60696747.3838235.71768762.5329153 1.4103785.5500524 2.77432852l.0016985.28194642v8.24754269c0 1.5536488-.1423391 2.2907415-.5517509 3.056275-.3696727.6912277-.9157397 1.2372948-1.6069675 1.6069675-.7176876.3838235-1.4103785.5329153-2.7743285.5500524l-2.4382177.0001691.0007826 1.8503984 1.8709005.0005441c.0454029 0 .0903483.0061815.1343635.0186552l.0652659.0234438.063516.0329653.0500241.0351603c.1913485.1537411.2397088.4194904.1266187.6278367l-.0500128.0751082-2.3699058 2.9496199c-.0226853.0282345-.0483714.0539206-.0766059.0766059-.1913485.1537411-.4612764.1437241-.6403725-.0115889l-.0625724-.065017-2.3699058-2.9496199c-.0713382-.0887886-.1102246-.1992724-.1102246-.3131695 0-.2454581.1768735-.449608.410097-.4919443l.0898648-.0080557 1.8694493-.0005441-.0002826-1.8503984-2.4579531-.0001691c-1.27302-.0159947-1.9612987-.1469365-2.630918-.476387l-.1434105-.0736654c-.69122776-.3696727-1.23729483-.9157398-1.60696748-1.6069675-.38382354-.7176876-.5329153-1.4103785-.55005245-2.7743285l-.00169849-.2819465v-8.24754269c0-1.55364875.14233917-2.29074148.55175094-3.05627494.36967265-.69122775.91573972-1.23729483 1.60696748-1.60696747.7176876-.38382354 1.4103785-.5329153 2.7743285-.55005246l.2819464-.00169849zm-9.313639 14.52159775.02372261.2429156c.05963058.5116042.17086062.8467388.35357185 1.1883791.25783289.4821055.63260464.8568773 1.11471024 1.1147102.3416403.1827113.6767748.2939413 1.1883791.3535719l.2305967.0224547.3805668.0220975.4429057.0105359 2.4249147-.0002626v-1.715l-2.3904397-.0006888c-.5776001-.0053253-1.0366885-.0332567-1.4276094-.0912256l-.1804476-.0296261c-.059214-.0107817-.1168964-.0223654-.1732575-.0347847l-.1677403-.0406664c-.0712141-.0187022-.1404643-.0389043-.2082254-.0606766-.239656-.0768562-.4609617-.1737007-.6855617-.2938181-.2304093-.1232243-.44468954-.2660479-.64168406-.427314l-.19118975-.1673709zm13.2964855.0025084c-.2697143.2702148-.579885.5-.9265716.6854076-.7176876.3838235-1.4103785.5329153-2.7743285.5500524l-.2819464.0016985-2.1552713-.0002646v1.715l2.4031793.0002626.4429057-.0105359.3805668-.0220975c.646581-.0517641 1.0285297-.1672137 1.4189758-.3760266.4821056-.2578329.8568774-.6326047 1.1147102-1.1147102.1827113-.3416403.2939413-.6767749.3535719-1.1883791zm-3.8155084-13.32354642-5.7465241.00070709-.2298609.00388964-.410505.01618288c-.7603126.04410572-1.1761412.16079162-1.6020824.38858745-.4821056.25783288-.85687735.63260468-1.11471024 1.11471026-.20248518.37861436-.3171798.74923856-.37114453 1.36091712l-.01744291.2411653-.01618289.41050499-.00459673.31043081.00070709 5.74652408.00388964.2298608.01618289.410505.01392253.1998762c.00918986.111768.02042561.2163944.03379036.3144165.06220481.4560847.17044105.7691068.34087455 1.0877898.25783289.4821055.63260464.8568773 1.11471024 1.1147102l.0969952.0500155.1589816.0731232.1584026.0616025c.0990853.0350515.203028.0654209.3154825.0915055l.2491363.0486174.1749706.0244914.2939058.0285145c.0522688.0039411.1062768.0074887.1621694.0106609l.3113601.0132968.3527257.007147 5.7954125-.0003147.2298609-.0038897.410505-.0161828c.7603126-.0441058 1.1761412-.1607917 1.6020824-.3885875.4821056-.2578329.8568774-.6326047 1.1147102-1.1147102l.045561-.088045.0826924-.1800579c.0594429-.1418532.1080299-.2904213.1470778-.4578231l.0359169-.1741285c.0140497-.0775788.0264333-.1593455.0372539-.2462495l.0231601-.2241216.0169254-.2316569.0138793-.3408464.0057418-.2784533.0017303-.27278-.0012789-5.57538015-.0038896-.22986084-.0161829-.41050499c-.0441057-.76031266-.1607916-1.17614126-.3885875-1.60208242-.2578328-.48210558-.6326046-.85687738-1.1147102-1.11471026-.3786144-.20248518-.7492386-.3171798-1.3609171-.37114453l-.2411653-.01744292-.410505-.01618288zm-2.1367664 2.85221221c.3170634.0001201.5741127.25711564.5742991.57417905l.0004149 1.98383556 1.9832537-.0000364c.2853993-.0000147.5221687.2082057.5666728.4810233l.0075063.0931452v1.3914273c0 .3170865-.2570926.5741453-.5741791.5742402l-1.9832537.000211-.0004148 1.9835165c-.0001865.3170634-.2572358.5740589-.5742992.5741791h-1.3914272c-.2853993 0-.5221649-.2081569-.5666641-.4809748l-.0074455-.0932043.0002402-1.9835165-1.9840983-.0002111c-.3170865-.0000948-.5741791-.2571536-.5741791-.5742401v-1.3914273c0-.2853993.2082153-.5221649.4810337-.566664l.0931454-.0075045 1.9840983.0000364-.0002402-1.98383555c-.0000971-.2853993.2080937-.52219009.4809062-.56672225l.0932034-.00745681z"/></svg>