<svg height="32" viewBox="0 0 32 32" width="32" xmlns="http://www.w3.org/2000/svg"><g fill="none" fill-rule="evenodd"><path d="m13.0381789 5.87106676h5.9236422c1.7830375 0 2.4296099.18565122 3.0814618.53426541.6518518.34861418 1.163429.86019133 1.5120432 1.51204318.3486141.65185185.5342654 1.29842433.5342654 3.08146185v5.9236421c0 1.7830375-.1856513 2.42961-.5342654 3.0814618-.3486142.6518519-.8601914 1.163429-1.5120432 1.5120432-.6518519.3486142-1.2984243.5342654-3.0814618.5342654h-5.9236422c-1.7830375 0-2.4296099-.1856512-3.08146178-.5342654-.65185185-.3486142-1.163429-.8601913-1.51204318-1.5120432-.34861419-.6518518-.53426541-1.2984243-.53426541-3.0814618v-5.9236421c0-1.78303752.18565122-2.42961.53426541-3.08146185.34861418-.65185185.86019133-1.163429 1.51204318-1.51204318.65185188-.34861419 1.29842428-.53426541 3.08146178-.53426541z" fill="#005a7d"/><path d="m13.0381789 3.83832612h5.9236422c1.7830375 0 2.4296099.18565122 3.0814618.53426541.6518518.34861418 1.163429.86019133 1.5120432 1.51204318.3486141.65185186.5342654 1.29842433.5342654 3.08146181v5.92364218c0 1.7830374-.1856513 2.4296099-.5342654 3.0814618-.3486142.6518518-.8601914 1.163429-1.5120432 1.5120432-.6518519.3486141-1.2984243.5342654-3.0814618.5342654h-5.9236422c-1.7830375 0-2.4296099-.1856513-3.08146178-.5342654-.65185185-.3486142-1.163429-.8601914-1.51204318-1.5120432-.34861419-.6518519-.53426541-1.2984244-.53426541-3.0814618v-5.92364218c0-1.78303748.18565122-2.42960995.53426541-3.08146181.34861418-.65185185.86019133-1.163429 1.51204318-1.51204318.65185188-.34861419 1.29842428-.53426541 3.08146178-.53426541z" fill="#5aadca"/><path d="m16.011145 19.514626c-.2452279 0-.4541217.1779335-.493465.4191422l-.0058389.0641958-.0011908 4.0728367-1.8694493.0005441c-.2761062 0-.4999618.2238597-.4999618.5 0 .1138971.0388864.2243809.1102246.3131695l2.3699058 2.9496199c.1729587.215267.4876779.2495646.7029449.0766059.0282345-.0226853.0539206-.0483714.0766059-.0766059l2.3699058-2.9496199c.1729588-.215267.1386611-.5299862-.0766059-.7029449l-.0500241-.0351603-.063516-.0329653c-.06445-.0281907-.1315251-.042099-.1996294-.042099l-1.8709005-.0005441.0009947-4.0561532c0-.276162-.2238558-.5000215-.5-.5000215z" fill="#007b3d" fill-rule="nonzero"/><path d="m16.011145 19.514626c.2761442 0 .5.2238595.5.5000215l-.0017365 2.0349785h-.999l.0014326-2.051662.0058389-.0641958c.0393433-.2412087.2482371-.4191422.493465-.4191422z" fill="#00280e"/><path d="m13.0381789 3.83832612h5.9236422c1.7830375 0 2.4296099.18565122 3.0814618.53426541.6518518.34861418 1.163429.86019133 1.5120432 1.51204318.3486141.65185186.5342654 1.29842433.5342654 3.08146181v5.92364218c0 1.7830374-.1856513 2.4296099-.5342654 3.0814618-.3486142.6518518-.8601914 1.163429-1.5120432 1.5120432-.6518519.3486141-1.2984243.5342654-3.0814618.5342654h-5.9236422c-1.7830375 0-2.4296099-.1856513-3.08146178-.5342654-.65185185-.3486142-1.163429-.8601914-1.51204318-1.5120432-.34861419-.6518519-.53426541-1.2984244-.53426541-3.0814618v-5.92364218c0-1.78303748.18565122-2.42960995.53426541-3.08146181.34861418-.65185185.86019133-1.163429 1.51204318-1.51204318.65185188-.34861419 1.29842428-.53426541 3.08146178-.53426541z" fill="#5aadca"/><g fill-rule="nonzero"><path d="m17.6438297 7.71795903.0005369 2.56689717 2.5661443-.000047c.3692799-.0000191.6756373.2693986.7332215.622399l.0097123.1205212v1.8003764c0 .4102801-.3326537.7428902-.7429338.7430129l-2.5661443.0002731-.0005368 2.5664843c-.0002413.4102504-.3328389.7427785-.7430893.7429339h-1.8003764c-.3692799 0-.6756324-.2693354-.7332101-.6223363l-.0096338-.1205976.0003107-2.5664843-2.5672371-.0002731c-.4102802-.0001227-.7429339-.3327327-.7429339-.7430129v-1.8003764c0-.3692799.269411-.6756324.6224125-.7332101l.1205214-.0097102 2.5672371.0000471-.0003107-2.56689716c-.0001256-.36927993.2692537-.67566502.6222475-.73328545l.1205964-.00964841h1.8003764c.4102504.00015539.7428481.33268352.7430892.74293385z" fill="#005a7d"/><path d="m17.6443666 11.2848562 2.5661443-.000047c.3692799-.0000191.6756373.2693986.7332215.622399l.0097123.1205212v.8003764c0 .4102801-.3326537.7428902-.7429338.7430129l-2.5661443.0002731-.0005368 2.5664843c-.0002413.4102504-.3328389.7427785-.7430893.7429339h-1.8003764c-.3692799 0-.6756324-.2693354-.7332101-.6223363l-.0096338-.1205976.0003107-2.5664843-2.5672371-.0002731c-.4102802-.0001227-.7429339-.3327327-.7429339-.7430129v-.8003764c0-.3692799.269411-.6756324.6224125-.7332101l.1205214-.0097102 2.5672371.0000471-.0003107-2.56689716c-.0001256-.36927993.2692537-.67566502.6222475-.73328545l.1205964-.00964841h1.8003764c.4102504.00015539.7428481.33268352.7430892.74293385z" fill="#f5f5f5"/></g></g></svg>