<svg height="32" viewBox="0 0 32 32" width="32" xmlns="http://www.w3.org/2000/svg"><path d="m8.81722898 17.9052192c.33111887.4003722.73643869.7308836 1.20693142.9825058.7934355.424334 1.5575575.5718927 3.1793779.5718927h5.5978418c1.6218205 0 2.3859425-.1475587 3.179378-.5718927.3714964-.1986784.7023605-.4465404.9881482-.7391418l-.0193927.466273c-.0471047.8055904-.1717325 1.2496824-.4150795 1.7047016-.2765961.5171898-.6790995.9196931-1.1962892 1.1962893-.4550192.2433469-.8991112.3679747-1.7047016.4150794l-.4346442.0172828-.2431486.0041538-2.4166753.000025-.0008581 2.5736201 1.9644455.0005713c.047673 0 .0948657.0064906.1410816.019588l.0685293.024616.0666917.0346136.0525254.0369183c.2009158.1614281.2516942.4404649.1329496.6592285l-.0525134.0788636-2.4884011 3.0971009c-.0238197.0296462-.05079.0566166-.0804362.0804362-.2009159.1614282-.4843402.1509103-.6723912-.0121683l-.065701-.0682679-2.4884011-3.0971009c-.0749051-.093228-.1157358-.209236-.1157358-.328828 0-.257731.1857172-.4720883.4306018-.5165414l.0943581-.0084586 1.9629218-.0005713.0003331-2.5736201-2.5701525.0007301-.3283436-.0049089-.4346442-.0172828c-.8055904-.0471047-1.2496824-.1717325-1.7047016-.4150794-.51718975-.2765962-.91969313-.6790995-1.19628925-1.1962893-.28390474-.5308557-.40621956-1.0468384-.43236225-2.1393458zm4.12421882-13.73357653 5.8599323-.00135282c.2719925 0 .5136324.00398694.730739.01260451l.4032263.02360004c.6855996.05528537 1.0935187.17859633 1.5106196.40166435.5171898.27659611.9196932.6790995 1.1962893 1.19628928.223068.41710091.346379.82501998.4016643 1.51061964l.0236001.40322622.0088025.30452461c.0010286.05334744.0018426.10803412.0024492.1641239l.0013528 5.8599323-.0055067.5052391c-.0018673.0780362-.0042253.153131-.0070978.2254999l-.0236001.4032262c-.0552853.6855997-.1785963 1.0935187-.4016643 1.5106197-.2765961.5171897-.6790995.9196931-1.1962893 1.1962892-.4171009.2230681-.82502.346379-1.5106196.4016644l-.4032263.0236-.4686485.0112517-5.8599323.0013528c-.2719924 0-.5136324-.0039869-.730739-.0126045l-.4032262-.0236c-.6855997-.0552854-1.0935187-.1785963-1.5106196-.4016644-.5171898-.2765961-.9196932-.6790995-1.19628932-1.1962892-.22306801-.417101-.34637897-.82502-.40166434-1.5106197l-.02360004-.4032262-.00880253-.3045246c-.00102857-.0533475-.00184261-.1080341-.00244916-.1641239l-.00135282-5.85993232.00550665-.50523909c.00186733-.07803625.00422534-.15313104.00709786-.2254999l.02360004-.40322622c.05528537-.68559966.17859633-1.09351873.40166434-1.51061964.27659612-.51718978.67909952-.91969317 1.19628932-1.19628928.4171009-.22306802.8250199-.34637898 1.5106196-.40166435l.4032262-.02360004zm3.7547629 3.42553152h-1.3914272l-.0932034.00745681c-.2425.03958414-.4339409.23107634-.4734213.47358651l-.0074849.09313574.0002402 1.98383555-1.9840983-.0000364-.0931454.0075045c-.2425053.0395548-.4339661.2310238-.473519.4735292l-.0075147.0931348v1.3914273c0 .2853778.208245.5221333.48105.5666997l.0931291.0075404 1.9840983.0002111-.0002402 1.9835165.0074455.0932043c.0395548.2425048.2310238.4339194.4735292.4734621l.0931349.0075127h1.3914272c.2853571-.0001082.5221027-.2082853.5667342-.4810589l.007565-.0931202.0004148-1.9835165 1.9832537-.000211c.2853778-.0000854.5221606-.2083116.5666634-.481112l.0075157-.0931282v-1.3914273l-.0075063-.0931452c-.0395592-.2425045-.2310317-.4339693-.4735378-.4735128l-.093135-.0075105-1.9832537.0000364-.0004149-1.98383556c-.0001677-.28535707-.2083944-.52205916-.4811773-.56663356z"/></svg>