<svg height="32" viewBox="0 0 32 32" width="32" xmlns="http://www.w3.org/2000/svg"><g fill="none" fill-rule="evenodd"><path d="m22.2463104 5.21577786c-1.3436043-.85003257-2.7897833-.76793146-3.9679446.22555401-.3175817.26781093-.5982144.56319569-.869541.84886068-.1129149.11877432-.2195567.23106878-.3292317.34205349-.0639713.06479853-.12229.12863197-.1786785.19039737-.0745183.0816875-.1449005.15875639-.2133526.22079753-.0327439.02971081-.0459793.02660875-.0749319.00055148-.0676937-.06100713-.1378692-.13855855-.2121117-.22065966-.0596974-.06597042-.1214628-.13421567-.1900527-.20335708-.1081584-.10905454-.2147313-.21983244-.3213731-.33074821-.2792541-.29035254-.5679522-.59056273-.8899457-.86512925-.7123013-.60731384-1.5500635-.87071295-2.4227755-.76152054-1.2017369.15034637-2.2495429.87595198-2.80294986 1.94092263-.55209722 1.06248901-.54375614 2.33350519.02219694 3.39992349.38562012.7266396.84775772 1.4052318 1.37352192 2.0170953 1.2861129 1.4965702 2.8336257 2.8705058 5.0178875 4.4548986.0834109.0605246.2502326.1572399.4633095.1572399.1410401 0 .3023471-.0423948.4730981-.1655809 1.7166095-1.2390306 3.0643499-2.3829313 4.241615-3.5999028.8745733-.9040773 1.5458584-1.7868538 2.052183-2.6987896.3692827-.66535679.535484-1.26446741.5228001-1.88536136-.0315031-1.32609493-.6171715-2.38603335-1.6937232-3.06724508z" fill="#b34874"/><path d="m13.9077825 21.0654445c-.1172916-.023017 4.0713101-1.1115769 4.0006926-1.13285l1.7718189-1.1332629c.3559931-.1909739.7905237-.1460786 1.1010942.1137641.3119917.2610318.7465025.3115874 1.1088278.1290128l.5474842-.2758755c.3374734-.1700518.7435659-.111634 1.0209202.1468627l.041629.0387986c.2505869.2335492.620042.2800312.9194482.1156778.3069214-.1684786.681389-.1475112.9680963.0542063l.0661822.0465636c.2098211.147623.2617361.4395382.1159554.6520109-.0294214.0428811-.0657155.0804796-.1073812.1112406l-4.9692123 3.6844292c-1.4130621 1.043235-3.2078348 1.4040434-4.907273.9865235l-5.2983726-1.30171-3.6710542 1.9599859-2.44565406-4.4534504 4.05621414-2.2648864c1.78775172-.9982349 3.80351972-.1439117 5.64305222.7526776l2.1895753.0849925c.4417008.2152852.8971755.3998331 1.3632485.5524391.2106921.0710323-1.6602129 1.4968856-3.5152918 1.13285z" fill="#69043f"/><path d="m17.8876545 19.8410739c.4836183.0287064.8523972.4440277.8236908.927646s-.4440277.8523972-.927646.8236908c-.0136944-.0008129-.0273678-.0019469-.041009-.0034011l-3.348698-.3570005c-.0710733-.0075767-.1348317.0438976-.1424084.1149709-.0004857.0045568-.0007291.0091362-.0007291.0137188 0 .085821.0552966.1618681.1369378.1883248l2.6344396.8537182c1.7811001.5771845 3.7147516.4580061 5.4114921-.333531l.4008344-.1869911-2.3412207 1.733803c-1.4130621 1.043235-3.2078348 1.4040434-4.907273.9865235l-5.2983726-1.30171-3.6710542 1.9599859-2.44565406-4.4534504 4.05621414-2.2648864c1.78775172-.9982349 3.94204242-1.0586036 5.78157492-.1620143.6851037.3741241 1.2766524.7080819 2.0510526.9996844.5185602.1952652 1.1278364.3489047 1.8278287.4609185z" fill="#fa8bb9"/></g></svg>