<svg height="32" viewBox="0 0 32 32" width="32" xmlns="http://www.w3.org/2000/svg"><path d="m17.6702951 26.91733c-.33 0-.66-.05-.98-.15l-4.71-1.44c-.27-.08-.56-.05-.8.09l-2.11999999 1.25c-.27.16-.62.09-.82-.16l-3.17-4.05c-.21-.27-.17-.66.1-.88l.37-.3 3.19-2.5c1.46999999-1.15 3.44999999-1.43 5.17999999-.72 1.89.77 3.79 1.55 5.68 2.32.27.11.5.28.68.49 1.05-.64 3.26-2 4.26-2.57.78-.44 1.74-.21 2.24.53l.01.02c.49.73.33 1.72-.37 2.26l-6.71 5.12c-.58.46-1.3.69-2.03.69zm-5.99-2.89c.22 0 .44.03.66.1l4.71 1.44c.65.2 1.36.07 1.89-.34l6.71-5.12c.17-.13.21-.37.09-.55l-.01-.02c-.13-.19-.38-.25-.58-.14-1.05.59-3.54 2.13-4.45 2.68 0 .19-.04.38-.11.57l-.01.03c-.31.85-1.2 1.33-2.08 1.11l-5.27-1.33c-.34-.08-.54-.43-.46-.76.08-.34.43-.54.76-.46l5.28 1.33c.25.06.5-.07.59-.31l.01-.03c.04-.1.04-.21.02-.3 0-.01 0-.02-.01-.03-.04-.15-.15-.28-.31-.35-1.9-.77-3.79-1.54-5.69-2.32-1.31-.53-2.81-.32-3.92999999.55l-3.06 2.39 2.44 3.14 1.64999999-.97c.37-.2.76-.31 1.16-.31zm6.52-8.32c-.26 0-.52-.09-.73-.24-1.75-1.27-2.99-2.37-4.02-3.58-.44-.52-.83-1.09-1.15-1.69-.54-1.01999999-.55-2.22999999-.02-3.23999999.53-1.02 1.53-1.71 2.67-1.85.86-.11 1.68.15 2.38.74.27.23.51.48.74.72.05.05.09.1.14.15.04-.05.09-.09.14-.14.23-.24.46-.48.73-.71 1.13-.95 2.56-1.03 3.84-.23 1.01.64 1.59 1.67 1.62 2.91v.01c.01.6-.15 1.16-.49 1.77999999-.42.76-.98 1.49-1.7 2.24-.95.98-2.02 1.89-3.4 2.88-.24.16-.49.25-.75.25zm-2.88-9.35999999c-.07 0-.15 0-.22.01-.73.09-1.37.53-1.71 1.18s-.33 1.42.01 2.07c.28.51999999.61 1.00999999.99 1.45999999.97 1.13 2.14 2.17 3.8 3.37 1.31-.94 2.33-1.81 3.23-2.74.64-.67 1.14-1.31 1.5-1.96999999.24-.42.34-.78.33-1.15v-.01c-.02-.82-.37-1.45-1.03-1.86-.81-.51-1.65-.47-2.35.13-.22.19-.43.4-.63.61-.09.1-.18.19-.27.28-.04.04-.08.08-.12.12-.07.08-.14.15-.21.22-.26.24-.64.24-.9 0-.08-.07-.15-.15-.21-.22-.04-.05-.09-.1-.13-.14-.08-.09-.17-.17-.26-.26-.21-.21-.42-.44-.65-.63-.35-.32-.74-.47-1.17-.47z"/></svg>