<svg height="32" viewBox="0 0 32 32" width="32" xmlns="http://www.w3.org/2000/svg"><path d="m9.78206787 19.5450689c1.24081963-.963851 2.90263163-1.1965047 4.35394753-.6093311 2.1049619.8641422 3.0242684.9026746 5.1292303 1.7557381.17726.0775512.2991262.2215749.3434412.3877561.0110787.0110788.0110787.0221575.0110787.0332363l.0121174.0784167c.0072704.0815327-.0010386.1708551-.0342749.2539457l-.0110787.0332362c-.0997088.26589-.3766774.4099137-.6536461.3434412l-4.6750017-.6589422c-.3655987-.08863-.7533548.132945-.8419848.5096224-.0886299.3655986.132945.7533547.5096224.8419847l5.5184452 1.1027874c.667234.1333377 1.3587349-.0472856 1.8755283-.4898971l3.4662814-2.9687224c.2336918-.2001471.5787429-.1988735.810951.0029933l.0802033.0874362c.1429249.1965682.133063.4729121-.037249.6593339l-3.8846722 4.2521233c-.4696721.5140984-1.1536987.7774998-1.8468735.7111844l-7.0870529-.6780114c-.2437324-.0775513-.4874648-.1107875-.7311973-.1107875-.4431498 0-.875221.1218662-1.2851346.3434411l-1.82799323 1.0746385-3.10440299-3.9865197zm13.87598483-13.75960722c.9633301.60956833 1.4874034 1.55803247 1.5155934 2.74466128.0113499.55559421-.1373719 1.09169605-.4678169 1.68707694-.4530742.816027-1.0537599 1.6059614-1.8363539 2.4149564-1.0534515 1.088982-2.2594493 2.1125781-3.795522 3.2212991-.1527931.1102306-.2971353.1481667-.4233422.1481667-.1906675 0-.3399445-.0865437-.414583-.1407028-1.9545418-1.4177615-3.3393019-2.6471995-4.4901536-3.9863746-.4704693-.5475135-.8840036-1.1547378-1.2290679-1.8049564-.5064315-.95426247-.5138953-2.0916052-.0198624-3.04235167.4952048-.95296713 1.4328125-1.60226041 2.508162-1.73679477.7809285-.09770858 1.5305828.1379887 2.167971.68143102.1920862.16379347.3709307.33778549.5428574.51256341l.6290827.649592.0820484.08992089c.0664344.07346649.1292294.14286179.1898038.19745276.0259076.02331682.0377511.02609263.0670513-.00049348l.0619018-.05965368.2888992-.30829563.2946062-.30607954c.242791-.25562145.4939095-.51994044.7780909-.75958555 1.0542535-.88900008 2.348337-.96246657 3.5506338-.20183238z" fill-rule="evenodd"/></svg>