<svg height="32" viewBox="0 0 32 32" width="32" xmlns="http://www.w3.org/2000/svg"><path d="m19.7369643 16.9391958c3.1667388 0 5.9565589 2.0822296 6.8573978 5.1181354l.2597494.8753783c.107272.3615157-.1636031.7244405-.5406984.7244405h-13.1528976c-.3770954 0-.6479704-.3629248-.5406985-.7244405l.2597494-.8753783c.900839-3.0359058 3.6906591-5.1181354 6.8573979-5.1181354zm0 1.128c-2.6673509 0-5.0172224 1.7538665-5.7760009 4.3110164l-.0447875.1509378h11.6415767l-.0447875-.1509378c-.7587785-2.5571499-3.10865-4.3110164-5.7760008-4.3110164zm-10.27027669-5.6050521 4.02098999 3.2252795c.1485326.1167042.2334084.2970652.2227989.4986452 0 .1909705-.0954853.381941-.2440179.4986452l-3.92550468 3.1404038c-.10609472.0954852-.25462733.1379231-.39255047.1379231-.09548525 0-.1909705-.0212189-.27584628-.0636568-.21218944-.0954853-.36072205-.3182842-.36072205-.5623021l-.03182842-2.5568827h-4.72121511c-.35011258 0-.63656833-.2864558-.63656833-.6365684s.28645575-.6365683.63656833-.6365683h4.69999617l-.03182842-2.5356639c0-.2440178.13792314-.4774262.36072206-.5835209.22279891-.1060947.48803571-.0848758.67900621.0742663zm10.17047919-5.5071437c2.479203 0 4.4889942 2.00979116 4.4889942 4.4889942 0 2.479203-2.0097912 4.4889942-4.4889942 4.4889942s-4.4889942-2.0097912-4.4889942-4.4889942c0-2.47920304 2.0097912-4.4889942 4.4889942-4.4889942zm0 1.08c-1.8827355 0-3.4089942 1.52625869-3.4089942 3.4089942 0 1.8827355 1.5262587 3.4089942 3.4089942 3.4089942s3.4089942-1.5262587 3.4089942-3.4089942c0-1.88273551-1.5262587-3.4089942-3.4089942-3.4089942z"/></svg>