<svg height="32" viewBox="0 0 32 32" width="32" xmlns="http://www.w3.org/2000/svg"><g fill="none" fill-rule="evenodd" transform="translate(3 6.913544)"><circle cx="16.514944" cy="4.387771" fill="#007880" r="4.387771"/><path d="m16.614741 10.2685701c3.1032392 0 5.8371177 2.0404767 6.7198929 5.0155063l.2763292.9312535h-13.99244421l.27632919-.9312535c.88277522-2.9750296 3.61665372-5.0155063 6.71989292-5.0155063z" fill="#007880"/><path d="m10.3654543 8.63120035-4.02098995-3.22527953c-.1909705-.15914209-.4562073-.18036103-.67900622-.07426631-.22279891.10609472-.36072205.33950311-.36072205.58352097l.03182842 2.53566385h-4.69999617c-.35011258 0-.63656833.28645575-.63656833.63656833s.28645575.63656833.63656833.63656833h4.72121511l.03182842 2.55688281c0 .2440178.14853261.4668168.36072205.562302.08487578.0424379.18036103.0636568.27584628.0636568.13792314 0 .28645575-.0424379.39255047-.1379231l3.92550474-3.14040376c.1485326-.1167042.2440178-.3076747.2440178-.49864519.0106095-.20157998-.0742663-.381941-.2227989-.4986452z" fill="#4da86d" fill-rule="nonzero"/></g></svg>