<svg height="32" viewBox="0 0 32 32" width="32" xmlns="http://www.w3.org/2000/svg"><path d="m22.2286155 14.9290797c.2580345-.1803294.6133986-.1173369.793728.1406976s.1173369.6133986-.1406976.793728c-.7890924.5514633-1.7285246.8520808-2.7115236.8520808l-.0363827-.0037655-.0410865.0031435c-.2941913-.0047268-.5848121-.0363713-.8691437-.0940596l-.2821345-.0663372c-.3040834-.0814481-.4845649-.3939831-.4031168-.6980665.0814481-.3040833.3939831-.4845649.6980665-.4031168.2830358.0758106.5760431.1169296.874643.1217273l.027772.0027093.0313827-.0022345c.664439 0 1.3007254-.1799867 1.8547119-.5140577zm-6.2639049-3.0613604c.3129459-.0341371.5943123.1918821.6284494.5048281.0804003.7370569.3856001 1.4225962.8691383 1.974562.2074368.2367921.1836396.5969107-.0531524.8043475-.2367921.2074367-.5969107.1836396-.8043475-.0531525-.6364267-.7264903-1.0389393-1.6306135-1.1449159-2.6021358-.0341371-.3129459.1918822-.5943122.5048281-.6284493zm8.112224-1.4554312c.3054492-.0761663.6148096.1097042.6909759.4151534.0959711.3848722.1406527.7724641.1396022 1.2475977-.0116036.571573-.1248586 1.1285546-.3321194 1.65042-.1161963.2925729-.4475693.4355543-.7401422.3193579s-.4355543-.4475694-.3193579-.7401422c.1571496-.3956898.2430287-.8180381.2517381-1.2423508.0007504-.3732855-.0331835-.6676457-.1058501-.9590602-.0761663-.3054491.1097043-.6148096.4151534-.6909758zm-6.0505395-2.66180559c.2806559-.14259302.6237669-.03067095.7663599.24998493s.0306709.62376691-.2499849.76635992c-.6553983.33298861-1.1961158.86147228-1.5443032 1.50896314-.1490945.2772567-.4947205.3811528-.7719773.2320583s-.3811529-.4947205-.2320584-.77197727c.4582974-.85225179 1.1691446-1.54701589 2.0319639-1.98538902zm2.6009988-.48325229.0927016.00321893c.9704228.11231451 1.8719821.52074256 2.5943546 1.16191157.2354383.20897209.2568933.56923783.0479213.80467606-.2089721.23543823-.5692379.25689329-.8046761.04792121-.5488593-.48716077-1.2324989-.79686598-1.9686659-.88206825-.3127148-.0361929-.5368802-.3190385-.5006873-.63175333s.3190385-.53688015.6317534-.50068726zm5.8003901 16.32615388c.3148023 0 .57.2551976.57.57 0 .3148023-.2551977.57-.57.57h-2.5c-.3148023 0-.57-.2551977-.57-.57 0-.3148024.2551977-.57.57-.57zm-4.9 0c.3148023 0 .57.2551976.57.57 0 .3148023-.2551977.57-.57.57h-2.5c-.3148023 0-.57-.2551977-.57-.57 0-.3148024.2551977-.57.57-.57zm-4.9 0c.3148023 0 .57.2551976.57.57 0 .3148023-.2551977.57-.57.57h-2.5c-.3148023 0-.57-.2551977-.57-.57 0-.3148024.2551977-.57.57-.57zm-1.3390234-3.6642695c.2284064-.2166356.5891843-.2070934.8058199.0213131s.2070934.5891844-.0213131.8058199c-.5565101.5278304-1.0093835 1.1566059-1.3333066 1.8564638-.1322272.2856859-.4710128.4100888-.7566987.2778615-.2856859-.1322272-.4100888-.4710128-.2778615-.7566987.3847444-.8312664.9226441-1.5780937 1.58336-2.2047596zm9.0852985-.0269789c.2139608-.230914.574603-.2446574.8055171-.0306967.668045.6189982 1.2146403 1.3595574 1.608966 2.1860104.1355617.2841189.0151323.6243372-.2689865.7598988-.2841189.1355617-.6243372.0151324-.7598989-.2689865-.331985-.6957953-.7921979-1.3193186-1.3549009-1.8407089-.2309141-.2139608-.2446575-.574603-.0306968-.8055171zm-4.1091292-1.9581735c.9198005 0 1.8219745.1740189 2.6658122.5090221.2925884.1161575.4356139.4475114.3194564.7400998-.1161575.2925883-.4475114.4356138-.7400998.3194563-.710531-.2820805-1.4700256-.4285782-2.2451688-.4285782l-.052411-.005-.0461898.0057904c-.6638964.010648-1.3150745.1288343-1.932322.3473635l-.3056981.1175932c-.2906636.120893-.6242963-.0167332-.7451893-.3073969-.1208931-.2906636.0167332-.6242963.3073968-.7451894.8387328-.3488464 1.7382608-.53748 2.6575309-.5522238l.0594715.004063zm-9.4787538.3546159c.2343146.2343146.2343146.6142136 0 .8485281l-1.38380837 1.3838084c-.23431458.2343146-.61421356.2343146-.84852814 0-.23431457-.2343146-.23431457-.6142135 0-.8485281l1.38380838-1.3838084c.23431453-.2343146.61421353-.2343146.84852813 0zm1.5292231-2.9839906.7273838.7273838c.2343145.2343145.2343145.6142135 0 .8485281l-.6868298.6868298c-.2343146.2343146-.6142136.2343146-.8485282 0s-.2343146-.6142136 0-.8485281l.2620878-.2630438-.3026417-.3026417c-.2108832-.2108831-.2319715-.5396896-.063265-.7741574l.063265-.0743707c.2343145-.2343146.6142135-.2343146.8485281 0zm-4.51203491.5053042 1.8977297.0108739c.33136541.0018969.59845241.2720595.59656551.6034249-.001907.3313654-.2720696.5984524-.603435.5965655l-1.89772971-.010874c-.33136542-.0018969-.59845238-.2720595-.59656546-.6034249.001907-.3313654.27206954-.5984524.60343496-.5965654zm-4.29992954-.0246157 1.99996723.0114592c.33136542.0018969.59845238.2720595.59656546.6034249-.001907.3313654-.27206954.5984524-.60343496.5965654l-1.99996723-.0114592c-.33136542-.0018969-.59845238-.2720595-.59656546-.6034249.001907-.3313654.27206954-.5984524.60343496-.5965654zm5.82797383-3.4646791 1.41421352 1.4142135c.2343146.2343146.2343146.6142136 0 .8485282-.2343145.2343145-.6142135.2343145-.84852809 0l-1.41421356-1.4142136c-.23431458-.2343146-.23431458-.6142136 0-.8485281.23431457-.2343146.61421356-.2343146.84852813 0z"/></svg>