<svg height="32" viewBox="0 0 32 32" width="32" xmlns="http://www.w3.org/2000/svg"><path d="m19.8092594 17.1821146c3.1032392 0 5.8371177 2.0404766 6.719893 5.0155063l.2763292.9312535h-13.9924443l.2763292-.9312535c.8827753-2.9750297 3.6166538-5.0155063 6.7198929-5.0155063zm-10.27027661-4.8626493 4.02098991 3.2252795c.1485327.1167042.2334084.2970652.222799.4986452 0 .1909705-.0954853.381941-.2440179.4986452l-3.9255047 3.1404037c-.10609472.0954853-.25462733.1379232-.39255047.1379232-.09548525 0-.1909705-.021219-.27584628-.0636568-.21218944-.0954853-.36072205-.3182842-.36072205-.5623021l-.03182842-2.5568828h-4.72121511c-.35011258 0-.63656833-.2864557-.63656833-.6365683s.28645575-.6365683.63656833-.6365683h4.69999617l-.03182842-2.5356639c0-.2440178.13792314-.4774262.36072205-.5835209.22279892-.1060948.48803572-.0848758.67900622.0742663zm10.17047921-5.40592085c2.4232992 0 4.3877713 1.96447214 4.3877713 4.38777135 0 2.4232992-1.9644721 4.3877713-4.3877713 4.3877713s-4.3877713-1.9644721-4.3877713-4.3877713c0-2.42329921 1.9644721-4.38777135 4.3877713-4.38777135z" fill-rule="evenodd"/></svg>