<svg height="32" viewBox="0 0 32 32" width="32" xmlns="http://www.w3.org/2000/svg"><path d="m26.1756885 25.2534296h1.1648416c.473059 0 .8565491.3834901.8565491.856549 0 .473059-.3834901.8565491-.8565491.8565491h-22.68106021c-.47305897 0-.85654904-.3834901-.85654904-.8565491 0-.4730589.38349007-.856549.85654904-.856549h1.16484157v-8.5034296h-1.27011259c-.76454492 0-1.03896418-1.0099661-.37954625-1.396873l11.12534738-6.52768629v-4.99581826h5.5461648v3.84052642h-4.1461648v1.15529184l11.1253474 6.52768629c.6594179.3869069.3849987 1.396873-.3795463 1.396873h-1.2701126zm-11.142337-8.5034296h-2.5236378v8.6841785h2.5236378zm-4.4569349 0h-2.52363772v8.6841785h2.52363772zm8.9138697 0h-2.5236378v8.6841785h2.5236378zm4.4569348 8.6841785v-8.6841785h-2.5236377v8.6841785z" fill-rule="evenodd"/></svg>