<svg height="32" viewBox="0 0 32 32" width="32" xmlns="http://www.w3.org/2000/svg"><path d="m4.55419887 25.8534296c-.33137085 0-.6-.2686292-.6-.6 0-.2982338.21758961-.5456468.50267688-.592147l.09732312-.007853 1.66999833-.0008072v-8.7l-1.66999833.0005046c-.58134861 0-.8066686-.7280748-.37946725-1.0658652l.0822224-.055331 11.14224318-6.35530835.0008028-4.647c0-.29823377.2175896-.54564676.5026769-.59214702l.0973231-.00785298h4.8461648c.2982338 0 .5456468.21758961.592147.50267688l.007853.09732312v3.31243306c0 .29823377-.2175896.54564675-.5026769.59214701l-.0973231.00785299-4.2461648-.00005551-.0008028.73362245 11.1438488 6.35630835c.5049945.2880048.3400269 1.0320799-.1984101 1.113866l-.0988348.0073302-1.6696039-.0005046v8.7l1.7238028.0008072c.3313708 0 .6.2686291.6.6 0 .2982338-.2175896.5456467-.5026769.592147l-.0973231.007853zm20.02199833-1.2008072v-8.7h-3.388v8.7zm-4.588-8.7h-3.388v8.7h3.388zm-9.176 0h-3.388v8.7h3.388zm4.588 0h-3.388v8.7h3.388zm.5998028-6.4366224-9.183 5.237h18.365zm4.246-5.087h-3.646v2.113h3.646z"/></svg>