<svg height="32" viewBox="0 0 32 32" width="32" xmlns="http://www.w3.org/2000/svg"><g fill="none" fill-rule="evenodd"><path d="m5.824311 16.023099h20.351377v10.943429h-20.351377z" fill="#4588a0"/><path d="m16 3.829622h4.846165v3.840526h-4.846165z" fill="#b75c64"/><path d="m15.3 3.82962245v6.22898535h1.4v-6.22898535z" fill="#af8c1d" fill-rule="nonzero"/><path d="m10.5764166 16.0562281v9.3779504h-2.52363772v-9.3779504zm4.4569349 0v9.3779504h-2.5236378v-9.3779504zm4.4569348 0v9.3779504h-2.5236378v-9.3779504zm4.4569348 0v9.3779504h-2.5236377v-9.3779504z" fill="#afdfef"/><path d="m15.6204538 8.63741767c.2343503-.1375027.5247421-.1375027.7590924 0l11.4458012 6.71570933c.6594179.3869069.3849987 1.396873-.3795463 1.396873h-22.89160223c-.76454492 0-1.03896418-1.0099661-.37954625-1.396873z" fill="#4588a0" fill-rule="nonzero"/><path d="m9.48586075 14.6129823h13.02827845l-6.5141392-3.822106z" fill="#afdfef" fill-rule="nonzero"/><path d="m7.90570874 16.2602785h16.04151236v.4897215l-16.04151236 4.9282882z" fill="#4588a0"/><path d="m12.5087789 16.75v3.502l-1.933.592v-4.094zm4.457 0v2.137l-1.933.592v-2.729zm4.457 0v.773l-1.933.592v-1.365z" fill="#3e5b63"/><path d="m4.65946989 25.2534296h22.68106021c.473059 0 .8565491.3834901.8565491.856549 0 .473059-.3834901.8565491-.8565491.8565491h-22.68106021c-.47305897 0-.85654904-.3834901-.85654904-.8565491 0-.4730589.38349007-.856549.85654904-.856549z" fill="#4588a0"/></g></svg>