<svg height="32" viewBox="0 0 32 32" width="32" xmlns="http://www.w3.org/2000/svg"><path d="m24.0390976 11.4095579c.4403319 0 .799875-.359543.799875-.8 0-.4404569-.3595431-.79999997-.8-.79999997h-2.3009635c-.4404569 0-.4396332 1.60999997 0 1.60999997z"/><path d="m14.38164 11.4095579c.4403319 0 .799875-.359543.799875-.8 0-.4404569-.3595431-.79999997-.8-.79999997h-6.34254245c-.44045695 0-.8.35954307-.8.79999997 0 .4413489.36036681.81.8.81z"/><path d="m19.2514726 7.53377693c1.7014684 0 3.080781 1.37931264 3.080781 3.08078097 0 1.7014684-1.3793126 3.080781-3.080781 3.080781-1.7014683 0-3.080781-1.3793126-3.080781-3.080781 0-1.70146833 1.3793127-3.08078097 3.080781-3.08078097z"/><path d="m10.4272171 21.9290751c.4403319 0 .799875-.359543.799875-.8 0-.4404569-.3595431-.8-.8-.8h-2.45808567c-.44045695 0-.4396332 1.61 0 1.61z" transform="matrix(-1 0 0 1 18.866064 0)"/><path d="m24.4390976 21.9290751c.4403319 0 .799875-.359543.799875-.8 0-.4404569-.3595431-.8-.8-.8h-6.3425425c-.4404569 0-.8.3595431-.8.8 0 .4413489.3603668.81.8.81z" transform="matrix(-1 0 0 1 42.535402 0)"/><path d="m13.2264725 18.0532941c1.7014683 0 3.080781 1.3793127 3.080781 3.080781 0 1.7014684-1.3793127 3.080781-3.080781 3.080781-1.7014684 0-3.080781-1.3793126-3.080781-3.080781 0-1.7014683 1.3793126-3.080781 3.080781-3.080781z" transform="matrix(-1 0 0 1 26.452944 0)"/></svg>