<svg height="32" viewBox="0 0 32 32" width="32" xmlns="http://www.w3.org/2000/svg"><path d="m25.3368733 5.18847804c.543987-.27046339 1.2042295-.04872868 1.4746929.49525833.1341952.26990861.1509695.58118673.0503232.86143771l-.0503232.11799688-9.8816467 19.87510194c-.1721131.3461736-.5922674.4872775-.938441.3151644-.2050907-.1019685-.3454067-.2966056-.3800283-.5190097l-.0082475-.0968268-.1522027-9.6896008-9.68855653-.1511584c-.31887524-.0049961-.58459325-.2224488-.66447507-.5156098l-.01956245-.1003368-.00491976-.0951346c.00366358-.2289321.11877889-.4393748.30449108-.5664621l.08379409-.0491735zm.2671267 1.20652196-17.766 8.833 7.6317198.120146c.604836.0094365 1.1006749.4655338 1.1723747 1.0531833l.0087575.1278236.120148 7.6338471z"/></svg>