<svg height="32" viewBox="0 0 32 32" width="32" xmlns="http://www.w3.org/2000/svg"><g fill="none" transform="translate(5.073448 5.073211)"><path d="m20.2633871.11526726-19.87510194 9.88164676c-.23434166.11651168-.38409822.35399888-.38828516.61563558l.00491976.0951346c.04105208.3425521.3297317.6103954.68403752.6159466l9.68855652.1511584.1522027 9.6896008c.0041008.2617291.1538864.4993011.3882758.6158365.3461736.1721131.7663279.0310092.938441-.3151644l9.8816468-19.87510193c.1533658-.30846698.1533658-.67096761 0-.97943459-.2704634-.54398701-.9307059-.76572172-1.474693-.49525832z" fill="#b75c64"/><path d="m21.5309176.32199865c.0821386.08213854.1525911.17876672.2071625.28852693.1341951.26990861.1509694.58118673.0503231.86143771l-.0503231.11799688-9.8816468 19.87510193c-.1721131.3461736-.5922674.4872775-.938441.3151644-.2009052-.0998875-.3396525-.2886998-.3777769-.5054283l-.0104989-.1104082-.1522027-9.6896008z" fill="#92363e"/></g></svg>