<svg height="32" viewBox="0 0 32 32" width="32" xmlns="http://www.w3.org/2000/svg"><g fill="#00b1dd"><path d="m14.195 17.105h-7.21c-.33 0-.6.27-.6.6v7.21c0 .33.27.6.6.6h7.21c.33 0 .6-.27.6-.6v-7.21c0-.34-.26-.6-.6-.6z"/><path d="m25.015 6.485h-7.21c-.16 0-.31.06-.42.18-.11.11-.18.27-.18.42v7.21c0 .33.27.6.6.6h7.21c.33 0 .6-.27.6-.6v-7.21c0-.33-.27-.6-.6-.6z"/><path d="m14.195 6.485h-7.21c-.33 0-.6.27-.6.6v7.21c0 .33.27.6.6.6h7.21c.33 0 .6-.27.6-.6v-7.21c0-.33-.26-.6-.6-.6z"/><path d="m25.015 17.105h-7.21c-.16 0-.31.06-.42.18-.11.11-.18.27-.18.42v7.21c0 .33.27.6.6.6h7.21c.33 0 .6-.27.6-.6v-7.21c0-.34-.27-.6-.6-.6z"/></g></svg>