<svg xmlns="http://www.w3.org/2000/svg" width="32" height="32" fill="currentColor" viewBox="0 0 32 32">
  <path d="M17.935 5.21a.876.876 0 0 0-.875-.876h-2.12l-.142.011a.875.875 0 0 0-.733.864v3.023h-3.023l-.142.011a.875.875 0 0 0-.733.864v2.12c0 .483.392.875.875.875h3.023v3.023l.011.142a.875.875 0 0 0 .864.733h2.12a.876.876 0 0 0 .875-.875v-3.022h3.023a.875.875 0 0 0 .875-.876v-2.12l-.011-.142a.875.875 0 0 0-.864-.733h-3.022V5.209Z"/>
  <path fill-rule="evenodd" d="M16.67 26.917c-.33 0-.66-.05-.98-.15l-4.71-1.44c-.27-.08-.56-.05-.8.09l-2.12 1.25c-.27.16-.62.09-.82-.16l-3.17-4.05a.632.632 0 0 1 .1-.88l.37-.3 3.19-2.5a5.206 5.206 0 0 1 5.18-.72l2.84 1.16 2.84 1.16c.27.11.5.28.68.49l.655-.4c1.141-.697 2.783-1.7 3.605-2.17.78-.44 1.74-.21 2.24.53l.01.02c.49.73.33 1.72-.37 2.26l-6.71 5.12c-.58.46-1.3.69-2.03.69Zm-5.99-2.89c.22 0 .44.03.66.1l4.71 1.44c.65.2 1.36.07 1.89-.34l6.71-5.12c.17-.13.21-.37.09-.55l-.01-.02a.443.443 0 0 0-.58-.14c-.78.438-2.353 1.4-3.484 2.092-.392.24-.731.447-.966.588 0 .19-.04.38-.11.57l-.01.03c-.31.85-1.2 1.33-2.08 1.11l-5.27-1.33a.63.63 0 0 1-.46-.76.63.63 0 0 1 .76-.46l5.28 1.33a.5.5 0 0 0 .59-.31l.01-.03c.04-.1.04-.21.02-.3 0-.01 0-.02-.01-.03a.536.536 0 0 0-.31-.35c-1.9-.77-3.79-1.54-5.69-2.32a3.98 3.98 0 0 0-3.93.55l-3.06 2.39 2.44 3.14 1.65-.97c.37-.2.76-.31 1.16-.31Z" clip-rule="evenodd"/>
</svg>
