<svg xmlns="http://www.w3.org/2000/svg" width="32" height="32" fill="currentColor" viewBox="0 0 32 32">
  <path d="M17.935 5.209a.876.876 0 0 0-.875-.875h-2.12l-.142.011a.875.875 0 0 0-.733.864v3.023h-3.023l-.142.011a.875.875 0 0 0-.733.864v2.12c0 .483.392.875.875.875h3.023v3.023l.011.142a.875.875 0 0 0 .864.733h2.12a.876.876 0 0 0 .875-.875v-3.023h3.023a.875.875 0 0 0 .875-.875v-2.12l-.011-.142a.875.875 0 0 0-.864-.733h-3.022V5.209Zm2.53 20.046a2.914 2.914 0 0 1-2.408.752l-6.04-.877a4 4 0 0 0-2.627.526l-1.414.845-3.104-3.987 4.078-2.928a4.564 4.564 0 0 1 4.06-.637L18 20.554a.76.76 0 0 1-.38 1.47l-3.718-.734a.688.688 0 1 0-.253 1.353l4.397.781a2.4 2.4 0 0 0 1.831-.417c.875-.635 2.258-1.656 3.214-2.447a.837.837 0 0 1 1.115.033.79.79 0 0 1 0 1.138 425.543 425.543 0 0 1-3.741 3.524Z"/>
</svg>
