<svg fill="none" height="32" viewBox="0 0 32 32" width="32" xmlns="http://www.w3.org/2000/svg"><path d="m17.06 4.334c.483 0 .875.392.875.875v3.023h3.023c.435 0 .796.317.864.733l.01.142v2.12a.875.875 0 0 1 -.874.875h-3.022v3.023a.876.876 0 0 1 -.876.875h-2.12a.875.875 0 0 1 -.864-.733l-.011-.142v-3.023h-3.023a.875.875 0 0 1 -.875-.875v-2.12c0-.435.317-.796.733-.864l.142-.011h3.023v-3.023c0-.435.317-.796.733-.864l.142-.01h2.12z" fill="#009f27"/><g clip-rule="evenodd" fill-rule="evenodd"><path d="m13.908 21.065c-.118-.023 4.071-1.111 4-1.132l1.772-1.134a.987.987 0 0 1 1.101.114c.312.261.747.312 1.11.13l.547-.277a.9.9 0 0 1 1.02.147l.042.039c.25.233.62.28.92.116a.915.915 0 0 1 .968.054l.066.046a.472.472 0 0 1 .008.764l-4.969 3.684a5.89 5.89 0 0 1 -4.907.986l-5.298-1.301-3.671 1.96-2.446-4.454 4.056-2.264c1.788-.999 3.804-.144 5.643.752l2.19.085c.441.215.897.4 1.363.553.21.07-1.66 1.497-3.515 1.132z" fill="#69043f"/><path d="m17.888 19.841a.877.877 0 1 1 -.145 1.748l-3.35-.357a.13.13 0 0 0 -.142.129c0 .085.055.162.137.188l2.634.854a7.403 7.403 0 0 0 5.412-.334l.4-.187-2.34 1.734a5.89 5.89 0 0 1 -4.908.986l-5.298-1.301-3.671 1.96-2.446-4.454 4.056-2.264a6.238 6.238 0 0 1 5.782-.162c.685.374 1.276.708 2.05 1a9.462 9.462 0 0 0 1.829.46z" fill="#fa8bb9"/></g></svg>