<svg height="32" viewBox="0 0 32 32" width="32" xmlns="http://www.w3.org/2000/svg"><path d="m16 5c6.0751322 0 11 4.92486775 11 11 0 6.0751322-4.9248678 11-11 11-6.07513225 0-11-4.9248678-11-11 0-6.07513225 4.92486775-11 11-11zm2.75 4.25c-.3796958 0-.693491.28215388-.7431534.64822944l-.0068466.10177056v2.249l-4.5.001v-2.25l-.0068466-.10177056c-.0496624-.36607556-.3634576-.64822944-.7431534-.64822944s-.693491.28215388-.7431534.64822944l-.0068466.10177056v2.25h-2l-.10177056.0068466c-.36607556.0496624-.64822944.3634576-.64822944.7431534s.28215388.693491.64822944.7431534l.10177056.0068466h2v4.5h-2l-.10177056.0068466c-.36607556.0496624-.64822944.3634576-.64822944.7431534s.28215388.693491.64822944.7431534l.10177056.0068466h2v2.25l.0068466.1017706c.0496624.3660755.3634576.6482294.7431534.6482294s.693491-.2821539.7431534-.6482294l.0068466-.1017706v-2.25h4.5v2.25l.0068466.1017706c.0496624.3660755.3634576.6482294.7431534.6482294s.693491-.2821539.7431534-.6482294l.0068466-.1017706v-2.25h2.5l.1017706-.0068466c.3660755-.0496624.6482294-.3634576.6482294-.7431534s-.2821539-.693491-.6482294-.7431534l-.1017706-.0068466h-2.5v-4.5h2.5l.1017706-.0068466c.3660755-.0496624.6482294-.3634576.6482294-.7431534s-.2821539-.693491-.6482294-.7431534l-.1017706-.0068466-2.5-.001v-2.249l-.0068466-.10177056c-.0496624-.36607556-.3634576-.64822944-.7431534-.64822944zm-.75 4.5v4.5h-4.5v-4.5z" fill-rule="evenodd"/></svg>