<svg height="32" viewBox="0 0 32 32" width="32" xmlns="http://www.w3.org/2000/svg"><path d="m18.42 10.06c.3341323 0 .610272.2482954.653975.5704419l.006025.0895581v1.979l2.2.001c.3645079 0 .66.2954921.66.66 0 .3341323-.2482954.610272-.5704419.653975l-.0895581.006025h-2.2v3.96h2.2c.3645079 0 .66.2954921.66.66 0 .3341323-.2482954.610272-.5704419.653975l-.0895581.006025h-2.2v1.98c0 .3645079-.2954921.66-.66.66-.3341323 0-.610272-.2482954-.653975-.5704419l-.006025-.0895581-.001-1.98h-3.959v1.98c0 .3645079-.2954921.66-.66.66-.3341323 0-.610272-.2482954-.653975-.5704419l-.006025-.0895581v-1.98h-1.76c-.3645079 0-.66-.2954921-.66-.66 0-.3341323.2482954-.610272.5704419-.653975l.0895581-.006025h1.76v-3.96h-1.76c-.3645079 0-.66-.2954921-.66-.66 0-.3341323.2482954-.610272.5704419-.653975l.0895581-.006025h1.76v-1.98c0-.3645079.2954921-.66.66-.66.3341323 0 .610272.2482954.653975.5704419l.006025.0895581v1.98l3.959-.001.001-1.979c0-.3645079.2954921-.66.66-.66zm-.661 3.96h-3.959v3.96h3.959zm-1.759-8.62c-5.84 0-10.6 4.76-10.6 10.6s4.76 10.6 10.6 10.6 10.6-4.76 10.6-10.6-4.76-10.6-10.6-10.6zm0 20c-5.18 0-9.4-4.22-9.4-9.4s4.22-9.4 9.4-9.4 9.4 4.22 9.4 9.4-4.22 9.4-9.4 9.4z"/></svg>