<svg height="32" viewBox="0 0 32 32" width="32" xmlns="http://www.w3.org/2000/svg"><g fill="none" fill-rule="evenodd"><path d="m16 27c-6.07513225 0-11-4.9248678-11-11 0-6.07513225 4.92486775-11 11-11 6.0751322 0 11 4.92486775 11 11 0 6.0751322-4.9248678 11-11 11z" fill="#7d5b9f"/><path d="m18.75 9.25c.3796958 0 .693491.28215388.7431534.64822944l.0068466.10177056v2.249l2.5.001c.4142136 0 .75.3357864.75.75 0 .3796958-.2821539.693491-.6482294.7431534l-.1017706.0068466h-2.5v4.5h2.5c.4142136 0 .75.3357864.75.75 0 .3796958-.2821539.693491-.6482294.7431534l-.1017706.0068466h-2.5v2.25c0 .4142136-.3357864.75-.75.75-.3796958 0-.693491-.2821539-.7431534-.6482294l-.0068466-.1017706v-2.25h-4.5v2.25c0 .4142136-.3357864.75-.75.75-.3796958 0-.693491-.2821539-.7431534-.6482294l-.0068466-.1017706v-2.25h-2c-.41421356 0-.75-.3357864-.75-.75 0-.3796958.28215388-.693491.64822944-.7431534l.10177056-.0068466h2v-4.5h-2c-.41421356 0-.75-.3357864-.75-.75 0-.3796958.28215388-.693491.64822944-.7431534l.10177056-.0068466h2v-2.25c0-.41421356.3357864-.75.75-.75.3796958 0 .693491.28215388.7431534.64822944l.0068466.10177056v2.25l4.5-.001v-2.249c0-.41421356.3357864-.75.75-.75zm-.75 4.5h-4.5v4.5h4.5z" fill="#fff" fill-rule="nonzero"/></g></svg>