<svg height="32" viewBox="0 0 32 32" width="32" xmlns="http://www.w3.org/2000/svg"><path d="m23.0417956 11.3913776c2.618831 0 4.336639 1.3519065 4.336639 3.8231804v8.0152383c0 .504946-.4093396.9142857-.9142857.9142857s-.9142857-.4093397-.9142857-.9142857l.0008142-.1727894c-.0196417.0133006-.039459.0266045-.0594505.039907-.9311009.6195627-1.9274103 1.0105543-2.9690162 1.0466205-2.6502882.0917676-4.5152012-1.1874621-4.5152012-3.7004854 0-2.2076251 1.6509256-3.9660276 4.1180949-3.9660276l3.4239051-.0006438.0008537-1.2618196c0-1.3523819-.8160497-1.9946089-2.5080676-1.9946089-1.5502314 0-2.2095765.4936592-2.4456112 1.612464-.1042343.4940706-.5892562.8100953-1.0833268.7058611-.4940706-.1042343-.8100954-.5892562-.7058611-1.0833268.420874-1.9949429 1.8481619-3.0635698 4.2347991-3.0635698zm-12.3464694-3.6413776c.3851696 0 .729031.24139068.8598966.60364734l5.1678421 14.30541216c.1715609.4749078-.0743504.9989741-.5492582 1.170535-.4749078.1715608-.9989741-.0743505-1.170535-.5492583l-1.6615741-4.5983362h-5.35800001l-1.66479692 4.5989671c-.17190926.4747818-.69615592.7203085-1.17093769.5483992-.47478176-.1719093-.72030844-.6961559-.54839918-1.1709377l5.17971206-14.30541214c.13104757-.36192929.47474474-.60301646.85966844-.60301646zm14.8536833 10.5553776-3.4239051.0002153c-1.4305971 0-2.2895235.9148433-2.2895235 2.1374561 0 1.3171619.8974572 1.9327692 2.6233524 1.8730091.6556178-.0227011 1.3466254-.2938801 2.0193108-.7414909.2570804-.1710635.4921449-.3552132.6983708-.5384297.1198891-.1065125.1999209-.1851447.2341429-.2216692.0427201-.0455942.0890128-.0858351.138038-.1206952zm-14.8828282-7.0308001-2.02048371 5.5784225h4.03500001z"/></svg>