<svg height="32" viewBox="0 0 32 32" width="32" xmlns="http://www.w3.org/2000/svg"><path d="m10.3173506 6.81c-.09-.24-.31-.4-.56999995-.4h-.07c-.25 0-.48.16-.56.4l-6.28 17.58c-.11.31.05.66.36.77.07.02.13.04.2.04.25 0 .48-.15.56-.4l2.18-6.11h7.12999995l2.18 6.11c.11.31.45.47.77.36.31-.11.47-.45.36-.77zm-3.73999995 10.68 3.14-8.79 3.12999995 8.79zm17.81999995-6.89c-2.64 0-4.22 1.14-4.69 3.38-.07.32.14.64.47.71.32.07.64-.14.71-.47.24-1.13.85-2.43 3.51-2.43 2.97 0 3.6 1.64 3.6 3.01v1.56h-3.93c-3.32 0-5.38 1.71-5.38 4.47 0 1.44.52 2.65 1.49 3.5.94.82 2.23 1.26 3.75 1.26 1.93 0 3.24-.71 4.07-1.48v.64c0 .33.27.6.6.6s.6-.27.6-.6v-9.94c0-2.68-1.75-4.21-4.8-4.21zm3.57 11.56c-.14.47-1.25 2.25-4.04 2.25-2.49 0-4.04-1.36-4.04-3.56 0-2.08 1.52-3.27 4.18-3.27h3.93v4.51z"/></svg>