<svg height="32" viewBox="0 0 32 32" width="32" xmlns="http://www.w3.org/2000/svg"><g fill="none" fill-rule="evenodd"><path d="m7.7716157 26.4645448v-15.6219284l5.3266025-5.3071612h11.4017818v20.9290896z" fill="#dbbeed"/><path d="m13.1112997 10.8414229h-5.33848605v-5.3059677h.01308151z" fill="#8556a3" transform="matrix(-1 0 0 1 20.884114 0)"/><path d="m13.1112997 16.1798452-5.339684-5.3384223h5.338486l.001198.0011935z" fill="#c393e1" transform="matrix(-1 0 0 1 20.882916 0)"/><g fill-rule="nonzero"><path d="m10.0916264 20.4834996v-1.0363636h11.8334457v1.0363636zm0 3.0550482v-1.0363636h7.9364655v1.0363636zm0-6.1840623v-1.0363637h11.8334457v1.0363637z" fill="#c393e1"/><path d="m18.6750337 12.853046c.4431162 0 .7992949.3569392.7992949.7992949 0 .4431162-.3569392.799295-.7992949.799295-.4403526 0-.799295-.3589424-.799295-.799295 0-.4431162.3569393-.7992949.799295-.7992949zm.0380205-5.62183613c.674395 0 1.2309833.27300009 1.6177441.79263634.260801.32841611.3839029.8107342.3383823 1.28918218l-.0123466.10240784-.0212741.11591684-.0122991.03309587-.0086668.06143236c-.0940377.37253416-.2813256.6813834-.6356811 1.066468l-.0921122.0979404-.304162.3099918-.066932.0716938c-.0100796.0111262-.019722.0219481-.029078.0326261-.1100487.1255983-.1596296.2128667-.1596296.2334922 0 .3357961-.2733962.6091924-.6091923.6091924-.3357962 0-.6091924-.2733963-.6091924-.6091924 0-.4442469.165887-.7426008.6729681-1.2623205l.0877028-.0887326.1836834-.1913721c.1656804-.17690206.26447-.30574412.320957-.41548023l.0192478-.040312.0375179-.09636739.0053246-.03726312c.0293795-.11017339.0309007-.24356407.0113435-.35148599l-.0142096-.06130741-.0189429-.05285798-.0214136-.04256722.002034-.00321701-.0255057-.02889776c-.1659599-.21436484-.370341-.31156513-.6610201-.31156513-.2373432 0-.4162198.06486855-.5600929.19944649l-.0523575.05374381-.047688.05722817c-.0247946.03247321-.054044.11092875-.0716928.19704596l-.0090688.05228316-.0066141.05677851-.002527.06222653c0 .33579614-.2733962.60919236-.6091923.60919236-.3357962 0-.6091924-.27339622-.6091924-.60919236 0-.27264404.0576357-.55970064.166748-.80865764l.049896-.10421014.0618683-.10578337.0754851-.10415762.069942-.08573795c.3164455-.36787082.7212324-.59331859 1.200076-.66721439l.1118105-.01435845.1202251-.00891516z" fill="#8556a3"/></g></g></svg>