<svg height="32" viewBox="0 0 32 32" width="32" xmlns="http://www.w3.org/2000/svg"><path d="m15.96 4.3c6.424 0 11.66 5.236 11.66 11.66s-5.236 11.66-11.66 11.66-11.66-5.236-11.66-11.66 5.236-11.66 11.66-11.66zm-.2727513 16.2234898c-.994715 0-1.7973559.8009308-1.7973559 1.7973558 0 .9902105.8071454 1.7973558 1.7973559 1.7973558.9947149 0 1.7973558-.8009308 1.7973558-1.7973558 0-.994715-.8009308-1.7973558-1.7973558-1.7973558zm.0854958-12.64169124-.2633816.00642042-.2703474.02004733-.2514256.03228751c-1.0767644.16616775-1.9869992.67312686-2.6985828 1.50034936l-.157277.19279693-.1697417.2342168-.1391216.23787259-.1122001.2343349c-.2453581.5598238-.3749622 1.2053212-.3749622 1.8184095 0 .7550969.6147796 1.3698766 1.3698766 1.3698766.7550969 0 1.3698766-.6147797 1.3698766-1.3698766l.0056822-.1399273.0148731-.1276766.0203927-.1175679c.0396865-.1936497.105459-.3700708.161214-.4430926l.1072349-.1286877.117735-.1208524c.3235242-.3026223.7257598-.4484906 1.2594679-.4484906.6536432 0 1.1132302.218572 1.4864203.7006092l.0573541.0649817-.0045737.007234.0481523.0957199.0425965.1188605.0319526.1378606c.0439779.2426815.0405572.542634-.0255079.7903783l-.0119731.0837927-.0843658.2166991-.0432819.0906486c-.127021.246761-.349167.5364852-.7217287.9342807l-.4130445.4303338-.1972152.199531c-1.1402614 1.1686816-1.5132876 1.8395831-1.5132876 2.8385506 0 .7550969.6147797 1.3698766 1.3698766 1.3698766s1.3698766-.6147797 1.3698766-1.3698766c0-.04638.1114913-.2426185.3589554-.5250484.0210386-.0240113.0427211-.0483463.0653869-.0733657l.1505085-.161216.6839619-.6970714.2071305-.2202362c.796831-.8659307 1.2179808-1.5604328 1.4294413-2.3981417l.0194888-.1381415.0276566-.0744219.0478386-.2606595.0277636-.2302821c.1023612-1.0758747-.1744553-2.1604521-.7609124-2.89895376-.8696999-1.16849386-2.1212871-1.78238278-3.6377833-1.78238278z"/></svg>