<svg height="32" viewBox="0 0 32 32" width="32" xmlns="http://www.w3.org/2000/svg"><path d="m16 5.4c-5.84 0-10.6 4.76-10.6 10.6s4.76 10.6 10.6 10.6 10.6-4.76 10.6-10.6-4.76-10.6-10.6-10.6zm0 20c-5.18 0-9.4-4.22-9.4-9.4s4.22-9.4 9.4-9.4 9.4 4.22 9.4 9.4-4.22 9.4-9.4 9.4zm-.17-15.54c-1.2 0-2.17.47-2.88 1.39l-.01.01c-.43.55-.58 1.37-.58 1.92 0 .33.27.6.6.6s.6-.27.6-.6c0-.44.14-.94.32-1.18 0 0 0-.01.01-.01.48-.62 1.11-.92 1.93-.92s1.45.3 1.93.92l.01.01c.3.38.41 1.12.25 1.72v.02c-.18.72-.76 1.3-1.36 1.92-.66.66-1.41 1.41-1.41 2.37 0 .33.27.6.6.6s.6-.27.6-.6c0-.46.56-1.02 1.06-1.52.66-.67 1.41-1.43 1.67-2.46v-.01c.26-.97.07-2.09-.47-2.77-.7-.94-1.67-1.41-2.87-1.41zm-.08 10.14c-.55 0-1 .44-1 1 0 .55.45 1 1 1s1-.44 1-1c0-.55-.44-1-1-1z"/></svg>