<svg height="32" viewBox="0 0 32 32" width="32" xmlns="http://www.w3.org/2000/svg"><path d="m24.74 4.73c.33 0 .6.27.61.6v21.34c0 .33-.27.6-.6.6h-17.5c-.33 0-.6-.27-.6-.6v-14.41c.01-.08.02-.15.05-.22s.07-.13.13-.19l6.93-6.93.01-.01c.11-.12.26-.18.42-.18zm-.6 1.2h-9.35v6.34c0 .33-.27.6-.6.6h-6.35v13.21h16.3zm-3.07 15.67c.33 0 .6.27.6.6s-.27.6-.6.6h-9.94c-.33 0-.6-.27-.6-.6s.27-.6.6-.6zm0-4.6c.33 0 .6.27.6.6s-.27.6-.6.6h-9.94c-.33 0-.6-.27-.6-.6s.27-.6.6-.6zm-2.3949663-3.646954c.4431162 0 .7992949.3569392.7992949.7992949 0 .4431162-.3569392.799295-.7992949.799295-.4403526 0-.799295-.3589424-.799295-.799295 0-.4431162.3569393-.7992949.799295-.7992949zm.0380205-5.62183613c.674395 0 1.2309833.27300009 1.6177441.79263634.260801.32841611.3839029.8107342.3383823 1.28918218l-.0123466.10240784-.0212741.11591687-.0122991.0330958-.0086668.0614324c-.0940377.3725342-.2813256.6813834-.6356811 1.066468l-.0921122.0979404-.304162.3099918-.066932.0716938c-.0100796.0111262-.019722.0219481-.029078.0326261-.1100487.1255983-.1596296.2128667-.1596296.2334922 0 .3357961-.2733962.6091924-.6091923.6091924-.3357962 0-.6091924-.2733963-.6091924-.6091924 0-.4442469.165887-.7426008.6729681-1.2623205l.0877028-.0887326.1836834-.1913721c.1656804-.1769021.26447-.3057441.320957-.41548023l.0192478-.040312.0375179-.09636739.0053246-.03726312c.0293795-.11017339.0309007-.24356407.0113435-.35148599l-.0142096-.06130741-.0189429-.05285798-.0214136-.04256722.002034-.00321701-.0255057-.02889776c-.1659599-.21436484-.370341-.31156513-.6610201-.31156513-.2373432 0-.4162198.06486855-.5600929.19944649l-.0523575.05374381-.047688.05722817c-.0247946.03247321-.054044.11092875-.0716928.19704596l-.0090688.05228316-.0066141.05677851-.002527.06222653c0 .33579614-.2733962.60919241-.6091923.60919241-.3357962 0-.6091924-.27339627-.6091924-.60919241 0-.27264404.0576357-.55970064.166748-.80865764l.049896-.10421014.0618683-.10578337.0754851-.10415762.069942-.08573795c.3164455-.36787082.7212324-.59331859 1.200076-.66721439l.1118105-.01435845.1202251-.00891516zm-5.1230542-.95120987-4.9 4.9h4.9z"/></svg>