<svg height="32" viewBox="0 0 32 32" width="32" xmlns="http://www.w3.org/2000/svg"><g fill="none"><path d="m15.96 4.3c-6.424 0-11.66 5.236-11.66 11.66s5.236 11.66 11.66 11.66 11.66-5.236 11.66-11.66-5.236-11.66-11.66-11.66z" fill="#afdfef"/><g fill="#252d4f"><path d="m15.773 9.206c-1.32 0-2.387.517-3.168 1.529l-.011.011c-.473.605-.638 1.507-.638 2.112 0 .363.297.66.66.66s.66-.297.66-.66c0-.484.154-1.034.352-1.298 0 0 0-.011.011-.011.528-.682 1.221-1.012 2.123-1.012s1.595.33 2.123 1.012l.011.011c.33.418.451 1.232.275 1.892v.022c-.198.792-.836 1.43-1.496 2.112-.726.726-1.551 1.551-1.551 2.607 0 .363.297.66.66.66s.66-.297.66-.66c0-.506.616-1.122 1.166-1.672.726-.737 1.551-1.573 1.837-2.706v-.011c.286-1.067.077-2.299-.517-3.047-.77-1.034-1.837-1.551-3.157-1.551z"/><path d="m15.685 20.36c-.605 0-1.1.484-1.1 1.1 0 .605.495 1.1 1.1 1.1s1.1-.484 1.1-1.1c0-.605-.484-1.1-1.1-1.1z"/></g></g></svg>