<svg height="32" viewBox="0 0 31 32" width="31" xmlns="http://www.w3.org/2000/svg"><path d="m15.4433336 22.025c.7523254 0 1.35625.6247369 1.35625 1.4 0 .776594-.605214 1.4-1.35625 1.4-.7468229 0-1.35625-.6290861-1.35625-1.4 0-.776594.6052139-1.4 1.35625-1.4zm.0540793-14.84995639c1.7634825 0 3.2031501.71912036 4.2513316 2.12253255.7022339.92080184 1.0008683 2.35122894.7911534 3.67398894l-.0453043.2466051-.0536226.2182323-.0115458.0900007c-.2213111.8717179-.5760103 1.5501653-1.2536684 2.3867403l-.1929656.2323413-.359561.4090605-.2010291.2194451-.8033064.8440381-.2269599.2440456-.1887008.2135802c-.0569411.0665998-.1106286.1316727-.1638319.1985363-.2986041.3752724-.4723952.6868966-.5332197.9428463l-.0191859.1063073-.0071004.1116558c0 .5509139-.4350522 1-.96875 1-.5336979 0-.96875-.4490861-.96875-1 0-.9162671.3176082-1.6308109 1.1526016-2.6117733l.1739564-.1998834.3483646-.379995.5445811-.5686939.3628351-.3904978c.0560937-.0616357.1100576-.1216353.1619812-.1801296l.2877731-.3339507c.4853211-.5829707.7454118-1.015511.8993411-1.4719946l.0394381-.1252202.0514199-.1746235c.1723606-.6780448.1226834-1.476343-.1056108-2.0478983l-.0738034-.1643174-.0725284-.1313903-.06839-.1028154-.0371123-.0427792c-.6726588-.90176295-1.5475454-1.3340374-2.7057848-1.3340374-1.0045344 0-1.7948818.32519418-2.421992.9937742l-.1418433.1603916-.1185458.1500315-.0961327.1407183c-.2258319.363815-.3892987 1.0283191-.3892987 1.6050844 0 .5509139-.4350522 1-.96875 1-.5336979 0-.96875-.4490861-.96875-1 0-.8953957.2184273-1.8327247.6043279-2.53438771l.1207434-.2031513.1317113-.18823731c.8807467-1.17917254 2.0364902-1.8759606 3.4309136-2.06922789l.2642425-.03033182.283872-.01889737z" fill="#005a7d"/></svg>