<svg height="32" viewBox="0 0 32 32" width="32" xmlns="http://www.w3.org/2000/svg"><path d="m15.9415056 22.025c.776594 0 1.4.6247369 1.4 1.4 0 .776594-.6247369 1.4-1.4 1.4-.7709139 0-1.4-.6290861-1.4-1.4 0-.776594.6247369-1.4 1.4-1.4zm.0558238-14.84995639c1.8203691 0 3.3064775.71912036 4.3884714 2.12253255.7248865.92080184 1.0331544 2.35122894.8166745 3.67398894l-.0467658.2466051-.0553524.2182323-.0119182.0900007c-.2284502.8717179-.5945912 1.5501653-1.2941093 2.3867403l-.1991903.2323413-.3711597.4090605-.2075139.2194451-.8292196.8440381-.2342812.2440456-.1947879.2135802c-.0587778.0665998-.1141972.1316727-.1691168.1985363-.3082365.3752724-.4876338.6868966-.5504203.9428463l-.0198048.1063073-.0073295.1116558c0 .5509139-.4490861 1-1 1s-1-.4490861-1-1c0-.9162671.3278537-1.6308109 1.1897824-2.6117733l.1795678-.1998834.3596022-.379995.5621483-.5686939.3745394-.3904978c.0579032-.0616357.1136079-.1216353.1672064-.1801296l.2970561-.3339507c.5009766-.5829707.7694574-1.015511.9283521-1.4719946l.0407103-.1252202.0530786-.1746235c.1779206-.6780448.126641-1.476343-.1090176-2.0478983l-.0761842-.1643174-.074868-.1313903-.0705961-.1028154-.0383094-.0427792c-.6943575-.90176295-1.5974663-1.3340374-2.7930683-1.3340374-1.0369387 0-1.8527812.32519418-2.5001208.9937742l-.1464188.1603916-.1223699.1500315-.0992338.1407183c-.2331168.363815-.4018567 1.0283191-.4018567 1.6050844 0 .5509139-.4490861 1-1 1s-1-.4490861-1-1c0-.8953957.2254734-1.8327247.6238224-2.53438771l.1246383-.2031513.1359601-.18823731c.9091579-1.17917254 2.1021834-1.8759606 3.5415882-2.06922789l.2727665-.03033182.2930291-.01889737z"/></svg>