<svg height="32" viewBox="0 0 32 32" width="32" xmlns="http://www.w3.org/2000/svg"><path d="m24.74 4.73c.33 0 .6.27.61.6v21.34c0 .33-.27.6-.6.6h-17.5c-.33 0-.6-.27-.6-.6v-14.41c.01-.08.02-.15.05-.22s.07-.13.13-.19l6.93-6.93.01-.01c.11-.12.26-.18.42-.18zm-3.67 16.87h-9.94l-.09699.00789c-.28431.04671-.50301.29511-.50301.59211 0 .33.27.6.6.6h9.94l.09699-.00789c.28431-.04671.50301-.29511.50301-.59211 0-.33-.27-.6-.6-.6zm0-4.6h-9.94l-.09699.00789c-.28431.04671-.50301.29511-.50301.59211 0 .33.27.6.6.6h9.94l.09699-.00789c.28431-.04671.50301-.29511.50301-.59211 0-.33-.27-.6-.6-.6zm-2.3949663-3.646954c-.4423557 0-.799295.3561787-.799295.7992949 0 .4403526.3589424.799295.799295.799295.4423557 0 .7992949-.3561788.7992949-.799295 0-.4423557-.3561787-.7992949-.7992949-.7992949zm.0380205-5.62183613-.1171274.0028552-.1202251.00891516-.1118105.01435845c-.4788436.0738958-.8836305.29934357-1.200076.66721439l-.069942.08573795-.0754851.10415762-.0618683.10578337-.049896.10421014c-.1091123.248957-.166748.5360136-.166748.80865764 0 .33579614.2733962.60919241.6091924.60919241.3357961 0 .6091923-.27339627.6091923-.60919241l.002527-.06222653.0066141-.05677851.0090688-.05228316c.0176488-.08611721.0468982-.16457275.0716928-.19704596l.047688-.05722817.0523575-.05374381c.1438731-.13457794.3227497-.19944649.5600929-.19944649.2906791 0 .4950602.09720029.6610201.31156513l.0255057.02889776-.002034.00321701.0214136.04256722.0189429.05285798.0142096.06130741c.0195572.10792192.018036.2413126-.0113435.35148599l-.0053246.03726312-.0375179.09636739-.0192478.040312c-.056487.10973613-.1552766.23857813-.320957.41548023l-.1836834.1913721-.0877028.0887326c-.5070811.5197197-.6729681.8180736-.6729681 1.2623205 0 .3357961.2733962.6091924.6091924.6091924.3357961 0 .6091923-.2733963.6091923-.6091924 0-.0206255.0495809-.1078939.1596296-.2334922.009356-.010678.0189984-.0214999.029078-.0326261l.066932-.0716938.304162-.3099918.0921122-.0979404c.3543555-.3850846.5416434-.6939338.6356811-1.066468l.0086668-.0614324.0122991-.0330958.0212741-.11591687.0123466-.10240784c.0455206-.47844798-.0775813-.96076607-.3383823-1.28918218-.3867608-.51963625-.9433491-.79263634-1.6177441-.79263634zm-5.1230542-.95120987-4.9 4.9h4.9z"/></svg>