<svg height="32" viewBox="0 0 32 32" width="32" xmlns="http://www.w3.org/2000/svg"><path d="m20.0715056 9.545c-1.01-1.31-2.38-1.97-4.07-1.97s-3.06.66-4.06 1.96c0 0 0 .01-.01.01-.59.75-.8 1.91-.8 2.68 0 .33.27.6.6.6s.6-.27.6-.6c0-.72.23-1.54.55-1.94 0 0 .01-.01.01-.02.77-1 1.79-1.49 3.11-1.49s2.34.49 3.11 1.49l.01.01c.51.65.69 1.83.43 2.82 0 .01 0 .01-.01.02-.29 1.15-1.22 2.09-2.11 3-.95.94-2.02 2.01-2.02 3.32 0 .33.27.6.6.6s.6-.27.6-.6c0-.81.85-1.66 1.67-2.48 1.01-1.02 2.04-2.08 2.42-3.53v-.01c.37-1.37.11-2.93-.63-3.87zm-4.13 12.88c-.55 0-1 .44-1 1 0 .55.45 1 1 1s1-.44 1-1c0-.55-.44-1-1-1z"/></svg>