<svg height="32" viewBox="0 0 32 32" width="32" xmlns="http://www.w3.org/2000/svg"><g fill="none" fill-rule="evenodd"><path d="m25.064505 14.6336465c-1.7430144-1.9551273-5.2474879-5.24748796-9.2407432-5.24748796-4.0024777 0-7.50695118 3.29236066-9.24074333 5.24748796-.7193393.8115623-.7193393 2.0934618 0 2.9050241 1.73379215 1.9643496 5.23826563 5.2474879 9.24074333 5.2474879 3.9932553 0 7.4977288-3.2923606 9.231521-5.2474879.7285615-.8115623.7285615-2.0934618.0092222-2.9050241z" fill="#afdfef" fill-rule="nonzero"/><circle cx="15.823188" cy="16.086159" fill="#69520c" r="4.543276"/><circle cx="15.823188" cy="16.086159" fill="#000" r="3.038445"/><g fill-rule="nonzero"><path d="m15.8238219 8.6832934c2.0250463 0 3.9363284.76629874 5.5978922 1.8043391l-5.598526 5.598526v-7.4028651z" fill="#fff"/><path d="m23.7928932 6.79289322c.3905243-.39052429 1.0236893-.39052429 1.4142136 0 .3604839.36048396.3882135.92771502.0831886 1.32000622l-.0831886.09420734-17.00000002 17.00000002c-.39052429.3905243-1.02368927.3905243-1.41421356 0-.36048396-.360484-.3882135-.927715-.08318861-1.3200062l.08318861-.0942074z" fill="#ac4000"/><path d="m18.3060675 12.2807135c.5642833.3689202 1.0414955.8599594 1.3941083 1.435589l-6.2468437 6.2468437c-.5756296-.3526128-1.0666688-.829825-1.435589-1.3941083z" fill="#dc7538"/></g></g></svg>