<svg height="32" viewBox="0 0 32 32" width="32" xmlns="http://www.w3.org/2000/svg"><path d="m23.7303111 7.21030969c.2976453-.28746041.7719462-.27920712 1.0594066.01843821.2613277.27058665.2782638.68716965.0555581.97664902l-.0739963.08275761-2.9564785 2.95647847c1.7286257 1.1902301 3.2579871 2.6465411 4.5313647 4.3148475.1909672.2626567.1909672.6184262 0 .881039l-.2166809.2840197c-.9779728 1.2423889-5.0680113 6.0185542-10.1295232 6.0185542-1.448311-.0283665-2.8702878-.3810833-4.161826-1.0303201l-.3201068-.1684706-3.24837284 3.2453876c-.29764533.2874604-.77194622.2792071-1.05940663-.0184382-.26132765-.2705867-.27826381-.6871697-.05555804-.976649l.07399624-.0827576 2.95647847-2.9564785c-1.72862566-1.1902301-3.25798703-2.6465411-4.53136466-4.3148475-.19092323-.2626567-.19092323-.6184262 0-.8810829l.2166809-.2840066c.97797285-1.2423581 5.06801136-6.01852335 10.12952326-6.01852335 1.4483109.02836647 2.8702878.38108327 4.1618259 1.03032005l.3201068.1684706zm-3.0048568 5.12143121-2.0381415 2.0381483c.2889167.4752735.4553016 1.0332615.4553016 1.6301108 0 1.735618-1.4069964 3.1426144-3.1426144 3.1426144-.596838 0-1.1548161-.1663786-1.6300838-.4552852l-1.7332151 1.7331648c1.0467194.5190794 2.1951562.8005255 3.3633044.8241439 4.1057933 0 7.6826297-3.908724 8.7855417-5.2446599-1.0491207-1.2740536-2.2622059-2.4026694-3.6069959-3.3567241zm-4.7254488-1.5763788c-4.1058373 0-7.68267361 3.9087679-8.78554173 5.2446599 1.04912075 1.2740931 2.26220588 2.4026773 3.60699593 3.3567253l.453097.3115118 2.0381305-2.0381483c-.2889167-.4752735-.4553016-1.0332615-.4553016-1.6301108 0-1.735618 1.4069964-3.1426144 3.1426144-3.1426144.596838 0 1.1548161.1663786 1.6300838.4552852l1.733226-1.7331648c-1.0466754-.5190794-2.1951562-.8005255-3.3633043-.8241439z"/></svg>