<svg height="32" viewBox="0 0 32 32" width="32" xmlns="http://www.w3.org/2000/svg"><path d="m25.5459372 6.43724452c.2849094.29500395.3033739.74917871.0605715 1.06478023l-.0806735.09022551-17.990703 17.99060724c-.32450435.3134004-.84160538.3044023-1.15500575-.020102-.28490942-.295004-.30337387-.7491787-.0605715-1.0647802l.08067354-.0902256 17.99070301-17.99060722c.3245043-.31340037.8416054-.30440231 1.1550057.02010204zm-5.7205897 8.39922758 2.9995999-3.0026173-.2371546-.1720667c1.7203502 1.220494 3.2722142 2.6642988 4.6143235 4.2941582l-.3010283.3569873-.371559.4219812c-1.892844 2.1020037-5.9706293 5.9303702-10.5664972 5.9303702-1.1408804-.0230672-2.2670635-.2383777-3.3318674-.634436l2.2113793-2.2128354c.3556586.1030062.7316226.1582147 1.1204811.1582147 2.220325 0 4.020254-1.799929 4.020254-4.020254 0-.3885018-.0551072-.7641326-.1579313-1.1195022zm-3.8623157-5.5898084c1.1645665.02354605 2.3138532.24740075 3.3981302.65933764l-2.2089785 2.20849496c-.3758104-.1162033-.7751772-.1787759-1.1891587-.1787759-2.2203249 0-4.0202539 1.799929-4.0202539 4.0202539 0 .4136703.0624785.812748.178514 1.1883113l-2.96933751 2.9693781-.32468572-.2363084c-1.51761627-1.1382929-2.89541597-2.454434-4.10331428-3.9213529l.30101842-.3569781.37155043-.4219743c1.89280712-2.1019768 5.97059866-5.9303863 10.56651556-5.9303863z"/></svg>