<svg height="32" viewBox="0 0 32 32" width="32" xmlns="http://www.w3.org/2000/svg"><g fill="none" fill-rule="evenodd"><path d="m15.7271424 10.5241751c1.4536276-.0711649 2.793625-.81080744 3.6285892-2.00229003l.1344174-.20272699.5388252-.85989782c.7483723-1.19430865 2.0290431-1.94420354 3.4267319-2.01983151l.2339605-.00632203h4.0312018c.4948576 0 .8320147.48268157.6869353.93650673l-.0355419.09022872-.6887742 1.46270344c-.3231411.68623288-.9216622 1.18625906-1.6273877 1.39338259l-.1785674.045617-.0786641.01376586-.3779311.80370084c-.4575621.9716939-1.3772675 1.6308954-2.4246181 1.7653883l-.1977925.0190167-.2002941.006408h-13.75472839c-1.14116265 0-2.18542787-.6222932-2.73157775-1.6123342l-.09112698-.1784788-.37893107-.80370084-.07766407-.01376586c-.6622229-.14443502-1.24614053-.54246082-1.62221481-1.11189434l-.09731525-.15948809-.08642503-.16761716-.68877424-1.46270344c-.21081997-.44770415.08223222-.95836723.55462071-1.02045127l.09677269-.00628418h4.03120182c1.40940917 0 2.72487137.68703653 3.53110617 1.83125645l.1295862.19489709.5388253.85989782c.7798014 1.24446568 2.0893114 2.04667992 3.5338559 2.18819502z" fill="#00b1dd" fill-rule="nonzero"/><path d="m8.81433318 11.9701655c-1.20821511 0-2.30634683-.70197-2.81358116-1.7985543l-.36806353-.79571243 2.15816587.0013806c-.41815607-.65846259-.85220389-1.44233746-1.30214347-2.3516246h.92236478c1.04292921 0 2.04220454.40396711 2.79076493 1.12193504l.1564929.15862362c.7908666.85871814 1.3767296 1.40086652 1.7575888 1.62644514l.0160287.00895846.0097375.00503774.0984649.05342403c.5087577.2534436 1.3185243.4059822 2.4292998.4576161l.1393615-.0010401c.3209022.0119471.6264927.0187615.9167716.020443.2872632-.0016815.5928537-.0084959.9137559-.020443l.1393615.0010401c1.2044718-.0559893 2.0550114-.2306244 2.5516188-.52390543l-.024634.0128653.0105174-.00503774.0169861-.00952591c.3808834-.22591951.9664272-.76787874 1.7566315-1.62587769l.1564928-.15862362c.7485604-.71796793 1.7478357-1.12193504 2.7907649-1.12193504h.9223648c-.4499396.90928714-.8839874 1.69316201-1.3021434 2.3516246l2.1581658-.0013806-.3680635.79571243c-.5072343 1.0965843-1.6053661 1.7985543-2.8135812 1.7985543z" fill="#2289a3"/><path d="m15.7208684 4c1.189128 0 2.1531067.96397871 2.1531067 2.15310672 0 .94243933-.605504 1.74345563-1.4487063 2.03524307l-.000426 19.86316201c0 .397645-.3223549.72-.72.72-.3645079 0-.6657513-.2708678-.7134272-.6223003l-.0065728-.0976997.0000188-19.87437781c-.8266857-.30068206-1.4170999-1.09340536-1.4170999-2.02402727 0-1.18912801.9639787-2.15310672 2.1531067-2.15310672z" fill="#005a7d"/><path d="m16.4243869 17.7176314 1.5581126.0006007c1.3415712 0 2.4291295 1.0875583 2.4291295 2.4291295 0 1.2879083-1.0022938 2.3417183-2.2694135 2.4239625l-.159716.0051669h-3.9872403c-.5462811 0-.9891295.4428483-.9891295.9891295 0 .507261.3818438.9253376.8737761.9824748l.1153534.0066546.9891277-.0001185v1.44l-.9891277.0001185c-1.3415712 0-2.4291295-1.0875583-2.4291295-2.4291294 0-1.2879083 1.0022938-2.3417184 2.2694135-2.4239626l.159716-.0051669h3.9872403c.5462811 0 .9891295-.4428483.9891295-.9891294 0-.507261-.3818437-.9253377-.8737761-.9824749l-.1153534-.0066546-1.5581126-.0006007zm6.773035-4.333c0 1.2466186-.9684764 2.2670374-2.1940807 2.349908l-.1612611.0054339h-9.4775637c-.5462811 0-.9891295.4428483-.9891295.9891294 0 .507261.3818438.9253377.8737761.9824748l.1153534.0066546 3.6198705-.0006007v1.44l-3.6198705.0006007c-1.3415712 0-2.42912945-1.0875582-2.42912945-2.4291294 0-1.2879083 1.00229372-2.3417183 2.26941355-2.4239625l.1597159-.0051669h9.4775637c.4694201 0 .8563088-.3533588.9091836-.8085937l.0061582-.1067482c0-.397645.322355-.72.72-.72s.72.322355.72.72z" fill="#2289a3" fill-rule="nonzero"/><path d="m9.95272233 9.37589877c.53692417 0 1.05882417.09592695 1.54548477.27487595l.26533.10769279.1608499.07443126.207564.10871826c.7497642.41750497 1.3769139 1.04855187 1.7884773 1.83378987l.0961545.1947586h-3.2610691c-.87882432 0-1.8671999-.8645407-2.96512675-2.59362218zm13.70504767.00064455c-1.0979269 1.72908148-2.0863025 2.59362218-2.9651268 2.59362218h-3.2610691l.0961545-.1947586c.4115634-.785238 1.0387131-1.4162849 1.7884773-1.83378987l.2075641-.10871826.1608499-.07443126.26533-.10769279c.4866606-.178949 1.0085605-.27487595 1.5454847-.27487595z" fill="#005a7d"/></g></svg>