<svg height="32" viewBox="0 0 32 32" width="32" xmlns="http://www.w3.org/2000/svg"><path d="m16 3.08575858c1.3636115 0 2.4690371 1.10542555 2.4690371 2.46903708 0 1.11888871-.7442554 2.06394728-1.7647131 2.36712281l.0001107 2.02320456c1.2649011-.26998342 2.3850005-1.04063604 3.086761-2.16055805l.5388252-.85989782c.7680055-1.22564082 2.1126221-1.9698715 3.5590065-1.9698715h4.0312018c.4398734 0 .7302234.45765364.5428278.85561288l-.6887742 1.46270343-.0824537.15991494c-.3509657.62438427-.9512867 1.06263554-1.6405153 1.21296067l-.1351217.02401242-.4044595.85957825c-.4949591 1.05111115-1.552322 1.72193565-2.7141392 1.72193565l-6.0943171-.0007553v2.45l4.4179353.0009036c.4694202 0 .8563089-.3533587.9091837-.8085936l.0061582-.1067482c0-.3976451.322355-.72.72-.72s.72.3223549.72.72c0 1.2466185-.9684764 2.2670373-2.1940807 2.349908l-.1612612.0054338-4.4179353-.0009036v1.979l1.5583548.0001625c1.3415712 0 2.4291295 1.0875583 2.4291295 2.4291294 0 1.2879083-1.0022938 2.3417184-2.2694135 2.4239625l-.159716.005167-1.5583548-.0004214.0006981 5.4754421c0 .397645-.3223549.72-.72.72-.3645079 0-.6657513-.2708677-.7134272-.6223003l-.0065728-.0976997-.0006981-2.0574421-.9888855.0006802c-1.3415712 0-2.4291295-1.0875583-2.4291295-2.4291294 0-1.2879083 1.0022938-2.3417184 2.2694135-2.4239625l.159716-.0051669.9888855-.0004214v-1.978l-3.6196283.0001625c-1.3415712 0-2.42912946-1.0875583-2.42912946-2.4291294 0-1.2879083 1.00229376-2.3417184 2.26941346-2.4239626l.159716-.0051669 3.6196283-.0009036v-2.45l-6.14064049.0007553c-1.093475 0-2.09442305-.5942251-2.62104857-1.54045219l-.0930906-.18148346-.40449664-.85957825-.1350846-.02401242c-.62657142-.13665921-1.17966554-.51127391-1.53873557-1.0473654l-.10177974-.16559527-.08245368-.15991494-.68877424-1.46270343c-.17401013-.36953358.06391331-.79053835.45097748-.84879652l.09185035-.00681636h4.03120182c1.37025892 0 2.64918048.66795219 3.43301988 1.78038822l.1259866.18948328.5388252.85989782c.71066 1.13412446 1.8503365 1.91006474 3.1349534 2.17058768l-.0007553-2.04311831c-1.0037503-.31340065-1.7322687-1.25024238-1.7322687-2.35723869 0-1.36361153 1.1054256-2.46903708 2.4690371-2.46903708zm-.7367237 18.89200002-.9888855.0004214c-.5462811 0-.9891295.4428483-.9891295.9891294 0 .507261.3818437.9253377.8737761.9824748l.1153534.0066546.9888855-.0006802zm2.9983548-3.4178375-1.5583548-.0001625v1.978l1.5583548.0004214c.5462811 0 .9891295-.4428484.9891295-.9891295 0-.507261-.3818438-.9253376-.8737761-.9824748zm-2.9983548-3.4191625-3.6196283.0009036c-.5462811 0-.9891295.4428483-.9891295.9891295 0 .507261.3818438.9253376.8737761.9824748l.1153534.0066546 3.6196283-.0001625zm-10.3182763-8.9867586.28660208.60788622c.19370251.41135296.58749328.68741008 1.03325755.73420267l.14021784.00708724.07453693-.00537337h2c.33137085 0 .6.26862915.6.6 0 .29823377-.21758961.54564675-.50267688.59214701l-.09732312.00785299-1.13733807-.00004418.15187597.32059392c.27413117.58215388.83578716.96988899 1.46885411 1.0260958l.1596294.0070656 3.49236419-.0005139-.148725-.11309445c-.3839495-.30568496-.7323978-.65965906-1.0355505-1.05650117l-.1763778-.24320607-.1421721-.21645376-.5388253-.85989782c-.5142894-.82074162-1.39056956-1.33925868-2.34936994-1.40086729l-.19277754-.00618378zm22.0301921 0-3.0861647.00079566c-1.0331317 0-1.9935721.53159334-2.5421475 1.40705107l-.5388253.85989782-.1421721.21645376c-.3415712.49652698-.7511889.93288529-1.2119283 1.29970724l-.1487621.11309445 3.4924013.0005139c.6970903 0 1.3315081-.40249469 1.6284835-1.0331614l.1501994-.32059392-.8756681.00004418c-.3313709 0-.6-.26862915-.6-.6 0-.29823376.2175896-.54564675.5026768-.59214701l.0973232-.00785299 1.9547614-.00171387c.4457642-.04679259.839555-.32284971 1.0332575-.73420267zm-10.9751921-1.86824142c-.7008698 0-1.2690371.56816725-1.2690371 1.26903708s.5681673 1.26903708 1.2690371 1.26903708 1.2690371-.56816725 1.2690371-1.26903708-.5681673-1.26903708-1.2690371-1.26903708z"/></svg>