<svg height="32" viewBox="0 0 32 32" width="32" xmlns="http://www.w3.org/2000/svg"><path d="m16 4.12168894c.791483 0 1.4331067.64162374 1.4331067 1.43310672 0 .53541496-.293615 1.00225246-.7286137 1.24828121l-.0005935 3.09344267c1.3994041-.17146382 2.6609437-.96391248 3.4202513-2.17567252l.5388252-.85989782c.7899485-1.26065913 2.1729827-2.02615354 3.6606924-2.02615354h4.0312018c.5278481 0 .876268.54918436.6513934 1.02673545l-.6887742 1.46270344-.0864251.16761717c-.3678698.65445749-.9971051 1.11381694-1.71953 1.27138243l-.0777012.01376585-.378894.80370083c-.5147574 1.09315567-1.6144148 1.79081307-2.8227047 1.79081307l-6.5291028-.000825v2.33l4.41808.0009733c.4694202 0 .8563089-.3533587.9091837-.8085936l.0061582-.1067482c0-.3976451.322355-.72.72-.72s.72.3223549.72.72c0 1.2466185-.9684764 2.2670373-2.1940807 2.349908l-.1612612.0054338-4.41808-.0009733v1.979l1.5584995.0002322c1.3415712 0 2.4291295 1.0875583 2.4291295 2.4291294 0 1.2879083-1.0022938 2.3417184-2.2694135 2.4239625l-.159716.005167-1.5584995-.0004911.0008428 5.4755118c0 .397645-.3223549.72-.72.72-.3645079 0-.6657513-.2708677-.7134272-.6223003l-.0065728-.0976997-.0008428-2.0575118-.9887408.0007499c-1.3415712 0-2.4291295-1.0875583-2.4291295-2.4291294 0-1.2879083 1.0022938-2.3417184 2.2694135-2.4239625l.159716-.0051669.9887408-.0004911v-1.978l-3.6194836.0002322c-1.3415712 0-2.42912946-1.0875583-2.42912946-2.4291294 0-1.2879083 1.00229376-2.3417184 2.26941346-2.4239626l.159716-.0051669 3.6194836-.0009733v-2.33l-6.14049579.000825c-1.14116266 0-2.18542788-.6222932-2.73157776-1.6123343l-.09112698-.17847877-.37893107-.80370083-.07766407-.01376585c-.6622229-.14443503-1.24614052-.54246083-1.62221481-1.11189435l-.09731525-.15948808-.08642502-.16761717-.68877425-1.46270344c-.21081996-.44770414.08223222-.95836722.55462071-1.02045126l.09677269-.00628419h4.03120182c1.40940917 0 2.72487128.68703654 3.53110618 1.83125645l.1295862.19489709.5388252.85989782c.6884734 1.09871745 1.7898451 1.85270779 3.0325039 2.11163712l-.000086-3.04827848c-.4171318-.25055129-.696244-.70738556-.696244-1.22941 0-.79148298.6416237-1.43310672 1.4331067-1.43310672zm-.7368684 17.85599996-.9887408.0004911c-.5462811 0-.9891295.4428483-.9891295.9891294 0 .507261.3818437.9253377.8737761.9824748l.1153534.0066546.9887408-.0007499zm2.9984995-3.4177678-1.5584995-.0002322v1.978l1.5584995.0004911c.5462811 0 .9891295-.4428484.9891295-.9891295 0-.507261-.3818438-.9253376-.8737761-.9824748zm-2.9984995-3.4192322-3.6194836.0009733c-.5462811 0-.9891295.4428483-.9891295.9891295 0 .507261.3818438.9253376.8737761.9824748l.1153534.0066546 3.6194836-.0002322z" fill-rule="evenodd"/></svg>