<svg height="32" viewBox="0 0 32 32" width="32" xmlns="http://www.w3.org/2000/svg"><path d="m16.719442 6.4c-5.09 0-9.27000003 3.99-9.58000003 9.01l-.88.01c-.23 0-.44.14-.53.34-.1.21-.07.45.07.63l1.43 1.79c.11.14.29.23.47.23s.35-.08.47-.22l1.47-1.83c.15-.18.17-.43.07-.64s-.32-.34-.55-.34l-.81.01c.31-4.35 3.95000003-7.79 8.38000003-7.79 4.63 0 8.4 3.77 8.4 8.4s-3.77 8.4-8.4 8.4c-2.24 0-4.35-.87-5.94-2.46-.23-.23-.61-.23-.85000003 0-.23.23-.23.61 0 .85 1.81000003 1.81 4.22000003 2.81 6.79000003 2.81 5.29 0 9.6-4.31 9.6-9.6s-4.32-9.6-9.61-9.6zm0 4c-.33 0-.6.27-.6.6v5c0 .23.14.45.35.55l4.81 2.2c.08.04.17.05.25.05.23 0 .45-.13.55-.35.14-.3.01-.66-.3-.8l-4.46-2.04v-4.61c0-.33-.27-.6-.6-.6z"/></svg>