<svg height="32" viewBox="0 0 32 32" width="32" xmlns="http://www.w3.org/2000/svg"><path d="m15.985099 5.7254699c5.6638353 0 10.28508 4.6146098 10.28508 10.2745301 0 5.6618763-4.6126537 10.2745301-10.27453 10.2745301-2.7477302 0-5.3282783-1.0686835-7.26924301-3.0096951-.29732876-.3102561-.29732876-.8022351.00440797-1.1039249.31025609-.2973288.80223509-.2973288 1.10174439.0021805 1.64740555 1.6474055 3.83511525 2.5523836 6.16309065 2.5523836 4.803726 0 8.7154741-3.9117482 8.7154741-8.7154742s-3.9117481-8.71547419-8.7154741-8.71547419c-4.5209395 0-8.28252968 3.46489829-8.68196566 7.92342499l1.37906012.014466c.14738296.001546.29039813.0502456.40809669.1389652.30430714.2293827.36504537.6620239.13566262.966331l-2.21425878 2.9375129c-.03922752.0520406-.08562974.0982614-.13782355.1372848-.30520309.2281893-.73760305.1657573-.96579235-.1394458l-2.19419004-2.9347282c-.08990265-.1202447-.13813233-.2665316-.13737207-.4166672.00192967-.3810716.31241354-.6884269.69348513-.6864972l1.46068867.0073966c.39963772-5.331322 4.86479212-9.507099 10.24385922-9.507099zm-.0950653 4.26413502c.3622851 0 .6587001.29641508.6587001.65870008v5.0610123l4.8963373 2.2395803c.3403284.1536967.4830467.5489167.3293501.8782668-.1097834.2415234-.3513068.3842417-.6038085.3842417-.0878266 0-.1866316-.0109783-.2744583-.0548917l-5.280579-2.4152336c-.2305451-.1097834-.3842418-.3513067-.3842418-.6038084v-5.4891674c0-.362285.2964151-.65870008.6587001-.65870008z"/></svg>