<svg height="32" viewBox="0 0 32 32" width="32" xmlns="http://www.w3.org/2000/svg"><g fill="none"><path d="m5.74123978 15.2325689-1.46068867-.0073966c-.38107159-.0019297-.69155546.3054256-.69348513.6864972-.00076026.1501356.04746942.2964225.13737207.4166672l2.19419004 2.9347282c.2281893.3052031.66058926.3676351.96579235.1394458.05219381-.0390234.09859603-.0852442.13782355-.1372848l2.21425878-2.9375129c.22938275-.3043071.16864452-.7369483-.13566262-.966331-.11769856-.0887196-.26071373-.1374192-.40809669-.1389652l-1.37906012-.014466c.39943598-4.4585267 4.16102616-7.92342499 8.68196566-7.92342499 4.803726 0 8.7154741 3.91174819 8.7154741 8.71547419s-3.9117481 8.7154742-8.7154741 8.7154742c-2.3279754 0-4.5156851-.9049781-6.16309065-2.5523836-.2995093-.2995093-.7914883-.2995093-1.10174439-.0021805-.30173673.3016898-.30173673.7936688-.00440797 1.1039249 1.94096471 1.9410116 4.52151281 3.0096951 7.26924301 3.0096951 5.6618763 0 10.27453-4.6126538 10.27453-10.2745301 0-5.6599203-4.6212447-10.2745301-10.28508-10.2745301-5.3790671 0-9.8442215 4.175777-10.24385922 9.507099z" fill="#b75c64"/><path d="m15.8900337 9.98960492c-.362285 0-.6587001.29641508-.6587001.65870008v5.4891674c0 .2525017.1536967.494025.3842418.6038084l5.280579 2.4152336c.0878267.0439134.1866317.0548917.2744583.0548917.2525017 0 .4940251-.1427183.6038085-.3842417.1536966-.3293501.0109783-.7245701-.3293501-.8782668l-4.8963373-2.2395803v-5.0610123c0-.362285-.296415-.65870008-.6587001-.65870008z" fill="#252d4f"/></g></svg>