<svg height="32" viewBox="0 0 32 32" width="32" xmlns="http://www.w3.org/2000/svg"><path d="m26.9395866 15.50375-2.36-2.19c-.05-.08-.13-.15-.22-.2l-7.95-7.38c-.23-.21-.59-.21-.82 0l-7.95000004 7.38c-.09.05-.16.12-.22.2l-2.36 2.19c-.24.23-.26.61-.03.85s.61.26.85.03l1.44-1.34v10.78c0 .33.27.6.6.6h5.14000004c.33 0 .6-.27.6-.6v-6.85c0-1.29 1.05-2.34 2.33-2.34 1.29 0 2.33 1.05 2.33 2.34v6.85c0 .33.27.6.6.6h5.14c.33 0 .6-.27.6-.6v-10.78l1.44 1.34c.12.11.26.16.41.16.16 0 .32-.06.44-.19.25-.25.24-.63-.01-.85zm-3.46 9.72h-3.94v-6.25c0-1.95-1.59-3.54-3.53-3.54-1.95 0-3.53 1.59-3.53 3.54v6.25h-3.94000004v-11.3l7.47000004-6.94 7.47 6.94z"/></svg>