<svg height="32" viewBox="0 0 32 32" width="32" xmlns="http://www.w3.org/2000/svg"><g fill="none"><path d="m18.6714405 26.9665277v-6.886c0-1.5370085-1.2459915-2.783-2.783-2.783s-2.783 1.2459915-2.783 2.783v6.886h-6.53399999v-11.33l9.31699999-8.73400002 9.317 8.73400002v11.33z" fill="#a080c1"/><path d="m15.8884405 6.90252768 9.317 8.73400002v11.33h-6.534v-6.886c0-1.5370085-1.2459915-2.783-2.783-2.783-.0018215 0-.0036427.0000017-.0054634.0000052z" fill="#7d5b9f"/><path d="m16.4614798 5.22406439c-.3269455-.29852633-.8331331-.29852633-1.1586066-.00135483l-10.53147202 9.77135484c-.34346135.3291053-.36533669.8672387-.04045772 1.2062429.32633582.3405243.86446925.3623997 1.20347339.0375207l9.94726135-9.23913275 9.9294374 9.24163685c.1646885.1509742.3638006.2269988.5803249.2269988.2362219 0 .4602303-.0933368.6237009-.2704299.3411672-.3408855.3331565-.886283-.0258668-1.2048827z" fill="#252d4f"/></g></svg>