<svg height="32" viewBox="0 0 32 32" width="32" xmlns="http://www.w3.org/2000/svg"><path d="m15.669355 2.58858226c.1718898-.11351607.387623-.12973265.5720394-.04864975l.0892506.04864975 7.2068085 4.7593797c.1401448.09255167.2337671.23858419.2610816.40132103l.0082735.09935242-.0008086 3.77462029 3.594.0011636c.6213203 0 1.1323525.4721997 1.1938045 1.077307l.0061955.122693v12.9763219c0 .6213203-.4721997 1.1323525-1.0774242 1.1938045l-.1227181.0061955h-22.7998577c-.62132034 0-1.13235254-.4721997-1.19380454-1.077307l-.00619546-.122693v-12.9763219c0-.6213203.47219968-1.1323525 1.07722771-1.1938045l.12267609-.0061955 3.5930962-.0011636.00019145-3.77462029c0-.16794752.07026479-.32654601.19100914-.43901896l.07834588-.06165449zm8.136645 10.23367344v12.976l3.594.0024855v-12.9763219zm-7.806-9.0152557-6.607 4.364v17.6282557l1.9680449.0014502.0009769-4.9742508c.0000541-.2981954.2176349-.5455508.5026888-.59204l.0973112-.007851h8.0759564c.2982701 0 .5457002.2176405.592162.5027674l.007838.0973358-.0025969 4.9259098.0016187.0466786 1.969.0007443v-17.629zm-7.807 9.016-3.593.0014193v12.9755807l3.593-.001zm7.212 8.6022557-2.843.0007443-.001 4.3682557 2.839-.015v-4.2792557zm4.032.0007443-2.843-.0007443.006.0747443v4.2732557l2.837-.015zm-1.9222937-13.55612486v2.72730086h2.7203337v3.2545108h-2.7203337v2.7272766h-3.2462856v-2.7272766h-2.7203336v-3.2545108h2.7203336v-2.72730086z"/></svg>