<svg height="32" viewBox="0 0 32 32" width="32" xmlns="http://www.w3.org/2000/svg"><path d="m7.593 12.223747v14.176l-2.993.0009942c-.33137085 0-.6-.2686292-.6-.6v-12.9763219c0-.3313709.26862915-.6.6-.6zm19.807.0006723c.3313708 0 .6.2686291.6.6v12.9763219c0 .3313708-.2686292.6-.6.6l-2.994-.0009942v-14.176zm-11.4-8.57896345 7.2068086 4.7593797v17.99590565l-2.5696172-.0002313c-.2982337.0002313-.5456271-.2175901-.5921017-.5026811l-.007795-.0973729.0006835-4.9738918h-3.5l-.0006942 5.0358918c-.0000511.2971441-.2409484.5379999-.5380926.5379999-.2673677 0-.4891744-.1950699-.5308621-.4506517l-.0070402-.0873482.0007327-5.0358918h-3.5l-.0007214 4.9738918c-.0002232.3313071-.2688018.5998612-.600109.600054l-2.56799995.0002313v-17.99590565zm1.5147063 4.22441929h-3.2462856v2.72730086h-2.7203336v3.2545108h2.7203336v2.7272766h3.2462856v-2.7272766h2.7203337v-3.2545108h-2.7203337z" fill-rule="evenodd"/></svg>