<svg height="32" viewBox="0 0 32 32" width="32" xmlns="http://www.w3.org/2000/svg"><path d="m16 3c1.1045695 0 2 .8954305 2 2 0 .46706984-.1601067.89674476-.4284311 1.23713581l4.1624311 4.16286419h5.666c1.7063694 0 3.100796 1.3355862 3.1949344 3.0184134l.0050656.1815866v8.8c0 1.7063694-1.3355862 3.100796-3.0184134 3.1949344l-.1815866.0050656h-22.8c-1.70636943 0-3.10079599-1.3355862-3.19493436-3.0184134l-.00506564-.1815866v-8.8c0-1.7063694 1.33558623-3.100796 3.01841339-3.1949344l.18158661-.0050656h5.665l4.1634311-4.16286419c-.2394809-.30380069-.3927593-.67872179-.4229454-1.08787347l-.0054857-.14926234c0-1.1045695.8954305-2 2-2zm11.4 8.6h-22.8c-1.0543618 0-1.91816512.8158778-1.99451426 1.8507377l-.00548574.1492623v8.8c0 1.0543618.81587779 1.9181651 1.85073766 1.9945143l.14926234.0054857h22.8c1.0543618 0 1.9181651-.8158778 1.9945143-1.8507377l.0054857-.1492623v-8.8c0-1.1045695-.8954305-2-2-2zm-18.75546875 3.4703125c1.42124995 0 2.28089995.8604 2.34739795 2.28744l.0041645.18131v.6367188c0 1.5234375-.8710937 2.4414062-2.35156245 2.4414062-1.42626953 0-2.28212484-.8466526-2.35096995-2.2546011l-.0044988-.1868051v-.6367188c0-1.5390625.875-2.46875 2.35546875-2.46875zm5.41406245.0976563c1.1679688 0 1.90625.7109375 1.90625 1.8085937 0 1.1123512-.6802721 1.7570153-1.8012363 1.8158896l-.1714199.0044229h-.859375v1.046875c0 .4414063-.234375.6953125-.6484375.6953125-.3728693 0-.5972366-.2066116-.6349491-.5787472l-.0056759-.1165653v-3.7929687c0-.5942709.2041667-.8482639.7268333-.8794885l.1169167-.003324zm10.8515625-.0390625c.3444603 0 .5630166.2066115.5999073.5611382l.0055615.1107368v4.0195312c0 .46875-.2109375.71875-.6054688.71875-.2569444 0-.4243827-.095679-.6449759-.3912894l-.0854928-.1204293-1.8125-2.7148438h-.0507813v2.5546875c0 .421875-.2148437.671875-.59375.671875-.3444602 0-.5597882-.2098399-.5960919-.5620187l-.0054706-.1098563v-3.9804687c0-.5.2148438-.7578125.640625-.7578125.2534723 0 .4112655.1111111.6242713.3991769l.08276.1164481 1.796875 2.6796875h.0507812v-2.5234375c0-.421875.21875-.671875.59375-.671875zm-5.1015625.0390625c.296875 0 .5078125.2109375.5078125.515625 0 .2673611-.1666666.4606481-.4122085.5003l-.095604.0075125h-1.890625v1.1523437h1.796875c.2773438 0 .4648438.1953125.4648438.4765625 0 .2534722-.1481481.4266975-.3758573.4620628l-.0889865.0066872h-1.796875v1.1875h1.875c.3125 0 .5234375.203125.5234375.5117188 0 .2777777-.1666666.4660493-.4259259.5044581l-.1014178.0072606h-2.3984375c-.4475911 0-.7048069-.2166341-.7445679-.6228231l-.0054321-.1154581v-3.8554688c0-.436849.2199164-.6931695.6326701-.7328559l.1173299-.0054253zm-11.16406245.9570312c-.6262207 0-1.01211548.4600525-1.05790615 1.2449741l-.00459385.1612759v.6445313c0 .8710937.39453125 1.3867187 1.0625 1.3867187.62255859 0 1.00822449-.453186 1.05400085-1.2275934l.0045929-.1591253v-.6445313c0-.8828125-.3984375-1.40625-1.05859375-1.40625zm5.22265625.0390625h-.7304688v1.671875h.5859375c.6679688 0 .9648438-.21875.9648438-.8359375 0-.4903846-.2496302-.7877219-.702805-.8305644zm2.6896701-9.24260906c-.1767679.05113937-.3636121.07854656-.5568576.07854656-.1936067 0-.3807881-.02750974-.5578487-.07883358l-3.4791513 3.47783358h8.073z"/></svg>