<svg height="32" viewBox="0 0 32 32" width="32" xmlns="http://www.w3.org/2000/svg"><path d="m16 3c1.1045695 0 2 .8954305 2 2 0 .46706984-.1601067.89674476-.4284311 1.23713581l4.7624311 4.76286419h5.066c1.4359403 0 2.6 1.1640597 2.6 2.6v8.8c0 1.4359403-1.1640597 2.6-2.6 2.6h-22.8c-1.43594035 0-2.6-1.1640597-2.6-2.6v-8.8c0-1.4359403 1.16405965-2.6 2.6-2.6h5.065l4.7634311-4.76286419c-.2394809-.30380069-.3927593-.67872179-.4229454-1.08787347l-.0054857-.14926234c0-1.1045695.8954305-2 2-2zm-9.66589355 12.5883789c-1.19335938 0-1.88208008.7458496-1.88208008 1.9931641v.4697265c0 1.3012696.66967773 2.0439453 1.88208008 2.0439453.52368164 0 .96166992-.1428222 1.27270507-.3840332.27612305-.2062988.44750977-.4855957.44750977-.7363281s-.17456055-.4221191-.43164063-.4221191c-.16186523 0-.27612304.0603027-.44433593.2348633-.2253418.2856445-.47290039.4189453-.78076172.4189453-.57763672 0-.89501953-.4221192-.89501953-1.2028809v-.3745117c0-.7331543.32373047-1.1552734.89501953-1.1552734.3046875 0 .52685547.1333007.76489258.4252929.16503906.1682129.28881836.2316895.45703125.2316895.25390625 0 .42846679-.1682129.42846679-.4221192 0-.1967773-.12695312-.4443359-.33642578-.6474609-.31103515-.3015137-.8125-.4729004-1.3774414-.4729004zm7.44580075 0c-1.2028808 0-1.9138183.7553711-1.9138183 2.0058594v.517334c0 1.2346191.7045898 1.9836425 1.9138183 1.9836425 1.2028809 0 1.9106446-.7458496 1.9106446-1.9836425v-.517334c0-1.2473145-.7077637-2.0058594-1.9106446-2.0058594zm4.1259766 0c-1.015625 0-1.6630859.5268555-1.6630859 1.3583984 0 .6633301.3840332 1.0664063 1.1647949 1.2314454l.5966797.1364746c.4570312.0983886.6474609.2475586.6474609.4887695 0 .2983398-.2443848.4633789-.6982422.4633789-.3205566 0-.6347656-.1333008-.8950195-.3776855-.1745606-.1555176-.3046875-.2126465-.4570313-.2126465-.2253418 0-.4094238.1777343-.4094238.4316406 0 .1777344.1015625.3618164.2856445.536377.295166.2792968.8251953.4506835 1.421875.4506835 1.0854493 0 1.7805176-.5490722 1.7805176-1.402832 0-.6569824-.3903808-1.0537109-1.1965332-1.2155762l-.6030273-.1301269c-.4030762-.0793457-.5871582-.2475586-.5871582-.4855957 0-.2729492.2412109-.4475098.6252441-.4475098.3269043 0 .5839844.1269531.8061523.3713379.1333008.1269531.2697754.1872559.40625.1872559.2443848 0 .4094239-.1586914.4094239-.3903809 0-.1936035-.0983887-.3840332-.2856446-.5554199-.2919921-.2761231-.793457-.4379883-1.3488769-.4379883zm-8.65185548.0476074c-.33642578 0-.52368164.203125-.52368164.5649414v3.1992188c0 .3903808.21264648.5998535.609375.5998535h1.79003902c.2634278 0 .4475098-.1809082.4475098-.4379883s-.184082-.4379883-.4475098-.4379883h-1.34887691v-2.9230957c0-.3586425-.19042969-.5649414-.52685547-.5649414zm13.63159178.0317383h-1.9645996c-.3967285 0-.609375.2126465-.609375.5998535v3.1325684c0 .3903808.2126465.5998535.609375.5998535h1.9487305c.2570801 0 .4284668-.1618652.4284668-.4157715 0-.2507324-.1713867-.4157715-.425293-.4157715h-1.5234375v-.9648437h1.4599609c.2253418 0 .3776856-.1491699.3776856-.3808594 0-.2285156-.1523438-.387207-.3776856-.387207h-1.4599609v-.9362793h1.5361328c.241211 0 .4125977-.1682129.4125977-.4125977 0-.2475586-.1713867-.4189453-.4125977-.4189453zm2.7644043 0h-1.088623c-.3967285 0-.6125489.2094727-.6125489.5998535v3.1325684c0 .3903808.2158204.5998535.6125489.5998535h1.088623c1.2758789 0 1.958252-.7553711 1.958252-2.1677246 0-1.4091797-.6823731-2.1645508-1.958252-2.1645508zm-11.8701172.7775879c.536377 0 .8601074.425293.8601074 1.1425781v.5236817c0 .7077636-.3205566 1.126709-.8601074 1.126709-.5427246 0-.8632812-.4189454-.8632812-1.126709v-.5236817c0-.7172851.3205566-1.1425781.8632812-1.1425781zm11.708252.0539551c.720459 0 1.0473633.4157715 1.0473633 1.3330078 0 .9204101-.3269043 1.3330078-1.0473633 1.3330078h-.4887696v-2.6660156zm-8.9303105-9.57810118c-.1770606.05132384-.364242.07883358-.5578487.07883358-.1932455 0-.3800897-.02740719-.5568576-.07854656l-4.0801424 4.07854656h9.273z"/></svg>