<svg height="32" viewBox="0 0 32 32" width="32" xmlns="http://www.w3.org/2000/svg"><path d="m16 3c1.1045695 0 2 .8954305 2 2 0 .46706984-.1601067.89674476-.4284311 1.23713581l4.1624311 4.16286419h5.666c1.7063694 0 3.100796 1.3355862 3.1949344 3.0184134l.0050656.1815866v8.8c0 1.7063694-1.3355862 3.100796-3.0184134 3.1949344l-.1815866.0050656h-22.8c-1.70636943 0-3.10079599-1.3355862-3.19493436-3.0184134l-.00506564-.1815866v-8.8c0-1.7063694 1.33558623-3.100796 3.01841339-3.1949344l.18158661-.0050656h5.665l4.1634311-4.16286419c-.2394809-.30380069-.3927593-.67872179-.4229454-1.08787347l-.0054857-.14926234c0-1.1045695.8954305-2 2-2zm11.4 8.6h-22.8c-1.0543618 0-1.91816512.8158778-1.99451426 1.8507377l-.00548574.1492623v8.8c0 1.0543618.81587779 1.9181651 1.85073766 1.9945143l.14926234.0054857h22.8c1.0543618 0 1.9181651-.8158778 1.9945143-1.8507377l.0054857-.1492623v-8.8c0-1.1045695-.8954305-2-2-2zm-21.06589355 3.9883789c.5649414 0 1.06640625.1713867 1.3774414.4729004.20947266.203125.33642578.4506836.33642578.6474609 0 .2539063-.17456054.4221192-.42846679.4221192-.16821289 0-.29199219-.0634766-.45703125-.2316895-.23803711-.2919922-.46020508-.4252929-.76489258-.4252929-.53320313 0-.85075521.3677126-.8907257 1.0128226l-.00429383.1424508v.3745117c0 .7807617.31738281 1.2028809.89501953 1.2028809.30786133 0 .55541992-.1333008.78076172-.4189453.16821289-.1745606.2824707-.2348633.44433593-.2348633.25708008 0 .43164063.1713867.43164063.4221191s-.17138672.5300293-.44750977.7363281c-.31103515.241211-.74902343.3840332-1.27270507.3840332-1.15729315 0-1.82007896-.6766942-1.87794111-1.8699791l-.00413897-.1739662v-.4697265c0-1.2473145.6887207-1.9931641 1.88208008-1.9931641zm7.44580075 0c1.1482045 0 1.8452794.6911535 1.9062776 1.8388259l.004367.1670335v.517334c0 1.2377929-.7077637 1.9836425-1.9106446 1.9836425-1.1542636 0-1.8487221-.6824779-1.9094698-1.81832l-.0043485-.1653225v-.517334c0-1.2504883.7109375-2.0058594 1.9138183-2.0058594zm4.1259766 0c.5554199 0 1.0568848.1618652 1.3488769.4379883.1872559.1713867.2856446.3618164.2856446.5554199 0 .2316895-.1650391.3903809-.4094239.3903809-.1364746 0-.2729492-.0603028-.40625-.1872559-.2221679-.2443848-.479248-.3713379-.8061523-.3713379-.3840332 0-.6252441.1745606-.6252441.4475098 0 .2115885.1454475.3680073.4608624.4558819l.1262958.0297138.6030273.1301269c.8061524.1618653 1.1965332.5585938 1.1965332 1.2155762 0 .8537598-.6950683 1.402832-1.7805176 1.402832-.5966797 0-1.126709-.1713867-1.421875-.4506835-.184082-.1745606-.2856445-.3586426-.2856445-.536377 0-.2539063.184082-.4316406.4094238-.4316406.121875 0 .2295313.0365625.3570938.1308125l.0999375.081834c.2602539.2443847.5744629.3776855.8950195.3776855.4538574 0 .6982422-.1650391.6982422-.4633789 0-.2170898-.154248-.3596265-.5182734-.4576882l-.7258672-.1675559c-.7807617-.1650391-1.1647949-.5681153-1.1647949-1.2314454 0-.8315429.6474609-1.3583984 1.6630859-1.3583984zm-8.65185548.0476074c.3027832 0 .48730957.1671021.52118701.4619729l.00566846.1029685v2.9230957h1.34887691c.2634278 0 .4475098.1809082.4475098.4379883 0 .2285156-.1454475.3968461-.3627829.4314317l-.0847269.0065566h-1.79003902c-.35705566 0-.56500488-.1696729-.60302417-.4881951l-.00635083-.1116584v-3.1992188c0-.3618164.18725586-.5649414.52368164-.5649414zm13.63159178.0317383c.241211 0 .4125977.1713867.4125977.4189453 0 .2138367-.131218.3693543-.325615.4048925l-.0869827.0077052h-1.5361328v.9362793h1.4599609c.2253418 0 .3776856.1586914.3776856.387207 0 .2027283-.1166382.3422775-.2967591.3739972l-.0809265.0068622h-1.4599609v.9648437h1.5234375c.2539063 0 .425293.1650391.425293.4157715 0 .2256945-.1354167.3786651-.3460648.4098723l-.082402.0058992h-1.9487305c-.3570557 0-.5650049-.1696729-.6030242-.4881951l-.0063508-.1116584v-3.1325684c0-.3484863.1722437-.5555786.4959075-.5935122l.1134675-.0063413zm2.7644043 0c1.2758789 0 1.958252.7553711 1.958252 2.1645508 0 1.3509468-.6243262 2.1007982-1.7952061 2.1634489l-.1630459.0042757h-1.088623c-.3570557 0-.5675757-.1696729-.6061092-.4881951l-.0064397-.1116584v-3.1325684c0-.3513427.1748145-.5561499.4989925-.5935979l.1135564-.0062556zm-11.8701172.7775879c-.5065429 0-.8195529.3704774-.8590363 1.0030538l-.0042449.1395243v.5236817c0 .7077636.3205566 1.126709.8632812 1.126709.5010115 0 .8131963-.3612335.855238-.9795135l.0048694-.1471955v-.5236817c0-.7172851-.3237304-1.1425781-.8601074-1.1425781zm11.708252.0539551h-.4887696v2.6660156h.4887696c.720459 0 1.0473633-.4125977 1.0473633-1.3330078 0-.8599091-.2873183-1.2790775-.916873-1.3281146zm-8.9313016-9.57781416c-.1767679.05113937-.3636121.07854656-.5568576.07854656-.1936067 0-.3807881-.02750974-.5578487-.07883358l-3.4791513 3.47783358h8.073z"/></svg>