<svg height="32" viewBox="0 0 32 32" width="32" xmlns="http://www.w3.org/2000/svg"><path d="m16 3c1.1045695 0 2 .8954305 2 2 0 .46706984-.1601067.89674476-.4284311 1.23713581l4.7624311 4.76286419h5.066c1.4359403 0 2.6 1.1640597 2.6 2.6v8.8c0 1.4359403-1.1640597 2.6-2.6 2.6h-22.8c-1.43594035 0-2.6-1.1640597-2.6-2.6v-8.8c0-1.4359403 1.16405965-2.6 2.6-2.6h5.065l4.7634311-4.76286419c-.2394809-.30380069-.3927593-.67872179-.4229454-1.08787347l-.0054857-.14926234c0-1.1045695.8954305-2 2-2zm-7.35546875 12.0703125c-1.48046875 0-2.35546875.9296875-2.35546875 2.46875v.6367187c0 1.5195313.8671875 2.4414063 2.35546875 2.4414063 1.48046875 0 2.35156255-.9179687 2.35156255-2.4414063v-.6367187c0-1.5351563-.8710938-2.46875-2.35156255-2.46875zm5.41406255.0976563h-1.3710938c-.609375 0-.84375.2460937-.84375.8828124v3.7929688c0 .4453125.2304688.6953125.640625.6953125.4140625 0 .6484375-.2539063.6484375-.6953125v-1.046875h.859375c1.2226563 0 1.9726563-.6523438 1.9726563-1.8203125 0-1.0976563-.7382813-1.8085937-1.90625-1.8085937zm10.8515624-.0390626c-.375 0-.59375.25-.59375.671875v2.5234376h-.0507812l-1.796875-2.6796876c-.2578125-.375-.421875-.515625-.7070312-.515625-.4257813 0-.640625.2578126-.640625.7578126v3.9804687c0 .4179687.2226562.671875.6015624.671875.3789063 0 .59375-.25.59375-.671875v-2.5546875h.0507813l1.8125 2.7148438c.265625.390625.4414063.5117187.7304687.5117187.3945313 0 .6054688-.25.6054688-.71875v-4.0195313c0-.421875-.2265625-.671875-.6054688-.671875zm-5.1015624.0390626h-2.4179688c-.4882812 0-.75.2617187-.75.7382812v3.8554688c0 .4804687.2617188.7382812.75.7382812h2.3984375c.3164063 0 .5273437-.1992188.5273437-.5117188 0-.3085937-.2109374-.5117187-.5234374-.5117187h-1.875v-1.1875h1.796875c.2773437 0 .4648437-.1835937.4648437-.46875 0-.28125-.1875-.4765625-.4648437-.4765625h-1.796875v-1.1523438h1.890625c.296875 0 .5078124-.2070312.5078124-.5078124 0-.3046876-.2109374-.515625-.5078124-.515625zm-11.16406255.9570312c.66015625 0 1.05859375.5234375 1.05859375 1.40625v.6445312c0 .8710938-.39453125 1.3867188-1.05859375 1.3867188-.66796875 0-1.0625-.515625-1.0625-1.3867188v-.6445312c0-.8828125.39453125-1.40625 1.0625-1.40625zm5.22265625.0390625c.5273437 0 .8203125.3046875.8203125.8359375 0 .6171875-.296875.8359375-.9648438.8359375h-.5859374v-1.671875zm2.6906612-9.24289608c-.1770606.05132384-.364242.07883358-.5578487.07883358-.1932455 0-.3800897-.02740719-.5568576-.07854656l-4.0801424 4.07854656h9.273z"/></svg>