<svg height="32" viewBox="0 0 32 32" width="32" xmlns="http://www.w3.org/2000/svg"><g fill="none" fill-rule="evenodd"><path d="m9.71149891 7.03571316h12.88311689c1.6066465 0 2.9090909 1.30244437 2.9090909 2.90909091v12.05194803c0 1.6066466-1.3024444 2.9090909-2.9090909 2.9090909h-12.88311689c-1.60664654 0-2.90909091-1.3024443-2.90909091-2.9090909v-12.05194803c0-1.60664654 1.30244437-2.90909091 2.90909091-2.90909091z" fill="#8aa8cb"/><path d="m16.0945824 7.03571316h6.5000334c1.6066465 0 2.9090909 1.30244437 2.9090909 2.90909091v12.05194803c0 1.6066466-1.3024444 2.9090909-2.9090909 2.9090909h-6.5000334z" fill="#5273b3"/><g fill="#fff" fill-rule="nonzero"><path d="m10.9021395 15.8992488 3.1630972-3.1014784c.2464751-.2362053.2464751-.6264576.0102698-.8729327s-.6264576-.2464751-.8729327-.0102698l-3.61496821 3.5430797c-.12323755.1129677-.18485633.2772845-.18485633.4416012 0 .1643168.06161878.3286335.18485633.4416012l3.69712661 3.6252381c.1232375.1129677.2772845.1745865.4313314.1745865.1643168 0 .3183637-.0616188.4416013-.1848563.2362053-.2464751.2362053-.6367274-.0102698-.8729327z"/><path d="m19.2398446 11.9145679c-.2464751-.2362053-.6367273-.2362053-.8729327.0102698-.2362053.2464751-.2362053.6367274.0102698.8729327l3.2452556 3.1836368-3.1630972 3.1014784c-.2464751.2362053-.2464751.6264576-.0102698.8729327.1232376.1232375.2772845.1848563.4416013.1848563.1540469 0 .3080938-.0616188.4313314-.1745865l3.6149682-3.5430797c.1232376-.1129677.1848563-.2772845.1848563-.4416012 0-.1643168-.0616187-.3286335-.1848563-.4416012z"/></g></g></svg>