<svg height="32" viewBox="0 0 32 32" width="32" xmlns="http://www.w3.org/2000/svg"><path d="m23.0018946 6.4707781c1.7082295 0 3.0930232 1.38479368 3.0930232 3.09302326v12.81395344c0 1.7082296-1.3847937 3.0930233-3.0930232 3.0930233h-13.69767445c-1.70822958 0-3.09302326-1.3847937-3.09302326-3.0930233v-12.81395344c0-1.70822958 1.38479368-3.09302326 3.09302326-3.09302326zm-9.0577449 5.198248c-.2260258-.235853-.584719-.2594383-.8452383-.078716l-.0828871.0677969-3.84353085 3.767097-.07075591.0781809c-.08385886.1118118-.12578828.2515766-.12578828.3913414 0 .1397647.04192942.2795295.12578828.3913413l.07075591.0781809 3.93088385 3.85445.0822865.0654274c.1142577.0782683.2452872.1201977.3763166.1201977.174706 0 .3384928-.0655147.4695223-.1965442.2260258-.235853.2486284-.5955289.0598477-.8481865l-.0707668-.0799389-3.4504426-3.3849277 3.3630896-3.2975749.0707668-.0799388c.1887807-.2526576.1661781-.6123335-.0598477-.8481865zm5.4079754-.078716c-.2605194-.1807223-.6192125-.157137-.8452383.078716-.2260259.235853-.2486284.5955289-.0598477.8481865l.0707668.0799388 3.4504425 3.3849278-3.3630895 3.2975748-.0707669.0799389c-.1887807.2526576-.1661781.6123335.0598477.8481865.1310295.1310295.2948163.1965442.4695223.1965442.1310294 0 .2620589-.0419294.3763166-.1201977l.0822865-.0654274 3.8435309-3.767097.0707559-.0781809c.0838589-.1118119.1257883-.2515766.1257883-.3913414 0-.1397647-.0419294-.2795295-.1257883-.3913413l-.0707559-.0781809-3.9308839-3.85445z" fill-rule="evenodd"/></svg>