<svg height="32" viewBox="0 0 32 32" width="32" xmlns="http://www.w3.org/2000/svg"><path d="m11.585 15.955 3.08-3.02c.24-.23.24-.61.01-.85s-.61-.24-.85-.01l-3.52 3.45c-.12.11-.18.27-.18.43s.06.32.18.43l3.6 3.53c.12.11.27.17.42.17.16 0 .31-.06.43-.18.23-.24.23-.62-.01-.85zm6.5-3.88c-.24-.23-.62-.23-.85.01s-.23.62.01.85l3.16 3.1-3.08 3.02c-.24.23-.24.61-.01.85.12.12.27.18.43.18.15 0 .3-.06.42-.17l3.52-3.45c.12-.11.18-.27.18-.43s-.06-.32-.18-.43zm4.05-5.05h-12.28c-1.63 0-2.96 1.33-2.96 2.96v12.03c0 1.63 1.33 2.96 2.96 2.96h12.29c1.63 0 2.96-1.33 2.96-2.96v-12.03c-.01-1.63-1.34-2.96-2.97-2.96zm1.76 14.98c0 .97-.79 1.76-1.76 1.76h-12.28c-.97 0-1.76-.79-1.76-1.76v-12.02c0-.97.79-1.76 1.76-1.76h12.29c.97 0 1.76.79 1.76 1.76v12.02z"/></svg>