<svg height="32" viewBox="0 0 32 32" width="32" xmlns="http://www.w3.org/2000/svg"><path d="m15.5887844 14.7931652c.3701309-.1727278.805732-.0287386 1.0083389.3126688l.0492554.0979161.0578769.134194.0546801.1336423c.0242842.0612661.047705.1239602.0702655.1883711l.0651039.1986722.0599613.2107069.0548378.2244752.0497334.2399772.0446481.2572128.0395818.276182.0345346.296885.0295066.3193214.0244975.3434915.0195076.3693953.0199471.6064549.0071163.4417393.0014495.7230973-.0095632.8008842-.0297704 1.19896-.0490814 1.3615186-.0682397 1.5379462c-.0243993.3903883-.3187013.7015955-.6950707.7507524l-.1045398.0067719-.042099-.0003663c-.4414148-.0267524-.7841533-.4025259-.7576695-.8392543l.0585077-1.2864542.0451345-1.1567648.0318053-1.0353233.0185206-.9221301.0049885-.5559415-.0004521-.4501089-.0085715-.5937348-.0179061-.5314817c-.0112822-.251-.026055-.4805054-.0443034-.6912917l-.0411267-.3974362c-.0076253-.0623536-.0156357-.122833-.0240306-.1815408l-.0549796-.3318111c-.0496541-.2601647-.1088939-.4811811-.1776504-.6758986l-.0423953-.1137774-.0912835-.2171628c-.1595209-.3681251-.0157692-.8001397.3182585-1.0034689zm3.4243681 7.1883573.0838475-.0085225.1150296.002275c.3578716.0335504.6452412.3067183.7148592.6583243l.0142056.1076738.000257.111413-.0055234.0598067-.0626343.9393725c-.029145.3515927-.0648752.6222508-.1145948.8259226-.071794.3230731-.3454564.5640719-.6666312.6090409l-.1285275.0075339-.1036672-.0092494c-.005245-.0011741-.0080543-.0022771-.008258-.0032633-.3788431-.0611037-.6576189-.3889362-.6704983-.7629807l.0032045-.1029922.1599616-1.7195825c.0304509-.3349592.2622284-.6011348.5654339-.6913605zm-6.0789448-8.4147916.0985377.0054429.0982546.0178262.0914113.0267232c.3077045.1106243.5120436.4061009.5185832.7283503l-.0052757.1081912-.0181644.0989817c-.0686612.2786838-.0816194.5940972-.0525217.9127162.0163391.1266902.0403689.269981.0720893.4298725.0618239.2968019.4298927 2.287412.444669 4.0029268l.0013434.4239214-.0135467.7515584-.0242064.7217146c-.0367357.9205604-.0961267 1.8515385-.1829498 2.7487103-.0362575.3746606-.335507.6680612-.6986088.7143595l-.1004612.0063757-.0840663-.0014532c-.4377198-.053057-.7548692-.4393287-.7149505-.8783542.0621796-.624757.1094036-1.2728882.1436091-1.9267145l.0403475-.9394794.0198134-.758018.0052468-.4859807-.0056398-.6796185c-.0019161-.1072395-.0043385-.2116404-.0072944-.3134672l-.0243536-.5821905c-.0519832-.9258952-.1627476-1.6473229-.3594862-2.4289467l-.0379746-.2004687c-.0064834-.0379796-.0129814-.0783988-.0194002-.1214907-.0875281-.5876067-.0901326-1.193043.0487688-1.7665571.0796306-.3640255.4071869-.6122156.7662262-.6149315zm.8326893-4.42419303c3.4301636-1.00947756 7.0313855.88238053 8.5803623 4.49324093 1.0156804 2.3756591.9716292 5.0334146.2437046 9.3294984-.0672023.4300945-.4799817.723168-.9184778.656727-.4300946-.0672023-.723168-.4799817-.6563278-.9209325l.1347733-.8305682c.5420611-3.4992486.5324621-5.7239853-.2714957-7.6075436-1.2233956-2.8642991-4.0147893-4.36560087-6.6491943-3.586817-2.01336.5972647-3.0518303 1.8032302-3.4196422 3.9713828-.1891252 1.1261546-.0391785 2.9977119.298728 4.6269094.2865485 1.4050117.269393 2.4643659.0011261 3.9339481-.059725.3464053-.3451006.6051469-.6839914.649328l-.1263135.0066555-.104625-.0090241-.0190198-.0043664c-.43081682-.0807781-.71911607-.4967528-.63996348-.932091.23562258-1.3057418.23562258-2.1702436.00115122-3.3230917l-.04192789-.2060669-.08547149-.4693349c-.07101568-.4189792-.13965802-.9011062-.19207483-1.3974871-.12659752-1.1988633-.13771558-2.2769975.00790529-3.1416213.44638676-2.6584811 1.85357848-4.3564415 4.27712418-5.15643744zm-5.64610097.57256396c.29907467-.26018877.74998975-.26897986 1.05469103-.00084274.31035518.27311256.3602972.71553601.12916686 1.04433141l-.0700198.0866417c-.30053398.3474924-.52221175.6983028-.77052507 1.2147869-.70434361 1.4869476-.92690708 3.2897117-.65262334 5.3370552.12138099.8800122.28274946 1.5233904.59838939 2.3651287.15948964.4120149-.05020655.8684124-.45772976 1.0260278-.09168477.0392935-.18619889.056171-.28878386.056171-.32814024 0-.62963093-.2060823-.74773395-.5210365-.36413058-.9912444-.54822142-1.725442-.68051905-2.7125865-.31527321-2.3696341-.04885142-4.4677057.79822115-6.2434892.26818684-.5542528.52732182-.9794451.84491398-1.37695593l.16398006-.19691798zm6.88038367 2.21622727c1.4190377-.3835237 2.9975067.2951271 3.9395632 1.4696585 1.1281387 1.4386355 1.4958992 3.4782544 1.2016886 6.582679-.036512.3772905-.3296853.6684995-.6971481.7144143l-.1019219.0063209-.0781072-.0008214c-.4398455-.0399859-.7610863-.4271223-.7209719-.8683492.2552792-2.6509768-.0258432-4.3751942-.8680193-5.447055-.5022817-.6375115-1.3751441-1.0503963-2.0966508-.9424544l-.1521017.0312102c-.4258337.1197657-.8666267-.1315275-.9866793-.5583811-.1097853-.3903476.0922221-.7932651.4554383-.9501783zm7.9955663-1.6120428c.3874544-.213768.8787511-.0775261 1.0914469.3079869.8428619 1.5171513 1.275378 2.5438718 1.5513468 3.9582172.2412145 1.216123.3053996 2.3714553.2134323 3.7713871-.0241749.3867984-.3236891.6925945-.6963223.7408744l-.1032882.0066499-.052099-.0003663c-.4396433-.0266451-.7742561-.4108301-.7474991-.8523066.0806248-1.2698411.0256212-2.2874074-.1868696-3.3499047-.2351689-1.2346366-.6139775-2.1328424-1.3786479-3.4908069-.1959539-.3551666-.0978024-.7975895.2172554-1.032909zm-12.8369048-2.42954517c2.9943293-2.06434991 6.6822372-2.27423085 10.1218571-.57477347.6652018.32748399 1.09795.60613161 1.6703016 1.07629316.3350628.28145275.3840787.77569646.1126426 1.11141371-.1433942.19553758-.3777439.30172727-.621281.30172727-.1782846 0-.362588-.06734161-.5064753-.18506776-.4816077-.39314917-.8092133-.60402168-1.3620031-.87556788-2.9168934-1.43887025-6.0093709-1.27227214-8.5064229.45419692-.3610702.25408642-.8685497.16181743-1.10866-.1984626-.23208439-.32980413-.17518544-.77313857.1139055-1.0403642z"/></svg>