<svg height="32" viewBox="0 0 32 32" width="32" xmlns="http://www.w3.org/2000/svg"><path d="m15.6733615 14.9744018c-.3.13-.44.49-.31.79.44.99.7 2.17.36 9.23-.02.33.24.61.57.63h.03c.32 0 .58-.25.6-.57.35-7.34.06-8.59-.46-9.77-.13-.31-.49-.45-.79-.31zm-2.15-.47c.08-.32-.12-.65-.44-.72-.32-.08-.65.12-.72.44-.23.95-.01 1.9.01 2.01.3 1.19.4 2.25.4 4.04 0 .02 0 2.02-.21 4.13-.03.33.21.62.54.66h.06c.3 0 .57-.23.6-.54.21-2.17.22-4.17.22-4.25 0-1.9-.11-3.04-.44-4.33-.01 0-.19-.75-.02-1.44zm5.67 7.67c-.33-.03-.62.21-.65.54l-.16 1.72c-.03.31.19.6.5.65.03.01.07.01.1.01.27 0 .52-.19.58-.46.1-.41.13-1.08.16-1.52.01-.12.01-.22.02-.29.02-.33-.23-.62-.55-.65zm-4.14-10.05c-.32.09-.51.42-.42.74s.42.51.74.42c.91-.24 1.94.32 2.46.98.88 1.12 1.17 2.89.91 5.59-.03.33.21.62.54.65h.06c.31 0 .57-.23.6-.54.29-3.06-.07-5.05-1.16-6.44-.77-.96-2.25-1.8-3.73-1.4zm-6.01000002-2.26c-.25-.22-.63-.19-.85.06-.39.45-.68.91-.98 1.53-.83 1.74-1.09 3.8-.78 6.13.13.97.31 1.69.67 2.67.09.24.32.39.56.39.07 0 .14-.01.21-.04.31-.12.47-.46.35-.77-.33-.88-.49-1.54-.61-2.41-.28-2.09-.05-3.93.67-5.45.25-.52.48-.89.8-1.26.24-.26.21-.63-.04-.85zm1.91000002-.83c2.56-1.77 5.73-1.94 8.71-.47.57.28.91.5 1.4.9.11.09.25.14.38.14.17 0 .35-.07.46-.22.21-.26.17-.63-.08-.84-.56-.46-.98-.73-1.63-1.05-3.38-1.67-6.99-1.46-9.92.56-.27.19-.34000002.56-.15.83.18.27.56.34.83.15zm2.87.3c-2.51.74-3.95000002 2.4-4.40000002 5.08-.32 1.9.2 4.62.31 5.14.24 1.18.24 2.07 0 3.4-.06.33.16.64.48000002.7.04.01.07.01.11.01.28 0 .54-.2.59-.49.23-1.26.31-2.34 0-3.86-.28-1.35-.52-3.39-.3-4.7.38-2.24 1.47-3.51 3.56-4.13 2.74-.81 5.63.75 6.89 3.7 1.05 2.46.63 5.71.15 8.55-.05.33.17.64.49.69.33.05.64-.17.69-.49.51-3.01.95-6.46-.23-9.22-1.51-3.52-5.01-5.36-8.34-4.38zm11.62 5.29c-.32-1.64-.93-2.82-1.53-3.9-.16-.29-.53-.39-.82-.23s-.39.53-.23.82c.58 1.03 1.12 2.08 1.4 3.55.22 1.1.27 2.14.19 3.4-.02.33.23.62.56.64h.04c.31 0 .58-.24.6-.56.09-1.37.03-2.51-.21-3.72z"/></svg>