<svg height="32" viewBox="0 0 32 32" width="32" xmlns="http://www.w3.org/2000/svg"><path d="m14.4214434 16.8990133c.2982338 0 .5456468.2175896.5921471.5026769l.0078529.0973231v9c0 .2982337-.2175896.5456467-.5026768.592147l-.0973232.007853h-8.99999996c-.29823376 0-.54564675-.2175896-.59214701-.5026769l-.00785299-.0973231v-9c0-.2982338.21758962-.5456468.50267689-.592147l.09732311-.007853zm12.1571132 0c.2982337 0 .5456467.2175896.592147.5026769l.007853.0973231v9c0 .2982337-.2175897.5456467-.5026769.592147l-.0973231.007853h-9c-.2982338 0-.5456468-.2175896-.5921471-.5026769l-.0078529-.0973231v-9c0-.2982338.2175896-.5456468.5026768-.592147l.0973232-.007853zm-12.7571582 1.1999734h-7.80000001v7.8l.95704505-.0009734 3.66818646-4.810306c.0746547-.0979206.1623551-.1851672.2606617-.2593129.5580533-.4209003 1.3369304-.3429711 1.8020421.1588908l.0886804.1060026 1.0224293 1.3557255zm-2.1033622 3.6572212-.0456968.0077939c-.0148846.0050128-.0292292.0124672-.0424571.0224441l-.0289624.0288125-3.11347646 4.0827549 5.33395496.0009734-.000955-1.4559734-1.9804808-2.6271348c-.0199538-.0264559-.0469751-.0444378-.0764502-.0532993zm14.2604753-3.6572212h-7.8v7.8l.9570451-.0009734 3.6681864-4.810306c.0746547-.0979206.1623551-.1851672.2606617-.2593129.5580533-.4209003 1.3369304-.3429711 1.8020421.1588908l.0886804.1060026 1.0224294 1.3557255zm-2.1915161 3.6874592-.0289624.0288125-3.1134764 4.0827549 5.3339549.0009734-.0009549-1.4559734-1.9804809-2.6271348c-.0498845-.0661397-.1439406-.0793171-.2100803-.0294326zm-14.79208021-2.2176003c.31110149.3122347.40328252.7812239.23350004 1.1879775-.16978248.4067535-.56803558.6710315-1.00879874.669446-.59982252-.0021916-1.08491817-.4890583-1.08491817-1.0888845 0-.4407658.26572736-.8380551.67309583-1.0063573.40736846-.1683022.87601956-.0744164 1.18712104.2378183zm12.15711311 0c.3111015.3122347.4032825.7812239.2335 1.1879775-.1697824.4067535-.5680355.6710315-1.0087987.669446-.5998225-.0021916-1.0849182-.4890583-1.0849182-1.0888845 0-.4407658.2657274-.8380551.6730959-1.0063573.4073684-.1683022.8760195-.0744164 1.187121.2378183zm5.4265283-14.66785888c.2982337 0 .5456467.21758962.592147.50267689l.007853.09732311v8.99999998c0 .2982338-.2175897.5456468-.5026769.592147l-.0973231.007853h-9c-.2982338 0-.5456468-.2175896-.5921471-.5026769l-.0078529-.0973231v-8.99999998c0-.29823376.2175896-.54564675.5026768-.59214701l.0973232-.00785299zm-12.1571132 0c.2982338 0 .5456468.21758962.5921471.50267689l.0078529.09732311v8.99999998c0 .2982338-.2175896.5456468-.5026768.592147l-.0973232.007853h-8.99999996c-.29823376 0-.54564675-.2175896-.59214701-.5026769l-.00785299-.0973231v-8.99999998c0-.29823376.21758962-.54564675.50267689-.59214701l.09732311-.00785299zm11.5570681 1.19997345h-7.8v7.80000003l.9570451-.0009735 3.6681864-4.81030593c.0746547-.09792058.1623551-.18516719.2606617-.2593129.5580533-.4209003 1.3369304-.3429711 1.8020421.15889074l.0886804.10600261 1.0224294 1.35572548zm-2.1915161 3.68745918-.0289624.02881255-3.1134764 4.0827548 5.3339549.0009735-.0009549-1.4559735-1.9804809-2.62713475c-.0498845-.06613966-.1439406-.07931708-.2100803-.0294326zm-9.965597-3.68745918h-7.80000001v7.80000003l.95704505-.0009735 3.66818646-4.81030593c.0746547-.09792058.1623551-.18516719.2606617-.2593129.5580533-.4209003 1.3369304-.3429711 1.8020421.15889074l.0886804.10600261 1.0224293 1.35572548zm-2.1915161 3.68745918-.0289624.02881255-3.11347646 4.0827548 5.33395496.0009735-.000955-1.4559735-1.9804808-2.62713475c-.0498845-.06613966-.1439407-.07931708-.2100803-.0294326zm9.522146-2.21760033c.3111015.31223469.4032825.7812239.2335 1.18797749-.1697824.40675359-.5680355.6710315-1.0087987.669446-.5998225-.00219161-1.0849182-.48905822-1.0849182-1.08888443 0-.44076587.2657274-.83805516.6730959-1.00635735.4073684-.16830219.8760195-.07441639 1.187121.23781829zm-12.15711311 0c.31110149.31223469.40328252.7812239.23350004 1.18797749s-.56803558.6710315-1.00879874.669446c-.59982252-.00219161-1.08491817-.48905822-1.08491817-1.08888443 0-.44076587.26572736-.83805516.67309583-1.00635735.40736846-.16830219.87601956-.07441639 1.18712104.23781829z"/></svg>