<svg height="32" viewBox="0 0 32 32" width="32" xmlns="http://www.w3.org/2000/svg"><g fill="none" fill-rule="evenodd"><path d="m15.0381223 6.14531689-.0001842 3.91474171c-2.8633801.447558-5.05410552 2.9248582-5.05410552 5.9138297s2.19072542 5.4662717 5.05410552 5.9138298l.0001842 3.9147416h-5.9857143c-1.76731119 0-3.2-1.4326888-3.2-3.2v-13.25714281c0-1.7673112 1.43268881-3.2 3.2-3.2z" fill="#bcece6"/><path d="m23.2238366 6.14531689c1.7673112 0 3.2 1.4326888 3.2 3.2v13.25714281c0 1.7673112-1.4326888 3.2-3.2 3.2h-5.9857143l.0008475-3.9774695c2.6962998-.5821186 4.716716-2.9806635 4.716716-5.8511019s-2.0204162-5.2689832-4.716716-5.8511019l-.0008475-3.97746951z" fill="#17bfa8"/><g fill="#3e5b63"><path d="m13.8021396 13.9993419-1.4890709 1.4890709c-.257746.257746-.257746.6756349 0 .9333809l1.4890709 1.4890709c.257746.257746.6756349.257746.9333809 0 .123774-.123774.1933096-.2916476.1933096-.4666905v-2.9781417c0-.3645079-.2954921-.66-.66-.66-.1750429 0-.3429165.0695355-.4666905.1933095z"/><path d="m18.3266905 13.9993419 1.4890708 1.4890709c.2577461.257746.2577461.6756349 0 .9333809l-1.4890708 1.4890709c-.2577461.257746-.6756349.257746-.933381 0-.123774-.123774-.1933095-.2916476-.1933095-.4666905v-2.9781417c0-.3645079.2954921-.66.66-.66.1750429 0 .3429165.0695355.4666905.1933095z"/></g></g></svg>