<svg height="32" viewBox="0 0 32 32" width="32" xmlns="http://www.w3.org/2000/svg"><path d="m14.9341582 17.85v6.8931233l-2.1024552-2.7875534c-.2494224-.3306983-.7197031-.3965854-1.0504013-.147163-.0546148.041192-.1033372.0896624-.1448121.1440627l-3.84823951 5.0475304h-2.32344677c-.41421356 0-.75-.3357864-.75-.75v-8.4c0-.4142136.33578644-.75.75-.75h8.71935488c.4142135 0 .75.3357864.75.75zm12.4193548-.0000701-.0007097 6.8433701-2.0643364-2.7375874c-.2493891-.3307234-.7196631-.396658-1.0503865-.1472689-.0546392.0412018-.1033823.0896878-.1448724.1441082l-3.8481768 5.0474481h-2.360873c-.4142136 0-.75-.3357864-.75-.75v-8.4c0-.4142136.3357864-.75.75-.75h8.7193548c.4142136 0 .75.3357163.75.7499299zm-18.28003935 1.5617511c-.41480197-.416313-1.03967011-.541494-1.58282806-.3170911s-.8974611.754122-.8974611 1.3418098c0 .7997683.64679421 1.4489238 1.44655756 1.4518459.58768421.002114 1.11868834-.3502565 1.34506499-.8925947.22637664-.5423381.10346859-1.167657-.31133339-1.5839699zm12.51684115 0c-.4148019-.416313-1.0396701-.541494-1.582828-.3170911-.543158.2244029-.8974611.754122-.8974611 1.3418098 0 .7997683.6467942 1.4489238 1.4465575 1.4518459.5876842.002114 1.1186884-.3502565 1.345065-.8925947.2263767-.5423381.1034686-1.167657-.3113334-1.5839699zm-6.6561566-6.7685577-2.1024552-2.78755344c-.2494224-.33069826-.7197031-.39658537-1.0504013-.14716297-.0546148.04119206-.1033372.0896624-.1448121.14406272l-3.84823951 5.04753039h-2.32344677c-.41421356 0-.75-.3357864-.75-.75v-8.4c0-.41421356.33578644-.75.75-.75h8.71935488c.4142135 0 .75.33578644.75.75zm12.4193548-6.89319294-.0007097 6.89286964-2.1017596-2.78711261c-.249395-.33071897-.7196702-.39664512-1.0503892-.14725018-.0546348.04120008-.1033743.08968331-.1448617.14410021l-3.8481879 5.04746258h-2.3234467c-.4142136 0-.75-.3357864-.75-.75v-8.4c0-.41421356.3357864-.75000001.75-.75000001h8.7193548c.4142136 0 .75.33571681.75.74993037zm-18.28003935 1.56175059c-.41480197-.41631292-1.03967011-.54149398-1.58282806-.31709106s-.8974611.75412197-.8974611 1.3418098c0 .79976828.64679421 1.44892377 1.44655756 1.45184591.58768421.00211399 1.11868834-.35025655 1.34506499-.89259467.22637664-.54233812.10346859-1.16765706-.31133339-1.58396998zm12.41935485 0c-.414802-.41631292-1.0396701-.54149398-1.5828281-.31709106-.5431579.22440292-.8974611.75412197-.8974611 1.3418098 0 .79976828.6467942 1.44892377 1.4465576 1.45184591.5876842.00211399 1.1186883-.35025655 1.345065-.89259467.2263766-.54233812.1034686-1.16765706-.3113334-1.58396998z" fill-rule="evenodd"/></svg>