<svg height="32" viewBox="0 0 32 32" width="32" xmlns="http://www.w3.org/2000/svg"><path d="m16 5.03237877c.2982338 0 .5456468.21758961.592147.50267688l.007853.09732312-.001 1.392 5.536.00062123c1.5717857 0 2.8646173 1.23669643 2.963924 2.78655202l.006076.17344798v12.03c0 1.5717857-1.2366964 2.8646173-2.786552 2.9549576l-.173448.0050424-5.546-.0006212.001 1.5256212c0 .3313708-.2686292.6-.6.6-.2982338 0-.5456468-.2175896-.592147-.5026769l-.007853-.0973231-.001-1.5256212-5.544.0006212c-1.57178571 0-2.86461735-1.2366964-2.95495763-2.786552l-.00504237-.173448v-12.03c0-1.57178571 1.23669643-2.86461735 2.78655202-2.95495763l.17344798-.00504237 5.544-.00062123.001-1.392c0-.33137085.2686292-.6.6-.6zm-.601 3.192-5.544.00062123c-.9215 0-1.68055.712975-1.75415125 1.61592625l-.00584875.14407375v12.02c0 .9215.712975 1.68055 1.61592625 1.7541513l.14407375.0058487 5.544-.0006212.0007394-1.7812931c-3.0549681-.3013153-5.44149087-2.8781103-5.44149087-6.0123076s2.38652277-5.7109923 5.44149087-6.01230756zm6.746.00062123-5.545-.00062123.0002606 1.73409177c3.0549681.30131526 5.4414909 2.87811026 5.4414909 6.01230756s-2.3865228 5.7109923-5.4414909 6.0123076l-.0002606 1.7812931 5.535.0006212c.9215 0 1.68055-.712975 1.7541512-1.6159262l.0058488-.1440738h.01v-12.02c0-.9215-.712975-1.68055-1.6159263-1.75415125zm-6.145 2.9040266-.2156706.0047175-.0969734.0052145-.0964587.0071076c-2.482565.2077026-4.4326488 2.288474-4.4326488 4.8247119 0 2.5531236 1.9761367 4.6446958 4.4823044 4.8286109l.1570594.0089873.2023877.0041533c.1374166 0 .2734962-.0057247.4080131-.0169486 2.4830841-.2071849 4.4337384-2.288194 4.4337384-4.8248029 0-2.6740255-2.167726-4.8417515-4.8417515-4.8417515zm-1.5462992 2.8709734c.2982337 0 .5456467.2175896.592147.5026769l.007853.0973231v2.7074016c0 .1591299-.0632141.3117422-.1757359.424264-.2082797.2082797-.531589.2314218-.7654307.0694266l-.0830975-.0694266-1.3537008-1.3537007c-.2082796-.2082797-.2314218-.531589-.0694265-.7654307l.0694265-.0830975 1.3537008-1.3537008c.1125218-.1125218.2651342-.1757359.4242641-.1757359zm3.0252226 0c.1591299 0 .3117422.0632141.4242641.1757359l1.3537008 1.3537008c.2343145.2343146.2343145.6142136 0 .8485282l-1.3537008 1.3537007c-.2343146.2343146-.6142136.2343146-.8485282 0-.1125218-.1125218-.1757359-.2651341-.1757359-.424264v-2.7074016c0-.3313708.2686292-.6.6-.6z"/></svg>