<svg height="32" viewBox="0 0 32 32" width="32" xmlns="http://www.w3.org/2000/svg"><path d="m14.8838108 5.52067079-.0013481 4.56545301c-2.7794332.5173493-4.88369505 2.955266-4.88369505 5.8846594s2.10426185 5.3673101 4.88369505 5.8846594l.0013481 4.5653406h-6.26447438c-1.87905253 0-3.40232558-1.523273-3.40232558-3.4023256v-14.09534881c0-1.87905253 1.52327305-3.402438 3.40232558-3.402438zm8.8029675 0c1.8790525 0 3.4023256 1.52338547 3.4023256 3.402438v14.09534881c0 1.8790526-1.5232731 3.4023256-3.4023256 3.4023256h-6.6029675l-.0001797-4.5647283c2.7810648-.5160352 4.8869898-2.9547209 4.8869898-5.8852717s-2.105925-5.3692364-4.8869898-5.8852717l.0001797-4.56484071zm-9.4030132 8.28225651c.3280572 0 .6002115.2393486.6513617.5529446l.0086383.1070554v2.9781417c0 .1750429-.0695355.3429165-.1933095.4666905-.2291076.2291076-.5847478.254564-.8419737.0763692l-.0914072-.0763692-1.4890709-1.4890709c-.2291076-.2291075-.254564-.5847478-.0763692-.8419737l.0763692-.0914072 1.4890709-1.4890709c.123774-.123774.2916475-.1933095.4666904-.1933095zm3.3277449 0c.1750429 0 .3429165.0695355.4666905.1933095l1.4890708 1.4890709c.2577461.257746.2577461.6756349 0 .9333809l-1.4890708 1.4890709c-.257746.257746-.6756349.257746-.933381 0-.123774-.123774-.1933095-.2916476-.1933095-.4666905v-2.9781417c0-.3645079.2954921-.66.66-.66z" fill-rule="evenodd"/></svg>