<svg height="32" viewBox="0 0 32 32" width="32" xmlns="http://www.w3.org/2000/svg"><g fill="none" fill-rule="evenodd"><path d="m17.8841582 27c-.4142136 0-.75-.3357164-.75-.7499299v-8.4000701c0-.4142136.3357864-.75.75-.75h8.7193548c.4142136 0 .75.3357864.75.75v8.4c0 .4142136-.3357864.75-.75.75z" fill="#20c4d2"/><path d="m27.353513 26.25c0 .4142136-.3357864.75-.75.75h-6.3584818l3.8481768-5.0474481c.0414901-.0544204.0902332-.1029064.1448724-.1441082.3307234-.2493891.8009974-.1834545 1.0503865.1472689l2.0643364 2.7375874.0007097-6.8433701z" fill="#0a8c97"/><path d="m14.9341582 26.25c0 .4142136-.3357865.75-.75.75h-8.71935488c-.41421356 0-.75-.3357864-.75-.75v-8.4c0-.4142136.33578644-.75.75-.75h8.71935488c.4142135 0 .75.3357864.75.75z" fill="#ffc802"/><path d="m14.9341582 26.25c0 .4142136-.3357865.75-.75.75h-6.39590811l3.84823951-5.0475304c.0414749-.0544003.0901973-.1028707.1448121-.1440627.3306982-.2494224.8009789-.1835353 1.0504013.147163l2.1024552 2.7875534z" fill="#ba940a"/><path d="m14.9341582 14.15c0 .4142136-.3357865.75-.75.75h-8.71935488c-.41421356 0-.75-.3357864-.75-.75v-8.4c0-.41421356.33578644-.75.75-.75h8.71935488c.4142135 0 .75.33578644.75.75z" fill="#6ec38c"/><path d="m26.603513 4.99999999c.4142136 0 .75.33578644.75.75v8.40000001c0 .4142136-.3357864.75-.75.75h-8.7193548c-.4142136 0-.75-.3357864-.75-.75v-8.4c0-.41421356.3357864-.75000001.75-.75000001z" fill="#e77aa7"/><path d="m7.8482759 10.3529419c-.7270576-.0026478-1.31505234-.5927892-1.31505234-1.31985128 0-.53426165.32209378-1.01582443.81587373-1.21982708.49377996-.20400266 1.0618419-.09020169 1.43893461.2882646.3770927.37846629.48882729.94693805.28303034 1.4399727-.20579695.49303466-.68852798.81337156-1.22278634.81144106z" fill="#398855"/><path d="m20.0568297 10.3529419c-.7270576-.0026478-1.3150523-.5927892-1.3150523-1.31985128 0-.53426165.3220938-1.01582443.8158737-1.21982708.49378-.20400266 1.0618419-.09020169 1.4389346.2882646s.4888273.94693805.2830304 1.4399727c-.205797.49303466-.688528.81337156-1.2227864.81144106z" fill="#a7436c"/><path d="m7.8482759 22.05c-.7270576-.0026478-1.31505234-.5927892-1.31505234-1.3198513 0-.5342616.32209378-1.0158244.81587373-1.219827.49377996-.2040027 1.0618419-.0902017 1.43893461.2882646.3770927.3784663.48882729.946938.28303034 1.4399727-.20579695.4930346-.68852798.8133715-1.22278634.811441z" fill="#ba940a"/><path d="m20.0568297 22.05c-.7270576-.0026478-1.3150523-.5927892-1.3150523-1.3198512 0-.5342617.3220938-1.0158245.8158737-1.2198271.49378-.2040027 1.0618419-.0902017 1.4389346.2882646s.4888273.946938.2830304 1.4399727c-.205797.4930346-.688528.8133715-1.2227864.811441z" fill="#0a8c97"/><path d="m27.353513 14.15c0 .4142136-.3357864.75-.75.75h-6.3959081l3.8481879-5.04746258c.0414874-.0544169.0902269-.10290013.1448617-.14410021.3006536-.22672268.716643-.19284941.9771668.06365717l.0732224.08359301 2.1017596 2.78711261z" fill="#a7436c"/><path d="m14.9341582 14.15c0 .4142136-.3357865.75-.75.75h-6.39590811l3.84823951-5.04753039c.0414749-.05440032.0901973-.10287066.1448121-.14406272.3006347-.22674764.7166269-.1929089.977172.06357604l.0732293.08358693 2.1024552 2.78755344z" fill="#398855"/></g></svg>