<svg height="32" viewBox="0 0 32 32" width="32" xmlns="http://www.w3.org/2000/svg"><path d="m16 5.4c5.84 0 10.6 4.76 10.6 10.6s-4.76 10.6-10.6 10.6-10.6-4.76-10.6-10.6 4.76-10.6 10.6-10.6zm0 13.85c-.6911576 0-1.25.5549883-1.25 1.25 0 .6880712.5619288 1.25 1.25 1.25.6911576 0 1.25-.5549883 1.25-1.25 0-.6911576-.5549883-1.25-1.25-1.25zm0-8.538699c-.4320657 0-.790732.3254305-.8433548.7436474l-.0066452.1063526v5.03c0 .4680712.3819288.85.85.85.4320657 0 .790732-.3254304.8433548-.7436473l.0066452-.1063527v-5.03c0-.4680712-.3819288-.85-.85-.85z"/></svg>