<svg height="32" viewBox="0 0 32 32" width="32" xmlns="http://www.w3.org/2000/svg"><g fill="none"><path d="m16 5.4c-5.84 0-10.6 4.76-10.6 10.6s4.76 10.6 10.6 10.6 10.6-4.76 10.6-10.6-4.76-10.6-10.6-10.6z" fill="#b75c64"/><path d="m16 5.4c5.84 0 10.6 4.76 10.6 10.6s-4.76 10.6-10.6 10.6z" fill="#914047"/><path d="m16 18.95c.8595088 0 1.55.6919655 1.55 1.55 0 .8595088-.6919655 1.55-1.55 1.55-.8537566 0-1.55-.6962434-1.55-1.55 0-.8595088.6919655-1.55 1.55-1.55zm0-9.25c.5915062 0 1.0806453.4497054 1.1432349 1.0249337l.0067651.1250663v5.03c0 .6337566-.5162434 1.15-1.15 1.15-.5915062 0-1.0806453-.4497054-1.1432349-1.0249337l-.0067651-.1250663v-5.03c0-.6337566.5162434-1.15 1.15-1.15z" fill="#fff"/></g></svg>