<svg height="32" viewBox="0 0 32 32" width="32" xmlns="http://www.w3.org/2000/svg"><path d="m16 20.839778c.9449978 0 1.7.7501649 1.7 1.680111 0 .9351328-.7602319 1.680111-1.7 1.680111-.9348638 0-1.7-.754991-1.7-1.680111 0-.9351328.7602319-1.680111 1.7-1.680111zm0-13.039778c.5645395 0 1.0334942.42559966 1.0935124.96975838l.0064876.11830822v8.9250694c0 .5994956-.4951362 1.0880666-1.1 1.0880666-.5645395 0-1.0334942-.4255997-1.0935124-.9697584l-.0064876-.1183082v-8.9250694c0-.59949556.4951362-1.0880666 1.1-1.0880666z" fill="#bb3600"/></svg>