<svg height="32" viewBox="0 0 32 32" width="32" xmlns="http://www.w3.org/2000/svg"><path d="m13.27 10.575h10c.33 0 .6-.27.6-.6s-.27-.6-.6-.6h-10c-.33 0-.6.27-.6.6s.27.6.6.6zm-4.14-1.6c-.55 0-1 .44-1 1 0 .55.45 1 1 1s1-.44 1-1c0-.55-.45-1-1-1zm14.14 6.51h-10c-.33 0-.6.27-.6.6s.27.6.6.6h10c.33 0 .6-.27.6-.6s-.27-.6-.6-.6zm-14.14-.4c-.55 0-1 .44-1 1 0 .55.45 1 1 1s1-.44 1-1c0-.55-.45-.99-1-1zm13.95 6.34h-10c-.33 0-.6.27-.6.6s.27.6.6.6h10c.33 0 .6-.27.6-.6s-.27-.6-.6-.6zm-13.95-.4c-.55 0-1 .44-1 1 0 .55.45 1 1 1s1-.44 1-1c0-.55-.45-1-1-1z"/></svg>