<svg height="32" viewBox="0 0 32 32" width="32" xmlns="http://www.w3.org/2000/svg"><path d="m9.13 20.775c.68807119 0 1.25.5619288 1.25 1.25 0 .6950117-.5588424 1.25-1.25 1.25-.68807119 0-1.25-.5619288-1.25-1.25 0-.6950117.5588424-1.25 1.25-1.25zm13.95.4c.4680712 0 .85.3819288.85.85 0 .4320657-.3254305.790732-.7436474.8433548l-.1063526.0066452h-10c-.4680712 0-.85-.3819288-.85-.85 0-.4320657.3254305-.790732.7436474-.8433548l.1063526-.0066452zm-13.9454553-6.3399587c.68843853.0125171 1.2454553.5656924 1.2454553 1.2499587 0 .6950117-.5588424 1.25-1.25 1.25-.68807119 0-1.25-.5619288-1.25-1.25 0-.6515735.49117008-1.1800795 1.12206265-1.2435975zm14.1354553.3999587c.4680712 0 .85.3819288.85.85 0 .4320657-.3254305.790732-.7436474.8433548l-.1063526.0066452h-10c-.4680712 0-.85-.3819288-.85-.85 0-.4320657.3254305-.790732.7436474-.8433548l.1063526-.0066452zm-14.14-6.51c.68807119 0 1.25.56192881 1.25 1.25 0 .6950117-.5588424 1.25-1.25 1.25-.68807119 0-1.25-.5619288-1.25-1.25 0-.69501169.5588424-1.25 1.25-1.25zm14.14.4c.4680712 0 .85.38192881.85.85 0 .4320657-.3254305.790732-.7436474.8433548l-.1063526.0066452h-10c-.4680712 0-.85-.3819288-.85-.85 0-.43206571.3254305-.790732.7436474-.84335483l.1063526-.00664517z"/></svg>