<svg height="32" viewBox="0 0 32 32" width="32" xmlns="http://www.w3.org/2000/svg"><path d="m15.979 5.1737c5.95441 0 10.8053 4.85089 10.8053 10.8053s-4.85089 10.8053-10.8053 10.8053-10.8053-4.85089-10.8053-10.8053 4.85089-10.8053 10.8053-10.8053zm.204 8.6603h-1.573c-.484 0-.88.396-.88.88s.396.88.88.88h.693v3.982h-.803c-.484 0-.88.396-.88.88s.396.88.88.88h3.3c.484 0 .88-.396.88-.88s-.396-.88-.88-.88h-.737v-4.862c0-.484-.396-.88-.88-.88zm-.121-4.29c-.649 0-1.177.517-1.177 1.166s.528 1.177 1.166 1.177c.649 0 1.177-.517 1.177-1.166s-.517-1.177-1.166-1.177z"/></svg>