<svg height="32" viewBox="0 0 32 32" width="32" xmlns="http://www.w3.org/2000/svg"><g fill="none"><path d="m15.979 26.7843c-5.95441 0-10.8053-4.85089-10.8053-10.8053s4.85089-10.8053 10.8053-10.8053 10.8053 4.85089 10.8053 10.8053-4.85089 10.8053-10.8053 10.8053z" fill="#31afd8"/><path d="m16.183 13.834c.484 0 .88.396.88.88v4.862h.737c.484 0 .88.396.88.88s-.396.88-.88.88h-3.3c-.484 0-.88-.396-.88-.88s.396-.88.88-.88h.803v-3.982h-.693c-.484 0-.88-.396-.88-.88s.396-.88.88-.88zm-.121-4.29c.649 0 1.166.528 1.166 1.177s-.528 1.166-1.177 1.166c-.638 0-1.166-.528-1.166-1.177s.528-1.166 1.177-1.166z" fill="#fff"/></g></svg>