<svg height="32" viewBox="0 0 32 32" width="32" xmlns="http://www.w3.org/2000/svg"><path d="m16 5.4c-5.84 0-10.6 4.76-10.6 10.6s4.76 10.6 10.6 10.6 10.6-4.76 10.6-10.6-4.76-10.6-10.6-10.6zm0 20c-5.18 0-9.4-4.22-9.4-9.4s4.22-9.4 9.4-9.4 9.4 4.22 9.4 9.4-4.22 9.4-9.4 9.4zm1.65-5.18h-.87v-5.43c0-.33-.27-.6-.6-.6h-1.43c-.33 0-.6.27-.6.6s.27.6.6.6h.83v4.83h-.93c-.33 0-.6.27-.6.6s.27.6.6.6h3c.33 0 .6-.27.6-.6s-.27-.6-.6-.6zm-1.65-8.14c.55 0 1-.44 1-1s-.44-1-1-1c-.55 0-1 .44-1 1 0 .55.45 1 1 1z"/></svg>