<svg height="32" viewBox="0 0 32 32" width="32" xmlns="http://www.w3.org/2000/svg"><path d="m22.5362911 5.18966488c.2529153-.25291529.662942-.25291529.9158573 0l3.3581435 3.35818668c.2529153.2529153.2529153.6629852 0 .9159005-.2529153.25291529-.662942.25291529-.9158573 0l-1.3052858-1.30528578-2.7476151 2.74761512 2.3738076 2.3738076c.2529153.2529153.2529153.662942 0 .9158573s-.662942.2529153-.9158573 0l-.1526645-.1526645-8.206838 8.206838c-.7059005.7059005-1.8241591.7536513-2.5862726.1439433l-1.3824856 1.3824856c-.2529153.2529153-.6629421.2529153-.9158573 0l-.45795029-.4579503-2.49189351 2.4918935c-.25291529.2529153-.66294202.2529153-.91585732 0-.25291529-.2529153-.25291529-.662942 0-.9158573l2.49193668-2.4918503-.45795024-.4579503c-.2529153-.2529153-.2529153-.662942 0-.9158573l1.3824856-1.3824856c-.60975123-.7621135-.56195723-1.8803721.14394326-2.5862726l8.20688112-8.20688116-.1526644-.15266448c-.2529153-.25291529-.2529153-.66294202 0-.91585732.2529153-.25291529.662942-.25291529.9158573 0l2.3738076 2.37380756 2.7476151-2.74761512-1.3052858-1.30528578c-.2529153-.25291529-.2529153-.66294202 0-.91585732zm-3.6635156 4.57937295-3.3558039 3.35580387 3.3558039 3.3581867 3.3581867-3.3581867z"/></svg>