<svg height="32" viewBox="0 0 32 32" width="32" xmlns="http://www.w3.org/2000/svg"><path d="m22.5362911 5.18966488c.2529153-.25291529.662942-.25291529.9158573 0l3.3581435 3.35818668c.2529153.2529153.2529153.6629852 0 .9159005-.2529153.25291529-.662942.25291529-.9158573 0l-1.1193811-1.11940995-2.7480751 2.74763629.8145553.814103 1.3738076 1.3738076c.2529153.2529153.2529153.662942 0 .9158573-.1011661.1011661-.2274701.1618658-.3588016.182099l-.0991271.0075875c-.1325884 0-.2651768-.0404665-.3776549-.1213994l-.0802737-.0682871c-.0843143-.0843143-.2210147-.0843143-.305329 0l-8.0541735 8.0541735c-.3321885.3321885-.755695.5186275-1.1904313.5593892l-.1633961.0084571c-.3817559.0038005-.7644448-.1039264-1.094414-.3231325l-.1380312-.1007705-1.3824856 1.3824856c-.1011661.1011661-.2274701.1618658-.3588016.182099l-.0991271.0075875c-.1325884 0-.2651768-.0404665-.3776549-.1213994l-.0802737-.0682871-.45795029-.4579503-2.49189351 2.4918935c-.10116611.1011662-.22747006.1618658-.35880158.1820991l-.09912708.0075874c-.1657355 0-.33147101-.0632288-.45792866-.1896865-.22762376-.2276237-.25038614-.5825078-.06828713-.8355836l.06828713-.0802737 2.49193668-2.4918503-.45795024-.4579503c-.22762377-.2276237-.25038615-.5825077-.06828713-.8355836l.06828713-.0802737 1.3824856-1.3824856c-.57388351-.7172833-.56530481-1.7500446.02620403-2.4575778l.11773923-.1286948 8.05421672-8.05421669c.0674514-.06745141.0809417-.16842996.0404708-.24929223l-.0404708-.05603672c-.2529153-.25291529-.2529153-.66294202 0-.91585732.1264576-.12645765.2921931-.18968647.4579286-.18968647l.0991271.00758746c.0984986.01517492.1941693.05311221.2785279.11381188l.0802737.06828713 1.3738076 1.37380757.8130166.8135553 2.7486939-2.74704626-1.1193812-1.11940995c-.2529153-.25291529-.2529153-.66294202 0-.91585732z"/></svg>