<svg height="32" viewBox="0 0 32 32" width="32" xmlns="http://www.w3.org/2000/svg"><g fill="none"><path d="m23.4521484 5.18966488c-.2529153-.25291529-.662942-.25291529-.9158573 0-.2529153.2529153-.2529153.66294203 0 .91585732l1.1193812 1.11940995-3 3.00000005 1.1193812 1.1194099 3-2.99999999 1.1193811 1.11940995c.2529153.25291529.662942.25291529.9158573 0 .2529153-.2529153.2529153-.6629852 0-.9159005z" fill="#345c64"/><path d="m18.2622255 7.59492907.0991271.00758746c.1313315.02023322.2576355.08093289.3588016.18209901l5.4951871 5.49527346c.2529153.2529153.2529153.662942 0 .9158573-.1011661.1011661-.2274701.1618658-.3588016.182099l-.0991271.0075875c-.1657355 0-.331471-.0632289-.4579286-.1896865l-.1526645-.1526645-8.206838 8.206838c-.7059005.7059005-1.8241591.7536513-2.5862726.1439433l-2.74757198-2.747572c-.60975123-.7621135-.56195723-1.8803721.14394326-2.5862726l8.20688112-8.20688116-.1526644-.15266448c-.2529153-.25291529-.2529153-.66294202 0-.91585732.1264576-.12645765.2921931-.18968647.4579286-.18968647z" fill="#90cbdb"/><path d="m22.0275086 11.0919784 2.1878327 2.1879106c.2274464.2279264.250016.5829025.0678294.8360446l-.0687947.0807769-.0802592.0681285c-.0625973.0449405-.1314083.0773469-.2029664.0972228l-.0746107.0157835-.0998094.0078635-.0984448-.0078635c-.1313315-.0202332-.2576354-.0809329-.3588015-.182099l-.1526645-.1526645-1.2013109-1.2042907-9.589 9.5561873-.0027997-.0011153-1.3712003-1.3718847 9.6035513-9.570936c.2985335.2986992.7826418.2989772 1.0815182.0006212z" fill="#c7f2fe"/><path d="m9.60613692 19.6462911-1.3824856 1.3824856c-.2529153.2529153-.2529153.662942 0 .9158573l.45795024.4579503.91581415.9158141.45795029.4579503c.2529152.2529153.662942.2529153.9158573 0l1.3824856-1.3824856z" fill="#345c64"/><path d="m16.2164889 11.9424098-5.79904 5.79904c-.3907752.3902734-.3907752 1.0234384-.0002509 1.4139627.0000836.0000836.0001673.0001673.0005018-.0000001l2.4563151 2.4545722c.3908158.3900366 1.0237872.3899243 1.4144645-.000251l5.7962933-5.7962933z" fill="#8556a3"/><path d="m18.1503361 13.8779784 1.373 1.374-6.5011219 6.4801405-.0539329-.0390515-.0942664-.0830828-1.2386788-1.2380062z" fill="#e0bdf7"/><path d="m8.61742319 22.3383701.52208544.5221213 1.83999997-1.8404143 1.3742003 1.373786-1.3824856 1.3824856c-.1011661.1011661-.2274701.1618658-.3588016.182099l-.0991271.0075875c-.1325884 0-.2651768-.0404665-.3776549-.1213994l-.0802737-.0682871-.40322237-.4032685-1.26206947 1.0176538-.52741716.4148498-.45902782.3514712-.3911553.287547-.22331844.1559153-.19353568.1271004-.16390605.0981241c-.19885636.1114427-.31910871.145184-.36239036.0995-.03778698-.0399048-.0154638-.1382533.06588212-.2961939l.08415426-.1499984.11291117-.1793471.22295309-.3244011.28680014-.3913395.35013359-.4588205.72290202-.9161317z" fill="#74a2ab"/></g></svg>