<svg height="32" viewBox="0 0 32 32" width="32" xmlns="http://www.w3.org/2000/svg"><g fill="none" fill-rule="evenodd"><path d="m5.34328958 15.25c.41421356 0 .75.3357864.75.75 0 5.4713251 4.43538532 9.9067104 9.90671042 9.9067104.4142136 0 .75.3357865.75.75 0 .4142136-.3357864.75-.75.75-6.29975221 0-11.40671042-5.1069582-11.40671042-11.4067104 0-.4142136.33578643-.75.75-.75zm10.65671042-10.65671042c6.2997522 0 11.4067104 5.10695821 11.4067104 11.40671042 0 .4142136-.3357864.75-.75.75-.4142135 0-.75-.3357864-.75-.75 0-5.4713251-4.4353853-9.90671042-9.9067104-9.90671042-.4142136 0-.75-.33578644-.75-.75 0-.41421357.3357864-.75.75-.75z" fill="#f8813d" fill-rule="nonzero" transform="matrix(.70710678 .70710678 -.70710678 .70710678 16 -6.627417)"/><path d="m1.85786438 15.25c.41421356 0 .75.3357864.75.75 0 7.3962723 5.99586335 13.3921356 13.39213562 13.3921356.4142136 0 .75.3357865.75.75 0 .4142136-.3357864.75-.75.75-8.2246994 0-14.89213562-6.6674362-14.89213562-14.8921356 0-.4142136.33578643-.75.75-.75zm14.14213562-14.14213562c8.2246994 0 14.8921356 6.66743622 14.8921356 14.89213562 0 .4142136-.3357864.75-.75.75-.4142135 0-.75-.3357864-.75-.75 0-7.39627227-5.9958633-13.39213562-13.3921356-13.39213562-.4142136 0-.75-.33578644-.75-.75 0-.41421357.3357864-.75.75-.75z" fill="#fcd2ba" fill-rule="nonzero" transform="matrix(.70710678 .70710678 -.70710678 .70710678 16 -6.627417)"/><path d="m16.0234311 8.24180362c4.2976742 0 7.7816275 3.48395328 7.7816275 7.78162748 0 4.0951548-3.163341 7.4514718-7.1797696 7.7586977l-2.9445109 2.9003095-.0000812-3.2362194c-3.1528303-.9941269-5.43889328-3.9414881-5.43889328-7.4227878 0-4.2976742 3.48395328-7.78162748 7.78162748-7.78162748z" fill="#74a2ab"/><path d="m16.0234589 16.9367927c1.5045446 0 2.8569613.8404073 3.5388091 2.1342748-.8569858.9942518-2.1244831 1.6229006-3.5388091 1.6229006-1.4143261 0-2.6818234-.6286488-3.5383091-1.6217635.6813477-1.2950046 2.0337645-2.1354119 3.5383091-2.1354119zm-.2331069-5.5781827.201251-.0045909-.0239582-.001125c1.3865531 0 2.5105766 1.1240234 2.5105766 2.5105766s-1.1240235 2.5105766-2.5105766 2.5105766c-1.3865532 0-2.5105766-1.1240234-2.5105766-2.5105766 0-1.2645172.9348712-2.3106836 2.1511571-2.4850424z" fill="#fff"/></g></svg>