<svg height="32" viewBox="0 0 32 32" width="32" xmlns="http://www.w3.org/2000/svg"><path d="m6.80305087 5.99694913c-.22259885-.22259884-.58350289-.22259884-.80610174 0-5.52453244 5.52453247-5.52453244 14.48156927 0 20.00610177.22259885.2225988.58350289.2225988.80610174 0 .22259884-.2225989.22259884-.5835029 0-.8061018-5.07933476-5.0793347-5.07933476-13.3145635 0-18.39389823.19786564-.19786565.21985071-.50500946.06595521-.72715914zm19.20000003 0c-.2225989-.22259884-.5835029-.22259884-.8061018 0-.2225988.22259885-.2225988.58350289 0 .80610174 5.0793348 5.07933473 5.0793348 13.31456353 0 18.39389823-.2225988.2225989-.2225988.5835029 0 .8061018.2225989.2225988.5835029.2225988.8061018 0 5.4395396-5.4395397 5.5232248-14.2067806.2510556-19.74871106zm-9.9805571 2.70518234c-4.0429245 0-7.32036233 3.27743783-7.32036233 7.32036233 0 3.1284144 1.98018033 5.8735519 4.86682373 6.899153l.2496215.0836664.1048923.1430532.0000492 1.9602698c.0000022.0866541.0340883.1698303.0948969.2315656.109624.1112948.2787904.1283549.406654.0504178l.0600231-.0468885 2.0099243-1.9797525.0938205-.042698c3.798467-.2905536 6.7540192-3.4666781 6.7540192-7.2987868 0-4.0429245-3.2774379-7.32036233-7.3203624-7.32036233zm-6.85345785-.33919725c-.22259885-.22259885-.58350289-.22259885-.80610173 0-4.21783497 4.21783498-4.21783497 11.05629658 0 15.27413158.22259884.2225988.58350288.2225988.80610173 0 .22259884-.2225989.22259884-.5835029 0-.8061017-3.77263727-3.7726373-3.77263727-9.8892909 0-13.66192815.22259884-.22259885.22259884-.58350289 0-.80610173zm14.46802985 0c-.2225989-.22259885-.5835029-.22259885-.8061017 0-.2225989.22259884-.2225989.58350288 0 .80610173 3.7726372 3.77263725 3.7726372 9.88929085 0 13.66192815-.2225989.2225988-.2225989.5835028 0 .8061017.2225988.2225988.5835028.2225988.8061017 0 4.2178349-4.217835 4.2178349-11.0562966 0-15.27413158zm-7.614572 1.47919725c3.4133199 0 6.1803624 2.76704253 6.1803624 6.18036233 0 3.1527661-2.372935 5.7882483-5.4647146 6.1395725l-.2274867.0216046-.1589709.0213494c-.1982794.0389375-.3841352.1238166-.5429596.2472367l-.1138216.0996759-.5894115.5791419-.1122693-.4028922c-.1325775-.3846059-.4396872-.6864559-.8318271-.8101025-2.563842-.8084115-4.31926343-3.1930196-4.31926343-5.8955863 0-3.4133198 2.76704253-6.18036233 6.18036233-6.18036233zm.0000449 7.14097153c-1.1960928 0-2.2935518.6273298-2.9044402 1.6333702l-.0520985.0905268.0855992.0931513c.6388395.6605925 1.4842302 1.0828877 2.4049246 1.190062l.2316665.0201841.2343484.0067873c1.0993833 0 2.1257769-.4464873 2.8713053-1.2178572l.085156-.0933275-.0516241-.0903371c-.5394657-.887151-1.4574675-1.4797655-2.4874869-1.6069253l-.2074185-.0191753zm-.0305387-4.955103-.1600916.0041967-.1505423.0159613-.171493.0316174c-.9379255.213439-1.6147251 1.05123-1.6147251 2.026091 0 1.1475714.9302904 2.0778618 2.0778618 2.0778618 1.1475713 0 2.0778617-.9302904 2.0778617-2.0778618 0-1.0402822-.7671846-1.9096742-1.7714096-2.0559087l-.1523453-.0164425z"/></svg>