<svg height="32" viewBox="0 0 32 32" width="32" xmlns="http://www.w3.org/2000/svg"><path d="m16.0234311 8.24180362c4.2976742 0 7.7816275 3.48395328 7.7816275 7.78162748 0 4.0951548-3.163341 7.4514718-7.1797696 7.7586977l-2.9445109 2.9003095-.0000812-3.2362194c-3.1528303-.9941269-5.43889328-3.9414881-5.43889328-7.4227878 0-4.2976742 3.48395328-7.78162748 7.78162748-7.78162748zm-10.02648197-2.24485449c.19786565-.19786564.50500946-.21985071.72715914-.06595521l.0789426.06595521.06595521.0789426c.1538955.22214968.13191043.52929349-.06595521.72715914-5.07933476 5.07933473-5.07933476 13.31456353 0 18.39389823.22259884.2225989.22259884.5835029 0 .8061018-.22259885.2225988-.58350289.2225988-.80610174 0-5.52453244-5.5245325-5.52453244-14.4815693 0-20.00610177zm19.19999997 0c.1978657-.19786564.5050095-.21985071.7271592-.06595521l.0789426.06595521.2510556.25739071c5.2721692 5.54193046 5.188484 14.30917136-.2510556 19.74871106-.2225989.2225988-.5835029.2225988-.8061018 0-.2225988-.2225989-.2225988-.5835029 0-.8061018 5.0793348-5.0793347 5.0793348-13.3145635 0-18.39389823-.2225988-.22259885-.2225988-.58350289 0-.80610174zm-16.83401488 2.36598509c.22259884-.22259885.58350288-.22259885.80610173 0 .22259884.22259884.22259884.58350288 0 .80610173-3.77263727 3.77263725-3.77263727 9.88929085 0 13.66192815.22259884.2225988.22259884.5835028 0 .8061017-.22259885.2225988-.58350289.2225988-.80610173 0-4.21783497-4.217835-4.21783497-11.0562966 0-15.27413158zm14.46802988 0c.2225988-.22259885.5835028-.22259885.8061017 0 4.2178349 4.21783498 4.2178349 11.05629658 0 15.27413158-.2225989.2225988-.5835029.2225988-.8061017 0-.2225989-.2225989-.2225989-.5835029 0-.8061017 3.7726372-3.7726373 3.7726372-9.8892909 0-13.66192815-.2225989-.22259885-.2225989-.58350289 0-.80610173zm-6.5756785 8.68003488c-1.5045446 0-2.8569613.8404074-3.5383091 2.1354119.8564858.9931148 2.1239831 1.6217635 3.5383091 1.6217635 1.4143261 0 2.6818234-.6286487 3.5388091-1.6229006-.6818477-1.2938674-2.0342645-2.1342748-3.5388091-2.1342748zm-.0318558-5.5827736-.2012511.004591-.1821266.0198182-.1640515.0291186c-1.1352911.2407975-1.9871057 1.2488847-1.9871057 2.4559238 0 1.3865532 1.1240235 2.5105766 2.5105766 2.5105766 1.3865532 0 2.5105766-1.1240234 2.5105766-2.5105766 0-1.271007-.9444919-2.3214162-2.1699062-2.4876579l-.1613752-.016615z"/></svg>