<svg fill="none" height="32" viewBox="0 0 32 32" width="32" xmlns="http://www.w3.org/2000/svg"><path clip-rule="evenodd" d="m6.73253 7.09756-.0068.00046c-.29121.02232-.51882.26044-.52796.55236l-.0005.01614v.3377l.00068.89c.00086.9207.00241 1.84138.00482 2.70078.00295 1.0549.00701 1.9429.0123 2.6057 0 6.5116 2.67263 11.2564 9.63273 13.1915.0998.0277.2052.0278.305.0001 6.9969-1.941 9.6509-6.6178 9.6509-13.1916v-6.58204-.00105c-.0006-.28721-.2339-.51958-.5212-.519l-.0097-.00076-.0137-.00086-.0285-.0019-.0395-.00292c-.0175-.00135-.035-.00284-.0806-.00673-.1369-.01216-.2965-.02964-.4775-.05351-.5237-.06905-1.1091-.1755-1.741-.32729-1.8101-.43485-3.62-1.14483-5.3059-2.19094-.4267-.2648-.8408-.54874-1.2411-.85246-.2127-.16139-.5089-.15351-.7127.01896-.7657.64789-1.6313 1.20451-2.5794 1.67586-1.3841.68816-2.8727 1.16342-4.36205 1.46249-.52041.1045-1.00262.17938-1.4343.22962-.14917.01736-.28072.03039-.3938.03977-.06111.00491-.06112.00491-.09935.0076zm.61023 4.49434c-.0024-.8587-.00395-1.7787-.00481-2.69875l-.00017-.17093v-.00032c-.00018-.181-.00034-.33492-.00034-.53553l.0509-.00584c.46171-.05374.97469-.1334 1.52694-.24429 1.58122-.31751 3.16332-.82261 4.64522-1.55939.8861-.44055 1.7093-.95219 2.4574-1.54031.3152.22624.6377.44143.9671.64582 1.7973 1.11523 3.7192 1.86911 5.6407 2.33074.672.16143 1.2964.27496 1.8583.34905.062.00818.1219.01569.1797.02256v6.01599c0 6.0618-2.3446 10.2416-8.663 12.0501-6.28088-1.8032-8.64563-6.0494-8.64565-12.0546-.00529-.665-.00934-1.5513-.01229-2.6043zm3.86334 3.4081c0-.3314.2686-.6.6-.6h3.5943v-3.5943c0-.3314.2686-.6.6-.6s.6.2686.6.6v3.5943h3.5943c.3314 0 .6.2686.6.6s-.2686.6-.6.6h-3.5943v3.5943c0 .3314-.2686.6-.6.6s-.6-.2686-.6-.6v-3.5943h-3.5943c-.3314 0-.6-.2686-.6-.6z" fill="#000" fill-rule="evenodd"/></svg>