<svg fill="none" height="32" viewBox="0 0 33 32" width="33" xmlns="http://www.w3.org/2000/svg"><path d="m6.59497 7.25532c-.0187 0 9.47613-3.64466 9.71913-3.7381.1869.07474 9.7378 3.7381 9.7191 3.7381v6.87808c0 4.7662-1.3644 10.9901-9.7191 13.3077-8.33601-2.3176-9.70043-8.6537-9.70043-13.3077-.0187-2.3549-.0187-6.87808-.0187-6.87808z" fill="#ffc802"/><path d="m16.314 5.3863c.1682.05609 7.8687 3.02787 7.85 3.00917v5.77533c0 3.9998-.785 9.4575-7.85 11.4013z" fill="#d6aa0d"/><path clip-rule="evenodd" d="m19.4011 10.2978c-.7827-1.05168-1.9091-1.60418-3.274-1.60418l-.237.00578-.2433.01804-.2263.02906c-.9691.14955-1.7883.60581-2.4287 1.3503l-.1416.1735-.1528.2108-.1252.2141-.1009.2109c-.2209.5039-.3375 1.0848-.3375 1.6366 0 .6796.5533 1.2329 1.2329 1.2329s1.2329-.5533 1.2329-1.2329l.0051-.126.0134-.1149.0183-.1058c.0357-.1743.0949-.333.1451-.3988l.0965-.1158.106-.1087c.2912-.2724.6532-.4037 1.1335-.4037.5883 0 1.0019.1967 1.3378.6306l.0516.0584-.0041.0066.0433.0861.0384.107.0287.1241c.0396.2184.0365.4883-.0229.7113l-.0108.0754-.0759.195-.039.0816c-.1143.2221-.3142.4829-.6496.8409l-.3717.3873-.1775.1796c-1.0262 1.0518-1.3619 1.6556-1.3619 2.5546 0 .6796.5533 1.2329 1.2328 1.2329.6796 0 1.2329-.5533 1.2329-1.2329 0-.0417.1004-.2183.3231-.4725.0189-.0216.0384-.0435.0588-.066l.1355-.1451.6156-.6274.1864-.1982c.7171-.7793 1.0962-1.4044 1.2865-2.1583l.0175-.1244.0249-.0669.0431-.2346.025-.2073c.0921-.9683-.1571-1.9444-.6849-2.609zm-1.7337 11.391c0-.8953-.7208-1.6177-1.6176-1.6177-.8952 0-1.6176.7209-1.6176 1.6177 0 .8912.7264 1.6176 1.6176 1.6176.8953 0 1.6176-.7209 1.6176-1.6176z" fill="#fff" fill-rule="evenodd"/></svg>