<svg width="32" height="32" viewBox="0 0 32 32" fill="none" xmlns="http://www.w3.org/2000/svg">
<path fill-rule="evenodd" clip-rule="evenodd" d="M6.73253 7.09756L6.72573 7.09802C6.43452 7.12034 6.20691 7.35846 6.19777 7.65038L6.19727 7.66652L6.19795 8.89422C6.19881 9.81492 6.20036 10.7356 6.20277 11.595C6.20572 12.6499 6.20978 13.5379 6.21507 14.2007C6.21507 20.7123 8.8877 25.4571 15.8478 27.3922C15.9476 27.4199 16.053 27.42 16.1528 27.3923C23.1497 25.4513 25.8037 20.7745 25.8037 14.2007V7.61866L25.8037 7.61761C25.8031 7.3304 25.5698 7.09803 25.2825 7.09861L25.2728 7.09785L25.2591 7.09699L25.2306 7.09509C25.2129 7.09381 25.202 7.09302 25.1911 7.09217C25.1736 7.09082 25.1561 7.08933 25.1105 7.08544C24.9736 7.07328 24.814 7.0558 24.633 7.03193C24.1093 6.96288 23.5239 6.85643 22.892 6.70464C21.0819 6.26979 19.272 5.55981 17.5861 4.5137C17.1594 4.2489 16.7453 3.96496 16.345 3.66124C16.1323 3.49985 15.8361 3.50773 15.6323 3.6802C14.8666 4.32809 14.001 4.88471 13.0529 5.35606C11.6688 6.04422 10.1802 6.51948 8.69085 6.81855C8.17044 6.92305 7.68823 6.99793 7.25655 7.04817C7.10738 7.06553 6.97583 7.07856 6.86275 7.08794C6.80164 7.09285 6.80163 7.09285 6.7634 7.09554L6.73253 7.09756ZM21.7852 10.4445C21.2934 10.0471 20.5726 10.1235 20.1751 10.6153L14.3314 17.8452L11.7154 14.8554L11.6472 14.7838C11.2235 14.3758 10.5506 14.3534 10.0999 14.7479C9.62407 15.1643 9.57593 15.8876 9.99234 16.3634L13.5054 20.3774L13.5685 20.4441C14.0455 20.9098 14.83 20.8718 15.2573 20.3431L21.956 12.0545L22.012 11.9791C22.3447 11.4915 22.2523 10.8221 21.7852 10.4445Z" fill="black"/>
</svg>
