<svg width="32" height="32" viewBox="0 0 32 32" fill="none" xmlns="http://www.w3.org/2000/svg">
<path fill-rule="evenodd" clip-rule="evenodd" d="M6.72573 7.09802L6.73253 7.09756L6.7634 7.09554C6.8016 7.09285 6.80166 7.09284 6.86275 7.08794C6.97583 7.07856 7.10738 7.06553 7.25655 7.04817C7.68823 6.99793 8.17044 6.92305 8.69085 6.81855C10.1802 6.51948 11.6688 6.04422 13.0529 5.35606C14.001 4.88471 14.8666 4.32809 15.6323 3.6802C15.8361 3.50773 16.1323 3.49985 16.345 3.66124C16.7453 3.96496 17.1594 4.2489 17.5861 4.5137C19.272 5.55981 21.0819 6.26979 22.892 6.70464C23.5239 6.85643 24.1093 6.96288 24.633 7.03193C24.814 7.0558 24.9736 7.07328 25.1105 7.08544C25.1561 7.08933 25.1736 7.09082 25.1911 7.09217L25.2306 7.09509L25.2591 7.09699L25.2728 7.09785L25.2825 7.09861C25.5698 7.09803 25.8031 7.3304 25.8037 7.61761L25.8037 7.61866V14.2007C25.8037 20.7745 23.1497 25.4513 16.1528 27.3923C16.053 27.42 15.9476 27.4199 15.8478 27.3922C8.8877 25.4571 6.21507 20.7123 6.21507 14.2007C6.20978 13.5379 6.20572 12.6499 6.20277 11.595C6.20036 10.7356 6.19881 9.81492 6.19795 8.89422L6.19727 7.66652L6.19777 7.65038C6.20691 7.35846 6.43452 7.12034 6.72573 7.09802ZM15.7726 8.6936C17.1375 8.6936 18.2639 9.2461 19.0466 10.2977C19.5744 10.9624 19.8236 11.9385 19.7315 12.9068L19.7065 13.1141L19.6634 13.3487L19.6385 13.4156L19.621 13.54C19.4307 14.2939 19.0516 14.919 18.3345 15.6983L18.1481 15.8965L17.5325 16.5239L17.397 16.669C17.3766 16.6915 17.3571 16.7134 17.3382 16.735C17.1155 16.9892 17.0151 17.1658 17.0151 17.2075C17.0151 17.8871 16.4618 18.4404 15.7823 18.4404C15.1027 18.4404 14.5494 17.8871 14.5494 17.2075C14.5494 16.3085 14.8851 15.7046 15.9113 14.6528L16.0888 14.4733L16.4606 14.086C16.7959 13.7279 16.9958 13.4672 17.1101 13.2451L17.1491 13.1635L17.225 12.9685L17.2358 12.8931C17.2952 12.6701 17.2983 12.4002 17.2587 12.1817L17.23 12.0577L17.1916 11.9507L17.1483 11.8645L17.1524 11.858L17.1008 11.7995C16.7649 11.3657 16.3513 11.169 15.763 11.169C15.2827 11.169 14.9207 11.3003 14.6295 11.5726L14.5235 11.6814L14.427 11.7972C14.3768 11.8629 14.3176 12.0217 14.2819 12.196L14.2636 12.3018L14.2502 12.4167L14.2451 12.5427C14.2451 13.2223 13.6918 13.7756 13.0122 13.7756C12.3326 13.7756 11.7793 13.2223 11.7793 12.5427C11.7793 11.9909 11.8959 11.4099 12.1168 10.9061L12.2177 10.6952L12.343 10.4811L12.4957 10.2703L12.6373 10.0968C13.2777 9.3523 14.0969 8.89603 15.066 8.74648L15.2923 8.71742L15.5356 8.69938L15.7726 8.6936ZM15.6953 20.0711C16.5921 20.0711 17.313 20.7935 17.313 21.6888C17.313 22.5855 16.5906 23.3064 15.6953 23.3064C14.8041 23.3064 14.0777 22.5799 14.0777 21.6888C14.0777 20.792 14.8001 20.0711 15.6953 20.0711Z" fill="black"/>
</svg>
