<svg width="32" height="32" viewBox="0 0 32 32" fill="none" xmlns="http://www.w3.org/2000/svg">
<path fill-rule="evenodd" clip-rule="evenodd" d="M6.72573 7.09802L6.73253 7.09756L6.7634 7.09554C6.80163 7.09285 6.80164 7.09285 6.86275 7.08794C6.97583 7.07856 7.10738 7.06553 7.25655 7.04817C7.68823 6.99793 8.17044 6.92305 8.69085 6.81855C10.1802 6.51948 11.6688 6.04422 13.0529 5.35606C14.001 4.88471 14.8666 4.32809 15.6323 3.6802C15.8361 3.50773 16.1323 3.49985 16.345 3.66124C16.7453 3.96496 17.1594 4.2489 17.5861 4.5137C19.272 5.55981 21.0819 6.26979 22.892 6.70464C23.5239 6.85643 24.1093 6.96288 24.633 7.03193C24.814 7.0558 24.9736 7.07328 25.1105 7.08544C25.1561 7.08933 25.1736 7.09082 25.1911 7.09217L25.2306 7.09509L25.2591 7.09699L25.2728 7.09785L25.2825 7.09861C25.5698 7.09803 25.8031 7.3304 25.8037 7.61761L25.8037 7.61866V14.2007C25.8037 20.7745 23.1497 25.4513 16.1528 27.3923C16.053 27.42 15.9476 27.4199 15.8478 27.3922C8.8877 25.4571 6.21507 20.7123 6.21507 14.2007C6.20978 13.5379 6.20572 12.6499 6.20277 11.595C6.20036 10.7356 6.19881 9.81492 6.19795 8.89422L6.19727 7.66652L6.19777 7.65038C6.20691 7.35846 6.43452 7.12034 6.72573 7.09802ZM7.33795 8.89315C7.33881 9.8132 7.34036 10.7332 7.34276 11.5919C7.34571 12.6449 7.34976 13.5312 7.35505 14.1962C7.35507 20.2014 9.71982 24.4476 16.0007 26.2508C22.3191 24.4423 24.6637 20.2625 24.6637 14.2007V8.18471C24.6059 8.17784 24.546 8.17033 24.484 8.16215C23.9221 8.08806 23.2977 7.97453 22.6257 7.8131C20.7042 7.35147 18.7823 6.59759 16.985 5.48236C16.6556 5.27797 16.3331 5.06278 16.0179 4.83654C15.2698 5.42466 14.4466 5.9363 13.5605 6.37685C12.0786 7.11363 10.4965 7.61873 8.91528 7.93624C8.36303 8.04713 7.85005 8.12679 7.38834 8.18053L7.33744 8.18637C7.33744 8.38698 7.3376 8.5409 7.33778 8.7219L7.33795 8.89315Z" fill="black"/>
<path d="M15.8304 9.86C14.6304 9.86 13.6604 10.33 12.9504 11.25L12.9404 11.26C12.5104 11.81 12.3604 12.63 12.3604 13.18C12.3604 13.51 12.6304 13.78 12.9604 13.78C13.2904 13.78 13.5604 13.51 13.5604 13.18C13.5604 12.74 13.7004 12.24 13.8804 12C13.8804 12 13.8804 11.99 13.8904 11.99C14.3704 11.37 15.0004 11.07 15.8204 11.07C16.6404 11.07 17.2704 11.37 17.7504 11.99L17.7604 12C18.0604 12.38 18.1704 13.12 18.0104 13.72V13.74C17.8304 14.46 17.2504 15.04 16.6504 15.66C15.9904 16.32 15.2404 17.07 15.2404 18.03C15.2404 18.36 15.5104 18.63 15.8404 18.63C16.1704 18.63 16.4404 18.36 16.4404 18.03C16.4404 17.57 17.0004 17.01 17.5004 16.51C18.1604 15.84 18.9104 15.08 19.1704 14.05V14.04C19.4304 13.07 19.2404 11.95 18.7004 11.27C18.0004 10.33 17.0304 9.86 15.8304 9.86V9.86Z" fill="black"/>
<path d="M15.75 20C15.2 20 14.75 20.44 14.75 21C14.75 21.55 15.2 22 15.75 22C16.3 22 16.75 21.56 16.75 21C16.75 20.45 16.31 20 15.75 20Z" fill="black"/>
</svg>
