<svg fill="none" height="32" viewBox="0 0 33 32" width="33" xmlns="http://www.w3.org/2000/svg"><path d="m6.59497 7.25532c-.0187 0 9.47613-3.64466 9.71913-3.7381.1869.07474 9.7378 3.7381 9.7191 3.7381v6.87808c0 4.7662-1.3644 10.9901-9.7191 13.3077-8.33601-2.3176-9.70043-8.6537-9.70043-13.3077-.0187-2.3549-.0187-6.87808-.0187-6.87808z" fill="#3bbee8"/><path d="m16.314 5.3863c.1682.05609 7.8687 3.02787 7.85 3.00917v5.77533c0 3.9998-.785 9.4575-7.85 11.4013z" fill="#25a5cf"/><path clip-rule="evenodd" d="m17.5547 10.8057c0-.6628-.5373-1.20005-1.2-1.20005-.6628 0-1.2.53725-1.2 1.20005v2.9943h-2.9947c-.6628 0-1.2.5372-1.2 1.2 0 .6627.5372 1.2 1.2 1.2h2.9947v2.9943c0 .6628.5372 1.2 1.2 1.2.6627 0 1.2-.5372 1.2-1.2v-2.9943h2.9939c.6628 0 1.2-.5373 1.2-1.2 0-.6628-.5372-1.2-1.2-1.2h-2.9939z" fill="#fff" fill-rule="evenodd"/></svg>