<svg fill="none" height="32" viewBox="0 0 33 32" width="33" xmlns="http://www.w3.org/2000/svg"><path d="m6.59497 7.25532c-.0187 0 9.47613-3.64466 9.71913-3.7381.1869.07474 9.7378 3.7381 9.7191 3.7381v6.87808c0 4.7662-1.3644 10.9901-9.7191 13.3077-8.33601-2.3176-9.70043-8.6537-9.70043-13.3077-.0187-2.3549-.0187-6.87808-.0187-6.87808z" fill="#009f27"/><path d="m16.314 5.3863c.1682.05609 7.8687 3.02787 7.85 3.00917v5.77533c0 3.9998-.785 9.4575-7.85 11.4013z" fill="#008220"/><path d="m20.5296 10.6153c.3975-.4918 1.1183-.5682 1.6101-.1708.4671.3776.5595 1.047.2268 1.5346l-.056.0754-6.6987 8.2886c-.4273.5287-1.2118.5667-1.6888.1009l-.0631-.0666-3.5131-4.014c-.41638-.4758-.36824-1.1991.1076-1.6155.4507-.3945 1.1236-.3721 1.5472.0359l.0683.0716 2.616 2.9898z" fill="#fff"/></svg>