<svg width="32" height="32" viewBox="0 0 32 32" fill="none" xmlns="http://www.w3.org/2000/svg">
<path fill-rule="evenodd" clip-rule="evenodd" d="M6.73253 7.09756L6.72573 7.09802C6.43452 7.12034 6.20691 7.35846 6.19777 7.65038L6.19727 7.66652V8.00422L6.19795 8.89422C6.19881 9.81492 6.20036 10.7356 6.20277 11.595C6.20572 12.6499 6.20978 13.5379 6.21507 14.2007C6.21507 20.7123 8.8877 25.4571 15.8478 27.3922C15.9476 27.4199 16.053 27.42 16.1528 27.3923C23.1497 25.4513 25.8037 20.7745 25.8037 14.2007V7.61866L25.8037 7.61761C25.8031 7.3304 25.5698 7.09803 25.2825 7.09861L25.2728 7.09785L25.2591 7.09699L25.2306 7.09509C25.2129 7.09381 25.202 7.09302 25.1911 7.09217C25.1736 7.09082 25.1561 7.08933 25.1105 7.08544C24.9736 7.07328 24.814 7.0558 24.633 7.03193C24.1093 6.96288 23.5239 6.85643 22.892 6.70464C21.0819 6.26979 19.272 5.55981 17.5861 4.5137C17.1594 4.2489 16.7453 3.96496 16.345 3.66124C16.1323 3.49985 15.8361 3.50773 15.6323 3.6802C14.8666 4.32809 14.001 4.88471 13.0529 5.35606C11.6688 6.04422 10.1802 6.51948 8.69085 6.81855C8.17044 6.92305 7.68823 6.99793 7.25655 7.04817C7.10738 7.06553 6.97583 7.07856 6.86275 7.08794H6.86275C6.80164 7.09285 6.80163 7.09285 6.7634 7.09554L6.73253 7.09756ZM16.0002 9.60565C16.6629 9.60565 17.2002 10.1429 17.2002 10.8057V13.8H20.1941C20.8569 13.8 21.3941 14.3372 21.3941 15C21.3941 15.6627 20.8569 16.2 20.1941 16.2H17.2002V19.1943C17.2002 19.8571 16.6629 20.3943 16.0002 20.3943C15.3375 20.3943 14.8002 19.8571 14.8002 19.1943V16.2H11.8055C11.1427 16.2 10.6055 15.6627 10.6055 15C10.6055 14.3372 11.1427 13.8 11.8055 13.8H14.8002V10.8057C14.8002 10.1429 15.3375 9.60565 16.0002 9.60565Z" fill="black"/>
</svg>
