<svg fill="none" height="32" viewBox="0 0 32 32" width="32" xmlns="http://www.w3.org/2000/svg"><g fill="#000"><path clip-rule="evenodd" d="m6.72573 7.09802.0068-.00046.03087-.00202c.03823-.00269.03824-.00269.09935-.0076.11308-.00938.24463-.02241.3938-.03977.43168-.05024.91389-.12512 1.4343-.22962 1.48935-.29907 2.97795-.77433 4.36205-1.46249.9481-.47135 1.8137-1.02797 2.5794-1.67586.2038-.17247.5-.18035.7127-.01896.4003.30372.8144.58766 1.2411.85246 1.6859 1.04611 3.4958 1.75609 5.3059 2.19094.6319.15179 1.2173.25824 1.741.32729.181.02387.3406.04135.4775.05351.0456.00389.0631.00538.0806.00673l.0395.00292.0285.0019.0137.00086.0097.00076c.2873-.00058.5206.23179.5212.519v.00105 6.58204c0 6.5738-2.654 11.2506-9.6509 13.1916-.0998.0277-.2052.0276-.305-.0001-6.9601-1.9351-9.63273-6.6799-9.63273-13.1915-.00529-.6628-.00935-1.5508-.0123-2.6057-.00241-.8594-.00396-1.78008-.00482-2.70078l-.00068-1.2277.0005-.01614c.00914-.29192.23675-.53004.52796-.55236zm.61222 1.79513c.00086.92005.00241 1.84005.00481 2.69875.00295 1.053.007 1.9393.01229 2.6043.00002 6.0052 2.36477 10.2514 8.64565 12.0546 6.3184-1.8085 8.663-5.9883 8.663-12.0501v-6.01599c-.0578-.00687-.1177-.01438-.1797-.02256-.5619-.07409-1.1863-.18762-1.8583-.34905-1.9215-.46163-3.8434-1.21551-5.6407-2.33074-.3294-.20439-.6519-.41958-.9671-.64582-.7481.58812-1.5713 1.09976-2.4574 1.54031-1.4819.73678-3.064 1.24188-4.64522 1.55939-.55225.11089-1.06523.19055-1.52694.24429l-.0509.00584c0 .20061.00016.35453.00034.53553z" fill-rule="evenodd"/><path d="m15.8304 9.86c-1.2 0-2.17.47-2.88 1.39l-.01.01c-.43.55-.58 1.37-.58 1.92 0 .33.27.6.6.6s.6-.27.6-.6c0-.44.14-.94.32-1.18 0 0 0-.01.01-.01.48-.62 1.11-.92 1.93-.92s1.45.3 1.93.92l.01.01c.3.38.41 1.12.25 1.72v.02c-.18.72-.76 1.3-1.36 1.92-.66.66-1.41 1.41-1.41 2.37 0 .33.27.6.6.6s.6-.27.6-.6c0-.46.56-1.02 1.06-1.52.66-.67 1.41-1.43 1.67-2.46v-.01c.26-.97.07-2.09-.47-2.77-.7-.94-1.67-1.41-2.87-1.41z"/><path d="m15.75 20c-.55 0-1 .44-1 1 0 .55.45 1 1 1s1-.44 1-1c0-.55-.44-1-1-1z"/></g></svg>