<svg width="32" height="32" viewBox="0 0 32 32" fill="none" xmlns="http://www.w3.org/2000/svg">
<path fill-rule="evenodd" clip-rule="evenodd" d="M6.73253 7.09756L6.72573 7.09802C6.43452 7.12034 6.20691 7.35846 6.19777 7.65038L6.19727 7.66652L6.19795 8.89422C6.19881 9.81492 6.20036 10.7356 6.20277 11.595C6.20572 12.6499 6.20978 13.5379 6.21507 14.2007C6.21507 20.7123 8.8877 25.4571 15.8478 27.3922C15.9476 27.4199 16.053 27.42 16.1528 27.3923C23.1497 25.4513 25.8037 20.7745 25.8037 14.2007V7.61866L25.8037 7.61761C25.8031 7.3304 25.5698 7.09803 25.2825 7.09861L25.2728 7.09785L25.2591 7.09699L25.2306 7.09509L25.1911 7.09217C25.1736 7.09082 25.1561 7.08933 25.1105 7.08544C24.9736 7.07328 24.814 7.0558 24.633 7.03193C24.1093 6.96288 23.5239 6.85643 22.892 6.70464C21.0819 6.26979 19.272 5.55981 17.5861 4.5137C17.1594 4.2489 16.7453 3.96496 16.345 3.66124C16.1323 3.49985 15.8361 3.50773 15.6323 3.6802C14.8666 4.32809 14.001 4.88471 13.0529 5.35606C11.6688 6.04422 10.1802 6.51948 8.69085 6.81855C8.17044 6.92305 7.68823 6.99793 7.25655 7.04817C7.10738 7.06553 6.97583 7.07856 6.86275 7.08794L6.86264 7.08795C6.80164 7.09285 6.80161 7.09285 6.7634 7.09554L6.73253 7.09756ZM7.34276 11.5919C7.34036 10.7332 7.33881 9.8132 7.33795 8.89315L7.33778 8.7219C7.3376 8.5409 7.33744 8.38698 7.33744 8.18637L7.38834 8.18053C7.85005 8.12679 8.36303 8.04713 8.91528 7.93624C10.4965 7.61873 12.0786 7.11363 13.5605 6.37685C14.4466 5.9363 15.2698 5.42466 16.0179 4.83654C16.3331 5.06278 16.6556 5.27797 16.985 5.48236C18.7823 6.59759 20.7042 7.35147 22.6257 7.8131C23.2977 7.97453 23.9221 8.08806 24.484 8.16215C24.546 8.17033 24.6059 8.17784 24.6637 8.18471V14.2007C24.6637 20.2625 22.3191 24.4423 16.0007 26.2508C9.71982 24.4476 7.35507 20.2014 7.35505 14.1962C7.34976 13.5312 7.34571 12.6449 7.34276 11.5919ZM11.8061 14.4C11.4747 14.4 11.2061 14.6686 11.2061 15C11.2061 15.3314 11.4747 15.6 11.8061 15.6H20.1947C20.5261 15.6 20.7947 15.3314 20.7947 15C20.7947 14.6686 20.5261 14.4 20.1947 14.4H11.8061Z" fill="black"/>
</svg>
