<svg fill="none" height="32" viewBox="0 0 33 32" width="33" xmlns="http://www.w3.org/2000/svg"><path clip-rule="evenodd" d="m24.1636 6.9h-16.30872c-2.54051 0-4.6 2.05949-4.6 4.6v8.0751c0 2.5405 2.05949 4.6 4.6 4.6h16.30872c2.5405 0 4.6-2.0595 4.6-4.6v-8.0751c0-2.54051-2.0595-4.6-4.6-4.6zm-1.1353 4.2711h-5.5838c-.4694 0-.85.3806-.85.85 0 .4695.3806.85.85.85h5.5838c.4694 0 .85-.3805.85-.85 0-.4694-.3806-.85-.85-.85zm-11.898.2578c-.4191.0525-.7434.4101-.7434.8434v2.4147l-2.41521.0006c-.46945 0-.85.3805-.85.85l.00662.1066c.05245.4191.41004.7434.84338.7434l2.41521-.0006v2.4158c0 .4695.3806.85.85.85l.1067-.0066c.4191-.0524.7433-.41.7433-.8434v-2.4158l2.4153.0006c.4695 0 .85-.3806.85-.85l-.0066-.1067c-.0525-.4191-.4101-.7433-.8434-.7433l-2.4153-.0006v-2.4147c0-.4694-.3805-.85-.85-.85zm6.3142 3.2587h5.5838c.4694 0 .85.3805.85.85 0 .4694-.3806.85-.85.85h-5.5838c-.4694 0-.85-.3806-.85-.85 0-.4695.3806-.85.85-.85zm5.5838 3.5164h-5.5838c-.4694 0-.85.3806-.85.85s.3806.85.85.85h5.5838c.4694 0 .85-.3806.85-.85s-.3806-.85-.85-.85z" fill="#000" fill-rule="evenodd"/></svg>