<svg height="32" viewBox="0 0 32 32" width="32" xmlns="http://www.w3.org/2000/svg"><path d="m23.8087406 6.9c2.5405099 0 4.6 2.05949015 4.6 4.6v8.0751349c0 2.5405099-2.0594901 4.6-4.6 4.6h-16.3087406c-2.54050985 0-4.6-2.0594901-4.6-4.6v-8.0751349c0-2.54050985 2.05949015-4.6 4.6-4.6zm-1.1353241 11.3040032h-5.5837948l-.1066222.0066227c-.4191154.0524507-.7433778.4100462-.7433778.8433773 0 .4694421.380558.85.85.85h5.5837948l.1066222-.0066227c.4191154-.0524506.7433778-.4100462.7433778-.8433773 0-.469442-.380558-.85-.85-.85zm-11.7913519-6.7816975-.1066222.0066227-.1026699.0193371c-.3682374.0932387-.6407079.42682-.6407079.8240402l-.0000646 2.4146943-2.41519715.0005675-.1066222.0066227c-.4191154.0524506-.7433778.4100462-.7433778.8433773l.00662271.1066222.01933708.1026699c.09323873.3682374.42682002.6407079.82404021.6407079l2.41519715-.0005675.0000646 2.4158293.0066227.1066221c.0524507.4191154.4100462.7433779.8433773.7433779l.1066222-.0066228.10267-.019337c.3682373-.0932388.6407078-.4268201.6407078-.8240402l-.0000646-2.4158293 2.4153264.0005675.1066222-.0066227c.4191154-.0524507.7433778-.4100462.7433778-.8433773l-.0066227-.1066222-.0193371-.10267c-.0932387-.3682373-.42682-.6407078-.8240402-.6407078l-2.4153264-.0005675.0000646-2.4146943-.0066227-.1066222c-.0524506-.4191154-.4100462-.7433778-.8433773-.7433778zm11.7913519 3.2652618h-5.5837948l-.1066222.0066227c-.4191154.0524506-.7433778.4100462-.7433778.8433773 0 .469442.380558.85.85.85h5.5837948l.1066222-.0066227c.4191154-.0524507.7433778-.4100462.7433778-.8433773 0-.4694421-.380558-.85-.85-.85zm0-3.5164358h-5.5837948l-.1066222.0066227c-.4191154.0524506-.7433778.4100462-.7433778.8433773 0 .469442.380558.85.85.85h5.5837948l.1066222-.0066227c.4191154-.0524506.7433778-.4100462.7433778-.8433773 0-.469442-.380558-.85-.85-.85z"/></svg>