<svg height="32" viewBox="0 0 32 32" width="32" xmlns="http://www.w3.org/2000/svg"><g fill="none"><path d="m7.36628766 9.33764933c-2.07023938 0-3.7485 1.67826057-3.7485 3.74849997v8.9028363c0 2.0702394 1.67826062 3.7485 3.7485 3.7485h17.98038654c2.0702394 0 3.7485-1.6782606 3.7485-3.7485v-8.9028363c0-2.0702394-1.6782606-3.74849997-3.7485-3.74849997z" fill="#79b8b0"/><path d="m7.36628766 7.33764933c-2.07023938 0-3.7485 1.67826062-3.7485 3.74849997v8.9028363c0 2.0702394 1.67826062 3.7485 3.7485 3.7485h17.98038654c2.0702394 0 3.7485-1.6782606 3.7485-3.7485v-8.9028363c0-2.07023935-1.6782606-3.74849997-3.7485-3.74849997z" fill="#b5e0db"/><path d="m12.5 14.9211317v-2.65c0-.4680712-.3819288-.85-.85-.85s-.85.3819288-.85.85v2.65h-2.65c-.46807119 0-.85.3819288-.85.85s.38192881.85.85.85h2.65v2.65c0 .4680712.3819288.85.85.85s.85-.3819288.85-.85v-2.65h2.65c.4680712 0 .85-.3819288.85-.85s-.3819288-.85-.85-.85z" fill="#d9541a"/><g fill="#252d4f"><path d="m17.7917323 12.6211317h5.5837948c.3313709 0 .6-.2686291.6-.6 0-.3313708-.2686291-.6-.6-.6h-5.5837948c-.3313708 0-.6.2686292-.6.6 0 .3313709.2686292.6.6.6z"/><path d="m17.7917323 16.1375675h5.5837948c.3313709 0 .6-.2686292.6-.6 0-.3313709-.2686291-.6-.6-.6h-5.5837948c-.3313708 0-.6.2686291-.6.6 0 .3313708.2686292.6.6.6z"/><path d="m17.7917323 19.6540032h5.5837948c.3313709 0 .6-.2686291.6-.6 0-.3313708-.2686291-.6-.6-.6h-5.5837948c-.3313708 0-.6.2686292-.6.6 0 .3313709.2686292.6.6.6z"/></g></g></svg>