<svg height="32" viewBox="0 0 32 32" width="32" xmlns="http://www.w3.org/2000/svg"><path d="m23.8087406 6.9c2.5405099 0 4.6 2.05949015 4.6 4.6v8.0751349c0 2.5405099-2.0594901 4.6-4.6 4.6h-16.3087406c-2.54050985 0-4.6-2.0594901-4.6-4.6v-8.0751349c0-2.54050985 2.05949015-4.6 4.6-4.6zm0 1.2h-16.3087406c-1.87776815 0-3.4 1.52223185-3.4 3.4v8.0751349c0 1.8777682 1.52223185 3.4 3.4 3.4h16.3087406c1.8777682 0 3.4-1.5222318 3.4-3.4v-8.0751349c0-1.87776815-1.5222318-3.4-3.4-3.4zm-1.1353241 10.3540032c.3313708 0 .6.2686292.6.6 0 .3313709-.2686292.6-.6.6h-5.5837948c-.3313709 0-.6-.2686291-.6-.6 0-.3313708.2686291-.6.6-.6zm-11.7913519-6.7816975c.3313709 0 .6.2686291.6.6v2.6652618h2.6652618c.3313709 0 .6.2686291.6.6 0 .3313708-.2686291.6-.6.6h-2.6652618v2.6652618c0 .3313708-.2686291.6-.6.6-.3313708 0-.6-.2686292-.6-.6v-2.6652618h-2.66526175c-.33137085 0-.6-.2686292-.6-.6 0-.3313709.26862915-.6.6-.6h2.66526175v-2.6652618c0-.3313709.2686292-.6.6-.6zm11.7913519 3.2652618c.3313708 0 .6.2686291.6.6 0 .3313708-.2686292.6-.6.6h-5.5837948c-.3313709 0-.6-.2686292-.6-.6 0-.3313709.2686291-.6.6-.6zm0-3.5164358c.3313708 0 .6.2686292.6.6 0 .3313709-.2686292.6-.6.6h-5.5837948c-.3313709 0-.6-.2686291-.6-.6 0-.3313708.2686291-.6.6-.6z"/></svg>