<svg height="32" viewBox="0 0 32 32" width="32" xmlns="http://www.w3.org/2000/svg"><g fill="none" fill-rule="evenodd"><g fill-rule="nonzero" transform="translate(4 10)"><path d="m18.5831907 2.8541914c1.1557925 0 2.1014408.94466873 2.0935107 2.09926384v9.94728096c0 1.1545951-.9458007 2.0992638-2.1015932 2.0992638h-16.47366737c-1.15579245 0-2.10144083-.9446687-2.10144083-2.0992638v-9.94728096c0-1.15459511.94564838-2.09926384 2.10144083-2.09926384z" fill="#594402"/><path d="m13.8266307 2.98741392v-1.00926146c0-.55711233-.4607005-1.00926146-1.0183906-1.00926146h-3.87958306c-.56577253 0-1.01839056.45214913-1.01839056 1.00926146v1.00926146h-.96989577v-1.00926146c0-1.09000238.89715359-1.97815246 1.98828633-1.97815246h3.87958306c1.0992152 0 1.9882863.88815008 1.9882863 1.97815246v1.00926146z" fill="#252d4f"/><g fill="#9c7c14"><path d="m18.9064893 2.8541914h-13.80940762c-1.15579246 0-2.10144083.94466873-2.10144083 2.09926384v9.94728096c0 1.1545951.94564837 2.0992638 2.10144083 2.0992638h10.22359212 2.5863887.9913443c1.1557925 0 2.1014923-.9446687 2.1014923-2.0992638v-9.94728096c.008031-1.15459511-.9376174-2.09926384-2.0934098-2.09926384z"/><path d="m2.99564085 9.9270957v4.9736405c0 1.1545951.94564837 2.0992638 2.10144083 2.0992638h10.22359212 2.5863887.9913443c1.1557925 0 2.1016191-.9446687 2.1016191-2.0992638v-4.3399814z"/></g></g><rect fill="#f7d776" height="3.229637" rx=".48" width="2.424739" x="14.507204" y="18.102351"/><g transform="translate(8 5)"><g fill-rule="nonzero"><path d="m18.5831907 2.8541914c1.1557925 0 2.1014408.94466873 2.0935107 2.09926384v9.94728096c0 1.1545951-.9458007 2.0992638-2.1015932 2.0992638h-16.47366737c-1.15579245 0-2.10144083-.9446687-2.10144083-2.0992638v-9.94728096c0-1.15459511.94564838-2.09926384 2.10144083-2.09926384z" fill="#594402"/><path d="m13.8266307 2.98741392v-1.00926146c0-.55711233-.4607005-1.00926146-1.0183906-1.00926146h-3.87958306c-.56577253 0-1.01839056.45214913-1.01839056 1.00926146v1.00926146h-.96989577v-1.00926146c0-1.09000238.89715359-1.97815246 1.98828633-1.97815246h3.87958306c1.0992152 0 1.9882863.88815008 1.9882863 1.97815246v1.00926146z" fill="#252d4f"/><path d="m18.9064893 2.8541914h-14.38030905c-1.15579245 0-2.10144083.94466873-2.10144083 2.09926384v9.94728096c0 1.1545951.94564838 2.0992638 2.10144083 2.0992638h10.79449355 2.5863887.9913443c1.1557925 0 2.1015932-.9446687 2.1015932-2.0992638v-9.94728096c.0079301-1.15459511-.9377183-2.09926384-2.0935107-2.09926384z" fill="#9c7c14"/><path d="m18.9064893 2.8541914h-14.38030905c-1.15579245 0-2.10144083.94466873-2.10144083 2.09926384v9.94728096c0 1.1545951.94564838 2.0992638 2.10144083 2.0992638h10.79449355 2.5863887.9913443c1.1557925 0 2.1015932-.9446687 2.1015932-2.0992638v-9.94728096c.0079301-1.15459511-.9377183-2.09926384-2.0935107-2.09926384z" fill="#7e630b"/><path d="m2.42473942 9.31346474h18.57510828v2.01852296h-18.57510828z" fill="#654e06"/></g><rect fill="#654e06" height="3.229637" rx=".48" width="2.424739" x="10.507204" y="9.717169"/><path d="m18.9064893 2.8541914h-14.38030905c-1.15579245 0-2.10144083.95228702-2.10144083 2.11619338v5.15048912h9.21682548 9.3584351v-5.15048912c.0079301-1.16390636-.9377183-2.11619338-2.0935107-2.11619338z" fill="#9c7c14" fill-rule="nonzero"/><rect fill="#f7d776" height="3.229637" rx=".48" width="2.424739" x="10.507204" y="8.102351"/></g></g></svg>