<svg height="32" viewBox="0 0 32 32" width="32" xmlns="http://www.w3.org/2000/svg"><path d="m24.1769126 13.0029608c3.0386032.1024834 5.2605986 2.9511667 4.7498464 5.9491064-.2367269 1.39082-.9733937 2.5784653-1.847771 3.77024l-.4469876.5971912-.6915055.9096739c-.6174994.8208041-1.229124 1.6818331-1.7275467 2.6445105-.0872597.168621-.3314677.168621-.4187274-.0011917-.4017917-.7795994-.8770993-1.5038239-1.3697401-2.1967554l-.425198-.5868392-.8444158-1.141177-.1929006-.2653975-.3723897-.5287242c-.9044824-1.3201338-1.5895766-2.6365639-1.5895766-4.1489069 0-2.8221687 2.3336759-5.0982553 5.1769126-5.0017301zm-8.1422955-8.10302919c.9570752 0 1.7635845.67825914 1.8950019 1.58326636l.0150294.14241725.0032354.1111476-.0011702 1.62816879 3.1441879.00052551c1.0340107 0 1.9123535.70909485 2.1153973 1.66401338l.0263719.1527519.0142654.1489058.0030639.1222177-.0002207.8919566c-.0000683.2761159-.2239237.4999159-.5000397.4999159-.2451299 0-.449004-.1766374-.491283-.409573l-.0080445-.0903426.0010816-.91881-.0042449-.074142-.0190831-.1149004c-.0974585-.458349-.5085289-.81351543-1.0101119-.86544429l-.1271523-.00654899-14.20800113-.00068653-.11996893.01074914c-.54100743.06981652-.95006643.47905644-1.0057432.96469817l-.00647462.1133077-.00171362 3.2434744 12.4774854-.0004234c.2513506-.0000086.4604044.1811042.5037645.4199496l.0082521.0920496c0 .2513492-.1811189.4603957-.4199644.5037475l-.0920522.0082489-2.9277718-.0001151.0015304 1.4271879-.0076041.0975717c-.0413336.2534089-.241413.4534704-.4948239.4946427l-.0973231.0077856h-1.5112031c-.2981463-.0002241-.5455179-.2177132-.5922925-.5027072l-.0079564-.0972928-.0013273-1.4271879-6.8387136.0005429.00043956 5.4632551.01083253.1124548c.06938645.4970713.49911737.8929797 1.03210456.947002l.12471298.0062881 11.22632077.0007539c.2756126.0000185.499031.2234519.499031.4990645 0 .2756152-.2234159.499053-.499031.49908l-11.22632077.0011016c-1.08708736 0-2.00331374-.7841594-2.14721489-1.8150401l-.01523845-.148889-.00392267-.1239175v-9.7088075c0-1.05223144.81830963-1.93204585 1.88423005-2.06960192l.15389715-.01453996.12824881-.0037469 3.66462397-.00052551.001792-1.63304607c0-.86016039.632682-1.60487941 1.5073161-1.78919651l.1518793-.026034.1423242-.01355558.1161959-.00316784zm7.9689674 10.74498769c-1.3026414 0-2.3589603 1.0569503-2.3589603 2.3597716 0 1.3028212 1.0563189 2.3597715 2.3589603 2.3597715 1.3023734 0 2.3589603-1.0569503 2.3589603-2.3597715 0-1.3028213-1.0565869-2.3597716-2.3589603-2.3597716zm-7.9738054-9.69678004-3.5330995.0001171c-.3773066 0-.707386.23927526-.8014151.57591715l-.0201675.10223636-.0068651.09687635-.0015183 1.64164539h5.195l.0016088-1.63307487c0-.35593464-.2585138-.66937167-.6126752-.7579617l-.1082872-.01916653z"/></svg>