<svg height="32" viewBox="0 0 32 32" width="32" xmlns="http://www.w3.org/2000/svg"><g fill="none" fill-rule="evenodd"><g fill-rule="nonzero"><path d="m25.9919849 8c1.43 0 2.6 1.17 2.5901885 2.6v12.32c0 1.43-1.1701885 2.6-2.6001885 2.6h-20.3819849c-1.43 0-2.6-1.17-2.6-2.6v-12.32c0-1.43 1.17-2.6 2.6-2.6z" fill="#594402"/><path d="m20.1069483 8.165v-1.25c0-.69-.57-1.25-1.26-1.25h-4.8c-.7 0-1.26.56-1.26 1.25v1.25h-1.2v-1.25c0-1.35 1.11-2.45 2.46-2.45h4.8c1.36 0 2.46 1.1 2.46 2.45v1.25z" fill="#252d4f"/><path d="m26.3919849 8h-17.7919849c-1.43 0-2.6 1.17-2.6 2.6v12.32c0 1.43 1.17 2.6 2.6 2.6h13.3554478 3.2 1.2265371c1.43 0 2.6001885-1.17 2.6001885-2.6v-12.32c.0098115-1.43-1.1601885-2.6-2.5901885-2.6z" fill="#9c7c14"/><path d="m26.3919849 8h-17.7919849c-1.43 0-2.6 1.17-2.6 2.6v12.32c0 1.43 1.17 2.6 2.6 2.6h13.3554478 3.2 1.2265371c1.43 0 2.6001885-1.17 2.6001885-2.6v-12.32c.0098115-1.43-1.1601885-2.6-2.5901885-2.6z" fill="#7e630b"/><path d="m6 16h22.9819849v2.5h-22.9819849z" fill="#654e06"/></g><rect fill="#654e06" height="4" rx=".6" width="3" x="16" y="16.5"/><path d="m26.3919849 8h-17.7919849c-1.43 0-2.6 1.17943548-2.6 2.6209677v6.3790323h11.4034837 11.5786897v-6.3790323c.0098115-1.44153222-1.1601885-2.6209677-2.5901885-2.6209677z" fill="#9c7c14" fill-rule="nonzero"/><rect fill="#f7d776" height="4" rx=".6" width="3" x="16" y="14.5"/><g fill-rule="nonzero"><path d="m24.9755758 15.0332525c2.2479198 0 4.0702189 1.8222991 4.0702189 4.0702189 0 1.0012527.8111737 4.2528265 1.2209243 5.4250183l.082089.2542116.7653884 2.5794256h-12.1648736l.7653884-2.5794256c.3729868-1.256998 1.1636202-2.3031419 2.1933806-3.0051903-.6244317-.713968-1.0027348-1.6498251-1.0027348-2.6740396 0-2.2479198 1.822299-4.0702189 4.0702188-4.0702189z" fill="#fff"/><path d="m25.0317596 22.4142318c.5375555 0 1.0554242.1087568 1.5293057.3081333l.1457992.0648453c.9970357.4678209 1.7798199 1.3444867 2.1080471 2.4506413l.1555673.5242752h-7.8774386l.1555673-.5242752.071506-.2177603c.3354212-.9299542.9991568-1.6791737 1.8355565-2.1314861l.1711876-.0872616c.5203181-.2494666 1.1001519-.3871119 1.7049019-.3871119zm-.0561838-5.7809793c1.3642642 0 2.4702189 1.1059547 2.4702189 2.4702189 0 .7744473-.3563889 1.4656555-.9138423 1.9170442l-.0974974.0765657c-.4087973.2996562-.9131735.4766089-1.4588792.4766089-1.3642642 0-2.4702188-1.1059546-2.4702188-2.4702188s1.1059546-2.4702189 2.4702188-2.4702189z" fill="#00c3a7"/></g></g></svg>