<svg height="32" viewBox="0 0 32 32" width="32" xmlns="http://www.w3.org/2000/svg"><g fill="none" fill-rule="evenodd"><g fill-rule="nonzero"><path d="m25.9919849 8c1.43 0 2.6 1.17 2.5901885 2.6v12.32c0 1.43-1.1701885 2.6-2.6001885 2.6h-20.3819849c-1.43 0-2.6-1.17-2.6-2.6v-12.32c0-1.43 1.17-2.6 2.6-2.6z" fill="#594402"/><path d="m20.1069483 8.165v-1.25c0-.69-.57-1.25-1.26-1.25h-4.8c-.7 0-1.26.56-1.26 1.25v1.25h-1.2v-1.25c0-1.35 1.11-2.45 2.46-2.45h4.8c1.36 0 2.46 1.1 2.46 2.45v1.25z" fill="#252d4f"/><path d="m26.3919849 8h-17.7919849c-1.43 0-2.6 1.17-2.6 2.6v12.32c0 1.43 1.17 2.6 2.6 2.6h13.3554478 3.2 1.2265371c1.43 0 2.6001885-1.17 2.6001885-2.6v-12.32c.0098115-1.43-1.1601885-2.6-2.5901885-2.6z" fill="#9c7c14"/><path d="m26.3919849 8h-17.7919849c-1.43 0-2.6 1.17-2.6 2.6v12.32c0 1.43 1.17 2.6 2.6 2.6h13.3554478 3.2 1.2265371c1.43 0 2.6001885-1.17 2.6001885-2.6v-12.32c.0098115-1.43-1.1601885-2.6-2.5901885-2.6z" fill="#7e630b"/><path d="m6 16h22.9819849v2.5h-22.9819849z" fill="#654e06"/></g><rect fill="#654e06" height="4" rx=".6" width="3" x="16" y="16.5"/><path d="m26.3919849 8h-17.7919849c-1.43 0-2.6 1.17943548-2.6 2.6209677v6.3790323h11.4034837 11.5786897v-6.3790323c.0098115-1.44153222-1.1601885-2.6209677-2.5901885-2.6209677z" fill="#9c7c14" fill-rule="nonzero"/><rect fill="#f7d776" height="4" rx=".6" width="3" x="16" y="14.5"/></g></svg>