<svg height="32" viewBox="0 0 32 32" width="32" xmlns="http://www.w3.org/2000/svg"><path d="m14.999 17.1.001 2.3c0 .2982338.2175896.5456468.5026769.592147l.0973231.007853h1.8c.2982338 0 .5456468-.2175896.592147-.5026769l.007853-.0973231-.001-2.3 3.2626863.0006978c-.3468352.5990035-.5453643 1.294599-.5453643 2.0365634 0 1.0242145.3783031 1.9600716 1.0027348 2.6740396-.9562061.6519021-1.7062262 1.6004988-2.1071274 2.7391095l-.0862533.2660808-.2586761.8685089h-12.87703181c-1.375 0-2.50961539-1.0817308-2.59485947-2.4362056l-.00514053-.1637944-.00096819-5.985zm9.8437246 5.4980217c.3401797 0 .6757214.0452708.9993889.1335804l.2404112.0742671.2358846.0903743.1384636.0618125.2053602.1040982c.739545.4035977 1.3281739 1.0451543 1.6652837 1.8259532l.0856274.2163233.0702214.2140147.0966344.3265546h-7.476l.0993753-.3306882.0702165-.2136334.08619-.2174845c.2780597-.6425763.7295375-1.194068 1.3007624-1.5953148l.1947698-.1281031.1863059-.1074683.1643244-.0835349.2199031-.0968873c.4457983-.1796255.9261988-.2738638 1.4168772-.2738638zm-.0561838-5.7809793c1.2814215 0 2.3202188 1.0387973 2.3202188 2.3202188 0 .5843579-.216966 1.1336346-.5982501 1.5544748l-.1331083.1353951-.1310478.114103-.0915771.071666-.1503527.101284c-.3595693.2220637-.7784249.3432959-1.2158828.3432959-1.2814215 0-2.3202188-1.0387973-2.3202188-2.3202188s1.0387973-2.3202188 2.3202188-2.3202188zm-6.0265726-12.3520424c1.3056 0 2.371584 1.01376 2.4547737 2.2892544l.0052263.1607456v1.25h4.4c1.375 0 2.5096154 1.08173077 2.5860819 2.4362056l.0040445.1637944v5.135l-.9571505-.0008387c-.6843741-.5220733-1.5391812-.8321189-2.4664033-.8321189-.9274981 0-1.7825381.3102302-2.4670145.8325852l-18.5305263.0003724.00096819-5.135c0-1.375 1.08173076-2.50961538 2.43620562-2.59485947l.16379438-.00514053h5.11000001v-1.25c0-1.296 1.022976-2.3616 2.2992077-2.4447744l.1607923-.0052256zm0 1.2h-4.8c-.65625 0-1.1894531.4921875-1.2535401 1.12225342l-.0064599.12774658v1.25h7.32v-1.25c0-.646875-.5009766-1.17949219-1.1321411-1.24354248z"/></svg>