<svg height="32" viewBox="0 0 32 32" width="32" xmlns="http://www.w3.org/2000/svg"><path d="m3.789 17.1h11.21l.001 2.3c0 .2982338.2175896.5456468.5026769.592147l.0973231.007853h1.8c.2982338 0 .5456468-.2175896.592147-.5026769l.007853-.0973231-.001-2.3h10.2110946v5.985c0 1.375-1.0818476 2.5096154-2.4363315 2.5948595l-.1637949.0051405h-19.22000001c-1.375 0-2.50961539-1.0817308-2.59485947-2.4362056l-.00514053-.1637944zm14.9709682-12.635c1.3056 0 2.371584 1.01376 2.4547737 2.2892544l.0052263.1607456v1.25h4.4c1.375 0 2.5096154 1.08173077 2.5860819 2.4362056l.0040445.1637944v5.135h-24.4210946l.00096819-5.135c0-1.375 1.08173076-2.50961538 2.43620562-2.59485947l.16379438-.00514053h5.11000001v-1.25c0-1.296 1.022976-2.3616 2.2992077-2.4447744l.1607923-.0052256zm0 1.2h-4.8c-.65625 0-1.1894531.4921875-1.2535401 1.12225342l-.0064599.12774658v1.25h7.32v-1.25c0-.646875-.5009766-1.17949219-1.1321411-1.24354248z"/></svg>