<svg height="32" viewBox="0 0 32 32" width="32" xmlns="http://www.w3.org/2000/svg"><g fill="none" fill-rule="evenodd"><g transform="translate(4 6)"><g fill-rule="nonzero"><path d="m18.5831907 2.8541914c1.1557925 0 2.1014408.94466873 2.0935107 2.09926384v9.94728096c0 1.1545951-.9458007 2.0992638-2.1015932 2.0992638h-16.47366737c-1.15579245 0-2.10144083-.9446687-2.10144083-2.0992638v-9.94728096c0-1.15459511.94564838-2.09926384 2.10144083-2.09926384z" fill="#594402"/><path d="m13.8266307 2.98741392v-1.00926146c0-.55711233-.4607005-1.00926146-1.0183906-1.00926146h-3.87958306c-.56577253 0-1.01839056.45214913-1.01839056 1.00926146v1.00926146h-.96989577v-1.00926146c0-1.09000238.89715359-1.97815246 1.98828633-1.97815246h3.87958306c1.0992152 0 1.9882863.88815008 1.9882863 1.97815246v1.00926146z" fill="#252d4f"/><path d="m18.9064893 2.8541914h-14.38030905c-1.15579245 0-2.10144083.94466873-2.10144083 2.09926384v9.94728096c0 1.1545951.94564838 2.0992638 2.10144083 2.0992638h10.79449355 2.5863887.9913443c1.1557925 0 2.1015932-.9446687 2.1015932-2.0992638v-9.94728096c.0079301-1.15459511-.9377183-2.09926384-2.0935107-2.09926384z" fill="#9c7c14"/><path d="m18.9064893 2.8541914h-14.38030905c-1.15579245 0-2.10144083.94466873-2.10144083 2.09926384v9.94728096c0 1.1545951.94564838 2.0992638 2.10144083 2.0992638h10.79449355 2.5863887.9913443c1.1557925 0 2.1015932-.9446687 2.1015932-2.0992638v-9.94728096c.0079301-1.15459511-.9377183-2.09926384-2.0935107-2.09926384z" fill="#7e630b"/><path d="m2.42473942 9.31346474h18.57510828v2.01852296h-18.57510828z" fill="#654e06"/></g><rect fill="#654e06" height="3.229637" rx=".48" width="2.424739" x="10.507204" y="9.717169"/><path d="m18.9064893 2.8541914h-14.38030905c-1.15579245 0-2.10144083.95228702-2.10144083 2.11619338v5.15048912h9.21682548 9.3584351v-5.15048912c.0079301-1.16390636-.9377183-2.11619338-2.0935107-2.11619338z" fill="#9c7c14" fill-rule="nonzero"/><rect fill="#f7d776" height="3.229637" rx=".48" width="2.424739" x="10.507204" y="8.102351"/></g><path d="m23.9182722 12.4006026.2788652.0026991c1.6954771.0571837 3.1655137.8751949 4.1428708 2.099319.9819068 1.2298224 1.4646349 2.8691071 1.1782441 4.5501227-.3136642 1.8428426-1.4383835 3.3586024-2.6618866 4.9624127-.73945.9692967-1.5105049 1.9753466-2.1105967 3.1343926-.1714862.3312167-.3247112.6666224-.4647088 1.0036452-.1811097-.3208256-.3712246-.640299-.573365-.9559074-.66597-1.0398005-1.4246376-1.9785817-2.1492037-2.8768688-1.6922743-2.0980116-3.1584915-4.0012111-3.1584915-6.3157268 0-1.5831849.6558363-3.0128935 1.71066-4.0320229 1.0508237-1.0152647 2.4975883-1.6233075 4.0864774-1.5693663z" fill="#b75c64" stroke="#fff" stroke-width="1.2"/><path d="m24.0035845 20.3644624c1.3023734 0 2.3589603-1.0569503 2.3589603-2.3597715 0-1.3028213-1.0565869-2.3597716-2.3589603-2.3597716-1.3026414 0-2.3589603 1.0569503-2.3589603 2.3597716 0 1.3028212 1.0563189 2.3597715 2.3589603 2.3597715z" fill="#fff"/></g></svg>