<svg height="32" viewBox="0 0 32 32" width="32" xmlns="http://www.w3.org/2000/svg"><g fill="none" fill-rule="evenodd"><path d="m23.8189623 25.7905142 1.9481957-9.1655399-7.3365864-11.26849677-7.1586986-1.52162836c-1.2351686-.2625432-2.44930395.52592551-2.71184715 1.76109414l-3.44733381 16.21843039c-.26254319 1.2351687.52592551 2.449304 1.76109415 2.7118472l14.23332901 3.0253875c1.2351686.2625432 2.4493039-.5259255 2.7118471-1.7610942z" fill="#caecaa"/><path d="m17.2734057 14.1710973 8.4926964 2.4522576-1.0881381 5.119287z" fill="#b3dd8b"/><path d="m16.9170889 12.404924 1.4988545-7.05155579 7.3501587 11.26998669-7.087919-1.5065837c-1.2351687-.2625432-2.0236374-1.4766785-1.7610942-2.7118472z" fill="#87b25f"/><g fill="#345c64" fill-rule="nonzero"><path d="m9.42752083 17.4919738.17453242-.8211104 10.55153205 2.2427974-.1745324.8211104z"/><path d="m8.68950649 20.9640583.17453241-.8211104 7.7757353 1.6527835-.1745325.8211105z"/><path d="m12.7672885 12.2341734c.9500216 0 1.7869677.6246689 2.0572193 1.5354406l.0779249.2626135c.0321816.1084547-.049081.2173322-.1622096.2173322h-3.9458692c-.1131286 0-.1943912-.1088775-.1622096-.2173322l.0779249-.2626135c.2702516-.9107717 1.1071977-1.5354406 2.0572193-1.5354406zm-.0299392-2.99525873c.7437609 0 1.3466982.60293734 1.3466982 1.34669823 0 .7437609-.6029373 1.3466983-1.3466982 1.3466983s-1.3466983-.6029374-1.3466983-1.3466983c0-.74376089.6029374-1.34669823 1.3466983-1.34669823z" transform="matrix(.9781476 .20791169 -.20791169 .9781476 2.72076 -2.397829)"/></g></g></svg>