<svg height="32" viewBox="0 0 32 32" width="32" xmlns="http://www.w3.org/2000/svg"><path d="m11.1661089 4.36304888 6.6161688 1.40507772-.8541 4.0158-.2493 1.1736-.2834802 1.3351251c-.3245495 1.5268853.6501362 3.0277697 2.1770215 3.3523192l6.5592587 1.3938557-1.8344068 8.6394153c-.200537.943452-1.1279232 1.5457037-2.0713752 1.3451668l-14.23332897-3.0253875c-.943452-.2005369-1.54570367-1.1279232-1.34516675-2.0713752l3.4473338-16.21843037c.20053691-.943452 1.12792312-1.54570367 2.07137512-1.34516675zm-1.93562107 15.67903332-.08666476.0008901c-.25683317.021389-.48026498.2080303-.53660871.4731067-.06260415.2945293.10262504.5844992.37659677.6865258l.08533471.0247863 6.95462476 1.4782511.0880387.0120654c.2917836.0182284.5606693-.1794675.6232734-.4739968.0626042-.2945294-.102625-.5844992-.3765967-.6865258l-.0853347-.0247863-6.95462484-1.4782512zm.73801434-3.4720845-.08666476.0008901c-.25683317.021389-.48026498.2080303-.53660871.4731067-.06260414.2945293.10262504.5844992.37659677.6865258l.08533471.0247863 9.73042162 2.068265.0880387.0120653c.2917836.0182284.5606693-.1794675.6232734-.4739968.0626042-.2945293-.102625-.5844992-.3765967-.6865258l-.0853348-.0247863-9.7304216-2.068265zm9.45660133-10.29078203 5.9256 9.08550003-5.8081155-1.2340514c-.943452-.2005369-1.5457036-1.1279232-1.3451667-2.0713752zm-9.0060809 6.87529873-.0850978.1431203-.1308224.2406733c-.0450228.0828282-.0130475.1823229.0628988.2267985l.0505802.0195097 3.8596425.8203923c.0922138.0196007.1785019-.0393567.1995357-.1248173l.0043151-.0540403-.0216216-.2730763c-.0749859-.9470576-.7637667-1.7320869-1.6930281-1.9296075-.8745989-.1859017-1.7662687.1902699-2.2464024.9310473zm1.2426028-2.8298018c-.1546366.727508.3097674 1.4426274 1.0372753 1.597264.727508.1546366 1.4426274-.3097674 1.597264-1.0372754.1546366-.7275079-.3097674-1.44262735-1.0372754-1.59726394-.7275079-.15463659-1.4426273.30976741-1.5972639 1.03727534z"/></svg>