<svg height="32" viewBox="0 0 32 32" width="32" xmlns="http://www.w3.org/2000/svg"><path d="m28.25 19.6814326v4.4806786c0 1.0522201-.8183761 1.9320442-1.8843198 2.0696018l-.1539002.0145401-.1282492.0037469h-14.1664412c-1.0870873 0-2.00331371-.7841594-2.14721486-1.8150401l-.01523845-.148889-.00392267-.1239175v-.6121534h11.33281718l.1662135-.0043014.2382122-.019749.186199-.0287286c1.5958799-.2876812 2.7816399-1.5802485 2.8704914-3.1459601l.0053531-.1891497-.0002864-.4751112zm-5-4v4.4806786c0 1.0522201-.8183761 1.9320442-1.8843198 2.0696018l-.1539002.0145401-.1282492.0037469h-14.16644117c-1.08708736 0-2.00331374-.7841594-2.14721489-1.8150401l-.01523845-.148889-.00392267-.1239175-.00075579-4.4807208 7.83848157.0162595.0006015 1.4499529c.0003863.3312736.2689752.599751.6002489.6h1.5112031c.2982337.000224.5456467-.2173432.592147-.5024283l.0076041-.0975717-.0006016-1.4499529zm1.2997136-3.3174326 1.5411879.0014571c1.0340107 0 1.9123535.7090949 2.1153973 1.6640134l.0263719.1527519.0142654.1489058.0030639.1222177v3.8798303l-3.7002864-.0001762zm-8.5150965-7.614c1.0346798 0 1.9017403.73579128 2.043445 1.71164233l.0157459.14811614.0039956.12209827-.0008036 1.63314326 2.9939015.00045712c1.0340107 0 1.9123535.70909485 2.1153973 1.66401338l.0263719.1527519.0142654.1489058.0030639.1222177v3.8798303h-18.50004915l.00076277-3.8798303c0-1.05223144.81830963-1.93204585 1.88423005-2.06960192l.15389715-.01453996.12824881-.0037469 3.51591037-.00045712.0005056-1.63314326c0-.94329135.694853-1.73963642 1.626385-1.93594396l.1573683-.02708433.1531302-.01501323.126303-.00381522zm-.012095 1.34796361-3.52583.00029275c-.3181926 0-.5831509.20202891-.6569574.46626989l-.0173333.09019268-.0044146.07713781-.0009868 1.63314326h4.896l.0003224-1.63314326c0-.28906399-.2139426-.54112208-.4990748-.61244513l-.0974849-.0168833z" transform="matrix(-1 0 0 1 32.99995 0)"/></svg>