<svg height="32" viewBox="0 0 32 32" width="32" xmlns="http://www.w3.org/2000/svg"><path d="m10.8793634 3.14553945.1782908.01078429.1748528.02117987.1724139.03132833 7.1436085 1.51763051.0908771.02557013c.0668008.02277428.1291477.05656055.1861783.10158889l.081451.07600281.0598747.07765717 7.3352562 11.26645645c.0565969.08678.0905209.1811486.101283.2814258l.0030235.1021845-.0133033.1006896-1.9481956 9.1655399c-.3098403 1.457684-1.6603789 2.4378634-3.1225601 2.3065141l-.1759381-.0211379-.172427-.0313311-14.23332894-3.0253874c-1.45768398-.3098403-2.43786337-1.6603789-2.30651405-3.1225601l.02113783-.1759381.0313311-.172427 3.4473338-16.21843037c.2963133-1.39404447 1.54844563-2.35884847 2.94535456-2.31734038zm-1.55064485 2.17883183-.05946338.13086535-.04658907.1318454-.03662833.14192476-3.4473338 16.21843041c-.16758099.7884066.26040514 1.572228.98662903 1.866767l.13958936.0493739.14192477.0366283 14.23332897 3.0253875c.7884066.167581 1.572228-.2604052 1.866767-.986629l.0493739-.1395894.036624-.1419044 1.813059-8.5414711-6.4608829-1.3732144c-1.457684-.3098402-2.4378634-1.6603788-2.3065141-3.12256l.0211378-.1759382.0313225-.1723863 1.3649367-6.4279011-6.517193-1.38313636c-.7379263-.15685108-1.47756971.20827302-1.81008845.86350764zm-.11666126 14.61727992.12077719.0146816 6.95462482 1.4782511c.3780039.0803472.6193023.4519142.5389551.829918-.0644068.30301-.3181027.52217-.6221683.5505941l-.1030302.0022638-.1047196-.0139028-6.95462478-1.4782511c-.37800387-.0803472-.61930227-.4519142-.53895507-.8299181.05610018-.2639306.25679179-.4668649.51485755-.5325465l.09929372-.018048zm.73801434-3.4720845.12077717.0146816 9.7304217 2.0682649c.3780038.0803472.6193022.4519142.538955.8299181-.0644067.3030099-.3181026.5221699-.6221682.5505941l-.1030303.0022638-.1047195-.0139029-9.73042164-2.0682649c-.37800387-.0803472-.61930227-.4519142-.53895507-.8299181.05610019-.2639306.2567918-.4668649.51485755-.5325465l.09929373-.0180479zm8.76992837-9.4775667-1.1768991 5.5459875c-.167581.7884066.2604051 1.572228.986629 1.8667669l.1395894.049374.1419166.0366266 5.5697641 1.182245zm-6.054575 5.2314671c.9292614.1975206 1.6180422.9825499 1.6930281 1.9296075l.0216216.2730763c.0089293.1127756-.0931943.2023784-.2038508.1788576l-3.8596425-.8203923c-.1106565-.0235208-.1675063-.1469144-.113479-.2463082l.1308224-.2406733c.4537061-.8346807 1.4022388-1.2716882 2.3315002-1.0741676zm.5934643-2.93602984c.727508.15463659 1.191912.86975604 1.0372754 1.59726394-.1546366.727508-.869756 1.191912-1.597264 1.0372754-.7275079-.1546366-1.1919119-.869756-1.0372753-1.597264.1546366-.72750793.869756-1.19191193 1.5972639-1.03727534z"/></svg>