<svg height="32" viewBox="0 0 32 32" width="32" xmlns="http://www.w3.org/2000/svg"><path d="m25.0909015 12.3653357c1.0340107 0 1.9123535.7092163 2.1153973 1.6641348l.0263719.1527519.0142654.1489058.0030639.1222177v4.7490049l-.0089534-.0008937.0089534 4.9606541c0 1.0522201-.8183761 1.9320442-1.8843198 2.0696018l-.1539002.0145401-.1282492.0037469h-14.1664412c-1.08708733 0-2.00331371-.7841594-2.14721486-1.8150401l-.01523845-.148889-.00392267-.1239175-.00045307-.178655c-.00061644-.2445948.17512131-.4484692.40744186-.4912432l.09079759-.0082552c.27603218 0 .4999594.2234673.50052685.4994989l.00041271.2007562.01083253.1124548c.06938645.4970713.49911741.8929797 1.03210461.947002l.1247129.0062881 14.2006316.0006864.1199725-.0107493c.5410457-.0698208.9501482-.4790834 1.0058323-.9630855l.0064757-.1128991-.0090017-4.9279525-1.3169991-.0007181c-.2857388-.0001558-.5174482-.2315436-.5180009-.5172819-.0004897-.2531777.1815396-.464098.4220382-.5082305l.0939627-.0084891 1.3269991.0007196.0024937-3.7755072-.0042449-.074142-.0190831-.1149004c-.0974585-.458349-.5085289-.8135154-1.0101119-.8654443l-.1271523-.006549-.1809016-.0001214c-.2761966-.0001855-.4999999-.224139-.4999999-.5003357 0-.2452952.1767565-.4493066.4098491-.4916142l.0901508-.0080501zm-9.0562844-7.46540409c.9570752 0 1.7635845.67825914 1.8950019 1.58326636l.0150294.14241725.0032354.1111476-.0018372 1.62816879 3.1448549.00052551c1.0340107 0 1.9123535.70909485 2.1153973 1.66401338l.0263719.1527519.0142654.1489058.0030639.1222177v4.7490049l-.0089534-.0008937.0089534 4.9606541c0 1.0522201-.8183761 1.9320442-1.8843198 2.0696018l-.1539002.0145401-.1282492.0037469h-14.16644117c-1.08708736 0-2.00331374-.7841594-2.14721489-1.8150401l-.01523845-.148889-.00392267-.1239175-.01166698-5.9258332.011-.0008631.00066698-3.7821112c0-1.05223144.81830963-1.93204585 1.88423005-2.06960192l.15389715-.01453996.12824881-.0037469 3.66495697-.00052551.001459-1.63304607c0-.86016039.632682-1.60487941 1.5073161-1.78919651l.1518793-.026034.1423242-.01355558.1161959-.00316784zm-.7355705 10.33552549.0011974 1.2144958-.0076041.0975717c-.0413336.2534089-.241413.4534704-.4948239.4946427l-.0973231.0077856h-1.5112031c-.2981463-.0002241-.5455179-.2177132-.5922925-.5027072l-.0079564-.0972928-.0009943-1.2144958-6.8470466.0005429.00843956 4.9482551.01083253.1124548c.06938645.4970713.49911737.8929797 1.03210456.947002l.12471298.0062881 14.20063157.0006864.1199725-.0107493c.5410457-.0698208.9501482-.4790834 1.0058323-.9630855l.0064757-.1128991-.0090017-4.9279525zm-8.41614623-5.87068651-.11996893.01074914c-.54100743.06981652-.95006643.47905644-1.00574319.96455427l-.00647463.1132719-.00071362 3.7486541h16.499l.0024937-3.7755072-.0042449-.074142-.0190831-.1149004c-.0974585-.458349-.5085289-.81351543-1.0101119-.86544429l-.1271523-.00654899zm9.14687873-3.41663133-3.5330995.0001171c-.3773066 0-.707386.23927526-.8014151.57591715l-.0201675.10223636-.0068651.09687635-.0011853 1.64164539h5.195l.0012758-1.63307487c0-.35593464-.2585138-.66937167-.6126752-.7579617l-.1082872-.01916653z" transform="matrix(-1 0 0 1 31.989046 0)"/></svg>