<svg height="32" viewBox="0 0 32 32" width="32" xmlns="http://www.w3.org/2000/svg"><path d="m18.97 5c1.3056 0 2.371584 1.01376 2.4547738 2.2892544l.0052262.1607456v1.25h4.4c1.375 0 2.5096154 1.08173077 2.5860819 2.4362056l.0040446.1637944.0012786 4.0042966c0 .2916128-.2125887.5336011-.4913323.579158l-.1037476.0076489c-.3301502-.0047276-.595331-.273671-.595407-.603855l-.0009182-3.9872485c0-.7247059-.5580623-1.32539792-1.2656707-1.39355994l-.1343293-.00644006h-19.23c-.72470588 0-1.32539792.5580623-1.39355994 1.2656707l-.00644006.1343293v4.6l14.4611512-.0003576c.2984923-.0000073.5461252.2177648.5926729.5030981l.0078622.0974222c0 .2984077-.2177165.5459649-.50297.5924923l-.0975651.0078575-1.6611512-.0005125v2.3c0 .3313708-.2686292.6-.6.6h-1.8c-.3313708 0-.6-.2686292-.6-.6v-2.3h-9.8v6.53c0 .7247059.55806228 1.3253979 1.26567067 1.3935599l.13432933.0064401h10.805c.3286094 0 .595.2663906.595.595s-.2663906.595-.595.595h-10.805c-1.375 0-2.50961538-1.0817308-2.59485947-2.4362056l-.00514053-.1637944v-12.32c0-1.375 1.08173077-2.50961538 2.43620562-2.59485947l.16379438-.00514053h5.11v-1.25c0-1.296 1.022976-2.3616 2.2992077-2.4447744l.1607923-.0052256zm5.5126858 17.8721049c.447963 0 .8822545.0755256 1.2888119.2160807l.2404938.0920526.1457992.0648453c.9305667.4366329 1.6744964 1.229415 2.0364121 2.2325233l.071635.2181179.1555673.5242753h-7.8774386l.1555673-.5242753.071506-.2177602c.3096196-.8584193.8989864-1.5628397 1.6456771-2.0218886l.1898794-.1095975.1711876-.0872616c.5203181-.2494666 1.100152-.3871119 1.7049019-.3871119zm-.0561838-5.7809793c1.3642642 0 2.4702189 1.1059547 2.4702189 2.4702189 0 .70991-.2994657 1.3498761-.7787577 1.7992914l-.1350846.1177528-.0974974.0765656c-.4087973.2996562-.9131735.476609-1.4588792.476609-1.3642641 0-2.4702188-1.1059547-2.4702188-2.4702188 0-1.3642642 1.1059547-2.4702189 2.4702188-2.4702189zm-5.456502-10.8911256h-4.8c-.65625 0-1.1894531.4921875-1.25354 1.12225342l-.00646.12774658v1.25h7.32v-1.25c0-.646875-.5009766-1.17949219-1.1321411-1.24354248z"/></svg>