<svg height="32" viewBox="0 0 32 32" width="32" xmlns="http://www.w3.org/2000/svg"><path d="m24.1769126 13.0029608c3.0386032.1024834 5.2605986 2.9511667 4.7498464 5.9491064-.2367269 1.39082-.9733937 2.5784653-1.847771 3.77024l-.4469876.5971912-.6915055.9096739c-.6174994.8208041-1.229124 1.6818331-1.7275467 2.6445105-.0872597.168621-.3314677.168621-.4187274-.0011917-.4017917-.7795994-.8770993-1.5038239-1.3697401-2.1967554l-.425198-.5868392-.8444158-1.141177c-1.1683313-1.59552-2.1548669-3.128217-2.1548669-4.9430286 0-2.8221687 2.3336759-5.0982553 5.1769126-5.0017301zm-19.42695477 2.6784718 7.83848157.0162595.0006015 1.4499529c.0003863.3312736.2689752.599751.6002489.6h1.5112031c.2982337.000224.5456467-.2173432.592147-.5024283l.0076041-.0975717-.0006016-1.4499529 2.9455054-.0067311c-.2870597.7144477-.4451478 1.4951695-.4451478 2.3137299 0 1.4525815.4714446 2.7484978 1.4159804 4.2451574l-12.29889077.0001517c-1.08708736 0-2.00331374-.7841594-2.14721489-1.8150401l-.01523845-.148889-.00392267-.1239175zm19.25362667-.0365133c-1.3026414 0-2.3589603 1.0569503-2.3589603 2.3597716 0 1.3028212 1.0563189 2.3597715 2.3589603 2.3597715 1.3023734 0 2.3589603-1.0569503 2.3589603-2.3597715 0-1.3028213-1.0565869-2.3597716-2.3589603-2.3597716zm-7.9689674-10.8949193c1.0346798 0 1.9017403.73579128 2.043445 1.71164233l.0157459.14811614.0039956.12209827-.0008036 1.63314326 2.9939015.00045712c1.0340107 0 1.9123535.70909485 2.1153973 1.66401338l.0263719.1527519.0142654.1489058.0030639.1222177.0006576 1.3917513c-1.7389106.2102785-3.259303 1.1411776-4.2493232 2.4881364l-14.25138355-.0000574.00076277-3.8798303c0-1.05223144.81830963-1.93204585 1.88423005-2.06960192l.15389715-.01453996.12824881-.0037469 3.51591037-.00045712.0005056-1.63314326c0-.94329135.694853-1.73963642 1.626385-1.93594396l.1573683-.02708433.1531302-.01501323.126303-.00381522zm-.012095 1.34796361-3.52583.00029275c-.3181926 0-.5831509.20202891-.6569574.46626989l-.0173333.09019268-.0044146.07713781-.0009868 1.63314326h4.896l.0003224-1.63314326c0-.28906399-.2139426-.54112208-.4990748-.61244513l-.0974849-.0168833z"/></svg>