<svg height="32" viewBox="0 0 32 32" width="32" xmlns="http://www.w3.org/2000/svg"><path d="m18.97 5c1.3056 0 2.371584 1.01376 2.4547738 2.2892544l.0052262.1607456v1.25h4.4c1.375 0 2.5096154 1.08173077 2.5860819 2.4362056l.0040446.1637944v12.32c0 1.375-1.0818477 2.5096154-2.4363316 2.5948595l-.1637949.0051405h-19.22c-1.375 0-2.50961538-1.0817308-2.59485947-2.4362056l-.00514053-.1637944v-12.32c0-1.375 1.08173077-2.50961538 2.43620562-2.59485947l.16379438-.00514053h5.11v-1.25c0-1.296 1.022976-2.3616 2.2992077-2.4447744l.1607923-.0052256zm8.26 12.1h-9.23v2.3c0 .3313708-.2686292.6-.6.6h-1.8c-.3313708 0-.6-.2686292-.6-.6v-2.3h-9.8v6.53c0 .7247059.55806228 1.3253979 1.26567067 1.3935599l.13432933.0064401h19.23c.7247059 0 1.3253979-.5580623 1.3935599-1.2656707l.0064401-.1343293zm-1.4-7.2h-19.23c-.72470588 0-1.32539792.5580623-1.39355994 1.2656707l-.00644006.1343293v4.6h22.03v-4.6c0-.7247059-.5580623-1.32539792-1.2656707-1.39355994zm-6.86-3.7h-4.8c-.65625 0-1.1894531.4921875-1.25354 1.12225342l-.00646.12774658v1.25h7.32v-1.25c0-.646875-.5009766-1.17949219-1.1321411-1.24354248z"/></svg>