<svg height="32" viewBox="0 0 32 32" width="32" xmlns="http://www.w3.org/2000/svg"><g fill="none" fill-rule="evenodd"><path d="m13.3659226 16.4893428c1.1304062 0 2.2196756.2272537 3.2173524.6441025l-.0013535 7.1992055h-10.89409732c-.44026424 0-.75651476-.4237198-.63127325-.8457946l.30326121-1.0220168c1.05174237-3.5444636 4.30889742-5.9754966 8.00611046-5.9754966zm-.116515-11.65669195c2.8945052 0 5.2409652 2.34646004 5.2409652 5.24096515 0 2.8945052-2.34646 5.2409652-5.2409652 5.2409652-2.8945051 0-5.24096517-2.34646-5.24096517-5.2409652 0-2.89450511 2.34646007-5.24096515 5.24096517-5.24096515z" fill="#007880" fill-rule="nonzero"/><path d="m17.722287 18.221381h9.06632v7.215018h-9.06632z" fill="#d0e7ef"/><path d="m25.1569316 16.7933072c.1807654 0 .3273047.1465393.3273047.3273047v1.1007693h-.6546094v-1.1007693c0-.1807654.1465393-.3273047.3273047-.3273047zm-5.8030588 0c.1807654 0 .3273047.1465393.3273047.3273047v1.1007693h-.6546094v-1.1007693c0-.1807654.1465393-.3273047.3273047-.3273047z" fill="#7c969d" fill-rule="nonzero" stroke="#7c969d" stroke-width=".5"/><path d="m17.7222865 19.4047341h9.0663196v-1.1833529h-9.0663196z" fill="#d9541a"/><path d="m23.5484513 23.4300783c.1770839-.0731614.3808076-.032349.5160441.1033801.1352364.1357291.1753077.3395997.1015029.5164164-.0738048.1768166-.2469263.2916988-.438527.2910033-.2607441-.0009464-.4716179-.2125884-.4716162-.4733341.0000012-.1916019.1155122-.3643044.2925962-.4374657zm-1.4670954 0c.177084-.0731614.3808076-.032349.5160441.1033801s.1753078.3395997.101503.5164164c-.0738048.1768166-.2469263.2916988-.438527.2910033-.2607442-.0009464-.471618-.2125884-.4716163-.4733341.0000013-.1916019.1155123-.3643044.2925962-.4374657zm-1.467443 0c.1770839-.0731614.3808076-.032349.516044.1033801.1352365.1357291.1753078.3395997.101503.5164164-.0738048.1768166-.2469263.2916988-.438527.2910033-.2607441-.0009464-.471618-.2125884-.4716162-.4733341.0000012-.1916019.1155122-.3643044.2925962-.4374657zm-1.4664802 0c.1770839-.0731614.3808075-.032349.516044.1033801s.1753078.3395997.101503.5164164c-.0738048.1768166-.2469263.2916988-.438527.2910033-.2607441-.0009464-.471618-.2125884-.4716162-.4733341.0000012-.1916019.1155122-.3643044.2925962-.4374657zm0-1.4470172c.1770839-.0731613.3808075-.032349.516044.1033801s.1753078.3395997.101503.5164164c-.0738048.1768166-.2469263.2916988-.438527.2910034-.2607441-.0009465-.471618-.2125885-.4716162-.4733342.0000012-.1916019.1155122-.3643044.2925962-.4374657zm5.8668836 0c.177084-.0731613.3808076-.032349.5160441.1033801s.1753078.3395997.101503.5164164c-.0738048.1768166-.2469263.2916988-.438527.2910034-.2607441-.0009465-.471618-.2125885-.4716163-.4733342.0000013-.1916019.1155123-.3643044.2925962-.4374657zm-2.9329604 0c.177084-.0731613.3808076-.032349.5160441.1033801s.1753078.3395997.101503.5164164c-.0738048.1768166-.2469263.2916988-.438527.2910034-.2607442-.0009465-.471618-.2125885-.4716163-.4733342.0000013-.1916019.1155123-.3643044.2925962-.4374657zm-1.467443 0c.1770839-.0731613.3808076-.032349.516044.1033801.1352365.1357291.1753078.3395997.101503.5164164-.0738048.1768166-.2469263.2916988-.438527.2910034-.2607441-.0009465-.471618-.2125885-.4716162-.4733342.0000012-.1916019.1155122-.3643044.2925962-.4374657zm0-1.4469293c.1770839-.0731613.3808076-.0323489.516044.1033802.1352365.1357291.1753078.3395997.101503.5164163-.0738048.1768167-.2469263.2916989-.438527.2910034-.2607441-.0009464-.471618-.2125884-.4716162-.4733341.0000012-.1916019.1155122-.3643044.2925962-.4374658zm1.467443 0c.177084-.0731613.3808076-.0323489.5160441.1033802s.1753078.3395997.101503.5164163c-.0738048.1768167-.2469263.2916989-.438527.2910034-.2607442-.0009464-.471618-.2125884-.4716163-.4733341.0000013-.1916019.1155123-.3643044.2925962-.4374658zm1.4670954 0c.1770839-.0731613.3808076-.0323489.5160441.1033802.1352364.1357291.1753077.3395997.1015029.5164163-.0738048.1768167-.2469263.2916989-.438527.2910034-.2607441-.0009464-.4716179-.2125884-.4716162-.4733341.0000012-.1916019.1155122-.3643044.2925962-.4374658zm1.465865 0c.177084-.0731613.3808076-.0323489.5160441.1033802s.1753078.3395997.101503.5164163c-.0738048.1768167-.2469263.2916989-.438527.2910034-.2607441-.0009464-.471618-.2125884-.4716163-.4733341.0000013-.1916019.1155123-.3643044.2925962-.4374658z" fill="#7c969d"/><path d="m23.7284253 22.893861c.1916007.0006954.3647221-.1141868.438527-.2910034.0738048-.1768167.0337335-.3806873-.101503-.5164164s-.3389601-.1765414-.5160441-.1033801c-.1770839.0731613-.2925949.2458638-.2925962.4374657-.0000017.2607457.2108721.4723877.4716163.4733342z" fill="#fe5e00"/></g></svg>