<svg height="32" viewBox="0 0 32 32" width="32" xmlns="http://www.w3.org/2000/svg"><path d="m25.1569316 16.5433072c.2869529 0 .5250074.2093591.5697487.4836628l.007556.0936419-.0009498 1.1006953 1.0553196.000074v7.2150184h-9.0663196v-7.2150184l1.054-.000074.0002816-1.1006953c0-.3188366.2584682-.5773047.5773047-.5773047.286953 0 .5250074.2093591.5697488.4836628l.0075559.0936419-.000891 1.1006953h4.649l.0003404-1.1006953c0-.3188366.2584681-.5773047.5773047-.5773047zm-1.6084803 6.8867711c-.177084.0731613-.292595.2458638-.2925962.4374618-.0000017.2607496.2108721.4723916.4716162.473338.1916007.0006955.3647222-.1141867.438527-.2910033.0738048-.1768167.0337335-.3806873-.1015029-.5164164-.1352365-.1357291-.3389602-.1765415-.5160441-.1033801zm-1.4670954 0c-.1770839.0731613-.2925949.2458638-.2925962.4374618-.0000017.2607496.2108721.4723916.4716163.473338.1916007.0006955.3647222-.1141867.438527-.2910033.0738048-.1768167.0337335-.3806873-.101503-.5164164s-.3389601-.1765415-.5160441-.1033801zm-1.467443 0c-.177084.0731613-.292595.2458638-.2925962.4374618-.0000018.2607496.2108721.4723916.4716162.473338.1916007.0006955.3647222-.1141867.438527-.2910033.0738048-.1768167.0337335-.3806873-.101503-.5164164-.1352364-.1357291-.3389601-.1765415-.516044-.1033801zm-1.4664802 0c-.177084.0731613-.292595.2458638-.2925962.4374618-.0000018.2607496.2108721.4723916.4716162.473338.1916007.0006955.3647222-.1141867.438527-.2910033.0738048-.1768167.0337335-.3806873-.101503-.5164164s-.3389601-.1765415-.516044-.1033801zm0-1.4470172c-.177084.0731613-.292595.2458638-.2925962.4374618-.0000018.2607496.2108721.4723916.4716162.4733381.1916007.0006954.3647222-.1141868.438527-.2910034.0738048-.1768167.0337335-.3806873-.101503-.5164164s-.3389601-.1765414-.516044-.1033801zm5.8668836 0c-.1770839.0731613-.2925949.2458638-.2925962.4374618-.0000017.2607496.2108722.4723916.4716163.4733381.1916007.0006954.3647222-.1141868.438527-.2910034.0738048-.1768167.0337335-.3806873-.101503-.5164164s-.3389601-.1765414-.5160441-.1033801zm-2.9329604 0c-.1770839.0731613-.2925949.2458638-.2925962.4374618-.0000017.2607496.2108721.4723916.4716163.4733381.1916007.0006954.3647222-.1141868.438527-.2910034.0738048-.1768167.0337335-.3806873-.101503-.5164164s-.3389601-.1765414-.5160441-.1033801zm-1.467443 0c-.177084.0731613-.292595.2458638-.2925962.4374618-.0000018.2607496.2108721.4723916.4716162.4733381.1916007.0006954.3647222-.1141868.438527-.2910034.0738048-.1768167.0337335-.3806873-.101503-.5164164-.1352364-.1357291-.3389601-.1765414-.516044-.1033801zm2.9354923 0c-.1770839.0731613-.2925949.2458638-.2925962.4374618-.0000017.2607496.2108721.4723916.4716163.4733381.1916007.0006954.3647221-.1141868.438527-.2910034.0738048-.1768167.0337335-.3806873-.101503-.5164164s-.3389601-.1765414-.5160441-.1033801zm-2.9354923-1.4469293c-.177084.0731614-.292595.2458639-.2925962.4374619-.0000018.2607496.2108721.4723916.4716162.473338.1916007.0006955.3647222-.1141867.438527-.2910034.0738048-.1768166.0337335-.3806872-.101503-.5164163-.1352364-.1357291-.3389601-.1765415-.516044-.1033802zm1.467443 0c-.1770839.0731614-.2925949.2458639-.2925962.4374619-.0000017.2607496.2108721.4723916.4716163.473338.1916007.0006955.3647222-.1141867.438527-.2910034.0738048-.1768166.0337335-.3806872-.101503-.5164163s-.3389601-.1765415-.5160441-.1033802zm1.4670954 0c-.177084.0731614-.292595.2458639-.2925962.4374619-.0000017.2607496.2108721.4723916.4716162.473338.1916007.0006955.3647222-.1141867.438527-.2910034.0738048-.1768166.0337335-.3806872-.1015029-.5164163-.1352365-.1357291-.3389602-.1765415-.5160441-.1033802zm1.465865 0c-.1770839.0731614-.2925949.2458639-.2925962.4374619-.0000017.2607496.2108722.4723916.4716163.473338.1916007.0006955.3647222-.1141867.438527-.2910034.0738048-.1768166.0337335-.3806872-.101503-.5164163s-.3389601-.1765415-.5160441-.1033802zm-11.6483937-4.046789c1.1304062 0 2.2196756.2272537 3.2173524.6441025l-.0013535 7.1992055h-10.89409732c-.44026424 0-.75651476-.4237198-.63127325-.8457946l.30326121-1.0220168c1.05174237-3.5444636 4.30889742-5.9754966 8.00611046-5.9754966zm-.116515-11.65669195c2.8945052 0 5.2409652 2.34646004 5.2409652 5.24096515 0 2.8945052-2.34646 5.2409652-5.2409652 5.2409652-2.8945051 0-5.24096517-2.34646-5.24096517-5.2409652 0-2.89450511 2.34646007-5.24096515 5.24096517-5.24096515z"/></svg>