<svg height="32" viewBox="0 0 32 32" width="32" xmlns="http://www.w3.org/2000/svg"><path d="m26.0380335 19.9625695c.6855622 0 1.2494329.521023 1.3172387 1.1886958l.0068361.1353789v4.7288385h-2.6481495l.0006107-3.0546172c-.6922617.4324407-1.5045947.6752898-2.3591187.6752898-.759241 0-1.4851755-.1917111-2.1231781-.5377786l-.2350224-.1369377-.0003075 3.0540437h-2.6481495v-4.7288385c0-.7312663.5928085-1.3240747 1.3240748-1.3240747.3883358 0 .7376253.1671776.9798247.4334894l.1318197.1628082.0408392.0640091c.4829562.8457267 1.3546745 1.3977973 2.3330792 1.4635025l.1970199.0065991c.9913759 0 1.8948705-.4992127 2.428408-1.3049288l.1440751-.2314289.0479021-.0605051c.24104-.3236938.627112-.5335455 1.0621975-.5335455zm-12.6721109-3.4732267c1.0217454 0 2.0098826.1856638 2.9271519.5291823-.0939308.2626465-.1442812.5451353-.1442812.839384 0 .6619134.2547863 1.2643184.6716355 1.7142436-.3751643.4051558-.6190576.9336194-.6640846 1.5177955l-.0075509.196696-.0008718 3.0460066h-10.46009732c-.44026424 0-.75651476-.4237198-.63127325-.8457946l.30326121-1.0220168c1.05174237-3.5444636 4.30889742-5.9754966 8.00611046-5.9754966zm12.6721109.0444915c.7312663 0 1.3240748.5928085 1.3240748 1.3240748s-.5928085 1.3240748-1.3240748 1.3240748-1.3240747-.5928085-1.3240747-1.3240748.5928084-1.3240748 1.3240747-1.3240748zm-7.3651654 0c.7312663 0 1.3240747.5928085 1.3240747 1.3240748 0 .6855621-.521023 1.2494328-1.1886958 1.3172387l-.1353789.0068361c-.7312663 0-1.3240748-.5928085-1.3240748-1.3240748s.5928085-1.3240748 1.3240748-1.3240748zm-5.4234605-11.70118345c2.8945052 0 5.2409652 2.34646004 5.2409652 5.24096515 0 2.8945052-2.34646 5.2409652-5.2409652 5.2409652-2.8945051 0-5.24096517-2.34646-5.24096517-5.2409652 0-2.89450511 2.34646007-5.24096515 5.24096517-5.24096515z"/></svg>