<svg height="32" viewBox="0 0 32 32" width="32" xmlns="http://www.w3.org/2000/svg"><path d="m13.3731464 10.5022372 4.1048112.0489826c.4141945.0039744.7467437.3429672.7427693.7571617-.0036431.3796783-.2887949.6907518-.6553301.7368995l-.1018316.0058698-4.1048112-.0489827c-1.3132502-.0126011-2.3976025.9991039-2.4938627 2.2903518l-.0069453.1865751c0 1.3298067 1.0349004 2.4178995 2.3432423 2.5028192l.1649119.005335h9.7197026c2.2588285 0 4.0899708 1.8311423 4.0899708 4.0899708 0 2.1913809-1.7179091 3.9829113-3.8825889 4.0981135l-.2042089.0058502-14.1179758.0591903-.06020549.1606269c-.37479841.8979171-1.22428267 1.4998172-2.18481595 1.5643935l-.18131257.0057524c-1.40687842-.0051066-2.54466599-1.147048-2.54466599-2.5539351 0-1.0338124.62326119-1.9656509 1.57874032-2.3604022s2.05469614-.174543 2.78438192.5578007c.31846456.3196246.53912197.7092824.65357933 1.1262729l14.06598703-.0596863c1.4338761-.0060101 2.593085-1.1700881 2.593085-2.6039768 0-1.3753859-1.0720871-2.5003725-2.4261769-2.5848753l-.1637939-.0050955h-9.7197026c-2.1465624 0-3.89901105-1.6874013-4.00324893-3.8081068l-.00472221-.2382068c.02043626-2.1298017 1.71134624-3.8525021 3.81648534-3.935736zm7.5792555-6.50186321 5.7661732.02715695c.2511434.00110629.4538385.20559503.452763.45673839-.000502.10698302-.0386777.21037458-.1078445.29199286l-2.1558495 2.54394852 2.147785 2.53205701c.1624581.19152438.1388952.47848388-.0526291.64094188-.082692.0701424-.1877267.1084274-.2961595.1079542l-5.3685923-.0252538.0006357 2.6146488c.0001076.4426038-.3310048.8079318-.7590756.8616089l-.1091131.0067909c-.479604 0-.8683999-.3887958-.8683999-.8683998v-8.59018481c0-.33137085.2686292-.6.6-.6z"/></svg>