<svg height="32" viewBox="0 0 32 32" width="32" xmlns="http://www.w3.org/2000/svg"><path d="m22.4524019 16.2740662 5.7661732.027157c.2511434.0011063.4538385.205595.452763.4567384-.000502.106983-.0386777.2103746-.1078445.2919928l-2.1558495 2.5439486 2.147785 2.532057c.1624581.1915243.1388952.4784838-.0526291.6409419-.082692.0701424-.1877267.1084274-.2961595.1079542l-5.7550854-.0252539.0008468 3.4830486h-1.6633751v-10.0585846zm-9.0864793.2152766c2.4328516 0 4.6751605 1.0526237 6.2239414 2.7824594l-.0009425 5.0608486h-13.90109732c-.44026424 0-.75651476-.4237198-.63127325-.8457946l.30326121-1.0220168c1.05174237-3.5444636 4.30889742-5.9754966 8.00611046-5.9754966zm-.116515-11.65669195c2.8945052 0 5.2409652 2.34646004 5.2409652 5.24096515 0 2.8945052-2.34646 5.2409652-5.2409652 5.2409652-2.8945051 0-5.24096517-2.34646-5.24096517-5.2409652 0-2.89450511 2.34646007-5.24096515 5.24096517-5.24096515z"/></svg>