<svg height="32" viewBox="0 0 32 32" width="32" xmlns="http://www.w3.org/2000/svg"><path d="m22.4524019 16.2740662 5.7661732.027157c.2511434.0011063.4538385.205595.452763.4567384-.000502.106983-.0386777.2103746-.1078445.2919928l-2.1558495 2.5439486 2.147785 2.532057c.1624581.1915243.1388952.4784838-.0526291.6409419-.082692.0701424-.1877267.1084274-.2961595.1079542l-5.7550854-.0252539.0008468 3.4830486h-1.6633751v-10.0585846zm-9.0864793.2152766c2.0149782 0 3.8992485.7220755 5.3670391 1.9529358l.0391032.045418c.2090053.2427576.1906537.6068337-.041703.827344-.2331364.2212503-.5982201.222771-.8331916.0034704l-.0826424-.0771307c-1.1760458-.9345779-2.6218015-1.4809177-4.1433438-1.5455595l-.3052615-.006478c-3.0780062 0-5.79983172 1.9676662-6.77629782 4.8661615l-.07939034.2506979-.09723444.3257978 12.0073446-.0003325c.2937752-.0000082.5374952.2143217.5833081.4951456l.0076626.1053377c-.00533.3331895-.2769509.6005-.610183.6005h-12.71330812c-.44026424 0-.75651476-.4237198-.63127325-.8457946l.30326121-1.0220168c1.02609011-3.4580132 4.15132378-5.8562473 7.73639366-5.9711772zm-.116515-11.65669195c2.8945052 0 5.2409652 2.34646004 5.2409652 5.24096515 0 2.8221426-2.2306036 5.1232997-5.024933 5.2365937l-.2160322.0043715c-2.8945051 0-5.24096517-2.34646-5.24096517-5.2409652 0-2.82214248 2.23060357-5.12329962 5.02493297-5.23659364zm0 1.2c-2.2317634 0-4.04096517 1.80920174-4.04096517 4.04096515 0 2.2317635 1.80920177 4.0409652 4.04096517 4.0409652 2.2317635 0 4.0409652-1.8092017 4.0409652-4.0409652 0-2.23176341-1.8092017-4.04096515-4.0409652-4.04096515z"/></svg>