<svg height="32" viewBox="0 0 32 32" width="32" xmlns="http://www.w3.org/2000/svg"><path d="m27.6087877 21.4995367.0010139 2.9508314c0 .4536479-.1849434.8664392-.4840799 1.1655683-.2991345.2991272-.7119321.4840636-1.1655777.4840636h-7.2283007c-.4536488 0-.8664389-.1849376-1.1655666-.4840653-.2991278-.2991277-.4840653-.7119178-.4840653-1.1655176l-.0002331-2.8534006 5.2575486.0006941.0005002.5994202zm-14.5318068-5.6055664c1.4540523-.004914 2.5622757.2184464 3.584675.6236103.3034001.1202336.6013394.2573083.8973611.4166017-.2068447.210018-.4623032.4228219-.7833675.6389376-1.2132425.8166613-2.0300809.7831941-2.8218864.7383673l-.2964789-.0157043c-1.6896595-.003865-3.0218794.4401961-4.11232292 1.22326-.88216296.6334945-1.60641148 1.4851486-2.08796922 2.4917774l14.35541684.9366237-16.08216588 1.9845233c-.43879835.0141161-.81702229-.1916231-1.05095732-.5050547-.22636249-.3032858-.31762621-.7074048-.19794592-1.1107378l.30326121-1.0220167c.54918899-1.8508149 1.65940688-3.4183848 3.11186265-4.5394331 1.4562914-1.1240087 3.25664626-1.7990794 5.18051726-1.8607547zm10.2379166.2560297c.4744238 0 .9070198.1791157 1.2336594.4729439.2379809.2140754.419517.48909.5203177.8001307l1.0230904.4089422c.4037745.0312084.7681741.2090028 1.0385368.4804028.2988532.2999997.4824447.7137896.4792997 1.1645276l-.0009938 2.7151485h-10.5268326l.0002363-2.7153681c0-.4536488.1849375-.8664389.4840653-1.1655666.2991277-.2991277.7119178-.4840653 1.1655256-.4840653l.8507048-.0000581c.0646253-.3705647.1882999-.6697183.3456161-.904898.3174524-.4745751.7778434-.7218062 1.2937388-.7656376zm-10.3058287-11.9124851c1.733458-.00289515 3.2325671.64005852 4.31105 1.67498238 1.1044955 1.05988585 1.770254 2.53268129 1.770254 4.16111872 0 1.5693707-.6189477 2.9941687-1.62601 4.0436505-1.0113426 1.0539425-2.4141728 1.7291836-3.9746164 1.7924507-1.8695206.0053443-3.3191236-.6545138-4.37052488-1.7059151-1.05700679-1.0570068-1.71077909-2.5172481-1.71077909-4.1301861 0-1.56937062.6189477-2.99416858 1.62601-4.04365044 1.01134257-1.05394245 2.41417287-1.72918363 3.97461637-1.79245066zm.2403388 2.39513595c-.9501963 0-1.8104376.38514315-2.4331298 1.00783537s-1.00783537 1.48293352-1.00783537 2.43312978c0 .9501963.38514317 1.8104376 1.00783537 2.4331299.6226922.6226922 1.4829335 1.0078353 2.4331298 1.0078353s1.8104376-.3851431 2.4331298-1.0078353c.6226923-.6226923 1.0078354-1.4829336 1.0078354-2.4331299 0-.95019626-.3851431-1.81043756-1.0078354-2.43312978-.6226922-.62269222-1.4829335-1.00783537-2.4331298-1.00783537z" stroke="#fff" stroke-width="1.2"/></svg>