<svg height="32" viewBox="0 0 32 32" width="32" xmlns="http://www.w3.org/2000/svg"><g fill="none" fill-rule="evenodd"><path d="m13.3659226 16.4893428c1.4915259 0 2.9114338.395643 4.1438189 1.1004217-.6183676.4015095-1.0275301 1.0975392-1.0275301 1.8869631l-.0002899 4.8559232h-10.79409732c-.44026424 0-.75651476-.4237198-.63127325-.8457946l.30326121-1.0220168c1.05174237-3.5444636 4.30889742-5.9754966 8.00611046-5.9754966zm-.116515-11.65669195c2.8945052 0 5.2409652 2.34646004 5.2409652 5.24096515 0 2.8945052-2.34646 5.2409652-5.2409652 5.2409652-2.8945051 0-5.24096517-2.34646-5.24096517-5.2409652 0-2.89450511 2.34646007-5.24096515 5.24096517-5.24096515z" fill="#007880" fill-rule="nonzero"/><g transform="translate(17.682211 17)"><g fill-rule="nonzero"><path d="m8.28196967.8270957c.45438831 0 .86771101.18556856 1.16632081.48532392.29885315.29999966.48244466.71378959.47929974 1.164308v4.97364046c0 .45364794-.18494341.8664392-.48407985 1.16556831-.29913452.2991272-.71193217.48406361-1.16557775.48406361h-7.2283007c-.45364878 0-.8664389-.18493759-1.16556661-.48406531-.29912772-.29912771-.48406531-.71191783-.48406531-1.16556661v-4.97364046c0-.45364878.18493759-.8664389.48406531-1.16556661.29912771-.29912772.71191783-.48406531 1.16556661-.48406531z" fill="#594402" stroke="#fff" stroke-width="1.2"/><path d="m5.99868392-.25h-1.937782c-.68352655 0-1.24311327.55645178-1.24311327 1.23907623v.75463073h.9844455v-.75463073c0-.14079678.11446286-.25463073.25866777-.25463073h1.937782c.1418657 0 .25866778.11552555.25866778.25463073v.75463073h.9844455v-.75463073c0-.68385375-.5567865-1.23907623-1.24311328-1.23907623z" fill="#252d4f"/><path d="m8.4434515 1.4270957h-6.18270583c-.57729756 0-1.04963192.47233436-1.04963192 1.04963192v4.97364046c0 .57729756.47233436 1.04963192 1.04963192 1.04963192h5.39165547.29185467.49515864c.57729756 0 1.04965761-.47233436 1.04965761-1.04963192v-4.97364046c.00401136-.57729756-.46832301-1.04963192-1.04562056-1.04963192z" fill="#9c7c14"/><path d="m8.4434515 1.4270957h-6.18270583c-.57729756 0-1.04963192.47233436-1.04963192 1.04963192v4.97364046c0 .57729756.47233436 1.04963192 1.04963192 1.04963192h5.39165547.29185467.49515864c.57729756 0 1.04965761-.47233436 1.04965761-1.04963192v-4.97364046c.00401136-.57729756-.46832301-1.04963192-1.04562056-1.04963192z" fill="#7e630b"/><path d="m1.21111375 4.65673237h8.27793262v1.00926146h-8.27793262z" fill="#654e06"/></g><rect fill="#654e06" height="1.614818" rx=".6" width="1.211114" x="4.744536" y="4.858585"/><path d="m8.4434515 1.4270957h-6.18270583c-.57729756 0-1.04963192.47614351-1.04963192 1.05809669v2.57524456h4.60363864 3.67431967v-2.57524456c.00401136-.58195318-.46832301-1.05809669-1.04562056-1.05809669z" fill="#9c7c14" fill-rule="nonzero"/><rect fill="#f7d776" height="1.614818" rx=".6" width="1.211114" x="4.744536" y="4.051175"/></g></g></svg>