<svg height="32" viewBox="0 0 32 32" width="32" xmlns="http://www.w3.org/2000/svg"><g fill="none" fill-rule="evenodd"><path d="m13.3713696 10.494212 6.9857486.0569924-.0107048 1.4999618-6.9857486-.0569924c-1.3174888-.0094026-2.4028199 1.0082181-2.4962039 2.3038404l-.0065149.1810808c0 1.3298067 1.0349004 2.4178995 2.3432423 2.5028192l.1649119.005335h9.7197026c2.2588285 0 4.0899708 1.8311423 4.0899708 4.0899708 0 2.1913809-1.7179091 3.9829113-3.8825889 4.0981135l-.2042089.0058502-15.80447399.0662449-.00628725-1.4999868 15.80447404-.066245c1.4338761-.0060101 2.593085-1.1700881 2.593085-2.6039768 0-1.3753859-1.0720871-2.5003725-2.4261769-2.5848753l-.1637939-.0050955h-9.7197026c-2.1465624 0-3.89901105-1.6874013-4.00324893-3.8081068l-.00480381-.2284865c.01523056-2.1340995 1.70526904-3.8644009 3.81440154-3.9529865z" fill="#17bfa8" fill-rule="nonzero"/><path d="m20.9524019 4.00037399 5.7661732.02715695c.2511434.00110629.4538385.20559503.4527587.45673839-.0004977.10698302-.0386734.21037458-.1078402.29199286l-2.1558495 2.54394852 2.147785 2.53205701c.1624581.19152438.1388952.47848388-.0526291.64094188-.082692.0701424-.1877267.1084274-.2961595.1079542l-5.7550854-.0252538.0008468 3.4830486h-1.6633751v-10.05858461z" fill="#d9541a" fill-rule="nonzero"/><path d="m6.54466599 26.9711468c1.03380608.0037525 1.96790521-.616109 2.36612852-1.5701459.39822332-.954037.18201351-2.054047-.54767227-2.7863907s-1.82890279-.952552-2.78438192-.5578007-1.57873351 1.3265898-1.57874032 2.3604022c-.00000927 1.4068871 1.13778757 2.5488285 2.54466599 2.5539351z" fill="#31afd8"/></g></svg>