<svg height="32" viewBox="0 0 32 32" width="32" xmlns="http://www.w3.org/2000/svg"><g fill="none" fill-rule="evenodd"><path d="m13.3659226 16.4893428c1.6550428 0 3.2219038.4871474 4.5422262 1.34325-.0458011.2923093-.0646749.6383607-.0646749 1.0809131l.0006526 4.3072862c.0046267.4639904.0321422.8164695.0914003 1.1139594l-12.24770262-.0021007c-.44026424 0-.75651476-.4237198-.63127325-.8457946l.30326121-1.0220168c1.05174237-3.5444636 4.30889742-5.9754966 8.00611046-5.9754966zm-.116515-11.65669195c2.8945052 0 5.2409652 2.34646004 5.2409652 5.24096515 0 2.8945052-2.34646 5.2409652-5.2409652 5.2409652-2.8945051 0-5.24096517-2.34646-5.24096517-5.2409652 0-2.89450511 2.34646007-5.24096515 5.24096517-5.24096515z" fill="#007880" fill-rule="nonzero"/><path d="m21.2287759 16.6006226 4.3011921-.0006226c.1342252 0 .2554045.0017479.3654601.0053387l.2987177.0163957c.3140559.0257999.5153923.0753379.6864205.1526847l.1221743.0608209c.260908.1395642.4659292.3445854.6080855.6103947l.04628.091016c.1160922.2407896.1711339.5258189.1838966 1.1287775l.0025012.2540725v4.1669934l-.0026056.2547802c-.0120624.5681011-.0639871.8573275-.1718435 1.0958181l-.0582287.1172729c-.1421563.2658093-.3471775.4708305-.6129868.6129869l-.0910161.0462799c-.2407895.1160922-.5258189.1711339-1.1287775.1838967l-.2540725.0025011h-4.1669934l-.2547802-.0026056-.3399228-.0141234c-.3542179-.0237786-.5704026-.0738317-.7558952-.15772l-.1221743-.0608209c-.260908-.1395642-.4659292-.3445854-.6080856-.6103947l-.0462799-.091016c-.1232777-.255673-.1789104-.5655533-.1857453-1.2486513l-.0006226-4.301283c0-.7381475.0528741-1.0817488.1744191-1.3505074l.0582287-.1172729c.1421564-.2658093.3471776-.4708305.6129869-.6129869l.0910161-.0462799c.2045383-.0986222.4437694-.1539515.8810264-.1756379z" fill="#4588a0" fill-rule="nonzero"/><path d="m24.3525648 23.7272727h-1.8181818v-1.8181818h-1.8181818v-1.8181818h1.8181818v-1.8181818h1.8181818v1.8181818h1.8181819v1.8181818h-1.8181819z" fill="#fff"/></g></svg>