<svg height="32" viewBox="0 0 32 32" width="32" xmlns="http://www.w3.org/2000/svg"><path d="m19.3538728 15.9433072c.2904883 0 .556357.1052756.7617018.2795939.2219205.1883896.3726542.4577351.4078219.762067l.0035511.6363391h3.4525244l.0001549-.5006953c0-.3251037.1317743-.6194299.3448246-.8324802 1.2826672-.4670029 1.4262651-.207776 1.5941818-.0652306.2219248.1883932.37266.4577453.407824.7620843l.0035199.6363636 1.0586289.0000743v8.4149763h-10.2663196v-8.4149763l1.0541535-.000074.0001281-.5007374c0-.3251037.1317744-.6194299.3448246-.8324802.2130503-.2130502.5073764-.3448245.8324801-.3448245zm-6.2768919-.0493369c1.1250285-.0049046 1.9251581.1099526 2.6881626.322205.2596749.0722363.5172067.1563535.781187.2587597-.1139297.2107651-.2687701.4412939-.4756649.6968382-1.025027 1.2660534-1.7153682 1.1546026-2.4136915 1.124009-1.6895124-.0038099-3.021636.4402447-4.11201282 1.2232607-.88216296.6334945-1.60641148 1.4851486-2.08796922 2.4917774l14.35541684.9366237-16.08216588 1.9845233c-.43879835.0141161-.81702229-.1916231-1.05095732-.5050547-.22636249-.3032858-.31762621-.7074048-.19794592-1.1107378l.30326121-1.0220167c.54918899-1.8508149 1.65940688-3.4183848 3.11186265-4.5394331 1.4562914-1.1240087 3.25664626-1.7990794 5.18051726-1.8607547zm-.0679121-11.6564554c1.733458-.00289515 3.2325671.64005852 4.31105 1.67498238 1.1044955 1.05988585 1.770254 2.53268129 1.770254 4.16111872 0 1.5693707-.6189477 2.9941687-1.62601 4.0436505-1.0113426 1.0539425-2.4141728 1.7291836-3.9746164 1.7924507-1.8695206.0053443-3.3191236-.6545138-4.37052488-1.7059151-1.05700679-1.0570068-1.71077909-2.5172481-1.71077909-4.1301861 0-1.56937062.6189477-2.99416858 1.62601-4.04365044 1.01134257-1.05394245 2.41417287-1.72918363 3.97461637-1.79245066zm.2403388 2.39513595c-.9501963 0-1.8104376.38514315-2.4331298 1.00783537s-1.00783537 1.48293352-1.00783537 2.43312978c0 .9501963.38514317 1.8104376 1.00783537 2.4331299.6226922.6226922 1.4829335 1.0078353 2.4331298 1.0078353s1.8104376-.3851431 2.4331298-1.0078353c.6226923-.6226923 1.0078354-1.4829336 1.0078354-2.4331299 0-.95019626-.3851431-1.81043756-1.0078354-2.43312978-.6226922-.62269222-1.4829335-1.00783537-2.4331298-1.00783537z" stroke="#fff" stroke-width="1.2"/></svg>