<svg height="32" viewBox="0 0 32 32" width="32" xmlns="http://www.w3.org/2000/svg"><path d="m26.0380335 19.9625695c.6855622 0 1.2494329.521023 1.3172387 1.1886958l.0068361.1353789v4.7288385h-2.6481495l.0006107-3.0546172c-.6922617.4324407-1.5045947.6752898-2.3591187.6752898-.759241 0-1.4851755-.1917111-2.1231781-.5377786l-.2350224-.1369377-.0003075 3.0540437h-2.6481495v-4.7288385c0-.7312663.5928085-1.3240747 1.3240748-1.3240747.3883358 0 .7376253.1671776.9798247.4334894l.1318197.1628082.0408392.0640091c.4829562.8457267 1.3546745 1.3977973 2.3330792 1.4635025l.1970199.0065991c.9913759 0 1.8948705-.4992127 2.428408-1.3049288l.1440751-.2314289.0479021-.0605051c.24104-.3236938.627112-.5335455 1.0621975-.5335455zm-12.6721109-3.4732267c.7851323 0 1.5504198.1096295 2.2789567.3162707.7470374.1819673.6278268 1.3368373-.2596035 1.169488l-.1201004-.0295152c-.5157361-.1419765-1.0500204-.2266552-1.5939913-.2497655l-.3052615-.006478c-3.0780062 0-5.79983172 1.9676662-6.77629782 4.8661615l-.07939034.2506979-.09723444.3257978 9.0073446-.0003325c.2937752-.0000082.5374952.2143217.5833081.4951456l.0076626.1053377c-.00533.3331895-.2769509.6005-.610183.6005h-9.71330812c-.44026424 0-.75651476-.4237198-.63127325-.8457946l.30326121-1.0220168c1.02609011-3.4580132 4.15132378-5.8562473 7.73639366-5.9711772zm12.6721109.0444915c.7312663 0 1.3240748.5928085 1.3240748 1.3240748s-.5928085 1.3240748-1.3240748 1.3240748-1.3240747-.5928085-1.3240747-1.3240748.5928084-1.3240748 1.3240747-1.3240748zm-7.3651654 0c.7312663 0 1.3240747.5928085 1.3240747 1.3240748 0 .6855621-.521023 1.2494328-1.1886958 1.3172387l-.1353789.0068361c-.7312663 0-1.3240748-.5928085-1.3240748-1.3240748s.5928085-1.3240748 1.3240748-1.3240748zm-5.4234605-11.70118345c2.8945052 0 5.2409652 2.34646004 5.2409652 5.24096515 0 2.8221426-2.2306036 5.1232997-5.024933 5.2365937l-.2160322.0043715c-2.8945051 0-5.24096517-2.34646-5.24096517-5.2409652 0-2.82214248 2.23060357-5.12329962 5.02493297-5.23659364zm0 1.2c-2.2317634 0-4.04096517 1.80920174-4.04096517 4.04096515 0 2.2317635 1.80920177 4.0409652 4.04096517 4.0409652 2.2317635 0 4.0409652-1.8092017 4.0409652-4.0409652 0-2.23176341-1.8092017-4.04096515-4.0409652-4.04096515z"/></svg>