<svg height="32" viewBox="0 0 32 32" width="32" xmlns="http://www.w3.org/2000/svg"><path d="m25.675758 16.0005513c1.0182086.0555795 1.2497034.1356659 1.4520478.2271754.5521043.2876897.8198555.5754673 1.0121082.9349486.1856055.3784865.2687459.6928763.2945467 1.2873256l.0065384.2089945.0025078 4.4326302c-.0171226.9771918-.1007396 1.3118414-.2277597 1.5927063-.2876897.5521042-.5754673.8198555-.9349486 1.0121082-.3784865.1856055-.6928763.2687458-1.2873256.2945466l-.2089944.0065385-4.4400543.0025119c-1.1230258-.047379-1.3683655-.129664-1.5852823-.2277638-.5521042-.2876897-.8198555-.5754673-1.0121082-.9349486-.1928048-.393407-.278626-.731372-.2988099-1.4087494l-.0041274-.2137904-.0006226-4.3013699c0-.8782736.0839302-1.2797863.2277267-1.5977469.2876897-.5521042.5754674-.8198555.9349487-1.0121082.3403872-.167246.6106355-.2458039 1.0436017-.2804893l.1961981-.0123098zm-1.9231932 2.872176h-.6181818v1.8181818h-1.8181818v.6181818h1.8181818v1.8181818h.6181818v-1.8181818h1.8181819v-.6181818h-1.8181819zm-10.6755839-2.978757c1.5446284-.0049158 2.7365787.2546035 3.8244683.7226875.2989306.1286202.5918291.2737731.8811264.4398606-.215381.2108181-.4766478.4181343-.8006197.6203058-1.3690886.854366-2.3286084.6624472-3.3249818.618958-1.6895124-.0038099-3.021636.4402447-4.11201282 1.2232607-.88059677.6323698-1.60383933 1.4821252-2.08540206 2.4864173l16.02650638.9392886-17.7597424 1.9873388c-.43713064.012769-.81379935-.1926771-1.0470375-.505175-.22636249-.3032858-.31762621-.7074048-.19794592-1.1107378l.30326121-1.0220167c.54918899-1.8508149 1.65940688-3.4183848 3.11186265-4.5394331 1.4562914-1.1240087 3.25664626-1.7990794 5.18051726-1.8607547zm-.0679121-11.6564554c1.733458-.00289515 3.2325671.64005852 4.31105 1.67498238 1.1044955 1.05988585 1.770254 2.53268129 1.770254 4.16111872 0 1.5693707-.6189477 2.9941687-1.62601 4.0436505-1.0113426 1.0539425-2.4141728 1.7291836-3.9746164 1.7924507-1.8695206.0053443-3.3191236-.6545138-4.37052488-1.7059151-1.05700679-1.0570068-1.71077909-2.5172481-1.71077909-4.1301861 0-1.56937062.6189477-2.99416858 1.62601-4.04365044 1.01134257-1.05394245 2.41417287-1.72918363 3.97461637-1.79245066zm.2403388 2.39513595c-.9501963 0-1.8104376.38514315-2.4331298 1.00783537s-1.00783537 1.48293352-1.00783537 2.43312978c0 .9501963.38514317 1.8104376 1.00783537 2.4331299.6226922.6226922 1.4829335 1.0078353 2.4331298 1.0078353s1.8104376-.3851431 2.4331298-1.0078353c.6226923-.6226923 1.0078354-1.4829336 1.0078354-2.4331299 0-.95019626-.3851431-1.81043756-1.0078354-2.43312978-.6226922-.62269222-1.4829335-1.00783537-2.4331298-1.00783537z" stroke="#fff" stroke-width="1.2"/></svg>