<svg height="32" viewBox="0 0 32 32" width="32" xmlns="http://www.w3.org/2000/svg"><path d="m21.7400273 22.1976315.0004223.2078183c0 .2982338.2175896.5456468.5026769.592147l.0973231.007853.1084369-.007853c.2534109-.0413335.4534903-.241413.4948239-.4948239l.0078529-.0973231-.000536-.2078183 4.058-.0005358.0007743 2.2532724c0 .5772975-.4723601 1.0496319-1.0496576 1.0496319h-7.2283007c-.5772976 0-1.0496319-.4723344-1.0496319-1.0496319l-.0001841-2.2532724zm-8.3741047-5.7082887c1.4915259 0 2.9114338.395643 4.1438189 1.1004217-.6183676.4015095-1.0275301 1.0975392-1.0275301 1.8869631l-.0002899 4.8559232h-10.79409732c-.44026424 0-.75651476-.4237198-.63127325-.8457946l.30326121-1.0220168c1.05174237-3.5444636 4.30889742-5.9754966 8.00611046-5.9754966zm9.9489749.2606572c.6434313 0 1.1730089.4879885 1.2366927 1.1124652l.0064205.126611-.0009834.4379238 1.4071537.0000957c.5772976 0 1.0496319.4723344 1.0456459 1.0496319l-.0007996 2.1153681h-9.327l.0001841-2.1153681c0-.5772975.4723343-1.0496319 1.0496319-1.0496319l1.401184-.0000957.0009749-.4379238c0-.6399604.4918243-1.1690269 1.1165108-1.2326603l.1266025-.0064159zm0 .9844455h-1.937782c-.1236042 0-.2253572.0836331-.2519069.1961933l-.0067609.0584374-.0004204.4379238h2.455l.0005379-.4379238c0-.119233-.0858137-.2211422-.1996701-.2478258zm-10.0654899-12.90179465c2.8945052 0 5.2409652 2.34646004 5.2409652 5.24096515 0 2.8945052-2.34646 5.2409652-5.2409652 5.2409652-2.8945051 0-5.24096517-2.34646-5.24096517-5.2409652 0-2.89450511 2.34646007-5.24096515 5.24096517-5.24096515z"/></svg>