<svg height="32" viewBox="0 0 32 32" width="32" xmlns="http://www.w3.org/2000/svg"><path d="m13.3717071 10.6522303 4.1048113.0489826c.3313556.0031795.5973949.2743738.5942154.6057294-.0028615.29822-.222815.5435338-.5083353.5872966l-.097394.0069188-4.1048113-.0489827c-1.3950075-.0133856-2.5464773 1.0630475-2.6453641 2.4356328l-.0068831.1912872c0 1.4115943 1.1003108 2.5661972 2.4900483 2.6529246l.1681059.0052296h9.7197026c2.1759858 0 3.9399708 1.763985 3.9399708 3.9399708 0 2.1092248-1.6518889 3.8339655-3.7345726 3.9479989l-.2028539.0059661-14.07078443.0594825c-.02865024.1046943-.06419852.2083479-.10676816.3103334-.39822331.9540369-1.33232244 1.5738984-2.36612852 1.5701459-1.40687842-.0051066-2.54467526-1.147048-2.54466599-2.5539351.00000681-1.0338124.62326119-1.9656509 1.57874032-2.3604022s2.05469614-.174543 2.78438192.5578007c.35602417.357321.58981004.8021688.68963111 1.2748826l14.03056395-.0582973c1.5164727-.0063563 2.7424563-1.2374895 2.7424563-2.7539755 0-1.457198-1.1375408-2.6487091-2.5730594-2.7349703l-.1669114-.0050005h-9.7197026c-2.0642123 0-3.74980057-1.6210817-3.85313401-3.6596141l-.00484404-.2352603c.01964628-2.0474716 1.64362375-3.7039611 3.66660725-3.7870546zm7.5806948-6.65185631 5.7661732.02715695c.2511434.00110629.4538385.20559503.4527962.45673839-.0005352.10698302-.0387109.21037458-.1078777.29199286l-2.1558495 2.54394852 2.147785 2.53205701c.1624581.19152438.1388952.47848388-.0526291.64094188-.082692.0701424-.1877267.1084274-.2961595.1079542l-5.7550854-.0252538.0006827 2.8078954c.0000824.3388965-.2496039.6195205-.5750819.6678103l-.0999073.0073429c-.3728768 0-.6751533-.3022764-.6751533-.6751533v-8.78343131c0-.33137085.2686292-.6.6-.6zm-.1504019 1.19962601v4.186l.0317101-.00438452.1231107-.00569394 4.1361792.01807846-1.1004786-1.29754812c-.3504928-.41320141-.3775832-1.00446764-.0811951-1.44520173l.0808362-.10685728 1.1218375-1.32439287z"/></svg>