<svg height="32" viewBox="0 0 32 32" width="32" xmlns="http://www.w3.org/2000/svg"><g fill="none"><path d="m13.3659226 16.4893428c1.0217454 0 2.0098826.1856638 2.9271519.5291823-.0939308.2626465-.1442812.5451353-.1442812.839384 0 .6619134.2547863 1.2643184.6716355 1.7142436-.3751643.4051558-.6190576.9336194-.6640846 1.5177955l-.0075509.196696-.0008718 3.0460066h-10.46009732c-.44026424 0-.75651476-.4237198-.63127325-.8457946l.30326121-1.0220168c1.05174237-3.5444636 4.30889742-5.9754966 8.00611046-5.9754966zm-.116515-11.65669195c2.8945052 0 5.2409652 2.34646004 5.2409652 5.24096515 0 2.8945052-2.34646 5.2409652-5.2409652 5.2409652-2.8945051 0-5.24096517-2.34646-5.24096517-5.2409652 0-2.89450511 2.34646007-5.24096515 5.24096517-5.24096515z" fill="#007880"/><path d="m19.9972503 22.961439-.0003075 3.0540437h-2.6481495v-4.7288385c0-.7312663.5928085-1.3240747 1.3240748-1.3240747.4368778 0 .8243375.2115842 1.0654968.5378704.0324637.0370115.0616011.0779822.0869868.1224363.4829562.8457267 1.3546745 1.3977973 2.3330792 1.4635025l.1970199.0065991c1.0574676 0 2.0149459-.5679931 2.5300991-1.4701016.0263005-.046056.056628-.0883731.0902861-.1267612.24104-.3236938.627112-.5335455 1.0621975-.5335455.6855622 0 1.2494329.521023 1.3172387 1.1886958l.0068361.1353789v4.7288385h-2.6481495l.0006107-3.0546172c-.6922617.4324407-1.5045947.6752898-2.3591187.6752898-.8541462 0-1.6661387-.2426344-2.3582005-.6747163zm6.0407832-6.4276047c.7312663 0 1.3240748.5928085 1.3240748 1.3240748s-.5928085 1.3240748-1.3240748 1.3240748-1.3240747-.5928085-1.3240747-1.3240748.5928084-1.3240748 1.3240747-1.3240748zm-7.3651654 0c.7312663 0 1.3240747.5928085 1.3240747 1.3240748s-.5928084 1.3240748-1.3240747 1.3240748-1.3240748-.5928085-1.3240748-1.3240748.5928085-1.3240748 1.3240748-1.3240748z" fill="#5aadca"/><path d="m23.0568951 22.4437c.4261367 0 .7715888.345452.7715888.7715887 0 .0610796-.0070971.1205016-.0205117.1774863-.4588555.1588421-.9483449.2433803-1.4525214.2433803-.4261367 0-.7715888-.345452-.7715888-.7715887 0-.2706661.1393663-.5087815.3502536-.6465009.3494708.1469524.7291996.2256343 1.1227795.2256343z" fill="#4195b2"/><g fill="#f47321"><path d="m18.6728681 19.9625695c.4368778 0 .8243375.2115842 1.0654968.5378704.0324637.0370115.0616011.0779822.0869868.1224363.5151532.9021085 1.4726315 1.4701016 2.5300991 1.4701016.4261367 0 .7715888.3454521.7715888.7715888s-.3454521.7715887-.7715888.7715887c-.8541462 0-1.6661387-.2426344-2.3582005-.6747163l-.0003075 3.0540437h-2.6481495v-4.7288385c0-.7312663.5928085-1.3240747 1.3240748-1.3240747zm0-3.4287352c.7312663 0 1.3240747.5928085 1.3240747 1.3240748s-.5928084 1.3240748-1.3240747 1.3240748-1.3240748-.5928085-1.3240748-1.3240748.5928085-1.3240748 1.3240748-1.3240748z"/><path d="m18.6728681 19.9625695c.4368778 0 .8243375.2115842 1.0654968.5378704.0324637.0370115.0616011.0779822.0869868.1224363.5151532.9021085 1.4726315 1.4701016 2.5300991 1.4701016.4261367 0 .7715888.3454521.7715888.7715888s-.3454521.7715887-.7715888.7715887c-.8541462 0-1.6661387-.2426344-2.3582005-.6747163l-.0003075 3.0540437h-2.6481495v-4.7288385c0-.7312663.5928085-1.3240747 1.3240748-1.3240747zm0-3.4287352c.7312663 0 1.3240747.5928085 1.3240747 1.3240748s-.5928084 1.3240748-1.3240747 1.3240748-1.3240748-.5928085-1.3240748-1.3240748.5928085-1.3240748 1.3240748-1.3240748z"/></g></g></svg>