<svg height="32" viewBox="0 0 32 32" width="32" xmlns="http://www.w3.org/2000/svg"><path d="m13.0946466 8.63478535c-.1397169 0-.2752466.04770167-.3841631.13521182l-4.06405377 3.26531043-.07468585.0720735c-.19836069.2377023-.20261466.5620512-.01928613.7902246.02782797.0346351.05933687.066144.09397198.093972l4.06405377 3.2653105.0864689.0574081c.2748492.1425036.5925007.0767933.7758292-.1513801l.0580452-.0863269c.0503345-.0906161.0771667-.1930485.0771667-.2978362l.0000065-2.3987531.2882136.0391648c4.0113176.6123768 7.0860803 4.0919746 7.1137909 8.2116224.0133844.4435165.3726046.7986548.8099955.7986548.4404569 0 .8-.3595431.8-.8l-.0054854-.2768526c-.1678315-4.9681283-4.0504595-9.0971154-9.0075146-9.5805894l.0009934-2.52381151-.0094062-.10342013c-.06106-.30351446-.311242-.50998301-.6039406-.50998301z" fill="#005a7d"/></svg>