<svg height="32" viewBox="0 0 32 32" width="32" xmlns="http://www.w3.org/2000/svg"><path d="m18.0425847 8.63478535c-.2926986 0-.5428806.20646855-.6008889.48994798l-.0114494.10333884.001421 2.54449073c-5.0502626.4918491-8.98455228 4.7660741-9.0144327 9.8557049 0 .4416311.3595396.8011742.79999655.8011742.43739086 0 .79661115-.3551383.80990825-.7939422l.0056855-.2569016c.1505624-4.0092008 3.1777015-7.356775 7.102859-7.958617l.293316-.0399812.0002378 2.3987606c0 .1397094.0477017.2752392.1352118.3841556.1833285.2281734.50098.2938837.7582995.1615499l.0877291-.0557998 4.0803233-3.2770886c.0346351-.027828.066144-.0593369.093972-.093972.1833285-.2281734.1790746-.5525223-.0055792-.7752969l-.0733866-.0736506-4.07906-3.27866103c-.1089164-.08751015-.2444461-.13521182-.384163-.13521182z" fill="#005a7d"/></svg>