<svg height="32" viewBox="0 0 32 32" width="32" xmlns="http://www.w3.org/2000/svg"><path d="m6.94884211 4.74884211c-1.16219921 0-2.11391524.90118564-2.19447618 2.04288499l-.00552382.15711501v18.10231579c0 1.1621992.90118564 2.1139152 2.04288499 2.1944762l.15711501.0055238h18.10231579c1.1621992 0 2.1139152-.9011856 2.1944762-2.042885l.0055238-.157115v-18.10231579c0-1.16219921-.9011856-2.11391524-2.042885-2.19447618l-.157115-.00552382zm6.14580449 4.08594324c.1712139 0 .3181145.1040972.380864.25245361l.0240851.07758944.0083978.08330381.0001644 2.51170989.1044702.0093557c5.0813997.4596419 9.036883 4.7461568 9.071017 9.8368854.0028844.4418179-.3528833.8023786-.7947012.8054066-.4418179.0028844-.8023786-.3528833-.8053348-.7947012-.0279725-4.1806088-3.2212994-7.7241887-7.360536-8.2271243l-.2149152-.0238222-.0001644 2.412911-.0059445.0698533c-.0118058.068852-.0409464.1339913-.0851775.189042-.107238.1334699-.2803966.1827863-.4353504.1387813l-.0755704-.0298217-.0701994-.04563-4.06405377-3.2653104-.03338511-.0299446-.02994451-.0333851c-.10723793-.1334699-.11809849-.3131866-.04174958-.4550244l.04539948-.0673728.05967972-.0587229 4.06405377-3.26531047.0581775-.03911783c.061068-.0339214.1300993-.05200415.2007178-.05200415z" fill-rule="evenodd"/></svg>