<svg height="32" viewBox="0 0 32 32" width="32" xmlns="http://www.w3.org/2000/svg"><path d="m13.0946466 8.83478535c.1997495 0 .3664061.14168786.4049491.33004305l.0083978.08330381-.0007622 2.70865309.1817855.0150919c4.9136363.4785629 8.8015189 4.6388148 8.8309832 9.6575648 0 .33-.27.6-.6.6s-.6-.27-.61-.6c-.0297528-4.4232502-3.4725565-8.0793016-7.8019088-8.4709165l-.0000977 2.6202276c0 .0941581-.0321472.1854943-.091122.2588953-.1251109.1557149-.3399473.1968875-.5109208.1089596l-.0701994-.04563-4.06405377-3.2653104c-.0233413-.0187539-.04457579-.0399884-.06332962-.0633297-.12511092-.1557149-.11904153-.3743767.0036499-.5223972l.05967972-.0587229 4.06405377-3.26531047c.073401-.05897486.1647372-.09112198.2588953-.09112198z"/></svg>