<svg height="32" viewBox="0 0 32 32" width="32" xmlns="http://www.w3.org/2000/svg"><path d="m25.0511579 4.74884211c1.1621992 0 2.1139152.90118564 2.1944762 2.04288499l.0055238.15711501v18.10231579c0 1.1621992-.9011856 2.1139152-2.042885 2.1944762l-.157115.0055238h-18.10231579c-1.16219921 0-2.11391524-.9011856-2.19447618-2.042885l-.00552382-.157115v-18.10231579c0-1.16219921.90118564-2.11391524 2.04288499-2.19447618l.15711501-.00552382zm-6.1458045 4.08594324c-.1712139 0-.3181145.1040972-.380864.25245361l-.0240851.07758944-.0083978.08330381-.0001644 2.51170989-.1044702.0093557c-5.0813997.4596419-9.03688303 4.7461568-9.07099941 9.8368854-.00290201.4418179.35286569.8023786.79468361.805389.4418179.002902.8023786-.3528657.8053348-.7946836.0279725-4.1806088 3.2212994-7.7241887 7.360536-8.2271243l.2149152-.0238222.0001644 2.412911.0059445.0698533c.0118058.068852.0409464.1339913.0851775.189042.107238.1334699.2803966.1827863.4353504.1387813l.0755704-.0298217.0701994-.04563 4.0640538-3.2653104.0333851-.0299446.0299445-.0333851c.1072379-.1334699.1180985-.3131866.0417496-.4550244l-.0453995-.0673728-.0596797-.0587229-4.0640538-3.26531047-.0581775-.03911783c-.061068-.0339214-.1300993-.05200415-.2007178-.05200415z" fill-rule="evenodd"/></svg>