<svg height="32" viewBox="0 0 32 32" width="32" xmlns="http://www.w3.org/2000/svg"><path d="m18.0425847 8.83478535c-.1997496 0-.3664061.14168786-.4049492.33004305l-.0083977.08330381.0007622 2.70865309-.1817855.0150919c-4.9136363.4785629-8.80151896 4.6388148-8.83098325 9.6575648 0 .33.27.6.6.6s.6-.27.61-.6c.02975281-4.4232502 3.47255645-8.0793016 7.80190875-8.4709165l.0000978 2.6202276c0 .0941581.0321471.1854943.091122.2588953.1251109.1557149.3399473.1968875.5109207.1089596l.0701994-.04563 4.0640538-3.2653104c.0233413-.0187539.0445758-.0399884.0633296-.0633297.125111-.1557149.1190416-.3743767-.0036499-.5223972l-.0596797-.0587229-4.0640538-3.26531047c-.073401-.05897486-.1647372-.09112198-.2588952-.09112198z"/></svg>