<svg height="32" viewBox="0 0 32 32" width="32" xmlns="http://www.w3.org/2000/svg"><path d="m26.8522717 17.8395526c.3313708 0 .6.2686291.6.6 0 3.9429041-2.6452734 7.2679367-6.2579437 8.2972214l-.0332488 2.3317369c-.0071143.498931-.5846913.7716698-.9745005.460171l-3.5528076-2.8390703c-.3000619-.2397813-.3006818-.6958352-.0012728-.9364313l3.6349408-2.9209297c.3957582-.3180194.983012-.0313896.9757733.4762603l-.0308814 2.1657111c2.9308057-.9939331 5.0399407-3.7679777 5.0399407-7.0346694 0-.3313709.2686291-.6.6-.6zm-8.4271579-8.59988629c2.6308663 0 4.7582994 2.12744719 4.7582994 4.75832679 0 2.6308728-2.1274263 4.7582994-4.7582994 4.7582994-.4201221 0-.8361504-.0519766-1.2527035-.1562723l-.239682-.0683945-2.1187678 2.121018c-.0782027.0782027-.1731231.135844-.2763613.1694447l-.1056997.0254582-.1093782.0086579-1.1145213-.0002045.0008585.8801385c0 .3166663-.2117847.5838676-.5014404.6676901l-.0992522.0209654-.0943074.0063445-.8808585-.0001385.0009244.8800725c0 .3166663-.2117847.5838676-.5014403.6676902l-.0992523.0209653-.0943074.0063445h-1.82689c-.35185141 0-.64263496-.2614626-.68865547-.6006926l-.00634453-.0943074v-2.0606194c0-.1474599.04686242-.2900881.13233995-.4079739l.07121961-.0834641 5.27240604-5.2730151-.0560944-.2097203c-.068553-.2765319-.1160752-.5373866-.1431245-.7882444l-.0202456-.2477359-.006721-.2423337c0-2.6308592 2.1274401-4.75829939 4.7582993-4.75829939zm0 1.19999999c-1.9681175 0-3.5582993 1.5901819-3.5582993 3.5582994 0 .2999235.0437382.6245917.13704.9984782l.0619753.2304339.0773096.2690777c.0516505.1797705.0161514.3714285-.0922154.5196897l-.0601896.0702583-5.3737344 5.3730965v1.347h.816l.0009244-.9748615c0-.2650967.1719227-.4900387.4103536-.5694116l.0923233-.0227354.0973231-.007853.9740756-.0001385.0008585-.9747955c0-.2650967.1719226-.4900387.4103536-.5694116l.0923233-.0227354.0973231-.007853 1.5041415-.0002045 2.2272992-2.2267512c.1127597-.1127598.2635782-.1741406.4182051-.1757203l.0929593.0062957.0922292.0210521.2743913.0858339c.4068158.1272583.8049143.1895823 1.2070297.1895823 1.9681314 0 3.5582994-1.5901683 3.5582994-3.5582994 0-1.9681397-1.5901766-3.5583268-3.5582994-3.5583268zm-6.6116925-7.85469557 3.5528076 2.8390703c.3000619.23978127.3006818.69583519.0012728.93643127l-3.6349408 2.9209297c-.3957582.31801943-.983012.03138964-.9757733-.47626034l.0309592-2.17117221c-2.93084609.99391038-5.04001848 3.76797525-5.04001848 7.03469585 0 .3313709-.26862915.6-.6.6s-.6-.2686291-.6-.6c0-3.94293241 2.64531137-7.26798449 6.25802148-8.29724359l.033171-2.32628005c.0071143-.49893094.5846913-.77166979.9745005-.46017093zm7.6349183 9.20795507c.6754623 0 1.1818415.5063792 1.1818415 1.1818416 0 .6754623-.5063792 1.1818415-1.1818415 1.1818415-.6754624 0-1.1818416-.5063792-1.1818416-1.1818415 0-.6754624.5063792-1.1818416 1.1818416-1.1818416z"/></svg>