<svg height="32" viewBox="0 0 32 32" width="32" xmlns="http://www.w3.org/2000/svg"><path d="m22.5834132 13.9979931c0 2.2995017-1.8587969 4.1582994-4.1582994 4.1582994-.4638356 0-.9222633-.0718319-1.3861593-.2169458l-.2743913-.0858339-2.3748668 2.3748668c-.0178159.017816-.0419796.0278249-.0671751.0278249h-1.7136628v1.479934c0 .0524671-.042533.095-.095.095h-1.4799341v1.479934c0 .0524671-.0425329.095-.095.095h-1.82689c-.05246705 0-.095-.0425329-.095-.095v-2.0606194c0-.0251955.01000883-.049359.02782469-.0671749l5.52161021-5.5216377-.0773096-.2690777c-.1509653-.5254379-.2223452-.9754676-.2223452-1.3945971 0-2.2994884 1.858811-4.15829939 4.1582993-4.15829939 2.2994947 0 4.1582994 1.85881729 4.1582994 4.15832679zm-3.1350736.1586158c.6754623 0 1.1818415-.5063792 1.1818415-1.1818415 0-.6754624-.5063792-1.1818416-1.1818415-1.1818416-.6754624 0-1.1818416.5063792-1.1818416 1.1818416 0 .6754623.5063792 1.1818415 1.1818416 1.1818415zm-8.6425898-8.78518719.033171-2.32628005c.0071143-.49893094.5846913-.77166979.9745005-.46017093l3.5528076 2.8390703c.3000619.23978127.3006818.69583519.0012728.93643127l-3.6349408 2.9209297c-.3957582.31801943-.983012.03138964-.9757733-.47626034l.0309592-2.17117221c-2.93084609.99391038-5.04001848 3.76797525-5.04001848 7.03469585 0 .3313709-.26862915.6-.6.6s-.6-.2686291-.6-.6c0-3.94293241 2.64531137-7.26798449 6.25802148-8.29724359zm10.3885782 21.36535229-.0332488 2.3317369c-.0071143.498931-.5846913.7716698-.9745005.460171l-3.5528076-2.8390703c-.3000619-.2397813-.3006818-.6958352-.0012728-.9364313l3.6349408-2.9209297c.3957582-.3180194.983012-.0313896.9757733.4762603l-.0308814 2.1657111c2.9308057-.9939331 5.0399407-3.7679777 5.0399407-7.0346694 0-.3313709.2686291-.6.6-.6.3313708 0 .6.2686291.6.6 0 3.9429041-2.6452734 7.2679367-6.2579437 8.2972214z"/></svg>