<svg height="32" viewBox="0 0 32 32" width="32" xmlns="http://www.w3.org/2000/svg"><g fill="none"><path d="m19.8733023 4.5c3.9056753 0 7.0633943 3.15780591 7.0633943 7.0634377 0 3.9056319-3.157719 7.0633943-7.0633943 7.0633943-.9140674 0-1.7450575-.166198-2.4929704-.4154733l-3.7394338 3.7394338h-2.4929703v2.4929704h-2.49297041v2.4929703h-4.1549506v-4.1549506l8.72537451-8.7254179c-.2492753-.8309902-.4154733-1.6619803-.4154733-2.4929704 0-3.90563184 3.1577624-7.0633943 7.0633943-7.0633943z" fill="#989110"/><path d="m19.8733023 4.5c1.9349649 0 3.6863478.77506719 4.9611273 2.03214583l-20.3344296 20.40458067v-4.1549439l8.7253813-8.7254179c-.2492753-.8309902-.4154733-1.6619803-.4154733-2.4929704 0-3.90563184 3.1577624-7.0633943 7.0633943-7.0633943z" fill="#b6ae1f"/><path d="m21.4929711 11.9456261c-1.1344032 0-2.0018572-.867454-2.0018572-2.00185712 0-1.13440315.867454-2.00185712 2.0018572-2.00185712 1.1344031 0 2.0018571.86745397 2.0018571 2.00185712 0 1.13440312-.867454 2.00185712-2.0018571 2.00185712z" fill="#fff"/></g></svg>