<svg height="32" viewBox="0 0 32 32" width="32" xmlns="http://www.w3.org/2000/svg"><g fill="none"><path d="m18.6627442 8.31343596c2.6293006 0 4.755077 2.12583494 4.755077 4.75510634 0 2.6292713-2.1257764 4.755077-4.755077 4.755077-.6153502 0-1.1747727-.1118845-1.6782677-.2796967l-2.5173868 2.5173869h-1.6782677v1.6782676h-1.6782676v1.6782677h-2.79711275v-2.7971128l5.87392215-5.8739514c-.1678121-.5594225-.2796967-1.118845-.2796967-1.6782676 0-2.6292714 2.1258057-4.75507704 4.7550771-4.75507704z" fill="#989110"/><path d="m18.6627442 8.31343596c1.3026184 0 2.4816493.52177523 3.3398309 1.36804058l-13.68913802 13.73636366v-2.7971082l5.87392672-5.8739514c-.1678121-.5594225-.2796967-1.118845-.2796967-1.6782676 0-2.6292714 2.1258057-4.75507704 4.7550771-4.75507704z" fill="#b6ae1f"/><path d="m19.7531052 13.3426771c-.7732262 0-1.3644958-.5912697-1.3644958-1.3644959s.5912696-1.3644958 1.3644958-1.3644958 1.3644958.5912696 1.3644958 1.3644958-.5912696 1.3644959-1.3644958 1.3644959z" fill="#fff"/><g fill="#252d4f"><path d="m21.1465997 26.2841483-.0332488 2.331737c-.0071144.4989309-.5846914.7716697-.9745005.4601709l-3.5528076-2.8390703c-.3000619-.2397813-.3006818-.6958352-.0012728-.9364313l3.6349408-2.9209297c.3957582-.3180194.983012-.0313896.9757733.4762604l-.0308814 2.165711c2.9308056-.9939331 5.0399407-3.7679777 5.0399407-7.0346694 0-.3313709.2686291-.6.6-.6.3313708 0 .6.2686291.6.6 0 3.9429041-2.6452734 7.2679367-6.2579437 8.2972214z"/><path d="m10.7580215 4.91879602.033171-2.32628005c.0071143-.49893093.5846913-.77166978.9745005-.46017093l3.5528076 2.8390703c.3000619.23978128.3006817.6958352.0012728.93643127l-3.6349408 2.9209297c-.3957582.31801944-.983012.03138965-.9757733-.47626034l.0309592-2.1711722c-2.93084611.99391037-5.0400185 3.76797521-5.0400185 7.03469583 0 .3313709-.26862915.6-.6.6s-.6-.2686291-.6-.6c0-3.9429324 2.64531137-7.26798448 6.2580215-8.29724358z"/></g></g></svg>