<svg height="32" viewBox="0 0 32 32" width="32" xmlns="http://www.w3.org/2000/svg"><path d="m12.2944061 11.7102246c0-4.04172112 3.2685035-7.3102246 7.3102246-7.3102246 4.041742 0 7.3102246 3.26852433 7.3102246 7.3102659 0 4.0417347-3.2684759 7.3102245-7.3102246 7.3102245-.7533554 0-1.4831555-.1088497-2.2000274-.3144659l-3.2964925 3.2964925c-.1125218.1125218-.2651342.1757359-.424264.1757359h-1.7683219v1.7683218c0 .3313709-.2686291.6-.6.6h-1.76832183v1.7683219c0 .3313708-.26862915.6-.6.6h-3.94720307c-.33137085 0-.6-.2686292-.6-.6v-3.9472031c0-.1591294.06321369-.3117413.17573487-.424263l8.03960923-8.0396492c-.2113342-.7823114-.320938-1.4973503-.320938-2.1935567zm4.5176387 5.8913021c.1606941-.160694.3983847-.2168096.6139809-.1449525.7138797.2379322 1.4338152.3639162 2.178605.3639162 3.3790059 0 6.1102246-2.7312303 6.1102246-6.1102245 0-3.3790033-2.7312278-6.1102659-6.1102246-6.1102659-3.3789794 0-6.1102246 2.73124518-6.1102246 6.1102246 0 .6682018.1244441 1.3793374.3693996 2.1959269.0634195.2114165.0056401.4405823-.1504348.5966579l-8.1133709 8.1134114v3.0986758h2.74720307v-1.7683219c0-.3313708.26862915-.6.6-.6h1.76832183v-1.7683218c0-.3313709.2686292-.6.6-.6h2.1197937zm4.3312713-5.6527408c1.0157328 0 1.7772053-.7614725 1.7772053-1.7772054 0-1.01573286-.7614725-1.7772053-1.7772053-1.7772053-1.0157329 0-1.7772054.76147244-1.7772054 1.7772053 0 1.0157329.7614725 1.7772054 1.7772054 1.7772054z"/></svg>