<svg height="32" viewBox="0 0 32 32" width="32" xmlns="http://www.w3.org/2000/svg"><path d="m20.11 5.915c.33 0 .6.27.6.6 0 .297-.2187.5454-.50301.59211l-.09699.00789h-.98v3.45l6.16 10.27c1.0028 1.6652.744464 2.873344.4397453 3.5154157l-.0797453.1545843-.0901133.1485683c-.3717261.5676915-1.212119 1.3590298-2.9913945 1.4267687l-.2484922.004663h-12.64c-1.8656 0-2.770944-.766656-3.18624768-1.3527219l-.10146816-.1546471c-.01500416-.024791-.02908416-.049031-.04228416-.072631l-.07974528-.1544077c-.29147008-.6129165-.54050304-1.7378662.31599744-3.2998873l.12374784-.215705 6.18-10.27v-3.45h-.84c-.33 0-.6-.27-.6-.6 0-.297.2106-.5454.49329-.59211l.09671-.00789zm-2.1495769 9.085c-.6362802 0-1.208821.1523262-1.7699085.3403538l-.2399174.0824291-.2736472.0969406c-.7269833.2598618-1.4524132.5197235-2.2834731.5197235-.3842536 0-.7452611-.0555537-1.0945386-.1409751l-.2599386-.0692648-3.62014769 6.0345388-.09821339.1697524-.08435973.1596734c-.25623491.5108051-.29665931.8645911-.22511353 1.1368042l.02785319.08782.03179926.0751154.020901.0380887.06794218.1041085.03881867.0483488.05260277.0524328c.15477637.1382495.42838138.261738.88826001.3179023l.18131778.0178031.18065341.0101893.20992926.0035672 12.60247591-.000352.1913792-.003263.190434-.0106585c.5457508-.0427127.8653007-.180303 1.0601086-.3653128l.060455-.0633612.05205-.066483.0300569-.0472272.0482595-.0958512.0252457-.061757.0217091-.0754566c.0485816-.2121636.019156-.5137275-.1730524-.94862l-.0798742-.1694202-.0866918-.1652983-.1048732-.1820568-3.9274244-6.5262616-.2643098-.08186c-.4431798-.1297075-.9011932-.2221126-1.3967679-.2221126zm-3.5790414-2.6037131c-.5718908 0-1.0355.4636091-1.0355 1.0355 0 .5718908.4636092 1.0355 1.0355 1.0355.5718909 0 1.0355-.4636092 1.0355-1.0355 0-.5718909-.4636091-1.0355-1.0355-1.0355zm.6005-8.33567901c.331647 0 .6005.26885301.6005.6005s-.268853.6005-.6005.6005-.6005-.26885301-.6005-.6005.268853-.6005.6005-.6005zm2.0045592-2.80811828c.7754404 0 1.4040591.62861869 1.4040591 1.40405914s-.6286187 1.40405914-1.4040591 1.40405914c-.7754405 0-1.4040592-.62861869-1.4040592-1.40405914s.6286187-1.40405914 1.4040592-1.40405914z"/></svg>