<svg height="32" viewBox="0 0 32 32" width="32" xmlns="http://www.w3.org/2000/svg"><path d="m20.11 5.915c.33 0 .6.27.6.6s-.27.6-.6.6h-.98v3.45l6.16 10.27c1.09 1.81.69 3.08.36 3.67s-1.21 1.58-3.33 1.58h-12.64c-2.12 0-3-.99-3.33-1.58s-.73-1.85.36-3.67l6.18-10.27v-3.45h-.84c-.33 0-.6-.27-.6-.6s.26-.6.59-.6zm-2.17 1.2h-3.86v3.61c0 .11-.03.22-.09.31l-6.25 10.41c-.57.96-.69 1.83-.34 2.46s1.16.97 2.28.97h12.65c1.11 0 1.93-.34 2.28-.97.35-.62.23-1.5-.33-2.45l-6.25-10.41c-.06-.09-.09-.2-.09-.31zm-1.29 14.756c.363 0 .66.297.66.66s-.297.66-.66.66h-1.3c-.363 0-.66-.297-.66-.66s.297-.66.66-.66zm0-3.85c.363 0 .66.297.66.66s-.297.66-.66.66h-1.3c-.363 0-.66-.297-.66-.66s.297-.66.66-.66zm0-3.85c.363 0 .66.297.66.66s-.297.66-.66.66h-1.3c-.363 0-.66-.297-.66-.66s.297-.66.66-.66z"/></svg>