<svg height="32" viewBox="0 0 32 32" width="32" xmlns="http://www.w3.org/2000/svg"><path d="m20.11 5.915c.33 0 .6.27.6.6 0 .297-.2187.5454-.50301.59211l-.09699.00789h-.98v3.45l6.16 10.27c1.0028 1.6652.744464 2.873344.4397453 3.5154157l-.0797453.1545843-.0901133.1485683c-.3717261.5676915-1.212119 1.3590298-2.9913945 1.4267687l-.2484922.004663h-12.64c-1.8656 0-2.770944-.766656-3.18624768-1.3527219l-.10146816-.1546471c-.01500416-.024791-.02908416-.049031-.04228416-.072631l-.07974528-.1544077c-.29147008-.6129165-.54050304-1.7378662.31599744-3.2998873l.12374784-.215705 6.18-10.27v-3.45h-.84c-.33 0-.6-.27-.6-.6 0-.297.2106-.5454.49329-.59211l.09671-.00789zm-2.1495769 9.085c-.7271774 0-1.3711033.1989567-2.0098259.4227829l-.2736472.0969406c-.7269833.2598618-1.4524132.5197235-2.2834731.5197235-.4803169 0-.924312-.0868027-1.3544772-.2102399l-3.62014769 6.0345388-.09821339.1697524c-.36471816.6585404-.39694862 1.0751859-.28162007 1.3842976l.03179926.0751154.020901.0380887.06794218.1041085.03881867.0483488c.15765379.1763981.4878045.3399983 1.12218056.3881382l.18065341.0101893.20992926.0035672 12.60247591-.000352.1913792-.003263c.7299971-.0257191 1.1052487-.201046 1.3109976-.4393325l.05205-.066483.0300569-.0472272.0482595-.0958512.0252457-.061757c.0834484-.238125.0615684-.6073581-.2312175-1.1934968l-.0866918-.1652983-.1048732-.1820568-3.9274244-6.5262616c-.5257867-.1709093-1.066388-.3039726-1.6610777-.3039726z"/></svg>