<svg height="32" viewBox="0 0 32 32" width="32" xmlns="http://www.w3.org/2000/svg"><g fill="none"><path d="m20.11 5.915c.33 0 .6.27.6.6 0 .297-.2187.5454-.50301.59211l-.09699.00789h-.98v3.45l6.16 10.27c1.0028 1.6652.744464 2.873344.4397453 3.5154157l-.0797453.1545843-.0422842.072631-.1014681.1546471c-.3964263.5594265-1.2393562 1.283399-2.9377555 1.3480589l-.2484922.004663h-12.64c-1.8656 0-2.770944-.766656-3.18624768-1.3527219l-.10146816-.1546471c-.01500416-.024791-.02908416-.049031-.04228416-.072631l-.07974528-.1544077c-.29147008-.6129165-.54050304-1.7378662.31599744-3.2998873l.12374784-.215705 6.18-10.27v-3.45h-.84c-.33 0-.6-.27-.6-.6 0-.297.2106-.5454.49329-.59211l.09671-.00789z" fill="#afdfef"/><path d="m17.13 11.1188137-.001-4.0468137-.1301598.01206705-.1713638.00527105-.7644764-.0003381-.057 16.995 6.2764759.001352.2099293-.0035672c.7535765-.0286895 1.130848-.2058932 1.302834-.3983275l.0388186-.0483488.0669422-.1031085.021901-.0390887c.1501906-.3164661.1452905-.7459942-.2498208-1.459413l-.0982134-.1697524z" fill="#78b9cf"/><path d="m14.0297422 21.871c.363 0 .66.297.66.66s-.297.66-.66.66h-1.3c-.363 0-.66-.297-.66-.66s.297-.66.66-.66zm0-3.85c.363 0 .66.297.66.66s-.297.66-.66.66h-1.3c-.363 0-.66-.297-.66-.66s.297-.66.66-.66zm0-3.85c.363 0 .66.297.66.66s-.297.66-.66.66h-1.3c-.363 0-.66-.297-.66-.66s.297-.66.66-.66z" fill="#d7eff7"/><path d="m20.11 5.915c.33 0 .6.27.6.6 0 .297-.2187.5454-.50301.59211l-.09699.00789h-.98l-3.059-.026.7567217.00033812c.3796958 0 .693491-.28215389.7431534-.64822945l.0068466-.10177055-.0007217-.42533812z" fill="#78b9cf"/></g></svg>