<svg height="32" viewBox="0 0 32 32" width="32" xmlns="http://www.w3.org/2000/svg"><path d="m20.11 5.915c.33 0 .6.27.6.6 0 .297-.2187.5454-.50301.59211l-.09699.00789h-.98v3.45l6.16 10.27c1.0028 1.6652.744464 2.873344.4397453 3.5154157l-.0797453.1545843-.0901133.1485683c-.3717261.5676915-1.212119 1.3590298-2.9913945 1.4267687l-.2484922.004663h-12.64c-1.8656 0-2.770944-.766656-3.18624768-1.3527219l-.10146816-.1546471c-.01500416-.024791-.02908416-.049031-.04228416-.072631l-.07974528-.1544077c-.29147008-.6129165-.54050304-1.7378662.31599744-3.2998873l.12374784-.215705 6.18-10.27v-3.45h-.84c-.33 0-.6-.27-.6-.6 0-.297.2106-.5454.49329-.59211l.09671-.00789zm-2.17 1.2h-3.86v3.61c0 .0825-.016875.165-.050625.2390625l-.039375.0709375-6.25 10.41c-.57.96-.69 1.83-.34 2.46.32666667.588 1.05404444.9233778 2.06017778.9654815l.21982222.0045185h12.65c1.11 0 1.93-.34 2.28-.97.3266667-.5786667.2439111-1.3838222-.2238756-2.2609896l-.1061244-.1890104-6.25-10.41c-.045-.0675-.073125-.14625-.084375-.2278125l-.005625-.0821875zm.0204231 7.885c.4955747 0 .9535881.0924051 1.3967679.2221126l.2643098.08186 3.9274244 6.5262616.1048732.1820568.0866918.1652983c.2635073.5275248.3075809.8793561.2529266 1.1180402l-.0217091.0754566-.0252457.061757-.0482595.0958512-.0300569.0472272-.05205.066483c-.1870445.2166241-.5141738.3812154-1.1205636.428674l-.190434.0106585-.1913792.003263-12.60247591.000352-.20992926-.0035672-.18065341-.0101893c-.57093846-.0433259-.89545438-.1801747-1.06957779-.3357054l-.05260277-.0524328-.03881867-.0483488-.06794218-.1041085-.020901-.0380887-.03179926-.0751154c-.10571784-.2833524-.08744512-.657063.19726034-1.2246242l.08435973-.1596734.09821339-.1697524 3.62014769-6.0345388c.4301652.1234372.8741603.2102399 1.3544772.2102399.7271774 0 1.3734819-.1989566 2.0107178-.4227829l.2727553-.0969406c.73009-.2598617 1.4524132-.5197235 2.2834731-.5197235z"/></svg>