<svg height="32" viewBox="0 0 32 32" width="32" xmlns="http://www.w3.org/2000/svg"><g fill="none" fill-rule="evenodd"><g fill-rule="nonzero"><path d="m20.11 5.915c.33 0 .6.27.6.6 0 .297-.2187.5454-.50301.59211l-.09699.00789h-.98v3.45l6.16 10.27c1.0028 1.6652.744464 2.873344.4397453 3.5154157l-.0797453.1545843-.0422842.072631-.1014681.1546471c-.3964263.5594265-1.2393562 1.283399-2.9377555 1.3480589l-.2484922.004663h-12.64c-1.8656 0-2.770944-.766656-3.18624768-1.3527219l-.10146816-.1546471c-.01500416-.024791-.02908416-.049031-.04228416-.072631l-.07974528-.1544077c-.29147008-.6129165-.54050304-1.7378662.31599744-3.2998873l.12374784-.215705 6.18-10.27v-3.45h-.84c-.33 0-.6-.27-.6-.6 0-.297.2106-.5454.49329-.59211l.09671-.00789z" fill="#afdfef"/><g fill="#78b9cf"><path d="m17.13 11.1188137-.001-4.0468137-.1301598.01206705-.1713638.00527105-.7644764-.0003381-.057 16.995 6.2764759.001352.2099293-.0035672c.7535765-.0286895 1.130848-.2058932 1.302834-.3983275l.0388186-.0483488.0669422-.1031085.021901-.0390887c.1501906-.3164661.1452905-.7459942-.2498208-1.459413l-.0982134-.1697524z"/><path d="m20.11 5.915c.33 0 .6.27.6.6 0 .297-.2187.5454-.50301.59211l-.09699.00789h-.98l-3.059-.026.7567217.00033812c.3796958 0 .693491-.28215389.7431534-.64822945l.0068466-.10177055-.0007217-.42533812z"/></g></g><circle cx="14.381382" cy="13.431787" fill="#8556a3" r="1.0355"/><circle cx="16.986441" cy="2.656549" fill="#8556a3" r="1.404059"/><circle cx="14.981882" cy="4.661108" fill="#9b6fb8" r="1"/><path d="m17.9604231 15c-.7271774 0-1.3711033.1989567-2.0098259.4227829l-.2736472.0969406c-.7269833.2598618-1.4524132.5197235-2.2834731.5197235-.4803169 0-.924312-.0868027-1.3544772-.2102399l-3.62014769 6.0345388-.09821339.1697524c-.36471816.6585404-.39694862 1.0751859-.28162007 1.3842976l.03179926.0751154.020901.0380887.06794218.1041085.03881867.0483488c.15765379.1763981.4878045.3399983 1.12218056.3881382l.18065341.0101893.20992926.0035672 12.60247591-.000352.1913792-.003263c.7299971-.0257191 1.1052487-.201046 1.3109976-.4393325l.05205-.066483.0300569-.0472272.0482595-.0958512.0252457-.061757c.0834484-.238125.0615684-.6073581-.2312175-1.1934968l-.0866918-.1652983-.1048732-.1820568-3.9274244-6.5262616c-.5257867-.1709093-1.066388-.3039726-1.6610777-.3039726z" fill="#9b6fb8"/><path d="m17.9604231 15c.5946897 0 1.135291.1330633 1.6610777.3039726l3.9274244 6.5262616.1048732.1820568.0866918.1652983c.1972752.3949323.2715623.691392.27351.9156238-.0016189.1120394-.0201158.2115406-.051169.3018923l-.0163692.0377377-.0482595.0958512-.0300569.0472272-.05205.066483c-.1330239.1540606-.3369013.2818036-.6616953.3598118l.028026-.0063846c-.0256847.0061935-.0521996.0121238-.0795683.0177727l.0007664.0001845c-.1698376.0347118-.3714866.058869-.6112192.0679959l-.0594052.0002152-.1192812.003-2.5377188-.001h-3.77l.0288171-8.6905584c.6112427-.2115825 1.2303757-.3934416 1.925606-.3934416z" fill="#8556a3" fill-rule="nonzero"/></g></svg>