<svg height="32" viewBox="0 0 32 32" width="32" xmlns="http://www.w3.org/2000/svg"><path d="m20.11 5.915c.33 0 .6.27.6.6 0 .297-.2187.5454-.50301.59211l-.09699.00789h-.98v3.45l6.16 10.27c1.0028 1.6652.744464 2.873344.4397453 3.5154157l-.0797453.1545843-.0422842.072631-.1014681.1546471c-.3964263.5594265-1.2393562 1.283399-2.9377555 1.3480589l-.2484922.004663h-12.64c-1.8656 0-2.770944-.766656-3.18624768-1.3527219l-.10146816-.1546471c-.01500416-.024791-.02908416-.049031-.04228416-.072631l-.07974528-.1544077c-.29147008-.6129165-.54050304-1.7378662.31599744-3.2998873l.12374784-.215705 6.18-10.27v-3.45h-.84c-.33 0-.6-.27-.6-.6 0-.297.2106-.5454.49329-.59211l.09671-.00789zm-3.46 15.956h-1.3l-.0971901.0071901c-.3173554.0473554-.5628099.3228099-.5628099.6528099 0 .363.297.66.66.66h1.3l.0971901-.0071901c.3173554-.0473554.5628099-.3228099.5628099-.6528099 0-.363-.297-.66-.66-.66zm0-3.85h-1.3l-.0971901.0071901c-.3173554.0473554-.5628099.3228099-.5628099.6528099 0 .363.297.66.66.66h1.3l.0971901-.0071901c.3173554-.0473554.5628099-.3228099.5628099-.6528099 0-.363-.297-.66-.66-.66zm0-3.85h-1.3l-.0971901.0071901c-.3173554.0473554-.5628099.3228099-.5628099.6528099 0 .363.297.66.66.66h1.3l.0971901-.0071901c.3173554-.0473554.5628099-.3228099.5628099-.6528099 0-.363-.297-.66-.66-.66z"/></svg>