<svg height="32" viewBox="0 0 32 32" width="32" xmlns="http://www.w3.org/2000/svg"><path d="m25.3283122 12.2618849-5.69-5.69000002c-.13-.13-.31-.19-.49-.17h-9.24000004c-.33 0-.6.27-.6.6v5.62000002c0 .33.27.6.6.6.33000004 0 .60000004-.27.60000004-.6v-5.02000002h8.11v5.09000002c0 .33.27.6.6.6h5.09v11.11h-13.8v-5.02c0-.33-.27-.6-.60000004-.6-.33 0-.6.27-.6.6v5.62c0 .33.27.6.6.6h15.00000004c.33 0 .6-.27.6-.6v-12.25c.02-.18-.05-.36-.18-.49zm-5.51-.17v-3.64000002l3.64 3.64000002zm-7.17 6.92c0 .23.14.44.34.53.08.04.17.06.26.06.13 0 .27-.04.37-.13l3.7-2.96c.14-.11.23-.29.23-.47s-.08-.35-.22-.47l-3.79-3.04c-.18-.15-.43-.17-.64-.07s-.34.32-.34.55l.03 2.36h-5.50000004c-.33 0-.6.27-.6.6s.27.6.6.6h5.52000004z"/></svg>