<svg height="32" viewBox="0 0 32 32" width="32" xmlns="http://www.w3.org/2000/svg"><g fill="none" fill-rule="evenodd"><path d="m7.5 25.5603152v-15.62192831l5.3266025-5.30716125h11.4017818v20.92908956z" fill="#afdfef" transform="matrix(-1 0 0 1 31.728384 0)"/><path d="m24.2271863 9.9371933h-5.338486v-5.30596766h.0130815z" fill="#45889f"/><path d="m24.2283843 15.2756156-5.339684-5.3384223h5.338486l.001198.00119359z" fill="#8bc6da"/><path d="m13.6442027 19.5707842c.0911321.045566.1936557.068349.2961793.068349.1480896 0 .3075708-.045566.4214859-.1480896l4.2148595-3.3718876c.1594812-.1253066.2620048-.3303539.2620048-.5354011s-.0911321-.3987029-.2506133-.5354011l-4.3173831-3.4630196c-.2050472-.1708727-.489835-.1936557-.7290568-.0797406-.2392217.1139151-.3873114.3645284-.3873114.6265331l.0341746 2.6883969h-8.26533171c-.3759199 0-.68349072.3075708-.68349072.6834907s.30757082.6834908.68349072.6834908h8.28811471l.045566 2.7795289c0 .2620048.1594812.5012266.3873115.6037502z" fill="#252d4f" fill-rule="nonzero"/></g></svg>