<svg height="32" viewBox="0 0 32 32" width="32" xmlns="http://www.w3.org/2000/svg"><path d="m19.5547122 6.50236488.0836.06952 5.69 5.69000002c.104.104.1696.24.18144.3824l-.00144 12.3576c0 .297-.2187.5454-.50301.59211l-.09699.00789h-15.00000004c-.297 0-.5454-.2187-.59211-.50301l-.00789-.09699-.001-8.4307698-3.219.0007698c-.297 0-.5454-.2187-.59211-.50301l-.00789-.09699c0-.297.2187-.5454.50301-.59211l.09699-.00789 3.219-.0007698.001-8.36923022c0-.297.2187-.5454.50301-.59211l.09699-.00789h9.24000004c.144-.016.288.0192.4064.10048zm-5.0975079 5.97316432c-.1695044-.0969096-.3788921-.0993586-.5588921-.0136443s-.3012245.2595918-.3321866.4523615l-.0078134.0976385.03 2.36h-3.63952872l-.09699.00789c-.28431.04671-.50301.29511-.50301.59211s.2187.5454.50301.59211l.09699.00789h3.65952872l.04 2.44.0083382.0970554c.0328863.1904956.1602332.3558017.3316618.4329446.08.04.17.06.26.06.0975 0 .200625-.0225.2882812-.0717188l.0817188-.0582812 3.7-2.96.0656481-.0605093c.1018519-.1094907.1643519-.2594907.1643519-.4094907 0-.144-.0512-.2816-.14336-.39232l-.07664-.07768-3.79-3.04zm5.3611079-4.02364432v3.64000002h3.64z"/></svg>