<svg height="32" viewBox="0 0 32 32" width="32" xmlns="http://www.w3.org/2000/svg"><g fill="none" fill-rule="evenodd"><path d="m16 3.84700918c6.1994077 0 11.2523496 5.05294188 11.2523496 11.25234962 0 2.3858643-.7484028 4.6019231-2.0225333 6.4255009l1.0763811 4.4806824c.0660284.2746519-.1030943.5508279-.3777462.6168564-.1008856.0242536-.2067619.01725-.3035737-.0200811l-4.2317446-1.6315817c-1.6027422.8799973-3.4411042 1.3809726-5.3931329 1.3809726-6.19940769 0-11.25234958-5.0529419-11.25234958-11.2523495 0-6.19940774 5.05294189-11.25234962 11.25234958-11.25234962z" fill="#f7d776"/><path d="m16 3.84700918c6.1994077 0 11.2523496 5.05294188 11.2523496 11.25234962 0 2.3858643-.7484028 4.6019231-2.0225333 6.4255009l1.0763811 4.4806824c.0660284.2746519-.1030943.5508279-.3777462.6168564-.1008856.0242536-.2067619.01725-.3035737-.0200811l-4.2318969-1.6314981c-1.4958592.8212824-3.1969532 1.3124121-5.0041388 1.3742459l-.3888418.0066431z" fill="#e7c55c"/><circle cx="15.931364" cy="15.241788" fill="#6ec18d" r="6.894112"/><path d="m15.9313641 22.1359001c3.8075127 0 6.8941116-3.0865989 6.8941116-6.8941117 0-3.8075127-3.0865989-6.89411158-6.8941116-6.89411158z" fill="#009f27"/><path d="m15.9313641 7.74767682c4.1388836 0 7.4941116 3.35522808 7.4941116 7.49411158 0 4.1388836-3.355228 7.4941117-7.4941116 7.4941117s-7.49411163-3.3552281-7.49411163-7.4941117c0-4.0577289 3.22494043-7.36223271 7.25157113-7.49026103zm-3.1952658 10.39241618-2.3929451.0006816c.8199807 1.577413 2.2882544 2.7638533 4.0517544 3.2062541-.7443252-.9589174-1.3065027-2.0445167-1.6588093-3.2069357zm8.7834767.0006816-2.3929451-.0006816c-.3523066 1.162419-.9144841 2.2480183-1.6581152 3.206838 1.7628059-.4423031 3.2310796-1.6287434 4.0510603-3.2061564zm-3.6551977-.0002456h-3.8661529c.4101525 1.1731634 1.0673748 2.2474991 1.9323904 3.1540759.7792712-.8159191 1.3898472-1.7677229 1.8032889-2.8051607zm-5.4120045-4.5964599h-2.58349754c-.15092646.5400825-.23162279 1.1094771-.23162279 1.6977193 0 .588605.08079587 1.158339.23190202 1.6987166l2.58332541-.0000451c-.0953646-.555142-.1444242-1.1229403-.1444242-1.6985525 0-.5752653.0489815-1.142804.1443171-1.6978383zm5.7379276.000006-4.5179409.0001244c-.1083816.5527726-.1643038 1.1207484-.1643038 1.6977079 0 .5773314.0560223 1.1455951.1645092 1.6985473h4.5175744c.1085109-.5529522.1645332-1.1212159.1645332-1.6985473 0-.5770858-.0559742-1.1451071-.1643721-1.6978323zm3.8035525-.0000043-2.5835619-.0004553c.0953372.5550573.1443815 1.122767.1443815 1.6982919 0 .5756122-.0490596 1.1434105-.1444242 1.6985525l2.5833254.0000451c.1511062-.5403776.231902-1.1101116.231902-1.6987166 0-.5882422-.0806963-1.1576368-.2316228-1.6977176zm-7.5982697-4.40758348-.0305106.00762363c-1.7505909.44833964-3.2071841 1.63068295-4.0224373 3.19968785l2.3936746-.0002323c.3521479-1.1610559.9142359-2.2464424 1.6592733-3.20707918zm1.5363733.05265604-.1948951.20982492c-.7706575.86184752-1.3604081 1.86156162-1.7391345 2.94504792l3.8666392-.0005049c-.4101638-1.1732424-1.0674516-2.2476636-1.9326096-3.15436794zm1.5358641-.05259512.1390857.18317154c.6752377.91317202 1.1895881 1.93484062 1.5196935 3.02393982l2.3934931.0001392c-.7788862-1.4990143-2.1431705-2.64509428-3.7899509-3.13533799z" fill="#007b3d" fill-rule="nonzero"/></g></svg>