<svg height="32" viewBox="0 0 32 32" width="32" xmlns="http://www.w3.org/2000/svg"><path d="m15.7773247 3.30407803c6.5307786 0 11.8523496 5.32157104 11.8523496 11.85234957 0 2.3147964-.670626 4.5348393-1.9067122 6.4368469l-.0709869.1038035 1.0149253 4.2252843c.1243542.5172638-.1351126 1.0370153-.5950371 1.2598237l-.1096114.0460099-.1162274.0346498c-.1753866.0421643-.3577141.0408567-.5313327-.0028837l-.1283365-.0407453-3.9783554-1.5342167-.0974888.0527364c-1.4058455.7121306-2.9413759 1.1372918-4.5330256 1.2442331l-.399039.0200877-.4011219.00672c-6.5307785 0-11.85234954-5.321571-11.85234954-11.8523496 0-6.53077853 5.32157104-11.85234957 11.85234954-11.85234957zm0 1.2c-5.8680368 0-10.65234954 4.78431274-10.65234954 10.65234957 0 5.8680369 4.78431274 10.6523496 10.65234954 10.6523496 1.8070019 0 3.550437-.4537173 5.1043624-1.3069114.1239957-.0680808.2669646-.0896336.4036634-.062963l.1009541.0290713 4.0746954 1.5700259-1.0372613-4.3159224c-.0240618-.100163-.0216869-.2036315.0053029-.3007796l.0351273-.0946849.0511324-.0883321c1.2393066-1.7737368 1.914373-3.8790278 1.914373-6.0818534 0-5.86803683-4.7843127-10.65234957-10.6523496-10.65234957zm.1540394 18.23182207c-4.1388836 0-7.49411163-3.3552281-7.49411163-7.4941117 0-4.0577289 3.22494043-7.36223271 7.25157113-7.49026103l.2425405-.00385055.2425405.00385055c4.0266307.12802832 7.2515711 3.43253213 7.2515711 7.49026103 0 4.057729-3.2249404 7.3622328-7.2515711 7.4902611zm-3.1952658-4.5958071-2.3931879.0002145c.8199336 1.5776459 2.2883231 2.7642767 4.0519972 3.2067212-.7442196-.9587134-1.3064697-2.0444076-1.6588093-3.2069357zm8.7837195.0002145-2.3931879-.0002145c-.3523396 1.1625281-.9145897 2.2482223-1.6583247 3.2071082 1.67503-.4204861 3.084003-1.5124448 3.9237033-2.9732235zm-3.655089-.0007838h-3.8668558c.4101285 1.173555 1.0674791 2.2482454 1.9327418 3.1550812.8661042-.9068358 1.5238237-1.9815262 1.934114-3.1550812zm-5.4121838-4.5964571h-2.58339051c-.15110615.5403829-.23190202 1.1101169-.23190202 1.6987218 0 .5882423.08069633 1.1576369.23162279 1.6977177l2.58355304.0006532c-.0953307-.5550463-.1443726-1.1227436-.1443726-1.6982519 0-.5756117.0490405-1.1434873.1444893-1.6988408zm5.7376163.0002994-4.5176052-.0001691c-.1085106.5530885-.1645004 1.1214022-.1645004 1.6987105 0 .5770846.0559744 1.1451093.1643701 1.6978382h4.5178527c.1084196-.5527289.164394-1.1207536.164394-1.6978382 0-.5773326-.056022-1.1455929-.1645112-1.6985414zm3.8034124-.0002941-2.5833343.0002431c.0953711.5551528.1444331 1.1229636.1444331 1.6985924 0 .5755083-.0490419 1.1432056-.1443726 1.6982519l2.583553-.0006532c.1509265-.5400808.2316228-1.1094754.2316228-1.6977177 0-.5886049-.0807958-1.1583389-.231902-1.6987165zm-7.5985987-4.4058003-.0299024.00683935c-1.750394.44828921-3.2068564 1.63041695-4.0221622 3.19915845l2.3934652.0000806c.3520562-1.1606584.9139106-2.2456949 1.6585994-3.2060784zm1.5369815.05187176-.1948951.20982492c-.7704195.86158142-1.3600439 1.86094442-1.7387836 2.94404442l3.866214.000286c-.4101689-1.1731595-1.0674295-2.2475057-1.9325353-3.15415534zm1.5358641-.05259512.1390857.18317154c.6752377.91317202 1.1895881 1.93484062 1.5196935 3.02393982l2.393218-.0003902c-.778937-1.4987636-2.1431053-2.64463609-3.7897048-3.13481724z"/></svg>