<svg height="32" viewBox="0 0 32 32" width="32" xmlns="http://www.w3.org/2000/svg"><path d="m15.7773247 3.90407803c6.1994077 0 11.2523496 5.05294189 11.2523496 11.25234957 0 2.3858644-.7484028 4.6019231-2.0225333 6.4255009l1.0763811 4.4806824c.0660285.274652-.1030943.550828-.3777462.6168564-.1008856.0242537-.2067618.0172501-.3035736-.020081l-4.2317447-1.6315818c-1.6027421.8799974-3.4411042 1.3809727-5.3931329 1.3809727-6.19940765 0-11.25234954-5.0529419-11.25234954-11.2523496 0-6.19940768 5.05294189-11.25234957 11.25234954-11.25234957zm-1.3929342 18.19322797-.1953313-.249003c-.7888322-1.0424732-1.3851536-2.2170233-1.7596076-3.4720426l-2.80393042-.0006265c.93360902 1.8647781 2.67150502 3.2569417 4.75886932 3.7216721zm7.8300579-3.7216721-2.8039304.0006265c-.4046048 1.3560728-1.0682448 2.6181961-1.9538857 3.7212649 2.0863111-.4649497 3.8242071-1.8571133 4.7578161-3.7218914zm-4.0631341.0000612h-4.4627816c.4620661 1.3625781 1.2219443 2.6082714 2.2306396 3.6510841 1.0096337-1.0428127 1.7699084-2.288506 2.232142-3.6510841zm4.5313488-5.0902226-2.9866523-.0001665c.1136487.6350722.1721819 1.2854867.1721819 1.9452349 0 .6597292-.0585303 1.3101296-.1721819 1.9451897l2.9865056.0001263c.1774192-.6178508.272455-1.2705509.272455-1.9454477 0-.562259-.0659607-1.1091121-.1905662-1.6332432zm-13.79766489 1.9449367c0 .6748968.09503582 1.3275969.27245499 1.9454477l2.9864949-.0001263c-.1136409-.6350601-.1721712-1.2854605-.1721712-1.9451897 0-.6595333.0584726-1.3098354.1721712-1.9449641l-2.98664161-.0001043c-.17732485.6176996-.27230828 1.2702259-.27230828 1.9449367zm9.58950349-1.9450951-5.1091592.0003741c-.127644.6326758-.1935656 1.2834744-.1935656 1.9448527 0 .661622.0660028 1.3125702.1936977 1.9452786h5.1089929c.1277225-.6327084.1937252-1.2836566.1937252-1.9452786 0-.6616077-.0659993-1.3125367-.193691-1.9452268zm-1.0179274-4.92158008.1942468.24904295c.7889929 1.0426512 1.3853907 2.21737563 1.7598439 3.47257693l2.8037834-.0001695c-.9334606-1.8644817-2.6709527-3.25649919-4.7578741-3.72145038zm-1.5360872.07035492-.2448592.26155594c-.8886294.98805656-1.5632491 2.13992502-1.9870662 3.38951232l4.4628375.0001682c-.4621063-1.3626028-1.2220643-2.60832932-2.2309121-3.65123646zm-1.5364613-.07006178-.0770989.01719441c-2.0528633.48160855-3.7593698 1.86230073-4.68140572 3.70396283l2.80401982-.0001556c.363839-1.2188018.937445-2.36262991 1.6951378-3.38483512z" fill-rule="evenodd"/></svg>