<svg height="32" viewBox="0 0 32 32" width="32" xmlns="http://www.w3.org/2000/svg"><g fill="none" fill-rule="evenodd"><path d="m12.3235886 17.9597449c3.8000865 0 7.1478707 2.4986756 8.2288774 6.1417626l.3116993 1.0504539c.1287263.4338189-.1963237.8693286-.6488382.8693286h-15.78347705c-.45251442 0-.77756449-.4355097-.64883818-.8693286l.31169933-1.0504539c1.0810067-3.643087 4.42879084-6.1417626 8.2288774-6.1417626zm-.119757-11.9810349c2.9750437 0 5.3867931 2.41174939 5.3867931 5.386793 0 2.9750437-2.4117494 5.3867931-5.3867931 5.3867931-2.9750436 0-5.38679299-2.4117494-5.38679299-5.3867931 0-2.97504361 2.41174939-5.386793 5.38679299-5.386793z" fill="#d17d84" fill-rule="nonzero"/><path d="m23.4004437 16.7542172c-3.6706095 0-6.6462265 2.975617-6.6462265 6.6462265 0 3.6706096 2.975617 6.6462266 6.6462265 6.6462266 3.6706096 0 6.6462266-2.975617 6.6462266-6.6462266 0-3.6706095-2.975617-6.6462265-6.6462266-6.6462265z" fill="#fff" fill-rule="nonzero"/><path d="m23.4004437 28.8466703c-3.0078678 0-5.4462265-2.4383587-5.4462265-5.4462266 0-3.0078678 2.4383587-5.4462265 5.4462265-5.4462265 3.0078679 0 5.4462266 2.4383587 5.4462266 5.4462265 0 3.0078679-2.4383587 5.4462266-5.4462266 5.4462266z" fill="#b75c64"/><path d="m26.0874495 20.713438c.2883872.2883871.3105708.742172.0665509 1.056005l-.0665509.0753658-1.5556349 1.5556349 1.5556349 1.555635c.3124194.3124194.3124194.8189514 0 1.1313708-.2883872.2883872-.742172.3105708-1.056005.0665509l-.0753658-.0665509-1.555635-1.5556349-1.5556349 1.5556349c-.3124194.3124194-.8189514.3124194-1.1313708 0-.2883872-.2883872-.3105708-.742172-.0665509-1.056005l.0665509-.0753658 1.5556349-1.555635-1.5556349-1.5556349c-.3124195-.3124194-.3124195-.8189514 0-1.1313708.2883871-.2883872.742172-.3105708 1.056005-.0665509l.0753658.0665509 1.5556349 1.5556349 1.555635-1.5556349c.3124194-.3124195.8189514-.3124195 1.1313708 0z" fill="#fff" fill-rule="nonzero"/></g></svg>