<svg height="32" viewBox="0 0 32 32" width="32" xmlns="http://www.w3.org/2000/svg"><g fill="none" fill-rule="evenodd"><path d="m12.3235886 17.9597449c3.8000865 0 7.1478707 2.4986756 8.2288774 6.1417626l.3116993 1.0504539c.1287263.4338189-.1963237.8693286-.6488382.8693286h-15.78347705c-.45251442 0-.77756449-.4355097-.64883818-.8693286l.31169933-1.0504539c1.0810067-3.643087 4.42879084-6.1417626 8.2288774-6.1417626zm-.119757-11.9810349c2.9750437 0 5.3867931 2.41174939 5.3867931 5.386793 0 2.9750437-2.4117494 5.3867931-5.3867931 5.3867931-2.9750436 0-5.38679299-2.4117494-5.38679299-5.3867931 0-2.97504361 2.41174939-5.386793 5.38679299-5.386793z" fill="#007880" fill-rule="nonzero"/><path d="m23.4004437 16.7542172c-3.6706095 0-6.6462265 2.975617-6.6462265 6.6462265 0 3.6706096 2.975617 6.6462266 6.6462265 6.6462266 3.6706096 0 6.6462266-2.975617 6.6462266-6.6462266 0-3.6706095-2.975617-6.6462265-6.6462266-6.6462265z" fill="#fff" fill-rule="nonzero"/><path d="m23.4004437 28.8466703c-3.0078678 0-5.4462265-2.4383587-5.4462265-5.4462266 0-3.0078678 2.4383587-5.4462265 5.4462265-5.4462265 3.0078679 0 5.4462266 2.4383587 5.4462266 5.4462265 0 3.0078679-2.4383587 5.4462266-5.4462266 5.4462266z" fill="#4da86d"/><path d="m24.8268403 20.8254872c.2369366-.3729247.7313269-.4831648 1.1042516-.2462282.3418477.217192.4629673.6507165.2982784 1.0087093l-.0520502.0955424-2.8600926 4.501622c-.25719.4048025-.8026767.4881622-1.1677128.2016628l-.0808225-.0727028-1.9775474-2.0318574c-.3081592-.3166223-.3012985-.8231078.0153238-1.1312671.2878384-.2801447.7325886-.2999425 1.0425981-.0633438l.0886689.0786676 1.2712644 1.306708z" fill="#fff" fill-rule="nonzero"/></g></svg>