<svg height="32" viewBox="0 0 32 32" width="32" xmlns="http://www.w3.org/2000/svg"><path d="m22.9298148 13.4573469c.8060686 0 1.5144583.4988686 1.8415087 1.2396252l.0602414.1513004.0636069.1549337c.1851262.4029132.491739.7214752.8580234.8980013l.140033.0594267.0268694.0107127 1.5155778.0006085c.6157184 0 1.1148567.4991383 1.1148567 1.1148567v10.0663974c0 .6157183-.4991383 1.1148567-1.1148567 1.1148567h-9.0117211c-.6157184 0-1.1148567-.4991384-1.1148567-1.1148567v-10.0663974c0-.6157184.4991383-1.1148567 1.1148567-1.1148567l1.5131433-.0006085.0248425-.0091101.1412334-.0598606c.3691505-.1775446.676015-.4959716.86033-.8965311l.0632559-.153945.0604719-.1519421c.3281263-.7437593 1.0364753-1.2426111 1.8425835-1.2426111zm-10.6062262 4.502398c1.3455242 0 2.6343429.3132607 3.78591.8796651l-.000885 7.1813-11.67676355.00058c-.45251442 0-.77756449-.4355097-.64883818-.8693286l.31169933-1.0504539c1.0810067-3.643087 4.42879084-6.1417626 8.2288774-6.1417626zm10.6062262-3.302398c-.335012 0-.6430934.2335784-.7739416.6008624-.3106537.854663-.9612907 1.5287177-1.7834547 1.8316292-.1018919.0366416-.1953892.0951034-.2763583.1705548l-.07664.0809357-.0464202.062671h5.913l-.0467682-.0630053c-.0484272-.057611-.1031408-.1084256-.1629511-.151025l-.0933892-.0575604-.1001417-.0441734c-.8177473-.3013036-1.4683334-.9753466-1.7802987-1.8336542-.1295338-.363631-.4376584-.5972348-.7726363-.5972348zm-10.7259832-8.6786369c2.9750437 0 5.3867931 2.41174939 5.3867931 5.386793 0 2.9750437-2.4117494 5.3867931-5.3867931 5.3867931-2.9750436 0-5.38679299-2.4117494-5.38679299-5.3867931 0-2.97504361 2.41174939-5.386793 5.38679299-5.386793z"/></svg>