<svg height="32" viewBox="0 0 32 32" width="32" xmlns="http://www.w3.org/2000/svg"><path d="m23.4004437 17.9542172c3.0078679 0 5.4462266 2.4383587 5.4462266 5.4462265 0 3.0078679-2.4383587 5.4462266-5.4462266 5.4462266-3.0078678 0-5.4462265-2.4383587-5.4462265-5.4462266 0-3.0078678 2.4383587-5.4462265 5.4462265-5.4462265zm-2.6870057 2.7592208c-.2840177.2840176-.3098375.7284589-.0774594 1.0416445l.0774594.0897263 1.5556349 1.5542207-1.5556349 1.5570492-.0665509.0753658c-.2440199.313833-.2218363.7676178.0665509 1.056005.2840176.2840177.7284589.3098375 1.0416445.0774594l.0897263-.0774594 1.5556349-1.5570491 1.555635 1.5570491.0753658.0665509c.313833.2440199.7676178.2218363 1.056005-.0665509.2840177-.2840177.3098375-.7284589.0774594-1.0416445l-.0774594-.0897263-1.5556349-1.5570492 1.5556349-1.5542207.0665509-.0753658c.2440199-.313833.2218363-.7676179-.0665509-1.056005-.2840177-.2840177-.7284589-.3098375-1.0416445-.0774594l-.0897263.0774594-1.555635 1.5542207-1.5556349-1.5542207-.0753658-.0665509c-.313833-.2440199-.7676179-.2218363-1.056005.0665509zm-8.3898494-2.7536931c2.0316891 0 3.9340908.7142289 5.4299098 1.9357227-.6338693 1.0177298-.9992812 2.2186797-.9992812 3.5049761 0 .9306688.1912894 1.8166595.5366954 2.6208463h-12.85906255c-.45251442 0-.77756449-.4355097-.64883818-.8693286l.31169933-1.0504539c1.0810067-3.643087 4.42879084-6.1417626 8.2288774-6.1417626zm-.119757-11.9810349c2.9750437 0 5.3867931 2.41174939 5.3867931 5.386793 0 2.9750437-2.4117494 5.3867931-5.3867931 5.3867931-2.9750436 0-5.38679299-2.4117494-5.38679299-5.3867931 0-2.97504361 2.41174939-5.386793 5.38679299-5.386793z"/></svg>