<svg height="32" viewBox="0 0 32 32" width="32" xmlns="http://www.w3.org/2000/svg"><path d="m23.4004437 17.9542172c3.0078679 0 5.4462266 2.4383587 5.4462266 5.4462265 0 3.0078679-2.4383587 5.4462266-5.4462266 5.4462266-3.0078678 0-5.4462265-2.4383587-5.4462265-5.4462266 0-3.0078678 2.4383587-5.4462265 5.4462265-5.4462265zm1.4907751 2.7835603-.0643785.0877097-2.3178403 3.6475128-1.2712644-1.306708-.0886689-.0786676c-.3100095-.2365987-.7547597-.2168009-1.0425981.0633438-.2878385.2801448-.3196756.7241956-.0915607 1.0404999l.0762369.0907672 1.9775474 2.0318574.0808225.0727028c.3369564.264461.8276695.2137757 1.103457-.1139749l.0642558-.0876879 2.8600926-4.501622.0520502-.0955424c.1646889-.3579928.0435693-.7915173-.2982784-1.0087093-.3418476-.2171919-.7857601-.1426589-1.0398731.1585185zm-12.5676302-2.7780326c1.7055361 0 3.3199626.5033206 4.6792384 1.3875268l.2121645.1523557c.2508655.1769844.366998.5533529.1900136.8042184l-.0395989.050083c-.2132793.2519512-.5835271.2996113-.8536666.1098956l-.064979-.0447882c-1.1190805-.7545455-2.4483396-1.204493-3.8590157-1.2546042l-.2641563-.0046871c-3.18047624 0-5.99262989 2.0347419-6.99881743 5.0312159l-.07963767.2519094-.1131335.3781298 11.1746233.0005227c.3313034.0000155.5998697.2685943.5998697.5998977 0 .3312988-.2685708.5998696-.5998697.5998696h-11.87477325c-.45251442 0-.77756449-.4355097-.64883818-.8693286l.31169933-1.0504539c1.05526845-3.5563468 4.27065757-6.0221293 7.9582364-6.1375314zm-.119757-11.9810349c2.9750437 0 5.3867931 2.41174939 5.3867931 5.386793 0 2.9024816-2.2955378 5.2688117-5.170139 5.3825158l-.2166541.0042773c-2.9750436 0-5.38679299-2.4117494-5.38679299-5.3867931 0-2.90248157 2.29553779-5.26881159 5.17013899-5.38251568zm0 1.2c-2.3123019 0-4.18679299 1.87449109-4.18679299 4.186793 0 2.312302 1.87449109 4.1867931 4.18679299 4.1867931 2.312302 0 4.1867931-1.8744911 4.1867931-4.1867931 0-2.31230191-1.8744911-4.186793-4.1867931-4.186793z"/></svg>