<svg height="32" viewBox="0 0 32 32" width="32" xmlns="http://www.w3.org/2000/svg"><g fill="none" fill-rule="evenodd"><path d="m27.4356754 16.5719554.5148567 10.5812541-9.5265778.5148567-.5148567-10.5812541z" stroke="#000" stroke-width="1.2"/><path d="m24.1011456 16.1749398c-.1817341-.5101693-.6376745-.8719399-1.1713308-.8719399-.533708 0-.9895966.3617706-1.1713307.8719399-.219686.6043949-.6763512 1.0790677-1.2455259 1.2887834-.49995.1797883-.8606224.6918139-.8606224 1.2953088h6.5549581c0-.6034949-.3607241-1.1155205-.8606742-1.2953088-.5691747-.2097157-1.0257881-.6843885-1.2454741-1.2887834z" fill="#fff"/><path d="m24.1011456 16.1749398c-.1817341-.5101693-.6376745-.8719399-1.1713308-.8719399-.533708 0-.9895966.3617706-1.1713307.8719399-.219686.6043949-.6763512 1.0790677-1.2455259 1.2887834-.49995.1797883-.8606224.6918139-.8606224 1.2953088h6.5549581c0-.6034949-.3607241-1.1155205-.8606742-1.2953088-.5691747-.2097157-1.0257881-.6843885-1.2454741-1.2887834z" stroke="#000" stroke-linecap="round" stroke-linejoin="round" stroke-width="1.2"/><g fill="#000" fill-rule="nonzero"><path d="m12.2038316 5.97871c2.9750437 0 5.3867931 2.41174939 5.3867931 5.386793 0 2.9024816-2.2955378 5.2688117-5.170139 5.3825158l-.2166541.0042773c-2.9750436 0-5.38679299-2.4117494-5.38679299-5.3867931 0-2.90248157 2.29553779-5.26881159 5.17013899-5.38251568zm0 1.2c-2.3123019 0-4.18679299 1.87449109-4.18679299 4.186793 0 2.312302 1.87449109 4.1867931 4.18679299 4.1867931 2.312302 0 4.1867931-1.8744911 4.1867931-4.1867931 0-2.31230191-1.8744911-4.186793-4.1867931-4.186793z"/><path d="m12.3235886 17.9597449c1.1234053 0 2.2072817.2183715 3.20475.6201253.8622861.3157346.4716614 1.4659362-.4061911 1.1304615-.7911651-.3244865-1.6466625-.5143647-2.5344026-.5458997l-.2641563-.0046871c-3.18047624 0-5.99262989 2.0347419-6.99881743 5.0312159l-.07963767.2519094-.1131335.3781298 10.1746233.0005227c.3313034.0000155.5998697.2685943.5998697.5998977 0 .3312988-.2685708.5998696-.5998697.5998696h-10.87477325c-.45251442 0-.77756449-.4355097-.64883818-.8693286l.31169933-1.0504539c1.05526845-3.5563468 4.27065757-6.0221293 7.9582364-6.1375314z"/></g></g></svg>