<svg height="32" viewBox="0 0 32 32" width="32" xmlns="http://www.w3.org/2000/svg"><g fill="none" fill-rule="evenodd"><path d="m12.3235886 17.9597449c1.3455242 0 2.6343429.3132607 3.78591.8796651l-.000885 7.1813-11.67676355.00058c-.45251442 0-.77756449-.4355097-.64883818-.8693286l.31169933-1.0504539c1.0810067-3.643087 4.42879084-6.1417626 8.2288774-6.1417626zm-.119757-11.9810349c2.9750437 0 5.3867931 2.41174939 5.3867931 5.386793 0 2.9750437-2.4117494 5.3867931-5.3867931 5.3867931-2.9750436 0-5.38679299-2.4117494-5.38679299-5.3867931 0-2.97504361 2.41174939-5.386793 5.38679299-5.386793z" fill="#007880" fill-rule="nonzero"/><path d="m18.4239543 15.9719554h9.0117211c.6157184 0 1.1148567.4991383 1.1148567 1.1148567v10.0663974c0 .6157183-.4991383 1.1148567-1.1148567 1.1148567h-9.0117211c-.6157184 0-1.1148567-.4991384-1.1148567-1.1148567v-10.0663974c0-.6157184.4991383-1.1148567 1.1148567-1.1148567z" fill="#f8813d"/><path d="m24.2676607 15.0532409c-.2075692-.5826943-.7283256-.995894-1.3378459-.995894-.6095794 0-1.1302766.4131997-1.3378458.995894-.2509164.6903151-.7725006 1.2324669-1.4225886 1.4719954-.5710224.2053469-.9829675.7901616-.9829675 1.4794487h7.4868039c0-.6892871-.4120043-1.2741018-.9830267-1.4794487-.6500879-.2395285-1.171613-.7816803-1.4225294-1.4719954z" fill="#85cfe8"/><circle cx="22.929815" cy="15.496653" fill="#69b5cf" r="1"/><g fill="#dc611a"><path d="m22.1520737 20.5364708v-.7778497h4.4084038v.7778497z" fill-rule="nonzero"/><rect height="1.814983" rx=".831169" width="1.814983" x="19.393385" y="19.240055"/><path d="m22.1520737 23.4807537v-.7778498h4.4084038v.7778498z" fill-rule="nonzero"/><rect height="1.814983" rx=".831169" width="1.814983" x="19.393385" y="22.184337"/><path d="m22.1520737 26.4250366v-.7778498h4.4084038v.7778498z" fill-rule="nonzero"/><rect height="1.814983" rx=".831169" width="1.814983" x="19.393385" y="25.12862"/></g></g></svg>