<svg height="32" viewBox="0 0 32 32" width="32" xmlns="http://www.w3.org/2000/svg"><path d="m23.4004437 17.9542172c3.0078679 0 5.4462266 2.4383587 5.4462266 5.4462265 0 3.0078679-2.4383587 5.4462266-5.4462266 5.4462266-3.0078678 0-5.4462265-2.4383587-5.4462265-5.4462266 0-3.0078678 2.4383587-5.4462265 5.4462265-5.4462265zm1.4907751 2.7835603-.0643785.0877097-2.3178403 3.6475128-1.2712644-1.306708-.0886689-.0786676c-.3100095-.2365987-.7547597-.2168009-1.0425981.0633438-.2878385.2801448-.3196756.7241956-.0915607 1.0404999l.0762369.0907672 1.9775474 2.0318574.0808225.0727028c.3369564.264461.8276695.2137757 1.103457-.1139749l.0642558-.0876879 2.8600926-4.501622.0520502-.0955424c.1646889-.3579928.0435693-.7915173-.2982784-1.0087093-.3418476-.2171919-.7857601-.1426589-1.0398731.1585185zm-12.5676302-2.7780326c2.0316891 0 3.9340908.7142289 5.4299098 1.9357227-.6338693 1.0177298-.9992812 2.2186797-.9992812 3.5049761 0 .9306688.1912894 1.8166595.5366954 2.6208463h-12.85906255c-.45251442 0-.77756449-.4355097-.64883818-.8693286l.31169933-1.0504539c1.0810067-3.643087 4.42879084-6.1417626 8.2288774-6.1417626zm-.119757-11.9810349c2.9750437 0 5.3867931 2.41174939 5.3867931 5.386793 0 2.9750437-2.4117494 5.3867931-5.3867931 5.3867931-2.9750436 0-5.38679299-2.4117494-5.38679299-5.3867931 0-2.97504361 2.41174939-5.386793 5.38679299-5.386793z"/></svg>