<svg height="32" viewBox="0 0 32 32" width="32" xmlns="http://www.w3.org/2000/svg"><g fill="none"><path d="m16.787798 5.75462442c.655707.01569271 1.7022008 1.1223895 1.7022008 2.81018297 0 1.52404821-.1603763 2.37011311-.6753842 3.95900571l6.6783648.9148175c.2864544.0392419.5047203.2673057.5384055.5466135l.0042325.0948118c-.1581194 5.2107352-1.9946725 9.0696332-2.0171014 9.1130959-.1872434.3504841-.4884065.5614726-1.1262965.5614726l-9.545658-1.1034856-.1403556-.02172s-.4950978-.0833253-.5211555-.5259001l-.001066-.0366772.001066-9.5430284c2.9190538-1.1928061 4.5108468-3.99444498 4.5362588-6.2134885.0033405-.30762529.2558605-.55570018.5664888-.55570018z" fill="#f5a8c6"/><path d="m23.018516 23.1931518c-.1872434.3504841-.4884065.5614726-1.1262965.5614726l-9.545658-1.1034856-.1403556-.02172s-.4950978-.0833253-.5211555-.5259001l-.001066-.0366772-.0007901-2.8091009 13.058332-2.0662394c-.5618689 3.565402-1.7053415 5.9674121-1.7230103 6.0016506z" fill="#ff82bb"/><path d="m5.559269 12.520202h4.468787v11.234423h-4.468787z" fill="#6bbfdd"/></g></svg>