<svg height="32" viewBox="0 0 32 32" width="32" xmlns="http://www.w3.org/2000/svg"><path d="m16.787798 5.75462442c.655707.01569271 1.7022008 1.1223895 1.7022008 2.81018297 0 1.52404821-.1603763 2.37011311-.6753842 3.95900571l6.6783648.9148175c.2864544.0392419.5047203.2673057.5384055.5466135l.0042325.0948118c-.1581194 5.2107352-1.9946725 9.0696332-2.0171014 9.1130959-.1872434.3504841-.4884065.5614726-1.1262965.5614726l-9.545658-1.1034856-.1403556-.02172s-.4950978-.0833253-.5211555-.5259001l-.001066-.0366772-.0046318-8.8782433c0-.302248.2065296-.5686569.5137934-.6647851 2.9190539-1.1928061 4.0027512-3.99444498 4.0281632-6.2134885.0033405-.30762529.2558605-.55570018.5664888-.55570018zm-7.35974154 6.76557748c.29823376 0 .54564675.2175896.59214704.5026769l.007853.0973231v10.0038638c0 .2982337-.21758966.5456467-.50267693.592147l-.09732311.007853h-3.26878716c-.29823377 0-.54564675-.2175897-.59214701-.5026769l-.00785299-.0973231v-10.0038638c0-.2982338.21758961-.5456467.50267688-.592147l.09732312-.007853z"/></svg>