<svg height="32" viewBox="0 0 32 32" width="32" xmlns="http://www.w3.org/2000/svg"><path d="m17.8021534 5.15479617c1.1687488.0279711 2.2878454 1.62267966 2.2878454 3.41001122 0 1.08413582-.0765039 1.85094411-.3092614 2.79058871l-.0947642.3614258-.0889732.3081781 5.9774139.8191826c.4696676.0643406.8505338.3901925.9991839.8505946l.0346758.1288048.0225144.1349044.0045533.139768c-.070922 2.3371946-.4694619 4.5783056-1.0840018 6.6469413l-.1517017.4925037c-.332113 1.0415159-.6771067 1.8995616-.8519099 2.2381797-.2905417.543839-.7688662.8324209-1.5285683.8704782l-.1958417.0042978-9.5685141-1.106574-.1481779-.0229834c-.1357574-.0228481-.3033722-.0764508-.4787199-.1856554-.2686249-.1672967-.4639027-.4211966-.524873-.7627461l-.0177294-.1517476-.0013191-.053794-.0046319-8.8785564c0-.5705005.3821944-1.0645804.8868342-1.2202034 2.3473172-.9591787 3.6271193-3.21620015 3.6551578-5.66458527.0064624-.59511773.4609637-1.08041695 1.0404764-1.14247855zm-8.37409694 6.76540573c.54819965 0 1.01829584.3697067 1.16275874.9234504l.0274445.1309694.0097968.1455802v10.0038638c0 .5481996-.3697067 1.0182958-.92345044 1.1627587l-.13096942.0274445-.14558018.0097968h-3.26878716c-.54819965 0-1.01829582-.3697067-1.16275878-.9234504l-.02744446-.1309695-.00979676-.1455801v-10.0038638c0-.5481996.3697067-1.0182958.9234504-1.1627588l.13096942-.0274444.14558018-.0097968zm8.39194354-5.5592019-.0062349.22729413c-.1189341 2.70454185-1.5530401 5.20341097-4.1752897 6.39353997l-.2661807.1146096c-.0470027.0147049-.0757813.0403938-.0872329.0662838l-.0057093.0255577.0041809 8.8397864.0175405.0082587.1143892.0187779 9.4767564 1.0995162c.3814321 0 .5012672-.064848.5931068-.2366248l.0769032-.1616894c.1912466-.4256485.5329824-1.3234263.8387965-2.3528438.5333412-1.7953086.8964-3.727459 1.0090017-5.7028365l.0261866-.5938164-.0005129-.0497284-.0078734-.0158444-.0162776-.0081614-6.6783647-.9148174c-.3702648-.0507197-.60457-.4239376-.4893373-.7794513.5107628-1.5757957.6461504-2.35418496.6461504-3.77400321 0-1.14034957-.6277333-2.09488553-1.0484897-2.2006925zm-8.39194316 6.7591881-3.22053048-.00193-.04825706.0019438-.00194377 9.9556067.00197121.0489913 3.22050265.0012095.04899128-.0019712.00120956-9.9555792z"/></svg>