<svg height="32" viewBox="0 0 32 32" width="32" xmlns="http://www.w3.org/2000/svg"><g fill="none" fill-rule="evenodd"><path d="m25.0511579 4.74884211c1.2150264 0 2.2.98497356 2.2 2.2v18.10231579c0 1.2150264-.9849736 2.2-2.2 2.2h-18.10231579c-1.21502644 0-2.2-.9849736-2.2-2.2v-18.10231579c0-1.21502644.98497356-2.2 2.2-2.2z" fill="#d0effa"/><path d="m21.375 9.835c-.33 0-.6.27-.6.6v6c0 .77-.63 1.4-1.41 1.4h-6.41l.03-2.26c0-.23-.13-.45-.34-.55s-.46-.07-.64.07l-3.77 3.04c-.14.11-.22.29-.22.47s.08.35.23.47l3.7 2.96c.11.09.24.13.37.13.09 0 .17-.02.26-.06.21-.1.34-.3.34-.53l.04-2.54h6.42c1.44 0 2.61-1.17 2.61-2.6v-6c-.01-.33-.28-.6-.61-.6z" fill="#005a7d"/></g></svg>