<svg height="32" viewBox="0 0 32 32" width="32" xmlns="http://www.w3.org/2000/svg"><path d="m15.8110863 5c1.5642002 0 2.832235 1.26803481 2.832235 2.83223503 0 1.30422434-.8815584 2.40254967-2.081313 2.73161367l-.0000419 14.115745c3.436145-.3205326 6.2413169-2.8141418 7.0276232-6.0929352l-1.7424758-.302343c-.2933448-.0464209-.5402257-.2670004-.6206679-.5532498-.0345193-.112263-.0422018-.2323359-.0236738-.3493167.0288566-.1821938.1176499-.353238.2597583-.4683676l2.8567163-2.6037594c.1727836-.1602548.4223319-.2375572.6580659-.2002206.2324285.036813.4354472.1743437.5601053.3769623l1.9795018 3.465409c.1548275.2595659.1362085.5899341-.0384997.8444849-.1725942.2514706-.4808431.3785183-.7820558.3308109l-1.6261236-.2830114c-.9669451 4.221405-4.7460921 7.370458-9.2607397 7.370458-4.4381282 0-8.16547661-3.0432101-9.20915954-7.1567445l-1.67093179.2985839c-.29153089.0567085-.59896566-.0661302-.77245962-.3076038-.07083378-.0936863-.1191203-.2038904-.14171953-.3201534-.03519755-.1810757-.0102597-.3721738.08390183-.5289641l1.79389712-3.4237881c.1075531-.2096857.31561276-.3676767.54990012-.4132176.23100218-.0449022.46881564.0148978.65525558.1626615l3.04536283 2.5793897c.2342671.1909581.3297636.5077707.252653.8067239-.0761775.2953358-.3223838.5201489-.62174803.5783394l-1.69274076.3028183c.85268337 3.1781875 3.61377979 5.5752463 6.97953829 5.8874255l-.0000869-14.1158632c-1.2002643-.3287281-2.0823123-1.42730115-2.0823123-2.73188757 0-1.56420022 1.2680348-2.83223503 2.8322351-2.83223503zm0 1.5c-.7357731 0-1.3322351.59646194-1.3322351 1.33223503s.596462 1.33223502 1.3322351 1.33223502c.735773 0 1.332235-.59646193 1.332235-1.33223502s-.596462-1.33223503-1.332235-1.33223503z"/></svg>