<svg height="32" viewBox="0 0 32 32" width="32" xmlns="http://www.w3.org/2000/svg"><g fill="none" transform="translate(2.5 9.5)"><path d="m9.64239229 12.4221306c.13914856.0695743.29569069.1043614.45223281.1043614.2261164 0 .4696264-.0695743.6435621-.2261164l6.4356208-5.14849662c.2435099-.19132926.4000521-.50441352.4000521-.81749777 0-.31308426-.1391486-.60877494-.3826586-.81749778l-6.5921629-5.28764517c-.3130842-.26090355-.74792347-.29569069-1.11318844-.12175499-.36526496.17393569-.59138136.55659423-.59138136.95664633l.05218071 4.10488244h-7.90303533c-.5739878 0-1.04361418.46962638-1.04361418 1.04361418s.46962638 1.04361418 1.04361418 1.04361418h7.93782246l.06957428 4.244031c0 .4000521.24350998.7653171.59138137.9218592z" fill="#89cca2" transform="matrix(-1 0 0 1 17.57386 0)"/><path d="m18.5335874 12.4221306c.1391485.0695743.2956906.1043614.4522328.1043614.2261164 0 .4696263-.0695743.643562-.2261164l6.4356208-5.14849662c.24351-.19132926.4000521-.50441352.4000521-.81749777 0-.31308426-.1391485-.60877494-.3826585-.81749778l-6.5921629-5.28764517c-.3130843-.26090355-.7479235-.29569069-1.1131885-.12175499-.3652649.17393569-.5913813.55659423-.5913813.95664633l.0521807 4.10488244h-4.4120191v2.08722836h4.4468062l.0695743 4.244031c0 .4000521.24351.7653171.5913814.9218592z" fill="#257843"/></g></svg>