<svg height="32" viewBox="0 0 32 32" width="32" xmlns="http://www.w3.org/2000/svg"><path d="m20.6426888 10.0979917c.3330092-.15857587.7294489-.1268607 1.0148854.1110031l6.0100247 4.8207058c.2220062.190291.3488669.45987.3488669.7453065s-.1427183.5708731-.3647245.7453065l-5.8673064 4.6938452c-.1585759.1427182-.3805821.2061486-.5867307.2061486-.1427182 0-.2854365-.0317152-.4122972-.0951456-.3171517-.1427182-.5391579-.4757275-.5391579-.840452l-.0634303-3.9631454h-7.2368523c-.0063981 0-.012782-.000064-.0191511-.0001914l-1.1096342-.0010594-.0634303 3.9643962c0 .3647245-.2220062.6977338-.5391579.840452-.1268607.0634304-.269579.0951456-.4122972.0951456-.2061486 0-.4281548-.0634304-.5867307-.2061486l-5.86730642-4.6938452c-.22200619-.1744334-.36472445-.45987-.36472445-.7453065s.12686068-.5550155.34886687-.7453065l6.0100247-4.8207058c.2854365-.2378638.6818762-.26957897 1.0148854-.1110031.3330093.1585758.45987.5074427.45987.8721672v3.9643962h7.2368523l.0235007.0004449 1.1052846.0008059v-3.965647c0-.3647245.1268607-.7135914.45987-.8721672z"/></svg>