<svg height="32" viewBox="0 0 32 32" width="32" xmlns="http://www.w3.org/2000/svg"><path d="m5.12144844 6.4h8.04999996l.07.01c.03 0 .06.01.08.02l.005.00875.04375.01625.03125.015h.01l.03875.01625.04125.03375.03.02125 6.03 6.02875.06.07.04.07.03.07.00875.005.03.11625.00025 4.91875 2.1079131.0005236-.0341745-2.6883969c0-.2620047.1480897-.512618.3873114-.6265331.2050472-.0976416.4435716-.0948518.6366627.0155429l.0923941.0641977 4.3173831 3.4630196c.1594812.1366982.2506133.3303539.2506133.5354011 0 .1708727-.071197.3417454-.1872216.4664719l-.0747832.0689292-4.2148595 3.3718876c-.1139151.1025236-.2733963.1480896-.421486.1480896-.1025236 0-.2050472-.022783-.2961793-.068349-.1993514-.0897082-.3463731-.2840759-.3800137-.5067888l-.0072977-.0969614-.045566-2.7795289-2.1306962-.0005051.001 5.813c0 .297-.2187.5454-.50301.59211l-.09699.00789h-13.99999996c-.297 0-.5454-.2187-.59211-.50301l-.00789-.09699v-18c0-.297.2187-.5454.50301-.59211zm13.31313086 11.4205236h-4.8715494c-.3759199 0-.6834908.3075708-.6834908.6834907s.3075709.6834908.6834908.6834908h4.8943325c.3375401 0 .6169804-.2487549.6649981-.5729418l.007196-.110549c-.0063218-.37931-.3156144-.6834907-.6949772-.6834907zm-4.7131309-9.3905236v3.95h3.95z"/></svg>