<svg height="32" viewBox="0 0 32 32" width="32" xmlns="http://www.w3.org/2000/svg"><g fill="none" fill-rule="evenodd" transform="translate(3.35 5.55)"><path d="m.55 20.4163468v-13.88412122l5.85926274-5.83787737h9.24195996v19.72199859z" fill="#afdfef" transform="matrix(-1 0 0 1 16.201222 0)"/><path d="m15.649905 6.53091263h-5.87233466v-5.83656442h.01438965z" fill="#45889f"/><path d="m15.6512227 12.4031772-5.87365236-5.87226457h5.87233466l.0013177.00131295z" fill="#8bc6da"/><path d="m19.2243269 17.1278626c.1002453.0501226.2130212.075184.3257972.075184.1628986 0 .3383279-.0501227.4636346-.1628987l4.6363454-3.7090763c.1754293-.1378373.2882052-.3633892.2882052-.5889412 0-.2255519-.1002453-.4385732-.2756745-.5889412l-4.7491215-3.80932162c-.2255519-.18795995-.5388185-.21302128-.8019624-.08771465-.2631439.12530664-.4260426.40098123-.4260426.68918649l.037592 2.95723658h-9.09186481c-.41351189 0-.75183981.3383279-.75183981.7518398s.33832792.7518398.75183981.7518398h9.11692621l.0501226 3.0574818c0 .2882053.1754293.5513492.4260426.6641252z" fill="#b75c64" fill-rule="nonzero"/></g></svg>