<svg height="32" viewBox="0 0 32 32" width="32" xmlns="http://www.w3.org/2000/svg"><path d="m19.7214484 25c0 .33-.27.6-.6.6h-13.99999996c-.33 0-.6-.27-.6-.6v-18c0-.33.27-.6.6-.6h8.04999996l.07.01c.03 0 .06.01.08.02 0 .01.01.01.01.01.03.01.05.02.07.03h.01c.03.01.05.02.07.04l.01.01c.02.01.04.03.06.05l6 6 .05.06.01.01.04.07.03.07c.01 0 .01.01.01.01l.02.08c.01.02.01.04.01.07l-.001 4.88 2.1079131.0005236-.0341745-2.6883969c0-.2620047.1480897-.512618.3873114-.6265331.2392218-.1139151.5240096-.0911321.7290568.0797406l4.3173831 3.4630196c.1594812.1366982.2506133.3303539.2506133.5354011s-.1025236.4100945-.2620048.5354011l-4.2148595 3.3718876c-.1139151.1025236-.2733963.1480896-.421486.1480896-.1025236 0-.2050472-.022783-.2961793-.068349-.2278302-.1025236-.3873114-.3417454-.3873114-.6037502l-.045566-2.7795289-2.1306962-.0005051zm-7.2-17.42h-6.79999996v16.8h12.79999996l-.001-5.193-4.9574185.0005051c-.3417454 0-.6270039-.2541908-.6760448-.5828415l-.007446-.1006493c0-.3759199.3075709-.6834907.6834908-.6834907l4.9574185-.0005236.001-4.24h-5.4c-.33 0-.6-.27-.6-.6zm1.2.85v3.95h3.95z"/></svg>