<svg height="32" viewBox="0 0 32 32" width="32" xmlns="http://www.w3.org/2000/svg"><path d="m16.7286434 25.5426728c3.4461129-.3118108 6.2615935-2.8088802 7.0497488-6.0945151l-1.7423646-.3028062c-.2933449-.0464209-.5402258-.2670004-.6206679-.5532498-.0345194-.112263-.0422018-.2323359-.0236739-.3493167.0288567-.1821938.11765-.353238.2597583-.4683676l2.8567164-2.6037594c.1727836-.1602548.4223318-.2375572.6580658-.2002206.2324285.036813.4354473.1743437.5601054.3769623l1.9795017 3.465409c.1548275.2595659.1362086.5899341-.0384996.8444849-.1725943.2514706-.4808432.3785183-.7820558.3308109l-1.6262132-.2826202c-.967089 4.2212083-4.746142 7.3700668-9.2606502 7.3700668-4.4382274 0-8.16564333-3.0433463-9.20922953-7.1570206l-1.67086175.29886c-.2915309.0567085-.59896567-.0661302-.77245963-.3076038-.07083377-.0936863-.11912029-.2038904-.14171952-.3201534-.03519755-.1810757-.0102597-.3721738.08390183-.5289641l1.79389712-3.4237881c.1075531-.2096857.31561276-.3676767.54990012-.4132176.23100217-.0449022.46881564.0148978.65525558.1626615l3.04536288 2.5793897c.234267.1909581.3297635.5077707.252653.8067239-.0761775.2953358-.3223839.5201489-.62174808.5783394l-1.69275227.3027754c.82337083 3.0690001 3.42627675 5.40963 6.63478305 5.847955v-14.5147666c-.5773764-.2430842-1.071157-.6457481-1.4813873-1.20790042-.4102304-.56215232-.6153455-1.1471408-.6153455-1.75487427 0-.85086332.2962774-1.58016171.8888324-2.18789518.5925549-.60773347 1.3142413-.911623 2.1651046-.911623s1.5801617.30388953 2.1878952.911623c.6077334.60773347.911623 1.33703186.911623 2.18789518 0 .60773347-.2202937 1.19267637-.6609267 1.75487427-.440633.56210672-.9648162.96472502-1.5725497 1.20790042zm-1.7320837-16.62987327c.2430843.25830838.5393618.38743978.8888325.38743978.3494706 0 .6457481-.12156493.8888324-.3646492s.3646492-.5469738.3646492-.911623c0-.36464919-.1215649-.66853872-.3646492-.91162299s-.5393618-.3646492-.8888324-.3646492c-.3494707 0-.6457482.12156493-.8888325.3646492-.2430842.24308427-.3646492.53936174-.3646492.88883242 0 .34947067.121565.65331462.3646492.91162299z" fill="#4588a0"/></svg>