<svg height="32" viewBox="0 0 32 32" width="32" xmlns="http://www.w3.org/2000/svg"><path d="m20.3267715 7.5 5.3267716 3.5178024v13.3013215h-10.6535431v-13.3013215zm-1.1181133 12.6294896c-.2865389-.2875826-.7181882-.3740557-1.0933935-.2190416-.3752052.1550141-.6199524.5209359-.6199524.9269017 0 .5524678.4467955 1.0008945.9992599 1.0029065.4059633.0014669.7727728-.2419453.9291504-.6165842.1563775-.3746389.0714745-.8065997-.2150644-1.0941824zm3.5231364 0c-.2865389-.2875826-.7181883-.3740557-1.0933935-.2190416s-.6199525.5209359-.6199525.9269017c0 .5524678.4467956 1.0008945.99926 1.0029065.4059633.0014669.7727728-.2419453.9291504-.6165842.1563775-.3746389.0714745-.8065997-.2150644-1.0941824zm-13.47338142-7.8698147.08605117.0597904 4.02098995 3.2252795c.1485326.1167042.2334084.2970652.2227989.4986452 0 .1591421-.0663092.3182842-.1743686.4344481l-.0696492.0641971-3.92550474 3.1404037c-.10609472.0954853-.25462733.1379232-.39255047.1379232-.09548525 0-.1909705-.021219-.27584628-.0636568-.18566576-.0835496-.32259426-.2645738-.35392536-.4719972l-.00679669-.0903049-.03182842-2.5568828h-4.72121511c-.35011258 0-.63656833-.2864557-.63656833-.6365683 0-.3182842.23674029-.5839594.54282874-.6296335l.09373959-.0069348h4.69999617l-.03182842-2.5356639c0-.2440178.13792314-.4774262.36072205-.5835209.15914209-.075782.33993615-.086608.49985152-.0286116zm9.95024502 4.3777503c-.2865389-.2875826-.7181882-.3740558-1.0933935-.2190417-.3752052.1550142-.6199524.520936-.6199524.9269018 0 .5524677.4467955 1.0008945.9992599 1.0029064.4059633.0014669.7727728-.2419453.9291504-.6165842.1563775-.3746389.0714745-.8065997-.2150644-1.0941823zm3.5231364 0c-.2865389-.2875826-.7181883-.3740558-1.0933935-.2190417-.3752052.1550142-.6199525.520936-.6199525.9269018 0 .5524677.4467956 1.0008945.99926 1.0029064.4059633.0014669.7727728-.2419453.9291504-.6165842.1563775-.3746389.0714745-.8065997-.2150644-1.0941823zm-3.5231364-3.4032778c-.2865389-.2875826-.7181882-.3740558-1.0933935-.2190417-.3752052.1550142-.6199524.520936-.6199524.9269018 0 .5524677.4467955 1.0008945.9992599 1.0029064.4059633.0014669.7727728-.2419453.9291504-.6165842.1563775-.3746389.0714745-.8065997-.2150644-1.0941823zm3.5231364 0c-.2865389-.2875826-.7181883-.3740558-1.0933935-.2190417-.3752052.1550142-.6199525.520936-.6199525.9269018 0 .5524677.4467956 1.0008945.99926 1.0029064.4059633.0014669.7727728-.2419453.9291504-.6165842.1563775-.3746389.0714745-.8065997-.2150644-1.0941823z"/></svg>