<svg height="32" viewBox="0 0 32 32" width="32" xmlns="http://www.w3.org/2000/svg"><path d="m14.3437429 10.4321311v15.092415h11.6041533v-15.092415l-5.8020766-3.83169405zm-.6300002 16.352415h-8.29163892c-.34793939 0-.63-.2820606-.63-.63v-12.6523673c0-.3479394.28206061-.63.63-.63h7.66163912v-2.7789785c0-.21161386.1062404-.409092.2828228-.5257071l6.4320767-4.24774639c.2105649-.13905718.4837895-.13905718.6943544 0l6.4320766 4.24774639c.1765825.1166151.2828228.31409324.2828228.5257071v16.0613458c0 .3479394-.2820606.63-.63.63h-12.8641533zm-.6299998-12.6523673h-7.03163912v11.3923673h7.03163912zm-3.45190411 8.9583491c-.65837742-.0023977-1.19082829-.5367924-1.19082829-1.1951739 0-.4837936.29166777-.9198664.73880369-1.1045983.44713593-.1847319.96153691-.081681 1.30300821.2610342.3414714.3427152.4426511.8574873.2562944 1.3039483s-.6234874.7365378-1.10727801.7347897zm0-4.1617554c-.65837742-.0023977-1.19082829-.5367924-1.19082829-1.1951739 0-.4837936.29166777-.9198664.73880369-1.1045983.44713593-.1847319.96153691-.081681 1.30300821.2610342.3414714.3427151.4426511.8574872.2562944 1.3039483-.1863567.446461-.6234874.7365378-1.10727801.7347897zm8.30160011.015873c-.6671007-.0024295-1.2066064-.5439048-1.2066064-1.2110096 0-.4902037.2955323-.9320543.7485926-1.1192339.4530603-.1871795.974277-.0827631 1.3202727.2644929s.448516.8688486.2596902 1.3212251c-.1888259.4523765-.6317485.7462967-1.1219491.7445255zm4.2541871 0c-.6671007-.0024295-1.2066063-.5439048-1.2066063-1.2110096 0-.4902037.2955322-.9320543.7485926-1.1192339.4530603-.1871795.9742769-.0827631 1.3202726.2644929s.4485161.8688486.2596902 1.3212251c-.1888258.4523765-.6317484.7462967-1.1219491.7445255zm-4.2541871 4.2166678c-.6671007-.0024295-1.2066064-.5439048-1.2066064-1.2110096 0-.4902037.2955323-.9320543.7485926-1.1192339.4530603-.1871795.974277-.0827631 1.3202727.2644929s.448516.8688486.2596902 1.3212251c-.1888259.4523765-.6317485.7462967-1.1219491.7445255zm4.2541871 0c-.6671007-.0024295-1.2066063-.5439048-1.2066063-1.2110096 0-.4902037.2955322-.9320543.7485926-1.1192339.4530603-.1871795.9742769-.0827631 1.3202726.2644929s.4485161.8688486.2596902 1.3212251c-.1888258.4523765-.6317484.7462967-1.1219491.7445255zm-4.2541871-8.3261258c-.6671007-.0024295-1.2066064-.5439047-1.2066064-1.2110095 0-.4902037.2955323-.9320544.7485926-1.1192339s.974277-.0827632 1.3202727.2644928.448516.8688487.2596902 1.3212252c-.1888259.4523765-.6317485.7462967-1.1219491.7445254zm4.2541871 0c-.6671007-.0024295-1.2066063-.5439047-1.2066063-1.2110095 0-.4902037.2955322-.9320544.7485926-1.1192339.4530603-.1871795.9742769-.0827632 1.3202726.2644928s.4485161.8688487.2596902 1.3212252c-.1888258.4523765-.6317484.7462967-1.1219491.7445254z"/></svg>