<svg height="32" viewBox="0 0 32 32" width="32" xmlns="http://www.w3.org/2000/svg"><g fill="none" fill-rule="evenodd"><path d="m13.3654543 15.5447448-4.02098995-3.2252795c-.1909705-.1591421-.4562073-.1803611-.67900622-.0742663-.22279891.1060947-.36072205.3395031-.36072205.5835209l.03182842 2.5356639h-4.69999617c-.35011258 0-.63656833.2864557-.63656833.6365683s.28645575.6365683.63656833.6365683h4.72121511l.03182842 2.5568828c0 .2440179.14853261.4668168.36072205.5623021.08487578.0424378.18036103.0636568.27584628.0636568.13792314 0 .28645575-.0424379.39255047-.1379232l3.92550474-3.1404037c.1485326-.1167042.2440178-.3076747.2440178-.4986452.0106095-.20158-.0742663-.381941-.2227989-.4986452z" fill="#4da86d" fill-rule="nonzero"/><path d="m25.6535431 24.3191239h-10.6535431v-13.3013215l5.3267715-3.5178024 5.3267716 3.5178024z" fill="#4588a0"/><g fill="#f1eb7c"><path d="m18.4945722 18.3481851c.4059633.0014735.7727728-.2419387.9291504-.6165776.1563775-.3746389.0714745-.8065997-.2150644-1.0941823s-.7181882-.3740558-1.0933935-.2190417c-.3752052.1550142-.6199498.520936-.6199524.9269018-.0000037.5524677.4467955 1.0008945.9992599 1.0028998z"/><path d="m22.0177086 18.3481851c.4059633.0014735.7727728-.2419387.9291504-.6165776.1563775-.3746389.0714745-.8065997-.2150644-1.0941823s-.7181883-.3740558-1.0933935-.2190417c-.3752052.1550142-.6199498.520936-.6199525.9269018-.0000036.5524677.4467956 1.0008945.99926 1.0028998z"/><path d="m18.4945722 21.8402495c.4059633.0014736.7727728-.2419386.9291504-.6165775.1563775-.3746389.0714745-.8065997-.2150644-1.0941824-.2865389-.2875826-.7181882-.3740557-1.0933935-.2190416-.3752052.1550141-.6199498.5209359-.6199524.9269017-.0000037.5524678.4467955 1.0008945.9992599 1.0028998z"/><path d="m22.0177086 21.8402495c.4059633.0014736.7727728-.2419386.9291504-.6165775.1563775-.3746389.0714745-.8065997-.2150644-1.0941824-.2865389-.2875826-.7181883-.3740557-1.0933935-.2190416s-.6199498.5209359-.6199525.9269017c-.0000036.5524678.4467956 1.0008945.99926 1.0028998z"/><path d="m18.4945722 14.9449073c.4059633.0014735.7727728-.2419387.9291504-.6165776.1563775-.3746389.0714745-.8065997-.2150644-1.0941823s-.7181882-.3740558-1.0933935-.2190417c-.3752052.1550142-.6199498.520936-.6199524.9269018-.0000037.5524677.4467955 1.0008945.9992599 1.0028998z"/><path d="m22.0177086 14.9449073c.4059633.0014735.7727728-.2419387.9291504-.6165776.1563775-.3746389.0714745-.8065997-.2150644-1.0941823s-.7181883-.3740558-1.0933935-.2190417c-.3752052.1550142-.6199498.520936-.6199525.9269018-.0000036.5524677.4467956 1.0008945.99926 1.0028998z"/></g></g></svg>