<svg height="32" viewBox="0 0 32 32" width="32" xmlns="http://www.w3.org/2000/svg"><path d="m15.3723654 18.05c-.27-.19-.65-.12-.83.15-.54.78-1.26 1.83-1.99 2.87-.87 1.26-1.83 2.64-2.38 3.45l-4.92-7.1-.01-.02c-.88-1.17-1.32-2.8-1.2-4.47.11-1.67.76-3.21 1.78-4.23 1.16-1.16 2.71-1.8 4.35-1.8.8 0 1.58.15 2.31.45.31.12.66-.02.78-.33s-.02-.66-.33-.78c-.88-.36-1.81-.54-2.77-.54-1.96 0-3.81.76-5.2 2.15-2.55 2.55-2.88 7.34-.7 10.26l5.4 7.8c.08.11.19.19.31.23.07.02.13.03.19.03.3 0 .48-.25.55-.35.04-.06.11-.15.19-.27.16-.23.38-.55.65-.94l1.98-2.86c.72-1.04 1.44-2.09 1.99-2.87.19-.26.12-.64-.15-.83zm10.95 1.87c-1.58 0-2.86 1.27-2.86 2.83 0 .72.27 1.38.72 1.88-.38.3-.85.47-1.35.47-1.18 0-2.15-.95-2.15-2.11v-4.02c2.29-.26 4.14-1.98 4.5-4.29l.87-5.59c.13-.8-.11-1.62-.64-2.24-.54-.63-1.33-.99-2.17-.99h-1.1c-.33 0-.6.27-.6.6s.27.6.6.6h1.12c.49 0 .94.21 1.26.57.3.35.44.82.36 1.28l-.87 5.59c-.3 1.92-1.95 3.31-3.92 3.31-.46 0-.91-.08-1.34-.23-1.37-.48-2.36-1.67-2.58-3.08l-.87-5.59c-.07-.46.06-.92.36-1.28.31-.36.77-.57 1.26-.57h1.12c.33 0 .6-.27.6-.6s-.27-.6-.6-.6h-1.12c-.84 0-1.63.36-2.17.99-.53.62-.76 1.44-.64 2.24l.87 5.59c.29 1.85 1.58 3.4 3.36 4.03.37.13.75.22 1.14.26v4.02c0 1.83 1.5 3.31 3.35 3.31.88 0 1.72-.34 2.35-.95.35.15.74.24 1.14.24 1.58 0 2.86-1.27 2.86-2.83s-1.28-2.84-2.86-2.84zm0 4.46c-.92 0-1.66-.73-1.66-1.63s.75-1.63 1.66-1.63c.92 0 1.66.73 1.66 1.63.01.9-.74 1.63-1.66 1.63zm-16.1-14.7c-1.83 0-3.31 1.48-3.31 3.31s1.48 3.31 3.31 3.31 3.31-1.48 3.31-3.31c0-1.82-1.48-3.31-3.31-3.31zm0 5.42c-1.16 0-2.11-.95-2.11-2.11s.95-2.11 2.11-2.11 2.11.95 2.11 2.11-.94 2.11-2.11 2.11z"/></svg>