<svg height="32" viewBox="0 0 32 32" width="32" xmlns="http://www.w3.org/2000/svg"><g fill="none" fill-rule="evenodd"><path d="m13.3571866 13.2244193v14.1763219h-9.29035203v-14.1763219z" fill="#265667"/><path d="m8.78362449 23.9676587c.54206232.0019676 1.03184463-.3230485 1.24064771-.8232849.208803-.5002365.0954363-1.0770119-.28716463-1.4610065-.38260092-.3839946-.95896058-.4994578-1.45995321-.2924753s-.82778768.6955795-.82779125 1.2376452c-.00000486.7376823.59658361 1.3364439 1.33426138 1.3391215z" fill="#f1eb7c"/><path d="m8.78362449 19.3046274c.54206232.0019676 1.03184463-.3230484 1.24064771-.8232849.208803-.5002364.0954363-1.0770119-.28716463-1.4610065-.38260092-.3839945-.95896058-.4994578-1.45995321-.2924753-.50099263.2069826-.82778768.6955796-.82779125 1.2376452-.00000486.7376823.59658361 1.3364439 1.33426138 1.3391215z" fill="#f1eb7c"/><path d="m27.7708037 27.4007412h-14.4136171v-17.99590565l7.2068085-4.7593797 7.2068086 4.7593797z" fill="#4588a0"/><g fill="#f1eb7c"><path d="m18.0851372 19.3224121c.5492444.0019937 1.0455162-.3273287 1.2570858-.8341931s.0967008-1.091282-.2909694-1.4803643c-.3876703-.3890824-.9716665-.5060755-1.4792971-.2963505-.5076306.2097249-.8387556.7047957-.8387592 1.2540435-.0000049.7474564.6044881 1.3541514 1.3519399 1.3568644z"/><path d="m22.8517335 19.3224121c.5492444.0019937 1.0455162-.3273287 1.2570858-.8341931s.0967008-1.091282-.2909694-1.4803643c-.3876703-.3890824-.9716665-.5060755-1.4792971-.2963505-.5076306.2097249-.8387556.7047957-.8387592 1.2540435-.000005.7474564.6044881 1.3541514 1.3519399 1.3568644z"/><path d="m18.0851372 24.0469699c.5492444.0019936 1.0455162-.3273287 1.2570858-.8341932.2115696-.5068644.0967008-1.0912819-.2909694-1.4803643-.3876703-.3890823-.9716665-.5060755-1.4792971-.2963505s-.8387556.7047957-.8387592 1.2540436c-.0000049.7474563.6044881 1.3541513 1.3519399 1.3568644z"/><path d="m22.8517335 24.0469699c.5492444.0019936 1.0455162-.3273287 1.2570858-.8341932.2115696-.5068644.0967008-1.0912819-.2909694-1.4803643-.3876703-.3890823-.9716665-.5060755-1.4792971-.2963505s-.8387556.7047957-.8387592 1.2540436c-.000005.7474563.6044881 1.3541513 1.3519399 1.3568644z"/><path d="m18.0851372 14.7179775c.5492444.0019936 1.0455162-.3273288 1.2570858-.8341932s.0967008-1.0912819-.2909694-1.4803643c-.3876703-.3890824-.9716665-.5060755-1.4792971-.2963505s-.8387556.7047957-.8387592 1.2540436c-.0000049.7474563.6044881 1.3541513 1.3519399 1.3568644z"/><path d="m22.8517335 14.7179775c.5492444.0019936 1.0455162-.3273288 1.2570858-.8341932s.0967008-1.0912819-.2909694-1.4803643c-.3876703-.3890824-.9716665-.5060755-1.4792971-.2963505s-.8387556.7047957-.8387592 1.2540436c-.000005.7474563.6044881 1.3541513 1.3519399 1.3568644z"/></g></g></svg>