<svg height="32" viewBox="0 0 32 32" width="32" xmlns="http://www.w3.org/2000/svg"><path d="m18.1934827 5.923c.3522284 0 .64.28777153.64.64s-.2877716.64-.64.64h-1.035c-.4264895 0-.8231298.18272195-1.1033637.50541519-.2652678.30671583-.3783464.70803406-.3188311 1.11617324l.8100031 5.19301937c.2711025 1.7403035 1.7664315 3.0023922 3.5551917 3.0023922s3.2840891-1.2620887 3.5551947-3.0024116l.8102231-5.19436833c.0669494-.39332741-.0504526-.80423431-.3189212-1.1146514-.2803668-.32284672-.6770072-.50556867-1.1034966-.50556867h-1.035c-.3522285 0-.64-.28777153-.64-.64s.2877715-.64.64-.64h1.035c.804818 0 1.5612247.34699848 2.0744291.95351291.5059261.59961605.7286029 1.38523983.6073761 2.14989866l-.810056 5.19335513c-.3424914 2.1450775-2.0360557 3.7677543-4.1837492 4.0420615v3.6551718c0 1.0345634.8560376 1.88 1.907 1.88.6028747 0 1.1416068-.2782024 1.4914018-.7107194-.6741826-.449043-1.1134018-1.2071009-1.1134018-2.0678334 0-1.3817135 1.1465282-2.4988436 2.5429408-2.4988436s2.5429408 1.1171301 2.5429408 2.4988436c0 1.3670144-1.1465282 2.4988436-2.5429408 2.4988436l-.1790308-.0060348c-.5524479.93664-1.5784975 1.565744-2.75091 1.565744-1.7549622 0-3.187-1.4205124-3.187-3.16v-3.6551704c-2.1514501-.2747208-3.8508131-1.9004682-4.1838053-4.042418l-.8099903-5.1929376c-.1208712-.7717162.1000644-1.54871423.6074569-2.15006822.5131139-.6064073 1.2695207-.95340578 2.0743387-.95340578zm-7.6157982.12699943c1.1104346.03743894 2.1389689.35020832 3.0328617.86685242-.3459926.70775018-.4702789 1.504425-.3464053 2.29531012l.8098731 5.19218843.0423254.2405329c.2095219 1.0653932.6936043 2.0225127 1.3765625 2.7998428-1.3977094 2.2659647-3.4676411 4.366558-4.8672332 7.0688679-.1161931.2244549-.441375.2244549-.5575681-.0015863-2.29292949-4.4474583-6.38387735-7.5410493-6.38387735-11.8041056 0-3.75664495 3.10747067-6.7863892 6.89346125-6.65790267zm-.2307998 3.83087763c-1.56111146 0-2.82702506 1.26623484-2.82702506 2.82702504s1.2659136 2.827025 2.82702506 2.827025c1.5607901 0 2.827025-1.2662348 2.827025-2.827025s-1.2662349-2.82702504-2.827025-2.82702504z" fill-rule="evenodd"/></svg>