<svg height="32" viewBox="0 0 32 32" width="32" xmlns="http://www.w3.org/2000/svg"><g fill="none" fill-rule="evenodd"><path d="m25.5604235 23.5172908c-1.4111117 0-2.5429408-1.1171301-2.5429408-2.4988436s1.1465282-2.4988436 2.5429408-2.4988436 2.5429408 1.1171301 2.5429408 2.4988436c0 1.3670144-1.1465282 2.4988436-2.5429408 2.4988436z" fill="#4588a0" fill-rule="nonzero"/><path d="m15.4781332 8.52126337h-.4781332l1.3556965 7.28481903c-1.2478827 2.9481551-4.0006728 5.3685007-5.7300278 8.7075116-.1161931.2244549-.441375.2244549-.5575681-.0015863-2.29292949-4.4474583-6.38387735-7.5410493-6.38387735-11.8041056 0-3.75664495 3.10747067-6.7863892 6.89346125-6.65790267 2.0032421.06754046 3.739942 1.03113697 4.9004487 2.47126394zm-5.1312485 7.01366373c1.5607901 0 2.827025-1.2662348 2.827025-2.827025s-1.2662349-2.82702504-2.827025-2.82702504c-1.56111146 0-2.82702506 1.26623484-2.82702506 2.82702504s1.2659136 2.827025 2.82702506 2.827025z" fill="#b75c64"/><path d="m24.5390803 22.083041c-.2868546-.2663817-.4654218-.6443101-.4654218-1.0645938 0-.8073978.6686387-1.4627171 1.486765-1.4627171.8181262 0 1.486765.6553193 1.486765 1.4627171 0 .7323476-.5597423 1.346816-1.2777822 1.4480881-.2626284 1.4834006-1.5696686 2.6104647-3.1389236 2.6104647-1.7549622 0-3.187-1.4205124-3.187-3.16v-3.6551704c-2.1514501-.2747208-3.8508131-1.9004682-4.1838053-4.042418l-.8099903-5.1929376c-.1208712-.7717162.1000644-1.54871423.6074569-2.15006822.5131139-.6064073 1.2695207-.95340578 2.0743387-.95340578h1.062c.3522284 0 .64.28777153.64.64s-.2877716.64-.64.64h-1.035c-.4264895 0-.8231298.18272195-1.1033637.50541519-.2652678.30671583-.3783464.70803406-.3188311 1.11617324l.8100031 5.19301937c.2711025 1.7403035 1.7664315 3.0023922 3.5551917 3.0023922s3.2840891-1.2620887 3.5551947-3.0024116l.8102231-5.19436833c.0669494-.39332741-.0504526-.80423431-.3189212-1.1146514-.2803668-.32284672-.6770072-.50556867-1.1034966-.50556867h-1.035c-.3522285 0-.64-.28777153-.64-.64s.2877715-.64.64-.64h1.035c.804818 0 1.5612247.34699848 2.0744291.95351291.5059261.59961605.7286029 1.38523983.6073761 2.14989866l-.810056 5.19335513c-.3424914 2.1450775-2.0360557 3.7677543-4.1837492 4.0420615v3.6551718c0 1.0345634.8560376 1.88 1.907 1.88.9941413 0 1.8138656-.7564896 1.8995976-1.713959z" fill="#252d4f" fill-rule="nonzero"/></g></svg>