<svg height="32" viewBox="0 0 32 32" width="32" xmlns="http://www.w3.org/2000/svg"><path d="m21.5040502 7.23069046c3.7726066 3.77260654 3.7901142 9.87833234.0525229 13.67259364l4.1567812 4.1567811c.5656854.5656855-.2828427 1.4142136-.8485281.8485282l-4.2022284-4.2022284c-3.8096864 3.0209186-9.3630344 2.7708648-12.88406062-.7501615-3.79019577-3.7901958-3.79019577-9.9353173 0-13.72551304 3.79019582-3.79019577 9.93531732-3.79019577 13.72551302 0zm-12.87698488.84852814c-3.32156662 3.3215666-3.32156662 8.7068902 0 12.0284568 3.32156658 3.3215666 8.70689018 3.3215666 12.02845678 0s3.3215666-8.7068902 0-12.0284568c-3.3215666-3.32156662-8.7068902-3.32156662-12.02845678 0zm5.95485978.07164589.2088697.00201891c2.5282536.08524152 4.415253 2.4656337 3.9828248 5.0029661-.1780867 1.0459368-.6713483 2.0028532-1.6259164 3.3118189-.1473173.202011-.303523.4104954-.5123163.6850554-.020851.0274187-.4200337.5506385-.5380361.7065507-.6228649.8229681-1.0727532 1.4636302-1.450648 2.0991863-.3786493-.6450552-.8292365-1.3014239-1.4495096-2.1430254-.1121999-.1522355-.5890755-.7938104-.7116953-.9604332-.2656495-.3609798-.4709396-.6482905-.6577488-.9233639-.9446816-1.3910275-1.3805195-2.4550061-1.3805195-3.5843136 0-2.37303358 1.9636881-4.27520804 4.3435652-4.1944413zm.0593606 2.50113571c-.9360035 0-1.6953245.7593806-1.6953245 1.6953245s.759321 1.6953245 1.6953245 1.6953245c.935832 0 1.6953245-.7594925 1.6953245-1.6953245s-.7594925-1.6953245-1.6953245-1.6953245z"/></svg>