<svg height="32" viewBox="0 0 32 32" width="32" xmlns="http://www.w3.org/2000/svg"><g fill="none" fill-rule="evenodd"><g fill-rule="nonzero"><path d="m21.5698112 7.16492953c3.786964 3.78696397 3.8261057 9.90252617.1174252 13.73762657l4.0918789 4.0917482c.6533666.6533667-.3266834 1.6334167-.98005.98005l-4.1435554-4.1441093c-3.8441399 2.9960039-9.407876 2.7265771-12.94273365-.8082806-3.82651453-3.8265145-3.82651453-10.0305203 0-13.85703487 3.82651455-3.82651453 10.03052035-3.82651453 13.85703495 0z" fill="#45889f"/><path d="m20.5897612 20.0419144c3.2852478-3.2852478 3.2852478-8.611687 0-11.89693487-3.2852479-3.28524786-8.6116871-3.28524786-11.89693495 0-3.28524786 3.28524787-3.28524786 8.61168707 0 11.89693487 3.28524785 3.2852479 8.61168705 3.2852479 11.89693495 0z" fill="#def7ff"/><path d="m14.6412937 21.3288067c3.9959789 0 7.2353598-3.2393809 7.2353598-7.2353597 0-3.9959789-3.2393809-7.23535976-7.2353598-7.23535976z" fill="#a1e0f1"/></g><path d="m14.797429 8.12095659c2.6817364.09041628 4.6427709 2.60367351 4.1920037 5.24861261-.4352598 2.5563627-2.7855574 4.3347248-4.1602003 6.9888633-.0770116.1487663-.2925388.1487663-.3695503-.0010514-1.5197295-2.9477285-4.2311666-4.998128-4.2311666-7.8236368 0-2.4898647 2.0595988-4.49794723 4.5689135-4.41278771zm-.1561353 6.28651011c1.0344753 0 1.8737224-.8392471 1.8737224-1.8737224s-.8392471-1.8737224-1.8737224-1.8737224c-1.0346882 0-1.8737224.8392471-1.8737224 1.8737224s.8390342 1.8737224 1.8737224 1.8737224z" fill="#b75c64"/><path d="m14.797429 8.12095659c2.6817364.09041628 4.6427709 2.60367351 4.1920037 5.24861261-.2081677 1.2226083-.8543687 2.2672618-1.6223777 3.3148742l-.4290934.5728058-.6639944.874581c-.5176231.6921608-1.0263653 1.418821-1.4447348 2.2266023-.0392189.0757606-.1143611.1129394-.188838.1114437l.0008993-6.0624095c1.0344753 0 1.8737224-.8392471 1.8737224-1.8737224s-.8392471-1.8737224-1.8737224-1.8737224l-.0008485-2.5416763z" fill="#974149"/></g></svg>