<svg height="32" viewBox="0 0 32 32" width="32" xmlns="http://www.w3.org/2000/svg"><path d="m20.9455162 6.99755954c.1708181-.11149662.3842807-.12742471.567283-.04778426l.0886243.04778426 5.2734698 3.44210656c.1414361.0923184.2360665.2389407.2636811.4025413l.0083653.0998991v13.5578935c0 .2982338-.2175896.5456468-.5026769.592147l-.0973231.007853h-10.5469397c-.2982338 0-.5456468-.2175896-.592147-.5026769l-.007853-.0973231v-13.5578935c0-.1688989.0710577-.3282846.1929631-.4408315l.0790833-.0616089zm.3274838 1.21844046-4.673 3.05v12.634h9.346v-12.634zm-1.2266471 12.3053335c.3144732.3119488.4076533.7805085.2360307 1.1868896s-.574192.670417-1.0197323.6688401c-.6063234-.0021967-1.0966767-.4886175-1.0966767-1.0878944 0-.4403622.2686074-.8372877.680391-1.0054358.4117836-.168148.885514-.0743482 1.1999873.2376005zm3.8666031 0c.3144733.3119488.4076534.7805085.2360307 1.1868896-.1716226.4063811-.574192.670417-1.0197322.6688401-.6063235-.0021967-1.0966767-.4886175-1.0966767-1.0878944 0-.4403622.2686073-.8372877.6803909-1.0054358.4117836-.168148.885514-.0743482 1.1999873.2376005zm-14.53231956-8.1189802.08605117.0597904 4.02098999 3.2252795c.1485326.1167042.2334084.2970652.2227989.4986452 0 .1591421-.0663092.3182842-.1743687.4344481l-.0696492.0641971-3.92550468 3.1404038c-.10609472.0954852-.25462733.1379231-.39255047.1379231-.09548525 0-.1909705-.0212189-.27584628-.0636568-.18566576-.0835496-.32259426-.2645737-.35392536-.4719972l-.00679669-.0903049-.03182842-2.5568827h-4.72121511c-.35011258 0-.63656833-.2864558-.63656833-.6365684 0-.3182841.23674029-.5839594.54282874-.6296335l.09373959-.0069348h4.69999617l-.03182842-2.5356639c0-.2440178.13792314-.4774262.36072206-.5835209.19097049-.0909384.41311985-.0883401.59295504.0144759zm10.66571646 4.3310422c.3144732.3119487.4076533.7805085.2360307 1.1868896s-.574192.670417-1.0197323.66884c-.6063234-.0021967-1.0966767-.4886174-1.0966767-1.0878944 0-.4403622.2686074-.8372877.680391-1.0054357.4117836-.1681481.885514-.0743483 1.1999873.2376005zm3.8666031 0c.3144733.3119487.4076534.7805085.2360307 1.1868896-.1716226.4063811-.574192.670417-1.0197322.66884-.6063235-.0021967-1.0966767-.4886174-1.0966767-1.0878944 0-.4403622.2686073-.8372877.6803909-1.0054357.4117836-.1681481.885514-.0743483 1.1999873.2376005zm-3.8666031-3.6916288c.3144732.3119488.4076533.7805085.2360307 1.1868896s-.574192.670417-1.0197323.66884c-.6063234-.0021966-1.0966767-.4886174-1.0966767-1.0878943 0-.4403622.2686074-.8372877.680391-1.0054358.4117836-.168148.885514-.0743482 1.1999873.2376005zm3.8666031 0c.3144733.3119488.4076534.7805085.2360307 1.1868896-.1716226.4063811-.574192.670417-1.0197322.66884-.6063235-.0021966-1.0966767-.4886174-1.0966767-1.0878943 0-.4403622.2686073-.8372877.6803909-1.0054358.4117836-.168148.885514-.0743482 1.1999873.2376005z"/></svg>