<svg height="32" viewBox="0 0 32 32" width="32" xmlns="http://www.w3.org/2000/svg"><path d="m14.1781172 9.80660354v16.60165646h12.7645686v-16.60165646l-6.3822843-4.21486351zm-1.386 4.07005246h-7.73480304v12.531604h7.73480304zm-3.79709453 9.854184c-.72421516-.0026375-1.30991112-.5904717-1.30991112-1.3146913 0-.532173.32083455-1.011853.81268406-1.2150582.49184952-.2032051 1.05769061-.089849 1.43330907.2871377.37561842.3769866.48691622.943236.28192382 1.4343431s-.68583616.8101916-1.21800583.8082687zm0-4.577931c-.72421516-.0026374-1.30991112-.5904716-1.30991112-1.3146912 0-.532173.32083455-1.0118531.81268406-1.2150582.49184952-.2032051 1.05769061-.089849 1.43330907.2871376.37561842.3769867.48691622.943236.28192382 1.4343431-.2049924.4911072-.68583616.8101917-1.21800583.8082687zm9.13176013.0174603c-.7338108-.0026724-1.327267-.5982952-1.327267-1.3321105 0-.5392241.3250855-1.0252598.8234518-1.2311573.4983664-.2058975 1.0717047-.0910395 1.4522999.2909421.3805953.3819817.4933677.9557336.2856593 1.4533477-.2077085.4976141-.6949233.8209264-1.234144.818978zm4.6796058 0c-.7338107-.0026724-1.327267-.5982952-1.327267-1.3321105 0-.5392241.3250855-1.0252598.8234519-1.2311573s1.0717046-.0910395 1.4522999.2909421c.3805953.3819817.4933677.9557336.2856593 1.4533477-.2077085.4976141-.6949233.8209264-1.2341441.818978zm-4.6796058 4.6383346c-.7338108-.0026724-1.327267-.5982952-1.327267-1.3321105 0-.5392241.3250855-1.0252598.8234518-1.2311573.4983664-.2058975 1.0717047-.0910395 1.4522999.2909421.3805953.3819816.4933677.9557336.2856593 1.4533477-.2077085.4976141-.6949233.8209264-1.234144.818978zm4.6796058 0c-.7338107-.0026724-1.327267-.5982952-1.327267-1.3321105 0-.5392241.3250855-1.0252598.8234519-1.2311573s1.0717046-.0910395 1.4522999.2909421.4933677.9557336.2856593 1.4533477c-.2077085.4976141-.6949233.8209264-1.2341441.818978zm-4.6796058-9.1587384c-.7338108-.0026724-1.327267-.5982952-1.327267-1.3321104 0-.5392241.3250855-1.0252598.8234518-1.2311573.4983664-.2058975 1.0717047-.0910395 1.4522999.2909421.3805953.3819816.4933677.9557335.2856593 1.4533477-.2077085.4976141-.6949233.8209264-1.234144.8189779zm4.6796058 0c-.7338107-.0026724-1.327267-.5982952-1.327267-1.3321104 0-.5392241.3250855-1.0252598.8234519-1.2311573s1.0717046-.0910395 1.4522999.2909421.4933677.9557335.2856593 1.4533477c-.2077085.4976141-.6949233.8209264-1.2341441.8189779z"/></svg>