<svg height="32" viewBox="0 0 32 32" width="32" xmlns="http://www.w3.org/2000/svg"><path d="m21.5040502 7.23069046c3.6758237 3.67582374 3.7867445 9.56659414.3327624 13.37609324l4.2196215 4.2209252c.3905243.3905243.3905243 1.0236892 0 1.4142135-.3604839.360484-.927715.3882135-1.3200062.0831886l-.0942073-.0831886-4.2964056-4.2947675c-3.7954918 2.763983-9.1426606 2.4336658-12.56727782-.9909514-3.79019577-3.7901958-3.79019577-9.9353173 0-13.72551304 3.79019582-3.79019577 9.93531732-3.79019577 13.72551302 0zm-11.0568206 5.11663424c0 1.1293075.4358379 2.1932861 1.3805195 3.5843136l.2357221.3398936.6361047.872696c.1859394.2507426.4228174.5697171.4976173.6712075.6202731.8416015 1.0708603 1.4979702 1.4495096 2.1430254.330658-.5561116.716436-1.1161325 1.2249847-1.7987728l1.0921717-1.4426846c.064568-.0866905.1249171-.1685306.183844-.249335.9545681-1.3089657 1.4478297-2.2658821 1.6259164-3.3118189.4324282-2.5373324-1.4545712-4.91772458-3.9828248-5.0029661-2.3798771-.08076674-4.3435652 1.82140772-4.3435652 4.1944413zm4.1940561-1.6953245c.935832 0 1.6953245.7594925 1.6953245 1.6953245s-.7594925 1.6953245-1.6953245 1.6953245c-.9360035 0-1.6953245-.7593806-1.6953245-1.6953245s.759321-1.6953245 1.6953245-1.6953245z"/></svg>