<svg height="32" viewBox="0 0 32 32" width="32" xmlns="http://www.w3.org/2000/svg"><path d="m18.6182901 7.6378281c1.8978214-1.60033947 4.2273746-1.73259068 6.3916972-.36332992 1.7341453 1.09731853 2.6775594 2.80470262 2.7283056 4.94082052.0204318 1.0001566-.2472908 1.9652239-.8421436 3.0370028-.8156046 1.4689766-1.8969331 2.8909824-3.3057249 4.3473002-1.8963778 1.9603381-4.0673629 3.8029716-6.8325345 5.7988432-.2750514.1984323-.5348901.2667232-.7620823.2667232-.3432313 0-.6119533-.1557921-.7463143-.2532871-3.5184816-2.5521928-6.01126681-4.7653739-8.08298021-7.176099-.84691848-.9856101-1.59134506-2.0787091-2.21251485-3.2492044-.91165606-1.717822-.92509216-3.7652172-.03575557-5.47670989.89144638-1.71549018 2.57928707-2.88431985 4.51508488-3.12650279 1.40579365-.17589076 2.75528885.2484013 3.90268745 1.22668264.3890084.33171067.747848.6866569 1.0927276 1.04071306l.3408265.35286593c.1717822.17866682.3434534.35711156.5176785.53278024l.1584433.16570265.1476999.16187169c.1195924.1322512.2326334.25717367.3416767.35544597.0466377.0419739.0679578.0469708.1207029-.0008884.0735099-.0666253.1484016-.1440093.2257281-.227184l.2572775-.280001.4117026-.42597157.2671258-.28020099c.4370619-.46015867.8891145-.93597429 1.4006857-1.36737304zm5.7501287.65076565c-1.7267174-1.09240942-3.4832785-.99259364-4.9765511.26660979l-.2013981.17448316c-.2306804.20568286-.4569162.42876203-.7894791.77401916l-1.0470894 1.09370924-.3067626.3308228c-.0643735.0664133-.1197725.1198927-.1849993.1790104-.5187942.4707376-1.2344025.4500359-1.730431.0036099l-.1247514-.1176306c-.0407326-.0403449-.0825351-.0837237-.1311711-.1358341l-.3966525-.4311443-.3571475-.3651883-.5898298-.61088615-.3537898-.35519798c-.2220687-.21775116-.4207163-.40105063-.620911-.57175833-.8954258-.76344734-1.9100403-1.08238196-2.97515977-.94911583-1.54529087.19332756-2.89019139 1.12462922-3.59922967 2.48909509-.7069214 1.360442-.69626323 2.9906595.03091741 4.3608769.57958198 1.0921297 1.27379092 2.1115837 2.06263405 3.029608 1.90523132 2.2170002 4.18857158 4.2704503 7.36808108 6.6143952l.5095507.3725768c.0202339.0146821.044678.0245335.0415587.0245335l.0597704-.0397382c2.710315-1.9562767 4.8280094-3.7536084 6.6723617-5.6601663 1.3389667-1.3841372 2.3570447-2.7229866 3.1189799-4.0952998.4969079-.895306.7074679-1.6545649.6917118-2.4261656-.0413174-1.73922-.7789984-3.07490305-2.1702126-3.95522445z"/></svg>