<svg height="32" viewBox="0 0 32 32" width="32" xmlns="http://www.w3.org/2000/svg"><path d="m25.0099873 7.27449818c-2.1643226-1.36926076-4.4938758-1.23700955-6.3916972.36332992-.5115712.43139875-.9636238.90721437-1.4006857 1.36737304-.1818871.19132563-.3536693.37221329-.5303373.55099115-.1030471.10437962-.1969888.20720465-.2878213.30669842-.1200365.13158495-.2334106.25573009-.3436754.35566799-.0527451.0478592-.0740652.0428623-.1207029.0008884-.1090433-.0982723-.2220843-.22319477-.3416767-.35544597-.0961625-.10626734-.1956562-.21619906-.3061432-.32757434-.1742251-.17566868-.3458963-.35411342-.5176785-.53278024-.4498317-.46770954-.9148762-.9512981-1.4335541-1.39357899-1.1473986-.97828134-2.4968938-1.4025734-3.90268745-1.22668264-1.93579781.24218294-3.6236385 1.41101261-4.51508488 3.12650279-.88933659 1.71149269-.87590049 3.75888789.03575557 5.47670989.62116979 1.1704953 1.36559637 2.2635943 2.21251485 3.2492044 2.0717134 2.4107251 4.56449861 4.6239062 8.08298021 7.176099.134361.097495.403083.2532871.7463143.2532871.2271922 0 .4870309-.0682909.7620823-.2667232 2.7651716-1.9958716 4.9361567-3.8385051 6.8325345-5.7988432 1.4087918-1.4563178 2.4901203-2.8783236 3.3057249-4.3473002.5948528-1.0717789.8625754-2.0368462.8421436-3.0370028-.0507462-2.1361179-.9941603-3.84350199-2.7283056-4.94082052z" fill-rule="evenodd"/></svg>