<svg height="32" viewBox="0 0 32 32" width="32" xmlns="http://www.w3.org/2000/svg"><path d="m24.0892716 12.575c-.14-2.16-1-4.18-2.35-5.53-1.53-1.53-3.57-2.38-5.74-2.38s-4.21.84-5.74 2.38c-2.82000001 2.82-3.18000001 8.11-.77000001 11.34l6.01000001 8.69c.11.16.3.26.49.26s.38-.1.49-.26l6.01-8.67c1.16-1.55 1.74-3.67 1.6-5.83zm-2.57 5.11-.01.02-5.52 7.97-5.53-7.98-.01-.02c-.99000001-1.31-1.48000001-3.14-1.36000001-5.02.12-1.87.86-3.61 2.01000001-4.76 1.31-1.31 3.04-2.03 4.89-2.03s3.58.72 4.89 2.03c1.15 1.15 1.88 2.89 2.01 4.76.12 1.88-.37 3.71-1.37 5.03zm-5.46-8.59c-2 0-3.62 1.62-3.62 3.62 0 1.99 1.62 3.62 3.62 3.62 1.99 0 3.62-1.62 3.62-3.62 0-.96-.38-1.87-1.06-2.56-.68-.68-1.59-1.06-2.56-1.06zm0 6.04c-1.33 0-2.42-1.08-2.42-2.42s1.08-2.42 2.42-2.42c1.33 0 2.42 1.08 2.42 2.42s-1.08 2.42-2.42 2.42z"/></svg>