<svg height="32" viewBox="0 0 32 32" width="32" xmlns="http://www.w3.org/2000/svg"><g fill="none" fill-rule="evenodd"><g fill-rule="nonzero"><path d="m27.0831496 23.6640844c-.0264257.0224193-.0660642.0560483-.1189156.0784676l-7.1085088 2.0513678v-13.4174718l7.1349345-2.39886732h.0792771v13.68650372z" fill="#7dcd99"/><path d="m19.8557252 16c1.6581177-1.6697915 2.7343259-3.167637 3.2286248-4.4935364l.0843752-.2431708 3.8998662-1.30999995v7.09888725c-1.0861871 2.1037829-4.0941713 3.2668269-6.5977767 2.8401467-.143844-.0244916-.3488738-.0853714-.6150895-.1826394l.031-.0346874-.031.0223819z" fill="#52a66f"/><path d="m12.6283008 23.675294-7.13493445 2.3988673h-.09248989v-13.708923c.02642568-.0112096.0660642-.033629.10570273-.0448386l7.12172161-2.0513679z" fill="#7dcd99"/><path d="m19.8557252 25.7939198-7.2274244-2.1410451v-13.3838429l1.1030536 2.1410452h6.1243708z" fill="#61b57f"/><path d="m19.8557252 19.7097538-3.7796861-1.2414461v-.2967111l3.7796861-2.1715966z" fill="#227d42"/></g><path d="m16.2624087 3.728118c3.2010334.10792468 5.5418067 3.10785422 5.003752 6.26496476-.5195444 3.05138204-3.3249586 5.17410984-4.9657901 8.34220104-.0919242.1775738-.3491866.1775738-.4411108-.0012549-1.814013-3.5185327-5.0504984-5.9659758-5.0504984-9.33862194 0-2.97200716 2.4584238-5.36893895 5.4536473-5.26728896zm-.1825935 7.7523488c1.3719925 0 2.4850598-1.1130674 2.4850598-2.48505984 0-1.37199245-1.1130673-2.48505981-2.4850598-2.48505981-1.3722748 0-2.4850598 1.11306736-2.4850598 2.48505981 0 1.37199244 1.112785 2.48505984 2.4850598 2.48505984z" fill="#bb3600"/></g></svg>