<svg height="32" viewBox="0 0 32 32" width="32" xmlns="http://www.w3.org/2000/svg"><path d="m25.435 5.395h-.22c-.08 0-.15.01-.22.04l-5.68 2.25-6.44-2.25c-.06-.02-.13-.04-.2-.04h-.01c-.07 0-.14.01-.2.04l-6.22 2.1-.08.03c-.25.13-.77.39-.77 1.1v16.78c0 .67.49 1.16 1.16 1.16h.22c.08 0 .15-.01.22-.04l5.68-2.25 6.44 2.25c.06.02.13.04.2.04h.02c.07 0 .14-.01.2-.04l6.21-2.11.08-.03c.36-.18.78-.57.78-1.09v-16.78c-.01-.67-.5-1.16-1.17-1.16zm-13.37 17.86-5.4 2.14h-.07v-16.69c.02-.01.05-.03.08-.04l5.39-1.83zm6.66 1.89-5.47-1.91v-16.4l5.47 1.91zm6.67-1.88c-.02.02-.05.05-.09.07l-5.38 1.83v-16.43l5.4-2.14h.06v16.67z"/></svg>