<svg height="32" viewBox="0 0 32 32" width="32" xmlns="http://www.w3.org/2000/svg"><path d="m16.0253261 3.46500452c2.5884687 0 5.0613872.78285066 7.1470832 2.22179718.0021852.0015076.0043573.00302711.0065163.00455836 2.7403108 1.89316965 4.6398328 4.80075524 5.2429796 8.10742294l.060898.3653922c.0943537.62331.142208 1.2560284.1425214 1.8945179l-.0019985-.0426886.002.0228457-.0036462.3322911c-.1625568 6.8173491-5.7399011 12.2938632-12.5963538 12.2938632-2.8397377 0-5.5375008-.9428094-7.73220938-2.6507865-3.04891846-2.3732638-4.86779064-6.0115062-4.86779064-9.9492135 0-4.0223183 1.89839967-7.73002726 5.05792229-10.09431519 2.04708743-1.53198609 4.51310223-2.41182693 7.12492933-2.49882394zm-.0253261 8.76509518c-.834043 0-1.625916.2680171-2.279301.7567606-.9564854.7154678-1.5302777 1.8358662-1.5302777 3.0528181 0 1.1952001.5532836 2.2977409 1.4811041 3.0154127.6621174.5121497 1.4730404.7941661 2.3284746.7941661 2.1039722 0 3.8095787-1.7056065 3.8095787-3.8095788 0-.0003415.0000003-.0006831.0000009-.0010245-.000385-.1945388-.0143051-.3811593-.0417711-.5656038-.1552122-1.0423086-.7381438-1.9681597-1.5982156-2.5652674l-.2150566-.1388808c-.5844395-.350231-1.2547525-.5388022-1.9545363-.5388022zm6.9743261-5.20309518-3.65 5.26699998.1255442.1131249c.6783151.6442119 1.1672654 1.4684471 1.4022513 2.3823398l.0577419.2513984.0448574.255437.0166052.1426999 6.434-.001-.0124102-.240757c-.005341-.0712324-.0113357-.1422824-.0179795-.2131264l-.0218741-.2118903-.055319-.419506-.0579153-.3475168c-.5026079-2.7551597-2.007899-5.21047269-4.1897119-6.9193875z"/></svg>