<svg height="32" viewBox="0 0 32 32" width="32" xmlns="http://www.w3.org/2000/svg"><g fill="none" fill-rule="evenodd"><path d="m16.0253261 4.06500452c6.627417 0 12 5.37258301 12 11.99999998 0 6.627417-5.372583 12-12 12-6.62741702 0-12.00000002-5.372583-12.00000002-12 0-6.62741697 5.372583-11.99999998 12.00000002-11.99999998zm-.0253261 7.56509518c-2.4353431 0-4.4095787 1.9742357-4.4095787 4.4095787 0 2.4353431 1.9742356 4.4095788 4.4095787 4.4095788s4.4095787-1.9742357 4.4095787-4.4095788c0-2.435343-1.9742356-4.4095787-4.4095787-4.4095787z" fill="#fff"/><path d="m16.0253261 4.06500452c2.5274048 0 4.8723161.78134736 6.8063575 2.11566558l-4.3199483 6.2342247c-.7127242-.494802-1.578364-.7847951-2.5117353-.7847951l-.0008282-7.56506728c.0087159-.00001859.017434-.0000279.0261543-.0000279z" fill="#40d8e5"/><path d="m18.5117668 12.4149166 4.3197058-6.23439208c2.5712486 1.7738542 4.4163264 4.52506258 4.9986143 7.71700598l.0594747.3564468c.0891183.5887244.135462 1.1914838.135763 1.8050102l-7.6157514-.0122814.0000055-.0070277c0-.22257-.0164897-.4412888-.048314-.6550011-.1829341-1.2284712-.8725609-2.291519-1.8494979-2.9697607z" fill="#007b3d"/><path d="m28.0253261 16.0650045c0 6.627417-5.372583 12-12 12-2.7754318 0-5.3307947-.9422272-7.36366286-2.524256l4.64276326-6.0110646c.7453285.5765138 1.6803881.9195733 2.6955735.9195733 2.4353431 0 4.4095787-1.9742357 4.4095787-4.4095788l7.6157195-.0008282c.0000186.0087159.0000279.017434.0000279.0261543z" fill="#c2c2c2"/><path d="m16.0001774 4.06503032-.0001774 7.56506938c-.9895239 0-1.9029216.3259352-2.6386911.8763038l-4.51898186-6.0550243c1.99643096-1.49407615 4.47369836-2.380843 7.15785036-2.38634888z" fill="#d75f90"/><path d="m8.84274814 6.45106407 4.51856076 6.05533943c-1.075052.8041578-1.7708876 2.0874558-1.7708876 3.5332749 0 1.4201577.6713543 2.6835121 1.7140052 3.4900055l-4.64377241 6.0102791c-2.82081458-2.195709-4.63532801-5.6234326-4.63532801-9.4749585 0-3.9337796 1.89284298-7.42546202 4.81742206-9.61394043z" fill="#fac200"/></g></svg>