<svg height="32" viewBox="0 0 32 32" width="32" xmlns="http://www.w3.org/2000/svg"><path d="m22.0196114 27.7246859c0 .3313708-.2686292.6-.6.6h-3.7388153c-.3313709 0-.6-.2686292-.6-.6v-9.5945181c0-.3313708.2686291-.6.6-.6h9.594518c.3313709 0 .6.2686292.6.6v3.7388153c0 .3313708-.2686291.6-.6.6h-5.2557027zm5.2557027-17.74429727c.3313709 0 .6.26862917.6.59999997v3.7388153c0 .3313709-.2686291.6-.6.6h-9.594518c-.3313709 0-.6-.2686291-.6-.6v-9.59451804c0-.33137085.2686291-.6.6-.6h3.7388153c.3313708 0 .6.26862915.6.6v5.25570277zm-17.74429719-5.13006855c0-.33137085.26862915-.6.59999999-.6h3.7388153c.3313708 0 .6.26862915.6.6v9.59451802c0 .3313709-.2686292.6-.6.6h-9.59451806c-.33137085 0-.6-.2686291-.6-.6v-3.7388152c0-.3313709.26862915-.6.6-.6h5.25570277zm-5.25570277 17.61866302c-.33137085 0-.6-.2686292-.6-.6v-3.7388153c0-.3313708.26862915-.6.6-.6h9.59451806c.3313708 0 .6.2686292.6.6v9.5945181c0 .3313708-.2686292.6-.6.6h-3.7388153c-.33137084 0-.59999999-.2686292-.59999999-.6v-5.2557028z"/></svg>