<svg height="32" viewBox="0 0 32 32" width="32" xmlns="http://www.w3.org/2000/svg"><path d="m24.3637781 21.7809793c1.6798611 0 3.1674681 1.062078 3.7212305 2.6327352l.0619216.1908846.1555672.5242753h-7.8774386l.1555673-.5242753c.4969831-1.6748763 2.0360966-2.8236198 3.783152-2.8236198zm-9.9431743-16.2809793.1161156.0077484.1373916.02642876c.0697431.01771263.1378231.04538906.2042438.0794291l.0730654.0381922 9.3885157 5.85475664h.0238422l-.0003218.0034449.0045478-.0017913c.0172978.0994938.0282284.2000951.0282284.3042931l-.0137762 2.6384982-.0748619-.001c-2.1530236 0-3.9107472 1.6924804-4.0152988 3.8195694l-.0049201.2006494c0 .9995608.3688973 1.9511203 1.0268636 2.6841715-.7081133.4721892-1.2937151 1.0999358-1.7145893 1.831692l-15.07208803.0004089-.02310545-9.0364912-.005.0008504v-2.4442953l9.40624348-5.86404452.05549-.02890432.1008773-.04583733.1249535-.03857367.1158045-.02123855zm9.8869906 10.5c1.3642641 0 2.4702188 1.1059546 2.4702188 2.4702188s-1.1059547 2.4702188-2.4702188 2.4702188c-1.3642642 0-2.4702189-1.1059546-2.4702189-2.4702188s1.1059547-2.4702188 2.4702189-2.4702188zm-2.4744362-4.4917913h-14.82690939l-.00079249 1.5447913 6.91074758 4.3099654.0730655.0381922.1008772.0458373.1249536.0385737.1158045.0212385.1177786.0079567.1161157-.0077484.1373916-.0264287c.069743-.0177127.1378231-.0453891.2042437-.0794291l.0730655-.0381922 6.8529565-4.2739654z" fill-rule="evenodd"/></svg>