<svg height="32" viewBox="0 0 32 32" width="32" xmlns="http://www.w3.org/2000/svg"><path d="m25.415 6.11h-15.07c-.33 0-.6.27-.6.6v3.12h-3.16c-.33 0-.6.27-.6.6v14.86c0 .33.27.6.6.6h15.07c.33 0 .6-.27.6-.6v-3.12h3.16c.33 0 .6-.27.6-.6v-14.86c0-.33-.27-.6-.6-.6zm-4.36 18.57h-13.87v-13.66h2.57v10.55c0 .33.27.6.6.6h10.7zm3.76-3.71h-13.87v-13.66h13.87zm-2.29-5.63-2.16-1.63-2.86 2.71-2.6-.79-1.67 1.78v1.22h9.29zm-6.77-1.92c.8 0 1.45-.64 1.46-1.44 0-.8-.64-1.45-1.44-1.46-.8 0-1.45.64-1.46 1.44v.01c0 .8.64 1.44 1.44 1.45z"/></svg>