<svg fill="none" height="32" viewBox="0 0 32 32" width="32" xmlns="http://www.w3.org/2000/svg"><g fill="#000"><path clip-rule="evenodd" d="m20.6143 6.60014c.6978.11971.6992.78542.6992.87695-.0002.75684-.6234.66747-.6992.65723-.0725-.01038-.1368-.02871-.1954-.04981-.0097-.00359-.0198-.00591-.0293-.00976-.0245-.00987-.0471-.02171-.0693-.03321-.0071-.00375-.0146-.00683-.0215-.01074-.4005-.22408-.4013-.70225-.4013-.77734.0002-.77596.6393-.66692.7168-.65332z" fill-rule="evenodd"/><path clip-rule="evenodd" d="m18.3828 4.89213c.5201-.53622 1.3543-.95566 2.4649-.7373l-.001.00097c1.0181.19936 1.6674.81874 2.0449 1.3584.3641.52071.5177 1.02363.5586 1.15918l.0889.25195c.0488.12238.1191.27634.2148.44043.1948.33383.4613.64843.8106.84375.2642.14577.487.31569.6757.49805l.6407.09277c.8077.1189 1.1307.81794 1.1308 1.54687v12.4942c-.0001.9548-.3317 1.4379-1.1308 1.5957l-11.8428 2.2158c-1.037.2276-1.868-.5771-1.8682-1.4805v-6.2305l4.1983-.2295c.443-.0246.5682-.3971.5869-.4541l.5781-1.7363 1.5508 5.2793c.2336.7818.9779.5557 1.0771-.1387l.9502-3.8925 1.2842-.0538c.0433.1175.3547.9574 1.2647.9024.9105-.0553 1.2937-1.0331 1.2939-1.5762-.0002-.5246-.3384-1.497-1.2939-1.499-.9544-.0018-1.2466.9152-1.2872 1.043l-1.6699.0312c-.4138.0082-.5107.3924-.5244.4473l-.581 2.331-1.4541-5.0595c-.1816-.6824-.9123-.7749-1.1465-.0508l-1.0791 3.1758-3.7481.1211v-8.93656c.0005-1.02523.8634-1.70267 1.8682-1.5586l1.8486.2666c.1788-.07996.3741-.14735.5869-.19824l.1934-.05859c.2773-.10441.7596-.3747 1.0176-1.06738.04-.11164.2324-.65713.6982-1.1377zm2.2334.44043c-1.3115-.25795-1.7439.94147-1.8017 1.10254-.2896.78737-.7725 1.24944-1.2002 1.52051-.0141.00895-.0281.01783-.042.02636-.0475.02897-.0941.05564-.1397.08008-.0111.00599-.0222.01185-.0332.01758-.0317.01647-.0634.0305-.0937.04492-.0678.03231-.1313.06084-.1905.08399-.0102.00399-.0203.00797-.0302.01172-.0624.02358-.1187.04181-.167.05664-.0602.01835-.1081.03096-.1407.03906-.0057.00144-.0108.0037-.0156.00488-1.504.35415-1.5058 1.89946-1.5058 2.11036l9.8125.8809c0-.1911-.0014-1.45885-1.0889-2.05473-.0093-.00522-.0181-.01131-.0274-.01661-.0566-.0325-.1109-.06713-.164-.10254-.0188-.01251-.0373-.02525-.0557-.03808-.0384-.02695-.0757-.05474-.1123-.08301-.039-.03008-.0773-.06042-.1142-.0918-.0312-.02652-.0622-.05276-.0918-.08007-.7656-.70139-1.0565-1.64417-1.1104-1.81934-.0557-.18467-.4374-1.44862-1.6875-1.69336z" fill-rule="evenodd"/><path d="m9.44922 8.4644 1.70508.29687v15.98833l-1.70508.3847c-.8341.1675-1.21875-.5928-1.21875-1.2812v-14.04593c.00016-.7304.38882-1.48517 1.21875-1.34277z"/><path d="m5.99414 10.0767 1.02734.1787v13.0557l-1.02734.2324c-.67366.1352-.98422-.4782-.98437-1.0342v-11.3476c0-.5902.31372-1.20011.98437-1.085z"/></g></svg>