<svg fill="none" height="32" viewBox="0 0 32 32" width="32" xmlns="http://www.w3.org/2000/svg"><path clip-rule="evenodd" d="m18.8076 6.44035c.0578-.16086.4901-1.36057 1.8018-1.10254 1.25.24471 1.6318 1.50867 1.6875 1.69336.0655.21309.4803 1.56342 1.6758 2.23144 1.0899.5972 1.0898 1.86889 1.0898 2.05569l-9.8145-.8809c0-.2083.0002-1.75685 1.5059-2.11131.069-.01701.2443-.06457.4717-.16504l-3.2813-.47363c-.6771-.09698-1.1822.33826-1.1826.96484v8.91604l3.1485-.1016 1.0791-3.1758c.2342-.7244.9651-.6311 1.1464.0518l1.4541 5.0586.5811-2.3311c.0138-.0553.1109-.4381.5244-.4463l1.6699-.0312c.04-.126.3316-1.0448 1.2871-1.043l.1729.0108c.8242.1106 1.1209.9955 1.1211 1.4873 0 .543-.3832 1.5218-1.294 1.5771-.9096.055-1.2211-.7844-1.2646-.9023l-1.2842.0527-.9502 3.8936c-.0991.6945-.8436.9199-1.0771.1377l-1.5508-5.2793-.5781 1.7373c-.0188.0573-.1442.4285-.5869.4531l-3.5987.1973v6.2636c.0003.5527.5083 1.0331 1.1397.8946l.0088-.002.0097-.0019 11.8369-2.2149c.2975-.0587.4226-.1575.4912-.2549.0811-.1153.1562-.3317.1563-.7519v-12.4942c0-.2838-.0643-.51821-.166-.67575-.0906-.13992-.2243-.24368-.4522-.27734l-2.0683-.30078c-.5637-.39654-.9229-.94077-1.1407-1.37598l3.3819.48926h.0019c.5794.08541 1.0114.39127 1.2842.8125.2613.40377.3594.8836.3594 1.32809v12.4942c-.0001.5341-.0906 1.038-.375 1.4424-.2971.4221-.7389.6432-1.2402.7421l-.0059.001-11.8262 2.2119.001.001c-1.4059.3084-2.5343-.7575-2.5908-1.9726l-1.99416.4511-.00683.002-.00684.001c-.6485.1301-1.17769-.1114-1.51172-.5362-.30522-.3883-.42471-.8936-.4248-1.332v-.0654l-1.50489.3398-.00683.001-.00684.0019c-.56844.1141-1.03944-.0996-1.33496-.4756-.2666-.3393-.36715-.7752-.36719-1.1474v-11.3477c.00013-.3851.09996-.8257.36426-1.17087.29097-.37981.75542-.60199 1.32129-.50488l1.53613.26758c.00927-.44143.12985-.92874.4209-1.30859.30895-.40309.7876-.64983 1.37793-.5879l.12012.01661.00098.00097 2.05765.35742c.2121-1.18242 1.316-1.90807 2.5136-1.73632l4.3428.62793c-.1359.20327-.2864.37102-.4385.51171.2997-.27648.5901-.66056.7881-1.19921zm-9.46776 2.62011c-.10923-.01872-.17513-.00398-.21386.01172-.04032.0164-.08401.04789-.12891.10645-.09858.12865-.17471.35904-.1748.63379v14.04688l.01367.1807c.02497.1723.08375.318.15527.4091.04285.0545.08384.0824.12109.0967.03556.0136.09959.0275.20899.0059l2.24121-.5059v-14.59862zm-3.56445 1.61524c-.01092.0044-.031.0154-.05664.0488-.05985.0784-.11705.2372-.11719.4414v11.3477c.00002.1836.05441.3337.11133.4062.02354.03.04081.038.04883.0411.00622.0023.03525.0126.10449-.001l1.75684-.3965v-11.5879l-1.73926-.3027c-.06852-.0116-.0991-.0009-.1084.0029zm14.83201-4.07031c-.0774-.0136-.7166-.12264-.7168.65332 0 .09116 0 .77923.7168.88183.0758.01025.6992.09891.6992-.6582 0-.09056-.0007-.75713-.6992-.87695z" fill="#000" fill-rule="evenodd"/></svg>