<svg fill="none" height="32" viewBox="0 0 32 32" width="32" xmlns="http://www.w3.org/2000/svg"><g clip-rule="evenodd" fill-rule="evenodd"><path d="m5.98627 10.0819 6.77053 1.1797c.7035.1224.7035.9631.7035 1.0728v8.5786c0 .1119 0 .9504-.7035 1.1094l-6.77053 1.5265c-.67384.1352-.98432-.4787-.98432-1.0348v-11.3474c0-.5902.31367-1.19986.98432-1.0848z" fill="#66262c"/><path d="m9.44108 8.47019 8.38082 1.46026c.8708.15155.8708 1.19205.8708 1.32795v10.6188c0 .1385 0 1.1764-.8708 1.3732l-8.38082 1.8896c-.8341.1674-1.21842-.5925-1.21842-1.2809v-14.0462c0-.73057.38827-1.48519 1.21842-1.34271z" fill="#843940"/><path d="m14.0298 7.09302 11.8433 1.71298c.2961.042 1.1311 1.03168 1.1311 1.547v12.4939c0 .5102-.8299 1.5398-1.1311 1.5962l-11.8433 2.216c-.8145.1526-1.8677-.7387-1.8677-1.4804v-16.52638c0-.74379 1.0563-1.67712 1.8677-1.5593z" fill="#b75c64"/><path d="m21.1038 17.7756-.9508 3.8931c-.1117.4539-.9589.542-1.0767.1383l-1.5511-5.2793-.5779 1.7366c-.0184.0563-.1434.4292-.587.4538l-4.2138.2305v-1.3595l3.764-.1219 1.0788-3.176c.1435-.418 1.0215-.3842 1.1465.0512l1.4537 5.0591.5809-2.3308c.0134-.0533.1097-.4385.5246-.4467l1.6699-.0317c.04-.1261.332-1.045 1.2878-1.043.5082 0 1.294.9743 1.294 1.4989 0 .543-.9415 1.5552-1.294 1.5767-.9107.0553-1.2222-.7858-1.2652-.9026z" fill="#fff"/><path d="m22.2967 7.03153c-.0554-.18339-.4365-1.44865-1.6874-1.69351-1.3124-.25818-1.7447.94255-1.8021 1.10237-.5594 1.5214-1.837 1.83285-2.0531 1.88612-1.5061.35448-1.5061 1.90249-1.5061 2.11049l9.8148.8811c0-.1865 0-1.4579-1.09-2.05519-1.1956-.66798-1.6106-2.01828-1.6761-2.23138z" fill="#85cfe8"/><path d="m20.6078 6.60537c.6987.11987.6987.78682.6987.87698 0 .75711-.6229.66798-.6987.65773-.7172-.10245-.7172-.78989-.7172-.88108 0-.7776.6414-.66695.7172-.65363z" fill="#69b5cf"/><path d="m14.0298 7.09303 11.8433 1.71297c.8079.11891 1.1311.8179 1.1311 1.547v12.4939c0 .9552-.3318 1.4385-1.1311 1.5962l-11.8433 2.216c-1.0371.2277-1.8677-.5769-1.8677-1.4804v-16.52637c0-1.02575.8626-1.70346 1.8677-1.5593z" fill="#b75c64"/><path d="m21.1038 17.7756-.9508 3.8931c-.0991.6947-.8432.9206-1.0767.1383l-1.5511-5.2793-.5779 1.7366c-.0184.0563-.1434.4292-.587.4538l-4.2138.2305v-1.3595l3.764-.1219 1.0788-3.176c.2342-.7247.9651-.6317 1.1465.0513l1.4537 5.059.5809-2.3308c.0134-.0533.1097-.4385.5246-.4467l1.6699-.0317c.04-.126.332-1.045 1.2878-1.043.9559.0021 1.294.9743 1.294 1.4989 0 .543-.3832 1.5214-1.294 1.5767-.9107.0553-1.2222-.7858-1.2652-.9026z" fill="#fff"/><path d="m22.2967 7.03153c-.0554-.18339-.4365-1.44865-1.6874-1.69351-1.3124-.25818-1.7447.94255-1.8021 1.10237-.5594 1.5214-1.837 1.83285-2.0531 1.88612-1.5061.35448-1.5061 1.90249-1.5061 2.11049l9.8148.8811c0-.1865 0-1.4579-1.09-2.05519-1.1956-.66798-1.6106-2.01828-1.6761-2.23138z" fill="#85cfe8"/><path d="m20.6078 6.60537c.6987.11987.6987.78682.6987.87698 0 .75711-.6229.66798-.6987.65773-.7172-.10245-.7172-.78989-.7172-.88108 0-.7776.6414-.66695.7172-.65363z" fill="#69b5cf"/></g></svg>