<svg height="32" viewBox="0 0 32 32" width="32" xmlns="http://www.w3.org/2000/svg"><g fill="none" fill-rule="evenodd"><path d="m4.49945632 11.5065551 9.38866798-5.85475664c.011349-.0069191.023802-.01176037.0351511-.01826461.0124529-.00691911.0254614-.01342335.0379144-.01992759.0664206-.03404004.1345042-.06171647.2042438-.0794291.0076117-.00221145.0146679-.00345956.021587-.0049819.0767993-.01770912.1547061-.02919526.2319202-.02919526h.001663c.0772141 0 .1551209.01093064.2319202.02919526.0069191.00152234.0139753.00277045.021587.0049819.0697431.01771263.1378231.04538906.2042438.0794291.0124565.00650424.0254614.01300848.0379179.01992759.0113455.00650424.0237985.01134551.0351475.01826461l9.3885157 5.85475664h.0238422v2.4442953h-19.86432178z" fill="#cc9095"/><path d="m7.00624881 11.5082087h14.82690939v7.7895164c0 .5522848-.4477153 1-1 1h-12.82690939c-.55228475 0-1-.4477152-1-1z" fill="#fff"/><path d="m4.49947112 11.8125018c0-.1037831.01093183-.2047993.02809065-.3042931l9.38864213 5.8547567c.011349.0069191.023802.0117603.035151.0182646.012453.0069191.0254615.0134233.0379145.0199276.0664206.03404.1345042.0617164.2042437.0794291.0076117.0022114.014668.0034595.0215871.0049819.0767992.0177091.154706.0291952.2319201.0291952h.001663c.0772142 0 .1551209-.0109306.2319202-.0291952.0069191-.0015224.0139753-.0027705.0215871-.0049819.069743-.0177127.1378231-.0453891.2042437-.0794291.0124565-.0065043.0254615-.0130085.037918-.0199276.0113455-.0065043.0237985-.0113455.0351475-.0182646l9.3885043-5.8547567c.0172978.0994938.0282284.2000951.0282284.3042931l-.0562966 11.1739894h-19.81237413z" fill="#b75c64"/><path d="m13.9162039 17.3629654c.011349.0069191.023802.0117603.035151.0182646.012453.0069191.0254615.0134233.0379145.0199276.0664206.03404.1345042.0617164.2042437.0794291.0076117.0022114.014668.0034595.0215871.0049819.0767992.0177091.154706.0291952.2319201.0291952h.001663c.0772142 0 .1551209-.0109306.2319202-.0291952.0069191-.0015224.0139753-.0027705.0215871-.0049819.069743-.0177127.1378231-.0453891.2042437-.0794291.0124565-.0065043.0254615-.0130085.037918-.0199276.0113455-.0065043.0237985-.0113455.0351475-.0182646l9.3885043-5.8547567c.0172978.0994938.0282284.2000951.0282284.3042931l-.0562966 11.1739894z" fill="#95333c"/><g fill-rule="nonzero"><path d="m29.6328923 24.1636722.7463315 2.5152022h-12.0308913l.7463315-2.5152022c.3673238-1.2379133 1.1549988-2.2993935 2.2195751-3.0092819-.6579663-.7330512-1.0268636-1.6846107-1.0268636-2.6841715 0-2.2203055 1.7999133-4.0202188 4.0202189-4.0202188 2.2203055 0 4.0202188 1.7999133 4.0202188 4.0202188 0 .9779522-.3530266 1.9104111-.9856468 2.637493 1.0998067.7090664 1.9150415 1.7898711 2.2907259 3.0559604z" fill="#fff"/><path d="m24.3637781 21.7809793c1.7470555 0 3.286169 1.1487435 3.7831521 2.8236198l.1555672.5242753h-7.8774386l.1555673-.5242753c.4969831-1.6748763 2.0360966-2.8236198 3.783152-2.8236198zm-.0561837-5.7809793c1.3642641 0 2.4702188 1.1059546 2.4702188 2.4702188s-1.1059547 2.4702188-2.4702188 2.4702188c-1.3642642 0-2.4702189-1.1059546-2.4702189-2.4702188s1.1059547-2.4702188 2.4702189-2.4702188z" fill="#007880"/></g></g></svg>