<svg height="32" viewBox="0 0 32 32" width="32" xmlns="http://www.w3.org/2000/svg"><path d="m17.8158398 23.2955957h-12.53198219c-.33078195 0-.59916654-.2677108-.5999981-.5984917l-.02668802-10.6167983c0-.1291805.01231874-.2571297.03541475-.3910497.03424539-.1985687.15858163-.3509542.31846196-.4324318l8.8838449-5.53991401c.0467412-.02655303.0473115-.02687699.0663196-.03596096l.0209982-.01124129.0207739-.01074367c.1046523-.05363347.2102325-.09515782.3002857-.11767152.0449816-.01174421.0463715-.0121071.0595836-.01470135.118109-.0268243.2326609-.0415914.3486453-.0415914.12053 0 .2396894.01530553.3499034.04152823.0135037.00264946.0141064.00280189.0402015.00940183.1097551.02787451.2153321.06939813.3240524.12513601l.0167126.00864187c.0095556.0049784.0125054.00651522.022067.01175339.0180461.00863071.0195747.00950649.0704083.03863005l8.8334537 5.50861542c.1141085.0424545.211807.1186359.2809788.2164275.0678334.0920238.1104514.212922.1100197.3488747-.0035075.7277085-.0075533 1.144667-.0122239 2.3520098-.0013102.331707-.2705731.5999302-.6022826.5999302-.3301699 0-.5978255-.2676556-.5978255-.5978255.0034217-.9352608.0057989-.9958898.0071456-1.2852047l-8.0122092 4.8859706c-.5121655.3123266-1.1560075.3119217-1.6677798-.0010488l-8.01502232-4.9015263.02325207 9.2492814h11.93348865c.3313708 0 .6.2686291.6.6 0 .3313708-.2686292.6-.6.6zm1.6-10.9043684h-9.4120177v1.5831562l4.4963608 2.7497154c.127943.0782426.2889036.0783439.4169449.0002622l4.498712-2.743385zm-12.98799749-.6037072 2.33395801 1.4146231v-2.0109159h11.85836368v2.042416l2.3844289-1.4411451-8.0832105-5.04079016c-.0056246-.00289995-.0131295-.00693295-.0318444-.01692847l-.0152465-.00789195c-.0237558-.01217467-.0434194-.02039766-.0700643-.02830019l-.0096456-.00213239c-.0333652-.007935-.0606906-.01145504-.0830822-.01145504-.0195053 0-.0479723.00373782-.0949648.01448285-.0164418.00439749-.0384248.01314511-.062123.0252708l-.0154513.00767186c-.0193619.01050132-.0286198.0155225-.0350877.0188965zm17.69548039 10.247712c1.5353864.3824409 2.7936623 1.5502381 3.2589725 3.1183741l.1555673.5242752c.1141191.3845913-.1740459.7706814-.5752111.7706814h-7.8774386c-.4011653 0-.6893302-.3860901-.5752112-.7706814l.1555673-.5242752c.4584013-1.5448526 1.6863956-2.7011664 3.190766-3.1008207-1.1462702-.4453148-1.9588054-1.5592076-1.9588054-2.8628782 0-1.6956351 1.3745838-3.0702188 3.0702188-3.0702188s3.0702188 1.3745837 3.0702188 3.0702188c0 1.2868655-.7917221 2.3888144-1.9146444 2.8453248zm-1.1555744-.975106c1.0328933 0 1.8702188-.8373255 1.8702188-1.8702188 0-1.0328934-.8373255-1.8702188-1.8702188-1.8702188s-1.8702188.8373254-1.8702188 1.8702188c0 1.0328933.8373255 1.8702188 1.8702188 1.8702188zm.0561838 2.0405416c-1.3940938 0-2.6320383.8626232-3.1243454 2.1478951h6.2486907c-.4923071-1.2852719-1.7302516-2.1478951-3.1243453-2.1478951z"/></svg>