<svg height="32" viewBox="0 0 32 32" width="32" xmlns="http://www.w3.org/2000/svg"><path d="m15.9772291 4.78223105c6.1360987 0 11.1103896 4.97429087 11.1103896 11.11038965 0 6.1360987-4.9742909 11.1103896-11.1103896 11.1103896-6.13609876 0-11.11038962-4.9742909-11.11038962-11.1103896 0-6.13609878 4.97429086-11.11038965 11.11038962-11.11038965zm5.4233766 7.93084415c-.5564862 0-1.0561105.2079827-1.4235319.5884587-.3380432-.3795162-.8247743-.5826145-1.4050395-.5826145-.3690043 0-.7074655.0870173-.9987574.2544953-.0997791-.1530205-.272464-.2544953-.4681257-.2544953-.2768559 0-.5077089.2031674-.5511109.4680541l-.0073307.0903874v5.2363637c0 .3076176.250824.5584415.5584416.5584415.2768558 0 .5077088-.2031674.5511108-.4680541l.0073307-.0903874v-3.5123377c0-.6990229.3149617-1.1655844.9084416-1.1655844.5150391 0 .7491362.2883004.7958567.8225667l.0074981.1276393-.005665.0934181.000905.0500782.0046519.0394393v3.3928324c0 .3076176.250824.5584416.5584416.5584416.2768558 0 .5077088-.2031674.5511109-.4680541l.0073307-.0903875v-3.5649351c.0341454-.5571095.3709769-.9610389.9084415-.9610389.4993047 0 .7639247.2721916.79918.8558633l.0040668.1402406v3.5298701c0 .3076176.2508239.5584416.5584415.5584416.2768559 0 .5077089-.2031674.5511109-.4680541l.0073307-.0903875v-3.5298701c0-1.371606-.8052621-2.1188312-1.9201299-2.1188312zm-7.912987 0c-.5564 0-1.0559557.2079183-1.4233611.5882818-.3389862-.3819806-.8265527-.5882818-1.4052103-.5882818-.369539 0-.7073019.0858186-.99904014.2540623-.09982235-.1527789-.27236596-.2540623-.46784301-.2540623-.27685585 0-.50770883.2031674-.55111087.4680541l-.00733069.0903875v5.2363636c0 .3076176.25082395.5584416.55844156.5584416.27685585 0 .50770884-.2031674.55111087-.4680542l.00733069-.0903874v-3.4303026l.00549826-.0579624.0003459-.0240727c0-.4085028.11516367-.7420803.31316503-.9400817.146427-.146427.3386598-.2196585.5894324-.2196585.5327952 0 .768709.3148168.7996926.8790347l.0035541.1346016v3.5064936c0 .3076176.250824.5584415.5584416.5584415.2768558 0 .5077088-.2031674.5511109-.4680541l.0073306-.0903874v-3.4714286c0-.601486.346701-1.0545455.9084416-1.0545455.4993047 0 .7639247.2721916.79918.8558633l.0040668.1402406v3.5298702c0 .3076176.2508239.5584415.5584415.5584415.2768559 0 .5077088-.2031674.5511109-.4680541l.0073307-.0903874v-3.5298702c0-1.3652095-.8096375-2.112987-1.9201299-2.112987z" fill-rule="evenodd"/></svg>