<svg height="32" viewBox="0 0 32 32" width="32" xmlns="http://www.w3.org/2000/svg"><g fill="none" fill-rule="evenodd"><circle cx="15.977229" cy="15.892621" fill="#9373b3" r="11.11039"/><g fill="#fff" fill-rule="nonzero"><path d="m13.4876187 12.7130752c1.1104924 0 1.9201299.7477775 1.9201299 2.112987v3.5298702c0 .3076176-.250824.5584415-.5584416.5584415s-.5584415-.2508239-.5584415-.5584415v-3.5298702c0-.6804261-.2655341-.9961039-.8032468-.9961039-.5617406 0-.9084416.4530595-.9084416 1.0545455v3.4714286c0 .3076176-.2508239.5584415-.5584415.5584415s-.5584416-.2508239-.5584416-.5584415v-3.5064936c0-.6485233-.2294673-1.0136363-.8032467-1.0136363-.2507726 0-.4430054.0732315-.5894324.2196585-.19800136.1980014-.31316503.5315789-.31316503.9400817.00004051.0165423.00004051.0165423-.00125858.0440254-.00092364.0129309-.00236869.0254995-.00458558.0380097v3.4303026c0 .3076176-.25082395.5584416-.55844156.5584416s-.55844156-.250824-.55844156-.5584416v-5.2363636c0-.3076176.25082395-.5584416.55844156-.5584416.19547705 0 .36802066.1012834.46784301.2540623.29173824-.1682437.62950114-.2540623.99904014-.2540623.5786576 0 1.0662241.2063012 1.4052103.5882818.3674054-.3803635.8669611-.5882818 1.4233611-.5882818z"/><path d="m21.4006057 12.7130752c1.1148678 0 1.9201299.7472252 1.9201299 2.1188312v3.5298701c0 .3076176-.250824.5584416-.5584416.5584416s-.5584415-.250824-.5584415-.5584416v-3.5298701c0-.6804261-.2655341-.9961039-.8032468-.9961039-.5374646 0-.8742961.4039294-.9084415.9610389v3.5649351c0 .3076176-.250824.5584416-.5584416.5584416s-.5584416-.250824-.5584416-.5584416v-3.3928324c-.0048052-.0250263-.0057474-.0503059-.0055569-.0895175l.005665-.0934181c-.019866-.6158458-.2486973-.950206-.8033548-.950206-.5934799 0-.9084416.4665615-.9084416 1.1655844v3.5123377c0 .3076176-.2508239.5584415-.5584415.5584415s-.5584416-.2508239-.5584416-.5584415v-5.2363637c0-.3076176.250824-.5584415.5584416-.5584415.1956617 0 .3683466.1014748.4681257.2544953.2912919-.167478.6297531-.2544953.9987574-.2544953.5802652 0 1.0669963.2030983 1.4050395.5826145.3674214-.380476.8670457-.5884587 1.4235319-.5884587z"/></g></g></svg>