<svg height="32" viewBox="0 0 32 32" width="32" xmlns="http://www.w3.org/2000/svg"><path d="m11.74 10.915c-.95 0-1.78.39-2.35 1.09l-.1.13c-.5-.78-1.33-1.22-2.39-1.22-.74 0-1.39.22-1.91.65v-.05c0-.33-.27-.6-.6-.6s-.6.27-.6.6v8.96c0 .33.27.6.6.6s.6-.27.6-.6v-5.91c.01-.03.01-.07.01-.1 0-.79.23-1.45.64-1.86.32-.32.74-.48 1.26-.48 1.43 0 1.73 1.14 1.73 2.09v6c0 .33.27.6.6.6s.6-.27.6-.6v-5.94c0-1.04.6-2.16 1.91-2.16 1.13 0 1.73.71 1.73 2.06v6.04c0 .33.27.6.6.6s.6-.27.6-.6v-6.04c0-2.41-1.52-3.26-2.93-3.26zm13.54 0c-.95 0-1.78.39-2.35 1.09-.03.04-.07.08-.1.13-.5-.78-1.33-1.21-2.39-1.21-.75 0-1.4.23-1.91.65v-.05c0-.33-.27-.6-.6-.6s-.6.27-.6.6v8.96c0 .33.27.6.6.6s.6-.27.6-.6v-6.01c0-1.13.5-2.35 1.91-2.35 1.37 0 1.7 1.04 1.73 1.97l-.01.19c0 .03 0 .06.01.09v5.85c0 .33.27.6.6.6s.6-.27.6-.6v-6.1c.06-.99.66-2 1.91-2 1.13 0 1.73.71 1.73 2.06v6.04c0 .33.27.6.6.6s.6-.27.6-.6v-6.04c0-2.42-1.51-3.27-2.93-3.27z"/></svg>