<svg height="32" viewBox="0 0 32 32" width="32" xmlns="http://www.w3.org/2000/svg"><path d="m22.78 20.97h-13.56l-.10008075.0062556c-.39356304.0495375-.69991925.3871688-.69991925.7937444s.30635621.7442069.69991925.7937444l.10008075.0062556h13.56l.1000807-.0062556c.3935631-.0495375.6999193-.3871688.6999193-.7937444s-.3063562-.7442069-.6999193-.7937444zm0-5.77h-13.56l-.10008075.0062556c-.39356304.0495375-.69991925.3871688-.69991925.7937444s.30635621.7442069.69991925.7937444l.10008075.0062556h13.56l.1000807-.0062556c.3935631-.0495375.6999193-.3871688.6999193-.7937444s-.3063562-.7442069-.6999193-.7937444zm0-5.77h-13.56l-.10008075.0062556c-.39356304.0495375-.69991925.38716875-.69991925.7937444 0 .4065756.30635621.7442069.69991925.7937444l.10008075.0062556h13.56l.1000807-.0062556c.3935631-.0495375.6999193-.3871688.6999193-.7937444 0-.40657565-.3063562-.7442069-.6999193-.7937444z" fill="#2289a3" fill-rule="evenodd"/></svg>