<svg height="32" viewBox="0 0 32 32" width="32" xmlns="http://www.w3.org/2000/svg"><path d="m25.0511579 4.74884211c1.1621992 0 2.1139152.90118564 2.1944762 2.04288499l.0055238.15711501v18.10231579c0 1.1621992-.9011856 2.1139152-2.042885 2.1944762l-.157115.0055238h-18.10231579c-1.16219921 0-2.11391524-.9011856-2.19447618-2.042885l-.00552382-.157115v-18.10231579c0-1.16219921.90118564-2.11391524 2.04288499-2.19447618l.15711501-.00552382zm-2.2711579 16.22115789h-13.56l-.10008075.0062556c-.39356304.0495375-.69991925.3871688-.69991925.7937444s.30635621.7442069.69991925.7937444l.10008075.0062556h13.56l.1000807-.0062556c.3935631-.0495375.6999193-.3871688.6999193-.7937444s-.3063562-.7442069-.6999193-.7937444zm0-5.77h-13.56l-.10008075.0062556c-.39356304.0495375-.69991925.3871688-.69991925.7937444s.30635621.7442069.69991925.7937444l.10008075.0062556h13.56l.1000807-.0062556c.3935631-.0495375.6999193-.3871688.6999193-.7937444s-.3063562-.7442069-.6999193-.7937444zm0-5.77h-13.56l-.10008075.0062556c-.39356304.0495375-.69991925.38716875-.69991925.7937444 0 .4065756.30635621.7442069.69991925.7937444l.10008075.0062556h13.56l.1000807-.0062556c.3935631-.0495375.6999193-.3871688.6999193-.7937444 0-.40657565-.3063562-.7442069-.6999193-.7937444z" fill-rule="evenodd"/></svg>