<svg height="32" viewBox="0 0 32 32" width="32" xmlns="http://www.w3.org/2000/svg"><path d="m15.8123095 7.13694419c.2283489 0 .4440118.10148843.5962445.27909318l3.8565603 4.80801433c.1902908.228349.2156629.5455003.0888024.8119074-.1268606.2664072-.4059537.4313259-.697733.4313259l-2.9939086-.0380582-.1532935-.0032826-.0002679 2.2615188c.4356744 4.1914817 3.9328688 7.5251288 8.2006371 7.683148l.2592874.0056678c.33.01.6.28.6.61s-.27.6-.6.6c-4.1552407-.0243948-7.7219895-2.6936976-9.0979524-6.4002379-1.3747147 3.7065403-4.9414634 6.3758431-9.09670417 6.4002379-.33 0-.6-.27-.6-.6s.27-.6.6-.61c4.42325017-.0297528 8.07930157-3.4725565 8.47091647-7.8019088l.0330835-.0004258v-2.169l-.138033-.0010895-3.0953971-.0507442c-.2917792 0-.5581863-.1776048-.6723608-.4313258-.0507442-.1014885-.0761163-.2156629-.0761163-.3298374 0-.1649187.0507442-.3425235.1649187-.469384l3.7550718-4.69383987c.1395466-.17760475.3678956-.29177924.5962446-.29177924z"/></svg>