<svg height="32" viewBox="0 0 32 32" width="32" xmlns="http://www.w3.org/2000/svg"><path d="m15.8123095 6.93694419c-.2883143 0-.5751473.14121011-.7535082.36821493l-3.753982 4.69246518c-.1353485.1498832-.2087449.3700724-.2087449.594323 0 .1463373.0330446.2909076.0972309.4192801l.055158.1032336c.1651594.2644464.4699591.4386495.7960882.4386495l3.0324485.0488895v1.774l-.0150388.0007079-.0162499.1796445c-.384974 4.2559373-3.9817751 7.5910656-8.27307493 7.6199309-.4435165.0133843-.79865474.3726046-.79865474.8099955 0 .4404569.35954305.8.8.8l.28942899-.0059368c3.84833898-.1353638 7.25608508-2.5096168 8.78044498-5.9939226l.0261444-.0644194.0277179.0644947c1.56365 3.5715326 5.1048516 5.9765034 9.0697462 5.9997841.4416311 0 .8011741-.3595431.8011741-.8 0-.4373909-.3551382-.7966112-.7939421-.8099083l-.2609746-.0057117-.2579808-.0135817c-4.0266217-.2750298-7.3292986-3.4611515-7.7480987-7.4902912l.000358-2.0367859 2.9456416.0372688c.3747662.0000162.7221261-.2120087.8808472-.5453229.1624012-.3410426.1219898-.7406671-.1157302-1.0259311l-3.8541916-4.80511713c-.1943356-.2268881-.4654084-.35395348-.7522575-.35395348z" fill="#2289a3"/></svg>