<svg height="32" viewBox="0 0 32 32" width="32" xmlns="http://www.w3.org/2000/svg"><path d="m15.8438556 18.7864194.0261444-.0644194.0277179.0644947c1.3912205 3.1776864 4.3478962 5.4319074 7.7756154 5.9068256-2.0574164 1.819882-4.7598138 2.9266797-7.7133333 2.9266797-2.9654075 0-5.6776673-1.1157255-7.73860141-2.9489986 3.36355881-.5200809 6.25301841-2.7543874 7.62245701-5.884582zm.1161444-14.4864194c6.424 0 11.66 5.236 11.66 11.66 0 2.7274547-.9438515 5.2407582-2.5217437 7.2300998-.0405382-.0080375-.0816679-.0124598-.1235602-.0137293l-.2609746-.0057117-.2579808-.0135817c-4.0266217-.2750298-7.3292986-3.4611515-7.7480987-7.4902912l.000358-2.0367859 2.9456416.0372688c.3747662.0000162.7221261-.2120087.8808472-.5453229.1624012-.3410426.1219898-.7406671-.1157302-1.0259311l-3.8541916-4.80511713c-.1943356-.2268881-.4654084-.35395348-.7522575-.35395348-.2883143 0-.5751473.14121011-.7535082.36821493l-3.753982 4.69246518c-.1353485.1498832-.2087449.3700724-.2087449.594323 0 .1463373.0330446.2909076.0972309.4192801l.055158.1032336c.1651594.2644464.4699591.4386495.7960882.4386495l3.0324485.0488895v1.774l-.0150388.0007079-.0162499.1796445c-.3838056 4.2430205-3.959972 7.5708128-8.23402166 7.6195768-1.5722664-1.9869776-2.51168964-4.4948802-2.51168964-7.2159292 0-6.424 5.236-11.66 11.66-11.66z"/></svg>