<svg height="32" viewBox="0 0 32 32" width="32" xmlns="http://www.w3.org/2000/svg"><path d="m11.9424954 17.0378409c0 2.1917684 1.676022 3.8677904 3.8677935 3.8677904 2.1917745 0 3.8678606-1.676022 3.8678606-3.8677904h7.735523v8.2990219h-23.20676418v-8.2990219zm3.9922051-13.89118558c.4319801 0 .7821693.35018912.7821693.7821693l-.0009615 3.1528307 5.1827679.00015716 4.9562321 8.95600002h-3.102l-1.8542321-3.350973-5.3697679-.000027.0004716 2.3296548 1.706692-.0243116c.4075433-.0058053.637641.4656504.3823246.7833589l-2.3410964 2.9131945c-.193155.2403566-.5592693.239851-.7517597-.0010382l-2.2753348-2.8474342c-.2500658-.3129412-.0311052-.7766151.3694351-.7823207l1.7204104-.0245069-.0001428-2.3465966-5.62477788.000027-1.8552221 3.350973h-3.101l4.9562221-8.95600002 5.43677788-.00015716.0006228-3.1528307c0-.43198018.3501892-.7821693.7821694-.7821693z" fill-rule="evenodd"/></svg>