<svg height="32" viewBox="0 0 32 32" width="32" xmlns="http://www.w3.org/2000/svg"><path d="m22.6146512 25.1018833c-.3313708 0-.6-.2686292-.6-.6 0-.3313709.2686292-.6.6-.6h3.2000001c.3313708 0 .6.2686291.6.6 0 .3313708-.2686292.6-.6.6z"/><path d="m16.1146512 25.1018833c-.3313708 0-.6-.2686292-.6-.6 0-.3313709.2686292-.6.6-.6h3.2000001c.3313708 0 .6.2686291.6.6 0 .3313708-.2686292.6-.6.6z"/><path d="m9.61465124 25.1018833c-.33137085 0-.6-.2686292-.6-.6 0-.3313709.26862915-.6.6-.6h3.20000006c.3313708 0 .6.2686291.6.6 0 .3313708-.2686292.6-.6.6z"/><path d="m3.92669824 22.4761837c-.00068803-.3313701.2673817-.6005575.59875183-.6012482.33137013-.000688.60055754.2673817.6012469.5987519l.001092.898763.00357924.0820017c.02629865.2527729.241006.4474312.49780701.4474312h.68547606c.33137085 0 .6.2686291.6.6 0 .3313708-.26862915.6-.6.6h-.68547606c-.87297241 0-1.60161387-.660602-1.69374325-1.553556l-.00679915-.1428428z"/><path d="m3.91317612 15.9761978c-.00068804-.3313701.2673817-.6005575.59875183-.6012482.33137013-.000688.60055754.2673817.6012469.5987518l.00665837 3.1999931c.00068803.3313702-.2673817.6005576-.59875183.6012483-.33137014.000688-.60055754-.2673817-.6012469-.5987519z"/><path d="m3.89965399 9.47621188c-.00068803-.33137013.2673817-.60055754.59875184-.60124823.33137013-.00068803.60055753.2673817.60124689.59875184l.00665837 3.19999311c.00068804.3313701-.26738169.6005575-.59875183.6012482-.33137013.0006881-.60055754-.2673817-.6012469-.5987518z"/><path d="m6.20142024 8.12385142c-.33137085 0-.6-.26862915-.6-.6s.26862915-.6.6-.6h3.20000005c.33137085 0 .60000001.26862915.60000001.6s-.26862916.6-.60000001.6z" transform="matrix(-1 0 0 -1 15.60284 15.047702)"/><path d="m12.7014202 8.12385142c-.3313708 0-.6-.26862915-.6-.6s.2686292-.6.6-.6h3.2000001c.3313708 0 .6.26862915.6.6s-.2686292.6-.6.6z" transform="matrix(-1 0 0 -1 28.60284 15.047702)"/><path d="m19.2014202 8.12385142c-.3313708 0-.6-.26862915-.6-.6s.2686292-.6.6-.6h3.2000001c.3313708 0 .6.26862915.6.6s-.2686292.6-.6.6z" transform="matrix(-1 0 0 -1 41.60284 15.047702)"/><path d="m25.1014202 7.52509964c-.000688-.33137013.2673817-.60055754.5987519-.60124822.3313701-.00068803.6005575.2673817.6012469.59875183l.001092.89876305.0035792.08200174c.0262987.25277285.241006.44743115.497807.44743115h.6854761c.3313708 0 .6.26862915.6.6s-.2686292.60000001-.6.60000001h-.6854761c-.8729724 0-1.6016138-.66060203-1.6937432-1.55355597l-.0067992-.14284279z" transform="matrix(-1 0 0 -1 53.190794 17.07465)"/><path d="m26.8962383 12.8520402c-.000688-.3313702.2673817-.6005576.5987518-.6012483.3313702-.000688.6005576.2673817.6012469.5987519l.0066584 3.1999931c.000688.3313701-.2673817.6005575-.5987518.6012482-.3313702.0006881-.6005576-.2673817-.6012469-.5987518z" transform="matrix(-1 0 0 -1 54.999134 28.901578)"/><path d="m26.9097604 19.3520261c-.000688-.3313701.2673817-.6005575.5987519-.6012482.3313701-.0006881.6005575.2673817.6012469.5987518l.0066583 3.1999931c.0006881.3313702-.2673817.6005576-.5987518.6012483-.3313701.000688-.6005575-.2673817-.6012469-.5987519z" transform="matrix(-1 0 0 -1 55.026178 41.901548)"/><path d="m6.5244485 12.0172775 2.52456836 1.6206649c.27885612.1790137.65003294.0980754.82904664-.1807807.1790137-.2788562.09807543-.650033-.18078069-.8290467l-2.52456836-1.6206649c-.27885612-.1790137-.65003294-.0980754-.82904664.1807807-.1790137.2788562-.09807543.650033.18078069.8290467z"/><path d="m11.7839659 15.3936626 2.5245684 1.6206649c.2788561.1790137.6500329.0980754.8290466-.1807807s.0980754-.6500329-.1807807-.8290466l-2.5245683-1.6206649c-.2788562-.1790137-.650033-.0980754-.8290467.1807807s-.0980754.6500329.1807807.8290466z"/><path d="m17.6927476 17.0187022 2.5289232-1.613861c.2793371-.1782622.3612746-.5492197.1830124-.8285569-.1782622-.2793371-.5492197-.3612746-.8285568-.1830124l-2.5289232 1.6138611c-.2793372.1782621-.3612746.5492197-.1830124.8285568.1782621.2793372.5492197.3612746.8285568.1830124z"/><path d="m22.9613376 13.6564917 2.5289231-1.6138611c.2793372-.1782622.3612746-.5492197.1830125-.8285569-.1782622-.2793371-.5492197-.3612745-.8285569-.1830124l-2.5289232 1.6138611c-.2793371.1782622-.3612746.5492197-.1830124.8285568.1782622.2793372.5492197.3612746.8285569.1830125z"/></svg>