<svg height="32" viewBox="0 0 32 32" width="32" xmlns="http://www.w3.org/2000/svg"><g fill="none" fill-rule="evenodd"><path d="m9.71513042 7.08181248h12.18354578l5.5116061 9.95804972v8.2698055h-23.20675802v-8.2695098z" fill="#e77aa7"/><path d="m21.8986762 12.6868395 5.5116061 9.95805-23.20675802.0002988 5.51160614-9.9583488z" fill="#fdf5fa"/><path d="m27.4136725 17.0378409v8.2990219h-23.20676418v-8.2990219h7.73558708c0 2.1917684 1.676022 3.8677904 3.8677935 3.8677904 2.1917745 0 3.8678606-1.676022 3.8678606-3.8677904z" fill="#b34874"/><path d="m15.1525311 10.6944975v-6.76567288c0-.43198018.3501892-.7821693.7821694-.7821693.4319801 0 .7821693.35018912.7821693.7821693v6.74338918l2.2448326-.0319773c.5360467-.0076359.838697.6124755.5028762 1.0303615l-3.0792726 3.8317601c-.2540591.316144-.7356136.3154789-.9887985-.0013656l-2.9927756-3.7452648c-.3289146-.4116153-.040913-1.0214912.4859225-1.0289959z" fill="#252d4f" fill-rule="nonzero"/></g></svg>