<svg height="32" viewBox="0 0 32 32" width="32" xmlns="http://www.w3.org/2000/svg"><path d="m25.8146513 23.8890159c.3313708 0 .6.2686292.6.6 0 .3313709-.2686292.6-.6.6h-3.2000001c-.3313708 0-.6-.2686291-.6-.6 0-.3313708.2686292-.6.6-.6zm-6.5 0c.3313708 0 .6.2686292.6.6 0 .3313709-.2686292.6-.6.6h-3.2000001c-.3313708 0-.6-.2686291-.6-.6 0-.3313708.2686292-.6.6-.6zm-6.5 0c.3313708 0 .6.2686292.6.6 0 .3313709-.2686292.6-.6.6h-3.20000006c-.33137085 0-.6-.2686291-.6-.6 0-.3313708.26862915-.6.6-.6zm-8.28920123-2.0269477c.33137013-.0006881.60055754.2673817.6012469.5987518l.001092.8987631.00357924.0820017c.02629865.2527728.241006.4474311.49780701.4474311h.68547606c.33137085 0 .6.2686292.6.6 0 .3313709-.26862915.6-.6.6h-.68547606c-.87297241 0-1.60161387-.660602-1.69374325-1.5535559l-.00679915-.1428428-.00193458-.9293008c-.00068803-.3313701.2673817-.6005575.59875183-.6012482zm22.98306223-3.1241577c.3313701-.000688.6005575.2673817.6012469.5987519l.0066583 3.1999931c.0006881.3313701-.2673817.6005575-.5987518.6012482-.3313701.000688-.6005575-.2673817-.6012469-.5987518l-.0066584-3.1999932c-.000688-.3313701.2673817-.6005575.5987519-.6012482zm-22.99658435-3.3758283c.33137013-.000688.60055754.2673817.6012469.5987519l.00665837 3.1999931c.00068803.3313701-.2673817.6005575-.59875183.6012482-.33137014.000688-.60055754-.2673817-.6012469-.5987518l-.00665837-3.1999931c-.00068804-.3313702.2673817-.6005576.59875183-.6012483zm15.06419845-.9816777c.2793371-.1782621.6502946-.0963247.8285568.1830125.1782622.2793371.0963247.6502946-.1830124.8285568l-2.5289232 1.6138611c-.2793371.1782621-.6502947.0963247-.8285568-.1830124-.1782622-.2793372-.0963248-.6502947.1830124-.8285569zm-7.9729412.1713441c.1790137-.2788561.5501905-.3597944.8290467-.1807807l2.5245683 1.6206649c.2788561.1790137.3597944.5501905.1807807.8290466-.1790137.2788562-.5501905.3597944-.8290466.1807807l-2.5245684-1.6206648c-.2788561-.1790137-.3597944-.5501906-.1807807-.8290467zm15.8918049-2.313824c.3313702-.000688.6005576.2673817.6012469.5987518l.0066584 3.1999931c.000688.3313702-.2673817.6005576-.5987518.6012483-.3313702.000688-.6005576-.2673817-.6012469-.5987519l-.0066584-3.1999931c-.000688-.3313701.2673817-.6005575.5987518-.6012482zm-2.6502738-1.2197306c.2793372-.1782622.6502947-.0963248.8285569.1830124.1782621.2793371.0963247.6502947-.1830125.8285568l-2.5289231 1.6138611c-.2793372.1782622-.6502947.0963247-.8285569-.1830124-.1782622-.2793372-.0963247-.6502947.1830124-.8285569zm-18.50104849.1571695c.1790137-.2788561.55019052-.3597944.82904664-.1807807l2.52456836 1.6206649c.27885612.1790137.35979439.5501905.18078069.8290466s-.55019052.3597944-.82904664.1807807l-2.52456836-1.6206649c-.27885612-.1790137-.35979439-.5501905-.18078069-.8290466zm-1.84526198-2.3132672c.33137013-.00068804.60055753.2673817.60124689.59875183l.00665837 3.19999317c.00068804.3313701-.26738169.6005575-.59875183.6012482-.33137013.000688-.60055754-.2673817-.6012469-.5987519l-.00665837-3.19999308c-.00068803-.33137013.2673817-.60055754.59875184-.60124822zm21.88849047-1.95111224c.8729724 0 1.6016139.66060202 1.6937433 1.55355596l.0067991.14284279.0019346.9293008c.000688.33137013-.2673817.60055749-.5987518.60124819-.3313702.0006881-.6005576-.26738167-.6012469-.5987518l-.001092-.89876305-.0035793-.08200174c-.0262986-.25277284-.241006-.44743115-.497807-.44743115h-.6854761c-.3313708 0-.6-.26862915-.6-.6s.2686292-.6.6-.6zm-16.98547601 0c.33137085 0 .60000001.26862915.60000001.6s-.26862916.6-.60000001.6h-3.20000005c-.33137085 0-.6-.26862915-.6-.6s.26862915-.6.6-.6zm6.50000001 0c.3313708 0 .6.26862915.6.6s-.2686292.6-.6.6h-3.2000001c-.3313708 0-.6-.26862915-.6-.6s.2686292-.6.6-.6zm6.5 0c.3313708 0 .6.26862915.6.6s-.2686292.6-.6.6h-3.2000001c-.3313708 0-.6-.26862915-.6-.6s.2686292-.6.6-.6z" fill="#2289a3"/></svg>