<svg height="32" viewBox="0 0 32 32" width="32" xmlns="http://www.w3.org/2000/svg"><path d="m27.075 18c0-.11-.03-.21-.08-.3l-3.95-8.94c-.1-.22-.31-.36-.55-.36h-2.52c-.33 0-.6.27-.6.6s.27.6.6.6h2.13l3.44 7.79h-6.06c-.33 0-.6.27-.6.6 0 1.65-1.24 2.89-2.89 2.89s-2.89-1.24-2.89-2.89c0-.33-.27-.6-.6-.6h-6.06l3.44-7.79h2.09c.33 0 .6-.27.6-.6s-.27-.6-.6-.6h-2.48c-.24 0-.45.14-.55.36l-3.97 9c-.03.08-.05.16-.05.24v7.47c0 .33.27.6.6.6h20.95c.33 0 .6-.27.6-.6zm-20.95 6.87v-6.27h5.83c.28 2 1.96 3.49 4.05 3.49s3.77-1.49 4.05-3.49h5.82v6.27zm6.38-11.81 2.96 3.7c.11.14.29.23.47.23s.35-.08.47-.22l3.04-3.79c.15-.18.17-.43.07-.64s-.31-.34-.54-.34h-.01l-2.36.03v-6.5c0-.33-.27-.6-.6-.6s-.6.27-.6.6v6.52l-2.44.03c-.23.01-.43.14-.53.35s-.07.45.07.63z"/></svg>