<svg height="32" viewBox="0 0 32 32" width="32" xmlns="http://www.w3.org/2000/svg"><path d="m22.99582 13.012c.2982337 0 .5456467.2175896.592147.5026769l.007853.0973231v3.5591914l-.003907.2414575c-.1229505 3.7942157-3.1327341 6.868281-6.8924465 7.0738325l-.0004665 2.0255186h3.1477835l.0973231.007853c.2850872.0465002.5026769.2939132.5026769.592147s-.2175897.5456468-.5026769.592147l-.0973231.007853h-7.2467835l-.0973231-.007853c-.2850873-.0465002-.5026769-.2939132-.5026769-.592147s.2175896-.5456468.5026769-.592147l.0973231-.007853h2.9l-.0000328-2.0580391c-3.5728111-.3915879-6.37746237-3.3814181-6.49606024-7.041312l-.00390696-.2414575v-3.5591914l.00785299-.0973231c.04650026-.2850873.29391325-.5026769.59214701-.5026769s.5456468.2175896.592147.5026769l.007853.0973231v3.5591914l.0040309.2242495c.1178994 3.2746233 2.8071547 5.9019906 6.0938791 5.9019906s5.9759797-2.6273673 6.0938791-5.9019906l.0040309-.2242495v-3.5591914l.0078529-.0973231c.0465003-.2850873.2939133-.5026769.5921471-.5026769zm-6.68382-8.012c2.2697215 0 4.112 1.8677958 4.112 4.16321404v7.89757196c0 2.2952602-1.8423982 4.163214-4.112 4.163214-2.2710779 0-4.112-1.8812949-4.112-4.1900822v-7.87070376c0-2.29539191 1.8422984-4.16321404 4.112-4.16321404zm0 1.224c-1.5899066 0-2.888 1.31607756-2.888 2.93921404v7.87070376c0 1.6386626 1.2989331 2.9660822 2.888 2.9660822 1.5898023 0 2.888-1.3162048 2.888-2.939214v-7.89757196c0-1.62316193-1.2980726-2.93921404-2.888-2.93921404z"/></svg>