<svg height="32" viewBox="0 0 32 32" width="32" xmlns="http://www.w3.org/2000/svg"><g fill="none"><path d="m14.9253309 4c-2.3100215 0-4.19247 1.85034336-4.19247 4.13123766v9.18749084c0 2.2806732 1.8825541 4.1312377 4.19247 4.1312377 2.311158 0 4.1924699-1.8656281 4.1924699-4.1624943v-9.15623424c0-2.28085744-1.8824661-4.13123766-4.1924699-4.13123766z" fill="#bda2d8" transform="matrix(-1 0 0 1 29.850662 0)"/><path d="m19.1178008 4c-2.3100214 0-4.1924699 1.85034336-4.1924699 4.13123766v9.18749084c0 2.2806732 1.8825541 4.1312377 4.1924699 4.1312377z" fill="#a085bb" transform="matrix(-1 0 0 1 34.043132 0)"/><path d="m21.6232408 13.0298393c.3313709 0 .6.2686291.6.6v3.5591913l-.0039069.2414575c-.1207836 3.7273442-3.0275385 6.7596991-6.6943669 7.0603029l-.0005461 2.6340483 3.0243017.0001438.0973231.007853c.2850873.0465002.5026769.2939132.5026769.592147 0 .3313709-.2686292.6-.6.6h-7.2467835l-.0973231-.007853c-.2850873-.0465002-.5026769-.2939132-.5026769-.592147 0-.3313708.2686292-.6.6-.6l3.0224818-.0001438.0000661-2.6341474c-3.666259-.3011706-6.57238885-3.3332688-6.69315916-7.0602038l-.00390697-.2414575v-3.5591913l.00785299-.0973232c.04650026-.2850872.29391325-.5026768.59214701-.5026768.33137085 0 .6.2686291.6.6v3.5591913l.00403089.2242495c.11789938 3.2746234 2.80715474 5.9019907 6.09387914 5.9019907 3.3614226 0 6.0979099-2.7481502 6.0979099-6.1262402v-3.5591913l.007853-.0973232c.0465003-.2850872.2939133-.5026768.592147-.5026768z" fill="#7d5b9f"/></g></svg>