<svg height="32" viewBox="0 0 32 32" width="32" xmlns="http://www.w3.org/2000/svg"><path d="m22.99582 13.0298393c.2982337 0 .5456467.2175896.592147.5026768l.007853.0973232v3.5591913l-.003907.2414575c-.1207836 3.7273442-3.0275385 6.7596991-6.6943669 7.0603029l-.0005461 2.6340483 3.0243017.0001438.0973231.007853c.2850873.0465002.5026769.2939132.5026769.592147s-.2175896.5456468-.5026769.592147l-.0973231.007853h-7.2467834l-.0973232-.007853c-.2850872-.0465002-.5026768-.2939132-.5026768-.592147s.2175896-.5456468.5026768-.592147l.0973232-.007853 3.0224817-.0001438.0000661-2.6341474c-3.666259-.3011706-6.57238883-3.3332688-6.69315914-7.0602038l-.00390696-.2414575v-3.5591913l.00785299-.0973232c.04650026-.2850872.29391325-.5026768.59214701-.5026768s.5456468.2175896.592147.5026768l.007853.0973232v3.5591913l.0040309.2242495c.1178994 3.2746234 2.8071547 5.9019907 6.0938791 5.9019907s5.9759797-2.6273673 6.0938791-5.9019907l.0040309-.2242495v-3.5591913l.0078529-.0973232c.0465003-.2850872.2939133-.5026768.5921471-.5026768zm-6.69791-9.0298393c2.3100214 0 4.1924699 1.85034336 4.1924699 4.13123766v9.18749084c0 2.2806732-1.8825541 4.1312377-4.1924699 4.1312377-2.3111581 0-4.19247-1.8656281-4.19247-4.1624943v-9.15623424c0-2.28085744 1.8824662-4.13123766 4.19247-4.13123766z"/></svg>