<svg height="32" viewBox="0 0 32 32" width="32" xmlns="http://www.w3.org/2000/svg"><g fill="none" fill-rule="evenodd"><path d="m16 5.5c.5128358 0 .9355072.38604019.9932723.88337887l.0067277.11662113v18.8892299c0 .5522847-.4477153 1-1 1-.5128358 0-.9355072-.3860402-.9932723-.8833789l-.0067277-.1166211v-18.8892299c0-.55228475.4477153-1 1-1z" fill="#17bfa8" fill-rule="nonzero"/><path d="m8.75899086 7.80761986h14.27009634c.3991241 0 .7875003.12934382 1.1069271.36864816l3.4504423 2.58496098c.4080119.3056695.4909769.8842226.1853074 1.2922346-.0526421.0702674-.1150399.1326652-.1853074.1853074l-3.4504423 2.584961c-.3194268.2393043-.707803.3686481-1.1069271.3686481h-14.27009634c-1.01962262 0-1.84619007-.8265674-1.84619007-1.84619v-3.69238017c0-1.01962262.82656745-1.84619007 1.84619007-1.84619007z" fill="#f86c2f"/><path d="m16.110318 7.80761986h6.9187692c.3991241 0 .7875003.12934382 1.1069271.36864816l3.4504423 2.58496098c.4080119.3056695.4909769.8842226.1853074 1.2922346-.0526421.0702674-.1150399.1326652-.1853074.1853074l-3.4504423 2.584961c-.3194268.2393043-.707803.3686481-1.1069271.3686481h-6.9187692z" fill="#d9541a"/></g></svg>