<svg height="32" viewBox="0 0 32 32" width="32" xmlns="http://www.w3.org/2000/svg"><path d="m16 5.9c.2982338 0 .5456468.21758961.592147.50267688l.007853.09732312-.0005288 1.844 5.2761335.00061493c.4918277 0 .9720666.13946291 1.3858063.40010147l.1730855.11906784 3.0704988 2.30031946c.7072068.5298168.8510099 1.5326225.3211932 2.2398293-.0608297.0811963-.1291748.1563302-.2040665.2244331l-.1171267.09676-3.0704988 2.3003195c-.3936192.294887-.8615821.4712108-1.3489781.5106841l-.2099137.0084852-5.2761335-.0006149.0005288 8.8452299c0 .3313708-.2686292.6-.6.6-.2982338 0-.5456468-.2175897-.592147-.5026769l-.007853-.0973231-.0005288-8.8452299-7.61299996.0006149c-.83456363 0-1.51988979-.6389615-1.59346133-1.4543674l-.00653867-.1456326v-4.99999997c0-.83456363.63896151-1.51988979 1.45436738-1.59346133l.14563262-.00653867 7.61299996-.00061493.0005288-1.844c0-.33137085.2686292-.6.6-.6zm5.8756047 3.64461493h-14.08913346c-.19329967 0-.35457492.13711279-.39187343.31938604l-.00812657.08061396v4.99999997c0 .1932997.13711279.3545749.31938604.3918734l.08061396.0081266h14.08913346c.2522193 0 .4987787-.0681137.7141369-.195835l.1252664-.0837177 3.0704988-2.3003195c.0304486-.0228111.0574871-.0498496.0802983-.0802983.1158974-.1547015.1028598-.3659824-.0206539-.5051194l-.0596444-.0548379-3.0704988-2.30031947c-.201856-.15122408-.4400215-.24454185-.6889552-.2714471z"/></svg>