<svg height="32" viewBox="0 0 32 32" width="32" xmlns="http://www.w3.org/2000/svg"><path d="m17 15.9993734v9.3898565c0 .5522847-.4477153 1-1 1-.5128358 0-.9355072-.3860402-.9932723-.8833789l-.0067277-.1166211v-9.3898565zm6.0290872-8.19175354c.3991241 0 .7875003.12934382 1.1069271.36864816l3.4504423 2.58496098c.4080119.3056695.4909769.8842226.1853074 1.2922346-.0526421.0702674-.1150399.1326652-.1853074.1853074l-3.4504423 2.584961c-.3194268.2393043-.707803.3686481-1.1069271.3686481h-14.27009634c-1.01962262 0-1.84619007-.8265674-1.84619007-1.84619v-3.69238017c0-1.01962262.82656745-1.84619007 1.84619007-1.84619007zm-7.0290872-2.64824642c.5128358 0 .9355072.3860402.9932723.88337888l.0067277.11662112v.84h-2v-.84c0-.55228475.4477153-1 1-1z"/></svg>