<svg height="32" viewBox="0 0 32 32" width="32" xmlns="http://www.w3.org/2000/svg"><g fill="none" fill-rule="evenodd" transform="translate(8.523727 3)"><path d="m12.2463225 0c1.7619353 0 3.190266 1.42833072 3.190266 3.19026595v19.61946815c0 1.7619352-1.4283307 3.1902659-3.190266 3.1902659h-9.05605655c-1.76193523 0-3.19026595-1.4283307-3.19026595-3.1902659v-19.61946815c0-1.76193523 1.42833072-3.19026595 3.19026595-3.19026595z" fill="#45889f" fill-rule="nonzero"/><path d="m12.2463225 1.06342198h-9.05605655c-1.1235529 0-2.04362177.87121874-2.12150383 1.97495346l-.00534014.15189051v19.61946815c0 1.1235529.87121874 2.0436217 1.97495346 2.1215038l.15189051.0053401h9.05605655c1.1235529 0 2.0436218-.8712187 2.1215039-1.9749534l.0053401-.1518905v-19.61946815c0-1.1235529-.8712187-2.04362177-1.9749535-2.12150383z" fill="#d0e7ef" fill-rule="nonzero"/><g transform="translate(2.741479 3.721977)"><path d="m.81794757 0h.97573034c.28441819 0 .3875551.02961384.49153413.08522244.10397904.0556086.1855824.13721195.241191.24119099s.08522244.20711595.08522244.49153414v.97573034c0 .28441819-.02961384.3875551-.08522244.49153413-.0556086.10397904-.13721196.1855824-.241191.241191-.10397903.0556086-.20711594.08522244-.49153413.08522244h-.97573034c-.28441819 0-.3875551-.02961384-.49153414-.08522244s-.18558239-.13721196-.24119099-.241191c-.0556086-.10397903-.08522244-.20711594-.08522244-.49153413v-.97573034c0-.28441819.02961384-.3875551.08522244-.49153414s.13721195-.18558239.24119099-.24119099.20711595-.08522244.49153414-.08522244z" fill="#9b6fb8"/><path d="m4.4889497 0h.97573035c.28441819 0 .3875551.02961384.49153413.08522244.10397904.0556086.1855824.13721195.241191.24119099s.08522244.20711595.08522244.49153414v.97573034c0 .28441819-.02961384.3875551-.08522244.49153413-.0556086.10397904-.13721196.1855824-.241191.241191-.10397903.0556086-.20711594.08522244-.49153413.08522244h-.97573035c-.28441818 0-.38755509-.02961384-.49153413-.08522244s-.18558239-.13721196-.24119099-.241191c-.0556086-.10397903-.08522244-.20711594-.08522244-.49153413v-.97573034c0-.28441819.02961384-.3875551.08522244-.49153414s.13721195-.18558239.24119099-.24119099.20711595-.08522244.49153413-.08522244z" fill="#5aadca"/><path d="m8.15995185 0h.97573034c.28441819 0 .3875551.02961384.49153414.08522244.10397903.0556086.18558239.13721195.24119099.24119099s.08522244.20711595.08522244.49153414v.97573034c0 .28441819-.02961384.3875551-.08522244.49153413-.0556086.10397904-.13721196.1855824-.24119099.241191-.10397904.0556086-.20711595.08522244-.49153414.08522244h-.97573034c-.28441819 0-.3875551-.02961384-.49153414-.08522244s-.18558239-.13721196-.24119099-.241191c-.0556086-.10397903-.08522244-.20711594-.08522244-.49153413v-.97573034c0-.28441819.02961384-.3875551.08522244-.49153414s.13721195-.18558239.24119099-.24119099.20711595-.08522244.49153414-.08522244z" fill="#ff7a20"/><path d="m.81794757 3.67405568h.97573034c.28441819 0 .3875551.02961384.49153413.08522244.10397904.0556086.1855824.13721196.241191.241191.0556086.10397903.08522244.20711594.08522244.49153413v.97573034c0 .28441819-.02961384.3875551-.08522244.49153414s-.13721196.18558239-.241191.24119099c-.10397903.0556086-.20711594.08522244-.49153413.08522244h-.97573034c-.28441819 0-.3875551-.02961384-.49153414-.08522244s-.18558239-.13721195-.24119099-.24119099-.08522244-.20711595-.08522244-.49153414v-.97573034c0-.28441819.02961384-.3875551.08522244-.49153413.0556086-.10397904.13721195-.1855824.24119099-.241191s.20711595-.08522244.49153414-.08522244z" fill="#fdefc6"/><path d="m4.4889497 3.67405568h.97573035c.28441819 0 .3875551.02961384.49153413.08522244.10397904.0556086.1855824.13721196.241191.241191.0556086.10397903.08522244.20711594.08522244.49153413v.97573034c0 .28441819-.02961384.3875551-.08522244.49153414s-.13721196.18558239-.241191.24119099c-.10397903.0556086-.20711594.08522244-.49153413.08522244h-.97573035c-.28441818 0-.38755509-.02961384-.49153413-.08522244s-.18558239-.13721195-.24119099-.24119099-.08522244-.20711595-.08522244-.49153414v-.97573034c0-.28441819.02961384-.3875551.08522244-.49153413.0556086-.10397904.13721195-.1855824.24119099-.241191s.20711595-.08522244.49153413-.08522244z" fill="#b2b2b2"/><path d="m8.15995185 3.67405568h.97573034c.28441819 0 .3875551.02961384.49153414.08522244.10397903.0556086.18558239.13721196.24119099.241191.0556086.10397903.08522244.20711594.08522244.49153413v.97573034c0 .28441819-.02961384.3875551-.08522244.49153414s-.13721196.18558239-.24119099.24119099c-.10397904.0556086-.20711595.08522244-.49153414.08522244h-.97573034c-.28441819 0-.3875551-.02961384-.49153414-.08522244s-.18558239-.13721195-.24119099-.24119099-.08522244-.20711595-.08522244-.49153414v-.97573034c0-.28441819.02961384-.3875551.08522244-.49153413.0556086-.10397904.13721195-.1855824.24119099-.241191s.20711595-.08522244.49153414-.08522244z" fill="#cfc52a"/><path d="m.81794757 7.34811137h.97573034c.28441819 0 .3875551.02961384.49153413.08522243.10397904.0556086.1855824.13721196.241191.241191s.08522244.20711594.08522244.49153413v.97573035c0 .28441819-.02961384.38755509-.08522244.49153413s-.13721196.1855824-.241191.241191c-.10397903.05560859-.20711594.08522243-.49153413.08522243h-.97573034c-.28441819 0-.3875551-.02961384-.49153414-.08522243-.10397904-.0556086-.18558239-.13721196-.24119099-.241191s-.08522244-.20711594-.08522244-.49153413v-.97573035c0-.28441819.02961384-.38755509.08522244-.49153413s.13721195-.1855824.24119099-.241191c.10397904-.05560859.20711595-.08522243.49153414-.08522243z" fill="#4da86d"/><path d="m4.4889497 7.34811137h.97573035c.28441819 0 .3875551.02961384.49153413.08522243.10397904.0556086.1855824.13721196.241191.241191s.08522244.20711594.08522244.49153413v.97573035c0 .28441819-.02961384.38755509-.08522244.49153413s-.13721196.1855824-.241191.241191c-.10397903.05560859-.20711594.08522243-.49153413.08522243h-.97573035c-.28441818 0-.38755509-.02961384-.49153413-.08522243-.10397904-.0556086-.18558239-.13721196-.24119099-.241191s-.08522244-.20711594-.08522244-.49153413v-.97573035c0-.28441819.02961384-.38755509.08522244-.49153413s.13721195-.1855824.24119099-.241191c.10397904-.05560859.20711595-.08522243.49153413-.08522243z" fill="#f8be1b"/><path d="m8.15995185 7.34811137h.97573034c.28441819 0 .3875551.02961384.49153414.08522243.10397903.0556086.18558239.13721196.24119099.241191s.08522244.20711594.08522244.49153413v.97573035c0 .28441819-.02961384.38755509-.08522244.49153413s-.13721196.1855824-.24119099.241191c-.10397904.05560859-.20711595.08522243-.49153414.08522243h-.97573034c-.28441819 0-.3875551-.02961384-.49153414-.08522243-.10397904-.0556086-.18558239-.13721196-.24119099-.241191s-.08522244-.20711594-.08522244-.49153413v-.97573035c0-.28441819.02961384-.38755509.08522244-.49153413s.13721195-.1855824.24119099-.241191c.10397904-.05560859.20711595-.08522243.49153414-.08522243z" fill="#999"/><path d="m.81794757 11.0221671h.97573034c.28441819 0 .3875551.0296138.49153413.0852224.10397904.0556086.1855824.1372119.241191.241191.0556086.103979.08522244.2071159.08522244.4915341v.9757304c0 .2844182-.02961384.3875551-.08522244.4915341s-.13721196.1855824-.241191.241191c-.10397903.0556086-.20711594.0852224-.49153413.0852224h-.97573034c-.28441819 0-.3875551-.0296138-.49153414-.0852224s-.18558239-.137212-.24119099-.241191-.08522244-.2071159-.08522244-.4915341v-.9757304c0-.2844182.02961384-.3875551.08522244-.4915341.0556086-.1039791.13721195-.1855824.24119099-.241191s.20711595-.0852224.49153414-.0852224z" fill="#c33c75"/><path d="m4.4889497 11.0221671h.97573035c.28441819 0 .3875551.0296138.49153413.0852224.10397904.0556086.1855824.1372119.241191.241191.0556086.103979.08522244.2071159.08522244.4915341v.9757304c0 .2844182-.02961384.3875551-.08522244.4915341s-.13721196.1855824-.241191.241191c-.10397903.0556086-.20711594.0852224-.49153413.0852224h-.97573035c-.28441818 0-.38755509-.0296138-.49153413-.0852224s-.18558239-.137212-.24119099-.241191-.08522244-.2071159-.08522244-.4915341v-.9757304c0-.2844182.02961384-.3875551.08522244-.4915341.0556086-.1039791.13721195-.1855824.24119099-.241191s.20711595-.0852224.49153413-.0852224z" fill="#d3b0e9"/><path d="m8.15995185 11.0221671h.97573034c.28441819 0 .3875551.0296138.49153414.0852224.10397903.0556086.18558239.1372119.24119099.241191.0556086.103979.08522244.2071159.08522244.4915341v.9757304c0 .2844182-.02961384.3875551-.08522244.4915341s-.13721196.1855824-.24119099.241191c-.10397904.0556086-.20711595.0852224-.49153414.0852224h-.97573034c-.28441819 0-.3875551-.0296138-.49153414-.0852224s-.18558239-.137212-.24119099-.241191-.08522244-.2071159-.08522244-.4915341v-.9757304c0-.2844182.02961384-.3875551.08522244-.4915341.0556086-.1039791.13721195-.1855824.24119099-.241191s.20711595-.0852224.49153414-.0852224z" fill="#9ee4b7"/><path d="m.81794757 16.9784886h.97573034c.28441819 0 .3875551.0296138.49153413.0852224.10397904.0556086.1855824.137212.241191.241191.0556086.1039791.08522244.207116.08522244.4915342v.9757303c0 .2844182-.02961384.3875551-.08522244.4915341-.0556086.1039791-.13721196.1855824-.241191.241191-.10397903.0556086-.20711594.0852225-.49153413.0852225h-.97573034c-.28441819 0-.3875551-.0296139-.49153414-.0852225s-.18558239-.1372119-.24119099-.241191c-.0556086-.103979-.08522244-.2071159-.08522244-.4915341v-.9757303c0-.2844182.02961384-.3875551.08522244-.4915342.0556086-.103979.13721195-.1855824.24119099-.241191s.20711595-.0852224.49153414-.0852224z" fill="#00c3a7"/><path d="m4.4889497 16.9784886h.97573035c.28441819 0 .3875551.0296138.49153413.0852224.10397904.0556086.1855824.137212.241191.241191.0556086.1039791.08522244.207116.08522244.4915342v.9757303c0 .2844182-.02961384.3875551-.08522244.4915341-.0556086.1039791-.13721196.1855824-.241191.241191-.10397903.0556086-.20711594.0852225-.49153413.0852225h-.97573035c-.28441818 0-.38755509-.0296139-.49153413-.0852225s-.18558239-.1372119-.24119099-.241191c-.0556086-.103979-.08522244-.2071159-.08522244-.4915341v-.9757303c0-.2844182.02961384-.3875551.08522244-.4915342.0556086-.103979.13721195-.1855824.24119099-.241191s.20711595-.0852224.49153413-.0852224z" fill="#00b1dd"/><path d="m8.15995185 16.9784886h.97573034c.28441819 0 .3875551.0296138.49153414.0852224.10397903.0556086.18558239.137212.24119099.241191.0556086.1039791.08522244.207116.08522244.4915342v.9757303c0 .2844182-.02961384.3875551-.08522244.4915341-.0556086.1039791-.13721196.1855824-.24119099.241191-.10397904.0556086-.20711595.0852225-.49153414.0852225h-.97573034c-.28441819 0-.3875551-.0296139-.49153414-.0852225s-.18558239-.1372119-.24119099-.241191c-.0556086-.103979-.08522244-.2071159-.08522244-.4915341v-.9757303c0-.2844182.02961384-.3875551.08522244-.4915342.0556086-.103979.13721195-.1855824.24119099-.241191s.20711595-.0852224.49153414-.0852224z" fill="#ff82bb"/></g><path d="m12.2463225 0c1.7619353 0 3.190266 1.42833072 3.190266 3.19026595v19.61946815c0 1.7619352-1.4283307 3.1902659-3.190266 3.1902659h-9.05605655z" fill="#45889f" fill-rule="nonzero" opacity=".580264"/></g></svg>