<svg height="32" viewBox="0 0 32 32" width="32" xmlns="http://www.w3.org/2000/svg"><path d="m20.7700495 3c1.7619352 0 3.1902659 1.42833072 3.1902659 3.19026595v19.61946815c0 1.7619352-1.4283307 3.1902659-3.1902659 3.1902659h-9.0560566c-1.76193526 0-3.19026597-1.4283307-3.19026597-3.1902659v-19.61946815c0-1.76193523 1.42833071-3.19026595 3.19026597-3.19026595zm0 1.2h-9.0560566c-1.0492302 0-1.90882939.81190689-1.98480693 1.84173007l-.00545904.14853588v19.61946815c0 1.0492301.81190687 1.9088293 1.84173007 1.9848069l.1485359.005459h9.0560566c1.0492301 0 1.9088293-.8119069 1.9848069-1.8417301l.005459-.1485358v-19.61946815c0-1.04923019-.8119069-1.90882936-1.8417301-1.98480691zm-7.7111653 19.5004655c.2844182 0 .3875551.0296139.4915341.0852225.1039791.0556086.1855824.1372119.241191.241191.0476645.0891249.0762309.177631.0834199.3802085l.0018026 1.087056c0 .2844181-.0296139.387555-.0852225.4915341-.0556086.103979-.1372119.1855824-.241191.241191-.103979.0556086-.2071159.0852224-.4915341.0852224h-.9757303c-.2844182 0-.3875551-.0296138-.4915342-.0852224-.103979-.0556086-.1855824-.137212-.241191-.241191-.0556086-.1039791-.0852224-.207116-.0852224-.4915341v-.9757304c0-.2844182.0296138-.3875551.0852224-.4915341.0556086-.1039791.137212-.1855824.241191-.241191.1039791-.0556086.207116-.0852225.4915342-.0852225zm3.6710021 0c.2844182 0 .3875551.0296139.4915342.0852225.103979.0556086.1855824.1372119.241191.241191.0476645.0891249.0762308.177631.0834199.3802085l.0018025 1.087056c0 .2844181-.0296138.387555-.0852224.4915341-.0556086.103979-.137212.1855824-.241191.241191-.1039791.0556086-.207116.0852224-.4915342.0852224h-.9757303c-.2844182 0-.3875551-.0296138-.4915341-.0852224-.1039791-.0556086-.1855824-.137212-.241191-.241191-.0556086-.1039791-.0852225-.207116-.0852225-.4915341v-.9757304c0-.2844182.0296139-.3875551.0852225-.4915341.0556086-.1039791.1372119-.1855824.241191-.241191.103979-.0556086.2071159-.0852225.4915341-.0852225zm3.6710022 0c.2844182 0 .3875551.0296139.4915341.0852225.1039791.0556086.1855824.1372119.241191.241191.0476645.0891249.0762308.177631.0834199.3802085l.0018025 1.087056c0 .2844181-.0296138.387555-.0852224.4915341-.0556086.103979-.1372119.1855824-.241191.241191-.103979.0556086-.2071159.0852224-.4915341.0852224h-.9757304c-.2844182 0-.3875551-.0296138-.4915341-.0852224s-.1855824-.137212-.241191-.241191c-.0556086-.1039791-.0852224-.207116-.0852224-.4915341v-.9757304c0-.2844182.0296138-.3875551.0852224-.4915341.0556086-.1039791.137212-.1855824.241191-.241191s.2071159-.0852225.4915341-.0852225zm-8.4290603-5.954519 1.087056-.0018025c.2844182 0 .3875551.0296138.4915341.0852224.1039791.0556086.1855824.137212.241191.241191.0476645.0891249.0762309.1776311.0834199.3802085l.0018026 1.087056c0 .2844182-.0296139.3875551-.0852225.4915341-.0556086.1039791-.1372119.1855824-.241191.241191-.103979.0556086-.2071159.0852225-.4915341.0852225h-.9757303c-.2844182 0-.3875551-.0296139-.4915342-.0852225-.103979-.0556086-.1855824-.1372119-.241191-.241191-.0556086-.103979-.0852224-.2071159-.0852224-.4915341v-.9757303c0-.2844182.0296138-.3875551.0852224-.4915342.0556086-.103979.137212-.1855824.241191-.241191.0891249-.0476645.1776311-.0762308.3802085-.0834199zm3.6710022 0 1.0870559-.0018025c.2844182 0 .3875551.0296138.4915342.0852224.103979.0556086.1855824.137212.241191.241191.0476645.0891249.0762308.1776311.0834199.3802085l.0018025 1.087056c0 .2844182-.0296138.3875551-.0852224.4915341-.0556086.1039791-.137212.1855824-.241191.241191-.1039791.0556086-.207116.0852225-.4915342.0852225h-.9757303c-.2844182 0-.3875551-.0296139-.4915341-.0852225-.1039791-.0556086-.1855824-.1372119-.241191-.241191-.0556086-.103979-.0852225-.2071159-.0852225-.4915341v-.9757303c0-.2844182.0296139-.3875551.0852225-.4915342.0556086-.103979.1372119-.1855824.241191-.241191.0891249-.0476645.177631-.0762308.3802085-.0834199zm3.6710021 0 1.087056-.0018025c.2844182 0 .3875551.0296138.4915341.0852224.1039791.0556086.1855824.137212.241191.241191.0476645.0891249.0762308.1776311.0834199.3802085l.0018025 1.087056c0 .2844182-.0296138.3875551-.0852224.4915341-.0556086.1039791-.1372119.1855824-.241191.241191-.103979.0556086-.2071159.0852225-.4915341.0852225h-.9757304c-.2844182 0-.3875551-.0296139-.4915341-.0852225s-.1855824-.1372119-.241191-.241191c-.0556086-.103979-.0852224-.2071159-.0852224-.4915341v-.9757303c0-.2844182.0296138-.3875551.0852224-.4915342.0556086-.103979.137212-.1855824.241191-.241191.0891249-.0476645.1776311-.0762308.3802085-.0834199zm-7.3420043-3.6740557 1.087056-.0018025c.2844182 0 .3875551.0296138.4915341.0852224.1039791.0556086.1855824.137212.241191.241191.0476645.0891249.0762309.1776311.0834199.3802085l.0018026 1.087056c0 .2844182-.0296139.3875551-.0852225.4915342-.0556086.103979-.1372119.1855823-.241191.2411909-.103979.0556086-.2071159.0852225-.4915341.0852225h-.9757303c-.2844182 0-.3875551-.0296139-.4915342-.0852225-.103979-.0556086-.1855824-.1372119-.241191-.2411909-.0556086-.1039791-.0852224-.207116-.0852224-.4915342v-.9757303c0-.2844182.0296138-.3875551.0852224-.4915342.0556086-.103979.137212-.1855824.241191-.241191.0891249-.0476645.1776311-.0762308.3802085-.0834199zm3.6710022 0 1.0870559-.0018025c.2844182 0 .3875551.0296138.4915342.0852224.103979.0556086.1855824.137212.241191.241191.0476645.0891249.0762308.1776311.0834199.3802085l.0018025 1.087056c0 .2844182-.0296138.3875551-.0852224.4915342-.0556086.103979-.137212.1855823-.241191.2411909-.1039791.0556086-.207116.0852225-.4915342.0852225h-.9757303c-.2844182 0-.3875551-.0296139-.4915341-.0852225-.1039791-.0556086-.1855824-.1372119-.241191-.2411909-.0556086-.1039791-.0852225-.207116-.0852225-.4915342v-.9757303c0-.2844182.0296139-.3875551.0852225-.4915342.0556086-.103979.1372119-.1855824.241191-.241191.0891249-.0476645.177631-.0762308.3802085-.0834199zm3.6710021 0 1.087056-.0018025c.2844182 0 .3875551.0296138.4915341.0852224.1039791.0556086.1855824.137212.241191.241191.0476645.0891249.0762308.1776311.0834199.3802085l.0018025 1.087056c0 .2844182-.0296138.3875551-.0852224.4915342-.0556086.103979-.1372119.1855823-.241191.2411909-.103979.0556086-.2071159.0852225-.4915341.0852225h-.9757304c-.2844182 0-.3875551-.0296139-.4915341-.0852225s-.1855824-.1372119-.241191-.2411909c-.0556086-.1039791-.0852224-.207116-.0852224-.4915342v-.9757303c0-.2844182.0296138-.3875551.0852224-.4915342.0556086-.103979.137212-.1855824.241191-.241191.0891249-.0476645.1776311-.0762308.3802085-.0834199zm-7.3420043-3.6740556 1.087056-.0018026c.2844182 0 .3875551.0296139.4915341.0852225.1039791.0556086.1855824.1372119.241191.241191.0476645.0891248.0762309.177631.0834199.3802085l.0018026 1.0870559c0 .2844182-.0296139.3875551-.0852225.4915342-.0556086.103979-.1372119.1855824-.241191.241191-.103979.0556086-.2071159.0852224-.4915341.0852224h-.9757303c-.2844182 0-.3875551-.0296138-.4915342-.0852224-.103979-.0556086-.1855824-.137212-.241191-.241191-.0556086-.1039791-.0852224-.207116-.0852224-.4915342v-.9757303c0-.2844182.0296138-.3875551.0852224-.4915341.0556086-.1039791.137212-.1855824.241191-.241191.0891249-.0476646.1776311-.0762309.3802085-.0834199zm3.6710022 0 1.0870559-.0018026c.2844182 0 .3875551.0296139.4915342.0852225.103979.0556086.1855824.1372119.241191.241191.0476645.0891248.0762308.177631.0834199.3802085l.0018025 1.0870559c0 .2844182-.0296138.3875551-.0852224.4915342-.0556086.103979-.137212.1855824-.241191.241191-.1039791.0556086-.207116.0852224-.4915342.0852224h-.9757303c-.2844182 0-.3875551-.0296138-.4915341-.0852224-.1039791-.0556086-.1855824-.137212-.241191-.241191-.0556086-.1039791-.0852225-.207116-.0852225-.4915342v-.9757303c0-.2844182.0296139-.3875551.0852225-.4915341.0556086-.1039791.1372119-.1855824.241191-.241191.0891249-.0476646.177631-.0762309.3802085-.0834199zm3.6710021 0 1.087056-.0018026c.2844182 0 .3875551.0296139.4915341.0852225.1039791.0556086.1855824.1372119.241191.241191.0476645.0891248.0762308.177631.0834199.3802085l.0018025 1.0870559c0 .2844182-.0296138.3875551-.0852224.4915342-.0556086.103979-.1372119.1855824-.241191.241191-.103979.0556086-.2071159.0852224-.4915341.0852224h-.9757304c-.2844182 0-.3875551-.0296138-.4915341-.0852224s-.1855824-.137212-.241191-.241191c-.0556086-.1039791-.0852224-.207116-.0852224-.4915342v-.9757303c0-.2844182.0296138-.3875551.0852224-.4915341.0556086-.1039791.137212-.1855824.241191-.241191.0891249-.0476646.1776311-.0762309.3802085-.0834199zm-6.2549483-3.67585826c.2844182 0 .3875551.02961384.4915341.08522244.1039791.05560859.1855824.13721195.241191.24119099.0476645.08912489.0762309.17763107.0834199.38020851l.0018026 1.08705597c0 .28441819-.0296139.38755509-.0852225.49153413s-.1372119.1855824-.241191.241191c-.103979.0556086-.2071159.08522243-.4915341.08522243h-.9757303c-.2844182 0-.3875551-.02961383-.4915342-.08522243-.103979-.0556086-.1855824-.13721196-.241191-.241191s-.0852224-.20711594-.0852224-.49153413v-.97573035c0-.28441818.0296138-.38755509.0852224-.49153413s.137212-.1855824.241191-.24119099c.1039791-.0556086.207116-.08522244.4915342-.08522244zm3.6710021 0c.2844182 0 .3875551.02961384.4915342.08522244.103979.05560859.1855824.13721195.241191.24119099.0476645.08912489.0762308.17763107.0834199.38020851l.0018025 1.08705597c0 .28441819-.0296138.38755509-.0852224.49153413s-.137212.1855824-.241191.241191c-.1039791.0556086-.207116.08522243-.4915342.08522243h-.9757303c-.2844182 0-.3875551-.02961383-.4915341-.08522243-.1039791-.0556086-.1855824-.13721196-.241191-.241191s-.0852225-.20711594-.0852225-.49153413v-.97573035c0-.28441818.0296139-.38755509.0852225-.49153413s.1372119-.1855824.241191-.24119099c.103979-.0556086.2071159-.08522244.4915341-.08522244zm3.6710022 0c.2844182 0 .3875551.02961384.4915341.08522244.1039791.05560859.1855824.13721195.241191.24119099.0476645.08912489.0762308.17763107.0834199.38020851l.0018025 1.08705597c0 .28441819-.0296138.38755509-.0852224.49153413s-.1372119.1855824-.241191.241191c-.103979.0556086-.2071159.08522243-.4915341.08522243h-.9757304c-.2844182 0-.3875551-.02961383-.4915341-.08522243s-.1855824-.13721196-.241191-.241191-.0852224-.20711594-.0852224-.49153413v-.97573035c0-.28441818.0296138-.38755509.0852224-.49153413s.137212-.1855824.241191-.24119099c.103979-.0556086.2071159-.08522244.4915341-.08522244z"/></svg>