<svg height="32" viewBox="0 0 32 32" width="32" xmlns="http://www.w3.org/2000/svg"><path d="m20.7700495 3c1.7619352 0 3.1902659 1.42833072 3.1902659 3.19026595v19.61946815c0 1.7619352-1.4283307 3.1902659-3.1902659 3.1902659h-9.0560566c-1.76193526 0-3.19026597-1.4283307-3.19026597-3.1902659v-19.61946815c0-1.76193523 1.42833071-3.19026595 3.19026597-3.19026595zm-7.7111653 20.7004655h-.9757303c-.2844182 0-.3875551.0296139-.4915342.0852225-.103979.0556086-.1855824.1372119-.241191.241191-.0476645.0891249-.0762308.177631-.0834199.3802085l-.0018025.1113256v.9757304c0 .2844181.0296138.387555.0852224.4915341.0556086.103979.137212.1855824.241191.241191.0891249.0476645.1776311.0762308.3802085.0834199l.1113257.0018025h.9757303c.2844182 0 .3875551-.0296138.4915341-.0852224.1039791-.0556086.1855824-.137212.241191-.241191.0476645-.0891249.0762309-.1776311.0834199-.3802085l.0018026-1.087056c0-.2844182-.0296139-.3875551-.0852225-.4915341-.0556086-.1039791-.1372119-.1855824-.241191-.241191-.0891249-.0476645-.177631-.0762309-.3802085-.0834199zm3.6710021 0h-.9757303c-.2844182 0-.3875551.0296139-.4915341.0852225-.1039791.0556086-.1855824.1372119-.241191.241191-.0476645.0891249-.0762309.177631-.0834199.3802085l-.0018026.1113256v.9757304c0 .2844181.0296139.387555.0852225.4915341.0556086.103979.1372119.1855824.241191.241191.0891249.0476645.177631.0762308.3802085.0834199l.1113256.0018025h.9757303c.2844182 0 .3875551-.0296138.4915342-.0852224.103979-.0556086.1855824-.137212.241191-.241191.0476645-.0891249.0762308-.1776311.0834199-.3802085l.0018025-1.087056c0-.2844182-.0296138-.3875551-.0852224-.4915341-.0556086-.1039791-.137212-.1855824-.241191-.241191-.0891249-.0476645-.1776311-.0762309-.3802085-.0834199zm3.6710022 0h-.9757304c-.2844182 0-.3875551.0296139-.4915341.0852225s-.1855824.1372119-.241191.241191c-.0476645.0891249-.0762308.177631-.0834199.3802085l-.0018025.1113256v.9757304c0 .2844181.0296138.387555.0852224.4915341.0556086.103979.137212.1855824.241191.241191.0891249.0476645.1776311.0762308.3802085.0834199l.1113256.0018025h.9757304c.2844182 0 .3875551-.0296138.4915341-.0852224.1039791-.0556086.1855824-.137212.241191-.241191.0476645-.0891249.0762308-.1776311.0834199-.3802085l.0018025-1.087056c0-.2844182-.0296138-.3875551-.0852224-.4915341-.0556086-.1039791-.1372119-.1855824-.241191-.241191-.0891249-.0476645-.1776311-.0762309-.3802085-.0834199zm-7.2306787-5.954519-1.0870559-.0018025c-.2844182 0-.3875551.0296138-.4915342.0852224-.103979.0556086-.1855824.137212-.241191.241191-.0476645.0891249-.0762308.1776311-.0834199.3802085l-.0018025.1113257v.9757303c0 .2844182.0296138.3875551.0852224.4915341.0556086.1039791.137212.1855824.241191.241191.0891249.0476645.1776311.0762309.3802085.0834199l.1113257.0018026h.9757303c.2844182 0 .3875551-.0296139.4915341-.0852225.1039791-.0556086.1855824-.1372119.241191-.241191.0476645-.0891249.0762309-.177631.0834199-.3802085l.0018026-1.0870559c0-.2844182-.0296139-.3875551-.0852225-.4915342-.0556086-.103979-.1372119-.1855824-.241191-.241191-.0891249-.0476645-.177631-.0762308-.3802085-.0834199zm3.6710022 0-1.087056-.0018025c-.2844182 0-.3875551.0296138-.4915341.0852224-.1039791.0556086-.1855824.137212-.241191.241191-.0476645.0891249-.0762309.1776311-.0834199.3802085l-.0018026.1113257v.9757303c0 .2844182.0296139.3875551.0852225.4915341.0556086.1039791.1372119.1855824.241191.241191.0891249.0476645.177631.0762309.3802085.0834199l.1113256.0018026h.9757303c.2844182 0 .3875551-.0296139.4915342-.0852225.103979-.0556086.1855824-.1372119.241191-.241191.0476645-.0891249.0762308-.177631.0834199-.3802085l.0018025-1.0870559c0-.2844182-.0296138-.3875551-.0852224-.4915342-.0556086-.103979-.137212-.1855824-.241191-.241191-.0891249-.0476645-.1776311-.0762308-.3802085-.0834199zm3.6710021 0-1.087056-.0018025c-.2844182 0-.3875551.0296138-.4915341.0852224s-.1855824.137212-.241191.241191c-.0476645.0891249-.0762308.1776311-.0834199.3802085l-.0018025.1113257v.9757303c0 .2844182.0296138.3875551.0852224.4915341.0556086.1039791.137212.1855824.241191.241191.0891249.0476645.1776311.0762309.3802085.0834199l.1113256.0018026h.9757304c.2844182 0 .3875551-.0296139.4915341-.0852225.1039791-.0556086.1855824-.1372119.241191-.241191.0476645-.0891249.0762308-.177631.0834199-.3802085l.0018025-1.0870559c0-.2844182-.0296138-.3875551-.0852224-.4915342-.0556086-.103979-.1372119-.1855824-.241191-.241191-.0891249-.0476645-.1776311-.0762308-.3802085-.0834199zm-7.3420043-3.6740557-1.0870559-.0018025c-.2844182 0-.3875551.0296138-.4915342.0852224-.103979.0556086-.1855824.137212-.241191.241191-.0476645.0891249-.0762308.1776311-.0834199.3802085l-.0018025.1113257v.9757303c0 .2844182.0296138.3875551.0852224.4915342.0556086.103979.137212.1855823.241191.2411909.0891249.0476646.1776311.0762309.3802085.0834199l.1113257.0018026h.9757303c.2844182 0 .3875551-.0296139.4915341-.0852225.1039791-.0556086.1855824-.1372119.241191-.2411909.0476645-.0891249.0762309-.1776311.0834199-.3802086l.0018026-1.0870559c0-.2844182-.0296139-.3875551-.0852225-.4915342-.0556086-.103979-.1372119-.1855824-.241191-.241191-.0891249-.0476645-.177631-.0762308-.3802085-.0834199zm3.6710022 0-1.087056-.0018025c-.2844182 0-.3875551.0296138-.4915341.0852224-.1039791.0556086-.1855824.137212-.241191.241191-.0476645.0891249-.0762309.1776311-.0834199.3802085l-.0018026.1113257v.9757303c0 .2844182.0296139.3875551.0852225.4915342.0556086.103979.1372119.1855823.241191.2411909.0891249.0476646.177631.0762309.3802085.0834199l.1113256.0018026h.9757303c.2844182 0 .3875551-.0296139.4915342-.0852225.103979-.0556086.1855824-.1372119.241191-.2411909.0476645-.0891249.0762308-.1776311.0834199-.3802086l.0018025-1.0870559c0-.2844182-.0296138-.3875551-.0852224-.4915342-.0556086-.103979-.137212-.1855824-.241191-.241191-.0891249-.0476645-.1776311-.0762308-.3802085-.0834199zm3.6710021 0-1.087056-.0018025c-.2844182 0-.3875551.0296138-.4915341.0852224s-.1855824.137212-.241191.241191c-.0476645.0891249-.0762308.1776311-.0834199.3802085l-.0018025.1113257v.9757303c0 .2844182.0296138.3875551.0852224.4915342.0556086.103979.137212.1855823.241191.2411909.0891249.0476646.1776311.0762309.3802085.0834199l.1113256.0018026h.9757304c.2844182 0 .3875551-.0296139.4915341-.0852225.1039791-.0556086.1855824-.1372119.241191-.2411909.0476645-.0891249.0762308-.1776311.0834199-.3802086l.0018025-1.0870559c0-.2844182-.0296138-.3875551-.0852224-.4915342-.0556086-.103979-.1372119-.1855824-.241191-.241191-.0891249-.0476645-.1776311-.0762308-.3802085-.0834199zm-7.3420043-3.6740556-1.0870559-.0018026c-.2844182 0-.3875551.0296139-.4915342.0852225-.103979.0556086-.1855824.1372119-.241191.241191-.0476645.0891248-.0762308.177631-.0834199.3802085l-.0018025.1113256v.9757303c0 .2844182.0296138.3875551.0852224.4915342.0556086.103979.137212.1855824.241191.241191.0891249.0476645.1776311.0762308.3802085.0834199l.1113257.0018025h.9757303c.2844182 0 .3875551-.0296138.4915341-.0852224.1039791-.0556086.1855824-.137212.241191-.241191.0476645-.0891249.0762309-.1776311.0834199-.3802085l.0018026-1.087056c0-.2844182-.0296139-.3875551-.0852225-.4915341-.0556086-.1039791-.1372119-.1855824-.241191-.241191-.0891249-.0476646-.177631-.0762309-.3802085-.0834199zm3.6710022 0-1.087056-.0018026c-.2844182 0-.3875551.0296139-.4915341.0852225-.1039791.0556086-.1855824.1372119-.241191.241191-.0476645.0891248-.0762309.177631-.0834199.3802085l-.0018026.1113256v.9757303c0 .2844182.0296139.3875551.0852225.4915342.0556086.103979.1372119.1855824.241191.241191.0891249.0476645.177631.0762308.3802085.0834199l.1113256.0018025h.9757303c.2844182 0 .3875551-.0296138.4915342-.0852224.103979-.0556086.1855824-.137212.241191-.241191.0476645-.0891249.0762308-.1776311.0834199-.3802085l.0018025-1.087056c0-.2844182-.0296138-.3875551-.0852224-.4915341-.0556086-.1039791-.137212-.1855824-.241191-.241191-.0891249-.0476646-.1776311-.0762309-.3802085-.0834199zm3.6710021 0-1.087056-.0018026c-.2844182 0-.3875551.0296139-.4915341.0852225s-.1855824.1372119-.241191.241191c-.0476645.0891248-.0762308.177631-.0834199.3802085l-.0018025.1113256v.9757303c0 .2844182.0296138.3875551.0852224.4915342.0556086.103979.137212.1855824.241191.241191.0891249.0476645.1776311.0762308.3802085.0834199l.1113256.0018025h.9757304c.2844182 0 .3875551-.0296138.4915341-.0852224.1039791-.0556086.1855824-.137212.241191-.241191.0476645-.0891249.0762308-.1776311.0834199-.3802085l.0018025-1.087056c0-.2844182-.0296138-.3875551-.0852224-.4915341-.0556086-.1039791-.1372119-.1855824-.241191-.241191-.0891249-.0476646-.1776311-.0762309-.3802085-.0834199zm-7.4533299-3.67585826h-.9757303c-.2844182 0-.3875551.02961384-.4915342.08522244-.103979.05560859-.1855824.13721195-.241191.24119099-.0476645.08912489-.0762308.17763107-.0834199.38020851l-.0018025.11132562v.97573035c0 .28441819.0296138.38755509.0852224.49153413s.137212.1855824.241191.241191c.0891249.04766451.1776311.07623083.3802085.08341989l.1113257.00180254h.9757303c.2844182 0 .3875551-.02961383.4915341-.08522243.1039791-.0556086.1855824-.13721196.241191-.241191.0476645-.08912489.0762309-.17763107.0834199-.3802085l.0018026-1.08705598c0-.28441818-.0296139-.38755509-.0852225-.49153413s-.1372119-.1855824-.241191-.24119099c-.0891249-.04766452-.177631-.07623084-.3802085-.0834199zm3.6710021 0h-.9757303c-.2844182 0-.3875551.02961384-.4915341.08522244-.1039791.05560859-.1855824.13721195-.241191.24119099-.0476645.08912489-.0762309.17763107-.0834199.38020851l-.0018026.11132562v.97573035c0 .28441819.0296139.38755509.0852225.49153413s.1372119.1855824.241191.241191c.0891249.04766451.177631.07623083.3802085.08341989l.1113256.00180254h.9757303c.2844182 0 .3875551-.02961383.4915342-.08522243.103979-.0556086.1855824-.13721196.241191-.241191.0476645-.08912489.0762308-.17763107.0834199-.3802085l.0018025-1.08705598c0-.28441818-.0296138-.38755509-.0852224-.49153413s-.137212-.1855824-.241191-.24119099c-.0891249-.04766452-.1776311-.07623084-.3802085-.0834199zm3.6710022 0h-.9757304c-.2844182 0-.3875551.02961384-.4915341.08522244-.103979.05560859-.1855824.13721195-.241191.24119099-.0476645.08912489-.0762308.17763107-.0834199.38020851l-.0018025.11132562v.97573035c0 .28441819.0296138.38755509.0852224.49153413s.137212.1855824.241191.241191c.0891249.04766451.1776311.07623083.3802085.08341989l.1113256.00180254h.9757304c.2844182 0 .3875551-.02961383.4915341-.08522243.1039791-.0556086.1855824-.13721196.241191-.241191.0476645-.08912489.0762308-.17763107.0834199-.3802085l.0018025-1.08705598c0-.28441818-.0296138-.38755509-.0852224-.49153413s-.1372119-.1855824-.241191-.24119099c-.0891249-.04766452-.1776311-.07623084-.3802085-.0834199z"/></svg>