<svg height="32" viewBox="0 0 32 32" width="32" xmlns="http://www.w3.org/2000/svg"><path d="m15.96 4.3c6.424 0 11.66 5.236 11.66 11.66s-5.236 11.66-11.66 11.66-11.66-5.236-11.66-11.66 5.236-11.66 11.66-11.66zm-5.6527472 10.05c-.86494734 0-1.57193349.6614626-1.65331007 1.4980335l-.0076899.1519665c0 .913.737 1.65 1.63899997 1.65.913 0 1.65-.737 1.661-1.639 0-.913-.737-1.661-1.639-1.661zm5.7037472 0c-.8649474 0-1.5719335.6614626-1.6533101 1.4980335l-.0076899.1519665c0 .913.737 1.65 1.639 1.65.913 0 1.65-.737 1.661-1.639 0-.913-.737-1.661-1.639-1.661zm5.7037472 0c-.8649474 0-1.5719336.6614626-1.6533101 1.4980335l-.0076899.1519665c0 .913.737 1.65 1.639 1.65.913 0 1.65-.737 1.661-1.639 0-.913-.737-1.661-1.639-1.661z"/></svg>