<svg height="32" viewBox="0 0 32 32" width="32" xmlns="http://www.w3.org/2000/svg"><g fill="none"><path d="m15.96 4.3c-6.424 0-11.66 5.236-11.66 11.66s5.236 11.66 11.66 11.66 11.66-5.236 11.66-11.66-5.236-11.66-11.66-11.66z" fill="#afdfef"/><path d="m10.3072528 14.35c-.91299997 0-1.64999997.737-1.66099997 1.639v.011c0 .913.737 1.65 1.63899997 1.65.913 0 1.65-.737 1.661-1.639 0-.913-.737-1.661-1.639-1.661zm5.7037472 0c-.913 0-1.65.737-1.661 1.639v.011c0 .913.737 1.65 1.639 1.65.913 0 1.65-.737 1.661-1.639 0-.913-.737-1.661-1.639-1.661zm5.7037472 0c-.913 0-1.65.737-1.661 1.639v.011c0 .913.737 1.65 1.639 1.65.913 0 1.65-.737 1.661-1.639 0-.913-.737-1.661-1.639-1.661z" fill="#252d4f"/></g></svg>