<svg height="32" viewBox="0 0 32 32" width="32" xmlns="http://www.w3.org/2000/svg"><path d="m16 5.4c-5.84 0-10.6 4.76-10.6 10.6s4.76 10.6 10.6 10.6 10.6-4.76 10.6-10.6-4.76-10.6-10.6-10.6zm0 20c-5.18 0-9.4-4.22-9.4-9.4s4.22-9.4 9.4-9.4 9.4 4.22 9.4 9.4-4.22 9.4-9.4 9.4zm-4.79-10.9c-.83 0-1.5.67-1.51 1.49v.01c0 .83.67 1.5 1.49 1.5.83 0 1.5-.67 1.51-1.49 0-.83-.67-1.51-1.49-1.51zm4.8 0c-.83 0-1.5.67-1.51 1.49v.01c0 .83.67 1.5 1.49 1.5.83 0 1.5-.67 1.51-1.49 0-.83-.67-1.51-1.49-1.51zm4.8 0c-.83 0-1.5.67-1.51 1.49v.01c0 .83.67 1.5 1.49 1.5.83 0 1.5-.67 1.51-1.49 0-.83-.67-1.51-1.49-1.51z"/></svg>