<svg height="32" viewBox="0 0 32 32" width="32" xmlns="http://www.w3.org/2000/svg"><path d="m8.00995529 14.15c-1.02 0-1.85.83-1.86 1.85 0 1.02.83 1.85 1.84 1.85h.01c.49 0 .95-.19 1.3-.54s.54-.81.55-1.31c0-.49-.19-.96-.54-1.31-.34-.35-.81-.54-1.3-.54zm8.00000001 0c-.5 0-.96.19-1.31.54s-.54.81-.55 1.31c0 1.02.83 1.85 1.84 1.85h.01c1.02 0 1.85-.83 1.85-1.84.01-1.02-.82-1.86-1.84-1.86zm8 0c-1.02 0-1.85.83-1.86 1.85 0 1.02.83 1.85 1.84 1.85h.01c1.02 0 1.85-.83 1.85-1.84.01-1.02-.82-1.86-1.84-1.86z"/></svg>