<svg height="32" viewBox="0 0 32 32" width="32" xmlns="http://www.w3.org/2000/svg"><path d="m25.0511579 4.74884211c1.1621992 0 2.1139152.90118564 2.1944762 2.04288499l.0055238.15711501v18.10231579c0 1.1621992-.9011856 2.1139152-2.042885 2.1944762l-.157115.0055238h-18.10231579c-1.16219921 0-2.11391524-.9011856-2.19447618-2.042885l-.00552382-.157115v-18.10231579c0-1.16219921.90118564-2.11391524 2.04288499-2.19447618l.15711501-.00552382zm-2.0511579 17.04615789h-14c-.33 0-.6.27-.6.6s.27.6.6.6h14c.33 0 .6-.27.6-.6s-.27-.6-.6-.6zm-7.04-12.79c-.18 0-.35.08-.47.23l-2.96 3.7c-.09.11-.13.24-.13.37 0 .09.02.17.06.26.1.21.3.34.53.34l2.41.03v4.46c0 .33.27.6.6.6.297 0 .5454-.2187.59211-.50301l.00789-.09699v-4.43l2.39.03c.23 0 .45-.13.55-.34s.07-.46-.07-.64l-3.04-3.79c-.11-.14-.29-.22-.47-.22z" fill-rule="evenodd"/></svg>