<svg height="32" viewBox="0 0 32 32" width="32" xmlns="http://www.w3.org/2000/svg"><path d="m22.395 8.2c.4065756 0 .7442069.30635621.7937444.69991925l.0062556.10008075v14c0 .4404569-.3595431.8-.8.8-.4065756 0-.7442069-.3063562-.7937444-.6999193l-.0062556-.1000807v-14c0-.44045695.3595431-.8.8-.8zm-9.5027881 4.1721296c.240919-.1873815.57186-.2245659.8487748-.0927017.2430037.115716.4083549.3513109.4458852.6174253l.0081123.1156571-.0279842 2.1874897h4.228c.3696142 0 .6822496.2531869.773256.5949107l.0204884.1050086.0062556.1000807c0 .4065756-.3063562.7442069-.6999193.7937444l-.1000807.0062556-4.263-.001-.027 2.211c0 .2301615-.0979247.4397977-.2669881.5873896l-.0903359.0684333-.1014483.0569394c-.1171738.0520773-.2241057.0772377-.3412277.0772377-.1450588 0-.2848688-.0376714-.406923-.1116019l-.088016-.0622243-3.70000001-2.96c-.19535611-.1562849-.30506099-.3827724-.30506099-.6261738 0-.208538.08036455-.4124523.22111865-.5590092l.07374164-.0670038z" fill="#2289a3"/></svg>