<svg height="32" viewBox="0 0 32 32" width="32" xmlns="http://www.w3.org/2000/svg"><path d="m25.0511579 4.74884211c1.1621992 0 2.1139152.90118564 2.1944762 2.04288499l.0055238.15711501v18.10231579c0 1.1621992-.9011856 2.1139152-2.042885 2.1944762l-.157115.0055238h-18.10231579c-1.16219921 0-2.11391524-.9011856-2.19447618-2.042885l-.00552382-.157115v-18.10231579c0-1.16219921.90118564-2.11391524 2.04288499-2.19447618l.15711501-.00552382zm-9.0611579 8.26077969c-.33 0-.6.27-.6.6v4.45l-2.41.03c-.23 0-.44.14-.53.34-.04.08-.06.17-.06.26 0 .13.04.27.13.37l2.96 3.7c.11.14.29.23.47.23.1583333.0083333.3027778-.0527778.4101852-.1543981l.0598148-.0656019 3.04-3.79c.15-.18.17-.43.07-.64s-.32-.34-.55-.34l-2.39.03v-4.42c0-.33-.27-.6-.6-.6zm7.01-3.99999999h-14c-.33 0-.6.27-.6.6s.27.59999999.6.59999999h14c.33 0 .6-.26999999.6-.59999999s-.27-.6-.6-.6z" fill-rule="evenodd"/></svg>