<svg height="32" viewBox="0 0 32 32" width="32" xmlns="http://www.w3.org/2000/svg"><path d="m15.99 12.8096218c.4065756 0 .7442069.3063562.7937444.6999193l.0062556.1000807v4.2163782l2.19-.0263782c.2321264 0 .4526211.0991658.6041522.2659112l.0697532.0888581.0566667.099244c.1180862.2479811.1070859.5337274-.0287253.7587119l-.0658338.0924145-3.0482234 3.7996128-.070151.0761304c-.1507587.1426358-.3494154.2198267-.5476386.2091171-.2060083 0-.4105484-.0862081-.5576617-.2290547l-.0685121-.0760063-2.952485-3.691146c-.120111-.1334567-.1813412-.3171472-.1813412-.503793 0-.1218271.0275311-.2422759.0776157-.3420729.1080207-.2400461.3382201-.410612.5973432-.4494923l.1125517-.0084193 2.2124894-.0286373v-4.2513782c0-.3696142.2531869-.6822496.5949107-.773256l.1050086-.0204884zm7.01-3.99999999c.4404569 0 .8.35954305.8.8 0 .40657569-.3063562.74420689-.6999193.79374439l-.1000807.0062556h-14c-.44045695 0-.8-.359543-.8-.79999999 0-.40657564.30635621-.7442069.69991925-.7937444l.10008075-.0062556z" fill="#2289a3"/></svg>