<svg height="32" viewBox="0 0 32 32" width="32" xmlns="http://www.w3.org/2000/svg"><path d="m23 21.595c.4404569 0 .8.3595431.8.8 0 .4065756-.3063562.7442069-.6999193.7937444l-.1000807.0062556h-14c-.44045695 0-.8-.3595431-.8-.8 0-.4065756.30635621-.7442069.69991925-.7937444l.10008075-.0062556zm-7.04-12.79c.208538 0 .4124523.08036455.5582216.22012656l.0677914.07473373 3.0418574 3.79235161c.1873815.240919.2245659.57186.0927017.8487748-.115716.2430037-.3513109.4083549-.6174253.4458852l-.1156571.0081123-2.1884897-.0279842.0003415 4.2442162-.0098773.1131976c-.0630305.3836482-.3972011.6705862-.7894642.6705862-.4065756 0-.7442069-.3063562-.7937444-.6999193l-.0062556-.1000807v-4.263l-2.21-.027c-.2301615 0-.4397977-.0979247-.5873896-.2669881l-.0684333-.0903359-.0569394-.1014483c-.0520773-.1171738-.0772377-.2241057-.0772377-.3412277 0-.1450588.0376714-.2848688.1116019-.406923l.0622243-.088016 2.96-3.70000001c.1562849-.19535611.3827724-.30506099.6261738-.30506099z" fill="#2289a3"/></svg>