<svg height="32" viewBox="0 0 32 32" width="32" xmlns="http://www.w3.org/2000/svg"><path d="m9.60962181 8.2c.40657569 0 .74420689.30635621.79374439.69991925l.0062556.10008075v14c0 .4404569-.359543.8-.79999999.8-.40657564 0-.7442069-.3063562-.7937444-.6999193l-.0062556-.1000807v-14c0-.44045695.35954305-.8.8-.8zm8.64401329 4.0894279c.2479811-.1180862.5337274-.1070859.7587119.0287253l.0924145.0658338 3.7884246 3.0387493c.1959608.1539692.3093067.3879737.2964357.6272637 0 .2060083-.0862081.4105484-.2290547.5576617l-.0760063.0685121-3.691146 2.952485c-.1334567.120111-.3171472.1813412-.503793.1813412-.1218271 0-.2422759-.0275311-.3420729-.0776157-.2400461-.1080207-.410612-.3382201-.4494923-.5973432l-.0084193-.1125517-.0286373-2.2124894h-4.2513782c-.3696142 0-.6822496-.2531869-.773256-.5949107l-.0204884-.1050086-.0062556-.1000807c0-.4065756.3063562-.7442069.6999193-.7937444l.1000807-.0062556h4.2163782l-.0263782-2.19c0-.2321264.0991658-.4526211.2659112-.6041522l.0888581-.0697532z" fill="#2289a3"/></svg>