<svg height="32" viewBox="0 0 32 32" width="32" xmlns="http://www.w3.org/2000/svg"><path d="m25.0511579 4.74884211c1.1621992 0 2.1139152.90118564 2.1944762 2.04288499l.0055238.15711501v18.10231579c0 1.1621992-.9011856 2.1139152-2.042885 2.1944762l-.157115.0055238h-18.10231579c-1.16219921 0-2.11391524-.9011856-2.19447618-2.042885l-.00552382-.157115v-18.10231579c0-1.16219921.90118564-2.11391524 2.04288499-2.19447618l.15711501-.00552382zm-15.44153609 3.65115789c-.33 0-.6.27-.6.6v14c0 .33.27.6.6.6s.59999999-.27.59999999-.6v-14c0-.33-.26999999-.6-.59999999-.6zm8.72999999 4.07c-.21.1-.34.32-.34.55l.03 2.39h-4.42c-.33 0-.6.27-.6.6s.27.6.6.6h4.45l.03 2.41c0 .23.14.44.34.53.08.04.17.06.26.06.13 0 .27-.04.37-.13l3.7-2.96c.14-.11.23-.29.23-.47.01-.19-.08-.36-.22-.47l-3.79-3.04c-.18-.15-.43-.17-.64-.07z" fill-rule="evenodd"/></svg>