<svg height="32" viewBox="0 0 32 32" width="32" xmlns="http://www.w3.org/2000/svg"><path d="m25.0511579 4.74884211c1.1621992 0 2.1139152.90118564 2.1944762 2.04288499l.0055238.15711501v18.10231579c0 1.1621992-.9011856 2.1139152-2.042885 2.1944762l-.157115.0055238h-18.10231579c-1.16219921 0-2.11391524-.9011856-2.19447618-2.042885l-.00552382-.157115v-18.10231579c0-1.16219921.90118564-2.11391524 2.04288499-2.19447618l.15711501-.00552382zm-2.6561579 3.65115789c-.33 0-.6.27-.6.6v14c0 .33.27.6.6.6s.6-.27.6-.6v-14c0-.33-.27-.6-.6-.6zm-9.38 4.13-3.79 3.04c-.14.11-.22.29-.22.47s.08.35.23.47l3.7 2.96c.11.09.24.13.37.13.09 0 .17-.02.26-.06.21-.1.34-.3.34-.53l.03-2.41h4.46c.33 0 .6-.27.6-.6s-.27-.6-.6-.6h-4.43l.03-2.39c0-.23-.13-.45-.34-.55s-.46-.07-.64.07z" fill-rule="evenodd"/></svg>