<svg height="32" viewBox="0 0 32 32" width="32" xmlns="http://www.w3.org/2000/svg"><path d="m25.0511579 4.74884211c1.1621992 0 2.1139152.90118564 2.1944762 2.04288499l.0055238.15711501v18.10231579c0 1.1621992-.9011856 2.1139152-2.042885 2.1944762l-.157115.0055238h-18.10231579c-1.16219921 0-2.11391524-.9011856-2.19447618-2.042885l-.00552382-.157115v-18.10231579c0-1.16219921.90118564-2.11391524 2.04288499-2.19447618l.15711501-.00552382zm-9.2061579 2.55115789c-.18 0-.35.08-.47.23l-2.22 2.78c-.14.18-.17.42-.07.63s.3.34.53.34l1.66.02v4.07h-3.96l.02-1.64c0-.23-.13-.45-.34-.55s-.46-.07-.64.07l-2.83 2.28c-.14.11-.22.29-.22.47s.08.35.23.47l2.78 2.22c.11.09.24.13.37.13.09 0 .17-.02.26-.06.21-.1.34-.31.34-.53l.02-1.66h3.98v4.13l-1.66.02c-.23 0-.44.14-.53.34-.1.21-.07.45.07.63l2.22 2.78c.11.14.29.23.47.23s.35-.08.47-.22l2.28-2.84c.15-.18.17-.43.07-.64s-.31-.34-.54-.34h-.01l-1.64.02v-4.11h4.21l.02 1.66c0 .23.14.44.34.53.08.04.17.06.26.06.13 0 .27-.04.37-.13l2.78-2.22c.14-.11.23-.29.23-.47 0-.19-.08-.36-.22-.47l-2.84-2.28c-.18-.15-.43-.17-.64-.07s-.34.32-.34.55l.02 1.64h-4.2v-4.06l1.64.02h.01c.23 0 .44-.13.54-.34s.07-.46-.07-.64l-2.28-2.83c-.11-.14-.29-.22-.47-.22z" fill-rule="evenodd"/></svg>