<svg height="32" viewBox="0 0 32 32" width="32" xmlns="http://www.w3.org/2000/svg"><path d="m15.845 5.1c-.2434014 0-.4698889.10970488-.6261738.30506099l-2.2201096 2.78013716c-.1891492.24316502-.2260396.56411171-.0942887.84078857l.0562164.09987747c.1452495.22084945.3858339.35413581.6543557.35413581l1.46.017v5.673h-5.559l.01898513-1.4375612c.00001487-.3119406-.17627991-.600764-.45399841-.7330109-.27691477-.1318642-.60785584-.0946798-.84877484.0927017l-2.83268706 2.2821271c-.18513974.145448-.29452482.382449-.29452482.6257433 0 .2434014.10970488.4698889.30506099.6261738l2.78013716 2.2201096c.14035615.114855.31347839.1737166.49480185.1737166.11712203 0 .22405386-.0251604.34122769-.0772377l.10062004-.0568268c.22265716-.1472808.35815227-.3934271.35815227-.6559355l.017-1.46h5.582v5.732l-1.4614095.0180145c-.30349-.0000145-.5865225.1835742-.7099748.4579126-.1299387.272763-.0930483.5937097.0945139.834861l2.221587 2.7820137c.1475958.1878593.3859404.3051982.6262834.3051982.2385897 0 .4639702-.1056471.6218513-.2898417l2.2841079-2.8449516c.1959214-.2350535.2295686-.5677865.0946129-.8511934-.1161448-.2439041-.3447925-.40858-.6065799-.4459379l-.1239922-.0080754-1.441.018v-5.708h5.813l.0180145 1.4624095c-.0000145.30349.1835742.5865225.4579126.7099748.099797.0500846.2202458.0776157.3420729.0776157.1866458 0 .3703363-.0612302.5037929-.1813412l2.7710089-2.2123754c.1878593-.1475958.3051982-.3859404.3051982-.6262834 0-.2500322-.1070909-.4784927-.2964357-.6272637l-2.8383576-2.2786955c-.2350535-.1959214-.5677865-.2295686-.8511934-.0946129l-.099244.0566667c-.2197936.1481091-.3547693.4030913-.3547693.6739054l.017 1.44h-5.798v-5.659l1.451.019c.3081558 0 .5878352-.17526578.7205721-.45401328.1318642-.27691477.0946798-.60785584-.0927017-.84877484l-2.2821271-2.83268706c-.145448-.18513974-.382449-.29452482-.6257433-.29452482z" fill="#2289a3"/></svg>