<svg height="32" viewBox="0 0 32 32" width="32" xmlns="http://www.w3.org/2000/svg"><path d="m15.5253309 4c2.3100214 0 4.1924699 1.85034336 4.1924699 4.13123766v9.18749084c0 .2931887-.0311111.5792694-.0902418.8552244l1.4799446 1.4802098c.2900907-.6603135.467384-1.3814161.5071747-2.1385247l.0085625-.3266074v-3.5591913l.007853-.0973232c.0465003-.2850872.2939133-.5026768.592147-.5026768.2982338 0 .5456468.2175896.592147.5026768l.007853.0973232v3.5591913l-.0039069.2414575c-.036382 1.1227353-.3255379 2.1824136-.8121008 3.1233708l5.1720707 5.1721785.0694265.0830974c.1619953.2338417.1388533.557151-.0694263.7654307s-.5315888.231422-.7654307.0694268l-.0830974-.0694265-4.9784804-4.9787678c-1.2196935 1.6214541-3.0945169 2.7198507-5.2263263 2.8949108l-.0009692 2.6332912 3.0237226.0009831.0973231.007853c.2850873.0465002.5026769.2939132.5026769.592147s-.2175896.5456468-.5026769.592147l-.0973231.007853h-7.2467835l-.0973231-.007853c-.2850873-.0465002-.5026769-.2939132-.5026769-.592147s.2175896-.5456468.5026769-.592147l.0973231-.007853 3.0230609-.0009831-.0000012-2.6332661c-3.6665003-.3009304-6.57289503-3.3331374-6.69367096-7.0602458l-.00390697-.2414575v-3.5591913l.00785299-.0973232c.04650026-.2850872.29391325-.5026768.59214701-.5026768.29823377 0 .54564676.2175896.59214702.5026768l.00785298.0973232v3.5591913l.00403089.2242495c.11789938 3.2746234 2.80715474 5.9019907 6.09387914 5.9019907 2.0465581 0 3.8614638-1.0186909 4.9681711-2.578024l-1.3434553-1.3437097c-.727506 1.2295258-2.0806301 2.0564291-3.6247158 2.0564291-2.3111581 0-4.19247-1.8656281-4.19247-4.1624943l-.0008609-5.7114719-6.15626395-6.15646182-.06942656-.08309744c-.16199533-.23384173-.13885324-.55715101.06942632-.7654307.20827956-.20827968.53158884-.23142195.76543065-.06942676l.08309749.06942652 5.30773605 5.3079902.0008609-1.74776234c0-2.28085744 1.8824661-4.13123766 4.19247-4.13123766zm-2.9933309 8.776.0008609 4.5114719c0 1.6318653 1.3418152 2.9624943 2.99247 2.9624943 1.220067 0 2.2704485-.7190965 2.7361355-1.7451484zm2.9933309-7.576c-1.6518359 0-2.99247 1.31778348-2.99247 2.93123766l-.0008609 2.94776234 5.985 5.985.0008008-8.93276234c0-1.61348814-1.3406137-2.93123766-2.9924699-2.93123766z"/></svg>