<svg height="32" viewBox="0 0 32 32" width="32" xmlns="http://www.w3.org/2000/svg"><path d="m4.57573581 4.57101004c.23431451-.23431464.61421349-.23431475.84852814-.00000024l15.08323965 15.0831529c.3315323-.754644.5157372-1.588686.5157372-2.4651321v-3.5591913l.007853-.0973232c.0465003-.2850872.2939133-.5026768.592147-.5026768.3313709 0 .6.2686291.6.6v3.5591913l-.0039069.2414575c-.036382 1.1227353-.3255379 2.1824136-.8121008 3.1233708l5.1720707 5.1721785.0694265.0830974c.1619953.2338417.1388533.557151-.0694263.7654307-.2343145.2343147-.6142135.2343148-.8485281.0000003l-4.9784804-4.9787678c-1.2196935 1.6214541-3.0945169 2.7198507-5.2263263 2.8949108l-.0009692 2.6332912 3.0237226.0009831.0973231.007853c.2850873.0465002.5026769.2939132.5026769.592147 0 .3313709-.2686292.6-.6.6h-7.2467835l-.0973231-.007853c-.2850873-.0465002-.5026769-.2939132-.5026769-.592147 0-.3313708.2686292-.6.6-.6l3.0230609-.0009831-.0000012-2.6332661c-3.6665003-.3009304-6.57289503-3.3331374-6.69367096-7.0602458l-.00390697-.2414575v-3.5591913l.00785299-.0973232c.04650026-.2850872.29391325-.5026768.59214701-.5026768.33137085 0 .6.2686291.6.6v3.5591913l.00403089.2242495c.11789938 3.2746234 2.80715474 5.9019907 6.09387914 5.9019907 2.0465581 0 3.8614638-1.0186909 4.9681711-2.578024l-1.3436138-1.3434419c-.727544 1.229378-2.0805837 2.0561613-3.6245573 2.0561613-2.3111581 0-4.19247-1.8656281-4.19247-4.1624943l-.0008609-5.7114719-6.15626395-6.15646182-.06942656-.08309744c-.16199533-.23384173-.13885324-.55715101.06942632-.7654307zm10.34959509-.57101004c2.3100214 0 4.1924699 1.85034336 4.1924699 4.13123766l-.0008008 8.46176234-8.385-8.385.0008609-.07676234c0-2.28085744 1.8824661-4.13123766 4.19247-4.13123766z"/></svg>