<svg height="32" viewBox="0 0 32 32" width="32" xmlns="http://www.w3.org/2000/svg"><g fill="none"><path d="m10.7328609 9.907 8.2898961 8.2890612c-.4093581 1.8596132-2.0923961 3.253905-4.0974261 3.253905-2.3111581 0-4.19247-1.8656281-4.19247-4.1624943zm4.19247-5.907c2.3100214 0 4.1924699 1.85034336 4.1924699 4.13123766l-.0009399 8.46176234-8.384-8.384v-.07776234c0-2.28085744 1.8824661-4.13123766 4.19247-4.13123766z" fill="#bda2d8"/><path d="m14.9253289 14.099 4.0974281 4.0970612c-.4093581 1.8596132-2.0923961 3.253905-4.0974261 3.253905zm.000002-10.099c2.3100214 0 4.1924699 1.85034336 4.1924699 4.13123766l-.0004719 8.46276234-4.192-4.192z" fill="#a085bb"/><path d="m21.6232408 13.0298393c.2982338 0 .5456468.2175896.592147.5026768l.007853.0973232v3.5591913l-.0039069.2414575c-.1207836 3.7273442-3.0275385 6.7596991-6.6943669 7.0603029l-.0005461 2.6340483 3.0243017.0001438.0973231.007853c.2850873.0465002.5026769.2939132.5026769.592147s-.2175896.5456468-.5026769.592147l-.0973231.007853h-7.2467835l-.0973231-.007853c-.2850873-.0465002-.5026769-.2939132-.5026769-.592147s.2175896-.5456468.5026769-.592147l.0973231-.007853 3.0224818-.0001438.0000661-2.6341474c-3.666259-.3011706-6.57238885-3.3332688-6.69315916-7.0602038l-.00390697-.2414575v-3.5591913l.00785299-.0973232c.04650026-.2850872.29391325-.5026768.59214701-.5026768.29823377 0 .54564676.2175896.59214702.5026768l.00785298.0973232v3.5591913l.00403089.2242495c.11789938 3.2746234 2.80715474 5.9019907 6.09387914 5.9019907 3.2867243 0 5.9759797-2.6273673 6.093879-5.9019907l.0040309-.2242495v-3.5591913l.007853-.0973232c.0465003-.2850872.2939133-.5026768.592147-.5026768z" fill="#7d5b9f"/><path d="m25.7307759 4.5710098c.2343146-.23431451.6142136-.2343144.8485281.00000024.2082796.20827969.2314216.53158897.0694263.7654307l-.0694265.08309744-21.15503985 21.15502762c-.23431465.2343145-.61421363.2343144-.84852814-.0000003-.20827956-.2082797-.23142165-.531589-.06942632-.7654307l.06942656-.0830974z" fill="#ac4000" transform="matrix(-1 0 0 1 31.15504 0)"/></g></svg>