<svg height="32" viewBox="0 0 32 32" width="32" xmlns="http://www.w3.org/2000/svg"><g fill="none" fill-rule="evenodd"><path d="m7.67847665 7.305h5.00408765c.3974017 0 .7550219.24122987.9038742.60970117l.4565764 1.13021598c.1488523.3684713.5064725.60970117.9038742.60970117h9.5788508c.5383902 0 .9748417.43645148.9748417.97484168v11.0906984c0 .5383901-.4364515.9748416-.9748417.9748416h-16.84726325c-.53839017 0-.97484164-.4364515-.97484164-.9748416v-13.44031676c0-.53839017.43645147-.97484164.97484164-.97484164z" fill="#a72235"/><path d="m7.67847665 13.0042366h16.84726325c.5383902 0 .9748417.4364515.9748417.9748417v8.7410801c0 .5383901-.4364515.9748416-.9748417.9748416h-16.84726325c-.53839017 0-.97484164-.4364515-.97484164-.9748416v-8.7410801c0-.5383902.43645147-.9748417.97484164-.9748417z" fill="#dc3848"/><path d="m18.5340589 15.8728604c-.6087157-.3851046-1.2639026-.3479089-1.7976648.1021866-.1438794.1213309-.2710192.255154-.3939429.3845736-.0511557.0538104-.0994694.104685-.1491573.1549663-.028982.0293568-.0554031.0582763-.0809498.0862589-.0337602.0370083-.0656467.0719241-.0966587.1000316-.0148345.0134604-.0208308.0120551-.0339477.0002499-.0306684-.0276391-.0624612-.0627735-.0960965-.0999692-.0270457-.0298877-.0550283-.060806-.0861028-.0921303-.0490008-.0494068-.0972833-.0995944-.1455971-.1498444-.1265152-.1315433-.2573089-.2675526-.4031871-.3919441-.3227058-.2751416-.7022514-.3944738-1.0976308-.3450045-.5444432.068114-1.0191484.3968473-1.2698677.8793289-.2501259.4813573-.246347 1.0571872.0100563 1.5403247.174704.3292018.384074.6366359.6222698.9138387.5826694.6780164 1.2837652 1.3004736 2.2733382 2.0182779.037789.0274204.1133671.071237.2099009.071237.0638978 0 .1369774-.0192069.2143356-.075016.7777046-.5613388 1.3882941-1.0795795 1.9216504-1.6309246.3962227-.4095894.7003463-.8095285.9297351-1.2226782.1673023-.3014378.2425993-.572863.2368529-.854157-.0142724-.6007832-.2796076-1.0809849-.767336-1.3896058z" fill="#fff" fill-rule="nonzero"/></g></svg>