<svg height="32" viewBox="0 0 32 32" width="32" xmlns="http://www.w3.org/2000/svg"><path d="m12.6825643 6.705c.592612 0 1.1304644.33205475 1.3988395.85132797l.0613554.13363487.4565763 1.13021598c.0476967.11806908.1511395.20216157.2727256.2269127l.074828.0075268h9.5788508c.821441 0 1.4959911.6289145 1.5684058 1.43149898l.0064359.1433427v12.0906984c0 .8214409-.6289145 1.495991-1.431499 1.5684057l-.1433427.0064359h-16.84726325c-.82144096 0-1.49599108-.6289145-1.56840578-1.431499l-.00643586-.1433426v-14.44031676c0-.82144096.6289145-1.49599108 1.43149895-1.56840578l.14334269-.00643586zm11.8431756 6.8992366h-16.84726325c-.18114191 0-.33227361.128489-.36722619.299298l-.00761545.0755437v8.6709217c0 .1811419.12848896.3322736.29929798.3672262l.07554366.0076154h16.84726325c.1811419 0 .3322736-.1284889.3672262-.2992979l.0076155-.0755437v-8.6709217c0-.1811419-.128489-.3322736-.299298-.3672262zm-7.7893458 2.3708104c.5337622-.4500955 1.1889491-.4872912 1.7976648-.1021866.4877284.3086209.7530636.7888226.767336 1.3896058.0057464.281294-.0695506.5527192-.2368529.854157-.2293888.4131497-.5335124.8130888-.9297351 1.2226782-.5333563.5513451-1.1439458 1.0695858-1.9216504 1.6309246-.0773582.0558091-.1504378.075016-.2143356.075016-.0965338 0-.1721119-.0438166-.2099009-.071237-.989573-.7178043-1.6906688-1.3402615-2.2733382-2.0182779-.2381958-.2772028-.4475658-.5846369-.6222698-.9138387-.2564033-.4831375-.2601822-1.0589674-.0100563-1.5403247.2507193-.4824816.7254245-.8112149 1.2698677-.8793289.3953794-.0494693.774925.0698629 1.0976308.3450045.0972521.0829277.1878.1710188.2748455.2595078l.3185009.3288846.0415406.0455264c.0336353.0371957.0654281.0723301.0960965.0999692.0131169.0118052.0191132.0132105.0339477-.0002499l.0472988-.046678.279467-.2945788c.1229237-.1294196.2500635-.2632427.3939429-.3845736zm-4.0538298-8.070047h-5.00408765c-.18114191 0-.33227361.12848896-.36722619.29929798l-.00761545.07554366-.00111582 4.16955076c.08031563-.0196722.16304959-.033184.24767251-.0400061l.12828495-.0051497h16.84726325c.1292114 0 .2547884.0155612.374959.0449116v-1.8196882c0-.1811419-.1286063-.3322736-.2994153-.3672262l-.0755437-.0076155h-9.5788508c-.592612 0-1.1304645-.33205473-1.3988395-.85132795l-.0613554-.13363487-.4565763-1.13021598c-.0476967-.11806908-.1511396-.20216157-.2727256-.2269127z"/></svg>