<svg height="32" viewBox="0 0 32 32" width="32" xmlns="http://www.w3.org/2000/svg"><path d="m24.5257399 13.0042366.1136872.0065585c.4475321.0519802.8026158.4070639.854596.8545961l.0065585.1136871v8.7479652c0 .5383902-.4364515.9748417-.9748417.9748417h-16.84726325c-.53839017 0-.97484164-.4364515-.97484164-.9748417v-8.7479652l.00655847-.1136871c.05198015-.4475322.40706393-.8026159.85459604-.8545961l.11368713-.0065585zm-7.7893458 2.9708104c-.0959196.0808872-.1843994.1673266-.26915.2543119l-.3549.3714869c-.0337602.0370083-.0656467.0719241-.0966587.1000316-.0148345.0134604-.0208308.0120551-.0339477.0002499l-.0960965-.0999692-.0415406-.0455264-.1901593-.1964483c-.1265152-.1315433-.2573089-.2675526-.4031871-.3919441-.3227058-.2751416-.7022514-.3944738-1.0976308-.3450045-.5444432.068114-1.0191484.3968473-1.2698677.8793289-.2501259.4813573-.246347 1.0571872.0100563 1.5403247.174704.3292018.384074.6366359.6222698.9138387.5826694.6780164 1.2837652 1.3004736 2.2733382 2.0182779.037789.0274204.1133671.071237.2099009.071237.0638978 0 .1369774-.0192069.2143356-.075016.7777046-.5613388 1.3882941-1.0795795 1.9216504-1.6309246.3962227-.4095894.7003463-.8095285.9297351-1.2226782.1673023-.3014378.2425993-.572863.2368529-.854157-.0142724-.6007832-.2796076-1.0809849-.767336-1.3896058-.6087157-.3851046-1.2639026-.3479089-1.7976648.1021866zm-4.0538298-8.670047c.3974017 0 .7550219.24122987.9038742.60970117l.4565764 1.13021598c.1488523.3684713.5064725.60970117.9038742.60970117h9.5788508c.5383902 0 .9749301.43645148.9749301.97484168v1.405008c-.2345942-.1178439-.493455-.1944856-.7670859-.2204286l-.2078442-.0098028h-16.84726325l-.15531831.0054607c-.29371356.0207251-.57132514.0997726-.82132427.2256319l.00180094-3.75548756c0-.53839017.43645147-.97484164.97484164-.97484164z" fill-rule="evenodd"/></svg>