<svg height="32" viewBox="0 0 32 32" width="32" xmlns="http://www.w3.org/2000/svg"><g fill="none"><path d="m22.1677431 19.5765055c-.1915706-.1489994-.4469981-.1809278-.6704971-.0744997-.2234991.1064281-.3618556.3192844-.3618556.564069l-.0319284 2.5649176h-6.8646135c-.8301393 0-1.5006364-.6704971-1.5006364-1.4899936v-5.7471182h-1.2771374v5.7471182c0 1.5219221 1.2452089 2.767131 2.7777738 2.767131h6.8433278l-.0319284 2.543632c0 .2447846.1383566.4789265.3618556.5853546.0851425.0425713.1809278.0638569.2767131.0638569.1383566 0 .2873559-.0425713.4044268-.1383566l4.0336256-3.2354147c.1489994-.1170709.2341419-.3086415.2341419-.5002121-.0106428-.2022134-.1064281-.3831412-.2554275-.5002122z" fill="#6ec38c"/><path d="m6.05780967 8.31805775c-.90209158-.27743062-1.55780967-1.117357-1.55780967-2.11043455 0-1.21923663.98838657-2.2076232 2.2076232-2.2076232 1.21923662 0 2.20762319.98838657 2.20762319 2.2076232 0 1.00131165-.66663694 1.84692191-1.58029933 2.11721926v4.30190714c0 .8194964.67049712 1.4899936 1.50063643 1.4899936h6.86461341l.0319285-2.5649176c0-.2447847.1383565-.4576409.3618556-.564069.223499-.1064281.4789265-.0744997.6704971.0744997l3.9378403 3.1502722c.1596421.1277137.2447846.3086415.2447846.5002121s-.0851425.3831412-.2341418.5002122l-4.0336256 3.2354147c-.1170709.0957853-.2660703.1383565-.4044268.1383565-.0957853 0-.1915706-.0212856-.2767131-.0638568-.2234991-.1064282-.3618556-.34057-.3618556-.5853547l.0319284-2.5436319h-6.83268501c-1.53256487 0-2.77777382-1.245209-2.77777382-2.767131z" fill="#007b3d"/></g></svg>