<svg height="32" viewBox="0 0 32 32" width="32" xmlns="http://www.w3.org/2000/svg"><path d="m6.25 8.9875786c-.79264157-.26578601-1.36374845-1.01453337-1.36374845-1.89666989 0-1.1045695.8954305-2 2-2s2 .8954305 2 2c0 .90881108-.60616801 1.67604404-1.43625155 1.91944638v4.29873621c0 .77.63 1.4 1.41 1.4h6.45l.03-2.41c0-.23.13-.43.34-.53s.45-.07.63.07l3.7 2.96c.15.12.23.29.23.47s-.08.36-.22.47l-3.79 3.04c-.11.09-.25.13-.38.13-.09 0-.18-.02-.26-.06-.21-.1-.34-.32-.34-.55l.03-2.39h-2.33v5.4c0 .77.63 1.4 1.41 1.4h6.45l.03-2.41c0-.23.13-.43.34-.53s.45-.07.63.07l3.7 2.96c.14.11.23.28.24.47 0 .18-.08.36-.22.47l-3.79 3.04c-.11.09-.25.13-.38.13-.09 0-.18-.02-.26-.06-.21-.1-.34-.32-.34-.55l.03-2.39h-6.43c-1.44 0-2.61-1.17-2.61-2.6v-5.4h-2.89c-1.44 0-2.61-1.17-2.61-2.6z"/></svg>