<svg height="32" viewBox="0 0 32 32" width="32" xmlns="http://www.w3.org/2000/svg"><g fill="none" fill-rule="evenodd"><path d="m15.3534323 13.499297v5.0844346h1.2931354v-5.0844346z" fill="#252d4f" fill-rule="nonzero"/><path d="m23.487756 16.6v1.9753679h1.2v-2.5753679c0-.3313708-.2686292-.6-.6-.6h-16.02193976c-.33137085 0-.6.2686292-.6.6v2.5753679h1.2v-1.9753679z" fill="#252d4f" fill-rule="nonzero"/><path d="m4.81487664 27.8444001v-4.9031854l3.23067434-3.2313965h3.27120482v8.1345819z" fill="#8bc6da" transform="matrix(-1 0 0 1 16.131632 0)"/><path d="m11.3162902 22.9404926h-3.25047396v-3.2306744h.00796501z" fill="#45889f"/><path d="m11.3167558 26.1704035-3.2306743-3.2299109h3.2299495l.0007248.0007221z" fill="#78b7cc"/><path d="m12.8258465 27.8444001v-4.9031854l3.2306743-3.2313965h3.2712049v8.1345819z" fill="#8bc6da" transform="matrix(-1 0 0 1 32.153572 0)"/><path d="m19.3272601 22.9404926h-3.250474v-3.2306744h.007965z" fill="#45889f"/><path d="m19.3277257 26.1704035-3.2306743-3.2299109h3.2299495l.0007248.0007221z" fill="#78b7cc"/><path d="m12.8258465 12.4012878v-4.90318539l3.2306743-3.23139649h3.2712049v8.13458188z" fill="#8bc6da" transform="matrix(-1 0 0 1 32.153572 0)"/><path d="m19.3272601 7.49738025h-3.250474v-3.23067433h.007965z" fill="#45889f"/><path d="m19.3277257 10.7272912-3.2306743-3.22991095h3.2299495l.0007248.00072216z" fill="#78b7cc"/><path d="m20.8368164 27.8444001v-4.9031854l3.2306743-3.2313965h3.2712049v8.1345819z" fill="#8bc6da" transform="matrix(-1 0 0 1 48.175512 0)"/><path d="m27.33823 22.9404926h-3.250474v-3.2306744h.007965z" fill="#45889f"/><path d="m27.3386956 26.1704035-3.2306744-3.2299109h3.2299496l.0007248.0007221z" fill="#78b7cc"/></g></svg>