<svg height="32" viewBox="0 0 32 32" width="32" xmlns="http://www.w3.org/2000/svg"><path d="m7.17423529 19.1098182c.15915313 0 .3117858.0632325.42431148.1757834l3.23067433 3.2313965c.1124928.1125179.1756885.26511.1756885.4242166v4.9031854c0 .3313709-.2686291.6-.6.6h-6.50187916c-.33137085 0-.6-.2686291-.6-.6v-8.1345819c0-.3313708.26862915-.6.6-.6zm9.01096991 0c.1591531 0 .3117858.0632325.4243114.1757834l3.2306744 3.2313965c.1124928.1125179.1756885.26511.1756885.4242166v4.9031854c0 .3313709-.2686292.6-.6.6h-6.5018792c-.3313708 0-.6-.2686291-.6-.6v-8.1345819c0-.3313708.2686292-.6.6-.6zm9.0109698 0c.1591532 0 .3117858.0632325.4243115.1757834l3.2306743 3.2313965c.1124929.1125179.1756886.26511.1756886.4242166v4.9031854c0 .3313709-.2686292.6-.6.6h-6.5018792c-.3313709 0-.6-.2686291-.6-.6v-8.1345819c0-.3313708.2686291-.6.6-.6zm-.6202652 1.2061428h-2.0553513v6.9345819h5.3018791v-3.7100503h-2.6465278c-.3313709 0-.6-.2686292-.6-.6zm-9.0109699 0h-2.0553513v6.9345819h5.3018792v-3.7100503h-2.6465279c-.3313708 0-.6-.2686292-.6-.6zm-9.01096987 0h-2.05535131v6.9345819h5.30187919v-3.7100503h-2.64652788c-.33137085 0-.6-.2686292-.6-.6zm9.75612447-7.6253238c.2981922.0049764.54194.2266641.5836768.5124876l.0062279.0974406-.0239688 1.3897543 8.2998794.000234c.2982337 0 .5456467.2175896.592147.5026769l.007853.0973231v2.111106c0 .3313709-.2686292.6-.6.6-.2982338 0-.5456468-.2175896-.592147-.5026768l-.007853-.0973232v-1.511106l-7.7198794-.000234-.0246394 1.5213518c-.0049764.2981922-.2266641.54194-.5124876.5836768l-.0974406.0062279c-.2981923-.0049764-.5419401-.2266641-.5836768-.5124876l-.006228-.0974406.0244724-1.5013283-7.90206037.000234v1.511106c0 .3313709-.26862915.6-.6.6-.29823376 0-.54564675-.2175896-.59214701-.5026768l-.00785299-.0973232v-2.111106c0-.2982338.21758962-.5456467.50267689-.592147l.09732311-.007853 8.52206037-.000234.0241359-1.4097777c.0049764-.2981923.2266641-.5419401.5124876-.5836768zm-.1248893-10.27031751c.1591531 0 .3117858.06323252.4243114.17578335l3.2306744 3.23139649c.1124928.11251797.1756885.26511.1756885.42421665v4.90318542c0 .3313708-.2686292.6-.6.6h-6.5018792c-.3313708 0-.6-.2686292-.6-.6v-8.13458191c0-.33137085.2686292-.6.6-.6zm-.6202653 1.20614276h-2.0553513v6.93458195h5.3018792v-3.71005037h-2.6465279c-.3313708 0-.6-.26862915-.6-.6z" fill-rule="evenodd"/></svg>