<svg height="32" viewBox="0 0 32 32" width="32" xmlns="http://www.w3.org/2000/svg"><path d="m9.55780967 13.3180578c-.90209158-.2774307-1.55780967-1.1173571-1.55780967-2.1104346 0-1.21923663.98838657-2.2076232 2.2076232-2.2076232 1.2192366 0 2.2076232.98838657 2.2076232 2.2076232 0 1.0013117-.666637 1.8469219-1.5802993 2.1172193v4.3019071c0 .8194964.6704971 1.4899936 1.5006364 1.4899936h6.8646134l.0319285-2.5649176c0-.2447847.1383565-.4576409.3618556-.564069.223499-.1064281.4789265-.0744997.6704971.0744997l3.9378403 3.1502722c.1596421.1277137.2447846.3086415.2447846.5002121s-.0851425.3831412-.2341418.5002122l-4.0336256 3.2354147c-.1170709.0957853-.2660703.1383565-.4044268.1383565-.0957853 0-.1915706-.0212856-.2767131-.0638568-.2234991-.1064282-.3618556-.34057-.3618556-.5853547l.0319284-2.5436319h-6.832685c-1.5325649 0-2.77777383-1.245209-2.77777383-2.767131z"/></svg>