<svg height="32" viewBox="0 0 32 32" width="32" xmlns="http://www.w3.org/2000/svg"><g fill="none" fill-rule="evenodd"><path d="m7.58853241 24.3244476v-18.47485651h19.46215069v18.12945431c0 .9425802-.7641123 1.7066924-1.7066925 1.7066924h-19.07790971c.6653587-.0149485 1.32245152-.6223154 1.32245152-1.3612902z" fill="#c8e2a6"/><path d="m7.58853241 24.3244476v-15.35777187h-2.69354645v15.35777187c0 .7518406.67338661 1.3612902 1.34677322 1.3612902s1.34677323-.6132094 1.34677323-1.3612902z" fill="#257843"/><g fill-rule="nonzero"><g fill="#81b272"><path d="m10.4716218 19.6798804v-.9327273h6.1867602v.9327273z"/><path d="m10.4716218 22.8912858v-.9327273h6.1867602v.9327273z"/><path d="m10.4716218 16.4684751v-.9327273h6.1867602v.9327273z"/><path d="m18.2537222 19.6832417v-.9327273h6.1867601v.9327273z"/><path d="m18.2537222 22.8912858v-.9327273h6.1867601v.9327273z"/><path d="m18.2537222 16.4751976v-.9327273h6.1867601v.9327273z"/><path d="m18.2537222 13.2671534v-.9327272h6.1867601v.9327272z"/><path d="m18.2537222 10.0591093v-.93272723h6.1867601v.93272723z"/></g><path d="m16.7952345 9.12638207-.0005015 3.51900003-1.4376328-1.0547395-2.004554 1.846888-1.8223218-.5383917-1.0594914 1.0972432.0008888-4.87000003zm-4.4490565 1.06209633c-.4762552 0-.8695911.3537896-.9284851.8149797l-.0075397.1082228c0 .5193014.4103123.9296137.9232026.9360248.5128903 0 .9296136-.4103122.9360248-.9232025 0-.5128903-.4103123-.9296137-.9232026-.9360248z" fill="#469055"/></g></g></svg>