<svg height="32" viewBox="0 0 32 32" width="32" xmlns="http://www.w3.org/2000/svg"><path d="m26.675 5.59h-17.46c-.33 0-.6.27-.6.6v4.74h-3.29c-.33 0-.6.27-.6.6v12.32c0 1.41 1.13 2.55 2.53 2.56h17.48c1.4 0 2.54-1.15 2.54-2.56v-17.66c0-.34-.26-.6-.6-.6zm-18.07 6.53v11.72h.01c0 .75-.59 1.35-1.32 1.36h-.03c-.74 0-1.34-.61-1.34-1.36v-11.72zm14.64 9.33c.33 0 .6.27.6.6s-.27.6-.6.6h-10.32c-.33 0-.6-.27-.6-.6s.27-.6.6-.6zm0-3.92c.33 0 .6.27.6.6s-.27.6-.6.6h-10.32c-.33 0-.6-.27-.6-.6s.27-.6.6-.6zm0-7.89c.33 0 .6.27.6.6v3.85c0 .33-.27.6-.6.6h-10.32c-.34 0-.6-.27-.6-.6v-3.85c0-.33.27-.6.6-.6z"/></svg>