<svg height="32" viewBox="0 0 32 32" width="32" xmlns="http://www.w3.org/2000/svg"><g fill="none"><path d="m8.54447998 20.9829268 12.37024062-12.55764192c-3.4025693-2.09225954-7.9946925-1.61583629-11.02156555 1.41186017-1.79016486 1.79065185-2.7734423 4.26106535-2.69550131 6.75703005.05359243 1.5863548.52166857 3.0936716 1.34682624 4.3887517zm14.98027282-10.0562189-12.4373195 12.625737c1.3069908.8530315 2.8323864 1.3386407 4.4275216 1.3905349l.0291595.0003132c2.49565.0837113 4.9596607-.8997377 6.7574678-2.6980339 3.1217484-3.112136 3.5356013-7.8928068 1.2231706-11.3185512zm.9656085 13.5116143c-2.3955514 2.396203-5.6821445 3.7103428-9.0334714 3.6026199l-.0270846-.0002594c-2.9894631-.0933305-5.80808626-1.3123221-7.91240326-3.4172115-2.10379188-2.1043642-3.31445955-4.9195111-3.41611137-7.9285909-.1048347-3.3569848 1.20777841-6.6548304 3.60124621-9.04894933 4.72316302-4.72444781 12.33148722-4.81363871 16.97275362-.17110977 4.6370967 4.6383581 4.5429144 12.2502187-.1849292 16.963501z" fill="#b75c64"/><path d="m7.43031593 24.535437 17.15230127-17.15230134c.0311811.03019321.0619079.06091995.0926734.09168546 4.6370966 4.63835818 4.5429143 12.25021878-.1849187 16.96351158-2.395562 2.3961925-5.6821551 3.7103323-9.033482 3.6026094l-.0270846-.0002594c-2.9894631-.0933305-5.80808626-1.3123221-7.91240334-3.4172114-.02920461-.0292046-.05839167-.0583917-.08708603-.0880355zm16.09443687-13.6087291-12.4373195 12.625737c1.3069908.8530315 2.8323864 1.3386407 4.4275216 1.3905349l.0291595.0003132c2.49565.0837113 4.9596607-.8997377 6.7574757-2.698026 3.1217405-3.1121439 3.5355934-7.8928147 1.2231627-11.3185591z" fill="#933b43"/></g></svg>