<svg height="32" viewBox="0 0 32 32" width="32" xmlns="http://www.w3.org/2000/svg"><g fill="none" fill-rule="evenodd"><path d="m23.8189623 25.7905142 1.9481957-9.1655399-7.3365864-11.26849677-7.1586986-1.52162836c-1.2351686-.2625432-2.44930395.52592551-2.71184715 1.76109414l-3.44733381 16.21843039c-.26254319 1.2351687.52592551 2.449304 1.76109415 2.7118472l14.23332901 3.0253875c1.2351686.2625432 2.4493039-.5259255 2.7118471-1.7610942z" fill="#fada80"/><path d="m17.2734057 14.1710973 8.4926964 2.4522576-1.0881381 5.119287z" fill="#f7ce5b"/><path d="m16.9170889 12.404924 1.4988545-7.05155579 7.3501587 11.26998669-7.087919-1.5065837c-1.2351687-.2625432-2.0236374-1.4766785-1.7610942-2.7118472z" fill="#d2a000"/><g fill="#af8c1d" fill-rule="nonzero"><path d="m9.42752083 16.4919738.17453242-.8211104 10.55153205 2.2427974-.1745324.8211104z"/><path d="m8.68950649 19.9640583.17453241-.8211104 7.7757353 1.6527835-.1745325.8211105z"/><path d="m10.1655352 13.0198893.1745324-.8211104 4.5591108.9690689-.1745324.8211105z"/><path d="m10.9035495 9.54780485.1745324-.82111045 6.3197765 1.3433099-.1745324.8211105z"/></g></g></svg>