<svg height="32" viewBox="0 0 32 32" width="32" xmlns="http://www.w3.org/2000/svg"><path d="m5.55723123.03852228 6.61616877 1.40507772-.8541 4.0158-5.39560821-1.14603257-.08803864-.01206533-.08666476.00089012c-.25683317.021389-.48026498.20803029-.53660871.4731067-.06260414.29452933.10262504.58449917.37659678.68652579l.0853347.02478631 5.39568884 1.14638898-.2834802 1.3351251c-.3245495 1.52688528.6501362 3.0277697 2.1770215 3.3523192l6.5592587 1.3938557-1.8344068 8.6394153c-.200537.943452-1.1279232 1.5457037-2.0713752 1.3451668l-14.23332897-3.0253875c-.943452-.2005369-1.54570367-1.1279232-1.34516675-2.0713752l3.4473338-16.21843037c.20053691-.943452 1.12792315-1.54570367 2.07137515-1.34516675zm-1.9356211 14.67903332-.08666476.0008901c-.25683317.021389-.48026499.2080303-.53660871.4731067-.06260415.2945293.10262504.5844992.37659677.6865258l.08533471.0247863 6.95462476 1.4782511.0880387.0120654c.2917836.0182284.5606693-.1794675.6232734-.4739968.0626042-.2945294-.102625-.5844992-.3765967-.6865258l-.0853347-.0247863-6.95462484-1.4782512zm.73801434-3.4720845-.08666476.0008901c-.25683317.021389-.48026498.2080303-.53660871.4731067-.06260415.2945293.10262504.5844992.37659677.6865258l.08533471.0247863 9.73042162 2.068265.0880387.0120653c.2917836.0182284.5606693-.1794675.6232734-.4739968.0626042-.2945293-.102625-.5844992-.3765967-.6865258l-.0853348-.0247863-9.7304216-2.068265zm9.45660133-9.29078203 5.9256 9.08550003-5.8081155-1.23405143c-.943452-.20053692-1.5457036-1.12792316-1.3451667-2.07137515zm-8.71858699 5.81869752-.08666476.00089013c-.25683317.021389-.48026498.20803029-.53660871.47310669-.06260414.29452934.10262504.58449917.37659678.6865258l.0853347.0247863 3.7380004.79453652.08803864.01206533c.2917836.01822839.56066932-.17946748.62327347-.47399681.06260414-.29452934-.10262504-.58449918-.37659678-.6865258l-.0853347-.02478631-3.73800041-.79453651z" transform="translate(5.608878 4.324527)"/></svg>