<svg height="32" viewBox="0 0 32 32" width="32" xmlns="http://www.w3.org/2000/svg"><path d="m18.1259458 25.3086729c0 1.26436-1.0344763 2.2988363-2.2988363 2.2988363s-2.2988363-1.0344763-2.2988363-2.2988363zm-2.3210458-20.68952657c.9198 0 1.7241.8043 1.7241 1.7241v.8043c3.3327.8043 5.74665 3.67814997 5.74665 7.24184997v5.481c0 .53865.21315 1.0542.5943 1.4343l1.50675 1.50675c.12705.12705.19845.29925.19845.4788v.294c0 .31815-.25725.5754-.57435.5754h-18.3918c-.3171 0-.57435-.25725-.57435-.5754v-.294c0-.17955.0714-.35175.19845-.4788l1.5057-1.50675c.38115-.3801.59535-.89565.59535-1.4343v-5.481c0-3.5637 2.41395-6.43754997 5.7456-7.24184997v-.8043c0-.9198.80535-1.7241 1.72515-1.7241zm0 3.58359526c-.5754.0224365-1.0514.07915474-1.428.17015474-2.86125.68985-4.7838 3.10799997-4.7838 6.01649997v5.481c0 .87885-.34125 1.70415-.96285 2.32575l-.7035.7035h15.75525l-.70245-.7035c-.6216-.6216-.9639-1.4469-.9639-2.32575v-5.481c0-2.9085-1.9215-5.32664997-4.78275-6.01649997-.56595-.1365-1.20225-.17015474-1.428-.17015474z" fill-rule="evenodd"/></svg>