<svg height="32" viewBox="0 0 32 32" width="32" xmlns="http://www.w3.org/2000/svg"><path d="m18.1156655 25.3060149c0 1.26436-1.0344764 2.2988363-2.2988363 2.2988363-1.26436 0-2.2988363-1.0344763-2.2988363-2.2988363zm-2.2988363-20.68952659c.9195345 0 1.7241272.8045927 1.7241272 1.72412721v.8045927c3.3333126.8045927 5.7470907 3.67813808 5.7470907 7.24133428v5.4816153c0 .5379611.2137042 1.0538887.5941002 1.4342847l1.5067027 1.5067027c.1267987.1267987.1980334.2987745.1980334.4780949v.2946476c0 .317403-.257306.574709-.5747091.574709h-18.39069026c-.31740306 0-.57470908-.257306-.57470908-.574709v-.2946476c0-.1793204.07123475-.3512962.1980334-.4780949l1.50670269-1.5067027c.38039597-.380396.5941002-.8963236.5941002-1.4342847v-5.4816153c0-3.5631962 2.41377815-6.43674158 5.74709075-7.24133428v-.8045927c0-.91953451.8045927-1.72412721 1.7241272-1.72412721z"/></svg>