<svg height="32" viewBox="0 0 32 32" width="32" xmlns="http://www.w3.org/2000/svg"><path d="m24.4401832 9.62565109c2.1866793 0 3.8865421 1.43869471 3.8865421 3.38651041 0 1.1288829-.5357204 2.0988307-1.4644762 2.7158229l-.0732491.0450156.094444.042585c1.1743062.5634044 1.8895991 1.5606373 1.9550594 2.8727812l.0049214.1991685c0 2.1667816-1.8791673 3.7865358-4.2949014 3.7865358-2.1204648 0-3.8908078-1.2361492-4.2210825-2.9533646l-.0441448-.262362c-.0595171-.3259821.1564954-.638491.4824776-.6980082.2933839-.0535654.5758545.1160483.6728028.3881476l.0252053.09433.0197816.1124637c.1568427 1.1910312 1.4324826 2.1187935 3.06496 2.1187935 1.7893071 0 3.0949014-1.1253611 3.0949014-2.5865358 0-1.4208818-1.1145661-2.3255522-3.1036532-2.3883592l-.2245964-.0034975h-.5588362c-.7619048 0-.798186-1.0884354-.1088436-1.1920959l.1088436-.0079041h.5588362c.6255159 0 1.226094-.1780107 1.7621299-.491799.6762456-.3958653 1.0494202-1.0252594 1.0494202-1.7917175 0-1.2365819-1.1223702-2.1865104-2.6865421-2.1865104-1.2951552 0-2.3675016.757521-2.6343991 1.7740167l-.0325861.1469215-.0374042.2406295c-.050898.3274386-.3576005.551619-.685039.5007209-.2946948-.0458082-.5057504-.298818-.5079099-.5876646l.0071889-.0973744.0399208-.2555737c.3090998-1.7037877 1.9384937-2.92167591 3.8502286-2.92167591zm-17.53340787.04237107c.29823376 0 .54564675.21758961.59214701.50267684l.00785299.0973232v11.4673952c0 .3313708-.26862915.6-.6.6-.29823377 0-.54564676-.2175896-.59214702-.5026769l-.00785298-.0973231-.00077533-10.3884174-2.22852189 1.4114542c-.25199395.1595068-.57742191.1079794-.76918808-.1080362l-.05868754-.0780336c-.15950681-.2519939-.10797941-.5774219.10803624-.769188l.07803353-.0586876 3.13353241-1.98345933c.07200156-.04557545.15259853-.07511559.23632953-.08703719zm7.33766317-.34209268c2.1900482 0 3.9202109 1.60656632 3.9202109 3.68686282 0 .8836464-.2604775 1.6148334-.9166175 2.53209l-.158502.2151317-.2782881.3530357-.2125604.2550612-.1167741.1362395-.3659764.4138856-.411282.4483883-3.5546489 3.7683757 6.0668986.0004174c.2982338.0000164.5456348.2176197.5921193.5027095l.0078476.0973236c0 .2982337-.2176197.5456347-.5027095.5921193l-.0973236.0078476-7.3752063-.0008937-.1119527-.0131508-.1133939-.0312265c-.0614987-.0208977-.1013672-.0472301-.1589893-.110644l-.1046712-.1268877-.0715527-.0917195-.0428374-.1533413-.0073406-.0942089c0-.1861639.0478498-.3107315.1531267-.4452567l.070134-.0824825 4.3717645-4.6361442.3982611-.4341266.3541644-.4006163.2967799-.3523808.2647773-.3358509c.6182233-.8165258.8247532-1.3462313.8247532-2.0136947 0-1.3968686-1.1738497-2.4868628-2.7202109-2.4868628-1.4210612 0-2.479631.8719575-2.7382937 2.1445613l-.0291664.1682252-.0235021.213118c-.0363225.3293741-.3327781.5669394-.6621523.5306169-.2964367-.0326902-.5185082-.2760883-.5334791-.5645548l.0028622-.0975975.0260008-.2327873c.2836839-1.9719335 1.8763732-3.36158182 3.9577306-3.36158182z"/></svg>