<svg height="32" viewBox="0 0 32 32" width="32" xmlns="http://www.w3.org/2000/svg"><path d="m24.4401832 9.32565109c2.3605027 0 4.1865421 1.57722451 4.1865421 3.68651041 0 .9923196-.3823475 1.882933-1.0772432 2.5482896l-.165877.1494889-.0266051.02006.0464557.0267978c.9265355.5660113 1.5155271 1.4202763 1.6876547 2.4749822l.030475.2290444.0168264.2201311.005013.2065792c0 2.3291188-2.006998 4.0865358-4.5949014 4.0865358-2.1787918 0-4.024908-1.2383644-4.474181-3.0115842l-.0427429-.1920024-.0434248-.2582574c-.0892757-.4889732.2347431-.9577365.7237163-1.0470122.3992521-.0728946.7909623.1303149.9723998.5007367l.0441173.1050881.030838.1198041.0454223.2601149c.2152412.978603 1.3371469 1.7231124 2.743855 1.7231124 1.6195902 0 2.7949014-.991396 2.7949014-2.2865358 0-1.2028516-.9128124-1.965574-2.585809-2.077504l-.2225154-.0108915-.2199252-.0034612h-.5588362c-1.078192 0-1.2141865-1.5095371-.2470674-1.7672807l.1164954-.0240273.130572-.008692h.5588362c.5573397 0 1.1066952-.1557381 1.6105721-.450701.5878902-.3441432.900978-.8769868.900978-1.5328155 0-1.0694856-.9922004-1.8865104-2.3865421-1.8865104-1.0832033 0-2.0023186.5866149-2.296233 1.3942349l-.0452834.1447409-.0290288.1280419-.0374042.2406295c-.076347.4911579-.5364007.8274285-1.0275586.7510815-.4010359-.0623383-.7042269-.3829723-.7538779-.7924435l-.0071381-.1137492.0099688-.1215853.0411449-.2628264c.3347812-1.8453461 2.0857688-3.16812431 4.1454103-3.16812431zm-17.53340787.04237107c.40585199 0 .75469401.27025952.86665002.66724534l.0245251.111303.00882488.1214517v11.4673952c0 .4970563-.40294373.9-.9.9-.405852 0-.75469401-.2702595-.86665003-.6672454l-.0245251-.111303-.00882487-.1214292-.00077533-9.8444398-1.76807042 1.1209405c-.30608313.1937442-.68894445.1812725-.98592275-.019585l-.09558878-.0739053-.0878883-.0877131-.0724136-.0979012c-.21527123-.3400924-.17595515-.7749726.09349034-1.0815115l.08771307-.0878883.09790124-.0724136 3.13353241-1.98345938c.08077572-.05112931.16894354-.08891495.27147896-.11322028l.10758296-.01980683zm7.33766317-.34209268c2.3591476 0 4.2202109 1.74349652 4.2202109 3.98686282 0 .875324-.2396994 1.6127896-.8109941 2.4723808l-.164098.2376572-.1644249.2229024-.2834284.3593773-.2152435.2582358-.1198129.1397301-.3696342.4179471-.4141342.4514544-3.0788792 3.2625226 5.3729152.0004174c.3652668.0000201.6843434.2189479.826106.5521405l.0405072.1151526.024519.1113044.0088181.1214356c0 .4058563-.2702906.7546926-.667291.8666292l-.1113065.0245195-.1214719.0088182-7.4101698-.0029423-.1566023-.0218688-.1302662-.0364114c-.0852441-.0289666-.1525843-.0679138-.2224396-.1314779l-.0714499-.0723118-.1097857-.1332627-.0715526-.0917194-.0524008-.1038103-.05299378-.2107542-.00824712-.1175136c0-.2069955.04665128-.3737642.1532895-.5397654l.0712881-.0998244.0804191-.0939668 4.3689613-4.6331304.3945661-.4300237.3494655-.3951709.2906506-.3448596.2611897-.3312077c.5729011-.7566659.7639312-1.2277937.7639312-1.8326038 0-1.2311059-1.0405155-2.1868628-2.4202109-2.1868628-1.197597 0-2.1148759.6811834-2.4025623 1.7275974l-.0401412.1682124-.0265643.1498605-.0235021.2131181c-.0544837.4940611-.4991672.8504091-.9932284.7959253-.4034065-.0444865-.7205226-.3513551-.78828927-.7582207l-.01217709-.1133206.00458724-.1221041.02720379-.2422049c.30719283-2.1353478 2.04024603-3.61886342 4.25467363-3.61886342z"/></svg>