<svg height="32" viewBox="0 0 32 32" width="32" xmlns="http://www.w3.org/2000/svg"><g fill="none"><path d="m11.7592837 15.0273348h8.4482112c2.9674342 0 5.3857347-2.4183004 5.3857347-5.38573463 0-2.96743419-2.4183005-5.38573465-5.3857347-5.38573465h-8.4482112c-2.96743418 0-5.38573464 2.41830046-5.38573464 5.38573465 0 2.96743423 2.41830046 5.38573463 5.38573464 5.38573463z" fill="#17b3c4"/><path d="m20.2074949 16.9281824h-8.4482112c-2.96743418 0-5.38573464 2.4183004-5.38573464 5.3857346s2.41830046 5.3857347 5.38573464 5.3857347h8.4482112c2.9674342 0 5.3857347-2.4183005 5.3857347-5.3857347s-2.4183005-5.3857346-5.3857347-5.3857346z" fill="#a4a4a4"/><g fill="#fff"><circle cx="20.207495" cy="9.6416" r="2.904073"/><circle cx="11.759284" cy="22.313917" r="2.904073"/></g></g></svg>