<svg height="32" viewBox="0 0 32 32" width="32" xmlns="http://www.w3.org/2000/svg"><path d="m20.2074949 16.9281824c2.9674342 0 5.3857347 2.4183004 5.3857347 5.3857346 0 2.8950578-2.3017732 5.2674421-5.1696125 5.381446l-.2161222.0042887h-8.4482112c-2.96743418 0-5.38573464-2.4183005-5.38573464-5.3857347 0-2.8950577 2.30177319-5.2674421 5.16961244-5.3814459l.2161222-.0042887zm-8.4482112 2.481662c-1.603875 0-2.90407259 1.3001976-2.90407259 2.9040726s1.30019759 2.9040726 2.90407259 2.9040726 2.9040726-1.3001976 2.9040726-2.9040726-1.3001976-2.9040726-2.9040726-2.9040726zm8.4482112-15.15397888c2.9674342 0 5.3857347 2.41830046 5.3857347 5.38573465 0 2.89505773-2.3017732 5.26744213-5.1696125 5.38144593l-.2161222.0042887h-8.4482112c-2.96743418 0-5.38573464-2.4183004-5.38573464-5.38573463 0-2.89505775 2.30177319-5.26744211 5.16961244-5.38144595l.2161222-.0042887zm0 2.48166204c-1.603875 0-2.9040726 1.3001976-2.9040726 2.90407261 0 1.60387503 1.3001976 2.90407263 2.9040726 2.90407263 1.6038751 0 2.9040727-1.3001976 2.9040727-2.90407263 0-1.60387501-1.3001976-2.90407261-2.9040727-2.90407261z"/></svg>