<svg height="32" viewBox="0 0 32 32" width="32" xmlns="http://www.w3.org/2000/svg"><path d="m12 15.1h8c2.81 0 5.1-2.29 5.1-5.1s-2.29-5.1-5.1-5.1h-8c-2.81 0-5.1 2.29-5.1 5.1s2.29 5.1 5.1 5.1zm0 4.4c1.3807119 0 2.5 1.1192881 2.5 2.5s-1.1192881 2.5-2.5 2.5-2.5-1.1192881-2.5-2.5 1.1192881-2.5 2.5-2.5zm8-13.4c2.15 0 3.9 1.75 3.9 3.9s-1.75 3.9-3.9 3.9h-8c-2.15 0-3.9-1.75-3.9-3.9s1.75-3.9 3.9-3.9zm0 10.8h-8c-2.81 0-5.1 2.29-5.1 5.1s2.29 5.1 5.1 5.1h8c2.81 0 5.1-2.29 5.1-5.1s-2.29-5.1-5.1-5.1zm0 1.2c2.15 0 3.9 1.75 3.9 3.9s-1.75 3.9-3.9 3.9h-8c-2.15 0-3.9-1.75-3.9-3.9s1.75-3.9 3.9-3.9zm0-10.6c1.3807119 0 2.5 1.11928813 2.5 2.5 0 1.3807119-1.1192881 2.5-2.5 2.5s-2.5-1.1192881-2.5-2.5c0-1.38071187 1.1192881-2.5 2.5-2.5z"/></svg>