<svg height="32" viewBox="0 0 32 32" width="32" xmlns="http://www.w3.org/2000/svg"><path d="m23.9387193 22.8883402c1.7470554 0 3.286169 1.1487435 3.783152 2.8236198l.1555673.5242753h-7.8774386l.1555673-.5242753c.496983-1.6748763 2.0360965-2.8236198 3.783152-2.8236198zm-16.00000001 0c1.74705546 0 3.28616901 1.1487435 3.78315201 2.8236198l.1555673.5242753h-7.8774386l.15556726-.5242753c.49698306-1.6748763 2.03609657-2.8236198 3.78315203-2.8236198zm15.94381621-5.7809793c1.3642642 0 2.4702188 1.1059546 2.4702188 2.4702188s-1.1059546 2.4702188-2.4702188 2.4702188-2.4702188-1.1059546-2.4702188-2.4702188 1.1059546-2.4702188 2.4702188-2.4702188zm-15.99999999 0c1.36426419 0 2.47021879 1.1059546 2.47021879 2.4702188s-1.1059546 2.4702188-2.47021879 2.4702188c-1.36426418 0-2.47021882-1.1059546-2.47021882-2.4702188s1.10595464-2.4702188 2.47021882-2.4702188zm8.11583789-2.0807989c.2993005 0 .5573343.1956924.6460234.4835097l.0231153.0992091.0068782.0933424-.0013903 3.1496202 2.7408805 1.58313c.2612799.15085.3837648.4497786.3226513.729577l-.0316113.1037011-.0436007.0901781c-.1478027.2560018-.4407942.3816974-.7308673.3201151l-.1083513-.0319834-.0842379-.0406925-2.7418633-1.5830254-2.7338636 1.5794911c-.2612799.1508501-.5814022.1074608-.7931579-.0853643l-.0740022-.0792267-.0562961-.0828483c-.1478027-.2560018-.1101626-.5725878.0882058-.7930072l.0818741-.0778433.0773268-.0525869 2.7349131-1.5806144.0013565-3.1486645c0-.3054713.2026092-.5636207.4807743-.647395l.0953458-.0212921zm-.0596541-5.48181796c1.7470554 0 3.286169 1.14874356 3.783152 2.82361986l.1555673.5242752h-7.8774386l.1555673-.5242752c.496983-1.6748763 2.0360965-2.82361986 3.783152-2.82361986zm-.0561838-5.78097929c1.3642642 0 2.4702188 1.10595464 2.4702188 2.47021882 0 1.36426419-1.1059546 2.47021883-2.4702188 2.47021883s-2.4702188-1.10595464-2.4702188-2.47021883c0-1.36426418 1.1059546-2.47021882 2.4702188-2.47021882z"/></svg>