<svg height="32" viewBox="0 0 32 32" width="32" xmlns="http://www.w3.org/2000/svg"><path d="m7.09 19.4049224c1.72229999 0 3.1185 1.3962 3.1185 3.1185s-1.39620001 3.1185-3.1185 3.1185-3.1185-1.3962-3.1185-3.1185 1.39620001-3.1185 3.1185-3.1185zm17.82 0c1.7223 0 3.1185 1.3962 3.1185 3.1185s-1.3962 3.1185-3.1185 3.1185-3.1185-1.3962-3.1185-3.1185 1.3962-3.1185 3.1185-3.1185zm-8.9124603-8.1470398c.3578805 0 .6547761.2611075.7105764.6032122l.0094236.1167878-.0010932 4.9391791 4.295968 2.4813972c.3443707.1988225.4623608.6391676.2635383.9835383-.1789403.3099336-.5535138.436499-.8776854.3137711l-.1058529-.0502328-4.298368-2.4816738-4.286461 2.4763278c-.3443707.1988225-.7847158.0808324-.9835383-.2635383-.1789402-.3099336-.1012623-.6976065.167109-.9169834l.0964293-.0665549 4.288861-2.4772512.0010932-4.9379791c0-.397645.3223549-.72.72-.72zm.0024603-7.2613826c1.7223 0 3.1185 1.39620001 3.1185 3.1185s-1.3962 3.1185-3.1185 3.1185-3.1185-1.39620001-3.1185-3.1185 1.3962-3.1185 3.1185-3.1185z"/></svg>