<svg height="32" viewBox="0 0 32 32" width="32" xmlns="http://www.w3.org/2000/svg"><g fill="none"><g fill="#4588a0"><path d="m16 10.2335c-1.7223 0-3.1185-1.39620001-3.1185-3.1185s1.3962-3.1185 3.1185-3.1185 3.1185 1.39620001 3.1185 3.1185-1.3962 3.1185-3.1185 3.1185z"/><path d="m7.09 25.6419224c-1.72229999 0-3.1185-1.3962-3.1185-3.1185s1.39620001-3.1185 3.1185-3.1185 3.1185 1.3962 3.1185 3.1185-1.39620001 3.1185-3.1185 3.1185z"/><path d="m24.91 25.6419224c-1.7223 0-3.1185-1.3962-3.1185-3.1185s1.3962-3.1185 3.1185-3.1185 3.1185 1.3962 3.1185 3.1185-1.3962 3.1185-3.1185 3.1185z"/></g><path d="m15.9975397 11.2578826c.3578805 0 .6547761.2611075.7105764.6032122l.0094236.1167878-.0010932 4.9391791 4.295968 2.4813972c.3443707.1988225.4623608.6391676.2635383.9835383-.1789403.3099336-.5535138.436499-.8776854.3137711l-.1058529-.0502328-4.298368-2.4816738-4.286461 2.4763278c-.3443707.1988225-.7847158.0808324-.9835383-.2635383-.1789402-.3099336-.1012623-.6976065.167109-.9169834l.0964293-.0665549 4.288861-2.4772512.0010932-4.9379791c0-.397645.3223549-.72.72-.72z" fill="#85cfe8" stroke="#85cfe8" stroke-width=".3"/></g></svg>