<svg height="32" viewBox="0 0 32 32" width="32" xmlns="http://www.w3.org/2000/svg"><g fill="none" fill-rule="evenodd"><path d="m15.9983734 14.9627973c.2366072 0 .4328951.1726272.4697866.3988044l.0062303.0772124-.0007228 3.2654621 2.840213 1.6405375c.2276754.1314484.3056827.4225758.1742343.6502512-.1183036.2049078-.3659471.2885845-.5802682.2074449l-.069983-.0332107-2.8417997-1.6407203-2.8339275 1.6371859c-.2276754.1314484-.5188027.0534411-.6502512-.1742343-.1183036-.2049078-.066948-.4612118.1104815-.6062494l.0637528-.0440017 2.8355143-1.6377965.0007227-3.2646687c0-.2628968.21312-.4760168.4760169-.4760168z" fill="#85cfe8" fill-rule="nonzero" stroke="#85cfe8" stroke-width=".8"/><g fill="#4588a0"><circle cx="15.882536" cy="5.970219" r="2.470219"/><path d="m15.9387193 9.28097929c1.7470554 0 3.286169 1.14874351 3.783152 2.82361981l.1555673.5242753h-7.8774386l.1555673-.5242753c.496983-1.6748763 2.0360965-2.82361981 3.783152-2.82361981z"/><circle cx="23.882536" cy="19.313815" r="2.470219"/><path d="m23.9387193 22.6245754c1.7470554 0 3.286169 1.1487436 3.783152 2.8236198l.1555673.5242753h-7.8774386l.1555673-.5242753c.496983-1.6748762 2.0360965-2.8236198 3.783152-2.8236198z"/><circle cx="7.882536" cy="19.313815" r="2.470219"/><path d="m7.93871929 22.6245754c1.74705546 0 3.28616901 1.1487436 3.78315201 2.8236198l.1555673.5242753h-7.8774386l.15556726-.5242753c.49698306-1.6748762 2.03609657-2.8236198 3.78315203-2.8236198z"/></g></g></svg>