<svg height="32" viewBox="0 0 32 32" width="32" xmlns="http://www.w3.org/2000/svg"><g fill="none"><path d="m21.4249836 20.7971396c.3233333-.0075.59.1433333.7466667.4033333l2.2575 3.7633334h1.6116666c.46 0 .8333334.3733333.8333334.8333333s-.3733334.8333333-.8333334.8333333h-2.0833333c-.2925 0-.5641667-.1533333-.7141667-.4041666l-1.7191666-2.865-1.8208334 3.6425c-.1333333.2658333-.3975.4408333-.6941666.4591666l-.0516667.0008334c-.3588889-.0922223-.59-.2158334-.6933333-.3708334l-1.4191667-2.1291666h-1.6375c-.46 0-.8333333-.3733334-.8333333-.8333334s.3733333-.8333333.8333333-.8333333h2.0833333c.2783334 0 .5383334.1391667.6933334.3708333l.87 1.305 1.8575-3.7158333c.1366666-.2716667.4091666-.4483333.7133333-.46z" fill="#ec4800"/><g fill="#2289a3"><path d="m16 17.9597449c1.6962597 0 3.3023983.4978604 4.6570365 1.3731331-.5897564.204641-1.086479.6322642-1.3747117 1.2052145l-.7503248 1.4999075-.0146145-.0087941c-.3670296-.2143894-.7889696-.3320663-1.2265686-.3320663h-2.0833333c-1.3436556 0-2.4333333 1.0896777-2.4333333 2.4333333l.0051769.1599661c.0453519.698476.3855574 1.3167222.8973599 1.7314821l-5.56842564-.0006311c-.45251443 0-.77756449-.4355097-.64883818-.8693286l.31169933-1.0504539c1.08100669-3.643087 4.42879079-6.1417626 8.22887739-6.1417626z"/><path d="m15.880243 5.97871c2.9750437 0 5.3867931 2.41174939 5.3867931 5.386793 0 2.9750437-2.4117494 5.3867931-5.3867931 5.3867931-2.9750436 0-5.386793-2.4117494-5.386793-5.3867931 0-2.97504361 2.4117494-5.386793 5.386793-5.386793z"/></g></g></svg>