<svg height="32" viewBox="0 0 32 32" width="32" xmlns="http://www.w3.org/2000/svg"><path d="m21.5224454 22.136c.2272457-.004397.4120194.0966511.5245196.2833536l2.3300669 3.8843059h1.7532304c.3219288 0 .5833333.2614045.5833333.5833333s-.2614045.5833334-.5833333.5833334h-2.0833333c-.2049346 0-.3949376-.1074489-.499605-.282476l-1.9537017-3.2558543-2.024477 4.0498807c-.0933648.1861456-.2784128.308599-.4859697.3214256l-.0402784.0003898c-.238489-.0704741-.419947-.1675279-.481289-.2595409l-1.4933688-2.2404916h-1.7713104c-.3219288 0-.5833334-.2614045-.5833334-.5833333s.2614046-.5833334.5833334-.5833334h2.0833333c.1947592 0 .3768773.0974268.485551.2598532l1.1087565 1.6631353 2.0501427-4.1012051c.0821216-.1632403.2342027-.2772002.4097718-.3115606zm-5.654523-4.9330094c1.867643 0 3.5123146.5494876 4.91296 1.7703421.2497979.2177331.2757915.5967417.0580584.8465396-.217733.2497978-.5967417.2757914-.8465395.0580584-1.1695266-1.0194027-2.5329957-1.4749401-4.1244789-1.4749401-3.140713 0-5.91798907 2.0077526-6.91434828 4.9652977l-.08100773.2558052-.28676338.9664176c-.00287276.0096815.00100571.0193881.00843189.0247834l.01339963.0043175 3.12295157.0005806c.3313708.0000616.59995.2687407.5998884.6001116-.0000554.2982337-.217691.5456063-.5027869.5920535l-.0973246.0078349-3.12284002-.0005806c-.77445335 0-1.34224-.7061217-1.20213381-1.4468106l.02999154-.1236531.28676338-.9664176c1.07009019-3.6062973 4.38406681-6.0797401 8.14577831-6.0797401zm-.1101764-11.12255215c2.7370402 0 4.9558496 2.21880944 4.9558496 4.95584955 0 2.7370402-2.2188094 4.9558496-4.9558496 4.9558496-2.7370401 0-4.9558495-2.2188094-4.9558495-4.9558496 0-2.73704011 2.2188094-4.95584955 4.9558495-4.95584955zm0 1.2c-2.0742984 0-3.7558495 1.68155114-3.7558495 3.75584955 0 2.0742985 1.6815511 3.7558496 3.7558495 3.7558496 2.0742985 0 3.7558496-1.6815511 3.7558496-3.7558496 0-2.07429841-1.6815511-3.75584955-3.7558496-3.75584955z"/></svg>