<svg height="32" viewBox="0 0 32 32" width="32" xmlns="http://www.w3.org/2000/svg"><path d="m13.8417824 5.13732853.1403476.06440774 2.061001 1.05604195c.0107842.00570928.0262302.00761237.0420086.00472501l.0233758-.00804693 2.0322123-1.04493187c.8126399-.41784677 1.7970777-.18839713 2.3595372.54104977l.0947563.13388622.0862778.15207197 1.0264969 2.03891582c.0104927.0198195.0235783.03345729.0369045.04125993l.0198757.00737092 2.2639563.3460825c.9099669.13910321 1.5754521.91234654 1.594477 1.83968164l-.0028838.1559004-.0189222.1657101-.367599 2.2632196c-.0027999.017733-.0005005.0337637.0068038.0476795l.0146984.019236 1.6355425 1.6210686c.6969496.690782.7403912 1.7916387.1253235 2.535076l-.1153781.1273283-1.6323166 1.6323345c-.0138223.0138224-.0214917.0278819-.0239393.0428842l.0001287.0232986.3680176 2.2658337c.1475801.9086306-.383438 1.7797193-1.2599489 2.0831021l-.149227.0452164-.1634951.0329736-2.2610453.3456302c-.016417.0025922-.0306788.0097962-.0413368.0204673l-.013103.0184639-1.0434478 2.0651571c-.4120817.8155784-1.3434944 1.2083064-2.2265698.948798l-.1552195-.0526129-.1551985-.0702744-2.0530259-1.0519643c-.0107842-.0057093-.0262301-.0076124-.0420085-.004725l-.0233758.0080469-2.0322124 1.0449319c-.8126399.4178467-1.7970776.1883971-2.3595372-.5410498l-.0947563-.1338862-.0862778-.152072-1.0264968-2.0389158c-.0104927-.0198195-.0235784-.0334573-.0372817-.041318l-.0207712-.0075088-2.28968178-.3550456c-.90966619-.1410558-1.57349036-.9157256-1.59058458-1.8425623l.00320794-.1557992.01869627-.1623162.36804343-2.2659565c.00279995-.017733.00050059-.0337637-.00708339-.0479573l-.01536261-.0198957-1.62423837-1.6170196c-.6453312-.642463-.73149359-1.6450119-.21672185-2.4033356l.1035721-.1391762.11610911-.1268899 1.63161457-1.6171671c.01382235-.0138224.02149175-.0278819.02402854-.0423401l.00008325-.0220064-.37468476-2.2625196c-.15039733-.90816847.37791674-1.78089984 1.25424735-2.08715958l.14922078-.04570713.16825849-.03418288 2.25707411-.34502312c.0164171-.00259217.0306789-.00979615.0415612-.02090984l.013636-.01951505 1.0531501-2.06998469c.4475878-.87974168 1.4921798-1.25654215 2.3894869-.88807478zm2.0969369 11.78639227c-1.8823283 0-3.5486154 1.1934864-4.1631345 2.9567004l-.0639092.1982255-.1738205.5857905h8.8017284l-.1738205-.5857905c-.555296-1.8713959-2.2749996-3.1549259-4.2270437-3.1549259zm-.062776-6.4592836c-1.5243385 0-2.7600591 1.2357205-2.7600591 2.760059s1.2357206 2.760059 2.7600591 2.760059 2.760059-1.2357205 2.760059-2.760059-1.2357205-2.760059-2.760059-2.760059z"/></svg>