<svg height="32" viewBox="0 0 32 32" width="32" xmlns="http://www.w3.org/2000/svg"><path d="m13.8417824 5.13732853.1403476.06440774 2.061001 1.05604195c.0107842.00570928.0262302.00761237.0420086.00472501l.0233758-.00804693 2.0322123-1.04493187c.8126399-.41784677 1.7970777-.18839713 2.3595372.54104977l.0947563.13388622.0862778.15207197 1.0264969 2.03891582c.0104927.0198195.0235783.03345729.0369045.04125993l.0198757.00737092 2.2639563.3460825c.9099669.13910321 1.5754521.91234654 1.594477 1.83968164l-.0028838.1559004-.0189222.1657101-.367599 2.2632196c-.0027999.017733-.0005005.0337637.0068038.0476795l.0146984.019236 1.6355425 1.6210686c.6969496.690782.7403912 1.7916387.1253235 2.535076l-.1153781.1273283-1.6323166 1.6323345c-.0138223.0138224-.0214917.0278819-.0239393.0428842l.0001287.0232986.3680176 2.2658337c.1475801.9086306-.383438 1.7797193-1.2599489 2.0831021l-.149227.0452164-.1634951.0329736-2.2610453.3456302c-.016417.0025922-.0306788.0097962-.0413368.0204673l-.013103.0184639-1.0434478 2.0651571c-.4120817.8155784-1.3434944 1.2083064-2.2265698.948798l-.1552195-.0526129-.1551985-.0702744-2.0530259-1.0519643c-.0107842-.0057093-.0262301-.0076124-.0420085-.004725l-.0233758.0080469-2.0322124 1.0449319c-.8126399.4178467-1.7970776.1883971-2.3595372-.5410498l-.0947563-.1338862-.0862778-.152072-1.0264968-2.0389158c-.0104927-.0198195-.0235784-.0334573-.0372817-.041318l-.0207712-.0075088-2.28968178-.3550456c-.90966619-.1410558-1.57349036-.9157256-1.59058458-1.8425623l.00320794-.1557992.01869627-.1623162.36804343-2.2659565c.00279995-.017733.00050059-.0337637-.00708339-.0479573l-.01536261-.0198957-1.62423837-1.6170196c-.6453312-.642463-.73149359-1.6450119-.21672185-2.4033356l.1035721-.1391762.11610911-.1268899 1.63161457-1.6171671c.01382235-.0138224.02149175-.0278819.02402854-.0423401l.00008325-.0220064-.37468476-2.2625196c-.15039733-.90816847.37791674-1.78089984 1.25424735-2.08715958l.14922078-.04570713.16825849-.03418288 2.25707411-.34502312c.0164171-.00259217.0306789-.00979615.0415612-.02090984l.013636-.01951505 1.0531501-2.06998469c.4475878-.87974168 1.4921798-1.25654215 2.3894869-.88807478zm-1.2677173 1.34584303-.052236.08638044-1.0450257 2.05338857c-.1562001.33192533-.4585146.57435006-.8132929.66983382l-.1353182.02880637-2.22822714.33974276-.10503491.02100195c-.30314657.08044302-.50886005.35831993-.50507975.66605133l.00917284.1034529.37540461 2.26697c.05691631.3604699-.0407769.7216189-.26999306 1.0042219l-.09207611.1021396-1.61118587 1.5957037-.07268105.0789351c-.19433065.2393493-.20033957.5778446-.02496388.823648l.07425475.0874567 1.60919092 1.6025514c.27139546.25201.40884394.6158863.39013376.9843337l-.01437964.1381726-.36431958 2.2381736-.01196426.1012473c-.01835976.3131004.18127832.5953737.47476709.687987l.10113524.0236287 2.29132004.355302c.3565248.0562934.666408.2607457.8682162.5651055l.0704921.1187239 1.0165557 2.0208925.0535217.0950344c.1700616.2617685.4962242.3711064.7868065.2736106l.09528-.0402338 2.0258458-1.0416099c.3214706-.1701904.70401-.1914642 1.0359685-.0663108l.1388456.0625949 2.0170473 1.0344274.096689.0441409c.2914126.1119035.6195821.0087453.7974369-.2408767l.0534611-.0885379 1.0360807-2.0500547c.1562002-.3319253.4585147-.57435.813293-.6698338l.1353182-.0288064 2.2331204-.3405412.1020707-.0202672c.3033946-.0795025.5099688-.3567401.5071429-.6644817l-.0088519-.1034809-.3684363-2.2684479c-.0569163-.3604699.0407769-.7216189.2686642-1.0028989l.0915128-.1015789 1.6304352-1.6304447c.238387-.2405155.2606728-.6139714.0679286-.879351l-.0722107-.0841264-1.6214388-1.607538c-.2713955-.25201-.408844-.6158863-.3901338-.9843338l.0143797-.1381725.3638039-2.2347885.0121162-.1033556c.0176877-.3131391-.1825557-.59498337-.4762426-.68696651l-.1011857-.02341164-2.2668674-.34653482c-.3565248-.05629339-.666408-.26074573-.8682162-.56510556l-.0704921-.11872386-1.0165556-2.02089255-.0535218-.09503439c-.1700616-.26176843-.4962242-.3711064-.7868064-.27361056l-.0952801.04023375-2.0258457 1.04160996c-.3214707.17019035-.70401.19146414-1.0359677.06631117l-.1388452-.06259464-2.0508199-1.05077034c-.3048698-.15510918-.6715731-.05884189-.8639162.21190165zm3.3646542 10.29780774c1.7470554 0 3.286169 1.1487435 3.783152 2.8236198l.1555673.5242753h-7.8774386l.1555673-.5242753c.496983-1.6748763 2.0360965-2.8236198 3.783152-2.8236198zm-.0561838-5.7809793c1.3642642 0 2.4702188 1.1059546 2.4702188 2.4702188s-1.1059546 2.4702188-2.4702188 2.4702188-2.4702188-1.1059546-2.4702188-2.4702188 1.1059546-2.4702188 2.4702188-2.4702188z"/></svg>