<svg fill="none" height="32" viewBox="0 0 33 32" width="33" xmlns="http://www.w3.org/2000/svg"><path d="m24.1406 24.4694-8.0359 1.0055v-11.5903l8.0359 4.0219z" fill="#312707"/><path d="m8.06836 24.4694 8.03594 1.0055v-11.5903l-8.03594 4.0219z" fill="#4e3c00"/><path d="m8.06836 17.9079 8.03594 4.0219v6.5629l-8.03594-4.0219z" fill="#bb961e"/><path d="m24.1387 17.9079-8.036 4.0219v6.5629l8.036-4.0219z" fill="#bb961e"/><path d="m24.1387 17.9079-8.036 4.0219 4.018 4.552 4.018-2.011z" fill="#866e21"/><path d="m12.9618 11.1197-8.03595 4.0219 3.14174 2.7663 8.03591-4.0218z" fill="#645012"/><path d="m8.06831 17.9079 8.03589 4.0219-3.6444.75-8.03597-4.0219z" fill="#866e21"/><path d="m24.1387 17.908-8.0359 4.0218 3.6445.75 8.0359-4.0219z" fill="#bb961e"/><path d="m19.2453 11.1197 8.0359 4.0219-3.1418 2.7663-8.0359-4.0218z" fill="#645012"/><g clip-rule="evenodd" fill-rule="evenodd"><path d="m19.0678 13.5603v1.6659h-1.5829c-.2799 0-.5122.2444-.5122.538 0 .2941.2323.5391.5122.5391h1.5829v1.6653c0 .2936.2329.5386.5122.5386.2794 0 .5123-.245.5123-.5386v-1.6653h1.5828c.2794 0 .5123-.245.5123-.5391.0465-.2936-.1859-.538-.5123-.538h-1.5828v-1.6659c0-.2942-.2329-.5385-.5123-.5385-.2793 0-.5122.2443-.5122.5385z" fill="#f7d776"/><path d="m15.6743 7.12847v1.46488h-1.3918c-.2461 0-.4505.2149-.4505.47307 0 .25865.2044.47403.4505.47403h1.3918v1.46435c0 .2582.2048.4736.4505.4736.2456 0 .4505-.2154.4505-.4736v-1.46435h1.3918c.2456 0 .4504-.21538.4504-.47403.0409-.25817-.1634-.47307-.4504-.47307h-1.3918v-1.46488c0-.25865-.2049-.47355-.4505-.47355-.2457 0-.4505.2149-.4505.47355z" fill="#9373b3"/><path d="m12.9102 17.7332c0 .6026.4925 1.0963 1.0944 1.0963.6031 0 1.0957-.4937 1.0957-1.0963 0-.6032-.4926-1.0963-1.0957-1.0963-.6019 0-1.0944.4931-1.0944 1.0963z" fill="#a5dab7"/><path d="m17.9121 5.54865c0 .60808.4971 1.10627 1.1044 1.10627.6087 0 1.1057-.49819 1.1057-1.10627 0-.6087-.497-1.10628-1.1057-1.10628-.6073 0-1.1044.49758-1.1044 1.10628z" fill="#cd8b49"/></g></svg>