<svg fill="none" height="32" viewBox="0 0 33 32" width="33" xmlns="http://www.w3.org/2000/svg"><g clip-rule="evenodd" fill="#000" fill-rule="evenodd"><path d="m13.2137 11.1197-8.0359 4.0219 3.14174 2.7663 8.03596-4.0218 8.0359 4.0218 3.1417-2.7663-8.0359-4.0219-3.1417 2.7664zm3.1418 10.8098-8.03519-4.0216v.0001l-.00005-.0001-3.64448.75 3.64453 1.824v3.9889l8.03439 4.0211v.0008l.0008-.0004.0007.0004v-.0008l8.0344-4.0211v-3.9889l3.6446-1.824-3.6445-.7499h-.0001v-.0001z"/><path d="m18.3496 4.89069c0 .60808.4971 1.10628 1.1044 1.10628.6087 0 1.1057-.4982 1.1057-1.10628 0-.6087-.497-1.10628-1.1057-1.10628-.6073 0-1.1044.49758-1.1044 1.10628z"/><path d="m15.9472 6.05625v1.70517h-1.6201c-.2865 0-.5244.25015-.5244.55067 0 .30108.2379.55179.5244.55179h1.6201v1.70462c0 .3005.2384.5512.5244.5512.2859 0 .5243-.2507.5243-.5512v-1.70462h1.6202c.2859 0 .5243-.25071.5243-.55179.0476-.30052-.1902-.55067-.5243-.55067h-1.6202v-1.70517c0-.30108-.2384-.55123-.5243-.55123-.286 0-.5244.25015-.5244.55123z"/></g></svg>