<svg fill="none" height="32" viewBox="0 0 33 32" width="33" xmlns="http://www.w3.org/2000/svg"><g fill="#fff" stroke="#000" stroke-linejoin="round" stroke-width="1.2"><path d="m8.32031 17.9079 8.03589 4.0219v6.5629l-8.03589-4.0219z"/><path d="m24.3906 17.9079-8.0359 4.0219v6.5629l8.0359-4.0219z"/><path d="m13.2137 11.1197-8.0359 4.0219 3.14174 2.7663 8.03596-4.0218z"/><path d="m8.32026 17.9079 8.03594 4.0219-3.6445.75-8.03592-4.0219z"/><path d="m24.3907 17.908-8.0359 4.0218 3.6444.75 8.036-4.0219z"/><path d="m19.4972 11.1197 8.0359 4.0219-3.1417 2.7663-8.0359-4.0218z"/></g><path clip-rule="evenodd" d="m15.9472 6.05625v1.70517h-1.6201c-.2865 0-.5244.25015-.5244.55067 0 .30108.2379.55179.5244.55179h1.6201v1.70462c0 .3005.2384.5512.5244.5512.2859 0 .5243-.2507.5243-.5512v-1.70462h1.6202c.2859 0 .5243-.25071.5243-.55179.0476-.30052-.1902-.55067-.5243-.55067h-1.6202v-1.70517c0-.30108-.2384-.55123-.5243-.55123-.286 0-.5244.25015-.5244.55123z" fill="#000" fill-rule="evenodd"/><path clip-rule="evenodd" d="m18.4688 5.117c0 .60808.497 1.10627 1.1043 1.10627.6087 0 1.1057-.49819 1.1057-1.10627 0-.6087-.497-1.10628-1.1057-1.10628-.6073 0-1.1043.49758-1.1043 1.10628z" fill="#000" fill-rule="evenodd"/></svg>