<svg height="32" viewBox="0 0 32 32" width="32" xmlns="http://www.w3.org/2000/svg"><path d="m19.076 24.4c.33 0 .6.27.6.6s-.27.6-.6.6h-3c-.33 0-.6-.27-.6-.6s.27-.6.6-.6zm-13.33-1.67c.33 0 .6.27.6.6v1.07h.73c.33 0 .6.27.6.6s-.27.6-.6.6h-1.33c-.33 0-.6-.27-.6-.6v-1.67c0-.33.27-.6.6-.6zm7.33 1.67c.33 0 .6.27.6.6s-.27.6-.6.6h-3c-.33 0-.6-.27-.6-.6s.27-.6.6-.6zm7.67-4.33c.33 0 .6.27.6.6v3c0 .33-.27.6-.6.6s-.6-.27-.6-.6v-3c0-.33.27-.6.6-.6zm-15-3.34c.33 0 .6.27.6.6v3c0 .33-.27.6-.6.6s-.6-.27-.6-.6v-3c0-.33.27-.6.6-.6zm19.19-4.18c.28.02.52.2.62.46l1.25 3.19c.08.21.06.44-.06.62-.1.19-.29.32-.51.35l-3.38.52c-.04.01-.07.01-.11.01-.23 0-.45-.11-.59-.31-.16-.23-.17-.53-.03-.77l.78-1.36c-3.12-1.64-7.03-.53-8.81 2.54-.11.19-.31.3-.52.3-.1 0-.21-.02-.3-.08-.29-.17-.39-.53-.22-.82 2.12-3.64 6.76-4.94 10.45-2.98l.75-1.31c.14-.24.4-.38.68-.36zm-19.19-1.82c.33 0 .6.27.6.6v3c0 .33-.27.6-.6.6s-.6-.27-.6-.6v-3c0-.33.27-.6.6-.6zm15-2.66c.33 0 .6.27.6.6v2.2c0 .33-.27.6-.6.6s-.6-.26-.6-.6v-2.2c0-.33.27-.6.6-.6zm-13.33-1.67c.33 0 .6.27.6.6s-.27.6-.6.6h-1.07v.73c0 .33-.27.6-.6.6s-.6-.27-.6-.6v-1.33c0-.33.27-.6.6-.6zm6 0c.33 0 .6.27.6.6s-.27.6-.6.6h-3c-.33 0-.6-.27-.6-.6s.27-.6.6-.6zm6 0c.33 0 .6.27.6.6s-.27.6-.6.6h-3c-.33 0-.6-.27-.6-.6s.27-.6.6-.6z"/></svg>