<svg height="32" viewBox="0 0 32 32" width="32" xmlns="http://www.w3.org/2000/svg"><g fill="none" fill-rule="evenodd"><path d="m8.473033 9.040354h11.587583v14.174189h-11.587583z" fill="#d2eff8"/><g fill-rule="nonzero"><g fill="#7c969d"><path d="m11.416 7.6h3c.33 0 .6-.27.6-.6s-.27-.6-.6-.6h-3c-.33 0-.6.27-.6.6s.27.6.6.6z"/><path d="m6.746 14.93c.33 0 .6-.27.6-.6v-3c0-.33-.27-.6-.6-.6s-.6.27-.6.6v3c0 .33.27.6.6.6z"/><path d="m6.746 20.93c.33 0 .6-.27.6-.6v-3c0-.33-.27-.6-.6-.6s-.6.27-.6.6v3c0 .33.27.6.6.6z"/><path d="m21.746 11.47c.33 0 .6-.27.6-.6v-2.2c0-.33-.27-.6-.6-.6s-.6.27-.6.6v2.2c0 .34.27.6.6.6z"/><path d="m17.416 7.6h3c.33 0 .6-.27.6-.6s-.27-.6-.6-.6h-3c-.33 0-.6.27-.6.6s.27.6.6.6z"/><path d="m20.076 24.4h-3c-.33 0-.6.27-.6.6s.27.6.6.6h3c.33 0 .6-.27.6-.6s-.27-.6-.6-.6z"/><path d="m8.076 24.4h-.73v-1.07c0-.33-.27-.6-.6-.6s-.6.27-.6.6v1.67c0 .33.27.6.6.6h1.33c.33 0 .6-.27.6-.6s-.27-.6-.6-.6z"/><path d="m21.746 20.07c-.33 0-.6.27-.6.6v3c0 .33.27.6.6.6s.6-.27.6-.6v-3c0-.33-.27-.6-.6-.6z"/><path d="m14.076 24.4h-3c-.33 0-.6.27-.6.6s.27.6.6.6h3c.33 0 .6-.27.6-.6s-.27-.6-.6-.6z"/><path d="m8.416 6.4h-1.67c-.33 0-.6.27-.6.6v1.33c0 .33.27.6.6.6s.6-.27.6-.6v-.73h1.07c.33 0 .6-.27.6-.6s-.27-.6-.6-.6z"/></g><path d="m27.806 16.2-1.25-3.19c-.1-.26-.34-.44-.62-.46s-.54.12-.68.36l-.75 1.31c-3.69-1.96-8.33-.66-10.45 2.98-.17.29-.07.65.22.82.09.06.2.08.3.08.21 0 .41-.11.52-.3 1.78-3.07 5.69-4.18 8.81-2.54l-.78 1.36c-.14.24-.13.54.03.77.14.2.36.31.59.31.04 0 .07 0 .11-.01l3.38-.52c.22-.03.41-.16.51-.35.12-.18.14-.41.06-.62z" fill="#252d4f"/></g></g></svg>