<svg height="32" viewBox="0 0 32 32" width="32" xmlns="http://www.w3.org/2000/svg"><path d="m10.115 9.795v11.79l.0065507.1454288c.0693679.7664818.6815387 1.3786526 1.4480205 1.4480205l.1454288.0065507 9.17-.001v2.751c0 .297-.2187.5454-.50301.59211l-.09699.00789h-12.86c-.297 0-.5454-.2187-.59211-.50301l-.00789-.09699v-15.54c0-.297.2187-.5454.50301-.59211l.09699-.00789zm1-3.73c0-.297.2187-.5454.50301-.59211l.09699-.00789h7.64c.06 0 .12.01.18.03s.1155556.04888889.1666667.08666667l.0733333.06333333 5.23 5.3.01.00625.01.01375.02.02c.01 0 .01.01.02.02l.01.00625.04.06375.01.02c.01.01.02.02.02.03l.00875.01.01125.05v.02l.01.04-.00125.08-.00875.03v10.25c0 .297-.2187.5454-.50301.59211l-.09699.00789h-1.981l-.044-.02h-10.825l-.09699-.00789c-.22113-.03633-.40257-.19467-.47229-.40299l-.02283-.09213-.00789-.09699zm8.83 1.45v3.24h3.19z"/></svg>