<svg height="32" viewBox="0 0 32 32" width="32" xmlns="http://www.w3.org/2000/svg"><path d="m25.175 11.295v-.05l-.01-.04v-.02l-.01-.04c0-.01 0-.01-.01-.02 0-.01-.01-.02-.02-.03l-.01-.02-.02-.03-.01-.02c-.01-.01-.01-.02-.02-.02-.01-.01-.01-.02-.02-.02l-.02-.02c-.01-.01-.01-.02-.02-.02l-5.23-5.3c-.07-.07-.15-.12-.24-.15-.06-.02-.12-.03-.18-.03h-7.64c-.33 0-.6.27-.6.6v3.73h-3.69c-.33 0-.6.27-.6.6v15.54c0 .33.27.6.6.6h12.86c.33 0 .6-.27.6-.6v-3.73h3.68c.33 0 .6-.27.6-.6v-10.25c.01-.02.01-.04.01-.06zm-5.23-3.78 3.19 3.24h-3.19zm-.26 17.8h-11.66v-14.34h3.09v10.61c0 .33.27.6.6.6h7.98v3.13zm.61-4.33h-7.98v-14.34h6.44v4.7c0 .33.27.6.6.6h4.63v9.03h-3.69z"/></svg>