<svg height="32" viewBox="0 0 32 32" width="32" xmlns="http://www.w3.org/2000/svg"><g fill="none" fill-rule="evenodd"><path d="m7.67847665 7.305h5.00408765c.3974017 0 .7550219.24122987.9038742.60970117l.4565764 1.13021598c.1488523.3684713.5064725.60970117.9038742.60970117h9.5788508c.5383902 0 .9748417.43645148.9748417.97484168v11.0906984c0 .5383901-.4364515.9748416-.9748417.9748416h-16.84726325c-.53839017 0-.97484164-.4364515-.97484164-.9748416v-13.44031676c0-.53839017.43645147-.97484164.97484164-.97484164z" fill="#b18c00"/><path d="m7.67847665 13.0042366h16.84726325c.5383902 0 .9748417.4364515.9748417.9748417v8.7410801c0 .5383901-.4364515.9748416-.9748417.9748416h-16.84726325c-.53839017 0-.97484164-.4364515-.97484164-.9748416v-8.7410801c0-.5383902.43645147-.9748417.97484164-.9748417z" fill="#fac200"/></g></svg>