<svg height="32" viewBox="0 0 32 32" width="32" xmlns="http://www.w3.org/2000/svg"><path d="m6.70363501 14.9790783.00655847-.1136871c.05198015-.4475322.40706393-.8026159.85459604-.8545961l.11368713-.0065585h16.84726325l.1136872.0065585c.4475321.0519802.8026158.4070639.854596.8545961l.0065585.1136871v8.7479652c0 .5383902-.4364515.9748417-.9748417.9748417h-16.84726325c-.53839017 0-.97484164-.4364515-.97484164-.9748417zm5.97892929-6.6740783c.3974017 0 .7550219.24122987.9038742.60970117l.4565764 1.13021593c.1488523.3684713.5064725.6097012.9038742.6097012h9.5788508c.5383902 0 .9749301.4364515.9749301.9748417v1.405008c-.2345942-.1178439-.493455-.1944856-.7670859-.2204286l-.2078442-.0098028h-16.84726325l-.15531831.0054607c-.29371356.0207251-.57132514.0997726-.82132427.2256319l.00180094-3.75548756c0-.53839017.43645147-.97484164.97484164-.97484164z" fill-rule="evenodd"/></svg>