<svg height="32" viewBox="0 0 32 32" width="32" xmlns="http://www.w3.org/2000/svg"><path d="m22.8649499 10.005h-8.32c-.03 0-.05-.02-.05-.05 0-.91-.74-1.65-1.65-1.65h-3.69999999c-.91 0-1.65.75-1.65 1.66l.02 1.69v10.39c0 .91.74 1.65 1.65 1.65h13.68999999c.91 0 1.6501002-.74 1.6501002-1.65v-10.39c.0098998-.91-.7301002-1.65-1.6401002-1.65zm-13.71999999-.5h3.69999999c.25 0 .45.2.45.45 0 .69.56 1.25 1.25 1.25h8.32c.25 0 .45.2.45.45v1.42c-.14-.04-.3-.06-.45-.06h-13.69999999c-.16 0-.31.02-.45.06v-1.43l-.02-1.69c0-.24.21-.45.45-.45zm14.16999999 12.54c0 .25-.2.45-.45.45h-13.69999999c-.25 0-.45-.2-.45-.45v-7.39c.01-.24.21-.44.45-.44h13.68999999c.25 0 .45.2.45.45v7.38z"/></svg>