<svg height="32" viewBox="0 0 32 32" width="32" xmlns="http://www.w3.org/2000/svg"><path d="m15.6090012 3.09305186c1.1589302 0 2.180023.73020636 2.6402806 1.81679646l.1471384.37385645c.1401633.32462407.3244584.62079566.5435925.87939304l3.8910725-.00127298c1.2633293 0 2.2974266.98145861 2.3814081 2.22349193l.0055067.16342283v17.13462441c0 1.2633292-.9814586 2.2974266-2.2234919 2.3814081l-.1634229.0055066h-14.44416804c-1.26332926 0-2.29742659-.9814586-2.38140808-2.2234919l-.00550908-.1634228v-17.13462441c0-1.26332926.981461-2.29742658 2.22349432-2.38140808l.16342284-.00550668 3.89129444.00108466c.2104224-.24803661.3884176-.53036601.5258817-.83883451l.1635092-.41112086c.46138-1.0897253 1.4824064-1.81990226 2.6413987-1.81990226zm-4.0774535 18.09569494h-1.61302023l-.06397899.0057806c-.1424306.0260339-.25606795.1372958-.28562902.2785027l-.00751824.072843v1.6427807l.00558469.063979c.0251941.1424306.13331274.2560679.27697048.285629l.07457108.0075183h1.61302023l.063979-.0057807c.1424306-.0260339.2560679-.1372958.285629-.2785027l.0075183-.0728429v-1.6427807l-.0057807-.063979c-.0260339-.1424306-.1372958-.256068-.2785027-.2856291zm2.928506-8.9482247-.0040013.1062732.0015626 8.7426098c.0222435.4852242.2794033.5932176.6070295.2593538l.0712242-.0783289 1.8102804-2.1363173 1.6554377 3.9213017.04272.08592c.1897869.3285114.5989617.4719525.9575562.3206049.3561042-.1502966.5387163-.5391303.4403879-.9021187l-.0338631-.0981574-1.6810133-3.982673 2.2590968.0004122.0705414-.0017116c.4881592-.0243637.6187002-.3059884.3146647-.6627014l-.0718302-.0775214-5.7526577-5.7502353c-.3603285-.3258451-.650101-.2169647-.6871358.2532894zm-2.928506 4.2538513h-1.61302023l-.06397899.0057806c-.1424306.0260339-.25606795.1372958-.28562902.2785027l-.00751824.072843v1.6427807l.00558469.063979c.0251941.1424306.13331274.2560679.27697048.285629l.07457108.0075182h1.61302023l.063979-.0057806c.1424306-.0260339.2560679-.1372958.285629-.2785027l.0075183-.0728429v-1.6427807l-.0057807-.063979c-.0260339-.1424306-.1372958-.256068-.2785027-.2856291zm0-4.6943734h-1.61302023l-.06397899.0057806c-.1424306.0260339-.25606795.1372958-.28562902.2785027l-.00751824.0728429v1.6427808l.00558469.063979c.0251941.1424306.13331274.2560679.27697048.285629l.07457108.0075182h1.61302023l.063979-.0057806c.1424306-.0260339.2560679-.1372958.285629-.2785027l.0075183-.0728429v-1.6427808l-.0057807-.0639789c-.0260339-.1424306-.1372958-.256068-.2785027-.2856291zm4.0774535-7.50694814c-.6488115 0-1.2378881.41382685-1.5238685 1.05939133l-.149057.37700454c-.1411796.33309383-.3177168.64522173-.524616.93087411l-.1008088.13401499-.1208353.14827182-.2001164.22038721-.1861085.18116276c-.1428639.13126145-.2943172.25313359-.4530395.36424228-.2112575.14785982-.4350803.27650939-.6696882.38387419-.0934644.04278414-.1890441.08233989-.2862186.11834397-.4621309.16625102-.8303071.53680075-1.0276119 1.01008524l-.0593341.16142717-.0107763.03686853h10.623l-.0097124-.03688066c-.1424081-.44438098-.4298819-.81520316-.8039079-1.03788846l-.1442026-.0764174-.3598905-.14612473c-.1471729-.06420766-.2902911-.13681221-.4288496-.21726706-.0987284-.05741085-.1928969-.11725524-.2846861-.18071498-.1529421-.10575195-.2990855-.22136871-.4378564-.34614718-.1581711-.14223669-.3066178-.29620285-.444348-.46079449l-.1357594-.17025569-.1331281-.18444419-.1202785-.18464211-.1253626-.2150841c-.0780323-.14231377-.149295-.28952905-.2133056-.44111556l-.1468243-.37172282c-.2849159-.64258809-.8740509-1.05644871-1.5228089-1.05644871z"/></svg>