<svg height="32" viewBox="0 0 32 32" width="32" xmlns="http://www.w3.org/2000/svg"><g fill="none" fill-rule="evenodd"><path d="m23.3003104 7.16363636c1.0404025 0 1.8996896.79867823 1.8996896 1.8146467v16.22525204c0 1.0144749-.8653323 1.8146467-1.9098333 1.8146467h-14.94396975c-1.04493719 0-1.90983331-.7973956-1.90983331-1.8146467v-16.22525204c0-1.01326281.8635698-1.8146467 1.90397922-1.8146467z" fill="#904b3e"/><path d="m23.3003104 6.16363636c1.0404025 0 1.8996896.79867823 1.8996896 1.8146467v16.22525204c0 1.0144749-.8653323 1.8146467-1.9098333 1.8146467h-14.94396975c-1.04493719 0-1.90983331-.7973956-1.90983331-1.8146467v-16.22525204c0-1.01326281.8635698-1.8146467 1.90397922-1.8146467z" fill="#c47161"/><path d="m8.34034286 8.15317656.00585409 15.99652604h14.94396975l.0101437-15.99652604z" fill="#fff"/><path d="m17.9944054 5.2892907c-.3326961-.9339542-1.1673749-1.59623884-2.1443263-1.59623884-.9770462 0-1.8116301.66228464-2.1443263 1.59623884-.4021738 1.10645097-1.2381795 1.97542279-2.2801536 2.35934398-.9152462.32913415-1.5755201 1.26648678-1.5755201 2.37129002h12c0-1.10480324-.6603687-2.04215587-1.5756149-2.37129002-1.0419741-.38392119-1.877885-1.25289301-2.2800588-2.35934398z" fill="#69b5cf"/><circle cx="15.850079" cy="6" fill="#38859f" r="1"/><g fill-rule="nonzero"><path d="m12.0715256 20.387285h-1.6130202l-.063979.0057806c-.1424306.0260339-.256068.1372958-.285629.2785027l-.0075183.0728429v1.6427808l.0055847.063979c.0251941.1424306.1333128.2560679.2769705.285629l.0745711.0075182h1.6130202l.063979-.0057806c.1424306-.0260339.256068-.1372958.285629-.2785027l.0075183-.0728429v-1.6427808l-.0057807-.063979c-.0260339-.1424306-.1372958-.2560679-.2785027-.285629z" fill="#c2c2c2"/><path d="m14.6937859 12.3897558-.0034701.0921684.0013552 7.5822675c.0192912.420824.2423201.5144842.5264629.2249317l.0617712-.0679329 1.5700151-1.8527796 1.4357237 3.4008562.03705.0745165c.164598.2849105.5194659.4093137.8304668.2780533.3088412-.1303488.4672165-.4675755.3819385-.7823871l-.0293687-.0851297-1.4579047-3.4540822 1.9592635.0003576.0611789-.0014845c.4233694-.0211301.5365847-.2653767.2729016-.5747459l-.0622967-.0672326-4.9891498-4.9870488c-.3125048-.2825982-.5638179-.1881686-.5959374.2196721z" fill="#fff"/><g fill="#c2c2c2"><path d="m12.0715256 16.0936425h-1.6130202l-.063979.0057806c-.1424306.0260339-.256068.1372958-.285629.2785027l-.0075183.0728429v1.6427808l.0055847.063979c.0251941.1424306.1333128.2560679.2769705.285629l.0745711.0075182h1.6130202l.063979-.0057806c.1424306-.0260339.256068-.1372958.285629-.2785027l.0075183-.0728429v-1.6427808l-.0057807-.063979c-.0260339-.1424306-.1372958-.2560679-.2785027-.285629z"/><path d="m12.0715256 11.8h-1.6130202l-.063979.0057806c-.1424306.0260339-.256068.1372958-.285629.2785027l-.0075183.0728429v1.6427808l.0055847.063979c.0251941.1424306.1333128.2560679.2769705.285629l.0745711.0075182h1.6130202l.063979-.0057806c.1424306-.0260339.256068-.1372958.285629-.2785027l.0075183-.0728429v-1.6427808l-.0057807-.0639789c-.0260339-.1424306-.1372958-.256068-.2785027-.2856291z"/></g></g></g></svg>