<svg height="32" viewBox="0 0 32 32" width="32" xmlns="http://www.w3.org/2000/svg"><path d="m5.95706327 13.1251367c.29823377 0 .54564676.2175896.59214702.5026769l.00785298.0973231-.001 8.618338 7.74300003.005.0001953-6.2870319c0-.3313708.2686291-.6.6-.6h9.4832164c1.4359403 0 2.6 1.1640597 2.6 2.6l-.0004117 4.8800319.0019802.0149388v3.5974457c0 .3313708-.2686291.6-.6.6-.2982337 0-.5456467-.2175896-.592147-.5026769l-.007853-.0973231-.000057-2.997856-19.22792323-.0125285.001 2.9935579c0 .3313708-.26862915.6-.6.6-.29823376 0-.54564675-.2175897-.59214701-.5026769l-.00785299-.0973231v-12.8118959c0-.3313708.26862915-.6.6-.6zm18.42541173 3.5363061-8.883475-.0004428v5.685h10.283l.000475-4.2845572c0-.7277164-.5552289-1.3257521-1.2651707-1.3935912zm-13.8351625-1.5678096c1.3898219 0 2.516495 1.1266732 2.516495 2.516495 0 1.334229-1.038342 2.4259401-2.3510347 2.5111423l-.1654603.0053527c-1.38982176 0-2.51649494-1.1266732-2.51649494-2.516495 0-1.3342289 1.038342-2.4259401 2.35103474-2.5111422zm0 1.2c-.72708006 0-1.31649494.5894149-1.31649494 1.316495s.58941488 1.316495 1.31649494 1.316495c.7270802 0 1.316495-.5894149 1.316495-1.316495s-.5894148-1.316495-1.316495-1.316495zm1.0554843-7.19045086c1.0006717 0 1.8118764.81120469 1.8118764 1.81187636 0 .9506382-.7321122 1.7302823-1.6632744 1.8058701l-.148602.0060063c-1.0006717 0-1.81187639-.8112047-1.81187639-1.8118764 0-.95063808.73211219-1.73028222 1.66327439-1.80587004zm9.9613169.26482289c1.0338771 0 1.872.83812297 1.872 1.87199997v1.486h-9.1320031v-2.92599997c0-.23858701.1935003-.432.4320874-.432zm-13.26114393-1.65434544c.29823376 0 .54564675.21758962.59214701.50267689l.00785299.09732311v3.76546851c0 .3313709-.26862915.6-.6.6-.29823377 0-.54564675-.2175896-.59214701-.5026769l-.00785299-.0973231v-3.76546851c0-.33137085.26862915-.6.6-.6zm3.29982703 2.58952251c-.33793 0-.6118764.2739464-.6118764.6118764s.2739464.6118764.6118764.6118764.6118764-.2739464.6118764-.6118764-.2739464-.6118764-.6118764-.6118764zm9.9613169.2648229-6.0601137-.0000052v.958h6.732l.0001137-.2859948c0-.3373957-.2486484-.6167166-.5726967-.6647138zm-11.530979-6.7665305c.2982338 0 .5456468.21758962.5921471.50267689l.0078529.09732311v2.33443434c0 .33137085-.2686291.6-.6.6-.29823372 0-.54564671-.21758961-.59214697-.50267688l-.00785299-.09732312v-2.33443434c0-.33137085.26862915-.6.59999996-.6zm9.3025072 1.19205695c.718803 0 1.301508.58270498 1.301508 1.301508l-.000415 1.033492h-6.349l.0004505-2.034652c0-.16587762.1344704-.300348.300348-.300348zm-6.9256056-.18411811c.695717 0 1.259707.56399006 1.259707 1.25970706 0 .65223469-.4956944 1.18869375-1.1309093 1.25320334l-.1287977.00650372c-.695717 0-1.2597071-.56399006-1.2597071-1.25970706 0-.65223469.4956944-1.18869375 1.1309093-1.25320334z"/></svg>