<svg height="32" viewBox="0 0 32 32" width="32" xmlns="http://www.w3.org/2000/svg"><path d="m5.92830394 8.89700769c.46944203 0 .85.38055797.85.85v7.92891381l7.51999996-.0008349.0009547-5.740267c0-.3313709.2686291-.6.6-.6h9.4832164c1.4359403 0 2.6 1.1640596 2.6 2.6v8.3181727c0 .469442-.380558.85-.85.85-.4694421 0-.85-.380558-.85-.85v-2.8770708h-18.50417106v2.8770708c0 .469442-.38055797.85-.85.85-.46944204 0-.85-.380558-.85-.85v-12.50598461c0-.46944203.38055796-.85.85-.85zm4.61900856 2.07000231c1.3898219 0 2.516495 1.1266732 2.516495 2.516495s-1.1266731 2.516495-2.516495 2.516495c-1.38982176 0-2.51649494-1.1266732-2.51649494-2.516495s1.12667318-2.516495 2.51649494-2.516495z"/></svg>