<svg height="32" viewBox="0 0 32 32" width="32" xmlns="http://www.w3.org/2000/svg"><path d="m15.6090012 3.09305186c1.1589302 0 2.180023.73020636 2.6402806 1.81679646l.1471384.37385645c.1401633.32462407.3244584.62079566.5435925.87939304l3.8910725-.00127298c1.2633293 0 2.2974266.98145861 2.3814081 2.22349193l.0055067.16342283v17.13462441c0 1.2633292-.9814586 2.2974266-2.2234919 2.3814081l-.1634229.0055066h-14.44416804c-1.26332926 0-2.29742659-.9814586-2.38140808-2.2234919l-.00550908-.1634228v-17.13462441c0-1.26332926.981461-2.29742658 2.22349432-2.38140808l.16342284-.00550668 3.89129444.00108466c.2104224-.24803661.3884176-.53036601.5258817-.83883451l.1635092-.41112086c.46138-1.0897253 1.4824064-1.81990226 2.6413987-1.81990226zm5.2627998 18.16858414h-9.9l-.09753.007156c-.3182617.0471402-.56247.3214731-.56247.652844 0 .3313708.2442083.6057037.56247.6528439l.09753.0071561h9.9l.0975299-.0071561c.3182618-.0471402.5624701-.3214731.5624701-.6528439 0-.3313709-.2442083-.6057038-.5624701-.652844zm.156398-3.9781516h-2.9914737l-.09753.0071561c-.3182617.0471401-.56247.321473-.56247.6528439 0 .3313708.2442083.6057038.56247.6528439l.09753.0071561h2.9914737l.09753-.0071561c.3182617-.0471401.56247-.3214731.56247-.6528439 0-.3313709-.2442083-.6057038-.56247-.6528439zm-7.7212203-1.1250313c-1.0684324 0-2.0163885.6655525-2.3859983 1.6549183l-.056168.167834-.0925061.3117537c-.0327458.1103561.0334509.2210809.1376046.2504643l.0549576.0075351h4.6842204c.1151119 0 .2024312-.0949597.2009902-.2031689l-.008428-.0548305-.0925062-.3117537c-.3208211-1.0811954-1.3143765-1.8227523-2.4421662-1.8227523zm-.0355415-3.5557317c-.8829335 0-1.5986925.715759-1.5986925 1.5986925s.715759 1.5986925 1.5986925 1.5986925 1.5986925-.715759 1.5986925-1.5986925-.715759-1.5986925-1.5986925-1.5986925zm7.7567618.7026114h-2.9914737l-.09753.0071561c-.3182617.0471401-.56247.321473-.56247.6528439 0 .3313708.2442083.6057038.56247.6528439l.09753.0071561h2.9914737l.09753-.0071561c.3182617-.0471401.56247-.3214731.56247-.6528439 0-.3313709-.2442083-.6057038-.56247-.6528439zm-5.4191978-9.01228094c-.6488115 0-1.2378881.41382685-1.5238685 1.05939133l-.149057.37700454c-.1411796.33309383-.3177168.64522173-.524616.93087411l-.1008088.13401499-.1208353.14827182-.2001164.22038721-.1861085.18116276c-.1428639.13126145-.2943172.25313359-.4530395.36424228-.2112575.14785982-.4350803.27650939-.6696882.38387419-.0934644.04278414-.1890441.08233989-.2862186.11834397-.4621309.16625102-.8303071.53680075-1.0276119 1.01008524l-.0593341.16142717-.0107763.03686853h10.623l-.0097124-.03688066c-.1424081-.44438098-.4298819-.81520316-.8039079-1.03788846l-.1442026-.0764174-.3598905-.14612473c-.1471729-.06420766-.2902911-.13681221-.4288496-.21726706-.0987284-.05741085-.1928969-.11725524-.2846861-.18071498-.1529421-.10575195-.2990855-.22136871-.4378564-.34614718-.1581711-.14223669-.3066178-.29620285-.444348-.46079449l-.1357594-.17025569-.1331281-.18444419-.1202785-.18464211-.1253626-.2150841c-.0780323-.14231377-.149295-.28952905-.2133056-.44111556l-.1468243-.37172282c-.2849159-.64258809-.8740509-1.05644871-1.5228089-1.05644871z"/></svg>