<svg height="32" viewBox="0 0 32 32" width="32" xmlns="http://www.w3.org/2000/svg"><path d="m5.92830394 13.0236309c.46944203 0 .85.380558.85.85v7.9289139l7.51999996-.000333.0009547-5.740769c0-.3313708.2686291-.6.6-.6h9.4832164c1.4359403 0 2.6 1.1640597 2.6 2.6v8.3181727c0 .4694421-.380558.85-.85.85-.4694421 0-.85-.3805579-.85-.85v-2.8770707h-18.50417106v2.8770707c0 .4694421-.38055797.85-.85.85-.46944204 0-.85-.3805579-.85-.85v-12.5059846c0-.469442.38055796-.85.85-.85zm4.61900856 2.0700023c1.3898219 0 2.516495 1.1266732 2.516495 2.516495s-1.1266731 2.516495-2.516495 2.516495c-1.38982176 0-2.51649494-1.1266732-2.51649494-2.516495s1.12667318-2.516495 2.51649494-2.516495zm-2.27020189-7.48085253c.33799827 0 .612.27400173.612.612l-.001 4.50200003h-1.223v-4.50200003c0-.33799827.27400173-.612.612-.612zm3.32568619 1.49040167c1.0006717 0 1.8118764.81120469 1.8118764 1.81187636 0 1.0006717-.8112047 1.8118764-1.8118764 1.8118764s-1.81187639-.8112047-1.81187639-1.8118764c0-1.00067167.81120469-1.81187636 1.81187639-1.81187636zm9.9613169.26482289c1.0338771 0 1.872.83812297 1.872 1.87199997v1.486h-9.1320031v-2.92599997c0-.23858701.1935003-.432.4320874-.432zm-2.2284718-4.37447358c.718803 0 1.301508.58270498 1.301508 1.301508l-.000415 1.033492h-6.349l.0004505-2.034652c0-.16587762.1344704-.300348.300348-.300348zm-6.9256056-.18411811c.695717 0 1.259707.56399006 1.259707 1.25970706s-.56399 1.25970706-1.259707 1.25970706-1.2597071-.56399006-1.2597071-1.25970706.5639901-1.25970706 1.2597071-1.25970706zm-2.3121834-1.03620177c.2349933 0 .425493.19049971.425493.425493l-.000611 3.129507h-.85099997l.000625-3.129507c0-.23499329.1904997-.425493.42549297-.425493z"/></svg>