<svg height="32" viewBox="0 0 32 32" width="32" xmlns="http://www.w3.org/2000/svg"><path d="m25.6199682 8.165h-4.4v-1.25c0-1.35-1.1-2.45-2.46-2.45h-4.8c-1.35 0-2.46 1.1-2.46 2.45v1.25h-5.11000001c-1.43 0-2.6 1.17-2.6 2.6v12.32c0 1.43 1.17 2.6 2.6 2.6h1.66v1.25c0 .33.27.6.6.6s.6-.27.6-.6v-1.25h14.28000001v1.25c0 .33.27.6.6.6s.6-.27.6-.6v-1.25h.88c1.43 0 2.6000636-1.17 2.6000636-2.6v-12.32c.0099364-1.43-1.1600636-2.6-2.5900636-2.6zm-12.92-1.25c0-.69.56-1.25 1.26-1.25h4.8c.69 0 1.26.56 1.26 1.25v1.25h-7.32zm14.32 16.18c0 .77-.63 1.4-1.4 1.4h-19.23000001c-.77 0-1.4-.63-1.4-1.4v-12.33c0-.77.63-1.4 1.4-1.4h19.23000001c.77 0 1.4.63 1.4 1.4zm-6.37-6.77h-4.05v-3.85c0-.33-.27-.6-.6-.6s-.6.27-.6.6v3.85h-4.04c-.33 0-.6.27-.6.6s.27.6.6.6h4.05v3.85c0 .33.27.6.6.6s.6-.27.6-.6v-3.85h4.05c.33 0 .6-.27.6-.6s-.28-.6-.61-.6z"/></svg>