<svg height="32" viewBox="0 0 32 32" width="32" xmlns="http://www.w3.org/2000/svg"><g fill="none"><path d="m26.2826009 8.165c1.43 0 2.6 1.17 2.5900636 2.6v12.32c0 1.43-1.1700636 2.6-2.6000636 2.6h-.6923906c-.3337816 0-.6455577.1665341-.8311543.4439582l-.5029922.7518574c-.070079.104752-.1600484.1947213-.2648004.2648004-.4418278.2955826-1.039617.1770274-1.3351996-.2648004l-.5029922-.7518574c-.1855965-.2774241-.4973726-.4439582-.8311543-.4439582h-9.0871547c-.3337817 0-.6455578.1665341-.8311543.4439582l-.5029922.7518574c-.0700791.104752-.1600484.1947213-.2648005.2648004-.4418278.2955826-1.03961698.1770274-1.33519955-.2648004l-.5029922-.7518574c-.18559656-.2774241-.49737265-.4439582-.83115432-.4439582h-2.06585348c-1.43 0-2.6-1.17-2.6-2.6v-12.32c0-1.43 1.17-2.6 2.6-2.6z" fill="#6cacc8"/><path d="m26.2826009 8.165h-17.79198485c-1.43 0-2.6 1.17-2.6 2.6v12.32c0 1.43 1.17 2.6 2.6 2.6h13.35544775 3.2 1.2265371c1.43 0 2.6001885-1.17 2.6001885-2.6v-12.32c.0098115-1.43-1.1601885-2.6-2.5901885-2.6z" fill="#afdfef"/><path d="m20.1069483 8.165v-1.25c0-.69-.57-1.25-1.26-1.25h-4.8c-.7 0-1.26.56-1.26 1.25v1.25h-1.2v-1.25c0-1.35 1.11-2.45 2.46-2.45h4.8c1.36 0 2.46 1.1 2.46 2.45v1.25z" fill="#252d4f"/><path d="m21.327178 16.0836862c.5889866 0 1.0664546.477468 1.0664546 1.0664546 0 .5889865-.477468 1.0664545-1.0664546 1.0664545h-3.3248288v3.3248288c0 .5889866-.477468 1.0664545-1.0664545 1.0664545-.5889866 0-1.0664546-.4774679-1.0664546-1.0664545v-3.3248288h-3.3248288c-.5889866 0-1.0664545-.477468-1.0664545-1.0664545 0-.5889866.4774679-1.0664546 1.0664545-1.0664546h3.3248288v-3.3248288c0-.5889866.477468-1.0664545 1.0664546-1.0664545.5889865 0 1.0664545.4774679 1.0664545 1.0664545v3.3248288z" fill="#d9541a"/></g></svg>