<svg height="32" viewBox="0 0 32 32" width="32" xmlns="http://www.w3.org/2000/svg"><path d="m14.1127261 17.9259215v-5.7922111c0-.3313708.2686292-.6.6-.6h9.4197489c1.4359403 0 2.6 1.1640597 2.6 2.6v8.1192819c0 .3313709-.2686292.6-.6.6-.3313709 0-.6-.2686291-.6-.6v-3.1270708h-19.00417106v3.1270708c0 .3313709-.26862915.6-.6.6s-.6-.2686291-.6-.6v-12.50598461c0-.33137085.26862915-.6.6-.6s.6.26862915.6.6v8.17891381zm1.2 0h10.2197489v-3.7922111c0-.7731986-.6268014-1.4-1.4-1.4h-8.8197489zm-4.9922111-.9961055c-1.54424642 0-2.79610552-1.2518591-2.79610552-2.7961056 0-1.5442464 1.2518591-2.7961055 2.79610552-2.7961055 1.5442465 0 2.7961056 1.2518591 2.7961056 2.7961055 0 1.5442465-1.2518591 2.7961056-2.7961056 2.7961056zm0-1.2c.8815048 0 1.5961056-.7146008 1.5961056-1.5961056 0-.8815047-.7146008-1.5961055-1.5961056-1.5961055-.88150472 0-1.59610552.7146008-1.59610552 1.5961055 0 .8815048.7146008 1.5961056 1.59610552 1.5961056z"/></svg>