<svg height="32" viewBox="0 0 32 32" width="32" xmlns="http://www.w3.org/2000/svg"><g fill="none" fill-rule="evenodd"><path d="m23.3003104 7.16363636c1.0404025 0 1.8996896.79867823 1.8996896 1.8146467v16.22525204c0 1.0144749-.8653323 1.8146467-1.9098333 1.8146467h-14.94396975c-1.04493719 0-1.90983331-.7973956-1.90983331-1.8146467v-16.22525204c0-1.01326281.8635698-1.8146467 1.90397922-1.8146467z" fill="#904b3e"/><path d="m23.3003104 6.16363636c1.0404025 0 1.8996896.79867823 1.8996896 1.8146467v16.22525204c0 1.0144749-.8653323 1.8146467-1.9098333 1.8146467h-14.94396975c-1.04493719 0-1.90983331-.7973956-1.90983331-1.8146467v-16.22525204c0-1.01326281.8635698-1.8146467 1.90397922-1.8146467z" fill="#c47161"/><path d="m8.34034286 8.15317656.00585409 15.99652604h14.94396975l.0101437-15.99652604z" fill="#fff"/><g fill="#9b9b9b"><path d="m17.9073629 13.6759927h2.9750153c.3614955 0 .6545455-.29305.6545455-.6545455s-.29305-.6545454-.6545455-.6545454h-2.9750153c-.3614955 0-.6545454.2930499-.6545454.6545454s.2930499.6545455.6545454.6545455z"/><path d="m17.9073629 17.621267h2.9750153c.3614955 0 .6545455-.29305.6545455-.6545455s-.29305-.6545454-.6545455-.6545454h-2.9750153c-.3614955 0-.6545454.2930499-.6545454.6545454s.2930499.6545455.6545454.6545455z"/><path d="m10.9090909 21.5665413h9.8181818c.3614955 0 .6545455-.29305.6545455-.6545455s-.29305-.6545454-.6545455-.6545454h-9.8181818c-.3614955 0-.6545454.2930499-.6545454.6545454s.2930499.6545455.6545454.6545455z"/></g><path d="m13.3069787 15.2287616c1.1277897 0 2.1213451.7415569 2.4421662 1.8227523l.0925062.3117537c.0382034.1287488-.058265.2579994-.1925622.2579994h-4.6842204c-.1342973 0-.2307656-.1292506-.1925622-.2579994l.0925061-.3117537c.3208212-1.0811954 1.3143766-1.8227523 2.4421663-1.8227523zm-.0355415-3.5557316c.8829335 0 1.5986925.715759 1.5986925 1.5986924 0 .8829335-.715759 1.5986925-1.5986925 1.5986925s-1.5986925-.715759-1.5986925-1.5986925c0-.8829334.715759-1.5986924 1.5986925-1.5986924z" fill="#007880" fill-rule="nonzero"/><path d="m17.9944054 5.2892907c-.3326961-.9339542-1.1673749-1.59623884-2.1443263-1.59623884-.9770462 0-1.8116301.66228464-2.1443263 1.59623884-.4021738 1.10645097-1.2381795 1.97542279-2.2801536 2.35934398-.9152462.32913415-1.5755201 1.26648678-1.5755201 2.37129002h12c0-1.10480324-.6603687-2.04215587-1.5756149-2.37129002-1.0419741-.38392119-1.877885-1.25289301-2.2800588-2.35934398z" fill="#69b5cf"/><circle cx="15.850079" cy="6" fill="#38859f" r="1"/></g></svg>