<svg height="32" viewBox="0 0 32 32" width="32" xmlns="http://www.w3.org/2000/svg"><path d="m15.8500791 3.09305186c1.1589302 0 2.180023.73020636 2.6402806 1.81679646l.1471384.37385645c.1401633.32462407.3244584.62079566.5435925.87939304l3.8910725-.00127298c1.2633293 0 2.2974266.98145861 2.3814081 2.22349193l.0055067.16342283v17.13462441c0 1.2633292-.9814586 2.2974266-2.2234919 2.3814081l-.1634229.0055066h-14.44416804c-1.26332926 0-2.29742658-.9814586-2.38140808-2.2234919l-.00550668-.1634228v-17.13462441c0-1.26332926.9814586-2.29742658 2.22349192-2.38140808l.16342284-.00550668 3.89129444.00108466c.2104225-.24803661.3884176-.53036601.5258818-.83883451l.1635091-.41112086c.46138-1.0897253 1.4824065-1.81990226 2.6413987-1.81990226zm5.1894271 4.26754049c.8603224.54960485 1.4105729 1.55126134 1.4105729 2.65933235 0 .2982338-.2175896.5456468-.5026769.592147l-.0973231.007853h-12c-.33137085 0-.6-.2686291-.6-.6 0-1.10852048.55062774-2.11052043 1.4089726-2.65905997l-2.03105664.0009601c-.61454524 0-1.12000495.46705064-1.18078685 1.06555963l-.00612791.12135513v17.13462441c0 .6145452.46705064 1.1200049 1.06555962 1.1807868l.12135514.0061279h14.44416804c.6145453 0 1.120005-.4670506 1.1807869-1.0655596l.0061279-.1213551v-17.13462441c0-.61454523-.4670506-1.12000495-1.0655596-1.18078685l-.1213552-.00612791zm-.0966152 14.80799175c.3645079 0 .66.2954921.66.66 0 .3313708-.2442083.6057038-.56247.6528439l-.09753.0071561h-9.9c-.3645079 0-.66-.2954921-.66-.66 0-.3313709.2442083-.6057038.56247-.6528439l.09753-.0071561zm.156398-3.9781516c.364508 0 .66.2954921.66.66 0 .3313709-.2442083.6057038-.56247.6528439l-.09753.0071561h-2.9914737c-.364508 0-.66-.2954921-.66-.66 0-.3313708.2442083-.6057038.56247-.6528439l.09753-.0071561zm-7.7923103-1.1250313c1.1277897 0 2.1213451.741557 2.4421662 1.8227523l.0925062.3117537c.0382034.1287488-.058265.2579994-.1925622.2579994h-4.6842204c-.1342973 0-.2307656-.1292506-.1925622-.2579994l.0925061-.3117537c.3208212-1.0811953 1.3143766-1.8227523 2.4421663-1.8227523zm-.0355415-3.5557316c.8829335 0 1.5986925.715759 1.5986925 1.5986925 0 .8829334-.715759 1.5986924-1.5986925 1.5986924s-1.5986925-.715759-1.5986925-1.5986924c0-.8829335.715759-1.5986925 1.5986925-1.5986925zm7.8278518.7026113c.364508 0 .66.2954921.66.66 0 .3313709-.2442083.6057038-.56247.6528439l-.09753.0071561h-2.9914737c-.364508 0-.66-.295492-.66-.66 0-.3313708.2442083-.6057038.56247-.6528439l.09753-.0071561zm-5.2492099-9.91922904c-.6488115 0-1.2378881.41382685-1.5238685 1.05939133l-.149057.37700454c-.1650147.38932945-.3783335.7500161-.6319795 1.0732622l-.1340761.16302956-.1639641.18030055-.1440356.14347783-.0780707.07257415c-.3400406.30843788-.7242937.56170083-1.1419064.74770789l-.2544839.10343687c-.4557544.16389507-.8232929.53420921-1.0205339 1.00747014l-.0593271.16142455-.0107763.03686853h10.623l-.0097124-.03688066c-.1424081-.44438098-.4298819-.81520316-.8039079-1.03788846l-.1442026-.0764174-.3598905-.14612473c-.3422174-.14930044-.6625117-.34400206-.9545329-.57723291l-.233236-.19997012-.1868831-.18212834-.0764529-.08092287c-.0470384-.05102202-.0931651-.10341763-.1381558-.15694361-.123283-.14669088-.2379664-.30175044-.3432855-.46435746l-.1777225-.29779449c-.0780322-.14231377-.149295-.28952905-.2133056-.44111556l-.1468243-.37172282c-.2849159-.64258809-.8740509-1.05644871-1.5228089-1.05644871z" fill-rule="evenodd"/></svg>