<svg height="32" viewBox="0 0 32 32" width="32" xmlns="http://www.w3.org/2000/svg"><path d="m18.7599682 4.465c1.36 0 2.46 1.1 2.46 2.45v1.25h4.4c1.43 0 2.6 1.17 2.5900636 2.6v12.32c0 1.43-1.1700636 2.6-2.6000636 2.6h-.88v1.25c0 .33-.27.6-.6.6s-.6-.27-.6-.6v-1.25h-14.28000001v1.25c0 .33-.27.6-.6.6s-.6-.27-.6-.6v-1.25h-1.66c-1.43 0-2.6-1.17-2.6-2.6v-12.32c0-1.43 1.17-2.6 2.6-2.6h5.11000001v-1.25c0-1.35 1.11-2.45 2.46-2.45zm-2.76 7.41c-.33 0-.6.27-.6.6v3.85h-4.04c-.33 0-.6.27-.6.6s.27.6.6.6h4.05v3.85c0 .33.27.6.6.6s.6-.27.6-.6v-3.85h4.05c.33 0 .6-.27.6-.6s-.28-.6-.61-.6h-4.05v-3.85c0-.33-.27-.6-.6-.6zm2.76-6.21h-4.8c-.7 0-1.26.56-1.26 1.25v1.25h7.32v-1.25c0-.69-.57-1.25-1.26-1.25z"/></svg>