<svg height="32" viewBox="0 0 32 32" width="32" xmlns="http://www.w3.org/2000/svg"><g fill="none" fill-rule="evenodd"><g fill-rule="nonzero"><path d="m6.77830394 21.8025448h20.20417106v4.5770707c0 .4694421-.380558.85-.85.85-.4694421 0-.85-.3805579-.85-.85v-2.8770707h-18.50417106v2.8770707c0 .4694421-.38055797.85-.85.85-.46944204 0-.85-.3805579-.85-.85v-12.5059846c0-.469442.38055796-.85.85-.85.46944203 0 .85.380558.85.85z" fill="#7c969d"/><path d="m14.2992586 21.8095661v-5.7481233c0-.3313708.2686291-.6.6-.6h9.4832164c1.4359403 0 2.6 1.1640597 2.6 2.6v3.7481233z" fill="#3bbee8"/><path d="m14.2992586 21.8095661v-1.6829429h12.6832164v1.6829429z" fill="#25a5cf"/><path d="m10.5473125 20.1266232c-1.38982176 0-2.51649494-1.1266732-2.51649494-2.516495s1.12667318-2.516495 2.51649494-2.516495c1.3898219 0 2.516495 1.1266732 2.516495 2.516495s-1.1266731 2.516495-2.516495 2.516495z" fill="#f0ab15"/></g><path d="m8.27711061 7.61278067c.33799827 0 .612.27400173.612.612l-.001 4.50200003h-1.223v-4.50200003c0-.33799827.27400173-.612.612-.612z" fill="#7c969d"/><path d="m21.5641137 9.36800523c1.0338771 0 1.872.83812297 1.872 1.87199997v1.486h-9.1320031v-2.92599997c0-.23858701.1935003-.432.4320874-.432z" fill="#3bbee8"/><path d="m11.6027968 12.7269351c-1.0006717 0-1.81187639-.8112047-1.81187639-1.8118764 0-1.00067167.81120469-1.81187636 1.81187639-1.81187636s1.8118764.81120469 1.8118764 1.81187636c0 1.0006717-.8112047 1.8118764-1.8118764 1.8118764z" fill="#f0ab15" fill-rule="nonzero"/><path d="m10.0978529 3.77321177c.2349933 0 .425493.19049971.425493.425493l-.000611 3.129507h-.85099997l.000625-3.129507c0-.23499329.1904997-.425493.42549297-.425493z" fill="#7c969d"/><path d="m19.3356419 4.99353165c.718803 0 1.301508.58270498 1.301508 1.301508l-.000415 1.033492h-6.349l.0004505-2.034652c0-.16587762.1344704-.300348.300348-.300348z" fill="#3bbee8"/><path d="m12.4100363 7.32882766c-.695717 0-1.2597071-.56399006-1.2597071-1.25970706s.5639901-1.25970706 1.2597071-1.25970706 1.259707.56399006 1.259707 1.25970706-.56399 1.25970706-1.259707 1.25970706z" fill="#f0ab15" fill-rule="nonzero"/></g></svg>