<svg height="32" viewBox="0 0 32 32" width="32" xmlns="http://www.w3.org/2000/svg"><g fill="none"><path d="m6.77830394 17.2789138h20.20417106v4.5770708c0 .4694421-.380558.85-.85.85-.4694421 0-.85-.3805579-.85-.85v-2.8770708h-18.50417106v2.8770708c0 .4694421-.38055797.85-.85.85-.46944204 0-.85-.3805579-.85-.85v-12.5059846c0-.46944204.38055796-.85.85-.85.46944203 0 .85.38055796.85.85z" fill="#7c969d"/><path d="m14.2992586 17.2859352v-5.7481233c0-.3313709.2686291-.6.6-.6h9.4832164c1.4359403 0 2.6 1.1640596 2.6 2.6v3.7481233z" fill="#3bbee8"/><path d="m14.2992586 17.2859352v-1.6829429h12.6832164v1.6829429z" fill="#25a5cf"/><path d="m10.5473125 15.6029923c-1.38982176 0-2.51649494-1.1266732-2.51649494-2.516495s1.12667318-2.516495 2.51649494-2.516495c1.3898219 0 2.516495 1.1266732 2.516495 2.516495s-1.1266731 2.516495-2.516495 2.516495z" fill="#f0ab15"/></g></svg>