<svg height="32" viewBox="0 0 32 32" width="32" xmlns="http://www.w3.org/2000/svg"><path d="m24.890411 7.4260274c1.1650938 0 2.109589.94449518 2.109589 2.10958904v12.92876716c0 1.1650938-.9444952 2.109589-2.109589 2.109589h-17.78082196c-1.16509385 0-2.10958904-.9444952-2.10958904-2.109589v-12.92876716c0-1.16509386.94449519-2.10958904 2.10958904-2.10958904zm-.5258905 7.0739726h-16.72904105c-.62415742 0-1.1375231.4743558-1.1992557 1.0822262l-.00622375.1232533v.5205205l5.2643563.0000274.2119823.0074591c.6329716.044611 1.2359615.2880326 1.7225075.6953606l.1577507.1417987.6688827.6451875.1329312.1184666c.818731.6733896 2.0044476.6733896 2.8231786 0l.1329312-.1184666.6688827-.6451875.1577507-.1417987c.486546-.407328 1.0895359-.6507496 1.7225075-.6953606l.2119823-.0074591 5.2643563-.0000274v-.5205205c0-.6241575-.4743558-1.1375232-1.0822262-1.1992557zm0-2.75h-16.72904105c-.62415742 0-1.1375231.4743558-1.1992557 1.0822262l-.00622375.1232533-.00167536.6688911c.30412281-.1767887.65054093-.2888241 1.02037428-.3172263l.18678053-.0071443h16.72904105c.3764573 0 .7327165.086478 1.0501087.2406523l.1553708.0826415v-.6678143c0-.6241575-.4743558-1.1375232-1.0822262-1.1992557zm0-2.78789041h-16.72904105c-.62415742 0-1.1375231.47435584-1.1992557 1.08222621l-.00622375.1232532-.00167536.7067816c.30412281-.1767887.65054093-.2888241 1.02037428-.3172263l.18678053-.0071443h16.72904105c.3764573 0 .7327165.086478 1.0501087.2406523l.1553708.0826415v-.7057048c0-.62415738-.4743558-1.13752306-1.0822262-1.19925566z" fill-rule="evenodd"/></svg>