<svg height="32" viewBox="0 0 32 32" width="32" xmlns="http://www.w3.org/2000/svg"><path d="m24.890411 6.2260274c1.7648067 0 3.2069876 1.38132548 3.3043499 3.1217837l.0052391.18780534v12.92876716c0 1.7648067-1.3813255 3.2069876-3.1217837 3.3043499l-.1878053.0052391h-17.78082196c-1.76480674 0-3.20698763-1.3813255-3.30434992-3.1217837l-.00523912-.1878053v-12.92876716c0-1.76480674 1.38132548-3.20698763 3.12178371-3.30434992l.18780533-.00523912zm0 1.2h-17.78082196c-1.1144376 0-2.02704201.8641506-2.10429223 1.9589308l-.00529681.15065824v12.92876716c0 1.1144376.8641506 2.027042 1.95893081 2.1042922l.15065823.0052968h17.78082196c1.1144376 0 2.027042-.8641506 2.1042922-1.9589308l.0052968-.1506582v-12.92876716c0-1.1144376-.8641506-2.02704202-1.9589308-2.10429223zm-.5258905 7.0739726.1232533.0062238c.5673457.057617 1.0183854.5086567 1.0760024 1.0760024l.0062238.1232533v.5205205l-5.2643563.0000274-.2119823.0074591c-.5626414.0396543-1.1015936.2363933-1.5561314.5657031l-.1663761.1296575-.1577507.1417987-.6688827.6451875-.1329312.1184666c-.7705704.6337784-1.8662214.6710595-2.6750365.1118433l-.1481421-.1118433-.1329312-.1184666-.6688827-.6451875-.1577507-.1417987c-.4324853-.3620694-.9569757-.5946324-1.512746-.6731748l-.2097615-.0221858-.2119823-.0074591-5.2643563-.0000274v-.5205205l.00622375-.1232533c.05761709-.5673457.50865678-1.0183854 1.07600243-1.0760024l.12325327-.0062238zm0-2.75.1232533.0062238c.5673457.057617 1.0183854.5086567 1.0760024 1.0760024l.0062238.1232533v.6678143l-.1553708-.0826415c-.2539137-.1233395-.5327024-.2033533-.8268074-.2304252l-.2233013-.0102271h-16.72904105l-.18678053.0071443c-.29586668.0227217-.57674761.0989688-.83297619.2190745l-.18739809.0981518.00167536-.6688911.00622375-.1232533c.05761709-.5673457.50865678-1.0183854 1.07600243-1.0760024l.12325327-.0062238zm0-2.78789041.1232533.00622375c.5673457.05761709 1.0183854.50865678 1.0760024 1.07600246l.0062238.1232532v.7057048l-.1553708-.0826415c-.2539137-.1233395-.5327024-.2033533-.8268074-.2304252l-.2233013-.0102271h-16.72904105l-.18678053.0071443c-.29586668.0227217-.57674761.0989688-.83297619.2190745l-.18739809.0981518.00167536-.7067816.00622375-.1232532c.05761709-.56734568.50865678-1.01838537 1.07600243-1.07600246l.12325327-.00622375z"/></svg>