<svg height="32" viewBox="0 0 32 32" width="32" xmlns="http://www.w3.org/2000/svg"><g fill="none" fill-rule="evenodd"><path d="m21.1999161 7.73896435 6.7008563 5.64563305c.1210665.1020014.1365218.2828337.0345203.4039002-.0320888.0380866-.0735473.0671555-.1202902.0843423l-1.4642736.5383964c-1.9838368.7291512-3.5512298 2.2822793-4.2947214 4.2378482l-.0436176.1178137-.0943199.2683042c-1.1678782 3.2595388-3.7005695 5.8475193-6.9340367 7.0855325l-3.8844067 1.4288426c-.1932372.0710235-.4097201.0329774-.5671617-.0996766l-6.44635129-5.4314402c-.12106431-.102004-.13651576-.2828366-.03451176-.4039009.03210319-.038102.0735834-.0671781.12035004-.0843611l1.4643345-.5380251c1.98383679-.7291511 3.55122975-2.2822792 4.29472139-4.2378481l.13793752-.3861179c1.1678782-3.2595389 3.7005695-5.8475194 6.9340367-7.08553252z" fill="#72a762" fill-rule="nonzero"/><path d="m15.1781223 10.1666519 7.9298334 6.6130329c-.4381787.5631962-.7944691 1.1921654-1.0519482 1.8693997l-.1379375.3861179c-1.1678782 3.2595388-3.7005695 5.8475193-6.9340367 7.0855325l-3.8844067 1.4288426c-.14015.0515115-.2925279.0456499-.4257401-.0120675l-4.01772646-3.3534491-2.57004643-2.1656002c-.12106431-.102004-.13651576-.2828366-.03451176-.4039009.03210319-.038102.0735834-.0671781.12035004-.0843611l1.4643345-.5380251c1.98383679-.7291511 3.55122975-2.2822792 4.29472139-4.2378481l.13793752-.3861179c.9377336-2.6172071 2.7553748-4.8014544 5.109177-6.2015557z" fill="#618d53" fill-rule="nonzero"/><path d="m3.52020299 18.2695071 2.33388995-.8578118c2.66156455-.9782473 4.75090016-3.0837868 5.71040206-5.7469456l.0478118-.1358927c.9366532-2.72735346 3.051538-4.88801056 5.7582138-5.88283828l2.4846067-.91320712c.1932327-.0710219.4097105-.03297931.5671516.09966802l7.5570531 6.36697448c.1210667.1020012.1365223.2828334.0345211.4039001-.0320968.0380961-.0735677.0671699-.1203243.0843551l-2.33389.8578118c-2.6615645.9782473-4.7509001 3.0837868-5.710402 5.7469457l-.0478118.1358926c-.9366532 2.7273535-3.0515381 4.8880106-5.7582139 5.8828383l-2.4846067.9132071c-.1932327.0710219-.4097105.0329793-.5671515-.099668l-7.55705315-6.3669745c-.121061-.1019964-.1365159-.2828201-.03451949-.4038811.0320968-.0380962.07356813-.0671695.12032525-.0843536-.00000547-.0000194-.00000399-.00002-.00000252-.0000205z" fill="#caecaa"/><path d="m20.4341422 4.84245732.8804722.74175855 5.2562748 4.42337083 1.3922658 1.1770863c.1265261.1069711.1423786.2962579.0354075.422784-.0335386.0396697-.0768032.0699507-.1255587.087879l-2.3085695.8489002c-2.6608.9779662-4.7496997 3.0825771-5.7095749 5.7446506l-.048639.1381877c-.2841309.8273343-.6775277 1.6019894-1.1635089 2.3070305-1.1133441 1.6235011-2.7126243 2.8835791-4.5995004 3.5770927l-2.4700425.9078541c-.2022378.0743317-.4288041.0345163-.5935822-.1043128l-7.52759733-6.3421573c-.12670869-.1067547-.14288459-.2960142-.03612988-.4227229.03359257-.0398715.07699611-.0703002.12593176-.0882863l2.31230199-.8498772c2.66079995-.9779662 4.74969966-3.0825771 5.70957486-5.7446506l.048639-.1381877c.9366532-2.72735346 3.051538-4.88801056 5.7582138-5.88283828l2.470057-.90785941c.2022301-.07432887.4287874-.03451942.5935646.10429801zm-1.7836944 1.70769586-.8301435.3052814c-2.2998122.84528666-4.1059331 2.66314631-4.9410873 4.97164412l-.0973367.276208c-.9667149 2.6810424-2.94186715 4.8619001-5.48171643 6.0942904l-.11231113.0534512.00290268.0151261c.10194203.602833-.01261806 1.1977145-.29059437 1.6999716l-.00760529.0126784 3.55567474 2.9946576.0337443-.0057013c.762467-.1186508 1.5435822.0137384 2.2235446.3754022l.05357.0291637.8417252-.3031526c1.5893403-.5727109 2.9442875-1.6134525 3.9039971-2.9589408l.0697834-.0999861c.3950987-.5753684.719593-1.2035956.9616574-1.8726003l.0452225-.128254c.9445578-2.7503703 2.9451879-4.9927994 5.534693-6.2499787l-.0093137-.0338671c-.0647452-.2517366-.0886767-.5133354-.0698419-.7747073l.0090716-.0979842c.0370378-.3272567.1378863-.631787.2887298-.90258453l.0526004-.09021988-3.3989981-2.86412452-.0532498.00808035c-.7737701.10172796-1.5604219-.04925195-2.2407533-.42860409zm-5.5358172 6.60475092c.7123084-.848896 2.3219978-.6709022 3.5953419.3975604 1.2733442 1.0684625 1.7281535 2.6227888 1.0158451 3.4716849s-2.3219978.6709023-3.5953419-.3975603-1.7281535-2.6227889-1.0158451-3.471685z" fill="#80bb6e" fill-rule="nonzero"/><path d="m11.4702199 11.9153943 8.2094486 6.847209c-.9902054 2.569206-3.0413204 4.5947623-5.6364574 5.5485944l-2.4846067.9132071c-.1932327.0710219-.4097105.0329793-.5671515-.099668l-7.55705315-6.3669745c-.12106667-.1020012-.1365223-.2828334-.03452111-.4039001.03209678-.0380961.07356767-.0671699.12032435-.0843551l2.33388995-.8578118c2.57750448-.9473513 4.61835456-2.9519129 5.61612696-5.496301z" fill="#b1cf95"/><path d="m11.4697518 11.9165876 1.0407777.8666726c-1.0390834 2.3689714-2.88882831 4.2878563-5.21036563 5.4143169l-.11231113.0534512.00290268.0151261c.09061514.5358516.01016687 1.0654205-.20406087 1.5292382l-.09413879.1834118 3.55567474 2.9946576.0337443-.0057013c.762467-.1186508 1.5435822.0137384 2.2235446.3754022l.05357.0291637.8417252-.3031526c1.5893403-.5727109 2.9442875-1.6134525 3.9039971-2.9589408l.0697834-.0999861c.3950987-.5753684.719593-1.2035956.9616574-1.8726003l.0896986-.2540592 1.056.881-.0041422.0137841c-.2700079.6959465-.6185421 1.3514123-1.0350974 1.9557333-1.1133441 1.6235011-2.7126243 2.8835791-4.5995004 3.5770927l-2.7971257 1.0280723-7.92707094-6.6808636c-.0835382-.0704052-.09418456-.195201-.02377933-.2787392l.03758607-.0344117.04512993-.0236679 2.47614181-.9098923c2.57710152-.9472032 4.61771646-2.9512862 5.61565886-5.4951077zm1.5826001 1.3184114 4.6155992 3.8505886-.0357567.0393353c-.752242.7317438-2.2814306.5256095-3.5017187-.4983338-1.2342756-1.0356802-1.6994742-2.5278672-1.0781238-3.3915901z" fill="#70a461" fill-rule="nonzero"/></g></svg>