<svg height="32" viewBox="0 0 32 32" width="32" xmlns="http://www.w3.org/2000/svg"><path d="m20.4331946 4.84166061 7.5320843 6.34665549.0452902.0468184c.0811346.1093107.0796829.2638716-.0120066.3723225-.032825.0388256-.0749666.0686579-.1224542.0867179l-1.3798294.5071412 1.4044935 1.1832813c.1210665.1020014.1365218.2828337.0345203.4039002-.0320888.0380866-.0735473.0671555-.1202902.0843423l-1.4642736.5383964c-1.9838368.7291512-3.5512298 2.2822793-4.2947214 4.2378482l-.0436176.1178137-.0943199.2683042c-1.1678782 3.2595388-3.7005695 5.8475193-6.9340367 7.0855325l-3.8844067 1.4288426c-.1932372.0710235-.4097201.0329774-.5671617-.0996766l-6.44635129-5.4314402c-.12106431-.102004-.13651576-.2828366-.03451176-.4039009.03210319-.038102.0735834-.0671781.12035004-.0843611l1.4643345-.5380251c.10354627-.038058.20595801-.0783608.30717729-.1208484l-2.49518479-2.1020091-.04379009-.0471148c-.08132132-.1091719-.08013365-.263735.01137039-.3723425.03359257-.0398715.07699611-.0703002.12593176-.0882863l2.31230199-.8498772c.21450763-.0788414.42529835-.1650051.63208026-.2581929.50442987-.2273251.98500322-.4964487 1.4374835-.803042.30936453-.2096167.60565576-.4367996.88745436-.6801207.86793472-.7493685 1.59858474-1.6521495 2.15205464-2.6676267.1716924-.3150346.3262762-.6407611.4626278-.9760787l.1387015-.3618846.0478118-.1358927c.9366532-2.72735346 3.051538-4.88801056 5.7582138-5.88283828l2.4707583-.90870261.1020424-.02687976c.172891-.03051556.352678.01612444.4898733.13122426zm-1.7827468 1.70849257-.8301435.3052814c-2.2998122.84528666-4.1059331 2.66314631-4.9410873 4.97164412l-.0973367.276208c-.5288124 1.466584-1.3593804 2.7834971-2.4190704 3.8773623l-.236344.2365806c-.15372004.1492159-.31186817.2939124-.47424225.4338853l-.24670532.2063912-.19074823.1513313-.27306517.2049192-.26465298.1862339-.16229741.1085102-.15403275.0991486-.32514122.1975555-.18309084.1045342-.18491907.100874-.36740679.1869641-.11231113.0534512.00290268.0151261c.10194203.602833-.01261806 1.1977145-.29059437 1.6999716l-.00760529.0126784 3.55567474 2.9946576.0337443-.0057013c.762467-.1186508 1.5435822.0137384 2.2235446.3754022l.05357.0291637.8417252-.3031526c1.5893403-.5727109 2.9442875-1.6134525 3.9039971-2.9589408l.0697834-.0999861c.3950987-.5753684.719593-1.2035956.9616574-1.8726003l.0452225-.128254c.9445578-2.7503703 2.9451879-4.9927994 5.534693-6.2499787l-.0093137-.0338671c-.0647452-.2517366-.0886767-.5133354-.0698419-.7747073l.0090716-.0979842c.0370378-.3272567.1378863-.631787.2887298-.90258453l.0526004-.09021988-3.3989981-2.86412452-.0532498.00808035-.2323982.02296148-.232456.00794503c-.6193238.00129459-1.231634-.15602889-1.7758991-.4595106zm-1.9404753 7.00231132c1.2733442 1.0684625 1.7281535 2.6227888 1.0158451 3.4716849s-2.3219978.6709023-3.5953419-.3975603-1.7281535-2.6227889-1.0158451-3.471685c.7123084-.848896 2.3219978-.6709022 3.5953419.3975604z" fill-rule="evenodd"/></svg>