<svg height="32" viewBox="0 0 32 32" width="32" xmlns="http://www.w3.org/2000/svg"><path d="m21.0700584 3.81832014.1254064.09645396 7.5570532 6.3669745c.6279014.52902.7080607 1.4668902.1790406 2.0947916-.1331736.1580657-.2974628.2861835-.4820112.3767424l-.1420402.0607579-.107088.0385509.0869471.073154c.3432765.2892187.4120535.7833308.1781084 1.1521219l-.0713299.0972242c-.0744432.0883572-.1651886.1610243-.2669056.2142633l-.1051768.0466247-1.4643443.5384224c-1.7305468.6360555-3.1196542 1.9571872-3.8365787 3.629552l-.102456.2534472-.1357748.3801805c-1.1872958 3.3137333-3.7173201 5.9667799-6.9646401 7.3157399l-.3270998.1305252-3.8845529 1.4288963c-.3515375.1292062-.740665.0820393-1.0491034-.1207135l-.1116511-.0832848-6.44635131-5.4314402c-.37447675-.3155193-.42227123-.8748716-.10675195-1.2493484.07447631-.0883928.16526797-.1610814.26703697-.214324l.1052304-.046622.15939377-.0594187-1.46320542-1.2321235c-.58865228-.4959518-.69589485-1.3512413-.27110562-1.9735853l.0920666-.1211874c.13317878-.1580718.29747563-.286193.48201405-.3767448l.14202916-.0607506 2.33389654-.8578356c2.23382225-.8210323 4.00846357-2.5505592 4.88724901-4.7425145l.1051507-.2763706.1585859-.4425554c1.0656373-2.81549894 3.2607464-5.05811649 6.052786-6.18378589l.3126561-.12045024 2.4846067-.91320712c.5478993-.20137818 1.1562162-.11928123 1.6289095.21183969zm-2.4196106 2.73183304.0439652.02524965c.6122983.34141692 1.3107161.49785234 2.0083551.45156557l.2323982-.02296148.0532498-.00808035 3.3989981 2.86412452-.0526004.09021988c-.1206748.21663803-.2093528.45486503-.2589604.70904573l-.0297694.1935388-.0090716.0979842c-.0141261.1960289-.0041962.3921855.0289661.5842133l.0408758.190494.0093137.0338671c-2.4899087 1.2088262-4.4353694 3.3285714-5.4210454 5.9349096l-.1588701.4433231c-.2017203.5575039-.4606836 1.0866901-.7700465 1.5805671l-.1916109.2920332-.0697834.0999861c-.895729 1.2557891-2.1357538 2.2461099-3.589302 2.8382066l-.3146951.1207342-.8417252.3031526-.05357-.0291637c-.6119662-.3254974-1.3058661-.4652824-1.9943649-.403488l-.2291797.0280858-.0337443.0057013-3.55567474-2.9946576.00760529-.0126784c.24709006-.4464507.36506112-.9660862.31662927-1.4994379l-.02893758-.2156598.11231113-.0534512c2.43825531-1.1830947 4.35608583-3.2402969 5.36089863-5.7749949l.1208178-.3192955.0973367-.276208c.801748-2.2161579 2.4983389-3.98014367 4.6675101-4.86557221l.2735772-.10607191zm-1.9404753 7.00231132c-1.2733441-1.0684626-2.8830335-1.2464564-3.5953419-.3975604-.7123084.8488961-.257499 2.4032224 1.0158451 3.471685s2.8830335 1.2464564 3.5953419.3975603.2574991-2.4032224-1.0158451-3.4716849zm-13.35522006 4.8750556-.01007412.027973-.01091851.0554354v.0550063l.0061671.0377438.0140668.0440554.02894931.0534201.05145673.0566082 7.55705315 6.3669745c.1312008.1105395.3033995.1553812.468979.1261572l.0981725-.0264892 2.4846067-.9132071c2.6100088-.9592981 4.6697426-3.0026392 5.6533763-5.5928176l.1526494-.4259133c.9239648-2.5645234 2.8956217-4.6119676 5.4170558-5.6336414l.2933462-.1133043 2.33389-.8578118c.0467566-.0171852.0882275-.046259.1203243-.0843551l.0375661-.0607628.0191215-.0459359.0106476-.0702775-.0031395-.0506845-.0102715-.0441051-.0080355-.0221008c-.0112332-.0274261-.0269561-.0534798-.0470369-.0769402l-.0333729-.0330933-7.5570531-6.36697448c-.1049607-.08843155-.23616-.13487064-.369218-.13487064l-.0997611.00871343-.0981725.02648919-2.4846067.91320712c-2.6100088.95929816-4.6697426 3.0026392-5.6533763 5.59281758l-.1526493.4259134c-.9239648 2.5645233-2.89562175 4.6119676-5.41705585 5.6336414l-.29334621.1133042-2.33388995.8578118-.04484124.0210615-.04041128.0283302-.03507021.0349824z"/></svg>