<svg height="32" viewBox="0 0 32 32" width="32" xmlns="http://www.w3.org/2000/svg"><g fill="none" fill-rule="evenodd"><path d="m24.1369863 7.6760274c.7215638 0 1.3748172.29247152 1.8476797.76533399s.765334 1.1261159.765334 1.84767971v11.4219178c0 .7215638-.2924715 1.3748172-.765334 1.8476797s-1.1261159.765334-1.8476797.765334h-16.2739726c-.72156381 0-1.37481723-.2924715-1.84767971-.765334-.47286247-.4728625-.76533399-1.1261159-.76533399-1.8476797v-11.4219178c0-.72156381.29247152-1.37481724.76533399-1.84767971.47286248-.47286247 1.1261159-.76533399 1.84767971-.76533399z" fill="#d8d8d8" stroke="#979797" stroke-width=".5"/><path d="m7.10958904 7.4260274h17.78082196c1.1650938 0 2.109589.94449518 2.109589 2.10958904v12.92876716c0 1.1650938-.9444952 2.109589-2.109589 2.109589h-17.78082196c-1.16509385 0-2.10958904-.9444952-2.10958904-2.109589v-12.92876716c0-1.16509386.94449519-2.10958904 2.10958904-2.10958904z" fill="#5f4a05"/><path d="m7.63547945 8.96210959h16.72904105c.665768 0 1.2054795.53971153 1.2054795 1.20547941v8.5287672c0 .6657679-.5397115 1.2054794-1.2054795 1.2054794h-16.72904105c-.66576792 0-1.20547945-.5397115-1.20547945-1.2054794v-8.5287672c0-.66576788.53971153-1.20547941 1.20547945-1.20547941z" fill="#71c26e"/><path d="m7.63547945 8.96210959h1.28232877l9.33695218 8.85979251c.4829476.4582669.5029553 1.221272.0446885 1.7042196-.2276155.2398741-.5437754.3757139-.8744541.3757139h-9.78951535c-.66576792 0-1.20547945-.5397115-1.20547945-1.2054794v-8.5287672c0-.66576788.53971153-1.20547941 1.20547945-1.20547941z" fill="#559e53"/><path d="m7.63547945 11.509137h16.72904105c.665768 0 1.2054795.5397115 1.2054795 1.2054794v8.5287672c0 .6657679-.5397115 1.2054794-1.2054795 1.2054794h-16.72904105c-.66576792 0-1.20547945-.5397115-1.20547945-1.2054794v-8.5287672c0-.6657679.53971153-1.2054794 1.20547945-1.2054794z" fill="#2289a3"/><path d="m7.63547945 11.509137h5.80287675l9.3369521 8.8597925c.4829477.4582669.5029554 1.221272.0446885 1.7042196-.2276154.2398741-.5437753.3757139-.874454.3757139h-14.31006335c-.66576792 0-1.20547945-.5397115-1.20547945-1.2054794v-8.5287672c0-.6657679.53971153-1.2054794 1.20547945-1.2054794z" fill="#187086"/><path d="m7.63547945 14.0561644h16.72904105c.665768 0 1.2054795.5397115 1.2054795 1.2054794v7.0520548c0 .6657679-.5397115 1.2054795-1.2054795 1.2054795h-16.72904105c-.66576792 0-1.20547945-.5397116-1.20547945-1.2054795v-7.0520548c0-.6657679.53971153-1.2054794 1.20547945-1.2054794z" fill="#f8be1b"/><path d="m7.63547945 14.0561644h10.32342465l7.5149699 7.1309217-2.4590901 3.2060646h-15.37930445c-.66576792 0-1.20547945-.5397115-1.20547945-1.2054795v-7.9260274c0-.6657679.53971153-1.2054794 1.20547945-1.2054794z" fill="#dfab18"/><path d="m5 16.2260274h6.6943563c.7804704 0 1.5305045.3027819 2.0922405.8446184l.6688827.6451875c.8618771.8313451 2.2271639.8313451 3.089041 0l.6688827-.6451875c.561736-.5418365 1.3117701-.8446184 2.0922405-.8446184h6.6943563v6.2383562c0 1.1650938-.9444952 2.109589-2.109589 2.109589h-17.78082196c-1.16509385 0-2.10958904-.9444952-2.10958904-2.109589z" fill="#85680a"/></g></svg>