<svg height="32" viewBox="0 0 32 32" width="32" xmlns="http://www.w3.org/2000/svg"><g fill="none" fill-rule="evenodd"><path d="m8.65317431 25.6582001v-14.6733087l5.00315209-4.9848914h10.7094246v19.6582001z" fill="#afdfef" transform="matrix(-1 0 0 1 33.018926 0)"/><path d="m24.3646258 10.9837703h-5.014314v-4.9837703h.0122872z" fill="#45889f"/><path d="m24.365751 15.9980244-5.0154392-5.0142541h5.014314l.0011252.0011211z" fill="#8bc6da"/><g fill-rule="nonzero"><path d="m9.19977811 14.2943321h8.93647029c2.193545 0 3.9717646 1.7782196 3.9717646 3.9717646s-1.7782196 3.9717646-3.9717646 3.9717646h-8.93647029c-2.193545 0-3.97176457-1.7782196-3.97176457-3.9717646s1.77821957-3.9717646 3.97176457-3.9717646z" fill="#b75c64"/><path d="m9.73930502 17.9725618c.19931469-.0032409.33845818-.0604025.42840908-.1677494.0935908-.1142125.1388734-.2370127.1388734-.3736766 0-.1214499-.0191611-.2196506-.0514361-.2875052-.0356079-.0640942-.0845579-.1137434-.1541236-.1540752-.10708002-.0677123-.23228486-.1002022-.38272158-.0968962h-.78457031v1.0798859zm-.80556911 2.1292771c0 .2485281-.20147186.45-.45.45h-.04746094c-.24852814 0-.45-.2014719-.45-.45v-3.6714844c0-.2485281.20147186-.45.45-.45h1.246875c.17771985 0 .34967693.0165742.52441283.0517904.1776626.0466364.3541367.1403202.5233747.2747387.1567766.111334.2823692.2683247.3748265.4641619.0992954.1941776.1482844.4206158.1482844.6776684 0 .3530124-.1246158.6754831-.3688861.9604471-.2582539.3090218-.63373.467117-1.11705139.4756857h-.834375zm3.55917969-4.1214844h1.1951541c.6296294.0042577 1.1116441.2713199 1.4257445.7892792.1147456.1775309.1878902.365305.2192044.5671323.0224227.1834591.0333345.4919641.0333345.9293307 0 .467533-.0169668.7948918-.0519315.9861074-.01756.1031648-.0442803.196686-.0825484.2849748-.0356506.0754953-.0783285.1535648-.1283467.2348416-.1381233.2222922-.3297402.4052971-.5682884.545384-.2461942.1568671-.5446128.2344344-.8921272.2344344h-1.1501953c-.2485281 0-.45-.2014719-.45-.45v-3.6714844c0-.2485281.2014719-.45.45-.45zm1.1208984 3.6591797c.3156173 0 .5314362-.1015148.673155-.3148543.0548949-.0697313.0909429-.161002.1067468-.274712.0165427-.1305037.0251764-.3856768.0251764-.7604337 0-.3660051-.0086414-.6271659-.0247864-.7751551-.0194226-.1327215-.063501-.2355711-.1400487-.3233702-.1501189-.2072294-.3569013-.3050534-.6402431-.2983497h-.6234375v2.746875zm3.6558594.4623047c0 .2485281-.2014719.45-.45.45h-.0474609c-.2485282 0-.45-.2014719-.45-.45v-3.6714844c0-.2485281.2014718-.45.45-.45h2.127539c.2485282 0 .45.2014719.45.45v.0123047c0 .2485281-.2014718.45-.45.45h-1.6300781v.9597656h1.3382813c.2414088 0 .4371093.1957006.4371093.4371094s-.1957005.4371094-.4371093.4371094h-1.3382813z" fill="#fff"/></g></g></svg>