<svg height="32" viewBox="0 0 32 32" width="32" xmlns="http://www.w3.org/2000/svg"><path d="m10.5 5.9h9.05l.07.01c.03 0 .06.01.08.02l.005.00875c.035.01125.055.02125.075.03125h.01c.03.01.05.02.07.04l.01.01.03.02125 6.03 6.02875.06.07.04.07.03.07.00875.005.02125.085c.01.02.01.04.01.07v13.06c0 .33-.27.6-.6.6h-15c-.33 0-.6-.27-.6-.6l-.00098646-1.563-.69923543.0008613c-2.78304858 0-5.05266655-2.1982578-5.16722747-4.9531468l-.0045371-.2186178c0-2.7830486 2.19825776-5.0526666 4.95314681-5.1672275l.21861776-.0045371.69923543-.0003321.00098646-7.094c0-.33.27-.6.6-.6zm7.6362484 8.8943321h-8.93647029c-2.193545 0-3.97176457 1.7782196-3.97176457 3.9717646 0 2.1270739 1.67208158 3.8636123 3.77353346 3.9669038l.19823111.0048608h8.93647029c2.193545 0 3.9717646-1.7782196 3.9717646-3.9717646s-1.7782196-3.9717646-3.9717646-3.9717646zm-8.45309843 1.6860224c.17771985 0 .34967693.0165742.52441283.0517904.1776626.0466364.3541367.1403202.5233747.2747387.1567766.111334.2823692.2683247.3748265.4641619.0992954.1941776.1482844.4206158.1482844.6776684 0 .3530124-.1246158.6754831-.3688861.9604471-.2259722.2703941-.5416926.425235-.94087943.4654607l-.17617196.010225h-.834375v1.2169922c0 .2209139-.15918765.4046475-.36911193.4427499l-.08088807.0072501h-.04746094c-.2209139 0-.40464753-.1591877-.4427499-.3691119l-.0072501-.0808881v-3.6714844c0-.2209139.15918765-.4046475.36911193-.4427499l.08088807-.0072501zm4.00491973 0c.6296294.0042577 1.1116441.2713199 1.4257445.7892792.1147456.1775309.1878902.365305.2192044.5671323l.0164144.1879631c.0113529.1823039.0169201.4289629.0169201.7413676l-.0041792.3665082c-.0069853.2769732-.0227775.4830166-.0477523.6195992-.01756.1031648-.0442803.196686-.0825484.2849748-.0356506.0754953-.0783285.1535648-.1283467.2348416-.1381233.2222922-.3297402.4052971-.5682884.545384-.2051619.1307226-.4465906.2063759-.7224758.2279624l-.1696514.006472h-1.1501953c-.2209139 0-.4046475-.1591877-.4427499-.3691119l-.0072501-.0808881v-3.6714844c0-.2209139.1591876-.4046475.3691119-.4427499l.0808881-.0072501zm5.2116818 0c.2209139 0 .4046476.1591877.4427499.3691119l.0072501.0931928c0 .2209139-.1591876.4046475-.3691119.4427499l-.0808881.0072501h-1.6300781v.9597656h1.3382813c.2414088 0 .4371093.1957006.4371093.4371094 0 .2145856-.1546275.3930561-.3585384.430067l-.0785709.0070424h-1.3382813v1.3751953c0 .2209139-.1591876.4046475-.3691119.4427499l-.0808881.0072501h-.0474609c-.2209139 0-.4046476-.1591877-.4427499-.3691119l-.0072501-.0808881v-3.6714844c0-.2209139.1591876-.4046475.3691119-.4427499l.0808881-.0072501zm-5.2859375.9123047h-.6234375v2.746875h.6234375c.3156173 0 .5314362-.1015148.673155-.3148543.0548949-.0697313.0909429-.161002.1067468-.274712.0141794-.1118603.0225482-.3153145.0246499-.6071599l-.0001884-.3275008c-.002374-.275688-.0106173-.4776037-.0240715-.6009281-.0194226-.1327215-.063501-.2355711-.1400487-.3233702-.1501189-.2072294-.3569013-.3050534-.6402431-.2983497zm-3.89550778 0h-.78457031v1.0798859l.80556911.0000167c.19931469-.0032409.33845818-.0604025.42840908-.1677494.0935908-.1142125.1388734-.2370127.1388734-.3736766 0-.1214499-.0191611-.2196506-.0514361-.2875052-.0356079-.0640942-.0845579-.1137434-.1541236-.1540752-.10708002-.0677123-.23228486-.1002022-.38272158-.0968962zm10.38169378-9.4626592v3.95h3.95z"/></svg>