<svg height="32" viewBox="0 0 32 32" width="32" xmlns="http://www.w3.org/2000/svg"><path d="m9.9 14.7943321v-8.2943321c0-.33.27-.6.6-.6h9.05l.07.01c.03 0 .06.01.08.02 0 .01.01.01.01.01.03.01.05.02.07.03h.01c.03.01.05.02.07.04l.01.01c.02.01.04.03.06.05l6 6 .05.06.01.01.04.07.03.07c.01 0 .01.01.01.01l.02.08c.01.02.01.04.01.07v13.06c0 .33-.27.6-.6.6h-15c-.33 0-.6-.27-.6-.6v-2.7621387h-.70022189c-2.193545 0-3.97176457-1.7782196-3.97176457-3.9717646s1.77821957-3.9717646 3.97176457-3.9717646zm1.2 7.9435292v2.1421387h13.8v-11.8h-5.4c-.33 0-.6-.27-.6-.6v-5.4h-7.8v7.7143321h7.0362484c2.193545 0 3.9717646 1.7782196 3.9717646 3.9717646s-1.7782196 3.9717646-3.9717646 3.9717646zm9-14.8078613v3.95h3.95zm-10.36069498 10.5425618-.80556911-.0000167v-1.0798859h.78457031c.15043672-.003306.27564156.0291839.38272158.0968962.0695657.0403318.1185157.089981.1541236.1540752.032275.0678546.0514361.1660553.0514361.2875052 0 .1366639-.0452826.2594641-.1388734.3736766-.0899509.1073469-.22909439.1645085-.42840908.1677494zm-.80556911 2.1292771v-1.2169922h.834375c.48332139-.0085687.85879749-.1666639 1.11705139-.4756857.2442703-.284964.3688861-.6074347.3688861-.9604471 0-.2570526-.048989-.4834908-.1482844-.6776684-.0924573-.1958372-.2180499-.3528279-.3748265-.4641619-.169238-.1344185-.3457121-.2281023-.5233747-.2747387-.1747359-.0352162-.34669298-.0517904-.52441283-.0517904h-1.246875c-.24852814 0-.45.2014719-.45.45v3.6714844c0 .2485281.20147186.45.45.45h.04746094c.24852814 0 .45-.2014719.45-.45zm3.55917969-4.1214844c-.2485281 0-.45.2014719-.45.45v3.6714844c0 .2485281.2014719.45.45.45h1.1501953c.3475144 0 .645933-.0775673.8921272-.2344344.2385482-.1400869.4301651-.3230918.5682884-.545384.0500182-.0812768.0926961-.1593463.1283467-.2348416.0382681-.0882888.0649884-.18181.0825484-.2849748.0349647-.1912156.0519315-.5185744.0519315-.9861074 0-.4373666-.0109118-.7458716-.0333345-.9293307-.0313142-.2018273-.1044588-.3896014-.2192044-.5671323-.3141004-.5179593-.7961151-.7850215-1.4257445-.7892792zm1.1208984 3.6591797h-.6234375v-2.746875h.6234375c.2833418-.0067037.4901242.0911203.6402431.2983497.0765477.0877991.1206261.1906487.1400487.3233702.016145.1479892.0247864.40915.0247864.7751551 0 .3747569-.0086337.62993-.0251764.7604337-.0158039.11371-.0518519.2049807-.1067468.274712-.1417188.2133395-.3575377.3148543-.673155.3148543zm3.6558594.4623047v-1.3751953h1.3382813c.2414088 0 .4371093-.1957006.4371093-.4371094s-.1957005-.4371094-.4371093-.4371094h-1.3382813v-.9597656h1.6300781c.2485282 0 .45-.2014719.45-.45v-.0123047c0-.2485281-.2014718-.45-.45-.45h-2.127539c-.2485282 0-.45.2014719-.45.45v3.6714844c0 .2485281.2014718.45.45.45h.0474609c.2485281 0 .45-.2014719.45-.45z"/></svg>