<svg height="32" viewBox="0 0 32 32" width="32" xmlns="http://www.w3.org/2000/svg"><path d="m11.8041171 19.4356864 2.7834879 2.9075347-1.4178232 1.3550393c-.3992643.3815841-.4135969 1.0145868-.0320128 1.4138511.0025238.0026408.0050621.0052677.0076147.0078807l.9459547.9683141c.4916133.5032335.4821932 1.3097162-.0210403 1.8013295-.0163823.016004-.0331932.0315633-.0504144.0466609-.5697282.4994729-1.4285098.47404-1.9676817-.0582731l-2.11045644-2.0836098c-1.13851804-1.1240352-1.19463629-2.9437215-.12754537-4.1357766zm8.331327 0-2.7834879 2.9075347 1.4178232 1.3550393c.3992643.3815841.4135969 1.0145868.0320128 1.4138511-.0025238.0026408-.0050621.0052677-.0076147.0078807l-.9459547.9683141c-.4916133.5032335-.4821932 1.3097162.0210403 1.8013295.0163823.016004.0331932.0315633.0504144.0466609.5697282.4994729 1.4285099.47404 1.9676817-.0582731l2.1104564-2.0836098c1.1385181-1.1240352 1.1946363-2.9437215.1275454-4.1357766zm-3.7803006-8.4939597c2.2893357 0 3.705349.4811253 4.6675997 1.3362059l.1221435.1146419c.8084129.7877393 4.0118859 4.2679309 4.0118859 4.2679309.5426911.5084879.5700537 1.3635685.0615658 1.9062596-.2576643.275906-.6224986.4172793-.9804923.4172793-.328351 0-.6589821-.1140107-.9166464-.3557135l-3.1535371-2.9483177-.0201154 2.6549313h-8.298l-.0183499-2.6458105-3.15353702 2.9391969c-.25766428.2417028-.58829542.3557135-.91664635.3557135-.35571351 0-.72282809-.1413733-.98049237-.4172793-.4724605-.5065117-.48210834-1.2851493-.03821302-1.800136l2.82360516-3.0351186c.6591051-.7003968 1.2275176-1.2934262 1.4102031-1.4535778.9622506-.8550806 2.378264-1.3362059 4.6675997-1.3362059zm-.2214007-8.10178227c2.102358 0 3.7942774 1.69419959 3.7942774 3.78515656 0 2.1114789-1.6919194 3.80339831-3.7942774 3.80339831-2.0932372 0-3.7942774-1.69191941-3.7942774-3.80339831 0-2.09095697 1.7010402-3.78515656 3.7942774-3.78515656z" fill-rule="evenodd"/></svg>