<svg height="32" viewBox="0 0 32 32" width="32" xmlns="http://www.w3.org/2000/svg"><path d="m20.3642897 17.9991743c.0055041.0334936.0083667.0678768.0083667.1029286 0 .0382468-.0034082.0756976-.0099375.1120653l-.007034.8428632 2.1970902 2.2131304c1.0076402.9600262 1.046239 2.555135.0862128 3.5627752l-.0334151.0344106-2.9514409 2.9820461c-.8293896.8307339-1.9687354.8110722-2.6957746.0762108-.7200475-.7277946-.7454926-1.8666072.0641996-2.6803859l1.0423966-1.0423966-1.4063054-1.4006119h-1.3171214l-1.4063058 1.4006118 1.0435177 1.0435203c.8085715.8126551.7831264 1.9514677.0630789 2.6792623-.7270392.7348614-1.866385.7545231-2.6977065-.0781542l-2.94950905-2.9801027-.03341506-.0344106c-.96002621-1.0076402-.92142742-2.602749.08621281-3.5627752l2.1960436-2.2121333-.0073561-.8856737c-.0025591-.0230646-.003873-.0465048-.003873-.0702519 0-.0205703.0009859-.0409103.002913-.0609754l-.0064548-.8823311-1.78767261 1.6661649c-.34308995.3218366-.7913749.4906606-1.25599986.4906606-.50276394 0-.99654224-.2046966-1.34313667-.5758289-.69347933-.7434598-.65586013-1.9115843.05449697-2.5718784.114815-.1248115.31593154-.3429801.57516995-.6234143.43207759-.4674051.86586404-.9348341 1.27324378-1.3712629l.04172689-.0446926c1.00873565-1.080191 1.66213845-1.7639834 1.87361175-1.9493529.716688-.6368674 1.6351842-1.0426501 2.8291295-1.2333713-1.0933552-.7243325-1.8136359-1.96712958-1.8136359-3.38324773 0-2.22935661 1.812549-4.03664091 4.0448497-4.03664091 2.2379079 0 4.0448497 1.80468874 4.0448497 4.03664091 0 1.43928191-.7400138 2.69780353-1.8612018 3.41651863 1.0996913.2024008 1.9565164.5972492 2.6317534 1.1972945.2145914.188122.8683932.8719853 1.8777115 1.9521729l.0416129.0445444c.4076148.436426.8416603.9038525 1.2740014 1.3712552.2593965.2804329.4606374.4986001.5427541.5903495.7423106.6955262.779934 1.8637808.0850931 2.6053585-.346704.3712494-.838706.5755554-1.3428814.5755554-.4646249 0-.9129099-.168824-1.2552333-.4899427l-1.7884479-1.672063zm-.6151202 2.1831117-1.9219405 2.0054684 1.2391441 1.2341277c.4316834.4316816.4316834 1.129746.0011304 1.560299l-1.1528714 1.1528686c-.3108105.3123802-.3030596.6592774-.0605658.9043802.2413444.243941.578889.249766.9064581-.0783255l2.949509-2.9801027.0167075-.0172053c.4800131-.5038201.4607137-1.3013745-.0431064-1.7813876zm-.6410625-2.7101831.0128936-1.764712c.0040105-.5489079.6592604-.8304773 1.0602348-.4555967l2.8389499 2.6542039c.1038667.0974324.2424523.1496238.3939635.1496238.1621592 0 .3188149-.065052.4227143-.1763058.2198803-.2346705.2079362-.6055506-.0592043-.8582112-.114236-.1241039-.3147991-.3415363-.5734474-.6211603-.431067-.4660252-.8637891-.9320266-1.2698606-1.3668001l-.0414256-.044344c-.9549472-1.0219989-1.6219209-1.7196398-1.7908489-1.8677498-.780827-.6938628-1.9513053-1.0435147-3.7823598-1.0435147h-.6402843c-1.8310544 0-3.0015328.3496519-3.7855387 1.0463206-.1656693.1452343-.8322611.8428292-1.7865001 1.8646632l-.0415384.0444907c-.40583194.4347706-.83829122.9007695-1.26909106 1.3667924-.25848804.2796225-.45892487.4970537-.6069539.6552629-.2344469.2187517-.24639024.589608-.02681498.8250086.10262495.1098905.26100572.1755475.42200487.1755475.15151121 0 .29009688-.0521914.39544189-.1510061l2.83818338-2.6452772c.4012125-.3739428 1.0555107-.0921868 1.0595229.4562552l.01285 1.7565091zm-8.7915667 4.7103059c-.50382011.4800131-.5231195 1.2775675-.0431064 1.7813876l.0167075.0172053 2.9475771 2.9781592c.329501.330035.6670456.32421.9083899.080269.2424939-.2451028.2502448-.592-.059445-.9032567l-1.1539921-1.1539921c-.430553-.430553-.430553-1.1286174.000452-1.559622l1.2402011-1.2351814-1.9203194-2.0139383zm5.8039156-11.8267775c1.545212 0 2.7848497-1.24169853 2.7848497-2.79305843 0-1.53572123-1.2424689-2.77664091-2.7848497-2.77664091-1.5372411 0-2.7848497 1.24398485-2.7848497 2.77664091 0 1.54828723 1.2447712 2.79305843 2.7848497 2.79305843z"/></svg>