<svg height="32" viewBox="0 0 32 32" width="32" xmlns="http://www.w3.org/2000/svg"><g fill="none" fill-rule="evenodd"><path d="m11.8614818 19.8288334-.0302845-4.1396995-3.15353702 2.9391969c-.25766428.2417028-.58829542.3557135-.91664635.3557135-.35571351 0-.72282809-.1413733-.98049237-.4172793-.50620768-.5426911-.48112532-1.3977717.06384602-1.9062596 0 0 3.61414042-3.9288101 4.13174922-4.3825728.9622506-.8550806 2.378264-1.3362059 4.6675997-1.3362059h.711427c2.2893357 0 3.705349.4811253 4.6675997 1.3362059.5176087.4537627 4.1340294 4.3825728 4.1340294 4.3825728.5426911.5084879.5700537 1.3635685.0615658 1.9062596-.2576643.275906-.6224986.4172793-.9804923.4172793-.328351 0-.6589821-.1140107-.9166464-.3557135l-3.1535371-2.9483177-.0303045 4.147715 2.6605501 2.5348311c.8397002.8000219.8718659 2.1292792.071844 2.9689794-.0091908.0096466-.0184731.0192055-.0278459.0286755l-3.2772322 3.3112252c-1.4068925 1.4091727-3.2880697-.5426911-1.9336221-1.9039794l1.2822134-1.2822134c.2050252-.2050252.2050252-.5374369 0-.7424621l-.0007538-.0007522-1.8801136-1.8725019.0114905-.011499h-2.087777l.0114905.011499-1.8801136 1.8725019c-.205779.2057774-.205779.5381891-.0007538.7432143l1.2822134 1.2822134c1.3544476 1.3612883-.5267296 3.3131521-1.9336221 1.9039794l-3.27723224-3.3112252c-.00937272-.00947-.0186551-.0190289-.02784588-.0286755-.80002184-.8397002-.76785618-2.1689575.071844-2.9689794zm4.272261-9.4003341c-2.0932372 0-3.7942774-1.69191941-3.7942774-3.80339831 0-2.09095697 1.7010402-3.78515656 3.7942774-3.78515656 2.102358 0 3.7942774 1.69419959 3.7942774 3.78515656 0 2.1114789-1.6919194 3.80339831-3.7942774 3.80339831z" fill="#db769f"/><path d="m11.8468076 18.3356899h8.3116024v1.5215985l-3.126012 3.0064014h-2.064796l-3.1207944-3.0064014z" fill="#ffc3dc"/></g></svg>