<svg height="32" viewBox="0 0 32 32" width="32" xmlns="http://www.w3.org/2000/svg"><path d="m22.8838839 17.3c2.1815248 0 3.95 1.7684752 3.95 3.95s-1.7684752 3.95-3.95 3.95-3.95-1.7684752-3.95-3.95 1.7684752-3.95 3.95-3.95zm-2.2931209-10.37023224c.2648798.13704768.3846333.44399639.2949266.7185683l-.0377483.09004736-8.8150443 17.03733518c-.1522752.2943109-.5143047.4094536-.8086156.2571784-.2648798-.1370477-.3846334-.4439964-.2949267-.7185683l.0377483-.0900473 8.8150443-17.03733525c.1522752-.2943109.5143048-.40945359.8086157-.25717839zm2.2931209 11.57023224c-1.5187831 0-2.75 1.2312169-2.75 2.75s1.2312169 2.75 2.75 2.75 2.75-1.2312169 2.75-2.75-1.2312169-2.75-2.75-2.75zm-13.7677678-11.7c2.1815248 0 3.95 1.76847524 3.95 3.95 0 2.1815248-1.7684752 3.95-3.95 3.95-2.18152477 0-3.95-1.7684752-3.95-3.95 0-2.18152476 1.76847523-3.95 3.95-3.95zm0 1.2c-1.51878307 0-2.75 1.23121694-2.75 2.75 0 1.5187831 1.23121693 2.75 2.75 2.75 1.5187831 0 2.75-1.2312169 2.75-2.75 0-1.51878306-1.2312169-2.75-2.75-2.75z"/></svg>