<svg height="32" viewBox="0 0 32 32" width="32" xmlns="http://www.w3.org/2000/svg"><path d="m20.7745754 6.57450308c.4554811.235664.6534841.77276071.4762463 1.24102275l-.0476157.10667001-8.8150443 17.03733526c-.253792.4905181-.8571746.6824226-1.3476928.4286306-.4554811-.235664-.6534841-.7727607-.4762463-1.2410227l.0476157-.1066701 8.8150443-17.03733518c.253792-.49051816.8571746-.68242263 1.3476928-.42863064zm2.1093085 10.72549692c2.1815248 0 3.95 1.7684752 3.95 3.95s-1.7684752 3.95-3.95 3.95-3.95-1.7684752-3.95-3.95 1.7684752-3.95 3.95-3.95zm0 2c-1.0769553 0-1.95.8730447-1.95 1.95s.8730447 1.95 1.95 1.95 1.95-.8730447 1.95-1.95-.8730447-1.95-1.95-1.95zm-13.7677678-12.5c2.1815248 0 3.95 1.76847524 3.95 3.95 0 2.1815248-1.7684752 3.95-3.95 3.95-2.18152477 0-3.95-1.7684752-3.95-3.95 0-2.18152476 1.76847523-3.95 3.95-3.95zm0 2c-1.07695527 0-1.95.87304474-1.95 1.95 0 1.0769553.87304473 1.95 1.95 1.95 1.0769553 0 1.95-.8730447 1.95-1.95 0-1.07695526-.8730447-1.95-1.95-1.95z" fill="#4da86d"/></svg>