<svg height="32" viewBox="0 0 32 32" width="32" xmlns="http://www.w3.org/2000/svg"><path d="m20.6826692 6.75213542c.3597133.18611413.5186918.60723084.3863027.97838361l-.0433982.0997706-8.8150443 17.03733517c-.2030336.3924146-.6857397.5459382-1.0781542.3429046-.3597134-.1861142-.5186919-.6072309-.3863028-.9783836l.0433982-.0997706 8.8150444-17.03733527c.2030336-.39241453.6857396-.5459381 1.0781542-.34290451zm2.2012147 10.54786458c2.1815248 0 3.95 1.7684752 3.95 3.95s-1.7684752 3.95-3.95 3.95-3.95-1.7684752-3.95-3.95 1.7684752-3.95 3.95-3.95zm0 1.6c-1.2978692 0-2.35 1.0521308-2.35 2.35s1.0521308 2.35 2.35 2.35 2.35-1.0521308 2.35-2.35-1.0521308-2.35-2.35-2.35zm-13.7677678-12.1c2.1815248 0 3.95 1.76847524 3.95 3.95 0 2.1815248-1.7684752 3.95-3.95 3.95-2.18152477 0-3.95-1.7684752-3.95-3.95 0-2.18152476 1.76847523-3.95 3.95-3.95zm0 1.6c-1.29786917 0-2.35 1.05213084-2.35 2.35 0 1.2978692 1.05213083 2.35 2.35 2.35 1.2978692 0 2.35-1.0521308 2.35-2.35 0-1.29786916-1.0521308-2.35-2.35-2.35z"/></svg>