<svg height="32" viewBox="0 0 32 32" width="32" xmlns="http://www.w3.org/2000/svg"><g fill="none"><path d="m21.1540792 25.2820504c.1764132.2352177.2032576.5326333.0717707.795607-.1315375.2629738-.3855462.4199882-.6795683.4199882h-9.1169637c-.2940221 0-.5480308-.1570144-.6795684-.4199882-.1314868-.2629737-.1046425-.5603893.0717708-.795607l.7997097-1.0662796c1.3846641.5011798 2.8569525.7623808 4.3665697.7623808 1.5096173 0 2.9819056-.2611504 4.3665698-.7623808z" fill="#8bc6da"/><path d="m14.5774381 13.6340598c.8974814-.8974814 2.008307-1.5840113 3.2123858-1.9853494 1.551806-.5172255 2.9472415-1.3658169 4.0353682-2.45400822l3.953626-3.95362607c.3782511-.37825109.9937094-.37825109 1.3718312 0 .3782511.37818642.3782511.99364474 0 1.37183116l-3.9536261 3.95362603c-1.1093382 1.1093383-1.9579296 2.4823981-2.4540082 3.9706988-.0133866.040095-.0275492.0801254-.0415824.1201557h-7.1473225z" fill="#af8c1d"/><path d="m27.4099371 14.6184444c-.3908645 5.9867556-5.3645734 10.7382638-11.4221374 10.7382638-6.05756391 0-11.03127281-4.7515082-11.42213731-10.7382638z" fill="#a1e0f1"/><path d="m27.4099371 14.6184444c-.3908645 5.9867556-5.3645734 10.7382638-11.4221374 10.7382638-1.6224597.7207591-2.4336896.7207591-2.4336896 0 3.1530553-2.0792313 4.7255162-5.6586525 4.7173827-10.7382638z" fill="#8bc6da"/><path d="m12.1421255 4.80699999.0004335 2.07304901 2.072441-.000038c.2982338-.00001537.5456507.21756872.5921562.50265504l.0078438.09733396v1.454c0 .33134591-.2686541.59996473-.6.60006386l-2.072441.00022057-.0004335 2.07271557c-.0001948.3313218-.2688037.5998745-.6001255.6h-1.454c-.29823376 0-.54564675-.2175177-.59214701-.5026043l-.00778034-.0973957.00025095-2.07271557-2.0733236-.00022059c-.33134591-.0000991-.6-.26871792-.6-.60006384v-1.454c0-.29823376.21757872-.54564675.5026659-.59214701l.0973341-.00784199 2.0733236.000038-.00025096-2.073049c-.00010148-.29823376.21745164-.54567309.50253263-.59220786l.09739473-.00779214h1.454c.3313218.0001255.5999307.26867817.6001255.59999999z" fill="#4da86d"/></g></svg>