<svg height="32" viewBox="0 0 32 32" width="32" xmlns="http://www.w3.org/2000/svg"><path d="m21.1540792 25.2820504c.1764132.2352177.2032576.5326333.0717707.795607-.1315375.2629738-.3855462.4199882-.6795683.4199882h-9.1169637c-.2940221 0-.5480308-.1570144-.6795684-.4199882-.1314868-.2629737-.1046425-.5603893.0717708-.795607l.7997097-1.0662796c1.3846641.5011798 2.8569525.7623808 4.3665697.7623808 1.5096173 0 2.9819056-.2611504 4.3665698-.7623808zm-3.7894154-13.5289918c.702918-.7029179 1.5729295-1.2406162 2.5159781-1.5549488 1.2153926-.40509712 2.3083139-1.06972377 3.1605475-1.92200793l3.096526-3.09652608c.2962507-.29625067.7782848-.29625067 1.0744342 0 .2962507.29620002.2962507.77823416 0 1.07443418l-3.0965261 3.09652607c-.8688466.86884666-1.5334733 1.94424316-1.9220079 3.10989766-.0104845.0314028-.0215768.0627551-.0325678.0941073h-5.5978664zm10.0452733 2.8653858c-.3908645 5.9867556-5.3645734 10.7382638-11.4221374 10.7382638-6.05756391 0-11.03127281-4.7515082-11.42213731-10.7382638z"/><path d="m12.1421255 4.80699999.0004335 2.07304901 2.072441-.000038c.2982338-.00001537.5456507.21756872.5921562.50265504l.0078438.09733396v1.454c0 .33134591-.2686541.59996473-.6.60006386l-2.072441.00022057-.0004335 2.07271557c-.0001948.3313218-.2688037.5998745-.6001255.6h-1.454c-.29823376 0-.54564675-.2175177-.59214701-.5026043l-.00778034-.0973957.00025095-2.07271557-2.0733236-.00022059c-.33134591-.0000991-.6-.26871792-.6-.60006384v-1.454c0-.29823376.21757872-.54564675.5026659-.59214701l.0973341-.00784199 2.0733236.000038-.00025096-2.073049c-.00010148-.29823376.21745164-.54567309.50253263-.59220786l.09739473-.00779214h1.454c.3313218.0001255.5999307.26867817.6001255.59999999z"/></svg>