<svg height="32" viewBox="0 0 32 32" width="32" xmlns="http://www.w3.org/2000/svg"><g fill="none" fill-rule="evenodd"><path d="m27.4099371 14.0184444c.3467523 0 .621316.2930741.5987253.6390897-.2689372 4.1192317-2.6191957 7.766185-6.1223256 9.7476669l-.2945763.1612427-.1627605.0825563.2050792.2730504c.250216.3336214.3314784.7463698.2345946 1.1368844l-.0447.1452029-.0615089.1419306c-.2119889.4238145-.6128643.6981954-1.0756254.7445803l-.1405579.006997h-9.1169637c-.5212551 0-.9829955-.2853813-1.2162247-.75166-.2098106-.4196212-.1912799-.8995201.0425612-1.2953528l.0859036-.1286327.203442-.2730001-.161161-.0825563c-3.47461729-1.8394138-5.87945586-5.2910832-6.35596373-9.2516439l-.03610107-.3406972-.02483712-.3165685c-.02053703-.3145597.20450811-.5853659.50611531-.6320038l.09261-.0070859zm-.6599371 1.1995556h-21.525l.04127688.2974576c.53361929 3.4904584 2.7353605 6.5043979 5.86008842 8.0841181l.2956246.1438678.2835626.1277921c.3261205.1413804.4526447.5280337.2922375.8304151l-.0509271.0801307-.6453426.860269c-.0400687.053425-.0449561.1075955-.0151558.1671962.0224278.0448384.0540771.0721436.0966611.0829938l.0462923.0054052h9.1169637c.0667521 0 .1130496-.0286144.142912-.0883163.0223813-.0447625.0252274-.0864241.0083636-.1269747l-.0234403-.0402539-.6453804-.8603193c-.2326891-.3101845-.1144574-.7563127.2413105-.9105458 3.3295173-1.4434184 5.7287068-4.4686019 6.3844848-8.0305179l.0547908-.3252601z" fill="#000" fill-rule="nonzero"/><path d="m17.3646638 11.7530586c.702918-.7029179 1.5729295-1.2406162 2.5159781-1.5549488 1.2153926-.40509712 2.3083139-1.06972377 3.1605475-1.92200793l3.096526-3.09652608c.2962507-.29625067.7782848-.29625067 1.0744342 0 .2962507.29620002.2962507.77823416 0 1.07443418l-3.0965261 3.09652607c-.8688466.86884666-1.5334733 1.94424316-1.9220079 3.10989766-.0104845.0314028-.0215768.0627551-.0325678.0941073h-5.5978664z" fill="#1f2325"/><path d="m12.1421255 4.80699999.0004335 2.07304901 2.072441-.000038c.2982338-.00001537.5456507.21756872.5921562.50265504l.0078438.09733396v1.454c0 .33134591-.2686541.59996473-.6.60006386l-2.072441.00022057-.0004335 2.07271557c-.0001948.3313218-.2688037.5998745-.6001255.6h-1.454c-.29823376 0-.54564675-.2175177-.59214701-.5026043l-.00778034-.0973957.00025095-2.07271557-2.0733236-.00022059c-.33134591-.0000991-.6-.26871792-.6-.60006384v-1.454c0-.29823376.21757872-.54564675.5026659-.59214701l.0973341-.00784199 2.0733236.000038-.00025096-2.073049c-.00010148-.29823376.21745164-.54567309.50253263-.59220786l.09739473-.00779214h1.454c.3313218.0001255.5999307.26867817.6001255.59999999z" fill="#000" fill-rule="nonzero"/></g></svg>