<svg height="32" viewBox="0 0 32 32" width="32" xmlns="http://www.w3.org/2000/svg"><g fill="none" fill-rule="evenodd"><path d="m19.9383272 26.7895662c2.6135277-.0285552 4.1966454-1.4229201 4.6893435-1.92917l.7100097-.6141788c1.297567-1.1252685.4926981-2.2665089-.8358438-3.3946804l-.7932552-.6809696c-1.32322-1.1252693-2.668218-1.8096261-3.9754642-.6853241l-.7801861.6809696c-.5720713.4897932-1.6324861 2.7930848-5.7415316-1.9006159-4.10517329-4.6893435-1.6620085-5.4206489-1.0904223-5.9060876l.7855107-.6799996c1.3019243-1.1296238.8092262-2.54480099-.129224-4.00547169l-.5643296-.88424219c-.9442571-1.45631618-1.9712746-2.41073749-3.27319888-1.28643824l-.70565221.60982314c-.57594374.41961685-2.18810259 1.77623149-2.57722774 4.35394208-.47091867 3.0921894 1.0115317 6.6320657 4.41395623 10.5170253 3.3946812 3.8888317 6.7196684 5.839297 9.8675155 5.805418" fill="#4da86d"/><path d="m13.1571027 24.0047443c-3.1067972-3.6955792-4.44921598-7.0703261-3.99787445-10.0339663.38924941-2.5785338 2.00192305-3.9355816 2.57805075-4.35533244l.7058775-.61001787c.2906368-.2509844.5675781-.39840999.8329602-.45980752.5615258 1.14357512.6655234 2.22728083-.3738084 3.12906443l-.7857616.6802167c-.5717687.4855938-3.01571364 1.2171327 1.0907705 5.9079736 1.0374196 1.1850287 1.8805748 1.9241962 2.5706423 2.3592003.2657793.3542095.5766037.7365866.9382251 1.1496671 4.1103576 4.6951996 5.1711111 2.3911725 5.743365 1.9012228l.7804353-.681187c.8993036-.7734495 1.8164679-.69121 2.7321239-.1982972.091205.4853832-.0790583.9701173-.6346384 1.4519242l-.7102365.6143749c-.4928554.5064116-2.0764786 1.9012217-4.6908409 1.929786-2.1863311.0235306-4.4580867-.9098749-6.7792903-2.7848217z" fill="#389157"/></g></svg>