<svg height="32" viewBox="0 0 32 32" width="32" xmlns="http://www.w3.org/2000/svg"><path d="m8.74284153 8.46091903c1.26692337-1.0940736 2.40669897-.55094537 3.47581737 1.04658653l.5453621.85041064c1.0251286 1.5955832 1.206894 2.8546816.1190185 3.9231895l-.1259056.1157238-.6698682.5782071-.1101474.0824626-.273156.1854211c-.5318645.3835876-.6417787.9252724.1168035 2.0820297l.2079977.3022678c.113304.1578053.2407598.3258162.3832395.5049252l.3052495.3732797c.1085993.1295354.2241344.2642677.3468636.4044613l.1832427.2071203c.0599799.0670528.118868.1321308.1766922.1952722l.3344039.3559143c1.5030663 1.5553293 2.21596 1.6521193 2.7524991 1.1268438l.2804083-.298214.101089-.0964128.638479-.5572623c1.1461138-.9857194 2.3750727-.7510279 3.75981.3447485l.258774.2128309.7995981.6879449c1.3702341 1.2172212 1.7650674 2.3400355.6449801 3.4324795l-.1165704.1067091-.549008.4731858-.1214365.119754c-.9826009.9341799-2.3538282 1.6046477-4.1113857 1.6238506-2.7701672.0298142-5.626786-1.6495944-8.49122619-4.9310011-2.87355238-3.2810822-4.15008217-6.3243007-3.73542626-9.047049.25304438-1.6762607 1.06639337-2.90905501 2.122244-3.77330856l.17690434-.13575663zm2.26982337 1.41531958c-.6011188-.81768915-.9889104-.93595284-1.48535151-.50724258l-.59965173.5170539-.18910276.14601857c-.83017887.6797652-1.47912958 1.6633808-1.68308045 3.0144243-.35252376 2.3147738.78903912 5.0362342 3.45236485 8.0772764 2.6560416 3.0426712 5.2137692 4.5463614 7.5748363 4.5209502 1.4200364-.0155152 2.5178167-.5522798 3.2894204-1.2857121l.1423174-.1386923.5646949-.4881252.0901013-.0823889c.4601475-.448942.2758279-.9083454-.7555251-1.7841612l-.6359285-.5460956-.2402517-.1975632c-.9789427-.7745687-1.6120156-.8954652-2.2207935-.3719045l-.6133483.5343787-.0623796.0594581-.2524011.2701772-.1393507.1329254c-1.1914874 1.0594634-2.7657155.6060255-5.0880176-2.0467053-2.43651292-2.783231-2.56769214-4.414847-1.1455562-5.4402251l.2617889-.1770176.0547746-.0399036.6254124-.5410122.0980872-.0900633c.552485-.5428622.4530929-1.2313565-.3016005-2.4060156l-.5327433-.8311577zm8.6864014-3.86075074c2.1711772.07320249 3.7588626 2.10797624 3.3939141 4.24936173-.3523933 2.0696726-2.2552324 3.5094634-3.3681655 5.6582968-.0623498.1204437-.2368441.1204437-.2991939-.0008511-1.2303976-2.3865288-3.425621-4.0465654-3.425621-6.33414307 0-2.01583474 1.6674845-3.64161088 3.6990663-3.57266436zm-.1238484 1.88711328c-.9307781 0-1.6855511.75496448-1.6855511 1.68555108 0 .93058657.754773 1.68555107 1.6855511 1.68555107.9305866 0 1.6855511-.7549645 1.6855511-1.68555107 0-.9305866-.7549645-1.68555108-1.6855511-1.68555108z"/></svg>