<svg height="32" viewBox="0 0 32 32" width="32" xmlns="http://www.w3.org/2000/svg"><g fill="none" fill-rule="evenodd"><path d="m23.7025638 7.11463485c.3295156-.31578579.8524822-.31578579 1.1719019.00363399.3028777.30287767.3281175.77231673.0757195 1.09229145l-.0757195.08332268-2.6310059 2.63100593 2.6248721 2.6341119c.3157858.3295156.3157858.8524822-.0073461 1.175536-.302056.2894703-.7666646.3135929-1.0880363.0695685l-.0838657-.0732025-2.630713-2.6307129-2.6233553 2.6230495c-.1506088.1643005-.3698196.2550084-.5902606.2550084-.2154645 0-.4229336-.0873554-.5865571-.2510571-.2894703-.302056-.3135929-.7666645-.0695685-1.0880362l.0732025-.0838658 2.6307052-2.6307053-2.6343392-2.63441257c-.3157858-.32951561-.3157858-.8524822.0073461-1.17553598.302056-.28947031.7666645-.31359284 1.0880362-.06956848l.0838658.07320247 2.6307053 2.63070527z" fill="#bb3600" fill-rule="nonzero"/><path d="m19.5987683 25.8996016c2.3999337-.0262215 3.8536689-1.30663 4.3061005-1.7715059l.6519832-.5639842c1.1915217-1.0333044.4524317-2.0812754-.7675333-3.1172455l-.7284253-.6253165c-1.2150781-1.0333052-2.4501543-1.661732-3.650564-.6293151l-.7164244.6253165c-.525318.4497642-1.499069 2.5648161-5.2722971-1.7452855-3.76967245-4.3061005-1.5261786-4.9776391-1.0013061-5.4234046l.7213138-.6244257c1.1955228-1.0373038.7430911-2.3368237-.1186629-3.67811911l-.5182091-.8119763c-.8670864-1.33729677-1.8101695-2.2137167-3.00569225-1.18130233l-.64798183.55998451c-.52887396.3853231-2.00927694 1.63106657-2.36660031 3.99811023-.43243221 2.8394761.9288629 6.0900512 4.05321969 9.6575072 3.1172463 3.5710116 6.1704943 5.3620725 9.0610794 5.3309623" fill="#4da86d"/><path d="m13.3717486 23.3423731c-2.85289-3.393553-4.08559781-6.4924941-3.67114277-9.2139268.35743747-2.3677996 1.83831317-3.6139409 2.36735607-3.999387l.6481887-.56016335c.2668841-.23047236.521192-.36584939.7648854-.42222913.5156343 1.05011488.6111326 2.04525328-.3432584 2.87333748l-.7215442.624625c-.5250401.4459079-2.76925034 1.1176609 1.0016258 5.4251365.9526351 1.0881806 1.7268823 1.7669386 2.3605531 2.1663915.2440581.3252612.52948.676388.8615474 1.0557089 3.7744331 4.311478 4.748495 2.1957507 5.2739807 1.7458428l.7166532-.6255161c.8258068-.7102382 1.6680145-.6347199 2.5088374-.182091.0837511.4457145-.0725973.8908331-.5827718 1.3332637l-.6521914.5641642c-.4525762.4650245-1.9067756 1.7458418-4.3074756 1.7720717-2.0076502.0216075-4.0937435-.8355142-6.2252436-2.5572284z" fill="#389157"/></g></svg>