<svg height="32" viewBox="0 0 32 32" width="32" xmlns="http://www.w3.org/2000/svg"><path d="m23.9308433 19.8239052-.69-.59c-.68-.57-2.47-2.1-4.23-.59l-.67.59c-.08.07-.16.15-.23.24-.26.29-.46.48-.8.48h-.01c-.4 0-1.34-.31-3.09-2.3s-1.92-2.96-1.86-3.35c.04-.33.27-.51.59-.72.09-.06.18-.12.27-.19l.68-.59c1.75-1.52.48-3.49999999 0-4.24999999l-.49-.77c-.5-.77-1.19-1.66-2.13-1.8-.55-.08-1.09.11-1.59999996.56l-.59.51c-.63.46-2.09 1.77-2.45 4.13999999-.44 2.86.9 6.09 3.95999996 9.6 3.03 3.47 6.03 5.24 8.93 5.24h.08c2.42-.03 3.92-1.28 4.47-1.83l.6-.52c.52-.45.78-.96.78-1.51-.02-.96-.82-1.76-1.52-2.35zm-.06 2.94-.61.53c-.01.01-.03.02-.04.04-.43.44-1.64 1.47-3.64 1.49h-.06c-2.53 0-5.23-1.62-8.02-4.82-2.81999996-3.22-4.05999996-6.13-3.67999996-8.63.29-1.94999999 1.49-3.00999999 1.99-3.37999999l.04-.03.60999996-.53c.28-.24.47-.28.58-.28.03 0 .05 0 .07.01.34.05.78.47 1.29 1.26l.49.77c.99 1.53999999.8 2.18999999.22 2.68999999l-.68.59c-.03.02-.09.07-.15.1-.35.23-1 .66-1.12 1.56-.14 1.08.56 2.49 2.15 4.3 1.59 1.82 2.89 2.7 3.98 2.71h.02c.89 0 1.41-.57 1.68-.87.05-.05.1-.11.13-.14l.67-.59c.59-.5 1.26-.6 2.66.6l.69.59c.72.61 1.08 1.09 1.08 1.44.02.07.02.28-.35.59z"/></svg>