<svg height="32" viewBox="0 0 32 32" width="32" xmlns="http://www.w3.org/2000/svg"><path d="m8.74284153 8.46091903c1.22167612-1.05499955 2.32512427-.58765198 3.36099597.87948365l.1148214.16710288.5453621.85041064c.9841235 1.5317598 1.1910034 2.7534153.2434966 3.7940444l-.1244781.1291451-.1259056.1157238-.6698682.5782071-.1101474.0824626-.2576481.173852-.1163744.0892606c-.4810808.4001861-.4844579 1.0602034.5297908 2.4425634l.2750752.3609065.3067117.3774848.1692753.2002151.36341.4152227.1766922.1952722.3344039.3559143c.1113382.1152095.2183408.2224162.3212572.3219598l.2967403.275982c1.0449292.9301342 1.6256189.974185 2.0741292.5846635l.0603724-.0557615.2804083-.298214.101089-.0964128.638479-.5572623c1.098359-.9446477 2.2728033-.7684668 3.5875239.2122873l.1722861.1324612.258774.2128309.7995981.6879449c1.3194847 1.1721389 1.7344825 2.2567346.7632274 3.3109686l-.1182473.1215109-.1165704.1067091-.549008.4731858-.1214365.119754c-.9826009.9341799-2.3538282 1.6046477-4.1113857 1.6238506-2.7701672.0298142-5.626786-1.6495944-8.49122619-4.9310011-2.87355238-3.2810822-4.15008217-6.3243007-3.73542626-9.047049.23722911-1.5714944.96691344-2.7532234 1.92719141-3.60692389l.19505259-.16638467.17690434-.13575663zm2.26982337 1.41531958c-.5657589-.76958979-.9425497-.91961931-1.39880657-.57718837l-.08654494.06994579-.59965173.5170539-.18910276.14601857c-.83017887.6797652-1.47912958 1.6633808-1.68308045 3.0144243-.35252376 2.3147738.78903912 5.0362342 3.45236485 8.0772764 2.6560416 3.0426712 5.2137692 4.5463614 7.5748363 4.5209502 1.3253673-.0144809 2.3700137-.4830279 3.1307518-1.1417441l.1586686-.143968.1423174-.1386923.5646949-.4881252.0901013-.0823889c.4371402-.4264949.2926487-.8624312-.6071495-1.6558612l-.7843041-.6743956-.2402517-.1975632c-.9213579-.7290058-1.5363396-.8789802-2.1130445-.4576058l-.107749.0857013-.6133483.5343787-.0623796.0594581-.2524011.2701772-.1393507.1329254c-1.1914874 1.0594634-2.7657155.6060255-5.0880176-2.0467053-2.23806424-2.5565429-2.5453691-4.1762017-1.4150135-5.2224918l.1067063-.0935479.162751-.1241854.2617889-.1770176.0547746-.0399036.6254124-.5410122.0980872-.0900633c.5217914-.5127032.4621245-1.1553066-.1818853-2.2146822l-.1197152-.1913334-.5327433-.8311577zm13.8618008-2.75796977c.3028777.30287767.3281175.77231673.0757195 1.09229145l-.0757195.08332268-2.6310059 2.63100593 2.6248721 2.6341119c.3157858.3295156.3157858.8524822-.0073461 1.175536-.302056.2894703-.7666646.3135929-1.0880363.0695685l-.0838657-.0732025-2.630713-2.6307129-2.6233553 2.6230495c-.1506088.1643005-.3698196.2550084-.5902606.2550084-.2154645 0-.4229336-.0873554-.5865571-.2510571-.2894703-.302056-.3135929-.7666645-.0695685-1.0880362l.0732025-.0838658 2.6307052-2.6307053-2.6343392-2.63441257c-.3157858-.32951561-.3157858-.8524822.0073461-1.17553598.302056-.28947031.7666645-.31359284 1.0880362-.06956848l.0838658.07320247 2.6307053 2.63070527 2.6344126-2.63433926c.3295156-.31578579.8524822-.31578579 1.1719019.00363399z"/></svg>