<svg height="32" viewBox="0 0 32 32" width="32" xmlns="http://www.w3.org/2000/svg"><path d="m11.7200197 9.8412105.5392074.8410252c.7357198 1.1451266 1.1349247 2.2559085.2170179 3.1578278l-.1118133.1031307-.6395047.5536053-.0851381.0645054-.2867981.1949749-.1336011.1030624c-.6086222.5062811-1.1440205 1.5473976 1.3932785 4.4457567 3.1646101 3.6148864 4.1081017 2.1320254 4.5950625 1.6237372l.0792674-.0763965.6351698-.554395c.9823967-.844914 1.9909816-.4351738 2.9876358.3534088l.2488929.2045314.6458096.554395c1.0443039.8868022 1.6911676 1.783523.7837101 2.668882l-.1032279.0948155-.5780374.5000189-.1132879.1118591c-.4994164.4748059-1.7469068 1.4373405-3.7044284 1.4587283-2.5627441.0275818-5.2697025-1.5603427-8.0334006-4.7263416-2.77000222-3.1628465-3.97690357-6.0447517-3.59351645-8.5621835.27878127-1.8467514 1.32863532-2.9236517 1.89612176-3.38831964l.20206628-.15633766.5744898-.49647285c1.02338111-.88375842 1.83812231-.18987728 2.58502421.92618215zm11.9825441-2.72657565c.3295156-.31578579.8524822-.31578579 1.1719019.00363399.3028777.30287767.3281175.77231673.0757195 1.09229145l-.0757195.08332268-2.6310059 2.63100593 2.6248721 2.6341119c.3157858.3295156.3157858.8524822-.0073461 1.175536-.302056.2894703-.7666646.3135929-1.0880363.0695685l-.0838657-.0732025-2.630713-2.6307129-2.6233553 2.6230495c-.1506088.1643005-.3698196.2550084-.5902606.2550084-.2154645 0-.4229336-.0873554-.5865571-.2510571-.2894703-.302056-.3135929-.7666645-.0695685-1.0880362l.0732025-.0838658 2.6307052-2.6307053-2.6343392-2.63441257c-.3157858-.32951561-.3157858-.8524822.0073461-1.17553598.302056-.28947031.7666645-.31359284 1.0880362-.06956848l.0838658.07320247 2.6307053 2.63070527z"/></svg>