<svg height="32" viewBox="0 0 32 32" width="32" xmlns="http://www.w3.org/2000/svg"><path d="m11.7200197 9.8412105.5392074.8410252c.7357198 1.1451266 1.1349247 2.2559085.2170179 3.1578278l-.1118133.1031307-.6395047.5536053-.0851381.0645054-.2867981.1949749c-.6474212.4669286-1.46327761 1.4383849 1.2596774 4.5488191 3.1646101 3.6148864 4.1081017 2.1320254 4.5950625 1.6237372l.0792674-.0763965.6351698-.554395c.9823967-.844914 1.9909816-.4351738 2.9876358.3534088l.2488929.2045314.6458096.554395c1.0443039.8868022 1.6911676 1.783523.7837101 2.668882l-.1032279.0948155-.5780374.5000189-.1132879.1118591c-.4994164.4748059-1.7469068 1.4373405-3.7044284 1.4587283-2.5627441.0275818-5.2697025-1.5603427-8.0334006-4.7263416-2.77000222-3.1628465-3.97690357-6.0447517-3.59351645-8.5621835.27878127-1.8467514 1.32863532-2.9236517 1.89612176-3.38831964l.20206628-.15633766.5744898-.49647285c1.02338111-.88375842 1.83812231-.18987728 2.58502421.92618215zm5.3286905 5.2178007c.1339563-.6302149.7477714-1.0258182 1.3744909-.8926048.6302148.1339563 1.0258181.7477714.8926048 1.3744908-.1339563.6302149-.7477714 1.0258181-1.3744909.8926048-.62401-.1326374-1.0252422-.7504808-.8926048-1.3744908zm.7222955-9.89869653c.7129897-.53866872 1.5310642-.7658448 2.4297206-.67264556l.2263287.02997944.1986647.03711428c1.1536787.24522199 1.9900532.90059664 2.4629337 1.93021489.3333895.67003097.3478167 1.58956273.0544157 2.40296852l-.0797569.20093469-.0595437.11081719-.0220485.06715966c-.3023517.61535267-.7530351 1.07468612-1.4722208 1.58752522l-.223931.1556664-.5905745.3905963c-.44736.2973658-.7107523.5188031-.8165152.6942007l-.0323237.0636744-.0233569.0724561c-.0910651.4284276-.5148728.7036516-.9433004.6125865s-.7036516-.5148728-.6125865-.9433004c.1365813-.6425643.4682416-1.0539725 1.206504-1.5882895l.193159-.1363448.7551332-.50697576c.4919736-.33814674.7893821-.59092138.9861882-.86376511l.1322362-.19504834.0254288-.07903321c.1767285-.34787789.2387333-.80368259.1743351-1.13052459l-.0353723-.13148883-.0229758-.06493595-.0225135-.03834076c-.275414-.57107366-.7141931-.90752622-1.3687404-1.04665455-.595043-.12648029-1.0935117-.03145194-1.5427707.29467047l-.1333487.10477913c-.1292279.11081708-.269058.34771641-.3611927.60145323l-.0418228.12776578-.0322313.1275243c-.0910651.42842761-.5148729.70365156-.9433005.61258647-.4284276-.0910651-.7036515-.51487283-.6125864-.94330043.1062203-.49972734.3405727-1.03035578.6670264-1.4331608l.1454426-.16434205.1743474-.15748806z"/></svg>