<svg height="32" viewBox="0 0 32 32" width="32" xmlns="http://www.w3.org/2000/svg"><path d="m4.6 16.9088839c.33 0 .6.26.6.6.03 4.46 3.53 8.14 7.91 8.48l.01-1.6c0-.23.13-.44.34-.54s.45-.07.63.07l2.72 2.18c.14.11.22.29.22.47s-.08.35-.22.47l-2.75 2.2c-.17.14-.42.17-.63.07s-.34-.32-.34-.54l.01-1.58c-5.04-.35-9.07-4.57-9.1-9.68 0-.33.26-.6.6-.6zm8.0095032-9.13180241c.72962.10866681 1.2591933.5686488 1.7980949 1.34989779l.1350409.20198793.4331994.68117699.1345613.2237247c.0206786.0362228.0412451.0732493.0628428.1130836.381227.7031257.5535214 1.3867615.3895048 2.0817842-.0962139.4077082-.3079685.7814796-.63653 1.1092559l-.1479672.1376243-.5086135.440156-.3029933.2396693-.1957913.1305882-.0014004.0312419c.0044371.0653441.0383647.1928322.1294106.3865851.1784569.3797705.5189328.8712294 1.052027 1.4774336.5336933.6068856.9797513 1.0104813 1.3373163 1.2409121.1902469.1226035.3197823.1757812.3871182.188056l.0284778.0028609.151818-.173123.1324906-.137512c.023801-.0235234.0477883-.0467287.070952-.0686855l.0952691-.087237.4824921-.4248146.1240268-.1007904c1.0261289-.7883489 2.1060284-.6122546 3.1457435.1131938l.1931615.1408228.0946676.0742467.2323274.1916163.6575689.5639502.1714531.1575596c.6042853.5754143.9389038 1.1303687.9532871 1.8260866 0 .5205803-.2180136.9960878-.6208654 1.3968719l-.1410843.1307866-.3955466.3407892c-.7901484.7901485-1.8879428 1.3804211-3.3145927 1.4671035l-.289721.010532-.3080401-.0055136c-2.1772039-.09553-4.374068-1.4314186-6.5541223-3.9280487-2.28600762-2.6221853-3.30170834-5.0809476-2.95815708-7.3140236.21874318-1.4400594.92978384-2.50209943 1.77341588-3.17887906l.1703877-.13021698.4151373-.3588064c.4885283-.4310544 1.0450718-.62610469 1.6236326-.54194687zm-.7320834 1.36246199-.102204.08330837-.4582932.39347925c-.7179738.5242348-1.3241 1.369091-1.50377431 2.5519396-.2812248 1.8279613.60086571 3.963286 2.67615141 6.343761 1.9745547 2.2612888 3.8838558 3.4272678 5.6774437 3.516928l.2730684.0056031c1.1229719-.0139211 1.9916239-.4216817 2.6470443-1.0151924l.1474844-.1401667.4271846-.3702264c.2434449-.2106735.3475341-.4128466.3476642-.6080465-.0066579-.3195791-.2455323-.6721438-.7215087-1.09824l-.6385455-.5478933-.2750625-.2239173-.1541387-.1126058c-.6588691-.4597178-1.2036745-.5485567-1.7280026-.1457286l-.067892.0548681-.4780772.4209894c-.0289174.0253027-.0837336.0777596-.1332256.1274727l-.1997721.2136334c-.2834591.2912448-.5245303.4242724-.9072345.4242724-.6644403 0-1.5262375-.5553805-2.6559664-1.8400436-1.1326463-1.2879807-1.5669956-2.2123102-1.4683196-2.8516811.046585-.3843259.2189313-.6105083.5506342-.8489367l.1319241-.0903174.2100367-.1673026.5175484-.4460631c.2266668-.1968764.3520996-.3996056.4032402-.6163148.0824617-.3494329-.0224156-.7655689-.2765045-1.2342042l-.0607699-.1086251-.0655579-.1097125-.4587685-.72272493c-.4087069-.62940855-.7583185-.9629033-1.0984742-1.01356831-.1463944-.02129373-.2963148.01050557-.4584884.10844857zm5.8725802-6.58065955c.21.1.34.31.34.54l-.01 1.58c5.04.35 9.07 4.57 9.1 9.67999997 0 .33-.27.6-.6.6s-.6-.27-.61-.6c-.03-4.45999997-3.53-8.13999997-7.91-8.47999997l-.01 1.6c0 .23-.13.44-.34.54s-.45.07-.63-.07l-2.72-2.18c-.14-.11-.22-.29-.22-.47s.08-.35.22-.47l2.75-2.2c.18-.14.43-.17.64-.07z"/></svg>