<svg height="32" viewBox="0 0 32 32" width="32" xmlns="http://www.w3.org/2000/svg"><path d="m11.7200197 9.8412105.5392074.8410252c.7357198 1.1451266 1.1349247 2.2559085.2170179 3.1578278l-.1118133.1031307-.6395047.5536053-.0851381.0645054-.2867981.1949749-.1336011.1030624-.0903692.0801188c-.5641111.5349171-.9267863 1.6121967 1.4836477 4.3656379 3.1646101 3.6148864 4.1081017 2.1320254 4.5950625 1.6237372l.0792674-.0763965.6351698-.554395c.9823967-.844914 1.9909816-.4351738 2.9876358.3534088l.2488929.2045314.6458096.554395c1.0443039.8868022 1.6911676 1.783523.7837101 2.668882l-.1032279.0948155-.5780374.5000189-.1132879.1118591c-.4994164.4748059-1.7469068 1.4373405-3.7044284 1.4587283-2.5627441.0275818-5.2697025-1.5603427-8.0334006-4.7263416-2.77000222-3.1628465-3.97690357-6.0447517-3.59351645-8.5621835.27878127-1.8467514 1.32863532-2.9236517 1.89612176-3.38831964l.20206628-.15633766.5744898-.49647285c1.02338111-.88375842 1.83812231-.18987728 2.58502421.92618215zm7.9790466-3.82572263c2.1711772.07320249 3.7588626 2.10797624 3.3939141 4.24936173-.3523933 2.0696726-2.2552324 3.5094634-3.3681655 5.6582968-.0623498.1204437-.2368441.1204437-.2991939-.0008511-1.2303976-2.3865288-3.425621-4.0465654-3.425621-6.33414307 0-2.01583474 1.6674845-3.64161088 3.6990663-3.57266436zm-.1238484 1.88711328c-.9307781 0-1.6855511.75496448-1.6855511 1.68555108 0 .93058657.754773 1.68555107 1.6855511 1.68555107.9305866 0 1.6855511-.7549645 1.6855511-1.68555107 0-.9305866-.7549645-1.68555108-1.6855511-1.68555108z"/></svg>