<svg height="32" viewBox="0 0 32 32" width="32" xmlns="http://www.w3.org/2000/svg"><path d="m4.6 16.9088839c.33 0 .6.26.6.6.03 4.46 3.53 8.14 7.91 8.48l.01-1.6c0-.23.13-.44.34-.54s.45-.07.63.07l2.72 2.18c.14.11.22.29.22.47s-.08.35-.22.47l-2.75 2.2c-.17.14-.42.17-.63.07s-.34-.32-.34-.54l.01-1.58c-5.04-.35-9.07-4.57-9.1-9.68 0-.33.26-.6.6-.6zm7.0770057-8.08717691-.1073142.08747378-.4812078.41315321c-.7538725.55044659-1.39030502 1.43754562-1.57896304 2.67953662-.29528604 1.9193593.63090894 4.1614503 2.80995894 6.6609491 2.0732825 2.3743531 4.0780486 3.5986311 5.9613159 3.6927743l.2867218.0058833c1.1791206-.0146172 2.0912052-.4427659 2.7793966-1.0659521l.1548586-.147175.4485438-.3887377c.2556172-.2212072.3649108-.4334889.3650474-.6384488-.0069908-.3355581-.2578089-.705751-.7575841-1.153152l-.6704728-.575288-.2888156-.2351132-.1618457-.118236c-.6918126-.4827037-1.2638581-.5759845-1.8144027-.1530151l-.0712865.0576116-.5019811.4420388c-.0303633.0265679-.0879203.0816475-.1398869.1338463l-.2097607.2243151c-.2976321.3058071-.5507569.445486-.9525963.445486-.6976623 0-1.6025493-.5831495-2.7887647-1.9320458-1.1892786-1.3523797-1.6453454-2.3229257-1.5417355-2.9942651.0489142-.4035422.2298778-.6410337.5781659-.8913835l.1385202-.0948334.2205386-.1756677.5434258-.4683662c.2380002-.2067202.3697046-.4195859.4234022-.6471306.0865848-.3669045-.0235364-.8038473-.2903297-1.2959144l-.0638084-.1140563-.0688358-.1151982-.481707-.75886111c-.4291421-.66087897-.7962343-1.01104847-1.1533978-1.06424673-.1537141-.02235841-.3111305.01103086-.4814128.11387101zm6.0729943-6.26282306c.21.1.34.31.34.54l-.01 1.58c5.04.35 9.07 4.57 9.1 9.67999997 0 .33-.27.6-.6.6s-.6-.27-.61-.6c-.03-4.45999997-3.53-8.13999997-7.91-8.47999997l-.01 1.6c0 .23-.13.44-.34.54s-.45.07-.63-.07l-2.72-2.18c-.14-.11-.22-.29-.22-.47s.08-.35.22-.47l2.75-2.2c.18-.14.43-.17.64-.07z"/></svg>