<svg height="32" viewBox="0 0 32 32" width="32" xmlns="http://www.w3.org/2000/svg"><path d="m19.9087565 26.2446286c2.4587408-.026864 3.9480979-1.3386472 4.4116158-1.8149143l.6679592-.5778039c1.2207183-1.0586242.4635179-2.1322743-.7863408-3.1936295l-.7462744-.640639c-1.2448519-1.058625-2.5101921-1.7024505-3.7400162-.6447357l-.7339794.6406391c-.5381902.4607851-1.5358017 2.6276635-5.4014878-1.7880514-3.86204327-4.4116158-1.5635756-5.0996095-1.0258418-5.556298l.7389887-.6397264c1.2248175-1.0627215.7612996-2.39408446-.1215707-3.76824654l-.530907-.8318727c-.8883332-1.37006546-1.8545253-2.2679609-3.0793428-1.21024858l-.66385977.57370619c-.54183331.39476493-2.05851161 1.67103369-2.42459071 4.09607863-.44302839 2.9090537.95162345 6.2392799 4.15253848 9.8941516 3.1936303 3.6585146 6.3216941 5.4934631 9.2831092 5.4615905" fill-rule="evenodd"/></svg>