<svg height="32" viewBox="0 0 32 32" width="32" xmlns="http://www.w3.org/2000/svg"><g fill="none" fill-rule="evenodd"><path d="m17.0487102 15.0590112c.1339563-.6302149.7477714-1.0258182 1.3744909-.8926048.6302148.1339563 1.0258181.7477714.8926048 1.3744908-.1339563.6302149-.7477714 1.0258181-1.3744909.8926048-.62401-.1326374-1.0252422-.7504808-.8926048-1.3744908zm.7222955-9.89869653c.7129897-.53866872 1.5310642-.7658448 2.4297206-.67264556l.2263287.02997944.1986647.03711428c1.1536787.24522199 1.9900532.90059664 2.4629337 1.93021489.3333895.67003097.3478167 1.58956273.0544157 2.40296852l-.0797569.20093469-.0595437.11081719-.0220485.06715966c-.3023517.61535267-.7530351 1.07468612-1.4722208 1.58752522l-.223931.1556664-.5905745.3905963c-.44736.2973658-.7107523.5188031-.8165152.6942007l-.0323237.0636744-.0233569.0724561c-.0910651.4284276-.5148728.7036516-.9433004.6125865s-.7036516-.5148728-.6125865-.9433004c.1365813-.6425643.4682416-1.0539725 1.206504-1.5882895l.193159-.1363448.7551332-.50697576c.4919736-.33814674.7893821-.59092138.9861882-.86376511l.1322362-.19504834.0254288-.07903321c.1767285-.34787789.2387333-.80368259.1743351-1.13052459l-.0353723-.13148883-.0229758-.06493595-.0225135-.03834076c-.275414-.57107366-.7141931-.90752622-1.3687404-1.04665455-.595043-.12648029-1.0935117-.03145194-1.5427707.29467047l-.1333487.10477913c-.1292279.11081708-.269058.34771641-.3611927.60145323l-.0418228.12776578-.0322313.1275243c-.0910651.42842761-.5148729.70365156-.9433005.61258647-.4284276-.0910651-.7036515-.51487283-.6125864-.94330043.1062203-.49972734.3405727-1.03035578.6670264-1.4331608l.1454426-.16434205.1743474-.15748806z" fill="#74a2ab" fill-rule="nonzero"/><path d="m19.5987683 25.8996016c2.3999337-.0262215 3.8536689-1.30663 4.3061005-1.7715059l.6519832-.5639842c1.1915217-1.0333044.4524317-2.0812754-.7675333-3.1172455l-.7284253-.6253165c-1.2150781-1.0333052-2.4501543-1.661732-3.650564-.6293151l-.7164244.6253165c-.525318.4497642-1.499069 2.5648161-5.2722971-1.7452855-3.76967245-4.3061005-1.5261786-4.9776391-1.0013061-5.4234046l.7213138-.6244257c1.1955228-1.0373038.7430911-2.3368237-.1186629-3.67811911l-.5182091-.8119763c-.8670864-1.33729677-1.8101695-2.2137167-3.00569225-1.18130233l-.64798183.55998451c-.52887396.3853231-2.00927694 1.63106657-2.36660031 3.99811023-.43243221 2.8394761.9288629 6.0900512 4.05321969 9.6575072 3.1172463 3.5710116 6.1704943 5.3620725 9.0610794 5.3309623" fill="#4da86d"/><path d="m13.3717486 23.3423731c-2.85289-3.393553-4.08559781-6.4924941-3.67114277-9.2139268.35743747-2.3677996 1.83831317-3.6139409 2.36735607-3.999387l.6481887-.56016335c.2668841-.23047236.521192-.36584939.7648854-.42222913.5156343 1.05011488.6111326 2.04525328-.3432584 2.87333748l-.7215442.624625c-.5250401.4459079-2.76925034 1.1176609 1.0016258 5.4251365.9526351 1.0881806 1.7268823 1.7669386 2.3605531 2.1663915.2440581.3252612.52948.676388.8615474 1.0557089 3.7744331 4.311478 4.748495 2.1957507 5.2739807 1.7458428l.7166532-.6255161c.8258068-.7102382 1.6680145-.6347199 2.5088374-.182091.0837511.4457145-.0725973.8908331-.5827718 1.3332637l-.6521914.5641642c-.4525762.4650245-1.9067756 1.7458418-4.3074756 1.7720717-2.0076502.0216075-4.0937435-.8355142-6.2252436-2.5572284z" fill="#389157"/></g></svg>