<svg height="32" viewBox="0 0 32 32" width="32" xmlns="http://www.w3.org/2000/svg"><path d="m8.74284153 8.46091903c1.26692337-1.0940736 2.40669897-.55094537 3.47581737 1.04658653l.5453621.85041064c1.0251286 1.5955832 1.206894 2.8546816.1190185 3.9231895l-.1259056.1157238-.6698682.5782071-.1101474.0824626-.273156.1854211c-.5318645.3835876-.6417787.9252724.1168035 2.0820297l.2079977.3022678c.113304.1578053.2407598.3258162.3832395.5049252l.3052495.3732797c.1085993.1295354.2241344.2642677.3468636.4044613l.1832427.2071203c.0599799.0670528.118868.1321308.1766922.1952722l.3344039.3559143c1.5030663 1.5553293 2.21596 1.6521193 2.7524991 1.1268438l.2804083-.298214.101089-.0964128.638479-.5572623c1.1461138-.9857194 2.3750727-.7510279 3.75981.3447485l.258774.2128309.7995981.6879449c1.3702341 1.2172212 1.7650674 2.3400355.6449801 3.4324795l-.1165704.1067091-.549008.4731858-.1214365.119754c-.9826009.9341799-2.3538282 1.6046477-4.1113857 1.6238506-2.7701672.0298142-5.626786-1.6495944-8.49122619-4.9310011-2.87355238-3.2810822-4.15008217-6.3243007-3.73542626-9.047049.25304438-1.6762607 1.06639337-2.90905501 2.122244-3.77330856l.17690434-.13575663zm2.26982337 1.41531958c-.6011188-.81768915-.9889104-.93595284-1.48535151-.50724258l-.59965173.5170539-.18910276.14601857c-.83017887.6797652-1.47912958 1.6633808-1.68308045 3.0144243-.35252376 2.3147738.78903912 5.0362342 3.45236485 8.0772764 2.6560416 3.0426712 5.2137692 4.5463614 7.5748363 4.5209502 1.4200364-.0155152 2.5178167-.5522798 3.2894204-1.2857121l.1423174-.1386923.5646949-.4881252.0901013-.0823889c.4601475-.448942.2758279-.9083454-.7555251-1.7841612l-.6359285-.5460956-.2402517-.1975632c-.9789427-.7745687-1.6120156-.8954652-2.2207935-.3719045l-.6133483.5343787-.0623796.0594581-.2524011.2701772-.1393507.1329254c-1.1914874 1.0594634-2.7657155.6060255-5.0880176-2.0467053-2.43651292-2.783231-2.56769214-4.414847-1.1455562-5.4402251l.2617889-.1770176.0547746-.0399036.6254124-.5410122.0980872-.0900633c.552485-.5428622.4530929-1.2313565-.3016005-2.4060156l-.5327433-.8311577zm7.4105362 4.29016779c.6302148.1339563 1.0258181.7477714.8926048 1.3744908-.1339563.6302149-.7477714 1.0258181-1.3744909.8926048-.62401-.1326374-1.0252422-.7504808-.8926048-1.3744908.1339563-.6302149.7477714-1.0258182 1.3744909-.8926048zm1.7775252-9.67873729.2263287.02997944.1986647.03711428c1.1536787.24522199 1.9900532.90059664 2.4629337 1.93021489.3333895.67003097.3478167 1.58956273.0544157 2.40296852l-.0797569.20093469-.0595437.11081719-.0220485.06715966c-.3023517.61535267-.7530351 1.07468612-1.4722208 1.58752522l-.223931.1556664-.5905745.3905963c-.44736.2973658-.7107523.5188031-.8165152.6942007l-.0323237.0636744-.0233569.0724561c-.0910651.4284276-.5148728.7036516-.9433004.6125865s-.7036516-.5148728-.6125865-.9433004c.1365813-.6425643.4682416-1.0539725 1.206504-1.5882895l.193159-.1363448.7551332-.50697576c.4919736-.33814674.7893821-.59092138.9861882-.86376511l.1322362-.19504834.0254288-.07903321c.1767285-.34787789.2387333-.80368259.1743351-1.13052459l-.0353723-.13148883-.0229758-.06493595-.0225135-.03834076c-.275414-.57107366-.7141931-.90752622-1.3687404-1.04665455-.595043-.12648029-1.0935117-.03145194-1.5427707.29467047l-.1333487.10477913c-.1292279.11081708-.269058.34771641-.3611927.60145323l-.0418228.12776578-.0322313.1275243c-.0910651.42842761-.5148729.70365156-.9433005.61258647-.4284276-.0910651-.7036515-.51487283-.6125864-.94330043.1062203-.49972734.3405727-1.03035578.6670264-1.4331608l.1454426-.16434205.1743474-.15748806.1611489-.12903497c.7129897-.53866872 1.5310642-.7658448 2.4297206-.67264556z"/></svg>