<svg height="32" viewBox="0 0 32 32" width="32" xmlns="http://www.w3.org/2000/svg"><g fill="none" fill-rule="evenodd"><path d="m19.6990663 6.01548787c2.1711772.07320249 3.7588626 2.10797624 3.3939141 4.24936173-.3523933 2.0696726-2.2552324 3.5094634-3.3681655 5.6582968-.0623498.1204437-.2368441.1204437-.2991939-.0008511-1.2303976-2.3865288-3.425621-4.0465654-3.425621-6.33414307 0-2.01583474 1.6674845-3.64161088 3.6990663-3.57266436zm-.1238484 1.88711328c-.9307781 0-1.6855511.75496448-1.6855511 1.68555108 0 .93058657.754773 1.68555107 1.6855511 1.68555107.9305866 0 1.6855511-.7549645 1.6855511-1.68555107 0-.9305866-.7549645-1.68555108-1.6855511-1.68555108z" fill="#bb3600" fill-rule="nonzero"/><path d="m19.5987683 25.8996016c2.3999337-.0262215 3.8536689-1.30663 4.3061005-1.7715059l.6519832-.5639842c1.1915217-1.0333044.4524317-2.0812754-.7675333-3.1172455l-.7284253-.6253165c-1.2150781-1.0333052-2.4501543-1.661732-3.650564-.6293151l-.7164244.6253165c-.525318.4497642-1.499069 2.5648161-5.2722971-1.7452855-3.76967245-4.3061005-1.5261786-4.9776391-1.0013061-5.4234046l.7213138-.6244257c1.1955228-1.0373038.7430911-2.3368237-.1186629-3.67811911l-.5182091-.8119763c-.8670864-1.33729677-1.8101695-2.2137167-3.00569225-1.18130233l-.64798183.55998451c-.52887396.3853231-2.00927694 1.63106657-2.36660031 3.99811023-.43243221 2.8394761.9288629 6.0900512 4.05321969 9.6575072 3.1172463 3.5710116 6.1704943 5.3620725 9.0610794 5.3309623" fill="#4da86d"/><path d="m13.3717486 23.3423731c-2.85289-3.393553-4.08559781-6.4924941-3.67114277-9.2139268.35743747-2.3677996 1.83831317-3.6139409 2.36735607-3.999387l.6481887-.56016335c.2668841-.23047236.521192-.36584939.7648854-.42222913.5156343 1.05011488.6111326 2.04525328-.3432584 2.87333748l-.7215442.624625c-.5250401.4459079-2.76925034 1.1176609 1.0016258 5.4251365.9526351 1.0881806 1.7268823 1.7669386 2.3605531 2.1663915.2440581.3252612.52948.676388.8615474 1.0557089 3.7744331 4.311478 4.748495 2.1957507 5.2739807 1.7458428l.7166532-.6255161c.8258068-.7102382 1.6680145-.6347199 2.5088374-.182091.0837511.4457145-.0725973.8908331-.5827718 1.3332637l-.6521914.5641642c-.4525762.4650245-1.9067756 1.7458418-4.3074756 1.7720717-2.0076502.0216075-4.0937435-.8355142-6.2252436-2.5572284z" fill="#389157"/></g></svg>