<svg height="32" viewBox="0 0 32 32" width="32" xmlns="http://www.w3.org/2000/svg"><g fill="none" fill-rule="evenodd"><path d="m22.1145334 21.3142326.5082552-.4396552c.9288537-.8055151.3526942-1.6224635-.5983326-2.4300566l-.5678457-.487467c-.9472172-.8055157-1.910024-1.2954074-2.8458064-.4905842l-.5584904.487467c-.4095129.3506148-1.168603 1.9994089-4.1100324-1.3605417-2.9386576-3.3568314-1.1897364-3.880331-.7805707-4.2278287l.562302-.4867725c.9319728-.8086328.5792785-1.8216768-.092504-2.86728704l-.4039712-.63297816c-.6759394-1.04249305-1.4111222-1.72570841-2.3430949-.9208872l-.5051359.43653734c-.41228502.30037958-1.56633688 1.27150203-1.84488921 3.11673686-.33710361 2.2135207.72409741 4.7475147 3.15969761 7.528534 2.4300571 2.7837911 4.8102243 4.1800171 7.0635872 4.155765 1.8708743-.020441 3.0041372-1.0185866 3.3568314-1.3809819z" fill="#4da86d"/><path d="m11.0415646 13.5189808c.2786412-1.8458241 1.4330616-2.8172566 1.8454783-3.1177321l.5052972-.43667676c.2080501-.17966531.4062965-.28519881.5962683-.32914977.401964.81861973.4764099 1.59438233-.267588 2.23991743l-.5624815.486928c-.4092964.3476087-2.1587761.8712754.7808199 4.2291787.742629.848294 1.3461954 1.3774215 1.8401751 1.688816.1902561.2535582.4127574.52728.6716214.8229806 2.9423688 3.3610234 3.7017012 1.7117029 4.1113449 1.3609761l.5586688-.4876227c.6437597-.553668 1.3003049-.4947975 1.9557705-.1419495.0652884.3474579-.0565934.6944512-.4543012 1.0393491l-.5084175.4397956c-.3528068.362511-1.4864317 1.3609754-3.3579034 1.3814229-1.5650687.0168443-3.191288-.6513271-4.8529043-1.9934937-2.2239775-2.6454528-3.184938-5.0612402-2.8618485-7.1827399z" fill="#389157"/><g fill="#0b5b85" fill-rule="nonzero"><path d="m13.43 29.3088839c-.21-.1-.34-.32-.34-.54l.01-1.58c-5.04-.35-9.07-4.57-9.1-9.68 0-.33.26-.6.6-.6.33 0 .6.26.6.6.03 4.46 3.53 8.14 7.91 8.48l.01-1.6c0-.23.13-.44.34-.54s.45-.07.63.07l2.72 2.18c.14.11.22.29.22.47s-.08.35-.22.47l-2.75 2.2c-.17.14-.42.17-.63.07z"/><path d="m25.97 14.3588839c-.03-4.45999997-3.53-8.13999997-7.91-8.47999997l-.01 1.6c0 .23-.13.44-.34.54s-.45.07-.63-.07l-2.72-2.18c-.14-.11-.22-.29-.22-.47s.08-.35.22-.47l2.75-2.2c.18-.14.43-.17.64-.07s.34.31.34.54l-.01 1.58c5.04.35 9.07 4.57 9.1 9.67999997 0 .33-.27.6-.6.6s-.6-.27-.61-.6z"/></g></g></svg>