<svg height="32" viewBox="0 0 32 32" width="32" xmlns="http://www.w3.org/2000/svg"><g fill="none"><path d="m12.3683773 17.4968062 1.6808173 1.7081287c-4.52556477 3.7386028-6.79924159 5.5964021-7.03321062 5.3494465-.23390755-.2470171 1.62092976-2.5248712 5.35239332-7.0575752z" fill="#3e5b63"/><path d="m17.7050502 17.0456c-.3696.198-.5148.66-.33 1.0428.6072 1.2276.9504 3.5112.396 4.884l-9.3588-9.3588c.5148-.2112 1.188-.3168 1.98-.2904 1.0692.0396 2.244.3168 2.9964.726.3828.2112.8712.066 1.0692-.3168l5.544-10.2168 7.9596 7.9596z" fill="#f8813d"/><path d="m17.7050502 17.0456c-.3696.198-.5148.66-.33 1.0428.6072 1.2276.9504 3.5112.396 4.884l-4.4729511-4.4729511 10.6885813-10.99901873 3.9747698 3.97476983z" fill="#d9541a"/></g></svg>