<svg height="32" viewBox="0 0 32 32" width="32" xmlns="http://www.w3.org/2000/svg"><path d="m25.2351243 13.9734457-7.17-7.16999997c-.13-.13-.32-.2-.51-.17s-.35.14-.44.31l-4.32 7.95999997c-1.45-.55-3.91000005-.8-5.16000005.45-.11.11-.18.27-.18.42s.06.31.18.42l3.64000005 3.64-.02.02-4.48000005 4.49c-.23.23-.23.61 0 .85.12.12.27.18.42.18s.31-.06.42-.18l4.48000005-4.48.02-.02 3.64 3.64c.23.23.61.23.85 0 .78-.78.92-1.98.89-2.85-.02-.75-.17-1.55-.41-2.22l7.99-4.34c.17-.09.28-.25.31-.44.04-.19-.02-.38-.15-.51zm-9.18 4.49c-.28.15-.39.5-.25.79.46.93.72 2.66.3 3.7l-7.09000005-7.09c.39-.16.9-.24 1.50000005-.22.81.03 1.7.24 2.27.55.29.16.66.05.81-.24l4.2-7.73999997 6.03 6.02999997z"/></svg>