<svg height="32" viewBox="0 0 32 32" width="32" xmlns="http://www.w3.org/2000/svg"><path d="m23.6814395 16.742779-.0220311.0110155-12.3814794 7.7329169-.0330467.0220311c-.1101555.0771088-.2533576.121171-.440622.121171-.1321866 0-.2864043-.0440622-.440622-.121171-.3084355-.1762488-.44062208-.4075754-.44062208-.7710886v-15.46583367c0-.36351319.13218658-.59483976.45163758-.77108858.3304665-.17624881.6058553-.17624881.9142908.0220311l12.3704638 7.73291685c.0110155 0 .0220311.0110155.0220311.0110155.2753888.1542178.3855443.3745288.3855443.7270264 0 .3745288-.1211711.5948398-.3855443.7490575z"/></svg>