<svg height="32" viewBox="0 0 32 32" width="32" xmlns="http://www.w3.org/2000/svg"><path d="m23.665 14.3043506-11.21-7.00999997c-.64-.41-1.34-.44-2.04-.07-.68.37-1.04.98-1.04 1.76v14.03999997c0 .78.36 1.38 1.04 1.76l.02.01c.32.16.64.24.95.24.41 0 .77-.11 1.08-.32l11.21-7c.62-.36.95-.95.95-1.7-.01-.76-.34-1.35-.96-1.71zm-.6 2.37-.02.01-11.24 7.02-.03.02c-.1.07-.23.11-.4.11-.12 0-.26-.04-.4-.11-.28-.16-.4-.37-.4-.7v-14.03999997c0-.33.12-.54.41-.7.3-.16.55-.16.83.02l11.23 7.01999997c.01 0 .02.01.02.01.25.14.35.34.35.66 0 .34-.11.54-.35.68z"/></svg>