<svg height="32" viewBox="0 0 32 32" width="32" xmlns="http://www.w3.org/2000/svg"><path d="m8.62234103 22.5710182.00312028.146971.0111024.153604c.14440902 1.4449331 1.34960438 1.7292771 2.33639799.5653632l2.8120383-3.3189564 2.7691138 6.5592255.0967561.1971842c.5326692.9243619 1.6357896 1.2989042 2.5917704.8954251l.1389093-.0647372c.9477938-.4850531 1.3744113-1.6271204.9537504-2.6238106l-2.8453-6.742287 3.391885.001595.148829-.003432c1.5515227-.0772385 1.9714921-1.3320154.871565-2.4319426l-10.8445634-10.84456332-.1184423-.11276552c-1.13981069-1.03073102-2.31693227-.42871636-2.31693227 1.12888804zm1.50072007-16.74360507.0966132.09200592 11.0610634 11.06454465c.1308631.1464159.0449498.1371807-.2944865.1541218l-.118811.0026861-4.2819897-.0009607c-.4293795-.0000783-.7198565.4377316-.552887.8333173l3.1971767 7.5747821c.1829848.433554-.0201469.9333703-.4537121 1.1163599-.3967924.1674693-.8552216.0118189-1.0683704-.3571304l-.0635275-.1303975-3.1330282-7.4242879c-.1739534-.4120506-.7213636-.4957653-1.010515-.1545368l-3.4430341 4.063135-.11284014.1255993-.10571276.1053481-.01431647-.2148277-.00249083-.1194948.00025824-16.74858041c.00368107-.22648939.0306814-.2247336.19556186-.07680182z"/></svg>