<svg height="32" viewBox="0 0 32 32" width="32" xmlns="http://www.w3.org/2000/svg"><path d="m24.8427246 22.8809793c.4479629 0 .8822544.0755255 1.2888118.2160806l.2404939.0920527.1457992.0648452c.9305666.4366329 1.6744964 1.2294151 2.0364121 2.2325234l.071635.2181179.1555673.5242753h-7.8774386l.1555672-.5242753.071506-.2177602c.3096196-.8584193.8989864-1.5628397 1.6456771-2.0218887l.1898795-.1095974.1711876-.0872616c.5203181-.2494666 1.1001519-.3871119 1.7049019-.3871119zm2.3872754-11.5809793c0-.7247059-.5580623-1.32539792-1.2656707-1.39355994l-.1343293-.00644006h-19.23c-.72470588 0-1.32539792.5580623-1.39355994 1.2656707l-.00644006.1343293v4.6l17.8260647-.0006204c-.5815358.2794022-1.0864324.6929238-1.4745935 1.2004685l-3.5514712.0001519v2.3c0 .3313708-.2686292.6-.6.6h-1.8c-.3313708 0-.6-.2686292-.6-.6v-2.3h-9.8v6.53c0 .7247059.55806228 1.3253979 1.26567067 1.3935599l.13432933.0064401h12.996l-.0703239.2194488-.2886761.9705512h-12.637c-1.375 0-2.50961538-1.0817308-2.59485947-2.4362056l-.00514053-.1637944v-12.32c0-1.375 1.08173077-2.50961538 2.43620562-2.59485947l.16379438-.00514053h5.11v-1.25c0-1.296 1.022976-2.3616 2.2992077-2.4447744l.1607923-.0052256h4.8c1.3056 0 2.371584 1.01376 2.4547738 2.2892544l.0052262.1607456v1.25h4.4c1.375 0 2.5096154 1.08173077 2.5860819 2.4362056l.0040446.1637944.0014687 6.4371284c-.2831742-.5604347-.6921429-1.0464824-1.1897899-1.4210269zm-2.4434592 5.8c1.3642642 0 2.4702188 1.1059546 2.4702188 2.4702188 0 .7099101-.2994656 1.3498761-.7787576 1.7992915l-.1350846.1177528-.0974975.0765656c-.4087973.2996562-.9131734.4766089-1.4588791.4766089-1.3642642 0-2.4702188-1.1059546-2.4702188-2.4702188s1.1059546-2.4702188 2.4702188-2.4702188zm-5.8165408-10.9h-4.8c-.65625 0-1.1894531.4921875-1.25354 1.12225342l-.00646.12774658v1.25h7.32v-1.25c0-.646875-.5009766-1.17949219-1.1321411-1.24354248z"/></svg>