<svg height="32" viewBox="0 0 32 32" width="32" xmlns="http://www.w3.org/2000/svg"><path d="m24.8427246 22.4480217c.4479629 0 .8822544.0755255 1.2888118.2160806l.2404939.0920527.1457992.0648452c.9305666.4366329 1.6744964 1.2294151 2.0364121 2.2325234l.071635.2181179.1555673.5242753h-7.8774386l.1555672-.5242753.071506-.2177603c.3096196-.8584192.8989864-1.5628397 1.6456771-2.0218886l.1898795-.1095974.1711876-.0872617c.5203181-.2494665 1.1001519-.3871118 1.7049019-.3871118zm-9.8437246-5.3480217.001 2.3c0 .2982338.2175896.5456468.5026769.592147l.0973231.007853h1.8c.2982338 0 .5456468-.2175896.592147-.5026769l.007853-.0973231-.001-2.3 3.2626863.0006978c-.3468352.5990035-.5453643 1.294599-.5453643 2.0365634 0 1.0242145.3783031 1.9600716 1.0027348 2.6740396-.9562061.6519021-1.7062262 1.6004988-2.1071274 2.7391095l-.0862533.2660808-.2586761.8685089h-12.87703181c-1.375 0-2.50961539-1.0817308-2.59485947-2.4362056l-.00514053-.1637944-.00096819-5.985zm9.7875408-.4329576c1.3642642 0 2.4702188 1.1059546 2.4702188 2.4702188 0 .70991-.2994656 1.3498761-.7787576 1.7992915l-.1350846.1177528-.0974975.0765656c-.4087973.2996562-.9131734.4766089-1.4588791.4766089-1.3642642 0-2.4702188-1.1059546-2.4702188-2.4702188s1.1059546-2.4702188 2.4702188-2.4702188zm-6.0265726-12.2020424c1.3056 0 2.371584 1.01376 2.4547737 2.2892544l.0052263.1607456v1.25h4.4c1.375 0 2.5096154 1.08173077 2.5860819 2.4362056l.0029499.1227944.0015176 6.2146098c-.4064254-.6307745-.9823985-1.1419907-1.6635007-1.4692302-.5308704-.258475-1.1288728-.4023372-1.7604761-.4023372-.9274981 0-1.7825381.3102302-2.4670145.8325852l-18.5305263.0003724.00096819-5.135c0-1.375 1.08173076-2.50961538 2.43620562-2.59485947l.16379438-.00514053h5.11000001v-1.25c0-1.296 1.022976-2.3616 2.2992077-2.4447744l.1607923-.0052256zm0 1.2h-4.8c-.65625 0-1.1894531.4921875-1.2535401 1.12225342l-.0064599.12774658v1.25h7.32v-1.25c0-.646875-.5009766-1.17949219-1.1321411-1.24354248z"/></svg>