<svg height="32" viewBox="0 0 32 32" width="32" xmlns="http://www.w3.org/2000/svg"><path d="m16.5163208 25.4227122c.664785 0 1.2036997.5389147 1.2036997 1.2036997s-.5389147 1.2036997-1.2036997 1.2036997-1.2036997-.5389147-1.2036997-1.2036997.5389147-1.2036997 1.2036997-1.2036997zm-5.7117686-1.5046246c.664785 0 1.2036997.5389147 1.2036997 1.2036997s-.5389147 1.2036997-1.2036997 1.2036997-1.20369973-.5389147-1.20369973-1.2036997.53891473-1.2036997 1.20369973-1.2036997zm11.2313215 0c.664785 0 1.2036997.5389147 1.2036997 1.2036997s-.5389147 1.2036997-1.2036997 1.2036997-1.2036997-.5389147-1.2036997-1.2036997.5389147-1.2036997 1.2036997-1.2036997zm4.1214875-4.0998932c.664785 0 1.2036997.5389147 1.2036997 1.2036997s-.5389147 1.2036997-1.2036997 1.2036997-1.2036997-.5389147-1.2036997-1.2036997.5389147-1.2036997 1.2036997-1.2036997zm-19.45322838-.0496887c.66478499 0 1.20369971.5389147 1.20369971 1.2036997s-.53891472 1.2036997-1.20369971 1.2036997-1.20369971-.5389147-1.20369971-1.2036997.53891472-1.2036997 1.20369971-1.2036997zm9.40348478-15.76845743.3033731.00394984c6.5282996.16594672 11.7651115 5.52815179 11.7651115 12.07057599 0 .2982338-.2175896.5456467-.5026769.592147l-.0973231.007853h-11.4761022c-.2982338 0-.5456468-.2175896-.592147-.5026769l-.007853-.0973231v-11.47452479c0-.30091472.2213688-.54958212.5093638-.59324796zm-10.87935477 10.14984073c.664785 0 1.20369971.5389147 1.20369971 1.2036997s-.53891471 1.2036997-1.20369971 1.2036997c-.66478499 0-1.20369971-.5389147-1.20369971-1.2036997s.53891472-1.2036997 1.20369971-1.2036997zm11.47173717-8.934889v10.259h10.259l-.0166809-.2600368c-.4177749-5.30194466-4.6609665-9.56500865-9.973756-9.98041058zm-9.96711253 3.32386593c.66478499 0 1.20369971.53891472 1.20369971 1.20369971 0 .66478496-.53891472 1.20369966-1.20369971 1.20369966s-1.20369971-.5389147-1.20369971-1.20369966c0-.66478499.53891472-1.20369971 1.20369971-1.20369971zm4.15714283-4.10638927c.664785 0 1.2036997.53891471 1.2036997 1.20369971 0 .66478499-.5389147 1.20369971-1.2036997 1.20369971s-1.20369967-.53891472-1.20369967-1.20369971c0-.664785.53891467-1.20369971 1.20369967-1.20369971z" fill-rule="evenodd"/></svg>