<svg height="32" viewBox="0 0 32 32" width="32" xmlns="http://www.w3.org/2000/svg"><path d="m16.5163208 25.1217873c.8309812 0 1.5046246.6736434 1.5046246 1.5046246s-.6736434 1.5046246-1.5046246 1.5046246-1.5046246-.6736434-1.5046246-1.5046246.6736434-1.5046246 1.5046246-1.5046246zm-5.7117686-1.5046247c.8309812 0 1.5046246.6736434 1.5046246 1.5046247 0 .8309812-.6736434 1.5046246-1.5046246 1.5046246-.83098127 0-1.50462466-.6736434-1.50462466-1.5046246 0-.8309813.67364339-1.5046247 1.50462466-1.5046247zm11.2313215 0c.8309812 0 1.5046246.6736434 1.5046246 1.5046247 0 .8309812-.6736434 1.5046246-1.5046246 1.5046246s-1.5046246-.6736434-1.5046246-1.5046246c0-.8309813.6736434-1.5046247 1.5046246-1.5046247zm4.1214875-4.0998931c.8309813 0 1.5046247.6736433 1.5046247 1.5046246 0 .8309812-.6736434 1.5046246-1.5046247 1.5046246-.8309812 0-1.5046246-.6736434-1.5046246-1.5046246 0-.8309813.6736434-1.5046246 1.5046246-1.5046246zm-19.45322838-.0496887c.83098124 0 1.50462464.6736434 1.50462464 1.5046246 0 .8309813-.6736434 1.5046247-1.50462464 1.5046247s-1.50462464-.6736434-1.50462464-1.5046247c0-.8309812.6736434-1.5046246 1.50462464-1.5046246zm-1.47586999-5.6186167c.83098124 0 1.50462464.6736434 1.50462464 1.5046246 0 .8309813-.6736434 1.5046247-1.50462464 1.5046247s-1.50462463-.6736434-1.50462463-1.5046247c0-.8309812.67364339-1.5046246 1.50462463-1.5046246zm10.87935477-9.84891583.3033731.00394984c6.5282996.16594672 11.7651115 5.52815179 11.7651115 12.07057599 0 .3313708-.2686292.6-.6.6h-11.4761022c-.3313708 0-.6-.2686292-.6-.6v-11.47452479c0-.33434969.2732948-.60419652.6076176-.60000104zm-9.37473013 4.23789273c.83098124 0 1.50462464.6736434 1.50462464 1.50462464 0 .83098126-.6736434 1.50462466-1.50462464 1.50462466s-1.50462464-.6736434-1.50462464-1.50462466c0-.83098124.6736434-1.50462464 1.50462464-1.50462464zm4.15714283-4.10638927c.8309813 0 1.5046247.6736434 1.5046247 1.50462464s-.6736434 1.50462463-1.5046247 1.50462463c-.8309812 0-1.5046246-.67364339-1.5046246-1.50462463s.6736434-1.50462464 1.5046246-1.50462464z" fill-rule="evenodd"/></svg>