<svg height="32" viewBox="0 0 32 32" width="32" xmlns="http://www.w3.org/2000/svg"><path d="m9.84761248 9.84761248c.31241942-.31241943.81895142-.31241943 1.13137082 0 .3124195.31241942.3124195.81895142 0 1.13137082-2.77303091 2.773031-2.77303091 7.2690024 0 10.0420334 2.773031 2.7730309 7.2690024 2.7730309 10.0420334 0 2.7730309-2.773031 2.7730309-7.2690024 0-10.0420334-.3124195-.3124194-.3124195-.8189514 0-1.13137082.3124194-.31241943.8189514-.31241943 1.1313708 0 3.3978698 3.39786982 3.3978698 8.90690522 0 12.30477502s-8.9069052 3.3978698-12.30477502 0c-3.3978698-3.3978698-3.3978698-8.9069052 0-12.30477502zm6.15238752-3.14761248c.407841 0 .7444016.30518815.7937669.6996497l.0062331.1003503v8c0 .4418278-.3581722.8-.8.8-.407841 0-.7444016-.3051881-.7937669-.6996497l-.0062331-.1003503v-8c0-.4418278.3581722-.8.8-.8z"/></svg>