<svg height="32" viewBox="0 0 32 32" width="32" xmlns="http://www.w3.org/2000/svg"><path d="m9.98903383 9.98903383c.23431457-.23431457.61421357-.23431457.84852817 0 .2343145.23431457.2343145.61421357 0 .84852817-2.85113582 2.8511358-2.85113582 7.4737402 0 10.324876 2.8511358 2.8511358 7.4737402 2.8511358 10.324876 0s2.8511358-7.4737402 0-10.324876c-.2343145-.2343146-.2343145-.6142136 0-.84852817.2343146-.23431457.6142136-.23431457.8485282 0 3.3197649 3.31976497 3.3197649 8.70216737 0 12.02193237-3.319765 3.3197649-8.7021674 3.3197649-12.02193237 0-3.31976494-3.319765-3.31976494-8.7021674 0-12.02193237zm6.01096617-3.08903383c.2982338 0 .5456468.21758961.592147.50267688l.007853.09732312v8c0 .3313708-.2686292.6-.6.6-.2982338 0-.5456468-.2175896-.592147-.5026769l-.007853-.0973231v-8c0-.33137085.2686292-.6.6-.6z"/></svg>