<svg fill="none" height="32" viewBox="0 0 32 32" width="32" xmlns="http://www.w3.org/2000/svg"><path clip-rule="evenodd" d="m16.0059 28c6.628 0 12-5.372 12-12 0-6.627-5.372-12-12-12-6.62704 0-12.00004 5.373-12.00004 12 0 6.628 5.373 12 12.00004 12zm3.488-10.992c.87-.244 1.593.224 1.959.604s1.098.977 1.595.617c.85-.617 1.251.063.85.818-.402.755-.95 1.413-2.242.738s-1.464-.596-1.927.957c-.771 2.59-4.418 3.577-6.577 1.78-1.289-1.072-1.415-2.222-1.617-3.716s-.309-2.602-1.27-3.322c-1.45204-1.087-1.68004-3.366-.50604-5.053 1.96604-2.826 6.05304-1.596 6.65004 1.852.365 2.112-1.1 3.292-1.413 3.886-.314.595.204.927.778.595.312-.18.807-.448 1.16-.142.353.307-.233 1.394 0 1.607.632.577 1.07-.803 2.56-1.221z" fill="#000" fill-rule="evenodd"/></svg>