<svg fill="none" height="32" viewBox="0 0 32 32" width="32" xmlns="http://www.w3.org/2000/svg"><g clip-rule="evenodd" fill="#000" fill-rule="evenodd"><path d="m9.2666 10.0879c1.1369-1.63382 2.9196-2.11267 4.4961-1.66017 1.4665.42095 2.7315 1.63767 3.1621 3.39457l.0752.3584c.2119 1.2259-.1117 2.1898-.5215 2.9111-.2016.3549-.4239.6515-.6035.8838-.0266.0343-.052.0658-.0752.0957.1186-.0552.2533-.1076.3945-.1426.2745-.068.6463-.0848.9883.1318l.1445.1084c.2927.2546.3255.6109.3233.8106-.0019.1647-.0317.3343-.0606.4795.3629-.3176.9193-.7975 1.7422-1.0283 1.1753-.3296 2.1146.3099 2.5528.7646.1627.169.3852.3619.5937.4707.1028.0536.1726.0704.209.0733.0051.0004.009 0 .0117 0 .2636-.1905.5525-.3254.8516-.3477.323-.024.6365.0902.8515.3477.389.4658.2716 1.1252.0254 1.5888-.2062.3873-.5182.8957-1.0488 1.1612-.5806.2903-1.2535.2176-2.001-.1729-.3255-.1701-.5337-.2664-.6797-.3115-.022-.0068-.041-.0093-.0556-.0127-.0144.023-.0337.0567-.0567.1055-.0797.1692-.1659.4253-.2822.8154-.4568 1.5347-1.7521 2.5552-3.1865 2.9433-1.4352.3883-3.0967.1698-4.3496-.873-1.4879-1.2378-1.6275-2.6197-1.8272-4.0967-.1043-.7718-.1757-1.36-.3291-1.8535-.1267-.4079-.3007-.7169-.5801-.9658l-.12593-.1035c-1.76259-1.3198-1.95777-3.9805-.63867-5.876zm4.165-.50685c-1.1076-.31792-2.3515.00057-3.1806 1.19235-1.02881 1.4784-.76804 3.3761.373 4.2305.6059.4541.9345 1.0316 1.1338 1.6729.1908.6139.2745 1.3268.3721 2.0488.2042 1.5105.3162 2.4291 1.4053 3.3349.9058.7539 2.148.9409 3.2685.6377 1.1214-.3035 2.0353-1.0719 2.3496-2.1269l.001-.001c.1151-.386.2237-.7223.3467-.9834.1194-.2535.299-.5412.6152-.6973.3315-.1634.6687-.1135.9356-.0312.2639.0815.5618.2274.8818.3945.5437.2841.7912.2215.9082.1631.1669-.0835.3306-.2837.5264-.6514.0076-.0143.013-.0292.0195-.0429-.5303.3756-1.1147.1899-1.4639.0078-.3731-.1947-.7001-.4902-.9033-.7012-.294-.3052-.8001-.6005-1.3643-.4424-.5949.1669-.98.5201-1.371.8594-.167.1449-.4135.3603-.6924.46-.1609.0575-.3522.0857-.5586.04-.1519-.0336-.2839-.1009-.3975-.1846l-.1074-.0888c-.1734-.1586-.2254-.3563-.2422-.4785-.0172-.125-.008-.2453.0029-.335.0212-.1732.0718-.3837.1026-.5254.0193-.0889.0323-.1635.042-.2256-.1037.034-.2234.0972-.3614.1768l-.0009-.001c-.4034.2328-.9457.3214-1.3692.0186-.2202-.1576-.3611-.396-.3945-.669-.032-.2622.0373-.5188.1562-.7441.1099-.2084.3103-.4526.461-.6475.1716-.2219.3507-.464.5088-.7422.3097-.5451.5357-1.2275.3828-2.1133l-.0567-.2753c-.3284-1.344-1.279-2.22794-2.3291-2.52935z"/><path d="m16.0059 3.40039c6.9594 0 12.5996 5.64127 12.5996 12.59961 0 6.9594-5.6403 12.5996-12.5996 12.5996-6.95838 0-12.59965-5.6402-12.59965-12.5996 0-6.95837 5.64124-12.59961 12.59965-12.59961zm0 1.19922c-6.29567 0-11.40043 5.10476-11.40043 11.40039 0 6.2966 5.10473 11.4004 11.40043 11.4004 6.2966 0 11.4003-5.1038 11.4003-11.4004 0-6.29566-5.1037-11.40039-11.4003-11.40039z"/></g></svg>