<svg height="32" viewBox="0 0 32 32" width="32" xmlns="http://www.w3.org/2000/svg"><path d="m26.020622 14.425c-1.89-2.12-5.69-5.69-10.02-5.69-4.34 0-8.13999999 3.57-10.01999999 5.69-.78.88-.78 2.27 0 3.15 1.88 2.13 5.67999999 5.69 10.01999999 5.69 4.33 0 8.13-3.57 10.01-5.69.79-.88.79-2.27.01-3.15zm-10.020622-2.0983438v3.6733438l2.597945-2.5969476c.6644514.6647051 1.0753988 1.5828354 1.0753988 2.5969476 0 2.0287318-1.644612 3.6733438-3.6733438 3.6733438s-3.6733438-1.644612-3.6733438-3.6733438c0-1.9632888 1.5402194-3.5668401 3.4782564-3.6682521z"/></svg>