<svg height="32" viewBox="0 0 32 32" width="32" xmlns="http://www.w3.org/2000/svg"><g fill="none" fill-rule="evenodd"><path d="m26.9955265 14.3301365c-2.1072264-2.3636614-6.343978-6.34397796-11.1716449-6.34397796-4.8388162 0-9.07556777 3.98031656-11.17164485 6.34397796-.869649.9811425-.869649 2.5309016 0 3.5120441 2.09607708 2.3748107 6.33282865 6.3439779 11.17164485 6.3439779 4.8276669 0 9.0644185-3.9803165 11.1604956-6.3439779.8807983-.9811425.8807983-2.5309016.0111493-3.5120441z" fill="#afdfef" fill-rule="nonzero"/><path d="m15.8238816 7.98615854v16.19999996c4.8276669 0 9.0644185-3.9803165 11.1604956-6.3439779.8807983-.9811425.8807983-2.5309016.0111493-3.5120441-2.1072264-2.3636614-6.343978-6.34397796-11.1716449-6.34397796z" fill="#85cfe8" fill-rule="nonzero"/><circle cx="15.823188" cy="16.086159" fill="#69520c" r="5.492617"/><path d="m15.8231881 21.5787753c3.0334885 0 5.4926168-2.4591283 5.4926168-5.4926168 0-3.0334884-2.4591283-5.4926167-5.4926168-5.4926167z" fill="#503d02"/><circle cx="15.823188" cy="16.086159" fill="#000" r="3.673344"/><path d="m15.8238816 7.98615854c2.2158387 0 4.3071896.83853137 6.1252772 1.97439676l-6.1252772 6.1256032z" fill="#fff" fill-rule="nonzero"/></g></svg>