<svg height="32" viewBox="0 0 32 32" width="32" xmlns="http://www.w3.org/2000/svg"><g fill="none" fill-rule="evenodd"><path d="m6.5 13.0305432h19c1.1045695 0 2 .8954305 2 2v5.4658547c0 1.1045695-.8954305 2-2 2h-19c-1.1045695 0-2-.8954305-2-2v-5.4658547c0-1.1045695.8954305-2 2-2z" fill="#4588a0"/><path d="m27.5 20.4963979c0 1.1045695-.8954305 2-2 2h-19c-1.1045695 0-2-.8954305-2-2zm-2-2c1.0543618 0 1.9181651.8158778 1.9945143 1.8507376l.0054857.1492624h-23c0-1.0543618.81587779-1.9181651 1.85073766-1.9945143l.14926234-.0054857z" fill="#20596d"/><path d="m9.00096502 15.3722709-.00096502-5.0970577 4.2908742-4.2752132h9.1847687v9.3722709z" fill="#afdfef" transform="matrix(-1 0 0 1 31.475642 0)"/><path d="m9 26v-6h13.4756429v6z" fill="#afdfef" transform="matrix(-1 0 0 1 31.475642 0)"/><path d="m22.4746779 10.2742517h-4.3004471v-4.2742517h.0105379z" fill="#31afd8"/><path d="m22.4756429 14.5746475-4.3014121-4.3003958h4.3004471l.000965.0009615z" fill="#85cfe8"/><circle cx="25.107172" cy="15.390947" fill="#6ec18d" r="1"/></g></svg>