<svg height="32" viewBox="0 0 32 32" width="32" xmlns="http://www.w3.org/2000/svg"><g fill="none"><path d="m16.0341854 9.10963742c.3323286 0 .6099463-.23424531.6767498-.54663268.0072451-.00666701.0144163-.01346071.021511-.02038113.0059335-.00578781.0117949-.01164916.0175827-.0175827l.3041382-.31179665c1.5978892-.50685187 2.703367-.76027781 3.3164334-.76027781 2.9357075 0 5.7141509 1.80594339 7.7390566 1.80594339v16.41396756c-2.0249057 0-4.8033491-1.8059434-7.7390566-1.8059434-1.7297642 0-2.813868.7137735-3.4653774 1.4270754l-.4108583.4665042c-.2238344.2541501-.6113174.2787258-.8654675.0548914-.019438-.0171194-.0377719-.0354533-.0548914-.0548914l-.4108583-.4665042c-.6515566-.7132547-1.7356604-1.4270754-3.4653773-1.4270754-2.93566041 0-5.71410381 1.8059434-7.73905664 1.8059434v-16.41396756c2.02490566 0 4.80334906-1.80594339 7.73905664-1.80594339.6130664 0 1.7185442.25342597 3.3164335.7602779l.3041381.31179659c.012768.01308941.0258071.02575409.0391.0379938.0668149.31237236.3444255.54660268.6767435.54660268z" fill="#252d4f"/><path d="m28.7740665 7.55961546v16.21278304c-2.0249057 0-4.8033491-1.8059434-7.7390566-1.8059434-1.7297642 0-3.193446.3403561-4.3364151 1.8059434v-15.16410379s.8769339-2.85462265 4.3364151-2.85462265c2.9357075 0 5.7141509 1.8059434 7.7390566 1.8059434z" fill="#989110"/><path d="m19.0379269 22.194228c-.8833774.2431152-1.6668635.7158886-2.3393321 1.5781705v-15.16410379s.8769339-2.85462265 4.3364151-2.85462265z" fill="#cfc62a"/><path d="m3.29430426 7.55961546c2.02490566 0 4.80334905-1.8059434 7.73905664-1.8059434 3.4594811 0 4.3364151 2.85462265 4.3364151 2.85462265v15.16410379c-1.1429692-1.4655873-2.606651-1.8059434-4.3364151-1.8059434-2.93570759 0-5.71415098 1.8059434-7.73905664 1.8059434z" fill="#cfc62a"/><path d="m11.0333609 21.9664551 2.545602-15.54648877c1.3777022.84355708 1.7908131 2.18832838 1.7908131 2.18832838v15.16410379c-1.1429692-1.4655873-2.606651-1.8059434-4.3364151-1.8059434z" fill="#989110"/></g></svg>