<svg height="32" viewBox="0 0 32 32" width="32" xmlns="http://www.w3.org/2000/svg"><path d="m25.8858491 22.1018089v-13.37410652c-.5648541-.06906426-1.1956112-.27282136-2.7700587-.81351316-1.5966113-.54830326-2.5619396-.78014458-3.5950923-.78014458-1.1879781 0-2.0530638.40709363-2.675892 1.0891655-.2180627.2388049-.3902093.49544746-.520235.75081083-.0487562.09575466-.0838729.17503386-.1066466.23228277v12.15297196c.8770076-.5955831 1.9410091-.8337263 3.3027736-.8337263 1.2027831 0 2.2701514.2563481 3.9848499.8452044 1.3219996.453997 1.9265272.6512714 2.3803011.7310551zm-20.5358491 0c.45377384-.0797837 1.05830144-.2770581 2.38030105-.7310551 1.71469851-.5888563 2.78206685-.8452044 3.98484985-.8452044 1.3617645 0 2.4257661.2381432 3.3027736.8337263v-12.15297196c-.0227736-.05724891-.0578903-.13652811-.1066466-.23228277-.1300257-.25536337-.3021723-.51200593-.5202349-.75081083-.6228282-.68207187-1.4879139-1.0891655-2.6758921-1.0891655-1.0331526 0-1.99848092.23184132-3.59509228.78014458-1.57444747.5406918-2.20520457.7444489-2.77005862.81351316zm2.77005862.403885c-1.57444747.5406918-2.20520457.7444489-2.77005862.8135132v1.2316459c.45379502-.0797838 1.0583352-.2770604 2.38033289-.7310567 1.7147079-.5888596 2.78205381-.8452045 3.98481801-.8452045 1.5361643 0 2.7183012.5562903 3.5691076 1.4878092l.3336723.3788643.3409087-.3869464c.84343-.9234251 2.0256177-1.4797271 3.5618586-1.4797271 1.2027831 0 2.2701514.2563481 3.9848499.8452045 1.3219996.4539969 1.9265272.6512714 2.3803011.7310551v-1.2316443c-.5648541-.0690643-1.1956112-.2728214-2.7700587-.8135132-.7983056-.2741516-1.4387906-.4691877-2.0088431-.595686-.5700526-.1264982-1.0696729-.1844585-1.5862492-.1844585-2.6111726 0-3.7724918 1.6277473-3.9027736 1.626527-.1302817.0012203-1.2916009-1.626527-3.9027736-1.626527-.5165763 0-1.0161965.0579603-1.5862491.1844585-.57005258.1264983-1.2105375.3215344-2.00884318.595686z"/></svg>