<svg height="32" viewBox="0 0 32 32" width="32" xmlns="http://www.w3.org/2000/svg"><path d="m18.4468514 5.35842826c.1269999 0 .2498589.04026452.3515011.11373873l.0719866.06122224 4.2899092 4.27425173c.0976596.09730316.152403.21251074.1707104.32993744l.0067669.0961767-.0007256 2.1956732 2.163.0011149c1.3807119 0 2.5100548 1.0762385 2.5948848 2.4355719l.0051152.1644281v5.4658547c0 1.3807118-1.0762386 2.5100547-2.4356487 2.5948848l-.1644377.0051152-2.1629136-.0009696.0007256 2.863c0 .3313708-.2686291.6-.6.6h-13.47564287c-.33137085 0-.6-.2686292-.6-.6l-.00008273-2.863-2.162.0009696c-1.38071187 0-2.51005476-1.0762386-2.59488482-2.4355719l-.00511518-.1644281v-5.4658547c0-1.3807119 1.07623858-2.5100548 2.43546701-2.5948848l.164415-.0051152 2.16211799-.0011149.00008273-6.47100004c0-.33137085.26862915-.6.6-.6zm3.6901486 15.24057174-12.275-.0005717.00080838 4.7595717h12.27500002zm1.199-6.9705717.0008564 1.7436232c.0001091.2983108-.2174984.5458399-.5026528.5923626l-.0973472.0078568h-13.47467786c-.29821769 0-.54562307-.2175671-.59214039-.5026368l-.0078596-.0973175-.00017855-1.7433166-2.162.0015432c-.6822341 0-1.25049107.4879941-1.3747559 1.1339674l-.01883529.1312032-.00640881.1348294v5.4658547c0 .7277164.55522888 1.3257521 1.2650986 1.3935912l.13481497.0064088 2.16208643-.0003979.00008273-1.9375717c0-.3313709.26862915-.6.6-.6h13.47564287c.3313709 0 .6.2686291.6.6l-.0007256 1.937 2.163.0009696c.6822341 0 1.2504911-.4879942 1.3747559-1.1339674l.0188353-.1312033.0064088-.1348293v-5.4658547c0-.7277164-.5552289-1.3257521-1.265269-1.3935912l-.1348489-.0064089zm1.7711719.9462192c.4508297 0 .8162994.3654696.8162994.8162993s-.3654697.8162994-.8162994.8162994-.8162994-.3654697-.8162994-.8162994.3654697-.8162993.8162994-.8162993zm-7.2711719-8.01721924-7.97319162.00057174v8.172l12.27219162-.0005717.002-3.897-3.7006865.0002517c-.2982337 0-.5456467-.2175896-.592147-.5026769l-.007853-.0973231zm1.2.83457174v2.24h2.248z"/></svg>