<svg height="32" viewBox="0 0 32 32" width="32" xmlns="http://www.w3.org/2000/svg"><g fill="none" fill-rule="evenodd"><path d="m6.71379848 8.23810685 9.01574522 3.82486165v9.562154l-9.01574522-3.8248616z" fill="#745903" transform="matrix(-1 0 0 1 22.443342 0)"/><path d="m6.71379848 12.1129844 9.01574522 3.8248616v9.562154l-9.01574522-3.8248616z" fill="#af8c1d"/><path d="m6.71379848 12.1129844 9.01574522 3.8248616v6.1622765l-7.12056985-3.1971205-1.89517537-.8509296v-2.2791637z" fill="#94720a"/><path d="m15.7295437 8.23810685 9.0157452 3.82486165v9.562154l-9.0157452-3.8248616z" fill="#94720a"/><path d="m15.7295437 12.1129844 9.0157452 3.8248616v9.562154l-9.0157452-3.8248616z" fill="#ccab41" transform="matrix(-1 0 0 1 40.474832 0)"/><path d="m15.7295437 12.1129844 9.0157452 3.8248616-9.0157452 5.7372924z" fill="#af8c1d" transform="matrix(-1 0 0 1 40.474832 0)"/><path d="m6.71379848 12.1251225 9.01574522 3.8248616v.0500159l-4.0970491 1.7381069-9.07448417-3.8499965zm18.09022932-.0121381 4.0970491 1.7381068v.050016l-9.0157452 3.8248616-4.155788-1.762988zm-13.1715332-5.60084635 4.0970491 1.73810685v.05001595l-9.01574522 3.82486165-4.15578805-1.762988zm8.2528371-.01213805 9.0157452 3.8248616v.0500159l-4.0970491 1.7381069-9.0744841-3.84999641z" fill="#ccab41"/></g></svg>