<svg height="32" viewBox="0 0 32 32" width="32" xmlns="http://www.w3.org/2000/svg"><g fill="none" fill-rule="evenodd"><path d="m16 4.25000102c6.6274167 0 12 5.3725833 12 11.99999998 0 6.627415-5.3725833 12-12 12-6.62741707 0-12-5.372585-12-12 0-6.62741668 5.37258293-11.99999998 12-11.99999998z" fill="#40896b"/><path d="m11.881636 12.3155889c1.5976588 0 2.8928187 1.2951599 2.8928187 2.8928187 0 1.1016564-.6157976 2.0594752-1.5219529 2.5480164.3414.0932894.6879176.2209411 1.0433082.3829764 1.4705223.670447 2.4142442 2.1377717 2.4142442 3.753921v3.9256468c-.2360196.0173737-.4744113.0262142-.7148678.0262142-3.816052 0-7.11206377-2.2265507-8.6597795-5.4513946.3834474-.9824641 1.1371684-1.8007979 2.13205085-2.2543874.35539058-.1620353.70190675-.289687 1.04331385-.3829764-.90615809-.4885412-1.52195853-1.44636-1.52195853-2.5480164 0-1.5976588 1.29515993-2.8928187 2.89282293-2.8928187z" fill="#7ebca2"/><path d="m20.0764356 12.3861771c1.5976588 0 2.8928187 1.29516 2.8928187 2.8928187 0 1.1016565-.6157905 2.0594752-1.5219528 2.5480164.341407.0932894.6879176.2209412 1.0433152.3829764.9939968.4531875 1.7472601 1.270473 2.1310737 2.2517088-1.5609886 3.1882481-4.8373847 5.383485-8.626504 5.383485-.2514167 0-.5005761-.0096648-.7471269-.0286431v-3.8526296c0-1.6161494.9436728-3.083474 2.4142021-3.7539211.3553906-.1620352.7019082-.289687 1.0433153-.3829764-.9061623-.4885412-1.52196-1.4463599-1.52196-2.5480164 0-1.5976587 1.29516-2.8928187 2.8928187-2.8928187z" fill="#7ebca2"/><path d="m15.9896946 14.5338594c1.6033482 0 2.9031105 1.2753529 2.9031105 2.848581 0 1.0848-.6179929 2.0279647-1.527374 2.5090446.3426282.0918495.690374.217553 1.0470352.3771036 1.4757529.6601905 2.4227575 2.105078 2.4227575 3.6965052l.0001491.5724024c-1.4210762.8312678-3.0749948 1.3076862-4.8401865 1.3076862-1.7697337 0-3.4276204-.4788724-4.8511506-1.3141077l.0001367-.5659809c0-1.5914272.9470047-3.0363147 2.4227575-3.6965052.3566541-.1595506.7044071-.2852541 1.0470282-.3771036-.9093811-.4810799-1.527374-1.4242446-1.527374-2.5090446 0-1.5732281 1.2997693-2.848581 2.9031104-2.848581z" fill="#fff"/><path d="m16.5130852 6.89161032c.1209741 0 .2190353.09806823.2190353.21903528v1.28735289c0 .12096705.0980682.21903528.2190423.21903528h1.2873459c.120967 0 .2190423.09806823.2190423.21904235v1.03943289c0 .12097411-.0980753.21903529-.2190423.21903529h-1.2873459c-.1209741 0-.2190423.0980682-.2190423.2190423v1.2873459c0 .120967-.0980612.2190353-.2190353.2190353h-1.0394329c-.1209741 0-.2190423-.0980683-.2190423-.2190353v-1.2873459c0-.1209741-.0980612-.2190423-.2190353-.2190423h-1.2873458c-.1209742 0-.2190424-.09806118-.2190424-.21903529v-1.03943289c0-.12097412.0980682-.21904235.2190424-.21904235h1.2873458c.1209741 0 .2190353-.09806823.2190353-.21903528v-1.28735289c0-.12096705.0980682-.21903528.2190423-.21903528z" fill="#165c3e"/></g></svg>