<svg height="32" viewBox="0 0 32 32" width="32" xmlns="http://www.w3.org/2000/svg"><g fill="none" fill-rule="evenodd"><path d="m16 4.00000066c6.6274159 0 12 5.37258413 12 12.00000004 0 6.6274178-5.3725841 12-12 12-6.62741781 0-12-5.3725822-12-12 0-6.62741591 5.37258219-12.00000004 12-12.00000004z" fill="#59adcb"/><path d="m13.7019232 19.2390894 13.8558112.0000695c-.3565296 1.2747954-.9182996 2.4638904-1.6474354 3.5294104l-15.5646352-.0000684 1.7786406-1.8704141z" fill="#2b81aa"/><path d="m17.4807228 11.0765132 3.1003148 2.6014808-6.850412 8.2046166-3.3849618.8858903.2846365-3.4873711z" fill="#e4f2f6"/><g fill="#fff"><path d="m17.4807228 11.0765132 1.5339393 1.2871328-8.6689983 10.4048549.2846365-3.4873711z"/><path d="m21.9616615 8.88076799c.8507728.73516182.9642473 2.03214491.2530539 2.89238571l-.8473533 1.0225057-3.0985238-2.6318642.8578267-1.03499532.0209521-.0249582c.3456234-.41190448.8335755-.651212 1.3615466-.69740508.5279763-.04618785 1.0520722.12770259 1.4524978.47433139z"/></g></g></svg>