<svg height="32" viewBox="0 0 32 32" width="32" xmlns="http://www.w3.org/2000/svg"><path d="m20.1196616 5.94765093 9.0157452 3.8248616c.2216905.09405051.3656701.31153347.3656701.55234907v.0500159c0 .2408173-.1439815.4583013-.3656741.5523508l-2.7953924 1.1847717 2.7953924 1.1867405c.1939811.0822933.3284645.2590912.3590544.4633335l.0066197.0890172v.050016c0 .2408156-.1439796.4582986-.3656701.5523491l-3.7903964 1.6075437.0002785 5.6141384c0 .2107137-.1102344.4035633-.2863083.5114897l-.0793618.0408594-9.0157452 3.8248616c-.0069824.0029622-.0139782.0057817-.0209848.0084603-.01614.0064023-.0328902.01201-.0498944.0168762-.0117017.0031488-.0231158.0060563-.0345303.0086127l-.0435692.0081785c-.0154722.0021464-.0301972.0037227-.0448742.0047432l-.0197591.0010635-.0205592.0003546c-.0146374-.0000013-.0286432-.0005072-.042561-.0015033-.0135118-.0010318-.0272384-.0025079-.040986-.0044807-.0154985-.0020976-.0308768-.0049116-.0460831-.0083131-.0110197-.0026389-.0223556-.0055289-.03368-.0087726-.0173035-.004749-.0340537-.0103567-.0505031-.016675l-.0206754-.0085443-9.01574523-3.8248616c-.22169047-.0940505-.36567009-.3115335-.36567009-.5523491l-.00078805-5.6271384-3.78934101-1.6075452c-.48755461-.2068529-.48754248-.8978611.0000194-1.1046969l2.85332161-1.2107579-2.85332161-1.210513c-.45505776-.1930467-.48540551-.8078614-.09102944-1.05715782l.09101004-.04753908 9.07448418-3.8499964c.1497612-.06353863.3189039-.06354095.4686669-.00000642l3.8771899 1.64421272 3.9069997-1.65635259c.1497582-.0635311.3188943-.06352983.4686515.00000352zm4.0253488 10.62234907-4.0253488 1.7083179c-.1497572.0635333-.3188933.0635346-.4686515.0000035l-3.3209997-1.4093214.0002785 7.7239844 7.815-3.316zm-17.43199997-3.794-2.619 1.112 7.53799997 3.198 2.62-1.112zm18.09099997-.012-7.539 3.198 2.619 1.112 4.261-1.807 3.278-1.391zm-13.172-5.601-7.53799997 3.198 2.619 1.112 7.53899997-3.198zm8.252-.012-2.619 1.112 7.539 3.198 2.619-1.112z" fill-rule="evenodd"/></svg>