<svg height="32" viewBox="0 0 32 32" width="32" xmlns="http://www.w3.org/2000/svg"><g fill="none" fill-rule="evenodd" transform="translate(4 4)"><path d="m12 0c6.6274188 0 12 5.37258117 12 12 0 6.6274192-5.3725812 12-12 12-6.6274199 0-12-5.3725808-12-12 0-6.62741883 5.3725801-12 12-12z" fill="#9373b3"/><path d="m12.0252062 7.31985679c.011476-.00053064.0232705-.00117449.035072-.00117449.7789938 0 1.4098598.31676668 1.818329.84501304.3282357.42433193.512702.98499007.512702 1.62998537 0 2.86520639 1.0650537 3.20648179.757216 3.42801539-.1409735.1015202-.7633422.0938688-1.4394296.0560523l-.064538-.0036902c-.0323365-.0018882-.0647641-.0038391-.0972365-.0058442l-.0649909-.0040799c-.0325116-.0020735-.0650373-.0041956-.0975309-.0063576l-.0649307-.0043747c-.1189109-.0081089-.236976-.0166785-.3519188-.0252885-.0044645.0809057-.0071177.159993-.0071177.2020484 0 .8824765.4201575.6364413 1.7351309 1.1247619 1.3184827.4902522 1.4861594.9541773 1.4861594 1.8655422l.0001155.8496934c-1.1340195.9087303-2.5733174 1.4522603-4.1395629 1.4522603-1.6207033 0-3.10547591-.5819815-4.25673374-1.5483604l.00138641-.7532679c0-.9113719.16767671-1.3754032 1.48615939-1.8655421 1.31497334-.4884339 1.73501764-.2422925 1.73501764-1.124762 0-.0421685-.0025471-.1211426-.0070115-.2021615-.1044935.0078404-.2115673.0156415-.3195114.0230887l-.0648572.0044233c-.0108223.0007293-.02165.0014544-.0324812.0021751l-.0650165.0042675c-.0325161.0021044-.0650334.0041627-.097506.0061665l-.0648716.0039324c-.71262989.0424012-1.38866798.0556715-1.53643061-.050683-.30762544-.2215336.757209-.562809.757209-3.42801539 0-1.44772655.92637861-2.47499841 2.33135641-2.47499841l.0990664.000464c.0041317.000174.0095651.000406.0167557.00071049z" fill="#fff"/><path d="m17.5622872 6.55091701c2.8509992 2.79305279 3.0462978 7.33816759.4780403 10.37550799l-.0747148.0883637 3.0114167 2.9486308c-.2602495.293165-.5346495.5734927-.8221175.8399139l-2.9395037-2.8784074-.0799434-.0782835-.0863324.0711786c-3.0762402 2.5361365-7.65862046 2.3484509-10.5082506-.466427-3.00784156-2.9495491-3.05474208-7.78759403-.10523113-10.79539526l.1057738-.10576106c3.03146658-2.99648788 7.97705553-2.99648788 11.02086273.00067923zm-5.5166972-1.07807934c-1.7502649 0-3.4327841.67827027-4.68457534 1.93757544l-.09519769.09667642c-2.49809915 2.57357097-2.45687582 6.74452457.08378529 9.27541757 2.58368156 2.5869432 6.79644284 2.5869432 9.38035084-.0002264.0066153-.0067074.0131387-.0128912.0220253-.0209428.0001769-.0001698.0200796-.0180561.0261501-.0236597.0227753-.0210206.0399824-.039296.0552862-.0606279 2.4839061-2.5794718 2.4403862-6.73254617-.103688-9.26706171-1.2612155-1.2568359-2.9376359-1.93715092-4.6841367-1.93715092z" fill="#6b4790"/></g></svg>