<svg height="32" viewBox="0 0 32 32" width="32" xmlns="http://www.w3.org/2000/svg"><path d="m20.1196616 5.94765093 9.0157452 3.8248616c.2216905.09405051.3656701.31153347.3656701.55234907v.0500159c0 .2408173-.1439815.4583013-.3656741.5523508l-2.7953924 1.1847717 2.7953924 1.1867405c.1939811.0822933.3284645.2590912.3590544.4633335l.0066197.0890172v.050016c0 .2408156-.1439796.4582986-.3656701.5523491l-3.7903964 1.6075437.0002785 5.6141384c0 .2408156-.1439796.4582986-.3656701.5523491l-9.0634894 3.843049-.0810452.0206268-.0828013.0090466-.0991728-.0045998-.0867178-.0180417-.0711785-.0252193-9.01574523-3.8248616c-.22169047-.0940505-.36567009-.3115335-.36567009-.5523491l-.00078805-5.6271384-3.78934101-1.6075452c-.48755461-.2068529-.48754248-.8978611.0000194-1.1046969l2.85332161-1.2107579-2.85332161-1.210513c-.45505776-.1930467-.48540551-.8078614-.09102944-1.05715782l.09101004-.04753908 9.07448418-3.8499964c.1497612-.06353863.3189039-.06354095.4686669-.00000642l3.8771899 1.64421272 3.9069997-1.65635259c.1497582-.0635311.3188943-.06352983.4686515.00000352zm4.0253488 10.62234907-4.0253488 1.7083179c-.1497572.0635333-.3188933.0635346-.4686515.0000035l-3.3209997-1.4093214.0002785 7.7239844 7.815-3.316zm-16.83199997-.013.00078805 4.7199844 7.81500002 3.316-.0007881-7.6859844-3.2611899 1.3834576c-.1198104.0508276-.2520238.0609917-.3767945.0304924l-.0918724-.0304988zm-.6-3.781-2.619 1.112 7.53799997 3.198 2.62-1.112zm18.09099997-.012-7.539 3.198 2.619 1.112 7.539-3.198zm-9.031-3.831-7.50799997 3.186 7.46478807 3.1673463 7.5072119-3.1863463zm-4.141-1.77-7.53799997 3.198 2.619 1.112 7.53899997-3.198zm8.252-.012-2.619 1.112 7.539 3.198 2.619-1.112z"/></svg>