<svg height="32" viewBox="0 0 32 32" width="32" xmlns="http://www.w3.org/2000/svg"><g fill="none"><path d="m17.7530309 4.531682c5.6320538.85412365 9.8469691 5.714723 9.8469691 11.468318 0 5.4550235-3.7950558 10.1392231-9.0491411 11.318498-.3233267.0725704-.6442648-.1307077-.7168352-.4540345-.0725704-.3233267.1307078-.6442647.4540345-.7168351 4.7090852-1.0569502 8.1119418-5.2570622 8.1119418-10.1476284 0-5.158168-3.7792755-9.51639173-8.8268967-10.28188382-.3276247-.04968561-.5529389-.3555561-.5032533-.68318085.0447171-.29486228.2969439-.50685301.5857805-.51008171z" fill="#257843"/><path d="m16 26.4c-.9607167 0-1.9035285-.1301167-2.8103396-.3839972-.3191006-.0893388-.6502062.09692-.739545.4160206-.0893388.3191007.0969199.6502063.4160206.7395451 1.0118716.2832943 2.0635203.4284315 3.133864.4284315.3313708 0 .6-.2686292.6-.6s-.2686292-.6-.6-.6z" fill="#338d53"/><path d="m10.5420716 24.8545405c-.80789698-.4991084-1.54462895-1.1071108-2.18873394-1.8054464-.22466572-.2435815-.6042551-.2589158-.84783662-.0342501-.24358151.2246657-.2589158.6042551-.03425008.8478366.71798433.7784352 1.53926622 1.4562142 2.44012574 2.0127535.281912.1741616.6516327.0868127.8257943-.1950993.1741616-.2819121.0868126-.6516328-.1950994-.8257943z" fill="#4ca56b"/><path d="m6.70643973 20.6732624c-.42611779-.8456484-.73499392-1.7470124-.91632913-2.6830524-.06302339-.3253225-.37783989-.5379579-.70316233-.4749345-.32532245.0630234-.53795785.3778399-.47493446.7031624.20240339 1.0447925.54721428 2.0510215 1.02278798 2.9948172.14911487.2959247.50989068.4149375.80581532.2658226.29592465-.1491148.41493749-.5098906.26582262-.8058153z" fill="#67b783"/><path d="m5.6291405 15.2151774c.07118967-.9549355.27216862-1.8857277.59515435-2.7729669.1133532-.3113803-.04717949-.6556948-.35855979-.769048s-.65569484.0471795-.76904803.3585598c-.36051128.9903215-.58482725 2.0291942-.66422581 3.0942436-.02463507.3304538.22328005.6183103.55373391.6429454.33045386.024635.61831031-.2232801.64294537-.5537339z" fill="#a1d1b2"/><path d="m7.55509831 9.92869606c.55508668-.77066321 1.21349507-1.4628998 1.9553819-2.05609692.2588103-.20693928.30086007-.58450392.09392079-.84331422-.20693928-.25881031-.58450392-.30086008-.84331423-.0939208-.826997.66124943-1.56088169 1.43284019-2.17970434 2.29199223-.19366961.26888421-.13269613.64385818.13618809.83752775.26888421.1936697.64385818.1326962.83752779-.13618804z" fill="#bddfc9"/><path d="m12.0035754 6.39540154c.8726237-.36353525 1.7934507-.60664939 2.7423792-.72062638.3290061-.03951734.5636831-.33826461.5241658-.66727072-.0395174-.32900611-.3382646-.56368313-.6672707-.5241658-1.0587941.12717308-2.0867192.39856294-3.0607501.80434449-.305888.12743302-.4505543.47870911-.3231213.7845971.127433.305888.4787091.45055433.7845971.32312131z" fill="#e4f1e8"/><path d="m21.4974893 12.1084766c-.3583222-.3541829-.9391239-.3549623-1.3055742-.0037807l-5.8056273 5.8004322-2.5722586-2.5676489c-.3589821-.3589824-.9426621-.3612389-1.310538-.0086912-.3673858.3671548-.3721303.9508418-.0183509 1.3200029l3.2389092 3.2337217c.1763784.1763788.4113613.2751966.6570511.2751966.2555246 0 .5029619-.1062146.6757371-.2946966l6.438863-6.4272867c.3754353-.3619789.3778797-.9626557.0017886-1.3272493z" fill="#257843"/></g></svg>