<svg height="32" viewBox="0 0 32 32" width="32" xmlns="http://www.w3.org/2000/svg"><path d="m12.4501154 26.4320234c.0893388-.3191006.4204444-.5053594.739545-.4160206.9068111.2538805 1.8496229.3839972 2.8103396.3839972.3313708 0 .6.2686292.6.6s-.2686292.6-.6.6c-1.0703437 0-2.1219924-.1451372-3.133864-.4284315-.3191007-.0893388-.5053594-.4204444-.4160206-.7395451zm5.2055151-21.90716978.0974004.00682838c5.6320538.85412365 9.8469691 5.714723 9.8469691 11.468318 0 5.4550235-3.7950558 10.1392231-9.0491411 11.318498-.3233267.0725704-.6442648-.1307077-.7168352-.4540345-.0725704-.3233267.1307078-.6442647.4540345-.7168351 4.7090852-1.0569502 8.1119418-5.2570622 8.1119418-10.1476284 0-5.158168-3.7792755-9.51639173-8.8268967-10.28188382-.3276247-.04968561-.5529389-.3555561-.5032533-.68318085.0447171-.29486228.2969439-.50685301.5857805-.51008171zm-10.15012946 18.48999038c.24358152-.2246657.6231709-.2093314.84783662.0342501.64410499.6983356 1.38083696 1.306338 2.18873394 1.8054464.281912.1741615.369261.5438822.1950994.8257943-.1741616.281912-.5438823.3692609-.8257943.1950993-.90085952-.5565393-1.72214141-1.2343183-2.44012574-2.0127535-.22466572-.2435815-.20933143-.6231709.03425008-.8478366zm-2.41855277-5.4995685c.32532244-.0630234.64013894.149612.70316233.4749345.18133521.93604.49021134 1.837404.91632913 2.6830524.14911487.2959247.03010203.6567005-.26582262.8058153-.29592464.1491149-.65670045.0301021-.80581532-.2658226-.4755737-.9437957-.82038459-1.9500247-1.02278798-2.9948172-.06302339-.3253225.14961201-.640139.47493446-.7031624zm15.33688603-5.3430239c.2850043-.1970254.6805075-.1711671.9330576.0784655.2687775.2605727.2923584.6729633.0730636.9592168l-.0730724.081814-6.4413395 6.4297162-.0899665.0830424c-.1275434.0994607-.2834914.1532027-.4444765.1532027-.153586 0-.3022589-.0494569-.4269274-.1405825l-.0887022-.0760354-3.2390228-3.233835-.0744768-.0913487c-.1980368-.2873687-.167485-.6854358.0928967-.9456537.2584959-.2476705.6564117-.2702872.9383909-.0673527l.0893488.0759993 2.7137435 2.7088804 5.9469218-5.9416004zm-15.32734528-.1399853c.11333754-.311386.457644-.471936.76903-.3585985.311386.1133376.471936.457644.35859845.76903-.32289431.8871268-.52381549 1.8177895-.594985 2.7725873-.02463166.3304541-.31248555.5783722-.64293967.5537405-.33045411-.0246316-.57837219-.3124855-.55374053-.6429396.07937607-1.0648957.30362751-2.1036237.66403675-3.0938197zm3.1831434-4.74829603c.23893456-.22960165.6187582-.22203582.84835984.01689874.22960165.23893457.22203582.61875821-.01689874.84835985-.45555916.43776476-.87072701.91603768-1.23988551 1.42856462-.19366962.26888421-.56864358.3298577-.8375278.13618808-.26888421-.19366961-.32985769-.56864357-.13618808-.83752779.41155754-.57139231.87434514-1.10452312 1.38214029-1.5924835zm4.85157028-2.47415517c.3259353-.05977293.6386136.15599433.6983866.48192966.0597729.32593532-.1559944.63861364-.4819297.69838657-.3107139.05698148-.6178992.12801354-.9208329.21279895-.3191081.08931229-.6501982-.09697398-.7395105-.41608204s.096974-.65019818.416082-.73951047c.3381546-.09464305.6810334-.17392869 1.0278045-.23752267z"/></svg>