<svg height="32" viewBox="0 0 32 32" width="32" xmlns="http://www.w3.org/2000/svg"><path d="m21.7990681 6.2031764 4.8404566.40527171c.3827564.03204663.6372534.41048017.5225706.77705525l-1.4144422 4.52116004c-.1489853.4762206-.7803334.5730777-1.0652242.1634195l-1.4463611-2.0808689c-4.6847878 3.2815116-8.4081629 7.6477576-11.0071646 12.8071336.3958945.3873262.6313045.9330086.5996665 1.5366977-.0841379 1.0855196-1.0006884 1.9366767-2.1148057 1.8782883-1.08694371-.0569643-1.93667672-1.0006884-1.87828831-2.1148057.0841379-1.0855196 1.00068842-1.9366767 2.11480571-1.8782883.0721411.0055916.1432472.0148596.2131199.0276178 2.6855827-5.3292688 6.5384913-9.8459757 11.3869333-13.24141891l-1.2939201-1.86078742c-.2898718-.41682062.0367181-.98283459.5426536-.94047467zm1.2054376 11.7955541c2.3195959 0 4.2 1.880404 4.2 4.2 0 2.3195959-1.8804041 4.2-4.2 4.2-2.319596 0-4.2-1.8804041-4.2-4.2 0-2.319596 1.880404-4.2 4.2-4.2zm-13.59429929-12.31896566c.33137085 0 .59999999.26862915.59999999.6v3.399l3.4.001c.3313709 0 .6.26862915.6.59999996 0 .3313709-.2686291.6-.6.6l-3.4-.001v3.401c0 .3313709-.26862914.6-.59999999.6s-.6-.2686291-.6-.6v-3.401l-3.4.001c-.33137085 0-.6-.2686291-.6-.6 0-.33137081.26862915-.59999996.6-.59999996l3.4-.001v-3.399c0-.33137085.26862915-.6.6-.6z"/></svg>