<svg height="32" viewBox="0 0 32 32" width="32" xmlns="http://www.w3.org/2000/svg"><g fill="none"><path d="m21.20341 8.9432526-1.1522427-1.65686541c-.4106517-.59049587.0520174-1.392349.7687593-1.33233912l4.8404566.40527172c.5422382.04539939.9027757.58151357.7403084 1.10082827l-1.4144423 4.52116004c-.2110625.6746459-1.1054722.8118601-1.5090676.2315109l-1.3031111-1.8738065c-4.4813657 3.1889817-8.0896177 7.4052025-10.6427897 12.4137018.378042.4350942.5780648.9994918.5465412 1.5996504-.0955927 1.2333055-1.1397565 2.1734749-2.37714209 2.1086263-1.22954348-.0644377-2.18022717-1.1302997-2.11445672-2.3837825.09559269-1.2333056 1.13975656-2.1734749 2.38337751-2.1082213.01695537.0013142.0338799.0028114.0507712.0044909 2.6796143-5.2538052 6.4724782-9.6818494 11.183038-13.0302255z" fill="#252d4f"/><path d="m13.5141565 9.56433272c1.1413851 0 1.1413851 1.71207758 0 1.71207758h-3.57474197v3.574742c0 1.1413851-1.71207761 1.1413851-1.71207761 0v-3.574742h-3.574742c-1.14138508 0-1.14138508-1.71207758 0-1.71207758h3.574742v-3.574742c0-1.14138508 1.71207761-1.14138508 1.71207761 0v3.574742z" fill="#b75c64"/><path d="m22.8282497 26.9191267c2.4300529 0 4.4-1.9699471 4.4-4.4s-1.9699471-4.4-4.4-4.4-4.4 1.9699471-4.4 4.4 1.9699471 4.4 4.4 4.4z" fill="#17bfa8"/></g></svg>