<svg height="32" viewBox="0 0 32 32" width="32" xmlns="http://www.w3.org/2000/svg"><g fill="none" fill-rule="evenodd"><path d="m10.0330795 20.509211c.0002124 1.2611052 1.0641457 2.2950184 2.3763282 2.2950184 1.3142369 0 2.376093-1.0358772 2.376093-2.3089991v-1.8480184c0-.3688767.2990337-.6679104.6679104-.6679104.3688768 0 .6679105.2990337.6679105.6679104v1.8480184c0 2.0148079-1.6636243 3.64482-3.7119139 3.64482-2.0482895 0-3.71191376-1.6300121-3.71191376-3.64482l.00014078-4.6720009c.01261228-.3756627.46548604-.6579076.84628383-.6451229.38773517.0130176.50193935.2726587.48892585.6856138z" fill="#252d4f" fill-rule="nonzero"/><path d="m26.1511561 4.10338517v22.14532163c-4.2740911-4.9418851-9.0503387-8.0720822-16.1240702-8.0720822h-4.2602622v-6.0011572h4.2602622c7.0737315 0 11.8499791-3.13019704 16.1240702-8.07208223z" fill="#dbebef"/><path d="m26.1511561 15.0204032v11.2283036c-4.2740911-4.9418851-9.0503387-8.0720822-16.1240702-8.0720822h-5.93190399v-3.1562214z" fill="#8ab7c6"/><path d="m10.0270859 18.1766246h-5.93190399v-6.0011572h5.93190399z" fill="#b75c64"/><path d="m22.7168959 7.55202282c1.2275093-1.03427189 2.4033503-2.25665603 3.4342602-3.44863765v22.14532163c-1.0309099-1.1919816-2.1996078-2.4037042-3.4342602-3.4330917z" fill="#b75c64"/><g fill="#774752"><path d="m26.1511561 15.0204032v11.2283036c-.8816986-1.0194572-1.8641857-2.0533546-2.9025219-2.9752726-.1758914-.1568274-.3531036-.3105572-.5317383-.4611147v-7.7919163z"/><path d="m4.09518191 15.0204032h5.93190399v3.1562214h-5.93190399z"/></g></g></svg>