<svg height="32" viewBox="0 0 32 32" width="32" xmlns="http://www.w3.org/2000/svg"><path d="m26.7620495 4.5233802v21.3053316c-.6599955-.7011321-1.3245603-1.3548125-1.9967837-1.9614967l-.5056519-.4462085v-16.4899212c.6762459-.58321452 1.3440607-1.21331145 2.006534-1.89074619zm-3.8464701 3.49615483v14.31302197c-2.1895171-1.659141-4.4847716-2.8473823-6.9850617-3.5793607l-.0007294 2.2105348c0 1.9570717-1.6207505 3.5381698-3.6133167 3.5381698-1.9894418 0-3.61325286-1.5779935-3.61358036-3.5224298l-.00026358-3.1147081h-4.53909171v-5.377434h4.53909171l.00006058 5.3488885c.46494525.0196938.91383692.0426631 1.34667496.0689079l-.0024375 3.0741984c.000201 1.1934634 1.0138823 2.1785426 2.2695459 2.1785426 1.2576253 0 2.2692822-.9869063 2.2692822-2.1941353l-.0011985-2.5560782c-1.2321869-.273186-2.5153076-.4425614-3.8602309-.5097284l-.6776623-.0250735v-5.39361c4.7766452-.115906 8.775238-1.4786381 12.4606879-4.15672437z"/></svg>