<svg height="32" viewBox="0 0 32 32" width="32" xmlns="http://www.w3.org/2000/svg"><path d="m22.1168959 21.565624v-12.77915602c-3.3914796 2.56994692-7.0671039 3.87446052-11.48981 3.98177822v4.8155996c4.4227061.1073177 8.0983304 1.4118313 11.48981 3.9817782zm1.2.9718051c.7547193.6508924 1.4976769 1.3671882 2.2342602 2.1496817v-19.02212956c-.7365833.78249344-1.4795409 1.49878927-2.2342602 2.14968164zm-13.88981-9.7619617h-4.05265649v4.8011572h4.05265649zm-4.65265649-1.2h5.25265649c6.3520535 0 11.0428932-2.51422474 15.6702535-7.86457487.3635312-.42033017 1.0538167-.16323425 1.0538167.39249264v22.14532163c0 .5557269-.6902855.8128229-1.0538167.3924927-3.0862821-3.5684902-6.2008023-5.875356-9.817597-7.0161033v1.7183932c0 1.7473406-1.4470616 3.1589991-3.2260929 3.1589991-1.7762418 0-3.22603586-1.4088866-3.22632827-3.1449459l-.00018124-2.580918h-4.65271058c-.33137085 0-.6-.2686291-.6-.6v-6.0011572c0-.3313709.26862915-.6.6-.6zm5.85289179 9.7819438c.0001795 1.0655649.9052289 1.9450773 2.0263283 1.9450773 1.1228509 0 2.0260929-.8811437 2.0260929-1.9589991v-2.0496898c-1.2793973-.3044103-2.6238975-.4729813-4.052602-.5095613z"/></svg>