<svg height="32" viewBox="0 0 32 32" width="32" xmlns="http://www.w3.org/2000/svg"><g fill="none"><path d="m15.210422 16.7600656c-.4479514.4479335-.4514999 1.1718231-.0127547 1.6221141.449947.449965 1.1749218.449965 1.6235004.0013863.4502469-.4386844.4574001-1.1647319.01-1.612132-.446565-.4465651-1.1704546-.4501136-1.6207457-.0113684z" fill="#af3f00"/><path d="m12.8257944 20.5502225c.2862587.2987151.7593045.3140987 1.060666.0378506.3000789-.2875245.3154625-.7605702.0392144-1.0619318-1.0560396-1.1321589-1.0270755-2.8700069.0654929-3.9625753 1.1114214-1.1114213 2.9264466-1.1114213 4.037868 0 1.1017394 1.1017394 1.122021 2.8488527.0472933 3.9806456-.2866332.2990932-.2750488.7740524.0249869 1.0615866.1506285.1381261.3265702.2117018.5137858.2117018.2116294 0 .4098821-.0840054.544508-.2431087 1.6320639-1.7143284 1.5972685-4.3872469-.088442-6.0729573-1.6779677-1.6986874-4.4434446-1.6986874-6.142132 0-1.6693072 1.6693072-1.7167952 4.3318017-.1032413 6.0487885z" fill="#db640b"/><path d="m10.5488564 12.1216136c-1.4382539 1.4382536-2.24336407 3.3560741-2.26374719 5.3943865-.02033277 2.0332767.75045052 3.9629112 2.16205629 5.4256621.2894197.3020046.7661498.3097563 1.0640022.0119038.2966209-.2842146.3004815-.75907.0122322-1.0598518-1.1398077-1.1787777-1.75809675-2.7296101-1.74830085-4.3753214.00974675-1.6374541.66178915-3.1905473 1.82606865-4.3548268 2.4314214-2.4314213 6.3764466-2.4314213 8.807868 0 2.3930724 2.3930724 2.4202957 6.3192774.0584988 8.7493907-.2889803.3015393-.2851197.7763947.0137814 1.0628415.1491.1367251.3349118.2117018.5237858.2117018.2022631 0 .3896866-.0775545.536066-.223934 1.4247913-1.4553104 2.204156-3.3916053 2.1940296-5.4368087-.0103048-2.0410701-.8171776-3.9685174-2.2641269-5.4054213-3.0086435-3.01854053-7.9136868-3.018448-10.922214.0002776z" fill="#ff8f55"/><path d="m8.09903569 9.67143398c-2.08919169 2.08919172-3.2536722 4.86746142-3.27393044 7.81503512-.0203095 2.9550322 1.08883663 5.7411648 3.13213961 7.8552753.28600549.2984425.76086081.3023031 1.06164265.0140538.29890108-.2864468.3027617-.7613022.01451243-1.062084-1.77402885-1.8331657-2.73799046-4.2456472-2.71830267-6.8050604.01971579-2.5531942 1.02574197-4.9547593 2.83607046-6.7650878 3.77142137-3.77142134 9.91644657-3.77142134 13.68786797 0 1.8095223 1.8095223 2.8163446 4.2207328 2.8360704 6.7850878.019708 2.5620377-.9560794 4.983436-2.747217 6.8139393-.2893349.3019029-.2854743.7767583.0134268 1.0632051.1491.1367251.3349118.2117018.5237858.2117018.2022631 0 .3896866-.0775545.536066-.223934 2.0593382-2.1201824 3.1840641-4.9080793 3.1741332-7.8665763 0-2.9517499-1.1606108-5.7320334-3.2641332-7.83555572-4.3585786-4.35857864-11.4535534-4.35857864-15.81213201 0z" fill="#ffcaaf"/></g></svg>