<svg height="32" viewBox="0 0 32 32" width="32" xmlns="http://www.w3.org/2000/svg"><path d="m16.7251017 16.8775c-.39-.39-1.02-.39-1.41-.01-.39.39-.39 1.02-.01 1.41.39.39 1.02.39 1.41 0 .39-.38.4-1.01.01-1.4zm-3.69-2.27c-1.61 1.61-1.66 4.18-.1 5.84.23.24.61.25.85.03.24-.23.25-.61.03-.85-1.11-1.19-1.08-3.02.07-4.17 1.17-1.17 3.08-1.17 4.25 0 1.16 1.16 1.18 3 .05 4.19-.23.24-.22.62.02.85.12.11.26.17.41.17.16 0 .32-.06.43-.19 1.58-1.66 1.55-4.24-.08-5.87-1.62-1.64-4.29-1.64-5.93 0zm8.33-2.38c-2.95-2.96-7.76-2.96-10.71 0-1.40999999 1.41-2.19999999 3.29-2.21999999 5.29s.74 3.89 2.11999999 5.32c.23.24.61.25.85.01.24-.23.24-.61.01-.85-1.17-1.21-1.79999999-2.8-1.78999999-4.48s.67999999-3.27 1.86999999-4.46c2.49-2.49 6.53-2.49 9.02 0 2.45 2.45 2.48 6.47.06 8.96-.23.24-.23.62.01.85.12.11.27.17.42.17.16 0 .31-.06.43-.18 1.4-1.43 2.16-3.33 2.1500974-5.33-.0100974-2-.8000974-3.89-2.2200974-5.3zm2.44-2.45c-4.3-4.3-11.3-4.3-15.59999999 0-2.06 2.06-3.21 4.8-3.23 7.71s1.07 5.66 3.09 7.75c.23.24.61.24.85.01s.24-.61.01-.85c-1.8-1.86-2.78-4.31-2.76-6.91.02-2.59 1.04-5.03 2.88-6.87 3.82999999-3.83 10.06999999-3.83 13.89999999 0 1.84 1.84 2.86 4.29 2.88 6.89s-.97 5.06-2.79 6.92c-.23.24-.23.62.01.85.12.11.27.17.42.17.16 0 .31-.06.43-.18 2.03-2.09 3.14-4.84 3.130067-7.76 0-2.92-1.150067-5.66-3.220067-7.73z"/></svg>