<svg height="32" viewBox="0 0 32 32" width="32" xmlns="http://www.w3.org/2000/svg"><g fill="none" fill-rule="nonzero"><path d="m6.77830394 12.4996548h20.20417106v4.5770708c0 .469442-.380558.85-.85.85-.4694421 0-.85-.380558-.85-.85v-2.8770708h-18.50417106v2.8770708c0 .469442-.38055797.85-.85.85-.46944204 0-.85-.380558-.85-.85v-12.50598463c0-.46944204.38055796-.85.85-.85.46944203 0 .85.38055796.85.85z" fill="#7c969d"/><path d="m14.2992586 12.5066761v-5.74812324c0-.33137085.2686291-.6.6-.6h9.4832164c1.4359403 0 2.6 1.16405965 2.6 2.6v3.74812324z" fill="#3bbee8"/><path d="m14.2992586 12.5066761v-1.6829428h12.6832164v1.6829428z" fill="#25a5cf"/><path d="m10.5473125 10.8237333c-1.38982176 0-2.51649494-1.12667321-2.51649494-2.51649502 0-1.3898218 1.12667318-2.51649499 2.51649494-2.51649499 1.3898219 0 2.516495 1.12667319 2.516495 2.51649499 0 1.38982181-1.1266731 2.51649502-2.516495 2.51649502z" fill="#f0ab15"/><path d="m21.5514778 18.9080176h-7c-.33 0-.6.27-.6.6s.27.6.6.6h7c.33 0 .6-.27.6-.6s-.27-.6-.6-.6z" fill="#005a7d"/><path d="m10.4114778 18.5080176c-.55 0-1 .44-1 1 0 .55.45 1 1 1s1-.44 1-1c0-.55-.45-.99-1-1z" fill="#4da86d"/><path d="m21.3614778 24.8480176h-7c-.33 0-.6.27-.6.6s.27.6.6.6h7c.33 0 .6-.27.6-.6s-.27-.6-.6-.6z" fill="#005a7d"/><path d="m10.4114778 24.4480176c-.55 0-1 .44-1 1 0 .55.45 1 1 1s1-.44 1-1c0-.55-.45-1-1-1z" fill="#bb3600"/></g></svg>