<svg height="32" viewBox="0 0 32 32" width="32" xmlns="http://www.w3.org/2000/svg"><path d="m6.72526902 7.09802094.00680146-.00046513.03087021-.00201882c.03823768-.00269388.03823768-.00269388.09935303-.00759574.11308314-.00938501.24463002-.02241181.39379829-.03977268.43167637-.05024043.91389403-.12512601 1.43429945-.22962222 1.48938144-.29906438 2.97797594-.77433123 4.36209714-1.46249281.9480263-.47134258 1.8136564-1.02796669 2.5793154-1.67585941.2038197-.17247007.5000469-.18034786.7127452-.01895457.4002625.30371507.8143609.5876609 1.2410935.85245452 1.6858819 1.04611362 3.4958489 1.75609213 5.3059162 2.19093884.6318664.15179822 1.2172565.25824019 1.7409798.3272956.1810028.02386607.3406031.04134709.4774957.05350897.0739966.0063071.0739966.0063071.1201291.00965166l.0285006.00189587.013701.00086671.0097273.00075672c.2872169-.00058018.5205226.23178479.5211038.51900169v.00105052 6.58206654c0 6.5737917-2.6539577 11.2506148-9.6508316 13.191548-.0998026.0276852-.2052625.0276545-.3050489-.000089-6.96007485-1.9350953-9.6327003-6.6799033-9.6327003-13.191459-.00529374-.6628334-.00934945-1.5508207-.0123044-2.605685-.00240744-.8594118-.00395493-1.78012576-.00481464-2.70082786-.00030089-.32223642-.00042984-.52171287-.00068777-.8899989v-.33769852l.00050611-.01614121c.00913634-.29191366.2367514-.53004069.52795432-.55235477zm.61222684 1.79512892c.0008591.92004568.00240545 1.84007954.00481067 2.69869894.00294992 1.053071.00699767 1.9393146.01229082 2.6043418.00001791 6.0051952 2.36476267 10.2513775 8.64560895 12.0545748 6.3183896-1.8084218 8.6629899-5.9882541 8.6629899-12.0500382v-6.01601594c-.0577242-.00687228-.1176313-.01438352-.179682-.0225652-.5619183-.07409161-1.1862953-.18762258-1.8582497-.34905147-1.9215354-.46162554-3.8434358-1.2155111-5.6406928-2.33073456-.3293957-.2043947-.6519453-.41958313-.9671555-.64582496-.7480791.58811758-1.571304 1.09975828-2.4574058 1.54031309-1.4818996.73677535-3.0639423 1.24187759-4.64518932 1.55938837-.55224468.11088947-1.06522374.19055211-1.52694032.24428875-.01716686.00199796-.03413289.00394443-.05089715.00584028 0 .26048421.00026523.44224056.00051225.7067843zm9.18328324 7.67093664.0491913 4.8206237c.0032122.3147859-.2493682.5725743-.5641541.5758466-.3147859.0031521-.5725743-.2494283-.5757865-.5642142l-.0495121-4.8520608c-1.2943706-.283442-2.2632568-1.4365813-2.2632568-2.8160161 0-1.592093 1.2906463-2.8827393 2.8827392-2.8827393 1.592093 0 2.8827393 1.2906463 2.8827393 2.8827393 0 1.4142805-1.0184543 2.5906882-2.3619603 2.8358208zm-.520779-1.0930816c.9624883 0 1.7427393-.7802509 1.7427393-1.7427392s-.780251-1.7427393-1.7427393-1.7427393-1.7427392.780251-1.7427392 1.7427393.7802509 1.7427392 1.7427392 1.7427392z"/></svg>