<svg height="32" viewBox="0 0 32 32" width="32" xmlns="http://www.w3.org/2000/svg"><g fill="none" fill-rule="evenodd"><path d="m25.6790872 7.25532485c.0186703 0-9.4761529-3.6446636-9.7191305-3.73810556-.1868839.07474407-9.73780081 3.73810556-9.71913035 3.73810556v6.87811615c0 4.7661095 1.3644509 10.9900844 9.71913035 13.3076729 8.3359816-2.3176359 9.700405-8.6537507 9.700405-13.3076729.0187255-2.3549842.0187255-6.87811615.0187255-6.87811615z" fill="#17bfa8" fill-rule="nonzero" transform="matrix(-1 0 0 1 31.919914 0)"/><path d="m23.8100173 5.3862958c-.1682335.05609365-7.8687243 3.02787072-7.8500604 3.00917284v5.77536806c0 3.9997811.7850603 9.4574275 7.8500604 11.4012481z" fill="#187f70" fill-rule="nonzero" transform="matrix(-1 0 0 1 39.769974 0)"/><path d="m17 15.4348696v4.7849777c0 .5522848-.4477153 1-1 1s-1-.4477152-1-1v-4.7849777c-.8457796-.3815332-1.4344624-1.2321468-1.4344624-2.2202546 0-1.3445164 1.089946-2.4344623 2.4344624-2.4344623s2.4344624 1.0899459 2.4344624 2.4344623c0 .9881078-.5886828 1.8387214-1.4344624 2.2202546z" fill="#fff"/></g></svg>