<svg height="32" viewBox="0 0 32 32" width="32" xmlns="http://www.w3.org/2000/svg"><path d="m16.3445492 3.66123956c.4002625.30371507.8143609.5876609 1.2410935.85245452 1.6858819 1.04611362 3.4958489 1.75609213 5.3059162 2.19093884.6318664.15179822 1.2172565.25824019 1.7409798.3272956.1810028.02386607.3406031.04134709.4774957.05350897.0739966.0063071.0739966.0063071.1201291.00965166l.0285006.00189587.013701.00086671.0097273.00075672c.2872169-.00058018.5205226.23178479.5211038.51900169v6.58311706c0 6.5737917-2.6539577 11.2506148-9.6508316 13.191548-.0998026.0276852-.2052625.0276545-.3050489-.000089-6.96007485-1.9350953-9.6327003-6.6799033-9.6327003-13.191459-.00529374-.6628334-.00934945-1.5508207-.0123044-2.605685-.00180558-.6445589-.00312744-1.3236002-.00403821-2.0112571l-.00095809-1.93340939c.00913634-.29191366.2367514-.53004069.52795432-.55235477l.00680146-.00046513.03087021-.00201882c.03823768-.00269388.03823768-.00269388.09935303-.00759574.11308314-.00938501.24463002-.02241181.39379829-.03977268.43167637-.05024043.91389403-.12512601 1.43429945-.22962222 1.48938144-.29906438 2.97797594-.77433123 4.36209714-1.46249281.9480263-.47134258 1.8136564-1.02796669 2.5793154-1.67585941.2038197-.17247007.5000469-.18034786.7127452-.01895457zm-.3445491 7.18428684c-1.5920929 0-2.8827392 1.2906463-2.8827392 2.8827393 0 1.3794348.9688862 2.5325741 2.2632568 2.8160161l.0495121 4.8520608c.0032122.3147859.2610006.5673663.5757865.5642142.3147859-.0032723.5673663-.2610607.5641541-.5758466l-.0491913-4.8206237c1.343506-.2451326 2.3619603-1.4215403 2.3619603-2.8358208 0-1.592093-1.2906463-2.8827393-2.8827393-2.8827393z"/></svg>