<svg height="32" viewBox="0 0 32 32" width="32" xmlns="http://www.w3.org/2000/svg"><g fill="none" fill-rule="evenodd"><g fill-rule="nonzero"><g fill="#6ad1eb"><path d="m26.7810589 4.60894113c.3313708 0 .6.26862915.6.6s-.2686292.6-.6.6c-5.6228663 0-10.1811 4.55823377-10.1811 10.18109997 0 .3313709-.2686292.6-.6.6-.3313709 0-.6-.2686291-.6-.6 0-6.28560793 5.095492-11.38109997 11.3811-11.38109997z" transform="matrix(0 1 -1 0 31.99 -10.791018)"/><path d="m.02999029 11.6207878c-.16568542-.2869756-.06736033-.6539298.21961525-.8196152.28697557-.1656855.65392981-.0673604.81961524.2196152 2.81143313 4.869545 9.03809622 6.5379744 13.90764122 3.7265412.2869756-.1656854.6539298-.0673603.8196153.2196153.1656854.2869756.0673603.6539298-.2196153.8196152-5.4434962 3.142804-12.40406772 1.2777245-15.54687171-4.1657717z" transform="matrix(0 1 -1 0 21.930197 6.103729)"/><path d="m19.7426337 31.7403945c-.1656854.2869755-.5326396.3853006-.8196152.2196152s-.3853007-.5326397-.2196152-.8196152c2.8114331-4.8695451 1.1430037-11.0962081-3.7265413-13.9076413-.2869756-.1656854-.3853006-.5326396-.2196152-.8196152s.5326396-.3853007.8196152-.2196153c5.4434962 3.142804 7.3085757 10.1033756 4.1657717 15.5468718z" transform="matrix(0 1 -1 0 42.049803 6.103729)"/></g><path d="m6.73857689 19.267486c1.14128637 0 2.06648178.9251954 2.06648178 2.0664818s-.92519541 2.0664818-2.06648178 2.0664818-2.06648178-.9251954-2.06648178-2.0664818.92519541-2.0664818 2.06648178-2.0664818z" fill="#45889f" transform="matrix(0 1 -1 0 28.072545 14.595391)"/><path d="m15.9999589 3.23939545c1.1412863 0 2.0664817.92519541 2.0664817 2.06648178s-.9251954 2.06648178-2.0664817 2.06648178c-1.1412864 0-2.0664818-.92519541-2.0664818-2.06648178s.9251954-2.06648178 2.0664818-2.06648178z" fill="#45889f" transform="matrix(0 1 -1 0 21.305836 -10.694082)"/><path d="m25.2613408 19.267486c1.1412864 0 2.0664818.9251954 2.0664818 2.0664818s-.9251954 2.0664818-2.0664818 2.0664818c-1.1412863 0-2.0664817-.9251954-2.0664817-2.0664818s.9251954-2.0664818 2.0664817-2.0664818z" fill="#45889f" transform="matrix(0 1 -1 0 46.595309 -3.927373)"/></g><path d="m14.3048714 10.6094911-.0494925.0039936c-.1449779.0236472-.2556306.1494662-.2556306.3011296l-.000339 3.084795-3.084795.000339c-.1685149 0-.3051232.1366083-.3051232.3051231v3.3902572l.0039936.0494925c.0236472.1449779.1494662.2556306.3011296.2556306l3.084795-.0001695.000339 3.0853035c0 .1685149.1366083.3051232.3051231.3051232h3.3902572l.0494925-.0039936c.1449779-.0236472.2556306-.1494662.2556306-.3011296l-.0001695-3.0853035 3.0853035.0001695c.1685149 0 .3051232-.1366083.3051232-.3051231v-3.3902572l-.0039936-.0494925c-.0236472-.1449779-.1494662-.2556306-.3011296-.2556306l-3.0853035-.000339.0001695-3.084795c0-.1685149-.1366083-.3051232-.3051231-.3051232z" fill="#b75c64"/></g></svg>