<svg height="32" viewBox="0 0 32 32" width="32" xmlns="http://www.w3.org/2000/svg"><path d="m16 3.4072819c.7379632 0 1.461116.06326721 2.1642996.1846601l.4217709.08036352.2969295.06497638.2285317.05618551.429341.11677817.463085.14488995c.4578209.1530287.9008359.33006133 1.3298692.53021356l.4331526.21244713c.1321079.06793029.2629785.13818428.3925534.21072379l.3116321.18035835c3.6730208 2.19814601 6.128835 6.20453534 6.128835 10.78321294l-.0062308.3989582-.0189907.4022123c-.0070281.1112972-.0155205.2223686-.0254714.3331945-.2159667 2.3863545-1.0953794 4.5736698-2.452384 6.3832384l-.2387686.3083426-.1432802.1759631-.2351962.2755131-.1573155.1756761-.2656631.2823717c-1.872051 1.9271459-4.3486654 3.256295-7.1235821 3.6823782l-.3830402.0527631-.3537223.0382745-.420148.032452-.3367179.015971c-.1458806.0049868-.2923906.0075006-.439489.0075006-6.36101143 0-11.62162384-4.70069-12.47799498-10.8092604l-.03921936-.3078491-.03201682-.3128189-.02576884-.3356904-.01742777-.3594407c-.0050344-.1459645-.00757223-.2925615-.00757223-.4397499 0-3.0691987 1.10348237-5.8812485 2.93632636-8.06327797l.30647555-.35148122c2.3062086-2.54847108 5.64424409-4.15005021 9.35719809-4.15005021zm-11.09922057 15.1733466.05809841.2315739c1.23694607 4.7929358 5.53137306 8.3627823 10.68762926 8.5193388-.2501793-.9871868-.4387028-1.9836701-.5656298-2.9846268-1.1609995-.1119673-2.0835775-1.042845-2.1842314-2.2087618-2.8512089-.4952674-5.60706956-1.6813738-7.99586647-3.5575241zm19.32749087 1.840504-.1037506.0539021c-2.0211071 1.0221144-4.1955393 1.638538-6.4015802 1.8492713-.1366725.8333918-.697508 1.5245084-1.4536186 1.8444168l-.0713674-.6291014c.1091723 1.1152237.2991665 2.2271742.5694946 3.3267569l.1115519.4356218.1386605-.009763c2.6965478-.237801 5.123241-1.4115458 6.9512148-3.193186l.226532-.2270588c.1698403-.1750688.3340185-.3554893.4923579-.5410709l.0792348-.0979213-.007782-.0851534c-.102203-.9350943-.2813836-1.846058-.5309477-2.7267141zm2.8701947-1.8413077-.169522.1326418c-.5255307.4026715-1.0682684.772422-1.6253996 1.1092515.1950377.6487979.3544476 1.3139375.4756847 1.9927775.5972616-.9896339 1.0468514-2.0781236 1.3192369-3.2346708zm-7.7238903-5.9633059-.0633723.0558901c-.4217913.3508118-.9640093.5617925-1.5555045.5617925-.0839121 0-.1668326-.0042461-.2485581-.0125351l.1602996-.4287551c-.8581006 2.2090888-1.367157 4.5145723-1.5275007 6.8419907.6935338.2464025 1.2400529.7974807 1.4813407 1.4914182l-.3770799.0327341c2.2820746-.1666901 4.5369524-.7989749 6.6096433-1.8952732-.938906-2.573958-2.4924314-4.8462728-4.4792681-6.6472622zm-8.1917584-4.06558059-.1036219.07619555c-2.3663833 1.78147574-4.40207023 4.01570094-5.9825914 6.62584604l-.23921367.4039366-.25538933.4510835.00530688.2748236c.00466406.1308837.0115483.2612042.02061633.3909251l.10817773.0986219c2.42054024 2.1926148 5.32900496 3.5532873 8.35513416 4.0820154.3256859-.750871 1.0196175-1.3038621 1.8536044-1.4334575l-.0296742.5005618c.1215016-2.4489193.6096358-4.8799499 1.463085-7.215972-.6383849-.4374587-1.056636-1.1725856-1.056636-2.0054004 0-.2914232.051214-.5708848.1451328-.82987548-1.3373881-.6567264-2.7762395-1.13880134-4.2839308-1.41930411zm10.4501837-2.46093831-.1331593.15849994c-.6917115.83724973-1.3277066 1.72516639-1.9039256 2.66006268l-.1081244.18140346c.4340516.43958543.7019908 1.04357832.7019908 1.71015182 0 .2842787-.0487336.557175-.1383023.8107904l.3666965.3357297c1.9651644 1.8465499 3.5154758 4.1327306 4.4894932 6.7075902.8241993-.5143663 1.6132312-1.1090799 2.356283-1.7821926l.1080481-.1000356.0131675-.2151119c.0098486-.1936931.0148325-.3886651.0148325-.5847968 0-4.1729718-2.2561522-7.82092649-5.6189935-9.79725459zm-13.53888235 2.17710595-.36110463.00378204-.11801302.00311201-.1188404.12894184c-.17367944.19378216-.34068053.39340812-.50068156.59850859-.98402489 1.26152667-1.70723136 2.73540957-2.08876576 4.34102257 1.31322251-1.8969743 2.86826883-3.57902462 4.61410632-5.01543967-.36064866-.0304636-.72539972-.04948354-1.09290461-.05666729zm10.39188235-3.38710595-.3498691.10766154c-1.9892138.63311226-3.8722142 1.51876485-5.6070556 2.63106645 1.266135.32074633 2.4796075.7758433 3.6240096 1.34950341.4267239-.37445608.9880726-.60219709 1.602613-.60219709.244882 0 .4813178.0361621.7042586.10343751l-.2410332.40431457c.6835204-1.18042022 1.4557199-2.29374392 2.3101075-3.33407523-.2025173-.08769099-.40899-.16989298-.6186337-.24621737l-.286573-.1001586-.2544414-.08165559-.436972-.12489058-.2496303-.0630303zm-2.7980901-.26927937-.274587.01135021c-2.4594933.12428954-4.7132385 1.02562648-6.51923129 2.46260725.67357943.02948446 1.33776469.09611611 1.99068559.19789096 1.3263175-.9448323 2.746001-1.75796467 4.2396044-2.42751898z"/></svg>