<svg fill="none" height="32" viewBox="0 0 32 32" width="32" xmlns="http://www.w3.org/2000/svg"><g fill="#000"><path d="m15.998 24.2109c.8211 0 1.4874.6653 1.4874 1.4864-.0001.8209-.6664 1.4863-1.4874 1.4863-.8207-.0002-1.4862-.6655-1.4863-1.4863 0-.8209.6655-1.4862 1.4863-1.4864z"/><path clip-rule="evenodd" d="m9.67285 22.1621c.66275-1.1479 2.13045-1.5416 3.27835-.8789 1.1477.6628 1.5406 2.1305.8779 3.2783-.6628 1.1476-2.1305 1.5415-3.2783.8789-1.14763-.6627-1.54031-2.1305-.87795-3.2783zm2.67875.1602c-.5736-.3311-1.3081-.1347-1.6397.4394-.3314.5743-.1345 1.3085.4385 1.6397.5377.3103 1.2173.1568 1.5732-.3369l.0664-.1036c.3311-.574.1347-1.3074-.4384-1.6386z" fill-rule="evenodd"/><path clip-rule="evenodd" d="m19.0508 21.2832c1.1478-.6625 2.6156-.2689 3.2783.8789.6622 1.1478.2688 2.6157-.8789 3.2783-1.1477.6624-2.6156.2686-3.2783-.8789-.6625-1.1478-.2688-2.6156.8789-3.2783zm2.2392 1.4785c-.3315-.5739-1.0659-.7705-1.6396-.4394-.5736.3314-.7706 1.0653-.4404 1.6386.3315.5741 1.067.7715 1.6406.4405.5736-.3314.7705-1.0658.4394-1.6397z" fill-rule="evenodd"/><path d="m6.8584 19.5625c.71103-.4105 1.62074-.1671 2.03125.5439.4103.7109.16669 1.6197-.54395 2.0303-.71102.4105-1.62074.1671-2.03125-.5439-.41028-.7109-.16671-1.6197.54395-2.0303z"/><path d="m23.1113 20.1055c.4106-.7107 1.3194-.9543 2.0303-.544.711.4105.9545 1.3202.5439 2.0313-.4105.7107-1.3193.9542-2.0302.5439-.7111-.4105-.9545-1.3202-.544-2.0312z"/><path d="m15.998 19.2109c.8211 0 1.4874.6653 1.4874 1.4864-.0001.821-.6663 1.4863-1.4874 1.4863-.8208-.0002-1.4863-.6655-1.4863-1.4863 0-.8209.6655-1.4862 1.4863-1.4864z"/><path d="m11.1865 17.0615c.7111-.4105 1.6208-.1671 2.0313.544.4103.7109.1667 1.6197-.544 2.0302-.711.4106-1.6207.1671-2.0312-.5439-.4103-.7109-.1667-1.6197.5439-2.0303z"/><path d="m18.7812 17.6055c.4106-.711 1.3193-.9545 2.0303-.544.711.4106.9545 1.3193.544 2.0303s-1.3193.9544-2.0303.5439-.9545-1.3192-.544-2.0302z"/><path clip-rule="evenodd" d="m7.5 13.6006c1.32524.0002 2.39931 1.0741 2.39941 2.3994-.00022 1.3252-1.07424 2.4002-2.39941 2.4004-1.32535 0-2.40017-1.0751-2.40039-2.4004.0001-1.3254 1.07497-2.3994 2.40039-2.3994zm0 1.2002c-.62192 0-1.13306.4723-1.19434 1.0771l-.00586.1221c.00022.6628.53786 1.2002 1.2002 1.2002l.12207-.0059c.60455-.0614 1.07694-.5725 1.07715-1.1943l-.00586-.1221c-.05715-.5649-.5062-1.014-1.07129-1.0713z" fill-rule="evenodd"/><path clip-rule="evenodd" d="m24.5 13.6006c1.3252.0002 2.3993 1.0741 2.3994 2.3994-.0002 1.3252-1.0742 2.4002-2.3994 2.4004-1.3253 0-2.4002-1.0751-2.4004-2.4004.0001-1.3254 1.075-2.3994 2.4004-2.3994zm0 1.2002c-.6219 0-1.1331.4723-1.1943 1.0771l-.0059.1221c.0002.6628.5379 1.2002 1.2002 1.2002l.1221-.0059c.6045-.0614 1.0769-.5725 1.0771-1.1943l-.0058-.1221c-.0572-.5649-.5062-1.014-1.0713-1.0713z" fill-rule="evenodd"/><path d="m10.6455 12.9082c.4106-.7109 1.3193-.9544 2.0303-.5439.7109.4105.9543 1.3193.5439 2.0302-.4105.711-1.3192.9544-2.0302.544-.7111-.4105-.9545-1.3193-.544-2.0303z"/><path d="m19.3223 12.3643c.711-.4105 1.6207-.1671 2.0312.5439.4104.7109.1668 1.6197-.5439 2.0303-.7111.4105-1.6208.1671-2.0313-.544-.4102-.7108-.1666-1.6196.544-2.0302z"/><path d="m15.998 9.81641c.821 0 1.4873.66529 1.4874 1.48629 0 .8211-.6663 1.4864-1.4874 1.4864-.8208-.0002-1.4863-.6655-1.4863-1.4864.0001-.8208.6655-1.4861 1.4863-1.48629z"/><path d="m6.31445 10.4082c.41055-.71089 1.32029-.95439 2.03125-.54394.71103.41054.95446 1.32024.54395 2.03124-.41052.7108-1.31937.9542-2.03027.544-.71102-.4106-.95544-1.3203-.54493-2.0313z"/><path d="m23.6553 9.86523c.711-.41029 1.6198-.16699 2.0302.54397.4105.7109.1668 1.6197-.5439 2.0303-.711.4105-1.6207.167-2.0312-.544-.4103-.711-.1661-1.6198.5449-2.03027z"/><path clip-rule="evenodd" d="m10.5508 6.56055c1.1479-.6627 2.6156-.26996 3.2783.87793.6625 1.14785.2689 2.61562-.8789 3.27832-1.1477.6624-2.6155.2695-3.27832-.87793-.66271-1.14785-.26886-2.61553.87892-3.27832zm2.2392 1.47754c-.3311-.57336-1.0653-.77003-1.6396-.43848-.5738.33158-.7707 1.06548-.4404 1.63867.3312.57347 1.0665.77082 1.6406.43945.5739-.33148.7705-1.06594.4394-1.63964z" fill-rule="evenodd"/><path clip-rule="evenodd" d="m18.1729 7.43848c.6627-1.14776 2.1304-1.54064 3.2783-.87793 1.1475.66285 1.5405 2.13056.8779 3.27832-.6629 1.14723-2.1307 1.54043-3.2783.87793-1.1475-.6628-1.5404-2.13058-.8779-3.27832zm2.6777.16113c-.574-.33103-1.3075-.13473-1.6387.43848-.3314.57421-.1339 1.30846.4395 1.63964.5737.33077 1.3073.13396 1.6386-.43945.331-.57393.1341-1.30743-.4394-1.63867z" fill-rule="evenodd"/><path d="m15.998 4.81641c.8211 0 1.4873.66531 1.4874 1.48632-.0001.821-.6663 1.48633-1.4874 1.48633-.8208-.0002-1.4862-.66545-1.4863-1.48633 0-.82089.6655-1.48612 1.4863-1.48632z"/></g></svg>