<svg fill="none" height="32" viewBox="0 0 32 32" width="32" xmlns="http://www.w3.org/2000/svg"><path clip-rule="evenodd" d="m9.5 19.7368c.37786.1393.7158.3479 1.0017.6083l-.0017 6.6549h-7v-4.3949c0-1.2806.79831-2.4255 2-2.8683 1.29092-.4756 2.70908-.4756 4 0zm-2-8.7368c1.65685 0 3 1.3431 3 3s-1.34315 3-3 3-3-1.3431-3-3 1.34315-3 3-3z" fill="#afcbd6" fill-rule="evenodd"/><path clip-rule="evenodd" d="m26.5009 19.7368c1.2017.4428 2 1.5877 2 2.8683v4.3949h-7l-.0009-6.6555c.2857-.2602.6234-.4686 1.0009-.6077 1.291-.4756 2.7091-.4756 4 0zm-2-8.7368c1.6569 0 3 1.3431 3 3s-1.3431 3-3 3c-1.6568 0-3-1.3431-3-3s1.3432-3 3-3z" fill="#afcbd6" fill-rule="evenodd"/><g fill="#005a7d"><path d="m14.0836 15.747c1.2582-.3085 2.5728-.3087 3.831-.0004l-.2388.4983c-.2994.6245-.9306 1.0219-1.6232 1.0219h-.1072c-.6926 0-1.3237-.3974-1.6231-1.0219z"/><path d="m19.0625 16.1281-.3046.6355c-.4185.8729-1.2258 1.4796-2.1563 1.6526v3.4349c.5726.2363.9756.8002.9756 1.4581 0 .8708-.7059 1.5767-1.5767 1.5767s-1.5767-.7059-1.5767-1.5767c0-.6587.404-1.2231.9778-1.4589v-3.4331c-.9327-.1718-1.7422-.7791-2.1614-1.6536l-.3043-.6348c-1.4748.6759-2.4359 2.1546-2.4359 3.7974v7.0738h11v-7.0738c0-1.6434-.9618-3.1226-2.4375-3.7981z"/><path d="m20.0317 9.27796c0-2.36265-1.8799-4.27796-4.1989-4.27796s-4.1989 1.91531-4.1989 4.27796c0 2.36264 1.8799 4.27794 4.1989 4.27794s4.1989-1.9153 4.1989-4.27794z"/></g></svg>