<svg height="32" viewBox="0 0 32 32" width="32" xmlns="http://www.w3.org/2000/svg"><path d="m4.90077943 18.5806285c2.38879691 1.8761503 5.14465757 3.0622567 7.99680447 3.5586939.0998904 1.164923 1.0224038 2.0956355 2.1844836 2.209151.1257368.9993977.3142603 1.995881.5644396 2.9830678-5.0551532-.1534867-9.28194294-3.5877213-10.61135777-8.2388287l-.07627149-.2805101zm19.32749087 1.840504c.1996513.7045249.3542571 1.4284466.4604413 2.1686026l.0705064.5581115.007782.0851534-.0792348.0979213-.2418661.2744777-.2504918.2665932-.226532.2270588c-1.7448841 1.7006566-4.0352955 2.8474249-6.5852073 3.1549881l-.3660075.0381979-.1386605.009763-.1115519-.4356218c-.2162625-.8796662-.3811113-1.7672478-.4942965-2.6580883l-.0038307-.0395672c.7558081-.3197804 1.3164973-1.010472 1.4538624-1.8438696 2.0361204-.1950281 4.0455157-.735267 5.9322608-1.6211473l.4690756-.2286712zm2.8701947-1.8413077c-.2723855 1.1565472-.7219753 2.2450369-1.3192369 3.2346708-.1212371-.67884-.280647-1.3439796-.4756847-1.9927775.4178484-.2526221.8276005-.5237623 1.2280692-.8134206l.3973304-.2958309zm-7.7238903-5.9633059c1.9868367 1.8009894 3.5403621 4.0733042 4.4792681 6.6472622-1.9345115 1.0232117-4.0277281 1.6422162-6.1536369 1.8557277l-.0789265.0068114c-.2412878-.6939375-.7878069-1.2450157-1.4788207-1.4924979.1447676-2.1329116.5845666-4.2476933 1.3177491-6.286731l.046932-.1254249c.0817255.008289.164646.0125351.2485581.0125351.5914952 0 1.1337132-.2109807 1.5555045-.5617925zm-8.1917584-4.06558059c1.5076913.28050277 2.9465427.76257771 4.285706 1.41780345-.095694.26049134-.146908.53995294-.146908.83137614 0 .8328148.4182511 1.5679417 1.0561605 2.006788-.8529703 2.3346176-1.3411075 4.7656566-1.4626095 7.2145844l.0296742-.5005618c-.8338257.1295703-1.5276502.6823728-1.8549576 1.4318914-2.880739-.502059-5.65598033-1.7601366-8.00471041-3.7728782l-.34907055-.3075711-.10817773-.0986219-.01195965-.1950265-.00865668-.1958986-.00530688-.2748236.25538933-.4510835.23921366-.4039366c1.4817386-2.447011 3.36352523-4.5636237 5.54280031-6.28653244l.4397911-.3393136zm10.4501837-2.46093831.1480065.08483671c3.3628413 1.9763281 5.6189935 5.62428279 5.6189935 9.79725459l-.003723.2933129-.0111095.2914839-.0131675.2151119-.1080481.1000356c-.7430518.6731127-1.5320837 1.2678263-2.356283 1.7821926-.9740174-2.5748596-2.5243288-4.8610403-4.4894932-6.7075902l-.3666965-.3357297c.0895687-.2536154.1383023-.5265117.1383023-.8107904 0-.6667764-.2681024-1.27093411-.7023873-1.71055322l.1085209-.18100206c.4609752-.74791704.9602071-1.4657671 1.4956171-2.15166231l.4083085-.50840037zm-13.53888235 2.17710595.33379634.00326009c.36750489.00718375.73225595.02620369 1.09290461.05666729-1.74583749 1.43641505-3.30088381 3.11846537-4.61410632 5.01543967.3815344-1.605613 1.10474087-3.0794959 2.08876576-4.34102257l.24521137-.30349866.25547019-.29500993.1188404-.12894184.11801302-.00311201zm10.39188235-3.38710595.1967804.04375872.2496303.0630303.436972.12489058.2544414.08165559.286573.1001586c.2096437.07632439.4161164.15852638.6186337.24621737-.7119897.86694276-1.3669043 1.78457468-1.9609875 2.74948379l-.1080868.18027687c-.2229408-.06727541-.4593766-.10343751-.7042586-.10343751-.6140603 0-1.175012.22738531-1.6032479.60254886-1.1430599-.57374658-2.3568707-1.02901537-3.6233747-1.34985518 1.5613572-1.00107144 3.2427233-1.81855718 5.0135198-2.43358245l.5935358-.197484zm-2.7980901-.26927937-.5635283.24432944c-1.4936034.66955431-2.9132869 1.48268668-4.2396044 2.42751898-.6529209-.10177485-1.31710616-.1684065-1.99068559-.19789096 1.71094059-1.36135021 3.82374199-2.24195636 6.13263529-2.43656032l.386596-.02604693z"/></svg>