<svg fill="none" height="32" viewBox="0 0 32 32" width="32" xmlns="http://www.w3.org/2000/svg"><g fill="#000"><path d="m15.8328 5c2.319 0 4.1989 1.91531 4.1989 4.27796 0 2.36264-1.8799 4.27794-4.1989 4.27794s-4.1989-1.9153-4.1989-4.27794c0-2.36265 1.8799-4.27796 4.1989-4.27796z"/><path d="m14.0836 15.747c1.2582-.3085 2.5728-.3087 3.831-.0004l-.2388.4983c-.2994.6245-.9306 1.0219-1.6232 1.0219h-.1072c-.6926 0-1.3237-.3974-1.6231-1.0219z"/><path d="m19.0625 16.1281-.3046.6355c-.4185.8729-1.2258 1.4796-2.1563 1.6526v3.4349c.5726.2363.9756.8002.9756 1.4581 0 .8708-.7059 1.5767-1.5767 1.5767s-1.5767-.7059-1.5767-1.5767c0-.6587.404-1.2231.9778-1.4589v-3.4331c-.9327-.1718-1.7422-.7791-2.1614-1.6536l-.3043-.6348c-1.4748.6759-2.4359 2.1546-2.4359 3.7974v7.0738h11v-7.0738c0-1.6434-.9618-3.1226-2.4375-3.7981z"/><path d="m9.3 19.9262.00644-.2568c-1.23813-.407-2.57973-.3845-3.80644.0674-1.20169.4428-2 1.5877-2 2.8683v4.3949h5.799z"/><path d="m28.5 22.6051c0-1.2806-.7983-2.4255-2-2.8683-1.2049-.4439-2.5206-.4734-3.7402-.0887l-.0668.0219.007.2562-.001 7.0738h5.801z"/><path d="m10.5 14c0-1.6569-1.34315-3-3-3s-3 1.3431-3 3 1.34315 3 3 3 3-1.3431 3-3z"/><path d="m27.5 14c0-1.6569-1.3431-3-3-3s-3 1.3431-3 3 1.3431 3 3 3 3-1.3431 3-3z"/></g></svg>