<svg height="32" viewBox="0 0 32 32" width="32" xmlns="http://www.w3.org/2000/svg"><g fill="none" fill-rule="evenodd"><g fill-rule="nonzero"><path d="m8.47318018 6.20572806c.31675955.09731408.49465526.43298707.39734118.74974662-.8178222 2.66203006-.74603777 5.44035452.22485342 8.34610072 1.14599862-1.328109 2.59585122-2.4841609 4.34700512-3.4658276 3.4817986-1.95183648 6.8292293-2.80634408 10.028312-2.55200279-.0933229-.74838936-.2553663-1.5090182-.4847793-2.28120324-.0943721-.31764847.0866292-.65165712.4042776-.74602919.3176485-.09437208.6516572.08662919.7460292.40427767.279079.93935636.4660864 1.86514391.5612039 2.77686375.6690349.1134302 1.332339.27769296 1.9887623.49196462.3150129.10282748.4870233.44155408.3841958.75656698s-.4415541.4870233-.756567.3841958c-.509839-.1664232-1.0245665-.2999322-1.5442629-.4004607.0444511 3.3770666-1.2065602 6.5510439-3.7427795 9.4969908-1.5696693 1.8232503-3.2298131 3.255201-4.9784177 4.2924348 1.6545136.9049929 3.5266399 1.4007923 5.6213768 1.4905483.331067.0141857.5879502.2940683.5737645.6251354l-.6251354.5737645c-2.5665403-.1099719-4.8389142-.7878493-6.8096893-2.0276103-1.7717701.8445814-3.6312203 1.3013155-5.57507076 1.3665511l-.61978708-.5795377c-.01111456-.3311844.24835331-.6086725.57953771-.6197871 1.54740293-.0519308 3.03926993-.375562 4.47687753-.9730598-1.4599669-1.1532544-2.7309678-2.6556189-3.80981962-4.5037594-.40023582-.685629-.75697635-1.3667009-1.07012905-2.0431074-.99868702 1.6797537-1.56058951 3.6005857-1.69136924 5.7676595-.01996143.330769-.30428468.5827284-.63505376.562767l-.56276702-.6350538c.16177729-2.6807161.93852331-5.0291491 2.32321044-7.0369285-1.29558281-3.4011436-1.46652706-6.68061149-.50086648-9.82385886.09731407-.31675955.43298707-.49465525.74974661-.39734118zm5.55598812 6.67676674c-1.8532618 1.0389067-3.3333055 2.2755669-4.44385458 3.7144156.35976225.8589955.79716428 1.7287243 1.31144168 2.6097136 1.1208282 1.9200486 2.4510359 3.4276969 3.9957789 4.5271222 1.8322274-.9824055 3.5728284-2.4308801 5.2248284-4.3497617 2.3929041-2.779479 3.5391323-5.7323331 3.4488811-8.886553-3.0103236-.2855376-6.1842527.5055284-9.5370755 2.3850633z" fill="#cbd5d7"/><path d="m10.8967554 19.206624c1.1208282 1.9200486 2.4510359 3.4276969 3.9957789 4.5271222 1.8322274-.9824055 3.5728284-2.4308801 5.2248284-4.3497617.9845263-1.143577 1.758016-2.3165028 2.3211795-3.520727.3080437.3095477.5798367.6641338.8175162 1.0519215-.5779682 1.1130597-1.3212572 2.1970108-2.2292864 3.2517325-1.5696693 1.8232503-3.2298131 3.255201-4.9784177 4.2924348 1.6545136.9049929 3.5266399 1.4007923 5.6213768 1.4905483.331067.0141857.5879502.2940683.5737645.6251354s-.2940683.5879502-.6251354.5737645c-2.5665403-.1099719-4.8389142-.7878493-6.8096893-2.0276103-1.7717701.8445814-3.6312203 1.3013155-5.57507076 1.3665511-.3311844.0111146-.60867253-.2483533-.61978708-.5795377-.01111456-.3311844.24835331-.6086725.57953771-.6197871 1.54740293-.0519308 3.03926993-.375562 4.47687753-.9730598-1.4599669-1.1532544-2.7309678-2.6556189-3.80981962-4.5037594-.40023582-.685629-.75697635-1.3667009-1.07012905-2.0431074.12955164-.1968222.394563-.5873467.79503409-1.1715735.35976225.8589955.79716428 1.7287243 1.31144168 2.6097136z" fill="#e8f1f2"/><path d="m16 3.4072819c.7379632 0 1.461116.06326721 2.1642996.1846601l.4217709.08036352c.1563466.03251981.3030394.06591894.4487331.10184596l-.4487331-.10184596c.1761982.03666168.3513838.07706275.5254612.12116189l.429341.11677817.463085.14488995c.4578209.1530287.9008359.33006133 1.3298692.53021356l.4331526.21244713c.1321079.06793029.2629785.13818428.3925534.21072379l.3116321.18035835c3.6730208 2.19814601 6.128835 6.20453534 6.128835 10.78321294l-.0062308.3989582-.0189907.4022123c-.0070281.1112972-.0155205.2223686-.0254714.3331945-.2159667 2.3863545-1.0953794 4.5736698-2.452384 6.3832384l-.2387686.3083426-.1432802.1759631-.2351962.2755131-.1573155.1756761-.2656631.2823717c-1.872051 1.9271459-4.3486654 3.256295-7.1235821 3.6823782l-.3830402.0527631-.3537223.0382745-.420148.032452-.3367179.015971c-.1458806.0049868-.2923906.0075006-.439489.0075006-6.36101143 0-11.62162384-4.70069-12.47799498-10.8092604l-.03921936-.3078491-.03201682-.3128189-.02576884-.3356904-.01742777-.3594407c-.0050344-.1459645-.00757223-.2925615-.00757223-.4397499 0-3.0691987 1.10348237-5.8812485 2.93632636-8.06327797l.30647555-.35148122c2.3062086-2.54847108 5.64424409-4.15005021 9.35719809-4.15005021zm-11.09922057 15.1733466.05809841.2315739c1.23694607 4.7929358 5.53137306 8.3627823 10.68762926 8.5193388-.3111194-1.2276512-.5268876-2.4696794-.6474192-3.7168089-.655984-.1748918-1.1695671-.6976877-1.3324283-1.3585393-3.1242347-.4062204-6.16296532-1.6312469-8.76588017-3.6755645zm19.32749087 1.840504-.1037506.0539021c-2.1576189 1.0911512-4.4899744 1.7199575-6.8489836 1.8864197-.1660075.5350784-.5646595.9671543-1.0775826 1.178167.1091723 1.1152237.2991665 2.2271742.5694946 3.3267569l.1115519.4356218.1386605-.009763c2.6965478-.237801 5.123241-1.4115458 6.9512148-3.193186l.226532-.2270588c.1698403-.1750688.3340185-.3554893.4923579-.5410709l.0792348-.0979213-.007782-.0851534c-.102203-.9350943-.2813836-1.846058-.5309477-2.7267141zm2.8701947-1.8413077-.169522.1326418c-.5255307.4026715-1.0682684.772422-1.6253996 1.1092515.1950377.6487979.3544476 1.3139375.4756847 1.9927775.5972616-.9896339 1.0468514-2.0781236 1.3192369-3.2346708zm-8.0145086-6.2207035-.0388856.0334208c-.3208501.257505-.7282838.4115588-1.1716987.4115588-.0695958 0-.1383053-.0037951-.2059327-.0111896-.9081943 2.3380498-1.4254023 4.7840773-1.552017 7.2498064.522996.1859436.9375795.5971213 1.1287771 1.1163366 2.2820746-.1666901 4.5369524-.7989749 6.6096433-1.8952732-.9842109-2.6981589-2.6437867-5.0648621-4.7698864-6.9046598zm-7.9011401-3.80818299-.1036219.07619555c-2.3663833 1.78147574-4.40207023 4.01570094-5.9825914 6.62584604l-.23921367.4039366-.25538933.4510835.00530688.2748236c.00466406.1308837.0115483.2612042.02061633.3909251l.10817773.0986219c2.60082728 2.3559255 5.76496926 3.7513636 9.03311716 4.1863119.2133164-.4920329.6312846-.8728263 1.1459472-1.0371922.1306047-2.6323957.6848372-5.2441218 1.661061-7.7393935-.355066-.3404523-.5762263-.8200828-.5762263-1.351368 0-.2215194.0384481-.4340588.1090352-.6313089-1.5170007-.82503642-3.1751823-1.42270494-4.9262189-1.74848159zm10.4501837-2.46093831-.1331593.15849994c-.6917115.83724973-1.3277066 1.72516639-1.9039256 2.66006268l-.3385258.56654584-.0688632.12149364c.3446039.33973361.5582181.811984.5582181 1.3341267 0 .1311459-.013476.2591443-.0391189.382686 2.3029593 1.9458438 4.1114359 4.4630291 5.2000436 7.3408134.8241993-.5143663 1.6132312-1.1090799 2.356283-1.7821926l.1080481-.1000356.0131675-.2151119c.0098486-.1936931.0148325-.3886651.0148325-.5847968 0-4.1729718-2.2561522-7.82092649-5.6189935-9.79725459zm-13.53888235 2.17710595-.36110463.00378204-.11801302.00311201-.1188404.12894184c-.17367944.19378216-.34068053.39340812-.50068156.59850859-.98402489 1.26152667-1.70723136 2.73540957-2.08876576 4.34102257 1.31322251-1.8969743 2.86826883-3.57902462 4.61410632-5.01543967-.36064866-.0304636-.72539972-.04948354-1.09290461-.05666729zm10.39188235-3.38710595-.3498691.10766154c-1.9892138.63311226-3.8722142 1.51876485-5.6070556 2.63106645 1.5344183.38870977 2.9914922.97473781 4.3420177 1.72998421.2890332-.18461951.6331914-.29135551 1.0022791-.29135551.0786924 0 .1562517.00485197.2323948.01427307l.1131564-.19784337c.6835204-1.18042022 1.4557199-2.29374392 2.3101075-3.33407523-.2025173-.08769099-.40899-.16989298-.6186337-.24621737l-.286573-.1001586-.2544414-.08165559-.436972-.12489058-.2496303-.0630303zm-2.7980901-.26927937-.274587.01135021c-2.4594933.12428954-4.7132385 1.02562648-6.51923129 2.46260725.67357943.02948446 1.33776469.09611611 1.99068559.19789096 1.3263175-.9448323 2.746001-1.75796467 4.2396044-2.42751898z" fill="#7c969d"/></g><circle cx="17.755698" cy="10.800118" fill="#009448" r="2.434084"/><circle cx="15.321614" cy="21.926028" fill="#b85d65" r="2.434084"/></g></svg>