<svg fill="none" height="32" viewBox="0 0 32 32" width="32" xmlns="http://www.w3.org/2000/svg"><path d="m9.67285 22.1616c.66275-1.1477 2.13045-1.5415 3.27835-.8789 1.1479.6628 1.5406 2.1314.8779 3.2793-.6629 1.1476-2.1306 1.5406-3.2783.878-1.14767-.6629-1.54063-2.1306-.87795-3.2784zm9.37795-.8789c1.1478-.6624 2.6156-.2688 3.2783.8789.6626 1.1479.269 2.6156-.8789 3.2784-1.1478.6625-2.6155.2697-3.2783-.878-.6628-1.1479-.269-2.6165.8789-3.2793zm-11.5508-7.6826c1.32514.0002 2.39915 1.0743 2.39941 2.3994 0 1.3254-1.07411 2.4002-2.39941 2.4004-1.32548 0-2.40039-1.0749-2.40039-2.4004.00026-1.3252 1.07507-2.3994 2.40039-2.3994zm17 0c1.3251.0002 2.3992 1.0743 2.3994 2.3994 0 1.3254-1.0741 2.4002-2.3994 2.4004-1.3255 0-2.4004-1.0749-2.4004-2.4004.0003-1.3252 1.0751-2.3994 2.4004-2.3994zm-13.9492-7.04003c1.1478-.66256 2.6155-.26977 3.2783.87793.6627 1.1479.269 2.6166-.8789 3.2793-1.1478.6624-2.6157.2689-3.27832-.87891-.66273-1.1479-.26899-2.61558.87892-3.27832zm7.6221.87793c.6628-1.14759 2.1305-1.54059 3.2783-.87793 1.1478.66277 1.5406 2.13046.8779 3.27832-.6628 1.14771-2.1305 1.54161-3.2783.87891-1.1479-.6628-1.5407-2.13142-.8779-3.2793z" fill="#005a7d"/><g fill="#31afd8"><path d="m15.9991 19.2109c.821 0 1.4873.6653 1.4873 1.4864 0 .821-.6663 1.4863-1.4873 1.4863-.8209-.0002-1.4863-.6655-1.4864-1.4863 0-.8209.6655-1.4862 1.4864-1.4864zm-4.8125-2.1494c.711-.4105 1.6207-.1671 2.0312.544.4103.7109.1668 1.6197-.5439 2.0302-.711.4106-1.6208.1671-2.0313-.5439-.4103-.7109-.1666-1.6197.544-2.0303zm7.5947.544c.4105-.711 1.3193-.9545 2.0303-.544.7109.4106.9544 1.3193.5439 2.0303s-1.3192.9544-2.0303.5439c-.711-.4105-.9544-1.3192-.5439-2.0302zm-8.1357-4.6973c.4105-.7109 1.3193-.9544 2.0302-.5439s.9544 1.3193.544 2.0302c-.4105.711-1.3193.9544-2.0303.544-.711-.4105-.9544-1.3193-.5439-2.0303zm8.6767-.5439c.711-.4105 1.6208-.1671 2.0313.5439.4103.7109.1667 1.6197-.544 2.0303-.711.4105-1.6207.1671-2.0312-.544-.4103-.7108-.1667-1.6196.5439-2.0302zm-3.3232-2.54789c.821 0 1.4872.66529 1.4873 1.48629 0 .8211-.6663 1.4864-1.4873 1.4864-.8209-.0002-1.4864-.6655-1.4864-1.4864.0001-.8208.6655-1.4861 1.4864-1.48629z"/><path d="m15.9991 24.2109c.821 0 1.4873.6653 1.4873 1.4864-.0001.8209-.6663 1.4863-1.4873 1.4863-.8208-.0002-1.4862-.6655-1.4863-1.4863 0-.8209.6654-1.4862 1.4863-1.4864zm-9.14064-4.6484c.71103-.4105 1.62074-.1671 2.03125.5439.4103.7109.16669 1.6197-.54394 2.0303-.71103.4105-1.62075.1671-2.03125-.5439-.41029-.7109-.16672-1.6197.54394-2.0303zm16.25294.543c.4106-.7107 1.3194-.9543 2.0303-.544.711.4105.9544 1.3202.5439 2.0313-.4106.7107-1.3194.9542-2.0303.5439-.711-.4105-.9544-1.3202-.5439-2.0312zm-16.79688-9.6973c.41054-.71089 1.32028-.95439 2.03125-.54394.71102.41054.95445 1.32024.54394 2.03124-.41051.7108-1.31937.9542-2.03027.544-.71102-.4106-.95543-1.3203-.54492-2.0313zm17.34078-.54297c.711-.41029 1.6198-.16699 2.0303.54397.4104.7109.1668 1.6197-.5439 2.0303-.7111.4105-1.6208.167-2.0313-.544-.4103-.711-.166-1.6198.5449-2.03027zm-7.6562-5.04882c.821 0 1.4873.66531 1.4873 1.48632 0 .821-.6663 1.48633-1.4873 1.48633-.8208-.0002-1.4863-.66545-1.4863-1.48633 0-.82089.6654-1.48612 1.4863-1.48632z"/></g></svg>