<svg height="32" viewBox="0 0 32 32" width="32" xmlns="http://www.w3.org/2000/svg"><path d="m25.2613408 19.267486c1.1412864 0 2.0664818.9251954 2.0664818 2.0664818s-.9251954 2.0664818-2.0664818 2.0664818c-.1930909 0-.3799965-.0264831-.5572825-.0760151-3.48352 4.1454898-9.5419142 5.3236563-14.3946494 2.5219284-.2869756-.1656855-.3853007-.5326397-.2196153-.8196153s.5326397-.3853007.8196153-.2196152c4.2943957 2.4793705 9.6442592 1.4746296 12.776386-2.1371702-.3064965-.3599305-.4909358-.8264234-.4909358-1.3359944 0-1.1412864.9251954-2.0664818 2.0664817-2.0664818zm-14.1323167-12.91415135c.1656854.28697558.0673603.65392982-.2196152.81961525-4.29265408 2.47836497-6.09773203 7.6106935-4.53924807 12.1277621.11944136-.021985.24261597-.033226.36841606-.033226 1.14128637 0 2.06648178.9251954 2.06648178 2.0664818s-.92519541 2.0664818-2.06648178 2.0664818-2.06648178-.9251954-2.06648178-2.0664818c0-.5790839.23819201-1.1025351.62194621-1.4777237-1.84508781-5.0883439.16402687-10.92160184 5.01536758-13.72252469.2869755-.16568542.6539298-.06736033.8196152.21961524zm6.3315102 4.40216635c.4399056 0 .8029266.3291821.8561729.7546823l.0067232.1082469-.0004304 2.0575698 2.0586028.0005696c.350258 0 .6561147.2098116.7937864.5436389l.0394917.1157512.0242334.1126058.0053847.0909002v2.9210686c0 .4399056-.3291821.8029266-.7546823.8561729l-.1082469.0067232-2.0585698-.0004304.0004304 2.0586028c0 .350258-.2098116.6561147-.5436389.7937864l-.1157512.0394917-.1126058.0242334-.0909002.0053847h-2.9210686c-.4399056 0-.8029266-.3291821-.8561729-.7546045l-.0067232-.1082258-.0005696-2.0586687-2.0576028.0004304c-.350258 0-.6561147-.2098116-.7937864-.5436389l-.0394917-.1157512-.0242334-.1126058-.0053847-.0909002v-2.9210686c0-.4399056.3291821-.8029266.7546045-.8561729l.1082258-.0067232 2.0576687-.0005696.0005696-2.0576028c0-.350258.2098116-.6561147.5436389-.7937864l.1157512-.0394917.1126058-.0242334.0909002-.0053847zm-.3375343 1.199499h-2.247l.0002775 2.3213434c-.0000292.2650555-.1719251.4899567-.4103178.5693336l-.0923085.0227391-.0973078.0078614-2.3213434-.0002775-.002 2.247 2.3232445.0002844c.2650864-.0000146.4900323.1718829.5694259.4102977l.0227439.0923177.0078632.0973187-.0002775 2.3207815 2.247.002.0002844-2.3226827c-.0000146-.2651172.1719214-.4900796.4103715-.5694506l.0923307-.0227335.0973307-.0078488 2.3206827-.0002844.002-2.247-2.3227815.0002775c-.2650864-.0000292-.4900041-.1719637-.5693583-.4103916l-.0227288-.0923215-.007847-.0973199zm-1.1230411-8.71560455c.9607804 0 1.7684184.6556809 1.999857 1.54398578 5.3313539.94513863 9.381243 5.60294817 9.381243 11.20665987 0 .3313709-.2686292.6-.6.6-.3313709 0-.6-.2686291-.6-.6 0-4.9566482-3.5420711-9.08600136-8.233094-9.99494016-.2839073.80305493-1.0489005 1.37725807-1.948006 1.37725807-1.1412864 0-2.0664818-.92519541-2.0664818-2.06648178s.9251954-2.06648178 2.0664818-2.06648178z" fill-rule="evenodd"/></svg>