<svg height="32" viewBox="0 0 32 32" width="32" xmlns="http://www.w3.org/2000/svg"><path d="m25.2613408 19.267486c1.1412864 0 2.0664818.9251954 2.0664818 2.0664818s-.9251954 2.0664818-2.0664818 2.0664818c-.1930909 0-.3799965-.0264831-.5572825-.0760151-3.48352 4.1454898-9.5419142 5.3236563-14.3946494 2.5219284-.2869756-.1656855-.3853007-.5326397-.2196153-.8196153s.5326397-.3853007.8196153-.2196152c4.2943957 2.4793705 9.6442592 1.4746296 12.776386-2.1371702-.3064965-.3599305-.4909358-.8264234-.4909358-1.3359944 0-1.1412864.9251954-2.0664818 2.0664817-2.0664818zm-14.1323167-12.91415135c.1656854.28697558.0673603.65392982-.2196152.81961525-4.29265408 2.47836497-6.09773203 7.6106935-4.53924807 12.1277621.11944136-.021985.24261597-.033226.36841606-.033226 1.14128637 0 2.06648178.9251954 2.06648178 2.0664818s-.92519541 2.0664818-2.06648178 2.0664818-2.06648178-.9251954-2.06648178-2.0664818c0-.5790839.23819201-1.1025351.62194621-1.4777237-1.84508781-5.0883439.16402687-10.92160184 5.01536758-13.72252469.2869755-.16568542.6539298-.06736033.8196152.21961524zm6.5661045 4.25615645c.1444413 0 .265441.1003653.2970646.2351612l.0080585.069962-.0001695 3.084795 3.0853035.000339c.1263862 0 .2348249.0768421.2811451.1863554l.0199845.0692752.0039936.0494925v3.3902572c0 .1444413-.1003653.265441-.2351612.2970646l-.069962.0080585-3.0853035-.0001695.0001695 3.0853035c0 .1263862-.0768421.2348249-.1863554.2811451l-.0692752.0199845-.0494925.0039936h-3.3902572c-.1444413 0-.265441-.1003653-.2970646-.2351612l-.0080585-.069962-.000339-3.0853035-3.084795.0001695c-.1263862 0-.2348249-.0768421-.2811451-.1863554l-.0199845-.0692752-.0039936-.0494925v-3.3902572c0-.1444413.1003653-.265441.2351612-.2970646l.069962-.0080585 3.084795-.000339.000339-3.084795c0-.1263862.0768421-.2348249.1863554-.2811451l.0692752-.0199845.0494925-.0039936zm-1.6951697-7.37009565c.9607804 0 1.7684184.6556809 1.999857 1.54398578 5.3313539.94513863 9.381243 5.60294817 9.381243 11.20665987 0 .3313709-.2686292.6-.6.6-.3313709 0-.6-.2686291-.6-.6 0-4.9566482-3.5420711-9.08600136-8.233094-9.99494016-.2839073.80305493-1.0489005 1.37725807-1.948006 1.37725807-1.1412864 0-2.0664818-.92519541-2.0664818-2.06648178s.9251954-2.06648178 2.0664818-2.06648178z" fill-rule="evenodd"/></svg>