<svg fill="none" height="32" viewBox="0 0 32 32" width="32" xmlns="http://www.w3.org/2000/svg"><g clip-rule="evenodd" fill="#000" fill-rule="evenodd"><path d="m15.6254 6.39999c2.2644 0 4.1 1.83564 4.1 4.10001 0 2.2644-1.8356 4.1-4.1 4.1s-4.1-1.8356-4.1-4.1c0-2.26437 1.8356-4.10001 4.1-4.10001zm-2.9 4.10001c0-1.60163 1.2984-2.90001 2.9-2.90001s2.9 1.29838 2.9 2.90001c0 1.6016-1.2984 2.9-2.9 2.9s-2.9-1.2984-2.9-2.9z"/><path d="m7.62539 12.4c1.71208 0 3.10001 1.3879 3.10001 3.1s-1.38793 3.1-3.10001 3.1-3.1-1.3879-3.1-3.1 1.38792-3.1 3.1-3.1zm0 1.2c-1.04934 0-1.9.8507-1.9 1.9s.85066 1.9 1.9 1.9 1.9-.8507 1.9-1.9-.85066-1.9-1.9-1.9z"/><path d="m18.8179 16.8861c1.594.5796 2.7175 1.9849 2.9589 3.6282l.1912-.0773c1.3602-.5012 2.8546-.5012 4.2148 0 1.3149.4844 2.2084 1.7022 2.287 3.0887l.0056.1991v2.2744c0 .3313-.2686.6-.6.6-.2982 0-.5457-.2176-.5922-.5027l-.0078-.0973v-2.2744c0-.9652-.6017-1.8281-1.5074-2.1618-1.0925-.4025-2.2927-.4025-3.3852 0-.2008.074-.3885.1746-.5591.2987l.0017 4.1378c0 .3314-.2686.6-.6.6-.2982 0-.5457-.2176-.5922-.5026l-.0078-.0974v-4.8196c0-1.2475-.6873-2.3776-1.7605-2.9603l-.0722.2186c-.3337 1.0103-1.1789 1.7458-2.1911 1.9575v1.6425c.5726.2363.9756.8001.9756 1.4581 0 .8708-.7059 1.5767-1.5767 1.5767s-1.5767-.7059-1.5767-1.5767c0-.6588.404-1.2231.9778-1.4589v-1.6404c-1.0151-.21-1.863-.9464-2.1974-1.9588l-.0716-.2168c-1.016.5531-1.6853 1.597-1.7518 2.7663l-.0054.1922v4.8196c0 .3314-.2686.6-.6.6-.2982 0-.5457-.2176-.5922-.5026l-.0078-.0974.0001-4.1389c-.1701-.1236-.35731-.2238-.55753-.2976-1.09249-.4025-2.29266-.4025-3.38516 0-.85244.3141-1.43558 1.0969-1.50123 1.9927l-.00619.1691v2.2744c0 .3313-.26863.6-.6.6-.29823 0-.54565-.2176-.59215-.5027l-.00785-.0973v-2.2744c0-1.468.9151-2.7803 2.29258-3.2878 1.36026-.5012 2.85459-.5012 4.21483 0l.1911.0773c.2415-1.6433 1.365-3.0486 2.9589-3.6282 1.8201-.6618 3.8151-.6618 5.6351 0zm-4.5581.922.0838.2537c.2358.714.903 1.1962 1.6548 1.1962.7519 0 1.419-.4822 1.6549-1.1962l.0841-.2546c-1.1409-.2903-2.3368-.29-3.4776.0009z"/><path d="m26.7254 15.5c0-1.7121-1.3879-3.1-3.1-3.1s-3.1 1.3879-3.1 3.1 1.3879 3.1 3.1 3.1 3.1-1.3879 3.1-3.1zm-5 0c0-1.0493.8506-1.9 1.9-1.9 1.0493 0 1.9.8507 1.9 1.9s-.8507 1.9-1.9 1.9c-1.0494 0-1.9-.8507-1.9-1.9z"/></g></svg>