<svg height="32" viewBox="0 0 32 32" width="32" xmlns="http://www.w3.org/2000/svg"><g fill="none" fill-rule="evenodd"><path d="m7 24.9903121v-1c0 .9375415.72202616 1.7064447 1.64035997 1.7809912l.14655479.0059236h14.44416804c.9375415 0 1.7064448-.7220262 1.7809912-1.64036l.0059236-.1465548v1c0 .9868858-.800029 1.7869148-1.7869148 1.7869148h-14.44416804c-.98688577 0-1.78691476-.800029-1.78691476-1.7869148v-1z" fill="#ce4a00"/><path d="m8.78691476 6.06877297h14.44416804c.9868858 0 1.7869148.80002899 1.7869148 1.78691476v16.13462437c0 .9868858-.800029 1.7869148-1.7869148 1.7869148h-14.44416804c-.98688577 0-1.78691476-.800029-1.78691476-1.7869148v-16.13462437c0-.98688577.80002899-1.78691476 1.78691476-1.78691476z" fill="#ff5c00"/><path d="m18.1533251 4.59623883c-.3326962-.93395419-1.1673749-1.59623883-2.1443263-1.59623883-.9770462 0-1.8116301.66228464-2.1443263 1.59623883-.4021738 1.10645097-1.2381795 1.9754228-2.2801536 2.35934398-.9152462.32913415-1.5755201 1.26648679-1.5755201 2.37129003h12c0-1.10480324-.6603687-2.04215588-1.5756149-2.37129003-1.0419741-.38392118-1.877885-1.25289301-2.2800588-2.35934398z" fill="#85cfe8"/><circle cx="16.008999" cy="5.306948" fill="#69b5cf" r="1"/><g fill-rule="nonzero"><g fill="#ce4a00"><path d="m12.8721947 13.3848702v-1.2467532h8.9561033v1.2467532z"/><path d="m12.8721947 18.1040261v-1.2467533h8.9561033v1.2467533z"/><path d="m12.8721947 22.8231819v-1.2467532h8.9561033v1.2467532z"/><path d="m10.0089988 13.3848702v-1.2467532h1.2938727v1.2467532z"/><path d="m10.0089988 18.1040261v-1.2467533h1.2938727v1.2467533z"/><path d="m10.0089988 22.8231819v-1.2467532h1.2938727v1.2467532z"/></g><path d="m23.2065158 14.6364706c-4.1808205 0-7.5700452 3.3892247-7.5700452 7.5700452s3.3892247 7.5700452 7.5700452 7.5700452 7.5700452-3.3892247 7.5700452-7.5700452-3.3892247-7.5700452-7.5700452-7.5700452z" fill="#fff"/><path d="m23.2065158 15.8364706c3.5180788 0 6.3700452 2.8519664 6.3700452 6.3700452s-2.8519664 6.3700452-6.3700452 6.3700452-6.3700452-2.8519664-6.3700452-6.3700452 2.8519664-6.3700452 6.3700452-6.3700452z" fill="#4da86d"/><path d="m25.9931139 19.4805032-3.8871139 3.8824968-1.6808036-1.6786147c-.2827438-.2827442-.7425469-.2854016-1.0326919-.007346-.2894329.2892198-.2950113.7490389-.0155106 1.0406918l2.2081756 2.2046734c.138925.1389253.3244695.2167209.5182952.2167209.2029206 0 .3979633-.0847021.5340872-.2332008l4.3836533-4.3756332c.2956096-.2849935.2966513-.7594018.0001762-1.0468133-.281908-.278658-.7394441-.2797641-1.0282675-.0029749z" fill="#fff"/></g></g></svg>