<svg height="32" viewBox="0 0 32 32" width="32" xmlns="http://www.w3.org/2000/svg"><path d="m16.0089988 2.49527258c1.1284004 0 2.1227151.70881067 2.573604 1.76415891l.1464362.3713786c.133422.30902457.3082766.59129787.5159336.83836863l3.9861102-.00040575c1.2633293 0 2.2974266.9814586 2.3814081 2.22349192l.0055067.16342284-.0004525 8.45287987c2.3226868.9504834 3.9590159 3.2331232 3.9590159 5.8979482 0 3.5180788-2.8519664 6.3700452-6.3700452 6.3700452-1.3891626 0-2.6744665-.4446716-3.7213371-1.1994401l-10.69826394.000106c-1.26332926 0-2.29742658-.9814586-2.38140808-2.223492l-.00550668-.1634228v-17.13462437c0-1.26332926.9814586-2.29742658 2.22349192-2.38140808l.16342284-.00550668 3.98633104.00023147c.1998324-.23748409.3689904-.50722407.4999026-.80161294l.0908947-.22529447.0702428-.17958556c.4520015-1.05845649 1.4462524-1.76723889 2.5747129-1.76723889zm5.0892816 4.17200805c.8129223.54250731 1.3300176 1.50350986 1.3300176 2.56431962 0 .29823377-.2175896.54564676-.5026769.59214702l-.0973231.00785298h-11.6385984c-.33137085 0-.6-.26862915-.6-.6 0-1.06148973.5176938-2.02302613 1.3290774-2.56431962l-2.13186224.00149234c-.61454524 0-1.12000496.46705064-1.18078685 1.06555962l-.00612791.12135514v17.13462437c0 .6145452.46705064 1.120005 1.06555962 1.1807869l.12135514.0061279 9.43840024.0002051c-.7534191-.9438621-1.2441751-2.1066102-1.3615739-3.3775503l-3.3637411-.0000764c-.3313708 0-.6-.2686292-.6-.6 0-.2982338.2175896-.5456468.5026769-.592147l.0973231-.007853 3.3650496-.0006534c.1206284-1.2753112.6172481-2.4411385 1.3778085-3.3854314l-4.7428581.000437c-.3313708 0-.6-.2686291-.6-.6 0-.2982337.2175896-.5456467.5026769-.592147l.0973231-.007853 6.0165087-.0006917c1.0411367-.7411314 2.3146712-1.1769952 3.6900071-1.1769952.4141197 0 .8190096.0395171 1.2111047.1149861l.0003771-8.09576897c0-.65551492-.5313998-1.18691476-1.1869148-1.18691476zm4.8948335 12.81322257-3.8871139 3.8824968-1.6808036-1.6786147c-.2827438-.2827442-.7425469-.2854016-1.0326919-.007346-.2894329.2892198-.2950113.7490389-.0155106 1.0406918l2.2081756 2.2046734c.138925.1389253.3244695.2167209.5182952.2167209.2029206 0 .3979633-.0847021.5340872-.2332008l4.3836533-4.3756332c.2956096-.2849935.2966513-.7594018.0001762-1.0468133-.281908-.278658-.7394441-.2797641-1.0282675-.0029749zm-15.4931139 2.1193021c.3313708 0 .6.2686291.6.6 0 .2982337-.2175896.5456467-.5026769.592147l-.0973231.007853c-.3313708 0-.6-.2686292-.6-.6 0-.2982338.2175896-.5456468.5026769-.592147zm0-4.5856478c.3313708 0 .6.2686292.6.6 0 .2982338-.2175896.5456468-.5026769.592147l-.0973231.007853c-.3313708 0-.6-.2686291-.6-.6 0-.2982337.2175896-.5456467.5026769-.592147zm11-4.5856477c.3313708 0 .6.2686291.6.6 0 .2982337-.2175896.5456467-.5026769.592147l-.0973231.007853h-8c-.3313708 0-.6-.2686292-.6-.6 0-.2982338.2175896-.5456468.5026769-.592147l.0973231-.007853zm-11 0c.3313708 0 .6.2686291.6.6 0 .2982337-.2175896.5456467-.5026769.592147l-.0973231.007853c-.3313708 0-.6-.2686292-.6-.6 0-.2982338.2175896-.5456468.5026769-.592147zm5.5089988-8.73323722c-.6187221 0-1.1811926.39294189-1.4573103 1.00746515l-.1486076.37468302c-.4465988 1.05366617-1.2566441 1.89199449-2.2635538 2.3310112l-.3612208.14751467c-.3710905.17784625-.6685519.50369262-.8368766.9077938l-.0614297.16725958h10.257l-.0612609-.16883398c-.1493402-.35707988-.3999148-.6531172-.7140029-.84017129l-.1383878-.07335382-.348592-.14152839c-1.0035007-.43778731-1.8133274-1.27620502-2.2609153-2.33267623l-.1485755-.37459605c-.27507-.61159327-.8375962-1.00456766-1.4562668-1.00456766z"/></svg>