<svg height="32" viewBox="0 0 32 32" width="32" xmlns="http://www.w3.org/2000/svg"><path d="m23.2065158 15.8364706c.7361197 0 1.4430764.124862 2.1008461.354562l.3101832.117535.1935632.0829946.1995341.0937128.2016054.1035057.1199468.0659841.2363979.1401939.1191083.0760006.2099672.1433246.2035781.1511559.1689047.1353141.1576106.1350709.1126569.1021674.1566204.150484c.1243538.12355.2440019.2526634.3583219.3867194l.1664566.2035025.1474466.1956068.1818121.2648365.1891959.3100143.1312621.2415281.1211707.2480477.053067.1180596.0959136.2317484.0765132.2062785.0380013.1115004c.0546132.1653216.1025865.3333771.1436661.5040241l.0564175.2578964.0432287.2445793.0349668.2575082.0236786.2483263.0080161.1210019.0057788.1222881.0046087.2445731c0 3.4415988-2.7293157 6.2457318-6.1415721 6.3660242l-.2284731.004021-.2765299-.0058943-.3504018-.0245659-.2384421-.0278261-.311843-.0502727-.1647205-.0330415-.1633339-.0372899c-.1823042-.0441625-.3616182-.0961963-.5375125-.1557108l-.2612228-.0948337-.2505612-.1034746-.2698786-.1259139-.2633521-.1382681c-.2193874-.12181-.4309286-.2562716-.6335387-.4023486l-.1430642-.1062073c-1.5230903-1.1639669-2.5056439-2.9994385-2.5056439-5.0643978 0-3.5180788 2.8519664-6.3700452 6.3700452-6.3700452zm-4.623913-11.57703911.1464362.3713786c.133422.30902457.3082766.59129787.5159336.83836863l3.9861102-.00040575c1.2633293 0 2.2974266.9814586 2.3814081 2.22349192l.0055501.16342284v7.17299667c-.757444-.2543741-1.5683875-.3922138-2.4115252-.3922138-2.2706423 0-4.3077894.9997116-5.6953021 2.5829957l-.1772616.2097905-3.8339521-.000747-.0973231.007853c-.2850873.0465002-.5026769.2939132-.5026769.592147 0 .2982337.2175896.5456467.5026769.592147l.0973231.007853 3.0338225-.0001368c-.5248338.9766849-.8414972 2.0818722-.8906297 3.2562015l-.0067222.3219413.0035294.221994h-2.14l-.0973231.007853c-.2850873.0465002-.5026769.2939132-.5026769.592147 0 .2982337.2175896.5456467.5026769.592147l.0973231.007853 2.2699236.0005629c.2726215 1.4338135.9496392 2.7243552 1.9078955 3.7484677l-8.89090434-.0003135c-1.26332926 0-2.29742658-.9814586-2.38140808-2.223492l-.00550668-.1634228v-17.13462437c0-1.26332926.9814586-2.29742658 2.22349192-2.38140808l.16342284-.00550668 3.98633104.00023147c.1998324-.23748409.3689904-.50722407.4999026-.80161294l.0908947-.22529447.0702428-.17958556c.4520015-1.05845649 1.4462524-1.76723889 2.5747129-1.76723889 1.1284004 0 2.1227151.70881067 2.573604 1.76415891zm7.4105111 15.22107171-3.8871139 3.8824968-1.6808036-1.6786147c-.2827438-.2827442-.7425469-.2854016-1.0326919-.007346-.2894329.2892198-.2950113.7490389-.0155106 1.0406918l2.2081756 2.2046734c.138925.1389253.3244695.2167209.5182952.2167209.2029206 0 .3979633-.0847021.5340872-.2332008l4.3836533-4.3756332c.2956096-.2849935.2966513-.7594018.0001762-1.0468133-.281908-.278658-.7394441-.2797641-1.0282675-.0029749zm-15.4931139 2.9480066-.0973231.007853c-.2850873.0465002-.5026769.2939132-.5026769.592147 0 .2982337.2175896.5456467.5026769.592147l.0973231.007853.0973231-.007853c.2850873-.0465003.5026769-.2939133.5026769-.592147 0-.2982338-.2175896-.5456468-.5026769-.592147zm0-5-.0973231.007853c-.2850873.0465002-.5026769.2939132-.5026769.592147 0 .2982337.2175896.5456467.5026769.592147l.0973231.007853.0973231-.007853c.2850873-.0465003.5026769-.2939133.5026769-.592147 0-.2982338-.2175896-.5456468-.5026769-.592147zm11-5h-8l-.0973231.007853c-.2850873.0465002-.5026769.2939132-.5026769.592147 0 .2982337.2175896.5456467.5026769.592147l.0973231.007853h8l.0973231-.007853c.2850873-.0465003.5026769-.2939133.5026769-.592147 0-.2982338-.2175896-.5456468-.5026769-.592147zm-11 0-.0973231.007853c-.2850873.0465002-.5026769.2939132-.5026769.592147 0 .2982337.2175896.5456467.5026769.592147l.0973231.007853.0973231-.007853c.2850873-.0465003.5026769-.2939133.5026769-.592147 0-.2982338-.2175896-.5456468-.5026769-.592147zm5.5089988-8.73323722c-.6187221 0-1.1811926.39294189-1.4573103 1.00746515l-.1486076.37468302c-.4465988 1.05366617-1.2566441 1.89199449-2.2635538 2.3310112l-.3612208.14751467c-.3710905.17784625-.6685519.50369262-.8368766.9077938l-.0614297.16725958h10.257l-.0612609-.16883398c-.1493402-.35707988-.3999148-.6531172-.7140029-.84017129l-.1383878-.07335382-.348592-.14152839c-1.0035007-.43778731-1.8133274-1.27620502-2.2609153-2.33267623l-.1485755-.37459605c-.27507-.61159327-.8375962-1.00456766-1.4562668-1.00456766z"/></svg>