<svg fill="none" height="96" viewBox="0 0 96 96" width="96" xmlns="http://www.w3.org/2000/svg"><path clip-rule="evenodd" d="m54.8417 65.7971c0 .9941.8059 1.8 1.8 1.8h23.9334l.2919-.0236c.8553-.1395 1.5081-.8817 1.5081-1.7764v-3.3833c0-18.9854-15.3907-34.376-34.376-34.376-18.9854 0-34.3761 15.3906-34.3761 34.376v3.3833c0 .9941.8059 1.8 1.8 1.8h23.9334l.292-.0236c.8553-.1395 1.508-.8817 1.508-1.7764v-3.3833c0-3.7791 3.0636-6.8426 6.8427-6.8426 3.779 0 6.8426 3.0635 6.8426 6.8426zm-21.6631-3.3833c0-8.1851 6.6354-14.8204 14.8205-14.8204 8.185 0 14.8204 6.6353 14.8204 14.8204l-.0025 1.579-4.3776.0024.0023-1.5814c0-5.7673-4.6753-10.4426-10.4426-10.4426s-10.4427 4.6753-10.4427 10.4426l-.0024 1.582h-4.377zm14.8205-30.776c-16.9972 0-30.7761 13.7789-30.7761 30.776v1.582h4.377l.0008-1.582c0-14.5793 11.8189-26.3982 26.3983-26.3982 14.5793 0 26.3982 11.8189 26.3982 26.3982l-.0002 1.582h4.3769l.0011-1.582c0-16.9971-13.7789-30.776-30.776-30.776zm-22.7983 30.776c0-12.5911 10.2072-22.7982 22.7983-22.7982s22.7982 10.2071 22.7982 22.7982l-.0003 1.582-4.38-.003.0025-1.579c0-10.1733-8.2471-18.4204-18.4204-18.4204-10.1734 0-18.4205 8.2471-18.4205 18.4204l-.0016 1.582h-4.377z" fill="#000" fill-rule="evenodd"/></svg>