<svg fill="none" height="96" viewBox="0 0 96 96" width="96" xmlns="http://www.w3.org/2000/svg"><path clip-rule="evenodd" d="m48.0012 25.62c19.2195 0 34.8 15.5805 34.8 34.8v3.96h-7.203l.003-3.96c0-15.2431-12.357-27.6-27.6-27.6-15.2431 0-27.6 12.3569-27.6 27.6l-.003 3.96h-7.197v-3.96c0-19.2195 15.5805-34.8 34.8-34.8zm0 10.8c13.2548 0 24 10.7452 24 24l-.003 3.96h-7.2l.003-3.96c0-9.2784-7.5216-16.8-16.8-16.8s-16.8 7.5216-16.8 16.8l-.003 3.96h-7.2l.003-3.96c0-13.2548 10.7451-24 24-24zm13.2 24c0-7.2902-5.9099-13.2-13.2-13.2-7.2902 0-13.2 5.9098-13.2 13.2l-.003 3.96h7.2l.003-3.96c0-3.3137 2.6863-6 6-6s6 2.6863 6 6l-.003 3.96h7.2z" fill="#000" fill-rule="evenodd"/></svg>