<svg fill="none" height="96" viewBox="0 0 96 96" width="96" xmlns="http://www.w3.org/2000/svg"><path d="m48.0025 29.8057c17.6378 0 31.936 14.2982 31.936 31.936v1.5583h-3.3037v-1.5583c0-15.8132-12.8191-28.6323-28.6323-28.6323s-28.6324 12.8191-28.6324 28.6323v1.5583h-3.3037v-1.5583c0-17.6378 14.2983-31.936 31.9361-31.936z" fill="#f09b39"/><path d="m48.0015 26.7c19.4624 0 35.2398 15.7774 35.2398 35.2398v1.36h-3.3037v-1.36c0-17.6378-14.2983-31.9361-31.9361-31.9361s-31.9361 14.2983-31.9361 31.9361v1.36h-3.3037v-1.36c0-19.4624 15.7774-35.2398 35.2398-35.2398z" fill="#e55e51"/><path d="m48.0034 33.1094c15.8132 0 28.6323 12.8191 28.6323 28.6323l-.0027 1.5583h-3.3037l.0027-1.5583c0-13.9886-11.34-25.3286-25.3286-25.3286s-25.3286 11.34-25.3286 25.3286v1.5583h-3.3037v-1.5583c0-15.8132 12.8191-28.6323 28.6323-28.6323z" fill="#fef552"/><path d="m48.0044 36.4131c13.9886 0 25.3286 11.34 25.3286 25.3286v1.5583h-3.3038v-1.5583c0-12.164-9.8608-22.0248-22.0248-22.0248s-22.0249 9.8608-22.0249 22.0248v1.5583h-3.3037v-1.5583c0-13.9886 11.34-25.3286 25.3286-25.3286z" fill="#58c038"/><path d="m47.9995 39.7169c12.164 0 22.0248 9.8608 22.0248 22.0248v1.5583h-3.3037v-1.5583c0-10.3394-8.3817-18.7211-18.7211-18.7211s-18.7212 8.3817-18.7212 18.7211v1.5583h-3.3037v-1.5583c0-12.164 9.8609-22.0248 22.0249-22.0248z" fill="#2785ff"/><path d="m48.0004 43.0206c10.3394 0 18.7212 8.3817 18.7212 18.7211v1.5583h-3.3038v-1.5583c0-8.5148-6.9026-15.4174-15.4174-15.4174s-15.4174 6.9026-15.4174 15.4174v1.5583h-3.3037v-1.5583c0-10.3394 8.3817-18.7211 18.7211-18.7211z" fill="#954eb9"/><path d="m48.0014 46.3243c8.5148 0 15.4174 6.9026 15.4174 15.4174v1.5583h-3.3037v-1.5583c0-6.6902-5.4235-12.1136-12.1137-12.1136s-12.1137 5.4234-12.1137 12.1136v1.5583h-3.3037v-1.5583c0-8.5148 6.9026-15.4174 15.4174-15.4174z" fill="#000"/><path d="m48.0023 49.6281c6.6902 0 12.1137 5.4234 12.1137 12.1136l-.0027 1.5583h-3.3038l.0028-1.5583c0-4.8656-3.9444-8.8099-8.81-8.8099s-8.8099 3.9443-8.8099 8.8099v1.5583h-3.3037v-1.5583c0-6.6902 5.4234-12.1136 12.1136-12.1136z" fill="#844e1b"/><path d="m48.0033 52.9318c4.8656 0 8.81 3.9443 8.81 8.8099l-.0028 1.5583h-3.301v-1.5583c0-3.041-2.4652-5.5062-5.5062-5.5062s-5.5062 2.4652-5.5062 5.5062v1.5583h-3.3037v-1.5583c0-4.8656 3.9443-8.8099 8.8099-8.8099z" fill="#6ad1eb"/><path d="m48.0043 56.2355c3.041 0 5.5062 2.4652 5.5062 5.5062v1.5583h-3.3037v-1.5583c0-1.2164-.9861-2.2024-2.2025-2.2024s-2.2025.986-2.2025 2.2024v1.5583h-3.3038v-1.5583c0-3.041 2.4653-5.5062 5.5063-5.5062z" fill="#f3afc8"/></svg>