<svg fill="none" height="96" viewBox="0 0 96 96" width="96" xmlns="http://www.w3.org/2000/svg"><path d="m76.6338 63.3v-1.5583c0-15.8132-12.8191-28.6323-28.6323-28.6323s-28.6323 12.8191-28.6323 28.6323v1.5583l-6.6075-.0002v-1.36c0-19.4624 15.7774-35.2398 35.2398-35.2398s35.2398 15.7774 35.2398 35.2398v1.36z" fill="#6ad1eb"/><path d="m70.0283 63.3v-1.5583c0-12.164-9.8609-22.0248-22.0249-22.0248s-22.0248 9.8608-22.0248 22.0248v1.5583h-6.6075v-1.5583c0-15.8132 12.8191-28.6323 28.6323-28.6323s28.6323 12.8191 28.6323 28.6323l-.0027 1.5583z" fill="#f3afc8"/><path d="m63.4169 63.3v-1.5583c0-8.5148-6.9026-15.4174-15.4174-15.4174s-15.4174 6.9026-15.4174 15.4174v1.5583h-6.6075v-1.5583c0-12.164 9.8609-22.0248 22.0249-22.0248s22.0248 9.8608 22.0248 22.0248v1.5583z" fill="#fff"/><path d="m32.584 63.3v-1.5583c0-8.5148 6.9026-15.4174 15.4174-15.4174s15.4174 6.9026 15.4174 15.4174v1.5583h-6.6102l.0027-1.5583c0-4.8656-3.9443-8.8099-8.8099-8.8099s-8.81 3.9443-8.81 8.8099v1.5583z" fill="#f3afc8"/><path d="m50.2058 63.3v-1.5583c0-1.2164-.9861-2.2024-2.2025-2.2024s-2.2025.986-2.2025 2.2024v1.5583h-6.6074v-1.5583c0-4.8656 3.9443-8.8099 8.8099-8.8099s8.81 3.9443 8.81 8.8099l-.0028 1.5583z" fill="#6ad1eb"/></svg>