<svg height="32" viewBox="0 0 32 32" width="32" xmlns="http://www.w3.org/2000/svg"><path d="m15.16 16.9h-8c-.33 0-.6.27-.6.6v8c0 .33.27.6.6.6h8c.33 0 .6-.27.6-.6v-8c0-.33-.27-.6-.6-.6zm-.6 8h-6.8v-6.8h6.8zm.6-19h-8c-.33 0-.6.27-.6.6v8c0 .33.27.6.6.6h8c.33 0 .6-.27.6-.6v-8c0-.33-.27-.6-.6-.6zm-.6 8h-6.8v-6.8h6.8zm6.94-2.79-.02-1.51c0-.23-.14-.44-.34-.53-.21-.1-.45-.07-.63.07l-2.57 2.05c-.14.11-.23.29-.23.47s.08.35.22.47l2.62 2.11c.11.09.24.13.38.13.09 0 .18-.02.26-.06.21-.1.34-.32.34-.55l-.02-1.44c1.54.22 2.73 1.55 2.73 3.15 0 1.76-1.43 3.19-3.18 3.19h-2.81c-.33 0-.6.27-.6.6s.27.6.6.6h2.81c2.42 0 4.38-1.97 4.38-4.39 0-2.26-1.73-4.14-3.94-4.36z"/></svg>