<svg height="32" viewBox="0 0 32 32" width="32" xmlns="http://www.w3.org/2000/svg"><path d="m15.16 16.9c.33 0 .6.27.6.6v8c0 .33-.27.6-.6.6h-8c-.33 0-.6-.27-.6-.6v-8c0-.33.27-.6.6-.6zm5.35-7.76c.18-.14.42-.17.63-.07.1714286.07714286.2987755.24244898.3316618.43294461l.0083382.09705539.02 1.51c2.21.22 3.94 2.1 3.94 4.36 0 2.3488235-1.8464014 4.2737284-4.1677025 4.3849262l-.2122975.0050738h-2.81c-.33 0-.6-.27-.6-.6 0-.297.2187-.5454.50301-.59211l.09699-.00789h2.81c1.75 0 3.18-1.43 3.18-3.19 0-1.5384615-1.1002219-2.8272929-2.5539087-3.1197371l-.1760913-.0302629.02 1.44c0 .23-.13.45-.34.55-.08.04-.17.06-.26.06-.105 0-.204375-.0225-.2939062-.0717187l-.0860938-.0582813-2.62-2.11c-.14-.12-.22-.29-.22-.47 0-.15.0625-.3.1643519-.4094907l.0656481-.0605093zm-5.35-3.24c.33 0 .6.27.6.6v8c0 .33-.27.6-.6.6h-8c-.33 0-.6-.27-.6-.6v-8c0-.33.27-.6.6-.6z"/></svg>