<svg height="32" viewBox="0 0 32 32" width="32" xmlns="http://www.w3.org/2000/svg"><g fill="none" fill-rule="evenodd"><path d="m20.7224985 11.0592536c.4970043-.244032 1.0428989.3018626.7988669.798867l-4.6147009 12.2320675c-1.1221634 2.9744892-4.06624 4.8573944-7.23711805 4.6285504-3.10978337-.2244348-5.58323109-2.6978826-5.80766589-5.8076659-.22884404-3.1708781 1.65406114-6.1149547 4.62855041-7.2371181zm-3.6085568 2.6439297-8.19993633 3.0935289c-2.47752806.9346785-4.04584785 3.3868751-3.85523781 6.0279804.046906.6499326.21527241 1.2654992.4825934 1.824194.03419401-.0911756.07213684-.1842006.1139133-.2789903.87043731-1.9749988 2.98730761-4.429466 5.22897834-6.0799512zm1.763494 1.763494-4.5867617 6.2296891c-1.6504852 2.2416707-4.1049525 4.358541-6.07995132 5.2289784-.09478966.0417764-.18781469.0797193-.27899028.1139133.5586948.267321 1.17426143.4356874 1.82419405.4825934 2.64110525.19061 5.09330185-1.3777098 6.02798035-3.8552379zm-7.2816997 3.7895966c-2.083025 1.5336784-4.06320636 3.8296576-4.8423786 5.5975784-.57740956 1.3101268-.33671745 1.5508189.97340928.9734093 1.76792083-.7791722 4.06390012-2.7593536 5.59757842-4.8423786l4.82597-6.5545791z" fill="#64aec8" fill-rule="nonzero"/><path d="m21.3982202 11.1792037c.1692154.1680379.2455477.4296274.1231452.6789169l-4.6147009 12.2320675c-1.1221634 2.9744892-4.06624 4.8573944-7.23711805 4.6285504-1.52238191-.1098712-2.89226264-.7587301-3.92043924-1.7573738l.85835701-.8640192c.18711548.0760729.55346699-.0207043 1.11930246-.2700839 1.76792083-.7791722 4.06390012-2.7593536 5.59757842-4.8423786l4.7557621-6.4586793zm-2.5207845 4.2874736-4.5867617 6.2296891c-1.6504852 2.2416707-4.1049525 4.358541-6.07995132 5.2289784-.09478966.0417764-.18781469.0797193-.27899028.1139133.5586948.267321 1.17426143.4356874 1.82419405.4825934 2.64110525.19061 5.09330185-1.3777098 6.02798035-3.8552379z" fill="#18566b" fill-rule="nonzero"/><path d="m20.780035 4.432584h3.943079v10.843467h-3.943079z" fill="#af8c1d" transform="matrix(-.70710678 -.70710678 .70710678 -.70710678 31.871313 32.910166)"/><path d="m21.070414 3.731549h1.960251v10.843467h-1.960251z" fill="#f8c31c" transform="matrix(-.70710678 -.70710678 .70710678 -.70710678 31.170277 31.217715)"/></g></svg>