<svg height="32" viewBox="0 0 32 32" width="32" xmlns="http://www.w3.org/2000/svg"><path d="m16.9017666 11.9842105c-.0289607-.1832049.0271532-.3772522.1683419-.5184409l7.1928827-7.19288262c.2343146-.23431457.6142135-.23431457.8485281 0l2.6155937 2.6155937c.2343146.23431457.2343146.61421356 0 .84852814l-7.1928826 7.19288268c-.1411887.1411887-.335236.1973026-.5184409.1683419l-3.212149 8.5143596c-1.1221634 2.9744893-4.06624 4.8573944-7.23711801 4.6285504-3.10978337-.2244348-5.58323109-2.6978825-5.80766589-5.8076659-.22884404-3.170878 1.65406113-6.1149546 4.62855041-7.237118zm.1091512 1.2413778-8.19993639 3.0935288c-2.47752806.9346786-4.04584786 3.3868751-3.85523781 6.0279804.046906.6499326.2152724 1.2654993.4825934 1.8241941.03419401-.0911756.07213683-.1842007.11391329-.2789903.87043732-1.9749989 2.98730762-4.4294661 5.22897841-6.0799513zm1.7634939 1.7634939-4.5867617 6.2296891c-1.6504852 2.2416708-4.1049524 4.3585411-6.07995128 5.2289784-.09478966.0417765-.1878147.0797193-.27899028.1139133.5586948.267321 1.17426142.4356874 1.82419405.4825934 2.64110531.19061 5.09330181-1.3777097 6.02798041-3.8552378zm-7.2816997 3.7895967c-2.08302496 1.5336783-4.06320632 3.8296575-4.84237856 5.5975784-.57740956 1.3101267-.33671746 1.5508188.97340928.9734093 1.76792083-.7791723 4.06390008-2.7593536 5.59757838-4.8423786l4.82597-6.5545791zm14.9616088-11.46593415-1.7670655-1.76706556-6.3443546 6.34435451 1.7670656 1.7670656z"/></svg>