<svg height="32" viewBox="0 0 32 32" width="32" xmlns="http://www.w3.org/2000/svg"><path d="m25.6697191 17.4028814v7.7545409c0 .3727922-.3022078.675-.675.675h-7.7545409c-.6013608 0-.9025234-.7270708-.4772971-1.152297l7.754541-7.754541c.4252262-.4252263 1.152297-.1240637 1.152297.4772971zm-18.22449455-.0531049 3.01224635 3.0122463 3.0122463-3.0122463c.6363961-.6363961 1.5909903.318198.9545942.9545941l-3.0122464 3.0122464 3.0122464 3.0122463c.6363961.6363961-.3181981 1.5909903-.9545942.9545942l-3.0122463-3.0122464-3.01224635 3.0122464c-.6363961.6363961-1.59099026-.3181981-.95459415-.9545942l3.01224634-3.0122463-3.01224634-3.0122464c-.63639611-.6363961.31819805-1.5909902.95459415-.9545941zm16.87449455 1.682699-5.4499468 5.4499468h5.4499468zm-3.0341446-12.74655854c2.6070028 0 4.7203962 2.11339341 4.7203962 4.72039624 0 2.6070029-2.1133934 4.7203963-4.7203962 4.7203963-2.6070029 0-4.7203963-2.1133934-4.7203963-4.7203963 0-2.60700283 2.1133934-4.72039624 4.7203963-4.72039624zm-6.9872983.02580783c.3727922 0 .675.3022078.675.675v7.75454091c0 .3727922-.3022078.675-.675.675h-7.7545409c-.3727922 0-.675-.3022078-.675-.675v-7.75454091c0-.3727922.3022078-.675.675-.675zm6.9872983 1.32419217c-1.8614185 0-3.3703963 1.50897782-3.3703963 3.37039624 0 1.8614185 1.5089778 3.3703963 3.3703963 3.3703963 1.8614184 0 3.3703962-1.5089778 3.3703962-3.3703963 0-1.86141842-1.5089778-3.37039624-3.3703962-3.37039624zm-7.6622983.02580783h-6.4045409v6.40454091h6.4045409z"/></svg>