<svg height="32" viewBox="0 0 32 32" width="32" xmlns="http://www.w3.org/2000/svg"><path d="m26.1002366 17.1721994v8.4417259c0 .405828-.3289886.7348166-.7348166.7348166h-8.4417259c-.6546516 0-.9825024-.7915017-.5195938-1.2544103l8.441726-8.441726c.4629086-.4629086 1.2544103-.1350579 1.2544103.5195938zm-11.5632715 1.0200693-3.4176445 3.4176445 3.4176445 3.4176445c.7220444.7220444-.3610222 1.8051111-1.0830666 1.0830666l-3.4176445-3.4176445-3.41764451 3.4176445c-.72204441.7220445-1.80511103-.3610222-1.08306661-1.0830666l3.41764449-3.4176445-3.41764449-3.4176445c-.72204442-.7220444.3610222-1.805111 1.08306661-1.0830666l3.41764451 3.4176445 3.4176445-3.4176445c.7220444-.7220444 1.805111.3610222 1.0830666 1.0830666zm7.310036-13.2172687c2.737353 0 4.9564161 2.21906307 4.9564161 4.95641609 0 2.73735301-2.2190631 4.95641611-4.9564161 4.95641611s-4.9564161-2.2190631-4.9564161-4.95641611c0-2.73735302 2.2190631-4.95641609 4.9564161-4.95641609zm-8.4287579.57086772c.3591391 0 .6502789.29113975.6502789.65027884v7.47053904c0 .3591391-.2911398.6502789-.6502789.6502789h-7.47053903c-.35913908 0-.65027884-.2911398-.65027884-.6502789v-7.47053904c0-.35913909.29113976-.65027884.65027884-.65027884z"/></svg>