<svg height="32" viewBox="0 0 32 32" width="32" xmlns="http://www.w3.org/2000/svg"><g fill="none"><path d="m5.29742533 6.19614656c0-.35913909.29113976-.65027884.65027884-.65027884h7.47053903c.3591391 0 .6502789.29113975.6502789.65027884v7.47053904c0 .3591391-.2911398.6502789-.6502789.6502789h-7.47053903c-.35913908 0-.65027884-.2911398-.65027884-.6502789z" fill="#40d8e5"/><path d="m24.8458263 16.6526056c.4629086-.4629086 1.2544103-.1350579 1.2544103.5195938v8.4417259c0 .405828-.3289886.7348166-.7348166.7348166h-8.4417259c-.6546516 0-.9825024-.7915017-.5195938-1.2544103z" fill="#6ec38c"/><path d="m10.036254 20.5268466 3.4176445-3.4176445c.7220444-.7220444 1.805111.3610222 1.0830666 1.0830666l-3.4176445 3.4176445 3.4176445 3.4176445c.7220444.7220444-.3610222 1.8051111-1.0830666 1.0830666l-3.4176445-3.4176445-3.41764451 3.4176445c-.72204441.7220445-1.80511103-.3610222-1.08306661-1.0830666l3.41764449-3.4176445-3.41764449-3.4176445c-.72204442-.7220444.3610222-1.805111 1.08306661-1.0830666z" fill="#007880"/><path d="m21.8470011 14.8878322c2.737353 0 4.9564161-2.2190631 4.9564161-4.95641611 0-2.73735302-2.2190631-4.95641609-4.9564161-4.95641609s-4.9564161 2.21906307-4.9564161 4.95641609c0 2.73735301 2.2190631 4.95641611 4.9564161 4.95641611z" fill="#e77aa7"/></g></svg>