<svg height="32" viewBox="0 0 32 32" width="32" xmlns="http://www.w3.org/2000/svg"><path d="m19.5761131 8.19490965c.2394904-.11404307.5245981-.09123445.7298756.07983015l4.3222324 3.4669093c.1596603.1254474.262299.3193206.2394904.5360024 0 .2052776-.1026387.4105551-.262299.5360025l-4.2195936 3.3756748c-.1140431.1026388-.2737034.148256-.4219594.148256-.1026387 0-.2052775-.0228086-.2965119-.0684258-.2280862-.1026388-.3877465-.3421292-.3877465-.6044283l-.0342129-2.748438h-7.355778c-.8895359 0-1.6080073.7184714-1.6080073 1.596603l.0000503 6.5871343c.2752866.0991101.5309917.2587117.7460888.4745922.5769938.5790956.7479602 1.4489207.4330679 2.2033186-.3148922.754398-1.0535245 1.2445491-1.87099932 1.2415818-1.11247912-.004038-2.0121839-.90702-2.01217657-2.019506.00000538-.8174799.49283936-1.5543246 1.2483777-1.8664714.02882975-.0119108.057825-.0231137.08696318-.033613l.00011122-6.5870365c0-1.6308159 1.33430389-2.9651198 2.97652409-2.9651198h7.3329694l-.0342129-2.72562936c0-.26229906.148256-.51319382.3877464-.62723689z" fill-rule="evenodd"/></svg>