<svg height="32" viewBox="0 0 32 32" width="32" xmlns="http://www.w3.org/2000/svg"><path d="m24.8583371 19.1787779.3171013-4.8429998c.0122045-.2305451-.1085011-.4494747-.3039318-.5678251-.2067251-.1098396-.4513481-.0937277-.6419614.0410557l-1.7761667 1.285314-.2893723-.38401c-1.4298395-1.8974611-3.5001954-3.1174721-5.8471307-3.4473123-4.8424108-.6805565-9.3375867 2.7068015-10.01814316 7.5492124-.04592712.3267884.18386852.6317375.51065698.6776647.32678846.0459271.63173758-.1838686.6776647-.510657.58870222-4.188834 4.47397988-7.1166006 8.66281378-6.5278984 2.0300495.2853048 3.8200257 1.3447316 5.0541134 2.9824213l.2723504.3614212-2.1136072 1.5307398c-.1906133.1347835-.2834309.3640974-.2447303.5916985.0387007.2276011.204584.4124869.4182677.472813l4.5483278 1.3360068.0877324.0224283c.1485403.0208759.3054308-.0176642.4282776-.101382.1185753-.096436.2026871-.2235671.2393448-.3625378z" fill="#45889f"/></svg>