<svg height="32" viewBox="0 0 32 32" width="32" xmlns="http://www.w3.org/2000/svg"><path d="m5.90262511 18.7565435c-.07667239.5455525.30554253 1.0527688.85109497 1.1294412s1.05276877-.3055425 1.12944117-.851095c.55795694-3.9700699 4.24096735-6.7454173 8.21103735-6.1874604l.3015889.048709c1.6978653.3101724 3.2021836 1.1984767 4.2993853 2.537399l.2158272.2764627-1.7828993 1.2919419c-.3119914.220579-.4690724.6026446-.4044465.9827135.064236.3777758.3396575.6878744.7039296.7907138l4.5442742 1.3348393.1013926.0261794c.2899071.0432143.5470045-.0182614.7526077-.1583761.2104347-.1693002.3422377-.3688319.4008566-.5910581l.02575-.1398872.3221189-4.8851538c.0202506-.3819493-.1734679-.7408648-.4958748-.9361105l-.1213713-.0558601c-.3272879-.1275986-.6795403-.0849501-.9587321.1124676l-1.4626056 1.0575903-.0525396-.0704133c-1.4933468-1.9817382-3.6583721-3.258011-6.1109156-3.6026935-5.0611749-.7113018-9.75861795 2.8284755-10.46991969 7.8896503z"/></svg>