<svg height="32" viewBox="0 0 32 32" width="32" xmlns="http://www.w3.org/2000/svg"><path d="m11.481059 13.84c-.1-.21-.31-.34-.55-.34l-2.29000002.03c1.03-3.08 3.94000002-5.3 7.36000002-5.3 2.07 0 4.02.81 5.49 2.27.23.23.61.23.85 0 .23-.23.23-.61 0-.85-1.69-1.68-3.94-2.61-6.34-2.61-4.09 0-7.56000002 2.76-8.62000002 6.52l-2.45.03c-.23 0-.44.14-.53.34-.1.21-.07.45.07.63l2.96 3.7c.11.14.29.23.47.23s.35-.08.47-.22l3.04000002-3.79c.14-.18.17-.43.07-.64zm16.05 3.59-2.96-3.7c-.11-.14-.29-.23-.47-.23s-.35.08-.47.22l-3.04 3.79c-.15.18-.17.43-.07.64s.31.34.54.34h.01l2.29-.03c-1.03 3.08-3.94 5.3-7.36 5.3-2.07 0-4.02-.81-5.49-2.27-.23-.23-.61000002-.23-.85000002 0-.23.23-.23.61 0 .85 1.69000002 1.69 3.94000002 2.62 6.34000002 2.62 4.09 0 7.56-2.76 8.62-6.52l2.44-.03c.23 0 .44-.14.53-.34.11-.21.08-.46-.06-.64z" fill="#257843"/></svg>