<svg height="32" viewBox="0 0 32 32" width="32" xmlns="http://www.w3.org/2000/svg"><path d="m15.5089988 2.9c1.1583386 0 2.1789804.72946099 2.6406928 1.81823805l.147429.37404151c.1398684.32350586.3235753.61872323.5419156.87661635l3.8920466-.00012294c1.3182567 0 2.3869148 1.06865814 2.3869148 2.38691476v16.13462437c0 1.3182566-1.0686581 2.3869148-2.3869148 2.3869148h-14.44416804c-1.31825662 0-2.38691476-1.0686582-2.38691476-2.3869148v-16.13462437c0-1.31825662 1.06865814-2.38691476 2.38691476-2.38691476l3.89212144.0001095c.2101169-.24786637.387864-.52994302.5251628-.83810187l.1634011-.41087834c.46138-1.08972531 1.4824064-1.81990226 2.6413987-1.81990226zm5.1894271 4.26754049c.8603224.54960484 1.4105729 1.55126133 1.4105729 2.65933235 0 .29823376-.2175896.54564676-.5026769.59214706l-.0973231.0078529h-12c-.33137085 0-.6-.2686291-.6-.59999996 0-1.1089535.551058-2.11130323 1.4099787-2.65970259l-2.03206274.00160272c-.65551492 0-1.18691476.53139984-1.18691476 1.18691476v16.13462437c0 .6555149.53139984 1.1869148 1.18691476 1.1869148h14.44416804c.655515 0 1.1869148-.5313999 1.1869148-1.1869148v-16.13462437c0-.65551492-.5313998-1.18691476-1.1869148-1.18691476zm-10.3274259 13.75845951h2.168c.2346667 0 .4314074.1706667.4722305.3940082l.0077695.0859918v2.208c0 .2346667-.1706667.4314074-.3940082.4722305l-.0859918.0077695h-2.168c-.2417778 0-.43298765-.1706667-.47249383-.3940082l-.00750617-.0859918v-2.208c0-.2346667.1706667-.4314074.3940082-.4722305zm4.689.984h5.25c.33 0 .6.27.6.6 0 .297-.2187.5454-.50301.59211l-.09699.00789h-5.25c-.33 0-.6-.27-.6-.6 0-.297.2187-.5454.50301-.59211zm-3.0614.046h-1.0872v1.116h1.0872zm.5404-5.54c.2346667 0 .4314074.1706667.4722305.3940082l.0077695.0859918v2.208c0 .2346667-.1706667.4314074-.3940082.4722305l-.0859918.0077695h-2.168c-.2417778 0-.43298765-.1706667-.47249383-.3940082l-.00750617-.0859918v-2.208c0-.2346667.1706667-.4314074.3940082-.4722305l.0859918-.0077695zm7.771.984c.33 0 .6.27.6.6 0 .297-.2187.5454-.50301.59211l-.09699.00789h-5.25c-.33 0-.6-.27-.6-.6 0-.297.2187-.5454.50301-.59211l.09699-.00789zm-8.3114.0384h-1.0872v1.1232h1.0872zm.5404-5.5324c.2346667 0 .4314074.1706667.4722305.3940082l.0077695.0859918v2.208c0 .2346667-.1706667.4314074-.3940082.4722305l-.0859918.0077695h-2.168c-.2417778 0-.43298765-.1706667-.47249383-.3940082l-.00750617-.0859918v-2.208c0-.2346667.1706667-.4314074.3940082-.4722305l.0859918-.0077695zm7.771.984c.33 0 .6.27.6.6 0 .297-.2187.5454-.50301.59211l-.09699.00789h-5.25c-.33 0-.6-.27-.6-.6 0-.297.2187-.5454.50301-.59211l.09699-.00789zm-8.3114.0384h-1.0872v1.1232h1.0872zm3.5103988-8.8284c-.6488115 0-1.2378881.41382685-1.5238685 1.05939133l-.149057.37700454c-.4586258 1.08206452-1.2903785 1.94287702-2.3239988 2.39356037l-.3628592.14752217c-.4009954.18866687-.7204416.5424029-.8947672.98106975l-.0584453.16832468h10.6259159l-.0520545-.15186081c-.1709744-.4408752-.4883923-.7980225-.8896439-.9916431l-.3780136-.15473116c-1.0302059-.44944119-1.8616712-1.31015657-2.3202824-2.39223712l-.1501166-.37995195c-.2849159-.64258809-.8740509-1.0564487-1.5228089-1.0564487z"/></svg>