<svg height="32" viewBox="0 0 32 32" width="32" xmlns="http://www.w3.org/2000/svg"><g fill="none" fill-rule="evenodd"><path d="m6.5 24.9903121v-1c0 .9375415.72202616 1.7064447 1.64035997 1.7809912l.14655479.0059236h14.44416804c.9375415 0 1.7064448-.7220262 1.7809912-1.64036l.0059236-.1465548v1c0 .9868858-.800029 1.7869148-1.7869148 1.7869148h-14.44416804c-.98688577 0-1.78691476-.800029-1.78691476-1.7869148v-1z" fill="#b75c64"/><path d="m8.28691476 6.06877297h14.44416804c.9868858 0 1.7869148.80002899 1.7869148 1.78691476v16.13462437c0 .9868858-.800029 1.7869148-1.7869148 1.7869148h-14.44416804c-.98688577 0-1.78691476-.800029-1.78691476-1.7869148v-16.13462437c0-.98688577.80002899-1.78691476 1.78691476-1.78691476z" fill="#f8813d"/><path d="m17.6533251 4.59623883c-.3326962-.93395419-1.1673749-1.59623883-2.1443263-1.59623883-.9770462 0-1.8116301.66228464-2.1443263 1.59623883-.4021738 1.10645097-1.2381795 1.9754228-2.2801536 2.35934398-.9152462.32913415-1.5755201 1.26648679-1.5755201 2.37129003h12c0-1.10480324-.6603687-2.04215588-1.5756149-2.37129003-1.0419741-.38392118-1.877885-1.25289301-2.2800588-2.35934398z" fill="#85cfe8"/><circle cx="15.508999" cy="5.306948" fill="#69b5cf" r="1"/><path d="m14.2624197 13.3848702v-1.2467532h7.0658783v1.2467532z" fill="#ac4000" fill-rule="nonzero"/><rect fill="#fff" height="2.909091" rx=".831169" width="2.909091" x="9.840738" y="11.306948"/><path d="m14.2624197 18.1040261v-1.2467533h7.0658783v1.2467533z" fill="#ac4000" fill-rule="nonzero"/><rect fill="#fff" height="2.909091" rx=".831169" width="2.909091" x="9.840738" y="16.026104"/><path d="m14.2624197 22.8231819v-1.2467532h7.0658783v1.2467532z" fill="#ac4000" fill-rule="nonzero"/><rect fill="#fff" height="2.909091" rx=".831169" width="2.909091" x="9.840738" y="20.74526"/></g></svg>