<svg height="32" viewBox="0 0 32 32" width="32" xmlns="http://www.w3.org/2000/svg"><path d="m9.82166254 6.06867485c-.56841632.5718013-.91266374 1.38170181-.91266374 2.25819799 0 .33137085.26862915.6.6.6h12c.3313709 0 .6-.26862915.6-.6 0-.876411-.3442238-1.68625156-.9138335-2.258504l1.5359175.00040413c.9868858 0 1.7869148.80002899 1.7869148 1.78691476v17.13462437c0 .9868858-.800029 1.7869148-1.7869148 1.7869148h-14.44416804c-.93754148 0-1.70644472-.7220262-1.78099119-1.64036l-.00592357-.1465548v-17.13462437c0-.98688577.80002899-1.78691476 1.78691476-1.78691476zm1.47362076 14.67658495c-.8033232 0-1.45454542.6512222-1.45454542 1.4545455s.65122222 1.4545454 1.45454542 1.4545454c.8033233 0 1.4545455-.6512221 1.4545455-1.4545454s-.6512222-1.4545455-1.4545455-1.4545455zm10.0330147.8311689h-7.0658783v1.2467532h7.0658783zm-10.0330147-5.5503247c-.8033232 0-1.45454542.6512222-1.45454542 1.4545454 0 .8033233.65122222 1.4545455 1.45454542 1.4545455.8033233 0 1.4545455-.6512222 1.4545455-1.4545455 0-.8033232-.6512222-1.4545454-1.4545455-1.4545454zm10.0330147.8311688h-7.0658783v1.2467533h7.0658783zm-10.0330147-5.5503247c-.8033232 0-1.45454542.6512222-1.45454542 1.4545455s.65122222 1.4545454 1.45454542 1.4545454c.8033233 0 1.4545455-.6512221 1.4545455-1.4545454s-.6512222-1.4545455-1.4545455-1.4545455zm10.0330147.8311689h-7.0658783v1.2467532h7.0658783zm-5.8192992-9.538117c.648758 0 1.237893.41386061 1.5228089 1.0564487l.0563078.14113091c.4345716 1.19561718 1.3102941 2.14949986 2.4140908 2.63105727l.3598905.14612473c.4440935.20754651.7879014.61437726.9481105 1.11430587l.0097927.03693252h-10.623l.010696-.0369204c.1583837-.49486055.4961852-.89827124.9313227-1.10675978l.1485383-.0621349c1.1374123-.41906765 2.0571315-1.32443421 2.5485163-2.48378905l.0925034-.23518865c.258685-.72615089.885267-1.20120722 1.5804221-1.20120722z" fill-rule="evenodd"/></svg>