<svg height="32" viewBox="0 0 32 32" width="32" xmlns="http://www.w3.org/2000/svg"><path d="m16 5.4c-5.84 0-10.6 4.76-10.6 10.6s4.76 10.6 10.6 10.6 10.6-4.76 10.6-10.6-4.76-10.6-10.6-10.6zm0 20c-5.18 0-9.4-4.22-9.4-9.4s4.22-9.4 9.4-9.4 9.4 4.22 9.4 9.4-4.22 9.4-9.4 9.4zm3.8890873-6.2180195c.2333452.2333453.2333452.6151829 0 .8485282-.2333452.2333452-.6151829.2333452-.8485281 0l-3.1112699-3.1112699-3.0405591 3.0405592c-.2333453.2333452-.6151829.2333452-.8485282 0-.2333452-.2333453-.2333452-.6151829 0-.8485282l3.0405592-3.0405591-3.1112699-3.1112699c-.2333452-.2333452-.2333452-.6151829 0-.8485281.2333453-.2333452.6151829-.2333452.8485282 0l3.1112698 3.1112698 3.1819805-3.1819805c.2333453-.2333452.6151829-.2333452.8485282 0 .2333452.2333453.2333452.6151829 0 .8485282l-3.1819805 3.1819805z"/></svg>