<svg height="32" viewBox="0 0 32 32" width="32" xmlns="http://www.w3.org/2000/svg"><path d="m22.0811183 21.2325902c.2333453.2333452.2333453.6151829 0 .8485281-.2333452.2333453-.6151829.2333453-.8485281 0l-5.2325902-5.2325902-5.2325902 5.2325902c-.2333452.2333453-.6151829.2333453-.84852812 0-.23334524-.2333452-.23334524-.6151829 0-.8485281l5.23259022-5.2325902-5.23259022-5.2325902c-.23334524-.2333452-.23334524-.6151829 0-.84852812.23334522-.23334524.61518292-.23334524.84852812 0l5.2325902 5.23259022 5.2325902-5.23259022c.2333452-.23334524.6151829-.23334524.8485281 0 .2333453.23334522.2333453.61518292 0 .84852812l-5.2325902 5.2325902z"/></svg>