<svg height="32" viewBox="0 0 32 32" width="32" xmlns="http://www.w3.org/2000/svg"><g fill="none"><path d="m15.99 26.847c-5.9829 0-10.857-4.8741-10.857-10.857s4.8741-10.857 10.857-10.857 10.857 4.8741 10.857 10.857-4.8741 10.857-10.857 10.857z" fill="#b75c64"/><path d="m20.4597634 13.1093884-2.9541154 2.9541153 2.8806116 2.8806117c.4378246.4378245.4378246 1.1513272 0 1.5891517-.4378245.4378246-1.1513272.4378246-1.5891517 0l-2.8806116-2.8806116-2.8071079 2.8071079c-.4378245.4378245-1.1513273.4378245-1.5891518 0s-.4378245-1.1513273 0-1.5891518l2.8071079-2.8071079-2.8806116-2.8806116c-.4378246-.4378245-.4378246-1.1513272 0-1.5891517.4378245-.4378246 1.1513272-.4378246 1.5891517 0l2.8806117 2.8806116 2.9541153-2.9541154c.4378245-.4378245 1.1513273-.4378245 1.5891518 0s.4378245 1.1513273 0 1.5891518z" fill="#fff"/></g></svg>