<svg height="32" viewBox="0 0 32 32" width="32" xmlns="http://www.w3.org/2000/svg"><path d="m15.99 5.133c5.9829 0 10.857 4.8741 10.857 10.857s-4.8741 10.857-10.857 10.857-10.857-4.8741-10.857-10.857 4.8741-10.857 10.857-10.857zm4.4697634 6.3872366c-.4065514-.4065513-1.0508048-.4355907-1.4913136-.0871181l-.0978382.0871181-2.9541153 2.9541154-2.8806117-2.8806116c-.4378245-.4378246-1.1513272-.4378246-1.5891517 0-.4065514.4065513-.4355908 1.0508048-.0871182 1.4913136l.0871182.0978381 2.8806116 2.8806116-2.8071079 2.8071079c-.4378245.4378245-.4378245 1.1513273 0 1.5891518.4065514.4065513 1.0508048.4355907 1.4913136.0871181l.0978382-.0871181 2.8071079-2.8071079 2.8806116 2.8806116c.4378245.4378246 1.1513272.4378246 1.5891517 0 .4065514-.4065513.4355908-1.0508048.0871182-1.4913136l-.0871182-.0978381-2.8806116-2.8806117 2.9541154-2.9541153c.4378245-.4378245.4378245-1.1513273 0-1.5891518z"/></svg>