<svg height="32" viewBox="0 0 32 32" width="32" xmlns="http://www.w3.org/2000/svg"><path d="m17.6048784 6.81787763-8.96788449 7.84688447c-.27319642.2390464-.27319694.6640447-.0000011.9030918l8.96788449 7.846923.0751076.0565331c.3863645.247548.9199959-.0248013.9199959-.5080785l-.0009808-4.4922315.1111684-.0064077c2.7869484-.1279374 5.512173.9201387 7.4988842 2.9068162l.3345871.3345871c.3779789.3779789 1.024264.1102788 1.024264-.4242641l-.0038033-.2724103c-.1366187-4.8867198-3.937408-8.857144-8.752642-9.2615468l-.2124584-.0157744.0009808-4.46257599c0-.51549503-.6071525-.79100188-.9951024-.45154638z"/><path d="m12.1209362 6.81787763c.2493821-.218209.6284397-.19293815.8466487.05644403.1939635.22167304.195548.54580564.0183564.76835356l-.0748004.07829517-8.10779672 7.09430901c-.16625478.1454727-.18310202.3981777-.03762935.5644325l.03762862.0376287 8.10779855 7.0943455c.2493816.2182096.2746515.5972672.0564419.8466488-.1939641.2216726-.5150179.2662693-.7591173.1201873l-.0875315-.0637453-8.10779855-7.0943454c-.05345692-.046775-.10373965-.0970578-.15051447-.1505149-.54766181-.6259003-.52018321-1.5581158.03937536-2.1507485l.11114204-.1069814z"/></svg>