<svg height="32" viewBox="0 0 32 32" width="32" xmlns="http://www.w3.org/2000/svg"><g fill="none"><path d="m12.6048784 6.81787763-8.96788449 7.84688447c-.27319642.2390464-.27319694.6640447-.0000011.9030918l8.96788449 7.846923.0751076.0565331c.3863645.247548.9199959-.0248013.9199959-.5080785v-15.69380749c0-.51549503-.6071525-.79100188-.9951024-.45154638z" fill="#fff"/><path d="m17.6048784 6.81787763-8.96788449 7.84688447c-.27319642.2390464-.27319694.6640447-.0000011.9030918l8.96788449 7.846923.0751076.0565331c.3863645.247548.9199959-.0248013.9199959-.5080785l-.0009808-4.4922315.1111684-.0064077c2.7869484-.1279374 5.512173.9201387 7.4988842 2.9068162l.3345871.3345871c.3779789.3779789 1.024264.1102788 1.024264-.4242641l-.0038033-.2724103c-.1366187-4.8867198-3.937408-8.857144-8.752642-9.2615468l-.2124584-.0157744.0009808-4.46257599c0-.51549503-.6071525-.79100188-.9951024-.45154638z" fill="#45889f"/></g></svg>