<svg height="32" viewBox="0 0 32 32" width="32" xmlns="http://www.w3.org/2000/svg"><path d="m15.6048784 6.81787763-8.96788449 7.84688447c-.27319642.2390464-.27319694.6640447-.0000011.9030918l8.96788449 7.846923.0751076.0565331c.3863645.247548.9199959-.0248013.9199959-.5080785l-.0009808-4.4922315.1111684-.0064077c2.7869484-.1279374 5.512173.9201387 7.4988842 2.9068162l.3345871.3345871c.3779789.3779789 1.024264.1102788 1.024264-.4242641l-.0038033-.2724103c-.1366187-4.8867198-3.937408-8.857144-8.752642-9.2615468l-.2124584-.0157744.0009808-4.46257599c0-.51549503-.6071525-.79100188-.9951024-.45154638zm-7.6618784 8.29812237 7.456-6.524.0009808 3.721847c0 .3313709.2686291.6.6.6l.2558292.0038361c3.9933173.1199134 7.2835048 3.0376494 7.97719 6.8603169l-.183284-.1481912c-2.2848682-1.7906242-5.1957168-2.6318404-8.1159934-2.3073691l-.0983328.0192771c-.253774.0721635-.435409.3052933-.435409.5770532l-.0009808 3.72123z"/></svg>