<svg height="32" viewBox="0 0 32 32" width="32" xmlns="http://www.w3.org/2000/svg"><path d="m7.5 7.4c.297 0 .5454.2187.59211.50301l.00789.09699v15.4h16.4c.33 0 .6.27.6.6 0 .297-.2187.5454-.50301.59211l-.09699.00789h-17c-.297 0-.5454-.2187-.59211-.50301l-.00789-.09699v-16c0-.33.27-.6.6-.6zm16.23 1.77c.18-.02.36.04.49.17.104.104.1632.24.17248.3824l-.00248.1076-.53 4.71c-.02.23-.17.42-.39.5-.06.03-.13.04-.2.04-.128 0-.2496-.0384-.34944-.11008l-.07056-.05992-1.82-1.77-2.43 3.21c-.1777778.2311111-.4898765.3041975-.7396433.1841427l-.0903567-.0541427-3.03-2.17-3.01 4.37c-.11.17-.3.26-.49.26-.12 0-.24-.04-.34-.11-.243-.171-.324-.4878-.19926-.74628l.04926-.08372 3.36-4.88c.09-.13.23-.22.39-.25.128-.024.256-.0032.36864.05216l.08136.04784 3.05 2.19 2.17-2.86-1.62-1.57c-.17-.17-.23-.41-.15-.63.06-.18857143.2155102-.32571429.4035569-.37994169l.0964431-.02005831z"/></svg>