<svg height="32" viewBox="0 0 32 32" width="32" xmlns="http://www.w3.org/2000/svg"><path d="m26 19.85c.2982338 0 .5456468.2175896.592147.5026769l.007853.0973231v7c0 .2982338-.2175896.5456468-.5026769.592147l-.0973231.007853h-20c-.29823376 0-.54564675-.2175896-.59214701-.5026769l-.00785299-.0973231v-7c0-.3313708.26862915-.6.6-.6.29823376 0 .54564675.2175896.59214701.5026769l.00785299.0973231v6.399h18.8v-6.399c0-.2982338.2175896-.5456468.5026769-.592147zm-7.4947597-16.5.0942067.00743937c.0928966.0147685.1810627.05119371.2572944.10629937l.0719866.06122224 3.5141231 3.53581136.061748.07212344c.0555857.07642598.0923478.16494849.1072547.25826776l.0075096.09464783v9.26418863l-.007853.0973231c-.0413336.2534109-.241413.4534903-.4948239.4948239l-.0973231.007853h-5.5103425l.0001499 2.5941441 2.4195572-.0307571c.2358043 0 .4613562.1332807.5638799.3485803.0878773.1845425.0853666.3992144-.0139887.5729964l-.0577779.0831547-3.1167177 3.8856448c-.1230283.143533-.2973185.2255519-.481861.2255519-.1537854 0-.3075708-.0640773-.4198246-.1684994l-.0620363-.0673049-3.0346989-3.7933735c-.0922712-.1025236-.1332806-.2460567-.1332806-.3793374 0-.0922712.0205047-.1845425.0615141-.2665614.0790897-.1757547.2485675-.3063154.4438705-.3400316l.0995047-.0085486 2.501576-.0410095-.0008666-2.6146488h-5.56899998l-.09732312-.007853c-.25341091-.0413336-.45349033-.241413-.49482389-.4948239l-.00785299-.0973231v-12.8l.00785299-.09732312c.04133356-.2534109.24141298-.45349033.49482389-.49482389l.09732312-.00785299zm-.4153263 1.2h-7.7805297v11.6l4.9849647-.0010896.0101137-.0382941-.0134753-.0690259-.004404-.0717998v-.5982114l.007853-.0973231c.0465003-.2850872.2939132-.5026769.592147-.5026769s.5456468.2175897.592147.5026769l.007853.0973231v.5982114c0 .0396204-.0038403.0783439-.0111689.1158185l.0182948.0633013 4.925675.0010896v-8.296l-3.3294703.00063764zm-4.5214734 3.7562858v4.9512784h-1.5590563v-4.9512784zm2.1733745 3.1856554v1.765623h-1.5590563v-1.765623zm2.1733745-1.0326718v2.7982948h-1.5590564v-2.7982948zm2.2077741-1.10634284v3.90463764h-1.5590563v-3.90463764z" fill="#252d4f"/></svg>