<svg height="32" viewBox="0 0 32 32" width="32" xmlns="http://www.w3.org/2000/svg"><path d="m18.9017818 6.70311282c.1587498 0 .3110296.06291333.4234877.17496098l5.3254045 5.3059677c.1220745.1216289.1770924.2712335.1777104.4181785v12.0946672c0 .2982337-.2175897.5456467-.502677.592147l-.0973231.007853h-16.7283843c-.29823376 0-.54564675-.2175896-.59214701-.5026769l-.00785299-.0973231v-17.39377438c0-.29823376.21758961-.54564675.50267688-.59214701l.09732312-.00785299zm-6.434801 6.77641678h-2.1185839v6.7282358h2.1185839zm2.9533739 4.3289508h-2.118584v2.399285h2.118584zm2.9533738-1.4032859h-2.1185839v3.8025709h2.1185839zm3.0001192-1.5033967h-2.1185839v5.3059676h2.1185839zm-1.8851474-6.16692758v3.27421028h3.2862044z"/></svg>