<svg height="32" viewBox="0 0 32 32" width="32" xmlns="http://www.w3.org/2000/svg"><g fill="none" fill-rule="evenodd"><path d="m7.5 24.6968872v-12.0866131l5.3266025-5.30716128h11.4017818v17.39377438z" fill="#d2eab1" transform="matrix(-1 0 0 1 31.728384 0)"/><path d="m24.2271863 12.6090805h-5.338486v-5.30596768h.0130815z" fill="#6a9a29"/><path d="m24.2283843 17.9475028-5.339684-5.3384223h5.338486l.001198.0011936z" fill="#bcda93"/><g fill-rule="nonzero"><path d="m14.5396375 11.4064806h1.6c.3313709 0 .6.2686291.6.6v6.7282359c0 .3313708-.2686291.6-.6.6h-1.6c-.3313708 0-.6-.2686292-.6-.6v-6.7282359c0-.3313709.2686292-.6.6-.6z" fill="#2289a3"/><g fill="#9dbf6e"><path d="m20.0251709 21.6c0 .3313708-.2686291.6-.6.6-.2982337 0-.5456467-.2175896-.592147-.5026769l-.007853-.0973231v-5c0-.3313708.2686292-.6.6-.6.2982338 0 .5456468.2175896.592147.5026769l.007853.0973231z"/><path d="m11.8541041 21.6c0 .3313708-.2686291.6-.6.6-.2982337 0-.5456467-.2175896-.592147-.5026769l-.007853-.0973231v-5c0-.3313708.2686292-.6.6-.6.2982338 0 .5456468.2175896.592147.5026769l.007853.0973231z"/></g></g></g></svg>