<svg height="32" viewBox="0 0 32 32" width="32" xmlns="http://www.w3.org/2000/svg"><path d="m18.9017818 6.70311282c.1587498 0 .3110296.06291333.4234877.17496098l5.3254045 5.3059677c.1220745.1216289.1770924.2712335.1777104.4181785v12.0946672c0 .2982337-.2175897.5456467-.502677.592147l-.0973231.007853h-16.7283843c-.29823376 0-.54564675-.2175896-.59214701-.5026769l-.00785299-.0973231v-17.39377438c0-.29823376.21758961-.54564675.50267688-.59214701l.09732312-.00785299zm-3.3861596 13.61291648h-5l-.0973231.007853c-.2850873.0465003-.50267693.2939133-.50267693.592147 0 .2982338.21758963.5456468.50267693.5921471l.0973231.0078529h5l.0973231-.0078529c.2850873-.0465003.5026769-.2939133.5026769-.5921471 0-.2982337-.2175896-.5456467-.5026769-.592147zm4.6480307-4.8855334h-6.7282359l-.0973231.007853c-.2534109.0413336-.4534903.241413-.4948239.4948239l-.007853.0973231v1.6l.007853.0973232c.0413336.2534109.241413.4534903.4948239.4948239l.0973231.0078529h6.7282359l.0973231-.0078529c.2534109-.0413336.4534903-.241413.4948239-.4948239l.007853-.0973232v-1.6l-.007853-.0973231c-.0413336-.2534109-.241413-.4534903-.4948239-.4948239zm-4.6480307-3.2855334h-5l-.0973231.007853c-.2850873.0465003-.50267693.2939133-.50267693.592147 0 .2982338.21758963.5456468.50267693.5921471l.0973231.0078529h5l.0973231-.0078529c.2850873-.0465003.5026769-.2939133.5026769-.5921471 0-.2982337-.2175896-.5456467-.5026769-.592147zm3.9730781-3.41009228v3.27421028h3.2862044z"/></svg>