<svg height="32" viewBox="0 0 32 32" width="32" xmlns="http://www.w3.org/2000/svg"><g fill="none" fill-rule="evenodd" transform="translate(5.4 3.95)"><path d="m20.6 15.9c.2982338 0 .5456468.2175896.592147.5026769l.007853.0973231v7c0 .2982338-.2175896.5456468-.5026769.592147l-.0973231.007853h-20c-.29823376 0-.54564675-.2175896-.59214701-.5026769l-.00785299-.0973231v-7c0-.3313708.26862915-.6.6-.6.29823377 0 .54564675.2175896.59214701.5026769l.00785299.0973231v6.399h18.8v-6.399c0-.2982338.2175896-.5456468.5026769-.592147z" fill="#252d4f" fill-rule="nonzero"/><g transform="translate(4.309021)"><path d="m0 12.8v-8.89448401l3.91982272-3.90551599h8.39051978v12.8z" fill="#d2eab1" transform="matrix(-1 0 0 1 12.310342 0)"/><path d="m12.3094609 3.90463764h-3.92856777v-3.90463764h.00962662z" fill="#6a9a29"/><path d="m12.3103425 7.83315849-3.92944937-3.92852085h3.92856777l.0008816.00087835z" fill="#bcda93"/><path d="m2.300363 4.356286h1.559056v4.951278h-1.559056z" fill="#d45489"/><path d="m4.47373784 7.54194119h1.55905634v1.76562301h-1.55905634z" fill="#f8813d"/><path d="m6.64711231 6.50926937h1.55905635v2.79829483h-1.55905635z" fill="#31afd8"/><path d="m8.85488646 5.40292656h1.55905634v3.90463764h-1.55905634z" fill="#257843"/></g><path d="m10.4684307 20.0302558c.0820189.0410095.1742901.0615142.2665614.0615142.1332806 0 .2768137-.0410094.3793373-.1332807l3.7933736-3.0346988c.143533-.112776.2358043-.2973185.2358043-.481861s-.0820189-.3588326-.225552-.481861l-3.8856448-3.1167177c-.1845425-.1537854-.4408515-.1742901-.6561511-.0717665s-.3485802.3280755-.3485802.5638798l.030757 2.4195572h-3.6583175c-.33832791 0-.61514165.2768138-.61514165.6151417s.27681374.6151416.61514165.6151416h3.6788223l.0410094 2.5015761c0 .2358043.1435331.4511039.3485803.5433751z" fill="#252d4f" fill-rule="nonzero" transform="matrix(0 1 -1 0 26.864192 5.935808)"/></g></svg>