<svg height="32" viewBox="0 0 32 32" width="32" xmlns="http://www.w3.org/2000/svg"><path d="m18.9017818 6.70311282c.1587498 0 .3110296.06291333.4234877.17496098l5.3254045 5.3059677c.1220745.1216289.1770924.2712335.1777104.4181785v12.0946672c0 .2982337-.2175897.5456467-.502677.592147l-.0973231.007853h-16.7283843c-.29823376 0-.54564675-.2175896-.59214701-.5026769l-.00785299-.0973231v-17.39377438c0-.29823376.21758961-.54564675.50267688-.59214701l.09732312-.00785299zm-.6137818 1.199-10.188.001v16.19377438h15.5283843l-.0003843-10.8887744-4.7392997.0009677c-.3313708 0-.6-.2686292-.6-.6zm-5.8210192 5.57741678v6.7282358h-2.1185839v-6.7282358zm2.9533739 4.3289508v2.399285h-2.118584v-2.399285zm2.9533738-1.4032859v3.8025709h-2.1185839v-3.8025709zm3.0001192-1.5033967v5.3059676h-2.1185839v-5.3059676zm-1.8851474-6.16692758v3.27421028h3.2862044z"/></svg>