<svg height="32" viewBox="0 0 32 32" width="32" xmlns="http://www.w3.org/2000/svg"><g fill="none"><path d="m22.0814297 11.8038701v11.5557101h-13.96524707v-5.0369178l2.84892877.6075716c.3641649.0776629.737531-.0537197.973197-.3334826l.0732538-.0986667 2.7284378-4.1880847 3.03 2.17c.2311111.1688889.5491358.1402469.7574211-.0508093l.0725789-.0791907 2.43-3.21zm-1.0004297 2.9241299-1.688376 2.2317108c-.4964834.6454284-1.3958088.8211638-2.0793857.4160831l-.1254913-.0827862-2.181747-1.5620077-2.1565598 3.3129423c-.4215604.6470848-1.1744067.9895182-1.9308671.8919825l-.1620346-.027684-1.6405385-.3502408v2.801h11.965z" fill="#fff"/><path d="m8.2 8c0-.38522847-.31477153-.7-.7-.7s-.7.31477153-.7.7v16c0 .3852285.31477153.7.7.7h17c.3852285 0 .7-.3147715.7-.7s-.3147715-.7-.7-.7h-16.3z" fill="#7c969d"/><path d="m18.4029103 17.9239813 2.6780897-3.291755 1.6907187 1.5126854v6.2140883h-13.70851732l.05279862-3.0257187 2.9080625.6209375 2.9327183-4.3975071z" fill="#d2eab1"/><path d="m17.682662 16.6019511c.3245847.2372051.7865772.1640563 1.0362316-.1604945l2.3282339-3.0755612 1.6982939 1.6516374c.1365594.1365801.3246276.2124672.5245786.2124672.0994344 0 .1883371-.0164635.267082-.0558359.259395-.0932735.447332-.3334152.4723541-.6211697l.5296232-4.70622128c.0252341-.22710622-.051871-.45171687-.2129933-.61283914-.1611222-.16112226-.3857329-.23822741-.6126307-.21301654l-4.8297967.52997755c-.2945535.03838851-.5398793.23114453-.6265775.50362451-.097706.2683277-.0249569.5697167.1868729.7815465l1.5262315 1.4791498-2.0013529 2.6377278-2.9313248-2.1047873c-.1679304-.1162865-.3688277-.162394-.5651311-.1255871-.1983554.0371916-.3729333.149185-.4856855.3120493l-2.9498643 4.4376118-1.0186762-.2319863c-.42040155-.0957393-.8388164.1674514-.93455574.5878529l-.00654167.0317576c-.08111461.4398171.20257688.8642973.63997531.9575783l1.2168169.2595022c.4653217.099236.9437071-.0983212 1.2034184-.4969716l2.6428676-4.0567366z" fill="#0e8538"/></g></svg>