<svg height="32" viewBox="0 0 32 32" width="32" xmlns="http://www.w3.org/2000/svg"><path d="m26 19.85c.2982338 0 .5456468.2175896.592147.5026769l.007853.0973231v7c0 .2982338-.2175896.5456468-.5026769.592147l-.0973231.007853h-20c-.29823376 0-.54564675-.2175896-.59214701-.5026769l-.00785299-.0973231v-7c0-.3313708.26862915-.6.6-.6.29823376 0 .54564675.2175896.59214701.5026769l.00785299.0973231v6.399h18.8v-6.399c0-.2982338.2175896-.5456468.5026769-.592147zm-7.9004593-16.5c.1587498 0 .3110296.06291333.4234877.17496098l3.9198227 3.90551599c.1129966.11258424.1765123.26552898.1765123.42503902v8.89448401c0 .3313708-.2686292.6-.6.6h-5.5103425l.0001499 2.5941441 2.4195572-.0307571c.2358043 0 .4613562.1332807.5638799.3485803.0878773.1845425.0853666.3992144-.0139887.5729964l-.0577779.0831547-3.1167177 3.8856448c-.1230283.143533-.2973185.2255519-.481861.2255519-.1537854 0-.3075708-.0640773-.4198246-.1684994l-.0620363-.0673049-3.0346989-3.7933735c-.0922712-.1025236-.1332806-.2460567-.1332806-.3793374 0-.0922712.0205047-.1845425.0615141-.2665614.0790897-.1757547.2485675-.3063154.4438705-.3400316l.0995047-.0085486 2.501576-.0410095-.0008666-2.6146488h-5.56899998c-.33137085 0-.6-.2686292-.6-.6v-12.8c0-.33137085.26862915-.6.6-.6zm-4.5311001 4.9562858h-1.5590563v4.9512784h1.5590563zm2.1733745 3.1856554h-1.5590563v1.765623h1.5590563zm2.1733745-1.0326718h-1.5590564v2.7982948h1.5590564zm2.2077741-1.10634284h-1.5590563v3.90463764h1.5590563zm-2.0250862-4.72834444h-.0079635v3.23005552h3.2498514z" fill="#252d4f"/></svg>