<svg height="32" viewBox="0 0 32 32" width="32" xmlns="http://www.w3.org/2000/svg"><path d="m18.9017818 6.70311282c.1587498 0 .3110296.06291333.4234877.17496098l5.3254045 5.3059677c.1220745.1216289.1770924.2712335.1777104.4181785v12.0946672c0 .2982337-.2175897.5456467-.502677.592147l-.0973231.007853h-16.7283843c-.29823376 0-.54564675-.2175896-.59214701-.5026769l-.00785299-.0973231v-17.39377438c0-.29823376.21758961-.54564675.50267688-.59214701l.09732312-.00785299zm.5233891 9.29688718c-.2982337 0-.5456467.2175896-.592147.5026769l-.007853.0973231v5l.007853.0973231c.0465003.2850873.2939133.5026769.592147.5026769.2982338 0 .5456468-.2175896.592147-.5026769l.007853-.0973231v-5l-.007853-.0973231c-.0465002-.2850873-.2939132-.5026769-.592147-.5026769zm-8.1710668 0c-.2982337 0-.5456467.2175896-.592147.5026769l-.007853.0973231v5l.007853.0973231c.0465003.2850873.2939133.5026769.592147.5026769.2982338 0 .5456468-.2175896.592147-.5026769l.007853-.0973231v-5l-.007853-.0973231c-.0465002-.2850873-.2939132-.5026769-.592147-.5026769zm4.8855334-4.5935194h-1.6c-.2982337 0-.5456467.2175896-.592147.5026769l-.007853.0973231v6.7282359c0 .2982337.2175896.5456467.5026769.592147l.0973231.007853h1.6c.2982338 0 .5456468-.2175896.592147-.5026769l.007853-.0973231v-6.7282359c0-.2982338-.2175896-.5456468-.5026769-.592147zm3.3490628-2.67161038v3.27421028h3.2862044z"/></svg>