<svg height="32" viewBox="0 0 32 32" width="32" xmlns="http://www.w3.org/2000/svg"><g fill="none" fill-rule="evenodd"><path d="m7.5 24.6968872v-12.0866131l5.3266025-5.30716128h11.4017818v17.39377438z" fill="#d2eab1" transform="matrix(-1 0 0 1 31.728384 0)"/><path d="m24.2271863 12.6090805h-5.338486v-5.30596768h.0130815z" fill="#6a9a29"/><path d="m24.2283843 17.9475028-5.339684-5.3384223h5.338486l.001198.0011936z" fill="#bcda93"/><g fill-rule="nonzero"><path d="m13.0156222 10.2449625v5z" fill="#000" stroke="#979797" stroke-linejoin="round" transform="matrix(0 1 -1 0 25.760585 -.270659)"/><path d="m13.0156222 18.4160293v5z" fill="#000" stroke="#979797" stroke-linejoin="round" transform="matrix(0 1 -1 0 33.931651 7.900407)"/><path d="m15.5156222 12.1449625c.3313708 0 .6.2686292.6.6 0 .2982338-.2175896.5456468-.5026769.5921471l-.0973231.0078529h-5c-.3313709 0-.60000003-.2686291-.60000003-.6 0-.2982337.21758963-.5456467.50267693-.592147l.0973231-.007853z" fill="#9dbf6e"/><path d="m15.5156222 20.3160293c.3313708 0 .6.2686292.6.6 0 .2982338-.2175896.5456468-.5026769.5921471l-.0973231.0078529h-5c-.3313709 0-.60000003-.2686291-.60000003-.6 0-.2982337.21758963-.5456467.50267693-.592147l.0973231-.007853z" fill="#9dbf6e"/><path d="m20.7636529 17.6304959v-1.6c0-.3313708-.2686292-.6-.6-.6h-6.7282359c-.3313708 0-.6.2686292-.6.6v1.6c0 .3313709.2686292.6.6.6h6.7282359c.3313708 0 .6-.2686291.6-.6z" fill="#c33c75"/></g></g></svg>