<svg height="32" viewBox="0 0 32 32" width="32" xmlns="http://www.w3.org/2000/svg"><g fill="none"><path d="m9.1 7c.29823376 0 .54564675.21758961.59214701.50267688l.00785299.09732312v16c0 .2982338-.21758961.5456468-.50267688.592147l-.09732312.007853h-3.5c-.29823376 0-.54564675-.2175896-.59214701-.5026769l-.00785299-.0973231v-16c0-.29823376.21758961-.54564675.50267688-.59214701l.09732312-.00785299z" fill="#d45489"/><path d="m26.9137337 10.3822077c.2982338 0 .5456467.2175897.592147.5026769l.007853.0973231v12.6177923c0 .2982338-.2175896.5456468-.5026769.592147l-.0973231.007853h-3.5c-.2982338 0-.5456468-.2175896-.592147-.5026769l-.007853-.0973231v-12.6177923c0-.2982337.2175896-.5456467.5026769-.592147l.0973231-.007853z" fill="#257843"/><path d="m15.0067477 17.2944093c.2982337 0 .5456467.2175896.592147.5026769l.007853.0973231v5.7055907c0 .2982338-.2175896.5456468-.5026769.592147l-.0973231.007853h-3.5c-.2982338 0-.5456468-.2175896-.592147-.5026769l-.007853-.0973231v-5.7055907c0-.2982338.2175896-.5456468.5026769-.592147l.0973231-.007853z" fill="#f8813d"/><path d="m20.9134954 13.957342c.2982337 0 .5456467.2175896.592147.5026769l.007853.0973231v9.042658c0 .2982338-.2175896.5456468-.5026769.592147l-.0973231.007853h-3.5c-.2982338 0-.5456468-.2175896-.592147-.5026769l-.007853-.0973231v-9.042658c0-.2982338.2175896-.5456467.5026769-.592147l.0973231-.007853z" fill="#31afd8"/></g></svg>