<svg height="32" viewBox="0 0 32 32" width="32" xmlns="http://www.w3.org/2000/svg"><path d="m7.5 7.3c.3531261 0 .6470488.26449552.69358365.60530212l.00641635.09469788v15.3h16.3c.3852285 0 .7.3147715.7.7 0 .3531261-.2644955.6470488-.6053021.6935836l-.0946979.0064164h-17c-.3531261 0-.64704879-.2644955-.69358365-.6053021l-.00641635-.0946979v-16c0-.38522847.31477153-.7.7-.7zm13.581 7.3322263 1.6907188 1.5126854v6.2140883h-13.70851742l.05279862-3.0257187 2.9080625.6209375 2.9327183-4.3975071 3.4461295 2.3672696zm2.6324353-5.61130886c.2268978-.02521087.4515085.05189428.6126307.21301654.1342686.13426856.2101919.31262627.2171669.49977637l-.0041736.11306277-.5296232 4.70622128c-.0250221.2877545-.2129591.5278962-.4723541.6211697-.0787449.0393724-.1676476.0558359-.267082.0558359-.1599608 0-.3123166-.0485678-.4367789-.1379239l-.0877997-.0745433-1.6982939-1.6516374-2.3282339 3.0755612c-.2269586.2950461-.6294031.3823221-.9445644.2175364l-.0916672-.0570419-2.9025505-2.0787243-2.6428676 4.0567366c-.2361012.3624095-.6529247.5586262-1.0763627.5167493l-.1270557-.0197777-1.2168169-.2595022c-.40094856-.0855076-.67274059-.4493145-.652776-.8481264l.01280069-.1094519.00654167-.0317576c.08776106-.3853681.44665918-.6386354.82968231-.6044267l.10487343.0165738 1.0186762.2319863 2.9498643-4.4376118c.1127522-.1628643.2873301-.2748577.4856855-.3120493.1570427-.0294455.3170255-.0058258.4607173.0643386l.1044138.0612485 2.9313248 2.1047873 2.0013529-2.6377278-1.5262315-1.4791498c-.2118298-.2118298-.2845789-.5132188-.1868729-.7815465.0758609-.23841999.2731711-.41580131.5186412-.48213863l.1079363-.02148588z"/></svg>