<svg height="32" viewBox="0 0 32 32" width="32" xmlns="http://www.w3.org/2000/svg"><path d="m23.1666667 4.65c.2982337 0 .5456467.21758961.592147.50267688l.007853.09732312v10.75c0 .2982338-.2175896.5456468-.5026769.592147l-.0973231.007853h-6.0463422l6.5455723 9.8171799c.2481005.3721506.0156466.86221-.4060713.9258973l-.0931588.0069228h-14.33333337c-.29823376 0-.54564675-.2175896-.59214701-.5026769l-.00785299-.0973231v-10.75c0-.2982338.21758961-.5456468.50267689-.592147l.09732311-.007853h6.04599117l-6.54522134-9.81717988c-.24810044-.37215065-.01564656-.86221006.40607131-.92589731l.09315886-.00692281z"/></svg>