<svg height="32" viewBox="0 0 32 32" width="32" xmlns="http://www.w3.org/2000/svg"><g fill="none" fill-rule="evenodd"><path d="m23.3003104 7.16363636c1.0404025 0 1.8996896.79867823 1.8996896 1.8146467v16.22525204c0 1.0144749-.8653323 1.8146467-1.9098333 1.8146467h-14.94396975c-1.04493719 0-1.90983331-.7973956-1.90983331-1.8146467v-16.22525204c0-1.01326281.8635698-1.8146467 1.90397922-1.8146467z" fill="#945144"/><path d="m23.3003104 6.16363636c1.0404025 0 1.8996896.79867823 1.8996896 1.8146467v16.22525204c0 1.0144749-.8653323 1.8146467-1.9098333 1.8146467h-14.94396975c-1.04493719 0-1.90983331-.7973956-1.90983331-1.8146467v-16.22525204c0-1.01326281.8635698-1.8146467 1.90397922-1.8146467z" fill="#c47161"/><path d="m8.34034286 8.15317656.00585409 15.99652604h14.94396975l.0101437-15.99652604z" fill="#fff"/><path d="m16.85 16.0313162v-2.65c0-.4680711-.3819288-.85-.85-.85s-.85.3819289-.85.85v2.65h-2.65c-.4680712 0-.85.3819289-.85.85 0 .4680712.3819288.85.85.85h2.65v2.65c0 .4680712.3819288.85.85.85s.85-.3819288.85-.85v-2.65h2.65c.4680712 0 .85-.3819288.85-.85 0-.4680711-.3819288-.85-.85-.85z" fill="#257843" fill-rule="nonzero"/><path d="m17.9944054 5.2892907c-.3326961-.9339542-1.1673749-1.59623884-2.1443263-1.59623884-.9770462 0-1.8116301.66228464-2.1443263 1.59623884-.4021738 1.10645097-1.2381795 1.97542279-2.2801536 2.35934398-.9152462.32913415-1.5755201 1.26648678-1.5755201 2.37129002h12c0-1.10480324-.6603687-2.04215587-1.5756149-2.37129002-1.0419741-.38392119-1.877885-1.25289301-2.2800588-2.35934398z" fill="#69b5cf"/><circle cx="15.850079" cy="6" fill="#38859f" r="1"/></g></svg>