<svg height="32" viewBox="0 0 32 32" width="32" xmlns="http://www.w3.org/2000/svg"><path d="m10.3126637 6.06867485c-.56841628.5718013-.9126637 1.38170181-.9126637 2.25819799 0 .33137085.26862915.6.6.6h12c.3313708 0 .6-.26862915.6-.6 0-.876411-.3442238-1.68625156-.9138335-2.258504l1.5359175.00040413c.9868858 0 1.7869148.80002899 1.7869148 1.78691476v17.13462437c0 .9868858-.800029 1.7869148-1.7869148 1.7869148h-14.44416804c-.93754148 0-1.70644472-.7220262-1.78099119-1.64036l-.00592357-.1465548v-17.13462437c0-.98688577.80002899-1.78691476 1.78691476-1.78691476zm5.6873363 6.83317955c-.398527 0-.7278851.2961475-.7800106.6803788l-.0071862.1068179v3.0976354h-3.0976353c-.4347568 0-.7871968.35244-.7871968.7871967 0 .3985271.2961475.7278852.6803789.7800106l.1068179.0071862h3.0976353v3.0976353c0 .4347568.35244.7871968.7871968.7871968.398527 0 .7278851-.2961475.7800106-.6803788l.0071862-.106818v-3.0976353h3.0976353c.4347568 0 .7871968-.35244.7871968-.7871968 0-.398527-.2961475-.7278851-.6803789-.7800106l-.1068179-.0071861h-3.0976353v-3.0976354c0-.4347567-.35244-.7871967-.7871968-.7871967zm0-10.3018544c.648758 0 1.237893.41386061 1.5228089 1.0564487l.0563078.14113091c.4345716 1.19561718 1.3102941 2.14949986 2.4140908 2.63105727l.3598905.14612473c.4440935.20754651.7879014.61437726.9481105 1.11430587l.0097927.03693252h-10.623l.010696-.0369204c.1583837-.49486055.4961852-.89827124.9313227-1.10675978l.1485383-.0621349c1.1374123-.41906765 2.0571315-1.32443421 2.5485163-2.48378905l.0925034-.23518865c.258685-.72615089.885267-1.20120722 1.5804221-1.20120722z" fill-rule="evenodd"/></svg>