<svg height="32" viewBox="0 0 32 32" width="32" xmlns="http://www.w3.org/2000/svg"><path d="m16 2.9c1.1583386 0 2.1789804.72946099 2.6406928 1.81823805l.147429.37404151c.1398684.32350586.3235753.61872323.5419156.87661635l3.8920466-.00012294c1.3182567 0 2.3869148 1.06865814 2.3869148 2.38691476v16.13462437c0 1.3182566-1.0686581 2.3869148-2.3869148 2.3869148h-14.44416804c-1.31825662 0-2.38691476-1.0686582-2.38691476-2.3869148v-16.13462437c0-1.31825662 1.06865814-2.38691476 2.38691476-2.38691476l3.89212144.0001095c.2101169-.24786637.387864-.52994302.5251628-.83810187l.1634011-.41087834c.46138-1.08972531 1.4824064-1.81990226 2.6413987-1.81990226zm5.1894271 4.26754049c.8603224.54960484 1.4105729 1.55126133 1.4105729 2.65933235 0 .29823376-.2175896.54564676-.5026769.59214706l-.0973231.0078529h-12c-.33137085 0-.6-.2686291-.6-.59999996 0-1.1089535.55105799-2.11130323 1.4099787-2.65970259l-2.03206274.00160272c-.65551492 0-1.18691476.53139984-1.18691476 1.18691476v16.13462437c0 .6555149.53139984 1.1869148 1.18691476 1.1869148h14.44416804c.655515 0 1.1869148-.5313999 1.1869148-1.1869148v-16.13462437c0-.65551492-.5313998-1.18691476-1.1869148-1.18691476zm-5.1894271 5.93431391c.3242998 0 .5871968.2628969.5871968.5871967v3.2976354h3.2976353l.0933933.0067351.0894861.0201716c.2318071.0733546.4043174.2984281.4043174.56029 0 .3242999-.262897.5871968-.5871968.5871968h-3.2976353v3.2976353l-.0067351.0933933-.0201717.0894861c-.0733545.2318071-.2984281.4043174-.56029.4043174-.3242998 0-.5871968-.262897-.5871968-.5871968v-3.2976353h-3.2976353l-.0933933-.0067351-.0894861-.0201717c-.2318071-.0733545-.4043174-.2984281-.4043174-.56029 0-.3242998.262897-.5871967.5871968-.5871967h3.2976353v-3.2976354l.0067351-.0933932.0201717-.0894861c.0733545-.2318072.2984281-.4043174.56029-.4043174zm0-9.0018544c-.6488115 0-1.2378881.41382685-1.5238685 1.05939133l-.149057.37700454c-.4586258 1.08206452-1.2903785 1.94287702-2.3239988 2.39356037l-.3628592.14752217c-.4009954.18866687-.7204416.5424029-.8947672.98106975l-.0584453.16832468h10.6259159l-.0520545-.15186081c-.1709744-.4408752-.4883923-.7980225-.8896439-.9916431l-.3780136-.15473116c-1.0302059-.44944119-1.8616712-1.31015657-2.3202824-2.39223712l-.1501166-.37995195c-.2849159-.64258809-.8740509-1.0564487-1.5228089-1.0564487z"/></svg>