<svg height="32" viewBox="0 0 32 32" width="32" xmlns="http://www.w3.org/2000/svg"><g fill="none" fill-rule="evenodd"><path d="m24.8054953 19.1705996h-17.38250181c-1.56182212 0-2.8054953 1.2700956-2.8054953 2.7999835 0 1.5587537 1.27259581 2.7999835 2.8054953 2.7999835h17.38250181z" fill="#d1e1e6"/><path d="m26.1937816 12.4921337c-1.6499642 0-2.8874374 0-3.7124196 0-3.037796 0-7.5944901 0-13.67008217 0-1.56182213 0-2.8054953 1.2700956-2.8054953 2.7999835s1.2725958 2.7999836 2.8054953 2.7999836h18.48445407v-5.5999671" fill="#f7d776"/><path d="m6.0166283 7.08775001h13.7714785c1.2373708 0 2.2226845 1.00624724 2.2226845 2.21831778 0 1.21207051-1.008228 2.21831781-2.2226845 2.21831781h-13.7714785z" fill="#fcd9e7"/><g fill-rule="nonzero"><path d="m7.42299349 25.4160783c-1.89455432 0-3.42299349-1.5254364-3.42299349-3.4166294 0-1.8580142 1.47528016-3.3629927 3.32362444-3.4152271l.09936905-.0014023h17.46926971c.3327322 0 .6174982.2842066.6174982.6166459 0 .3149425-.2555795.5865958-.5653947.6143184l-.0521035.0023274h-17.46926971c-1.22908993 0-2.21691974.9858891-2.21691974 2.2122035 0 1.1984436.9434387 2.1672662 2.13350077 2.2106845l.08341897.001519h17.46926971c.3327322 0 .6174982.2842065.6174982.6166458 0 .2720115-.266325.5287612-.564581.5564494l-.0529172.0024649z" fill="#417505"/><path d="m5.94788547 12.0739524c-.28765371 0-.52737281-.1957485-.52737281-.4809591 0-.2677335.21499348-.4980536.47761417-.5242237l.04975864-.0024738h13.84022133c.9527054 0 1.718226-.7640166 1.718226-1.7144895 0-.92407088-.7235823-1.67190025-1.6392796-1.71273331l-.0789464-.00175618h-13.84022133c-.28466533 0-.52737281-.24223065-.52737281-.52669754 0-.26773355.21499348-.49805368.47761417-.52422375l.04975864-.0024738h13.84022133c1.5220361 0 2.7500574 1.22560864 2.7500574 2.74501533 0 1.48961435-1.1803357 2.69683925-2.660872 2.74360875l-.0891854.0014066z" fill="#b75c64"/><path d="m27.3825018 11.9043537h-18.57122197c-1.89455433 0-3.4229935 1.5254363-3.4229935 3.4166294 0 1.891193 1.52843917 3.4166293 3.4229935 3.4166293h18.57122197c.3189193 0 .6174982-.2709021.6174982-.5589142 0-.3324393-.284766-.6166459-.6174982-.6166459h-18.57122197c-1.22908993 0-2.21691974-.985889-2.21691974-2.2122034s.98782981-2.2122035 2.21691974-2.2122035h18.57122197c.3327322 0 .6174982-.2842065.6174982-.6166459 0-.3324393-.284766-.6166458-.6174982-.6166458z" fill="#2f424f"/></g><path d="m17.3805986 22.7856167-2.1885803-1.2954287-2.4554802 1.5618044v-7.8847198h4.6440605z" fill="#bb3600" stroke="#bb3600" stroke-linejoin="round"/></g></svg>