<svg height="32" viewBox="0 0 32 32" width="32" xmlns="http://www.w3.org/2000/svg"><path d="m19.7881068 6.58392172c1.5220361 0 2.7500574 1.22560864 2.7500574 2.74501533 0 1.18430375-.7460777 2.19011205-1.7959329 2.57616475l6.6402705-.0007481c.3327322 0 .6174982.2842065.6174982.6166458 0 .3022176-.2353438.5645734-.5281202.6097767l-.089378.0068692h-18.57122197c-1.22908993 0-2.21691974.9858891-2.21691974 2.2122035 0 1.1729963.90379892 2.1260195 2.05803322 2.2066737l.15888652.0055297 3.32472017-.0001306.0005381-2.8221c0-.2982337.2175896-.5456467.5026769-.592147l.0973231-.007853h4.6440605c.2982338 0 .5456467.2175897.592147.5026769l.007853.0973231-.0005986 2.8221 9.4025018.0001306c.3024838 0 .5653261.2348815.6106158.5273538l.0068824.0892921c0 .2592109-.2418489.5045627-.5227109.551041l-.0947873.0078732-2.0874273.0001301c.130418.1143099.2146869.2808798.2146869.4617229 0 .3149425-.2555795.5865958-.5653947.6143184l-.0521035.0023274-6.9122632-.0001895.0005986 2.5422442c0 .4337919-.4404804.7138477-.8243972.5567817l-.081221-.0404509-1.8719804-1.1074967-2.1444502 1.3638107c-.3461822.2201886-.7848485.0340237-.8956718-.3276964l-.0195636-.0864852-.0067763-.0920876-.0005381-2.8086198-4.71300651.0001895c-1.22908993 0-2.21691974.9858891-2.21691974 2.2122035 0 1.1984436.9434387 2.1672662 2.13350077 2.2106845l.08341897.001519h17.46926971c.3327322 0 .6174982.2842065.6174982.6166458 0 .2720115-.266325.5287612-.564581.5564494l-.0529172.0024649h-17.46926971c-1.89455432 0-3.42299349-1.5254364-3.42299349-3.4166294 0-1.8580142 1.47528016-3.3629927 3.32362444-3.4152271l.09936905-.0014023.36737833.0010878c-1.3937987-.4321189-2.40208549-1.7268797-2.40208549-3.2629242 0-1.5177191.98437192-2.7998772 2.35236574-3.247091l-1.7927666.0000603c-.28765371 0-.52737281-.1957485-.52737281-.4809591 0-.2677335.21499348-.4980536.47761417-.5242237l.04975864-.0024738h13.84022133c.9527054 0 1.718226-.7640166 1.718226-1.7144895 0-.92407088-.7235823-1.67190025-1.6392796-1.71273331l-.0789464-.00175618h-13.84022133c-.28466533 0-.52737281-.24223065-.52737281-.52669754 0-.26773355.21499348-.49805368.47761417-.52422375l.04975864-.0024738z"/></svg>