<svg height="32" viewBox="0 0 32 32" width="32" xmlns="http://www.w3.org/2000/svg"><path d="m13.7031522 11.0016173-.0289185-2.32311396c.0000163-.31858054-.1927518-.61576472-.4808071-.74538961-.2864012-.13643562-.6233953-.09770067-.8766041.09923955l-3.88725846 3.10978152c-.19710821.1548605-.32031404.4051223-.32031404.6574825 0 .2505192.11092946.4871687.30433381.6529438l3.98476949 3.1963698c.1491071.1220094.3311378.1826864.5303967.1826864.1279185 0 .2543897-.0289078.3669149-.0851703.2879756-.1370883.4730851-.4403528.4730851-.7653297l-.0288489-2.2995h3.5778489c2.6980202 0 4.893 2.1949797 4.893 4.893 0 2.6980202-2.1949798 4.893-4.893 4.893h-7.4025c-.4624798 0-.84.3775202-.84.84 0 .4624797.3775202.84.84.84h7.4025c3.6229798 0 6.573-2.9500203 6.573-6.573-.0108571-3.626584-2.9639847-6.573-6.594-6.573z" fill="#b75c64"/></svg>