<svg height="32" viewBox="0 0 32 32" width="32" xmlns="http://www.w3.org/2000/svg"><path d="m15.6399601 5.57944197c.18-.14.42-.17.63-.07.2.09.34.3.34.53l.04 2.71c2.13.15 4.11 1.05 5.63 2.58000003 1.67 1.69 2.6 3.94 2.5900798 6.35 0 4.89-3.9800798 8.87-8.8700798 8.87s-8.87000001-3.98-8.87000001-8.87c0-.33.27-.6.6-.6s.6.27.6.6c0 4.23 3.44000001 7.67 7.67000001 7.67s7.67-3.44 7.67-7.67c0-2.09-.8-4.04-2.25-5.5-1.29-1.3-2.96-2.08-4.76-2.23000003l.04 2.68000003c0 .23-.13.45-.34.55-.08.04-.17.06-.26.06-.14 0-.27-.04-.38-.13l-4.16-3.34000003c-.14-.12-.22-.29-.22-.47s.09-.36.23-.47zm2.2338729 9.34464353c.3309763-.3309763.8711052-.3309763 1.2020815 0s.3309763.8711052 0 1.2020815l-1.873833 1.873833 1.873833 1.873833c.3309763.3309763.3309763.8711052 0 1.2020815s-.8711052.3309763-1.2020815 0l-1.873833-1.873833-1.873833 1.873833c-.3309763.3309763-.8711052.3309763-1.2020815 0s-.3309763-.8711052 0-1.2020815l1.873833-1.873833-1.873833-1.873833c-.3309763-.3309763-.3309763-.8711052 0-1.2020815s.8711052-.3309763 1.2020815 0l1.873833 1.873833z"/></svg>