<svg height="32" viewBox="0 0 32 32" width="32" xmlns="http://www.w3.org/2000/svg"><path d="m4.83 17.475c.33 0 .6.26.6.6.03 4.46 3.53 8.14 7.91 8.48l.01-1.6c0-.23.13-.44.34-.54s.45-.07.63.07l2.72 2.18c.14.11.22.29.22.47s-.08.35-.22.47l-2.75 2.2c-.17.14-.42.17-.63.07s-.34-.32-.34-.54l.01-1.58c-5.04-.35-9.07-4.57-9.1-9.68 0-.33.26-.6.6-.6zm11.002497-8.46624326c.602952 0 1.1471283.3527049 1.372366.88440957l.2980457.65952159c.1206451.2642703.377258.4314596.6554516.4314596.079269 0 .1602922-.0154567.2492428-.0491953l.6952071-.2620835c.6023157-.2116245 1.2580276-.0241192 1.7316532.5356972l.0206784.0310874c.2777654.4084785.3387759.9205645.1645481 1.3798556l-.2524347.6751852c-.1297331.3553559.0403104.7701367.3723208.9266015l.6551171.298938c.5377805.2444457.882666.781464.8822523 1.3530942.0160899.5953283-.3188647 1.1393494-.8593918 1.4014035l-.0085884.0040633-.6585383.3068881c-.3373944.1561495-.5071187.5688787-.3792384.9220579l.2494227.6675664c.1668639.4247445.1250107.8856085-.1114588 1.2984599-.0128843.0285803-.0281814.0565198-.0459461.083553-.3812564.5801729-1.1159914.8221445-1.7629599.5759682l-.0226943-.0064126-.6587362-.2533706c-.0849012-.0322039-.1722521-.0486159-.2540834-.0486159-.2748943 0-.5361039.1700314-.6554251.4314016l-.2895141.6336688c-.2325152.5480715-.7746728.9103204-1.3681796.9103204h-.0063722c-.590483 0-1.1272449-.3451367-1.372366-.8844096l-.2980457-.6595216c-.1206452-.2642703-.377258-.4314596-.6554517-.4314596-.079269 0-.1602921.0154568-.2492427.0491953l-.6952072.2620836c-.592408.2081433-1.2493872.031934-1.7069313-.5031747-.0080038-.0136407-.0080038-.0136407-.0454003-.0636099-.2777654-.4084786-.3387758-.9205646-.1645481-1.3798557l.2524347-.6751851c.1298083-.3555617-.0405066-.7702189-.378999-.9296813l-.63309634-.2950352-.0217147-.0071953c-.53953953-.2452452-.88258763-.7833254-.88258763-1.3779124 0-.5938897.34241207-1.1323886.87468776-1.3742764l.65853821-.3068881c.3373945-.1561495.5071187-.5688787.3792384-.9220578l-.2494226-.6675665c-.1668639-.4247445-.1250108-.8856085.1114587-1.2984599.0128844-.0285803.0281814-.0565197.0459462-.083553.3804188-.5788983 1.1211522-.823044 1.7643133-.5755857l.0213409.0060301.6587362.2533706c.0849012.032204.172252.0486159.2540833.0486159.2748944 0 .536104-.1700314.655385-.4313136l.2841463-.62270362.0054079-.01742535c.2331906-.54966349.7762612-.90394819 1.3745519-.90394819zm.0063722 1.19999996c-.1261834 0-.2323934.0692886-.2762259.172608l-.0087287.0257455-.2938546.6439792c-.3133411.6863662-.9995686 1.1330581-1.7470541 1.1330581-.2290989 0-.4604525-.043468-.682266-.127611l-.6567537-.2526012-.0231438-.0067017c-.1018863-.0407101-.2309243-.0063674-.3090493.0816457-.0053463.0094366-.0109755.0187821-.0168898.0280261-.073426.1147655-.0839342.2038885-.0472993.2973684l.2551117.6826392c.3412333.9421717-.0965181 2.0066795-.9999573 2.4247978l-.662284.3086061c-.1065701.0484357-.1763889.1582372-.1763889.2842014 0 .1238036.0674035.2318007.1731763.2826781l.0229786.0077351.6503824.3030965c.9026498.4252196 1.3397199 1.4893324.9954852 2.4321841l-.2550533.6822206c-.0362115.0954632-.0241242.1969169.0102858.2498882.0092436.0118163.0123248.0157551.0229757.0301736l.0166838.0236216.0488615.0450646c.0856899.0616527.1935024.0793318.2844054.0475257l.6813078-.2570066c.221255-.0839237.4460664-.1268108.6738034-.1268108.7509811 0 1.432494.4440216 1.748024 1.135193l.2984533.6604165c.0497323.1094117.1591722.1797813.2793861.1797813h.0063722c.1098528 0 .2182877-.072452.2700144-.1938184l.2960503-.6485143c.3133411-.6863662.9995686-1.1330581 1.7470541-1.1330581.229099 0 .4604526.043468.6822661.127611l.653588.2513837.023597.0067618c.1070366.0420789.2331177.0089998.3114288-.0798998.0054455-.0096366.0111856-.0191785.0172228-.0286146.073426-.1147654.0839342-.2038885.0472993-.2973684l-.2551117-.6826391c-.3412333-.9421718.0965181-2.0066796.9999572-2.4247979l.6529331-.3042587c.1147491-.0556138.1827477-.1660548.1792513-.3037276.0001286-.1178057-.0702193-.2272044-.1798334-.2770297l-.6625482-.3023772c-.900832-.4243967-1.3371914-1.4887922-.9931523-2.4311081l.2550532-.6822205c.0271587-.0715974.0271492-.1465645-.0003531-.2175348l-.0353306-.065953-.039938-.0399105c-.0999615-.0844898-.2118997-.1063583-.3075905-.0728754l-.6813078.2570066c-.221255.0839236-.4460664.1268107-.6738034.1268107-.750981 0-1.432494-.4440216-1.7480239-1.135193l-.3046397-.6745032c-.0410095-.0967315-.1474102-.1656946-.2668275-.1656946zm.000162 3.2538522c1.3370332 0 2.4158838 1.0907497 2.4158838 2.4352018 0 1.3415774-1.0856706 2.4352017-2.4158838 2.4352017s-2.4158839-1.0936243-2.4158839-2.4352017c0-1.3444521 1.0788506-2.4352018 2.4158839-2.4352018zm0 1.2c-.6713272 0-1.2158839.5505628-1.2158839 1.2352018 0 .6807886.550381 1.2352017 1.2158839 1.2352017.6655028 0 1.2158838-.5544131 1.2158838-1.2352017 0-.684639-.5445566-1.2352018-1.2158838-1.2352018zm2.1409688-12.5376089c.21.1.34.31.34.54l-.01 1.58c5.04.35 9.07 4.57 9.1 9.68 0 .33-.27.6-.6.6s-.6-.27-.61-.6c-.03-4.46-3.53-8.14-7.91-8.48l-.01 1.6c0 .23-.13.44-.34.54s-.45.07-.63-.07l-2.72-2.18c-.14-.11-.22-.29-.22-.47s.08-.35.22-.47l2.75-2.2c.18-.14.43-.17.64-.07z"/></svg>