<svg height="32" viewBox="0 0 32 32" width="32" xmlns="http://www.w3.org/2000/svg"><path d="m4.83 17.475c.33 0 .6.26.6.6.03 4.46 3.53 8.14 7.91 8.48l.01-1.6c0-.23.13-.44.34-.54s.45-.07.63.07l2.72 2.18c.14.11.22.29.22.47s-.08.35-.22.47l-2.75 2.2c-.17.14-.42.17-.63.07s-.34-.32-.34-.54l.01-1.58c-5.04-.35-9.07-4.57-9.1-9.68 0-.33.26-.6.6-.6zm11.0092312-8.60692109c.3996689 0 .7635044.23523842.9156147.59403022l.3341681.73944187c.2430823.532466.7671472.8743176 1.3425896.8743176.1719642 0 .3428764-.0327582.5152492-.0981404l.7626031-.2876745c.4020175-.1412494.8473348-.0214744 1.1550074.3378488l.0266631.0400216c.1872994.2754403.2286719.6182415.1103047.9302892l-.2839257.7594711c-.2641611.7235715.0758091 1.5497167.7676613 1.8756596l.7330821.3345136c.3630293.1650134.5933246.5273446.5931947.9199181.0096623.3575048-.168484.6854325-.462517.8772011l-.1204931.0676705-.7344086.3422473c-.6940617.3212187-1.033737 1.1466473-.7703479 1.8738851l.2827619.7565282c.1148554.2923591.0832522.6168791-.1161397.9285303l.0039534.0025979c-.2553006.388501-.7498754.5510552-1.181488.3813771l-.0130988-.0024321-.7391377-.2842879c-.1696505-.0643502-.3477445-.0979253-.5218025-.0979253-.5710729 0-1.1006714.3444015-1.3425638.874261l-.330876.7248019c-.1395354.3289049-.4477909.5588497-.7948612.6015496l-.1240714.0071772c-.3965998 0-.7580379-.2316911-.9227366-.5940302l-.334168-.7394419c-.2430823-.532466-.7671472-.8743176-1.3425897-.8743176-.1719641 0-.3428764.0327582-.5152492.0981405l-.7626031.2876744c-.4020175.1412494-.8473347.0214744-1.1278155-.3021572l-.0538549-.0757132c-.1872995-.2754403-.228672-.6182415-.1103047-.9302892l.2839257-.7594711c.264161-.7235715-.0758092-1.5497167-.7702502-1.8768535l-.72437862-.3375744-.01323657-.0028672c-.36302932-.1650133-.59332462-.5273446-.59332462-.9295387 0-.4021942.2302953-.7645254.59026195-.9281291l.73440856-.3422473c.6940618-.3212187 1.0337371-1.1466473.770348-1.8738851l-.282762-.7565281c-.1148554-.2923592-.0832522-.6168792.1161397-.9285304l-.0039534-.0025979c.2545473-.3873545.755676-.5516097 1.1819251-.3812959l.0126617.002351.7391378.2842878c.1696505.0643502.3477444.0979253.5218024.0979253.571073 0 1.1006715-.3444015 1.3425639-.874261l.328377-.71963487.002499-.01228888c.1398854-.32972986.4485806-.55324597.8002794-.59465189zm.000181 4.97783479c-1.1227116 0-2.0295172.9176009-2.0295172 2.0511078 0 1.133507.9176009 2.0511078 2.0295172 2.0511078 1.1119164 0 2.0295172-.9176008 2.0295172-2.0511078 0-1.1335069-.9068055-2.0511078-2.0295172-2.0511078zm2.1405878-11.7209137c.21.1.34.31.34.54l-.01 1.58c5.04.35 9.07 4.57 9.1 9.68 0 .33-.27.6-.6.6s-.6-.27-.61-.6c-.03-4.46-3.53-8.14-7.91-8.48l-.01 1.6c0 .23-.13.44-.34.54s-.45.07-.63-.07l-2.72-2.18c-.14-.11-.22-.29-.22-.47s.08-.35.22-.47l2.75-2.2c.18-.14.43-.17.64-.07z"/></svg>