<svg height="32" viewBox="0 0 32 32" width="32" xmlns="http://www.w3.org/2000/svg"><path d="m22.2799601 11.329442c-1.52-1.53000003-3.5-2.43000003-5.63-2.58000003l-.04-2.71c0-.23-.14-.44-.34-.53-.21-.1-.45-.07-.63.07l-4.07 3.25c-.14.11-.23.29-.23.47s.08.35.22.47l4.16 3.34000003c.11.09.24.13.38.13.09 0 .18-.02.26-.06.21-.1.34-.32.34-.55l-.04-2.68000003c1.8.15000003 3.47.93000003 4.76 2.23000003 1.45 1.46 2.25 3.41 2.25 5.5 0 4.23-3.44 7.67-7.67 7.67s-7.67000001-3.44-7.67000001-7.67c0-.33-.27-.6-.6-.6s-.6.27-.6.6c0 4.89 3.98000001 8.87 8.87000001 8.87s8.8700798-3.98 8.8700798-8.87c.0099202-2.41-.9200798-4.66-2.5900798-6.35zm-8.59 9.2c.23.23.61.23.85 0l1.64-1.63 1.64 1.64c.12.12.27.18.42.18s.31-.06.42-.18c.23-.23.23-.61 0-.85l-1.64-1.63 1.64-1.63c.23-.23.23-.61 0-.85-.23-.23-.61-.23-.85 0l-1.64 1.64-1.64-1.63c-.23-.23-.61-.23-.85 0-.23.23-.23.61 0 .85l1.64 1.63-1.63 1.62c-.24.23-.24.61 0 .84z"/></svg>