<svg height="32" viewBox="0 0 32 32" width="32" xmlns="http://www.w3.org/2000/svg"><g fill="none"><path d="m22.2799601 11.329442c-1.52-1.53000003-3.5-2.43000003-5.63-2.58000003l-.04-2.71c0-.23-.14-.44-.34-.53-.21-.1-.45-.07-.63.07l-4.07 3.25c-.14.11-.23.29-.23.47s.08.35.22.47l4.16 3.34000003c.11.09.24.13.38.13.09 0 .18-.02.26-.06.21-.1.34-.32.34-.55l-.04-2.68000003c1.8.15000003 3.47.93000003 4.76 2.23000003 1.45 1.46 2.25 3.41 2.25 5.5 0 4.23-3.44 7.67-7.67 7.67s-7.67000001-3.44-7.67000001-7.67c0-.33-.27-.6-.6-.6s-.6.27-.6.6c0 4.89 3.98000001 8.87 8.87000001 8.87s8.8700798-3.98 8.8700798-8.87c.0099202-2.41-.9200798-4.66-2.5900798-6.35z" fill="#252d4f"/><path d="m16.85 17.15v-2.65c0-.4680712-.3819288-.85-.85-.85s-.85.3819288-.85.85v2.65h-2.65c-.4680712 0-.85.3819288-.85.85s.3819288.85.85.85h2.65v2.65c0 .4680712.3819288.85.85.85s.85-.3819288.85-.85v-2.65h2.65c.4680712 0 .85-.3819288.85-.85s-.3819288-.85-.85-.85z" fill="#b75c64" transform="matrix(.70710678 .70710678 -.70710678 .70710678 17.414214 -6.041631)"/></g></svg>