<svg height="32" viewBox="0 0 32 32" width="32" xmlns="http://www.w3.org/2000/svg"><path d="m18.549 22.8.001 1.1863387h1.46c.33 0 .6.27.6.6 0 .297-.2187.5454-.50301.59211l-.09699.00789h-8.02c-.33 0-.6-.27-.6-.6 0-.297.2187-.5454.50301-.59211l.09699-.00789h1.36l-.001-1.1863387zm-11.869-1c-.83111111 0-1.51950617-.6422222-1.59342936-1.4549108l-.00657064-.1450892v-11.4c0-.83111111.64222222-1.51950617 1.45491084-1.59342936l.14508916-.00657064h18.64c.8311111 0 1.5195062.64222222 1.5934294 1.45491084l.0065706.14508916v11.4c0 .8311111-.6422222 1.5195062-1.4549108 1.5934294l-.1450892.0065706z"/></svg>