<svg height="32" viewBox="0 0 32 32" width="32" xmlns="http://www.w3.org/2000/svg"><g fill="none"><path d="m5.08 22.4457173v-13.04944783c0-.86419821.72-1.57126947 1.6-1.57126947h18.64c.88 0 1.6.70707126 1.6 1.57126947v13.04944783h2.085c.33 0 .6.27.6.6s-.27.6-.6.6h-26.01c-.33 0-.6-.27-.6-.6s.27-.6.6-.6z" fill="#4588a0"/><path d="m6.28 9.425c0-.22.18-.4.4-.4h18.64c.22 0 .4.18.4.4v11.4c0 .22-.18.4-.4.4h-18.64c-.22 0-.4-.18-.4-.4z" fill="#87dcf4"/><path d="m25.32 7.825c.88 0 1.6.70707126 1.6 1.57126947v13.30668833h-13.0973614l.5193526-1.4779578h10.9780088c.22 0 .4-.18.4-.4v-11.4c0-.22-.18-.4-.4-.4l-6.6903614-.001.4210962-1.199z" fill="#252d4f"/><path d="m18.6290562 9.025h6.6909438c.22 0 .4.18.4.4v11.4c0 .22-.18.4-.4.4h-10.9780088z" fill="#71b0d8"/></g></svg>