<svg height="32" viewBox="0 0 32 32" width="32" xmlns="http://www.w3.org/2000/svg"><path d="m12.6164401 18.173613c.2897331-.289733.7696918-.2845722 1.0642641.01.1446601.1446601.2178679.329833.2178679.5321321 0 .1618392-.046853.3127177-.1396602.4406615l-.0782077.0914705-2.1357042 2.1341229 1.0757042 1.041613c.1528759.152876.2338963.3676506.2221752.5792872l-.0136857.1052557-.0297228.1029262c-.0870742.2321977-.2855256.4098606-.5242134.4730427l-.1045509.0198943-3.65213447.391726h-.05c-.20888611 0-.40730976-.0766637-.53213203-.217868-.13957793-.1395779-.21884802-.3184162-.22288183-.5029883l.0067275-.1111632.38034118-3.5430329c.03307287-.2811194.22657224-.5160829.49809915-.6178447.24209671-.0854459.50350411-.0463415.6990924.0988236l.07954562.0686532 1.08763588 1.0536752zm5.71 0c.270143-.2701429.6830895-.2947014.9798706-.0729986l.0852904.0738994 2.1403989 2.1584862 1.0930881-1.057696c.1594338-.1471696.367525-.2201968.5655877-.2081619l.0979239.0131565.0946223.0276368c.2483993.0730586.4288036.2716161.4931797.5169807l.0203459.1077925.3910621 3.5316624c.0163507.2289086-.0563585.4427591-.2299284.6155969-.1173828.1043403-.256064.1734335-.4054388.1968972l-.1138704.00888-.0821345-.001726-3.6209949-.3901089c-.2894908-.0321657-.5269409-.2239522-.6297677-.4983191-.0853171-.241732-.0391211-.5029448.1126826-.7033574l.071449-.0819346 1.0711934-1.0382991-2.1345599-2.1341229c-.0867961-.086796-.1478693-.1881767-.1828406-.2990905l-.0262565-.1139043-.0087709-.1191372c0-.1618393.0468531-.3127178.1396603-.4406616zm5.1407579-10.26710554c.2289087-.01635062.4427591.05635853.6035062.21710558.1395779.13957793.218848.3184162.2228235.5035234l-.0067699.11155266-.3902405 3.5321083c-.0330729.2811194-.2265722.516083-.486528.6134907-.0847868.0339147-.1724981.051457-.2614172.051457-.1480163 0-.2922944-.0491464-.4232362-.1393526l-.0955558-.0752271-1.0887801-1.0551654-2.1502958 2.1518771c-.0867961.0867961-.1881767.1478693-.2990905.1828406l-.1139044.0262565-.1191372.0087709c-.2006897 0-.398776-.0783132-.522132-.217868-.1446601-.1446601-.217868-.3298329-.217868-.532132 0-.1618393.0468531-.3127178.1396603-.4406616l.0782077-.0914705 2.1335599-2.134613-1.0735599-1.04112289c-.152876-.15287596-.2338963-.36765054-.2221752-.57928718l.0136857-.10525572.0297228-.10292617c.0870741-.23219774.2855256-.4098606.5222587-.47282243l.1064176-.02010504zm-14.92649138.00096362 3.62099498.39010887c.2894908.03216565.5269408.22395222.6297676.49831909.0853172.24173198.0391212.50294481-.1126826.70335742l-.071449.0819346-1.0713376 1.03780894 2.1347042 2.134613c.086796.0867961.1478693.1881767.1828405.2990905l.0262565.1139044.0087709.1191372c0 .2022991-.0732078.3874719-.2178679.532132s-.329833.217868-.5321321.217868c-.1618392 0-.3127177-.0468531-.4406615-.1396602l-.0914705-.0782078-2.1514401-2.1518771-1.07220507 1.0390542c-.08750087.0984385-.19680086.1653667-.31856789.2007974l-.09351703.0206674-.12213788.0092261c-.0889191 0-.17663034-.0175423-.2346499-.0421904-.24839924-.0730586-.42880362-.2716161-.49318648-.5170425l-.02034928-.1078231-.39105195-3.54156991c-.01635062-.22890868.05635853-.4427591.21710558-.60350615.13395587-.13395588.30478909-.20677432.4904828-.21786397z" fill="#005a7d"/></svg>