<svg height="32" viewBox="0 0 32 32" width="32" xmlns="http://www.w3.org/2000/svg"><g fill="none" fill-rule="evenodd"><g fill-rule="nonzero"><path d="m19.57 5.92h-7.14c-1.232 0-2.24 1.008-2.24 2.24v15.68c0 1.232 1.008 2.24 2.24 2.24h7.14c1.232 0 2.24-1.008 2.24-2.24v-15.68c0-1.232-1.008-2.24-2.24-2.24z" fill="#4588a0"/><path d="m20.6385801 24.2925855c0 .3250137-.2804975.590934-.6233277.590934h-7.9474275c-.3428302 0-.6233276-.2659203-.6233276-.590934v-16.54614987c0-.32501366.2804974-.59093392.6233276-.59093392h7.9474275c.3428302 0 .6233277.26592026.6233277.59093392z" fill="#87dcf4"/><path d="m19.57 5.92c1.1784348 0 2.1519244.92225331 2.234348 2.08063911l.005652.15936089v15.68c0 1.1784348-.9222533 2.1519244-2.0806391 2.234348l-.1593609.005652h-7.14l.431-1.216 7.0394351.0000089c.2925123 0 .5371589-.2153954.5831631-.4954095l.0077708-.0955244v-16.54614995c0-.29251229-.2232481-.51665723-.5032621-.56266144l-.0955245-.00777078-.7614351-.00099112z" fill="#252d4f"/><path d="m12.8524744 24.8835195 6.2786729-17.72801779h.9164988c.3250137 0 .590934.26592026.590934.59093392v16.54614987c0 .3250137-.2659203.590934-.590934.590934z" fill="#71b0d8"/></g><path d="m13.5350835 7.15550171v-.43363032l5.0601032.06741554v.36621478h-.1011362c-.2425392 0-.4442585.17477051-.4860907.40524428l-.0079598.0888062c0 .27285655-.2211939.49405048-.4940505.49405048h-3.011899c-.2728566 0-.4940505-.22119393-.4940505-.49405048v-.02913399c0-.2282367-.1644644-.41806069-.3813472-.45742607z" fill="#4588a0"/></g></svg>