<svg height="32" viewBox="0 0 32 32" width="32" xmlns="http://www.w3.org/2000/svg"><g fill="none"><path d="m22.18 5.675h-12.36c-.88 0-1.6.72-1.6 1.6v17.45c0 .88.72 1.6 1.6 1.6h12.36c.88 0 1.6-.72 1.6-1.6v-17.45c0-.88-.72-1.6-1.6-1.6z" fill="#4588a0"/><path d="m22.58 24.3138113h-13.16v-16.62762256h13.16z" fill="#87dcf4"/><path d="m22.18 5.675c.88 0 1.6.72 1.6 1.6v17.45c0 .88-.72 1.6-1.6 1.6h-9.9664121l.72-2.012 9.6464121.0008113v-16.62762256h-3.6953339l-2.3520782 6.57181126 3.0719094-8.583z" fill="#252d4f"/><path d="m12.9334191 24.3138113 5.951247-16.62762256h3.6953339v16.62762256z" fill="#71b0d8"/></g></svg>