<svg height="32" viewBox="0 0 32 32" width="32" xmlns="http://www.w3.org/2000/svg"><g fill="none"><path d="m6.68 7.2c-.88 0-1.6.72-1.6 1.6v11.4c0 .88.72 1.6 1.6 1.6h6.67v1.8h-1.36c-.33 0-.6.27-.6.6s.27.6.6.6h8.02c.33 0 .6-.27.6-.6s-.27-.6-.6-.6h-1.46v-1.8h6.77c.88 0 1.6-.72 1.6-1.6v-11.4c0-.88-.72-1.6-1.6-1.6z" fill="#4588a0"/><path d="m13.35 21.8v1.8h-1.36c-.33 0-.6.27-.6.6s.27.6.6.6h8.02c.33 0 .6-.27.6-.6s-.27-.6-.6-.6h-1.46v-1.8z" fill="#252d4f"/><path d="m25.72 20.2c0 .22-.18.4-.4.4h-18.64c-.22 0-.4-.18-.4-.4v-11.4c0-.22.18-.4.4-.4h18.64c.22 0 .4.18.4.4z" fill="#87dcf4"/><path d="m25.32 7.2c.88 0 1.6.72 1.6 1.6v11.4c0 .88-.72 1.6-1.6 1.6h-11.9635558l.427-1.2h11.5365558c.1925 0 .354375-.1378125.3918359-.3196484l.0081641-.0803516v-11.4c0-.22-.18-.4-.4-.4h-7.1968676l.4268676-1.2z" fill="#252d4f"/><path d="m13.7833118 20.6 4.3398206-12.2h7.1968676c.22 0 .4.18.4.4v11.4c0 .22-.18.4-.4.4z" fill="#71b0d8"/></g></svg>