<svg height="32" viewBox="0 0 32 32" width="32" xmlns="http://www.w3.org/2000/svg"><path d="m25.32 8.52800739c.88 0 1.6.72 1.6 1.60000001l-.002 1.638.4234678.0008149c.9596249 0 1.7662277.710154 1.9066565 1.6594641l.0165621.1518099.0037251.1156697v9.2886061c0 .9596249-.710154 1.7662276-1.6594641 1.9066564l-.1518098.0165621-.1156698.0037252h-4.2296331c-.6073851 0-1.1534675-.2844971-1.5081303-.734063l-18.1087044-.0002528c-.33 0-.6-.27-.6-.6s.27-.6.6-.6h1.585v-12.8469926c0-.88000001.72-1.60000001 1.6-1.60000001zm-1.699109 4.43781491-.4877896.000623-.0730851.0022121c-.3420869.0243408-.6201524.2903756-.6678826.6233747l-.0072427.1017339-.000377 9.2673394.0022121.0730851c.0243408.3420869.2903756.6201524.6233747.6678826l.1017339.0072427 4.2083665.000377.0730851-.0022121c.3420868-.0243408.6201524-.2903756.6678826-.6233747l.0072426-.1017339.0003771-9.2673394-.0022121-.0730851c-.0243408-.3420869-.2903756-.6201524-.6233747-.6678826l-.101734-.0072427-.4234678-.0008149.001.4h-.004l.0000635.0279236c0 .2761424-.2238577.5-.5.5h-2.2937093c-.2761423 0-.5-.2238576-.5-.5zm1.699109-3.23781491h-18.64c-.22 0-.4.18-.4.40000001v11.4c0 .22.18.4.4.4l14.504-.001.000891-8.2332414c0-.9596249.710154-1.7662276 1.6594641-1.9066564l.1518099-.0165621.1156697-.0037252 2.6071653-.0008149.001-1.638c0-.22000001-.18-.40000001-.4-.40000001z"/></svg>