<svg height="32" viewBox="0 0 32 32" width="32" xmlns="http://www.w3.org/2000/svg"><path d="m19.57 5.32c1.4880925 0 2.7276944 1.16040512 2.833971 2.65937244l.006029.18062756v15.68c0 1.4880925-1.1604051 2.7276944-2.6593724 2.833971l-.1806276.006029h-7.14c-1.4880925 0-2.72769444-1.1604051-2.83397098-2.6593724l-.00602902-.1806276v-15.68c0-1.48809253 1.1604051-2.72769444 2.6593724-2.83397098l.1806276-.00602902zm0 1.2-7.1187333-.00037701-.138043.0045159c-.8508631.06054219-1.5232237.77879089-1.5232237 1.63586111l-.000377 15.6587333.0045159.138043c.0605422.8508631.7787909 1.5232237 1.6358611 1.5232237l7.1187333.000377.138043-.0045159c.8508631-.0605422 1.5232237-.7787909 1.5232237-1.6358611l.000377-15.65873333-.0045159-.13804292c-.0605422-.85086316-.7787909-1.52322375-1.6358611-1.52322375zm-5.57.689v.43460354c0 .27614237.2238576.5.5.5h3c.2761424 0 .5-.22385763.5-.5v-.43460354h1.927l.0907107.00671074c.2961984.04419835.5252893.30128926.5252893.60928926v16.3262773l-.0067107.0907107c-.0441984.2961984-.3012893.5252893-.6092893.5252893h-7.854l-.0907107-.0067108c-.2961984-.0441983-.5252893-.3012892-.5252893-.6092892v-16.3262773l.0067107-.09071074c.0441984-.29619835.3012893-.52528926.6092893-.52528926z"/></svg>