<svg height="32" viewBox="0 0 32 32" width="32" xmlns="http://www.w3.org/2000/svg"><path d="m27.8835203 11.825767c.7658697 0 1.4006814.5897606 1.4727151 1.3375616l.0068059.1419593v10.3566467c0 .7658697-.5897606 1.4006814-1.3375617 1.4727151l-.1419593.0068058h-4.715973c-.7658697 0-1.4006815-.5897606-1.4727151-1.3375616l-.0068059-.1419593v-10.3566467c0-.7658697.5897606-1.4006814 1.3375616-1.4727151l.1419594-.0068058zm-24.3885203 11.149233h16.993l.0000263.6869346c0 .1753318.0169648.3468077.0493377.5128711l-17.042364.0001943c-.33 0-.6-.27-.6-.6s.27-.6.6-.6zm21.825-14.44699261c.88 0 1.6.72 1.6 1.60000001v.497l-3.7524527.0007596c-1.4764782 0-2.679521 1.2030427-2.679521 2.6795209l-.0000263 8.4937195h-15.408v-11.671c0-.88000001.72-1.60000001 1.6-1.60000001z"/></svg>