<svg height="32" viewBox="0 0 32 32" width="32" xmlns="http://www.w3.org/2000/svg"><path d="m19.57 5.92c1.1784348 0 2.1519244.92225331 2.234348 2.08063911l.005652.15936089v15.68c0 1.1784348-.9222533 2.1519244-2.0806391 2.234348l-.1593609.005652h-7.14c-1.1784348 0-2.1519244-.9222533-2.234348-2.0806391l-.005652-.1593609v-15.68c0-1.17843478.9222533-2.15192439 2.0806391-2.23434799l.1593609-.00565201zm.357 1.289h-1.927v.43460354c0 .27614237-.2238576.5-.5.5h-3c-.2761424 0-.5-.22385763-.5-.5v-.43460354h-1.927c-.308 0-.5650909.22909091-.6092893.52528926l-.0067107.09071074v16.3262773c0 .308.2290909.5650909.5252893.6092892l.0907107.0067108h7.854c.308 0 .5650909-.2290909.6092893-.5252893l.0067107-.0907107v-16.3262773c0-.308-.2290909-.56509091-.5252893-.60928926z"/></svg>