<svg height="32" viewBox="0 0 32 32" width="32" xmlns="http://www.w3.org/2000/svg"><path d="m18.8585721 13.7357451c.12 0 .23-.04.32-.13l2.36-2.36 1.3 1.26c.09.08.2.13.31.13.05 0 .1-.01.15-.03.16-.06.28-.2.3-.37l.39-3.53000003c.02-.14-.03-.27-.13-.37s-.23-.14-.37-.13l-3.61.39c-.17.02-.32.14-.38.3s-.01.35.11.47l1.29 1.25000003-2.35 2.35c-.09.09-.13.2-.13.32s.04.23.13.32c.08.09.2.13.31.13zm-6.03 4.65-2.36 2.36-1.29999997-1.26c-.12-.12-.3-.16-.47-.1-.16.06-.28.2-.3.37l-.38 3.54c-.02.14.03.27.13.37.08.09.2.13.32.13h.05l3.61999997-.39c.17-.02.32-.14.38-.3s.01-.35-.11-.47l-1.29-1.25 2.35-2.35c.09-.09.13-.2.13-.32s-.04-.23-.13-.32c-.18-.18-.47-.18-.64-.01zm-1.72-7.77 1.29-1.25000003c.12-.12.17-.3.11-.47-.06-.16-.2-.28-.38-.3l-3.61999997-.39c-.14-.01-.27.03-.37.13s-.14.23-.13.37l.39 3.53000003c.02.17.13.32.3.37.05.02.1.03.15.03.12 0 .23-.04.31-.13l1.29999997-1.26 2.36 2.36c.09.09.2.13.32.13s.23-.04.32-.13.13-.2.13-.32-.04-.23-.13-.32zm12.49 9.15c-.02-.17-.13-.32-.3-.37-.16-.06-.34-.02-.47.1l-1.3 1.26-2.35-2.37c-.18-.18-.46-.18-.64 0-.09.09-.13.2-.13.32s.04.23.13.32l2.35 2.35-1.29 1.25c-.12.12-.17.3-.11.47.06.16.2.28.38.3l3.62.39h.05c.12 0 .23-.05.32-.13.1-.1.14-.23.13-.37z"/></svg>