<svg height="32" viewBox="0 0 32 32" width="32" xmlns="http://www.w3.org/2000/svg"><path d="m25.0511579 4.74884211c1.2150264 0 2.2.98497356 2.2 2.2v18.10231579c0 1.2150264-.9849736 2.2-2.2 2.2h-18.10231579c-1.21502644 0-2.2-.9849736-2.2-2.2v-18.10231579c0-1.21502644.98497356-2.2 2.2-2.2zm-11.3704537 13.43477089c-.2945723-.2945722-.774531-.299733-1.0642641-.01l-2.1514401 2.150387-1.08763588-1.0536752-.07954562-.0686532c-.19558829-.1451651-.45699569-.1842695-.6990924-.0988236-.27152691.1017618-.46502628.3367253-.49809915.6178447l-.38034118 3.5430329-.0067275.1111632c.00403381.1845721.0833039.3634104.22288183.5029883.12482227.1412043.32324592.217868.53213203.217868h.05l3.65213447-.391726.1045509-.0198943c.2386878-.0631821.4371392-.240845.5242134-.4730427l.0297228-.1029262.0136857-.1052557c.0117211-.2116366-.0692993-.4264112-.2221752-.5792872l-1.0757042-1.041613 2.1357042-2.1341229.0782077-.0914705c.0928072-.1279438.1396602-.2788223.1396602-.4406615 0-.2022991-.0732078-.387472-.2178679-.5321321zm5.6256065-.0829986c-.2967811-.2217028-.7097276-.1971443-.9798706.0729986l-.0782077.0914705c-.0928072.1279438-.1396603.2788223-.1396603.4406616l.0087709.1191372.0262565.1139043c.0349713.1109138.0960445.2122945.1828406.2990905l2.1345599 2.1341229-1.0711934 1.0382991-.071449.0819346c-.1518037.2004126-.1979997.4616254-.1126826.7033574.1028268.2743669.3402769.4661534.6297677.4983191l3.6209949.3901089.0821345.001726.1138704-.00888c.1493748-.0234637.288056-.0925569.4054388-.1968972.1735699-.1728378.2462791-.3866883.2299284-.6155969l-.3910621-3.5316624-.0203459-.1077925c-.0643761-.2453646-.2447804-.4439221-.4931797-.5169807l-.0946223-.0276368-.0979239-.0131565c-.1980627-.0120349-.4061539.0609923-.5655877.2081619l-1.0930881 1.057696-2.1403989-2.1584862zm4.2739107-10.19486533-.1130234.00075839-3.6208483.39097311-.1064176.02010504c-.2367331.06296183-.4351846.24062469-.5222587.47282243l-.0297228.10292617-.0136857.10525572c-.0117211.21163664.0692992.42641122.2221752.57928718l1.0735599 1.04112289-2.1335599 2.134613-.0782077.0914705c-.0928072.1279438-.1396603.2788223-.1396603.4406616 0 .2022991.0732079.3874719.217868.532132.123356.1395548.3214423.217868.522132.217868l.1191372-.0087709.1139044-.0262565c.1109138-.0349713.2122944-.0960445.2990905-.1828406l2.1502958-2.1518771 1.0887801 1.0551654.0955558.0752271c.1309418.0902062.2752199.1393526.4232362.1393526.0889191 0 .1766304-.0175423.2614172-.051457.2599558-.0974077.4534551-.3323713.486528-.6134907l.3902405-3.5321083.0067699-.11155266c-.0039755-.1851072-.0832456-.36394547-.2228235-.5035234-.1607471-.16074705-.3745975-.2334562-.6035062-.21710558zm-15.1632985 0c-.18569371.01108965-.35652693.08390809-.4904828.21786397-.16074705.16074705-.2334562.37459747-.21710558.60350615l.39105195 3.54156991.02034928.1078231c.06438286.2454264.24478724.4439839.49318648.5170425.05801956.0246481.1457308.0421904.2346499.0421904l.12213788-.0092261.09351703-.0206674c.12176703-.0354307.23106702-.1023589.31856789-.2007974l1.07220507-1.0390542 2.1514401 2.1518771.0914705.0782078c.1279438.0928071.2788223.1396602.4406615.1396602.2022991 0 .387472-.0732079.5321321-.217868s.2178679-.3298329.2178679-.532132l-.0087709-.1191372-.0262565-.1139044c-.0349712-.1109138-.0960445-.2122944-.1828405-.2990905l-2.1347042-2.134613 1.0713376-1.03780894.071449-.0819346c.1518038-.20041261.1979998-.46162544.1126826-.70335742-.1028268-.27436687-.3402768-.46615344-.6297676-.49831909l-3.62099498-.39010887z" fill-rule="evenodd"/></svg>