<svg height="32" viewBox="0 0 32 32" width="32" xmlns="http://www.w3.org/2000/svg"><g fill="none" fill-rule="evenodd"><g fill-rule="nonzero"><path d="m5.08 23.1150433v-13.0494478c0-.86419822.72-1.57126949 1.6-1.57126949h18.64c.88 0 1.6.70707127 1.6 1.57126949v13.0494478c.1915381.8.1773071 1.2-.0426929 1.2l-23.30602515-.0131426c-.33 0-.6-.27-.6-.6s.27-.6.6-.6z" fill="#4588a0"/><path d="m6.28 10.094326c0-.21999999.18-.39999999.4-.39999999h18.64c.22 0 .4.18.4.39999999v11.4c0 .22-.18.4-.4.4h-18.64c-.22 0-.4-.18-.4-.4z" fill="#87dcf4"/><path d="m25.32 8.49432601c.88 0 1.6.70707127 1.6 1.57126949v13.3066883h-13.0973614l.5193526-1.4779578h10.9780088c.22 0 .4-.18.4-.4v-11.4c0-.21999999-.18-.39999999-.4-.39999999l-6.6903614-.001.4210962-1.199z" fill="#252d4f"/><path d="m18.6290562 9.69432601h6.6909438c.22 0 .4.18.4.39999999v11.4c0 .22-.18.4-.4.4h-10.9780088z" fill="#71b0d8"/><path d="m27.8835203 11.825767h-4.715973c-.8137365 0-1.479521.6657844-1.479521 1.4795209v10.3566467c0 .8137365.6657845 1.4795209 1.479521 1.4795209h4.715973c.8137365 0 1.479521-.6657844 1.479521-1.4795209v-10.3566467c0-.8137365-.6657845-1.4795209-1.479521-1.4795209z" fill="#4588a0"/><path d="m28.5893179 23.9608675c0 .2146717-.1852687.3903121-.4117082.3903121h-5.2492792c-.2264395 0-.4117082-.1756404-.4117082-.3903121v-10.928739c0-.2146717.1852687-.3903121.4117082-.3903121h5.2492792c.2264395 0 .4117082.1756404.4117082.3903121z" fill="#87dcf4"/><path d="m27.8835203 11.825767c.7783567 0 1.421347.6091487 1.4757878 1.374263l.0037332.1052579v10.3566467c0 .7783567-.6091487 1.421347-1.3742631 1.4757878l-.1052579.0037331h-4.715973l.2846757-.8031685 4.6495498.0000059c.1932045 0 .3547937-.1422688.3851795-.3272182l.0051326-.0630939v-10.9287391c0-.1932045-.1474554-.3412523-.3324048-.3716381l-.063094-.0051326-.5029282-.0006546z" fill="#252d4f"/><path d="m23.4465918 24.3511796 4.1470661-11.7093632h.6053479c.2146716 0 .3903121.1756404.3903121.3903121v10.928739c0 .2146717-.1756405.3903121-.3903121.3903121z" fill="#71b0d8"/></g><path d="m23.8974554 12.6418164v-.286413l3.3422003.0445279v.2418851h-.0668005c-.1601972 0-.2934329.115436-.3210631.267664l-.0052575.0586565c0 .1802219-.1460986.3263206-.3263205.3263206h-1.9893606c-.1802219 0-.3263206-.1460987-.3263206-.3263206v-.019243c0-.1507504-.1086287-.2761293-.2518799-.3021301z" fill="#4588a0"/></g></svg>