<svg fill="none" height="32" viewBox="0 0 32 32" width="32" xmlns="http://www.w3.org/2000/svg"><g fill="#000"><path d="m6.37283 13.9399c.27012.0003.52563.1258.69043.3399l1.73242 2.25c.20204.2629.23698.6184.09082.916-.14646.2975-.44969.4859-.78125.4863h-1.0039c.76459 4.246 4.47635 7.4678 8.94235 7.4678 3.1788-.0002 5.9775-1.6322 7.6026-4.1064.182-.2765.5542-.3546.831-.1729.2765.1818.3531.5543.1719.8311-1.8375 2.7978-5.0056 4.6472-8.6055 4.6474-5.1306 0-9.3828-3.755-10.16013-8.667h-1.24316c-.33183-.0001-.63463-.1886-.78125-.4863-.14649-.2978-.11147-.653.09082-.916l1.73242-2.25.06543-.0762c.16303-.1674.38849-.2637.625-.2637z"/><path clip-rule="evenodd" d="m16.0017 16.8325c2.2167.0001 4.1703 1.458 4.8008 3.583l.1817.6123c.0749.253-.1152.5067-.3789.5069h-9.2071c-.2637-.0003-.4529-.254-.3779-.5069l.1816-.6123c.6306-2.125 2.5833-3.5828 4.7998-3.583zm0 1.2002c-1.5334.0002-2.8981.9191-3.4931 2.3018h6.9873c-.5952-1.3827-1.9605-2.3017-3.4942-2.3018z" fill-rule="evenodd"/><path d="m15.9558 5.40088c5.1303.00033 9.3818 3.75539 10.1592 8.66702h1.2442c.3316.0003.6347.1887.7812.4863.1464.2977.1113.653-.0908.916l-1.7324 2.25-.0655.0762c-.1629.1677-.3884.2635-.625.2637-.2703 0-.5254-.1258-.6904-.3399l-1.7324-2.25c-.2023-.2631-.2374-.6182-.0908-.916.1466-.2977.4494-.4862.7812-.4863h1.0039c-.7646-4.24574-4.4766-7.46747-8.9424-7.4678-3.1789 0-5.97733 1.63215-7.6025 4.1064-.18177.2768-.55414.3543-.83106.1729-.27692-.1819-.35365-.5541-.17187-.8311 1.83759-2.79781 5.00543-4.64742 8.60543-4.64742z"/><path clip-rule="evenodd" d="m16.0017 9.84326c1.7352.00032 3.1416 1.40734 3.1416 3.14254s-1.4064 3.1423-3.1416 3.1426c-1.7354 0-3.1425-1.4072-3.1425-3.1426s1.4071-3.14254 3.1425-3.14254zm0 1.20024c-1.0726 0-1.9423.8696-1.9423 1.9423s.8697 1.9424 1.9423 1.9424l.1983-.0097c.979-.0996 1.7431-.9269 1.7431-1.9327s-.7642-1.833-1.7431-1.9326z" fill-rule="evenodd"/></g></svg>