<svg fill="none" height="32" viewBox="0 0 32 32" width="32" xmlns="http://www.w3.org/2000/svg"><path clip-rule="evenodd" d="m6.37283 13.9399c.27028.0002.52554.1257.69043.3399l1.73242 2.25c.20222.2629.23712.6183.09082.916-.14653.2977-.44952.486-.78125.4863h-1.0039c.76456 4.246 4.47625 7.4678 8.94235 7.4678 3.179-.0001 5.9775-1.6321 7.6026-4.1064.1819-.2767.5542-.3546.831-.1729.2768.1818.3533.5541.1719.8311-1.8375 2.7979-5.0054 4.6473-8.6055 4.6474-5.1306 0-9.38283-3.755-10.16013-8.667h-1.24316c-.33189-.0001-.63466-.1885-.78125-.4863-.14649-.2978-.11147-.653.09082-.916l1.73242-2.25.06543-.0762c.16304-.1676.38838-.2637.625-.2637z" fill="#252d4f" fill-rule="evenodd"/><path d="m15.9558 5.40088c5.1305.00012 9.3818 3.75525 10.1592 8.66702h1.2442c.3318.0001.6346.1885.7812.4863.1465.2978.1115.653-.0908.916l-1.7324 2.25-.0655.0762c-.163.1678-.3882.2636-.625.2637-.2704 0-.5254-.1256-.6904-.3399l-1.7324-2.25c-.2023-.2631-.2374-.6182-.0908-.916s.4493-.4862.7812-.4863h1.0039c-.7646-4.24588-4.4764-7.46768-8.9424-7.4678-3.179 0-5.97735 1.63204-7.6025 4.1064-.18184.2769-.55411.3545-.83106.1729-.27692-.1819-.35365-.5541-.17187-.8311 1.83757-2.79792 5.00533-4.64742 8.60543-4.64742z" fill="#252d4f"/><path d="m16.0019 16.8324c2.2167 0 4.1702 1.4579 4.8008 3.583l.1816.6123c.0751.2531-.1149.5068-.3789.5068h-9.207c-.2637-.0003-.453-.2539-.3779-.5068l.1816-.6123c.6306-2.125 2.5833-3.5828 4.7998-3.583zm0-6.98926c1.7353.00019 3.1416 1.40726 3.1416 3.14256s-1.4063 3.1424-3.1416 3.1426c-1.7354 0-3.1426-1.4071-3.1426-3.1426.0001-1.7354 1.4072-3.14256 3.1426-3.14256z" fill="#2289a3"/></svg>