<svg height="32" viewBox="0 0 32 32" width="32" xmlns="http://www.w3.org/2000/svg"><g fill="none"><path d="m8.87 6.4c-1.76 0-3.2 1.43-3.2 3.2v8.9c0 1.76 1.43 3.2 3.2 3.2h4.225101v4.4561402l4.3523073-4.4661402h4.6825917c1.76 0 3.2-1.43 3.2-3.2v-8.9c0-1.75-1.43-3.19-3.19-3.19z" fill="#b75c64"/><path d="m12.3120423 9.59588727c-.3383092-.33830925-.8922024-.33830925-1.2412045-.0038489-.3422409.34215814-.3422409.89605133-.0077805 1.24505343l3.1729088 3.172987-3.1690599 3.16906c-.3383093.3383092-.3383093.8922024-.0038489 1.2412045.3421581.3422409.8960513.3422409 1.2450534.0077805l3.172987-3.1729088 3.16906 3.1690599c.1694508.1694509.389189.2619722.6173953.2619722.2334771 0 .4656514-.0960721.6251667-.2700888.3305379-.3301926.3305379-.8840858-.0039225-1.2330879l-3.1628454-3.1727049 3.169342-3.1693421c.3389508-.3389507.3389508-.89583991 0-1.23479063-.3383092-.33830925-.8922024-.33830925-1.2412045-.0038489l-3.1727049 3.16284543z" fill="#fff"/></g></svg>