<svg height="32" viewBox="0 0 32 32" width="32" xmlns="http://www.w3.org/2000/svg"><path d="m22.14 6.4h-12.27c-1.76 0-3.2 1.43-3.2 3.2v8.9c0 1.76 1.43 3.2 3.2 3.2h3.4v3.3c0 .24.15.46.37.55.07.03.15.05.23.05.16 0 .31-.06.42-.18l3.73-3.73h4.11c1.76 0 3.2-1.43 3.2-3.2v-8.9c0-1.75-1.43-3.19-3.19-3.19zm1.99 12.1c0 1.1-.9 2-2 2h-4.36c-.16 0-.31.06-.42.18l-2.88 2.88v-2.46c0-.33-.27-.6-.6-.6h-4c-1.1 0-2-.9-2-2v-8.9c0-1.1.9-2 2-2h12.27c1.1 0 2 .9 2 2v8.9zm-4.89-7.08-4.53 4.52-2.05-2.05c-.23-.23-.61-.23-.85 0-.23.23-.23.61 0 .85l2.48 2.47c.12.12.27.18.42.18s.31-.06.42-.18l4.95-4.94c.23-.23.23-.61 0-.85s-.61-.24-.84 0z"/></svg>