<svg height="32" viewBox="0 0 32 32" width="32" xmlns="http://www.w3.org/2000/svg"><path d="m13.595101 23.3800775c.3313708 0 .6.2686291.6.6l-.000101 1.1529225.0781763.0273542c.0318107.0140545.0626604.0310143.0921495.0508848l.0839867.0683481c.2373194.2312707.2422229.611138.0109523.8484575l-.4354589.4468482c-.3756805.3855062-1.0297049.1195325-1.0297049-.4187526v-2.1760627c0-.3313709.2686291-.6.6-.6zm5.0401411-2.2900775c.3313708 0 .6.2686292.6.6s-.2686292.6-.6.6h-.4352421l-1.2970119 1.3314328c-.2055739.2109506-.5285575.238264-.7644708.0793005l-.0839866-.0683482c-.2373195-.2312706-.242223-.611138-.0109523-.8484574l1.474125-1.5126803c.1129343-.115888.2678896-.1812474.4297049-.1812474zm-6.2600636.01c.3313708 0 .6.2686292.6.6s-.2686292.6-.6.6h-2.80000004c-.33137085 0-.6-.2686292-.6-.6s.26862915-.6.6-.6zm12.8489498-.6448136c.2227607.2453249.2044688.6247832-.0408561.847544-.6947448.6308445-1.5981795.9872696-2.5532722.9872696h-.4947579c-.3313709 0-.6-.2686292-.6-.6s.2686291-.6.6-.6h.4947579c.6536963 0 1.2704392-.2433188 1.7465843-.6756696.2453249-.2227608.6247832-.2044689.847544.040856zm-19.0541283-3.7525972c.33137085 0 .6.2686292.6.6v1.1974108c0 .4467673.11321312.8769946.32608421 1.259639.16109609.2895767.05694194.6549192-.23263481.8160153-.28957674.1610961-.65491925.056942-.81601534-.2326348-.3114399-.5598258-.47743406-1.1906292-.47743406-1.8430195v-1.1974108c0-.3313708.26862915-.6.6-.6zm19.66-2.5204205c.3313708 0 .6.2686291.6.6v2.8c0 .3313708-.2686292.6-.6.6s-.6-.2686292-.6-.6v-2.8c0-.3313709.2686292-.6.6-.6zm-12.1999238.3335627.946905.9197122.3530141-.3507825c.2085096-.2080494.5318443-.2308343.7655069-.0685808l.0830207.0695184c.2340555.2345733.2336358.614472-.0009376.8485276l-.770377.7686764c-.2319747.2314626-.6067512.2339891-.8418254.0056749l-1.3713674-1.3319312c-.2377075-.2308718-.243249-.6107304-.0123772-.8484379s.6107304-.2432489.8484379-.0123771zm-7.4600762-4.1131422c.33137085 0 .6.2686292.6.6v2.8c0 .3313709-.26862915.6-.6.6s-.6-.2686291-.6-.6v-2.8c0-.3313708.26862915-.6.6-.6zm13.855849.4450594c.2340555.2345733.2336358.6144721-.0009376.8485276l-.666253.6647822-1.45741 1.4541928c-.2345734.2340555-.6144721.2336358-.8485276-.0009376-.2340556-.2345733-.2336358-.6144721.0009376-.8485276l1.45741-1.4541928.666253-.6647822c.2345733-.2340556.6144721-.2336358.8485276.0009376zm6.1741667-2.55505838c.1514803.41304755.2299843.85076672.2299843 1.29740978v1.6921687c0 .3313708-.2686292.6-.6.6s-.6-.2686292-.6-.6v-1.6921687c0-.30497676-.0534297-.60288759-.1566098-.88423315-.1140956-.31110904.0456154-.6558055.3567244-.76990107.3111091-.11409558.6558055.04561539.7699011.35672444zm-15.8875568-2.49259022c.3313708 0 .6.26862915.6.6s-.2686292.6-.6.6h-.9424589c-.80662018 0-1.55440978.37184573-2.0456693.99675414-.20479507.26051031-.58199961.30567642-.84250991.10088135s-.30567642-.58199961-.10088135-.84250991c.71631164-.91118678 1.81018404-1.45512558 2.98906056-1.45512558zm12.3526799.00008261c.1082758.00071172.2160682.00602123.323172.01587793.3299764.03036755.5728574.32248408.5424899.65246052-.0303676.32997644-.3224841.57285744-.6524605.54248988-.0731809-.00673479-.1469149-.01036669-.2171617-.0108413l-2.548736-.00006964c-.3313709-.00000905-.5999836-.26864555-.5999836-.60001639 0-.33137085.2686455-.59998361.6000164-.59998361zm-6.0526799-.00008261c.3313708 0 .6.26862915.6.6s-.2686292.6-.6.6h-2.8c-.3313709 0-.6-.26862915-.6-.6s.2686291-.6.6-.6z" fill="#ccc"/></svg>