<svg height="32" viewBox="0 0 32 32" width="32" xmlns="http://www.w3.org/2000/svg"><g fill="none"><path d="m8.87 6.4c-1.76 0-3.2 1.43-3.2 3.2v8.9c0 1.76 1.43 3.2 3.2 3.2h4.225101v4.4561402l4.3523073-4.4661402h4.6825917c1.76 0 3.2-1.43 3.2-3.2v-8.9c0-1.75-1.43-3.19-3.19-3.19z" fill="#6ec18d"/><path d="m16.35 13.3261479v-2.65c0-.4680712-.3819288-.85-.85-.85s-.85.3819288-.85.85v2.65h-2.65c-.4680712 0-.85.3819288-.85.85s.3819288.85.85.85h2.65v2.65c0 .4680712.3819288.85.85.85s.85-.3819288.85-.85v-2.65h2.65c.4680712 0 .85-.3819288.85-.85s-.3819288-.85-.85-.85z" fill="#fff"/></g></svg>