<svg height="32" viewBox="0 0 32 32" width="32" xmlns="http://www.w3.org/2000/svg"><path d="m22.14 6.4c1.6993103 0 3.0909869 1.3424019 3.184944 3.01011768l.005056.17988232v8.9c0 1.7089655-1.3424019 3.100975-3.0191185 3.1949436l-.1808815.0050564h-4.11l-3.73 3.73c-.11.12-.26.18-.42.18-.08 0-.16-.02-.23-.05-.1925-.07875-.3314062-.2570312-.363125-.4611523l-.006875-.0888477v-3.3h-3.4c-1.70896552 0-3.10097503-1.3424019-3.19494362-3.0191185l-.00505638-.1808815v-8.9c0-1.70896552 1.3424019-3.10097503 3.01911846-3.19494362l.18088154-.00505638zm-6.14 3.4261479c-.4680712 0-.85.3819288-.85.85v2.65h-2.65c-.4680712 0-.85.3819288-.85.85s.3819288.85.85.85h2.65v2.65c0 .4680712.3819288.85.85.85s.85-.3819288.85-.85v-2.65h2.65c.4680712 0 .85-.3819288.85-.85s-.3819288-.85-.85-.85h-2.65v-2.65c0-.4680712-.3819288-.85-.85-.85z"/></svg>