<svg height="32" viewBox="0 0 32 32" width="32" xmlns="http://www.w3.org/2000/svg"><path d="m22.14 6.4c1.76 0 3.19 1.44 3.19 3.19v8.9c0 1.77-1.44 3.2-3.2 3.2h-4.11l-3.73 3.73c-.11.12-.26.18-.42.18-.08 0-.16-.02-.23-.05-.22-.09-.37-.31-.37-.55v-3.3h-3.4c-1.77 0-3.2-1.44-3.2-3.2v-8.9c0-1.77 1.44-3.2 3.2-3.2zm-2.0098089 4.2378746-5.7538439 5.7411423-2.6038367-2.6038367c-.2921378-.2921378-.7748002-.2921378-1.0796396 0-.2921378.2921378-.2921378.7748002 0 1.0796396l3.1500073 3.1373056c.1524197.1524197.3429443.2286296.533469.2286296.1905246 0 .3937509-.0762099.533469-.2286296l6.2873129-6.2746112c.2921378-.2921378.2921378-.7748002 0-1.0796396-.2921378-.3048395-.7748002-.3048395-1.066938 0z"/></svg>