<svg height="32" viewBox="0 0 32 32" width="32" xmlns="http://www.w3.org/2000/svg"><path d="m18.02 21.69-3.73 3.73c-.11.12-.26.18-.42.18-.08 0-.16-.02-.23-.05-.1925-.07875-.3314062-.2570312-.363125-.4611523l-.006875-.0888477v-3.3zm4.12-15.29c1.6993103 0 3.0909869 1.3424019 3.184944 3.01011768l.005056.17988232v8.9c0 1.7089655-1.3424019 3.100975-3.0191185 3.1949436l-.1808815.0050564h-4.6825917l-4.3523073.01h-4.225101c-1.70896552 0-3.10097503-1.3424019-3.19494362-3.0191185l-.00505638-.1808815v-8.9c0-1.70896552 1.3424019-3.10097503 3.01911846-3.19494362l.18088154-.00505638zm-11.0691622 3.19203837c-.3422409.34215814-.3422409.89605133-.0077805 1.24505343l3.1729088 3.172987-3.1690599 3.16906c-.3383093.3383092-.3383093.8922024-.0038489 1.2412045.3421581.3422409.8960513.3422409 1.2450534.0077805l3.172987-3.1729088 3.16906 3.1690599c.1694508.1694509.389189.2619722.6173953.2619722.2334771 0 .4656514-.0960721.6251667-.2700888.3305379-.3301926.3305379-.8840858-.0039225-1.2330879l-3.1628454-3.1727049 3.169342-3.1693421c.3389508-.3389507.3389508-.89583991 0-1.23479063-.3383092-.33830925-.8922024-.33830925-1.2412045-.0038489l-3.1727049 3.16284543-3.1693421-3.16934203c-.3383092-.33830925-.8922024-.33830925-1.2412045-.0038489z"/></svg>