<svg height="32" viewBox="0 0 32 32" width="32" xmlns="http://www.w3.org/2000/svg"><g fill="none"><path d="m8.87 6.4c-1.76 0-3.2 1.43-3.2 3.2v8.9c0 1.76 1.43 3.2 3.2 3.2h4.225101v4.4561402l4.3523073-4.4661402h4.6825917c1.76 0 3.2-1.43 3.2-3.2v-8.9c0-1.75-1.43-3.19-3.19-3.19z" fill="#31afd8"/><g fill="#fff"><path d="m15.75 13c-.6875 0-1.25.55-1.25 1.25 0 .6875.5625 1.25 1.25 1.25s1.25-.55 1.25-1.25c0-.675-.5625-1.2375-1.25-1.25z"/><path d="m10.75 13c-.6875 0-1.25.55-1.25 1.25 0 .6875.5625 1.25 1.25 1.25s1.25-.55 1.25-1.25c0-.675-.5625-1.2375-1.25-1.25z"/><path d="m20.75 13c-.6875 0-1.25.55-1.25 1.25 0 .6875.5625 1.25 1.25 1.25s1.25-.55 1.25-1.25c0-.675-.5625-1.2375-1.25-1.25z"/></g></g></svg>