<svg height="32" viewBox="0 0 32 32" width="32" xmlns="http://www.w3.org/2000/svg"><path d="m22.1399741 6.4c1.76 0 3.2 1.44 3.1900518 3.19v8.9c0 1.77-1.4400518 3.2-3.2000518 3.2h-4.11l-3.73 3.73c-.11.12-.26.18-.42.18-.08 0-.16-.02-.23-.05-.22-.09-.37-.31-.37-.55v-3.3h-3.39999999c-1.77 0-3.2-1.44-3.2-3.2v-8.9c0-1.77 1.44-3.2 3.2-3.2zm.01 1.2h-12.26999999c-1.1 0-2 .9-2 2v8.9c0 1.1.9 2 2 2h3.99999999c.33 0 .6.27.6.6v2.46l2.88-2.88c.11-.12.26-.18.42-.18h4.36c1.1 0 2-.9 2-2h.01v-8.9c0-1.1-.9-2-2-2zm-6.1499485 2.37667235c.33 0 .6.26999995.6.59999995v2.9h2.9c.33 0 .6.27.6.6s-.27.6-.6.6h-2.9v2.9c0 .33-.27.6-.6.6s-.6-.27-.6-.6v-2.9h-2.9c-.33 0-.6-.27-.6-.6s.27-.6.6-.6h2.9v-2.9c0-.33.27-.59999995.6-.59999995z"/></svg>