<svg height="32" viewBox="0 0 32 32" width="32" xmlns="http://www.w3.org/2000/svg"><g fill="none"><path d="m8.87 6.4c-1.76 0-3.2 1.43-3.2 3.2v8.9c0 1.76 1.43 3.2 3.2 3.2h4.225101v4.4561402l4.3523073-4.4661402h4.6825917c1.76 0 3.2-1.43 3.2-3.2v-8.9c0-1.75-1.43-3.19-3.19-3.19z" fill="#4da86d"/><path d="m14.5334105 15.5848563-2.1845296-2.1845296c-.3502339-.3502339-.9244858-.3502339-1.2864534-.0033484-.3536542.3535823-.3536542.9278342-.0067686 1.2898017l2.8386766 2.8273165c.1756055.1756062.4029888.2713465.6388993.2713465.2414077 0 .4815807-.0993819.6459818-.2787286l5.65166-5.6399283c.3503949-.3503947.3503949-.9246466.0035093-1.2866142-.3508797-.3661354-.9315798-.3667827-1.2832722-.0019421z" fill="#fff"/></g></svg>