<svg height="32" viewBox="0 0 32 32" width="32" xmlns="http://www.w3.org/2000/svg"><path d="m15.5297118 6.86256146c.4639192 0 .84.37608081.84.84v1.3605872c1.2727659.17700317 2.2747731.77353748 2.9572002 1.77264674.261661.3830855.163227.9057559-.2198586 1.1674169-.3830855.261661-.9057559.163227-1.1674169-.2198586-.5033411-.736918-1.2775344-1.0961448-2.4099247-1.0961448-.68437 0-1.229427.1842738-1.6687526.5564698-.4068525.3446848-.5948099.7443338-.5948099 1.2601612 0 .2877981.0418995.5164666.1193332.6847994.0768582.1670819.1871879.3081643.3376755.4305652.183718.1494294.4163418.282885.6982418.3984456.3240269.1328298.7086118.2602745 1.1578207.3830657l.3502998.0987525c.5080573.1388469.9560208.287638 1.3457301.4473933.4317522.1769903.8056847.3930462 1.1210878.6495833.3490475.2839021.619183.6303213.8038648 1.0318004.1836182.3991669.2731519.8618715.2731519 1.3868853 0 1.0113145-.4065056 1.879123-1.1889274 2.5419896-.5460295.4625954-1.188637.7585327-1.9147157.8845988v1.4388825c0 .4639192-.3760808.84-.84.84s-.84-.3760808-.84-.84v-1.4247808c-1.2727341-.1770024-2.2747463-.7734971-2.9572002-1.7726456-.261661-.3830855-.163227-.9057559.2198585-1.1674169s.9057559-.163227 1.1674169.2198585c.5033412.7369181 1.2775344 1.0961449 2.4099248 1.0961449.6843699 0 1.229427-.1842738 1.6687526-.5564698.4068525-.3446848.5948098-.7443338.5948098-1.2601612 0-.2877981-.0418995-.5164666-.1193332-.6847994-.0768582-.1670819-.1871879-.3081643-.3376754-.4305652-.1837181-.1494294-.4163419-.282885-.6982419-.3984456-.3240268-.1328298-.7086118-.2602745-1.1578207-.3830657l-.3502998-.0987525c-.5080572-.1388469-.9560208-.287638-1.3457301-.4473933-.4317522-.1769903-.8056847-.3930462-1.1210878-.6495833-.3490475-.2839022-.6191829-.6303213-.8038647-1.0318004-.1836182-.3991669-.273152-.8618715-.273152-1.3868853 0-1.0113145.4065056-1.879123 1.1889274-2.54198964.546012-.46258051 1.1886184-.75853005 1.9147158-.88459904v-1.37468976c0-.46391919.3760808-.84.84-.84zm-8.77522247 3.24056544c.23431457.2343145.23431457.6142135 0 .8485281-2.30989987 2.3098999-2.78006196 5.7628293-1.41048627 8.5380387l1.50955257-1.5532254c.35384421-.3640813.97177323-.151508 1.02674282.353209l.50488211 4.6357005c.04158698.3818412-.28133015.7038817-.6630569.6612569l-4.51974024-.5046886c-.49589963-.0553737-.71145275-.6566378-.36368592-1.0144659l1.62527655-1.6722974c-1.82672948-3.2823578-1.3460671-7.5040017 1.44198714-10.2920559.23431458-.23431461.61421356-.23431461.84852814 0zm16.90095117-.65723371 4.5197402.50468851c.4958996.0553737.7114527.6566378.3636859 1.0144659l-1.621473 1.6683838c1.8267758 3.2823679 1.3461265 7.5040524-1.4419478 10.2921267-.2343145.2343145-.6142135.2343145-.8485281 0-.2343146-.2343146-.2343146-.6142136 0-.8485282 2.3099203-2.3099203 2.7800703-5.7628905 1.4104499-8.5381124l-1.5133591 1.5571421c-.3538442.3640813-.9717732.151508-1.0267428-.353209l-.5048821-4.6357005c-.041587-.38184123.2813301-.70388173.6630569-.66125691z"/></svg>