<svg height="32" viewBox="0 0 32 32" width="32" xmlns="http://www.w3.org/2000/svg"><path d="m14.951248 21.8452718c-1.4666895-.1266498-2.6047161-.7484761-3.3653945-1.8621494-.1869007-.2736326-.1165907-.6469685.1570418-.8338693.2736325-.1869007.6469685-.1165907.8338692.1570418.621867.910446 1.5828786 1.3632645 2.9529473 1.3632645.8400994 0 1.5212128-.2326767 2.0696384-.6973021.5268276-.4463275.7787643-.9833711.7787643-1.6545101 0-.3697301-.0566425-.6687721-.163096-.900191-.106704-.2319636-.2609112-.4295101-.4676929-.5976985-.2295319-.1866927-.5155738-.3514678-.8597223-.4925462-.3721967-.1525764-.8117368-.2984386-1.3224653-.4380351l-.3917838-.1104361c-.5508428-.1505398-1.0361524-.3115907-1.4566959-.4839861-.4485918-.1838934-.8363689-.4072732-1.1617552-.6719302-.3481365-.2831613-.6167178-.6272263-.8006851-1.0271523-.1842179-.4004706-.2729666-.8687116-.2729666-1.4016809 0-1.0259358.4087279-1.8970822 1.203134-2.57010186.6323624-.5357365 1.3881806-.85203622 2.2530733-.94930723-.0050974-.03147027-.0077469-.06376105-.0077469-.09667067v-1.71867403c0-.33137085.2686291-.6.6-.6.3313708 0 .6.26862915.6.6v1.71867403c0 .03053848-.0022815.06054409-.0066834.08985567 1.4595213.12955617 2.5924329.75093778 3.3505416 1.86084889.1869008.2736326.1165907.6469685-.1570418.8338693-.2736325.1869007-.6469685.1165907-.8338692-.1570419-.6218669-.9104459-1.5828786-1.36326443-2.9529472-1.36326443-.8400995 0-1.5212128.23267673-2.0696385.69730213-.5268276.4463275-.7787643.9833711-.7787643 1.6545101 0 .3697301.0566425.6687721.163096.900191.1067041.2319636.2609113.4295101.4676929.5976985.2295319.1866927.5155739.3514678.8597223.4925462.3721968.1525764.8117369.2984386 1.3224654.4380351l.3917837.1104361c.5508429.1505398 1.0361525.3115907 1.456696.4839861.4485917.1838934.8363689.4072732 1.1617551.6719302.3481365.2831613.6167178.6272263.8006852 1.0271523.1842179.4004706.2729665.8687116.2729665 1.4016809 0 1.0259358-.4087279 1.8970822-1.2031339 2.5701019-.6361589.5389528-1.3972603.8558261-2.2686625.9510354.0151953.052797.0233361.1085815.0233361.1662674v1.718674c0 .3313709-.2686292.6-.6.6-.3313709 0-.6-.2686291-.6-.6v-1.718674c0-.0553649.0074988-.1089784.0215362-.1598801zm11.9661456-9.2118404c1.8267758 3.2823679 1.3461265 7.5040524-1.4419478 10.2921267-.2343145.2343145-.6142135.2343145-.8485281 0-.2343146-.2343146-.2343146-.6142136 0-.8485282 2.3099203-2.3099203 2.7800703-5.7628905 1.4104499-8.5381124l-1.5133591 1.5571421c-.3538442.3640813-.9717732.151508-1.0267428-.353209l-.5048821-4.6357005c-.041587-.38184123.2813301-.70388173.6630569-.66125691l4.5197402.50468851c.4958996.0553737.7114527.6566378.3636859 1.0144659zm-22.45341955 7.7617514c-1.82672948-3.2823578-1.3460671-7.5040017 1.44198714-10.2920559.23431458-.23431461.61421356-.23431461.84852814 0 .23431457.2343145.23431457.6142135 0 .8485281-2.30989987 2.3098999-2.78006196 5.7628293-1.41048627 8.5380387l1.50955257-1.5532254c.35384421-.3640813.97177323-.151508 1.02674282.353209l.50488211 4.6357005c.04158698.3818412-.28133015.7038817-.6630569.6612569l-4.51974024-.5046886c-.49589963-.0553737-.71145275-.6566378-.36368592-1.0144659z"/></svg>