<svg height="32" viewBox="0 0 32 32" width="32" xmlns="http://www.w3.org/2000/svg"><path d="m13.780567 22.8792888c.8374817.8726233 2.0034457 1.4138052 3.2929604 1.4138052 1.7141742 0 3.20973-.9558537 4.0061515-2.3748377.6921062.3092467 1.4581948.481256 2.2642339.481256 3.0917281 0 5.5982546-2.5283513 5.5982546-5.647083 0-3.1191015-2.5065265-5.6474529-5.5982546-5.6474529-.3773106 0-.7461134.0377311-1.1027089.109864-.701354-1.25104382-2.0378475-2.0962937-3.5718743-2.0962937-.6421679 0-1.2495642.14833488-1.7903761.41208244-.7109717-1.67237405-2.3674395-2.84499643-4.2980124-2.84499643-2.010474 0-3.72390838 1.27212882-4.38161266 3.05621642-.28742194-.06103555-.58520144-.09284802-.8907491-.09284802-2.39370328 0-4.33426383 1.96053579-4.33426383 4.37939319 0 1.6209562.87188357 3.0362411 2.16731687 3.7934518-.26670686.6136847-.41504174 1.2909944-.41504174 2.0030758 0 2.7817414 2.25831532 5.0367275 5.04375585 5.0367275 1.63538281 0 3.08876871-.7775559 4.01022051-1.9823606" transform="matrix(1 0 0 -1 0 31.547282)"/></svg>