<svg height="32" viewBox="0 0 32 32" width="32" xmlns="http://www.w3.org/2000/svg"><path d="m12.8879684 6.91181529c1.7346244 0 3.2995512.92084561 4.1599328 2.36201313l.0350988.06317158.1294587-.04111469c.311492-.09089713.6340162-.14665007.9627597-.16531536l.2476486-.00701467c1.3504216 0 2.5914205.6259654 3.3979297 1.65355652l.1452033.1978882.1408846-.0175144c.0935377-.0093387.1874831-.01636.2817718-.0210466l.2838317-.0070385c3.1432734 0 5.6893224 2.5683603 5.6893224 5.7340481 0 3.1654095-2.5461067 5.7337118-5.6893224 5.7337118-.6023339 0-1.1921058-.0946786-1.7527889-.2776022l-.0656992-.0235582-.0844615.1193013c-.8495921 1.1226829-2.145901 1.8299938-3.5713097 1.8979182l-.2260911.0053787c-1.0455106 0-2.037993-.3434681-2.8516981-.9586284l-.0924396-.0739698-.0730403.0762369c-.8950931.8736805-2.0841049 1.4040411-3.36478 1.4669233l-.2572973.0063067c-2.86345632 0-5.18523259-2.318483-5.18523259-5.1788433 0-.5122567.07484224-1.0146938.2197743-1.4950627l.02957589-.0905609-.13876155-.1065714c-1.00151131-.8086994-1.63081788-2.0173044-1.69764974-3.3423862l-.0059163-.2349893c0-2.5288813 2.03130929-4.58126654 4.54023985-4.58126654l.23693304.00613324.2041547.0160802.07777143-.15182522c.79396588-1.48755525 2.32155977-2.47907781 4.04793427-2.55912213zm0 1.2c-1.538835 0-2.89606689.9638266-3.42032022 2.38591541-.10311936.2797214-.39597713.4413029-.68759796.3793757-.2227461-.0473013-.45174217-.0713198-.68513796-.0713198-1.84340033 0-3.34023985 1.51237-3.34023985 3.3812665 0 1.222799.6462661 2.3304028 1.67307042 2.9305937.26229858.1533196.36859512.4785055.24749658.7571497-.21509912.4949367-.3275896 1.0301344-.3275896 1.5818271 0 2.197237 1.78413696 3.9788433 3.98523259 3.9788433 1.2588151 0 2.4191609-.5861436 3.1690652-1.5666488l.065362-.0725346.0802761-.0635584.075068-.0422423.0865187-.0328045.0291176-.0078358.0609899-.0112639.0404162-.0040126.0515484-.0011513.0257555.0025853.0249436.0006671.0413909.00575.0904838.0233998.0655607.0269883.1036611.0639258.0683884.0611318c.6205575.6465968 1.446149 1.0373812 2.336778 1.0936758l.2239312.0070596c1.3000334 0 2.4798021-.7142229 3.1187341-1.8526078.1518186-.2704952.484788-.3806792.7679911-.2541384.5660667.2529298 1.1801355.3853084 1.8136252.3853084 2.4781313 0 4.4893224-2.0287236 4.4893224-4.5337118 0-2.5052785-2.0111457-4.5340481-4.4893224-4.5340481-.2996724 0-.5951525.0296371-.8835027.0879652-.2553808.051659-.5149127-.0674072-.6423262-.2946819-.5495445-.9802527-1.5822235-1.5991285-2.7237922-1.5991285-.4796899 0-.9429816.1082824-1.3646113.3139063-.308802.150599-.6807592.0116394-.8151766-.304542-.5679126-1.33586521-1.8799183-2.22110431-3.3551107-2.22110431z" transform="matrix(1 0 0 -1 0 31.547282)"/></svg>