<svg height="32" viewBox="0 0 32 32" width="32" xmlns="http://www.w3.org/2000/svg"><path d="m19.720145 18.83375c2.19-2.59 2.05-6.49-.41-8.9-2.61-2.57-6.85-2.57-9.44999995 0l-.09.09c-2.53 2.58-2.49 6.73.09 9.26 2.45999995 2.43 6.38999995 2.56 9.00999995.4l4.21 4.14c.12.12.27.17.42.17s.31-.06.43-.18c.23-.24.23-.62-.01-.85zm-1.18-.49c-.02.03-.05.05-.08.08-2.14 2.11-5.63 2.11-7.77 0-2.09999995-2.06-2.13999995-5.46-.07-7.56l.08-.08c1.07-1.06 2.48-1.58 3.88-1.58 1.41 0 2.81.53 3.88 1.58 2.11 2.07 2.14 5.46.08 7.56z"/></svg>