<svg height="32" viewBox="0 0 32 32" width="32" xmlns="http://www.w3.org/2000/svg"><g fill="none"><path d="m12.1586539 18.2318037c3.3418318 0 6.2859046 2.1973588 7.2365521 5.4011236l.2741113.9237791c.1132031.3815044-.172649.7644957-.5705944.7644957h-13.88013795c-.39794543 0-.68379751-.3829913-.57059439-.7644957l.27411132-.9237791c.95064744-3.2037648 3.89472025-5.4011236 7.23655202-5.4011236zm-.1053154-10.5362346c.8187688 0 1.5890222.20771936 2.260937.573335l-.0361329.03438353.0258743 1.61253258-.0744362.12257719c-.8422895 1.4567454-.8223586 3.2775024.0456937 4.7178416l.1077425.1705812.0268591 1.6161682c-.692918.3986176-1.4980601.6269734-2.3565375.6269734-2.61628128 0-4.73719634-2.120915-4.73719634-4.7371963 0-2.61628134 2.12091506-4.7371964 4.73719634-4.7371964zm6.3206482-.02574889c1.2235467 0 2.4384157.4599147 3.3669227 1.37106646 1.773763 1.74013713 1.8536244 4.55525033.2316949 6.38624133l-.1937302.2087619-.2152476.200847c-1.7454702 1.5542311-4.3912731 1.6075638-6.1987499.1598231l-.1839186-.1551209-.1825716-.1708387c-.2277879-.2234491-.4276447-.465067-.5994856-.7203793l-.0158839-.0234009-.079-5.01099999.0457671-.0737437c.1255503-.19392482.2671455-.38045162.4248215-.55769275l.1630375-.174076.069421-.06942109.1895453-.17772312c.9020628-.80026572 2.0434997-1.19334334 3.1773774-1.19334334z" fill="#9373b3"/><path d="m14.3787033 8.1711342-.0778648.07785616c-2.289648 2.33487264-2.253574 6.08619904.0788933 8.37346344l.1940151.183324c2.1042306 1.9015685 5.29938 2.0777484 7.6047066.4317733l.0715465-.0545511 4.1964634 4.1400936c.162224.1622372.3779548.2487136.6110122.2487136.2300712 0 .4559927-.0936823.621238-.2589276l.0776405-.0923502c.2583901-.3519703.2276391-.8410652-.0899551-1.145398l-4.179399-4.1241314-.1100752.1444621c1.8939009-2.3625406 1.6962491-5.803092-.4697913-7.92510625-2.3558928-2.31978785-6.1809405-2.31962496-8.5284302.00077835z" fill="#252d4f"/><path d="m21.8644341 15.4780542.019204-.0236562c1.6870112-1.7197687 1.6591451-4.4937106-.0657018-6.18585902-.8558237-.83982695-1.9931283-1.294318-3.1788659-1.294318-1.1884242 0-2.3296456.45303688-3.1777769 1.29323914l-.0670667.06706076c-1.6910011 1.71550832-1.6630768 4.49778312.0577665 6.18584922 1.7527971 1.7282252 4.6128707 1.7282252 6.3648539.0008082.0269964-.0254966.0269964-.0254966.0427231-.0392807.0082629-.0080393.0082629-.0080393.0048638-.0038434z" fill="#d0e7ef"/><path d="m21.8644341 15.4780542.019204-.0236562c1.6870112-1.7197687 1.6591451-4.4937106-.0657018-6.18585902-.8558237-.83982695-1.9931283-1.294318-3.1788659-1.294318-1.1884242 0-2.3296456.45303688-3.1777769 1.29323914l-.0670667.06706076c-1.6910011 1.71550832-1.6630768 4.49778312.0577665 6.18584922 1.7527971 1.7282252 4.6128707 1.7282252 6.3648539.0008082.0269964-.0254966.0269964-.0254966.0427231-.0392807.0082629-.0080393.0082629-.0080393.0048638-.0038434z" fill="#d0e7ef"/><path d="m17.5258272 8.11076743c1.7616277 2.57223277 1.7664052 5.99716427.000039 8.56883757-.7616767-.1879608-1.4810955-.5747675-2.0738729-1.1592349-1.6653322-1.6336123-1.7452044-4.2919779-.2160466-6.01657465l.1582801-.16927457.0670667-.06706076c.5654208-.56013484 1.261104-.94819618 2.0141939-1.14466653z" fill="#9373b3"/><path d="m20.3435422 9.80330695.1214878-.16851269c-.6098833.80375224-.9718009 1.80598674-.9718009 2.89275174 0 .9706745.288726 1.8739135.7849816 2.6285208.1909936-.0902677.3738329-.2011352.5453673-.3326376l.1676492-.1383819.1163935-.1089135c1.1152886-1.094045 1.180294-2.871284.1705435-4.0395627l-.1318182-.1427697-.0442575-.0442574-.1208394-.1133025c-.1968004-.1745917-.4114724-.31878303-.6377069-.43293455z" fill="#fff"/></g></svg>