<svg height="32" viewBox="0 0 32 32" width="32" xmlns="http://www.w3.org/2000/svg"><g fill="none"><path d="m23.8065553 22.6331152c.3043081.2915796.3088126.7790881.0092758 1.0915386-.1460448.1460448-.3457832.2288698-.5489698.2288698-.2060863 0-.3963813-.0762803-.5396967-.2196066l-3.893302-3.8409927c-2.1863344 1.6291571-5.2940045 1.4293047-7.2451959-.4980945-2.13937677-2.097916-2.17246483-5.538733-.072584-7.6800926l.0717328-.0717256c2.1534185-2.12857143 5.6625389-2.12872087 7.8234363-.0009393 1.9546123 1.9148844 2.1619094 4.9998555.5146312 7.1626103z" fill="#252d4f"/><path d="m18.4733267 18.3610845.0177267-.0218363c1.5572274-1.5874649 1.5315051-4.148004-.0606473-5.7099734-.7899841-.7752181-1.8397945-1.1947446-2.9343119-1.1947446-1.0969973 0-2.1504232.4181842-2.9333067 1.1937487l-.0619071.0619017c-1.5609104 1.5835322-1.5351343 4.1517633.0533224 5.7099643 1.6179523 1.5952708 4.257997 1.5952708 5.875198.0007461.0249195-.0235351.0249195-.0235351.0394364-.0362588.0076271-.0074208.0076271-.0074208.0044895-.0035477z" fill="#afdfef"/><path d="m16.8503131 12.9234872.1214878-.1685127c-.6098833.8037522-.9718009 1.8059868-.9718009 2.8927517 0 .9706746.2887259 1.8739136.7849815 2.6285208.1909936-.0902676.373833-.2011352.5453673-.3326375l.1676493-.138382.1163934-.1089134c1.1152887-1.0940451 1.180294-2.8712841.1705436-4.0395627l-.1318183-.1427697-.1650968-.1575599c-.1968005-.1745917-.4114724-.3187831-.6377069-.4329346z" fill="#fff"/><g fill="#b75c64"><path d="m13.66 29.875c-.21-.1-.34-.32-.34-.54l.01-1.58c-5.04-.35-9.07-4.57-9.1-9.68 0-.33.26-.6.6-.6.33 0 .6.26.6.6.03 4.46 3.53 8.14 7.91 8.48l.01-1.6c0-.23.13-.44.34-.54s.45-.07.63.07l2.72 2.18c.14.11.22.29.22.47s-.08.35-.22.47l-2.75 2.2c-.17.14-.42.17-.63.07z"/><path d="m26.2 13.925c-.03-4.46-3.53-8.14-7.91-8.48l-.01 1.6c0 .23-.13.44-.34.54s-.45.07-.63-.07l-2.72-2.18c-.14-.11-.22-.29-.22-.47s.08-.35.22-.47l2.75-2.2c.18-.14.43-.17.64-.07s.34.31.34.54l-.01 1.58c5.04.35 9.07 4.57 9.1 9.68 0 .33-.27.6-.6.6s-.6-.27-.61-.6z"/></g></g></svg>