<svg height="32" viewBox="0 0 32 32" width="32" xmlns="http://www.w3.org/2000/svg"><path d="m18.4733267 18.3610845.0177267-.0218363c1.5572274-1.5874649 1.5315051-4.148004-.0606473-5.7099734-.7899841-.7752181-1.8397945-1.1947446-2.9343119-1.1947446-1.0969973 0-2.1504232.4181842-2.9333067 1.1937487l-.0619071.0619017c-1.5609104 1.5835322-1.5351343 4.1517633.0533224 5.7099643 1.6179523 1.5952708 4.257997 1.5952708 5.875198.0007461.0249195-.0235351.0249195-.0235351.0394364-.0362588.0076271-.0074208.0076271-.0074208.0044895-.0035477zm-13.6433267-.8860845c.33 0 .6.26.6.6.03 4.46 3.53 8.14 7.91 8.48l.01-1.6c0-.23.13-.44.34-.54s.45-.07.63.07l2.72 2.18c.14.11.22.29.22.47s-.08.35-.22.47l-2.75 2.2c-.17.14-.42.17-.63.07s-.34-.32-.34-.54l.01-1.58c-5.04-.35-9.07-4.57-9.1-9.68 0-.33.26-.6.6-.6zm14.4762803-5.7257784c1.9387528 1.8993473 2.1020302 4.9690799.4191355 7.0684015l3.9757947 3.9222744c.2456817.2354232.2488732.6279721.0085546.8786903-.119021.1190209-.2810617.1849358-.4429038.1849358-.1640639 0-.3169932-.0590254-.4343505-.1763875l-3.986099-3.932543c-2.1235816 1.6627114-5.2163463 1.5059007-7.152722-.406862-2.08008801-2.0397763-2.11252348-5.3856202-.0715437-7.4669252l.0711181-.0711146c2.0950936-2.07091945 5.5103421-2.07091945 7.6130161-.0004697zm-1.3262803-9.6242216c.21.1.34.31.34.54l-.01 1.58c5.04.35 9.07 4.57 9.1 9.68 0 .33-.27.6-.6.6s-.6-.27-.61-.6c-.03-4.46-3.53-8.14-7.91-8.48l-.01 1.6c0 .23-.13.44-.34.54s-.45.07-.63-.07l-2.72-2.18c-.14-.11-.22-.29-.22-.47s.08-.35.22-.47l2.75-2.2c.18-.14.43-.17.64-.07z"/></svg>