<svg height="32" viewBox="0 0 32 32" width="32" xmlns="http://www.w3.org/2000/svg"><path d="m4.83 17.475c.33 0 .6.26.6.6.03 4.46 3.53 8.14 7.91 8.48l.01-1.6c0-.23.13-.44.34-.54s.45-.07.63.07l2.72 2.18c.14.11.22.29.22.47s-.08.35-.22.47l-2.75 2.2c-.17.14-.42.17-.63.07s-.34-.32-.34-.54l.01-1.58c-5.04-.35-9.07-4.57-9.1-9.68 0-.33.26-.6.6-.6zm14.4986592-6.1166138.1881088.1770717.1804863.1851885c1.6952326 1.8220314 1.9549696 4.5508643.7003163 6.653781l-.135197.2152475-.1383736.1993251 3.784772 3.7342914c.3052353.29249.3598454.7457403.162082 1.1051096l-.066902.1047398-.0820549.097579c-.1741605.1741605-.4120458.2728038-.6550358.2728038-.2043906 0-.3972062-.0636356-.5548593-.183916l-.0901837-.0789096-3.8038183-3.751698-.2064068.1407654c-2.0779134 1.3418316-4.8321589 1.1896205-6.7447487-.3823646l-.1947896-.1676807-.1884114-.1777916c-2.13746346-2.0960397-2.22897605-5.4963462-.2484578-7.7067675l.1748337-.1864925.0723473-.0723366c2.1503777-2.12556568 5.6157169-2.1847542 7.8462925-.1779457zm-3.832565.376144c-.9490559 0-1.8523191.3356939-2.5508961.9472804l-.1702879.1586098-.0603772.0603607c-1.4436788 1.4646016-1.4209578 3.8425047.0502992 5.2857397 1.4492782 1.4289612 3.7854353 1.4784361 5.2995757.1444835l.1945921-.1820043.1617954-.1750033c1.2480705-1.4240983 1.225569-3.5746049-.0532504-4.9778339l-.1472603-.1527643c-.7285996-.7149809-1.7007384-1.1088683-2.7241905-1.1088683zm2.4839058-9.6095302c.21.1.34.31.34.54l-.01 1.58c5.04.35 9.07 4.57 9.1 9.68 0 .33-.27.6-.6.6s-.6-.27-.61-.6c-.03-4.46-3.53-8.14-7.91-8.48l-.01 1.6c0 .23-.13.44-.34.54s-.45.07-.63-.07l-2.72-2.18c-.14-.11-.22-.29-.22-.47s.08-.35.22-.47l2.75-2.2c.18-.14.43-.17.64-.07z"/></svg>