<svg height="32" viewBox="0 0 32 32" width="32" xmlns="http://www.w3.org/2000/svg"><path d="m9.43834996 9.50703123c2.83360224-2.80090685 7.44909104-2.80090685 10.29168114-.0018786 2.4130795 2.36403317 2.7952291 6.06513777 1.0725766 8.85556247l-.1484282.2303792-.1331795.1889057 3.8142883 3.7505571c.4137752.3965346.4756519 1.0153555.1860076 1.4908336l-.0797342.1156716-.0871526.1009518c-.2292218.2292218-.5402357.3557359-.8542641.3557359-.2695122 0-.5282865-.0850175-.7393235-.2519286l-.101369-.0902657-3.8394525-3.7755557-.2204965.1500701c-2.685547 1.7514577-6.2782628 1.5521654-8.74699358-.5367061l-.21486059-.1892144-.19759693-.1880047c-2.75248533-2.6991426-2.85698223-7.0868018-.28228-9.91382628l.18810858-.19883269zm5.14179504.29671877c-1.2081955 0-2.3698105.4291577-3.2674941 1.2275502l-.1882418.1767139-.0769588.0769368c-1.83376198 1.8603383-1.8034581 4.8797063.0639535 6.7115509 1.84862 1.8227048 4.8334327 1.8779382 6.7481726.1684214l.2334236-.2199232.0188213-.0214152c1.7744274-1.8088823 1.7997644-4.694129.0931496-6.5415013l-.1650687-.170086c-.9312674-.9138605-2.1684065-1.4082475-3.4597572-1.4082475z"/></svg>