<svg height="32" viewBox="0 0 32 32" width="32" xmlns="http://www.w3.org/2000/svg"><path d="m12.1430292 18.2465032c3.3349026 0 6.2728711 2.1928027 7.2215474 5.3899247l.2735429.9218636c.1129684.3807134-.1722909.7629106-.5694112.7629106h-13.85135823c-.39712031 0-.68237969-.3821972-.56941129-.7629106l.27354296-.9218636c.94867632-3.197122 3.88664475-5.3899247 7.22154746-5.3899247zm0 1.2c-2.7186802 0-5.12357725 1.7334469-5.99405089 4.2892951l-.07707427.2419923-.04390404.1432094h12.229l-.0428457-.1432094c-.7733802-2.6063585-3.1193287-4.418786-5.8172054-4.5262367zm6.2311732-12.84264574c1.5358854 0 3.0118418.58982348 4.121834 1.67906818 2.1552682 2.11440996 2.2771088 5.52463226.3583038 7.76295656l4.492322 4.4321285c.2082632.1995856.2082632.5293357.0086776.737599-.1041316.1041316-.2429738.1561975-.3731383.1561975-.1041317 0-.2082633-.0277685-.2990661-.0921913l-.0653946-.0553286-4.5086038-4.4471906c-2.1456558 1.767143-5.2876808 1.7767658-7.4550771.0188605l-.185043-.1570997-.2103564.1122574c-.6498626.3206111-1.37051.4916923-2.1156313.4916923-2.64175373 0-4.78331822-2.1415645-4.78331822-4.7833182s2.14156449-4.7833182 4.78331822-4.7833182c.7727588 0 1.5196309.18395439 2.1900089.52978615l.149722-.13895132c1.0755809-.95420247 2.461116-1.46314817 3.8914423-1.46314817zm0 1.2c-1.0535165 0-2.0729295.34469068-2.8844239.9837946l-.1984414.16588049-.1945198.18196156-.0732814.0732595c-1.6309972 1.65463489-1.7118967 4.28768439-.2728405 6.00784539l.148971.1689031.0709567.0671998.1023429.1092345.1890784.1772106c1.7016014 1.5104378 4.2830268 1.5590383 6.0317066.1552642l.1778571-.1503985.2013902-.1850414.2083506-.2243515c1.574099-1.777154 1.4934649-4.5085287-.2257402-6.19514226-.8832474-.86673806-2.0565635-1.33562008-3.2814063-1.33562008zm-6.2311732 1.07231334c-1.979012 0-3.58331822 1.6043062-3.58331822 3.5833182s1.60430622 3.5833182 3.58331822 3.5833182c.5221661 0 1.0269267-.1115651 1.4880233-.3223947-1.4205042-1.9437434-1.4558496-4.5898083-.110012-6.56582483l.1154818.04887737c-.4617014-.21473686-.9688775-.32729424-1.4934931-.32729424zm4.5838292.32308503.1476492.22453246c.5457364.87256751.8611685 1.90393581.8611685 3.00897721 0 1.1518718-.3427339 2.2236939-.931786 3.1190504-.2265477-.1080005-.4432759-.2396746-.6465773-.3956018l-.1986922-.1640332-.1380759-.1292025c-1.3289588-1.3036453-1.4008311-3.425007-.1861947-4.8105983l.1402553-.15084776.1958522-.18691128c.1752916-.15551006.3625352-.29068913.5585628-.40571824z"/></svg>