<svg height="32" viewBox="0 0 32 32" width="32" xmlns="http://www.w3.org/2000/svg"><g fill="none" fill-rule="evenodd"><path d="m24.1225457 24.1225419c-4.5000773 4.5000773-11.7961352 4.5000771-16.29621351-.0000012-4.50007252-4.5000725-4.50007321-11.7961309.00000412-16.29620825 4.50007249-4.50007252 11.79613159-4.50007252 16.29620409 0 4.5000783 4.50007825 4.5000778 11.79613685.0000053 16.29620945z" fill="#b5e0db"/><g fill-rule="nonzero"><path d="m24.1225457 24.1225419c.1908179-.1908179.3737366-.3877922.5485767-.5905998l-3.7725907-3.7725905.1120201-.1550023c1.7720727-2.4520175 1.5150755-5.856728-.6471097-8.0189132-2.4239795-2.42397952-6.3540268-2.42397952-8.7780063 0-2.42397947 2.4239795-2.42397947 6.3540267 0 8.7780062 2.1150308 2.1150308 5.4254439 2.411326 7.8705623.7510507l.1535798-.1042832 3.78083 3.7808299c.2529596-.2106247.4972088-.4335689.7321378-.6684978zm-4.9377038-4.9376998c-1.7730566 1.7730566-4.6477493 1.7730566-6.4208059 0-1.7730566-1.7730565-1.7730566-4.6477493 0-6.4208059 1.7730566-1.7730565 4.6477493-1.7730565 6.4208059 0 1.7730566 1.7730566 1.7730566 4.6477494 0 6.4208059z" fill="#252d4f"/><path d="m17.6116146 13.3823156.1214878-.1685127c-.6098833.8037523-.9718009 1.8059868-.9718009 2.8927518 0 .9706745.2887259 1.8739135.7849815 2.6285207.1909936-.0902676.373833-.2011351.5453673-.3326375l.1676493-.138382.1163934-.1089134c1.1152886-1.094045 1.180294-2.871284.1705435-4.0395627l-.1318182-.1427697-.1650968-.1575599c-.1968005-.1745917-.4114724-.318783-.6377069-.4329346z" fill="#fff"/></g></g></svg>