<svg height="32" viewBox="0 0 32 32" width="32" xmlns="http://www.w3.org/2000/svg"><path d="m12.1586539 18.2318037c3.3418318 0 6.2859046 2.1973588 7.2365521 5.4011236l.2741113.9237791c.1132031.3815044-.172649.7644957-.5705944.7644957h-13.88013795c-.39794543 0-.68379751-.3829913-.57059439-.7644957l.27411132-.9237791c.95064744-3.2037648 3.89472025-5.4011236 7.23655202-5.4011236zm10.3198546-9.92851607c2.0719131 2.02980107 2.2472975 5.27763147.5182187 7.52189807l-.1624357.2011978 4.5123707 4.4516272c.2082632.1995856.2082632.5293357.0086776.737599-.1041316.1041316-.2429738.1561975-.3731383.1561975-.1041317 0-.2082633-.0277685-.2990661-.0921913l-.0653946-.0553286-4.5210483-4.4603048c-2.2273276 1.8362701-5.5456821 1.7653251-7.6868165-.2209941-.692918.3986176-1.4980601.6269734-2.3565375.6269734-2.61628128 0-4.73719634-2.120915-4.73719634-4.7371963 0-2.61628134 2.12091506-4.7371964 4.73719634-4.7371964.8187688 0 1.5890222.20771936 2.260937.573335l-.0361329.03438353c2.2561853-2.23015241 5.9355029-2.23015241 8.2003659 0zm-4.1045218-.63346742c-1.1338777 0-2.2753146.39307762-3.1773774 1.19334334l-.1895453.17772312-.069421.06942109c-1.7962707 1.82230354-1.7615601 4.77269964.0607434 6.56029264l.1825716.1708387c1.8078556 1.6047551 4.5770097 1.6031231 6.3826685-.0047022l.2152476-.200847.0314564-.0347106c1.787593-1.8223035 1.7615601-4.764022-.0694211-6.56029263-.928507-.91115176-2.143376-1.37106646-3.3669227-1.37106646zm-1.6469698 1.52985311-.1441754-.19854124c.7234965.95348071 1.1528346 2.14241842 1.1528346 3.43163342 0 1.1518718-.3427339 2.2236939-.931786 3.1190504-.2265477-.1080005-.4432759-.2396746-.6465773-.3956018l-.1986922-.1640332-.1380759-.1292025c-1.3289588-1.3036453-1.4008311-3.425007-.1861947-4.8105983l.1402553-.15084776.0525021-.05250208.1433501-.1344092c.1752916-.15551006.3625352-.29068913.5585628-.40571824z"/></svg>