<svg height="32" viewBox="0 0 32 32" width="32" xmlns="http://www.w3.org/2000/svg"><g fill="none" fill-rule="evenodd"><path d="m6.573369 6.362138h19.116883v10.969856h-19.116883z" fill="#6ec38c"/><path d="m25.6902521 17.3319937h-14.6218627l3.2735001-3.3796459 2.340236 1.4852438 5.6096884-5.3434914 3.3984382 3.4597233z" fill="#257843"/><path d="m11.5992835 12.2706204c-.8823258-.0032275-1.5958909-.722568-1.5958909-1.6088052 0-.6512272.3908791-1.23821812.9901093-1.48688291.5992301-.24866479 1.2886056-.10994947 1.7462291.35137414.4576235.46132362.5932198 1.15425047.3434735 1.75522477-.2497464.6009744-.835568.9914423-1.483921.9890892z" fill="#257843"/><g fill="#979797" fill-rule="nonzero"><path d="m25.672703 20.5623411h-19.0946514v1.2467532h19.0946514z"/><path d="m15.126619 24.5561799h-8.72238465v1.2467533h8.72238465z"/></g></g></svg>