<svg height="32" viewBox="0 0 32 32" width="32" xmlns="http://www.w3.org/2000/svg"><g fill="none" fill-rule="evenodd"><path d="m.3928135.51599729h31.1688312v31.16883121h-31.1688312z"/><g fill-rule="nonzero"><g fill="#96b8c2"><path d="m17.417515 8.72671157h1.6986364c.2775 0 .5045454-.22704545.5045454-.50454545s-.2270454-.50454546-.5045454-.50454546h-1.6986364c-.2775 0-.5045454.22704546-.5045454.50454546s.2270454.50454545.5045454.50454545z"/><path d="m23.7402423 7.71762066h-1.665c-.2775 0-.5045455.22704546-.5045455.50454546s.2270455.50454545.5045455.50454545h1.1604545v1.22590909c0 .27750004.2270455.50454544.5045455.50454544s.5045454-.2270454.5045454-.50454544v-1.73045454c0-.2775-.2270454-.50454546-.5045454-.50454546z"/><path d="m23.2356968 12.9117116v1.65c0 .2775.2270455.5045454.5045455.5045454s.5045454-.2270454.5045454-.5045454v-1.65c0-.2775-.2270454-.5045455-.5045454-.5045455s-.5045455.2270455-.5045455.5045455z"/><path d="m23.2356968 17.7117116v2.9590909c0 .2775.5045455.5045454.5045455.5045454s.5045454-.2270454.5045454-.5045454v-2.9590909c0-.2775-.2270454-.5045455-.5045454-.5045455s-.5045455.2270455-.5045455.5045455z"/><path d="m9.1084241 17.104865v1.6986363c0 .2775-.22704545.5045455-.50454545.5045455s-.50454546-.2270455-.50454546-.5045455v-1.6986363c0-.2775.22704546-.5045455.50454546-.5045455s.50454545.2270455.50454545.5045455z"/><path d="m8.09933319 23.4275923v-1.665c0-.2775.22704546-.5045455.50454546-.5045455s.50454545.2270455.50454545.5045455v1.1604545h1.2259091c.2775 0 .5045454.2270455.5045454.5045455s-.2270454.5045454-.5045454.5045454h-1.73045455c-.2775 0-.50454546-.2270454-.50454546-.5045454z"/><path d="m13.2934241 22.9230468h1.65c.2775 0 .5045455.2270455.5045455.5045455s-.2270455.5045454-.5045455.5045454h-1.65c-.2775 0-.5045455-.2270454-.5045455-.5045454s.2270455-.5045455.5045455-.5045455z"/><path d="m18.0934241 22.9230468h3.3954545c.2775 0 .5045455.2270455.5045455.5045455s-.2270455.5045454-.5045455.5045454h-3.3954545c-.2775 0-.5045455-.2270454-.5045455-.5045454s.2270455-.5045455.5045455-.5045455z"/></g><path d="m15.3311514 7.71762066h-6.72727275c-.2775 0-.50454546.22704546-.50454546.50454546v6.72727268c0 .2775.22704546.5045455.50454546.5045455h6.72727275c.2775 0 .5045454-.2270455.5045454-.5045455v-6.72727268c0-.2775-.2270454-.50454546-.5045454-.50454546z" fill="#17bfa8"/></g><path d="m21.1094889 21.7466758-3.8203125-3.8203125c-.2556159-.2556159-.2556159-.6700512 0-.9256671s.6700512-.2556159.9256671 0l3.8203125 3.8203125 1.4104289-1.4104289c.1704106-.1704106.4467008-.1704106.6171114 0 .0818341.081834.127808.1928248.127808.3085556v3.746525c0 .240997-.1953667.4363637-.4363637.4363637h-3.746525c-.240997 0-.4363636-.1953667-.4363636-.4363637 0-.1157308.0459739-.2267216.1278079-.3085556z" fill="#176d61"/></g></svg>