<svg height="32" viewBox="0 0 32 32" width="32" xmlns="http://www.w3.org/2000/svg"><path d="m24 19.4h-16c-.33 0-.6.27-.6.6s.27.6.6.6h16c.33 0 .6-.27.6-.6s-.27-.6-.6-.6zm-5 4h-11c-.33 0-.6.27-.6.6s.27.6.6.6h11c.33 0 .6-.27.6-.6s-.27-.6-.6-.6zm5-16h-16c-.33 0-.6.27-.6.6v8c0 .33.27.6.6.6h16c.33 0 .6-.27.6-.6v-8c0-.33-.27-.6-.6-.6zm-.6 8h-14.8v-6.8h14.8zm-8.68-1.89c.1.06.2.09.31.09.09 0 .19-.02.28-.07l1.94-1c.2-.1.32-.31.32-.53s-.13-.43-.32-.53l-1.94-1c-.19-.1-.41-.09-.59.02s-.29.3-.29.51v2c0 .21.11.4.29.51z"/></svg>