<svg height="32" viewBox="0 0 32 32" width="32" xmlns="http://www.w3.org/2000/svg"><g fill="none" fill-rule="evenodd"><path d="m.3928135.71433936h31.1688312v31.16883114h-31.1688312z"/><path d="m6.310833 6.371591h19.116883v10.969856h-19.116883z" fill="#20c4d2"/><path d="m6.31083298 6.37159121h19.11688312l-19.11688312 10.96985609z" fill="#17b3c4"/><path d="m18.61152 12.1298493-3.5978066 2.3775203c-.0656577.0495935-.1453311.0744472-.2388044.0744472-.0704015 0-.1428514-.0199514-.2176732-.0592841-.1546029-.0893822-.23212-.2280158-.23212-.4162428v-4.75538276c0-.18845503.0775171-.3269746.23212-.41647079.1591311-.08915416.3111465-.08425182.4564776.01504904l3.5978066 2.37786241c.1406952.0840238.2109888.217755.2109888.4010797 0 .1835527-.0702936.3171699-.2109888.4014218z" fill="#fff"/><g fill="#979797" fill-rule="nonzero"><path d="m25.4101671 20.5717947h-19.09465149v1.2467532h19.09465149z"/><path d="m14.864083 24.5656335h-8.72238464v1.2467532h8.72238464z"/></g></g></svg>