<svg height="32" viewBox="0 0 32 32" width="32" xmlns="http://www.w3.org/2000/svg"><path d="m14.98 24.4h-3c-.33 0-.6.27-.6.6s.27.6.6.6h3c.33 0 .6-.27.6-.6s-.27-.6-.6-.6zm3.02-16.8h2.02c.33 0 .6-.27.6-.6s-.27-.6-.6-.6h-2.02c-.33 0-.6.27-.6.6s.27.6.6.6zm-11 13.98c.33 0 .6-.27.6-.6v-3c0-.33-.27-.6-.6-.6s-.6.27-.6.6v3c0 .33.27.6.6.6zm1.98 2.82h-1.38v-.42c0-.33-.27-.6-.6-.6s-.6.27-.6.6v1.02c0 .33.27.6.6.6h1.98c.33 0 .6-.27.6-.6s-.27-.6-.6-.6zm16.02-1.98c-.33 0-.6.27-.6.6v1.38h-.42c-.33 0-.6.27-.6.6s.27.6.6.6h1.02c.33 0 .6-.27.6-.6v-1.98c0-.33-.27-.6-.6-.6zm0-6c-.33 0-.6.27-.6.6v3c0 .33.27.6.6.6s.6-.27.6-.6v-3c0-.33-.27-.6-.6-.6zm0-10.02h-1.98c-.33 0-.6.27-.6.6s.27.6.6.6h1.38v.42c0 .33.27.6.6.6s.6-.27.6-.6v-1.02c0-.33-.27-.6-.6-.6zm0 4.02c-.33 0-.6.27-.6.6v3c0 .33.27.6.6.6s.6-.27.6-.6v-3c0-.33-.27-.6-.6-.6zm-4.02 13.98h-3c-.33 0-.6.27-.6.6s.27.6.6.6h3c.33 0 .6-.27.6-.6s-.27-.6-.6-.6zm-5.98-18h-8c-.33 0-.6.27-.6.6v8c0 .33.27.6.6.6h8c.33 0 .6-.27.6-.6v-8c0-.33-.27-.6-.6-.6zm-.6 8h-6.8v-6.8h6.8z"/></svg>