<svg height="32" viewBox="0 0 32 32" width="32" xmlns="http://www.w3.org/2000/svg"><path d="m19 23.4h-11c-.33 0-.6.27-.6.6s.27.6.6.6h11c.33 0 .6-.27.6-.6s-.27-.6-.6-.6zm5-4h-16c-.33 0-.6.27-.6.6s.27.6.6.6h16c.33 0 .6-.27.6-.6s-.27-.6-.6-.6zm0-12h-16c-.33 0-.6.27-.6.6v8c0 .33.27.6.6.6h16c.33 0 .6-.27.6-.6v-8c0-.33-.27-.6-.6-.6zm-15.4 1.2h14.8v4.89l-3.54-2.99-3.16 3.48-1.75-.72-2.7 2.14h-3.65zm3.89 4.4c.83 0 1.5-.67 1.51-1.49 0-.83-.67-1.5-1.49-1.51-.83 0-1.5.67-1.51 1.49v.01c0 .83.67 1.5 1.49 1.5z"/></svg>