<svg height="32" viewBox="0 0 32 32" width="32" xmlns="http://www.w3.org/2000/svg"><path d="m24 19.4h-16c-.33 0-.6.27-.6.6s.27.6.6.6h16c.33 0 .6-.27.6-.6s-.27-.6-.6-.6zm-5 4h-11c-.33 0-.6.27-.6.6s.27.6.6.6h11c.33 0 .6-.27.6-.6s-.27-.6-.6-.6zm5-6.8h-16c-.33137085 0-.6-.2686292-.6-.6v-8c0-.33137085.26862915-.6.6-.6h16c.3313708 0 .6.26862915.6.6v8c0 .3313708-.2686292.6-.6.6zm-9.4875676-2.8451351c.1162162.0697297.2324325.1045946.3602703.1045946.1045946 0 .2208108-.0232433.3254054-.0813514l2.2545946-1.1621622c.2324324-.1162162.3718919-.3602702.3718919-.6159459s-.1510811-.4997297-.3718919-.6159459l-2.2545946-1.1621622c-.2208108-.1162162-.4764865-.1045946-.6856757.0232432-.2091892.1278379-.337027.3486487-.337027.5927027v2.3243244c0 .244054.1278378.4648648.337027.5927027z"/></svg>