<svg height="32" viewBox="0 0 32 32" width="32" xmlns="http://www.w3.org/2000/svg"><path d="m19 23.4h-11c-.33 0-.6.27-.6.6s.27.6.6.6h11c.33 0 .6-.27.6-.6s-.27-.6-.6-.6zm5-4h-16c-.33 0-.6.27-.6.6s.27.6.6.6h16c.33 0 .6-.27.6-.6s-.27-.6-.6-.6zm-16-12h16c.3313708 0 .6.26862915.6.6v6.49l-3.54-2.99-3.16 3.48-1.75-.72-2.7 2.14h-5.45c-.33137085 0-.6-.2686292-.6-.6v-7.8c0-.33137085.26862915-.6.6-.6zm4.49 5.6c.83 0 1.5-.67 1.51-1.49 0-.83-.67-1.5-1.49-1.51-.83 0-1.5.67-1.51 1.49v.01c0 .83.67 1.5 1.49 1.5z"/></svg>