<svg height="32" viewBox="0 0 32 32" width="32" xmlns="http://www.w3.org/2000/svg"><path d="m16.4952069 3.23193507.097155.10663216.1574833.15471638.2184506.19695253c.4279416.3712153.9544512.74506056 1.582673 1.09569186 1.8139814 1.01244301 4.0760797 1.62245046 6.822072 1.62245046.3236529 0 .5915964.23852052.6376386.54936968l.0069895.09525841v8.13111285c0 4.5115421-1.9842837 8.7643004-5.428754 11.4711723-1.3420077 1.0546419-2.8093756 1.8445306-4.4055672 2.3180842-.1196544.0354988-.247041.0354988-.3666954 0-1.596538-.4736564-3.064513-1.2638116-4.4055644-2.3180821-3.34605962-2.6295348-5.31417713-6.7178795-5.42390951-11.0851346l-.00484724-.3860398v-8.13111285c0-.35601826.28860983-.64462809.6446281-.64462809 2.74599228 0 5.00809055-.61000745 6.82207195-1.62245046.5235181-.29219275.9764029-.60050631 1.3604737-.90998469l.2825626-.23858513.2444099-.22707778.1272393-.13140528.0410764-.04694005c.2577185-.30924676.7326953-.30924676.9904138 0zm-.4952069 8.21967913c-1.3112305 0-2.3741929 1.0629623-2.3741929 2.3741929l.0061954.1722011c.0657512.9113064.649517 1.7020227 1.4954492 2.0364661l.0265483.0095257.0013719 4.7907387.009085.1206198c.0681826.4221091.420051.7239803.8355431.7239803.4200428 0 .7745046-.3083949.8354802-.7200659l.0086117-.1099268-.0000919-4.8053461.1764607-.073764c.8125722-.3866583 1.3537322-1.2129949 1.3537322-2.1444289 0-1.3112306-1.0629624-2.3741929-2.3741929-2.3741929z"/></svg>