<svg height="32" viewBox="0 0 32 32" width="32" xmlns="http://www.w3.org/2000/svg"><path d="m16.4952069 3.23193507.097155.10663216.1574833.15471638.2184506.19695253c.4279416.3712153.9544512.74506056 1.582673 1.09569186 1.8139814 1.01244301 4.0760797 1.62245046 6.822072 1.62245046.3236529 0 .5915964.23852052.6376386.54936968l.0069895.09525841v8.13111285c0 4.5115421-1.9842837 8.7643004-5.428754 11.4711723-1.3420077 1.0546419-2.8093756 1.8445306-4.4055672 2.3180842-.1196544.0354988-.247041.0354988-.3666954 0-1.596538-.4736564-3.064513-1.2638116-4.4055644-2.3180821-3.34605962-2.6295348-5.31417713-6.7178795-5.42390951-11.0851346l-.00484724-.3860398v-8.13111285c0-.35601826.28860983-.64462809.6446281-.64462809 2.74599228 0 5.00809055-.61000745 6.82207195-1.62245046.5235181-.29219275.9764029-.60050631 1.3604737-.90998469l.2825626-.23858513.2444099-.22707778.1272393-.13140528.0410764-.04694005c.2577185-.30924676.7326953-.30924676.9904138 0zm-.4952069 1.20006493-.1819769.16471432c-.5116322.4438121-1.110501.86106379-1.7841576 1.23705381-1.8392345 1.02653751-3.9919069 1.62315527-6.42073504 1.74932779l-.43113046.01690408.00033115 7.5841194c0 4.043999 1.72630635 7.8282438 4.68903475 10.2999483l.2813632.2278449c1.1369476.8938138 2.3443125 1.5593021 3.6203593 1.9891479l.2259116.0709395.2277985-.0709034c1.1480998-.3867451 2.2405779-.964312 3.2771809-1.7279056l.3434645-.2614144c3.039359-2.3885111 4.8577668-6.1225897 4.9651824-10.1493255l.0050426-.3783317-.0006689-7.5841194-.4301305-.01690408c-2.2669063-.11776102-4.2932502-.64533212-6.0487199-1.54976456l-.3720151-.19956323c-.5389252-.30079201-1.0299864-.6279915-1.4756265-.98186891l-.3257518-.27041439zm0 7.2196142c1.2007736 0 2.1741929.9734193 2.1741929 2.1741929 0 .9764312-.6436666 1.802526-1.5298393 2.0771238l.0002745 4.9317798c0 .3560183-.2886098.6446281-.6446281.6446281-.3204164 0-.586232-.2337739-.636191-.540066l-.0084371-.1045621-.0006905-4.9320791c-.8856749-.2748983-1.5288743-1.1007478-1.5288743-2.0768245 0-1.2007736.9734193-2.1741929 2.1741929-2.1741929z"/></svg>