<svg height="32" viewBox="0 0 32 32" width="32" xmlns="http://www.w3.org/2000/svg"><g fill="none" transform="translate(5.982331 3)"><path d="m9.52246198.23193507-.04107644.04694005-.12723925.13140528-.18788704.17656546c-.03640399.03286603-.07536161.06737007-.11688616.10339028-.42794163.3712153-.95445129.74506056-1.58267299 1.09569186-1.8139815 1.01244301-4.07607972 1.62245046-6.822072 1.62245046-.35601827 0-.6446281.28860983-.6446281.64462809v8.13111285c0 4.5115421 1.98428361 8.7643004 5.4287567 11.4711744 1.34105141 1.0542705 2.80902642 1.8444257 4.40556443 2.3180821.11965442.0354988.24704107.0354988.36669547 0 1.5961915-.4735536 3.0635595-1.2634423 4.4055671-2.3180842 3.4444704-2.7068719 5.428754-6.9596302 5.428754-11.4711723v-8.13111285c0-.35601826-.2886098-.64462809-.6446281-.64462809-2.7459923 0-5.0080905-.61000745-6.822072-1.62245046-.6282217-.3506313-1.1547314-.72447656-1.582673-1.09569186l-.2184506-.19695253-.1574832-.15471637c-.0424043-.04388299-.0747538-.07975193-.0971551-.10663217-.2577185-.30924676-.73269521-.30924676-.99041372 0z" fill="#00c3a7"/><path d="m10.0176689 2.11867769v22.10859501l.0982662-.0306213c1.0707826-.3651374 2.0924763-.9053586 3.0657691-1.617743l.3627173-.2752086c2.910298-2.2870873 4.6567696-5.8662055 4.7664168-9.7320749l.0054911-.3875055-.0001482-7.0872599-.4394182-.02825981c-2.1389294-.1693733-4.06821-.70275875-5.7597757-1.57447421l-.3861287-.20715927c-.5633943-.31444898-1.0780622-.65741776-1.5499666-1.03256199z" fill="#008976"/><path d="m10.0176689 8.65161416c1.2007735 0 2.1741929.97341932 2.1741929 2.17419294 0 .9764312-.6436667 1.802526-1.5298394 2.0771238l.0002746 4.9317798c0 .3560183-.2886099.6446281-.6446281.6446281-.32041649 0-.5862321-.2337739-.63619105-.540066l-.0084371-.1045621-.00069046-4.9320791c-.88567495-.2748983-1.52887436-1.1007478-1.52887436-2.0768245 0-1.20077362.97341933-2.17419294 2.17419297-2.17419294z" fill="#fff"/></g></svg>