<svg height="32" viewBox="0 0 32 32" width="32" xmlns="http://www.w3.org/2000/svg"><path d="m23.7685636 5.59289875c.3622686.20083407.4931371.65731899.2923031 1.01958761-.2008341.36226861-.657319.49313717-1.0195876.29230309-.7710202-.42743732-1.6388072-.65478945-2.5412791-.65478945-.4142136 0-.75-.33578644-.75-.75s.3357864-.75.75-.75c1.1585674 0 2.2763916.29285956 3.2685636.84289875zm3.4714801 5.53769455c.0223475.4136103-.2948336.767024-.7084439.7893715s-.7670239-.2948336-.7893714-.7084439c-.0484891-.897439-.3233225-1.75263177-.7935581-2.5008125-.220416-.35069879-.114801-.81367884.2358978-1.0340949s.8136788-.11480104 1.0340949.23589774c.6049741.96256009.9590415 2.06430328 1.0213807 3.21808206zm.0099563 6.0039154c0 .4142136-.3357864.75-.75.75s-.75-.3357864-.75-.75v-3c0-.4142135.3357864-.75.75-.75s.75.3357865.75.75zm-.6495726 6.257939c-.1776866.3741662-.6250517.5334444-.9992179.3557579-.3741662-.1776866-.5334444-.6250516-.3557579-.9992179.3307006-.6963778.5045484-1.4595955.5045484-2.2489877v-.3654913c0-.4142135.3357864-.75.75-.75s.75.3357865.75.75v.3654913c0 1.0131643-.2238836 1.9960464-.6495726 2.8924477zm-5.3087893 3.8115503c-.4114091.0481187-.78393-.2463863-.8320487-.6577955-.0481187-.4114091.2463864-.78393.6577955-.8320487.8891458-.1039951 1.726771-.432382 2.4455707-.949704.3361959-.2419611.8048848-.1655686 1.0468459.1706273s.1655686.8048848-.1706273 1.0468459c-.924378.6652772-2.003231 1.0882363-3.1475361 1.222075zm-6.0606556.046002c-.4142136 0-.75-.3357864-.75-.75s.3357864-.75.75-.75h3c.4142136 0 .75.3357864.75.75s-.3357864.75-.75.75zm-6.23817224-.4811846c-.38455211-.1539239-.57151326-.5904449-.41758942-.974997.15392385-.3845521.59044486-.5715132.97499697-.4175894.61421759.2458516 1.27250459.373771 1.94978219.373771h.7309825c.4142136 0 .75.3357864.75.75s-.3357864.75-.75.75h-.7309825c-.8690244 0-1.71643175-.1646696-2.50718974-.4811846zm-4.13468628-5.0596833c-.07376911-.4075917.19684758-.7978117.60443928-.8715808s.79781173.1968476.87158083.6044393c.15894636.8782161.53948186 1.6950657 1.10142899 2.3813858.26241106.3204891.21532944.7930231-.10515974 1.0554342s-.79302318.2153294-1.05543424-.1051597c-.72232703-.8821961-1.21219891-1.9337449-1.41685512-3.0645188zm-.10812398-6.1126583c0-.4142136.33578644-.75.75-.75s.75.3357864.75.75v3c0 .4142135-.33578644.75-.75.75s-.75-.3357865-.75-.75zm.33810655-6.21119839c.12968014-.39339032.55371251-.60716966.94710283-.47748953.39339031.12968013.60716965.55371251.47748952.94710283-.17332326.52578359-.2626989 1.07891359-.2626989 1.64511129v1.0964738c0 .4142135-.33578644.75-.75.75s-.75-.3357865-.75-.75v-1.0964738c0-.7262501.11498622-1.4378794.33810655-2.11472459zm4.79080751-4.43917247c.40216474-.09917872.80858384.14643996.90776254.54860467.0991788.40216472-.1464399.80858387-.5486046.90776259-.86460242.21322148-1.65746843.64434341-2.30834137 1.24838021-.30361328.28176559-.77815663.26405453-1.05992222-.03955876-.28176559-.30361328-.26405453-.77815662.03955876-1.05992221.83627208-.77609482 1.8562661-1.33071789 2.96954689-1.6052665zm6.15912094-.19610294c.4142135 0 .75.33578644.75.75s-.3357865.75-.75.75h-3c-.4142136 0-.75-.33578644-.75-.75s.3357864-.75.75-.75zm4.461965 0c.4142136 0 .75.33578644.75.75s-.3357864.75-.75.75h-1.461965c-.4142136 0-.75-.33578644-.75-.75s.3357864-.75.75-.75z"/></svg>