<svg height="32" viewBox="0 0 32 32" width="32" xmlns="http://www.w3.org/2000/svg"><path d="m16 5c6.0751322 0 11 4.92486775 11 11 0 6.0751322-4.9248678 11-11 11-6.07513225 0-11-4.9248678-11-11 0-6.07513225 4.92486775-11 11-11zm4.9314681 6.4173086-6.8301497 6.8240379-3.0261866-3.0207634c-.4223319-.4223323-1.10901422-.424987-1.54180941-.0102249-.43221863.4319468-.43780035 1.1186374-.02158933 1.5529446l3.81048144 3.8043784c.207504.2075044.4839545.3237607.7730013.3237607.3006171 0 .5917199-.1249584.7949848-.3467019l7.5751329-7.5615137c.4416886-.4258576.4445644-1.1325361.0021043-1.5614698-.4215556-.4166857-1.1048517-.4176027-1.5359697-.0044479z" fill-rule="evenodd"/></svg>