<svg height="32" viewBox="0 0 32 32" width="32" xmlns="http://www.w3.org/2000/svg"><path d="m27.4922116 5.18218791c.0103845.07969784.0103845.16040621 0 .24010404l-.8156796 6.26009745c-.0663029.5088549-.5325604.8676143-1.0414154.8013114-.2032437-.0264823-.3920277-.1194241-.5369575-.2643539l-2.30378-2.3036626-2.4850749 2.6577712c1.2544202 2.7074509.9357794 5.9785956-.9609309 8.4110327l-.2030086.2499633 5.20325 5.1165292c.2973285.2849398.2973285.7557101.0123886 1.0530386-.1486642.1486643-.3468833.2229965-.5327136.2229965-.1486643 0-.2973286-.0396438-.4269639-.1316175l-.0933611-.0789903-5.2156387-5.1289178c-3.2458369 2.6759571-8.11459217 2.5149042-11.16221-.4955476-3.12018015-3.0597115-3.24169326-8.0319588-.32996526-11.2403669l.21846705-.2315604.11149821-.1114982c3.2210595-3.1838934 8.4738642-3.1838934 11.7073124 0 .3294015.3227063.6252258.6669773.8874574 1.0284327l2.2176934-2.37306531-2.0888379-2.08895544c-.3628564-.36285634-.3628564-.95116271 0-1.31401905.1449298-.14492983.3337138-.23787159.5369575-.26435389l6.2600974-.81567959c.508855-.0663029.9751125.29245643 1.0414154.80131139zm-8.2876756 7.52741359c-.268076-.2492453-.6700983-.2653566-.9552865-.0561373l-.1009791.0890044-2.1614767 2.2761173-1.9344281-1.9340311-.1029469-.0860104c-.2534869-.1756046-.5918346-.1756046-.8453215 0l-.1029469.0860104-4.55590616 4.5559062-.08601039.1029468c-.17560455.2534869-.17560455.5918346 0 .8453215l.08601039.1029469.10294688.0860104c.25348691.1756045.59183457.1756045.84532148 0l.10294688-.0860104 4.02994042-4.0311235 1.9524886 1.9529554.094378.0799987c.2645909.1889438.6243162.182934.8824481-.0147426l.091653-.0831067 2.6950552-2.8452272c.2769548-.2978791.2599924-.763874-.0378867-1.0408288z"/></svg>