<svg height="32" viewBox="0 0 32 32" width="32" xmlns="http://www.w3.org/2000/svg"><g fill="none" transform="translate(4.5 4.372984)"><path d="m14.6453647 16.8614673c2.7131232-3.2086708 2.5396815-8.04026003-.5079363-11.02593441-3.2334482-3.18389343-8.4862529-3.18389343-11.7073124 0l-.11149821.11149821c-3.13433866 3.19628212-3.0847839 8.3375886.11149821 11.4719273 3.04761783 3.0104517 7.9163731 3.1715047 11.16221.4955476l5.2156387 5.1289178c.1486642.1486643.3344946.2106077.520325.2106077.1858303 0 .3840494-.0743321.5327136-.2229964.2849399-.2973286.2849399-.7680988-.0123886-1.0530387z" fill="#005a7d"/><path d="m13.1834992 16.2544215c-.0247773.0371661-.0619434.0619434-.0991095.0991095-2.6511797 2.6140137-6.97483266 2.6140137-9.6260124 0-2.60162497-2.5520702-2.65117973-6.76422493-.08672083-9.36584991l.09910952-.09910952c1.32558987-1.31320118 3.07239521-1.95741308 4.80681187-1.95741308 1.74680534 0 3.48122194.65660059 4.80681184 1.95741308 2.6140137 2.5644589 2.6511798 6.76422493.0991095 9.36584993z" fill="#cdeae7"/><path d="m22.9922116.80920368c.0103845.07969784.0103845.16040621 0 .24010404l-.8156796 6.26009741c-.0663029.50885496-.5325604.86761429-1.0414154.8013114-.2032437-.0264823-.3920277-.11942406-.5369575-.26435389l-2.3040066-2.30366257-6.246785 6.67997323c-.2583671.2762347-.6764363.310411-.9741011.0978493l-.094378-.0799988-1.9524886-1.9529553-4.02994042 4.0311235c-.25803118.2580311-.65856904.2867013-.94826836.0860104l-.10294688-.0860104c-.25803117-.2580312-.28670131-.6585691-.08601039-.9482684l.08601039-.1029469 4.5559062-4.55590617c.25803117-.25803117.65856903-.2867013.94826836-.08601039l.10294688.08601039 1.93442812 1.93403107 5.755559-6.15470134-2.0886114-2.08895544c-.3628564-.36285634-.3628564-.95116271 0-1.31401905.1449298-.14492983.3337138-.2378716.5369575-.26435389l6.2600974-.81567959c.508855-.0663029.9751125.29245643 1.0414154.80131139z" fill="#339756"/><path d="m3.76037091 6.78652458-.07345015.10518396c-.84032058 1.24264375-1.26376353 2.81542534-1.26376353 4.73530726 0 1.9090439.38527115 3.4771579 1.14795884 4.7173776l.08023436.1226538.07645028-.0421716c.08550634-.0519303.16910821-.1057569.25046356-.1612349l.23698446-.1711433.32467648-.266445.23494293-.2196088c2.04298329-2.0040693 2.23694925-5.2311958.5167574-7.44005021l-.17840212-.21740818-.25056326-.27320396-.33162784-.31705494c-.18454524-.16371947-.37858863-.31448583-.58109288-.4518705z" fill="#fff" transform="matrix(-1 0 0 1 8.880172 0)"/><path d="m6.45701465 11.6270158c0 .4519888-.02159683.8848665-.06468626 1.2988059l-2.48224721 2.4793765c-.3497359-.3789382-.63814691-.7959561-.86484026-1.2375395l3.38307233-3.3832355c.01912683.2730542.0287014.5538992.0287014.8425926z" fill="#b8dd95"/></g></svg>