<svg height="32" viewBox="0 0 32 32" width="32" xmlns="http://www.w3.org/2000/svg"><path d="m26.5674961 4.42298982-.1102396.00746759-6.2600974.81567959c-.1923066.02505721-.3709317.11299755-.5080625.25012834-.3147193.31471928-.3409459.80868493-.0786811 1.15327728l.0786794.09002936 2.0894354 2.15755223-2.2947734 2.36828039c-.2629193-.3622962-.5572148-.7036543-.8814098-1.0212602-3.1470171-3.09878693-8.2187971-3.16334499-11.43419512-.1939295l-.20268064.1936576-.11056772.1105425-.19117361.2016452c-2.92825909 3.195475-2.80134162 8.157578.30152377 11.2003108 2.94218827 2.906308 7.63286732 3.1603367 10.93890102.6695496l.2232289-.1740809 5.2128763 5.1263975.0899978.076382c.1153216.0818184.2517095.1223966.3980319.1223966.180425 0 .3634624-.0744559.4966142-.2075917.2411385-.2516228.2623615-.6323626.0632029-.8986156l-.0745491-.0841767-5.2069221-5.183804.1760608-.2156072c1.8215359-2.3107741 2.224026-5.4370998 1.1108682-8.1665577l-.1205648-.2808923 2.5573571-2.65914015 2.3031575 2.30336105c.1371308.1371308.3157559.2250712.5080625.2501284.4444359.0579092.8545289-.2268748.9643331-.6497213l.0210412-.1084695.8156795-6.26009745c.0098257-.07540909.0098257-.15177434 0-.22718343-.0579092-.44443588-.4382694-.76786181-.8751346-.7656584zm-13.7899182 4.8311529c1.805445 0 3.5381741.69243531 4.8418272 1.97172108.2739403.2687471.5222343.5577218.7408238.8958833l.1583091.2632962-2.5675232 2.6691254-1.9307071-1.9312435-.099362-.0832798c-.2430027-.1683416-.5648285-.1619791-.8004466.0086143l-.0839934.0716504-4.5528911 4.5526087-.08327986.099362c-.16834161.2430028-.16197907.5648286.00629843.798329l.07066885.0830959.09936195.0832799c.24300278.1683416.56482858.1619791.80044238-.0086101l.08399166-.0716486 4.10023419-4.0309013 1.9498864 1.9499412.0911046.0774497c.2495329.1781909.5849656.1688087.8238361-.014464l.0846936-.0768517 2.7252679-2.80655c.8474095 2.3876257.2825517 5.0730477-1.511019 6.9001899l-.0228157.0291469-.0827915.0778317c-2.6706473 2.6332083-7.0255749 2.6332083-9.69613106.0000896-2.56397466-2.5151371-2.66423804-6.6224587-.26284548-9.2516545l.17578307-.1852444.10009904-.1000721.22560039-.2134563c1.26733424-1.14522026 2.91265264-1.75763888 4.61557734-1.75763888z"/></svg>