<svg height="32" viewBox="0 0 32 32" width="32" xmlns="http://www.w3.org/2000/svg"><path d="m15.7044238 23.4449608h-10.38996008c-1.18372893 0-2.14420416-.9601089-2.14420416-2.1437777v-5.0421052c0-1.1836694.96047371-2.1437648 2.14420416-2.1437648h21.72885358c1.183701 0 2.1437649.9600638 2.1437649 2.1437648v5.0416766c0 1.1839449-.9598813 2.1442063-2.1433363 2.1442063h-10.1393221v1.874054c.5297151.1834113.9492002.6028963 1.1326114 1.1326114h5.9629648c.3313708 0 .6.2686292.6.6 0 .3313709-.2686292.6-.6.6h-5.9629648c-.2485024.7177068-.9303732 1.2330607-1.7326114 1.2330607s-1.484109-.5153539-1.7326114-1.2330607h-5.98873324c-.33137085 0-.6-.2686291-.6-.6 0-.3313708.26862915-.6.6-.6h5.98873324c.1834112-.5297151.6028963-.9492001 1.1326114-1.1326114zm.2975565-1.2c.0592014-.0346197 3.7397899-.0346197 11.0417656 0 .5206069 0 .9433363-.4228968.9433363-.9442063v-5.0416766c0-.5209593-.4228056-.9437648-.9437649-.9437648h-21.72885358c-.52109456 0-.94420416.4229429-.94420416.9437648v5.0421052c0 .5208246.42311447.9437777.94420416.9437777zm-7.71994471-5.2073924c.96289588 0 1.74257101.7801714 1.74257101 1.7425685 0 .9623972-.77967513 1.7425685-1.74257101 1.7425685-.96239468 0-1.74256851-.7801713-1.74256851-1.7425685 0-.9623971.78017383-1.7425685 1.74256851-1.7425685zm15.47572921-.3808947c.4697352 0 .8494117.380523.8494117.8493861 0 .4688589-.3796765.8493819-.8494117.8493819-.4688419 0-.8493691-.380523-.8493691-.8493819 0-.4688631.3805272-.8493861.8493691-.8493861zm1.6987808 2.5481542c.4696927 0 .8493691.3805229.8493691.8493818 0 .4688632-.3796764.8493862-.8493691.8493862-.4688844 0-.8493691-.380523-.8493691-.8493862 0-.4688589.3804847-.8493818.8493691-.8493818zm-5.0962998-2.5481542c.4696927 0 .8493691.380523.8493691.8493861 0 .4688589-.3796764.8493819-.8493691.8493819-.4688844 0-.8494117-.380523-.8494117-.8493819 0-.4688631.3805273-.8493861.8494117-.8493861zm1.6987808 2.5481542c.4696927 0 .8493691.3805229.8493691.8493818 0 .4688632-.3796764.8493862-.8493691.8493862-.4688844 0-.8494117-.380523-.8494117-.8493862 0-.4688589.3805273-.8493818.8494117-.8493818zm-5.0963423-2.5481542c.4697352 0 .8494116.380523.8494116.8493861 0 .4688589-.3796764.8493819-.8494116.8493819-.4688419 0-.8493691-.380523-.8493691-.8493819 0-.4688631.3805272-.8493861.8493691-.8493861zm1.6987807 2.5481542c.4696927 0 .8493691.3805229.8493691.8493818 0 .4688632-.3796764.8493862-.8493691.8493862-.4688418 0-.8493691-.380523-.8493691-.8493862 0-.4688589.3805273-.8493818.8493691-.8493818zm-13.34700128-6.7598671c-1.18372893 0-2.14420416-.9601089-2.14420416-2.1437777v-5.04210517c0-1.18366946.96047371-2.14376485 2.14420416-2.14376485h21.72885358c1.183701 0 2.1437649.96006385 2.1437649 2.14376485v5.04167657c0 1.1839449-.9598813 2.1442063-2.1433363 2.1442063zm10.68751658-1.2c.0592014-.0346197 3.7397899-.0346197 11.0417656 0 .5206069 0 .9433363-.4228968.9433363-.9442063v-5.04167657c0-.5209593-.4228056-.94376485-.9437649-.94376485h-21.72885358c-.52109456 0-.94420416.42294294-.94420416.94376485v5.04210517c0 .5208246.42311447.9437777.94420416.9437777zm-7.71994471-5.20739237c.96289588 0 1.74257101.78017134 1.74257101 1.7425685 0 .96239717-.77967513 1.74256851-1.74257101 1.74256851-.96239468 0-1.74256851-.78017134-1.74256851-1.74256851 0-.96239716.78017383-1.7425685 1.74256851-1.7425685zm15.47572921-.38089471c.4697352 0 .8494117.38052298.8494117.84938613 0 .4688589-.3796765.84938188-.8494117.84938188-.4688419 0-.8493691-.38052298-.8493691-.84938188 0-.46886315.3805272-.84938613.8493691-.84938613zm1.6987808 2.54815414c.4696927 0 .8493691.38052298.8493691.84938187 0 .46886316-.3796764.84938613-.8493691.84938613-.4688844 0-.8493691-.38052297-.8493691-.84938613 0-.46885889.3804847-.84938187.8493691-.84938187zm-5.0962998-2.54815414c.4696927 0 .8493691.38052298.8493691.84938613 0 .4688589-.3796764.84938188-.8493691.84938188-.4688844 0-.8494117-.38052298-.8494117-.84938188 0-.46886315.3805273-.84938613.8494117-.84938613zm1.6987808 2.54815414c.4696927 0 .8493691.38052298.8493691.84938187 0 .46886316-.3796764.84938613-.8493691.84938613-.4688844 0-.8494117-.38052297-.8494117-.84938613 0-.46885889.3805273-.84938187.8494117-.84938187zm-5.0963423-2.54815414c.4697352 0 .8494116.38052298.8494116.84938613 0 .4688589-.3796764.84938188-.8494116.84938188-.4688419 0-.8493691-.38052298-.8493691-.84938188 0-.46886315.3805272-.84938613.8493691-.84938613zm1.6987807 2.54815414c.4696927 0 .8493691.38052298.8493691.84938187 0 .46886316-.3796764.84938613-.8493691.84938613-.4688418 0-.8493691-.38052297-.8493691-.84938613 0-.46885889.3805273-.84938187.8493691-.84938187z"/></svg>