<svg height="32" viewBox="0 0 32 32" width="32" xmlns="http://www.w3.org/2000/svg"><g fill="none" fill-rule="evenodd"><path d="m15.7044238 24.1037017v-3.5557445c0-.3313708.2686292-.6.6-.6.3313709 0 .6.2686292.6.6v3.5557445c.5297151.1834113.9492002.6028963 1.1326114 1.1326114h5.9629648c.3313708 0 .6.2686292.6.6 0 .3313709-.2686292.6-.6.6h-5.9629648c-.2485024.7177068-.9303732 1.2330607-1.7326114 1.2330607s-1.484109-.5153539-1.7326114-1.2330607h-5.98873324c-.33137085 0-.6-.2686291-.6-.6 0-.3313708.26862915-.6.6-.6h5.98873324c.1834112-.5297151.6028963-.9492001 1.1326114-1.1326114z" fill="#252d4f" fill-rule="nonzero"/><path d="m27.0437459 21.6296477h-21.72928218c-.85232801 0-1.54420416-.6914497-1.54420416-1.5437777v-5.0421051c0-.8523302.69187615-1.5437649 1.54420416-1.5437649h21.72885358c.8523302 0 1.5437649.6914347 1.5437649 1.5437649v5.0416765c0 .8527566-.6914347 1.5442063-1.5433363 1.5442063" fill="#4588a0"/><path d="m8.28203559 15.8222554c.96289588 0 1.74257101.7801713 1.74257101 1.7425685 0 .9623971-.77967513 1.7425685-1.74257101 1.7425685-.96239468 0-1.74256851-.7801714-1.74256851-1.7425685 0-.9623972.78017383-1.7425685 1.74256851-1.7425685" fill="#85cfe8"/><g fill="#3e5b63"><path d="m23.7577648 15.4413606c.4697352 0 .8494117.380523.8494117.8493862 0 .4688589-.3796765.8493818-.8494117.8493818-.4688419 0-.8493691-.3805229-.8493691-.8493818 0-.4688632.3805272-.8493862.8493691-.8493862"/><path d="m25.4565456 17.9895148c.4696927 0 .8493691.380523.8493691.8493819 0 .4688631-.3796764.8493861-.8493691.8493861-.4688844 0-.8493691-.380523-.8493691-.8493861 0-.4688589.3804847-.8493819.8493691-.8493819"/><path d="m20.3602458 15.4413606c.4696927 0 .8493691.380523.8493691.8493862 0 .4688589-.3796764.8493818-.8493691.8493818-.4688844 0-.8494117-.3805229-.8494117-.8493818 0-.4688632.3805273-.8493862.8494117-.8493862"/><path d="m22.0590266 17.9895148c.4696927 0 .8493691.380523.8493691.8493819 0 .4688631-.3796764.8493861-.8493691.8493861-.4688844 0-.8494117-.380523-.8494117-.8493861 0-.4688589.3805273-.8493819.8494117-.8493819"/><path d="m16.9626843 15.4413606c.4697352 0 .8494116.380523.8494116.8493862 0 .4688589-.3796764.8493818-.8494116.8493818-.4688419 0-.8493691-.3805229-.8493691-.8493818 0-.4688632.3805272-.8493862.8493691-.8493862"/><path d="m18.661465 17.9895148c.4696927 0 .8493691.380523.8493691.8493819 0 .4688631-.3796764.8493861-.8493691.8493861-.4688418 0-.8493691-.380523-.8493691-.8493861 0-.4688589.3805273-.8493819.8493691-.8493819"/></g><path d="m27.0437459 11.6296477h-21.72928218c-.85232801 0-1.54420416-.6914497-1.54420416-1.5437777v-5.04210514c0-.85233016.69187615-1.54376486 1.54420416-1.54376486h21.72885358c.8523302 0 1.5437649.6914347 1.5437649 1.54376486v5.04167654c0 .8527566-.6914347 1.5442063-1.5433363 1.5442063" fill="#4588a0"/><path d="m8.28203559 5.82225535c.96289588 0 1.74257101.78017134 1.74257101 1.74256851s-.77967513 1.7425685-1.74257101 1.7425685c-.96239468 0-1.74256851-.78017133-1.74256851-1.7425685s.78017383-1.74256851 1.74256851-1.74256851" fill="#85cfe8"/><g fill="#3e5b63"><path d="m23.7577648 5.44136064c.4697352 0 .8494117.38052298.8494117.84938613 0 .4688589-.3796765.84938188-.8494117.84938188-.4688419 0-.8493691-.38052298-.8493691-.84938188 0-.46886315.3805272-.84938613.8493691-.84938613"/><path d="m25.4565456 7.98951478c.4696927 0 .8493691.38052298.8493691.84938188 0 .46886315-.3796764.84938613-.8493691.84938613-.4688844 0-.8493691-.38052298-.8493691-.84938613 0-.4688589.3804847-.84938188.8493691-.84938188"/><path d="m20.3602458 5.44136064c.4696927 0 .8493691.38052298.8493691.84938613 0 .4688589-.3796764.84938188-.8493691.84938188-.4688844 0-.8494117-.38052298-.8494117-.84938188 0-.46886315.3805273-.84938613.8494117-.84938613"/><path d="m22.0590266 7.98951478c.4696927 0 .8493691.38052298.8493691.84938188 0 .46886315-.3796764.84938613-.8493691.84938613-.4688844 0-.8494117-.38052298-.8494117-.84938613 0-.4688589.3805273-.84938188.8494117-.84938188"/><path d="m16.9626843 5.44136064c.4697352 0 .8494116.38052298.8494116.84938613 0 .4688589-.3796764.84938188-.8494116.84938188-.4688419 0-.8493691-.38052298-.8493691-.84938188 0-.46886315.3805272-.84938613.8493691-.84938613"/><path d="m18.661465 7.98951478c.4696927 0 .8493691.38052298.8493691.84938188 0 .46886315-.3796764.84938613-.8493691.84938613-.4688418 0-.8493691-.38052298-.8493691-.84938613 0-.4688589.3805273-.84938188.8493691-.84938188"/></g></g></svg>