<svg height="32" viewBox="0 0 32 32" width="32" xmlns="http://www.w3.org/2000/svg"><path d="m9.86728586 5.145h-1.18c-.95747455 0-1.85752988.41348526-2.46810054 1.13506877-.60466061.71663428-.86671021 1.64259095-.72298491 2.56022172l.89996829 5.76979711.04193204.2363625.05266084.2368112c.51777043 2.1127027 2.20988143 3.7149613 4.35741922 4.136036l.1938192.0337027.0002859 3.8770141c0 2.0514936 1.6875287 3.7249859 3.755 3.7249859 2.0719878 0 3.755-1.6679647 3.755-3.725v-2.31c0-1.0313364.855359-1.875 1.905-1.875l.1480037.0054563.1603837.018472c.7919679.1255198 1.4271762.7411893 1.567818 1.5212149l.0055087.0448568-.0860575.0265561c-1.3118495.4379047-2.2206566 1.657942-2.2206566 3.0584439 0 1.7771408 1.4631096 3.225 3.255 3.225 1.7974371 0 3.2550743-1.4434574 3.2550743-3.225l-.0041096-.1823117-.0154743-.1873118c-.1395486-1.2396685-1.0003363-2.2900967-2.1923121-2.6889627l-.1204642-.0374138-.0122893-.1368865c-.2152139-1.8548754-1.8060782-3.2921135-3.7304248-3.2921135-2.0719879 0-3.755 1.6679647-3.755 3.725v2.31c0 1.0313364-.8553591 1.875-1.905 1.875l-.1430666-.0051111-.1399299-.0154384-.1514389-.0281083c-.845637-.1928442-1.4705646-.9476776-1.4705646-1.8263422l-.0012859-3.877.1801405-.0307564c2.3083727-.4464639 4.0917236-2.2600828 4.4670804-4.6110019l.9001821-5.77115407c.1442811-.91007395-.1202504-1.84562973-.7227224-2.55967069-.6108486-.72191253-1.5108948-1.13541694-2.4683947-1.13541694h-1.15c-.5094926 0-.925.41550746-.925.925s.4155074.925.925.925h1.15c.4108536 0 .7930154.17534806 1.0646142.48809816.2564242.2964915.3686036.68866011.3049939 1.06236705l-.9007252 5.77444679c-.2848638 1.8286417-1.8558507 3.155088-3.7388829 3.155088-1.8830287 0-3.45401862-1.3264429-3.73887309-3.1550248l-.90000979-5.7700628c-.05713876-.39191423.05189444-.77500559.30470087-1.06731302.27118571-.31227348.65335751-.48759938 1.06418197-.48759938h1.15c.50949254 0 .92500004-.41550746.92500004-.925s-.4155075-.925-.92500004-.925z" fill="#1f2325"/></svg>