<svg height="32" viewBox="0 0 32 32" width="32" xmlns="http://www.w3.org/2000/svg"><path d="m23.6644021 24.4293317-.5046885 4.5197402c-.0553737.4958996-.6566379.7114528-1.0144659.3636859l-1.6683838-1.6214729c-3.2823679 1.8267757-7.5040524 1.3461264-10.2921267-1.4419478-.23431456-.2343146-.23431456-.6142136 0-.8485282.2343146-.2343145.6142136-.2343145.8485282 0 2.3099203 2.3099204 5.7628904 2.7800703 8.5381124 1.4104499l-1.5571421-1.5133591c-.3640813-.3538442-.151508-.9717732.353209-1.0267428l4.6357005-.5048821c.3818412-.041587.7038817.2813301.6612569.6630569zm2.1190519-12.2656448c1.0725275 0 1.9424042.8698767 1.9424042 1.9424042v4.3840665c0 1.0727327-.869711 1.9427881-1.9420315 1.9427881h-18.89502797c-1.07254511 0-1.94278623-.8699092-1.94278623-1.9424154v-4.3844392c0-1.072507.87024001-1.9424042 1.94278623-1.9424042zm0 1.2h-18.89465527c-.40991032 0-.74278623.3327447-.74278623.7424042v4.3844392c0 .409662.33288036.7424154.74278623.7424154h18.89502797c.4094724 0 .7420315-.3326908.7420315-.7427881v-4.3840665c0-.4097858-.3326184-.7424042-.7424042-.7424042zm-1.4891519 3.3039258c.4084285 0 .7385819.3308896.7385819.738593 0 .4077071-.3301534.7385966-.7385819.7385966-.4077256 0-.7385818-.3308895-.7385818-.7385966 0-.4077034.3308562-.738593.7385818-.738593zm-2.9543643 0c.4084284 0 .7385818.3308896.7385818.738593 0 .4077071-.3301534.7385966-.7385818.7385966-.4077256 0-.7386188-.3308895-.7386188-.7385966 0-.4077034.3308932-.738593.7386188-.738593zm-2.9544014 0c.4084285 0 .7385819.3308896.7385819.738593 0 .4077071-.3301534.7385966-.7385819.7385966-.4076886 0-.7385818-.3308895-.7385818-.7385966 0-.4077034.3308932-.738593.7385818-.738593zm-9.02559078-1.8845734c.83730078 0 1.51527908.6784099 1.51527908 1.515277s-.6779783 1.515277-1.51527908 1.515277c-.83686493 0-1.51527696-.6784099-1.51527696-1.515277s.67841203-1.515277 1.51527696-1.515277zm13.45715588-.3312128c.4084654 0 .7386188.3308896.7386188.7385967 0 .4077034-.3301534.7385929-.7386188.7385929-.4076886 0-.7385819-.3308895-.7385819-.7385929 0-.4077071.3308933-.7385967.7385819-.7385967zm-2.9543644 0c.4084284 0 .7385819.3308896.7385819.7385967 0 .4077034-.3301535.7385929-.7385819.7385929-.4077256 0-.7386188-.3308895-.7386188-.7385929 0-.4077071.3308932-.7385967.7386188-.7385967zm-2.9544013 0c.4084654 0 .7386188.3308896.7386188.7385967 0 .4077034-.3301534.7385929-.7386188.7385929-.4076886 0-.7385819-.3308895-.7385819-.7385929 0-.4077071.3308933-.7385967.7385819-.7385967zm-5.8655208-10.83923778 1.6722975 1.62527655c3.2823578-1.82672948 7.5040017-1.3460671 10.2920559 1.44198714.2343146.23431458.2343146.61421356 0 .84852814-.2343146.23431457-.6142135.23431457-.8485281 0-2.3098999-2.30989987-5.7628293-2.78006196-8.5380387-1.41048627l1.5532254 1.50955257c.3640813.35384421.151508.97177323-.353209 1.02674283l-4.6357005.5048821c-.3818412.04158698-.7038817-.28133014-.66125688-.6630569l.50468848-4.51974023c.0553738-.49589964.6566379-.71145276 1.0144659-.36368593z"/></svg>