<svg height="32" viewBox="0 0 32 32" width="32" xmlns="http://www.w3.org/2000/svg"><path d="m23.8972859 20.78c-.02-1.86-1.55-3.36-3.43-3.36-1.89 0-3.43 1.52-3.43 3.4v2.31c0 1.21-1 2.2-2.23 2.2s-2.23-.99-2.23-2.2v-4.16c2.37-.26 4.27-2.03 4.65-4.41l.9-5.77c.13-.82-.11-1.66-.65-2.3-.55-.65-1.36-1.02-2.22-1.02h-1.15c-.33 0-.6.27-.6.6s.27.6.6.6h1.15c.51 0 .98.22 1.31.6.32.37.46.86.38 1.33l-.9 5.77c-.31 1.99-2.02 3.43-4.06 3.43-2.04000004 0-3.75000004-1.44-4.06000004-3.43l-.9-5.77c-.07-.48.06-.96.38-1.33.33-.38.8-.6 1.31-.6h1.15c.33000004 0 .60000004-.27.60000004-.6s-.27-.6-.60000004-.6h-1.18c-.86 0-1.67.37-2.22 1.02-.54.64-.78 1.47-.65 2.3l.9 5.77c.37 2.38 2.28 4.15 4.65000004 4.41v4.16c0 1.87 1.54 3.4 3.43 3.4s3.43-1.52 3.43-3.4v-2.31c0-1.21 1-2.2 2.23-2.2 1.22 0 2.21.97 2.23 2.16-1.33.28-2.33 1.44-2.33 2.84 0 1.6 1.32 2.9 2.93 2.9 1.62 0 2.9300743-1.3 2.9300743-2.9.0099257-1.39-.9900743-2.56-2.3200743-2.84zm-.6 4.55c-.96 0-1.73-.76-1.73-1.7s.78-1.7 1.73-1.7 1.73.76 1.73 1.7c0 .93-.78 1.7-1.73 1.7z"/></svg>