<svg height="32" viewBox="0 0 32 32" width="32" xmlns="http://www.w3.org/2000/svg"><g fill="none" fill-rule="evenodd"><path d="m27.7337677 20.5174901h-22.86298386c-.8967973 0-1.62477134-.7275253-1.62477134-1.6243226v-5.3051715c0-.8967996.72797404-1.6243091 1.62477134-1.6243091h22.86253286c.8967996 0 1.6243092.7275095 1.6243092 1.6243091v5.3047205c0 .8972483-.7275096 1.6247736-1.6238582 1.6247736" fill="#4588a0"/><path d="m7.86087158 14.4071034c1.01313393 0 1.83348774.8208759 1.83348774 1.8334851s-.82035381 1.8334851-1.83348774 1.8334851c-1.01260658 0-1.83348513-.8208759-1.83348513-1.8334851s.82087855-1.8334851 1.83348513-1.8334851" fill="#85cfe8"/><g fill="#3e5b63"><path d="m24.1440301 14.0063359c.4942432 0 .8937288.4003763.8937288.8937019 0 .4933211-.3994856.8936975-.8937288.8936975-.4933032 0-.893684-.4003764-.893684-.8936975 0-.4933256.4003808-.8937019.893684-.8937019"/><path d="m25.931443 16.6874372c.4941984 0 .893684.4003763.893684.8936974 0 .4933256-.3994856.893702-.893684.893702-.493348 0-.8936841-.4003764-.8936841-.893702 0-.4933211.4003361-.8936974.8936841-.8936974"/><path d="m20.5692493 14.0063359c.4941984 0 .893684.4003763.893684.8937019 0 .4933211-.3994856.8936975-.893684.8936975-.493348 0-.8937288-.4003764-.8937288-.8936975 0-.4933256.4003808-.8937019.8937288-.8937019"/><path d="m22.3566621 16.6874372c.4941984 0 .893684.4003763.893684.8936974 0 .4933256-.3994856.893702-.893684.893702-.493348 0-.8937288-.4003764-.8937288-.893702 0-.4933211.4003808-.8936974.8937288-.8936974"/><path d="m16.9944237 14.0063359c.4942431 0 .8937287.4003763.8937287.8937019 0 .4933211-.3994856.8936975-.8937287.8936975-.4933032 0-.8936841-.4003764-.8936841-.8936975 0-.4933256.4003809-.8937019.8936841-.8937019"/><path d="m18.7818365 16.6874372c.4941984 0 .893684.4003763.893684.8936974 0 .4933256-.3994856.893702-.893684.893702-.4933032 0-.8936841-.4003764-.8936841-.893702 0-.4933211.4003809-.8936974.8936841-.8936974"/></g><g fill="#b75c64" fill-rule="nonzero"><path d="m15.2868566 9.93866129c-1.8267295-3.28235783-1.3460672-7.50400171 1.4419871-10.29205595.2343146-.23431458.6142136-.23431458.8485281 0 .2343146.23431457.2343146.61421356 0 .84852813-2.3098998 2.30989987-2.7800619 5.76282932-1.4104862 8.53803869l1.5095525-1.55322543c.3538442-.36408128.9717733-.151508 1.0267429.353209l.5048821 4.63570047c.0415869.3818412-.2813302.7038818-.6630569.6612569l-4.5197403-.5046885c-.4958996-.0553737-.7114527-.6566378-.3636859-1.0144659z" transform="matrix(0 1 -1 0 22.653774 -10.048992)"/><path d="m17.9069312 22.9846931c1.8267757 3.2823679 1.3461265 7.5040524-1.4419478 10.2921267-.2343146.2343145-.6142136.2343145-.8485281 0-.2343146-.2343146-.2343146-.6142136 0-.8485282 2.3099203-2.3099203 2.7800702-5.7628905 1.4104498-8.5381124l-1.5133591 1.5571421c-.3538442.3640813-.9717732.151508-1.0267428-.353209l-.5048821-4.6357005c-.041587-.3818412.2813302-.7038817.6630569-.6612569l4.5197402.5046885c.4958997.0553737.7114528.6566378.363686 1.0144659z" transform="matrix(0 1 -1 0 43.461557 9.784353)"/></g></g></svg>