<svg height="32" viewBox="0 0 32 32" width="32" xmlns="http://www.w3.org/2000/svg"><path d="m23.6644021 24.4293317-.5046885 4.5197402c-.0553737.4958996-.6566379.7114528-1.0144659.3636859l-1.6683838-1.6214729c-3.2823679 1.8267757-7.5040524 1.3461264-10.2921267-1.4419478-.23431456-.2343146-.23431456-.6142136 0-.8485282.2343146-.2343145.6142136-.2343145.8485282 0 2.3099203 2.3099204 5.7628904 2.7800703 8.5381124 1.4104499l-1.5571421-1.5133591c-.3640813-.3538442-.151508-.9717732.353209-1.0267428l4.6357005-.5048821c.3818412-.041587.7038817.2813301.6612569.6630569zm4.0689146-12.4656448c.8967996 0 1.6243092.7275095 1.6243092 1.6243091v5.3047205c0 .8972483-.7275096 1.6247736-1.6238582 1.6247736h-22.86298386c-.8967973 0-1.62477134-.7275253-1.62477134-1.6243226v-5.3051715c0-.8967996.72797404-1.6243091 1.62477134-1.6243091zm-1.8018737 4.7237503c-.493348 0-.8936841.4003763-.8936841.8936974 0 .4933256.4003361.893702.8936841.893702.4941984 0 .893684-.4003764.893684-.893702 0-.4933211-.3994856-.8936974-.893684-.8936974zm-3.5747809 0c-.493348 0-.8937288.4003763-.8937288.8936974 0 .4933256.4003808.893702.8937288.893702.4941984 0 .893684-.4003764.893684-.893702 0-.4933211-.3994856-.8936974-.893684-.8936974zm-3.5748256 0c-.4933032 0-.8936841.4003763-.8936841.8936974 0 .4933256.4003809.893702.8936841.893702.4941984 0 .893684-.4003764.893684-.893702 0-.4933211-.3994856-.8936974-.893684-.8936974zm-10.92096492-2.2803338c-1.01260658 0-1.83348513.8208759-1.83348513 1.8334851s.82087855 1.8334851 1.83348513 1.8334851c1.01313393 0 1.83348774-.8208759 1.83348774-1.8334851s-.82035381-1.8334851-1.83348774-1.8334851zm16.28315852-.4007675c-.4933032 0-.893684.4003763-.893684.8937019 0 .4933211.4003808.8936975.893684.8936975.4942432 0 .8937288-.4003764.8937288-.8936975 0-.4933256-.3994856-.8937019-.8937288-.8937019zm-3.5747808 0c-.493348 0-.8937288.4003763-.8937288.8937019 0 .4933211.4003808.8936975.8937288.8936975.4941984 0 .893684-.4003764.893684-.8936975 0-.4933256-.3994856-.8937019-.893684-.8937019zm-3.5748256 0c-.4933032 0-.8936841.4003763-.8936841.8937019 0 .4933211.4003809.8936975.8936841.8936975.4942431 0 .8937287-.4003764.8937287-.8936975 0-.4933256-.3994856-.8937019-.8937287-.8937019zm-5.9516087-10.39374718 1.6722975 1.62527655c3.2823578-1.82672948 7.5040017-1.3460671 10.2920559 1.44198714.2343146.23431458.2343146.61421356 0 .84852814-.2343146.23431457-.6142135.23431457-.8485281 0-2.3098999-2.30989987-5.7628293-2.78006196-8.5380387-1.41048627l1.5532254 1.50955257c.3640813.35384421.151508.97177323-.353209 1.02674283l-4.6357005.5048821c-.3818412.04158698-.7038817-.28133014-.66125688-.6630569l.50468848-4.51974023c.0553738-.49589964.6566379-.71145276 1.0144659-.36368593z" fill-rule="evenodd"/></svg>