<svg height="32" viewBox="0 0 32 32" width="32" xmlns="http://www.w3.org/2000/svg"><path d="m9.95663513 21.1887558c.24429877.1710598.32216337.4912091.19673487.7514103l-.0493895.0842268-2.30190657 3.2874632c-.17105986.2442988-.4912091.3221634-.75141037.1967349l-.08422672-.0493895-1.64915919-1.1547537c-.27144311-.1900665-.33741188-.564194-.14734536-.8356371.17105986-.2442988.49120909-.3221634.75141037-.1967348l.08422671.0493894 1.15766797.8106079 1.9577607-2.7959721c.19006652-.2714431.56419398-.3374118.83563709-.1473453zm5.50473697 2.5789545c.33 0 .6.27.6.6 0 .297-.2187.5454-.50301.59211l-.09699.00789h-3.9350511c-.33 0-.6-.27-.6-.6 0-.297.2187-.5454.50301-.59211l.09699-.00789zm10.5659351-10.3999486c.4666974 0 .8524527.3524198.9051795.8051729l.0061412.1061479v1.0533019c0 1.0806765-.430307 2.1166661-1.1882324 2.8765407l-.1673898.1585197-1.2221641 1.1003169 1.2222644 1.1004072c.800845.7213285 1.2830696 1.7332343 1.3438069 2.8045723l.0065264.2303979v1.0533019c0 .4666974-.3524198.8524527-.805173.9051795l-.1061478.0061412h-6.9165094c-.4666975 0-.8524528-.3524197-.9051796-.8051729l-.0061412-.1061478v-1.0533019c0-1.0786491.428835-2.1143762 1.1837195-2.8761098l.166714-.1589507 1.2221641-1.1003169-1.2222643-1.1004072c-.800845-.7213285-1.2830697-1.7332343-1.343807-2.8045723l-.0065263-.2303978v-1.0533019c0-.4666975.3524198-.8524528.8051729-.9051796l.1061479-.0061412zm-.2886793 1.2h-6.3443396v.7646227c0 .747767.2924925 1.4674651.8074377 2.0021294l.1459024.141112 1.7174528 1.5462264c.2382561.2145025.2620817.5722217.0714768.8153675l-.0714768.0764515-1.7173526 1.5461362c-.5549042.4998073-.8936387 1.1988421-.946241 1.940209l-.0071993.2031227v.7646226h6.339151v-.7646226c0-.7477671-.2924926-1.4674652-.8074378-2.0021295l-.1459023-.141112-1.7174528-1.5462264c-.2382561-.2145024-.2620817-.5722217-.0714769-.8153675l.0714769-.0764515 1.7189212-1.5475441c.5576553-.498748.8971391-1.1966969.9498471-1.9386103l.0072132-.2033134zm-15.78199277-.9404105c.24429877.1710598.32216337.4912091.19673487.7514103l-.0493895.0842268-2.30190657 3.2874632c-.17105986.2442988-.4912091.3221634-.75141037.1967349l-.08422672-.0493895-1.64915919-1.1547537c-.27144311-.1900665-.33741188-.564194-.14734536-.8356371.17105986-.2442988.49120909-.3221634.75141037-.1967348l.08422671.0493895 1.15766797.8106078 1.9577607-2.7959721c.19006652-.2714431.56419398-.3374118.83563709-.1473453zm5.50473697 2.5789545c.33 0 .6.27.6.6 0 .297-.2187.5454-.50301.59211l-.09699.00789h-3.9350511c-.33 0-.6-.27-.6-.6 0-.297.2187-.5454.50301-.59211l.09699-.00789zm-5.50473697-9.66550719c.24429877.17105986.32216337.49120909.19673487.75141037l-.0493895.08422671-2.30190657 3.28746331c-.17105986.2442988-.4912091.3221634-.75141037.1967348l-.08422672-.0493895-1.64915919-1.15475366c-.27144311-.19006651-.33741188-.56419398-.14734536-.83563709.17105986-.2442988.49120909-.32216338.75141037-.19673482l.08422671.04938946 1.15766797.81060783 1.9577607-2.79597205c.19006652-.27144311.56419398-.33741188.83563709-.14734536zm16.38199277 2.5789545c.33 0 .6.27.6.6 0 .29699999-.2187.54539999-.50301.59210999l-.09699.00789h-14.8123069c-.33 0-.6-.27-.6-.59999999 0-.297.2187-.5454.50301-.59211l.09699-.00789z"/></svg>