<svg height="32" viewBox="0 0 32 32" width="32" xmlns="http://www.w3.org/2000/svg"><g fill="none"><path d="m7.126 23.923-1.03439416-.7244075-.09438791-.0559111c-.33974398-.16432-.73854487-.0621227-.95015845.2400928-.23758314.3393039-.15512218.8069633.18418171 1.0445464l1.64915918 1.1547537.09438792.0559112c.33974398.1643199.73854486.0621226.95015845-.2400929l2.30190656-3.2874633.0559112-.0943879c.1643199-.339744.0621226-.7385449-.2400929-.9501584-.33930389-.2375832-.80696322-.1551222-1.04454636.1841817z" fill="#4da86d"/><path d="m16.4613721 23.6177103h-3.9350511l-.1091521.0083838c-.3717566.0605702-.6408479.3739564-.6408479.7416162 0 .4128427.3371573.75.75.75h3.9350511l.1091521-.0083839c.3717566-.0605702.6408479-.3739563.6408479-.7416161 0-.4128427-.3371573-.75-.75-.75z" fill="#3e5b63"/><path d="m7.126 16.361-1.03439416-.7238121-.09438791-.0559111c-.33974398-.16432-.73854487-.0621227-.95015845.2400929-.23758314.3393038-.15512218.8069632.18418171 1.0445463l1.64915918 1.1547537.09438792.0559112c.33974398.1643199.73854486.0621226.95015845-.2400929l2.30190656-3.2874633.0559112-.0943879c.1643199-.339744.0621226-.7385449-.2400929-.9501584-.33930389-.2375832-.80696322-.1551222-1.04454636.1841817z" fill="#4da86d"/><path d="m16.4613721 16.0563057h-3.9350511l-.1091521.0083838c-.3717566.0605702-.6408479.3739564-.6408479.7416162 0 .4128427.3371573.75.75.75h3.9350511l.1091521-.0083839c.3717566-.0605702.6408479-.3739563.6408479-.7416161 0-.4128427-.3371573-.75-.75-.75z" fill="#3e5b63"/><path d="m7.126 9.275-1.03439416-.72436472-.09438791-.05591117c-.33974398-.16431993-.73854487-.06212264-.95015845.24009288-.23758314.33930388-.15512218.80696322.18418171 1.04454636l1.64915918 1.15475365.09438792.0559112c.33974398.1643199.73854486.0621227.95015845-.2400929l2.30190656-3.28746324.0559112-.09438791c.1643199-.33974398.0621226-.73854487-.2400929-.95015845-.33930389-.23758314-.80696322-.15512218-1.04454636.1841817z" fill="#4da86d"/><path d="m26.1238698 8.96975301h-13.5975488l-.1091521.00838387c-.3717566.06057017-.6408479.37395631-.6408479.74161613 0 .41284269.3371573.74999999.75.74999999h13.5975488l.1091521-.0083839c.3717566-.0605701.6408479-.3739563.6408479-.74161609 0-.41284271-.3371573-.75-.75-.75z" fill="#3e5b63"/><path d="m25.7312541 17.2721839-2.0423005 1.8350085c-.1638536.1499085-.1778678.4043206-.0451116.5536017l.0430795.0436946 2.0432542 1.8358793c.7702374.6905577 1.2117319 1.6872434 1.2117319 2.7280937v.5773c0 .3313709-.2686292.6-.6.6h-6.8094331c-.3313709 0-.6-.2686291-.6-.6v-.5773c0-1.0333978.4418157-2.0252653 1.2113529-2.727873l2.0416949-1.8344651c.0836929-.0764152.1293406-.171222.1330849-.2823985.0066001-.102301-.028883-.2016538-.0882003-.2709958l-.0430795-.0436946-2.0432542-1.8358793c-.7702144-.6905371-1.2115987-1.6872114-1.2115987-2.7280937v-.5773c0-.3313708.2686291-.6.6-.6h6.8094331c.3313708 0 .6.2686292.6.6v.5753665c.0064877 1.0347254-.4358532 2.0277279-1.2106535 2.7290557z" fill="#c33c75"/></g></svg>