<svg height="32" viewBox="0 0 32 32" width="32" xmlns="http://www.w3.org/2000/svg"><path d="m9.95663513 21.1887558c.24429877.1710598.32216337.4912091.19673487.7514103l-.0493895.0842268-2.30190657 3.2874632c-.17105986.2442988-.4912091.3221634-.75141037.1967349l-.08422672-.0493895-1.64915919-1.1547537c-.27144311-.1900665-.33741188-.564194-.14734536-.8356371.17105986-.2442988.49120909-.3221634.75141037-.1967348l.08422671.0493894 1.15766797.8106079 1.9577607-2.7959721c.19006652-.2714431.56419398-.3374118.83563709-.1473453zm5.50473697 2.5789545c.33 0 .6.27.6.6 0 .297-.2187.5454-.50301.59211l-.09699.00789h-3.9350511c-.33 0-.6-.27-.6-.6 0-.297.2187-.5454.50301-.59211l.09699-.00789zm-5.50473697-10.1403591c.24429877.1710598.32216337.4912091.19673487.7514103l-.0493895.0842268-2.30190657 3.2874632c-.17105986.2442988-.4912091.3221634-.75141037.1967349l-.08422672-.0493895-1.64915919-1.1547537c-.27144311-.1900665-.33741188-.564194-.14734536-.8356371.17105986-.2442988.49120909-.3221634.75141037-.1967348l.08422671.0493895 1.15766797.8106078 1.9577607-2.7959721c.19006652-.2714431.56419398-.3374118.83563709-.1473453zm5.50473697 2.5789545c.33 0 .6.27.6.6 0 .297-.2187.5454-.50301.59211l-.09699.00789h-3.9350511c-.33 0-.6-.27-.6-.6 0-.297.2187-.5454.50301-.59211l.09699-.00789zm-5.50473697-9.66550719c.24429877.17105986.32216337.49120909.19673487.75141037l-.0493895.08422671-2.30190657 3.28746331c-.17105986.2442988-.4912091.3221634-.75141037.1967348l-.08422672-.0493895-1.64915919-1.15475366c-.27144311-.19006651-.33741188-.56419398-.14734536-.83563709.17105986-.2442988.49120909-.32216338.75141037-.19673482l.08422671.04938946 1.15766797.81060783 1.9577607-2.79597205c.19006652-.27144311.56419398-.33741188.83563709-.14734536zm16.38527247 6.82696319c.3313708 0 .6.2686292.6.6v.5753665c.0064877 1.0347254-.4358532 2.0277279-1.2106535 2.7290557l-2.0423005 1.8350085c-.1638536.1499085-.1778678.4043206-.0451116.5536017l.0430795.0436946 2.0432542 1.8358793c.7702374.6905577 1.2117319 1.6872434 1.2117319 2.7280937v.5773c0 .3313709-.2686292.6-.6.6h-6.8094331c-.3313709 0-.6-.2686291-.6-.6v-.5773c0-1.0333978.4418157-2.0252653 1.2113529-2.727873l2.0416949-1.8344651c.0836929-.0764152.1293406-.171222.1330849-.2823985.0066001-.102301-.028883-.2016538-.0882003-.2709958l-.0430795-.0436946-2.0432542-1.8358793c-.7702144-.6905371-1.2115987-1.6872114-1.2115987-2.7280937v-.5773c0-.3313708.2686291-.6.6-.6zm-.0032797-4.24800869c.33 0 .6.27.6.6 0 .29699999-.2187.54539999-.50301.59210999l-.09699.00789h-14.8123069c-.33 0-.6-.27-.6-.59999999 0-.297.2187-.5454.50301-.59211l.09699-.00789z"/></svg>