<svg height="32" viewBox="0 0 32 32" width="32" xmlns="http://www.w3.org/2000/svg"><path d="m25.6805585 14.5832532c.29 0 .54.21.59.5.8048149 4.7405555-2.1665294 9.307716-6.711095 10.5908953l-.258905.0691047.27 1.47c.04.22-.05.45-.24.59-.1628571.12-.3697959.1444898-.5515451.0797667l-.0884549-.0397667-2.96-1.62c-.16-.09-.27-.24-.3-.42-.024-.144.0032-.288.07648-.41152l.06352-.08848 2.2-2.51c.11-.13.28-.2.45-.2.05 0 .11.01.16.02.1885715.0514285.3404082.1910204.4051312.3746938l.0248688.0953062.27 1.48c4.05-1.05 6.72-5.09 6.01-9.28-.06-.33.16-.63.49-.69.03-.01.07-.01.1-.01zm-4.6475712-2.3516353c.3306274.3197755.3280503.8462739-.0023448 1.1653852l-6.3584567 6.3471668c-.151087.1648223-.3680884.2577683-.5917151.2577683-.2155297 0-.4214726-.0868584-.5763988-.2417848l-3.1954191-3.1902662c-.31041821-.3239146-.3071011-.8365873.0150414-1.1585356.3230138-.3095548.8356756-.3079786 1.1507777.0071238l2.6111509 2.6064714 5.801129-5.7959682c.3220156-.3085983.832654-.3080554 1.1462355.0026393zm-8.9615408-8.11692915c.1628572-.12.369796-.14448979.5515452-.07976676l.0884548.03976676 2.96 1.62c.16.09.27.24.3.42.024.144-.0032.288-.07648.41152l-.06352.08848-2.2 2.51c-.11.13-.28.2-.45.2-.05 0-.11-.01-.16-.02-.1885714-.05142857-.3404081-.1910204-.4051312-.37469387l-.0248688-.09530613-.27-1.48c-4.04999997 1.05-6.71999997 5.09000005-6.00999997 9.28000005.06.33-.16.63-.49.69-.03.01-.07.01-.1.01-.29 0-.54-.21-.59-.5-.80481481-4.7405556 2.16652949-9.3077161 6.71109507-10.59089543l.2589049-.06910462-.27-1.47c-.04-.22.05-.45.24-.59z"/></svg>