<svg height="32" viewBox="0 0 32 32" width="32" xmlns="http://www.w3.org/2000/svg"><g fill="none"><path d="m14.6721858 19.7441699c-.151087.1648223-.3680884.2577683-.5917151.2577683-.2155297 0-.4214726-.0868584-.5763988-.2417848l-3.1954191-3.1902662c-.31041821-.3239146-.3071011-.8365873.0150414-1.1585356.3230138-.3095548.8356756-.3079786 1.1507777.0071238l2.6111509 2.6064714 5.801129-5.7959682c.3220156-.3085983.832654-.3080554 1.1462355.0026393.3306274.3197755.3280503.8462739-.0023448 1.1653852z" fill="#4da86d"/><g fill="#252d4f"><path d="m22.7435005 17.9379419.27 1.48c.04.23.21.41.43.47.05.01.11.02.16.02.17 0 .34-.07.45-.2l2.2-2.51c.12-.14.17-.32.14-.5s-.14-.33-.3-.42l-2.96-1.62c-.2-.11-.45-.1-.64.04s-.28.37-.24.59l.27 1.47c-4.69 1.18-7.79 5.83-6.97 10.66.05.29.3.5.59.5.03 0 .07 0 .1-.01.33-.06.55-.36.49-.69-.71-4.19 1.96-8.23 6.01-9.28z" transform="matrix(-1 0 0 -1 41.82406 42.501196)"/><path d="m12.3214465 7.35468875.27 1.48c.04.23.21.41.43.47.05.01.11.02.16.02.17 0 .34-.07.45-.2l2.2-2.51c.12-.14.17-.32.14-.5s-.14-.33-.3-.42l-2.96-1.62c-.2-.11-.45-.1-.64.04s-.28.37-.24.59l.27 1.47c-4.68999997 1.18-7.78999997 5.83000005-6.96999997 10.66000005.05.29.3.5.59.5.03 0 .07 0 .1-.01.33-.06.55-.36.49-.69-.71-4.19 1.96-8.23000005 6.00999997-9.28000005z"/></g></g></svg>