<svg height="32" viewBox="0 0 32 32" width="32" xmlns="http://www.w3.org/2000/svg"><path d="m21.1801018 12.4111881c.2297345.2221941.2261406.5867061-.0035746.8071665l-6.3677124 6.3567532c-.1047773.1143025-.2555699.1766994-.4074265.1766994-.1485196 0-.2910909-.06003-.3997672-.1687065l-3.1915538-3.1863208c-.2154852-.2248542-.2154852-.5821362.0075208-.8050622.2248542-.2154853.5821362-.2154853.8011832.0035619l2.7878488 2.7828527 5.9740255-5.9687876c.2242106-.2148685.580092-.2154835.7994562.0018434zm-8.4714948-7.76884372c.19-.14.44-.15.64-.04l2.96 1.62c.16.09.27.24.3.42s-.02.36-.14.5l-2.2 2.51c-.11.13-.28.2-.45.2-.05 0-.11-.01-.16-.02-.22-.06-.39-.24-.43-.47l-.27-1.48c-4.04999997 1.05-6.71999997 5.09000002-6.00999997 9.28000002.06.33-.16.63-.49.69-.03.01-.07.01-.1.01-.29 0-.54-.21-.59-.5-.82-4.83 2.28-9.48000002 6.96999997-10.66000002l-.27-1.47c-.04-.22.05-.45.24-.59zm6.332786 19.47531122-.27-1.48c-.04-.23-.21-.41-.43-.47-.05-.01-.11-.02-.16-.02-.17 0-.34.07-.45.2l-2.2 2.51c-.12.14-.17.32-.14.5s.14.33.3.42l2.96 1.62c.2.11.45.1.64-.04s.28-.37.24-.59l-.27-1.47c4.69-1.18 7.79-5.83 6.97-10.66-.05-.29-.3-.5-.59-.5-.03 0-.07 0-.1.01-.33.06-.55.36-.49.69.71 4.19-1.96 8.23-6.01 9.28z"/></svg>