<svg width="32" height="32" viewBox="0 0 32 32" fill="none" xmlns="http://www.w3.org/2000/svg">
<path d="M24.0386 11.4096C24.4789 11.4096 24.8385 11.05 24.8385 10.6096C24.8385 10.1691 24.4789 9.80956 24.0385 9.80956H19.7375C19.297 9.80956 18.9375 10.1691 18.9375 10.6096C18.9375 11.0509 19.2979 11.4196 19.7375 11.4196L24.0386 11.4096Z" fill="#7EA1AA"/>
<path d="M14.3809 11.4096C14.8213 11.4096 15.1808 11.05 15.1808 10.6096C15.1808 10.1691 14.8213 9.80956 14.3808 9.80956H8.03828C7.59782 9.80956 7.23828 10.1691 7.23828 10.6096C7.23828 11.0509 7.59865 11.4196 8.03828 11.4196L14.3809 11.4096Z" fill="#7EA1AA"/>
<path d="M19.2507 13.6953C20.9522 13.6953 22.3315 12.316 22.3315 10.6146C22.3315 8.91309 20.9522 7.53378 19.2507 7.53378C17.5492 7.53378 16.1699 8.91309 16.1699 10.6146C16.1699 12.316 17.5492 13.6953 19.2507 13.6953Z" fill="#1487AC"/>
<path d="M8.43797 21.9291C7.99764 21.9291 7.6381 21.5695 7.6381 21.1291C7.6381 20.6886 7.99764 20.3291 8.4381 20.3291H12.7391C13.1795 20.3291 13.5391 20.6886 13.5391 21.1291C13.5391 21.5704 13.1787 21.9391 12.7391 21.9391L8.43797 21.9291Z" fill="#7EA1AA"/>
<path d="M18.0956 21.9291C17.6553 21.9291 17.2957 21.5695 17.2957 21.1291C17.2957 20.6886 17.6553 20.3291 18.0957 20.3291H24.4383C24.8787 20.3291 25.2383 20.6886 25.2383 21.1291C25.2383 21.5704 24.8779 21.9391 24.4383 21.9391L18.0956 21.9291Z" fill="#7EA1AA"/>
<path d="M13.2259 24.2149C11.5244 24.2149 10.1451 22.8355 10.1451 21.1341C10.1451 19.4326 11.5244 18.0533 13.2259 18.0533C14.9273 18.0533 16.3066 19.4326 16.3066 21.1341C16.3066 22.8355 14.9273 24.2149 13.2259 24.2149Z" fill="#1487AC"/>
</svg>
