<svg width="32" height="32" viewBox="0 0 32 32" fill="none" xmlns="http://www.w3.org/2000/svg">
<path fill-rule="evenodd" clip-rule="evenodd" d="M25.0504 4.74884C26.2654 4.74884 27.2504 5.73381 27.2504 6.94884V25.0512C27.2504 26.2662 26.2654 27.2512 25.0504 27.2512H6.94805C5.73302 27.2512 4.74805 26.2662 4.74805 25.0512V6.94884C4.74805 5.73381 5.73302 4.74884 6.94805 4.74884H25.0504ZM13.089 17.6924C12.1262 17.6924 11.3009 18.2813 10.9537 19.1186L10.8943 19.2784H9.21818C8.82177 19.2784 8.49818 19.602 8.49818 19.9984C8.49818 20.3618 8.77008 20.664 9.12065 20.7118L9.21806 20.7184L10.8926 20.7223C11.1951 21.6462 12.0641 22.3135 13.089 22.3135C14.3651 22.3135 15.3996 21.279 15.3996 20.0029C15.3996 18.7268 14.3651 17.6924 13.089 17.6924ZM23.6182 19.2784H17.0099C16.6135 19.2784 16.2899 19.602 16.2899 19.9984C16.2899 20.3618 16.5618 20.664 16.9124 20.7118L17.0098 20.7184L23.6182 20.7274C24.0138 20.7274 24.3382 20.3957 24.3382 19.9984C24.3382 19.6351 24.0663 19.3329 23.7156 19.285L23.6182 19.2784ZM19.3873 10.0993C18.1112 10.0993 17.0767 11.1338 17.0767 12.4099C17.0767 13.686 18.1112 14.7205 19.3873 14.7205C20.3519 14.7205 21.1785 14.1293 21.5245 13.2895L21.5837 13.1293L23.2583 13.1254C23.6546 13.1254 23.9782 12.8018 23.9782 12.4054C23.9782 12.042 23.7063 11.7398 23.3556 11.692L23.2582 11.6854H21.582C21.2781 10.7642 20.4103 10.0993 19.3873 10.0993ZM15.4665 11.6854H8.85818C8.46177 11.6854 8.13818 12.009 8.13818 12.4054C8.13818 12.7695 8.4107 13.0786 8.76089 13.1276L8.85818 13.1344L15.4666 13.1254C15.8629 13.1254 16.1865 12.8018 16.1865 12.4054C16.1865 12.042 15.9146 11.7398 15.5639 11.692L15.4665 11.6854Z" fill="black"/>
</svg>
