<svg width="32" height="32" viewBox="0 0 32 32" fill="none" xmlns="http://www.w3.org/2000/svg">
<path d="M19.0124 13.6953C20.4375 13.6953 21.6365 12.7278 21.9885 11.4138L23.8003 11.4096C24.2406 11.4096 24.6002 11.05 24.6002 10.6096C24.6002 10.1691 24.2406 9.80956 23.8002 9.80956H21.987C21.633 8.49849 20.4354 7.53378 19.0124 7.53378C17.311 7.53378 15.9316 8.91309 15.9316 10.6146C15.9316 12.316 17.311 13.6953 19.0124 13.6953Z" fill="black"/>
<path d="M14.9425 10.6096C14.9425 11.05 14.583 11.4096 14.1427 11.4096L7.8 11.4196C7.36037 11.4196 7 11.0509 7 10.6096C7 10.1691 7.35954 9.80956 7.8 9.80956H14.1425C14.583 9.80956 14.9425 10.1691 14.9425 10.6096Z" fill="black"/>
<path d="M7.39982 21.1291C7.39982 21.5695 7.75936 21.9291 8.19969 21.9291L10.0115 21.9333C10.3635 23.2473 11.5625 24.2149 12.9876 24.2149C14.689 24.2149 16.0684 22.8355 16.0684 21.1341C16.0684 19.4326 14.689 18.0533 12.9876 18.0533C11.5646 18.0533 10.367 19.018 10.013 20.3291H8.19982C7.75936 20.3291 7.39982 20.6886 7.39982 21.1291Z" fill="black"/>
<path d="M17.8573 21.9291C17.417 21.9291 17.0575 21.5695 17.0575 21.1291C17.0575 20.6886 17.417 20.3291 17.8575 20.3291H24.2C24.6405 20.3291 25 20.6886 25 21.1291C25 21.5704 24.6396 21.9391 24.2 21.9391L17.8573 21.9291Z" fill="black"/>
</svg>
