<svg height="32" viewBox="0 0 32 32" width="32" xmlns="http://www.w3.org/2000/svg"><path d="m26 16.0951891c.2982338 0 .5456468.2175896.592147.5026769l.007853.0973231v7c0 .2982338-.2175896.5456467-.5026769.592147l-.0973231.007853h-20c-.29823376 0-.54564675-.2175896-.59214701-.5026769l-.00785299-.0973231v-7c0-.3313709.26862915-.6.6-.6.29823376 0 .54564675.2175896.59214701.5026769l.00785299.0973231v6.399h18.8v-6.399c0-.2982338.2175896-.5456468.5026769-.592147zm-10-10.42989108.074.004.097964.02105024.0373618.0124809.0517461.02206378c.0329726.01599972.0641271.0348004.0932803.05617027l.0699119.05997074 4.6270249 4.62702495c.2343146.2343146.2343146.6142136 0 .8485281-.2108831.2108831-.5396896.2319715-.7741574.063265l-.0743707-.063265-3.6027858-3.60228898.0000249 10.55099998c0 .3313709-.2686292.6-.6.6-.2982338 0-.5456468-.2175896-.592147-.5026769l-.007853-.0973231-.0000249-10.55299998-3.602736 3.60428898c-.2108831.2108831-.5396896.2319715-.7741574.063265l-.0743707-.063265c-.2108831-.2108831-.2319714-.5396896-.0632649-.7741574l.0632649-.0743707 4.6270249-4.62702495.0712641-.06073593.0341928-.02344896.0910579-.04681463.0616362-.02144474.0659606-.01496623.0557922-.00669421z"/></svg>