<svg height="32" viewBox="0 0 32 32" width="32" xmlns="http://www.w3.org/2000/svg"><g fill="none"><g fill="#f5a8c7"><path d="m17.8986383 12.1787216c-.2180236-.3906255-.0781021-.8840331.3125235-1.1020567s.8840332-.078102 1.1020567.3125235l3.6456722 6.5318294c.2180236.3906255.078102.8840331-.3125235 1.1020567-.3906256.2180236-.8840332.078102-1.1020568-.3125236z"/><path d="m19.564 22.145c.4473506 0 .81.3626494.81.81s-.3626494.81-.81.81h-7.128c-.4473506 0-.81-.3626494-.81-.81s.3626494-.81.81-.81z"/><path d="m10.4556896 18.7105509c-.2180236.3906256-.7114312.5305472-1.10205676.3125236s-.53054712-.7114312-.31252355-1.1020567l3.64567221-6.5318294c.2180235-.3906255.7114311-.5305471 1.1020567-.3125235s.5305471.7114312.3125235 1.1020567z"/></g><g fill="#b34874"><path d="m16 10.2335c-1.7223 0-3.1185-1.39620001-3.1185-3.1185s1.3962-3.1185 3.1185-3.1185 3.1185 1.39620001 3.1185 3.1185-1.3962 3.1185-3.1185 3.1185z"/><path d="m7.09 26.0735c-1.72229999 0-3.1185-1.3962-3.1185-3.1185s1.39620001-3.1185 3.1185-3.1185 3.1185 1.3962 3.1185 3.1185-1.39620001 3.1185-3.1185 3.1185z"/><path d="m24.91 26.0735c-1.7223 0-3.1185-1.3962-3.1185-3.1185s1.3962-3.1185 3.1185-3.1185 3.1185 1.3962 3.1185 3.1185-1.3962 3.1185-3.1185 3.1185z"/></g></g></svg>