<svg height="32" viewBox="0 0 32 32" width="32" xmlns="http://www.w3.org/2000/svg"><path d="m21.381471 13.7773444.87-.87c.91-.91.91-2.4 0-3.32000002-.91-.91-2.4-.91-3.32 0l-.87.87000002-7.75 7.75c-.08.08-.13.18-.16.28l-.80000004 3.27c-.05.2.01.42.16.57.11.11.27.18.42.18.05 0 .10000004-.01.14000004-.02l3.27-.8c.11-.03.2-.08.28-.16l.75-.75.01-.01.01-.01zm.02-3.34c.45.45.45 1.17 0 1.62l-.44.44-1.62-1.62.44-.44c.45-.45000002 1.17-.45000002 1.62 0zm5.588529 7.0376556c.34 0 .6.27.6.6-.03 5.11-4.06 9.33-9.1 9.68l.01 1.58c0 .22-.13.44-.34.54s-.46.07-.63-.07l-2.75-2.2c-.14-.12-.22-.29-.22-.47s.08-.36.22-.47l2.72-2.18c.18-.14.42-.17.63-.07s.34.31.34.54l.01 1.6c4.38-.34 7.88-4.02 7.91-8.48 0-.34.27-.6.6-.6zm-8.4934564-5.737646 1.6089592 1.6227117-7.2040318 7.2072787-2.14.52.52-2.14zm-4.0165436-9.542354 2.75 2.2c.14.12.22.29.22.47s-.08.36-.22.47l-2.72 2.18c-.18.14-.42.17-.63.07s-.34-.31-.34-.54l-.01-1.6c-4.38.34-7.88 4.02-7.91 8.48-.01.33-.28.6-.61.6s-.6-.27-.6-.6c.03-5.11 4.06-9.33 9.1-9.68l-.01-1.58c0-.23.13-.44.34-.54s.46-.07.64.07z"/></svg>