<svg height="32" viewBox="0 0 32 32" width="32" xmlns="http://www.w3.org/2000/svg"><path d="m18.42 21.645c0 .33-.27.6-.6.6h-7.39c-.33 0-.6-.27-.6-.6v-7.39c0-.33.27-.6.6-.6h2.76v-2.76c0-.33.27-.6.6-.6h7.39c.33 0 .6.27.6.6v7.39c0 .33-.27.6-.6.6h-2.76zm2.17-10.16h-6.19v6.19h6.19zm-9.56 9.56h6.19v-2.16h-3.43c-.33 0-.6-.27-.6-.6v-3.43h-2.16zm7.13 8.83c-.21.1-.46.07-.63-.07l-2.75-2.2c-.14-.12-.22-.29-.22-.47s.08-.36.22-.47l2.72-2.18c.18-.14.42-.17.63-.07s.34.31.34.54l.01 1.6c4.38-.34 7.88-4.02 7.91-8.48 0-.34.27-.6.6-.6.34 0 .6.27.6.6-.03 5.11-4.06 9.33-9.1 9.68l.01 1.58c0 .22-.13.44-.34.54zm-12.54-15.95c-.01.33-.28.6-.61.6s-.6-.27-.6-.6c.03-5.11 4.06-9.33 9.1-9.68l-.01-1.58c0-.23.13-.44.34-.54s.46-.07.64.07l2.75 2.2c.14.12.22.29.22.47s-.08.36-.22.47l-2.72 2.18c-.18.14-.42.17-.63.07s-.34-.31-.34-.54l-.01-1.6c-4.38.34-7.88 4.02-7.91 8.48z"/></svg>