<svg height="32" viewBox="0 0 32 32" width="32" xmlns="http://www.w3.org/2000/svg"><path d="m26.99 17.475c.34 0 .6.27.6.6-.03 5.11-4.06 9.33-9.1 9.68l.01 1.58c0 .22-.13.44-.34.54s-.46.07-.63-.07l-2.75-2.2c-.14-.12-.22-.29-.22-.47s.08-.36.22-.47l2.72-2.18c.18-.14.42-.17.63-.07s.34.31.34.54l.01 1.6c4.38-.34 7.88-4.02 7.91-8.48 0-.34.27-.6.6-.6zm-7.4228797-7.2990118 2.5537196 2.5755473-9.4341475 9.4393008-3.39658076.8253374.82533736-3.3965807zm-5.0871203-7.9809882 2.75 2.2c.14.12.22.29.22.47s-.08.36-.22.47l-2.72 2.18c-.18.14-.42.17-.63.07s-.34-.31-.34-.54l-.01-1.6c-4.38.34-7.88 4.02-7.91 8.48-.01.33-.28.6-.61.6s-.6-.27-.6-.6c.03-5.11 4.06-9.33 9.1-9.68l-.01-1.58c0-.23.13-.44.34-.54s.46-.07.64.07zm9.6977841 5.91762939c.7142342.71423427.7142342 1.85700909 0 2.57124331l-1.1203364 1.1148899-2.5712433-2.57124334 1.1203363-1.11488987c.7142343-.71423427 1.8570091-.71423427 2.5712434 0z"/></svg>