<svg height="32" viewBox="0 0 32 32" width="32" xmlns="http://www.w3.org/2000/svg"><g fill="none" fill-rule="evenodd"><path d="m22.7435005 18.4379419.27 1.48c.04.23.21.41.43.47.05.01.11.02.16.02.17 0 .34-.07.45-.2l2.2-2.51c.12-.14.17-.32.14-.5s-.14-.33-.3-.42l-2.96-1.62c-.2-.11-.45-.1-.64.04s-.28.37-.24.59l.27 1.47c-4.69 1.18-7.79 5.83-6.97 10.66.05.29.3.5.59.5.03 0 .07 0 .1-.01.33-.06.55-.36.49-.69-.71-4.19 1.96-8.23 6.01-9.28z" fill="#252d4f" fill-rule="nonzero" transform="matrix(-1 0 0 -1 41.82406 43.501196)"/><g transform="translate(6.678635 6.966129)"><path d="m5.35126914 15.694504-3.89872303.6640521.66405204-3.8987231 9.13974335-9.1397433 3.234671 3.23467098z" fill="#f8c31c"/><path d="m.82171069 14.9227565 2.36661096-.0020284-1.19200188 1.7768608z" fill="#252d4f" transform="matrix(.70710678 .70710678 -.70710678 .70710678 11.766018 3.212635)"/><path d="m5.61193408 2.4611491h2.28725779l.05901372 13.9785535-1.24116085-.0003816-1.10511066-1.5598149z" fill="#af8c1d" transform="matrix(.70710678 .70710678 -.70710678 .70710678 8.669761 -2.029803)"/><path d="m10.8571286 3.77668294h4.5745155v1.78006576h-4.5745155z" fill="#fff" transform="matrix(.70710678 .70710678 -.70710678 .70710678 7.149768 -7.927635)"/><path d="m15.8735985 5.12425769-1.0548455 1.06786833-3.2296506-3.2687189 1.0678683-1.08089111.0260456-.02604557c.4297519-.42975189 1.0027544-.65113923 1.6018025-.65113923s1.1720506.24743291 1.5887797.6771848c.8855494.91159491.8855494 2.38316955 0 3.28174168z" fill="#fa8bb9" fill-rule="nonzero"/></g><path d="m12.3214465 6.85468875.27 1.48c.04.23.21.41.43.47.05.01.11.02.16.02.17 0 .34-.07.45-.2l2.2-2.51c.12-.14.17-.32.14-.5s-.14-.33-.3-.42l-2.96-1.62c-.2-.11-.45-.1-.64.04s-.28.37-.24.59l.27 1.47c-4.68999997 1.18-7.78999997 5.83000005-6.96999997 10.66000005.05.29.3.5.59.5.03 0 .07 0 .1-.01.33-.06.55-.36.49-.69-.71-4.19 1.96-8.23000005 6.00999997-9.28000005z" fill="#252d4f" fill-rule="nonzero"/></g></svg>