<svg height="32" viewBox="0 0 32 32" width="32" xmlns="http://www.w3.org/2000/svg"><g fill="none" fill-rule="evenodd"><path d="m29.3511161 13.7738839c-.1-.21-.32-.34-.54-.34l-1.58.01c-.35-5.03999997-4.57-9.06999997-9.68-9.09999997-.33 0-.6.26-.6.6 0 .33.26.6.6.6 4.46.03 8.14 3.53 8.48 7.90999997l-1.6.01c-.23 0-.44.13-.54.34s-.07.45.07.63l2.18 2.72c.11.14.29.22.47.22s.35-.08.47-.22l2.2-2.75c.14-.17.17-.42.07-.63zm-13.95 12.54c-4.46-.03-8.14000003-3.53-8.48000003-7.91l1.6-.01c.23 0 .44-.13.54-.34s.07-.45-.07-.63l-2.18-2.72c-.11-.14-.29-.22-.47-.22s-.35.08-.47.22l-2.2 2.75c-.14.18-.17.43-.07.64s.31.34.54.34l1.58-.01c.35 5.04 4.57000003 9.07 9.68000003 9.1.33 0 .6-.27.6-.6s-.27-.6-.6-.61z" fill="#252d4f" fill-rule="nonzero" transform="matrix(0 1 -1 0 32.41 -.542232)"/><path d="m11.5693206 19.8406794v-5.5657363c0-.5522848.4477152-1 1-1h5.5657363c.5522848 0 1 .4477152 1 1v5.5657363c0 .5522848-.4477152 1-1 1h-5.5657363c-.5522848 0-1-.4477152-1-1z" fill="#faba95" transform="matrix(0 1 -1 0 32.41 1.705622)"/><path d="m14.5956151 16.8143849v-5.5657364c0-.5522847.4477153-1 1-1h5.5657364c.5522847 0 1 .4477153 1 1v5.5657364c0 .5522847-.4477153 1-1 1h-5.5657364c-.5522847 0-1-.4477153-1-1z" fill="#f8813d" transform="matrix(0 1 -1 0 32.41 -4.346966)"/></g></svg>