<svg height="32" viewBox="0 0 32 32" width="32" xmlns="http://www.w3.org/2000/svg"><path d="m6 15.8951891c.35776414 0 .6657198.2362954.76735474.5802903l.02414435.1063009.00850091.1134088v6.1988109h18.4v-6.1988109c0-.3180126.1867026-.5966703.4697906-.7260496l.1104997-.0413051.1063009-.0241444.0973231-.007853.1217642.0063124c.3077665.040865.5638117.2582718.6582122.5619036l.0276084.1177273.0085009.1134088v7c0 .3577641-.2362954.6657198-.5802903.7673547l-.1063009.0241444-.1134088.0085009h-20c-.35776414 0-.6657198-.2362954-.76735474-.5802903l-.02414435-.1063009-.00850091-.1134088v-7c0-.4418278.3581722-.8.8-.8zm9.9271289-10.4266168.0263685-.00193223.1043575.00073981.1286184.01983798.0433279.01158647.0650085.02257612.1036767.04999543.0744373.04854478.0927617.07969193 4.627025 4.62702491c.3124194.3124195.3124194.8189515 0 1.1313709-.2883872.2883872-.742172.3105708-1.056005.0665509l-.0753659-.0665509-3.2613395-3.26071038v10.06799998c0 .4418278-.3581722.8-.8.8-.407841 0-.7444016-.3051881-.7937669-.6996497l-.0062331-.1003503v-10.06999998l-3.2613395 3.26271038c-.2883872.2883872-.742172.3105708-1.056005.0665509l-.0753659-.0665509c-.2883871-.2883872-.3105708-.742172-.0665509-1.056005l.0665509-.0753659 4.627025-4.62702491c.0311691-.03116911.0642703-.05922859.0989181-.08417841l.0918614-.05703333.1248974-.05321584.0777918-.02130424z"/></svg>