<svg height="32" viewBox="0 0 32 32" width="32" xmlns="http://www.w3.org/2000/svg"><path d="m27.4661161 16.4088839c.34 0 .6.27.6.6-.0294643 5.01875-3.917347 9.1790019-8.8309833 9.6575648l-.2690167.0224352.01 1.58c0 .22-.13.44-.34.54-.18.0857143-.3893878.0759184-.5525948-.016793l-.0774052-.053207-2.75-2.2c-.14-.12-.22-.29-.22-.47 0-.144.0512-.288.14336-.39616l.07664-.07384 2.72-2.18c.18-.14.42-.17.63-.07.18.0857143.3012245.2522449.3321866.4429155l.0078134.0970845.01 1.6c4.38-.34 7.88-4.02 7.91-8.48 0-.34.27-.6.6-.6zm-14.0707955-2.1342354.0002945 2.5397364c0 1.2150264.9849736 2.2 2.2 2.2l2.5387055-.0007364.0007363 1.8270309c0 .5522848-.4477152 1-1 1h-5.5657363c-.5522848 0-1-.4477152-1-1v-5.5657363c0-.5522848.4477152-1 1-1zm7.7660309-4.026c.5522847 0 1 .4477153 1 1v5.5657364c0 .5522847-.4477153 1-1 1h-5.5657364c-.5522847 0-1-.4477153-1-1v-5.5657364c0-.5522847.4477153-1 1-1zm-6.8452354-7.18976457c.18-.08571428.3893877-.07591836.5588921.01679301l.0811079.05320699 2.75 2.2c.14.12.22.29.22.47 0 .144-.0512.288-.14336.39616l-.07664.07384-2.72 2.18c-.18.14-.42.17-.63.07-.18-.08571428-.3012245-.25224489-.3321866-.44291545l-.0078134-.09708455-.01-1.6c-4.38000003.34-7.88000003 4.01999997-7.91000003 8.47999997-.01.33-.28.6-.61.6s-.6-.27-.6-.6c.02946428-5.01874997 3.91734694-9.17900188 8.83098323-9.65756477l.2690168-.0224352-.01-1.58c0-.23.13-.44.34-.54z"/></svg>