<svg fill="none" height="32" viewBox="0 0 33 32" width="33" xmlns="http://www.w3.org/2000/svg"><path clip-rule="evenodd" d="m6.73281 13.1c.33137 0 .6-.2686.6-.6v-4c0-.7732.6268-1.4 1.4-1.4h3.99999c.3314 0 .6-.26863.6-.6s-.2686-.6-.6-.6h-3.99999c-1.43594 0-2.6 1.16406-2.6 2.6v4c0 .3314.26863.6.6.6zm12.39999-6.6c0 .33137.2686.6.6.6h4c.7732 0 1.4.6268 1.4 1.4v4c0 .3314.2686.6.6.6s.6-.2686.6-.6v-4c0-1.43594-1.164-2.6-2.6-2.6h-4c-.3314 0-.6.26863-.6.6zm6 13c0-.3314.2686-.6.6-.6s.6.2686.6.6v4c0 1.4359-1.164 2.6-2.6 2.6h-4c-.3314 0-.6-.2686-.6-.6s.2686-.6.6-.6h4c.7732 0 1.4-.6268 1.4-1.4zm-11.8 6c0-.3314-.2686-.6-.6-.6h-3.99999c-.7732 0-1.4-.6268-1.4-1.4v-4c0-.3314-.26863-.6-.6-.6s-.6.2686-.6.6v4c0 1.4359 1.16406 2.6 2.6 2.6h3.99999c.3314 0 .6-.2686.6-.6z" fill="#000" fill-rule="evenodd"/></svg>