<svg fill="none" height="32" viewBox="0 0 33 32" width="33" xmlns="http://www.w3.org/2000/svg"><g clip-rule="evenodd" fill="#000" fill-rule="evenodd"><path d="m5.73242 8.5c0-1.65685 1.34315-3 3-3h3.99998c.5523 0 1 .44772 1 1s-.4477 1-1 1h-3.99998c-.55228 0-1 .44772-1 1v4c0 .5523-.44771 1-1 1-.55228 0-1-.4477-1-1z"/><path d="m18.7324 6.5c0-.55228.4477-1 1-1h4c1.6569 0 3 1.34315 3 3v4c0 .5523-.4477 1-1 1s-1-.4477-1-1v-4c0-.55228-.4477-1-1-1h-4c-.5523 0-1-.44772-1-1z"/><path d="m24.7324 19.5c0-.5523.4477-1 1-1s1 .4477 1 1v4c0 1.6569-1.3431 3-3 3h-4c-.5523 0-1-.4477-1-1s.4477-1 1-1h4c.5523 0 1-.4477 1-1z"/><path d="m5.73242 19.5c0-.5523.44772-1 1-1 .55229 0 1 .4477 1 1v4c0 .5523.44772 1 1 1h3.99998c.5523 0 1 .4477 1 1s-.4477 1-1 1h-3.99998c-1.65685 0-3-1.3431-3-3z"/></g></svg>