<svg fill="none" height="32" viewBox="0 0 33 32" width="33" xmlns="http://www.w3.org/2000/svg"><path clip-rule="evenodd" d="m6.7332 13.2c.3866 0 .7-.3134.7-.7v-4c0-.71797.58203-1.3 1.3-1.3h4c.3866 0 .7-.3134.7-.7s-.3134-.7-.7-.7h-4c-1.49117 0-2.7 1.20883-2.7 2.7v4c0 .3866.3134.7.7.7zm12.3-6.7c0 .3866.3134.7.7.7h4c.718 0 1.3.58203 1.3 1.3v4c0 .3866.3134.7.7.7s.7-.3134.7-.7v-4c0-1.49117-1.2088-2.7-2.7-2.7h-4c-.3866 0-.7.3134-.7.7zm6 13c0-.3866.3134-.7.7-.7s.7.3134.7.7v4c0 1.4912-1.2088 2.7-2.7 2.7h-4c-.3866 0-.7-.3134-.7-.7s.3134-.7.7-.7h4c.718 0 1.3-.582 1.3-1.3zm-11.6 6c0-.3866-.3134-.7-.7-.7h-4c-.71797 0-1.3-.582-1.3-1.3v-4c0-.3866-.3134-.7-.7-.7s-.7.3134-.7.7v4c0 1.4912 1.20883 2.7 2.7 2.7h4c.3866 0 .7-.3134.7-.7z" fill="#3e5b63" fill-rule="evenodd"/></svg>