<svg height="32" viewBox="0 0 32 32" width="32" xmlns="http://www.w3.org/2000/svg"><g fill="none" fill-rule="evenodd"><path d="m21.01343 12.2193101-2.034903 6.3498429c-.3205222 1.0001782-1.0203276 1.8309366-1.9437932 2.3177069l-.2170069.1061459-9.08533139 4.1082981 5.66618739-8.0904773c.8318163.3010582 1.7940891.0224763 2.32575-.7368143.6356816-.9078473.4150476-2.1591247-.4927997-2.7948063-.9078474-.6356815-2.1591248-.4150476-2.7948063.4927998-.5415143.7733624-.4616241 1.7959425.1351359 2.4748954l-5.77046674 8.2405609.77147949-10.1677709c.07941661-1.0472745.56709674-2.0178698 1.35222604-2.7058422l.18641341-.1536522 5.2709227-4.08395753z" fill="#85cfe8"/><path d="m21.01343 12.2193101-2.034903 6.3498429c-.3205222 1.0001782-1.0203276 1.8309366-1.9437932 2.3177069l-.2170069.1061459-9.08533139 4.1082981 5.66618739-8.0904773c.8318163.3010582 1.7940891.0224763 2.32575-.7368143.6356816-.9078473.4150476-2.1591247-.4927997-2.7948063l-.0282802-.019077 2.4946809-3.56235434z" fill="#31afd8"/><path d="m16.2227198 4.61766339 6.9414486 4.8604546c.7869737.55104491.9782318 1.63572341.4271869 2.42269711-.551045.7869737-1.6357234.9782318-2.4226972.4271869l-6.9414485-4.86045464c-.7869737-.55104494-.9782318-1.63572338-.4271869-2.42269711.551045-.78697373 1.6357234-.9782318 2.4226971-.42718686z" fill="#257843"/><path d="m23.3735681 24.0094777c-.2581225-1.7136207-2.0403207-2.8025784-3.6166056-2.0691199-1.5531417.7226623-2.0459674 2.9529014-1.340368 4.5648749.0964137.2202608.2154724.4289516.354427.6246532l.091713.1205181-.0243413.0043326c-1.9419244.3291164-4.2158894-.1406301-6.273848-1.8495549l-.236467-.202708c-.248207-.2195448-.6273947-.1963095-.8469395.0518975s-.1963095.6273947.0518975.8469396c2.7018322 2.3898328 5.799168 2.8571918 8.3098617 2.1584101l.1200705-.034708.0707772.0445941.2212267.1218708.4315513.2027262c2.1072592.9681526 3.4838346 1.1690897 5.8909738.3080201.3120092-.1116104.4744646-.4550219.3628543-.7670312-.1116104-.3120092-.4550219-.4744646-.7670312-.3628542-1.8830215.6735848-2.9426027.6013927-4.5199111-.0628083l-.2132674-.0921516.2550089-.1436761c1.1876592-.7038552 1.8817417-2.114455 1.6784172-3.464225zm-3.1103648-.9811308c.8181852-.3807085 1.7802391.2071252 1.9237516 1.1598741.1295393.8599465-.3305598 1.7950164-1.1036142 2.25316-.2404415.1425021-.4942299.2705053-.7593696.3824064l-.1597528.0642051-.0748777-.0647133c-.1985785-.1872201-.3636907-.3973598-.4879904-.6251585l-.0854576-.1740779c-.4692304-1.0719779-.1348382-2.5852403.7473107-2.9956959z" fill="#345c64" fill-rule="nonzero"/></g></svg>