<svg height="32" viewBox="0 0 32 32" width="32" xmlns="http://www.w3.org/2000/svg"><path d="m19.7569625 21.9403578c1.5762849-.7334585 3.3584831.3554992 3.6166056 2.0691199.2033245 1.34977-.490758 2.7603698-1.6784172 3.464225l-.2550089.1436761.2132674.0921516c1.5773084.664201 2.6368896.7363931 4.5199111.0628083.3120093-.1116104.6554208.050845.7670312.3628542.1116103.3120093-.0508451.6554208-.3628543.7670312-2.4071392.8610696-3.7837146.6601325-5.8909738-.3080201l-.4315513-.2027262c-.0751723-.0387773-.1489484-.0794184-.2212267-.1218708l-.0707772-.0445941-.1200705.034708c-2.5106937.6987817-5.6080295.2314227-8.3098617-2.1584101-.248207-.2195449-.2714423-.5987326-.0518975-.8469396s.5987325-.2714423.8469395-.0518975l.236467.202708c2.0579586 1.7089248 4.3319236 2.1786713 6.273848 1.8495549l.0243413-.0043326-.091713-.1205181c-.1389546-.1957016-.2580133-.4043924-.354427-.6246532-.7055994-1.6119735-.2127737-3.8422126 1.340368-4.5648749zm2.4299924 2.2478632c-.1435125-.9527489-1.1055664-1.5405826-1.9237516-1.1598741-.8821489.4104556-1.2165411 1.923718-.7473107 2.9956959l.0854576.1740779c.1242997.2277987.2894119.4379384.4879904.6251585l.0748777.0647133.1597528-.0642051c.2651397-.1119011.5189281-.2399043.7593696-.3824064.7730544-.4581436 1.2331535-1.3932135 1.1036142-2.25316zm-7.7951463-16.23935661 6.2681515 4.38900691-1.9671217 6.1397285-.0744237.2102313c-.3220542.8294148-.9333573 1.5171093-1.7235704 1.9336406l-.2089342.1020451-8.08033073 3.6535007 4.91522203-7.0179211.1036644.0257574c.8826056.1781199 1.8108482-.1750456 2.3456127-.9387685.7307149-1.0435689.4770965-2.4819101-.5664724-3.2126249s-2.48191-.4770965-3.2126249.5664725l-.091177.1407343c-.4559774.7628175-.4279136 1.7128755.047534 2.4420138l.0516764.0728643-5.0159259 7.1634846.68892701-9.0766414.02355208-.2217716c.12057519-.8815484.55540717-1.6924345 1.22724535-2.2811352l.17951409-.1477883zm.2738157-3.56839085c.4560117-.65125218 1.3536264-.80952587 2.0048785-.35351419l6.9414486 4.8604546.1163031.09050927c.5523337.4767419.664722 1.30382038.2372111 1.91436928-.4560117.6512522-1.3536264.8095259-2.0048786.3535142l-6.9414485-4.8604546-.1163031-.09050926c-.5523338-.47674191-.6647221-1.30382039-.2372111-1.9143693z"/></svg>