<svg height="32" viewBox="0 0 32 32" width="32" xmlns="http://www.w3.org/2000/svg"><path d="m19.7569625 21.9403578c1.5762849-.7334585 3.3584831.3554992 3.6166056 2.0691199.1936424 1.2854952-.4266899 2.6261649-1.5121528 3.3589494l-.1662644.1052756-.2550089.1436761.2132674.0921516c1.5773084.664201 2.6368896.7363931 4.5199111.0628083.3120093-.1116104.6554208.050845.7670312.3628542.1116103.3120093-.0508451.6554208-.3628543.7670312-2.3068418.8251917-3.6672108.6750335-5.6312446-.1910183l-.2597292-.1170018-.4315513-.2027262-.2212267-.1218708-.0707772-.0445941-.1200705.034708c-2.5106937.6987817-5.6080295.2314227-8.3098617-2.1584101-.248207-.2195449-.2714423-.5987326-.0518975-.8469396.1951509-.2206285.5164395-.2635015.7597514-.1161117l.0871881.0642142.236467.202708c1.9722103 1.6377196 4.1428015 2.1373744 6.0294177 1.8865019l.2687716-.0412796-.091713-.1205181c-.1389546-.1957016-.2580133-.4043924-.354427-.6246532-.7055994-1.6119735-.2127737-3.8422126 1.340368-4.5648749zm2.4299924 2.2478632c-.1435125-.9527489-1.1055664-1.5405826-1.9237516-1.1598741-.8420512.3917985-1.1850101 1.7884272-.8063395 2.8469269l.0590288.148769.0854576.1740779c.0932248.170849.2094066.3317649.3454462.4805282l.1425442.1446303.0748777.0647133.1597528-.0642051c.2651397-.1119011.5189281-.2399043.7593696-.3824064.7730544-.4581436 1.2331535-1.3932135 1.1036142-2.25316zm-8.1719137-17.08655948c.1818462-.140896.4254199-.16384521.6277464-.06635897l.0838858.04916067 6.6309923 4.64307078c.1884401.1319472.2825125.3577905.2493364.5799142l-.0221049.0946835-2.034903 6.349843c-.3432795 1.0711914-1.0658735 1.9759412-2.0391806 2.554624l-.2123564.1189545-.2375187.1157039-10.10385881 4.4782249c-.38773943.1718536-.81550459-.1011622-.84192653-.5066502l.00064202-.088804.85888795-10.9499902c.08505524-1.1216316.57771268-2.169488 1.38996914-2.9584366l.17891471-.1650301.20055152-.1649518zm.3856593 1.21881821-4.90747118 3.80242557-.17261478.1419244c-.61306224.537198-1.01136614 1.2757584-1.12546661 2.0804851l-.02401977.2210098-.69326426 8.8397916 4.6915196-6.4289601c-.187788-.2792008-.297374-.6153808-.297374-.9771561 0-.9681918.7848746-1.7530664 1.7530664-1.7530664s1.7530664.7848746 1.7530664 1.7530664-.7848746 1.7530664-1.7530664 1.7530664c-.1687001 0-.3318346-.0238291-.4862212-.0683051l-4.6179908 6.3273549 8.0333193-3.5583733.2008615-.0979443c.7210811-.3800909 1.2800543-1.0059235 1.5776018-1.7609924l.0745931-.2090445 1.8995471-5.9297959zm2.7765921-5.05562341 6.9414485 4.8604546c.7869738.55104494.9782318 1.63572338.4271869 2.42269708-.5510449.7869738-1.6357234.9782318-2.4226971.4271869l-6.9414486-4.86045461c-.7869737-.55104493-.9782318-1.63572338-.4271868-2.42269711.5510449-.78697372 1.6357233-.9782318 2.4226971-.42718686zm-1.4397147 1.11547859c-.1519217.21696667-.1219313.50689019.0580392.68867593l.074457.062747 6.9414485 4.8604546c.2440875.17091196.580511.11159136.7514229-.13249614.1519217-.21696667.1219314-.50689018-.0580392-.68867593l-.0744569-.062747-6.9414486-4.8604546c-.2440875-.17091191-.580511-.11159137-.7514229.13249614z"/></svg>