<svg height="32" viewBox="0 0 32 32" width="32" xmlns="http://www.w3.org/2000/svg"><g fill="none" fill-rule="evenodd"><path d="m.17489548.39606083h31.16883122v31.16883117h-31.16883122z"/><path d="m9.3726545 10.5360845v10.0804801c.15799171-.0001756.29962129.117908.33265865.2894101.03775084.1959705-.08058242.3874792-.26430475.4277468l-3.71673282.8146195c-.21063763.0461668-.40796265-.1254617-.40796265-.3548359v-12.43416071c0-.22936705.19731338-.4009939.40794652-.35483948l3.71673282.81441915c.18372416.04025806.30206613.23176074.26432419.42773314-.03303071.1715097-.17466362.2896029-.33266196.2894273z" fill="#72588d"/><path d="m13.9340997 8.71268499v14.26809541c.158708-.0001811.3006942.1189372.3330111.291264.0367899.1961783-.0824803.3870246-.2663975.4262672l-4.56144479.9732794c-.2101503.0448399-.40622271-.1266111-.40622271-.3552122v-16.93929146c0-.22860109.19607238-.40005216.40622266-.35521225l4.56144484.9732787c.1839172.03924254.3031874.23008884.2663975.42626715-.0323169.17232676-.1743031.29144514-.3330111.29126405z" fill="#9373b3"/><path d="m26.3319604 24.0862519-12.3327953 2.5679245c-.2097116.043666-.4046741-.1276242-.4046741-.3555387v-20.54339594c0-.22791449.1949625-.39920466.4046741-.35553867l12.3327953 2.56792449c.1594646.03320359.2745433.18223267.2745433.35553868v15.40754694c0 .173306-.1150787.3223351-.2745433.3555387z" fill="#ba97dc"/><g fill="#72588d"><path d="m23.892054 17.9309545.0096471 3.4271318-6.9258825 1.1562417-.0007562-1.5793561 1.2386843-2.377232 1.9382306.8214365 2.1256969-3.172031z"/><path d="m19.0462801 11.5285003c.698034.0886907 1.2680921.9865932 1.2687806 2.0109979.0013672 1.02028-.5659582 1.8088653-1.2639899 1.764864-.6994015-.0439988-1.2687758-.9405271-1.2701462-2.0048082-.0006854-1.0690943.56664-1.8590561 1.2653555-1.7710537z"/></g></g></svg>