<svg height="32" viewBox="0 0 32 32" width="32" xmlns="http://www.w3.org/2000/svg"><path d="m26.6548205 8.07477333-12.39-2.44c-.18-.03-.36.01-.5.13-.14.11-.22.28-.22.46v2l-3.91999996-.77c-.18-.03-.36.01-.5.13-.14.11-.22.28-.22.46v1.66l-3.31-.65c-.18-.03-.36.01-.5.13-.14.11-.22.28-.22.46v12.12999997c0 .18.08.35.22.46s.32.16.5.13l3.31-.65v2.24c0 .18.08.35.22.46.11.09.24.14.38.14.04 0 .08 0 .12-.01l3.91999996-.77v2c0 .18.08.35.22.46.11.09.24.14.38.14.04 0 .08 0 .12-.01l12.38-2.44c.28-.06.48-.3.48-.59v-14.66999997c.01-.29-.19-.53-.47-.59zm-17.73999996 12.40999997-2.83.56v-10.68l2.83.56zm1.19999996 2.73v-14.44999997l3.44.68v13.09999997zm15.82-.39-11.18 2.21v-18.07999997l11.18 2.21zm-1.74-1.77-.01-3.27-1.69-1.64-2.22 3.03-2.03-.79-1.3 2.27v1.51zm-5.17-5.75c.7.04 1.26-.73 1.26-1.73s-.57-1.89-1.27-1.97c-.7-.09-1.27.69-1.26 1.74 0 1.04.57 1.92 1.27 1.96z"/></svg>