<svg height="32" viewBox="0 0 32 32" width="32" xmlns="http://www.w3.org/2000/svg"><g fill="none" fill-rule="evenodd"><path d="m24.3744498 11.4529605c.0573504-4.62861903-3.7125408-8.44321562-8.3566807-8.45292166-4.6408311-.00966891-8.41871833 3.77212082-8.39286471 8.39555256.01119665 1.9620222.70146911 3.7636172 1.8484422 5.183244 1.47880571 1.8303138 2.30466491 4.0987624 2.30466491 6.4488332v1.8576566h8.4440159v-1.8576566-.0659573c0-2.3146187.8100741-4.553043 2.276231-6.3479735 1.1527288-1.4111417 1.8519623-3.2048699 1.8761914-5.1607773z" fill="#ffd34c"/><path d="m17.0499787 5.08668116c3.0406377.50720321 5.3638293 3.17738034 5.3246246 6.34150044-.0167663 1.3534716-.4589281 2.6346689-1.2503429 3.69623l-.4001601.5083381c-1.2378109 1.6107427-2.0457299 3.4946493-2.357336 5.4769329-.0946127.6018796-.6132369 1.045347-1.2225074 1.0453217h-.0200762c-.621391 0-1.1251279-.5037369-1.1251279-1.1251279 0-.0000176 0-.0000352 0-.0000528l.0007063-15.05362023c.0000007-.49808113.4037941-.90183672.9018753-.90181335.0497023.00000234.0993193.00411338.1483443.01229114z" fill="#ffe8a5"/><path d="m11.7702591 26.2880089v-2.9979998h8.4977131v3.0702912c0 .6157251-.3844514 1.1659442-.9626231 1.3776866l-1.1618051.4254852c-1.3692155.5014445-2.8741975.4870106-4.2335435-.040603l-1.2034492-.4671041c-.5644072-.2190678-.9362922-.7623254-.9362922-1.3677561z" fill="#59adcb"/><path d="m20.2673719 24.1395006.0006003 2.2207997c0 .6157251-.3844514 1.1659442-.9626231 1.3776866l-1.1618051.4254852c-1.3692155.5014445-2.8741975.4870106-4.2335435-.040603l-1.2034492-.4671041c-.5644072-.2190678-.9362947-.7623254-.9362947-1.3677561v-.648327l.1086264-.0219327z" fill="#85c6dd"/><path d="m20.26743 25.9096762.0005422.3378107c0 .6157251-.3844514 1.1659441-.9626231 1.3776866l-1.1618051.4254852c-1.3692155.5014445-2.8741975.4870106-4.2335435-.040603l-1.2034492-.4671042c-.1460292-.0566794-.2791707-.1350606-.3963179-.2306053z" fill="#9cd5e9"/><path d="m18.4687945 8.34299532c.3154627-.50838614.9833241-.66478153 1.4917102-.34931888.4720728.29292961.6406435.88971324.4097394 1.3805159l-.0604205.11119429-4.0333664 6.50000107c-.3625454.5842627-1.1597452.6795531-1.6504607.2296319l-.0938371-.0972704-2.6059432-3.0512551c-.3885638-.4549629-.3347368-1.1387765.1202261-1.5273404.4199658-.3586744 1.0349286-.3404002 1.4326693.0223742l.0946711.0978519 1.6418838 1.9226197z" fill="#ff5c00" fill-rule="nonzero"/><path d="m19.9605047 7.99367644c.4720728.29292961.6406435.88971324.4097394 1.3805159l-.0604205.11119429-4.0333664 6.50000107c-.0752943.121341-.169336.2215917-.2754863.3002483l-.0013255-3.9649269 2.4691491-3.97771378c.3154627-.50838614.9833241-.66478153 1.4917102-.34931888z" fill="#ff8a3b"/></g></svg>