<svg height="32" viewBox="0 0 32 32" width="32" xmlns="http://www.w3.org/2000/svg"><path d="m16.0190489 2.39980257c4.9771095.01065388 9.0168505 4.09741509 8.9553549 9.06058993-.0238325 1.9238867-.6597576 3.7504805-1.7931508 5.2547032l-.4315939.549089c-1.1747773 1.5484288-1.8457306 3.4096739-1.9206013 5.3356984l-.0070304.3618282-.0014349 3.398589c0 .8125483-.473426 1.5446892-1.2010524 1.8792096l-.1488497.0615085-1.1553274.4254851c-1.4054615.5176048-2.9417014.535986-4.3545937.0575991l-.2808586-.1023002-1.1967393-.4671041c-.7390959-.2884796-1.2422386-.9744517-1.3060394-1.7575138l-.0068729-.1691756.0000678-3.6130942c-.0718976-1.9494399-.748571-3.8391527-1.93523561-5.4252345l-.43392501-.5579676c-1.13480363-1.516426-1.76520298-3.3568351-1.77640365-5.2927488-.02758217-4.95787199 4.02151227-9.00926981 8.99428627-8.99916123zm3.6007137 23.59600003h-7.25l.0004965.2922063c0 .2789482.132239.5351973.3465768.6960297l.0967394.0628744.1059152.0499187 1.1967393.4671041c1.1283962.4404289 2.3689102.483075 3.5203752.1260026l.2640504-.0894977 1.1553274-.4254852c.3010201-.11086.5130047-.3801304.5563961-.6947626l.0082136-.1198926zm.0002374-2.7118026-7.2422374-.0001974.0002374 1.5121974 7.2417626-.0001974zm-3.6035106-19.6841622-.2475309.00337807c-4.1932421.12313885-7.56758344 3.58078192-7.54417628 7.78899233.00962172 1.6641129.54680221 3.2445241 1.51575148 4.5517954l.4195933.5392073c1.2422303 1.6420323 1.9960255 3.5813602 2.1759172 5.6008173l7.3226391.0003702c.1582366-1.8905663.8251586-3.7085425 1.9302663-5.2665147l.2268431-.3080722.4183125-.5318162c.9741677-1.2993846 1.5198351-2.873109 1.5403907-4.5324685.0532152-4.29487739-3.4476547-7.83649524-7.7580065-7.845689zm3.9440153 4.39383864c.4720728.29292961.6406435.88971324.4097394 1.3805159l-.0604205.11119429-4.0333664 6.50000107c-.3625454.5842627-1.1597452.6795531-1.6504607.2296319l-.0938371-.0972704-2.6059432-3.0512551c-.3885638-.4549629-.3347368-1.1387765.1202261-1.5273404.4199658-.3586744 1.0349286-.3404002 1.4326693.0223742l.0946711.0978519 1.6418838 1.9226197 3.253128-5.23900418c.3154627-.50838614.9833241-.66478153 1.4917102-.34931888z"/></svg>