<svg height="32" viewBox="0 0 32 32" width="32" xmlns="http://www.w3.org/2000/svg"><g fill="none" fill-rule="evenodd"><path d="m24.3744498 11.4529605c.0573504-4.62861903-3.7125408-8.44321562-8.3566807-8.45292166-4.6408311-.00966891-8.41871833 3.77212082-8.39286471 8.39555256.01119665 1.9620222.70146911 3.7636172 1.8484422 5.183244 1.47880571 1.8303138 2.30466491 4.0987624 2.30466491 6.4488332v1.8576566h8.4440159v-1.8576566-.0659573c0-2.3146187.8100741-4.553043 2.276231-6.3479735 1.1527288-1.4111417 1.8519623-3.2048699 1.8761914-5.1607773z" fill="#000"/><path d="m11.7702591 26.2880089v-2.9979998h8.4977131v3.0702912c0 .6157251-.3844514 1.1659442-.9626231 1.3776866l-1.1618051.4254852c-1.3692155.5014445-2.8741975.4870106-4.2335435-.040603l-1.2034492-.4671041c-.5644072-.2190678-.9362922-.7623254-.9362922-1.3677561z" stroke="#000" stroke-linecap="round" stroke-linejoin="round" stroke-width="1.2"/><path d="m18.4687945 8.34299532c.3154627-.50838614.9833241-.66478153 1.4917102-.34931888.4720728.29292961.6406435.88971324.4097394 1.3805159l-.0604205.11119429-4.0333664 6.50000107c-.3625454.5842627-1.1597452.6795531-1.6504607.2296319l-.0938371-.0972704-2.6059432-3.0512551c-.3885638-.4549629-.3347368-1.1387765.1202261-1.5273404.4199658-.3586744 1.0349286-.3404002 1.4326693.0223742l.0946711.0978519 1.6418838 1.9226197z" fill="#fff" fill-rule="nonzero"/></g></svg>