<svg height="32" viewBox="0 0 32 32" width="32" xmlns="http://www.w3.org/2000/svg"><path d="m19.4988877 6.45552429c1.8005788 0 3.3011496 1.37653064 3.4827827 3.14378582l.0143673.19079898.0039623.16651967.0003478 4.44073634c0 .2466613-.157222.4605648-.3881047.5403436l-.0898696.0234319-.093763.0080066c-.2466352 0-.4605038-.1572415-.5402565-.3881111l-.0234226-.0898641-.0079977-.0938197.0009175-4.44071571c0-1.19228737-.9012563-2.19442182-2.0627863-2.34052974l-.1599435-.01455532-.1362337-.00387848h-12.18859033c-1.20080267 0-2.20354197.90128337-2.34970862 2.07000933l-.01456063.1609699-.00387936.13716938v8.17471394c0 1.2008027.90128337 2.203542 2.07000933 2.3497086l.1609699.0145607.13716938.0038793h3.88078563c.2497048 0 .465437.161276.5424233.395528l.0221615.0910928.0064896.084468-.0011574 2.688227 3.0187195-3.0959913.0689676-.0601242.0789628-.0487049.0891609-.0369219.0885162-.0203716.0833396-.006387 1.0439974.0091851c.2956387-.0001241.5354019.2294741.535526.5251128l-.0018631.0448475c-.0239786.2866496-.2420959.5136961-.5184767.5561849l-.0940985.007156-.6957609-.030584-3.8579187 3.9599187c-.2836573.2910762-.7549376.1954786-.9229705-.148601l-.0331703-.083751-.0184855-.0867645-.0054372-.0794366-.0010086-3.522767-3.30870263.000833c-1.68431966 0-3.10928961-1.1954215-3.43888855-2.8044016l-.03207194-.1804377-.02346484-.190461-.0119098-.1676937-.00396224-.1673034v-8.17471394c0-1.80921265 1.37656293-3.310314 3.1513581-3.49196726l.19163591-.01436787.16730336-.00396224zm3.9772017 9.79651391.0077924.0725419-.0005296 2.4094175.1147098.0085168c2.5255426.2121053 4.5342208 2.2411152 4.7145598 4.7755547l.0111341.2249053.0020535.1470787c0 .2645578-.2932064.4080543-.4992654.272942l-.0537514-.0438749-.180649-.180649c-1.0095603-1.0095431-2.3723255-1.570186-3.7836514-1.5750621l-.32514.0090843.0005296 2.425429c0 .2348363-.2333742.377427-.4321217.3061622l-.0645991-.0318424-.0405518-.0305231-4.8419069-4.2366815c-.129065-.1129323-.1451979-.3027318-.0483989-.4348806l.0483995-.0527134 4.8419069-4.2366607c.1904186-.166616.478648-.0588285.5294796.1712553zm-14.85278361-4.4855619c.54158635 0 1.02711911.1377863 1.44508221.4032281.1557034.0915902.2628517.2638678.2628517.4693339 0 .3056995-.2449617.5459504-.55223144.5459504-.10771263 0-.20016837-.0271929-.29566069-.0828975-.32118568-.1889328-.60292191-.2814-.87260377-.2814-.24128931 0-.39512967.0766786-.44550559.1848331l-.01520844.0481473-.00457522.062722c0 .1491038.06261822.2248261.30765698.3154193l.10067448.0348419.20684846.0620682.25846427.0687529c.90307464.2353082 1.35010556.5574778 1.44865226 1.1561449l.0158225.132587.004691.1396073c0 .9078162-.68312798 1.4629752-1.71421491 1.4629752-.61111448 0-1.21291534-.1893306-1.70956915-.5459065-.13702681-.0967248-.22448044-.267366-.22448044-.4459943 0-.3056995.24496166-.5459504.5522314-.5459504.07212214 0 .13763488.0119713.19932569.0349637l.0900182.0426355.0462878.0297909c.33964811.2499298.6837517.3762463 1.06502947.3762463.2756064 0 .45269182-.0791892.51108772-.1999391l.01770131-.0541848.00559114-.0729836c0-.1298611-.05736885-.2057923-.26799106-.2931286l-.09992907-.0383185-.19485042-.0629801-.50650422-.1374883c-.78919125-.2270459-1.16986899-.5221685-1.25538523-1.1110675l-.01384845-.1307714-.00430147-.141948c0-.8483149.67867841-1.4252893 1.63884298-1.4252893zm9.47173551 0c.5415864 0 1.0271191.1377863 1.4450822.4032281.1557035.0915902.2628517.2638678.2628517.4693339 0 .3056995-.2449616.5459504-.5522314.5459504-.1077126 0-.2001684-.0271929-.2956607-.0828975-.3211857-.1889328-.6029219-.2814-.8726038-.2814-.2412893 0-.3951296.0766786-.4455056.1848331l-.0152084.0481473-.0045752.062722c0 .1491038.0626182.2248261.307657.3154193l.1006744.0348419.2068485.0620682.2584643.0687529c.9030746.2353082 1.3501055.5574778 1.4486523 1.1561449l.0158224.132587.004691.1396073c0 .9078162-.6831279 1.4629752-1.7142149 1.4629752-.6111145 0-1.2129153-.1893306-1.7095691-.5459065-.1370268-.0967248-.2244805-.267366-.2244805-.4459943 0-.3056995.2449617-.5459504.5522314-.5459504.0721222 0 .1376349.0119713.1993257.0349637l.0900182.0426355.0462878.0297909c.3396481.2499298.6837517.3762463 1.0650295.3762463.2756064 0 .4526918-.0791892.5110877-.1999391l.0177013-.0541848.0055912-.0729836c0-.1298611-.0573689-.2057923-.2679911-.2931286l-.0999291-.0383185-.1948504-.0629801-.5065042-.1374883c-.7891913-.2270459-1.169869-.5221685-1.2553852-1.1110675l-.0138485-.1307714-.0043015-.141948c0-.8483149.6786785-1.4252893 1.638843-1.4252893zm-6.2747107.0376859c.164919 0 .3061593.0580088.417518.1649291l.0631799.0699488.0441952.0640463 1.0827763 1.7649136 1.0896441-1.7712888c.0656303-.1066493.1468439-.1844815.2463937-.2331032l.0781435-.0309832.107742-.0232689.086275-.0051937h.1067769c.2604791 0 .4812745.1665616.556868.4097342l.0213351.0946052.0054333.079297v3.4922314c0 .3253111-.2583253.5836364-.5836364.5836364-.2520989 0-.4704577-.1664698-.5483665-.4052343l-.0224238-.0927416-.0065651-.0856605-.0006198-1.85503-.664109 1.0248802c-.0836821.1255231-.1815443.2123437-.2974098.2562771l-.0903345.0248433-.0974442.0083683c-.1402834 0-.259998-.0492491-.3634164-.1446751l-.0745749-.0801797-.0478833-.065677-.6518279-1.0038371.0003471 1.847592c0 .2545967-.1648067.4673263-.39449.5422342l-.0889771.0214427-.0938883.0073975c-.2527175 0-.466807-.1591076-.5428494-.3943374l-.0218508-.0916174-.0063741-.0851196v-3.5047934c0-.260479.1665615-.4812744.4097341-.556868l.0946052-.0213351.079297-.0054333z"/></svg>