<svg height="32" viewBox="0 0 32 32" width="32" xmlns="http://www.w3.org/2000/svg"><g fill="none"><g transform="translate(3.5 6.25)"><path d="m15.0793489 0c1.5594133 0 2.8358685 1.23472603 2.9165977 2.76651653l.0040534.15413454v8.14852493c0 1.5682735-1.234726 2.8450146-2.7748144 2.925753l-.1549923.0040537h-4.2872152l-3.98481849 4.0890398v-4.0798841h-3.8683529c-1.56827355 0-2.84501457-1.2347261-2.92575304-2.7748145l-.00405367-.1549923v-8.14852489c0-1.56827355 1.23472603-2.84501457 2.77481442-2.92575304l.15499229-.00405367z" fill="#4da86d"/><g fill="#fff"><path d="m4.28243478 4.75043478c-.85053913 0-1.46941043.47463652-1.52917121 1.20382513l-.00474183.12974009c0 .78323478.46148869 1.05933913 1.19733496 1.27103791l.5034327.1366428.19872147.06411277c.32201902.11541032.41987568.22268274.43394888.38081708l.00186634.05695466c0 .25669565-.23791305.41321739-.63234783.41321739-.37252174 0-.69710869-.11504348-.99473234-.30738179l-.12596331-.08705299c-.0626087-.04382609-.15026087-.08765218-.27547826-.08765218-.25043478 0-.45078261.19408696-.45078261.44452174 0 .15026087.07513043.288.18156522.36313044.48834782.35060869 1.07060869.52591304 1.64660869.52591304.90037267 0 1.54519965-.44294587 1.60457008-1.23689526l.0044734-.13423518c0-.7213913-.44676328-1.04628019-1.24535266-1.27530112l-.40268674-.10814317-.20918886-.06271875c-.34138859-.11164402-.45861481-.21071128-.47578176-.39282218l-.00229433-.06431912c0-.21286957.19408696-.38191305.56347826-.38191305.30052174 0 .60104348.10643479.92034783.29426087.07513043.04382609.15026087.06886957.24417391.06886957.25043479 0 .45078261-.19408696.45078261-.44452174 0-.18782609-.10643478-.31930435-.21286956-.38191304-.39443479-.25043479-.85773913-.38817392-1.38991305-.38817392z"/><path d="m13.7238261 4.75043478c-.8505391 0-1.4694104.47463652-1.5291712 1.20382513l-.0047419.12974009c0 .78323478.4614887 1.05933913 1.197335 1.27103791l.5034327.1366428.1987215.06411277c.322019.11541032.4198757.22268274.4339489.38081708l.0018663.05695466c0 .25669565-.2379131.41321739-.6323478.41321739-.3725218 0-.6971087-.11504348-.9947324-.30738179l-.1259633-.08705299c-.0626087-.04382609-.1502609-.08765218-.2754782-.08765218-.2504348 0-.4507827.19408696-.4507827.44452174 0 .15026087.0751305.288.1815653.36313044.4883478.35060869 1.0706087.52591304 1.6466087.52591304.9003726 0 1.5451996-.44294587 1.60457-1.23689526l.0044734-.13423518c0-.7213913-.4467633-1.04628019-1.2453526-1.27530112l-.4026868-.10814317-.2091888-.06271875c-.3413886-.11164402-.4586148-.21071128-.4757818-.39282218l-.0022943-.06431912c0-.21286957.1940869-.38191305.5634782-.38191305.3005218 0 .6010435.10643479.9203479.29426087.0751304.04382609.1502608.06886957.2441739.06886957.2504348 0 .4507826-.19408696.4507826-.44452174 0-.18782609-.1064348-.31930435-.2128696-.38191304-.3944348-.25043479-.8577391-.38817392-1.389913-.38817392z"/><path d="m7.46921739 4.788h-.10643478c-.26921739 0-.48208696.21286957-.48208696.48208696v3.49356521c0 .26295653.2066087.46956522.46956522.46956522s.47582609-.20660869.47582609-.46956522v-2.1787826l.83269565 1.28347826c.10017391.15026087.2253913.24417391.40069565.24417391s.30052174-.09391304.40069565-.24417391l.84521739-1.30226087v2.18504347c0 .26295653.2128696.48208696.4758261.48208696.2692174 0 .4820869-.21286956.4820869-.48208696v-3.48104347c0-.26921739-.2128695-.48208696-.4820869-.48208696h-.1064348c-.1940869 0-.3318261.0813913-.432.24417391l-1.1707826 1.90330435-1.16452174-1.89704348c-.08765217-.144-.23165217-.25043478-.43826087-.25043478z"/></g></g><path d="m17.3144982 19.4143508-.0937211.0915047-.0483995.0527134-.0841447.1024763c-.4640545.6335214-.3721163 1.5235001.2262625 2.0470832l4.8419069 4.2366815.1091061.0861907c.0598875.045077.1238668.0844437.191099.117584l.0645991.0318424.1255207.0532364.1223924.0382602c.940449.251573 1.9147622-.4481629 1.9147622-1.4740012l-.0008818-1.1409224.0626068.013857c.7412839.1750201 1.4401378.558281 1.9980158 1.1161495l.1806418.1806418.0897168.0810983.0537514.0438749.1008113.0738853c1.0021168.6570855 2.3572655-.0550359 2.3572655-1.2764537l-.0021704-.1638314-.0124849-.2674867-.0216176-.2408628c-.2859826-2.6348839-2.1523874-4.777974-4.6274698-5.463361l-.1790667-.0465112.0008817-1.3831562-.0068639-.1284287-.0077923-.0725419-.021391-.1307047c-.2470553-1.1182681-1.6127587-1.5843138-2.4914294-.8154784z" fill="#fff"/><path d="m23.4760894 16.2520382.0077924.0725419-.0005296 2.4094175.1147098.0085168c2.5255426.2121053 4.5342208 2.2411152 4.7145598 4.7755547l.0111341.2249053.0020535.1470787c0 .2645578-.2932064.4080543-.4992654.272942l-.0537514-.0438749-.180649-.180649c-1.0095603-1.0095431-2.3723255-1.570186-3.7836514-1.5750621l-.32514.0090843.0005296 2.425429c0 .2348363-.2333742.377427-.4321217.3061622l-.0645991-.0318424-.0405518-.0305231-4.8419069-4.2366815c-.129065-.1129323-.1451979-.3027318-.0483989-.4348806l.0483995-.0527134 4.8419069-4.2366607c.1904186-.166616.478648-.0588285.5294796.1712553z" fill="#007b3d"/></g></svg>