<svg height="32" viewBox="0 0 32 32" width="32" xmlns="http://www.w3.org/2000/svg"><path d="m23.768057 4.25c1.9925836 0 3.6236097 1.57770549 3.7267637 3.53499335l.0051793.19694968v10.41200407c0 2.0039051-1.5777055 3.6352964-3.5455962 3.7384622l-.1980457.0051797h-5.4781083l-5.0917125 5.2248843v-5.2131854h-4.94289539c-2.00390509 0-3.63529639-1.5777055-3.73846222-3.5455962l-.00517969-.1980457v-10.41200409c0-2.00390509 1.57770549-3.63529639 3.54559621-3.73846222l.1980457-.00517969zm-13.796057 6.07c-1.0868 0-1.87758.60648-1.953941 1.538221l-.006059.165779c0 1.0008.58968 1.3536 1.529928 1.624104l.6432751.1745991.2539219.0819219c.4114687.1474688.5365078.2845391.5544902.4865996l.0023848.0727754c0 .328-.304.528-.808.528-.476 0-.89075-.147-1.27104688-.3927656l-.16095312-.1112344c-.08-.056-.192-.112-.352-.112-.32 0-.576.248-.576.568 0 .192.096.368.232.464.624.448 1.368.672 2.104.672 1.1504762 0 1.9744218-.5659864 2.050284-1.5804773l.005716-.1715227c0-.9217778-.5708642-1.3369136-1.591284-1.6295514l-.5145441-.138183-.2672969-.0801406c-.43621875-.1426562-.58600781-.2692422-.60794336-.5019395l-.00293164-.0821855c0-.272.248-.488.72-.488.384 0 .768.136 1.176.376.096.056.192.088.312.088.32 0 .576-.248.576-.568 0-.24-.136-.408-.272-.488-.504-.32-1.096-.496-1.776-.496zm12.064 0c-1.0868 0-1.87758.60648-1.953941 1.538221l-.006059.165779c0 1.0008.58968 1.3536 1.529928 1.624104l.6432751.1745991.2539219.0819219c.4114687.1474688.5365078.2845391.5544902.4865996l.0023848.0727754c0 .328-.304.528-.808.528-.476 0-.89075-.147-1.2710469-.3927656l-.1609531-.1112344c-.08-.056-.192-.112-.352-.112-.32 0-.576.248-.576.568 0 .192.096.368.232.464.624.448 1.368.672 2.104.672 1.1504762 0 1.9744218-.5659864 2.050284-1.5804773l.005716-.1715227c0-.9217778-.5708642-1.3369136-1.591284-1.6295514l-.5145441-.138183-.2672969-.0801406c-.4362188-.1426562-.5860078-.2692422-.6079434-.5019395l-.0029316-.0821855c0-.272.248-.488.72-.488.384 0 .768.136 1.176.376.096.056.192.088.312.088.32 0 .576-.248.576-.568 0-.24-.136-.408-.272-.488-.504-.32-1.096-.496-1.776-.496zm-7.992.048h-.136c-.344 0-.616.272-.616.616v4.464c0 .336.264.6.6.6s.608-.264.608-.6v-2.784l1.064 1.64c.128.192.288.312.512.312s.384-.12.512-.312l1.08-1.664v2.792c0 .336.272.616.608.616.344 0 .616-.272.616-.616v-4.448c0-.344-.272-.616-.616-.616h-.136c-.248 0-.424.104-.552.312l-1.496 2.432-1.488-2.424c-.112-.184-.296-.32-.56-.32z"/></svg>