<svg height="32" viewBox="0 0 32 32" width="32" xmlns="http://www.w3.org/2000/svg"><path d="m23.4760894 16.2520382.0077924.0725419-.0005296 2.4094175.1147098.0085168c2.5255426.2121053 4.5342208 2.2411152 4.7145598 4.7755547l.0111341.2249053.0020535.1470787c0 .2645578-.2932064.4080543-.4992654.272942l-.0537514-.0438749-.180649-.180649c-1.0095603-1.0095431-2.3723255-1.570186-3.7836514-1.5750621l-.32514.0090843.0005296 2.425429c0 .2348363-.2333742.377427-.4321217.3061622l-.0645991-.0318424-.0405518-.0305231-4.8419069-4.2366815c-.129065-.1129323-.1451979-.3027318-.0483989-.4348806l.0483995-.0527134 4.8419069-4.2366607c.1904186-.166616.478648-.0588285.5294796.1712553zm-4.8967405-10.0020382c1.5594133 0 2.8358685 1.23472603 2.9165977 2.76651653l.0040534.15413454v6.58034893l-4.1855018 3.6633508-.0937211.0915047-.0483995.0527134-.0841447.1024763c-.1316797.1797675-.2185913.3801847-.2618669.5870207l-2.5433879.0009168-3.9848185 4.0890398v-4.0798841h-3.86835289c-1.56827355 0-2.84501457-1.2347261-2.92575304-2.7748145l-.00405367-.1549923v-8.14852489c0-1.56827355 1.23472603-2.84501457 2.77481442-2.92575304l.15499229-.00405367zm-10.79691412 4.7504348c-.85053913 0-1.46941043.4746365-1.52917121 1.2038251l-.00474183.1297401c0 .7832348.46148869 1.0593391 1.19733496 1.2710379l.5034327.1366428.19872147.0641128c.32201902.1154103.41987568.2226827.43394888.3808171l.00186634.0569546c0 .2566957-.23791305.4132174-.63234783.4132174-.37252174 0-.69710869-.1150435-.99473234-.3073818l-.12596331-.087053c-.0626087-.0438261-.15026087-.0876521-.27547826-.0876521-.25043478 0-.45078261.1940869-.45078261.4445217 0 .1502609.07513043.288.18156522.3631304.48834782.3506087 1.07060869.5259131 1.64660869.5259131.90037267 0 1.54519965-.4429459 1.60457008-1.2368953l.0044734-.1342352c0-.7213913-.44676328-1.0462802-1.24535266-1.2753011l-.40268674-.1081432-.20918886-.0627187c-.34138859-.111644-.45861481-.2107113-.47578176-.3928222l-.00229433-.0643191c0-.2128696.19408696-.3819131.56347826-.3819131.30052174 0 .60104348.1064348.92034783.2942609.07513043.0438261.15026087.0688696.24417391.0688696.25043479 0 .45078261-.194087.45078261-.4445218 0-.187826-.10643478-.3193043-.21286956-.381913-.39443479-.2504348-.85773913-.3881739-1.38991305-.3881739zm9.44139132 0c-.8505391 0-1.4694104.4746365-1.5291712 1.2038251l-.0047419.1297401c0 .7832348.4614887 1.0593391 1.197335 1.2710379l.5034327.1366428.1987215.0641128c.322019.1154103.4198757.2226827.4339489.3808171l.0018663.0569546c0 .2566957-.2379131.4132174-.6323478.4132174-.3725218 0-.6971087-.1150435-.9947324-.3073818l-.1259633-.087053c-.0626087-.0438261-.1502609-.0876521-.2754782-.0876521-.2504348 0-.4507827.1940869-.4507827.4445217 0 .1502609.0751305.288.1815653.3631304.4883478.3506087 1.0706087.5259131 1.6466087.5259131.9003726 0 1.5451996-.4429459 1.60457-1.2368953l.0044734-.1342352c0-.7213913-.4467633-1.0462802-1.2453526-1.2753011l-.4026868-.1081432-.2091888-.0627187c-.3413886-.111644-.4586148-.2107113-.4757818-.3928222l-.0022943-.0643191c0-.2128696.1940869-.3819131.5634782-.3819131.3005218 0 .6010435.1064348.9203479.2942609.0751304.0438261.1502608.0688696.2441739.0688696.2504348 0 .4507826-.194087.4507826-.4445218 0-.187826-.1064348-.3193043-.2128696-.381913-.3944348-.2504348-.8577391-.3881739-1.389913-.3881739zm-6.2546087.0375652h-.1064348c-.2692174 0-.4820869.2128696-.4820869.482087v3.4935652c0 .2629565.2066086.4695652.4695652.4695652.2629565 0 .4758261-.2066087.4758261-.4695652v-2.1787826l.8326956 1.2834782c.1001739.1502609.2253913.2441739.4006957.2441739.1753043 0 .3005217-.093913.4006956-.2441739l.8452174-1.3022608v2.1850434c0 .2629566.2128696.482087.4758261.482087.2692174 0 .4820869-.2128696.4820869-.482087v-3.4810434c0-.2692174-.2128695-.482087-.4820869-.482087h-.1064348c-.1940869 0-.3318261.0813913-.432.2441739l-1.1707826 1.9033044-1.1645217-1.8970435c-.0876522-.144-.2316522-.2504348-.4382609-.2504348z"/></svg>