<svg height="32" viewBox="0 0 32 32" width="32" xmlns="http://www.w3.org/2000/svg"><path d="m23.768057 3.55552429c2.3164393 0 4.2171313 1.83652801 4.3269329 4.1228912l.0050101.20905183v10.41200408c0 2.3277897-1.8365237 4.2288198-4.1335875 4.3386315l-.2100544.0050104-5.2263581-.0000365-4.9137578 5.0436733c-.3300095.3386408-.8748008.1745725-1.0023827-.2351915l-.0207228-.0914735-.0065994-.0920876-.0005373-4.6139207-4.34235809.0007354c-2.25725065 0-4.11321402-1.7269057-4.32375209-3.9260705l-.0148794-.207517-.00501042-.2100544v-10.4120041c0-2.32778973 1.83652374-4.22881984 4.13358752-4.33863149l.21005439-.00501042zm0 1.2h-15.52441509c-1.67224153 0-3.045904 1.31316276-3.13865095 2.96536705l-.00499096.17827486v10.4120041c0 1.6722415 1.31316276 3.045904 2.96536705 3.1386509l.17827486.004991h4.94289539c.2982337 0 .5456467.2175896.592147.5026769l.007853.0973231-.0005373 3.7372646 4.0625449-4.1677161c.0677606-.0695328.1506487-.1208753.2410697-.1508241l.0926505-.0226988.0959847-.0077245h5.4781083c1.6722415 0 3.045904-1.3131628 3.1386509-2.965367l.004991-.1782749v-10.41200408c0-1.66094289-1.3131597-3.03421881-2.9548368-3.12695254zm-13.852057 5.56447571c.68 0 1.272.176 1.776.496.136.08.272.248.272.488 0 .32-.256.568-.576.568-.12 0-.216-.032-.312-.088-.408-.24-.792-.376-1.176-.376-.42909091 0-.67305785.1785124-.71386927.4153268l-.00613073.0886732c0 .276.135.4125.610875.568125l.2672969.0801406.3298281.0877344c1.0728889.2795556 1.703358.6590123 1.7700988 1.5225144l.0059012.1734856c0 1.112-.848 1.736-2.056 1.736-.736 0-1.48-.224-2.104-.672-.136-.096-.232-.272-.232-.464 0-.32.256-.568.576-.568.128 0 .22528.03584.300032.078848l.051968.033152c.424.312.888.504 1.432.504.4581818 0 .7510744-.1652893.8005409-.4417731l.0074591-.1022269c0-.234-.108-.3825-.556875-.543375l-.2539219-.0819219-.6432751-.1745991c-.888012-.255476-1.463326-.584358-1.524509-1.463207l-.005419-.176897c0-1.016.816-1.688 1.96-1.688zm12.064 0c.68 0 1.272.176 1.776.496.136.08.272.248.272.488 0 .32-.256.568-.576.568-.12 0-.216-.032-.312-.088-.408-.24-.792-.376-1.176-.376-.4290909 0-.6730579.1785124-.7138693.4153268l-.0061307.0886732c0 .276.135.4125.610875.568125l.2672969.0801406.3298281.0877344c1.0728889.2795556 1.703358.6590123 1.7700988 1.5225144l.0059012.1734856c0 1.112-.848 1.736-2.056 1.736-.736 0-1.48-.224-2.104-.672-.136-.096-.232-.272-.232-.464 0-.32.256-.568.576-.568.128 0 .22528.03584.300032.078848l.051968.033152c.424.312.888.504 1.432.504.4581818 0 .7510744-.1652893.8005409-.4417731l.0074591-.1022269c0-.234-.108-.3825-.556875-.543375l-.2539219-.0819219-.6432751-.1745991c-.888012-.255476-1.463326-.584358-1.524509-1.463207l-.005419-.176897c0-1.016.816-1.688 1.96-1.688zm-7.992.048c.2262857 0 .3937959.0999184.5075685.2443382l.0524315.0756618 1.488 2.424 1.496-2.432c.1097143-.1782857.2546939-.2801633.4500525-.3056327l.1019475-.0063673h.136c.3127273 0 .5659504.2247934.6094065.5241172l.0065935.0918828v4.448c0 .344-.272.616-.616.616-.3024 0-.55296-.2268-.600048-.517104l-.007952-.098896v-2.792l-1.08 1.664c-.128.192-.288.312-.512.312-.192 0-.3369796-.0881633-.4550904-.2342624l-.0569096-.0777376-1.064-1.64v2.784c0 .336-.272.6-.608.6-.3024 0-.54648-.21384-.592272-.501552l-.007728-.098448v-4.464c0-.3127273.2247934-.5659504.5241172-.6094065l.0918828-.0065935z"/></svg>