<svg height="32" viewBox="0 0 32 32" width="32" xmlns="http://www.w3.org/2000/svg"><path d="m16.5127392 4.49919399c1.2575848-.01919976 2.5055698-.00959988 3.7535548-.01919976.0767991 1.46878233.6047927 2.96636431 1.6799798 4.00315184 1.0751871 1.06558718 2.5919688 1.55518133 4.070351 1.71837933v3.8687535c-1.3823833-.0479995-2.7743666-.335996-4.0319515-.9311888-.5471934-.249597-1.0559873-.5663932-1.5551813-.8927893-.0095998 2.8031663.0095999 5.6063326-.0191997 8.3998989-.0767991 1.3439839-.5183938 2.6783678-1.2959844 3.7823545-1.2575849 1.8431779-3.4367587 3.0431634-5.6735318 3.081563-1.3727835.076799-2.745567-.2975964-3.91675286-.9887881-1.93917667-1.1423863-3.30236028-3.2351611-3.50395785-5.4815341-.01919977-.4799942-.02879965-.9599884-.00959988-1.4303828.17279792-1.823978 1.07518706-3.571157 2.4767702-4.7615427 1.59358079-1.3823834 3.82075399-2.0447754 5.90392899-1.6511801.0191998 1.4207829-.0383996 2.8415658-.0383996 4.2623487-.9503885-.3071963-2.0639751-.2207974-2.8991651.3551957-.6047927.3935953-1.0655872.998388-1.3055843 1.6799798-.20159754.4895941-.1439982 1.0271876-.1343984 1.5455814.2303973 1.5743811 1.747179 2.8991651 3.3599596 2.7551669 1.0751871-.0095999 2.1023747-.6335924 2.659168-1.5455814.1823978-.3167962.3839954-.6431923.3935953-1.0175878.0959988-1.7183793.0575993-3.4271588.0671992-5.1455381.0095999-3.8687535-.0095999-7.72790703.0191998-11.58706061"/></svg>