<svg height="32" viewBox="0 0 32 32" width="32" xmlns="http://www.w3.org/2000/svg"><path d="m12.1986391 24.0365147-.0250189.0564682c-.0195838.0348155-.0335498.0607968-.0704154.1305591l-.0394791.0748351c-.0550055.1037245-.0969344.178455-.1405316.2480966-.9172916 1.5150771-2.30433643 2.2629674-4.05098109 2.1512483-2.03524231-.1446365-3.65109155-1.6757595-3.93120517-3.7091787-.13371061-.977116.060418-1.9084087.56036207-2.7444686.04785739-.0861433.09534438-.1619029.16791037-.2715581l.0505338-.076153c.03874601-.0584989.06437485-.0982394.08831898-.1374207l.01029904-.0116882c.00473334-.0098415.0096308-.0195691.01469661-.0291734.01080491-.0273218.02375426-.0541892.03890532-.0803879.14926855-.2581102.29768463-.5164688.50914022-.8858041l.127021-.2219213c.31809236-.5558245.45993974-.8030336.63825506-1.111368 2.64848465-4.6014077 3.82715142-6.6451237 5.28855499-9.16172317.0197428-.03948555.039972-.07260554.0622218-.10499681.2598665-.66179134.6025154-1.20997813 1.0649289-1.65405815 2.0317373-1.97780529 5.3873277-1.47915383 6.7652426 1.00731716.4923838.89613844.8990192 1.60676357 1.8239975 3.20175807.4642278.8004954.6701841 1.1568246.925375 1.6027924.4145033.720561.6288355 1.0921047 1.5371131 2.6655173 1.4639855 2.5360675 2.2132326 3.840474 3.0649389 5.3434883 1.4814178 2.6002508-.1178683 5.8910212-3.0718828 6.3382829-1.7978381.2686424-3.4912426-.5637089-4.4162667-2.1670866-.5233409-.9115143-1.6605912-2.8695892-3.5684225-6.1471875l-.0070803-.0121637-.0562737-.0966694c-2.1300823 3.6836536-3.2394788 5.6011453-3.3281894 5.7524751-.0102912.0175557-.0209922.0342719-.0320686.0501688zm.1628549-2.6733824c1.2419897-2.1475302 2.0759292-3.5888806 2.5018187-4.3240514-.6420124-1.1027607-1.4908605-2.5608138-1.7703285-3.0410938-.8009957-1.3765517-1.2241873-2.1056816-1.32081-2.2764775-.1751348-.3053633-.3101219-.6241871-.4046689-.956674-1.0669638 1.8443166-2.22159781 3.8481201-4.18102882 7.2523841l-.00061456.0010652c-.05239629.0906019-.10162202.1758885-.15312075.2653221 2.23333095-.634731 4.74461553.6716077 5.32875283 3.0795253zm.2479645-12.76554975c-.0130098.03209389-.0259156.06471318-.0387265.0978713-.0953141.19062824-.1408195.4196231-.1686772.78134215-.0151921.592491.1214156 1.1426644.4128033 1.6507456.0945599.1671292.5202127.9004996 1.3153137 2.2669209.4382959.7532337 2.2776549 3.9124562 2.5220972 4.3323996l.0070811.0121651c1.9094769 3.2804252 3.0469059 5.2388078 3.5713709 6.1522826.6796826 1.1781166 1.8921932 1.7740964 3.1977272 1.5790177 2.1206483-.321084 3.2718345-2.6898218 2.2070327-4.5588128-.8503388-1.5005978-1.5984229-2.8029794-3.0608651-5.3363736-.90863-1.574023-1.1230884-1.9457854-1.5386999-2.668276-.2543393-.4444764-.4595234-.7994697-.9225908-1.5979641-.929612-1.6029849-1.3393133-2.3189677-1.8365815-3.22400396-.9940215-1.79372297-3.4144852-2.15295249-4.8787924-.72600002l-.0034126.00329929c-.3191009.30607633-.5667269.69672817-.7850801 1.23538624-.0098594.03313808-.0227296.06587766-.0387265.0978713-.0259752.05195048-.0527924.09288203-.0800911.13084992-.3842872.6623644-.7483013 1.29060633-1.1231356 1.93853183zm-1.5678442 15.06647255c.0208876-.0395593.0361551-.0683006.0496683-.093303.0044512-.0197064.0112604-.0509327.0226612-.103399.1760425-.5601352.218659-1.0845034.1239728-1.616225-.3946198-2.2634798-3.1212197-3.2999067-4.92777274-1.8725208-.08374926.0669994-.15168056.1277801-.30734715.2723276-.08456883.0785399-.12489217.1156373-.17562204.1610272-.05727546.0512465-.12167094.0894738-.18955942.1148834l.0073537-.0028095c-.04916587.019169-.10148168.0320412-.15707714.0376772.21567149-.0224069.35555713-.1625719.41653128-.3043492l-.00490553.0113494c-.02784125.0636372-.0585488.1196472-.10315215.1733292-.02224942.0351086-.04635478.0720556-.07609656.1169599l-.05026992.0757543c-.05679511.0858238-.09029864.1392745-.12908551.208477-.37054092.6200888-.50751618 1.2771999-.4110588 1.9820826.20303225 1.4738637 1.36111134 2.5712195 2.82318457 2.6751383 1.28983638.0824895 2.25487001-.4378537 2.94809661-1.5827293.0298769-.047803.0596255-.1008243.1024354-.1815515z"/></svg>