<svg height="32" viewBox="0 0 32 32" width="32" xmlns="http://www.w3.org/2000/svg"><path d="m27.09125 14.23c-.01-.44-.04-.99-.1-1.64-.06-.66-.15-1.27-.26-1.8-.15-.69-.48-1.28-.99-1.75-.51-.48-1.12-.76-1.8-.84-1.75-.2-4.42-.3-7.93-.3s-6.18.1-7.93.3c-.68.08-1.29.36-1.8.84-.5.47-.83 1.06-.98 1.74-.12.53-.22 1.14-.28 1.81-.06.65-.09 1.21-.1 1.64-.02.43-.02 1.03-.02 1.77s0 1.34.01 1.77c.01.44.04.99.1 1.64.06.67.15 1.28.26 1.8.15.69.48 1.28.99 1.75.51.48 1.12.76 1.8.84 1.75.2 4.42.3 7.93.3s6.18-.1 7.93-.3c.68-.08 1.29-.36 1.8-.84.5-.47.83-1.06.98-1.74.12-.53.22-1.14.28-1.81.06-.65.09-1.2.1-1.64.01-.43.01-1.03.01-1.77.01-.74.01-1.34 0-1.77zm-1.2 3.52c-.01.41-.04.93-.1 1.56-.06.62-.14 1.17-.25 1.65-.1.45-.31.82-.63 1.13-.32.3-.68.47-1.11.52-1.7.19-4.33.29-7.8.29s-6.09-.1-7.8-.29c-.43-.05-.79-.22-1.12-.52-.33-.31-.54-.68-.64-1.13-.1-.48-.18-1.04-.24-1.66s-.09-1.14-.1-1.56v-1.74c0-.74 0-1.32.01-1.75.01-.41.04-.93.1-1.56.06-.61.14-1.17.25-1.65.1-.45.31-.82.63-1.13.32-.3.68-.47 1.11-.52 1.7-.19 4.33-.29 7.8-.29s6.09.1 7.8.29c.43.05.79.22 1.12.52.33.31.54.68.64 1.13.1.48.18 1.04.24 1.66s.09 1.15.1 1.56c.01.42.01 1.01.01 1.75-.01.73-.01 1.31-.02 1.74zm-5.43-2.9-5.98-3.74c-.42-.27-.91-.29-1.38-.05-.45.25-.7.67-.7 1.18v7.5c0 .52.25.94.7 1.18l.02.01c.21.1.42.16.63.16.28 0 .52-.07.73-.22l5.98-3.74c.41-.24.64-.65.64-1.15 0-.48-.23-.89-.64-1.13zm-.61 1.26-.02.01-6 3.75-.03.02s-.01.01-.05.01c-.01 0-.03 0-.09-.03-.05-.03-.06-.05-.06-.12v-7.5c0-.08.01-.1.07-.13.09-.05.11-.03.16 0l6 3.75c.01 0 .02.01.02.01.04.02.05.03.05.11 0 .09-.01.1-.05.12z"/></svg>