<svg height="32" viewBox="0 0 32 32" width="32" xmlns="http://www.w3.org/2000/svg"><path d="m15.7723782 4.35638109c6.3048811 0 11.4159971 5.111116 11.4159971 11.41599711 0 6.3048811-5.111116 11.4159971-11.4159971 11.4159971-6.30488111 0-11.41599711-5.111116-11.41599711-11.4159971 0-6.30488111 5.111116-11.41599711 11.41599711-11.41599711zm0 1.26c-5.6090023 0-10.15599711 4.54699481-10.15599711 10.15599711 0 4.051208 2.37204157 7.548396 5.80302421 9.1784635.6045039-1.6499805 1.636113-3.9438546 2.5289455-5.9231191-.9273914-1.3607256-1.1315143-3.288705-.385121-4.7617829.3220284-.6355536 1.0697437-1.1085288 1.7838872-1.1277649.9314743-.0250901 1.5601957.6781255 1.5601957 1.81638 0 .8420924-.2457096 1.4453588-1.3447091 3.6511972-.0391442.0785677-.0777967.156297-.1159772.2332379.2814332.2532693.6117467.4407795.983422.5336584 2.1990745.5495324 4.0725313-.6804852 4.653299-2.7167029.5903949-2.0699712-.0465429-4.2942712-1.6341507-5.5099715-2.4523953-1.87790583-5.8738057-1.57962408-7.5161357.2078924-1.3768492 1.4985665-1.509292 3.7053211-.4476153 5.5557685.173152.301795.0688663.6868156-.2329287.8599676s-.6868156.0688662-.8599676-.2329287c-1.3230509-2.3060091-1.15466101-5.1117123.6126736-7.0352841 2.0836346-2.26783369 6.2398666-2.63017787 9.2100157-.3558055 2.0155985 1.5434315 2.8068775 4.3067189 2.0797873 6.8559549-.7590827 2.6614043-3.2792382 4.3160119-6.1704489 3.5935197-.4643475-.116037-.8820268-.3208009-1.2480717-.5919529-.8970198 1.8610835-1.5349687 3.3531068-2.2878561 5.4203545 1.0024419.3263615 2.0722337.504915 3.1837289.504915 5.6090023 0 10.1559971-4.5469948 10.1559971-10.1559971s-4.5469948-10.15599711-10.1559971-10.15599711zm-.3913342 8.78133681c-.2518415.0067836-.5810129.2150045-.6938595.4377179-.4129258.8149483-.4075566 1.8478432-.0802768 2.7285564.6059713-1.356109 1.040405-2.3741495 1.040405-2.6094374 0-.4654621-.0860355-.5616916-.2662687-.5568369z"/></svg>