<svg height="32" viewBox="0 0 32 32" width="32" xmlns="http://www.w3.org/2000/svg"><path d="m11.9242187 16.5963555h2.2945313c.3313708 0 .6-.2686292.6-.6v-2.5115625c0-2.4632086 1.3708237-3.83531253 3.7059492-3.83531253.0743973.00018617.0743973.00018617.1491557.0010894.4814064.00692007 1.001649.04576868 1.5256705.10627819.0987872.01140711.1914582.02279919.2770371.03386343v1.68689401h-.8375133c-1.6093293 0-2.4577992.9811632-2.4577992 2.3802925v2.1384575c0 .3313708.2686292.6.6.6h2.4626753l-.3213757 2.0953125h-2.1412996c-.3313708 0-.6.2686291-.6.6v7.9661953c0 .3684594.3290109.6498671.6930158.5927462 5.7980253-.9098462 10.1257342-5.9250128 10.1257342-11.854254 0-6.62742166-5.3725784-12.00000003-12-12.00000003-6.62742163 0-12 5.37257837-12 12.00000003 0 5.9292412 4.3277089 10.9444078 10.1257342 11.854254.3640049.0571209.6930158-.2242868.6930158-.5927462v-7.9661953c0-.3313709-.2686292-.6-.6-.6h-2.2945313zm6.4570313 3.2953125h2.0562891c.2962465 0 .548152-.2162145.5930646-.5090367l.5054297-3.2953125c.0557333-.3633713-.2254441-.6909633-.5930647-.6909633h-2.5617187v-1.5384575c0-.7719912.3530823-1.1802925 1.2577992-1.1802925h1.4375133c.3313708 0 .6-.2686292.6-.6v-2.80546878c0-.2924209-.2108053-.54225223-.4990582-.59144802-.1730669-.02953712-.4671013-.07282257-.8403278-.11591957-.561031-.06478305-1.1198281-.10651068-1.6460738-.1140753-.0831229-.00100465-.0831229-.00100465-.1664035-.00121336-2.9981181 0-4.9059492 1.90961293-4.9059492 5.03531253v1.9115625h-2.2945313c-.3313708 0-.6.2686291-.6.6v3.2953125c0 .3313708.2686292.6.6.6h2.2945313v6.6414137c-4.86468234-1.0927264-8.41875-5.439741-8.41875-10.5367262 0-5.96468 4.8353201-10.80000003 10.8-10.80000003s10.8 4.83532003 10.8 10.80000003c0 5.0969852-3.5540677 9.4439998-8.41875 10.5367262z"/></svg>