<svg height="32" viewBox="0 0 32 32" width="32" xmlns="http://www.w3.org/2000/svg"><path d="m22.6909565 24.1239376c-1.7076169 1.4761905-3.9921304 2.3260624-6.6909565 2.3260624-3.9795556 0-7.41971711-2.2236243-9.18433895-5.4918537l-.13938327-.2672574 3.37883332-2.6241111c.836 2.5196111 3.1814445 4.3425555 5.9448889 4.3425555 1.452163 0 2.5806598-.374239 3.442132-.9244715l.1805347-.1205285.2379793-.1768632c1.1506415-.9070634 1.7163552-2.1406228 1.8726196-3.0386465l.0258455-.1749347h-5.7591111v-3.8781111h9.8113889c.1509444.6502222.2206111 1.2772222.2206111 2.1364444 0 3.0590812-1.0520422 5.656552-2.8877486 7.4724232l-.2240292.2141324zm-6.6909565-18.5739376c2.6988261 0 4.9727162.94548246 6.7505399 2.5011175l.239349.2158825-2.9492222 2.8795556c-.7547223-.7082778-2.0783889-1.55588893-4.0406667-1.55588893-2.6770868 0-4.9618904 1.71079063-5.8726812 4.10841743l-.0838188.2341381-.08445983.2814425c-.15842566.5683013-.25226239 1.1682877-.25226239 1.7853353s.09383673 1.217034.25957434 1.7853353l.08875898.2814425-3.39044443 2.6241111c-.70827778-1.4165556-1.11466667-3.0072778-1.11466667-4.6908889 0-1.5541026.34627219-3.0290572.95662449-4.3609367l.15804218-.3299522.13940697-.2672574c1.76520121-3.26822943 5.21637076-5.4918537 9.19592636-5.4918537z" fill-rule="evenodd"/></svg>