<svg height="32" viewBox="0 0 32 32" width="32" xmlns="http://www.w3.org/2000/svg"><path d="m14.226011 20.8137479c.1692863.7925333-1.3535315.4668659-1.3573272.4395372.1578994 1.1295877.4311867 2.2458906.7086493 3.3508065.069081.2751852.0106279.4854646-.1897829.6581671-.9033665.7765915-1.9403402.929177-3.0513291.5875678-.75343808-.2322943-1.15274127-1.9080771-1.43855429-2.5423315-.60908003-1.2178243-1.11568783-2.4870333-1.63911037-3.7427284l5.80713786.0207245c.2504719.0011407.4570616-.0627555.603859-.1905622l.1131136.2469932c.1955365.4462102.4123383 1.0271322.4433441 1.1718258zm12.6804143-15.27582719.1071563.00513742c.5215233.00986871.6038891.27290778.6315974.74205106l.0080035.30697432c.0329282 2.15599477-.0043012 13.83438909-.01104 16.98604189-.001429.7141195-.1427273.8939785-.8004661.90887l-.4961306.007797c-.4363108.001724-.6946528-.1406975-.7770724-.519082l-.0181178-.109115c-.089198-.741292-.5033042-1.2643336-1.0548133-1.6913451-1.4970074-1.159953-3.1997394-1.9061793-5.0174798-2.39506-1.8363739-.4939313-3.7165724-.6554962-5.609259-.6983231.0212101-.0626149.0352989-.1317119.0421853-.2069014l.0049175-.117305-.0149163-7.5876608.5478703-.0352502c2.417998-.1926982 4.7507591-.7352743 7.0780982-1.41722741 1.0039514-.29416346 1.9642528-.79443114 2.7279391-1.51598566.3867775-.36552183.7215545-.78683982.9762431-1.25484441.187126-.34312745.2937839-1.14590904.623247-1.359225.2233534-.14474108.7385132-.07115218 1.0520376-.04954661zm-20.74601758 5.96186729 5.17982718.1163527 1.5607651.0258593.014 6.942-6.96213067-.0207199c-.12514241-.0029951-.16678606-.0305703-.20631087-.1017524-.10324342-.1858382-.20495691-.3440716-.34970551-.5430905l-.11732686-.1579801-.52315672-.6783154-.05956729-.0806509-.10643893-.1507473c-.04526629-.0661997-.07782811-.1625615-.07866432-.2244409-.01456383-1.0052764-.01521301-2.0554605-.00377448-3.2115695.00052709-.0507263.01955313-.1128317.02529023-.1197981l.53572205-.6400305c.34603412-.4073031.67256361-.7787203.99592772-1.1315439l.06823538-.0198729z" fill-rule="evenodd"/></svg>