<svg height="32" viewBox="0 0 32 32" width="32" xmlns="http://www.w3.org/2000/svg"><path d="m21.5012614 11.6311273c3.5584159 0 5.9366745 2.383329 6.0383954 6.4864343l.0033967.2760809v7.554588c0 .2982337-.2175896.5456467-.5026769.592147l-.0973231.007853h-4.8623001c-.2982338 0-.5456467-.2175897-.592147-.5026769l-.007853-.0973231v-7.0307998c0-1.6518343-.6198068-2.4966255-1.8330903-2.4966255-.8522562 0-1.440297.4871095-1.7693365 1.2987978-.0362219.0855457-.0526101.2105128-.0569241.4698537l-.0003622 7.7587738c0 .2982337-.2175896.5456467-.5026769.592147l-.0973231.007853h-4.8170272c-.2992581 0-.5471534-.2190303-.5925632-.5052325l-.0074554-.0976802.027166-10.434332c-.0019943-1.7284541-.0104137-2.8276736-.0262471-3.1163748-.0171395-.3125147.2074762-.579843.5071218-.6258654l.0919779-.0069914h4.8170272c.2982338 0 .5456468.2175896.592147.5026769l.007853.0973231-.0000403.4152458.0982418-.0724368c.7847782-.5602544 1.8500287-.9572384 3.0365998-1.0517772l.2990781-.0172532zm-11.71531044.1306269c.29823374 0 .54564674.2175896.59214704.5026769l.007853.0973231v13.5864763c0 .2982337-.2175896.5456467-.50267692.592147l-.09732312.007853h-4.28798212c-.29823377 0-.54564676-.2175897-.59214702-.5026769l-.00785298-.0973231v-13.5864763c0-.2982338.21758961-.5456468.50267688-.592147l.09732312-.007853zm11.71531044 1.0693731c-1.9024771 0-3.4339748.9456947-3.7063581 1.8380793-.19069.6247406-1.0736228.5273704-1.1660348-.0708566l-.0078282-.1043041-.0000403-1.5330459h-3.603l.0111728 1.5734889-.0003905 4.371737-.0217823 6.4417741h3.614l-.0006771-7.0891063c.0025241-.4863696.0316109-.7205229.149424-.9985998.4944888-1.2201132 1.4836427-2.0394887 2.8779162-2.0394887 1.9048882 0 2.9612469 1.3532627 3.0295543 3.4744744l.003536.2221511-.0007534 6.4305693h3.6630535v-6.9543575c0-3.433039-1.6891324-5.358736-4.3943141-5.547215l-.2215523-.0114706zm-12.3162614.1298727h-3.088v12.387h3.088zm-1.6225909-7.61276954c1.85457888 0 3.1457725 1.22260055 3.1857244 2.95512582 0 1.64721728-1.24279807 2.87202062-3.02274341 2.95453122l-.22377591.0044366c-1.83483429 0-3.15856068-1.2601663-3.15856068-2.95512585 0-1.71463513 1.34741166-2.95896779 3.2193556-2.95896779zm0 1.2c-1.22959214 0-2.0193556.72934537-2.0193556 1.75896779 0 .97014411.70169682 1.68434554 1.79212076 1.75016485l.19748413.004961c1.23565742 0 2.01547508-.73288594 2.01563582-1.74507992-.02450436-1.05838053-.7750071-1.76901372-1.98588511-1.76901372z"/></svg>