<svg height="32" viewBox="0 0 32 32" width="32" xmlns="http://www.w3.org/2000/svg"><g fill="none" fill-rule="evenodd"><path d="m27.6421425 23.5781254c-.0015183.7587519-.1609359.9143739-.9299361.9098191-.1222202-.0003796-.2444404.0064526-.3666606.0068322-.4759754.0018978-.7401532-.1677681-.7951902-.6281813-.089198-.741292-.5033042-1.2643336-1.0548133-1.6913451-1.4970074-1.159953-3.1997394-1.9061793-5.0174798-2.39506-1.9107341-.513932-3.8689139-.6680357-5.8392397-.7029557-.0440297-.0007592-.0884389.0056934-.1673885.0117665.1195632-.0091096.7021966 1.4803065.7545767 1.7247468.1692863.7925333-1.3535315.4668659-1.3573272.4395372.1578994 1.1295877.4311867 2.2458906.7086493 3.3508065.069081.2751852.0106279.4854646-.1897829.6581671-.9033665.7765915-1.9403402.929177-3.0513291.5875678-.75343808-.2322943-1.15274127-1.9080771-1.43855429-2.5423315-.68853229-1.376685-1.2461144-2.8190349-1.84506917-4.233297 2.00524593.0022774 4.01011226.0022774 6.01535826.011387.2417833.0011387.3492005-.057694.3480618-.3256674-.011387-2.5187984-.011387-5.0375968-.0144235-7.5563952.0690809-.0049344.1385415-.0102483.2076224-.0159418.0595919-.0030365.1188041-.0060731.1780164-.0091096 2.6554421-.1389211 5.2008101-.7169997 7.7397255-1.46094861 1.0039514-.29416346 1.9642528-.79443114 2.7279391-1.51598566.3867775-.36552183.7215545-.78683982.9762431-1.25484441.187126-.34312745.2937839-1.14590904.623247-1.359225.2512726-.16283371.8718626-.04934355 1.1591939-.04440919.5215233.00986871.6038891.27290778.6315974.74205106.046307.78190548.0041752 13.92019481-.0030365 17.29301621" fill="#9cc7ff"/><path d="m5.30947983 18.7043491c-.3093461-.5568229-.7716572-1.0445649-1.13186511-1.5714022-.09603014-.1404393-.16359284-.3313609-.16587024-.4998881-.01556219-1.0741711-.0144235-2.1491014-.00379566-3.2232725.00151827-.1461328.04896399-.3230105.13930064-.432705.50254507-.6084439 1.01571798-1.209676 1.54900788-1.7915504.10438058-.1138697.31503958-.1890237.47483677-.1856076 2.268285.0459274 4.53732909.1131106 6.80523459.1434758.1419576.0015183.2835356.0394749.4251136.060351.0034161 2.5187984.0034161 5.0372172.0144325 7.5560156.0011297.268353-.1062874.3268062-.3480708.3256837-2.3426799-.0098849-4.68649845-.0231697-7.02917834-.0231697-.31655785.0125256-.56896908-.0694606-.72914583-.3579306" fill="#1877f2"/></g></svg>