<svg height="32" viewBox="0 0 32 32" width="32" xmlns="http://www.w3.org/2000/svg"><path d="m27.4930535 26.4482305h-5.1054151v-7.3823398c0-1.9323173-.7986124-3.2514567-2.5547448-3.2514567-1.3432444 0-2.0902458.8901837-2.437941 1.748095-.1303857.3079336-.1100129.7368893-.1100129 1.1658449v7.7198566h-5.0578787s.0651929-13.0770955 0-14.2658001h5.0578787v2.2389063c.2988005-.9789332 1.91504-2.3760646 4.4942321-2.3760646 3.1998824 0 5.7138817 2.0519947 5.7138817 6.470641zm-20.38091486-16.0502017h-.03259643c-1.62982126 0-2.68648871-1.0905424-2.68648871-2.47288216 0-1.40923353 1.08790569-2.47691618 2.75032338-2.47691618 1.6610595 0 2.68241416 1.06499327 2.71501058 2.47288211 0 1.38233976-1.05395108 2.47691623-2.74624882 2.47691623zm-2.13642404 1.7844016h4.50238124v14.2658001h-4.50238124z" fill-rule="evenodd"/></svg>