<svg height="32" viewBox="0 0 32 32" width="32" xmlns="http://www.w3.org/2000/svg"><path d="m26.5153619 8.815c-.12-.21-.36-.33-.6-.3-.46.06-1.02.06-1.56.06s-1.05 0-1.51.06c-.88-.77-2.04-1.22-3.17-1.22-2.57 0-4.66 2.09-4.66 4.66 0 .08 0 .16.01.25-2.78-.33-5.33999997-1.75-7.12999997-3.95-.12-.15-.3-.23-.49-.22s-.36.1-.47.26c-.45.65-.68 1.44-.68 2.35 0 .81.2 1.59.57 2.26-.12 0-.24.02-.34.09-.18.11-.28.3-.28.51v.06c0 1.38.65 2.67 1.66 3.53l-.07.06c-.15.16-.2.39-.13.59.43 1.35 1.47 2.41 2.76999997 2.91-1.06999997.55-2.24999997.83-3.45999997.83-.32 0-.58 0-.87-.05-.28-.05-.56.11-.66.38s0 .57.23.72c1.95 1.26 4.2 1.93 6.50999997 1.93 4.55 0 7.4-2.15 8.99-3.96 1.98-2.25 3.11-5.21 3.11-8.14v-.3l2.18-2.69c.15-.2.17-.47.05-.68zm-3.3 2.77c-.09.11-.13.24-.13.38v.52c0 2.64-1.02 5.32-2.81 7.35-1.43 1.62-3.99 3.55-8.09 3.55-1.3 0-2.56999997-.24-3.77999997-.69 1.43-.23 2.77999997-.82 3.96999997-1.72.2-.15.29-.42.21-.66s-.3-.41-.55-.42c-1.16-.04-2.20999997-.63-2.81999997-1.55.33-.02.68-.07.95999997-.12.29-.05.5-.29.5-.59 0-.29-.2-.54-.49-.6-1.28999997-.24-2.31999997-1.25-2.65999997-2.49.34.1.69.16 1.07.19.27.02.52-.14.62-.4.09-.26 0-.54-.23-.7-.96-.66-1.51-1.71-1.51-2.88 0-.34.04-.65.12-.93 2.13 2.24 5.03999997 3.6 8.11999997 3.76.18.01.36-.07.48-.21s.17-.33.13-.51c-.07-.35-.1-.61-.1-.8 0-1.91 1.55-3.46 3.46-3.46.92 0 1.87.4 2.55 1.08.14.14.34.2.53.17.43-.08 1-.08 1.6-.08h.32z"/></svg>