<svg height="32" viewBox="0 0 32 32" width="32" xmlns="http://www.w3.org/2000/svg"><path d="m5.85667702 21.2021186c-.80880171-1.6176034-1.23667702-3.3824993-1.23667702-5.2021186 0-1.8204882.42833889-3.5894297 1.23740815-5.2075632 1.95705315-3.88765967 5.93311765-6.3924368 10.36259185-6.3924368 3.0081501 0 5.6623766 1.06498776 7.7662645 3.02052463.2510784.23337415.255944.62930587.0106765.86877966l-3.1044444 3.03111111c-.2298066.2243781-.5955514.2279961-.8297518.0082081-.9624572-.9032291-2.2392312-1.47529017-3.8427448-1.47529017-2.589916 0-4.8709305 1.69401217-5.6987829 4.15471667-.2132904.6635701-.3256615 1.3321786-.3256615 1.99195 0 .6671753.1150178 1.33484.3359142 1.9859317.8205703 2.463338 3.1017228 4.160735 5.6885302 4.160735 1.4026815 0 2.5537761-.3531136 3.4692559-.9915392.9155734-.6409013 1.5592313-1.5746639 1.8479236-2.4773497h-5.3171795c-.3313708 0-.6-.2686292-.6-.6v-4.0822222c0-.3313709.2686292-.6.6-.6h10.3277778c.279101 0 .5213453.1924506.5844583.4643221.1733342.7466706.2477639 1.4552409.2477639 2.3845667 0 3.4619016-1.2310714 6.4655813-3.4678518 8.531313-1.9790662 1.8329606-4.6402259 2.8242426-7.6921482 2.8242426-4.4015136 0-8.35282834-2.4774077-10.32288439-6.3288901-.01487249-.0218873-.0284-.0449141-.04043859-.0689913zm16.42554518-3.7243408c.359828 0 .6387336.3145257.5956921.6717701-.170453 1.4147602-1.0666241 2.9849423-2.5013733 3.9892656-1.1201014.7811233-2.5111735 1.2078532-4.156541 1.2078532-3.110862 0-5.8454418-2.0347906-6.825965-4.9783333-.26109141-.7695326-.39847944-1.5670534-.39847944-2.3683334 0-.7891731.13305391-1.5808438.38576077-2.3668639.99233327-2.9498125 3.72574757-4.97980277 6.83868367-4.97980277 1.6994903 0 3.1134759.54273494 4.2278086 1.42413357l2.2468655-2.19378995c-1.800574-1.48502496-3.9950057-2.28367695-6.4746741-2.28367695-3.97143 0-7.53549353 2.24523135-9.29001035 5.7305504-.72605455 1.4521091-1.10998965 3.0376731-1.10998965 4.6694496 0 1.6066833.37217209 3.1655642 1.07799562 4.6009402.01339609.020101.02566597.041145.03670045.0630648 1.75660006 3.4894623 5.31653783 5.735995 9.28530393 5.735995 2.7565043 0 5.1250649-.8822888 6.8773687-2.5052271 1.9835099-1.8318297 3.0826313-4.5135658 3.0826313-7.6503285 0-.6411143-.0376895-1.1525456-.1227634-1.6488888h-9.2372366v2.8822222z"/></svg>