<svg height="32" viewBox="0 0 32 32" width="32" xmlns="http://www.w3.org/2000/svg"><path d="m19.4509285 5.76043545.2442438.00782809c.2444711.0085303.4938679.01922629.7863869.03261963 1.0125228.0460106 1.7492446.19391809 2.4415106.46275443.644211.24252089 1.2219747.61886513 1.6992862 1.10507238.4950958.48634586.8712465 1.06394624 1.1110472 1.70142259.271578.69883836.4196979 1.43574943.4659989 2.44814793.0488531 1.0737024.0616393 1.566944.0644172 3.3621015v2.2391667c-.0017678 1.1423252-.0075887 1.7574541-.0241786 2.3305187l-.0077889.2444381c-.0084874.2446915-.019129.4943864-.0324534.7872728-.0463059 1.0124881-.1943916 1.7494228-.4633106 2.4410474-.4997932 1.2924995-1.5206159 2.3133222-2.8119367 2.8126583-.6928772.2694049-1.4296454.4174642-2.4423855.463775-1.0708298.048876-1.5629292.0616438-3.3604055.0644155l-2.2424134.0000001c-1.7974042-.0027713-2.2894243-.015538-3.3605042-.0644185-1.0127476-.0463111-1.74969381-.194399-2.44109316-.463295-.64468399-.242557-1.22238239-.6187474-1.69960208-1.1048611-.494977-.4860835-.87119411-1.0637858-1.11106533-1.7013037-.27159361-.6990431-.41966694-1.4359165-.46581307-2.4480844-.01339476-.2925499-.02409182-.541971-.03262295-.7864632l-.00782884-.244264c-.01548356-.5318097-.02163137-1.1002561-.0238521-2.0938798l-.00000026-2.7144453c.0022203-.9935255.00836715-1.5618963.02384937-2.0936828l.00782821-.2442572c.00853046-.2444892.01922678-.4939196.03262073-.7864937.04601277-1.0124255.19394656-1.74931401.46275422-2.44150616.24247952-.64410108.61878124-1.22172533 1.10507238-1.6991191.48634586-.49509583 1.06394624-.87124651 1.70142259-1.11104728.69910424-.27161678 1.43585669-.41970861 2.44822539-.46600244 1.0247842-.04662772 1.5208371-.0603982 3.1251331-.06397014l2.713706.00000451c.9935693.00222063 1.561984.00836805 2.0937518.02385016zm-3.4511156 5.92433675c-2.3831018 0-4.3150592 1.9320367-4.3150592 4.3152063 0 2.3831357 1.9319235 4.3150592 4.3150592 4.3150592 2.3832629 0 4.3152062-1.9319037 4.3152062-4.3150592 0-2.3831894-1.9319772-4.3152063-4.3152062-4.3152063zm5.7149707-2.55596123c-.6386724 0-1.1563439.51767156-1.1563439 1.15634393 0 .6385253.5176715 1.1561969 1.1563439 1.1561969.6385253 0 1.1561968-.5176716 1.1561968-1.1561969 0-.63867237-.5176715-1.15634393-1.1561968-1.15634393z"/></svg>