<svg height="32" viewBox="0 0 32 32" width="32" xmlns="http://www.w3.org/2000/svg"><path d="m15.8875345 5.06975681.0064196-.08379493.0088681-.04700469.0167151-.05861324.0370239-.08581424.0493797-.07825135.0604907-.06946238.0703575-.05944735.0789796-.04820625.0863572-.03573906.0924904-.02204582.0837423-.00707329 1.4063532-.0116127 2.1640679-.00667924c.3209706-.00246901.5870363.24811023.6037967.56865249.0706705 1.35157293.5658738 2.58527508 1.4191566 3.40816169.8255529.81818189 2.0463918 1.30064399 3.5103101 1.46224536.2702631.02983424.4821156.23614839.5258574.49646599l.0083087.0999113v3.6753158c0 .3395331-.2814922.6114209-.6208208.5996386-1.4539729-.0504851-2.8417538-.3624288-4.0585362-.9383765l-.2700956-.1293361-.3617566-.1926909-.0029161 5.2570012-.0128678 1.6851184c-.0803682 1.4064431-.5460536 2.7777708-1.3345809 3.8971692-1.2595849 1.8461092-3.3931173 3.0539701-5.5883021 3.1786517l-.2636661.0097341c-1.3943684.0780066-2.8174381-.2887373-4.05897684-1.0214489-2.02157386-1.1909272-3.41427689-3.3582698-3.62373299-5.7004396-.02186084-.546521-.02628146-.9863719-.00692479-1.4394332.17937239-1.8933752 1.11485321-3.6952388 2.55709099-4.9201101 1.67363563-1.4518285 3.97990373-2.1080394 6.11329193-1.7049569.2804035.0529795.4846961.2961231.488552.5814616l.0041598.5858643-.0039249.6463915-.0365048 2.6841052c-.0001049.0464349-.0001549.0932358-.0001549.1409777 0 .4072357-.3970427.6961676-.7845386.5709163-.7719757-.2495274-1.6258111-.1555647-2.2423947.2694033-.4557716.2966133-.8143182.7603855-1.0127718 1.321547-.0679052.1649127-.0954878.3540831-.0964769.6461172l.009893.5040729c-.0005018.0034422-.0012319.0043703-.0022248.0027829.1708356 1.1673761 1.2688911 2.1287105 2.4398509 2.1120894l.1530772-.0077775c.7945233-.007094 1.587827-.4739863 2.011593-1.1677049l.0479526-.0830149c.1824289-.3158906.242574-.4608703.2468705-.6177822l.0158969-.3111261.0240765-.6438772.0148613-.6926931.0078748-1.1186244.0085739-11.42218536zm3.6664197.90458945-.0479542-.31534626-2.2780267.0068937-.1449733.0011063-.0102064 2.92874628-.0046608 9.93284722-.0070894.7814496-.0151643.706866-.0244966.6543252-.0161408.3143483c-.0090581.3532639-.0995359.6127896-.3092777.9964139l-.1523384.2675669c-.6438777 1.0546273-1.8165015 1.7447653-2.9849527 1.753273-1.8282083.1632329-3.57066241-1.2945289-3.84521794-3.2039219l-.01212438-.422524c-.01047712-.4592759.01714395-.7945596.1174113-1.1034595l.05634748-.1527031c.27405954-.778329.79859444-1.4568036 1.46560654-1.8906334.677889-.4675097 1.5265629-.6656803 2.3699264-.5962456l.1283777.0136511.0332052-2.0937139.0037948-.6952861-.04987-.0054112c-1.5248213-.135219-3.1212603.3531836-4.35969057 1.3323449l-.21474271.1778604c-1.20802312 1.0259923-1.99407295 2.5400314-2.14183804 4.0906169-.01565765.3836126-.01153861.7934573.00721739 1.2807636.17266449 1.9239758 1.34472444 3.7479508 3.03611373 4.7443635.9553566.563817 2.0338481.868226 3.1117874.8648304l.2938768-.0086688c1.9186019-.0329374 3.8128741-1.0657557 4.909619-2.6730805.6626242-.9407627 1.0549285-2.0960013 1.1217522-3.2539147l.0151062-2.7991973.0031032-5.1758913c.0016317-.4765484.5300624-.7612294.9283481-.5008119l.405056.2593081c.0628887.0391957.1237406.0765201.1829663.1121828l.3391229.1957122c.1630876.0895627.3189272.1679432.4786012.2408015.85584.405054 1.8127512.6626832 2.8253344.7725901l.1481365.0126013v-2.512l-.0956792-.0144945c-1.3389631-.2337948-2.5026381-.7308163-3.3880797-1.52023328l-.1993467-.18737688c-.8837181-.85215668-1.4531855-2.0234734-1.6789402-3.31654908z"/></svg>