<svg height="32" viewBox="0 0 32 32" width="32" xmlns="http://www.w3.org/2000/svg"><path d="m25.706024 11.4996131c-.090243 1.9734242-1.468437 4.6751053-4.1348158 8.1050432-2.756388 3.5814341-5.0886803 5.3729694-6.995708 5.3729694-1.1822777 0-2.182199-1.0901643-2.9992962-3.2721295-.5454328-2.0000762-1.0903981-3.9999187-1.63606473-5.999995-.6069197-2.1807962-1.2573244-3.2723633-1.95355201-3.2723633-.15172992 0-.68243398.3191238-1.59117699.9545659l-.95339697-1.2283344c1.00062261-.8788178 1.9874516-1.7578695 2.95838285-2.63809006 1.33447521-1.15258633 2.33696815-1.75927224 3.00467335-1.82029152 1.5771496-.15172992 2.5483146.92651109 2.9127937 3.23472298.3939367 2.4908022.66677 4.0396632.8196689 4.6458815.4554236 2.0664727.9559687 3.098657 1.5023367 3.098657.4238619 0 1.0616419-.670043 1.9117035-2.0110644.8484251-1.3400862 1.3033811-2.3598796 1.3646342-3.060783.1213372-1.1565608-.3336188-1.7363608-1.3646342-1.7363608-.4853487 0-.9858938.1117518-1.5007001.3324499.9966482-3.26301168 2.900169-4.84787633 5.7098612-4.75739948 2.0830719.06101928 3.0656927 1.41185981 2.9452906 4.05252158" fill-rule="evenodd"/></svg>