<svg height="32" viewBox="0 0 32 32" width="32" xmlns="http://www.w3.org/2000/svg"><g fill="none" fill-rule="evenodd"><path d="m16 9.59066667c1.9622778 0 3.2859444.84761113 4.0406667 1.55588893l2.9492222-2.8795556c-1.8113333-1.68361111-4.1683889-2.717-6.9898889-2.717-4.0871111 0-7.61688889 2.34544444-9.33533333 5.7591111l3.37883333 2.6241111c.8476111-2.5196111 3.1930556-4.34255553 5.9565-4.34255553z" fill="#ea4335"/><path d="m26.032 16.2322222c0-.8592222-.0696667-1.4862222-.2206111-2.1364444h-9.8113889v3.8781111h5.7591111c-.1161111.9637222-.7431111 2.4151111-2.1364444 3.3904444l3.2975555 2.5544445c1.9738889-1.8229445 3.1117778-4.5051111 3.1117778-7.6865556z" fill="#4285f4"/><path d="m10.0551111 18.0667778c-.2206111-.6502222-.34833332-1.3468889-.34833332-2.0667778s.12772222-1.4165556.33672222-2.0667778l-3.37883333-2.6241111c-.70827778 1.4165556-1.11466667 3.0072778-1.11466667 4.6908889s.40638889 3.2743333 1.11466667 4.6908889z" fill="#fbbc05"/><path d="m16 26.45c2.8215 0 5.1901667-.9288889 6.9202222-2.5312222l-3.2975555-2.5544445c-.8824445.6153889-2.0667778 1.045-3.6226667 1.045-2.7634444 0-5.1088889-1.8229444-5.9448889-4.3425555l-3.37883332 2.6241111c1.71844444 3.4136667 5.23661112 5.7591111 9.32372222 5.7591111z" fill="#34a853"/></g></svg>