<svg height="32" viewBox="0 0 32 32" width="32" xmlns="http://www.w3.org/2000/svg"><path d="m14.9973456 25.2470499c-.76 0-1.45-.34-2.06-1-.55-.6-1.03-1.46-1.46-2.62-.01-.02-.01-.03-.02-.05l-1.60999997-5.92c-.64-2.29-1.15-2.7-1.3-2.77-.13.06-.47.26-1.27.82-.26.18-.62.13-.82-.12l-.94-1.21c-.19-.25-.16-.61.08-.82.97-.85 1.95-1.73000001 2.91-2.60000001 0 0 .01-.01.01-.01 1.45-1.25 2.49999997-1.87 3.29999997-1.94 1.32-.13 3 .41 3.52 3.69000001.38 2.43.65 3.96.8 4.53v.02c.43 1.93.79 2.44.92 2.56.14-.08.55-.41 1.36-1.68.97-1.54 1.22-2.34 1.26-2.75v-.01c.04-.41-.01-.72-.14-.87-.11-.12-.31-.18-.61-.18-.39 0-.81.09-1.24.28-.21.09-.46.05-.64-.1s-.24-.4-.17-.62c1.07-3.49000001 3.16-5.22000001 6.23-5.12000001 1.07.03 1.91.37 2.51 1.01.72.78 1.05 1.99.98 3.61000001-.1 2.09-1.47 4.82-4.2 8.34-2.89 3.72-5.3 5.53-7.4 5.53zm-2.39-4.01c.49 1.29 1.29 2.81 2.39 2.81 1.68 0 3.84-1.7 6.43-5.07 2.54-3.27 3.87-5.84 3.95-7.65.06-1.28-.16-2.20000001-.66-2.74000001-.37-.4-.92-.61-1.66-.63-2.17-.07-3.7.98-4.65 3.20000001.17-.02.35-.04.52-.04.65 0 1.16.19 1.5.58.37.41.52 1.02.44 1.79-.07.79-.54 1.87-1.44 3.28-1.02 1.61-1.71 2.26-2.39 2.26-.92 0-1.51-1.02-2.07-3.52-.16-.62-.42-2.14-.82-4.63-.4-2.56000001-1.46-2.76000001-2.22-2.69000001-.3.03-1.04.28-2.61999997 1.65-.82.75000001-1.66 1.49000001-2.5 2.23000001l.25.32c.99-.67 1.23-.73 1.44-.73 1.03 0 1.79999997 1.13 2.50999997 3.67z"/></svg>