<svg height="32" viewBox="0 0 32 32" width="32" xmlns="http://www.w3.org/2000/svg"><path d="m17.0665654 5.75633443c1.0001274.00180379 1.5401915.00748167 2.0562237.02316268l.2380501.00796999c.1995993.00727075.4055669.01616075.6427112.0270187 1.0184047.04627785 1.795682.20232741 2.5251776.48565654.7251595.27295048 1.3822152.70094397 1.9172859 1.24613065.5529944.54304237.9808125 1.19998097 1.2512452 1.91898949.2856931.73504242.441958 1.51249332.488539 2.53114332.0108023.2374119.0196471.4435997.0268812.6433668l.00793.2382261c.0156026.516358.0212546 1.0563809.0230506 2.0560143v2.1318936c-.001796.9995789-.0074483 1.5395943-.0230528 2.056025l-.0079308.2382655c-.007235.1998049-.0160809.4060431-.0268846.6435199-.0465905 1.0187102-.2028264 1.7962038-.4881575 2.5300354-.5618973 1.4531086-1.7106172 2.6018285-3.1626871 3.1633231-.7349325.2857581-1.512283.4419728-2.5311289.4885627-.9946125.0453973-1.4400028.0562194-3.1755254.0582156l-1.6562647.0000001c-1.735456-.0019959-2.1807631-.0128169-3.1756028-.058218-1.0188714-.0465911-1.7964071-.2028355-2.52489369-.486195-.72526015-.2728226-1.38234159-.7007063-1.91733302-1.2458145-.55289858-.5427826-.98079292-1.1998382-1.25132817-1.9189518-.28572204-.7352935-.4419451-1.5127232-.48836639-2.5309268-.01085993-.2371876-.01975149-.4431899-.02702347-.6428182l-.00797132-.2380824c-.01568357-.5160973-.02136203-1.056196-.02316595-2.0563791l-.00000019-2.133153c.0018035-1.000085.00748079-1.5401037.02316195-2.0561582l.00797012-.2380654c.00727091-.1996165.01616119-.405613.02701963-.6428018.04628061-1.0183198.2023514-1.7957403.48565635-2.52517365.27292251-.72508522.70088721-1.38201232 1.24613065-1.91713879.54304238-.55299433 1.19998098-.98081245 1.91903479-1.25126279.73525891-.28570867 1.51252431-.44194387 2.53109801-.48852142.2374038-.01080188.4435906-.01964647.6433605-.02688046l.2382309-.0079299c.5163712-.01560258 1.0564234-.02125507 2.0560428-.02305126zm-1.0665654 1.19925675c-.1011301 0-.1987475.00001127-.2930502.00003654l-.7645756.00067956c-1.5239401.00267936-1.9596443.01424988-2.8912795.05663932-.8920299.04079094-1.5412056.1712793-2.15720826.41060937-.56170043.21129599-1.07064225.54273416-1.49917685.97897864-.4284864.42064663-.76005765.92960949-.97371396 1.49714717-.23685487.60991222-.36720398 1.25920782-.40774728 2.15128772-.04261772.9309308-.05423948 1.3661373-.05692958 2.8907194l-.00068212.7649445-.00003665.2932106c0 .101195.0000113.1988739.00003666.2932349l.00068228.7650139c.00269065 1.5247296.01431428 1.9600319.05693456 2.8908855.0406608.891853.17113287 1.5411352.41044252 2.1570841.21135806.561737.54285476 1.0707687.97899454 1.499072.42049324.4283301.92952144.7598033 1.49757274.9735279.6092137.2369326 1.2585601.3674176 2.1509238.4082238.9759359.0445384 1.4062626.0550493 3.1270962.0569811l1.6437534-.0000001c1.7208985-.0019322 2.1513078-.0124441 3.1270158-.0569785.8923571-.0408059 1.5415466-.1712656 2.1520625-.4086467 1.1378233-.4399807 2.0373022-1.3394596 2.4776856-2.4783216.236953-.6094121.367436-1.2587484.4082376-2.1508834.0423965-.9319245.0539668-1.3675753.0566458-2.8914547v-2.1152258c-.0017413-.9905627-.007239-1.5213251-.0225165-2.0273934l-.0077675-.233401c-.0070882-.1956802-.0157601-.3976098-.0263585-.6305444-.0407973-.8920561-.1713104-1.5413716-.4106063-2.15713998-.211296-.56170043-.5427341-1.07064225-.9789786-1.49917685-.4205741-.42841248-.9296599-.76002119-1.4972944-.97371396-.6099773-.23688014-1.259126-.36720607-2.1512916-.40774745-.9307556-.0426158-1.3660341-.05423872-2.8906801-.05692926l-.7649719-.00068226zm-.0001472 3.75247312c2.92266 0 5.2919231 2.3693116 5.2919231 5.291923 0 2.9225903-2.369242 5.2917836-5.2919231 5.2917836-2.922566 0-5.2917836-2.3692176-5.2917836-5.2917836 0-2.9225871 2.3692387-5.291923 5.2917836-5.291923zm0 1.2c-2.2597921 0-4.0917836 1.8320666-4.0917836 4.091923 0 2.2598243 1.8319593 4.0917836 4.0917836 4.0917836 2.2599449 0 4.0919231-1.8319405 4.0919231-4.0917836 0-2.2598752-1.8320103-4.091923-4.0919231-4.091923zm5.419259-2.4237073c.6054859 0 1.0963714.4908855 1.0963714 1.0965108 0 .6054859-.4908855 1.0963714-1.0963714 1.0963714-.6056253 0-1.0965108-.4908855-1.0965108-1.0963714 0-.6056253.4908855-1.0965108 1.0965108-1.0965108z"/></svg>