<svg height="32" viewBox="0 0 32 32" width="32" xmlns="http://www.w3.org/2000/svg"><g fill="none" fill-rule="evenodd"><path d="m.4001187.35213296h31.1688312v31.16883114h-31.1688312z"/><path d="m26.6368101 14.1144666c-.0080469-.4295936-.0415146-.9716607-.1015004-1.6274814-.0594372-.6550891-.1450267-1.2415969-.2556713-1.7582431-.127287-.579924-.4036242-1.06858908-.8288286-1.46581231-.4250216-.39722324-.919356-.62802238-1.4844664-.691483-1.7637297-.19861162-4.4299901-.29791743-7.9984154-.29791743-3.567511 0-6.23377135.09930581-7.99823259.29791743-.56437887.06346062-1.05651871.29425976-1.47806547.691483-.42063234.39722323-.69495778.88588831-.82224479 1.46581231-.11924012.5166462-.20848733 1.103154-.26792451 1.7582431-.05998583.6558207-.09345353 1.1978878-.10150041 1.6274814-.007864.4292279-.01207032 1.0250628-.01207032 1.7878704 0 .7629905.00420632 1.3590082.01207032 1.7882361.00804688.4292279.04151458.9714778.10150041 1.626567.05943718.6558206.14429518 1.2423284.25585419 1.7589747.12710412.579924.40362417 1.068589.82864572 1.4659951.42502155.3972233.92008752.6278395 1.48373486.6913001 1.76446124.1986117 4.43072159.2979175 7.99823259.2979175 3.5684253 0 6.2346857-.0993058 7.9984154-.2979175.5643789-.0634606 1.0572502-.2940768 1.478797-.6913001.4208152-.3974061.6951407-.8866198.8222448-1.4659951.119423-.5166463.2084873-1.1031541.2679245-1.7589747.0599858-.6550892.0934535-1.1978878.1015004-1.626567.007864-.4292279.0120703-1.0252456.0120703-1.7882361 0-.7628076-.0042063-1.3586425-.0120703-1.7878704z" fill="#c34953"/><path d="m18.6160734 16.426578-4.6747972 3.0892227c-.0853122.064439-.1888354.0967326-.3102897.0967326-.0914759 0-.1856134-.0259238-.2828328-.0770306-.2008828-.1161384-.3016044-.2962715-.3016044-.5408436v-6.1788897c0-.2448684.1007216-.4248533.3016044-.5411399.2067663-.1158421.4042871-.1094723.5931225.0195539l4.6747972 3.0896671c.1828118.1091761.2741476.2829393.2741476.5211416 0 .2384985-.0913358.4121136-.2741476.5215859z" fill="#fff"/></g></svg>