<svg height="32" viewBox="0 0 32 32" width="32" xmlns="http://www.w3.org/2000/svg"><g fill="none"><path d="m11.6892127 7.76861489c.2325992-.61057269.552423-1.17268723 1.0273128-1.62819384 1.8995595-1.85110132 5.0396476-1.38590308 6.3286344.94008811.969163 1.76387665 1.9964758 3.48898674 2.9947136 5.23348014 1.6669604 2.8977974 3.353304 5.7955947 5.0008811 8.7030837 1.3859031 2.4325992-.1162996 5.5048459-2.8687225 5.9215859-1.6863436.2519824-3.2660793-.523348-4.138326-2.0352423-1.4634361-2.5488986-2.9365638-5.0977973-4.4-7.6370044-.0290748-.0581497-.0678414-.1066079-.1066079-.155066-.1550661-.1259912-.2229075-.3101322-.3198238-.4748899-.6493392-1.1436123-1.3180617-2.277533-1.9674009-3.4114537-.41674-.7365639-.8528634-1.4634362-1.2696035-2.2-.3779736-.6590309-.5524229-1.3762115-.5330396-2.13215864.0290749-.3876652.077533-.7753304.2519823-1.12422907" fill="#3c8bd9"/><path d="m11.6892127 7.76861489c-.0872246.34889867-.1647577.69779735-.1841409 1.06607929-.0290749.81409692.1744493 1.57004402.5814978 2.27753302 1.0660793 1.8317181 2.1321586 3.6731278 3.1885462 5.5145375.0969163.1647577.1744494.3295154.2713657.4845815-.5814978 1.0079295-1.1629956 2.0061674-1.7541851 3.0140969-.8140969 1.4052863-1.6281938 2.8202643-2.4519823 4.2255506-.0387665 0-.0484582-.0193832-.0581498-.0484581-.0096916-.077533.0193833-.1453745.0387665-.2229075.3973568-1.4537445.0678414-2.7427313-.9303965-3.8475771-.61057265-.6687225-1.38590305-1.046696-2.277533-1.1726872-1.1629956-.1647577-2.19030837.1356828-3.11101322.8625551-.16475771.1259911-.27136564.3101321-.46519824.4070484-.03876652 0-.05814978-.0193833-.06784141-.0484581.46519824-.8044053.92070485-1.6088106 1.38590309-2.4132159 1.91894273-3.3339207 3.83788546-6.6678414 5.76651978-9.99207048.0193833-.03876652.0484582-.06784141.0678414-.10660793" fill="#fabc04"/><path d="m4.50771495 20.309584c.18414097-.1647577.35859031-.339207.55242291-.4942731 2.35506608-1.8607929 5.89251104-.5136564 6.40616744 2.4325991.1259911.707489.0581497 1.3859031-.1550661 2.0643172-.0096916.0581498-.0193833.106608-.0387665.1647577-.0872247.1550661-.1647577.3198238-.261674.4748899-.8625551 1.4246696-2.13215864 2.1321586-3.79911899 2.0255507-1.9092511-.1356829-3.41145375-1.5700441-3.67312775-3.4696036-.12599119-.9207048.05814978-1.7832599.53303964-2.5779735.0969163-.1744494.21321586-.3295155.31982379-.5039648.04845815-.0387665.02907489-.1162996.11629956-.1162996" fill="#34a852"/></g></svg>