<svg height="32" viewBox="0 0 32 32" width="32" xmlns="http://www.w3.org/2000/svg"><g fill="none"><path d="m16.984421 4.97918822c1.2575848-.01919977 2.5055698-.00959988 3.7535548-.01919977.0767991 1.46878233.6047927 2.96636432 1.6799798 4.00315184 1.0751871 1.06558721 2.5919688 1.55518131 4.070351 1.71837931v3.8687535c-1.3823833-.0479994-2.7743666-.335996-4.0319515-.9311888-.5471934-.249597-1.0559873-.5663932-1.5551812-.8927893-.0095999 2.8031663.0095998 5.6063326-.0191998 8.399899-.0767991 1.3439838-.5183938 2.6783678-1.2959844 3.7823545-1.2575849 1.8431778-3.4367587 3.0431634-5.6735318 3.0815629-1.3727835.0767991-2.7455669-.2975964-3.91675285-.9887881-1.93917667-1.1423863-3.30236028-3.2351611-3.50395785-5.4815341-.01919977-.4799942-.02879965-.9599884-.00959988-1.4303828.17279792-1.823978 1.07518706-3.571157 2.4767702-4.7615427 1.59358078-1.3823833 3.82075408-2.0447754 5.90392898-1.6511801.0191998 1.4207829-.0383995 2.8415658-.0383995 4.2623487-.9503886-.3071963-2.0639752-.2207973-2.8991652.3551957-.6047927.3935953-1.0655871.998388-1.3055843 1.6799798-.2015975.4895941-.1439982 1.0271877-.1343983 1.5455814.2303972 1.5743811 1.7471789 2.8991652 3.3599595 2.7551669 1.0751871-.0095999 2.1023747-.6335924 2.659168-1.5455814.1823979-.3167962.3839954-.6431923.3935953-1.0175878.0959989-1.7183793.0575993-3.4271587.0671992-5.1455381.0095999-3.8687534-.0095999-7.72790701.0191998-11.58706058" fill="#ff004f"/><path d="m16.0244325 4.01919977c1.2575849-.01919977 2.5055699-.00959989 3.7535549-.01919977.076799 1.46878233.6047927 2.96636431 1.6799798 4.00315184 1.075187 1.06558718 2.5919688 1.55518129 4.070351 1.71837933v3.86875343c-1.3823834-.0479994-2.7743666-.3359959-4.0319515-.9311888-.5471934-.249597-1.0559873-.5663932-1.5551813-.8927892-.0095999 2.8031662.0095999 5.6063325-.0191998 8.3998989-.076799 1.3439839-.5183937 2.6783678-1.2959844 3.7823545-1.2575848 1.8431778-3.4367586 3.0431634-5.6735317 3.0815629-1.3727835.0767991-2.745567-.2975964-3.9167529-.9887881-1.93917668-1.1423862-3.30236028-3.235161-3.50395785-5.481534-.01919977-.4799942-.02879965-.9599885-.00959989-1.4303828.17279793-1.8239781 1.07518707-3.571157 2.47677021-4.7615427 1.59358083-1.3823834 3.82075403-2.0447754 5.90392893-1.6511802.0191998 1.4207829-.0383995 2.8415659-.0383995 4.2623488-.9503886-.3071963-2.0639752-.2207974-2.8991651.3551957-.6047927.3935953-1.0655872.998388-1.30558431 1.6799798-.20159758.4895941-.14399827 1.0271876-.13439838 1.5455814.23039722 1.574381 1.74717899 2.8991651 3.35995959 2.7551668 1.0751871-.0095998 2.1023747-.6335923 2.659168-1.5455814.1823978-.3167962.3839954-.6431922.3935953-1.0175877.0959988-1.7183794.0575993-3.4271588.0671992-5.1455381.0095998-3.8687535-.0095999-7.72790706.0191997-11.58706063" fill="#00f2ea"/></g></svg>