<svg height="32" viewBox="0 0 32 32" width="32" xmlns="http://www.w3.org/2000/svg"><path d="m15.967928 8.27352936 1.4740894.00607995c2.8377056.02431979 5.0125577.12159895 6.524326.29183748.5651104.06346062 1.0594448.29425976 1.4844664.691483.4252044.39722323.7015416.88588831.8288286 1.46581231.1106446.5166462.1962341 1.103154.2556713 1.7582431l.0449478.5343039c.0256698.3376703.042783.6383161.0515444.9021761l.0102118.5441669.0066706 1.7129998c-.0006519.4507814-.00292.8363479-.0066706 1.1567443l-.0052036.3531969c-.0080469.4286792-.0415146.9714778-.1015004 1.626567-.0594372.6558206-.1485015 1.2423284-.2679245 1.7589747-.1271041.5793753-.4014296 1.068589-.8222448 1.4659951-.4215468.3972233-.9144181.6278395-1.478797.6913001-1.7637297.1986117-4.4299901.2979175-7.9984154.2979175l-1.4737531-.00608c-2.8371425-.0243198-5.01208415-.1215989-6.52447949-.2918375-.56364734-.0634606-1.05871331-.2940768-1.48373486-.6913001-.42502155-.3974061-.7015416-.8860711-.82864572-1.4659951-.11155901-.5166463-.19641701-1.1031541-.25585419-1.7589747l-.04494778-.5338667c-.02566983-.3374826-.04278304-.6381028-.05154439-.9018263l-.0139924-.9598311c-.00203458-.2980317-.00308616-.6377838-.00308616-1.019279l.00686671-1.4347049c.00150021-.1281386.00323761-.2458585.00520361-.3531655.00804688-.4295936.04151458-.9716607.10150041-1.6274814.05943718-.6550891.14868439-1.2415969.26792451-1.7582431.12728701-.579924.40161245-1.06858908.82224479-1.46581231.42154676-.39722324.9136866-.62802238 1.47806547-.691483 1.76446124-.19861162 4.43072159-.29791743 7.99823259-.29791743zm-2.0266518 4.02065404c-.1888354-.1290262-.3863562-.135396-.5931225-.0195539-.1721853.0996742-.2707827.2461472-.2954394.4401653l-.006165.1009746v6.1788897c0 .2445721.1007216.4247052.3016044.5408436.0972194.0511068.1913569.0770306.2828328.0770306.0910907 0 .1720952-.0181651.2428954-.0544329l.0673943-.0422997 4.6747972-3.0892227c.1828118-.1094723.2741476-.2830874.2741476-.5215859 0-.1985019-.0634276-.3522545-.190364-.461172l-.0837836-.0599696z" fill-rule="evenodd"/></svg>