<svg height="32" viewBox="0 0 32 32" width="32" xmlns="http://www.w3.org/2000/svg" xmlns:xlink="http://www.w3.org/1999/xlink"><linearGradient id="a" x1="8.391827%" x2="91.608154%" y1="91.608052%" y2="8.391091%"><stop offset="0" stop-color="#ffd600"/><stop offset=".5" stop-color="#ff0100"/><stop offset="1" stop-color="#d800b9"/></linearGradient><linearGradient id="b" x1="14.644847%" x2="85.355462%" y1="85.355424%" y2="14.644809%"><stop offset="0" stop-color="#ff6400"/><stop offset=".5" stop-color="#ff0100"/><stop offset="1" stop-color="#fd0056"/></linearGradient><linearGradient id="c" x1="14.647198%" x2="85.35465%" y1="85.353957%" y2="14.646506%"><stop offset="0" stop-color="#f30072"/><stop offset="1" stop-color="#e50097"/></linearGradient><g fill="none"><path d="m26.7350708 11.5472412c-.0525696-1.1496094-.2351623-1.93469237-.5021301-2.62155761-.2710877-.72064818-.6962586-1.3734009-1.2456848-1.91293945-.5393738-.54942629-1.1922913-.97476197-1.9129395-1.24601439-.68703-.26680299-1.4719482-.44923098-2.6215576-.50147096-1.1517517-.05273438-1.5197388-.06525879-4.4527588-.06525879s-3.3010071.01252441-4.4527588.06492918c-1.1496094.05256959-1.93452759.23516236-2.62155761.50213014-.72064818.27108767-1.3734009.69625853-1.91293945 1.24568482-.54942629.53937377-.97476197 1.19212644-1.24601439 1.91277467-.26680299.68703002-.44923098 1.47211299-.50147096 2.62155759-.05273438 1.1519165-.06525879 1.5197388-.06525879 4.4527588 0 2.9331848.01252441 3.3011719.06525879 4.4529236.05240476 1.1494446.23499758 1.9345276.50196531 2.6215576.27108768.7204834.69625858 1.3734009 1.24568482 1.9127747.53937377.5494262 1.19229128.9745971 1.91293946 1.2456848.68686523.2671326 1.47194822.4495605 2.62155762.5021301 1.1519165.0525696 1.5197388.0649292 4.4527588.0649292s3.3010071-.0123596 4.4527588-.0649292c1.1496093-.0525696 1.9345276-.2349975 2.6215576-.5021301 1.4506897-.560962 2.5974976-1.7077698 3.1584595-3.1584595.2671325-.68703.4495605-1.472113.5021301-2.6215576.0524048-1.1519165.0649292-1.5197388.0649292-4.4527588 0-2.9331848-.0125244-3.3010071-.0649292-4.4527588zm-1.9440857 8.8170227c-.0479553 1.0530396-.2239563 1.624878-.3717773 2.0053894-.3633728.9419678-1.1077515 1.6863464-2.0497193 2.0497192-.3805114.1478211-.9523498.3238221-2.0053894.3717774-1.1385681.0520752-1.480188.0629517-4.3640991.0629517-2.8840759 0-3.225531-.0108765-4.3642639-.0629517-1.0528748-.0479553-1.6247132-.2239563-2.00538942-.3717774-.46900633-.1731994-.89335326-.4492309-1.24172975-.8079894-.35875853-.3483765-.63479004-.7725586-.80798947-1.2417298-.14782107-.3805114-.32382205-.9523498-.37177734-2.0053894-.05191041-1.1387329-.06295168-1.4803528-.06295168-4.3640991 0-2.8839111.01104127-3.2253662.06295168-4.3642639.04812007-1.0530396.22395627-1.624878.37177734-2.00538944.17319943-.46917111.44939572-.89351804.80798947-1.24189453.34837649-.35875853.77272342-.63479004 1.24189453-.80782468.38051144-.14798586.95234984-.32382206 2.00538944-.37194213 1.1387329-.05191041 1.4803528-.06295168 4.3640991-.06295168h-.0001648c2.8837463 0 3.2253662.01104127 4.3642639.06311646 1.0530396.04795529 1.6247131.22395631 2.0053894.37177735.4690064.17319943.8933533.44923093 1.2417297.80782468.3587586.34837649.6347901.77272342.8078248 1.24189453.1479858.38051144.3239868.95234984.3719421 2.00538944.0519104 1.1387329.0629517 1.4803528.0629517 4.3640991 0 2.8839111-.0108765 3.2253662-.0629517 4.3642639z" fill="url(#a)"/><path d="m15.9998352 10.4539917c-3.0628784 0-5.5458435 2.4831299-5.5458435 5.5460083s2.4829651 5.5458435 5.5458435 5.5458435c3.0630432 0 5.5460083-2.4829651 5.5460083-5.5458435s-2.4829651-5.5460083-5.5460083-5.5460083zm0 9.1459534c-1.9880859-.0001648-3.5999451-1.6118592-3.5997803-3.6001099 0-1.9880859 1.6116944-3.5999451 3.5999451-3.5999451 1.9882507.0001648 3.5999451 1.6118592 3.5999451 3.5999451 0 1.9882507-1.6118592 3.6001099-3.6001099 3.6001099z" fill="url(#b)"/><path d="m23.060968 10.2349792c0 .7157044-.5802429 1.2959473-1.2959472 1.2959473-.7158692 0-1.2961121-.5802429-1.2961121-1.2959473 0-.7158691.5802429-1.29611201 1.2961121-1.29611201.7157043 0 1.2959472.58024291 1.2959472 1.29611201z" fill="url(#c)"/></g></svg>