<svg height="32" viewBox="0 0 32 32" width="32" xmlns="http://www.w3.org/2000/svg"><path d="m16 4c-6.62241163 0-11.99063232 5.37099634-11.99063232 12 0 5.0830871 3.16027775 9.4258362 7.62009572 11.1745657-.1048702-.9488241-.1984031-2.4053895.042515-3.4435646.2168262-.9360596 1.4058276-5.9638341 1.4058276-5.9638341s-.3585428-.7190639-.3585428-1.7813497c0-1.6693062.9650893-2.9145491 2.1696795-2.9145491 1.0217759 0 1.5163665.7687034 1.5163665 1.6905803 0 1.0296655-.6547302 2.5684907-.9934326 3.9952724-.2820159 1.1956034.5994607 2.168538 1.7757076 2.168538 2.131416 0 3.7696587-2.2493795 3.7696587-5.4958043 0-2.8734192-2.061975-4.8816924-5.0082608-4.8816924-3.411116 0-5.41357 2.5613993-5.41357 5.207895 0 1.0310838.395389 2.137336.8913967 2.7386834.0977844.1191348.1119561.2226687.0836128.3446401-.0906986.3786786-.2933532 1.1941851-.3330338 1.3601229-.0524351.2198322-.1743113.2666352-.4024748.161683-1.49652618-.6977898-2.43185502-2.8904385-2.43185502-4.6490958 0-3.7853682 2.74788272-7.26297131 7.92195182-7.26297131 4.1593791 0 7.3919322 2.96702521 7.3919322 6.93109561 0 4.1356814-2.6061663 7.4643659-6.2213539 7.4643659-1.2159275 0-2.3581625-.6325493-2.7493-1.3785604 0 0-.6008779 2.2905094-.7468459 2.8521451-.2706785 1.04243-1.0019356 2.3486586-1.4894403 3.1457275 1.1209774.3488949 2.3128131.5361068 3.5499981.5361068 6.6224116 0 11.9906323-5.3724146 11.9906323-12 0-6.62900366-5.3682207-12-11.9906323-12" fill="#bd081c" fill-rule="evenodd"/></svg>