<svg height="32" viewBox="0 0 32 32" width="32" xmlns="http://www.w3.org/2000/svg"><path d="m24.9741785 6.20942129.1533179.00452683c.0733717.00351235.1428774.00857903.2417676.01696135.1725675.0146275.1910376.01603018.2283938.01667262.780634.01477182 1.0939197.45580352 1.1385665 1.21174158.0101713.17174508.0161178.91991694.0185432 2.19149933l.0006791.4431737c.0000917.0770689.0001729.1557352.0002435.2359896l-.0000196 1.9156895c-.0000706.1020437-.0001507.2056119-.0002405.3106957l-.0006519.6486152c-.0007644.6666555-.0018635 1.3872132-.0032714 2.1597097-.00176.9657252-.0039628 1.9839148-.0066589 3.1081239-.0000866.0361041-.0001845.0764841-.0002925.1207191l-.0007609.3083013c-.0018739.7536198-.0050873 2.0164235-.0071964 2.863441l-.0008862.3580398c-.0001316.05363-.0002545.1039578-.0003675.1505622l-.0005508.2315786-.0001699.0759642c-.0020042.9959541-.4134455 1.3983502-1.4130825 1.392427-.0385882-.0001198-.0688367.0004927-.1501324.0027477l-.0457166.0012484c-.0576527.0013986-.0576527.0013986-.119748.001962-.7186533.0028655-1.2067086-.3647061-1.2917715-1.0763033-.0500756-.4161596-.2678582-.7444655-.6919507-1.0728235-1.168272-.905233-2.5431708-1.5479138-4.1652941-1.9841833-1.2239025-.3291943-2.5169256-.5010587-4.0770734-.5670436.1085736.2716472.1909938.5440579.2381063.7639163.1630877.7635138-.3660309 1.1402744-1.0526586 1.1824675.1058438.5631739.2525108 1.1894866.4819709 2.1032466.1143202.4553963-.0048489.8723058-.3563631 1.17522-.9265277.7965024-2.0372701.9975931-3.2297083.6309395-.5744316-.1771043-.91298563-.6903697-1.2550048-1.555711-.06716373-.1699307-.32137864-.8806961-.35975404-.9670464-.36461084-.7290207-.65648133-1.3955515-1.16324937-2.6182928l-.09182579-.221695c-.0925344-.2234482-.16144004-.3894667-.22135656-.5329684l-.457275.0008287c-.51288147.0202939-.93307082-.1680168-1.18431242-.6204408-.11515089-.2072619-.24006134-.3807186-.52958718-.7509434l-.04092682-.05234c-.18140989-.2321232-.28189735-.3655554-.3876131-.5201744-.15094663-.220752-.2457731-.5013766-.24934944-.7660471-.01283007-.8855877-.01340148-1.8099638-.00334168-2.8267145.00275603-.2652683.08912547-.5471978.25887728-.753324.49456977-.598788.93510545-1.1099488 1.37157686-1.5861842.21110147-.2302925.55985306-.3629572.86865769-.3563552.60443191.0122383 1.08766349.0232646 2.1749469.0490053l.20176061.0047746c1.66938666.0394722 2.55521706.0579156 3.55404126.0712911.1166563.0012477.1955191.0124448.3558318.0422479.0139823.0025905.0255631.0047261.0354318.0065256.0313659-.0022729.055617-.0041645.1238795-.0094891l.0517781-.0026434.1026998-.0052613c2.0438902-.1069273 4.1024852-.5150453 6.614308-1.25105558.8309515-.24347349 1.5694895-.64721064 2.1362885-1.18273989.301326-.28476637.5507534-.60366382.7369686-.94584407.015583-.0285741.0406335-.09395876.0758618-.20301483l.0760072-.24051109c.1601875-.49890912.2908496-.76326414.5922763-.95842744.2427465-.15730852.5059009-.18659508.878699-.16874898zm-11.7234027 13.05099731c-.742309-.0031657-1.522158-.0051351-2.4543671-.0064586l-.3840093-.0005054c-.0431944-.0000521-.0870888-.0001034-.1322078-.0001546l-.8341824-.0008337-.22349322-.0002046-.14782268-.0001344c.00825868.0199359.01671018.040341.02536636.0612436l.09169554.2213806c.49642877 1.1977944.77965293 1.8445801 1.1383385 2.562847.0723183.1604833.3405278.9103764.3920967 1.0408508.2070166.5237716.4042897.8228478.4921288.8499299.7975604.2452355 1.4705262.1289496 2.0679306-.3716395-.3438044-1.3693118-.5090448-2.1213264-.6293988-2.982065-.0727722-.5239601.4219315-.7738239.7974775-.653918-.0005654.0024921-.0010852.0052502-.0056552.006579.0128845.0030833.0295091.0065789.0486327.0101677-.0005311-.0006162-.0010553-.0012213-.0015725-.0018155.002263.0009131.0045205.0018405.0067722.0027822.0149548.0027546.0313051.005547.0484964.0082349.0685252.0107139.1390803.0181559.2057277.0214146-.0510723-.1371191-.1172278-.3069175-.1826489-.4641658-.0472554-.1135845-.0922395-.2167172-.132092-.302845zm1.0626686-6.1368837.0002303.2215539.0009025.8468645c.0000644.0574572.000127.1124071.0001886.1654284l.000735.5807064.0002002.1422822.0006242.4744643c.0015781.9281449.0037554 1.7359047.0069318 2.5080319 1.8703754.0517289 3.3922403.2339739 4.8453468.6248174 1.7676742.4754154 3.2861111 1.1851914 4.5884396 2.194298.6587127.5100149 1.0559679 1.1088746 1.1485907 1.8786308.0032342.0270552-.0054875.0345549-.0050141.0342458l.0194735-.0075494c.0147558-.0036667.0398652-.0073235.081595-.0074898.0439933-.0003913.0439933-.0003913.0929581-.001568l.0431314-.0011787c.0875154-.0024779.132294-.0033847.1891802-.0032057.3405705.0020172.2070205.1326457.2076681-.194965.0000438-.0204833.0001008-.0459535.0001699-.0759893l.0005509-.2316346c.000113-.0466143.0002359-.0969521.0003676-.1505923l.0008863-.3581018c.0021094-.8471528.0053231-2.1100887.007197-2.8636737l.0007609-.3082729.0002923-.1206949c.0026956-1.1239952.004898-2.1419626.0066575-3.1074329.0013731-.7534411.0024407-1.460268.0031869-2.1171187l.0008762-.9473735c.0000701-.1010057.0001311-.2005764.0001828-.2986967l-.0000807-1.6061492c-.0000616-.0801541-.0001329-.1587642-.0002139-.2358149l-.0006036-.44346624c-.0021651-1.27351163-.0075344-2.03167671-.0165389-2.18371951-.0014227-.0240897-.0014657-.04360844-.0004976-.05930417l.0028098-.02553946-.0418592-.00039851c-.0311371-.00172475-.0707594-.00483093-.1446253-.01102308l-.0862344-.00728392c-.0854118-.00723984-.1424132-.011395-.1977935-.01404609-.0639269-.00306023-.1160157-.00235059-.1471943-.00406974l-.0192933-.00217866c-.008551.03367381-.0383045.10662057-.0754841.21438211l-.0290727.08726058-.0766583.24253275c-.0569543.17631343-.1028597.29613155-.1639881.40822039-.2479348.45559405-.5755139.87440973-.9665675 1.24397263-.7114219.67217352-1.6174752 1.16748642-2.6230364 1.46212152-2.5000788.7325691-4.5832722 1.1541384-6.656166 1.2844207zm-6.89589403-.9319888c-.41608029.4546865-.83910765.9458155-1.31509725 1.5221007.02071591-.0250809.01518648-.0070025.01509053.0022255-.00996588 1.0072658-.00940038 1.9220776.00328569 2.7977459.00027804.0205749.01818105.0735562.04004814.1055357.0872513.1276131.17604612.2455192.34253566.4585511l.0406961.0520448c.32790835.4193056.47770475.6273238.63333566.9074594.00739742.0121137.0165248.007008.11156869.0036229l.70558079.0004322c.71813724.0008635 1.48188131.0030189 2.36266942.0064446.5048462.0019635.9092741.003726 1.8168816.0078234.4399832.0019863.7078144.0031853.9490092.0042325l-.0014212-.3887805c-.0028443-.7852887-.0047613-1.6202526-.006148-2.5889286l-.0009174-.7169496c-.0000581-.0513792-.0001165-.1042716-.0001758-.1591549l-.0007914-.784758-.000237-.2475623-.0007185-.7372822-.0001661-.1065867c-.9203459-.0132429-1.797308-.0318237-3.34752024-.0684781l-.20179609-.0047754c-.80993838-.0191748-1.28409362-.0301703-1.72221184-.0396218l-.29002938-.0061451-.1471782-.0030375.00617841-.0060418z"/></svg>