<svg height="32" viewBox="0 0 32 32" width="32" xmlns="http://www.w3.org/2000/svg"><path d="m26.0795018 9.32319303c-.7329624.33378827-1.5221264.5595156-2.349929.66037249.8453656-.51869258 1.4940256-1.3411565 1.7996218-2.32090914-.7915058.4802709-1.666143.82966798-2.6004944 1.01697364-.7446711-.81525986-1.8089887-1.32434702-2.9868804-1.32434702-2.2586014 0-4.0910074 1.87905991-4.0910074 4.196367 0 .3289856.035126.6483657.105378.9557391-3.4013671-.1752989-6.41634826-1.8442403-8.43609291-4.38607401-.3524308.62195082-.55381983 1.34355785-.55381983 2.11199131 0 1.4552208.7224246 2.7399455 1.82069735 3.4927701-.66973562-.0204115-1.30200351-.2113192-1.85465248-.5234953v.0516292c0 2.0339472 1.41089409 3.7305042 3.28428047 4.1147209-.34306391.0984556-.70486165.1476833-1.07836805.1476833-.26344496 0-.52103558-.0252142-.77043014-.074442.52103558 1.6665401 2.03145329 2.8804248 3.82287899 2.9128431-1.4003563 1.1262352-3.1660229 1.7974138-5.0827313 1.7974138-.33018434 0-.65685609-.0192108-.97650263-.0576325 1.81133042 1.1886705 3.96338293 1.8838626 6.27350253 1.8838626 7.5286713 0 11.644267-6.3936064 11.644267-11.9395346 0-.182503-.0035126-.3650059-.0105378-.5439068.7997018-.5919339 1.4940256-1.3303504 2.0408202-2.17202517" fill-rule="evenodd"/></svg>