<svg height="32" viewBox="0 0 32 32" width="32" xmlns="http://www.w3.org/2000/svg"><path d="m5.27679524 20.1603989c2.12627387-1.6800024 5.33187196-.4617553 5.79635986 2.2024867.1102512.619129.0624374 1.2335135-.1375626 1.8664619l-.0183312.0784031c-.0061471.0223738-.0143801.0484451-.030846.1005875l-.0950992.1793719c-.0505373.0952989-.0853559.1570877-.1191662.211137-.8074971 1.3335954-1.95277438 1.9491132-3.45934269 1.8527566-1.71929487-.1222012-3.08260473-1.4140218-3.32097171-3.1443902-.11323013-.827453.04804856-1.6041305.47966382-2.3262375.06157763-.1098651.45040217-.61355.55366832-.7094542l.20762168-.1897408zm7.89096136-13.93843544c1.7326758-1.51358418 4.4499498-1.05589293 5.5849371.99220788l.7525569 1.34603402 6.8602249 11.91524414c.1473506.2589925.2931749.5158578.4421533.7787611 1.2518265 2.1972656-.0991493 4.9841457-2.5966762 5.3622919-1.4638318.2187322-2.8304388-.4124808-3.6426249-1.6680041l-.1675464-.2799008-8.0678057-13.8851102c-.7384181-1.38454578-.3334169-3.42114608.5773303-4.32417862zm-2.119772 3.41083099.1613911.56755295c.073363.2579904.1703135.5082852.291245.7516406l.1700614.313165 3.4147626 5.8727111-3.1241415 5.3997254-.1470644-.606226c-.5736041-2.3644977-3.00384088-3.7824067-5.31903071-3.2428389l-.20393272.0527146-.59304393.168548z"/></svg>