<svg height="32" viewBox="0 0 32 32" width="32" xmlns="http://www.w3.org/2000/svg"><g fill="none" fill-rule="evenodd"><path d="m16 4c-6.62742188 0-12 5.37257812-12 12 0 5.9895469 4.38822656 10.9539844 10.125 11.8542187v-8.3854687h-3.046875v-3.46875h3.046875v-2.64375c0-3.0075 1.7915156-4.66875 4.5325781-4.66875 1.3128985 0 2.6861719.234375 2.6861719.234375v2.953125h-1.5131719c-1.4906953 0-1.9555781.9250078-1.9555781 1.8739922v2.2510078h3.328125l-.5320313 3.46875h-2.7960937v8.3854687c5.7367734-.9002343 10.125-5.8646718 10.125-11.8542187 0-6.62742188-5.3725781-12-12-12z" fill="#1877f2"/><path d="m20.6710937 19.46875.5320313-3.46875h-3.328125v-2.2510078c0-.9489844.4648828-1.8739922 1.9555781-1.8739922h1.5131719v-2.953125s-1.3732734-.234375-2.6861719-.234375c-2.7410625 0-4.5325781 1.66125-4.5325781 4.66875v2.64375h-3.046875v3.46875h3.046875v8.3854687c.6109453.0958594 1.237125.1457813 1.875.1457813s1.2640547-.0499219 1.875-.1457813v-8.3854687z" fill="#fff"/></g></svg>