<svg height="32" viewBox="0 0 32 32" width="32" xmlns="http://www.w3.org/2000/svg"><path d="m17.5893635 18.4967842-1.9943583-.935743c-.137421-.0644772-.2452956-.1786446-.3018863-.3194967l-1.9146451-4.7654751c-.1922926-.4786087.2689837-.9607314.7556193-.7897677l9.7532223 3.4264784c.2403092.0844248.4011255.3113742.4011255.566082v4.9815621c0 .2144507-.1144561.4125969-.3002215.5197431l-10.9912825 6.3395757c-.182646.105347-.407184.1070916-.5914449.0045954l-4.39715839-2.445946c-.19032199-.1058678-.30833361-.306553-.30833361-.5243384v-19.554054c0-.41371321.40884525-.70329118.7991134-.5659981l4.3946522 1.5460019c.2401859.08449539.4008866.31138324.4008866.56599811v14.43002479zm-8.6893635-12.64966468v18.35410858l3.7918008 2.1092121 10.3966401-5.9965966v-4.2098218l-8.1028356-2.8466685 1.3329467 3.317651 2.8210301 1.3236132c.4389083.2059336.4649918.8204274.0451134 1.062814l-6.1900714 3.5733921c-.4.2309112-.8999719-.0577657-.8999719-.5196315v-15.04422064z"/></svg>