<svg height="32" viewBox="0 0 32 32" width="32" xmlns="http://www.w3.org/2000/svg"><path d="m16 4.98c-6.07680994 0-11.02 4.57702482-11.02 10.2459259l.00546492.3248757c.09468126 2.8115722 1.41510628 5.4109861 3.60702036 7.2609063l.28151472.2292921.00040994 3.409.00690777.0903098c.05900053.379806.48460187.6029704.83733567.4093806l3.35934662-1.8456904-.2274952-.0574448c1.0151117.2809321 2.0726792.4252967 3.1494952.4252967 6.0768099 0 11.02-4.5770249 11.02-10.245926 0-5.66890108-4.9431901-10.2459259-11.02-10.2459259zm0 1.14c5.4659684 0 9.88 4.0870636 9.88 9.1059259s-4.4140316 9.105926-9.88 9.105926c-.973804 0-1.9291018-.1304041-2.8454297-.3839978l-.0867979-.0169064c-.1166054-.0134338-.2353212.0094023-.3394783.0665665l-2.7142941 1.4894858.0004099-2.7263015c0-.1798149-.08484871-.3490869-.22891715-.4566865-2.30443938-1.7211035-3.66549275-4.2981183-3.66549275-7.0780861 0-5.0188623 4.4140316-9.1059259 9.88-9.1059259z"/><path d="m21.2262233 12.6675001-3.8272233 2.1174999-1.9484221-2.0289502c-.1925418-.2004654-.5136866-.1989068-.7042736.0034181l-4.626559 4.9115-.0528693.0652448c-.27582775.400484.1798631.9458115.6397319.6944449l3.8753921-2.1186576 1.89849 2.0246222c.1916966.2044532.5161274.2048304.7082988.0008235l4.626559-4.9115c.3803378-.403762-.1038206-1.0270729-.5891245-.7584456z"/></svg>