<svg height="32" viewBox="0 0 32 32" width="32" xmlns="http://www.w3.org/2000/svg"><path d="m25.0511579 4.74884211c1.2150264 0 2.2.98497356 2.2 2.2v18.10231579c0 1.2150264-.9849736 2.2-2.2 2.2h-18.10231579c-1.21502644 0-2.2-.9849736-2.2-2.2v-18.10231579c0-1.21502644.98497356-2.2 2.2-2.2zm-4.5511931 3.75615789-.1000808.0062556-.1050086.0204884c-.3075513.08190575-.5433879.34333099-.5874797.66424575l-.0074309.10901025v9.112l-2.2124895.0280155-.1125517.0084193c-.259123.0388803-.4893224.2094462-.5973431.4494923-.1136964.2386677-.0996642.5142259.0312723.7409388l.0632415.0939222 2.9616967 3.7021509.068512.0760063c.1471134.1428465.3516535.2290547.5576618.2290547.1988247 0 .3884764-.073366.5375371-.2044155l.0843142-.0854262 3.0441617-3.7950186.0623143-.0924619c.0925827-.159875.1284303-.3464858.1020928-.5279833l-.0233083-.1080301-.0401198-.1076149-.0587857-.1042071-.0713457-.0925878c-.1285329-.1442406-.3030764-.2371459-.4920196-.2641076l-.114841-.008147-2.19.027v-9.077l-.0062556-.10008075c-.0450341-.35778458-.3281622-.6434974-.6847342-.69248829zm-9.04 0c-.2060083 0-.4105484.08620816-.5583481.22992043l-.0689156.07651526-2.9589101 3.69862531-.063798.0946398c-.11318433.1956063-.13951726.4263155-.07213364.6406951l.0415333.1055908.05290974.0971498.06641694.0878752c.12104905.1380997.29161414.2328307.47787556.2605716l.11336986.0084167 2.20900004.027.001 9.113.0062556.1000807c.0450341.3577846.3281622.6434975.6847341.6924883l.1090103.007431.1000807-.0062556.1050086-.0204884c.3075513-.0819057.5433879-.343331.5874797-.6642457l.007431-.1090103-.001-9.078 2.1884897.0279842.115657-.0081123c.2280981-.0321689.4337737-.1582469.5607538-.3466412l.0566716-.099244.0413762-.1071645.0252255-.1137574c.0290743-.1895903-.0061591-.3773499-.0976919-.5362166l-.0616115-.0916363-3.0418574-3.79235161-.0860675-.08754053c-.1514691-.13395372-.3411208-.20731976-.5399455-.20731976z" fill-rule="evenodd"/></svg>