<svg height="32" viewBox="0 0 32 32" width="32" xmlns="http://www.w3.org/2000/svg"><path d="m24.54 18.895c-.1-.21-.32-.34-.55-.34l-2.39.03v-9.28c0-.33-.27-.6-.6-.6s-.6.27-.6.6v9.31l-2.41.03c-.23 0-.44.14-.53.34-.1.21-.07.45.07.63l2.96 3.7c.11.14.29.23.47.23s.35-.08.47-.22l3.04-3.79c.12-.1542857.1591837-.36.1049563-.5478717zm-10-5.54c-.1.21-.32.34-.55.34l-2.39-.03v9.28c0 .33-.27.6-.6.6s-.6-.27-.6-.6v-9.31l-2.41-.03c-.23 0-.44-.14-.53-.34-.1-.21-.07-.45.07-.63l2.96-3.7c.11-.14.29-.23.47-.23s.35.08.47.22l3.04 3.79c.12.1542857.1591837.36.1049563.5478717z"/></svg>