<svg height="32" viewBox="0 0 32 32" width="32" xmlns="http://www.w3.org/2000/svg"><path d="m16 5c6.0751322 0 11 4.92486775 11 11 0 6.0751322-4.9248678 11-11 11-6.07513225 0-11-4.9248678-11-11 0-6.07513225 4.92486775-11 11-11zm-3.1240409 12.7568552c-.2505485-.1859025-.5851006-.2065583-.8543165-.0619675l-.0976017.0619675-.0897263.0774594-.0774594.0897263c-.1859025.2505485-.2065583.5851006-.0619675.8543165l.0619675.0976017.0774594.0897263 3.6 3.6.0897263.0774594c.2505485.1859025.5851006.2065583.8543165.0619675l.0976017-.0619675.0897263-.0774594 3.6-3.6.0774594-.0897263c.2323781-.3131856.2065583-.7576269-.0774594-1.0416445-.2556159-.2556159-.6411749-.3020915-.9440428-.1394269l-.0976017.0619675-.0897263.0774594-3.0343146 3.0346854-3.0343146-3.0346854zm3.6-8.39999999c-.281867-.20914028-.6700512-.20914028-.9519182 0l-.0897263.07745937-3.6 3.60000002-.0774594.0897263c-.2091403.281867-.2091403.6700512 0 .9519182l.0774594.0897263.0897263.0774594c.281867.2091403.6700512.2091403.9519182 0l.0897263-.0774594 3.0343146-3.0346854 3.0343146 3.0346854.0897263.0774594c.3131856.2323781.7576269.2065583 1.0416445-.0774594.2840177-.2840176.3098375-.7284589.0774594-1.0416445l-.0774594-.0897263-3.6-3.60000002z" fill-rule="evenodd"/></svg>