<svg height="32" viewBox="0 0 32 32" width="32" xmlns="http://www.w3.org/2000/svg"><path d="m9.6588334 19.5063094c.20461154-.1417459.4777217-.1417459.6823332 0l.0830975.0694265 5.5757359 5.5752641 5.5757359-5.5752641.0830975-.0694265c.2338418-.1619953.557151-.1388531.7654307.0694265.2082796.2082797.2314218.5315889.0694265.7654307l-.0694265.0830975-6 6-.0830975.0694265c-.2046115.1417459-.4777217.1417459-.6823332 0l-.0830975-.0694265-5.99999997-6-.06942654-.0830975c-.14174585-.2046115-.14174585-.4777217 0-.6823332l.06942654-.0830975zm6.6823332-14.00000001.0830975.06942654 6 5.99999997c.2343145.2343146.2343145.6142136 0 .8485282-.2082797.2082796-.5315889.2314218-.7654307.0694265l-.0830975-.0694265-5.5757359-5.5752641-5.5757359 5.5752641c-.2082797.2082796-.53158893.2314218-.7654307.0694265l-.08309747-.0694265c-.20827962-.2082797-.2314218-.5315889-.06942654-.7654307l.06942654-.0830975 5.99999997-5.99999997c.2082797-.20827962.5315889-.2314218.7654307-.06942654z"/></svg>