<svg height="32" viewBox="0 0 32 32" width="32" xmlns="http://www.w3.org/2000/svg"><path d="m21 8.505c.4065756 0 .7442069.30635621.7937444.69991925l.0062556.10008075v9.077l2.19-.027c.2321264 0 .4526211.0991658.6068607.2722546l.0713456.0925878.0587858.1042071.0401197.1076149c.0617154.2138139.0323148.4441634-.0787845.6360134l-.0623143.0924619-3.0441617 3.7950186c-.1578811.1841946-.3832616.2898417-.6218513.2898417-.2060083 0-.4105484-.0862082-.5576617-.2290547l-.0685121-.0760063-2.9616966-3.7021509c-.1875622-.2411513-.2244526-.562098-.0945139-.834861.1080207-.2400461.3382201-.410612.5973432-.4494923l.1125517-.0084193 2.2124894-.0280155v-9.112c0-.36961422.2531869-.68224961.5949107-.773256l.1050086-.0204884zm-10.04 0c.1988248 0 .3884765.07336604.5399455.20731976l.0860675.08754053 3.0418574 3.79235161c.1364786.1754724.1941926.4003446.1593035.6278529l-.0252256.1137574-.0413762.1071645c-.115716.2430037-.3513109.4083549-.6174253.4458852l-.1156571.0081123-2.1884897-.0279842.001 9.078c0 .3696142-.2531869.6822496-.5949107.773256l-.1050086.0204884-.1000807.0062556c-.4065756 0-.7442069-.3063562-.7937444-.6999193l-.0062556-.1000807-.001-9.113-2.209-.027c-.22942461 0-.44598657-.1032686-.59124542-.2689883l-.06641694-.0878752-.05290974-.0971498c-.11528203-.2420922-.10144805-.5180786.03060034-.7462859l.063798-.0946398 2.95891006-3.69862531c.1485761-.1890968.3869207-.30643569.6272637-.30643569z" fill="#005a7d"/></svg>