<svg height="32" viewBox="0 0 32 32" width="32" xmlns="http://www.w3.org/2000/svg"><g fill="none" fill-rule="evenodd"><path d="m.30596285.55138343h31.16883115v31.16883117h-31.16883115z"/><g fill="#f8813d" fill-rule="nonzero"><path d="m10.4378524 21.4432277c-.3094354 0-.56260983-.2531745-.56260983-.5626099v-6.2543466c0-.3094354.25317443-.5626099.56260983-.5626099.3094355 0 .5626099.2531745.5626099.5626099v6.2543466c0 .3094354-.2531744.5626099-.5626099.5626099z"/><path d="m7.9436153 21.4432277c-.30943544 0-.56260989-.2531745-.56260989-.5626099v-6.2543466c0-.3094354.25317445-.5626099.56260989-.5626099.30943543 0 .56260988.2531745.56260988.5626099v6.2543466c0 .3094354-.25317445.5626099-.56260988.5626099z"/><path d="m12.9414664 21.424474c-.3094354 0-.5626098-.2531745-.5626098-.5626099v-9.0205118c0-.3094354.2531744-.5626099.5626098-.5626099.3094355 0 .5626099.2531745.5626099.5626099v9.0205118c0 .3094354-.2531744.5626099-.5626099.5626099z"/><path d="m23.921736 21.4150972c-.0843915 0-8.0359445 0-8.1015823-.0093769-.4594648-.0468841-.8157844-.4313342-.8157844-.890799v-8.8517288c0-.4125806.2156672-.6938855.6470014-.8532917.6470014-.2437976 1.3596406-.3656964 2.0535261-.3656964 1.4252784 0 2.7849189.5157257 3.835124 1.4440321.8720454.778277 1.4721626 1.7815979 1.7159602 2.888064.2156671-.0375073.4407111-.0656378.665755-.0656378 1.9128736 0 3.4600508 1.500293 3.4600508 3.3475288 0 1.8566126-1.556554 3.3569057-3.4600508 3.3569057z"/><path d="m5.44000131 21.368213c-.30943544 0-.56260988-.2531744-.56260988-.5626099v-4.2195741c0-.3094355.25317444-.5626099.56260988-.5626099s.56260988.2531744.56260988.5626099v4.2195741c0 .3094355-.25317444.5626099-.56260988.5626099z"/></g></g></svg>