<svg height="32" viewBox="0 0 32 32" width="32" xmlns="http://www.w3.org/2000/svg"><path d="m9.93 21.865c-.33 0-.6-.27-.6-.6v-6.67c0-.33.27-.6.6-.6s.6.27.6.6v6.67c0 .33-.27.6-.6.6zm-2.66 0c-.33 0-.6-.27-.6-.6v-6.67c0-.33.27-.6.6-.6s.6.27.6.6v6.67c0 .33-.27.6-.6.6zm5.33-.02c-.33 0-.6-.27-.6-.6v-9.62c0-.33.27-.6.6-.6s.6.27.6.6v9.62c0 .33-.27.6-.6.6zm11.71-.01c-.09 0-8.57 0-8.64-.01-.49-.05-.87-.46-.87-.95v-9.44c0-.44.23-.74.69-.91.69-.26 1.45-.39 2.19-.39 1.52 0 2.97.55 4.09 1.54.93.83 1.57 1.9 1.83 3.08.23-.04.47-.07.71-.07 2.04 0 3.69 1.6 3.69 3.57 0 1.98-1.66 3.58-3.69 3.58zm-8.31-1.2h8.31c1.37 0 2.49-1.07 2.49-2.37 0-1.31-1.12-2.37-2.49-2.37-.34 0-.66.06-.97.19-.18.07-.37.05-.54-.04s-.27-.27-.28-.46c-.11-1.15-.65-2.22-1.54-3-.9-.8-2.07-1.24-3.3-1.24-.56 0-1.14.1-1.67.28v9.01zm-11.4 1.15c-.33 0-.6-.27-.6-.6v-4.5c0-.33.27-.6.6-.6s.6.27.6.6v4.5c0 .33-.27.6-.6.6z"/></svg>