<svg height="32" viewBox="0 0 32 32" width="32" xmlns="http://www.w3.org/2000/svg"><g fill="none" fill-rule="evenodd"><path d="m10.4277146 26.0231487v-15.6219284l5.3266025-5.30716124h11.4017818v20.92908964z" fill="#afdfef" transform="matrix(-1 0 0 1 37.583814 0)"/><path d="m27.1549009 10.4000267h-5.338486v-5.30596764h.0130815z" fill="#45889f"/><path d="m27.1560989 15.738449-5.339684-5.3384223h5.338486l.001198.0011936z" fill="#8bc6da"/><path d="m16.4033586 16.5921325.0341615 2.7784679c0 .2619048.1594203.5010352.3871635.6035197.0910973.0455486.1935818.068323.2960663.068323.1480331 0 .3074534-.0455487.421325-.1480332l4.2132506-3.3706004c.1594203-.1252588.2619047-.3302277.2619047-.5351967 0-.2049689-.0910973-.3985507-.2505176-.5351967l-4.315735-3.4616977c-.2049689-.1708074-.489648-.1935818-.7287784-.0797101-.2391305.1138716-.3871636.3643892-.3871636.626294l.0341615 2.6873706h-6.3426501c-.0113872 0-1.60559007.0455486-2.65320912-.9679089-.62629399-.6149069-.94513457-1.5031056-.94513457-2.6532091v-.4213251c0-.3757764-.30745342-.6832298-.68322981-.6832298-.3757764 0-.68322982.3074534-.68322982.6832298v.4213251c0 1.5486542.46687371 2.7784679 1.37784679 3.6552795.28467909.2732919.58074534.489648.89958592.6604555-.30745341.1708074-.61490683.3871635-.89958592.6604554-.91097308.8768116-1.37784679 2.1066253-1.37784679 3.6552795v.5807454c0 .3757764.30745342.6832298.68322982.6832298.37577639 0 .68322981-.3074534.68322981-.6832298v-.5807454c0-1.1501035.31884058-2.0496894.94513457-2.6532091 1.03623189-1.0020704 2.61904762-.9679089 2.65320912-.9679089h6.3768116z" fill="#252d4f" fill-rule="nonzero"/></g></svg>