<svg height="32" viewBox="0 0 32 32" width="32" xmlns="http://www.w3.org/2000/svg"><path d="m26.68 13.369v11.631c0 .297-.2187.5454-.50301.59211l-.09699.00789h-15c-.297 0-.5454-.2187-.59211-.50301l-.00789-.09699v-5.62c0-.33.27-.6.6-.6.297 0 .5454.2187.59211.50301l.00789.09699v5.02h13.8v-11.031zm-20.76-2.149c.297 0 .5454.2187.59211.50301l.00789.09699v.37c0 1.01.28 1.79.83 2.33.56.5417391 1.29784499.7389036 1.79179749.8102556l.22469938.0262044.1723357.0113125.1082571.0024971 5.60291033-.0002696-.03-2.36c0-.23.13-.45.34-.55.18-.0857143.3893878-.0832653.5588921.0136443l.0811079.0563557 3.79 3.04c.14.12.22.29.22.47 0 .15-.0625.3-.1643519.4094907l-.0656481.0605093-3.7 2.96c-.1.09-.24.13-.37.13-.09 0-.18-.02-.26-.06-.1714286-.0771429-.2987755-.242449-.3316618-.4329446l-.0083382-.0970554-.03-2.42-5.68347483.00071-.20721638.0116642-.19306536.0209241-.22732532.0363861-.25329076.0560857c-.43918107.1122464-.95199099.3242299-1.36562735.7242299-.50416667.4858333-.78145833 1.1901389-.82417245 2.0821065l-.00582755.2478935v.51c0 .33-.27.6-.6.6-.297 0-.5454-.2187-.59211-.50301l-.00789-.09699v-.51c0-1.36.41-2.44 1.21-3.21.25-.24.52-.43.79-.58-.28-.15-.54-.34-.79-.58-.74666667-.7186667-1.1536-1.7073778-1.20453926-2.9417422l-.00546074-.2682578v-.37c0-.33.27-.6.6-.6zm14.8333974-4.81988273c.1587498 0 .3110296.06291333.4234877.17496098l5.3254045 5.30596765c.1220745.121629.1770924.2712335.1777104.4181786l-.0004439 1.0697755h-1.2l.0000595-.4638827-4.7392997.0009676c-.3313709 0-.6-.2686291-.6-.6l-.0007003-4.70696763-8.4596156.00088273v5.02c0 .33-.27.6-.6.6-.297 0-.5454-.2187-.59211-.50301l-.00789-.09699v-5.62c0-.297.2187-.5454.50301-.59211l.09699-.00789zm.5869185 2.0317574v3.27421023h3.2862044z"/></svg>