<svg height="32" viewBox="0 0 32 32" width="32" xmlns="http://www.w3.org/2000/svg"><path d="m20.7533974 6.4c.1587498 0 .3110296.0630306.4234877.17507825l5.3254045 5.30596765c.1220745.121629.1770924.2712335.1777104.4181786v12.7007755c0 .297-.2187.5454-.50301.59211l-.09699.00789h-15c-.297 0-.5454-.2187-.59211-.50301l-.00789-.09699v-8.41l-.88347483.00071-.20721638.0116642-.19306536.0209241-.22732532.0363861-.25329076.0560857c-.43918107.1122464-.95199099.3242299-1.36562735.7242299-.50416667.4858333-.78145833 1.1901389-.82417245 2.0821065l-.00582755.2478935v.51c0 .33-.27.6-.6.6-.297 0-.5454-.2187-.59211-.50301l-.00789-.09699v-.51c0-1.36.41-2.44 1.21-3.21.25-.24.52-.43.79-.58-.28-.15-.54-.34-.79-.58-.74666667-.7186667-1.1536-1.7073778-1.20453926-2.9417422l-.00546074-.2682578v-.37c0-.33.27-.6.6-.6.297 0 .5454.2187.59211.50301l.00789.09699v.37c0 1.01.28 1.79.83 2.33.56.5417391 1.29784499.7389036 1.79179748.8102556l.22469939.0262044.1723357.0113125.1082571.0024971.83291033-.0002696v-8.37c0-.297.2187-.5454.50301-.59211l.09699-.00789zm-4.6345053 6.0736443c-.1695043-.0969096-.3788921-.0993586-.5588921-.0136443s-.3012245.2595918-.3321866.4523615l-.0078134.0976385.03 2.36-3.278281.0002272c-.3071926.0000213-.5651747.2180806-.6239995.510305l-.0120264.0999576-.0005022.0243569c0 .2912048.2125566.5327486.4909329.5781031l.0950307.007651 3.3588455-.0006008.03 2.42.0083382.0970554c.0328863.1904956.1602332.3558017.3316618.4329446.08.04.17.06.26.06.0975 0 .200625-.0225.2882812-.0717187l.0817188-.0582813 3.7-2.96.0656481-.0605093c.1018519-.1094907.1643519-.2594907.1643519-.4094907 0-.144-.0512-.2816-.14336-.39232l-.07664-.07768-3.79-3.04zm5.2214238-4.04176963v3.27421023h3.2862044z"/></svg>