<svg height="32" viewBox="0 0 32 32" width="32" xmlns="http://www.w3.org/2000/svg"><path d="m19.5761131 24.9490633c.2052775.0977512.4440697.0949583.6373777-.0155604l.0924979-.0642698 4.3222324-3.4669093c.1596603-.1254473.262299-.3193206.2394904-.5360024 0-.1710646-.0712769-.3421292-.1874319-.4669958l-.0748671-.0690066-4.2195936-3.3756749c-.1140431-.1026387-.2737034-.148256-.4219594-.148256-.1026387 0-.2052775.0228087-.2965119.0684259-.1995754.0898089-.3467623.2843949-.3804406.507358l-.0073059.0970703-.0342129 2.7484379h-7.355778c-.8401173 0-1.5276491-.6408587-1.6014486-1.4518218l-.0065587-.1447811.0000503-6.5871343c.2752866-.0991102.5309917-.2587117.7460888-.4745922.5769938-.5790956.7479602-1.4489207.4330679-2.2033187-.3148922-.75439795-1.0535245-1.24454903-1.87099932-1.24159517-1.11247912.00405146-2.01217657.90703347-2.01217657 2.01951947 0 .8174798.49283936 1.5543245 1.2483777 1.8664713l.08696318.033613.00011122 6.5870366c0 1.5725724 1.24069839 2.8694341 2.80179699 2.9600613l.1747271.0050585h7.3329694l-.0342129 2.7256293c0 .2622991.148256.5131938.3877464.6272369z" fill-rule="evenodd"/></svg>