<svg height="32" viewBox="0 0 32 32" width="32" xmlns="http://www.w3.org/2000/svg"><path d="m10.0631872 11.8586877c1.0303995-.2832662 1.7886377-1.2422819 1.7886377-2.38175216 0-1.36232358-1.0838278-2.46670505-2.42079718-2.46670505-1.33696939 0-2.42079723 1.10438147-2.42079723 2.46670505 0 1.08867176.69213952 2.01261996 1.65249548 2.33988236v6.5135275c0 1.7005315 1.36544963 3.0918755 3.04600313 3.0918755h7.4924674l-.0350115 2.8421471c0 .273512.1517166.5351322.3967973.6540505.0933641.0475673.1983987.071351.3034333.071351.1517166 0 .3151038-.0475673.4434794-.1545938l4.4231233-3.6151159c.1633871-.1308101.2567512-.344863.2567512-.558916 0-.2140529-.0933641-.416214-.2684217-.5589159l-4.3180887-3.5199813c-.2100692-.1664856-.4901615-.2021611-.7352422-.0832428s-.3967973.3567548-.3967973.6302669l-.0350115 2.8659307h-7.527479c-.9102998 0-1.6455419-.7491852-1.6455419-1.664856z" fill="#2289a3"/></svg>