<svg height="32" viewBox="0 0 32 32" width="32" xmlns="http://www.w3.org/2000/svg"><path d="m25.909365 17.42125-2.84-2.84c-.11-.11-.27-.18-.42-.18-.16 0-.31.06-.42.18l-5.29 5.29c-1.33 1.33-3.49 1.33-4.82 0s-1.33-3.49 0-4.82l2.28-2.28.01-.01.01-.01 2.99-2.99c.11-.11.18-.27.18-.42s-.06-.31-.18-.42l-2.84-2.84c-.23-.23-.61-.23-.85 0l-3 3-2.28999997 2.29c-1.63 1.63-2.52 3.79-2.52 6.1 0 2.3.9 4.47 2.52 6.1 1.67999997 1.68 3.88999997 2.52 6.09999997 2.52s4.42-.84 6.1-2.52l5.29-5.29c.23-.25.23-.63-.01-.86zm-11.76-10.07 1.99 1.99-2.16 2.15-1.99-1.99zm5.63 15.35c-2.89 2.89-7.6 2.89-10.48999997 0-1.4-1.4-2.17-3.26-2.17-5.25s.77-3.85 2.17-5.25l1.85999997-1.86 1.99 1.99-1.87 1.87c-1.79999997 1.8-1.79999997 4.72 0 6.52 1.8 1.8 4.72 1.8 6.52 0l1.86-1.86 1.99 1.99zm2.71-2.71-1.99-1.99 2.15-2.15 1.99 1.99zm-3.25-6.15c.05.02.11.02.16.02.26 0 .5-.17.58-.44l.81-2.85.55.67c.14.17.37.25.59.21.22-.05.39-.21.45-.42l1.12-3.95c.09-.32-.09-.65-.41-.74s-.65.09-.74.41l-.81 2.85-.55-.67c-.14-.17-.37-.25-.59-.21-.22.05-.39.21-.45.42l-1.12 3.95c-.1.33.09.66.41.75z"/></svg>