<svg height="32" viewBox="0 0 32 32" width="32" xmlns="http://www.w3.org/2000/svg"><g fill="none"><path d="m25.909365 17.42125-2.84-2.84c-.11-.11-.27-.18-.42-.18-.16 0-.31.06-.42.18l-5.29 5.29c-1.33 1.33-3.49 1.33-4.82 0s-1.33-3.49 0-4.82l2.28-2.28.01-.01.01-.01 2.99-2.99c.11-.11.18-.27.18-.42s-.06-.31-.18-.42l-2.84-2.84c-.23-.23-.61-.23-.85 0l-3 3-2.28999997 2.29c-1.63 1.63-2.52 3.79-2.52 6.1 0 2.3.9 4.47 2.52 6.1 1.67999997 1.68 3.88999997 2.52 6.09999997 2.52s4.42-.84 6.1-2.52l5.29-5.29c.23-.25.23-.63-.01-.86z" fill="#b75c64"/><path d="m22.649365 14.40125c.12 0 .2464.0448.34848.11904l.07152.06096 2.84 2.84c.2133334.2044444.2370371.5274074.0781345.7722359l-.0681345.0877641-2.701 2.7015-3.695-3.695 2.706-2.7065c.088-.096.2016-.1536.32544-.1728zm-8.93-8.32c.2133334-.20444444.537284-.22716049.7681756-.06814815l.0818244.06814815 2.84 2.84c.12.11.18.27.18.42 0 .12-.0448.2464-.11904.34848l-.06096.07152-2.711 2.7105-3.685-3.685z" fill="#c2c2c2"/><path d="m19.239365 13.84125c.05.02.11.02.16.02.26 0 .5-.17.58-.44l.81-2.85.55.67c.14.17.37.25.59.21.22-.05.39-.21.45-.42l1.12-3.95c.09-.32-.09-.65-.41-.74s-.65.09-.74.41l-.81 2.85-.55-.67c-.14-.17-.37-.25-.59-.21-.22.05-.39.21-.45.42l-1.12 3.95c-.1.33.09.66.41.75z" fill="#f8c31c"/></g></svg>