<svg height="32" viewBox="0 0 32 32" width="32" xmlns="http://www.w3.org/2000/svg"><path d="m14.4971813 6.85764394 2.1329404 2.1257898c.2347076.23392082.2353455.61381927.0014247.84852694l-4.8657348 4.86573592c-1.5252621 1.5252622-1.5252621 4.0018446 0 5.5271068 1.5252622 1.5252621 4.0018447 1.5252621 5.5271068 0l4.8629271-4.8629271c.2082796-.2082796.5315889-.2314218.7654306-.0694265l.0858879.0722354 2.1255279 2.1537662c.2316875.2347656.2304302.6125259-.002815.845744l-4.8540653 4.8535012c-1.540164 1.540164-3.6013145 2.3735534-5.7464466 2.3735534s-4.2062826-.8333894-5.74644658-2.3735534c-1.52816898-1.5376055-2.37355339-3.5818537-2.37355339-5.7464466 0-2.1796853.83893587-4.2118291 2.37355339-5.7464466l4.86644768-4.8664477c.2340364-.23403643.6133861-.2343549.8478152-.00071176zm7.8521837-.10639394c.09-.32.42-.5.74-.41s.5.42.41.74l-1.12 3.95c-.06.21-.23.37-.45.42-.22.04-.45-.04-.59-.21l-.55-.67-.81 2.85c-.08.27-.32.44-.58.44-.05 0-.11 0-.16-.02-.32-.09-.51-.42-.41-.75l1.12-3.95c.06-.21.23-.37.45-.42.22-.04.45.04.59.21l.55.67z"/></svg>