<svg height="32" viewBox="0 0 32 32" width="32" xmlns="http://www.w3.org/2000/svg"><path d="m10.460442 8.23393274v2.65021336h-2.51887694c-.41026756 0-.75754055.3312773-.80853955.7496069l-.00644237.1062546c0 .4319451.31571395.7971901.71386242.8508257l.1011195.0067753h2.51887694v2.6493436c0 .4311423.3149728.7963255.7136914.8499564l.1012905.0067749c.4094647 0 .7566759-.3320184.8076702-.750462l.0064419-.1062693v-2.6493436h2.5188769c.4102676 0 .7575406-.3320184.8085396-.751146l.0064424-.106455c0-.4311422-.315714-.7955843-.7138625-.8491012l-.1011195-.0067603h-2.5188769v-2.65021336c0-.43194511-.3157139-.79644897-.7131783-.8499706l-.1009338-.00676067c-.4110704 0-.7576641.33127731-.8085538.75029095zm8.8528444 4.36324096v2.6502134h-2.5180071c-.4110704 0-.7576641.3312773-.8085538.7496069l-.0064281.1062546c0 .4319451.3149728.7971901.7136914.8508257l.1012905.0067753h2.5180071v2.6493436c0 .4311423.315714.7963255.7138624.8499564l.1011195.0067749c.4102676 0 .7575406-.3320184.8085396-.750462l.0064424-.1062693v-2.6493436h2.5180071c.4102675 0 .7575405-.3320184.8085395-.751146l.0064424-.106455c.0686503-.4337086-.2451797-.7999206-.7061094-.8500238l-.1088725-.0058377h-2.5180071v-2.6502134c0-.4319451-.315714-.7964489-.7138625-.8499705l-.1011195-.0067607c-.4102675 0-.7575405.3312773-.8085395.7502909zm-12.70635501 10.3006101c0 1.4423699 1.13480067 2.633742 2.55241104 2.7200132l.16477702.0050015c1.44161855 0 2.75713125-1.1410793 2.72622495-2.5656106l-.0090369-.1594041c0-1.4438343-1.1333211-2.6338506-2.55224663-2.7200193l-.16494142-.0049955c-1.43810462 0-2.62616842 1.1365409-2.71220043 2.5595933zm15.67233221-14.96194027c0 .80913508.624638 1.48017413 1.4149037 1.55223669l.1410846.00640537c.80989 0 1.4795218-.6260871 1.5514257-1.41738085l.006391-.14126121c0-.80995654-.624638-1.4802654-1.416444-1.5522443l-.1413727-.00639776c-.8081631 0-1.477699.62531128-1.5495976 1.41725154zm0 15.12831297c0 .8091351.624638 1.4801741 1.4149037 1.5522367l.1410846.0064053c.80989 0 1.4795218-.6260871 1.5514257-1.4173808l.006391-.1412612c0-.8099566-.624638-1.4802654-1.416444-1.5522443l-.1413727-.0063978c-.8081631 0-1.477699.6253113-1.5495976 1.4172516zm-6.8558687 0c0 .8091351.6246379 1.4801741 1.4149037 1.5522367l.1410845.0064053c.80989 0 1.4795219-.6260871 1.5514257-1.4173808l.0063911-.1412612c0-.8099566-.624638-1.4802654-1.4164441-1.5522443l-.1413727-.0063978c-.8081631 0-1.477699.6253113-1.5495975 1.4172516z" fill-rule="evenodd"/></svg>