<svg height="32" viewBox="0 0 32 32" width="32" xmlns="http://www.w3.org/2000/svg"><g fill="#000" fill-rule="evenodd"><path d="m11.6811784 7.99349026v2.65021334h-2.51887694c-.44445652 0-.81498192.3887908-.81498192.8558615 0 .4679405.3705254.8576011.81498192.8576011h2.51887694v2.6493435c0 .4670708.3696556.8567313.8149819.8567313.4435867 0 .8141121-.3896605.8141121-.8567313v-2.6493435h2.5188769c.4444566 0 .814982-.3896606.814982-.8576011 0-.4670707-.3705254-.8558615-.814982-.8558615h-2.5188769v-2.65021334c0-.46794053-.3705254-.85673127-.8141121-.85673127-.4453263 0-.8149819.38879074-.8149819.85673127z"/><path d="m19.6803086 15.9934903v2.6502133h-2.5180071c-.4453263 0-.814982.3887908-.814982.8558615 0 .4679405.3696557.8576011.814982.8576011h2.5180071v2.6493435c0 .4670708.3705254.8567313.8149819.8567313.4444565 0 .8149819-.3896605.8149819-.8567313v-2.6493435h2.5180072c.4444565 0 .8149819-.3896606.8149819-.8576011.0739311-.4670707-.2957245-.8558615-.8149819-.8558615h-2.5180072v-2.6502133c0-.4679406-.3705254-.8567313-.8149819-.8567313-.4444565 0-.8149819.3887907-.8149819.8567313z"/><path d="m8.34731954 20.6573413c0 1.7621714 1.43973143 3.2058997 3.19669186 3.2058997 1.7588375 0 3.3581219-1.4437283 3.1966918-3.2058997 0-1.7639605-1.4378543-3.2058997-3.1966918-3.2058997-1.75696043 0-3.19669186 1.4419392-3.19669186 3.2058997z"/><path d="m20.5388755 9.69540105c0 .85673125.7002861 1.55864205 1.5559882 1.55864205.8575306 0 1.5578168-.7019108 1.5578168-1.55864205 0-.85760104-.7002862-1.55864206-1.5578168-1.55864206-.8557021 0-1.5559882.70104102-1.5559882 1.55864206z"/></g></svg>