<svg height="32" viewBox="0 0 32 32" width="32" xmlns="http://www.w3.org/2000/svg"><g fill="none" fill-rule="evenodd"><path d="m10.460442 8.23393274v2.65021336h-2.51887694c-.44445652 0-.81498192.3887907-.81498192.8558615 0 .4679405.3705254.857601.81498192.857601h2.51887694v2.6493436c0 .4670708.3696556.8567313.8149819.8567313.4435867 0 .8141121-.3896605.8141121-.8567313v-2.6493436h2.5188769c.4444566 0 .814982-.3896605.814982-.857601 0-.4670708-.3705254-.8558615-.814982-.8558615h-2.5188769v-2.65021336c0-.46794053-.3705254-.85673127-.8141121-.85673127-.4453263 0-.8149819.38879074-.8149819.85673127z" fill="#b75c64"/><path d="m19.3132864 12.5971737v2.6502134h-2.5180071c-.4453263 0-.8149819.3887907-.8149819.8558615 0 .4679405.3696556.857601.8149819.857601h2.5180071v2.6493436c0 .4670708.3705254.8567313.8149819.8567313.4444566 0 .814982-.3896605.814982-.8567313v-2.6493436h2.5180071c.4444565 0 .8149819-.3896605.8149819-.857601.0739311-.4670708-.2957245-.8558615-.8149819-.8558615h-2.5180071v-2.6502134c0-.4679405-.3705254-.8567312-.814982-.8567312-.4444565 0-.8149819.3887907-.8149819.8567312z" fill="#5aadca"/><path d="m6.60693139 22.8977838c0 1.4978457 1.22377173 2.7250147 2.71718806 2.7250147 1.49501185 0 2.85440365-1.227169 2.71718805-2.7250147 0-1.4993664-1.2221762-2.7250148-2.71718805-2.7250148-1.49341633 0-2.71718806 1.2256484-2.71718806 2.7250148z" fill="#007b3d"/><path d="m22.2792636 7.93584353c0 .85673126.7002862 1.55864206 1.5559883 1.55864206.8575306 0 1.5578167-.7019108 1.5578167-1.55864206 0-.85760105-.7002861-1.55864206-1.5578167-1.55864206-.8557021 0-1.5559883.70104101-1.5559883 1.55864206z" fill="#9373b3"/><path d="m22.2792636 23.0641565c0 .8567312.7002862 1.558642 1.5559883 1.558642.8575306 0 1.5578167-.7019108 1.5578167-1.558642 0-.8576011-.7002861-1.5586421-1.5578167-1.5586421-.8557021 0-1.5559883.701041-1.5559883 1.5586421z" fill="#f8be1b"/><path d="m15.4233949 23.0641565c0 .8567312.7002861 1.558642 1.5559882 1.558642.8575306 0 1.5578168-.7019108 1.5578168-1.558642 0-.8576011-.7002862-1.5586421-1.5578168-1.5586421-.8557021 0-1.5559882.701041-1.5559882 1.5586421z" fill="#e28bc0"/></g></svg>