<svg height="32" viewBox="0 0 32 32" width="32" xmlns="http://www.w3.org/2000/svg"><path d="m22.9241083 5.93099392.0789426.06595521.2510556.25739071c5.2721692 5.54193046 5.188484 14.30917136-.2510556 19.74871106-.2225989.2225988-.5835029.2225988-.8061018 0-.2225988-.2225989-.2225988-.5835029 0-.8061018 5.0793348-5.0793347 5.0793348-13.3145635 0-18.39389823-.2225988-.22259885-.2225988-.58350289 0-.80610174.1978657-.19786564.5050095-.21985071.7271592-.06595521zm-2.2870425 2.4319403c4.2178349 4.21783498 4.2178349 11.05629658 0 15.27413158-.2225989.2225988-.5835029.2225988-.8061017 0-.2225989-.2225989-.2225989-.5835029 0-.8061017 3.7726372-3.7726373 3.7726372-9.8892909 0-13.66192815-.2225989-.22259885-.2225989-.58350289 0-.80610173.2225988-.22259885.5835028-.22259885.8061017 0zm-3.1634996 2.34854618c.2281282-.2281282.5979971-.2281282.8261253 0 2.9207687 2.9207687 2.9207687 7.6562705 0 10.5770392-.2281282.2281282-.5979971.2281282-.8261253 0s-.2281282-.5979971 0-.8261253c2.4645123-2.4645123 2.4645123-6.4602763 0-8.9247886-.2281282-.2281282-.2281282-.5979971 0-.8261253zm-3.2281182.057904c.389048-.3343493.9910677-.0579342.9910677.4550452v9.5511408c0 .5129971-.602056.789406-.9910963.4550206l-2.4031261-2.0651614-3.85393684.0014291c-.29825595.0000314-.54570233-.2175634-.59220904-.50267l-.00785409-.09733v-5.1337174c0-.33133.26856534-.5999422.5998953-.6l3.85510467-.0007117zm-.2091547 1.7620452-1.5779323 1.3560451c-.108801.093504-.2475035.1449298-.390963.1449549h-3.47910467v3.934h3.47793687c.1076477-.0000113.2126236.0289195.3043042.082855l.0868552.0621244 1.5789037 1.3570206z"/></svg>