<svg height="32" viewBox="0 0 32 32" width="32" xmlns="http://www.w3.org/2000/svg"><path d="m14.245448 10.7693844c.3647325-.3134525.9166471-.0901003.9842117.3617251l.006856.0933201v9.5511408c0 .4809348-.5291508.7539307-.915854.5106514l-.0752423-.0556308-2.4031261-2.0651614-3.85393684.0014291c-.2651164.0000279-.49008697-.1718957-.56947053-.4103408l-.02273851-.0923292-.00785409-.09733v-5.1337174c0-.298197.21753793-.5455925.50258506-.5921318l.09731024-.0078682 3.85510467-.0007117zm3.2705976 1.5068656c.2133334-.2044444.537284-.2271605.7681756-.0681481l.0818244.0681481 2.87 2.87 2.87-2.87c.24-.23.62-.23.85 0 .2133334.2133334.2370371.537284.0711111.7681756l-.0711111.0818244-2.87 2.87 2.86 2.87c.23.24.23.62 0 .85-.2133333.2044445-.5372839.2271605-.7681756.0681482l-.0818244-.0681482-2.87-2.87-2.87 2.87c-.11.12-.27.18-.42.18s-.3-.06-.42-.18c-.2044444-.2133333-.2271605-.5372839-.0681481-.7681756l.0681481-.0818244 2.87-2.87-2.87-2.87c-.23-.24-.23-.62 0-.85zm-3.4797523.2551796-1.5779323 1.3560451c-.0816007.070128-.1800211.116587-.2846532.1354441l-.1063098.0095108h-3.47910467v3.934h3.47793687c.0717651-.0000076.1423428.0128481.2085853.0374002l.0957189.0454548.0868552.0621244 1.5789037 1.3570206z"/></svg>