<svg height="32" viewBox="0 0 32 32" width="32" xmlns="http://www.w3.org/2000/svg"><g fill="none"><path d="m22.1969491 5.99694913c.1978657-.19786564.5050095-.21985071.7271592-.06595521l.0789426.06595521.2510556.25739071c5.2721692 5.54193046 5.188484 14.30917136-.2510556 19.74871106-.2225989.2225988-.5835029.2225988-.8061018 0-.2225988-.2225989-.2225988-.5835029 0-.8061018 5.0793348-5.0793347 5.0793348-13.3145635 0-18.39389823-.2225988-.22259885-.2225988-.58350289 0-.80610174z" fill="#fee69c"/><path d="m19.8309641 8.36293422c.2225988-.22259885.5835028-.22259885.8061017 0 4.2178349 4.21783498 4.2178349 11.05629658 0 15.27413158-.2225989.2225988-.5835029.2225988-.8061017 0-.2225989-.2225989-.2225989-.5835029 0-.8061017 3.7726372-3.7726373 3.7726372-9.8892909 0-13.66192815-.2225989-.22259885-.2225989-.58350289 0-.80610173z" fill="#f8c31c"/><path d="m17.4735662 10.7114804c-.2281282.2281282-.2281282.5979971 0 .8261253 2.4645123 2.4645123 2.4645123 6.4602763 0 8.9247886-.2281282.2281282-.2281282.5979971 0 .8261253s.5979971.2281282.8261253 0c2.9207687-2.9207687 2.9207687-7.6562705 0-10.5770392-.2281282-.2281282-.5979971-.2281282-.8261253 0z" fill="#edb916"/><path d="m14.245448 10.7693844-2.4021547 2.0630452-3.85510467.0007117c-.33132996.0000578-.5998953.26867-.5998953.6v5.1337174l.00785409.09733c.04650671.2851066.29395309.5027014.59220904.50267l3.85393684-.0014291 2.4031261 2.0651614c.3890403.3343854.9910963.0579765.9910963-.4550206v-9.5511408c0-.5129794-.6020197-.7893945-.9910677-.4550452z" fill="#ff5c00"/></g></svg>