<svg height="32" viewBox="0 0 32 32" width="32" xmlns="http://www.w3.org/2000/svg"><g fill="none"><path d="m14.245448 10.7693844-2.4021547 2.0630452-3.85510467.0007117c-.33132996.0000578-.5998953.26867-.5998953.6v5.1337174l.00785409.09733c.04650671.2851066.29395309.5027014.59220904.50267l3.85393684-.0014291 2.4031261 2.0651614c.3890403.3343854.9910963.0579765.9910963-.4550206v-9.5511408c0-.5129794-.6020197-.7893945-.9910677-.4550452z" fill="#ff5c00"/><path d="m24.9560456 12.27625c-.23-.23-.61-.23-.85 0l-2.87 2.87-2.87-2.87c-.23-.23-.61-.23-.85 0-.23.23-.23.61 0 .85l2.87 2.87-2.87 2.87c-.23.23-.23.61 0 .85.12.12.27.18.42.18s.31-.06.42-.18l2.87-2.87 2.87 2.87c.23.23.61.23.85 0 .23-.23.23-.61 0-.85l-2.86-2.87 2.87-2.87c.24-.23.24-.61 0-.85z" fill="#bb3600"/></g></svg>