<svg height="32" viewBox="0 0 32 32" width="32" xmlns="http://www.w3.org/2000/svg"><path d="m15.2296597 11.1311095.006856.0933201v9.5511408c0 .4809348-.5291508.7539307-.915854.5106514l-.0752423-.0556308-2.4031261-2.0651614-3.85393684.0014291c-.2651164.0000279-.49008697-.1718957-.56947053-.4103408l-.02273851-.0923292-.00785409-.09733v-5.1337174c0-.298197.21753793-.5455925.50258506-.5921318l.09731024-.0078682 3.85510467-.0007117 2.4021547-2.0630452c.3647325-.3134525.9166471-.0901003.9842117.3617251zm2.2863859 1.1451405c.2133334-.2044444.537284-.2271605.7681756-.0681481l.0818244.0681481 2.87 2.87 2.87-2.87c.24-.23.62-.23.85 0 .2133334.2133334.2370371.537284.0711111.7681756l-.0711111.0818244-2.87 2.87 2.86 2.87c.23.24.23.62 0 .85-.2133333.2044445-.5372839.2271605-.7681756.0681482l-.0818244-.0681482-2.87-2.87-2.87 2.87c-.11.12-.27.18-.42.18s-.3-.06-.42-.18c-.2044444-.2133333-.2271605-.5372839-.0681481-.7681756l.0681481-.0818244 2.87-2.87-2.87-2.87c-.23-.24-.23-.62 0-.85z"/></svg>