<svg height="32" viewBox="0 0 32 32" width="32" xmlns="http://www.w3.org/2000/svg"><path d="m22.9241083 5.93099392.0789426.06595521.2510556.25739071c5.2721692 5.54193046 5.188484 14.30917136-.2510556 19.74871106-.2225989.2225988-.5835029.2225988-.8061018 0-.2225988-.2225989-.2225988-.5835029 0-.8061018 5.0793348-5.0793347 5.0793348-13.3145635 0-18.39389823-.2225988-.22259885-.2225988-.58350289 0-.80610174.1978657-.19786564.5050095-.21985071.7271592-.06595521zm-2.2870425 2.4319403c4.2178349 4.21783498 4.2178349 11.05629658 0 15.27413158-.2225989.2225988-.5835029.2225988-.8061017 0-.2225989-.2225989-.2225989-.5835029 0-.8061017 3.7726372-3.7726373 3.7726372-9.8892909 0-13.66192815-.2225989-.22259885-.2225989-.58350289 0-.80610173.2225988-.22259885.5835028-.22259885.8061017 0zm-3.1634996 2.34854618c.2281282-.2281282.5979971-.2281282.8261253 0 2.9207687 2.9207687 2.9207687 7.6562705 0 10.5770392-.2281282.2281282-.5979971.2281282-.8261253 0s-.2281282-.5979971 0-.8261253c2.4645123-2.4645123 2.4645123-6.4602763 0-8.9247886-.2281282-.2281282-.2281282-.5979971 0-.8261253zm-3.2281182.057904c.3647325-.3134525.9166471-.0901003.9842117.3617251l.006856.0933201v9.5511408c0 .4809348-.5291508.7539307-.915854.5106514l-.0752423-.0556308-2.4031261-2.0651614-3.85393684.0014291c-.2651164.0000279-.49008697-.1718957-.56947053-.4103408l-.02273851-.0923292-.00785409-.09733v-5.1337174c0-.298197.21753793-.5455925.50258506-.5921318l.09731024-.0078682 3.85510467-.0007117z"/></svg>