<svg height="32" viewBox="0 0 32 32" width="32" xmlns="http://www.w3.org/2000/svg"><path d="m8.67836195 17.550403.15689325.0088169c.25943217.0292558.50666074.1306475.71287446.2941397l.72494604.5747583.1235742.0887546c.6745521.4372232 1.5837294.297818 2.0933174-.3449285l.0894109-.1247939c.1107829-.1716898.1874396-.3636943.2251779-.565498l.7304439-3.9072491 1.5267738 6.2805404.0345916.1149383c.1882515.5214161.7432116.8279817 1.2941691.6940085.3369357-.0819307.6155146-.3179374.7517025-.636828l1.3333172-3.1220271.0299678-.0474261c.0486658-.0549328.1287995-.0753063.1999982-.0448996.0355088.0151646.0650145.041633.0839325.0752923l.3416558.6078815.0789174.1263984c.4199987.6081179 1.2108767.8544908 1.9093144.5755444l1.3710167-.5475653.1258049-.0434328c.1275834-.0373616.2600606-.0564249.3934541-.0564249l2.613073.0003706c-.5475332.722556-1.1663949 1.4438868-1.8637519 2.1735426-1.9384788 2.0282462-4.1576612 3.9347104-6.9842215 5.999721-.2811578.2053062-.546765.2759628-.7790011.2759628-.3508512 0-.625539-.1611889-.762883-.2620613-3.5965942-2.6406033-6.14472103-4.9304512-8.26242789-7.4246863-.21043336-.2478744-.41467659-.5023197-.61242486-.7628888zm9.99805595-10.20224899c1.9399543-1.65577685 4.3212253-1.79260937 6.5335973-.37591603 1.7726445 1.13533075 2.737003 2.90186037 2.7888759 5.11197552.0208854 1.0348031-.2527809 2.0333013-.8608398 3.1422076-.2069918.3773478-.4307268.7516999-.672171 1.1243433l-3.4562643-.0003614-.1976815.0075257c-.2627178.0200328-.5212583.0799155-.7666567.1779243l-1.3710167.5475653-.0810214.0228758c-.1636233.0280337-.3318105-.0485047-.4160365-.1983615l-.3416559-.6078816-.0809949-.1272314c-.1459774-.2037159-.3454955-.3645038-.5777313-.4636842l-.1320988-.0486946c-.6654023-.207593-1.3930853.1184633-1.6727421.7732934l-1.2159802 2.8456688-1.5649711-6.439113-.0376245-.1230058c-.1332928-.3592532-.4462861-.6267687-.8290293-.6983435-.5971613-.111672-1.1717843.281895-1.2834562.8790563l-.8159152 4.3630733-.0160728.0590225c-.0138415.0382903-.0338252.0742216-.0592865.1063361-.1297006.1635921-.3674613.1910667-.5310535.0613661l-.7249461-.5747582-.1571229-.1152563c-.42915116-.2907121-.93685021-.4473775-1.45815995-.4473775l-3.15702656.0006366c-.28974614-.4526601-.56104126-.9198209-.81256598-1.3995473-.93189545-1.7773291-.94562984-3.8956481-.03654937-5.66642864.91123711-1.7749165 2.63654902-2.98423561 4.61532287-3.23480801 1.43700319-.1819838 2.81645819.25700617 3.98932979 1.26917617.5301929.45760194 1.0055617.9579425 1.46538 1.44185397.1755959.18485602.3510783.36948226.5291713.55123629.1129399.11523343.2146425.2289733.3129398.33892185.1222475.13683251.237798.26608237.3492622.36775897.0476731.0434279.0694665.0485979.1233825-.0009192.1127128-.10339984.2286038-.23184548.3513053-.36798866.092849-.10294033.1888762-.20932733.2942111-.31732276.1805902-.18497091.3561861-.37212471.5421111-.57007805.446765-.47609903.9088535-.96839738 1.4317819-1.41474022z" fill-rule="evenodd"/></svg>