<svg height="32" viewBox="0 0 32 32" width="32" xmlns="http://www.w3.org/2000/svg"><path d="m6.03189691 6.03189691c2.02665092-2.02665092 5.27652419-2.08455523 7.37307349-.17371294l.1819361.17371294 2.4112868 2.41130628 2.4149002-2.41130628c2.0266509-2.02665092 5.2765241-2.08455523 7.3730735-.17371294l.1819361.17371294c2.0266509 2.02665092 2.0845552 5.27652419.173643 7.37314339l-.1737193.1819425-2.4138335 2.4122204 2.4139098 2.4138903c2.0266509 2.0266509 2.0845552 5.2765241.1737129 7.3730735l-.1737129.1819361c-2.0266509 2.0266509-5.2765242 2.0845552-7.3730735.1737129l-.1819361-.1737129-2.4139002-2.4138999-2.4122868 2.4138999c-2.0266509 2.0266509-5.27652413 2.0845552-7.37307347.1737129l-.18193612-.1737129c-2.02665092-2.0266509-2.08455523-5.2765242-.1737853-7.3730011l.17370636-.1819296 2.41237535-2.4139692-2.41229641-2.4122967c-2.02665092-2.0266509-2.08455523-5.27652413-.17371294-7.37307347zm3.25210309 10.82510309-2.40357495 2.4046216c-1.61762915 1.6176292-1.61762915 4.2403242 0 5.8579534 1.56370817 1.5637081 4.06659455 1.6158317 5.69284575.1564397l.1650313-.1563634 2.4118912-2.4144481-5.35099998-5.351zm3.4543784-9.97657495c-1.6176292-1.61762915-4.24032421-1.61762915-5.85795335 0-1.56370818 1.56370817-1.61583179 4.06659455-.15637082 5.69291465l.15637082.1650387 3.71076825 3.7108248.0918123.087682 1.3825767 1.3538857 2.0604776 2.0481782.6979843.7011061 1.1703528 1.1918244.3447963.3653236.147.147c.0168567-.0003491.0245905.0031865.029603.013523l.005397.021477 2.7404283 2.7403718c1.5637082 1.5637081 4.0665946 1.6158317 5.6929147.1563708l.1650387-.1563708c1.5637081-1.5637082 1.6158317-4.0665946.1563708-5.6929147l-.1563708-.1650387-2.7145116-2.711739-.0207962-.0097974-.0108917-.016176-.0021822-.010706-.068-.068-.0452323-.0368776-.1269691-.1155886-.7551914-.7326827-1.7706798-1.7668642-1.4213715-1.4371512-1.0690828-1.0918246-.2274731-.2350111zm-3.90073636 15.54721115c.40577564 0 .7347218.3289461.7347218.7347218 0 .4057756-.32894616.7347218-.7347218.7347218-.40577565 0-.7347218-.3289462-.7347218-.7347218 0-.4057757.32894615-.7347218.7347218-.7347218zm2.99999996 0c.4057757 0 .7347218.3289461.7347218.7347218 0 .4057756-.3289461.7347218-.7347218.7347218-.4057756 0-.7347218-.3289462-.7347218-.7347218 0-.4057757.3289462-.7347218.7347218-.7347218zm11.324716 0c.4057756 0 .7347218.3289461.7347218.7347218 0 .4057756-.3289462.7347218-.7347218.7347218-.4057757 0-.7347218-.3289462-.7347218-.7347218 0-.4057757.3289461-.7347218.7347218-.7347218zm-3 0c.4057756 0 .7347218.3289461.7347218.7347218 0 .4057756-.3289462.7347218-.7347218.7347218-.4057757 0-.7347218-.3289462-.7347218-.7347218 0-.4057757.3289461-.7347218.7347218-.7347218zm-11.32471596-3c.40577564 0 .7347218.3289461.7347218.7347218 0 .4057756-.32894616.7347218-.7347218.7347218-.40577565 0-.7347218-.3289462-.7347218-.7347218 0-.4057757.32894615-.7347218.7347218-.7347218zm14.32471596 0c.4057756 0 .7347218.3289461.7347218.7347218 0 .4057756-.3289462.7347218-.7347218.7347218-.4057757 0-.7347218-.3289462-.7347218-.7347218 0-.4057757.3289461-.7347218.7347218-.7347218zm-3 0c.4057756 0 .7347218.3289461.7347218.7347218 0 .4057756-.3289462.7347218-.7347218.7347218-.4057757 0-.7347218-.3289462-.7347218-.7347218 0-.4057757.3289461-.7347218.7347218-.7347218zm-3.2787361-7.509386.1063276.0961056 2.9956947 2.9956947c.5125631.5125631.5445983 1.3236881.0961056 1.8735714l-.0961056.1063276-2.9956947 2.9956947c-.5125631.5125631-1.3236881.5445983-1.8735714.0961056l-.1063276-.0961056-2.9956947-2.9956947c-.5125631-.5125631-.5445983-1.3236881-.0961056-1.8735714l.0961056-.1063276 2.9956947-2.9956947c.5125631-.5125631 1.3236881-.5445983 1.8735714-.0961056zm-.9731334.9071434-.0519099.0374904-2.9956946 2.9956946c-.0624839.0624839-.0749807.1560258-.0374904.2309329l.0374904.0519099 2.9956946 2.9956946c.0624839.0624839.1560258.0749807.2309329.0374904l.0519099-.0374904 2.9956946-2.9956946c.0624839-.0624839.0749807-.1560258.0374904-.2309329l-.0374904-.0519099-2.9956946-2.9956946c-.0624839-.0624839-.1560258-.0749807-.2309329-.0374904zm9.2090865-5.94496855c-1.5637082-1.56370818-4.0665946-1.61583179-5.692986-.15629952l-.1650463.15637845-2.3955427 2.39349602.4588402.48201912.4903531.50418408 4.89 4.89 2.4143817-2.4118248c1.5097872-1.5097872 1.6104396-3.89509849.3019574-5.52162224l-.1455866-.17129243zm-1.957217 4.22249515c.4057756 0 .7347218.3289462.7347218.7347218 0 .4057757-.3289462.7347218-.7347218.7347218-.4057757 0-.7347218-.3289461-.7347218-.7347218 0-.4057756.3289461-.7347218.7347218-.7347218zm-11.324716 0c.4057757 0 .7347218.3289462.7347218.7347218 0 .4057757-.3289461.7347218-.7347218.7347218-.4057756 0-.7347218-.3289461-.7347218-.7347218 0-.4057756.3289462-.7347218.7347218-.7347218zm-2.99999996 0c.40577564 0 .7347218.3289462.7347218.7347218 0 .4057757-.32894616.7347218-.7347218.7347218-.40577565 0-.7347218-.3289461-.7347218-.7347218 0-.4057756.32894615-.7347218.7347218-.7347218zm14.32471596-2.99999996c.4057756 0 .7347218.32894615.7347218.7347218 0 .40577564-.3289462.7347218-.7347218.7347218-.4057757 0-.7347218-.32894616-.7347218-.7347218 0-.40577565.3289461-.7347218.7347218-.7347218zm-3 0c.4057756 0 .7347218.32894615.7347218.7347218 0 .40577564-.3289462.7347218-.7347218.7347218-.4057757 0-.7347218-.32894616-.7347218-.7347218 0-.40577565.3289461-.7347218.7347218-.7347218zm-8.324716 0c.4057757 0 .7347218.32894615.7347218.7347218 0 .40577564-.3289461.7347218-.7347218.7347218-.4057756 0-.7347218-.32894616-.7347218-.7347218 0-.40577565.3289462-.7347218.7347218-.7347218zm-2.99999996 0c.40577564 0 .7347218.32894615.7347218.7347218 0 .40577564-.32894616.7347218-.7347218.7347218-.40577565 0-.7347218-.32894616-.7347218-.7347218 0-.40577565.32894615-.7347218.7347218-.7347218z"/></svg>