<svg height="32" viewBox="0 0 32 32" width="32" xmlns="http://www.w3.org/2000/svg"><path d="m16.8717125 3.18522354c1.7234567 0 3.1207708 1.3973141 3.1207708 3.1207708 0 1.13967365-.6117443 2.13880059-1.526701 2.68353244l-.1750323.09673565-.05975.02773757.0189741.01927061c.522545.59465219.8588897 1.33885499.9535666 2.13757049l.0210976.2411549.0063173.223445v8.1636778c0 .4466896-.4641765.7255718-.8503237.5456689l-.0813539-.0456789-.283278-.1881088.0004591 6.0716685c0 1.026694-.7566363 1.8766661-1.742714 2.0227214l-.1495665.016563-.1526128.0056089c-1.0780287 0-1.9612215-.8341915-2.0392845-1.8922805l-.0056088-.1526128v-4.4364233c0-.1012149-.0383077-.1976563-.1020358-.2681984l-.0523611-.0477204-2.1212756-1.5293264-3.36413817 7.0727739c-.37455555.7872653-1.22435384 1.2060181-2.07358464 1.051358l-.15910796-.0357685-.15839767-.049508-.1557233-.0658299c-.89946888-.431364-1.34589023-1.4457364-1.07643343-2.3894405l.05158304-.1565176 5.68480213-15.2060674-1.879-.104.00003502 2.8394541c-.00001614.7938054-.53243016 1.4715161-1.29272528 1.6812602l-.14515147.0337572-.15004637.0222737-.1570145.007586c-.84353279 0-1.55600831-.6011128-1.7152765-1.4380353l-.02227759-.1500657-.00758769-.1570408v-3.35314071c0-1.57784902 1.18235674-2.89102711 2.74147869-3.07824405l.17474532-.01612454.18377599-.00563141h3.76033768c.4699671 0 .9375216.04665775 1.3976345.139317l.3436109.07810946.1524613.04252485-.0156449-.11869462-.0103046-.11308916-.0081088-.22622188c0-1.7234567 1.3973141-3.1207708 3.1207708-3.1207708zm0 1.2c-1.060715 0-1.9207708.8600558-1.9207708 1.9207708 0 .36086224.0992855.70555033.2830168 1.00420458l.0988341.14535273c.3570517.4769527-.1207828 1.10491211-.6545469.9345356l-.0846298-.03367433-.1471875-.07060504-.280766-.12576985c-.6302129-.26328868-1.3008591-.41493901-1.9819305-.4487377l-.2924386-.00725164-3.74093736-.00031372-.14491395.00437153c-.94258333.06117967-1.6918331.80810592-1.76809046 1.73914949l-.00639591.1567927-.00086815 3.32087571.00409575.0924023c.02641734.2437891.21373144.4373888.42820935.4780108l.08144132.0078617.09237896-.0040943c.24369699-.0264062.43721978-.2136357.47722021-.4506903l.00760196-.0910143.00259986-2.99775003.01530554-.14346402c.08715441-.48017567.4806317-.84326938.97364658-.89610899l.12520775-.00663449 2.81408315.1534587c.2669664.01465082.4876178.20299741.5496969.45529216l.0156274.09739375.0051525.06640977c.0045067.05808559.0005181.11636008-.0117098.1730094l-.0244893.08352836-5.94708243 15.90613229c-.13873899.3703705.00279616.781662.30506361.9815175l.08633186.0490743.09798362.0417561c.30516295.1089325.64312609-.0061988.82149257-.2695602l.05328058-.0931731 3.67317779-7.7225406c.1474723-.3100479.5194242-.4281366.8144086-.2769466l.0783155.047968 2.7119388 1.9552969c.361052.2683301.5903425.6744328.6368385 1.1167974l.0087679.1673883v4.4364233c0 .4666217.3782716.8448933.8448933.8448933.4307277 0 .7861749-.3223143.8383104-.7389117l.0065829-.1059816v-7.1892086c0-.4466896.4641765-.7255718.8503237-.5456689l.0813539.0456789.2818633.1865301.0009556-7.044559c0-.865076-.4075571-1.6715186-1.0861237-2.18536719l-.1495055-.10554666-.1575031-.09607812c-.5305003-.29967018-.3283121-1.10772303.2808037-1.12224233 1.0406387-.02480537 1.8738563-.87692279 1.8738563-1.92021236 0-1.060715-.8600558-1.9207708-1.9207708-1.9207708zm4.979039 15.16974946c.1710599-.2442988.4912091-.3221634.7514104-.1967349l.0842267.0493895 2.6093306 1.827073c1.2511941.8760955 1.5552715 2.6006044.679176 3.8517984-.8410517 1.2011463-2.4640012 1.5294299-3.6994679.7786576l-.1523306-.0994816-2.6093306-1.8270729c-.2442988-.1710599-.3221633-.4912091-.1967348-.7514104l.0493895-.0842267zm.6387101 1.1795909-1.7958678 2.564765 2.1177947 1.4833637c.7083078.4959624 1.6845618.3238225 2.1805242-.3844853.4667883-.6666427.3417626-1.5706356-.2650823-2.0881681l-.1194029-.0923562zm-5.5352671-8.3768427.0217385.0947482.0069967.0974161-.0009741 5.8144386c-.0000766.4572774-.4839873.7345556-.8709882.5356539l-.0812338-.0500183-1.439827-1.044062c-.5937776-.4305662-.814015-1.2044881-.551541-1.8764332l.0589633-.1328974 1.6739555-3.3564181.0689297-.146215c.2436186-.5167679.9613677-.417912 1.1139804.0637872zm-1.1721945 2.7492788-.6107938 1.2250926c-.0748162.1500272-.0472345.3275698.0618859.4475395l.0612585.0547932.4866494.3525747z"/><path d="m22.4802444 16.4571946c.3313709 0 .6.2686291.6.6 0 .2982337-.2175896.5456467-.5026769.592147l-.0973231.007853h-15.94476873c-.33137085 0-.6-.2686292-.6-.6 0-.2982338.21758961-.5456468.50267688-.5921471l.09732312-.0078529z" transform="matrix(.81915204 .57357644 -.57357644 .81915204 12.407322 -5.236608)"/></svg>