<svg height="32" viewBox="0 0 32 32" width="32" xmlns="http://www.w3.org/2000/svg"><path d="m12.6450344 15.9024613.1747951.0266149 2.1213626.4039983c.2168446.0412964.4252051.1187487.6163732.2291197.8925317.5153034 1.229216 1.6236333.7996957 2.5399255l-.0787173.1508027-.1820592.3153359c-.7251823 1.2560525-.9482046 2.7363-.6311155 4.1448221l.0657929.2631851.6811521 2.4786063.2174049-3.2121772c.0419041-.6223226-.0127709-1.2467484-.1615242-1.8512009l-.2397427-.7686143c-.0956518-.3172654.0840015-.652001.4012669-.7476529.3172655-.0956518.6520011.0840015.7476529.401267.2202688.7306047.4811007 1.9589043.4642317 2.7204433l-.0145957.3263771-.2511029 3.7197355c-.0363554.5385543-.4838109.9568224-1.0235909.9568224h-.0444206c-.5402137 0-1.0138329-.3609687-1.157057-.8818504l-.783849-2.8507272-.0723195-.2906634c-.3612161-1.6045357-.1419275-3.2830153.6144766-4.7382123l.1481095-.2701602.1574968-.2706238.0559633-.1048435c.1681484-.3587097.0334084-.7912814-.3131488-.9913664-.0498038-.0287542-.1025937-.0517911-.1573612-.0687357l-.0835085-.0208009-2.0775002-.396485-.13615-.0212381-.1323098-.0070472c-.4114492.0018212-.7976739.2215203-1.0076167.5851519-.2759678.4779903-.2983001 1.0574559-.0679575 1.5515303l.0766821.1454737 1.6277901 2.7543611.1535327.2758451c.1608312.3057569.2986181.6229583.4122671.9489536l.1055626.3288284 1.0337449 3.6600264c.0755101.2673471-.0569021.5442283-.3006908.6580942l-.0989388.0353591c-.3100985.0791546-.6272889-.1010264-.7180939-.4079157l-1.067338-3.6072298c-.1075648-.3660318-.2511618-.7202437-.4285487-1.0574747l-.1393408-.2496588-1.6129527-2.7285351c-.52936512-.8954953-.53507837-2.0067669-.0149488-2.9076578.3261987-.5649927.8605849-.9564305 1.4654914-1.1112589l.1666162-.0363312c.2242181-.0404492.456103-.0488722.6890384-.0222182zm-2.5744594-3.4370466c.2479837 1.3746055.1070837 2.7889548-.40359377 4.0845053l-.13816122.3277354c-.10457065.2352039-.29797978.4194615-.53797264.5125171l-.10829328.0349607-.10926684.0218022c-.40127408.0563273-.80310937-.1442942-.99570917-.5093049l-.04718194-.1035545-.15819229-.4079818c-.52514664-1.3543659-.34954038-2.8749288.45790039-4.070253l.14041196-.1961249.09577199-.1263601c.12789735-.1687457.30474646-.2923055.50484685-.3549144l.12264339-.0301331c.55059864-.0993136 1.07746718.2665102 1.17679657.817106zm-1.1171815.6740602-.04060115.0656409c-.45711618.7821227-.56359057 1.7229635-.29131865 2.5887885l.02185605.0616764.00812135-.0200982c.2830694-.8288368.39008012-1.7069263.31515509-2.5779801zm12.1455383-7.96706665-2.6680445 3.42781287c-.9568493 1.2079563-1.3897656 2.74895538-1.2019635 4.27848118l.0443749.3614044c.1205247.9815946-.5030959 1.8830524-1.4287126 2.1384486l-.1410523.0333932-.1452505.0232779c-.2190965.0269016-.4411564.0167839-.6568987-.0299304l-2.1105793-.4570001c-.9854147-.2133701-1.7279698-1.0268218-1.8508446-2.0275569-.1267757-1.0325053.3126918-2.0532039 1.1498728-2.6706721l2.5508544-1.8813991c.3837896-.28306646.7309404-.61269917 1.0334828-.98133062l3.0820777-3.72020088c.1771248-.21379725.4784986-.2639782.71221-.13253961l.1009799.07239713c.2448835.21971834.2733636.59329248.0646177.84759399l-3.0322905 3.69404295c-.2924577.35634373-.6194125.68252844-.975934.97387235l-.2728577.21190214-2.5508544 1.88139905c-.4886062.3603747-.7450938.9560877-.6711033 1.5586915.0556065.4528792.3682778.8280668.794722.9685903l.1190162.0323885 2.1105792.457c.084309.0182553.1710868.0222092.2567066.0116964.3867895-.0474918.6711559-.3741662.675958-.7532928l-.0057548-.1045283-.0443749-.3614044c-.214984-1.7509046.2431935-3.51425169 1.2750939-4.93608249l.1772787-.23374892 2.693407-3.4010771c.1988911-.25114806.563382-.29427661.8153944-.09648192.2519892.19777639.296646.56206698.0998894.81485318z" fill-rule="evenodd"/></svg>