<svg fill="none" height="32" viewBox="0 0 32 32" width="32" xmlns="http://www.w3.org/2000/svg"><path d="m11.0801 8.64104c1.4654 0 2.4575.00123 3.1875.05175-.4502.38314-.8568.85185-1.2949 1.37401-1.8357 2.1877-1.8477 4.5071-1.8477 6.6836 0 .943.1701 2.0704.8721 2.877-1.7277.6198-2.90885.5024-4.15237.7744-1.52783.3342-2.91404 1.7388-2.91407 3.7969-.55726-.0001-1.00854-.4516-1.00878-1.0088v-7.3477c0-4.5422 2.89966-7.20114 7.15822-7.20116zm1.084 11.98246c-.104.1075-.214.2178-.334.3261-1.2341 1.1137-1.85451 1.4017-3.37795 2.045-1.04093.4395-2.00733.839-2.51465 1.0488.06587-1.4778 1.06764-2.4344 2.12207-2.6651.93191-.2037 2.29643-.1472 4.10453-.7548zm6.4658-11.84574c.8797-.00002 2.4792-.08611 4.0908-.00489.7415.03753 1.4855.11013 2.1631.24317 2.5256.49593 4.1785 1.84136 2.081 2.99606-3.8835 2.1382-6.9167 5.1957-10.2578 6.7344-1.7182.7913-2.8269.8189-3.5.3623-.635-.4314-.8817-1.294-.8818-2.3584 0-2.1924.0397-4.0924 1.5664-5.9121.8244-.98247 1.3265-1.50281 2.0527-1.77539.6-.22511 1.353-.28186 2.5694-.28515.0382-.0001.077 0 .1162 0z" fill="#000"/></svg>