<svg height="32" viewBox="0 0 32 32" width="32" xmlns="http://www.w3.org/2000/svg"><path d="m28.6128652 6.74113545c.7175728 0 1.2992805.58170766 1.2992805 1.29928044v1.54223015c0 .71757276-.5817077 1.29928046-1.2992805 1.29928046h-.0598747c-.2633739 0-.5075607-.0821501-.7083344-.2222243l-.5489574 5.298433c-.0230451.2223341-.0737966.4361017-.148729.6378523.7570851.333884 1.29976 1.0650101 1.364637 1.9294296l.0065267.1745829v1.1c0 .6213203-.4721997 1.1323525-1.077307 1.1938045l-.122693.0061955h-3.0073351c-.6213203 0-1.1323525-.4721997-1.1938045-1.077307l-.0061955-.122693v-1.1c0-.0921959.0054247-.1831249.0159722-.272485l-.7457705.061485-.3204403 7.1921033c-.0114286.2557841-.181858.4683699-.4134365.5438134l-.0895172.0216792-.0941032.0077213-7.8054632.0305443-.091221.0222197-.0960377.0077068-8.40944508.0049276c-.29835729 0-.54595622-.2174435-.59249244-.5026384l-.00785912-.0973617v-8.3151219c0-1.9129313 1.49265445-3.4795951 3.38040134-3.5933837l.19005101-.006495 3.70189519-.0303088 4.4932273.0252306.1568849-.0043419h6.9334208c.1668507 0 .3129366-.1029542.3721238-.253167l.0220459-.0787869.4881576-2.8188217c-.2066991.1544185-.4631989.2458505-.7410538.2458505h-.0598748c-.7175727 0-1.2992804-.5817076-1.2992804-1.29928041v-1.54223015c0-.71757277.5817077-1.29928044 1.2992804-1.29928044h.0598748c.6417233 0 1.1695368.48770582 1.2330068 1.1126837l.0063989.12672203 2.6160408-.00844325c0-.68450489.5549008-1.23940573 1.2394057-1.23940573zm-16.8828652 8.23286455-3.68871417.0306745c-1.26284637.0103654-2.29131277.9946876-2.37482587 2.2365372l-.0054757.1633819-.00098426 7.7144064 7.123-.005.0006958-7.7360835.0058814-.1942186.0229442-.2478018.0387617-.2394201.0137097-.0666111.0150146-.0663203c.0184643-.0777622.0392449-.1540848.0624253-.2293523l.0407952-.1244614.0684516-.1804043.0870146-.1952342.0990043-.1906093.1043885-.1752104.1528974-.2231373.1-.129.0017588-.0001154.1112569-.13102zm13.7803178-4.8353722-.0235394.0924297-.5932349 3.4364218c-.1241794.7193319-.7169266 1.2569418-1.4321117 1.3213332l-.144567.0064823-7.0069067.0011036-.2039738.0147077-.156.0230293-.1447995.0311909-.0804288.0213715-.1237717.0384376-.1934267.0765782-.0925403.0439287c-.7286251.3628432-1.246747 1.0852305-1.3220951 1.9348911l-.0046073.0553514-.0048709.15941-.000444 7.6877052 6.904-.027.3000096-6.708016c.0210443-.4709962.3373842-.8661403.7715146-1.0012133l.1211863-.0302516.1163564-.0157602 1.4895157-.1218634c.3831348-.4342124.9276363-.722663 1.5396726-.77152l.1855431-.0073755.5054024.0002702c.0745927-.1266037.1298908-.2661091.1618554-.4145628l.0240372-.1512902.5653219-5.4541082c.0328401-.3168347-.1924255-.602267-.5082174-.64395828-.2885351-.0380928-.5578076.13497694-.64888.40227708zm.7078156 7.4613722h-.8073351c-.5670123 0-1.0338238.4290107-1.0935453.9801429l-.0064547.1198571v1.1h3.0073351v-1.1c0-.6075132-.4924868-1.1-1.1-1.1zm-16.2862066-11.19908499c1.7969691 0 3.2535968 1.45669662 3.2535968 3.25359678 0 1.79690021-1.4566277 3.25359681-3.2535968 3.25359681-1.79690016 0-3.25366567-1.4566966-3.25366567-3.25359681 0-1.79690016 1.45676551-3.25359678 3.25366567-3.25359678zm7.5663544-.08680888c1.7969691 0 3.2535968 1.45669662 3.2535968 3.25359679 0 1.79690018-1.4566277 3.25359678-3.2535968 3.25359678-1.7969001 0-3.2536656-1.4566966-3.2536656-3.25359678 0-1.79690017 1.4567655-3.25359679 3.2536656-3.25359679zm-7.5663544 1.28680888c-1.13417946 0-2.05366567.91945931-2.05366567 2.05359678 0 1.13413751.91948621 2.05359681 2.05366567 2.05359681 1.1341996 0 2.0535968-.9194106 2.0535968-2.05359681 0-1.13418618-.9193972-2.05359678-2.0535968-2.05359678zm7.5663544-.08680888c-1.1341794 0-2.0536656.91945932-2.0536656 2.05359679 0 1.13413748.9194862 2.05359678 2.0536656 2.05359678 1.1341997 0 2.0535968-.9194106 2.0535968-2.05359678s-.9193971-2.05359679-2.0535968-2.05359679z"/></svg>