<svg width="32" height="32" viewBox="0 0 32 32" fill="none" xmlns="http://www.w3.org/2000/svg">
<path fill-rule="evenodd" clip-rule="evenodd" d="M16.1587 3.54576L16.1577 3.54674C16.2641 3.54939 16.3716 3.55436 16.478 3.56334L16.477 3.56432C17.1989 3.62431 17.9047 3.82479 18.5493 4.14146L18.5512 4.14244C19.0592 4.39375 19.5168 4.74632 19.8891 5.17467L20.0434 5.36314L20.0922 5.42564L20.0971 5.44127C20.1946 5.5765 20.2865 5.71654 20.3667 5.86412H20.3647C20.4365 5.99167 20.4993 6.12123 20.5542 6.24889L20.7036 6.62584L20.7661 6.79381C21.2274 8.01249 21.6699 9.21124 22.1313 10.4237C22.3088 10.8526 22.3597 11.3116 22.3208 11.7489C22.2942 12.1717 22.2138 12.5875 22.0922 12.9852L22.0903 12.9911C21.7555 14.0439 21.22 15.0247 20.5444 15.8876L20.5454 15.8885C19.8744 16.765 19.1773 17.619 18.476 18.4618L18.4751 18.4628C17.8209 19.2437 15.9995 21.3983 15.9995 21.3983C14.7869 22.8324 13.2881 24.6031 11.5005 26.7079L10.1951 28.2445C9.90614 28.5847 9.36024 28.5016 9.18563 28.0909L7.37206 23.8254C7.28316 23.6163 7.32 23.3749 7.46715 23.2018C9.09759 21.2836 10.7212 19.3596 12.3491 17.4393L12.519 17.2381C12.1605 16.7944 11.8053 16.3467 11.4575 15.8924C10.7803 15.0286 10.244 14.0457 9.90866 12.9911L9.9067 12.9852C9.78664 12.5925 9.70675 12.1829 9.67916 11.7655L9.66842 11.5965C9.65283 11.206 9.71069 10.8029 9.86764 10.4237C10.3291 9.21124 10.7715 8.01249 11.2329 6.79381C11.3376 6.51336 11.4584 6.17323 11.6372 5.85728C11.7177 5.70982 11.8081 5.56866 11.9057 5.43346L11.9096 5.42564L11.9575 5.36314C12.3544 4.84929 12.87 4.42965 13.4506 4.14244L13.4516 4.14146C14.0962 3.82477 14.802 3.62334 15.5239 3.56334L15.7358 3.54967C15.8067 3.5465 15.8778 3.54421 15.9487 3.54381H15.9985C16.0515 3.54366 16.1054 3.54441 16.1587 3.54576ZM15.7915 8.32408L15.7924 8.32506L15.7456 8.32799H15.7407C15.5327 8.34009 15.328 8.36001 15.1294 8.39342C14.8127 8.45425 14.508 8.55319 14.2241 8.69127C13.9838 8.80815 13.7494 9.01312 13.561 9.22545C13.4849 9.31128 13.4207 9.3938 13.3706 9.46373C13.8404 10.4477 14.2997 11.2199 15.1557 12.1971L15.1645 12.2069C15.4414 12.5392 15.7203 12.8677 15.9995 13.1952C16.2791 12.8673 16.5587 12.539 16.8354 12.2069L16.8432 12.1971L17.1489 11.8368C17.816 11.0216 18.2189 10.3234 18.6294 9.46373C18.5793 9.3939 18.5159 9.31112 18.4399 9.22545C18.2516 9.01324 18.0179 8.80819 17.7778 8.69127C17.4929 8.55267 17.1865 8.45423 16.8686 8.39342C16.6846 8.3626 16.4954 8.34229 16.3032 8.32994L16.2592 8.32701H16.2534C16.1689 8.32169 16.0841 8.31906 15.9995 8.31822C15.9302 8.31894 15.8607 8.32035 15.7915 8.32408Z" fill="black"/>
<path d="M24.5332 23.2019C24.6795 23.3751 24.716 23.6159 24.6272 23.8245L22.8152 28.0857C22.6401 28.4974 22.0923 28.5796 21.8041 28.2375L17.1649 22.7294L17.5458 22.2802C18.5176 21.1306 19.2984 20.2033 19.8876 19.4999L19.8886 19.499C20.0546 19.2994 20.2204 19.0984 20.3856 18.8974L20.6493 18.5751C21.9507 20.1118 23.2343 21.6633 24.5332 23.2019Z" fill="black"/>
</svg>
