<svg height="32" viewBox="0 0 32 32" width="32" xmlns="http://www.w3.org/2000/svg"><path d="m16.5155232 3.92836011c.0718949.04714141.1368119.10380724.1930533.16829983l.0776433.10239675.6352189.98376196.6059551.95289817c2.8580623 4.53108708 4.6906722 7.98065558 5.4978297 10.34870578l.0933286.2833566c1.2937546 4.0755922-.8100271 8.4786564-4.6989281 9.8345192-.7554408.2633839-2.1234758.3977016-2.919624.3977016s-2.1641832-.1343177-2.919624-.3977016c-3.79404973-1.322793-5.8889973-5.5459561-4.78755306-9.5357697l.08862495-.2987495.09332857-.2833566c.85288324-2.5022008 2.85069404-6.2119274 5.99343234-11.12917995l.7455714-1.15618596c.2847156-.43421719.8675258-.55541217 1.301743-.27069658zm-.5135232 1.26163989-.522664.8114792-.5848226.92217811-.5564474.89202542c-2.34976 3.79997837-3.8996548 6.74803777-4.64150883 8.81014167l-.08201211.2340013-.08265128.2492368-.08233962.2767982c-.9390106 3.4014224.84890764 6.9756824 4.02587864 8.0833313.5290573.1844555 1.708544.330808 2.5245672.330808s1.9955099-.1463525 2.5245672-.330808c3.1935691-1.1134358 4.970282-4.7081801 4.0230375-8.0954149l-.0688212-.2305947-.0893916-.2716079c-.8516093-2.4984634-2.9528138-6.3576751-6.247041-11.46500813zm2.8168495 16.1092491c.3313709 0 .6.2686291.6.6 0 .2982337-.2175896.5456467-.5026769.592147l-.0973231.007853h-5.637699c-.3313709 0-.6-.2686292-.6-.6 0-.2982338.2175896-.5456468.5026769-.592147l.0973231-.007853zm-2.8188495-9.588217c.2982338 0 .5456468.2175896.592147.5026769l.007853.0973231-.0008495 2.218 2.219699.0008495c.3313709 0 .6.2686292.6.6 0 .2982338-.2175896.5456468-.5026769.592147l-.0973231.007853-2.219699-.0008495.0008495 2.219699c0 .3313709-.2686292.6-.6.6-.2982338 0-.5456468-.2175896-.592147-.5026769l-.007853-.0973231-.0008495-2.219699-2.218.0008495c-.3313709 0-.6-.2686291-.6-.6 0-.2982338.2175896-.5456467.5026769-.592147l.0973231-.007853 2.218-.0008495.0008495-2.218c0-.3313708.2686292-.6.6-.6z"/></svg>