<svg height="32" viewBox="0 0 32 32" width="32" xmlns="http://www.w3.org/2000/svg"><path d="m10.2837912 10.2913471c1.9850298 0 3.5942144 1.6091847 3.5942144 3.5942145 0 .3835744-.0613963.7640205-.1864891 1.1393042l-.0827176.2245345-.086972.1934665-1.051066 2.5450494c-.4712598 1.1789684-.3285044 2.5082855.3823256 3.5584373.6394262.9444285 1.659607 1.5481084 2.7736951 1.6590715l.2239847.015578.1769031.0033653c1.2691209 0 2.4505954-.6268745 3.1622322-1.6779577.637554-.9418967.8192362-2.1103991.5106077-3.1850955l-.0682734-.2135936-.0574022-.1534859-1.036792-2.5142189c-.8805933-1.7790162-.1522776-3.9350557 1.6267387-4.815649.4248887-.2103152.886469-.334146 1.3579901-.3652341l.2364651-.0077865h4.268917c1.3807119 0 2.5100547 1.0762386 2.5948848 2.435572l.0051152.164428v13.1715243l-.0042203.1286822c-.0699204 1.206744-.996449 2.1826998-2.196185 2.329917l-.165239.0148821-.1286303.0034659h-20.22472916c-1.26793918 0-2.32253859-.9486066-2.47596388-2.2006644l-.01484483-.1649798-.0034659-.1286304v-13.1541969c0-1.3807118 1.07623858-2.5100547 2.4355719-2.5948848l.1644281-.0051152zm0 1.2h-4.26891697c-.72771638 0-1.3257521.5552289-1.3935912 1.2651707l-.0064088.1348293-.00025025 13.1368696.00246127.0939238c.03702171.6389517.5369508 1.1500939 1.16487202 1.2114908l.12719157.0061873 20.20740176.0002503.0939238-.0024613c.6099256-.0353399 1.1071465-.494255 1.2009034-1.0724696l.0138094-.1256183.0029654-.0939757v-13.1541969c0-.7277163-.5552289-1.3257521-1.2651707-1.3935912l-.1348293-.0064088h-4.268917c-.3684412 0-.7319116.0850334-1.0621146.2484803-1.1356789.5621484-1.6285648 1.9045839-1.1365652 3.0911853l.0697874.1538134 1.0606537 2.5691669.0686425.1828642c.5298587 1.501689.3176347 3.1620035-.5760267 4.482263-.8881677 1.3118183-2.3348147 2.1214183-3.9162507 2.1990112l-.2507587.0061349-.2005935-.0038333c-1.5939535-.0629847-3.0605868-.8779131-3.9566344-2.2013699-.8849293-1.3073591-1.0999971-2.9451451-.5917414-4.4358594l.0914159-.2470088 1.060655-2.5676821.0849792-.1885801c.1144283-.2841459.1733215-.5877587.1733215-.8943711 0-1.2671928-.9844601-2.3044526-2.2302918-2.3886909zm5.7315662-7.4913471c.3242367 0 .5907624.24336596.6271833.55770395l.0042416.07372092v7.24751733c0 1.5263252.2911849 3.0386374.8579397 4.4558379l.8538531 2.1351053c.3112925.7779155.2172102 1.6574903-.2525699 2.3514262-.471043.6951988-1.2514841 1.1094135-2.0906478 1.1094135-.8391636 0-1.6202362-.4142147-2.0906477-1.1094135-.442146-.6531161-.5514939-1.4706737-.3033019-2.2136766l.0507319-.138381.7821127-1.9554258c.614145-1.5354759.9296802-3.1740304.9296802-4.8277717v-7.05463163c0-.34917795.2822469-.63142487.6314248-.63142487z" fill-rule="evenodd"/></svg>