<svg height="32" viewBox="0 0 32 32" width="32" xmlns="http://www.w3.org/2000/svg"><path d="m16.8717125 3.78522354c1.3920858 0 2.5207708 1.12868495 2.5207708 2.5207708 0 1.37162386-1.0957482 2.48753328-2.4595584 2.52004198 1.0492087.59267923 1.6980307 1.70437048 1.6980307 2.90940468v8.2037825l3.3409123 2.339.8610536-1.2286144 2.6093306 1.827073c.979751.686029 1.2178597 2.0364104.5318307 3.0161613-.686029.979751-2.0364105 1.2178597-3.0161614.5318307l-2.6093306-1.827073.9082771-1.2993776-3.8404088-2.6581562v5.6426012c0 .7979925-.6469008 1.4448933-1.4448933 1.4448933-.7979926 0-1.4448933-.6469008-1.4448933-1.4448933v-4.4364233c0-.3162966-.1496393-.6139464-.403504-.8026161l-2.7049341-1.9501692-3.67317773 7.7225405c-.29075974.6111378-.99436886.8928193-1.61831707.6700917l-.127239-.0530698c-.6692365-.32095-.98266285-1.0997776-.72229969-1.7948297l4.01566702-10.7219691-1.68003589-1.1772194c-.20899115.2235779-.50654281.3633271-.83673464.3633271-.59028138 0-1.07624991-.4466165-1.13842224-1.020366l-.00671954-.1247758v-3.35314071c0-1.3254834 1.03153594-2.41003867 2.33562432-2.49468232l.16437568-.00531768h3.76033768c.8612938 0 1.7129025.17116475 2.5056622.50236174l.2944303.13167864.1610866.07703526c-.3149716-.42074169-.5015307-.94316722-.5015307-1.50912999 0-1.39208585 1.1286849-2.5207708 2.5207708-2.5207708zm-.4887828 8.76456146-.0689297.146215-1.6797324 3.3683299c-.2182139.4375793-.0879907.9687875.307861 1.2558316l1.439827 1.044062zm-7.96169052-3.03657068c-.24545989 0-.44960837.17687516-.49194433.41012437l-.00805567.08987561-.00028356 2.4220092 1.815 1.27 1.48819688-3.97281373-.0051525-.06640977-2.7701787-.15202433z"/></svg>