<svg height="32" viewBox="0 0 32 32" width="32" xmlns="http://www.w3.org/2000/svg"><path d="m10.4835438 14.5129481.3459573.0164447.2956041.0205731.2950312.0249206.5441716.056054c.1823272.0211021.3665873.0447382.5557695.0712577l.5853019.0885585.6327685.1079566.6981696.1294518 2.5651076.5028895.4959591.0940751.4252206.0749403.3727465.0579725.3385369.0431711.3225915.0305366.161024.0112075c.9730974.0598807 1.7241534.0529297 2.4191352-.0438246l.2583138-.0405373 2.9273998-.510667.1330123-.0081803.356391.017784c.9319987.0465071 1.7117859.7058584 1.9221225 1.6016163l.0311221.1604523.0263089.1953989.0069007.0229061 1.4433742 7.1432451c.0688294.3406359-.1641474.6607938-.4954684.711788l-.0926457.0070608h-24.10694024c-.34911717 0-.61725455-.2943048-.59937601-.6304795l.01212132-.0925324.88806072-4.2385823.0759048-.3197794.08359066-.317208.05050581-.1767337.11067124-.3565554c.6832244-2.0817255 1.80170666-3.6277115 3.55993893-4.175974.7400648-.2307715 1.46844263-.308873 2.35559647-.2792072zm-1.99836996 1.4248027c-1.23021516.3836131-2.10638647 1.5253667-2.68102432 3.1245118l-.09299.2707077-.10370199.3338081-.0433254.1516705-.07678438.2910957-.0689.2901149-.73444775 3.5003405h2.153l.47829373-2.2789966c.0918363-.3397945.39297004-.5708303.78597668-.5691963l.12054076.0075942.11473642.01986.14637496.0650266c.21083952.1239364.35226163.3379646.38432278.5790462l.00692848.1047932-.01100937.1144118-.38016444 1.9574609h6.391l.4646574-3.5622298.03875-.1679622c.0215435-.0697647.0486542-.1368614.0809193-.2008344l.0717459-.1250406.037859-.0539977c.1783227-.2465357.4403854-.4251524.7435038-.5011833l.1878523-.0331777.1338807-.0074328 1.9207052.035647.7926937.0039352.6389819-.0128319c.6387639-.0199935 1.2767535-.0614657 1.912886-.1243623.496794-.0491196.9900824-.1261739 1.475828-.2301416l.2653343-.0598002.423115-.1069487.1876163-.0524268c.0802906-.0230077.1603575-.0467732.2401877-.0712935l.4190781-.1364103.3896903-.1358234.1324612-.0537766.1122187-.0626135.0578109-.0401082c.2009157-.1498581.3398567-.3678981.3880846-.6006777l.0164215-.1173706.0020275-.0871384-.0293466-.193876c-.0578338-.3758894-.3486881-.6677098-.71501-.7333261l-.112003-.0127567-.2899497-.0150412-2.8605587.4996967c-.6830319.1194723-1.378702.1575303-2.2095647.1343675l-.3647185-.0136163-.3834165-.0207594c-.1803359-.0111147-.3543268-.0259-.5330199-.0456051l-.3669289-.0463401-.3991074-.0616806-.4509253-.0792419-.5223827-.0990241-2.5558516-.5011075-.6777414-.1257514-.6117127-.10455-.5628247-.0854104c-.2720471-.038264-.5321889-.0701237-.7900669-.0967391l-.2574806-.0249101-.2825962-.0239281-.2811459-.019528c-.91234465-.0548736-1.59132092.0002519-2.26678356.2108787zm17.86982616 3.1912492-.1274087.0944325c-.0483522.0328092-.0982508.0639886-.1496416.0934343l-.1585944.0830327-.1923206.0784873-.423543.1486257c-1.0640311.366108-2.1671333.6069707-3.2869842.7176941-.6629129.0655445-1.3277613.1087626-1.9968995.1296047l-.6706555.0133816-.8091307-.0040146-1.9155125-.0356783-.0423689.0092854-.0395333.0184984-.0054016-.0015036-.0170322.0681807-.4359733 3.3565391h7.671l-.3189631-1.5773432-.0108054-.1554994c.0217173-.3562459.279067-.6548069.6294119-.7280482.3775772-.0789344.7507453.1249578.9008304.4973389l.035237.1056499.3882892 1.857902h1.941zm-6.3001286-10.94101937c1.9867415 0 3.5972983 1.61055685 3.5972983 3.59729837 0 1.9867415-1.6105568 3.5972984-3.5972983 3.5972984-1.9867416 0-3.5972984-1.6105569-3.5972984-3.5972984 0-1.98674152 1.6105568-3.59729837 3.5972984-3.59729837zm0 1.2c-1.3239999 0-2.3972984 1.07329857-2.3972984 2.39729837s1.0732985 2.3972984 2.3972984 2.3972984c1.3239998 0 2.3972983-1.0732986 2.3972983-2.3972984s-1.0732985-2.39729837-2.3972983-2.39729837zm-8.9514654-2.48798063c1.9867415 0 3.5972983 1.61055685 3.5972983 3.5972984 0 1.9867415-1.6105568 3.5972983-3.5972983 3.5972983-1.98674155 0-3.5972984-1.6105568-3.5972984-3.5972983 0-1.98674155 1.61055685-3.5972984 3.5972984-3.5972984zm0 1.2c-1.32399985 0-2.3972984 1.07329855-2.3972984 2.3972984 0 1.3239998 1.07329855 2.3972983 2.3972984 2.3972983 1.3239998 0 2.3972983-1.0732985 2.3972983-2.3972983 0-1.32399985-1.0732985-2.3972984-2.3972983-2.3972984z"/></svg>