<svg height="32" viewBox="0 0 32 32" width="32" xmlns="http://www.w3.org/2000/svg"><path d="m6.21153687 19.8c.24553497 0 .48101346.0975384.6546329.2711578l4.86267243 4.8626724c.3615437.3615438.3615437.9477221 0 1.3092658-.1736195.1736195-.409098.2711579-.6546329.2711579h-4.86267243c-.5113001 0-.92579073-.4144907-.92579073-.9257908v-4.8626724c0-.5113001.41449063-.9257907.92579073-.9257907zm20.03155913.2711578c.1736195.1736195.2711579.409098.2711579.6546329v4.8626724c0 .5113001-.4144907.9257908-.9257908.9257908h-4.8626724c-.5113001 0-.9257907-.4144907-.9257907-.9257908 0-.2455349.0975384-.4810134.2711578-.6546329l4.8626724-4.8626724c.3615438-.3615437.9477221-.3615437 1.3092658 0zm-8.5479674-9.4616667c.1444413 0 .265441.1003653.2970646.2351612l.0080585.069962-.0001695 3.084795 3.0853035.000339c.1263862 0 .2348249.0768421.2811451.1863554l.0199845.0692752.0039936.0494925v3.3902572c0 .1444413-.1003653.265441-.2351612.2970646l-.069962.0080585-3.0853035-.0001695.0001695 3.0853035c0 .1263862-.0768421.2348249-.1863554.2811451l-.0692752.0199845-.0494925.0039936h-3.3902572c-.1444413 0-.265441-.1003653-.2970646-.2351612l-.0080585-.069962-.000339-3.0853035-3.084795.0001695c-.1263862 0-.2348249-.0768421-.2811451-.1863554l-.0199845-.0692752-.0039936-.0494925v-3.3902572c0-.1444413.1003653-.265441.2351612-.2970646l.069962-.0080585 3.084795-.000339.000339-3.084795c0-.1263862.0768421-.2348249.1863554-.2811451l.0692752-.0199845.0494925-.0039936zm7.8933345-5.32374496c.5113001 0 .9257908.41449063.9257908.92579073v4.86267243c0 .5113001-.4144907.9257907-.9257908.9257907-.2455349 0-.4810134-.0975384-.6546329-.2711578l-4.8626724-4.86267243c-.3615437-.36154377-.3615437-.94772204 0-1.3092658.1736195-.17361945.409098-.27115783.6546329-.27115783zm-14.5142538 0c.5113001 0 .9257907.41449063.9257907.92579073 0 .24553497-.0975384.48101346-.2711578.6546329l-4.86267243 4.86267243c-.36154377.3615437-.94772204.3615437-1.3092658 0-.17361945-.1736195-.27115783-.409098-.27115783-.6546329v-4.86267243c0-.5113001.41449063-.92579073.92579073-.92579073z" fill-rule="evenodd"/></svg>