<svg height="32" viewBox="0 0 32 32" width="32" xmlns="http://www.w3.org/2000/svg"><path d="m13.3028489 8.48181666c.7483337 0 1.4222441.45287826 1.705216 1.14564824l.3287204.7944178.1620736.3812353.3195744.7305235c.1582628.3546126.3142391.6932517.467929 1.0159172l.3043309.6240329.2982337.5814367.1468303.2747447c.9664794 1.7931339 1.9038665 2.8757521 2.8121614 3.2478546l.3522731.1340472c.4601902.175112.9484471.2648687 1.4408282.2648687h.9655317c.9445677 0 1.7102912.7657234 1.7102912 1.7102912v7.8473913c0 .4042335-.3257693.7329435-.7299864.736576l-3.2903595.0297156c-.3728998.0032046-.6835686-.2711297-.7355731-.6302146l-.007652-.1065079v-7.3791689l-.7035896-.4796822c-1.6345617-1.152267-2.880617-2.7822268-3.7381659-4.8898792l-.0863397-.1416453-.0498723-.0709962c-.019552-.0237723-.0307778-.0292504-.0325529-.0132601l1.1481223 7.809934-1.8578737-.0000972.0005382 5.1643943c0 .4068161-.3297897.7366057-.7366058.7366057h-2.7466267c-.4068161 0-.7366058-.3297896-.7366058-.7366057l-.0006999-5.1643943-2.013.0000972 1.0779046-11.9413207c.08566575-.94902849.8811704-1.67595984 1.8340574-1.67595984zm8.5139939 3.51818334c1.1045695 0 2 .8954305 2 2s-.8954305 2-2 2-2-.8954305-2-2 .8954305-2 2-2zm-9.7183381-9c1.2392135 0 2.25 1.01078644 2.25 2.25s-1.0107865 2.25-2.25 2.25c-1.2392136 0-2.25000003-1.01078644-2.25000003-2.25s1.01078643-2.25 2.25000003-2.25z"/></svg>