<svg fill="none" height="32" viewBox="0 0 32 32" width="32" xmlns="http://www.w3.org/2000/svg"><g fill="#000"><path clip-rule="evenodd" d="m16.1587 3.54576-.001.00098c.1064.00265.2139.00762.3203.0166l-.001.00098c.7219.05999 1.4277.26047 2.0723.57714l.0019.00098c.508.25131.9656.60388 1.3379 1.03223l.1543.18847.0488.0625.0049.01563c.0975.13523.1894.27527.2696.42285h-.002c.0718.12755.1346.25711.1895.38477l.1494.37695.0625.16797c.4613 1.21868.9038 2.41743 1.3652 3.62989.1775.4289.2284.8879.1895 1.3252-.0266.4228-.107.8386-.2286 1.2363l-.0019.0059c-.3348 1.0528-.8703 2.0336-1.5459 2.8965l.001.0009c-.671.8765-1.3681 1.7305-2.0694 2.5733l-.0009.001c-.6542.7809-2.4756 2.9355-2.4756 2.9355-1.2126 1.4341-2.7114 3.2048-4.499 5.3096l-1.3054 1.5366c-.28896.3402-.83486.2571-1.00947-.1536l-1.81357-4.2655c-.0889-.2091-.05206-.4505.09509-.6236 1.63044-1.9182 3.25405-3.8422 4.88195-5.7625l.1699-.2012c-.3585-.4437-.7137-.8914-1.0615-1.3457-.6772-.8638-1.2135-1.8467-1.54884-2.9013l-.00196-.0059c-.12006-.3927-.19995-.8023-.22754-1.2197l-.01074-.169c-.01559-.3905.04227-.7936.19922-1.1728.46146-1.21246.90386-2.41121 1.36526-3.62989.1047-.28045.2255-.62058.4043-.93653.0805-.14746.1709-.28862.2685-.42382l.0039-.00782.0479-.0625c.3969-.51385.9125-.93349 1.4931-1.2207l.001-.00098c.6446-.31669 1.3504-.51812 2.0723-.57812l.2119-.01367c.0709-.00317.142-.00546.2129-.00586h.0498c.053-.00015.1069.0006.1602.00195zm-.3672 4.77832.0009.00098-.0468.00293h-.0049c-.208.0121-.4127.03202-.6113.06543-.3167.06083-.6214.15977-.9053.29785-.2403.11688-.4747.32185-.6631.53418-.0761.08583-.1403.16835-.1904.23828.4698.98397.9291 1.75617 1.7851 2.73337l.0088.0098c.2769.3323.5558.6608.835.9883.2796-.3279.5592-.6562.8359-.9883l.0078-.0098.3057-.3603c.6671-.8152 1.07-1.5134 1.4805-2.37307-.0501-.06983-.1135-.15261-.1895-.23828-.1883-.21221-.422-.41726-.6621-.53418-.2849-.1386-.5913-.23704-.9092-.29785-.184-.03082-.3732-.05113-.5654-.06348l-.044-.00293h-.0058c-.0845-.00532-.1693-.00795-.2539-.00879-.0693.00072-.1388.00213-.208.00586z" fill-rule="evenodd"/><path d="m24.5332 23.2019c.1463.1732.1828.414.094.6226l-1.812 4.2612c-.1751.4117-.7229.4939-1.0111.1518l-4.6392-5.5081.3809-.4492c.9718-1.1496 1.7526-2.0769 2.3418-2.7803l.001-.0009c.166-.1996.3318-.4006.497-.6016l.2637-.3223c1.3014 1.5367 2.585 3.0882 3.8839 4.6268z"/></g></svg>