<svg fill="none" height="32" viewBox="0 0 32 32" width="32" xmlns="http://www.w3.org/2000/svg"><path d="m15.3461 4.12153c.5561-.36017 1.2987-.20148 1.6592.35449 1.2861 1.98448 2.9928 7.10318.039 12.36038-.4588.8166-.7785 1.6155-.9882 2.3828.1337-.0413.2689-.0801.4062-.1153.738-.1887 1.5307-.2819 2.6133-.2783.6664.0023 1.3762.1003 2.0478.3643.0377-.1679.0428-.3354.0362-.5264-.2324-.0454-.4793-.1166-.7168-.2129-.4606-.1868-.9789-.5016-1.3096-.9931-.1848-.2748-.1124-.647.1621-.8321.2748-.1845.6481-.1124.833.1621.1456.2164.4216.4113.7656.5508.1082.0439.2152.0766.3145.1035.187-.8309.742-1.644 1.6465-2 .3082-.121.657.0307.7783.3389.1209.3081-.0309.656-.3389.7774-.6041.2376-.9758.92-.958 1.5449.0108.3744.1054.9528-.1181 1.6123 1.3405.532 2.58.0865 3.0459-.2207.2765-.1819.6487-.1056.831.1709.1822.2765.1054.6486-.1709.831-.7813.5152-2.7783 1.1963-4.8047.0176-.4149-.2414-.8882-.3792-1.3838-.4434.047.2206.1177.4017.2061.5528.1613.2754.4058.4979.7588.6865.7325.3912 2.2242.8317 3.2959 2.3398.1917.27.1282.645-.1416.837-.2701.1917-.645.1283-.8369-.1416-.6347-.8931-1.3742-1.2606-2.1143-1.6045-.0004.4537.0881.9258.2315 1.3691.2281.7052.5525 1.2233.7128 1.3858.2326.2356.2296.6158-.0058.8486-.2357.2327-.6158.2307-.8486-.0049-.3411-.3454-.7405-1.0573-1-1.8594-.2227-.6884-.368-1.5251-.2471-2.3506-.3356-.2364-.6231-.5301-.8399-.9004-.2054-.3509-.333-.7484-.3925-1.1933-.7161.0249-1.2578.1036-1.7539.2305-.3252.0831-.6365.1874-.9727.3154-.3196 2.6283.5615 4.7217 1.1855 5.5918.3859.5384.2629 1.2876-.2753 1.6738-.5384.3862-1.2885.2628-1.6748-.2754-1.3311-1.8559-3.0201-6.6611-.0704-11.9111.5561-.9897.9047-1.9736 1.1045-2.918-.1721.0556-.3449.1079-.5224.1533-.7378.1888-1.5301.2819-2.6123.2784-.6661-.0023-1.3756-.1004-2.0469-.3643-.0376.1676-.0428.3347-.0361.5254.2324.0455.4792.1175.7168.2139.4604.1868.979.5016 1.3095.9931.1846.2749.1116.6481-.1631.833-.2748.1846-.648.1115-.833-.1631-.1455-.2163-.4209-.4112-.7646-.5507-.1078-.0438-.2145-.0766-.3135-.1035-.1869.8308-.7423 1.6439-1.64648 2-.30819.1212-.6568-.0299-.77832-.3379-.12135-.3084.03052-.657.33887-.7784.60354-.2378.97584-.92.95801-1.5449-.01074-.3746-.1067-.9534.11718-1.6133-1.33939-.5315-2.57812-.0854-3.04394.2217-.27651.1821-.64862.1055-.83106-.1709-.18234-.2766-.10567-.6486.1709-.831.78144-.5152 2.77809-1.1966 4.80374-.0176.4145.2411.8869.3793 1.3818.4433-.0469-.2204-.1177-.4017-.206-.5527-.1612-.2753-.4053-.498-.7579-.6865-.732-.3912-2.22339-.8316-3.29488-2.33986-.19189-.27015-.12855-.64502.1416-.83691.27013-.19164.64509-.12845.83692.1416.63437.89303 1.37356 1.26056 2.11326 1.60449.0005-.45366-.0881-.92585-.2314-1.36914-.2278-.70431-.5514-1.22264-.7119-1.38574-.23277-.23576-.23078-.61582.0048-.84863.2358-.23251.6159-.23067.8487.00488.3409.3455.7406 1.0582 1 1.86035.2225.68827.3678 1.52435.247 2.34961.3355.23645.6233.53025.8399.90035.2052.3509.3321.7486.3916 1.1934.7157-.0249 1.2571-.1036 1.7529-.2305.3379-.0865.6601-.197 1.0117-.332.1859-2.54876-.6365-4.66401-1.2568-5.62109-.3603-.55608-.2015-1.29872.3545-1.65918z" fill="#4588a0"/><path d="m15.4508 4.05708c.5414-.27766 1.215-.10397 1.5527.41601 1.2864 1.98448 2.9929 7.10411.0391 12.36131-2.254 4.0124-1.1348 7.6031-.2442 9.0713l.1739.2656.0664.1035c.3021.5274.162 1.2076-.3418 1.5694-.5375.3854-1.2888.2647-1.6758-.2744-1.3312-1.8567-3.0184-6.6621-.0693-11.9112 2.4006-4.273.9836-8.4222.0381-9.88082l-.001-.00098c-.3585-.55566-.1997-1.29803.3554-1.6582z" fill="#005a7d"/></svg>