<svg fill="none" height="32" viewBox="0 0 32 32" width="32" xmlns="http://www.w3.org/2000/svg"><g fill="#000"><path clip-rule="evenodd" d="m26.3398 9.78614c.2424-.36913.7381-.47249 1.1074-.23047.3693.24229.4725.73803.2305 1.10743-.9016 1.3742-2.1385 2.6987-3.7724 3.9746.0684.1601.1285.3216.1757.4854.005.0171.009.0346.0137.0517.0895.3262.1387.6576.1387.9912 0 .0801-.0039.159-.0088.2364l-.001.0351c-.0008.0107-.003.0216-.0039.0322-.0048.0577-.0111.1148-.0185.1709-.0028.0209-.0057.0419-.0088.0625-.0108.0708-.0233.1406-.0381.209-.0041.0186-.0084.0373-.0127.0557-.0121.0515-.0267.1021-.041.1523-.0066.0231-.0125.0465-.0196.0694-.0409.132-.0898.2595-.1455.3828-.0103.0228-.0204.0458-.0312.0683-.021.0438-.0428.0872-.0654.1299-.0585.11-.1233.2161-.1924.3194-.0094.0139-.0188.0281-.0284.0419-.1165.1692-.2464.3297-.3876.4825-.0113.0121-.0229.0241-.0342.0361-.0582.0617-.1181.1224-.1797.1816-.0172.0166-.0343.0335-.0518.0498-.1345.1263-.2765.247-.4238.3633-.2312.1826-.476.3538-.7275.5166-.0241.0156-.0481.0315-.0723.0469-.0777.0496-.1567.0974-.2354.1455-.8898.5442-1.8268 1.0029-2.5263 1.4951l-.001.001c-.3599.2535-.6135.5706-.8057.915-.0466.0837-.0909.1685-.1308.2549-.0194.042-.0357.0855-.0537.128-.0256.0602-.0511.1206-.0743.1816-.0065.0173-.014.0344-.0205.0518-.1176.3182-.2069.6428-.2968.9502-.0179.061-.0376.1211-.0557.1806-.0165.054-.0328.1077-.0498.1602-.0178.0548-.0379.1082-.0566.1611-.0182.0511-.0363.1015-.0557.1504-.0295.0742-.0594.1464-.0928.2148-.0101.0208-.0207.0414-.0312.0616-.0113.0215-.0234.0426-.0352.0634-.0099.0175-.02.0349-.0303.0518-.0145.0239-.0295.0474-.0449.0703-.008.0118-.0162.0236-.0244.0352-.0074.0103-.0158.0201-.0234.0302-.0108.0144-.0211.0292-.0323.043-.0169.0209-.0348.0409-.0527.0606-.0132.0145-.0263.0291-.04.0429-.0083.0083-.0169.0164-.0254.0244-.0072.0068-.0152.013-.0225.0196-.0183.0165-.0363.0334-.0557.0488-.0065.0052-.0138.0096-.0205.0146-.0076.0058-.0156.0111-.0234.0166-.023.0167-.0458.0339-.0703.0489-.0032.0019-.0065.0039-.0098.0058l.001-.0019c-.0022.0013-.0048.0024-.0068.0039-.0111.0061-.0221.0124-.0332.0185-.0225.0123-.0447.0252-.0684.0362-.0145.0067-.03.0114-.0449.0176-.0742.0306-.1533.0567-.2403.0742l-.0009.0009h-.002c-.0374.0075-.0762.0118-.1162.0167-.0705.0084-.1447.0156-.2236.0156l-.1817-.0088c-1.7303-.1662-.9708-2.7652-2.5215-4.0371l-.163-.1231c-1.7672-1.2184-5.15567-2.2145-5.36625-5.0078l-.01074-.2754c-.00008-.5263.11427-1.0452.32519-1.5439-1.62337-1.2707-2.85314-2.5907-3.75097-3.959-.24196-.3694-.13876-.86514.23047-1.10743.3693-.24202.86507-.13866 1.10742.23047.7653 1.16626 1.82838 2.32736 3.27051 3.47466 1.44217-1.6774 4.06067-2.8788 7.05077-2.879.3544 0 .7033.0188 1.0459.0518.0591.0057.1181.01.1768.0166l.0312.0039c.0543.0063.1082.0144.1621.0215.0709.0093.1417.0177.2119.0283.0668.0102.133.0229.1993.0342.0705.0121.1411.0227.2109.0361.0494.0095.0984.0211.1475.0313.0801.0165.1601.0325.2392.0508.0409.0094.0814.0203.1221.0302.0871.0213.1739.0422.2597.0655.0486.0131.0965.0281.1446.042.0726.0208.1452.0411.2168.0634.0574.0179.1141.0379.1709.0567.0631.0209.1262.0415.1885.0634.0594.021.1181.0435.1767.0655.0579.0217.1158.0428.1729.0654.0614.0243.1221.0498.1826.0752.052.0219.1039.0438.1553.0664.0654.0288.13.0588.1943.0889.0427.02.0858.039.1279.0595.0586.0285.1163.0584.1738.0879.0605.0311.1205.0627.1797.0948.0416.0225.083.0453.1241.0683.0515.029.1027.0582.1533.0879.0603.0355.1198.0718.1787.1084.0416.0259.0831.0517.124.0781.0644.0416.1279.0841.1904.127.0236.0161.0471.0325.0704.0488.0696.0489.1378.099.205.1494.0222.0166.0446.0331.0664.0498.0685.0525.1354.1062.2012.1602.0156.0128.0315.0252.0469.0381.0697.0582.1375.1178.2041.1777.0168.0151.0342.0297.0508.0449.0573.0526.1131.1064.1679.1602.0264.0258.0524.052.0782.0781.054.0548.1068.1101.1582.166.011.0121.0222.0241.0332.0362.0356.0393.0692.0803.1035.1201 1.4541-1.1533 2.5244-2.3214 3.2939-3.49416zm-9.3642 7.29586c-4.121-1.1403-5.7833-1.3614-7.41116-.0869.20234.3925.56616.7638 1.12886 1.1612.4712.3326 1.0091.6314 1.6026.9531.5552.3009 1.2111.6485 1.7549 1.0234 1.4759 1.0179 1.8011 2.7202 1.9853 3.4297l.002-.0039c.2042-.688.5595-2.3883 2.0215-3.417.5383-.3788 1.1819-.7317 1.7265-1.0371.581-.3258 1.1037-.6272 1.5606-.96.6578-.479 1.0367-.9179 1.1963-1.4033-.6997.6067-1.6532 1.424-5.5674.3408z" fill-rule="evenodd"/><path d="m16.7373 25.4404.001-.0019.0058-.002c-.0022.0014-.0046.0026-.0068.0039z"/></g></svg>