<svg fill="none" height="32" viewBox="0 0 32 32" width="32" xmlns="http://www.w3.org/2000/svg"><path d="m5.00781 10.3034c1.30943 1.9956 3.39805 3.9281 6.55499 5.7718" stroke="#c77" stroke-linecap="round" stroke-width="1.6"/><path d="m27.0078 10.3034c-1.3094 1.9956-3.398 3.9281-6.5549 5.7718" stroke="#c77" stroke-linecap="round" stroke-width="1.6"/><path d="m15.9995 10.4606c4.5475 0 8.2345 2.8216 8.2338 5.7837-.0006 2.9622-3.4336 4.0037-5.2534 5.2842-1.8197 1.2804-.9431 4.1681-2.9714 4.1681s-1.0419-2.9103-2.8659-4.1681c-1.8241-1.2579-5.37633-2.2788-5.37697-5.2842-.00065-3.0053 3.68637-5.7836 8.23387-5.7837z" fill="#8f2d35"/><path d="m23.0378 16.451c.9073-.4783 1.1948-1.2021 1.1946-.2065-.0007 2.962-3.4342 4.0037-5.2539 5.2842-1.8192 1.2805-.9429 4.1676-2.9707 4.1679-2.0282 0-1.0423-2.9101-2.8662-4.1679-1.7616-1.2148-5.13466-2.2088-5.36426-4.9825.23772.1812.53928 1.3033.91407 1.3457 1.98999-2.1428 3.43469-2.0726 8.28379-.7307 4.849 1.3419 5.1553-.2318 6.0626-.7102z" fill="#ecca63"/><path d="m15.999 11.2604c2.1135 0 4.007.6573 5.3545 1.6299 1.3612.9826 2.0802 2.2141 2.0801 3.3535-.0003 1.1085-.6198 1.9014-1.6162 2.627-.4999.3639-1.0614.6859-1.6406 1.0107-.5611.3146-1.1608.6429-1.6573.9922-1.1859.8345-1.4808 2.2063-1.7138 2.9912-.1345.4529-.2374.7091-.3594.8623-.0719.0902-.1619.1689-.4375.169-.2725 0-.3488-.0765-.4092-.1563-.1132-.1496-.2055-.4032-.3271-.8613-.2089-.7867-.4703-2.1775-1.6758-3.0088-.4999-.3447-1.1102-.6682-1.6826-.9785-.5915-.3206-1.1681-.6396-1.6827-1.0029-1.02732-.7255-1.66573-1.5231-1.66597-2.6446-.00012-1.1627.72065-2.393 2.07817-3.3681 1.3459-.9668 3.2392-1.6152 5.3554-1.6153z" stroke="#c77" stroke-width="1.6"/></svg>