<svg height="32" viewBox="0 0 32 32" width="32" xmlns="http://www.w3.org/2000/svg"><path d="m16.6003842 12.7798932c.7693413.0177119 1.5380934.069474 2.303991.1552862l.6426726.0800962c2.4697363.3389863 4.4633577 2.1669768 5.0265074 4.5779307l.0515114.243005 1.5807573 8.2939217c.1296009.6799902-.2854113 1.3453316-.9531045 1.528003-.6142048.1680377-1.2478959-.1569009-1.4780187-.7364337l-.0405184-.1192305-2.3159298-8.1310028v7.3102266c0 1.0543618-.8158778 1.9181651-1.8507377 1.9945143l-.1492623.0054857-5.4156857-.0008033-.0553067-.0041222c-.2310186-.0376812-.4134183-.2200809-.4510995-.4510996l-.0071591-.0887233c0-.2718808.1983626-.4974315.4582586-.5398228l.0887233-.0071591h3.9134099l.144479-.0058397c.9053267-.0734906 1.6171262-.8315032 1.6171262-1.7557655s-.7117995-1.682275-1.6171262-1.7557656l-.144479-.0058397h-3.9280332l-.0863513-.0069676c-.2529478-.0412581-.4460073-.2607788-.4460073-.525391s.1930595-.4841329.4460073-.5253909l.0863513-.0069677 4.6741759-.0006031c.5236595 0 .9481695-.42451.9481695-.9481695 0-.4862553-.3660315-.8870194-.8375929-.9417905l-.1105766-.006379-2.0961696-.000636-.0007996-3.5311551h.998l.0002907 1.0420682.006819.1546906c.0677484.7655565.6336783 1.4046188 1.3998601 1.5550662.6391735.1255081 1.2590704-.2909 1.3845785-.9300735l.0165625-.1130902.0055381-.1141623v-1.3327577l-.0063288-.1794726c-.0588093-.8321668-.5238352-1.5832636-1.2425195-2.0068825l-.1578308-.0856733-.2500422-.1245263-.1004273-.0418563c-.3731479-.1266565-.7917659.0387897-.9723172.4013271-.0367835.0738593-.0618078.1527368-.0744037.2337872l-.0094887.1228496-.0002907.2187058h-.997zm-1.2006921-.0000009-.0001253 2.8934121h-1.037l.0001578-.2187058c0-.1237679-.0287172-.2458479-.0838924-.3566368-.1805513-.3625374-.5991693-.5279836-.9723172-.4013271l-.1004273.0418563-.2500422.1245263c-.8080103.4024063-1.3373404 1.2009485-1.4003503 2.0925558l-.0063288.1794726v1.3327577c0 .0762873.0074015.1523947.0221006.2272525.1255081.6391735.745405 1.0555816 1.3845785.9300735.7661818-.1504474 1.3321117-.7895097 1.3998601-1.5550662l.006819-.1546906-.0001578-1.0420682h1.037l.0004332 4.2278781-1.3786399.0008551-.1494745.0063588c-.8867747.0757855-1.5828841.8196001-1.5828841 1.7259998s.6961094 1.6502144 1.5828841 1.7259999l.1494745.0063587h3.9280332l.0910952.0073505c.2668442.0435247.47051.2751054.47051.5542548s-.2036658.5107301-.47051.5542548l-.0910952.0073504h-3.9134099l-.1432796.0057912c-.8978115.0728806-1.6037023.8246008-1.6037023 1.7411907 0 .185712.0289779.3646557.0826588.5325564-1.0056168-.1035242-1.7898744-.9540795-1.7898744-1.987808v-7.3102266l-2.3159299 8.1310028c-.18606246.6532471-.86338524 1.0349044-1.51853703.8556642-.66769324-.1826714-1.08270545-.8480128-.95310456-1.528003l1.58075735-8.2939217c.46672453-2.4488114 2.3957326-4.3448608 4.83266754-4.7821073l.2453889-.0388335c.9780887-.1342486 1.9618937-.212708 2.9466639-.2353782zm.6003462-8.7615879c2.0006066 0 3.6223034 1.62177349 3.6223034 3.62230334 0 2.00052984-1.6216968 3.62230336-3.6223034 3.62230336-2.0005298 0-3.62238-1.62177352-3.62238-3.62230336 0-2.00052985 1.6218502-3.62230334 3.62238-3.62230334z" fill-rule="evenodd"/></svg>