<svg fill="none" height="32" viewBox="0 0 32 32" width="32" xmlns="http://www.w3.org/2000/svg"><path d="m16.1582 3.54576-.001.00098c.1064.00265.2138.00763.3203.0166l-.001.00098c.7219.05999 1.4277.26046 2.0723.57715l.0019.00097c.508.25132.9656.60387 1.3379 1.03223l.1543.18848.0488.0625.0264.07519c.2738.76888.2189 1.63971.0791 2.36719-.1417.73733-.3836 1.39099-.5439 1.7627l-.4912 1.13867-.4356-1.16016c.007.0187-.0061-.01505-.0674-.10449-.0532-.07774-.128-.17588-.2197-.2793-.1883-.21222-.4219-.41726-.6621-.53418-.285-.13861-.5913-.23703-.9092-.29785-.184-.03082-.3732-.05113-.5654-.06348l-.0488-.00293c-.0842-.00529-.1702-.00794-.2549-.00878-.0693.00072-.1388.00212-.208.00585l.0009.00098-.0468.00293c-.2093.01209-.4166.03187-.6162.06543-.3167.06083-.6214.15977-.9053.29785-.2403.11689-.4747.32184-.6631.53418-.0917.1034-.1665.20156-.2197.2793-.0615.08974-.0736.12365-.0664.10449l-.4366 1.16016-.4912-1.13867c-.1603-.37172-.4012-1.02539-.5429-1.7627-.1399-.7275-.1957-1.59826.0781-2.36719l.0273-.07519.0479-.0625c.3969-.51387.9125-.93349 1.4931-1.22071l.001-.00097c.6446-.31671 1.3504-.51813 2.0723-.57813l.2119-.01367c.071-.00317.142-.00545.2129-.00586h.0498c.053-.00015.1068.0006.1602.00195z" fill="#842028"/><path d="m12.112 5.18806c-.3202.89967.7833 3.27964 1.216 4.18976l.001.00195c.484 1.02473.9458 1.81243 1.8261 2.81743l.0088.0097c1.3968 1.6763 2.8262 3.2756 4.25 4.9551 1.7073 2.0125 3.4134 4.0258 5.1186 6.0401.1464.173.1829.4138.0942.6224l-1.8143 4.2664c-.1745.4104-.72.4937-1.0091.1541-2.7687-3.2533-5.5369-6.5073-8.28-9.7822l-.001-.001c-.7002-.8416-1.3954-1.6943-2.0654-2.5693-.6772-.8639-1.2134-1.8468-1.54882-2.9014l-.00196-.0059c-.12006-.3927-.19995-.8023-.22754-1.2197l-.01074-.1689c-.01559-.3906.04228-.7936.19922-1.1729.46144-1.21243.90394-2.41119 1.36524-3.62987.1048-.28045.2255-.62058.4043-.93652.0934-.1712.199-.3348.3154-.48926z" fill="#b75c64"/><path d="m19.8848 5.18806c.3202.89966-.7833 3.27963-1.216 4.18975l-.001.00195c-.484 1.02474-.9458 1.81244-1.8262 2.81734l-.0087.0098c-1.3968 1.6763-2.8262 3.2756-4.25 4.9551-1.7073 2.0124-3.41343 4.0258-5.11858 6.0401-.14647.173-.18291.4138-.09419.6224l1.81427 4.2664c.17454.4104.72001.4937 1.0091.1541 2.7687-3.2533 5.5369-6.5073 8.28-9.7822l.001-.001c.7002-.8416 1.3954-1.6943 2.0654-2.5693.6772-.8639 1.2134-1.8468 1.5488-2.9014l.002-.0059c.12-.3927.1999-.8023.2275-1.2197l.0108-.1689c.0155-.3906-.0423-.7936-.1993-1.1729-.4614-1.21244-.9039-2.4112-1.3652-3.62988-.1048-.28045-.2255-.62058-.4043-.93652-.0935-.1712-.199-.33479-.3154-.48926z" fill="#b75c64"/><path d="m19.4716 17.2344c.3253.3834.6974.8211 1.1797 1.3906l.2695.3184-.2647.3222c-.1652.2011-.3309.4019-.497.6016l-.001.001c-.5892.7034-1.3699 1.6305-2.3418 2.7802l-.3818.4512-.3819-.4512c-.372-.4393-.7229-.8539-1.0526-1.2437z" fill="#ad5159"/></svg>