<svg height="32" viewBox="0 0 32 32" width="32" xmlns="http://www.w3.org/2000/svg"><path d="m25.7637916 17.1586709.0426058.0346574.0346573.0426057c1.020154 1.5685625 1.6613102 2.7374057 1.9234685 3.5065294l.0266382.0808766c.3692677 1.1632688-.2312006 2.4200058-1.3411835 2.8070007-.2156203.0751759-.6060894.1135132-.8333286.1135132s-.6177083-.0383373-.8333287-.1135132c-1.0829101-.377556-1.6808569-1.582945-1.366479-2.7217307l.0252956-.08527.0266381-.0808766c.2434328-.7141863.8136545-1.7730287 1.7106651-3.176527l.2128035-.3300024c.0812644-.1239357.247612-.1585275.3715477-.0772631zm-10.7035323-10.57640149c.1194267.11363649.2028896.25981446.240048.42042343l.0570381.24653387c.2551748 1.10293414-.070645 2.25980138-.8639163 3.06745149l-1.4621877 1.488609 11.5467879.3322152c.7298427.0193249 1.311451.616537 1.311451 1.3466354 0 .7245483-.5873624 1.3119107-1.3119106 1.3119107h-5.4530944c.7461085 0 1.3509489.6048404 1.3509489 1.3509489 0 .7022198-.5357756 1.2793024-1.2208435 1.3447647l-.1301054.0061842-.5433213-.0009404c.3694775.2410851.6136797.6581338.6136797 1.1322191 0 .7022197-.5357756 1.2793024-1.2208435 1.3447647l-.1301054.0061842-.5177496-.0008078c.3693638.2411054.6134765.6580881.6134765 1.1320865 0 .7022197-.5357756 1.2793024-1.2208435 1.3447646l-.1301054.0061843h-6.0638976l-.2744206-.0019948-.4955039-.0123732c-1.00605843-.0422685-1.61435531-.1995433-2.62840547-.7549196l-.24158003-.1353595c-.92501837-.5289695-1.67616642-.7934543-2.25344416-.7934543-.29261124.0064134-.540039-.2017535-.59179329-.4804662l-.00993922-.1082222v-5.9672377c-.0079268-.2320325.05587492-.4283243.19140517-.5888756.03331796-.039469.07310592-.0686083.12110972-.093602l.10747936-.046292.29310039-.1033929c.23426817-.0883908.55178991-.23525.98567158-.557843l.39665102-.3112492.57157541-.4522883.32763807-.2492712c.32005345-.2368242.63388942-.4464536 1.09033488-.7202001l.24079588-.1426391c.75836438-.4442514 1.50401841-.8865997 2.23696209-1.32704486.6487959-.38987856 1.242089-.86541642 1.7638604-1.41377407l1.5129511-1.5900419c.320727-.33706935.8539764-.3503174 1.1910457-.02959036z" fill-rule="evenodd"/></svg>