<svg height="32" viewBox="0 0 32 32" width="32" xmlns="http://www.w3.org/2000/svg"><g fill="none" fill-rule="evenodd"><path d="m14.3048714 10.6094911-.0494925.0039936c-.1449779.0236472-.2556306.1494662-.2556306.3011296l-.000339 3.084795-3.084795.000339c-.1685149 0-.3051232.1366083-.3051232.3051231v3.3902572l.0039936.0494925c.0236472.1449779.1494662.2556306.3011296.2556306l3.084795-.0001695.000339 3.0853035c0 .1685149.1366083.3051232.3051231.3051232h3.3902572l.0494925-.0039936c.1449779-.0236472.2556306-.1494662.2556306-.3011296l-.0001695-3.0853035 3.0853035.0001695c.1685149 0 .3051232-.1366083.3051232-.3051231v-3.3902572l-.0039936-.0494925c-.0236472-.1449779-.1494662-.2556306-.3011296-.2556306l-3.0853035-.000339.0001695-3.084795c0-.1685149-.1366083-.3051232-.3051231-.3051232z" fill="#b75c64"/><g fill-rule="nonzero"><path d="m11.7288422 24.9338302c.3615437.3615438.3615437.9477221 0 1.3092658-.1736195.1736195-.409098.2711579-.6546329.2711579h-4.86267243c-.5113001 0-.92579073-.4144907-.92579073-.9257908v-4.8626724c0-.5113001.41449063-.9257907.92579073-.9257907.24553497 0 .48101346.0975384.6546329.2711578z" fill="#6ec28c"/><path d="m24.9338302 20.0711578c.3615438-.3615437.9477221-.3615437 1.3092658 0 .1736195.1736195.2711579.409098.2711579.6546329v4.8626724c0 .5113001-.4144907.9257908-.9257908.9257908h-4.8626724c-.5113001 0-.9257907-.4144907-.9257907-.9257908 0-.2455349.0975384-.4810134.2711578-.6546329z" fill="#f8c31c"/><path d="m25.5884631 5.28574614c.5113001 0 .9257908.41449063.9257908.92579073v4.86267243c0 .5113001-.4144907.9257907-.9257908.9257907-.2455349 0-.4810134-.0975384-.6546329-.2711578l-4.8626724-4.86267243c-.3615437-.36154377-.3615437-.94772204 0-1.3092658.1736195-.17361945.409098-.27115783.6546329-.27115783z" fill="#e09bb8"/><path d="m11.0742093 5.28574614c.5113001 0 .9257907.41449063.9257907.92579073 0 .24553497-.0975384.48101346-.2711578.6546329l-4.86267243 4.86267243c-.36154377.3615437-.94772204.3615437-1.3092658 0-.17361945-.1736195-.27115783-.409098-.27115783-.6546329v-4.86267243c0-.5113001.41449063-.92579073.92579073-.92579073z" fill="#6ad1eb"/></g></g></svg>