<svg fill="none" height="32" viewBox="0 0 32 32" width="32" xmlns="http://www.w3.org/2000/svg"><path clip-rule="evenodd" d="m13 8.04785c.5408.00727.9904.02232 1.3721.05078.6594.0492 1.1577.14229 1.6133.33203.6921-.20689 1.522-.24511 2.6601-.24511l1.1953-.02246c1.4407-.03201 3.5047-.05535 5.1748.27246.6673.131 1.2899.32064 1.8164.55664.5175.232.9839.5275 1.2979.89258.3258.37883.5242.88743.3359 1.44333-.1717.5064-.6196.9023-1.1943 1.2188-1.9 1.0461-3.5953 2.3192-5.2656 3.5498-1.6549 1.2191-3.2958 2.4052-5.0303 3.2041-1.4041.6466-2.5703.8732-3.4707.6045-.0022.0037-.0036.0079-.0059.0117-.2245.3786-.6091.885-1.2656 1.4775-.6364.5744-1.1342.9527-1.6807 1.2715-.5382.314-1.10892.5611-1.86618.8809-1.12597.4754-2.1637.9066-2.63086 1.0996-.24481.1011-.50609.1513-.76855.1514h-.38281c-.00557 0-.01107-.0019-.0166-.002-.00311-.0002-.00618.0002-.00879 0-.01162-.0009-.02183-.0017-.02442-.002h.00293c-.85453-.0384-1.53512-.7402-1.53515-1.6044v-7.3477c0-2.402.76978-4.3675 2.16211-5.7324 1.3902-1.36277 3.34129-2.06837 5.59572-2.06838zm-1.4678 12.35745c-.4498.1269-.8647.2121-1.2568.2724-.44084.0679-.8557.1075-1.2295.1485-.38076.0418-.72749.0855-1.07324.1611-1.10039.2408-2.13278 1.1579-2.38379 2.5518.00247-.001.00535-.001.00781-.002.46482-.192 1.50034-.6216 2.62305-1.0957.76617-.3235 1.26718-.5423 1.72851-.8115.45306-.2643.88286-.5867 1.48046-1.126.0361-.0326.0696-.0669.1035-.0986zm-.4521-11.16507c-2.00402.00002-3.63164.62442-4.75588 1.72657-1.12206 1.1001-1.80274 2.7349-1.80274 4.875v7c.00424-.0144.00931-.0286.01368-.043.02248-.074.04638-.147.07226-.2187.00792-.022.01619-.0437.02442-.0655.03054-.0807.06199-.1605.09668-.2382.00915-.0205.01986-.0403.02929-.0606.03406-.0733.06983-.1453.10742-.2158.00432-.0081.00834-.0164.0127-.0244.03957-.0731.08083-.1448.12402-.2149.01402-.0227.02859-.045.04297-.0673.04393-.0684.08851-.136.13574-.2012.06661-.092.13725-.1801.20996-.2656.01659-.0195.03488-.0375.05176-.0567.05552-.063.11131-.1253.16992-.1845.0253-.0256.05131-.0504.07715-.0752.05333-.0514.10852-.1002.16407-.1485.02669-.0232.05289-.0468.08007-.0693.0635-.0525.12836-.1029.19434-.1514.02026-.0149.04006-.0304.06055-.0449.08621-.0611.17386-.1196.26367-.1738.02646-.016.05431-.0296.08105-.045.06193-.0356.12416-.0702.1875-.1025.0378-.0193.076-.0376.11426-.0557.06008-.0284.12053-.0556.18164-.081.03728-.0155.07468-.0305.11231-.0449.06013-.0231.12072-.0443.18164-.0645.03718-.0123.07388-.0259.11133-.0371.09754-.0292.19595-.0545.29492-.0762.41129-.0899.81055-.1391 1.19824-.1816.39454-.0433.77128-.0799 1.17876-.1426.622-.0958 1.3072-.2557 2.1259-.5937-.1313-.2216-.2301-.4649-.3027-.7217-.0055-.0194-.0104-.039-.0156-.0586-.0184-.0693-.036-.1391-.0508-.21-.0025-.012-.0054-.024-.0078-.0361-.0492-.246-.0775-.5003-.0908-.7559-.0063-.119-.0098-.2383-.0098-.3574 0-.8196.0035-1.6288.0967-2.4258.0602-.5145.1592-1.0234.3173-1.5273.1072-.3416.2441-.6793.4141-1.0156.0319-.063.0614-.1277.0957-.1905l.2266-.3828c.1615-.2535.3456-.5055.5556-.7558.1723-.2054.3356-.3953.4932-.57133.188-.21074.3673-.40302.5498-.57324-.0664-.00662-.1359-.01506-.209-.02051-.7076-.05276-1.6863-.05469-3.2021-.05469zm13.7051.37305c-2.0747-.40726-4.7873-.22851-6.1397-.22851-1.3066 0-1.9827.06098-2.4814.25097-.0675.02559-.1331.05318-.1973.08496-.4646.23102-.867.6398-1.5986 1.5117-1.3725 1.6358-1.4268 3.3258-1.4268 5.5264 0 .1289.0032.2509.0107.3662.0118.1776.0361.3388.0645.4854.0258.1341.0554.2559.0938.3652.1065.3025.2586.5119.4423.6396.0044.0031.0084.0066.0127.0098.0099.0067.0192.0143.0293.0205.4031.2481 1.2412.3197 2.8789-.4346 1.6063-.7397 3.1527-1.8514 4.8203-3.08 1.6524-1.2174 3.4161-2.5428 5.3995-3.6348.4732-.2606.6063-.4663.6357-.5527.0124-.0366.0324-.1126-.1084-.2764-.1529-.1777-.4427-.3841-.8799-.5801-.4282-.19194-.9602-.35668-1.5556-.47362z" fill="#000" fill-rule="evenodd"/></svg>