<svg height="32" viewBox="0 0 32 32" width="32" xmlns="http://www.w3.org/2000/svg"><g fill="none" transform="translate(5 3)"><path d="m14.8031752 6.45992809.0316917.04357347c.8197476 1.15066319 1.6894073 1.86817928 2.6058455 2.18303967 1.3109006.45038569 2.4680646.63186741 3.4706305.5547091l.0855556-.00724674c.9671961-.08947464 1.389868 1.23414291.5620094 1.75995991-.9868627.626809-2.3670167.8163645-4.1587713.6005702l-.1785799-.0227172c.5336332.6755829 1.187919 1.2981877 1.9698406 1.8481372.8987402.6321117.1815142 2.0724479-.836569 1.6800011-2.9946359-1.1543609-5.9205051-3.3093267-7.729487-6.06779019l-.2501828.060921-.38174981.09086858-.27515601.06398187-.1781491.04066954-.25932372.05802734-.24988274.05445573-.24048554.05088494-.23113212.04731498-.22182249.04374585-.21255663.04017754-.20333458.03661007-.19415629.03304341-.1850218.02947759-.17593109.0259126-.11225862.01529492-.10825074.01371109-.10425583.0121275-.10027389.01054416-.09630493.00896107-.09234894.00737822-.08840592.00579561-.1252441.00572657-.07860514.00184018-.03784016.00032691c-1.07536522.00371978-1.28069511-1.58100289-.24245363-1.87124132 1.92208615-.53731553 3.63163459-1.23389821 5.12979792-2.08810392l.1398335-.08054352c1.1349243-.66038227 2.5629281-.3547145 3.3533291.70985497zm-4.2779544-6.45992809c1.3547545 0 2.453 1.08202303 2.453 2.41676609 0 1.33474305-1.0982455 2.41676609-2.453 2.41676609-1.35475448 0-2.45299999-1.08202304-2.45299999-2.41676609 0-1.33474306 1.09824551-2.41676609 2.45299999-2.41676609z" fill="#d6b755"/><path d="m19.5076305 14.6111919-.0366491.0728506c-.2032928.3676856-.6246647.6053694-1.1161531.4159123-2.9946359-1.1543609-5.9205051-3.3093267-7.729487-6.06779019l-1.08523772.25644099-.50920646.11248307-.47161766.09819992-.43437912.08392339-.39749087.06965348-.36095289.05539019-.32476519.04113351-.28892776.02688345-.08840592.00579561-.2416894.00789366c-1.07536522.00371978-1.28069511-1.58100289-.24245363-1.87124132 1.85506604-.51858018 3.51215767-1.18551437 4.97231112-1.9993245 1.7847244 3.10381775 4.5703683 6.00132844 8.3551047 8.69179584zm-8.9370273-9.77865436-.0453824.00099464c-1.35475448 0-2.45299999-1.08202304-2.45299999-2.41676609 0-.80298142.39747983-1.51449777 1.00916599-1.95398272.29444479 1.4985107.79121949 2.9549822 1.4892164 4.36975417z" fill="#c1a13d"/><path d="m14.2125809 10.2696802c-.9731033 2.5588064-2.4877398 4.9561502-4.53705169 7.1913305 1.67761049 2.5620407 2.73527679 5.4747794 3.08089819 8.5389893h-6.75508647c-.31241494-1.8222801-1.00804628-3.5441959-2.04266999-5.0740857l-.06522836-.0955463c-.55265281-.9958913-.3121487-2.2722425.57160981-3.0251852l.03905165-.0325842 1.87846689-1.5348415.12495314-.1055666c2.37074197-2.0143435 4.19261363-4.2417287 5.47372063-6.68455359l.0681134-.13107173c.6807337-1.32204456 2.6915309-.43608816 2.1632228.95311502zm-11.63356722 1.0419282c1.42434992 0 2.57901367 1.1477347 2.57901367 2.5635373 0 1.4158025-1.15466375 2.5635373-2.57901367 2.5635373-1.42434993 0-2.57901368-1.1477348-2.57901368-2.5635373 0-1.4158026 1.15466375-2.5635373 2.57901368-2.5635373z" fill="#8556a3"/></g></svg>