<svg height="32" viewBox="0 0 32 32" width="32" xmlns="http://www.w3.org/2000/svg"><path d="m21.1676203 17.4684048c2.8494325-2.8485302 2.8494325-7.48344485 0-10.33197498-2.8494325-2.84857309-7.4857651-2.84857309-10.3352406 0-2.84943245 2.84853013-2.84943245 7.48344478 0 10.33197498 1.206134 1.2057472 2.7324285 1.9009393 4.3077933 2.0859629v2.4459126h-1.7195251c-.4748481 0-.8597626.3848285-.8597626.8595047 0 .4746763.3849145.8595048.8597626.8595048h1.7195251v2.4212055c.000043.4746762.3849574.8595047.8598485.8595047.4748481 0 .8597625-.3848285.8597625-.8595047v-2.4212055h1.7195681c.4748481 0 .8597626-.3848285.8597626-.8595048 0-.4746762-.3849145-.8595047-.8597626-.8595047h-1.7195681v-2.4458696c1.5754078-.1850666 3.1017023-.8802587 4.3078363-2.0860059zm-9.1193097-1.2155442c-2.17899042-2.1783029-2.17899042-5.7226267 0-7.90092959 2.1789474-2.17821697 5.7243454-2.17834588 7.9034218 0 2.1789904 2.17830289 2.1789904 5.72262669 0 7.90092959-2.1789904 2.1782599-5.7244314 2.1782599-7.9034218 0z"/></svg>