<svg height="32" viewBox="0 0 32 32" width="32" xmlns="http://www.w3.org/2000/svg"><path d="m13.4105929 14.428452c-.7582858.7598118-1.2271489 1.8085729-1.2271489 2.9668428l-.0004597 8.3201572-7.12200004.0042635v-8.2905991c0-1.6568542 1.34314575-3 3-3zm15.3641408-6.76909934c.7516252 0 1.3609379.60931265 1.3609379 1.36093789v1.17278965c0 .7516253-.6093127 1.3609379-1.3609379 1.3609379h-.0627161c-.6721763 0-1.2250373-.5108499-1.2915192-1.1654862l-.0067026-.1327356-.1448444-.0007854c.0032805.0614936.0018111.1240166-.0047335.1871571l-.5656614 5.4573837c-.0141144.1361728-.0417415.2681727-.0815131.394658-.1692579-.0381702-.3444138-.0571816-.52401-.0571816h-.9220344c-1.0692306 0-1.9810751.6738498-2.3340269 1.6200427l-.7998125.067544c-.2505163.0210225-.4464689.2247846-.4576903.4759308l-.3252925 7.2804209-7.8707328.0049274v-8.2905991c0-1.6568542 1.3431458-3 3-3h6.9334208c.4866479 0 .9026379-.3503301.9854242-.8298847l.5696953-3.3025399-.1983737.00177c0 .7169881-.5812337 1.2982219-1.2982218 1.2982219h-.0627161c-.7516252 0-1.3609379-.6093127-1.3609379-1.3609379v-1.17278972c0-.75162524.6093127-1.36093789 1.3609379-1.36093789h.0627161c.6721763 0 1.2250373.51084994 1.2915192 1.16548618l.0067026.13273564 2.7401852-.00884393c0-.71698811.5812337-1.29822182 1.2982218-1.29822182zm-2.6817003 9.77767544c.7126249 0 1.2903215.5776966 1.2903215 1.2903215v.6903215c0 .3313708-.2686292.6-.6.6h-2.3026774c-.3313709 0-.6-.2686292-.6-.6v-.6903215c0-.7126249.5776966-1.2903215 1.2903215-1.2903215zm-8.6035728-10.75415785c1.6172722 0 2.9282371 1.31102696 2.9282371 2.92823711 0 1.61721014-1.3109649 2.92823714-2.9282371 2.92823714-1.6172101 0-2.9282991-1.311027-2.9282991-2.92823714 0-1.61721015 1.311089-2.92823711 2.9282991-2.92823711zm-7.55753724 0c1.61727214 0 2.92823714 1.31102696 2.92823714 2.92823711 0 1.61721014-1.310965 2.92823714-2.92823714 2.92823714-1.61721015 0-2.9282991-1.311027-2.9282991-2.92823714 0-1.61721015 1.31108895-2.92823711 2.9282991-2.92823711z" fill-rule="evenodd"/></svg>