<svg height="32" viewBox="0 0 32 32" width="32" xmlns="http://www.w3.org/2000/svg"><g fill="none" fill-rule="evenodd"><path d="m16.6003842 12.7793401c.7693413.017712 1.5380934.069474 2.303991.1552862l.6426726.0800962c2.4697363.3389863 4.4633577 2.1669768 5.0265074 4.5779307l.0515114.2430051 1.5807573 8.2939216c.1296009.6799902-.2854113 1.3453316-.9531045 1.528003-.6142048.1680377-1.2478959-.1569009-1.4780187-.7364336l-.0405184-.1192305-2.3159298-8.1310028v7.3102265c0 1.0543618-.8158778 1.9181651-1.8507377 1.9945143l-.1492623.0054857-5.6022012.0011062c-.1925749-.0846647-.3270498-.2771126-.3270498-.5009689 0-.2718808.1983626-.4974315.4582586-.5398229l.0887233-.007159h3.9134099l.144479-.0058397c.9053267-.0734906 1.6171262-.8315032 1.6171262-1.7557656 0-.9242623-.7117995-1.6822749-1.6171262-1.7557655l-.144479-.0058397h-3.9280332l-.0863513-.0069677c-.2529478-.041258-.4460073-.2607787-.4460073-.5253909s.1930595-.4841329.4460073-.5253909l.0863513-.0069677 4.6741759.0007605c.5236595 0 .9481695-.4245099.9481695-.9481695 0-.4862553-.3660315-.8870193-.8375929-.9417905l-.1105766-.006379-2.0961696-.0009997v-2.953h.997l.0004911.4629131.006819.1546906c.0677484.7655566.6336783 1.4046188 1.3998601 1.5550663.6391735.125508 1.2590704-.2909001 1.3845785-.9300736l.0165625-.1130901.0055381-.1141623v-1.3327578l-.0063288-.1794725c-.0588093-.8321669-.5238352-1.5832636-1.2425195-2.0068825l-.1578308-.0856733-.2500422-.1245264-.1004273-.0418562c-.3392254-.1151423-.7160293.0111226-.9173865.3074112l-.0549307.0939158-.0462722.114197c-.0165713.0521108-.0277676.1058196-.0333906.1602834l-.0042296.0821565-.0004911.7978608h-.997zm-1.2006921-.0000008-.0003257 3.5174527h-1.037l.0003582-.7978608c0-.1237679-.0287172-.2458479-.0838924-.3566369-.1805513-.3625373-.5991693-.5279836-.9723172-.401327l-.1004273.0418562-.2500422.1245264c-.8080103.4024063-1.3373404 1.2009484-1.4003503 2.0925558l-.0063288.1794725v1.3327578c0 .0762873.0074015.1523946.0221006.2272524.1255081.6391735.745405 1.0555816 1.3845785.9300736.7661818-.1504475 1.3321117-.7895097 1.3998601-1.5550663l.006819-.1546906-.0003582-.4629131h1.037l.0006336 3.6487231-1.3786399.0008551-.1494745.0063588c-.8867747.0757854-1.5828841.8196001-1.5828841 1.7259998s.6961094 1.6502143 1.5828841 1.7259998l.1494745.0063588h3.9280332l.0910952.0073505c.2668442.0435246.47051.2751053.47051.5542547s-.2036658.5107302-.47051.5542548l-.0910952.0073505h-3.9134099l-.1432796.0057912c-.8978115.0728805-1.6037023.8246008-1.6037023 1.7411907 0 .1690269.0240048.3324471.0687914.4870376-.9985181-.1102513-1.776007-.9579169-1.776007-1.9871749v-7.3102265l-2.3159299 8.1310028c-.18606246.653247-.86338524 1.0349044-1.51853703.8556641-.66769324-.1826714-1.08270545-.8480128-.95310456-1.528003l1.58075735-8.2939216c.46672453-2.4488115 2.3957326-4.3448608 4.83266754-4.7821073l.2453889-.0388336c.9780887-.1342486 1.9618937-.212708 2.9466639-.2353781zm.6003462-8.76158798c2.0006066 0 3.6223034 1.62177349 3.6223034 3.62230334 0 2.00052984-1.6216968 3.62230334-3.6223034 3.62230334-2.0005298 0-3.62238-1.6217735-3.62238-3.62230334 0-2.00052985 1.6218502-3.62230334 3.62238-3.62230334z" fill="#00c3a7"/><path d="m16.5997772 12.7793263c.7695567.017699 1.5385054.069466 2.304598.1553l.6426726.0800962c2.4697363.3389863 4.4633577 2.1669768 5.0265074 4.5779307l.0515114.2430051 1.5807573 8.2939216c.1296009.6799902-.2854113 1.3453316-.9531045 1.528003-.6142048.1680377-1.2478959-.1569009-1.4780187-.7364336l-.0405184-.1192305-2.3159298-8.1310028v7.3102265c0 1.0543618-.8158778 1.9181651-1.8507377 1.9945143l-.1492623.0054857-3.4182525-.0007123-.0006336-1.0471039 1.9500269.0009716.144479-.0058397c.9053267-.0734906 1.6171262-.8315032 1.6171262-1.7557656 0-.9242623-.7117995-1.6822749-1.6171262-1.7557655l-.144479-.0058397-1.9500269-.0007611v-1.064l2.6961696.0008044c.4862553 0 .8870194-.3660315.9417905-.8375929l.006379-.1105766c0-.4862553-.3660315-.8870193-.8375929-.9417905l-.1105766-.006379-2.0961696-.0009997v-2.953h.997l.0004911.4629131.006819.1546906c.0677484.7655566.6336783 1.4046188 1.3998601 1.5550663.6391735.125508 1.2590704-.2909001 1.3845785-.9300736l.0165625-.1130901.0055381-.1141623v-1.3327578l-.0063288-.1794725c-.0588093-.8321669-.5238352-1.5832636-1.2425195-2.0068825l-.1578308-.0856733-.2500422-.1245264-.1004273-.0418562c-.3392254-.1151423-.7160293.0111226-.9173865.3074112l-.0549307.0939158-.0462722.114197c-.0165713.0521108-.0277676.1058196-.0333906.1602834l-.0042296.0821565-.0004911.7978608h-.997zm-.6004108 11.831 1.9500269.0007611.0910952.0073505c.2668442.0435246.47051.2751053.47051.5542547s-.2036658.5107302-.47051.5542548l-.0910952.0073505-1.9500269-.0009716zm.0006719-20.59257498c2.0006066 0 3.6223034 1.62177349 3.6223034 3.62230334 0 2.00052984-1.6216968 3.62230334-3.6223034 3.62230334z" fill="#00a088"/></g></svg>