<svg height="32" viewBox="0 0 32 32" width="32" xmlns="http://www.w3.org/2000/svg"><g fill="none" fill-rule="evenodd"><path d="m13.080376 26.6022984c-3.79404973-1.322793-5.8889973-5.5459561-4.78755306-9.5357697l.08862495-.2987495.09332857-.2833566c.85288324-2.5022008 2.85069404-6.2119274 5.99343234-11.12917995l.7455714-1.15618596c.2847156-.43421719.8675258-.55541217 1.301743-.27069658.1078424.07071211.1999845.16285418.2706966.27069658 3.5741795 5.49556618 5.8205141 9.59068811 6.7390037 12.28536591l.0933286.2833566c1.2937546 4.0755922-.8100271 8.4786564-4.6989281 9.8345192-.7554408.2633839-2.1234758.3977016-2.919624.3977016s-2.1641832-.1343177-2.919624-.3977016z" fill="#b75c64"/><path d="m15.9888087 3.77438806c.1807724-.00231651.3641563.04738291.5267145.15397205.0718949.04714141.1368119.10380724.1930533.16829983l.0776433.10239675.6352189.98376196.6059551.95289817.5766913.92203439.5474276.89117061c.0887992.14595645.1763792.29062691.2627398.43401138l.5035318.84487493.474268.81401117.4450043.7831473.4157404.7522836c.2005542.3684259.3901346.7252778.568741 1.0705558l.3425809.6751241c.0546582.1099487.108097.2186114.1603165.3259881l.2986853.6288285c.3787377.817862.6794387 1.5534207.9021028 2.2066759l.0933286.2833566c1.2937546 4.0755922-.8100271 8.4786564-4.6989281 9.8345192-.7554408.2633839-2.1234758.3977016-2.919624.3977016z" fill="#8f2d35"/><path d="m18.8188495 21.2992491c.3313709 0 .6.2686291.6.6 0 .2982337-.2175896.5456467-.5026769.592147l-.0973231.007853h-5.637699c-.3313709 0-.6-.2686292-.6-.6 0-.2982338.2175896-.5456468.5026769-.592147l.0973231-.007853zm-2.8188495-9.588217c.2982338 0 .5456468.2175896.592147.5026769l.007853.0973231-.0008495 2.218 2.219699.0008495c.3313709 0 .6.2686292.6.6 0 .2982338-.2175896.5456468-.5026769.592147l-.0973231.007853-2.219699-.0008495.0008495 2.219699c0 .3313709-.2686292.6-.6.6-.2982338 0-.5456468-.2175896-.592147-.5026769l-.007853-.0973231-.0008495-2.219699-2.218.0008495c-.3313709 0-.6-.2686291-.6-.6 0-.2982338.2175896-.5456467.5026769-.592147l.0973231-.007853 2.218-.0008495.0008495-2.218c0-.3313708.2686292-.6.6-.6z" fill="#fff" fill-rule="nonzero"/></g></svg>