<svg height="32" viewBox="0 0 32 32" width="32" xmlns="http://www.w3.org/2000/svg"><g fill="none" fill-rule="evenodd"><path d="m25.2100152 6.97223798c-2.212372-1.41669334-4.593643-1.27986082-6.5335973.37591603-.5229284.44634284-.9850169.93864119-1.4317819 1.41474022-.185925.19795334-.3615209.38510714-.5421111.57007805-.1053349.10799543-.2013621.21438243-.2942111.31732276-.1227015.13614318-.2385925.26458882-.3513053.36798866-.053916.0495171-.0757094.0443471-.1233825.0009192-.1114642-.1016766-.2270147-.23092646-.3492622-.36775897-.0982973-.10994855-.1999999-.22368842-.3129398-.33892185-.178093-.18175403-.3535754-.36638027-.5291713-.55123629-.4598183-.48391147-.9351871-.98425203-1.46538-1.44185397-1.1728716-1.01217-2.5523266-1.45115997-3.98932979-1.26917617-1.97877385.2505724-3.70408576 1.45989151-4.61532287 3.23480801-.90908047 1.77078054-.89534608 3.88909954.03654937 5.66642864.63496019 1.2110425 1.39591355 2.3420075 2.2616342 3.3617601 2.11770686 2.4942351 4.66583369 4.784083 8.26242789 7.4246863.137344.1008724.4120318.2620613.762883.2620613.2322361 0 .4978433-.0706566.7790011-.2759628 2.8265603-2.0650106 5.0457427-3.9714748 6.9842215-5.999721 1.4400679-1.5067661 2.5454026-2.9780316 3.3791142-4.4978951.6080589-1.1089063.8817252-2.1074045.8608398-3.1422076-.0518729-2.21011515-1.0162314-3.97664477-2.7888759-5.11197552z" fill="#b75c64"/><path d="m25.2100152 6.97223798c-2.212372-1.41669334-4.593643-1.27986082-6.5335973.37591603-.5229284.44634284-.9850169.93864119-1.4317819 1.41474022-.185925.19795334-.3615209.38510714-.5421111.57007805-.1053349.10799543-.2013621.21438243-.2942111.31732276-.1227015.13614318-.2385925.26458882-.3513053.36798866-.0181962.0167116-.0397665.0284745-.064711.0352887l.003417 15.9464276c.3318956-.0471044.5915626-.139092.7790011-.2759628 2.8265603-2.0650106 5.0457427-3.9714748 6.9842215-5.999721 1.4400679-1.5067661 2.5454026-2.9780316 3.3791142-4.4978951.6080589-1.1089063.8817252-2.1074045.8608398-3.1422076-.0518729-2.21011515-1.0162314-3.97664477-2.7888759-5.11197552z" fill="#8f2d35"/><path d="m13.7243751 12.0189407c.3827432.0715748.6957365.3390903.8290293.6983435l.0376245.1230058 1.5649711 6.439113 1.2159802-2.8456688c.2796568-.6548301 1.0073398-.9808864 1.6727421-.7732934l.1320988.0486946c.2322358.0991804.4317539.2599683.5777313.4636842l.0809949.1272314.3416559.6078816c.084226.1498568.2524132.2263952.4160365.1983615l.0810214-.0228758 1.3710167-.5475653c.2453984-.0980088.5039389-.1578915.7666567-.1779243l.1976815-.0075257 3.4562643.0003614c-.2601083.4014497-.5407696.8009163-.8431913 1.2000092l-2.613073-.0003706c-.1333935 0-.2658707.0190633-.3934541.0564249l-.1258049.0434328-1.3710167.5475653c-.6984377.2789464-1.4893157.0325735-1.9093144-.5755444l-.0789174-.1263984-.3416558-.6078815c-.018918-.0336593-.0484237-.0601277-.0839325-.0752923-.0711987-.0304067-.1513324-.0100332-.1999982.0448996l-.0299678.0474261-1.3333172 3.1220271c-.1361879.3188906-.4147668.5548973-.7517025.636828-.5509575.1339732-1.1059176-.1725924-1.2941691-.6940085l-.0345916-.1149383-1.5267738-6.2805404-.7304439 3.9072491c-.0377383.2018037-.114395.3938082-.2251779.565498l-.0894109.1247939c-.509588.6427465-1.4187653.7821517-2.0933174.3449285l-.1235742-.0887546-.72494604-.5747583c-.20621372-.1634922-.45344229-.2648839-.71287446-.2941397l-.15689325-.0088169-2.3203832-.0000394c-.29352334-.38677-.57273677-.7870321-.83664336-1.199324l3.15702656-.0006366c.52130974 0 1.02900879.1566654 1.45815995.4473775l.1571229.1152563.7249461.5747582c.1635922.1297006.4013529.102226.5310535-.0613661.0254613-.0321145.045445-.0680458.0592865-.1063361l.0160728-.0590225.8159152-4.3630733c.1116719-.5971613.6862949-.9907283 1.2834562-.8790563z" fill="#fff" fill-rule="nonzero"/></g></svg>