<svg height="32" viewBox="0 0 32 32" width="32" xmlns="http://www.w3.org/2000/svg"><g fill="none" fill-rule="evenodd"><path d="m11.4999808 27.9811425-.4182141-9.3102265-2.31592987 8.1310028c-.18606246.653247-.86338524 1.0349044-1.51853704.8556641-.66769323-.1826714-1.08270544-.8480128-.95310456-1.528003l1.80771379-9.5635701c.3970957-2.1008042 2.08599198-3.7166688 4.20228748-4.0205711l.0787219-.0113045c2.3995983-.3445849 4.8355952-.3519162 7.2372241-.0217809l.0773401.0106314c2.1354803.2935496 3.842447 1.9226319 4.2353337 4.0420864l1.7729885 9.5645088c.1296008.6799902-.2854114 1.3453316-.9531046 1.528003-.6142048.1680377-1.2478958-.1569009-1.4780187-.7364336l-.0405183-.1192305-2.3159299-8.1310028-.4182141 9.3047408z" fill="#c393e1"/><path d="m19.6201425 12.5123533.0773401.0106314c2.1354803.2935496 3.842447 1.9226319 4.2353337 4.0420864l1.7729885 9.5645088c.1296008.6799902-.2854114 1.3453316-.9531046 1.528003-.6142048.1680377-1.2478958-.1569009-1.4780187-.7364336l-.0405183-.1192305-2.3159299-8.1310028-.4182141 9.3047408-4.3135426.0024491.2715525-1.560478c.2713193-1.5617533.1671999-3.1638593-.3014374-4.6745121l-.1146128-.3469288-.1296662-.3696832c-.6432107-1.8356161-.7375718-3.8189484-.2704819-5.7070781.1112328-.4501632.2418838-.9122946.3919529-1.3863942l.0070235-1.6628975c1.195811-.0017576 2.3917748.0789736 3.5793353.2422193z" fill="#8556a3"/><path d="m16.0000383 4.01775132c2.0006066 0 3.6223034 1.62177349 3.6223034 3.62230334 0 2.00052984-1.6216968 3.62230334-3.6223034 3.62230334-2.0005298 0-3.62238-1.6217735-3.62238-3.62230334 0-2.00052985 1.6218502-3.62230334 3.62238-3.62230334z" fill="#c393e1"/><path d="m16.0000383 4.01775132c2.0006066 0 3.6223034 1.62177349 3.6223034 3.62230334 0 2.00052984-1.6216968 3.62230334-3.6223034 3.62230334z" fill="#8556a3"/><path d="m16.2708812 26.8135354.1160517.0133328c.5441344.094531.90861.6122717.814079 1.1564062l.0004647-.0065111-2.03.002.05905-.3378161c.0877789-.5052677.5404681-.8556255 1.0403546-.8274118zm.2855359-3.5151157c.5518239-.022557 1.0174516.4064986 1.0400087.9583225.0149802.3664696.011627.7335576-.0100789 1.0998877-.0326668.5513178-.5060799.9717675-1.0573977.9391007s-.9717675-.5060799-.9391007-1.0573977c.0177592-.2997214.0205027-.6000648.0082461-.8999045-.022557-.5518239.4064986-1.0174517.9583225-1.0400087zm-1.0115284-3.3729275c.5240773-.1742453 1.0901797.1093495 1.264425.6334268l.2562834.7428793.0745631.2382599c.1589564.5289152-.1409544 1.0865453-.6698696 1.2455017-.5289152.1589565-1.0865454-.1409543-1.2455018-.6698696-.0391894-.1303995-.0813469-.2599395-.1264509-.3885325l-.186876-.5372407c-.1742453-.5240773.1093495-1.0901796.6334268-1.2644249zm-.1528805-3.566197c.551926.0199035.9832154.4834629.9633118 1.0353889-.0108177.2999758-.0066124.600302.0125895.8998413.0353316.5511535-.3828246 1.0265935-.9339781 1.0619251-.5511534.0353316-1.0265935-.3828246-1.0619251-.933978-.0234698-.366115-.0286098-.7331994-.0153871-1.0998655.0199036-.551926.483463-.9832154 1.035389-.9633118zm-.3116029-2.7280413c.1666672-.5265363.7286196-.8182679 1.255156-.6516008.5265363.1666672.8182679.7286196.6516008 1.2551559-.0987377.3119331-.1885638.6179822-.2694954.9181271-.1437838.5332398-.6926198.8489562-1.2258596.7051724-.5332398-.1437837-.8489563-.6926198-.7051725-1.2258596.088518-.3282799.1864474-.661938.2937707-1.000995z" fill="#fff"/></g></svg>