<svg height="32" viewBox="0 0 32 32" width="32" xmlns="http://www.w3.org/2000/svg"><g fill="none" fill-rule="evenodd"><path d="m12.6450475 15.9024602.1747951.0266149 2.1213626.4039982c.2168446.0412965.4252051.1187488.6163732.2291197.8925317.5153034 1.229216 1.6236333.7996957 2.5399256l-.0787173.1508026-.1820592.3153359c-.7251823 1.2560525-.9482046 2.7363001-.6311155 4.1448221l.0657929.2631851 1.1061521 4.0236063h-2.947l-1.1706346-3.9842757c-.1075648-.3660318-.2511618-.7202437-.4285487-1.0574748l-.1393408-.2496587-1.6129527-2.7285352c-.52936513-.8954952-.53507838-2.0067668-.0149488-2.9076577.4744708-.8218076 1.3894045-1.2764246 2.321146-1.1698083zm4.5675945 3.785537.0406016.0616971.1170959.2320375c.308891.6120987.5209056 1.2676802.6291229 1.9433233l.0454268.3393849.6174379 5.7354306h-.928l-.0476905-.5129823-.1418803-1.4216695-.1344074-1.2495661c-.1129955-1.0061302-.291992-1.7951087-.5369895-2.3669355l-.0841103-.1825662c-.2463973-.4950705-.3434555-1.049364-.2828004-1.5961295l.0301548-.2045538.1162755-.6297104c.0181573-.0983344.0812386-.1825277.170512-.2275788.1352392-.0682474.295952-.0314477.389251.0798187zm-7.1420539-7.2225836c.2479837 1.3746054.1070837 2.7889547-.40359377 4.0845053l-.13816123.3277353c-.10457064.235204-.29797978.4194615-.53797263.5125172-.46579541.1806091-.98565135-.0211658-1.2132693-.452542l-.04718194-.1035546-.15819229-.4079817c-.52514664-1.354366-.34954038-2.8749288.45790039-4.070253l.14041197-.196125.09577199-.12636c.15347681-.2024949.37744417-.339922.62749023-.3850475.55059865-.0993136 1.07746719.2665101 1.17679658.817106zm12.003739-8.46554298-3.6434267 4.60034936c-.9568493 1.20795629-1.3897656 2.74895532-1.2019635 4.27848112l.0443749.3614045c.1325771 1.079754-.6352614 2.0625425-1.7150154 2.1951196-.2190965.0269017-.4411564.0167839-.6568987-.0299304l-2.1105793-.457c-.9854147-.2133701-1.7279698-1.0268219-1.8508446-2.027557-.1267757-1.0325052.3126918-2.0532038 1.1498728-2.6706721l2.5508544-1.88139905c.3837896-.28306646.7309404-.61269917 1.0334828-.98133062l2.7791433-3.38746541z" fill="#ecca63"/><path d="m14.5741841 16.2629273.3670211.070146c.2168446.0412965.4252051.1187488.6163732.2291197.8925317.5153034 1.229216 1.6236333.7996957 2.5399256l-.0787173.1508026-.1820592.3153359c-.7251823 1.2560525-.9482046 2.7363001-.6311155 4.1448221l.0657929.2631851 1.1065813 4.0231568h-2.948l-.0713561-.2436427c-.4821594-3.1274056-.3562447-6.4697482.4803743-9.8252436.141094-.5658972.2998602-1.1219742.4754096-1.6676075zm2.6384579 3.4250699.0406016.0616971.1170959.2320375c.308891.6120987.5209056 1.2676802.6291229 1.9433233l.0454268.3393849.6178671 5.7349811h-.929l-.0471197-.5125328-.1418803-1.4216695-.1344074-1.2495661c-.1129955-1.0061302-.291992-1.7951087-.5369895-2.3669355l-.0841103-.1825662c-.2463973-.4950705-.3434555-1.049364-.2828004-1.5961295l.0301548-.2045538.1162755-.6297104c.0181573-.0983344.0812386-.1825277.170512-.2275788.1352392-.0682474.295952-.0314477.389251.0798187zm.4209852-9.73857613c-.3838231.91658173-.527951 1.92540213-.4046903 2.92928003l.0443749.3614045c.1325771 1.079754-.6352614 2.0625425-1.7150154 2.1951196-.2190965.0269017-.4411564.0167839-.6568987-.0299304l-.0316918-.0076356c.7137307-1.9735921 1.6499736-3.8001458 2.7639213-5.44823813z" fill="#bd9000"/></g></svg>