<svg fill="none" height="32" viewBox="0 0 32 32" width="32" xmlns="http://www.w3.org/2000/svg"><path d="m15.1791 3.52389c.8118-.41641 1.8232-.15875 2.3301.62305 1.3709 2.11495 3.1512 7.47736.0586 12.98146-.3665.6522-.6377 1.2917-.8321 1.9101.6567-.1439 1.3817-.217 2.3399-.2138.6662.0022 1.3754.0995 2.0469.3633.0378-.1684.0428-.3358.0361-.5274-.2321-.0455-.4786-.1157-.7158-.2119-.4606-.1868-.9789-.5016-1.3096-.9932-.1848-.2747-.1124-.647.1621-.832.275-.185.6481-.1119.833.1631.1457.2163.4217.4103.7656.5498.1079.0437.2145.0756.3135.1025.1872-.8307.7432-1.6431 1.6475-1.999.3083-.1213.657.0305.7783.3389.1211.3083-.0306.656-.3389.7773-.6042.2377-.9758.92-.958 1.5449.0107.3746.1046.9526-.1191 1.6123 1.341.5328 2.5808.0866 3.0469-.2207.2766-.1821.6487-.1056.831.1709.1824.2767.1058.6487-.1709.8311-.7813.5152-2.7781 1.1966-4.8047.0176-.4153-.2417-.8887-.3803-1.3847-.4444.0469.2211.1184.4024.207.5538.1613.2755.4057.4978.7588.6865.7324.3912 2.224.8315 3.2959 2.3398.1919.2701.1285.645-.1416.8369-.2701.1918-.645.1285-.8369-.1416-.6351-.8936-1.3747-1.2613-2.1153-1.6054-.0005.454.089.9264.2325 1.3701.228.7051.5524 1.2232.7128 1.3857.2329.2358.23.6158-.0058.8487-.2358.2328-.6158.2309-.8486-.0049-.3411-.3454-.7405-1.0573-1-1.8594-.2228-.6886-.3692-1.5258-.2481-2.3516-.335-.2362-.6224-.5288-.8389-.8984-.2056-.3514-.3341-.7498-.3935-1.1953-.8695.0303-1.4886.1414-2.0879.3252-.4065 2.6029.4644 4.6681 1.0352 5.4638.5791.8077.3946 1.9313-.4131 2.5108-.8075.579-1.9321.3947-2.5118-.4131-1.4382-2.0055-3.1923-7.0621-.1064-12.5547.4635-.825.7737-1.6458.9697-2.4394-.692.1645-1.4502.2504-2.4765.247-.6662-.0022-1.3755-.1002-2.0469-.3642-.0376.1676-.0428.3347-.0361.5254.2325.0454.479.1184.7168.2148.4604.1868.979.5006 1.3095.9922.1849.275.1119.6481-.1631.833-.2749.1846-.6481.1117-.833-.1631-.1455-.2164-.4207-.4113-.7646-.5508-.108-.0438-.2144-.0765-.3135-.1035-.1869.831-.7421 1.644-1.64648 2-.30824.1213-.65685-.0297-.77832-.3379-.12135-.3083.03052-.6569.33887-.7783.60377-.2376.97585-.9199.95801-1.5449-.01074-.3747-.1067-.9534.11718-1.6133-1.33968-.5317-2.57835-.0854-3.04394.2217-.27658.1822-.64867.1056-.83106-.1709-.18234-.2766-.10567-.6486.1709-.8311.78122-.5152 2.77782-1.1967 4.80374-.0175.4146.2412.8867.3792 1.3818.4433-.0469-.2205-.1177-.4017-.206-.5527-.1613-.2754-.4051-.498-.7579-.6865-.732-.3912-2.22338-.83146-3.29488-2.33989-.19189-.27015-.12855-.64502.1416-.83691.27016-.19189.64502-.12855.83692.1416.6344.89318 1.37346 1.26053 2.11326 1.60449.0005-.45371-.0881-.92581-.2314-1.36914-.2279-.70463-.5515-1.22289-.7119-1.38574-.23277-.23576-.23078-.61582.0048-.84863.2358-.23273.6159-.23074.8487.00488.341.34542.7405 1.05803 1 1.86035.2225.68831.3678 1.52428.247 2.34961.3356.23648.6232.53008.8399.90038.2053.351.3321.7485.3916 1.1934.8943-.0311 1.5241-.1486 2.1416-.3428.2551-2.51666-.5529-4.61262-1.1377-5.51465-.5406-.8343-.3016-1.94868.5322-2.48926zm1.3223 1.27637c-.1804-.27807-.5513-.3577-.8291-.17773-.2779.18022-.3572.55134-.1778.8291 1.031 1.59033 2.5203 5.98207-.0185 10.50097-2.8133 5.0072-1.1896 9.5612.0342 11.2676.1929.2688.5684.33.8378.1367.2689-.193.3306-.5667.1377-.8359-1.0085-1.4062-2.5056-5.4579.0352-9.9805 2.8155-5.011 1.1818-9.88689-.0195-11.74024z" fill="#000"/></svg>