<svg height="32" viewBox="0 0 32 32" width="32" xmlns="http://www.w3.org/2000/svg"><path d="m10.9564797 15.1175168.286645.0198842.2915552.024617c1.1204701.1011709 2.2295133.3015807 3.3336858.517897l2.1871782.4296986c.7259738.1409819 1.4529089.276122 2.1936077.3217737.9408227.0578947 1.8881395.0703882 2.8174104-.092155l2.9273998-.510667.3563909.017784c.7023231.0350462 1.2831974.5590771 1.3901319 1.2540958l.0378445.2458586c.011383.624543-.3421671 1.2129032-.9195399 1.4886055l-.1619381.0668909-.4200728.1474198c-1.0198728.3509142-2.0772704.5818165-3.150807.6879607-.8661304.0856372-1.7355324.1323661-2.6055833.1400819l-.8009499-.0039187-1.9288859-.0357428c-.312023.002268-.581547.20797-.6713564.498802l-.0257287.1183693-.5238459 4.0347902h-7.12704082l.00009343-2.6718727c0-.0699888-.03755518-.1326391-.09530503-.1665858l-.05835791-.0225231c-.10071188-.0210543-.19949435.0404627-.22599908.1385303l-.56954434 2.7224513h-3.37843759l.8846632-4.2233524.07229752-.3053448.08039166-.3055303.0465244-.1633482.1076834-.3471937c.45180937-1.3766239 1.36482986-3.2278555 3.16847055-3.7902776.83105307-.259144 1.62810661-.2883217 2.48141911-.2369987zm16.2205502 4.3760457 1.0449402 4.9959863h-3.1614128l-.4886361-2.3360434c-.0265048-.0980676-.1252872-.1595846-.2259991-.1385303-.0856347.0179024-.1480379.0908966-.1533024.177254l-.000419 2.2973197-7.3021708-.0009863.4319701-3.3325625 1.3730261.0262987.8316322.0041374c.9111141-.0079212 1.8213462-.0567691 2.7281282-.1464257 1.0084801-.0997118 2.0040078-.3000377 2.9717673-.5977274l.4814972-.1569434.4660429-.1639708.2012661-.0828562c.2630239-.1197684.5042649-.2762942.7182156-.4645827zm-6.9536585-10.71601941c1.6553706 0 2.9972983 1.34192771 2.9972983 2.99729841 0 1.6553706-1.3419277 2.9972983-2.9972983 2.9972983-1.6553707 0-2.9972984-1.3419277-2.9972984-2.9972983 0-1.6553707 1.3419277-2.99729841 2.9972984-2.99729841zm-8.9514654-1.28798063c1.6553706 0 2.9972983 1.3419277 2.9972983 2.99729834 0 1.6553707-1.3419277 2.9972984-2.9972983 2.9972984-1.6553707 0-2.9972984-1.3419277-2.9972984-2.9972984 0-1.65537064 1.3419277-2.99729834 2.9972984-2.99729834z" fill-rule="evenodd"/></svg>