<svg height="32" viewBox="0 0 32 32" width="32" xmlns="http://www.w3.org/2000/svg"><g fill="none" fill-rule="evenodd"><path d="m26.2377292 9.14151224c.6378309.08420731 1.0928186.66071861 1.0264887 1.30065576l-.5674304 5.47445c-.0983037.9484136-.8524529 1.6955485-1.8017437 1.7849856l-2.3240589.2189604c-.2483539.0233986-.4414674.2262726-.452602.4754777l-.3254938 7.2849248-8.4094451.0049274v-8.2905991c0-1.6568542 1.3431458-3 3-3h6.9334208c.4866479 0 .9026379-.3503301.9854242-.8298847l.5932349-3.4364218c.1098071-.63607789.7022717-1.07196097 1.3422053-.98747606zm-8.5612182-2.62485732c1.6172722 0 2.9282372 1.31102696 2.9282372 2.92823711 0 1.61721017-1.310965 2.92823707-2.9282372 2.92823707-1.6172101 0-2.9282991-1.3110269-2.9282991-2.92823707 0-1.61721015 1.311089-2.92823711 2.9282991-2.92823711z" fill="#ff5c00"/><path d="m16.383444 14.3952948c-1.5976808 0-2.9036608 1.24892-2.9949073 2.8237272l-.0050927.1762728-.0005429 8.285-7.71199996.0055991v-8.2905991c0-1.6568542 1.34314575-3 3-3zm9.7476652 2.2244529c.9490085 0 1.7183318.7693234 1.7183318 1.7183318v1.1183318c0 .3313709-.2686291.6-.6.6h-3.0527044c-.3313709 0-.6-.2686291-.6-.6v-1.1183318c0-.9490084.7693233-1.7183318 1.7183318-1.7183318zm-15.4494729-9.98028189c1.6172722 0 2.9282372 1.31102696 2.9282372 2.92823711 0 1.61721018-1.310965 2.92823708-2.9282372 2.92823708-1.6172101 0-2.92829905-1.3110269-2.92829905-2.92823708 0-1.61721015 1.31108895-2.92823711 2.92829905-2.92823711z" fill="#6ad1eb"/><path d="m23.6879153 7.63122791h.0552155c.5891563 0 1.0741986.44576517 1.1362524 1.01842113l.0067067.12453799 2.4124689-.00778622c0-.6312389.5117202-1.14295913 1.1429591-1.14295913h.0552154c.6164586 0 1.1234921.46850479 1.1844632 1.06887722l.0061232.12927333-.0088303 1.39425797c-.0041986.6629442-.5428054 1.1981506-1.2057628 1.1981506h-.0552155c-.5891563 0-1.0741986-.4457652-1.1362524-1.0184211l-.0067067-.124538-2.4124689.0077862c0 .6312389-.5117202 1.1429591-1.1429591 1.1429591h-.0552154c-.6164586 0-1.1234921-.4685048-1.1844632-1.0688772l-.0061232-.1292733.0088303-1.39425805c.0041986-.66294419.5428053-1.19815054 1.2057628-1.19815054z" fill="#345c64"/></g></svg>