<svg height="32" viewBox="0 0 32 32" width="32" xmlns="http://www.w3.org/2000/svg"><g fill="none" fill-rule="evenodd"><path d="m13.2845084 8.48181666c.8403081 0 1.574041.56883172 1.7834338 1.38263286.0700345.27218748.1406901.53703828.2119668.79455228l.2156937.7505319c.7614501 2.5498262 1.5913825 4.2907785 2.4897971 5.2228569.1541232.7815089-1.402548 1.2983037-1.8125252.7520356-.0840192-.11991-.1631936-.2466088-.2373163-.3758311l-.1414483-.2605455-.1276091-.259692-.1646601-.3713502-.131452-.3267766-.1583129-.417464-.0204318-.0413986c-.0040339-.0039682-.0052707.0023163-.003649.0201173l2.0824415 6.7476117-2.8578738-.0000972.0005382 5.1643943c0 .4068161-.3297896.7366057-.7366058.7366057h-2.7466267c-.4068161 0-.7366057-.3297896-.7366057-.7366057l-.0007-5.1643943-3.01299998.0000972 2.0779046-11.9413207c.08566575-.94902849.88117038-1.67595984 1.83405748-1.67595984zm-1.0064409-5.48181666c1.2392136 0 2.25 1.01078644 2.25 2.25s-1.0107864 2.25-2.25 2.25-2.25-1.01078644-2.25-2.25 1.0107864-2.25 2.25-2.25z" fill="#f5a8c6" fill-rule="nonzero"/><path d="m13.2845084 8.48181666c.8403081 0 1.574041.56883172 1.7834338 1.38263286.0700345.27218748.1406901.53703828.2119668.79455228l.2156937.7505319c.7614501 2.5498262 1.5913825 4.2907785 2.4897971 5.2228569.1541232.7815089-1.402548 1.2983037-1.8125252.7520356-.0840192-.11991-.1631936-.2466088-.2373163-.3758311l-.1414483-.2605455-.1276091-.259692-.1646601-.3713502-.131452-.3267766-.1583129-.417464-.0204318-.0413986-.003649.0201173 2.0824415 6.7476117-2.8578738-.0000972.0005382 5.1643943c0 .4068161-.3297896.7366057-.7366058.7366057h-1.3764952l-.0009325-19.519zm-.9852024-.98191569-.0002385-4.49890097-.021-.001c1.2392136 0 2.25 1.01078644 2.25 2.25 0 1.23212656-.9992582 2.23843125-2.2287615 2.24990097z" fill="#ea8fb2" fill-rule="nonzero"/><path d="m17.1166629 15.4668904.277729.4546252c.379063.6205027.9535016 1.0975145 1.6330895 1.356112l.3522732.1340472c.4601901.175112.948447.2648687 1.4408281.2648687h.9655317c.9445677 0 1.7102912.7657234 1.7102912 1.7102912v7.8473913c0 .4042335-.3257693.7329435-.7299864.736576l-3.2903595.0295994c-.4067997.0036254-.7395396-.3231873-.7431953-.729987l-.0000297-7.3857882-.7035896-.4796822c-.8849277-.6033119-1.6013987-1.4223116-2.0816998-2.3795959l-.356653-.7108424c-.2100064-.4185622-.0527079-.9282684.356653-1.15569.4092736-.227373.9250415-.0914628 1.1691176.3080747zm3.8797427-3.4668904c1.1045695 0 2 .8954305 2 2s-.8954305 2-2 2-2-.8954305-2-2 .8954305-2 2-2z" fill="#037782"/></g></svg>