<svg height="32" viewBox="0 0 32 32" width="32" xmlns="http://www.w3.org/2000/svg"><path d="m8.44420319 16.8482032 6.70700001 6.706-1.9885607 1.9896358c-1.8519438 1.8519437-4.8545378 1.8519437-6.70648152 0s-1.85194372-4.8545377 0-6.7064815zm4.71843931-10.39204222 12.3811965 12.38119652c1.8519437 1.8519438 1.8519437 4.8545378 0 6.7064815s-4.8545377 1.8519437-6.7064815 0l-12.38119652-12.3811965c-1.85194372-1.8519438-1.85194372-4.8545378 0-6.70648152s4.85453772-1.85194372 6.70648152 0zm-4.32500046 15.97147522c-.40577565 0-.7347218.3289461-.7347218.7347218 0 .4057756.32894615.7347218.7347218.7347218.40577564 0 .7347218-.3289462.7347218-.7347218 0-.4057757-.32894616-.7347218-.7347218-.7347218zm2.99999996 0c-.4057756 0-.7347218.3289461-.7347218.7347218 0 .4057756.3289462.7347218.7347218.7347218.4057757 0 .7347218-.3289462.7347218-.7347218 0-.4057757-.3289461-.7347218-.7347218-.7347218zm11.324716 0c-.4057757 0-.7347218.3289461-.7347218.7347218 0 .4057756.3289461.7347218.7347218.7347218.4057756 0 .7347218-.3289462.7347218-.7347218 0-.4057757-.3289462-.7347218-.7347218-.7347218zm-3 0c-.4057757 0-.7347218.3289461-.7347218.7347218 0 .4057756.3289461.7347218.7347218.7347218.4057756 0 .7347218-.3289462.7347218-.7347218 0-.4057757-.3289462-.7347218-.7347218-.7347218zm-11.32471596-3c-.40577565 0-.7347218.3289461-.7347218.7347218 0 .4057756.32894615.7347218.7347218.7347218.40577564 0 .7347218-.3289462.7347218-.7347218 0-.4057757-.32894616-.7347218-.7347218-.7347218zm14.32471596 0c-.4057757 0-.7347218.3289461-.7347218.7347218 0 .4057756.3289461.7347218.7347218.7347218.4057756 0 .7347218-.3289462.7347218-.7347218 0-.4057757-.3289462-.7347218-.7347218-.7347218zm-3 0c-.4057757 0-.7347218.3289461-.7347218.7347218 0 .4057756.3289461.7347218.7347218.7347218.4057756 0 .7347218-.3289462.7347218-.7347218 0-.4057757-.3289462-.7347218-.7347218-.7347218zm-5.1523075-7.4132804-2.9956947 2.9956947c-.546734.546734-.546734 1.433165 0 1.979899l2.9956947 2.9956947c.546734.546734 1.433165.546734 1.979899 0l2.9956947-2.9956947c.546734-.546734.546734-1.433165 0-1.979899l-2.9956947-2.9956947c-.546734-.546734-1.433165-.546734-1.979899 0zm1.1313709.8485282 2.9956946 2.9956946c.0781049.0781049.0781049.2047379 0 .2828428l-2.9956946 2.9956946c-.0781049.0781049-.2047379.0781049-.2828428 0l-2.9956946-2.9956946c-.0781049-.0781049-.0781049-.2047379 0-.2828428l2.9956946-2.9956946c.0781049-.0781049.2047379-.0781049.2828428 0zm9.4024176-6.40672302c1.8519437 1.85194372 1.8519437 4.85453772 0 6.70648152l-1.9896358 1.9885607-6.706-6.70700001 1.9891543-1.98804221c1.8519438-1.85194372 4.8545378-1.85194372 6.7064815 0zm-2.381481 4.64675922c-.4057757 0-.7347218.3289462-.7347218.7347218 0 .4057757.3289461.7347218.7347218.7347218.4057756 0 .7347218-.3289461.7347218-.7347218 0-.4057756-.3289462-.7347218-.7347218-.7347218zm-11.324716 0c-.4057756 0-.7347218.3289462-.7347218.7347218 0 .4057757.3289462.7347218.7347218.7347218.4057757 0 .7347218-.3289461.7347218-.7347218 0-.4057756-.3289461-.7347218-.7347218-.7347218zm-2.99999996 0c-.40577565 0-.7347218.3289462-.7347218.7347218 0 .4057757.32894615.7347218.7347218.7347218.40577564 0 .7347218-.3289461.7347218-.7347218 0-.4057756-.32894616-.7347218-.7347218-.7347218zm14.32471596-2.99999996c-.4057757 0-.7347218.32894615-.7347218.7347218 0 .40577564.3289461.7347218.7347218.7347218.4057756 0 .7347218-.32894616.7347218-.7347218 0-.40577565-.3289462-.7347218-.7347218-.7347218zm-3 0c-.4057757 0-.7347218.32894615-.7347218.7347218 0 .40577564.3289461.7347218.7347218.7347218.4057756 0 .7347218-.32894616.7347218-.7347218 0-.40577565-.3289462-.7347218-.7347218-.7347218zm-8.324716 0c-.4057756 0-.7347218.32894615-.7347218.7347218 0 .40577564.3289462.7347218.7347218.7347218.4057757 0 .7347218-.32894616.7347218-.7347218 0-.40577565-.3289461-.7347218-.7347218-.7347218zm-2.99999996 0c-.40577565 0-.7347218.32894615-.7347218.7347218 0 .40577564.32894615.7347218.7347218.7347218.40577564 0 .7347218-.32894616.7347218-.7347218 0-.40577565-.32894616-.7347218-.7347218-.7347218z" fill-rule="evenodd"/></svg>