<svg fill="none" height="32" viewBox="0 0 32 32" width="32" xmlns="http://www.w3.org/2000/svg"><g fill="#000"><path d="m10.2427 16.5552c1.452-.755 3.1773-.4567 6.7334.5274 1.8012.4984 2.976.5938 3.7871.4931-.389.272-.8371.5342-1.3682.8321-.528.296-1.2159.672-1.7959 1.08-.7105.5001-1.199 1.1357-1.541 1.752-.3384-.6235-.8276-1.2654-1.5528-1.7656-.5874-.4051-1.2901-.7758-1.8281-1.0674-.5954-.3227-1.0948-.6024-1.5224-.9043-.5536-.391-.8039-.6887-.9121-.9473z"/><path clip-rule="evenodd" d="m26.5073 9.89604c.1818-.27691.5541-.35442.8311-.17285.2766.18182.3543.55411.1728.83101-.8807 1.3422-2.0886 2.6426-3.6885 3.8975.2651.5527.4113 1.1307.4112 1.7149l-.0098.2714c-.2039 2.755-3.4812 3.7715-5.2441 5.0118-1.8193 1.2803-.9437 4.168-2.9707 4.1689l-.1817-.0088c-1.5368-.1476-1.1113-2.2139-2.083-3.5654.0136.019.026.0393.0391.0586-.031-.0456-.0636-.0908-.0977-.1348l-.0332-.042c-.0385-.0476-.0794-.0943-.1221-.1396.0239.0253.0488.05.0713.0761-.0392-.0453-.0808-.0897-.124-.1328.0105.0105.02.0226.0303.0332-.0487-.0504-.0999-.1002-.1543-.1474-.0161-.014-.0312-.0293-.0479-.043.0095.0078.018.0175.0274.0254-.0602-.051-.1238-.1008-.1914-.1475-1.7614-1.2146-5.13408-2.2094-5.36429-4.9824l.00195.002c-.00077-.0093-.0022-.0191-.00293-.0284l-.01074-.2753c-.00011-.5936.14434-1.1782.41016-1.7344-1.58933-1.2496-2.79311-2.5418-3.66993-3.878-.18148-.2769-.104-.64926.17285-.83101.27699-.1816.64927-.10401.83106.17285.77842 1.18616 1.85723 2.36156 3.3125 3.51956 1.41187-1.7568 4.09647-3.0331 7.17677-3.0332 3.0787.0002 5.7622 1.2949 7.1748 3.0498 1.4659-1.1634 2.5509-2.3442 3.333-3.53616zm-10.5078 1.68656c-2.0374.0001-3.8481.6242-5.1221 1.539-1.29142.9276-1.91118 2.051-1.91112 3.044.00038.9307.51413 1.6233 1.49712 2.3174.4926.3478 1.0494.6575 1.6416.9785.5637.3055 1.198.6412 1.7197 1.001 1.3515.9326 1.6391 2.4978 1.8349 3.2353.119.4479.1957.6292.254.7119.0183.0032.0496.0088.0957.0088.0654-.0001.1022-.0076.1181-.0117.0016-.0018.0045-.004.0069-.0068.0672-.0846.152-.2695.288-.7276.2186-.7365.544-2.2717 1.8672-3.2031.5174-.364 1.1397-.7047 1.6924-1.0147.5801-.3253 1.1222-.6379 1.6006-.9863.9514-.6929 1.4508-1.3809 1.4512-2.3027 0-.9685-.6177-2.0933-1.9141-3.0293-1.276-.921-3.087-1.5536-5.1201-1.5537z" fill-rule="evenodd"/></g></svg>