<svg height="32" viewBox="0 0 32 32" width="32" xmlns="http://www.w3.org/2000/svg"><path d="m12.6450475 15.9024602.1747951.0266149 2.1213626.4039982c.2168446.0412965.4252051.1187488.6163732.2291197.8950109.5167348 1.2310822 1.6297953.7960986 2.5475569l-.0751202.1431713-.1820592.3153359c-.7223495 1.2511461-.9464546 2.7247391-.6348067 4.1283127l.0694841.2796945 1.1061521 4.0236063h-2.947l-1.1706346-3.9842757c-.1075648-.3660318-.2511618-.7202437-.4285487-1.0574748l-.1393408-.2496587-1.6129527-2.7285352c-.52936513-.8954952-.53507838-2.0067668-.0149488-2.9076577.4448164-.7704446 1.2767583-1.2181631 2.1467449-1.1832693zm4.5675945 3.785537.0406016.0616971.1170959.2320375c.308891.6120987.5209056 1.2676802.6291229 1.9433233l.0454268.3393849.6174379 5.7354306h-.928l-.0476905-.5129823-.1418803-1.4216695-.1344074-1.2495661c-.1129955-1.0061302-.291992-1.7951087-.5369895-2.3669355l-.0841103-.1825662c-.2463973-.4950705-.3434555-1.049364-.2828004-1.5961295l.0301548-.2045538.1162755-.6297104c.0181573-.0983344.0812386-.1825277.170512-.2275788.1126993-.0568729.2430887-.0407963.3374137.0305326zm-7.1420539-7.2225836c.2479837 1.3746054.1070837 2.7889547-.40359377 4.0845053l-.13816123.3277353c-.10457064.235204-.29797978.4194615-.53797263.5125172-.46579541.1806091-.98565135-.0211658-1.2132693-.452542l-.04718194-.1035546-.15819229-.4079817c-.52514664-1.354366-.34954038-2.8749288.45790039-4.070253l.14041197-.196125.09577199-.12636c.15347681-.2024949.37744417-.339922.62749162-.3850396.55059726-.0993215 1.0774658.2665022 1.17679519.8170981zm12.003739-8.46554298-3.6434267 4.60034936c-.9568493 1.20795629-1.3897656 2.74895532-1.2019635 4.27848112l.0443749.3614045c.1325771 1.079754-.6352614 2.0625425-1.7150154 2.1951196-.2190965.0269017-.4411564.0167839-.6568987-.0299304l-2.1105793-.457c-.9854147-.2133701-1.7279698-1.0268219-1.8508446-2.027557-.1267757-1.0325052.3126918-2.0532038 1.1498728-2.6706721l2.5508544-1.88139905c.3837896-.28306646.7309404-.61269917 1.0334828-.98133062l2.7791433-3.38746541z" fill-rule="evenodd"/></svg>