<svg fill="none" height="32" viewBox="0 0 32 32" width="32" xmlns="http://www.w3.org/2000/svg"><path d="m15.1283 3.78515c.7413-.48041 1.7322-.26858 2.2128.47266 1.343 2.07179 3.098 7.35279.0518 12.77439-.3956.7042-.6815 1.3948-.8818 2.0606.7245-.1807 1.5059-.2702 2.5654-.2666.6665.0022 1.3761.1002 2.0478.3642.0377-.1678.0428-.3354.0362-.5263-.2324-.0455-.4793-.1166-.7168-.2129-.4605-.1868-.9789-.5018-1.3096-.9932-.1848-.2747-.1123-.6469.1621-.832.2748-.1849.648-.1126.833.1621.1457.2163.4218.4113.7657.5508.1082.0438.2151.0765.3144.1035.187-.831.742-1.644 1.6465-2 .3084-.1213.657.0305.7783.3388.1207.3082-.0308.6562-.3389.7774-.6041.2377-.9758.92-.958 1.5449.0108.3745.1054.953-.1181 1.6123 1.3404.532 2.5799.0865 3.0459-.2207.2766-.1822.6487-.1056.831.1709.1821.2766.1056.6487-.1709.8311-.7814.5151-2.7783 1.1962-4.8047.0175-.415-.2414-.8882-.3792-1.3838-.4433.047.2203.1177.4018.2061.5527.1613.2753.4059.498.7588.6865.7325.3912 2.2242.8318 3.2959 2.3399.1916.2701.1284.645-.1416.8369-.27.1916-.645.1281-.8369-.1416-.6347-.8931-1.3742-1.2605-2.1143-1.6045-.0004.4536.0881.926.2315 1.3691.2281.705.5525 1.2234.7129 1.3858.2325.2358.2298.6159-.0059.8486-.2357.2326-.6158.2306-.8486-.0049-.341-.3453-.7405-1.0574-1-1.8593-.2227-.6883-.3679-1.5252-.2471-2.3506-.3356-.2364-.6231-.5303-.8399-.9004-.2053-.3509-.333-.7486-.3925-1.1934-.7163.0249-1.2577.1036-1.7539.2305-.1849.0473-.365.1017-.5479.1631-.3777 2.6124.4955 4.6878 1.085 5.5098.515.7179.3507 1.7173-.3672 2.2324-.718.5148-1.7174.3505-2.2324-.3672-1.4028-1.956-3.1352-6.9284-.0948-12.3399.4933-.8778.8175-1.7504 1.0157-2.5927-.0278.0074-.0551.0163-.083.0234-.7378.1888-1.5301.2819-2.6124.2783-.6661-.0022-1.3754-.1002-2.0468-.3642-.0376.1675-.0428.3349-.0362.5254.2325.0454.4792.1174.7168.2138.4605.1868.979.5017 1.3096.9932.1848.2748.1115.648-.1631.833-.2749.1846-.6481.1117-.833-.1631-.1455-.2163-.4209-.4113-.7646-.5508-.1079-.0437-.2145-.0765-.3135-.1035-.1869.8308-.7424 1.6439-1.64649 2-.30825.1213-.65686-.0297-.77833-.3379-.12115-.3083.03061-.657.33887-.7783.6035-.2378.97585-.92.95801-1.5449-.0108-.3747-.10661-.9537.11719-1.6133-1.33926-.5315-2.57801-.0854-3.04395.2217-.27658.1821-.64867.1056-.83105-.1709-.18222-.2766-.10562-.6487.1709-.8311.78153-.5152 2.7782-1.1964 4.80375-.0176.4145.2413.8867.3793 1.3818.4434-.047-.2203-.1177-.4018-.2061-.5527-.1612-.2753-.4051-.498-.7578-.6865-.732-.3912-2.22339-.83147-3.2949-2.33989-.19177-.27015-.1285-.64506.14161-.83692.27007-.19147.64509-.12829.83691.1416.63441.89318 1.37348 1.26054 2.11328 1.6045.0004-.45358-.0882-.92596-.2314-1.36914-.2279-.70448-.5515-1.22292-.712-1.38575-.23263-.23576-.23068-.61583.0049-.84863.2358-.23231.616-.23055.8487.00488.3409.34538.7405 1.05816 1 1.86036.2224.68817.3677 1.52443.247 2.3496.3355.23639.6232.53019.8399.90039.2052.3508.3321.7487.3916 1.1934.7157-.025 1.257-.1036 1.7529-.2305.2011-.0515.396-.1134.5957-.1816.232-2.5287-.5814-4.63244-1.1787-5.55376-.4803-.74137-.2686-1.73226.4727-2.21289z" fill="#000"/></svg>