<svg height="32" viewBox="0 0 32 32" width="32" xmlns="http://www.w3.org/2000/svg"><g fill="none" fill-rule="evenodd"><path d="m28.0534701 24.4999863h-3.1614128l-.4886361-2.3360434c-.0265048-.0980676-.1252872-.1595846-.2259991-.1385302-.0856347.0179023-.1480379.0908965-.1533024.1772539l-.000419 2.2973197-7.8737025-.0009863-.7215299-4.2032229 1.6291047-1.3191763c6.2257148-.9543807 9.4098891-1.4943339 9.5525229-1.6198595z" fill="#2289a3"/><path d="m19.3791394 19.8877001.6523755-.0131002.0233565 4.6254001h-3.9048732v-4.1764764c0-.2162664.1444468-.3990005.3423821-.4566048l.0546779-.0107519.09694-.0084256 1.9069399.03604z" fill="#156e85"/><path d="m10.7879797 15.1279544.286645.0198841.2915552.024617c1.1204701.1011709 2.2295133.3015807 3.3336858.5178971l2.1871782.4296986c.7259738.1409818 1.4529089.2761219 2.1936077.3217737.9408227.0578947 1.8881395.0703881 2.8174104-.0921551l2.9273998-.510667.3563909.0177841c.7023231.0350462 1.2831974.559077 1.3901319 1.2540957l.0378445.2458587c.011383.624543-.3421671 1.2129032-.9195399 1.4886054l-.1619381.066891-.4200728.1474198c-1.0198728.3509141-2.0772704.5818164-3.150807.6879606-.8661304.0856372-1.7355324.1323661-2.6055833.140082l-.8009499-.0039188-1.9288859-.0357427c-.2612545.0018989-.4720414.2142236-.472054.475485v4.1764764h-7.87591782l.00009343-2.6718727c0-.0699887-.03755518-.1326391-.09530503-.1665858l-.05835791-.022523c-.10071188-.0210544-.19949435.0404627-.22599908.1385302l-.56954434 2.7224513h-3.37843759l.8846632-4.2233524.07229752-.3053448.08039166-.3055303.0465244-.1633482.1076834-.3471936c.45180937-1.376624 1.36482986-3.2278556 3.16847055-3.7902777.83105307-.2591439 1.62810656-.2883217 2.48141911-.2369986zm.3154263-7.6279544c1.6553706 0 2.9972983 1.3419277 2.9972983 2.9972984 0 1.6553706-1.3419277 2.9972983-2.9972983 2.9972983-1.6553707 0-2.9972984-1.3419277-2.9972984-2.9972983 0-1.6553707 1.3419277-2.9972984 2.9972984-2.9972984z" fill="#00c3a7"/><path d="m20.0548714 8.78798063c1.6553706 0 2.9972983 1.34192767 2.9972983 2.99729837s-1.3419277 2.9972984-2.9972983 2.9972984c-1.6553707 0-2.9972984-1.3419277-2.9972984-2.9972984s1.3419277-2.99729837 2.9972984-2.99729837z" fill="#2289a3"/></g></svg>