<svg height="32" viewBox="0 0 32 32" width="32" xmlns="http://www.w3.org/2000/svg"><g fill="none" fill-rule="evenodd"><path d="m8.44420319 16.8482032 6.70700001 6.706-1.9885607 1.9896358c-1.8519438 1.8519437-4.8545378 1.8519437-6.70648152 0s-1.85194372-4.8545377 0-6.7064815zm4.71843931-10.39204222 12.3811965 12.38119652c1.8519437 1.8519438 1.8519437 4.8545378 0 6.7064815s-4.8545377 1.8519437-6.7064815 0l-12.38119652-12.3811965c-1.85194372-1.8519438-1.85194372-4.8545378 0-6.70648152s4.85453772-1.85194372 6.70648152 0zm12.3811965 0c1.8519437 1.85194372 1.8519437 4.85453772 0 6.70648152l-1.9896358 1.9885607-6.706-6.70700001 1.9891543-1.98804221c1.8519438-1.85194372 4.8545378-1.85194372 6.7064815 0z" fill="#ff82bb"/><path d="m16.7071068 11.5482749 3.7446183 3.7446183c.3905243.3905243.3905243 1.0236893 0 1.4142136l-3.7446183 3.7446183c-.3905243.3905243-1.0236893.3905243-1.4142136 0l-3.7446183-3.7446183c-.3905243-.3905243-.3905243-1.0236893 0-1.4142136l3.7446183-3.7446183c.3905243-.3905243 1.0236893-.3905243 1.4142136 0z" fill="#c33c75"/><g fill="#ffa1cc"><circle cx="8.837642" cy="23.162358" r="1"/><circle cx="11.837642" cy="23.162358" r="1"/><circle cx="8.837642" cy="20.162358" r="1"/><circle cx="23.162358" cy="8.837642" r="1" transform="matrix(-1 0 0 -1 46.324716 17.675284)"/><circle cx="20.162358" cy="8.837642" r="1" transform="matrix(-1 0 0 -1 40.324716 17.675284)"/><circle cx="23.162358" cy="11.837642" r="1" transform="matrix(-1 0 0 -1 46.324716 23.675284)"/><circle cx="23.162358" cy="23.162358" r="1" transform="matrix(-1 0 0 1 46.324716 0)"/><circle cx="20.162358" cy="23.162358" r="1" transform="matrix(-1 0 0 1 40.324716 0)"/><circle cx="23.162358" cy="20.162358" r="1" transform="matrix(-1 0 0 1 46.324716 0)"/><circle cx="20.162358" cy="20.162358" r="1"/><circle cx="11.837642" cy="11.837642" r="1" transform="matrix(-1 0 0 1 23.675284 0)"/><circle cx="8.837642" cy="11.837642" r="1" transform="matrix(-1 0 0 1 17.675284 0)"/><circle cx="11.837642" cy="8.837642" r="1" transform="matrix(-1 0 0 1 23.675284 0)"/><circle cx="8.837642" cy="8.837642" r="1"/></g></g></svg>