<svg fill="none" height="32" viewBox="0 0 32 32" width="32" xmlns="http://www.w3.org/2000/svg"><path clip-rule="evenodd" d="m17.0461 9.8389c1.4487 1.2138-.1807 6.6206-3.5379 9.1252-2.4666 1.8402-4.46321.9137-6.38172 2.0492-1.91851 1.1354-3.2046 1.6332-3.2046 1.6332s.00035-2.2629.00035-6.8051 2.90017-7.20055 7.15877-7.20055c4.2585 0 4.5164-.0157 5.9651 1.19805z" fill="#d35252" fill-rule="evenodd"/><path d="m5.04788 20.077 4.09845-.1958 4.27437-1.1739s-.3558 1.1282-1.5899 2.242c-1.2341 1.1137-1.85379 1.4019-3.37724 2.0452-1.12465.4749-2.16174.9046-2.62763 1.097-.17118.0707-.35388.1067-.53908.1067h-.38255z" fill="#691d1d"/><path d="m15.4727 8.88374c.5713.17247.9705.46643 1.5771.97461 1.4486 1.21365-1.3051 7.96775-3.7734 9.21775-2.4684 1.2493-3.90384.991-5.43167 1.3252-1.52787.3342-2.91404 1.7388-2.91407 3.7969-.55741-.0001-1.00879-.4514-1.00878-1.0088v-4.4394c1.89627.8199 5.2658.3758 5.88964-2.1817.67158-2.7536.53858-3.4712 2.27928-5.6992.9122-1.16753 2.049-1.7208 3.3819-1.98536z" fill="#b83b3b"/><g clip-rule="evenodd" fill-rule="evenodd"><path d="m12.3242 16.75c0 2.1926 1.0419 3.5356 4.383 1.9969s6.3744-4.5963 10.258-6.7344c2.0975-1.1548.4441-2.50048-2.0816-2.99639-2.1508-.42229-4.9705-.23904-6.255-.23904-2.7928 0-3.2108.24105-4.7378 2.06083-1.527 1.8198-1.5666 3.7196-1.5666 5.9121z" fill="#b83b3b"/><path d="m18.6455 8.78558c1.2844 0 4.1041-.18298 6.2549.23926.6256.12283 1.198.29749 1.6728.50878.2875.33753.0989.74728-.8662 1.23728-3.5503 1.8028-6.3235 4.3803-9.3779 5.6778-2.6965 1.1453-3.7547.3974-3.9658-1.0655.0658-1.6302.3461-3.1084 1.5449-4.5371 1.5268-1.81949 1.9448-2.06051 4.7373-2.06052z" fill="#d35252"/></g></svg>