<svg fill="none" height="32" viewBox="0 0 32 32" width="32" xmlns="http://www.w3.org/2000/svg"><path clip-rule="evenodd" d="m16.1766 2.80176-.001.00097c.12.003.2412.00842.3614.01856l-.001.00098c.7111.05921 1.4057.23938 2.0498.5205l.2734.12696.002.00195c.5903.29208 1.123.70127 1.5566 1.2002l.1182.14453c.0247.02721.0487.05605.0713.08593.1383.18361.2646.37899.3759.58399l-.0019.00097c.1705.30506.2902.61196.3789.84864l.001.00195.0615.16504 1.3643 3.62797c.2233.5492.2815 1.1243.2314 1.6562l-.001-.001c-.0326.4698-.1214.927-.2539 1.3604l-.0039.0127c-.361 1.1352-.937 2.1879-1.6582 3.1103l.001.001c-.2353.3073-.4757.6106-.7158.9121 1.3455 1.5876 3.6311 4.2885 4.7207 5.5703.2934.3461.3669.8295.1894 1.2471l-1.9013 4.4707c-.1629.3822-.5132.654-.9239.7168-.4107.0624-.8254-.093-1.0947-.4092-2.1467-2.5259-3.9374-4.6418-5.375-6.3418-1.111 1.313-2.4318 2.8745-3.9658 4.6807l-1.4102 1.6601c-.2692.3168-.68464.4716-1.09568.4092-.41111-.0626-.76094-.3342-.92383-.7168l-1.90136-4.4707c-.17777-.418-.10368-.9009.19042-1.247 1.08898-1.2812 3.37365-3.9831 4.71875-5.5704-.2376-.2971-.4738-.5971-.706-.9004-.7251-.9248-1.30259-1.9816-1.66509-3.121l-.00391-.0127c-.13247-.4333-.22221-.8908-.25488-1.3604l-.00097.001c-.05014-.5319.01013-1.1071.23339-1.6563h-.00195c.46349-1.21779.89891-2.39593 1.36521-3.62789.0959-.25696.234-.64762.4395-1.01563l.0097-.01855c.109-.19862.2318-.388.3663-.56641.0016-.00218.0032-.00467.0048-.00684.0013-.00162.0027-.00326.0039-.00488.4626-.59883 1.0616-1.08613 1.7364-1.41992l.0029-.00195c.7189-.35318 1.509-.57974 2.3213-.64746.16-.01349.321-.02156.4805-.02247h.0517zm2.8389 16.06344-.002.003c-.5654.675-1.3093 1.5542-2.2265 2.6396 1.4579 1.724 3.2909 3.8896 5.5029 6.4922l.001.001 1.9023-4.4707c-1.0505-1.2359-3.2179-3.7965-4.5762-5.3994-.2012.2453-.3998.4919-.6015.7343zm.6328-13.2402c.0246.06921.0448.14017.0635.21191.0095.03645.0173.07334.0254.11036.0064.02976.012.05974.0175.08984.007.03764.0149.07518.0205.11328.0058.03945.0093.07927.0137.11914.0048.0438.0105.08762.0137.13184.0042.05766.0052.11564.0068.17383.0012.04159.003.08322.0029.125 0 .04196-.0016.08392-.0029.12597-.0017.05534-.0042.11067-.0078.16602-.0025.03813-.0055.07619-.0088.11426-.0049.05644-.01.1128-.0166.16894-.0039.03361-.0082.06714-.0127.10059-.0085.06288-.018.1254-.0283.1875-.0051.03038-.0102.06066-.0156.09082-.0092.05086-.0191.10129-.0293.15136-.0274.1344-.057.26589-.0899.39258-.005.01944-.0114.03841-.0166.05762-.0239.08966-.0497.17654-.0752.26074-.0105.03476-.0215.06884-.0322.10254.0065-.02064.0131-.04145.0195-.0625-.0138.04492-.028.0888-.042.13184.0075-.02287.0151-.04593.0225-.06934-.0179.05662-.0357.1117-.0537.16504-.0254.07519-.0503.14702-.0752.21484-.0174.04749-.034.09327-.0508.13672-.0282.07286-.0547.13998-.0801.2002-.0077.01837-.0141.03661-.0214.05371l-.001-.00195c-.0236.05466-.0434.10382-.0625.14453l-.0381.08007c-.4891 1.0274-.9741 1.845-1.873 2.8711-1.3346 1.6017-2.7256 3.1633-4.0772 4.751l-.4111.4844c-1.3039 1.5381-3.77685 4.4622-4.92288 5.8105l1.90136 4.4707 1.41012-1.6592c1.594-1.8768 2.9584-3.4878 4.0948-4.831.275-.3252.5359-.6369.7841-.9307l.001.001c.8567-1.014 1.5555-1.841 2.0928-2.4824.247-.2969.4902-.5973.7344-.8965l.7158-.8867c.0166-.021.0342-.0416.0508-.0625.1862-.2357.3721-.4725.5547-.711.643-.8202 1.1506-1.7511 1.4668-2.7451.1112-.364.184-.7411.208-1.1211.0356-.3783-.0099-.7658-.1582-1.1172-.4598-1.20809-.9077-2.42119-1.3653-3.62987l-.0634-.17089c-.0893-.23825-.1832-.47551-.3086-.69727-.0824-.1516-.1768-.29718-.2803-.43457zm-7.2959 0c-.1036.13739-.1979.28297-.2803.43457-.1554.27462-.2609.57334-.3711.86816-.4575 1.20863-.9054 2.42182-1.3652 3.62987-.1484.3515-.1939.7388-.1582 1.1172.0239.3801.0967.757.208 1.1211.3161.9939.8228 1.9249 1.4658 2.7451.1825.2383.3681.4748.5547.71.9492-1.111 1.8821-2.1757 2.8076-3.2559-.144-.1703-.2899-.3395-.4326-.5107-.9171-1.0469-1.403-1.8776-1.9023-2.9346-.0212-.04444-.0441-.09998-.0713-.16308-.0004.00098-.0007.00199-.001.00293l-.001-.00195c.0004-.00094.0006-.00196.001-.00293-.3014-.70021-.9114-2.47-.4531-3.75879zm3.4765 3.35547-.0009-.00098-.042.00293h-.002c-.1833.01061-.3578.0287-.5224.05567-.2617.05029-.5078.13049-.7315.23925-.0944.04602-.21.13123-.3271.24512.3261.63764.6714 1.19304 1.1884 1.82524l.293.3457.0186.0224c.0982.1179.1986.2339.2968.3506.0987-.1173.2004-.2333.2989-.3516.0062-.0074.0131-.0152.0195-.0224.6865-.7837 1.0972-1.4197 1.4805-2.16896-.1175-.11397-.2326-.19997-.3272-.2461-.224-.10896-.4703-.18892-.7324-.23925-.1521-.02491-.313-.04194-.4814-.05274l-.044-.00293h-.0039c-.0699-.0044-.1403-.00699-.21-.00781-.0566.00069-.114.00279-.1709.00586zm-.0712-4.97559c-.0642.00287-.1284.00731-.1924.0127-.4585.03807-.9111.14045-1.3438.29687-1.2477 1.47333-.8533 2.72055-.7168 3.34278.0576.26201.1308.50829.2022.72168.0951-.0677.1947-.13003.2988-.18067.3295-.16022.6803-.27262 1.0391-.34082.2219-.03738.4472-.06032.6709-.07324l.0478-.00195c.0784-.00424.1577-.00708.2363-.00782.0948.00088.1908.00383.2852.00977l.0479.00293c.208.01333.4177.03551.624.07031.3589.06824.7095.18052 1.039.34082.0214.01042.0425.02194.0635.03321.081.04332.1583.09401.2334.14746.0734-.21898.1507-.47172.209-.74121.1333-.61628.5251-1.85081-.7217-3.32227l-.0019-.00098c-.0987-.03568-.1982-.06976-.2989-.09961-.0443-.01313-.0891-.02514-.1337-.03711-.1224-.03282-.2458-.06204-.3702-.08593-.1781-.0342-.3582-.05917-.539-.07422-.0962-.00811-.1937-.01321-.2901-.01563-.0481-.00122-.0973-.00207-.1455-.00195h-.0498c-.0644.00037-.129.00192-.1933.00488zm4.0537 2.67481c0-.00651.001-.01303.0009-.01953 0-.01206-.0017-.02409-.0019-.03614.0003.01855.0009.03708.001.05567z" fill="#000" fill-rule="evenodd"/></svg>