<svg height="32" viewBox="0 0 32 32" width="32" xmlns="http://www.w3.org/2000/svg"><g fill="none" fill-rule="evenodd"><path d="m16.8717125 3.78522354c1.3920858 0 2.5207708 1.12868495 2.5207708 2.5207708 0 1.37162386-1.0957482 2.48753328-2.4595584 2.52004198 1.0492087.59267923 1.6980307 1.70437048 1.6980307 2.90940468v8.1636778l-1.2144965-.8056589v7.1892086c0 .7979925-.6469008 1.4448933-1.4448933 1.4448933-.7979926 0-1.4448933-.6469008-1.4448933-1.4448933v-4.4364233c0-.3162966-.1496393-.6139464-.403504-.8026161l-2.7049341-1.9501692-3.67317773 7.7225405c-.29075974.6111378-.99436886.8928193-1.61831707.6700917l-.127239-.0530698c-.6692365-.32095-.98266285-1.0997776-.72229969-1.7948297l5.94695159-15.90578283-.0051525-.06640977-2.7701787-.15202433-.02758212-.00076135c-.24545989 0-.44960837.17687516-.49194433.41012437l-.00805567.08987561-.00020416 2.9442276c-.000012.5901632-.44655051 1.0760142-1.02018663 1.1381714l-.12475099.0067179c-.59028138 0-1.07624991-.4466165-1.13842224-1.020366l-.00671954-.1247758v-3.35314071c0-1.3254834 1.03153594-2.41003867 2.33562432-2.49468232l.16437568-.00531768h3.76033768c.8612938 0 1.7129025.17116475 2.5056622.50236174l.2944303.13167864.1610866.07703526c-.3149716-.42074169-.5015307-.94316722-.5015307-1.50912999 0-1.39208585 1.1286849-2.5207708 2.5207708-2.5207708zm-.4887828 8.76456146-.0689297.146215-1.6797324 3.3683299c-.2182139.4375793-.0879907.9687875.307861 1.2558316l1.439827 1.044062z" fill="#ff7a20"/><path d="m19.3924833 6.30599434c0 1.37162386-1.0957482 2.48753328-2.4595584 2.52004198 1.0492087.59267923 1.6980307 1.70437048 1.6980307 2.90940468v8.1636778l-1.2144965-.8056589v7.1892086c0 .7979925-.6469008 1.4448933-1.4448933 1.4448933-.7979926 0-1.4448933-.6469008-1.4448933-1.4448933v-4.4364233c0-.3162966-.1496393-.6139464-.403504-.8026161l-2.7049341-1.9501692-3.67317773 7.7225405c-.29075974.6111378-.99436886.8928193-1.61831707.6700917l-.127239-.0530698 8.9931652-18.90712432c1.3902639-2.73782664 3.4601081-2.73782664 4.3998175-2.21990364zm-3.0095536 6.24379066-.0689297.146215-1.6797324 3.3683299c-.2182139.4375793-.0879907.9687875.307861 1.2558316l1.439827 1.044062z" fill="#ec4800"/><path d="m7.92052455 11.7130487 13.52314705 9.4680611.8985711-1.281991 2.6093306 1.827073c.979751.686029 1.2178597 2.0364104.5318307 3.0161614-.686029.9797509-2.0364105 1.2178596-3.0161614.5318306l-2.6093306-1.827073.8977596-1.283001-12.85314705-9.0005382c.01215834-.0668656.01850904-.135756.01851047-.2061297z" fill="#345c64"/></g></svg>