<svg fill="none" height="32" viewBox="0 0 32 32" width="32" xmlns="http://www.w3.org/2000/svg"><path d="m16.1582 3.50193-.001.00098c.1064.00265.2138.00763.3203.0166l-.001.00098c.7219.05999 1.4277.26046 2.0723.57715l.0019.00097c.508.25132.9656.60387 1.3379 1.03223l.1543.18848.0488.0625.0264.07519c.2738.76888.2189 1.63971.0791 2.36719-.1417.73733-.3836 1.39099-.5439 1.76269l-.4912 1.13871-.4356-1.16019c.007.0187-.0061-.01505-.0674-.10449-.0532-.07774-.128-.17589-.2197-.2793-.1883-.21222-.4219-.41726-.6621-.53418-.285-.13861-.5913-.23703-.9092-.29785-.184-.03082-.3732-.05113-.5654-.06348l-.0488-.00293c-.0842-.00529-.1702-.00795-.2549-.00879-.0693.00072-.1388.00213-.208.00586l.0009.00098-.0468.00293c-.2093.01209-.4166.03187-.6162.06543-.3167.06083-.6214.15977-.9053.29785-.2403.11689-.4747.32184-.6631.53418-.0917.1034-.1665.20156-.2197.2793-.0615.08974-.0736.12365-.0664.10449l-.4366 1.16019-.4912-1.13871c-.1603-.37171-.4012-1.02538-.5429-1.76269-.1399-.7275-.1957-1.59827.0781-2.36719l.0273-.07519.0479-.0625c.3969-.51387.9125-.93349 1.4931-1.22071l.001-.00097c.6446-.31671 1.3504-.51813 2.0723-.57813l.2119-.01367c.071-.00317.142-.00545.2129-.00586h.0498c.053-.00015.1068.0006.1602.00195z" fill="#7d5b9f"/><path d="m12.112 5.14423c-.3202.89966.7833 3.27964 1.216 4.18975l.0009.00196c.4841 1.02476.9459 1.81246 1.8262 2.81736l.0088.0098c1.3968 1.6762 2.8262 3.2756 4.25 4.9551 1.7072 2.0124 3.4134 4.0258 5.1185 6.04.1465.1731.183.4139.0942.6225l-1.8142 4.2664c-.1746.4104-.72.4937-1.0091.154-2.7687-3.2532-5.5369-6.5073-8.28-9.7822l-.001-.0009c-.7002-.8416-1.3954-1.6943-2.0654-2.5694-.6772-.8638-1.2135-1.8467-1.54885-2.9013l-.00195-.0059c-.12006-.3927-.19995-.8024-.22754-1.2197l-.01074-.169c-.0156-.3905.04227-.7936.19922-1.1728.46146-1.21247.90386-2.41123 1.36526-3.6299.1047-.28045.2255-.62058.4043-.93653.0934-.1712.199-.33479.3154-.48925z" fill="#b793da"/><path d="m19.8848 5.14423c.3202.89966-.7833 3.27963-1.216 4.18975l-.001.00195c-.484 1.02467-.9458 1.81247-1.8262 2.81737l-.0087.0098c-1.3968 1.6762-2.8262 3.2756-4.25 4.9551-1.7073 2.0124-3.41343 4.0258-5.11858 6.04-.14647.173-.18291.4139-.09419.6225l1.81427 4.2664c.17454.4104.72001.4937 1.0091.154 2.7687-3.2532 5.5369-6.5073 8.28-9.7822l.001-.0009c.7002-.8416 1.3954-1.6943 2.0654-2.5694.6772-.8639 1.2134-1.8467 1.5488-2.9013l.002-.0059c.12-.3927.1999-.8024.2275-1.2197l.0108-.169c.0155-.3905-.0423-.7936-.1993-1.1728-.4614-1.21247-.9039-2.41123-1.3652-3.62991-.1048-.28045-.2255-.62058-.4043-.93652-.0935-.1712-.199-.3348-.3154-.48926z" fill="#b793da"/><path d="m19.4716 17.1953c.3253.3835.6974.8212 1.1797 1.3906l.2695.3184-.2647.3223c-.1652.2011-.3309.4019-.497.6015l-.001.001c-.5892.7034-1.3699 1.6305-2.3418 2.7803l-.3818.4511-.3819-.4511c-.372-.4394-.7229-.8539-1.0526-1.2437z" fill="#a780cc"/></svg>