<svg height="32" viewBox="0 0 32 32" width="32" xmlns="http://www.w3.org/2000/svg"><path d="m15.8352093 4.49682484c-1.6146851.21000554-3.1481748.76759649-4.4553864 1.63840917-2.48923815 1.65829346-4.17748875 4.38954819-4.42761321 7.27954509l-.00223464 1.4790986c0 .5363112-.17963435 1.0571689-.51023901 1.4794605l-1.12896905 1.4420674c-.15050803.1922485-.25502217.4163922-.30553833.6552652-.1828293.864535.3698023 1.7135914 1.23433724 1.8964208l1.06608815.2254531c.16510687.0349164.29053853.169698.31351489.336885l.41959695 3.0531892c.10060521.7320518.68943321 1.2999884 1.42464041 1.3740945l2.8194779.2841927c.1492142.0150402.2774791.1122827.3322522.2518928l.5299481 1.3507748c.1802716.4594908.6235139.7617283 1.1171025.7617283h7.6945528c.6627417 0 1.2-.5372583 1.2-1.2v-3.0378025c.0106699-1.5783074.2558474-2.7862279.825035-3.4128472 2.7741841-3.0541372 3.8117283-6.7139678 2.4854019-10.1674072-1.5761487-4.10377184-5.9862502-6.29467946-10.6319674-5.69042026zm9.5117468 6.12065936c1.1466752 2.9856705.2394279 6.1858922-2.2534405 8.9303252-.8331661.9172334-1.1241722 2.3509388-1.1367622 4.2156391l-.0000136 3.0418535h-7.6945528l-.5299481-1.3507747c-.2190924-.5584407-.7321522-.9474104-1.3290091-1.0075713l-2.81947783-.2841928c-.1838018-.0185265-.3310088-.1605106-.3561601-.3435236l-.41959694-3.0531891c-.09190545-.6687483-.5936321-1.2078747-1.25405957-1.34754l-1.06608815-.2254532c-.21613373-.0457073-.35429164-.2579714-.30858431-.4741052.01262904-.0597182.03875758-.1157541.07638458-.1638163l1.12896906-1.4420673c.49590698-.6334375.76535851-1.414724.76535851-2.2191908v-1.427363c.21568258-2.4661312 1.70289635-4.87214823 3.89514665-6.33259275 1.1504945-.766414 2.5089715-1.2603687 3.9448606-1.44712009 4.0357914-.52492735 7.8185282 1.29681262 9.2602179 4.69132074z"/><path d="m10.4624224 12.5439167c.2170882.2750359.4643725.3287778.5951503.3359673.0430653.0023726.0730817.0433529.0613268.0848366l-.0149785.0617206c-.0547649.2700045-.0310972.8337519 1.0115791 1.0726069l.0346313.0077312c1.0941763.2377941 1.7558298 1.0888561 2.1878853 1.5210554.3260823.3257997.7651742.4796736 1.2052261.5805572l.1861165.0418698c.4013163.0911238.791242.1951006 1.1094316.4816709.380219.3424738.9164869 2.2282187 1.0075065 2.5560258.0079804.0287941.0341862.0486013.0640947.0486013h.5615392c.0315261 0 .0588104-.0220719.065317-.052951l.2720882-1.2870357c.0114313-.0540654 2.6492742.1629869 2.8523428-1.0144444.0071176-.0413039.0488529-.0669346.0882875-.0526993l.0886576.0294237c.3191651.0972329 1.0212596.2213315 1.4179109-.3932864.311415-.4825261.2286993-.9330228.1853104-1.0885685-.0089869-.0322092.0071896-.0657124.0379249-.0789412l.0564906-.0264038c.2783377-.1400517.9680436-.6299714.8662511-2.0148508-.0884673-1.202379-.9017483-1.7353038-.7880457-1.9202188.3279869-.5333561.0428856-1.4174541-.6290849-1.61480697-.0270686-.00794445-.0463006-.03192157-.0488529-.06003267l-.0283627-.31342807c-.0933203-1.1051404-1.545428-1.80550959-2.5326958-1.34606194-.0380686.01772222-.0833268-.00115032-.0959804-.04116012-.1235882-.39175813-.3730294-.49960125-.4394967-.53698687-.3060947-.17222547-.7035685-.15094442-1.0199803-.02106535-.0255947.01049673-.0547483.00409804-.0736209-.01610458l-.0064829-.00680372c-.1001127-.10308351-.4657851-.39516355-1.062566-.39516355-.626209 0-.944526.30429735-1.0558201.38949342-.0204542.01563725-.0479542.01844117-.0708889.00675817l-.0822137-.03893939c-.2057238-.09061111-.6466514-.23805961-1.088028-.08601485-.3888823.13415685-.6096372.48809799-.67916.61689862-.0148464.02753595-.046049.0415915-.0764967.03440196l-.0320985-.00733338c-.2181299-.04809002-.8188316-.14657951-1.3276955.08321899-.5669673.25630716-.7438659.6266764-.7889803.75083978-.0091667.02527124-.0328562.04220261-.0597451.04328104l-.0219924.00104177c-.137575.0075299-.4516605.04322359-.6499062.20982749-.3702614.31130715-.334098.55675811-.291464.66179731.0129771.03199346-.001366.06866012-.0323889.083866l-.0179085.0089341c-.1825948.0926008-.6350708.36731261-.9193561.92973241-.4048431.8014902-.2428627 1.4897809-.0207778 1.7711436z"/></svg>