<svg height="32" viewBox="0 0 32 32" width="32" xmlns="http://www.w3.org/2000/svg"><path d="m5.17093741 6.48181666c.80709609.00045227 1.51984618.52640555 1.75769476 1.29765955.58977733 1.91553747 1.22330793 3.43201389 1.90059179 4.54942909.04065446.0396468.07650889.0866389.10787611.1379851l.2460657.404005c.20376726.2883974.41132433.5422291.62267119.7614952.30128354.2793303.65458984.4977882 1.04208164.645237l.3522731.1340472c.4601902.175112.9484471.2648687 1.4408282.2648687h.9655317c.9445677 0 1.7102912.7657234 1.7102912 1.7102912v7.8473913c0 .4042335-.3257693.7329435-.7299864.736576l-3.2903595.0295691c-.4067997.0036557-.7395396-.323157-.7431953-.7299567l-.0000298-7.3857882-.70358956-.4796822c-.87429606-.5960637-1.5841588-1.4026636-2.06428638-2.3451531-.53784861-.9162531-.82047746-1.9898629-.77237961-1.6728086.09156734.6035992.45085317 2.8409708 1.07785749 6.7121149l-1.85787374-.0000972.00053815 5.1643943c0 .4068161-.32978961.7366057-.73660572.7366057h-2.74662677c-.40681611 0-.73660573-.3297896-.73660573-.7366057l-.00069993-5.1643943-2.013.0000972 1.06718112-10.95432307c.09190846-.94341533.88495559-1.66295747 1.83283726-1.66295747zm7.64590539 2.01818334c1.1045695 0 2 .8954305 2 2s-.8954305 2-2 2-2-.8954305-2-2 .8954305-2 2-2zm-8.71833813-8.5c1.23921357 0 2.25 1.01078644 2.25 2.25s-1.01078643 2.25-2.25 2.25c-1.23921356 0-2.25-1.01078644-2.25-2.25s1.01078644-2.25 2.25-2.25z" fill="none" stroke="#000" stroke-linecap="round" stroke-linejoin="round" stroke-width="1.2" transform="translate(8.179563 3)"/></svg>