<svg height="32" viewBox="0 0 32 32" width="32" xmlns="http://www.w3.org/2000/svg"><path d="m10.6675554 10.8913471c1.6568542 0 3 1.3431458 3 3 0 .383388-.0734871.7632224-.2164837 1.1189445l-.4838164 1.2035549-1.0536338 2.5513688c-.5449197 1.3632463-.3801178 2.9020287.4426288 4.1175216.7904429 1.1674793 2.0825019 1.8828059 3.4834499 1.938164l.1879692.0034674c1.4680628 0 2.8357291-.7255071 3.6591071-1.9416314.7884655-1.1648474.9726727-2.6266047.5070511-3.9462377l-.0644223-.1712839-1.0536338-2.5513688-.4838164-1.2035549c-.617976-1.5372936.1272782-3.2844848 1.6645718-3.9024608.3557222-.1429966.7355566-.2164837 1.1189445-.2164837h4.6526812c1.1045695 0 2 .8954305 2 2v13.1541969l-.0032157.111303c-.0554813.9575439-.8222121 1.7242746-1.7797559 1.779756l-.111303.0032156h-20.22472916c-1.00881545 0-1.8334437-.7885991-1.89105896-1.7829716l-.00321565-.111303v-13.1541969c0-1.1045695.8954305-2 2-2zm5.347802-6.8913471c.3242367 0 .5907624.24336596.6271833.55770395l.0042416.07372092v8.24751733c0 1.5263252.2911849 3.0386374.8579397 4.4558379l.8538531 2.1351053c.3112925.7779155.2172102 1.6574903-.2525699 2.3514262-.471043.6951988-1.2514841 1.1094135-2.0906478 1.1094135-.8391636 0-1.6202362-.4142147-2.0906477-1.1094135-.442146-.6531161-.5514939-1.4706737-.3033019-2.2136766l.0507319-.138381.7821127-1.9554258c.614145-1.5354759.9296802-3.1740304.9296802-4.8277717v-8.05463163c0-.34917795.2822469-.63142487.6314248-.63142487z" fill-rule="evenodd"/></svg>