<svg height="32" viewBox="0 0 32 32" width="32" xmlns="http://www.w3.org/2000/svg"><path d="m12.5817859 28.9012665c-1.3807119 0-2.5100548-1.0762386-2.59488486-2.4355719l-.00511519-.1644281-.00078585-3.6609975-1.13809459 3.9990139c-.24778314.8699423-1.08254818 1.4153759-1.95387362 1.3261498l-.1540308-.0223971-.14601489-.0337159c-.91863362-.2513251-1.50791782-1.1317718-1.40736946-2.0634188l.02320721-.1556495 1.58075735-8.2939216c.4962159-2.6035468 2.49832456-4.6469714 5.0769594-5.2123317l.2513139-.0500673.257585-.0406355c1.9694328-.2703165 3.9620429-.3195979 5.9407422-.1474993l.6590003.065566.6574545.0819385c2.6257939.3604061 4.7703862 2.2537489 5.4688318 4.7995601l.0630446.2483761.0539442.2550931 1.5807574 8.2939216c.1882151.9875274-.4144934 1.9537807-1.3841623 2.2190683-.8552916.2339957-1.7449566-.1762793-2.1399772-.9768354l-.0644671-.1452742-.049475-.1479272-1.1391329-3.9990139.0002525 3.6609975c0 1.2501525-.8852513 2.3032236-2.0920311 2.5478859l-.1665009.0282948-.1701692.0179288-.1712988.0058905zm4.0183599-15.848858-.0010584 3.0514651h.721l.0002393-.9319376c0-.0825119.0127632-.1642737.0376201-.2424399l.0462722-.1141969c.1805514-.3625374.5991694-.5279837.9723173-.4013271l.1004272.0418562.2500423.1245264c.8080103.4024063 1.3373403 1.2009484 1.4003503 2.0925558l.0063288.1794725v1.3327578c0 .0762873-.0074016.1523946-.0221006.2272524-.1255081.6391735-.745405 1.0555816-1.3845785.9300736-.7661818-.1504475-1.3321118-.7895097-1.3998601-1.5550663l-.006819-.1546906-.0002393-.3288363h-.721v2.8186714l2.0964486.0000988c.5236595 0 .9481695.42451.9481695.9481695 0 .5236596-.42451.9481696-.9481695.9481696l-4.6741759.0003921c-.2940135 0-.5323586.2383451-.5323586.5323586 0 .2646122.1930595.4841329.4460073.5253909l.0863513.0069677h3.9280332c.9729077 0 1.7616052.7886975 1.7616052 1.7616052 0 .9242624-.7117995 1.682275-1.6171262 1.7557656l-.144479.0058397h-3.9134099c-.3020897 0-.5469819.2448921-.5469819.5469819 0 .2718808.1983626.4974315.4582586.5398229l.0887233.007159 5.3602326.0004048.1271525-.0042642c.6819361-.0503114 1.2233236-.5880786 1.2883333-1.2600595l.0065507-.1360811v-7.9573457c0-.6612498.8902064-.8186177 1.1427037-.2587509l.0343457.0943916 2.3069732 8.1023061.0300706.0908548c.1191848.3001503.4475277.4651797.7620408.3791333.3324706-.0909592.5505596-.4004096.5341311-.7357511l-.0120842-.1011866-1.5783245-8.2818336-.0488266-.2309522c-.4904491-2.0997085-2.1837116-3.7017948-4.2892981-4.0828851l-.2271403-.0361259-.6352754-.079221c-.7440347-.0833626-1.4907487-.1338262-2.2374227-.1514917zm-1.2000112-.0001576c-.7643759.0178935-1.5271792.0701779-2.2854831.1567448l-.5678385.0713515-.233211.0367777c-2.1223355.3807996-3.81015336 1.9886209-4.30123757 4.0781806l-.0480021.2256908-1.58075736 8.2939217c-.07098669.3724531.15632921.7368826.52204686.8369377.30716481.084036.6237794-.0709955.75090176-.3529947l.032253-.0882967 2.31592981-8.1310028c.1811376-.6359563 1.0804009-.5434486 1.1698744.0641699l.0071751.1001894v7.9573457c0 .7016769.5162048 1.2827877 1.1895729 1.3842907-.0536241-.1681315-.0823573-.3463466-.0823573-.5312726 0-.9165899.7058908-1.6683102 1.6037023-1.7411907l.1432796-.0057912h3.9134099c.310166 0 .5616052-.2514392.5616052-.5616053 0-.2791494-.2036658-.5107301-.47051-.5542547l-.0910952-.0073505h-3.9280332c-.9567552 0-1.7323586-.7756034-1.7323586-1.7323586 0-.9063997.6961094-1.6502143 1.5828841-1.7259998l.1494745-.0063588 1.3786399-.000106-.0009126-3.5153954h-.572l.0003582.3288363c0 .8328673-.5894185 1.5492796-1.4066791 1.7097569-.6391735.125508-1.2590704-.2909001-1.3845785-.9300736-.0146991-.0748578-.0221006-.1509651-.0221006-.2272524v-1.3327578c0-.962847.5448015-1.8427949 1.4066791-2.2720283l.2500422-.1245264c.3954954-.196965.8757794-.0360245 1.0727445.3594709.0551753.1107889.0838924.2328689.0838924.3566368l-.0003582.9319376h.572zm.5999-9.95351743c2.137521 0 3.8702599 1.73276421 3.8702599 3.87025989s-1.7327389 3.87025994-3.8702599 3.87025994c-2.137483 0-3.8703291-1.73279548-3.8703291-3.87025994s1.7328461-3.87025989 3.8703291-3.87025989zm0 1.2c-1.4747492 0-2.6703291 1.19554499-2.6703291 2.67025989s1.1955799 2.67025989 2.6703291 2.67025989c1.4747754 0 2.6702599-1.19550198 2.6702599-2.67025989s-1.1954845-2.67025989-2.6702599-2.67025989z"/></svg>