<svg height="32" viewBox="0 0 32 32" width="32" xmlns="http://www.w3.org/2000/svg"><path d="m19.8031752 9.45992809.0316917.04357347c.8197476 1.15066324 1.6894073 1.86817924 2.6058455 2.18303964 1.3109006.4503857 2.4680646.6318674 3.4706305.5547091l.0855556-.0072467c.9671961-.0894746 1.389868 1.2341429.5620094 1.7599599-.9868627.626809-2.3670167.8163645-4.1587713.6005702l-.1785799-.0227172c.5336332.6755829 1.187919 1.2981877 1.9698406 1.8481372.8987402.6321117.1815142 2.0724479-.836569 1.6800011-1.7473057-.6735448-3.4712-1.6877427-4.9634804-2.9637109-.9329145 1.8669144-2.1728074 3.6418075-3.7158187 5.3247668 1.6776105 2.5620407 2.7352768 5.4747794 3.0808982 8.5389893h-6.7550865c-.3124149-1.8222801-1.00804625-3.5441959-2.04266996-5.0740857l-.06522836-.0955463c-.55265281-.9958913-.3121487-2.2722425.57160981-3.0251852l1.91751851-1.5674257.1249532-.1055666c2.1070883-1.7903255 3.7805992-3.7489421 5.0262237-5.8775337-.3284817-.3922185-.6315267-.8002863-.9084065-1.2224922l-1.0852377.256441-.749692.163368-.6655113.1312384-.3974908.0696535-.4732115.0706851-.3127805.0363827-.2770598.0221349-.2416894.0078937c-1.0753652.0037198-1.2806951-1.5810029-.2424536-1.8712413 1.9220861-.5373156 3.6316346-1.23389825 5.1297979-2.08810396l.1398335-.08054352c1.1349243-.66038227 2.5629281-.3547145 3.3533291.70985497zm-12.22416152 4.85168031c1.42434992 0 2.57901372 1.1477347 2.57901372 2.5635373 0 1.4158025-1.1546638 2.5635373-2.57901372 2.5635373-1.42434993 0-2.57901368-1.1477348-2.57901368-2.5635373 0-1.4158026 1.15466375-2.5635373 2.57901368-2.5635373zm7.94620712-11.3116084c1.3547545 0 2.453 1.08202303 2.453 2.41676609 0 1.33474305-1.0982455 2.41676609-2.453 2.41676609s-2.453-1.08202304-2.453-2.41676609c0-1.33474306 1.0982455-2.41676609 2.453-2.41676609z"/></svg>