<svg height="32" viewBox="0 0 32 32" width="32" xmlns="http://www.w3.org/2000/svg"><path d="m25.2100152 6.97223798c1.7726445 1.13533075 2.737003 2.90186037 2.7888759 5.11197552.0208854 1.0348031-.2527809 2.0333013-.8608398 3.1422076-.8337116 1.5198635-1.9390463 2.991129-3.3791142 4.4978951-1.9384788 2.0282462-4.1576612 3.9347104-6.9842215 5.999721-.2811578.2053062-.546765.2759628-.7790011.2759628-.3508512 0-.625539-.1611889-.762883-.2620613-3.5965942-2.6406033-6.14472103-4.9304512-8.26242789-7.4246863-.86572065-1.0197526-1.62667401-2.1507176-2.2616342-3.3617601-.93189545-1.7773291-.94562984-3.8956481-.03654937-5.66642864.91123711-1.7749165 2.63654902-2.98423561 4.61532287-3.23480801 1.43700319-.1819838 2.81645819.25700617 3.98932979 1.26917617.3976446.34320145.7644508.71044338 1.1169869 1.07676441l.3483931.36508956c.1755959.18485602.3510783.36948226.5291713.55123629l.1619609.17144275.1509789.1674791c.1222475.13683251.237798.26608237.3492622.36775897.0476731.0434279.0694665.0485979.1233825-.0009192.0751419-.06893321.1516963-.14899791.2307395-.23505385l.2629892-.28970053.4208427-.44072765.2730561-.28990744c.446765-.47609903.9088535-.96839738 1.4317819-1.41474022 1.9399543-1.65577685 4.3212253-1.79260937 6.5335973-.37591603zm-9.7879734 17.41284992.5333482.3939668.0403245.0209453.0468034-.0275929.0243013-.0173295c2.7718128-2.0250135 4.9378771-3.8857713 6.8246065-5.8598717.4319934-.4520016.8314053-.8993996 1.2003043-1.3447502l-1.082114-.0000527c-.1333935 0-.2658707.0190633-.3934541.0564249l-.1258049.0434328-1.3710167.5475653c-.6984377.2789464-1.4893157.0325735-1.9093144-.5755444l-.0789174-.1263984-.3416558-.6078815c-.018918-.0336593-.0484237-.0601277-.0839325-.0752923-.0711987-.0304067-.1513324-.0100332-.1999982.0448996l-.0299678.0474261-1.3333172 3.1220271c-.1361879.3188906-.4147668.5548973-.7517025.636828-.5509575.1339732-1.1059176-.1725924-1.2941691-.6940085l-.0345916-.1149383-1.5267738-6.2805404-.7304439 3.9072491c-.0377383.2018037-.114395.3938082-.2251779.565498l-.0894109.1247939c-.509588.6427465-1.4187653.7821517-2.0933174.3449285l-.1235742-.0887546-.72494604-.5747583c-.20621372-.1634922-.45344229-.2648839-.71287446-.2941397l-.15689325-.0088169-.78136195-.000403.3167252.3677512c1.8831508 2.1519518 4.1371911 4.1757312 7.2083166 6.4673367zm4.0334143-16.12419104-.2064616.18104242-.2041532.18980553-.2177174.21376226-.2471544.25291265-.9283038.97959968-.1769687.1838563-.4181138.4562008-.1243076.1245351c-.0205587.0196664-.0415095.0392601-.0635601.0594887-.521615.4790571-1.2451927.4578701-1.7438.0036618l-.1265601-.1208032-.1333436-.1397847-.3598207-.3976688-1.013821-1.05847726-.3623021-.36816713c-.2274504-.22573821-.4309937-.41583815-.6361999-.5929487-.9202134-.79412993-1.9618585-1.12554624-3.0545729-.98716359-1.58580454.20081064-2.9681325 1.16967912-3.69853613 2.59236642-.73033124 1.42259826-.71931148 3.12863706.03179001 4.56115246.35777211.6823691.75814076 1.3373508 1.19662529 1.9584322l1.71018758-.0022968c.52130974 0 1.02900879.1566654 1.45815995.4473775l.1571229.1152563.7249461.5747582c.1635922.1297006.4013529.102226.5310535-.0613661.0254613-.0321145.045445-.0680458.0592865-.1063361l.0160728-.0590225.8159152-4.3630733c.1116719-.5971613.6862949-.9907283 1.2834562-.8790563.3827432.0715748.6957365.3390903.8290293.6983435l.0376245.1230058 1.5649711 6.439113 1.2159802-2.8456688c.2796568-.6548301 1.0073398-.9808864 1.6727421-.7732934l.1320988.0486946c.2322358.0991804.4317539.2599683.5777313.4636842l.0809949.1272314.3416559.6078816c.084226.1498568.2524132.2263952.4160365.1983615l.0810214-.0228758 1.3710167-.5475653c.2453984-.0980088.5039389-.1578915.7666567-.1779243l.1976815-.0075257 2.006194-.0002545c.4016641-.5647267.7569248-1.1298667 1.070046-1.7006893.5119586-.9336499.7296828-1.7282968.7133655-2.5370887-.042631-1.816353-.8044194-3.21247287-2.2363219-4.12956766-1.7718599-1.13461123-3.5737001-1.03097639-5.1074435.27809402z"/></svg>