<svg height="32" viewBox="0 0 32 32" width="32" xmlns="http://www.w3.org/2000/svg"><path d="m25.9070677 10.402368c1.333624 3.4724407.0186928 6.9197541-2.3694213 9.5488616-.6776332.746007-.896325 2.0083173-.9588494 3.0979573l-.0188711.4881413c-.0016646.0784772-.0026807.1553055-.0031861.2301713v3.0378025c0 .3313709-.2686292.6-.6.6h-7.6945528c-.2467943 0-.4684155-.1511187-.5585513-.3808641l-.529948-1.3507748c-.1369328-.3490254-.4575951-.5921315-.8306307-.6297321l-2.81947786-.2841927c-.4595045-.0463163-.82752201-.4012766-.89040026-.8588091l-.41959695-3.0531891c-.0574409-.4179676-.37102006-.7549217-.78378723-.8422125l-1.06608814-.2254532c-.54033434-.1142683-.8857291-.6449286-.77146078-1.1852629.0315726-.1492956.09689394-.2893854.19096145-.4095408l1.12896906-1.4420673c.41325582-.5278646.63779876-1.1789367.63779876-1.8493257v-1.427363c.23894441-2.76082 1.87316318-5.30681641 4.16249295-6.83193388 1.254575-.83574826 2.7081566-1.34872206 4.2001302-1.54276779 4.1122022-.53486595 8.4431102 1.27132665 9.9944695 5.31055497zm-6.7918936-.8631064c-.2178868.17853714-.4104237.37545648-.5965758.5658961-.0774687.0791813-.1506337.1540428-.2258796.2280312-.0438895.0431982-.0839009.085753-.122588.1269291-.0511256.0544573-.0994135.1058355-.1463772.1471955-.022465.0198068-.0315455.0177388-.0514093.0003676-.0464435-.0406706-.0945895-.0923705-.1455259-.1471035-.0409573-.0439794-.0833334-.0894754-.1303916-.1355688-.0742055-.0727016-.1473231-.1465521-.2204881-.2204945-.1915909-.19356457-.3896613-.3937008-.610575-.57674157-.4886965-.404868-1.0634694-.58046399-1.6622207-.50767047-.8244891.10022896-1.5433691.58395661-1.9230512 1.29392324-.3787835.7083122-.3730609 1.5556398.0152289 2.2665714.2645667.484417.5816306.936803.9423476 1.3447041.8823778.997694 1.9440973 1.9136332 3.4426783 2.9698745.0572266.0403489.1716799.1048245.3178679.1048245.096765 0 .2074347-.0282626.3245837-.1103851 1.1777335-.8260043 2.1023929-1.5885899 2.9100924-2.3998884.6000282-.6027065 1.0605844-1.1912127 1.4079642-1.799158.2533579-.4435626.3673855-.8429619.3586833-1.2568831-.0216137-.8840461-.4234298-1.59065791-1.1620317-2.04479021-.9218216-.56667733-1.9140179-.51194433-2.7223322.15036641z"/></svg>