<svg height="32" viewBox="0 0 32 32" width="32" xmlns="http://www.w3.org/2000/svg"><path d="m22.3664109 9.03025727.0931974.20918682c.1955079.46636526 1.6760074 4.46916881-2.694528 9.59374161l-.342187.3975709c-.5868549.6687793-2.4655212 2.713424-5.5682148 5.203908l-.3165092.2517677-2.8537428 2.1014149c-.4382875.3221418-1.04682023.2726634-1.42730991-.116051l-2.01592872-2.059505c-.42193123-.4310529-.41453762-1.1225332.01651468-1.544465.06010832-.0588365.12681219-.1105324.19878521-.1540597l2.70045564-1.6402102 1.9040982-1.1739857c.5737332-.359035.9219792-.5853987 1.0447381-.6790912l-.4061194-.4616662-.3714041-.443096c-.9643762-1.1745071-2.52828557-3.2680823-2.910196-4.9105436l-.04929537-.2227038c-.51021277-2.428547-.4717004-6.51154866 4.85608567-8.13890299l.1946998-.05683341.1958429-.04322177c1.0548382-.21040289 5.5933188-.80909184 7.7510177 3.88674564zm-2.9164814 10.36730733 5.1097246 3.418727c.5105901.32114.6641697.9953905.3430296 1.5059805-.0310825.0494191-.0660775.0962663-.1046486.1400914l-1.8609018 2.1143881c-.3751282.4262271-1.0142779.4939225-1.4703691.155734l-.9968833-.74879-1.0199514-.7821819-.5227591-.4082896c-.8668243-.6821114-1.6922066-1.3591551-2.1875798-1.8329741l-.1347587-.1321494m2.3938974-10.4768387c.5834172-4.012082-3.216777-3.65941934-3.216777-3.65941934-2.9490145.40490899-3.2987746 2.52814144-2.4613822 4.35458574.8395694 1.8271699 2.8793528 3.702958 2.8793528 3.7036836 2.5782108-2.7676037 2.7988064-4.39885 2.7988064-4.39885z" fill="none" stroke="#000" stroke-linecap="round" stroke-linejoin="round" stroke-width="1.2"/></svg>