<svg height="32" viewBox="0 0 32 32" width="32" xmlns="http://www.w3.org/2000/svg"><path d="m26.4671767 10.1872451c1.3263264 3.4534394.2887822 7.11327-2.4854019 10.1674072-.5336134.5874556-.7824522 1.6858204-.8202644 3.1213065l-.0047706.2915407v3.0378025c0 .6213204-.4721997 1.1323526-1.077307 1.1938046l-.122693.0061954h-7.6945528c-.4487169 0-.8558253-.249783-1.0615773-.6404204l-.0555252-.1213079-.5299481-1.3507748c-.0456442-.1163418-.1423245-.2032615-.2596341-.2377069l-.0726181-.0141859-2.8194779-.2841927c-.68619339-.0691657-1.24487423-.5685126-1.39811102-1.2299701l-.02652939-.1441244-.41959695-3.0531892c-.01914697-.1393225-.10944345-.2561413-.23455837-.311417l-.07895652-.025468-1.06608815-.2254531c-.86453494-.1828294-1.41716654-1.0318858-1.23433724-1.8964208.04041293-.1910984.11538457-.37277.22081681-.536226l.08472152-.1190392 1.12896905-1.4420674c.28927908-.3695052.46297151-.814475.50187463-1.2792305l.00836438-.20023.00223464-1.4790986c.25012446-2.8899969 1.93837506-5.62125163 4.42761321-7.27954509 1.3072116-.87081268 2.8407013-1.42840363 4.4553864-1.63840917 4.6457172-.6042592 9.0558187 1.58664842 10.6319674 5.69042026zm-10.4771944-4.50044324c-1.4358891.18675139-2.7943661.68070609-3.9448606 1.44712009-2.10793298 1.40427358-3.56402006 3.68278205-3.86464954 6.04835625l-.03049711.2842365v1.427363c0 .7240201-.21825574 1.4292642-.62342308 2.0248487l-.14193543.1943421-1.12896906 1.4420673c-.037627.0480622-.06375554.1040981-.07638458.1638163-.03999391.1891171.06078399.3752714.23139609.4494754l.07718822.0246298 1.06608815.2254532c.61325408.1296892 1.08966918.6038117 1.22818428 1.2063191l.02587529.1412209.41959694 3.0531891c.02155826.1568683.13279009.2835929.27987756.3282654l.07628254.0152582 2.81947783.2841928c.5471189.0551475 1.0238248.3865857 1.2682333.871584l.0607758.1359873.5299481 1.3507747h7.6945528l.0000136-3.0418535c.01259-1.8647003.3035961-3.2984057 1.1367622-4.2156391 2.4173269-2.6612684 3.343675-5.7511204 2.3520385-8.6583282l-.098598-.271997-.0967559-.2393616c-1.4416897-3.39450812-5.2244265-5.21624809-9.2602179-4.69132074zm3.1251918 3.85245974c.8083143-.66231074 1.8005106-.71704374 2.7223322-.15036641.7386019.4541323 1.140418 1.16074411 1.1620317 2.04479021.0087022.4139212-.1053254.8133205-.3586833 1.2568831-.3473798.6079453-.807936 1.1964515-1.4079642 1.799158-.8076995.8112985-1.7323589 1.5738841-2.9100924 2.3998884-.117149.0821225-.2278187.1103851-.3245837.1103851-.146188 0-.2606413-.0644756-.3178679-.1048245-1.498581-1.0562413-2.5603005-1.9721805-3.4426783-2.9698745-.360717-.4079011-.6777809-.8602871-.9423476-1.3447041-.3882898-.7109316-.3940124-1.5582592-.0152289-2.2665714.3796821-.70996663 1.0985621-1.19369428 1.9230512-1.29392324.5987513-.07279352 1.1735242.10280247 1.6622207.50767047.2209137.18304077.4189841.383177.610575.57674157.073165.0739424.1462826.1477929.2204881.2204945.0470582.0460934.0894343.0915894.1303916.1355688.0509364.054733.0990824.1064329.1455259.1471035.0198638.0173712.0289443.0194392.0514093-.0003676.0469637-.04136.0952516-.0927382.1463772-.1471955.0386871-.0411761.0786985-.0837309.122588-.1269291.0752459-.0739884.1484109-.1488499.2258796-.2280312.1861521-.19043962.378689-.38735896.5965758-.5658961z"/></svg>