<svg height="32" viewBox="0 0 32 32" width="32" xmlns="http://www.w3.org/2000/svg"><path d="m25.140625 4c.7766719 0 1.40625.62957813 1.40625 1.40625 0 .73098529-.5576886 1.33167301-1.2708154 1.39981279l-.1354346.00643721v8.3399063c0 1.07625-.2990625 2.1290156-.8648906 3.0444843-.433625.701625-1.0096574 1.2988056-1.6883606 1.7562495l-.2592488.1649224v6.4756875h.703125c.3883125 0 .703125.3148125.703125.703125 0 .3559531-.2645299.6501458-.6077178.6967061l-.0954072.0064189h-2.8125c-.3883125 0-.703125-.3148125-.703125-.703125 0-.3559531.2645299-.6501458.6077178-.6967061l.0954072-.0064189h.703125v-6.4756875c-.7917188-.4747031-1.4597812-1.1318437-1.9476094-1.9211719-.5143892-.8322443-.8083109-1.7779571-.8575001-2.7516294l-.0073905-.2928549v-8.3399063c-.7766719 0-1.40625-.62957812-1.40625-1.40625 0-.73098529.5576886-1.33167301 1.2708154-1.39981279l.1354346-.00643721zm-11.25 0c.7766719 0 1.40625.62957813 1.40625 1.40625 0 .73098529-.5577301 1.33167301-1.2708227 1.39981279l-.1354273.00643721v8.3399063c0 1.07625-.2990625 2.1290156-.8648906 3.0444843-.433625.701625-1.0096574 1.2988056-1.6883606 1.7562495l-.2592488.1649224v6.4756875h.703125c.3883125 0 .703125.3148125.703125.703125 0 .3559531-.2645299.6501458-.6077178.6967061l-.0954072.0064189h-2.8125c-.3883125 0-.703125-.3148125-.703125-.703125 0-.3559531.26452995-.6501458.60771777-.6967061l.09540723-.0064189h.703125v-6.4756875c-.79171875-.4747031-1.45978125-1.1318437-1.94760938-1.9211719-.5143892-.8322443-.80831095-1.7779571-.85750011-2.7516294l-.00739051-.2928549v-8.3399063c-.77667187 0-1.40625-.62957812-1.40625-1.40625 0-.73098529.55768858-1.33167301 1.27081539-1.39981279l.13543461-.00643721zm9.84375 8.96875h-4.21875v2.3279991l.0130435.190725c.1061192 1.4166618.8815535 2.6791081 2.0963315 3.4135259 1.214778-.7344178 1.9902123-1.9968641 2.0963714-3.4135259l.0090036-.1917241.004.0009991zm-11.25 0h-4.21875v2.3279991l.0130435.190725c.10611924 1.4166618.88155354 2.6791081 2.0963315 3.4135259 1.214778-.7344178 1.9902123-1.9968641 2.0963714-3.4135259l.0090036-.1917241.004.0009991zm-.00025-6.15675h-4.219l.0005 4.7505h4.21875zm11.25 0h-4.219l.0005 4.7505h4.21875z"/></svg>