<svg width="32" height="32" viewBox="0 0 32 32" fill="none" xmlns="http://www.w3.org/2000/svg">
<path d="M16.1582 3.50193L16.1572 3.50291C16.2636 3.50556 16.371 3.51054 16.4775 3.51951L16.4765 3.52049C17.1984 3.58048 17.9042 3.78095 18.5488 4.09764L18.5507 4.09861C19.0587 4.34993 19.5163 4.70248 19.8886 5.13084L20.0429 5.31932L20.0917 5.38182L20.1181 5.45701C20.3919 6.22589 20.337 7.09672 20.1972 7.8242C20.0555 8.56153 19.8136 9.21519 19.6533 9.58689L19.1621 10.7256L18.7265 9.56541C18.7335 9.58411 18.7204 9.55036 18.6591 9.46092C18.6059 9.38318 18.5311 9.28503 18.4394 9.18162C18.2511 8.9694 18.0175 8.76436 17.7773 8.64744C17.4923 8.50883 17.186 8.41041 16.8681 8.34959C16.6841 8.31877 16.4949 8.29846 16.3027 8.28611L16.2539 8.28318C16.1697 8.27789 16.0837 8.27523 15.999 8.27439C15.9297 8.27511 15.8602 8.27652 15.791 8.28025L15.7919 8.28123L15.7451 8.28416C15.5358 8.29625 15.3285 8.31603 15.1289 8.34959C14.8122 8.41042 14.5075 8.50936 14.2236 8.64744C13.9833 8.76433 13.7489 8.96928 13.5605 9.18162C13.4688 9.28502 13.394 9.38318 13.3408 9.46092C13.2793 9.55066 13.2672 9.58457 13.2744 9.56541L12.8378 10.7256L12.3466 9.58689C12.1863 9.21518 11.9454 8.56151 11.8037 7.8242C11.6638 7.0967 11.608 6.22593 11.8818 5.45701L11.9091 5.38182L11.957 5.31932C12.3539 4.80545 12.8695 4.38583 13.4501 4.09861L13.4511 4.09764C14.0957 3.78093 14.8015 3.57951 15.5234 3.51951L15.7353 3.50584C15.8063 3.50267 15.8773 3.50039 15.9482 3.49998H15.998C16.051 3.49983 16.1048 3.50058 16.1582 3.50193Z" fill="#008589"/>
<path d="M12.112 5.14423C11.7918 6.04389 12.8953 8.42387 13.328 9.33398L13.3289 9.33594C13.813 10.3607 14.2748 11.1484 15.1551 12.1533L15.1639 12.1631C16.5607 13.8393 17.9901 15.4387 19.4139 17.1182C21.1211 19.1306 22.8273 21.144 24.5324 23.1582C24.6789 23.3313 24.7154 23.5721 24.6266 23.7807L22.8124 28.0471C22.6378 28.4575 22.0924 28.5408 21.8033 28.2011C19.0346 24.9479 16.2664 21.6938 13.5233 18.4189L13.5223 18.418C12.8221 17.5764 12.1269 16.7237 11.4569 15.8486C10.7797 14.9848 10.2434 14.0019 9.90805 12.9473L9.9061 12.9414C9.78604 12.5487 9.70615 12.139 9.67856 11.7217L9.66782 11.5527C9.65222 11.1622 9.71009 10.7591 9.86704 10.3799C10.3285 9.16743 10.7709 7.96867 11.2323 6.75C11.337 6.46955 11.4578 6.12942 11.6366 5.81347C11.73 5.64227 11.8356 5.47868 11.952 5.32422L12.112 5.14423Z" fill="#49B7CD"/>
<path d="M19.8848 5.14423C20.205 6.04389 19.1015 8.42386 18.6688 9.33398L18.6678 9.33593C18.1838 10.3606 17.722 11.1484 16.8416 12.1533L16.8329 12.1631C15.4361 13.8393 14.0067 15.4387 12.5829 17.1182C10.8756 19.1306 9.16947 21.144 7.46432 23.1582C7.31785 23.3312 7.28141 23.5721 7.37013 23.7807L9.1844 28.0471C9.35894 28.4575 9.90441 28.5408 10.1935 28.2011C12.9622 24.9479 15.7304 21.6938 18.4735 18.4189L18.4745 18.418C19.1747 17.5764 19.8699 16.7237 20.5399 15.8486C21.2171 14.9847 21.7533 14.0019 22.0887 12.9473L22.0907 12.9414C22.2107 12.5487 22.2906 12.139 22.3182 11.7217L22.329 11.5527C22.3445 11.1622 22.2867 10.7591 22.1297 10.3799C21.6683 9.16743 21.2258 7.96867 20.7645 6.74999C20.6597 6.46954 20.539 6.12941 20.3602 5.81347C20.2667 5.64227 20.1612 5.47867 20.0448 5.32421L19.8848 5.14423Z" fill="#49B7CD"/>
<path d="M19.4716 17.1953C19.7969 17.5788 20.169 18.0165 20.6513 18.5859L20.9208 18.9043L20.6561 19.2266C20.4909 19.4277 20.3252 19.6285 20.1591 19.8281L20.1581 19.8291C19.5689 20.5325 18.7882 21.4596 17.8163 22.6094L17.4345 23.0605L17.0526 22.6094C16.6806 22.17 16.3297 21.7555 16 21.3657L19.4716 17.1953Z" fill="#2CA3BA"/>
</svg>
