<svg height="32" viewBox="0 0 32 32" width="32" xmlns="http://www.w3.org/2000/svg"><path d="m19.0190602 12.4368499.6784224.0861348c2.1354803.2935496 3.842447 1.9226319 4.2353337 4.0420864l1.7729885 9.5645088c.1296008.6799902-.2854114 1.3453316-.9531046 1.528003-.6142048.1680377-1.2478958-.1569009-1.4780187-.7364336l-.0405183-.1192305-2.3159299-8.1310028-.4182141 9.3047408-3.2984716.0016476.0127971-.1100816c.0282137-.4998866-.3221441-.9525758-.8274118-1.0403546-.5441345-.094531-1.0618752.2699445-1.1564063.814079l-.059979.3373572-3.6705668.0028381-.4182141-9.3102265-2.31592987 8.1310028c-.18606246.653247-.86338524 1.0349044-1.51853704.8556641-.66769323-.1826714-1.08270544-.8480128-.95310456-1.528003l1.80771379-9.5635701c.38291371-2.0257755 1.96700428-3.6006313 3.97721628-3.9830275l.3037931-.0488481c2.1996318-.3158695 4.4298485-.3483523 6.6361418-.0972843zm-2.4626431 10.8615698c-.5518239.022557-.9808795.4881848-.9583225 1.0400087.0122566.2998397.0095131.6001831-.0082461.8999045-.0326668.5513178.3877829 1.0247309.9391007 1.0573977s1.0247309-.3877829 1.0573977-.9391007c.0217059-.3663301.0250591-.7334181.0100789-1.0998877-.0225571-.5518239-.4881848-.9808795-1.0400087-.9583225zm-1.0115284-3.3729275c-.5240773.1742453-.8076721.7403476-.6334268 1.2644249l.186876.5372407c.045104.128593.0872615.258133.1264509.3885325.1589564.5289153.7165866.8288261 1.2455018.6698696.5289152-.1589564.828826-.7165865.6698696-1.2455017l-.0745631-.2382599-.2562834-.7428793c-.1742453-.5240773-.7403477-.8076721-1.264425-.6334268zm-.1528805-3.566197c-.551926-.0199036-1.0154854.4113858-1.035389.9633118-.0132227.3666661-.0080827.7337505.0153871 1.0998655.0353316.5511534.5107717.9693096 1.0619251.933978.5511535-.0353316.9693097-.5107716.9339781-1.0619251-.0192019-.2995393-.0234072-.5998655-.0125895-.8998413.0199036-.551926-.4113858-1.0154854-.9633118-1.0353889zm-.3116029-2.7280413c-.1073233.339057-.2052527.6727151-.2937707 1.000995-.1437838.5332398.1719327 1.0820759.7051725 1.2258596.5332398.1437838 1.0820758-.1719326 1.2258596-.7051724.0809316-.3001449.1707577-.606194.2694954-.9181271.1666671-.5265363-.1250645-1.0884887-.6516008-1.2551559-.5265364-.1666671-1.0884888.1250645-1.255156.6516008zm.919633-9.6129495c2.0006066 0 3.6223034 1.62177349 3.6223034 3.62230334 0 2.00052984-1.6216968 3.62230336-3.6223034 3.62230336-2.0005298 0-3.62238-1.62177352-3.62238-3.62230336 0-2.00052985 1.6218502-3.62230334 3.62238-3.62230334z" fill-rule="evenodd"/></svg>