<svg height="32" viewBox="0 0 32 32" width="32" xmlns="http://www.w3.org/2000/svg"><path d="m16.5155232 3.92836011c.0718949.04714141.1368119.10380724.1930533.16829983l.0776433.10239675c3.5741795 5.49556618 5.8205141 9.59068811 6.7390037 12.28536591l.0933286.2833566c1.2937546 4.0755922-.8100271 8.4786564-4.6989281 9.8345192-.7554408.2633839-2.1234758.3977016-2.919624.3977016s-2.1641832-.1343177-2.919624-.3977016c-3.79404973-1.322793-5.8889973-5.5459561-4.78755306-9.5357697l.08862495-.2987495.09332857-.2833566c.85288324-2.5022008 2.85069404-6.2119274 5.99343234-11.12917995l.7455714-1.15618596c.2847156-.43421719.8675258-.55541217 1.301743-.27069658zm2.3033263 17.37088899h-5.637699l-.0973231.007853c-.2850873.0465002-.5026769.2939132-.5026769.592147 0 .3313708.2686291.6.6.6h5.637699l.0973231-.007853c.2850873-.0465003.5026769-.2939133.5026769-.592147 0-.3313709-.2686291-.6-.6-.6zm-2.8188495-9.588217c-.3313708 0-.6.2686292-.6.6l-.0008495 2.218-2.218.0008495-.0973231.007853c-.2850873.0465003-.5026769.2939132-.5026769.592147 0 .3313709.2686291.6.6.6l2.218-.0008495.0008495 2.219699.007853.0973231c.0465002.2850873.2939132.5026769.592147.5026769.3313708 0 .6-.2686291.6-.6l-.0008495-2.219699 2.219699.0008495.0973231-.007853c.2850873-.0465002.5026769-.2939132.5026769-.592147 0-.3313708-.2686291-.6-.6-.6l-2.219699-.0008495.0008495-2.218-.007853-.0973231c-.0465002-.2850873-.2939132-.5026769-.592147-.5026769z" fill-rule="evenodd"/></svg>