<svg height="32" viewBox="0 0 32 32" width="32" xmlns="http://www.w3.org/2000/svg"><path d="m6.21153687 19.8c.24553497 0 .48101346.0975384.6546329.2711578l4.86267243 4.8626724c.3615437.3615438.3615437.9477221 0 1.3092658-.1736195.1736195-.409098.2711579-.6546329.2711579h-4.86267243c-.5113001 0-.92579073-.4144907-.92579073-.9257908v-4.8626724c0-.5113001.41449063-.9257907.92579073-.9257907zm20.03155913.2711578c.1736195.1736195.2711579.409098.2711579.6546329v4.8626724c0 .5113001-.4144907.9257908-.9257908.9257908h-4.8626724c-.5113001 0-.9257907-.4144907-.9257907-.9257908 0-.2455349.0975384-.4810134.2711578-.6546329l4.8626724-4.8626724c.3615438-.3615437.9477221-.3615437 1.3092658 0zm-8.7825617-9.3156568c.4399056 0 .8029266.3291821.8561729.7546823l.0067232.1082469-.0004304 2.0575698 2.0586028.0005696c.350258 0 .6561147.2098116.7937864.5436389l.0394917.1157512.0242334.1126058.0053847.0909002v2.9210686c0 .4399056-.3291821.8029266-.7546823.8561729l-.1082469.0067232-2.0585698-.0004304.0004304 2.0586028c0 .350258-.2098116.6561147-.5436389.7937864l-.1157512.0394917-.1126058.0242334-.0909002.0053847h-2.9210686c-.4399056 0-.8029266-.3291821-.8561729-.7546045l-.0067232-.1082258-.0005696-2.0586687-2.0576028.0004304c-.350258 0-.6561147-.2098116-.7937864-.5436389l-.0394917-.1157512-.0242334-.1126058-.0053847-.0909002v-2.9210686c0-.4399056.3291821-.8029266.7546045-.8561729l.1082258-.0067232 2.0576687-.0005696.0005696-2.0576028c0-.350258.2098116-.6561147.5436389-.7937864l.1157512-.0394917.1126058-.0242334.0909002-.0053847zm-.3375343 1.199499h-2.247l.0002775 2.3213434c-.0000292.2650555-.1719251.4899567-.4103178.5693336l-.0923085.0227391-.0973078.0078614-2.3213434-.0002775-.002 2.247 2.3232445.0002844c.2650864-.0000146.4900323.1718829.5694259.4102977l.0227439.0923177.0078632.0973187-.0002775 2.3207815 2.247.002.0002844-2.3226827c-.0000146-.2651172.1719214-.4900796.4103715-.5694506l.0923307-.0227335.0973307-.0078488 2.3206827-.0002844.002-2.247-2.3227815.0002775c-.2650864-.0000292-.4900041-.1719637-.5693583-.4103916l-.0227288-.0923215-.007847-.0973199zm8.4654631-6.66925386c.5113001 0 .9257908.41449063.9257908.92579073v4.86267243c0 .5113001-.4144907.9257907-.9257908.9257907-.2455349 0-.4810134-.0975384-.6546329-.2711578l-4.8626724-4.86267243c-.3615437-.36154377-.3615437-.94772204 0-1.3092658.1736195-.17361945.409098-.27115783.6546329-.27115783zm-14.5142538 0c.5113001 0 .9257907.41449063.9257907.92579073 0 .24553497-.0975384.48101346-.2711578.6546329l-4.86267243 4.86267243c-.36154377.3615437-.94772204.3615437-1.3092658 0-.17361945-.1736195-.27115783-.409098-.27115783-.6546329v-4.86267243c0-.5113001.41449063-.92579073.92579073-.92579073z" fill-rule="evenodd"/></svg>