<svg height="32" viewBox="0 0 32 32" width="32" xmlns="http://www.w3.org/2000/svg"><g fill="none" fill-rule="evenodd"><path d="m7.54997505 13.4665147c.23894441-2.76082 1.87316318-5.30681641 4.16249295-6.83193388 1.254575-.83574826 2.7081566-1.34872206 4.2001302-1.54276779 4.1122022-.53486595 8.4431102 1.27132665 9.9944695 5.31055497 1.333624 3.4724407.0186928 6.9197541-2.3694213 9.5488616-.8340101.9181624-.9728191 2.6184176-.9809066 3.8162699v3.0378025c0 .3313709-.2686292.6-.6.6h-7.6945528c-.2467943 0-.4684155-.1511187-.5585513-.3808641l-.529948-1.3507748c-.1369328-.3490254-.4575951-.5921315-.8306307-.6297321l-2.81947786-.2841927c-.4595045-.0463163-.82752201-.4012766-.89040026-.8588091l-.41959695-3.0531891c-.0574409-.4179676-.37102006-.7549217-.78378723-.8422125l-1.06608814-.2254532c-.54033434-.1142683-.8857291-.6449286-.77146078-1.1852629.0315726-.1492956.09689394-.2893854.19096145-.4095408l1.12896906-1.4420673c.41325582-.5278646.63779876-1.1789367.63779876-1.8493257z" fill="#f8c31c" fill-rule="nonzero"/><path d="m10.4624224 12.5439167c.2170882.2750359.4643725.3287778.5951503.3359673.0430653.0023726.0730817.0433529.0613268.0848366l-.0149785.0617206c-.0547649.2700045-.0310972.8337519 1.0115791 1.0726069l.0346313.0077312c1.0941763.2377941 1.7558298 1.0888561 2.1878853 1.5210554.3260823.3257997.7651742.4796736 1.2052261.5805572l.1861165.0418698c.4013163.0911238.791242.1951006 1.1094316.4816709.380219.3424738.9164869 2.2282187 1.0075065 2.5560258.0079804.0287941.0341862.0486013.0640947.0486013h.5615392c.0315261 0 .0588104-.0220719.065317-.052951l.2720882-1.2870357c.0114313-.0540654 2.6492742.1629869 2.8523428-1.0144444.0071176-.0413039.0488529-.0669346.0882875-.0526993l.0886576.0294237c.3191651.0972329 1.0212596.2213315 1.4179109-.3932864.311415-.4825261.2286993-.9330228.1853104-1.0885685-.0089869-.0322092.0071896-.0657124.0379249-.0789412l.0564906-.0264038c.2783377-.1400517.9680436-.6299714.8662511-2.0148508-.0884673-1.202379-.9017483-1.7353038-.7880457-1.9202188.3279869-.5333561.0428856-1.4174541-.6290849-1.61480697-.0270686-.00794445-.0463006-.03192157-.0488529-.06003267l-.0283627-.31342807c-.0933203-1.1051404-1.545428-1.80550959-2.5326958-1.34606194-.0380686.01772222-.0833268-.00115032-.0959804-.04116012-.1235882-.39175813-.3730294-.49960125-.4394967-.53698687-.3060947-.17222547-.7035685-.15094442-1.0199803-.02106535-.0255947.01049673-.0547483.00409804-.0736209-.01610458l-.0064829-.00680372c-.1001127-.10308351-.4657851-.39516355-1.062566-.39516355-.626209 0-.944526.30429735-1.0558201.38949342-.0204542.01563725-.0479542.01844117-.0708889.00675817l-.0822137-.03893939c-.2057238-.09061111-.6466514-.23805961-1.088028-.08601485-.3888823.13415685-.6096372.48809799-.67916.61689862-.0148464.02753595-.046049.0415915-.0764967.03440196l-.0320985-.00733338c-.2181299-.04809002-.8188316-.14657951-1.3276955.08321899-.5669673.25630716-.7438659.6266764-.7889803.75083978-.0091667.02527124-.0328562.04220261-.0597451.04328104l-.0219924.00104177c-.137575.0075299-.4516605.04322359-.6499062.20982749-.3702614.31130715-.334098.55675811-.291464.66179731.0129771.03199346-.001366.06866012-.0323889.083866l-.0179085.0089341c-.1825948.0926008-.6350708.36731261-.9193561.92973241-.4048431.8014902-.2428627 1.4897809-.0207778 1.7711436z" fill="#ea5c98" fill-rule="nonzero"/><path d="m25.9070677 10.402368c1.333624 3.4724407.0186928 6.9197541-2.3694213 9.5488616-.8340101.9181624-.9728191 2.6184176-.9809066 3.8162699v3.0378025c0 .3313709-.2686292.6-.6.6l-4.6369439-.000302-.6107379-5.3982993c-.1392615-1.2313127-.209058-2.469492-.209058-3.7086549l-.0009316-13.26656533c3.9304371-.29811617 7.9302446 1.52330143 9.4079993 5.37088753z" fill="#f1ae0b"/><path d="m17.6773431 7.08496966c.5967809 0 .9624533.29208004 1.062566.39516355.0253555.02700634.0545091.03340503.0801038.0229083.3164118-.12987907.7138856-.15116012 1.0199803.02106535.0664673.03738562.3159085.14522874.4394967.53698687.0126536.0400098.0579118.05888234.0959804.04116012.9872678-.45944765 2.4393755.24092154 2.5326958 1.34606194l.0283627.31342807c.0025523.0281111.0217843.05208822.0488529.06003267.6719705.19735287.9570718 1.08145087.6290849 1.61480697-.1137026.184915.6995784.7178398.7880457 1.9202188.1017925 1.3848794-.5879134 1.8747991-.8662511 2.0148508l-.0564906.0264038c-.0307353.0132288-.0469118.046732-.0379249.0789412.0433889.1555457.1261046.6060424-.1853104 1.0885685-.3966513.6146179-1.0987458.4905193-1.4179109.3932864l-.0886576-.0294237c-.0394346-.0142353-.0811699.0113954-.0882875.0526993-.2030686 1.1774313-2.8409115.960379-2.8523428 1.0144444l-.2720882 1.2870357c-.0065066.0308791-.0337909.052951-.065317.052951h-.5615392c-.0299085 0-.0561143-.0198072-.0640947-.0486013-.0910196-.3278071-.6272875-2.213552-1.0075065-2.5560258-.1056696-.095169-.2192509-.1702001-.3385336-.2313103l-.0010124-9.04465264.0513892.02525159c.0152898.00778867.0326086.0091387.0485161.00454006l.0223728-.01129823c.1112941-.08519607.4296111-.38949342 1.0558201-.38949342z" fill="#b1205d"/></g></svg>