<svg height="32" viewBox="0 0 32 32" width="32" xmlns="http://www.w3.org/2000/svg"><path d="m25.7637916 17.1586709.0426058.0346574.0346573.0426057.1989775.3083829.3676352.5847883c.0579036.0939117.1141229.1860468.1686577.2764054l.3069955.5208331.1383378.2444278.2463559.4568781c.1884522.3629664.3347935.6815196.439024.9556595l.0841231.2400309c.3692677 1.1632688-.2312006 2.4200058-1.3411835 2.8070007-.2156203.0751759-.6060894.1135132-.8333286.1135132s-.6177083-.0383373-.8333287-.1135132c-1.0829101-.377556-1.6808569-1.582945-1.366479-2.7217307l.0519337-.1661466c.113602-.333287.2983713-.7416323.554308-1.2250361l.236803-.4327278.3450222-.5926081.4859202-.786954.3014152-.4692034c.0812644-.1239357.247612-.1585275.3715477-.0772631zm-12.3292484-10.96040716c.5491498-.57713116 1.462181-.59981451 2.0393121-.05066469.1635863.15565499.2877629.34696926.363465.55806629l.047546.16178397.0570381.24653388c.2836711 1.22610324-.0405415 2.50863569-.8608378 3.45061081l-.1595917.1725325-.4964749.5038735 10.1689106.2967127c.9518018.0252019 1.729184.7303742 1.8720599 1.643087l.0178587.1539594.0056511.1493787c0 1.0056372-.7764095 1.8299343-1.7624959 1.9061584l-.1494147.0057523-3.6535697-.0000485.0239315.0558245c.0439336.1151719.0772693.2355766.0988149.3600219l.0233266.1895494.0053512.1456016c0 .7955161-.4780463 1.4860047-1.1838604 1.789351l-.1441255.0554238-.0554383.0162278.0414744.1346981.0337924.1586777.0206012.1624025.0069657.1654467c0 .7955161-.4780463 1.4860047-1.1838604 1.789351l-.1441255.0554238-.0318478.0080002.0432747.1430125.0337802.1586504.0205936.1623734.0069632.1654163c0 .9546193-.6883867 1.757999-1.6326787 1.9226448l-.1596773.0214432-.1585929.0068609h-6.0682591l-.285037-.0021818-.50571211-.0127151c-1.03434951-.043457-1.70480305-.2117388-2.63569787-.6920771l-.2608067-.138879-.47137421-.263172c-.66197132-.3572242-1.19965049-.5486073-1.59188738-.5834072l-.24928604-.0095185c-.48999616-.0403121-.90461748-.3827396-1.04830568-.8912377l-.03016444-.1305056-.01245374-.1630958.00034982-5.9467522c-.01287188-.3767839.09832931-.7189045.33257212-.9963923.06426116-.0761247.1369173-.1383265.23502487-.1981595l.1072231-.0594715.14522541-.0610589.28089084-.0989366c.20707902-.0781322.41074518-.1814955.6450653-.3393921l.18202-.1291052.97532532-.7690227.33404304-.2540771c.27832276-.2059455.54694619-.3881541.87918176-.5942834l.26224944-.1598269 1.73925298-1.02781748.73525187-.43992555c.5021571-.30175938.9685156-.65876782 1.3904656-1.06412423l.2477721-.2489604zm1.1594559.78052013c-.0750402-.04023096-.1664608-.0379597-.2394106.00594792l-.0507046.040724-1.5129511 1.59004191c-.5589321.58741187-1.1944797 1.09681768-1.889483 1.5144635-.4899164.2944037-.98547869.5896447-1.48594069.8852837l-.99226761.5846706c-.34074778.2043585-.60129902.3726369-.8501355.5488343l-.18550088.1343203-.31861789.242272-.5734967.4538023-.40905054.3207212c-.34843907.259066-.65099906.43445-.95853927.567264l-.18552862.0749089-.2883721.1019615-.01443323.0393949-.00867616.0541102-.0037266 5.9832331.00183599.0442618c.5811791-.0006299 1.255769.2010809 2.03726608.5937617l.26447706.137951.48390605.2701572c.82463549.4516375 1.32563165.6127625 2.11056405.6678282l.24460538.0135223.48488748.0122021.2700591.001979 6.0354101.0006767.1015194-.0041403c.3824664-.0365469.677917-.3597877.677917-.7474853 0-.2204516-.095268-.424028-.2558488-.5647465l-.1622207-.12327c-.3732034-.3312661-.1842518-.9646023.3094514-1.0372326l.0960778-.0068367.4883259.0014838.1015194-.0041403c.3824664-.0365469.677917-.3597877.677917-.7474853 0-.2204924-.095304-.4241029-.2559354-.5648225l-.1622703-.1232647c-.3733169-.3312597-.1843248-.9647416.3094692-1.0373087l.0960954-.0068223.5137952.0016162.1015194-.0041403c.3824664-.0365469.677917-.3597877.677917-.7474853 0-.3801762-.2825108-.6943684-.6490496-.7440937l-.2107428-.0147594c-.6548753-.0984774-.6548753-1.0857142 0-1.1841917l.1088435-.0079041h5.4530944c.3931774 0 .7119106-.3187333.7119106-.7119107 0-.3711706-.2710406-.6804138-.6279912-.737632l-.0993411-.0092136-11.5467879-.3322152c-.4914102-.0130116-.7466255-.5695392-.4738466-.9472864l.0616821-.0729517 1.4621762-1.48859728c.6062627-.61725188.8790895-1.48360251.7428887-2.33065364l-.0354741-.18111774-.057038-.24653388c-.0071294-.03081518-.0201816-.0597845-.0382748-.08536361l-.0308103-.03563297z"/></svg>