<svg width="32" height="32" viewBox="0 0 32 32" fill="none" xmlns="http://www.w3.org/2000/svg">
<path fill-rule="evenodd" clip-rule="evenodd" d="M16.1766 2.80176L16.1756 2.80273C16.2956 2.80573 16.4168 2.81115 16.537 2.82129L16.536 2.82227C17.2471 2.88148 17.9417 3.06165 18.5858 3.34277L18.8592 3.46973L18.8612 3.47168C19.4515 3.76376 19.9842 4.17295 20.4178 4.67188L20.536 4.81641C20.5607 4.84362 20.5847 4.87246 20.6073 4.90234C20.7456 5.08595 20.8719 5.28133 20.9832 5.48633L20.9813 5.4873C21.1518 5.79236 21.2715 6.09926 21.3602 6.33594L21.3612 6.33789L21.4227 6.50293L22.787 10.1309C23.0103 10.6801 23.0685 11.2552 23.0184 11.7871L23.0174 11.7861C22.9848 12.2559 22.896 12.7131 22.7635 13.1465L22.7596 13.1592C22.3986 14.2944 21.8226 15.3471 21.1014 16.2695L21.1024 16.2705C20.8671 16.5778 20.6267 16.8811 20.3866 17.1826C21.7321 18.7702 24.0177 21.4711 25.1073 22.7529C25.4007 23.0989 25.4742 23.5824 25.2967 24L23.3954 28.4707C23.2325 28.8529 22.8822 29.1247 22.4715 29.1875C22.0608 29.2499 21.6461 29.0945 21.3768 28.7783C19.2301 26.2524 17.4394 24.1365 16.0018 22.4365C14.8908 23.7495 13.57 25.311 12.036 27.1172L10.6258 28.7773C10.3566 29.0941 9.94116 29.2489 9.53012 29.1865C9.11901 29.1239 8.76918 28.8523 8.60629 28.4697L6.70493 23.999C6.52716 23.581 6.60125 23.0981 6.89535 22.752C7.98433 21.4708 10.269 18.7689 11.6141 17.1816C11.3765 16.8845 11.1403 16.5845 10.9081 16.2812C10.183 15.3564 9.60551 14.2996 9.24301 13.1602L9.2391 13.1475C9.10663 12.7142 9.01689 12.2567 8.98422 11.7871L8.98325 11.7881C8.93311 11.2562 8.99338 10.681 9.21664 10.1318H9.21469C9.67818 8.91401 10.1136 7.73587 10.5799 6.50391C10.6758 6.24695 10.8139 5.85629 11.0194 5.48828L11.0291 5.46973C11.1381 5.27111 11.2609 5.08173 11.3954 4.90332C11.397 4.90114 11.3986 4.89865 11.4002 4.89648C11.4015 4.89486 11.4029 4.89322 11.4041 4.8916C11.8667 4.29277 12.4657 3.80547 13.1405 3.47168L13.1434 3.46973C13.8623 3.11655 14.6524 2.88999 15.4647 2.82227C15.6248 2.80878 15.7857 2.80071 15.9452 2.7998H15.9969L16.1766 2.80176ZM19.0155 18.8652L19.0135 18.8682C18.4481 19.5432 17.7042 20.4224 16.787 21.5078C18.2449 23.2318 20.0779 25.3974 22.2899 28L22.2909 28.001L24.1932 23.5303C23.1427 22.2944 20.9753 19.7338 19.617 18.1309C19.4158 18.3762 19.2172 18.6228 19.0155 18.8652ZM19.6483 5.625C19.6729 5.69421 19.6931 5.76517 19.7118 5.83691C19.7213 5.87336 19.7291 5.91025 19.7372 5.94727C19.7436 5.97703 19.7492 6.00701 19.7547 6.03711C19.7617 6.07475 19.7696 6.11229 19.7752 6.15039C19.781 6.18984 19.7845 6.22966 19.7889 6.26953C19.7937 6.31333 19.7994 6.35715 19.8026 6.40137C19.8068 6.45903 19.8078 6.51701 19.8094 6.5752C19.8106 6.61679 19.8124 6.65842 19.8123 6.7002C19.8123 6.74216 19.8107 6.78412 19.8094 6.82617C19.8077 6.88151 19.8052 6.93684 19.8016 6.99219C19.7991 7.03032 19.7961 7.06838 19.7928 7.10645C19.7879 7.16289 19.7828 7.21925 19.7762 7.27539C19.7723 7.309 19.768 7.34253 19.7635 7.37598C19.755 7.43886 19.7455 7.50138 19.7352 7.56348C19.7301 7.59386 19.725 7.62414 19.7196 7.6543C19.7104 7.70516 19.7005 7.75559 19.6903 7.80566C19.6629 7.94006 19.6333 8.07155 19.6004 8.19824C19.5954 8.21768 19.589 8.23665 19.5838 8.25586C19.5599 8.34552 19.5341 8.4324 19.5086 8.5166C19.4981 8.55136 19.4871 8.58544 19.4764 8.61914C19.4829 8.5985 19.4895 8.57769 19.4959 8.55664C19.4821 8.60156 19.4679 8.64544 19.4539 8.68848C19.4614 8.66561 19.469 8.64255 19.4764 8.61914C19.4585 8.67576 19.4407 8.73084 19.4227 8.78418C19.3973 8.85937 19.3724 8.9312 19.3475 8.99902C19.3301 9.04651 19.3135 9.09229 19.2967 9.13574C19.2685 9.2086 19.242 9.27572 19.2166 9.33594C19.2089 9.35431 19.2025 9.37255 19.1952 9.38965L19.1942 9.3877C19.1706 9.44236 19.1508 9.49152 19.1317 9.53223L19.0936 9.6123C18.6045 10.6397 18.1195 11.4573 17.2206 12.4834C15.886 14.0851 14.495 15.6467 13.1434 17.2344L12.7323 17.7188C11.4284 19.2569 8.95545 22.181 7.80942 23.5293L9.71078 28L11.1209 26.3408C12.7149 24.464 14.0793 22.853 15.2157 21.5098C15.4907 21.1846 15.7516 20.8729 15.9998 20.5791L16.0008 20.5801C16.8575 19.5661 17.5563 18.7391 18.0936 18.0977C18.3406 17.8008 18.5838 17.5004 18.828 17.2012L19.5438 16.3145C19.5604 16.2935 19.578 16.2729 19.5946 16.252C19.7808 16.0163 19.9667 15.7795 20.1493 15.541C20.7923 14.7208 21.2999 13.7899 21.6161 12.7959C21.7273 12.4319 21.8001 12.0548 21.8241 11.6748C21.8597 11.2965 21.8142 10.909 21.6659 10.5576C21.2061 9.34951 20.7582 8.13641 20.3006 6.92773L20.2372 6.75684C20.1479 6.51859 20.054 6.28133 19.9286 6.05957C19.8462 5.90797 19.7518 5.76239 19.6483 5.625ZM12.3524 5.625C12.2488 5.76239 12.1545 5.90797 12.0721 6.05957C11.9167 6.33419 11.8112 6.63291 11.701 6.92773C11.2435 8.13636 10.7956 9.34955 10.3358 10.5576C10.1874 10.9091 10.1419 11.2964 10.1776 11.6748C10.2015 12.0549 10.2743 12.4318 10.3856 12.7959C10.7017 13.7898 11.2084 14.7208 11.8514 15.541C12.0339 15.7793 12.2195 16.0158 12.4061 16.251C13.3553 15.14 14.2882 14.0753 15.2137 12.9951C15.0697 12.8248 14.9238 12.6556 14.7811 12.4844C13.864 11.4375 13.3781 10.6068 12.8788 9.5498C12.8576 9.50536 12.8347 9.44982 12.8075 9.38672C12.8071 9.3877 12.8068 9.38871 12.8065 9.38965L12.8055 9.3877C12.8059 9.38676 12.8061 9.38574 12.8065 9.38477C12.5051 8.68456 11.8951 6.91477 12.3534 5.62598L12.3524 5.625ZM15.8289 8.98047L15.828 8.97949L15.786 8.98242H15.784C15.6007 8.99303 15.4262 9.01112 15.2616 9.03809C14.9999 9.08838 14.7538 9.16858 14.5301 9.27734C14.4357 9.32336 14.3201 9.40857 14.203 9.52246C14.5291 10.1601 14.8744 10.7155 15.3914 11.3477L15.6844 11.6934L15.703 11.7158C15.8012 11.8337 15.9016 11.9497 15.9998 12.0664C16.0985 11.9491 16.2002 11.8331 16.2987 11.7148C16.3049 11.7074 16.3118 11.6996 16.3182 11.6924C17.0047 10.9087 17.4154 10.2727 17.7987 9.52344C17.6812 9.40947 17.5661 9.32347 17.4715 9.27734C17.2475 9.16838 17.0012 9.08842 16.7391 9.03809C16.587 9.01318 16.4261 8.99615 16.2577 8.98535L16.2137 8.98242H16.2098C16.1399 8.97802 16.0695 8.97543 15.9998 8.97461C15.9432 8.9753 15.8858 8.9774 15.8289 8.98047ZM15.7577 4.00488C15.6935 4.00775 15.6293 4.01219 15.5653 4.01758C15.1068 4.05565 14.6542 4.15803 14.2215 4.31445C12.9738 5.78778 13.3682 7.035 13.5047 7.65723C13.5623 7.91924 13.6355 8.16552 13.7069 8.37891C13.802 8.31121 13.9016 8.24888 14.0057 8.19824C14.3352 8.03802 14.686 7.92562 15.0448 7.85742C15.2667 7.82004 15.492 7.7971 15.7157 7.78418L15.7635 7.78223C15.8419 7.77799 15.9212 7.77515 15.9998 7.77441C16.0946 7.77529 16.1906 7.77824 16.285 7.78418L16.3329 7.78711C16.5409 7.80044 16.7506 7.82262 16.9569 7.85742C17.3158 7.92566 17.6664 8.03794 17.9959 8.19824C18.0173 8.20866 18.0384 8.22018 18.0594 8.23145C18.1404 8.27477 18.2177 8.32546 18.2928 8.37891C18.3662 8.15993 18.4435 7.90719 18.5018 7.6377C18.6351 7.02142 19.0269 5.78689 17.7801 4.31543L17.7782 4.31445C17.6795 4.27877 17.58 4.24469 17.4793 4.21484C17.435 4.20171 17.3902 4.1897 17.3456 4.17773C17.2232 4.14491 17.0998 4.11569 16.9754 4.0918C16.7973 4.0576 16.6172 4.03263 16.4364 4.01758C16.3402 4.00947 16.2427 4.00437 16.1463 4.00195C16.0982 4.00073 16.049 3.99988 16.0008 4H15.951C15.8866 4.00037 15.822 4.00192 15.7577 4.00488ZM19.8114 6.67969C19.8114 6.67318 19.8124 6.66666 19.8123 6.66016C19.8123 6.6481 19.8106 6.63607 19.8104 6.62402C19.8107 6.64257 19.8113 6.6611 19.8114 6.67969Z" fill="black"/>
</svg>
