<svg height="32" viewBox="0 0 32 32" width="32" xmlns="http://www.w3.org/2000/svg"><path d="m12.9121085 11.8592809c2.2556155-.2704429 4.5374519-.2509448 6.7897434.0586621l.3148774.0484599c2.2800189.4131955 4.0806712 2.1946456 4.5060365 4.4893083l1.7724295 9.5615354c.1882151.9875274-.4144934 1.9537807-1.3841622 2.2190683-.905603.2477601-1.8497421-.2267763-2.2044444-1.1221096l-.0494749-.1479272-1.3067663-4.5835446-.2509335 5.6198639c-.0115217.2563437-.1827053.4691703-.4149435.5441473l-.0897587.0214704-.0943269.0074416-9.0000384.0054858c-.3210422.0001956-.5853546-.2523563-.5997612-.5730752l-.2535853-5.6250673-1.30411377 4.5832781c-.26235861.9211153-1.1827869 1.4784217-2.10790441 1.3037527l-.14601489-.0337159c-.96966883-.2652876-1.57237733-1.2315409-1.38433197-2.2181741l1.80771379-9.5635702c.44474718-2.3529006 2.33631102-4.162669 4.70656195-4.5030396zm6.6263245 1.2474826c-2.3462125-.3225175-4.726-.3153554-7.0702288.0212784l-.078722.0113045c-1.86234.267434-3.34856869 1.6893949-3.69801291 3.5381025l-1.8078835 9.5644643c-.07098668.3724531.15632922.7368826.52204687.8369377.33788129.0924396.68719681-.1043925.78315476-.4412914l2.31592988-8.1310028c.1863916-.6544028 1.1459109-.5423099 1.176445.1374345l.3918377 8.7370088 3.5073475-.0032665.0826828-.4736315c.0606575-.3491529.3702445-.5926315.7148065-.5798175l.0946779.0099622c.3808941.0661717.6360271.4285902.5698553.8094844-.0142625.0820971-.0278344.1602188-.0407156.2343651l2.9243456-.0030962.3928385-8.7310247c.0289436-.643959.891628-.7784425 1.1408377-.2344034l.0356065.0969848 2.3069732 8.1023061.0300707.0908548c.1191847.3001503.4475276.4651797.7620407.3791333.3657177-.1000551.5930336-.4644846.521488-.8399111l-1.7729885-9.5645088c-.3457403-1.86512-1.847871-3.2987124-3.7270937-3.5570361zm-3.0550687 9.8904714c.3846132-.039137.7281306.2409268.7672677.62554.0469804.4616928.0638852.9260401.0505723 1.3900855-.0110865.3864403-.3333457.6907247-.719786.6796383-.3864403-.0110865-.6907247-.3333457-.6796382-.719786.011571-.4033287-.0031221-.8069227-.0439558-1.2082101-.0391371-.3846132.2409267-.7281306.62554-.7672677zm-.9388881-3.1923384c.3715985-.1066469.7592931.1081388.86594.4797374.0473806.1650922.0993474.3289256.155301.4897308l.1979022.5693796.0578963.1802438c.1149699.3691084-.0910501.7615313-.4601585.8765011-.3691083.1149699-.7615312-.0910501-.876501-.4601585-.0326192-.1047233-.067098-.2088916-.1034405-.3125056l-.1373795-.3917716c-.065006-.1868137-.1247892-.3752896-.1792974-.5652169-.1066469-.3715986.1081388-.7592931.4797374-.8659401zm-.1399854-3.3456788c.3859904.0216895.6813146.3521794.6596252.7381698-.0226361.4028371-.0190142.8067068.0108154 1.2090261.0285857.3855411-.2607839.7212571-.6463249.7498427-.3855411.0285857-.7212571-.2607838-.7498427-.6463249-.0343209-.4628933-.0384882-.927579-.0124428-1.3910884.0216895-.3859905.3521793-.6813147.7381698-.6596253zm-.038072-2.7374305c.116667-.3685754.5100338-.5727876.8786092-.4561206s.5727876.5100337.4561206.8786092c-.1309516.4137035-.2465027.8174396-.3466817 1.2111763-.0953259.3746625-.4763268.6011096-.8509893.5057837s-.6011096-.4763269-.5057837-.8509894c.1068927-.4201237.2298105-.8495994.3687249-1.2884592zm.6336158-10.62305373c2.137521 0 3.8702599 1.73276421 3.8702599 3.87025989s-1.7327389 3.87025994-3.8702599 3.87025994c-2.137483 0-3.8703291-1.73279548-3.8703291-3.87025994s1.7328461-3.87025989 3.8703291-3.87025989zm0 1.2c-1.4747492 0-2.6703291 1.19554499-2.6703291 2.67025989s1.1955799 2.67025989 2.6703291 2.67025989c1.4747754 0 2.6702599-1.19550198 2.6702599-2.67025989s-1.1954845-2.67025989-2.6702599-2.67025989z"/></svg>