<svg height="32" viewBox="0 0 32 32" width="32" xmlns="http://www.w3.org/2000/svg"><path d="m19.8031752 9.45992809.0316917.04357347c.8197476 1.15066324 1.6894073 1.86817924 2.6058455 2.18303964 1.3109006.4503857 2.4680646.6318674 3.4706305.5547091l.0855556-.0072467c.9671961-.0894746 1.389868 1.2341429.5620094 1.7599599-.9868627.626809-2.3670167.8163645-4.1587713.6005702l-.1785799-.0227172c.5336332.6755829 1.187919 1.2981877 1.9698406 1.8481372.8987402.6321117.1815142 2.0724479-.836569 1.6800011-1.5652459-.603365-3.111705-1.4800932-4.4897098-2.573479-.867444 1.7118254-1.9889963 3.348536-3.3596544 4.9081757l-.0804641.0883485.0357813.0544333c1.2938716 2.092304 2.1927946 4.3942677 2.6561918 6.8066126l.0926184.5185843c.0540014.3269411-.1672599.6357561-.494201.6897575s-.6357561-.1672599-.6897575-.494201c-.4309936-2.6093661-1.4004667-5.0916136-2.8520674-7.3084929-.1503277-.2295799-.1257404-.5318899.0597102-.7341605 2.0018886-2.1834558 3.4743825-4.5165676 4.41849-6.9991287.2473231-.6503439-.6494717-1.078485-1.0225353-.5423271l-.0474694.0791592-.0691545.1330659c-1.2368716 2.3584763-2.9595258 4.5157599-5.1693951 6.4750048l-.5809088.5009965-1.9081371 1.5595965c-.6257236.5331026-.82477052 1.4135739-.53061443 2.0964022l.06542697.1337689.06670833.0977244c.88269543 1.3052347 1.52907973 2.7436747 1.91484773 4.2624719.0815765.3211727-.1126546.6476654-.4338273.7292419s-.6476655-.1126546-.729242-.4338273c-.31640216-1.2456986-.82522131-2.4321651-1.50969055-3.5233294l-.32896476-.5028489c-.66222845-1.1933488-.41659904-2.6987685.57647411-3.654088l.14003692-.1267801 1.91003338-1.5612053.1236692-.1044787c2.1219256-1.8029322 3.7910286-3.7771938 5.0133417-5.9250007-.1780559-.2342226-.3469144-.4736409-.5070236-.7177867l-1.0852377.256441-.5092065.1124831-.4716176.0981999-.4343792.0839234-.3974908.0696535-.3609529.0553901-.3247652.0411336-.2889278.0268834-.0884059.0057956-.2416894.0078937c-1.0753652.0037198-1.2806951-1.5810029-.2424536-1.8712413 1.9220861-.5373156 3.6316346-1.23389825 5.1297979-2.08810396l.1398335-.08054352c1.1349243-.66038227 2.5629281-.3547145 3.3533291.70985497zm-12.22416152 4.25168031c1.75491504 0 3.17901372 1.4155528 3.17901372 3.1635373s-1.42409868 3.1635373-3.17901372 3.1635373-3.17901368-1.4155528-3.17901368-3.1635373 1.42409864-3.1635373 3.17901368-3.1635373zm0 1.2c-1.09378481 0-1.97901368.8799167-1.97901368 1.9635373s.88522887 1.9635373 1.97901368 1.9635373c1.0937848 0 1.97901367-.8799167 1.97901367-1.9635373s-.88522887-1.9635373-1.97901367-1.9635373zm7.94620712-11.9116084c1.3547545 0 2.453 1.08202303 2.453 2.41676609 0 1.33474305-1.0982455 2.41676609-2.453 2.41676609s-2.453-1.08202304-2.453-2.41676609c0-1.33474306 1.0982455-2.41676609 2.453-2.41676609z"/></svg>