<svg height="32" viewBox="0 0 32 32" width="32" xmlns="http://www.w3.org/2000/svg"><path d="m23.2 19.4813731c1.2923463 0 2.34 1.0476537 2.34 2.34v4.3126595c0 1.2923464-1.0476537 2.34-2.34 2.34h-14.4c-1.29234631 0-2.34-1.0476536-2.34-2.34v-4.3126595c0-1.2923463 1.04765369-2.34 2.34-2.34zm0 1.08h-14.4c-.69587878 0-1.26.5641212-1.26 1.26v4.3126595c0 .6958788.56412122 1.26 1.26 1.26h14.4c.6958788 0 1.26-.5641212 1.26-1.26v-4.3126595c0-.6958788-.5641212-1.26-1.26-1.26zm-19.2-5.1613731h3c.33137085 0 .6.2686292.6.6 0 .2982338-.21758961.5456468-.50267688.592147l-.09732312.007853h-3c-.33137085 0-.6-.2686292-.6-.6 0-.2982338.21758961-.5456468.50267688-.592147l.09732312-.007853h3zm7 0h3c.3313708 0 .6.2686292.6.6 0 .2982338-.2175896.5456468-.5026769.592147l-.0973231.007853h-3c-.3313708 0-.6-.2686292-.6-.6 0-.2982338.2175896-.5456468.5026769-.592147l.0973231-.007853h3zm7 0h3c.3313708 0 .6.2686292.6.6 0 .2982338-.2175896.5456468-.5026769.592147l-.0973231.007853h-3c-.3313708 0-.6-.2686292-.6-.6 0-.2982338.2175896-.5456468.5026769-.592147l.0973231-.007853h3zm7 0h3c.3313708 0 .6.2686292.6.6 0 .2982338-.2175896.5456468-.5026769.592147l-.0973231.007853h-3c-.3313708 0-.6-.2686292-.6-.6 0-.2982338.2175896-.5456468.5026769-.592147l.0973231-.007853h3zm-1.8-11.83091667c1.2923463 0 2.34 1.04765369 2.34 2.34v4.31265957c0 1.2923463-1.0476537 2.34-2.34 2.34h-14.4c-1.29234631 0-2.34-1.0476537-2.34-2.34v-4.31265957c0-1.29234631 1.04765369-2.34 2.34-2.34zm0 1.08h-14.4c-.69587878 0-1.26.56412122-1.26 1.26v4.31265957c0 .6958787.56412122 1.26 1.26 1.26h14.4c.6958788 0 1.26-.5641213 1.26-1.26v-4.31265957c0-.69587878-.5641212-1.26-1.26-1.26z"/></svg>