<svg height="32" viewBox="0 0 32 32" width="32" xmlns="http://www.w3.org/2000/svg"><g fill="none" fill-rule="evenodd"><rect fill="#d2eab1" height="8.791844" rx="2" width="20" x="6" y="19.581781"/><rect fill="#d2eab1" height="8.791844" rx="2" width="20" x="6" y="3.669491"/><path d="m4 16.6h3c.33137085 0 .6-.2686292.6-.6s-.26862915-.6-.6-.6h-3c-.33137085 0-.6.2686292-.6.6s.26862915.6.6.6zm7 0h3c.3313708 0 .6-.2686292.6-.6s-.2686292-.6-.6-.6h-3c-.3313708 0-.6.2686292-.6.6s.2686292.6.6.6zm7 0h3c.3313708 0 .6-.2686292.6-.6s-.2686292-.6-.6-.6h-3c-.3313708 0-.6.2686292-.6.6s.2686292.6.6.6zm7 0h3c.3313708 0 .6-.2686292.6-.6s-.2686292-.6-.6-.6h-3c-.3313708 0-.6.2686292-.6.6s.2686292.6.6.6z" fill="#4588a0" fill-rule="nonzero"/></g></svg>