<svg height="32" viewBox="0 0 32 32" width="32" xmlns="http://www.w3.org/2000/svg"><path d="m9.07407407 20.2518519c1.47685033 0 2.67407403 1.1972237 2.67407403 2.674074 0 1.4768504-1.1972237 2.6740741-2.67407403 2.6740741s-2.67407407-1.1972237-2.67407407-2.6740741c0-1.4768503 1.19722374-2.674074 2.67407407-2.674074zm6.92592593 0c1.4768503 0 2.6740741 1.1972237 2.6740741 2.674074 0 1.4768504-1.1972238 2.6740741-2.6740741 2.6740741s-2.6740741-1.1972237-2.6740741-2.6740741c0-1.4768503 1.1972238-2.674074 2.6740741-2.674074zm6.9259259 0c1.4768504 0 2.6740741 1.1972237 2.6740741 2.674074 0 1.4768504-1.1972237 2.6740741-2.6740741 2.6740741-1.4768503 0-2.674074-1.1972237-2.674074-2.6740741 0-1.4768503 1.1972237-2.674074 2.674074-2.674074zm-13.85185183-6.925926c1.47685033 0 2.67407403 1.1972238 2.67407403 2.6740741s-1.1972237 2.6740741-2.67407403 2.6740741-2.67407407-1.1972238-2.67407407-2.6740741 1.19722374-2.6740741 2.67407407-2.6740741zm6.92592593 0c1.4768503 0 2.6740741 1.1972238 2.6740741 2.6740741s-1.1972238 2.6740741-2.6740741 2.6740741-2.6740741-1.1972238-2.6740741-2.6740741 1.1972238-2.6740741 2.6740741-2.6740741zm6.9259259 0c1.4768504 0 2.6740741 1.1972238 2.6740741 2.6740741s-1.1972237 2.6740741-2.6740741 2.6740741c-1.4768503 0-2.674074-1.1972238-2.674074-2.6740741s1.1972237-2.6740741 2.674074-2.6740741zm-13.85185183-6.9259259c1.47685033 0 2.67407403 1.19722374 2.67407403 2.67407407s-1.1972237 2.67407403-2.67407403 2.67407403-2.67407407-1.1972237-2.67407407-2.67407403 1.19722374-2.67407407 2.67407407-2.67407407zm6.92592593 0c1.4768503 0 2.6740741 1.19722374 2.6740741 2.67407407s-1.1972238 2.67407403-2.6740741 2.67407403-2.6740741-1.1972237-2.6740741-2.67407403 1.1972238-2.67407407 2.6740741-2.67407407zm6.9259259 0c1.4768504 0 2.6740741 1.19722374 2.6740741 2.67407407s-1.1972237 2.67407403-2.6740741 2.67407403c-1.4768503 0-2.674074-1.1972237-2.674074-2.67407403s1.1972237-2.67407407 2.674074-2.67407407z"/></svg>