<svg height="32" viewBox="0 0 32 32" width="32" xmlns="http://www.w3.org/2000/svg"><path d="m9.07407407 20.2518519c1.47685033 0 2.67407403 1.1972237 2.67407403 2.674074 0 1.4768504-1.1972237 2.6740741-2.67407403 2.6740741s-2.67407407-1.1972237-2.67407407-2.6740741c0-1.4768503 1.19722374-2.674074 2.67407407-2.674074zm6.92592593 0c1.4768503 0 2.6740741 1.1972237 2.6740741 2.674074 0 1.4768504-1.1972238 2.6740741-2.6740741 2.6740741s-2.6740741-1.1972237-2.6740741-2.6740741c0-1.4768503 1.1972238-2.674074 2.6740741-2.674074zm6.9259259 0c1.4768504 0 2.6740741 1.1972237 2.6740741 2.674074 0 1.4768504-1.1972237 2.6740741-2.6740741 2.6740741-1.4768503 0-2.674074-1.1972237-2.674074-2.6740741 0-1.4768503 1.1972237-2.674074 2.674074-2.674074zm-13.85185183 1.2c-.81410863 0-1.47407407.6599654-1.47407407 1.474074 0 .8141087.65996544 1.4740741 1.47407407 1.4740741.81410864 0 1.47407403-.6599654 1.47407403-1.4740741 0-.8141086-.65996539-1.474074-1.47407403-1.474074zm6.92592593 0c-.8141086 0-1.4740741.6599654-1.4740741 1.474074 0 .8141087.6599655 1.4740741 1.4740741 1.4740741s1.4740741-.6599654 1.4740741-1.4740741c0-.8141086-.6599655-1.474074-1.4740741-1.474074zm6.9259259 0c-.8141086 0-1.474074.6599654-1.474074 1.474074 0 .8141087.6599654 1.4740741 1.474074 1.4740741.8141087 0 1.4740741-.6599654 1.4740741-1.4740741 0-.8141086-.6599654-1.474074-1.4740741-1.474074zm-13.85185183-8.125926c1.47685033 0 2.67407403 1.1972238 2.67407403 2.6740741s-1.1972237 2.6740741-2.67407403 2.6740741-2.67407407-1.1972238-2.67407407-2.6740741 1.19722374-2.6740741 2.67407407-2.6740741zm6.92592593 0c1.4768503 0 2.6740741 1.1972238 2.6740741 2.6740741s-1.1972238 2.6740741-2.6740741 2.6740741-2.6740741-1.1972238-2.6740741-2.6740741 1.1972238-2.6740741 2.6740741-2.6740741zm6.9259259 0c1.4768504 0 2.6740741 1.1972238 2.6740741 2.6740741s-1.1972237 2.6740741-2.6740741 2.6740741c-1.4768503 0-2.674074-1.1972238-2.674074-2.6740741s1.1972237-2.6740741 2.674074-2.6740741zm-13.85185183 1.2c-.81410863 0-1.47407407.6599655-1.47407407 1.4740741s.65996544 1.4740741 1.47407407 1.4740741c.81410864 0 1.47407403-.6599655 1.47407403-1.4740741s-.65996539-1.4740741-1.47407403-1.4740741zm6.92592593 0c-.8141086 0-1.4740741.6599655-1.4740741 1.4740741s.6599655 1.4740741 1.4740741 1.4740741 1.4740741-.6599655 1.4740741-1.4740741-.6599655-1.4740741-1.4740741-1.4740741zm6.9259259 0c-.8141086 0-1.474074.6599655-1.474074 1.4740741s.6599654 1.4740741 1.474074 1.4740741c.8141087 0 1.4740741-.6599655 1.4740741-1.4740741s-.6599654-1.4740741-1.4740741-1.4740741zm-13.85185183-8.1259259c1.47685033 0 2.67407403 1.19722374 2.67407403 2.67407407s-1.1972237 2.67407403-2.67407403 2.67407403-2.67407407-1.1972237-2.67407407-2.67407403 1.19722374-2.67407407 2.67407407-2.67407407zm6.92592593 0c1.4768503 0 2.6740741 1.19722374 2.6740741 2.67407407s-1.1972238 2.67407403-2.6740741 2.67407403-2.6740741-1.1972237-2.6740741-2.67407403 1.1972238-2.67407407 2.6740741-2.67407407zm6.9259259 0c1.4768504 0 2.6740741 1.19722374 2.6740741 2.67407407s-1.1972237 2.67407403-2.6740741 2.67407403c-1.4768503 0-2.674074-1.1972237-2.674074-2.67407403s1.1972237-2.67407407 2.674074-2.67407407zm-13.85185183 1.2c-.81410863 0-1.47407407.65996544-1.47407407 1.47407407 0 .81410864.65996544 1.47407403 1.47407407 1.47407403.81410864 0 1.47407403-.65996539 1.47407403-1.47407403 0-.81410863-.65996539-1.47407407-1.47407403-1.47407407zm6.92592593 0c-.8141086 0-1.4740741.65996544-1.4740741 1.47407407 0 .81410864.6599655 1.47407403 1.4740741 1.47407403s1.4740741-.65996539 1.4740741-1.47407403c0-.81410863-.6599655-1.47407407-1.4740741-1.47407407zm6.9259259 0c-.8141086 0-1.474074.65996544-1.474074 1.47407407 0 .81410864.6599654 1.47407403 1.474074 1.47407403.8141087 0 1.4740741-.65996539 1.4740741-1.47407403 0-.81410863-.6599654-1.47407407-1.4740741-1.47407407z"/></svg>