<svg height="32" viewBox="0 0 32 32" width="32" xmlns="http://www.w3.org/2000/svg"><g fill="none"><path d="m11.7481481 9.07407407c0 1.47685033-1.1972237 2.67407403-2.67407403 2.67407403s-2.67407407-1.1972237-2.67407407-2.67407403 1.19722374-2.67407407 2.67407407-2.67407407 2.67407403 1.19722374 2.67407403 2.67407407z" fill="#e9acc5"/><path d="m16 6.4c1.4768503 0 2.6740741 1.19722374 2.6740741 2.67407407s-1.1972238 2.67407403-2.6740741 2.67407403-2.6740741-1.1972237-2.6740741-2.67407403 1.1972238-2.67407407 2.6740741-2.67407407z" fill="#4588a0"/><path d="m11.7481481 16c0 1.4768503-1.1972237 2.6740741-2.67407403 2.6740741s-2.67407407-1.1972238-2.67407407-2.6740741 1.19722374-2.6740741 2.67407407-2.6740741 2.67407403 1.1972238 2.67407403 2.6740741z" fill="#17bfa8"/><path d="m16 13.3259259c1.4768503 0 2.6740741 1.1972238 2.6740741 2.6740741s-1.1972238 2.6740741-2.6740741 2.6740741-2.6740741-1.1972238-2.6740741-2.6740741 1.1972238-2.6740741 2.6740741-2.6740741z" fill="#7d5b9f"/><path d="m22.9259259 6.4c1.4768504 0 2.6740741 1.19722374 2.6740741 2.67407407s-1.1972237 2.67407403-2.6740741 2.67407403c-1.4768503 0-2.674074-1.1972237-2.674074-2.67407403s1.1972237-2.67407407 2.674074-2.67407407z" fill="#f8c31c"/><path d="m22.9259259 13.3259259c1.4768504 0 2.6740741 1.1972238 2.6740741 2.6740741s-1.1972237 2.6740741-2.6740741 2.6740741c-1.4768503 0-2.674074-1.1972238-2.674074-2.6740741s1.1972237-2.6740741 2.674074-2.6740741z" fill="#f1672a"/><path d="m11.7481481 22.9259259c0 1.4768504-1.1972237 2.6740741-2.67407403 2.6740741s-2.67407407-1.1972237-2.67407407-2.6740741c0-1.4768503 1.19722374-2.674074 2.67407407-2.674074s2.67407403 1.1972237 2.67407403 2.674074z" fill="#f0af8a"/><path d="m16 20.2518519c1.4768503 0 2.6740741 1.1972237 2.6740741 2.674074 0 1.4768504-1.1972238 2.6740741-2.6740741 2.6740741s-2.6740741-1.1972237-2.6740741-2.6740741c0-1.4768503 1.1972238-2.674074 2.6740741-2.674074z" fill="#9fcb61"/><path d="m22.9259259 20.2518519c1.4768504 0 2.6740741 1.1972237 2.6740741 2.674074 0 1.4768504-1.1972237 2.6740741-2.6740741 2.6740741-1.4768503 0-2.674074-1.1972237-2.674074-2.6740741 0-1.4768503 1.1972237-2.674074 2.674074-2.674074z" fill="#6cacc8"/></g></svg>