<svg height="32" viewBox="0 0 32 32" width="32" xmlns="http://www.w3.org/2000/svg"><path d="m22.799 18.22 3.0842829 1.4282977c.1503468.069624.2157856.2479455.1461616.3982923-.0298039.064359-.081446.1160772-.145761.1459758l-8.7994841 4.0906891c-.3699907.1699893-.7900697.1879995-1.1775941.0488881-.378372-.1358258-.6839411-.4176306-.8755998-.8118451-.1655014-.3605515-.1835116-.7806304-.0444002-1.1681549.1357481-.3781555.417409-.683848.8094908-.8745129zm5.6051694-5.6132153c.3528055.7661609.011631 1.6857346-.7584058 2.0457494l-1.6346963.7542343-4.3782568 2.0330979-6.3521221 2.954137c-.6783355.3297668-1.1799412.8741701-1.4235167 1.552702l-.0652526.2066423c-.0949189.3470261-.1207183.705912-.0782565 1.0578953l.0173374.1127571-9.43256896-4.3595646c-.29245755-.1477548-.54160084-.4049742-.7058673-.7428467-.16550138-.3605515-.18351157-.7806305-.04440023-1.1681549l.05767589-.1383285c.15021279-.3144529.40874335-.5693527.75181494-.7361845l4.82334566-2.2589208 6.1032539 2.8365723c.1601768.0744308.3450117.074505.5052482.0002029l10.5753911-4.903835c.7725012-.3611662 1.6920603-.0200013 2.0392762.7538445zm-9.7901204-6.20800992.2325762.09976849.697609.32365444.207275.08966663 8.0609602 3.69458916c-.2362009-.0562485-.4826652-.0860269-.7360845-.0860269-.6436836 0-1.2015281.2103818-1.7737327.5027317l-9.7576522 4.5358417-9.44301956-4.3830149c-.15028573-.0697557-.2155682-.2481345-.14581249-.3984202.02983212-.0642721.08145119-.1159102.14571222-.145766l2.07866192-.96575033c.00823962-.01003626.02292839-.01996361.04406632-.02978203l6.75438929-3.13736923c1.1533892-.5323356 2.4626173-.56570194 3.6350513-.10012253z"/></svg>