<svg height="32" viewBox="0 0 32 32" width="32" xmlns="http://www.w3.org/2000/svg"><g fill="none"><path d="m27.8957254 19.9194891-10.55862 4.90786c-.5145161.2363993-1.0972895.2618956-1.633219.0695107-.5321946-.1910442-.9552998-.5852191-1.2124872-1.1142167-.2363993-.5145161-.2618957-1.0972895-.0695107-1.6332189.1910442-.5321947.5852191-.9552999 1.1118145-1.2113772l7.2658595-3.3791783z" fill="#952c57"/><path d="m15.533703 20.938047c-.5265954.2560773-.9207703.6791825-1.1118145 1.2113772-.192385.5359294-.1668886 1.1187028.0695107 1.6332189.2007873.4129906.5027013.743807.8787009.9599454l-11.32339457-5.2335117c-.4306128-.2169875-.77319105-.5714887-.99374813-1.0251429-.2363993-.5145161-.26189563-1.0972895-.06951069-1.633219.19104423-.5321946.58521911-.9552998 1.11181456-1.2113771l5.08513552-2.3807122 6.35669981 2.953823 10.575391-4.903835c1.0746091-.5024146 2.3548844-.0266366 2.839103 1.0525493.4891195 1.0620881.015773 2.3358203-1.0508677 2.8345095l-.0016826.0007835-1.6366032.7551182-4.3769253 2.0324815z" fill="#e885ad"/><path d="m28.9515906 12.3611629c.4891195 1.0620881.015773 2.3358203-1.0508677 2.8345095l-.0016826.0007835-1.6366032.7551182-4.3769253 2.0324815-5.2995887 2.4646428-8.79298587-4.0814888 4.03699997-1.878 3.7071594 1.723239 10.575391-4.903835c1.0746091-.5024146 2.3548844-.0266366 2.839103 1.0525493z" fill="#cb608b"/><path d="m15.5433092 16.2131128-.0071167.0033065-11.44495435-5.3112813 9.76204915-4.5344093c1.070862-.49424596 2.2946577-.49424596 3.3647568-.00035374l.7242646.33518294c.0604601.02442941.1204969.05038892.1800575.07787847l4.114813 1.90429716c.0274914.01195567.0548879.02423271.0821845.03683111l5.4625824 2.52803236c-.5216257-.2020126-1.1222107-.1998395-1.6694585.0560166l-10.5583414 4.9092276c.0032703-.0015278-.0014853-.0021093-.0071684-.0030258z" fill="#fcb2d1"/></g></svg>