<svg height="32" viewBox="0 0 32 32" width="32" xmlns="http://www.w3.org/2000/svg"><path d="m13.6018516 5.82595344c1.1533892-.5323356 2.4626173-.56570194 3.6350513-.10012253l.2325762.09976849.697609.32365444.207275.08966663 9.6595799 4.46916063.0788112.0321722c.5356659.2356144.9976028.6431546 1.2937926 1.1884628l.092465.1868251.0666877.1577188c.489437 1.2680296-.049556 2.7252387-1.2512316 3.3848961l-.1604684.0814381-1.638861.7561693-2.2887019 1.0622365 3.921476 1.8170613c.4325187.2003493.4617321.7874113.0871639 1.0398197l-.0864451.0487023-10.5610259 4.9089719c-.657862.3022609-1.4033748.3342236-2.0864379.0890214-.1348369-.048403-.2643587-.1069869-.3879576-.1751473l-11.33650478-5.2415355c-.54894526-.2766157-.98570784-.7275362-1.26895393-1.3104598-.3022609-.657862-.33422354-1.4033748-.08902139-2.0864379.22143233-.6168472.65611266-1.1228443 1.2419164-1.4570181l.1802127-.0950365 3.91057758-1.8309415-3.91276946-1.8156121c-.4013967-.186277-.45500205-.7056315-.16071591-.9808338l.07408782-.0589114.08643928-.0486668zm9.198585 12.39504656-7.0043405 3.2566301c-.3920818.1906649-.6737427.4963574-.8094908.8745129-.1391114.3875245-.1211012.8076034.0444002 1.1681549.0249149.0512464.0517719.1006149.080478.1480245l.0839819.126035c.047121.0643317.0980429.1242327.1524772.1794671l.0630583.0604707.1123248.0923909-.0655834-.051734c.1336062.1114862.2843534.1981362.448863.2571909.3390839.1217224.7030923.1231487 1.0366611.0077238l.140933-.0566119 9.3858006-4.3632549zm4.2805148-6.5112177-.0900223-.0014163-.0900343.0039409-.1031905.0114963c-.098389.0139871-.1965388.0377994-.2931222.0719344l-.139125.0569408-10.4864571 4.8753216-.0217846.0135326-.1500359.0584729c-.131071.038989-.2528849.0319136-.3588592-.0071028l-.0764079-.0350306-.0159124-.0108721-6.08456342-2.823-4.81378224 2.2549208c-.29406136.1429987-.52601095.3507004-.68087565.6051482l-.07093929.1310363-.05767589.1383285c-.13911134.3875244-.12110115.8076034.04440023 1.1681549.14079982.289605.34395813.5199546.58330142.6729053l.12256588.0699414 9.43256896 4.3595646-.0173374-.1127571c-.0339695-.2815866-.0242517-.567591.0295926-.8484066l.0486639-.2094887.0652526-.2066423c.2214323-.6168472.6561126-1.1228443 1.2429589-1.4575045l.1805578-.0951975 7.2707634-3.3814323 3.4596155-1.6058026 1.6346963-.7542343c.7700368-.3600148 1.1112113-1.2795885.7584058-2.0457494-.1990623-.4436535-.5862448-.7450915-1.0259851-.8535019l-.0681381-.0155549-.0664053-.0117448-.0662813-.0082678zm-10.1143424-4.79463178c-.8405987-.38796892-1.7914137-.41774437-2.6483906-.08971975l-.2121712.08946009-8.5900472 3.98910914 3.83643658 1.781.0808029.0295019 6.10376052 2.8364981 10.0404366-4.656-7.7583411-3.59018855-.1287837-.05473765z"/></svg>