<svg height="32" viewBox="0 0 32 32" width="32" xmlns="http://www.w3.org/2000/svg"><path d="m25.4957582 19.7804414 2.7924253 1.2954087c.2404647.1115929.344936.396992.2333431.6374567-.0477595.1029139-.1304292.1855836-.2333431.2333431l-11.909327 5.5267834c-.2402652.1115004-.5174478.1115004-.757713 0l-11.90932702-5.5267834c-.24046471-.1115929-.34493594-.396992-.23334304-.6374567.04775942-.1029139.13042918-.1855836.23334304-.2333431l2.7919417-1.2954087 8.48595772 3.9386165.1770312.0737192c.5308925.1965847 1.1143817.1990116 1.6465728.007281l.1969642-.0810002zm-8.4854741-1.1763835 8.4864741-3.9396165 2.7914253 1.2964087.0750083.0433349c.1860048.1311253.2575285.3803754.1583348.5941218-.0358196.0771854-.0912762.1429835-.1601826.191207l-.0731605.0421361-11.909327 5.5267834-.1228672.0464585c-.1670134.0495557-.3449652.0495557-.5119786 0l-.1228672-.0464585-11.90932702-5.5267834-.07500827-.0433349c-.16275421-.1147346-.23785878-.3199086-.18763987-.5126027l.0293051-.0815191.04213609-.0731605c.03214898-.0459376.0721089-.0858975.11804648-.1180465l.07316047-.0421361 2.7909417-1.2964087 8.48695772 3.9396165.1770312.0737192c.5308925.1965847 1.1143817.1990116 1.6465728.007281zm-.6314276-13.28499124 11.909327 5.52678344c.2404647.1115929.344936.396992.2333431.6374567-.0477595.1029139-.1304292.1855836-.2333431.2333431l-11.909327 5.5267834-.1228672.0464585c-.1670134.0495557-.3449652.0495557-.5119786 0l-.1228672-.0464585-11.90932702-5.5267834c-.24046471-.1115929-.34493594-.396992-.23334304-.6374567.04775942-.1029139.13042918-.1855836.23334304-.2333431l11.90932702-5.52678344c.2402652-.11150034.5174478-.11150034.757713 0z"/></svg>