<svg height="32" viewBox="0 0 32 32" width="32" xmlns="http://www.w3.org/2000/svg"><path d="m28.04 16.00125c0-.23-.14-.45-.35-.54l-3.91-1.82 3.91-1.82c.21-.1.35-.31.35-.54s-.14-.45-.35-.54l-11.44-5.31c-.16-.07-.35-.07-.51 0l-11.44 5.31c-.21.1-.35.31-.35.54s.14.45.35.54l3.91 1.83-3.91 1.82c-.21.1-.35.31-.35.54s.14.45.35.54l3.91 1.81-3.91 1.81c-.21.1-.35.31-.35.54s.14.45.35.54l11.44 5.31c.08.04.17.06.25.06s.17-.02.25-.06l11.46-5.29c.21-.1.35-.31.35-.54s-.14-.45-.35-.54l-3.91-1.81 3.91-1.81c.21-.12.34-.33.34-.57zm-12.04-9.37 10.02 4.65-10.02 4.65-10.02-4.65zm10.02 14.09-10.02 4.65-10.02-4.65 3.66-1.7 6.11 2.84c.08.04.17.06.25.06s.17-.02.25-.06l6.11-2.84zm-10.02-.06-10.02-4.66 3.66-1.7 6.11 2.84c.08.04.17.06.25.06s.17-.02.25-.06l6.11-2.84 3.66 1.7z"/></svg>