<svg height="32" viewBox="0 0 32 32" width="32" xmlns="http://www.w3.org/2000/svg"><g fill="none"><path d="m28.2881835 21.9466499-11.909327 5.5267834c-.2402652.1115004-.5174478.1115004-.757713 0l-11.90932702-5.5267834c-.24046471-.1115929-.34493594-.396992-.23334304-.6374567.04775942-.1029139.13042918-.1855836.23334304-.2333431l11.90932702-5.5267834c.2402652-.1115004.5174478-.1115004.757713 0l11.909327 5.5267834c.2404647.1115929.344936.396992.2333431.6374567-.0477595.1029139-.1304292.1855836-.2333431.2333431z" fill="#72588d"/><path d="m28.2881835 16.8316499-11.909327 5.5267834c-.2402652.1115004-.5174478.1115004-.757713 0l-11.90932702-5.5267834c-.24046471-.1115929-.34493594-.396992-.23334304-.6374567.04775942-.1029139.13042918-.1855836.23334304-.2333431l11.90932702-5.5267834c.2402652-.1115004.5174478-.1115004.757713 0l11.909327 5.5267834c.2404647.1115929.344936.396992.2333431.6374567-.0477595.1029139-.1304292.1855836-.2333431.2333431z" fill="#9373b3"/><path d="m28.2881835 11.7166499-11.909327 5.5267834c-.2402652.1115004-.5174478.1115004-.757713 0l-11.90932702-5.5267834c-.24046471-.1115929-.34493594-.396992-.23334304-.6374567.04775942-.1029139.13042918-.1855836.23334304-.2333431l11.90932702-5.52678344c.2402652-.11150034.5174478-.11150034.757713 0l11.909327 5.52678344c.2404647.1115929.344936.396992.2333431.6374567-.0477595.1029139-.1304292.1855836-.2333431.2333431z" fill="#ba97dc"/></g></svg>