<svg height="32" viewBox="0 0 32 32" width="32" xmlns="http://www.w3.org/2000/svg"><path d="m25.4921793 15.48212c.51-.49.68-1.22.47-1.89-.22-.67-.79-1.15-1.49-1.25l-4.21-.61c-.32-.05-.59-.24-.73-.53l-1.88-3.81999998c-.31-.63-.94-1.03-1.65-1.03s-1.34.39-1.65 1.03l-1.88 3.80999998c-.14.29-.42.49-.73.53l-4.20999995.61c-.7.1-1.27.58-1.49 1.25s-.04 1.4.47 1.89l3.04 2.97c.23.22.33.54.28.86l-.72 4.19c-.12.7.16 1.39.73 1.8.31999995.23.69999995.35 1.07999995.35.29 0 .59-.07.86-.21l3.76-1.98c.28-.15.62-.15.9 0l3.76 1.98c.63.33 1.37.28 1.94-.14s.85-1.11.73-1.8l-.72-4.19c-.05-.32.05-.64.28-.86z"/></svg>