<svg height="32" viewBox="0 0 32 32" width="32" xmlns="http://www.w3.org/2000/svg"><g fill="none"><path d="m16.7408315 5c.6448364 0 1.1752105.49007176 1.2389883 1.11808149l.00643.12733679v7.88764912c0 .2291569.1859824.4151394.4151394.4151394.2005123 0 .3679692-.1423928.4067004-.3315083l.008439-.0836311v-7.05737027l.00643-.12733678c.0637778-.62800974.5941519-1.1180815 1.2389883-1.1180815s1.1752105.49007176 1.2389883 1.1180815l.00643.12733678v7.88764907c0 .229157.1859825.4151395.4151394.4151395.2005124 0 .3679692-.1423929.4067004-.3315083l.008439-.0836312v-5.39681251l.00643-.12733678c.0637779-.62800974.5941519-1.1180815 1.2389883-1.1180815s1.1752105.49007176 1.2389883 1.1180815l.00643.12733678-.0022025 11.36348471c-.0415958 1.4944339-.7237577 5.6572318-6.3137287 5.6572318-3.3883412 0-5.2510775-1.2868891-6.4151989-2.9621901l-3.98155293-6.0297299c-.49152508-.7655171-.31550596-1.7469067.39438246-2.1969178.67047459-.4141627 1.5711519-.2105289 2.09011927.4551543l.0926838.1301922 1.6813147 2.3007027v-10.37848562l.00643-.12733678c.0637778-.62800974.5941519-1.11808149 1.2389883-1.11808149s1.1752105.49007175 1.2389883 1.11808149l.00643.12733678v6.22709142c0 .2291569.1859824.4151394.4151394.4151394.2005123 0 .3679692-.1423928.4067004-.3315083l.008439-.0836311v-7.88764912l.00643-.12733679c.0637778-.62800973.5941519-1.11808149 1.2389883-1.11808149z" fill="#b75c64"/><path d="m20.0619469 5.83027885c.6448364 0 1.1752105.49007176 1.2389883 1.1180815l.00643.12733678v7.88764907c0 .229157.1859825.4151395.4151394.4151395.2005124 0 .3679692-.1423929.4067004-.3315083l.008439-.0836312v-5.39681251l.00643-.12733678c.0637779-.62800974.5941519-1.1180815 1.2389883-1.1180815s1.1752105.49007176 1.2389883 1.1180815l.00643.12733678-.0022025 11.36348471c-.0414339 1.4886179-.7184578 5.624871-6.248687 5.657043l-.0011729-12.0395944c.0082612.0004909.0165872.0007398.024971.0007398.2005123 0 .3679692-.1423928.4067004-.3315083l.008439-.0836311v-7.05737027l.00643-.12733678c.0637778-.62800974.5941519-1.1180815 1.2389883-1.1180815z" fill="#8f2d35"/></g></svg>