<svg height="32" viewBox="0 0 32 32" width="32" xmlns="http://www.w3.org/2000/svg"><path d="m16.6923107 4.40541124c-1.0167565.07174469-1.8387923.84877987-1.9798504 1.84484871l-.0044603.04174005-.0997343-.04757833c-.2667015-.11819967-.5618687-.18386396-.8723726-.18386396l-.1539157.00540913c-1.1184601.07888864-2.0015086 1.01085857-2.0022164 2.14938289l-.004761 7.49165027-1.2128708-1.0289977c-.81512041-.6916731-2.0106634-.6932171-2.8275676-.0036517-.81821259.6906699-.99182668 1.8835657-.40442781 2.7788083l4.26556121 6.5010544c1.4647948 2.1083756 3.655828 3.2330369 6.9168544 3.2330369 4.8298627 0 6.8174535-2.7899521 6.9134964-6.240538l-.0034738-11.07063268c-.000399-1.19027067-.965416-2.15496411-2.1556867-2.15496411l-.1539131.00541124c-.2541892.01793618-.4962083.079953-.7184595.17845272l-.0835127.04002063.0007199-.55955579c0-1.19026496-.9649004-2.15516536-2.1551653-2.15516536l-.1539131.00541125c-.3558648.02511064-.6878763.13661936-.9751863.31367791l-.0564552.03663199-.0168918-.0341251c-.3609247-.68492877-1.0798739-1.1518749-1.9078844-1.1518749zm.1539131 1.19458876c.5275233 0 .9551654.4276421.9551654.95516536v7.98868454c0 .7619047 1.1920959.7619047 1.1920959.0190605l.0079041-7.17746619c0-.52752326.4276421-.95516536.9551654-.95516536.5275232 0 .9551653.4276421.9551653.95516536v7.98665499c0 .7619048 1.1920959.7619048 1.1920959 0l.0079041-5.49581843c0-.52752326.4276421-.95516536.9551654-.95516536.5276861 0 .9555099.42768032.9556868.95536644l.0037061 11.05373775c-.0797583 2.8569647-1.647108 5.0570306-5.7137288 5.0570306-2.8713117 0-4.692848-.9349979-5.9224758-2.70457l-4.25662883-6.4878275c-.25440621-.3877353-.17921283-.9043861.17516028-1.2035197.36896745-.3114529.90895298-.3107555 1.27711474.0016494l2.20037331 1.8671341c.3896558.3306437.9878869.053918.9882046-.457117l.0054631-8.7869037c.0003281-.52782519.428307-.95553809.9561323-.95553809.4898431 0 .8935641.36873221.9487393.8437729l.0064261 6.43951929c0 .8 1.2.8 1.2 0v-7.98868454c0-.48984303.3687322-.89356403.8437729-.94873926z"/></svg>