<svg height="32" viewBox="0 0 32 32" width="32" xmlns="http://www.w3.org/2000/svg"><path d="m13.9405664 24.5561799c.3442814 0 .6233767.2790952.6233767.6233766s-.2790953.6233767-.6233767.6233767h-7.47563134c-.3442814 0-.62337662-.2790953-.62337662-.6233767s.27909522-.6233766.62337662-.6233766zm11.5944985-3.9938388c.3442814 0 .6233767.2790952.6233767.6233766s-.2790953.6233766-.6233767.6233766h-19.07012984c-.3442814 0-.62337662-.2790952-.62337662-.6233766s.27909522-.6233766.62337662-.6233766zm.0233767-14.80020347c.3313708 0 .6.26862915.6.6v10.96985607c0 .3313708-.2686292.6-.6.6h-19.11688316c-.33137085 0-.6-.2686292-.6-.6v-10.96985607c0-.33137085.26862915-.6.6-.6zm-.6002521 1.19986237h-17.91700003v9.769l4.47736893-.0008624 2.6915206-2.7777898 2.340236 1.4852438 5.6096883-5.3434914 2.7984383 2.8489033zm-12.350269 2.56430643c.4576235.46132362.5932198 1.15425047.3434734 1.75522477-.2497463.6009744-.8355679.9914423-1.4839209.9891411-.8823258-.0032794-1.59589093-.7226199-1.59589093-1.6088571 0-.6512272.39087913-1.23821812.99010923-1.48688291.5992302-.24866479 1.2886057-.10994947 1.7462292.35137414z" fill-rule="evenodd"/></svg>