<svg height="32" viewBox="0 0 32 32" width="32" xmlns="http://www.w3.org/2000/svg"><path d="m15.6805579 24.7415935c.2764253-.0048251.5393711.112878.7249336.3218726l2.9972113 3.6055775c.2320856.2687268.2779412.6547546.1277374.9849065-.1483864.3261569-.4791057.5360334-.8373354.5422863l-5.7824138.0142317c-.3488643.0061363-.6795003-.1987045-.8309671-.5134786-.0628407-.1228438-.0962248-.2601985-.0986532-.3993228-.0037822-.2166816.0640557-.4326908.204985-.5948845l2.7739794-3.5952875c.1672142-.2206607.4401663-.3610076.7205228-.3659012zm9.8778837-14.82652152c.3313708 0 .6.26862912.6.60000002v10.969856c0 .3313709-.2686292.6-.6.6h-19.11688316c-.33137085 0-.6-.2686291-.6-.6v-10.969856c0-.3313709.26862915-.60000002.6-.60000002zm-3.3984383 4.33196252-5.6096883 5.3434914-2.340236-1.4852438-2.6925206 2.7794549 13.4408832.000191-.0008832-3.789191zm-11.298312-.9191679c-.5992301.2486648-.99010923.8356558-.99010923 1.4868829 0 .8862372.71356513 1.6055777 1.59589093 1.6088052.648353.0023532 1.2341746-.3881148 1.4839209-.9890891.2497464-.6009744.1141501-1.2939012-.3434734-1.7552248s-1.146999-.600039-1.7462292-.3513742zm2.0489997-11.69699544 5.7824138.01423166c.3582297.00625293.688949.21612938.8373354.5422863.1502038.33015187.1043482.71617973-.1277374.98490649l-2.9972113 3.60557752c-.1855625.20899459-.4485083.32669766-.7249336.32187264-.2803565-.00489364-.5533086-.14524051-.7205228-.36590121l-2.7739794-3.59528754c-.1409293-.16219374-.2087672-.37820293-.204985-.59488447.0024284-.13912434.0358125-.27647904.0986532-.39932285.1514668-.31477412.4821028-.51961487.8309671-.51347854z"/></svg>