<svg height="32" viewBox="0 0 32 32" width="32" xmlns="http://www.w3.org/2000/svg"><path d="m25.6902521 15.4c.3313708 0 .6.2686292.6.6v10.969856c0 .3313709-.2686292.6-.6.6h-19.11688313c-.33137085 0-.6-.2686291-.6-.6v-10.969856c0-.3313708.26862915-.6.6-.6zm-.6002521 1.1998624h-17.917v9.769l4.477369-.0008624 2.6915205-2.7777898 2.340236 1.4852438 5.6096884-5.3434915 2.7984382 2.8489034zm-12.350269 2.5643064c.4576235.4613236.5932198 1.1542504.3434735 1.7552248-.2497464.6009743-.835568.9914423-1.483921.9891309-.8823258-.0032692-1.5958909-.7226098-1.5958909-1.608847 0-.6512271.3908791-1.238218.9901093-1.4868828.5992301-.2486648 1.2886056-.1099495 1.7462291.3513741zm3.35015-15.80203117c.1845425 0 .3588327.08201889.481861.22555194l3.1167177 3.88564479c.1537854.1845425.1742901.44085152.0717665.6561511s-.3280755.34858027-.5638798.34858027l-2.4195572-.03075708v4.65831755c0 .3383279-.2768137.6151416-.6151417.6151416-.3383279 0-.6151416-.2768137-.6151416-.6151416v-4.67882227l-2.5015761-.04100945c-.2358043 0-.4511039-.14353305-.5433751-.34858027-.0410094-.08201888-.0615142-.17429013-.0615142-.26656138 0-.13328069.0410095-.27681375.1332807-.37933735l3.0346989-3.79337355c.1127759-.14353305.2973184-.2358043.4818609-.2358043z"/></svg>