<svg height="32" viewBox="0 0 32 32" width="32" xmlns="http://www.w3.org/2000/svg"><path d="m27.1850179 26.2857143c.4304603 0 .7794174.348957.7794174.7794174 0 .4304603-.3489571.7794174-.7794174.7794174h-22.31259383c-.43046034 0-.77941739-.3489571-.77941739-.7794174 0-.4304604.34895705-.7794174.77941739-.7794174zm-11.7140891-17.69533227.0973231.00785298c.2534109.04133357.4534903.24141299.4948239.4948239l.007853.09732312v13.46378497l-.007853.0973232c-.0413336.2534109-.241413.4534903-.4948239.4948239l-.0973231.0078529h-10.83536405l-.09732312-.0078529c-.25341091-.0413336-.45349033-.241413-.49482389-.4948239l-.00785299-.0973232v-13.46378497l.00785299-.09732312c.04133356-.25341091.24141298-.45349033.49482389-.4948239l.09732312-.00785298zm11.7173216 12.12551997c.4286751 0 .7761849.3475098.7761849.7761848 0 .4286751-.3475098.7761849-.7761849.7761849h-8.5775004c-.4286751 0-.7761849-.3475098-.7761849-.7761849 0-.428675.3475098-.7761848.7761849-.7761848zm-12.3291921-10.925902h-9.62373077v8.754l.76546729-.7890321.07931656-.0687636c.14004289-.1014009.31623033-.1364086.48208293-.0995169l.09789954.030807.09318817.0483272 1.74104551 1.1041784 4.12666457-4.5548317.083817-.0667605c.1762687-.1163392.3996922-.1296646.586522-.0413679l.0899777.0526104.0815524.0695087 1.3967928 1.421841zm12.3291921 5.3560897c.4286751 0 .7761849.3475098.7761849.7761848 0 .4286751-.3475098.7761849-.7761849.7761849h-8.5775004c-.4286751 0-.7761849-.3475098-.7761849-.7761849 0-.428675.3475098-.7761848.7761849-.7761848zm-19.22958913-2.6347597c.5376253-.2231004 1.15612849-.098646 1.56670527.3152505.41057677.4138965.53223286 1.0355859.30816212 1.5747761-.22407076.5391902-.74966605.8895155-1.33136407.8874418-.79161691-.0029332-1.43182283-.6483208-1.43182283-1.4434469 0-.5842767.3506942-1.1109211.88831951-1.3340215zm19.22958913-2.93505262c.4286751 0 .7761849.34750979.7761849.77618482 0 .4286751-.3475098.7761849-.7761849.7761849h-8.5775004c-.4286751 0-.7761849-.3475098-.7761849-.7761849 0-.42867503.3475098-.77618482.7761849-.77618482zm-.0032325-5.57627738c.4304603 0 .7794174.34895705.7794174.77941739s-.3489571.77941739-.7794174.77941739h-22.31550199c-.43046034 0-.77941739-.34895705-.77941739-.77941739s.34895705-.77941739.77941739-.77941739z"/></svg>