<svg height="32" viewBox="0 0 32 32" width="32" xmlns="http://www.w3.org/2000/svg"><g fill="none" fill-rule="evenodd"><path d="m6.573369 16h19.116883v10.969856h-19.116883z" fill="#6ec38c"/><path d="m22.2918139 19.7319625 3.3984382 3.4597234v3.7781701h-14.6218627l3.2735001-3.3796458 2.340236 1.4852438zm-9.5520829-.5677937c.4576235.4613236.5932198 1.1542504.3434735 1.7552248-.2497464.6009743-.835568.9914423-1.483921.9890892-.8823258-.0032275-1.5958909-.7225681-1.5958909-1.6088053 0-.6512271.3908791-1.238218.9901093-1.4868828.5992301-.2486648 1.2886056-.1099495 1.7462291.3513741z" fill="#257843"/><path d="m16.636049 12.1717086c.0820189.0410094.1742902.0615141.2665614.0615141.1332807 0 .2768138-.0410094.3793374-.1332807l3.7933735-3.0346988c.1435331-.11277597.2358043-.29731846.2358043-.48186096s-.0820189-.35883263-.2255519-.48186096l-3.8856448-3.11671772c-.1845425-.15378542-.4408515-.17429014-.6561511-.07176653s-.3485803.32807555-.3485803.56387985l.0307571 2.41955718h-4.6583175c-.3383279 0-.6151417.27681374-.6151417.61514165 0 .33832792.2768138.61514166.6151417.61514166h4.6788222l.0410095 2.50157603c0 .2358043.143533.4511039.3485802.5433752z" fill="#252d4f" fill-rule="nonzero" transform="matrix(0 -1 -1 0 24.673264 24.673264)"/></g></svg>