<svg height="32" viewBox="0 0 32 32" width="32" xmlns="http://www.w3.org/2000/svg"><path d="m27.1275759 26.2857143c.4304604 0 .7794174.348957.7794174.7794174 0 .4304603-.348957.7794174-.7794174.7794174h-22.31259376c-.43046034 0-.77941739-.3489571-.77941739-.7794174 0-.4304604.34895705-.7794174.77941739-.7794174zm.2368594-17.69533227c.2982337 0 .5456467.21758961.592147.50267688l.007853.09732312v13.46378497c0 .2982338-.2175897.5456468-.5026769.5921471l-.0973231.0078529h-10.8353641c-.2982337 0-.5456467-.2175896-.592147-.5026768l-.007853-.0973232v-13.46378497c0-.29823377.2175897-.54564676.5026769-.59214702l.0973231-.00785298zm-13.9751853 12.12551997c.4286751 0 .7761849.3475098.7761849.7761848 0 .4286751-.3475098.7761849-.7761849.7761849h-8.5775004c-.42867506 0-.77618485-.3475098-.77618485-.7761849 0-.428675.34750979-.7761848.77618485-.7761848zm13.3633147-10.925902h-9.6237307v8.754l.7654673-.7890321c.1484711-.1532854.3623764-.2125506.5613995-.1682805l.0978995.030807.0931882.0483272 1.7410455 1.1041784 4.1266646-4.5548317c.1845946-.1758351.4523709-.2111412.670339-.1081284l.0899777.0526104.0815524.0695087 1.3967928 1.421841zm-13.3633147 5.3560897c.4286751 0 .7761849.3475098.7761849.7761848 0 .4286751-.3475098.7761849-.7761849.7761849h-8.5775004c-.42867506 0-.77618485-.3475098-.77618485-.7761849 0-.428675.34750979-.7761848.77618485-.7761848zm6.4629178-2.6347597c.5376253-.2231004 1.1561285-.098646 1.5667052.3152505.4105768.4138965.5322329 1.0355859.3081621 1.5747761-.2240707.5391902-.749666.8895155-1.331364.8874232-.7916169-.0029146-1.4318228-.6483022-1.4318228-1.4434283 0-.5842767.3506942-1.1109211.8883195-1.3340215zm-6.4629178-2.93505262c.4286751 0 .7761849.34750979.7761849.77618482 0 .4286751-.3475098.7761849-.7761849.7761849h-8.5775004c-.42867506 0-.77618485-.3475098-.77618485-.7761849 0-.42867503.34750979-.77618482.77618485-.77618482zm13.7412341-5.57627738c.4304603 0 .7794174.34895705.7794174.77941739s-.3489571.77941739-.7794174.77941739h-22.31550196c-.43046034 0-.77941739-.34895705-.77941739-.77941739s.34895705-.77941739.77941739-.77941739z"/></svg>