<svg height="32" viewBox="0 0 32 32" width="32" xmlns="http://www.w3.org/2000/svg"><path d="m25.0902521 22.5808659-2.7984382-2.8489034-5.6096884 5.3434915-2.340236-1.4852438-2.6923445 2.7796458h13.4407071zm-13.4909686-.6723726c.648353.0023426 1.2341746-.3881254 1.483921-.9890997.2497463-.6009744.11415-1.2939012-.3434735-1.7552248s-1.146999-.6000389-1.7462291-.3513741c-.5992302.2486648-.9901093.8356557-.9901093 1.4868828 0 .8862372.7135651 1.6055778 1.5958909 1.6088158zm-5.62591453-5.9084933c0-.3313708.26862915-.6.6-.6h19.11688313c.3313708 0 .6.2686292.6.6v10.969856c0 .3313709-.2686292.6-.6.6h-19.11688313c-.33137085 0-.6-.2686291-.6-.6zm6.52818573-7.96278579c-.0410094-.08201888-.0615142-.17429013-.0615142-.26656138 0-.13328069.0410095-.27681375.1332807-.37933735l3.0346989-3.79337355c.1127759-.14353305.2973184-.2358043.4818609-.2358043s.3588327.08201889.481861.22555194l3.1167177 3.88564479c.1537854.1845425.1742901.44085152.0717665.6561511s-.3280755.34858027-.5638798.34858027l-2.4195572-.03075708v4.65831755c0 .3383279-.2768137.6151416-.6151417.6151416-.3383279 0-.6151416-.2768137-.6151416-.6151416v-4.67882227l-2.5015761-.04100945c-.2358043 0-.4511039-.14353305-.5433751-.34858027z" fill-rule="evenodd"/></svg>