<svg height="32" viewBox="0 0 32 32" width="32" xmlns="http://www.w3.org/2000/svg"><path d="m5.97336897 3.96213763c0-.33137085.26862915-.6.6-.6h19.11688313c.3313708 0 .6.26862915.6.6v10.96985607c0 .3313708-.2686292.6-.6.6h-19.11688313c-.33137085 0-.6-.2686292-.6-.6zm19.11688313 6.58086587-2.7984382-2.84890335-5.6096884 5.34349145-2.340236-1.4852438-2.6923445 2.7796459h13.4407071zm-13.4909686-.67236205c.648353.00233207 1.2341746-.38813588 1.483921-.98911023.2497463-.60097434.11415-1.29390117-.3434735-1.75522479-.4576235-.46132361-1.146999-.60003893-1.7462291-.35137414-.5992302.24866479-.9901093.83565573-.9901093 1.48688287 0 .8862372.7135651 1.60557773 1.5958909 1.60882629zm.9022712 13.02413805c.0922712-.2050473.3075708-.3485803.5433751-.3485803l2.5015761-.0410094v-4.6788223c0-.3383279.2768137-.6151417.6151416-.6151417.338328 0 .6151417.2768138.6151417.6151417v4.6583175l2.4195572-.0307571c.2358043 0 .4613562.1332807.5638798.3485803s.0820189.4716086-.0717665.6561511l-3.1167177 3.8856448c-.1230283.1435331-.2973185.2255519-.481861.2255519s-.369085-.0922712-.4818609-.2358043l-3.0346989-3.7933735c-.0922712-.1025236-.1332807-.2460567-.1332807-.3793374 0-.0922712.0205048-.1845424.0615142-.2665613z" fill-rule="evenodd"/></svg>