<svg height="32" viewBox="0 0 32 32" width="32" xmlns="http://www.w3.org/2000/svg"><path d="m28.2487567 19.1189441-2.4255877-2.4693291-5.1219579 4.8789053-2.1367658-1.3561103-1.7962081 1.8544516v-12.83647957h11.4805195zm-7.6152288-2.4693172c.7271225.0026272 1.3841166-.4352794 1.664205-1.1092672.2800885-.6739878.1280184-1.4510995-.3852026-1.9684701-.513221-.5173707-1.28635-.6729387-1.9583816-.3940632s-1.1103994.937181-1.1103994 1.6675268c0 .9939078.8002574 1.8006422 1.7897786 1.8042737zm-16.35879718-7.07334952h10.12987018v1.55236972h-10.12987018zm0 11.13962462h10.12987018v1.5523697h-10.12987018zm0-5.5698123h10.12987018v1.5523697h-10.12987018zm0 11.1396246h23.87142858v1.5588348h-23.87142858zm0-22.2857143h23.87433678v1.55883478h-23.87433678z" fill-rule="evenodd"/></svg>