<svg height="32" viewBox="0 0 32 32" width="32" xmlns="http://www.w3.org/2000/svg"><g fill="none" fill-rule="evenodd"><path d="m6.573369 10.456519h19.116883v10.969856h-19.116883z" fill="#6ec38c"/><path d="m25.6902521 21.4263754h-14.6218627l3.2735001-3.3796458 2.340236 1.4852438 5.6096884-5.3434915 3.3984382 3.4597234z" fill="#257843"/><path d="m11.5992835 16.3650022c-.8823258-.0032276-1.5958909-.7225681-1.5958909-1.6088053 0-.6512271.3908791-1.2382181.9901093-1.4868828.5992301-.2486648 1.2886056-.1099495 1.7462291.3513741s.5932198 1.1542504.3434735 1.7552248c-.2497464.6009743-.835568.9914423-1.483921.9890892z" fill="#257843"/><g fill="#252d4f" fill-rule="nonzero"><path d="m14.0305166 8.16563412c.2167145 0 .4315069-.07159746.5912163-.21533599l3.5463274-2.83630338c.2177088-.17103972.3532706-.44639968.3532706-.72679885 0-.27646741-.1222742-.53731899-.3344754-.7192058l-3.657337-2.93382881c-.2727362-.22736029-.6595056-.2664718-.9869858-.11052886-.3235175.15405597-.5275902.48838774-.5275902.846672l.0866876 5.78178147c-.0000469.34891834.2105331.67592901.5279027.82187918.1239218.06068713.2618382.09166904.4009838.09166904z" transform="matrix(-.01745241 .9998477 -.9998477 -.01745241 20.390328 -11.342197)"/><path d="m14.0305166 31.3116516c.2167145 0 .4315069-.0715975.5912163-.215336l3.5463274-2.8363034c.2177088-.1710397.3532706-.4463997.3532706-.7267989 0-.2764674-.1222742-.537319-.3344754-.7192058l-3.657337-2.9338288c-.2727362-.2273603-.6595056-.2664718-.9869858-.1105288-.3235175.1540559-.5275902.4883877-.5275902.846672l.0866876 5.7817814c-.0000469.3489184.2105331.6759291.5279027.8218792.1239218.0606872.2618382.0916691.4009838.0916691z" transform="matrix(-.01745241 -.9998477 -.9998477 .01745241 43.53282 42.779583)"/></g></g></svg>