<svg height="32" viewBox="0 0 32 32" width="32" xmlns="http://www.w3.org/2000/svg"><path d="m15.974026 19.1189441-2.4255877-2.4693291-5.12195792 4.8789053-2.13676579-1.3561103-1.7962081 1.8544516v-12.83647957h11.48051951zm-7.61522887-2.4692938c.72712252.0026038 1.38411663-.4353028 1.66420507-1.1092906.2800885-.6739878.1280183-1.4510995-.38520264-1.9684701-.51322097-.5173707-1.28634995-.6729387-1.95838159-.3940632-.67203163.2788755-1.11039938.937181-1.11039938 1.6675268 0 .9939078.8002574 1.8006422 1.78977854 1.8042971zm19.95289117-7.07337292v1.55236972h-10.1298701v-1.55236972zm0 11.13962462v1.5523697h-10.1298701v-1.5523697zm0-5.5698123v1.5523697h-10.1298701v-1.5523697zm0 11.1396246v1.5588348h-23.87142856v-1.5588348zm0-22.2857143v1.55883478h-23.87433672v-1.55883478z" fill-rule="evenodd"/></svg>