<svg height="32" viewBox="0 0 32 32" width="32" xmlns="http://www.w3.org/2000/svg"><path d="m16.1616475 17.2112258c.338328 0 .6151417.2768138.6151417.6151417v4.6583175l2.4195572-.0307571c.2358043 0 .4613562.1332807.5638798.3485803s.0820189.4716086-.0717665.6561511l-3.1167177 3.8856448c-.1230283.1435331-.2973185.2255519-.481861.2255519s-.369085-.0922712-.4818609-.2358043l-3.0346989-3.7933735c-.0922712-.1025236-.1332807-.2460567-.1332807-.3793374 0-.0922712.0205048-.1845424.0615142-.2665613.0922712-.2050473.3075708-.3485803.5433751-.3485803l2.5015761-.0410094v-4.6788223c0-.3383279.2768137-.6151417.6151416-.6151417zm9.5286046-13.84908817c.3313708 0 .6.26862915.6.6v10.96985607c0 .3313708-.2686292.6-.6.6h-19.11688313c-.33137085 0-.6-.2686292-.6-.6v-10.96985607c0-.33137085.26862915-.6.6-.6zm-.6002521 1.19986237h-17.917v9.769l4.477369-.0008624 2.6915205-2.7777898 2.340236 1.4852438 5.6096884-5.34349145 2.7984382 2.84890335zm-12.350269 2.56430643c.4576235.46132362.5932198 1.15425045.3434735 1.75522479-.2497464.60097435-.835568.9914423-1.483921.98912062-.8823258-.00325895-1.5958909-.72259948-1.5958909-1.60883668 0-.65122714.3908791-1.23821808.9901093-1.48688287.5992301-.24866479 1.2886056-.10994947 1.7462291.35137414z"/></svg>