<svg height="32" viewBox="0 0 32 32" width="32" xmlns="http://www.w3.org/2000/svg"><path d="m20.7951168 5.77905811c.4880054 0 .9236738.30583917 1.0894789.76481411l6.5475956 18.12478978c.2173656.6017026-.0942012 1.2656885-.6959038 1.4830541s-1.2656885-.0942012-1.4830541-.6959038l-2.105891-5.8267542h-6.788l-2.1091055 5.8275536c-.217807.6015429-.8820214.9126223-1.4835643.6948153-.601543-.217807-.9126224-.8820214-.6948154-1.4835644l6.5626346-18.1247897c.1660357-.45856017.601496-.76401479 1.0891898-.76401479zm-13.4001467 10.22094189c.24400273 0 .46183693.1529196.54473947.3824071l3.27379783 9.0623948c.1086827.3008513-.0471006.6328443-.3479519.7415271s-.6328443-.0471006-.7415271-.3479519l-1.05244549-2.9133771h-3.395l-1.05405273 2.9137768c-.10890352.3007714-.44101071.4563112-.74178218.3474076-.30077147-.1089035-.45631118-.4410107-.34740767-.7417821l3.28131727-9.0623949c.08301787-.2292801.300748-.3820074.54459493-.3820074zm-.0184631 2.2327992-1.28092409 3.5332008h2.557zm13.3816836-7.9881426-2.5598482 7.0674015h5.112z" fill="#3e5b63"/></svg>