<svg height="32" viewBox="0 0 32 32" width="32" xmlns="http://www.w3.org/2000/svg"><g fill="none" fill-rule="evenodd" transform="matrix(-1 0 0 1 29.586419 4)"><g transform="matrix(-1 0 0 1 15.155844 5.190382)"><path d="m2.337662 0h11.48052v13.844156h-11.48052z" fill="#6ec38c"/><g fill="#257843"><path d="m11.3925942 7.45923302 2.4253883 2.469.0001993 3.91592278h-11.48051946l-.00067982-1.0069228 1.79688792-1.855205 2.13676579 1.3561103z"/><path d="m5.55360233 4.10726886c-.98952115-.00361962-1.78977855-.81035409-1.78977855-1.8042618 0-.73034587.43836775-1.38865136 1.11039939-1.66752688.67203163-.27887551 1.44516061-.12330742 1.95838159.39406321.51322097.51737063.66529109 1.29448235.38520264 1.96847012-.28008844.67398777-.93708256 1.11189436-1.66420507 1.10925535z" transform="translate(.649351 3.351964)"/></g></g><g fill="#3e5b63" fill-rule="nonzero"><path d="m25.3116883 5.57627738h-10.1298701v1.55236971h10.1298701z"/><path d="m25.3116883 16.715902h-10.1298701v1.5523697h10.1298701z"/><path d="m25.3116883 11.1460897h-10.1298701v1.5523697h10.1298701z"/><path d="m25.3116883 22.2857143h-23.87142856v1.5588348h23.87142856z"/><path d="m25.3116883 0h-23.87433672v1.55883478h23.87433672z"/></g></g></svg>