<svg height="32" viewBox="0 0 32 32" width="32" xmlns="http://www.w3.org/2000/svg"><g fill="none" fill-rule="evenodd"><path d="m6.573369 4.362138h19.116883v10.969856h-19.116883z" fill="#6ec38c"/><path d="m25.6902521 15.3319937h-14.6218627l3.2735001-3.3796459 2.340236 1.4852438 5.6096884-5.34349145 3.3984382 3.45972335z" fill="#257843"/><path d="m11.5992835 10.2706204c-.8823258-.0032275-1.5958909-.72256804-1.5958909-1.60880524 0-.65122714.3908791-1.23821808.9901093-1.48688287.5992301-.24866479 1.2886056-.10994947 1.7462291.35137414.4576235.46132362.5932198 1.15425045.3434735 1.75522479-.2497464.60097435-.835568.99144228-1.483921.98908918z" fill="#257843"/><path d="m16.636049 25.9877343c.0820189.0410094.1742902.0615141.2665614.0615141.1332807 0 .2768138-.0410094.3793374-.1332807l3.7933735-3.0346988c.1435331-.112776.2358043-.2973185.2358043-.481861s-.0820189-.3588326-.2255519-.4818609l-3.8856448-3.1167178c-.1845425-.1537854-.4408515-.1742901-.6561511-.0717665s-.3485803.3280756-.3485803.5638799l.0307571 2.4195571h-4.6583175c-.3383279 0-.6151417.2768138-.6151417.6151417s.2768138.6151417.6151417.6151417h4.6788222l.0410095 2.501576c0 .2358043.143533.4511039.3485802.5433752z" fill="#252d4f" fill-rule="nonzero" transform="matrix(0 1 -1 0 38.489289 6.225667)"/></g></svg>