<svg height="32" viewBox="0 0 32 32" width="32" xmlns="http://www.w3.org/2000/svg"><path d="m15.6805579 24.7415935c.2764253-.0048251.5393711.112878.7249336.3218726l2.9972113 3.6055775c.2320856.2687268.2779412.6547546.1277374.9849065-.1483864.3261569-.4791057.5360334-.8373354.5422863l-5.7824138.0142317c-.3488643.0061363-.6795003-.1987045-.8309671-.5134786-.0628407-.1228438-.0962248-.2601985-.0986532-.3993228-.0037822-.2166816.0640557-.4326908.204985-.5948845l2.7739794-3.5952875c.1672142-.2206607.4401663-.3610076.7205228-.3659012zm9.8778837-14.82652152c.3313708 0 .6.26862912.6.60000002v10.969856c0 .3313709-.2686292.6-.6.6h-19.11688316c-.33137085 0-.6-.2686291-.6-.6v-10.969856c0-.3313709.26862915-.60000002.6-.60000002zm-.6002521 1.19986232h-17.91700003v9.769l4.47736893-.0008623 2.6915206-2.7777899 2.340236 1.4852438 5.6096883-5.3434914 2.7984383 2.8489033zm-12.350269 2.5643065c.4576235.4613236.5932198 1.1542504.3434734 1.7552248-.2497463.6009743-.8355679.9914423-1.4839209.9891309-.8823258-.0032693-1.59589093-.7226098-1.59589093-1.608847 0-.6512271.39087913-1.2382181.99010923-1.4868829.5992302-.2486648 1.2886057-.1099494 1.7462292.3513742zm.3027705-12.04836964 5.7824138.01423166c.3582297.00625293.688949.21612938.8373354.5422863.1335145.29346833.1121179.63108559-.0572864.89122397l-.070451.09368252-2.9972113 3.60557752c-.1855625.20899459-.4485083.32669766-.7249336.32187264-.2403056-.00419455-.4751712-.10790576-.6426725-.27641027l-.0778503-.08949094-2.7739794-3.59528754c-.1409293-.16219374-.2087672-.37820293-.204985-.59488447.0024284-.13912434.0358125-.27647904.0986532-.39932285.1346371-.27979922.4108401-.47273751.7155749-.50784862z"/></svg>