<svg height="32" viewBox="0 0 32 32" width="32" xmlns="http://www.w3.org/2000/svg"><path d="m25.0902521 12.9430035-2.7984382-2.8489033-5.6096884 5.3434914-2.340236-1.4852438-2.6923445 2.7796459h13.4407071zm-13.4909686-.672362c.648353.002332 1.2341746-.3881359 1.483921-.9891103.2497463-.6009743.11415-1.29390115-.3434735-1.75522477-.4576235-.46132361-1.146999-.60003893-1.7462291-.35137414-.5992302.24866479-.9901093.83565571-.9901093 1.48688291 0 .8862372.7135651 1.6055777 1.5958909 1.6088263zm14.0734195 8.2916996v1.2467532h-19.0946514v-1.2467532zm-10.546084 3.9938388v1.2467533h-8.72238465v-1.2467533zm-8.55325003-6.6241862c-.33137085 0-.6-.2686292-.6-.6v-10.96985607c0-.33137085.26862915-.6.6-.6h19.11688313c.3313708 0 .6.26862915.6.6v10.96985607c0 .3313708-.2686292.6-.6.6z" fill-rule="evenodd"/></svg>