<svg height="32" viewBox="0 0 32 32" width="32" xmlns="http://www.w3.org/2000/svg"><g fill="none" fill-rule="evenodd"><path d="m22.5752676 15.5594281c.0450292-3.634198-2.9149317-6.62925963-6.561316-6.63688041-3.6437865-.00759162-6.61002547 2.96171141-6.58972629 6.59183661.00879115 1.5404978.5507642 2.9550348 1.45131949 4.0696664 1.1610963 1.4370858 1.8095265 3.2181767 1.8095265 5.063354v1.4585542h6.629888v-1.4585542-.0517869c0-1.8173418.6360363-3.5748589 1.7872013-4.9841632.9050745-1.1079695 1.4540833-2.5163298 1.473107-4.0520265z" fill="#ffd34c"/><path d="m16.8243993 10.5608919c2.3873816.3982348 4.2114544 2.4947462 4.1806725 4.9790809-.0131642 1.0626892-.3603311 2.0686318-.9817169 2.9021251l-.314189.3991259c-.5481232.7132635-1.0637246 1.8489862-1.5468043 3.4071678-.1646314.531082-.6558715.8930907-1.2118855.8930907-.5253408 0-.9512137-.4258729-.9512137-.9512137 0-.0000159 0-.0000317 0-.0000475l.0005462-10.9309517c.0000465-.3910523.3170729-.708047.7081251-.7080274.0390215.0000019.077976.0032296.1164656.0096499z" fill="#ffe8a5"/><path d="m12.6789844 26.1870952v-2.1188699h6.6720488v2.1416015c0 1.0543618-.8158777 1.9181651-1.8507376 1.9945142l-.1662761.0054134-2.6720488-.0227316c-1.0978912-.0093399-1.9829863-.9019966-1.9829863-1.9999276z" fill="#59adcb"/><path d="m19.3505619 24.7352105.000198 1.4467209c.0004051 1.0543617-.8153427 1.9182766-1.8501916 1.9947673l-.1495351.0052327h-2.6720507c-1.1045695 0-2-.8954305-2-2v-.2688413l.0852889-.0172207z" fill="#85c6dd"/><path d="m17.5220513 28.1984931-.1662761.0054133-2.6720488-.0227315c-.5577523-.0047449-1.0605848-.2374613-1.4203506-.6092488l6.0876574-1.0719261c-.1358979.9159792-.8928423 1.6294272-1.8289819 1.6984931z" fill="#9cd5e9"/><path d="m16.0164126 3.81806863c.6604569 0 1.2.53954305 1.2 1.2 0 .66731969-.5363795 1.2-1.2 1.2-.660457 0-1.2-.53954305-1.2-1.2 0-.66731969.5363795-1.2 1.2-1.2zm5.3593621 1.62263347c.6604569 0 1.2.53954305 1.2 1.2 0 .66731969-.5363795 1.2-1.2 1.2-.660457 0-1.2-.53954305-1.2-1.2 0-.6673197.5363795-1.2 1.2-1.2zm3.5682217 3.57475743c.660457 0 1.2.53954305 1.2 1.19999997 0 .6673197-.5363795 1.2-1.2 1.2-.6604569 0-1.2-.539543-1.2-1.2 0-.66731967.5363795-1.19999997 1.2-1.19999997zm1.2 4.92765667c.660457 0 1.2.539543 1.2 1.2 0 .6673197-.5363795 1.2-1.2 1.2-.6604569 0-1.2-.5395431-1.2-1.2 0-.6673197.5363795-1.2 1.2-1.2zm-15.5197711-8.5024141c-.66045694 0-1.19999999.53954305-1.19999999 1.2 0 .66731969.53637948 1.2 1.19999999 1.2.660457 0 1.2-.53954305 1.2-1.2 0-.6673197-.5363795-1.2-1.2-1.2zm-3.56822171 3.57475743c-.66045695 0-1.2.53954305-1.2 1.19999997 0 .6673197.53637947 1.2 1.2 1.2.66045695 0 1.2-.539543 1.2-1.2 0-.66731967-.53637948-1.19999997-1.2-1.19999997zm-1.2 4.92765667c-.66045695 0-1.2.539543-1.2 1.2 0 .6673197.53637947 1.2 1.2 1.2.66045695 0 1.2-.5395431 1.2-1.2 0-.6673197-.53637948-1.2-1.2-1.2z" fill="#ffe8a5" fill-rule="nonzero"/></g></svg>