<svg height="32" viewBox="0 0 32 32" width="32" xmlns="http://www.w3.org/2000/svg"><path d="m16.0139516 8.94372252c3.6463843.00781919 6.6063452 3.00288088 6.561316 6.63707888-.0177554 1.4333169-.4971868 2.7557096-1.2968911 3.8264786l-.1762159.2255478c-1.0728357 1.3134103-1.69826 2.9292584-1.778405 4.61411l.0006515 1.8706247c0 1.1283153-.9146803 2.0429956-2.0429956 2.0429956h-2.5627924c-1.1283153 0-2.0429956-.9146803-2.0429956-2.0429956l.0006093-1.8218294c-.0760541-1.6042886-.6405977-3.1451535-1.602942-4.4356117l-.197746-.2546975c-.90055529-1.1146316-1.44252834-2.5291686-1.45152557-4.0696663-.0200931-3.6301252 2.94614587-6.59942828 6.58993237-6.59203508zm2.1110676 15.39399998h-4.249l-.0003957 1.77984c0 .4655736.377422.8429956.8429956.8429956h2.5627924c.4655736 0 .8429956-.377422.8429957-.8425776zm-2.1136317-14.1939976c-2.9774533-.0060413-5.4037536 2.4216162-5.3873496 5.3851848.0066243 1.132515.3661435 2.207403 1.0277095 3.1167709l.3835076.4970672c.8802233 1.1803378 1.4665986 2.5391704 1.7156713 3.9951855l4.4864711-.0001522c.2404006-1.4437582.8286994-2.8123516 1.7104756-3.9783268l.3690519-.4702349c.6707509-.8981059 1.0442825-1.9808293 1.0584348-3.1232853.0367526-2.9662183-2.3846622-5.4158205-5.3639722-5.4222092zm.0050251-6.30428303c.6604569 0 1.2.53954305 1.2 1.2 0 .6673197-.5363795 1.2-1.2 1.2-.660457 0-1.2-.53954305-1.2-1.2 0-.66731969.5363795-1.2 1.2-1.2zm5.3593621 1.62263347c.6604569 0 1.2.53954305 1.2 1.2 0 .66731969-.5363795 1.2-1.2 1.2-.660457 0-1.2-.53954305-1.2-1.2 0-.66731969.5363795-1.2 1.2-1.2zm3.5682217 3.57475743c.660457 0 1.2.53954305 1.2 1.20000003 0 .6673197-.5363795 1.2-1.2 1.2-.6604569 0-1.2-.5395431-1.2-1.2 0-.66731972.5363795-1.20000003 1.2-1.20000003zm1.2 4.92765663c.660457 0 1.2.5395431 1.2 1.2 0 .6673197-.5363795 1.2-1.2 1.2-.6604569 0-1.2-.539543-1.2-1.2 0-.6673197.5363795-1.2 1.2-1.2zm-15.5197711-8.50241406c-.66045694 0-1.19999999.53954305-1.19999999 1.2 0 .66731969.53637948 1.2 1.19999999 1.2.660457 0 1.2-.53954305 1.2-1.2 0-.66731969-.5363795-1.2-1.2-1.2zm-3.56822171 3.57475743c-.66045695 0-1.2.53954305-1.2 1.20000003 0 .6673197.53637947 1.2 1.2 1.2.66045695 0 1.2-.5395431 1.2-1.2 0-.66731972-.53637948-1.20000003-1.2-1.20000003zm-1.2 4.92765663c-.66045695 0-1.2.5395431-1.2 1.2 0 .6673197.53637947 1.2 1.2 1.2.66045695 0 1.2-.539543 1.2-1.2 0-.6673197-.53637948-1.2-1.2-1.2z"/></svg>