<svg height="32" viewBox="0 0 32 32" width="32" xmlns="http://www.w3.org/2000/svg"><path d="m16.0139516 8.94375023c3.6463843.00779148 6.6063452 3.00285317 6.561316 6.63705117-.0177554 1.4333169-.4971868 2.7557096-1.2968911 3.8264786l-.1762159.2255478c-1.0728357 1.3134103-1.69826 2.9292584-1.778405 4.61411l.0006515 1.8706247c0 1.1283153-.9146803 2.0429956-2.0429956 2.0429956h-2.5627924c-1.1283153 0-2.0429956-.9146803-2.0429956-2.0429956l.0006093-1.8218294c-.0760541-1.6042886-.6405977-3.1451535-1.602942-4.4356117l-.197746-.2546975c-.90055529-1.1146316-1.44252834-2.5291686-1.45131949-4.0696663-.02029918-3.6301252 2.94593979-6.59942828 6.58972629-6.59200737zm2.2232737 15.72414167h-4.477l.0013894 1.4935054c0 .4907862.3694421.8952845.8453974.9505659l.111607.0064385h2.5627924c.5285389 0 .9570044-.4284655.9570044-.9570044zm-2.2208127-20.82845003c.6604569 0 1.2.53954305 1.2 1.2 0 .6673197-.5363795 1.2-1.2 1.2-.660457 0-1.2-.53954305-1.2-1.2 0-.66731969.5363795-1.2 1.2-1.2zm5.3593621 1.62263347c.6604569 0 1.2.53954305 1.2 1.2 0 .66731969-.5363795 1.2-1.2 1.2-.660457 0-1.2-.53954305-1.2-1.2 0-.66731969.5363795-1.2 1.2-1.2zm3.5682217 3.57475743c.660457 0 1.2.53954305 1.2 1.20000003 0 .6673197-.5363795 1.2-1.2 1.2-.6604569 0-1.2-.5395431-1.2-1.2 0-.66731972.5363795-1.20000003 1.2-1.20000003zm1.2 4.92765663c.660457 0 1.2.5395431 1.2 1.2 0 .6673197-.5363795 1.2-1.2 1.2-.6604569 0-1.2-.539543-1.2-1.2 0-.6673197.5363795-1.2 1.2-1.2zm-15.5197711-8.50241406c-.66045694 0-1.19999999.53954305-1.19999999 1.2 0 .66731969.53637948 1.2 1.19999999 1.2.660457 0 1.2-.53954305 1.2-1.2 0-.66731969-.5363795-1.2-1.2-1.2zm-3.56822171 3.57475743c-.66045695 0-1.2.53954305-1.2 1.20000003 0 .6673197.53637947 1.2 1.2 1.2.66045695 0 1.2-.5395431 1.2-1.2 0-.66731972-.53637948-1.20000003-1.2-1.20000003zm-1.2 4.92765663c-.66045695 0-1.2.5395431-1.2 1.2 0 .6673197.53637947 1.2 1.2 1.2.66045695 0 1.2-.539543 1.2-1.2 0-.6673197-.53637948-1.2-1.2-1.2z" fill-rule="evenodd"/></svg>