<svg height="32" viewBox="0 0 32 32" width="32" xmlns="http://www.w3.org/2000/svg"><path d="m15.7773247 4.15962179c6.0603774 0 11 4.93962265 11 11.00000001 0 6.0603774-4.9396226 11-11 11-1.908166 0-3.7052245-.4896962-5.2719733-1.3498865l-4.13705295 1.5948753c-.09464066.0364939-.19814249.0433405-.29676556.0196307-.26849247-.0645477-.43382241-.33453-.36927474-.6030225l1.05236479-4.3800208c-1.24563117-1.782715-1.9772982-3.9491413-1.9772982-6.2815762 0-6.06037736 4.93962264-11.00000001 10.99999996-11.00000001zm-.2142176 14.78568181c-.640319 0-1.1583928.5145009-1.1583928 1.1583928 0 .6378015.5205913 1.1583929 1.1583928 1.1583929.6403191 0 1.1583929-.5145009 1.1583929-1.1583929 0-.640319-.5145009-1.1583928-1.1583929-1.1583928zm.0722858-10.20739289c-1.0968904 0-2.010621.40611024-2.6963492 1.1972593l-.1271043.15560869-.1549434.2155566-.1071372.1932604c-.2333063.4660378-.3498588 1.0303799-.3498588 1.5381722 0 .463864.3782789.8421428.8421429.8421428s.8421428-.3782788.8421428-.8421428l.0048434-.1267786.0175506-.1547136c.0311758-.2057844.0917887-.4043821.1618846-.5335757l.0354357-.0567.1316946-.1578607c.3578828-.391182.8060613-.5769072 1.3906625-.5769072.649557 0 1.1306907.2292904 1.5066758.7149377l.0341208.0375158.0398708.0684593.0557575.1148985c.1177853.2902314.1476026.7248172.0525261 1.0813542l-.0101295.0953703-.0458754.1028251-.0487759.1174633c-.1265054.2751325-.3440458.5614626-.6981857.9395887l-.6939823.7173842c-.7333673.7760556-1.0160736 1.2749258-1.0160736 1.9990601 0 .463864.3782789.8421428.8421429.8421428s.8421428-.3782788.8421428-.8421428c0-.1393331.1264169-.3607077.3818369-.6522177l.1581579-.1731202.6158056-.6287383.2049996-.2190157c.587443-.6449553.9295064-1.1894518 1.0969928-1.8593974l.0452985-.1944476.0356411-.2147816c.1154773-.8629301-.092373-1.7619497-.5617277-2.352989-.6815241-.9154318-1.6456895-1.38747109-2.8281832-1.38747109z"/></svg>