<svg height="32" viewBox="0 0 32 32" width="32" xmlns="http://www.w3.org/2000/svg"><path d="m15.7773247 3.55962179c6.3917483 0 11.6 5.2082518 11.6 11.60000001 0 6.3917482-5.2082517 11.6-11.6 11.6-1.8363318 0-3.6142637-.4308153-5.2194496-1.2438802l-.0925504-.0491198-3.88115625 1.4978103c-.12492567.048172-.25686939.0728633-.38930194.0736419l-.13235367-.0072083-.13122861-.023246c-.55130455-.1325379-.90490383-.65878-.83416034-1.20854l.02173695-.1180307.99013916-4.124049-.06543589-.0973779c-1.06750786-1.6425456-1.70413284-3.5274618-1.83915176-5.5045879l-.02029475-.3966102-.00679286-.3988022c0-6.39174821 5.20825179-11.60000001 11.59999996-11.60000001zm0 1.2c-5.7290065 0-10.39999996 4.6709935-10.39999996 10.40000001 0 2.1507118.65910925 4.206167 1.8691313 5.9379191.07867415.1125964.11574225.2478411.10688533.3829125l-.01532113.1009145-1.00802024 4.1946321 3.9595278-1.5261041c.0989836-.0381592.2050421-.0489582.3075283-.0331123l.100901.0247011.0961534.0423055c1.5170567.8329079 3.2190956 1.2758316 4.9832142 1.2758316 5.7290066 0 10.4-4.6709935 10.4-10.4 0-5.72900651-4.6709934-10.40000001-10.4-10.40000001zm-.2142176 14.28568181c.588508 0 1.0583929.4731479 1.0583929 1.0583928 0 .588508-.473148 1.0583929-1.0583929 1.0583929-.582573 0-1.0583928-.4758199-1.0583928-1.0583929 0-.588508.4731479-1.0583928 1.0583928-1.0583928zm.0722858-10.20739289c1.1512636 0 2.0855534.45741271 2.7498721 1.34965929.4516138.5686989.6529688 1.4405014.5414383 2.2752067l-.0344373.2077066-.0449161.1928631c-.1627976.6511907-.4974202 1.1835781-1.0753767 1.8179133l-.3468152.3650549-.3777071.3823298-.2167134.2309428-.0375423.042383c-.2366111.2700435-.3704741.4864202-.4002428.650833l-.006381.0672861c0 .4086355-.3335073.7421428-.7421428.7421428s-.7421429-.3335073-.7421429-.7421428c0-.6918326.2749455-1.175455.9943119-1.9361554l.6887317-.711931c.3614831-.3859666.5850714-.6803547.7179632-.9711671l.0515384-.1246715.0503477-.1323964.006753-.069604c.1008794-.3782979.069543-.8365956-.0604613-1.1522255l-.0616592-.125886-.0519467-.0830775-.0257591-.0280224c-.3951849-.5104471-.90566-.7537204-1.5857482-.7537204-.618262 0-1.0963478.2010523-1.4750711.6211137l-.110677.1326067c-.1083502.1419188-.1982745.4086914-.2365355.6818858l-.0146712.1365841-.0051166.1343455c0 .4086355-.3335073.7421428-.7421428.7421428-.4086356 0-.7421429-.3335073-.7421429-.7421428 0-.4927901.1133809-1.0416277.3367834-1.48934l.1024702-.1852271.1433965-.2017114.1316084-.1604188c.6666746-.76939361 1.5529413-1.16315989 2.6211344-1.16315989z"/></svg>