<svg height="32" viewBox="0 0 32 32" width="32" xmlns="http://www.w3.org/2000/svg"><g fill="none"><path d="m15.7773247 4.15962179c6.0603774 0 11 4.93962265 11 11.00000001 0 2.3324349-.731667 4.4988612-1.9772982 6.2815762l1.0523648 4.3800208c.0645477.2684925-.1007822.5384748-.3692747.6030225-.0986231.0237098-.2021249.0168632-.2967656-.0196307l-4.137053-1.5948753c-1.5667487.8601903-3.3638072 1.3498865-5.2719733 1.3498865-6.06037732 0-10.99999996-4.9396226-10.99999996-11 0-6.06037736 4.93962264-11.00000001 10.99999996-11.00000001z" fill="#9b6fb8" transform="matrix(-1 0 0 1 31.55465 0)"/><path d="m15.5631071 18.9453036c.643892 0 1.1583929.5180738 1.1583929 1.1583928 0 .643892-.5180738 1.1583929-1.1583929 1.1583929-.6378015 0-1.1583928-.5205914-1.1583928-1.1583929 0-.6438919.5180738-1.1583928 1.1583928-1.1583928zm.0722858-10.20739289c1.1824937 0 2.1466591.47203929 2.8281832 1.38747109.4693547.5910393.677205 1.4900589.5617277 2.352989l-.0356411.2147816-.0452985.1944476c-.1674864.6699456-.5095498 1.2144421-1.0969928 1.8593974l-.2049996.2190157-.6158056.6287383-.1581579.1731202c-.25542.29151-.3818369.5128846-.3818369.6522177 0 .463864-.3782788.8421428-.8421428.8421428s-.8421429-.3782788-.8421429-.8421428c0-.7241343.2827063-1.2230045 1.0160736-1.9990601l.6939823-.7173842c.3541399-.3781261.5716803-.6644562.6981857-.9395887l.0487759-.1174633.0458754-.1028251.0101295-.0953703c.0950765-.356537.0652592-.7911228-.0525261-1.0813542l-.0557575-.1148985-.0398708-.0684593-.0341208-.0375158c-.3759851-.4856473-.8571188-.7149377-1.5066758-.7149377-.5846012 0-1.0327797.1857252-1.3906625.5769072l-.1316946.1578607-.0354357.0567c-.0700959.1291936-.1307088.3277913-.1618846.5335757l-.0175506.1547136-.0048434.1267786c0 .463864-.3782788.8421428-.8421428.8421428s-.8421429-.3782788-.8421429-.8421428c0-.5077923.1165525-1.0721344.3498588-1.5381722l.1071372-.1932604.1549434-.2155566.1271043-.15560869c.6857282-.79114906 1.5994588-1.1972593 2.6963492-1.1972593z" fill="#fff"/></g></svg>