<svg height="32" viewBox="0 0 32 32" width="32" xmlns="http://www.w3.org/2000/svg"><path d="m25.0938363 24.3365571c.5932253 0 1.0785915.4853662 1.0785915 1.0785916 0 .6040112-.4853662 1.0785915-1.0785915 1.0785915-.5932254 0-1.0785916-.4853662-1.0785916-1.0785915 0-.6040113.4853662-1.0785916 1.0785916-1.0785916zm-7.6256423 0c.6040113 0 1.0785916.4853662 1.0785916 1.0785916 0 .6040112-.4853662 1.0785915-1.0785916 1.0785915-.5932253 0-1.0785915-.4853662-1.0785915-1.0785915 0-.6040113.4853662-1.0785916 1.0785915-1.0785916zm3.829 0c.5932254 0 1.0785916.4853662 1.0785916 1.0785916 0 .6040112-.4853662 1.0785915-1.0785916 1.0785915-.5932253 0-1.0785915-.4853662-1.0785915-1.0785915 0-.6040113.4853662-1.0785916 1.0785915-1.0785916zm-7.6472141 0c.5932254 0 1.0785916.4853662 1.0785916 1.0785916 0 .6040112-.4853662 1.0785915-1.0785916 1.0785915-.5932253 0-1.0785915-.4853662-1.0785915-1.0785915 0-.6040113.4853662-1.0785916 1.0785915-1.0785916zm-4.82885913-2.8350867 2.19200003 1.277-1.06939946 1.9862266c-.74840038 1.2870381-2.10160057 1.8633859-4.05960057 1.7290432zm10.98755073-16.39514679c.5289477.30225587.9193615.80601564 1.0704895 1.39793336.1637219.59191773.0755639 1.22161745-.2266919 1.7505652l-8.2347042 13.73265203c-.1406427.2345436-.4436274.3125762-.6800697.1751495l-2.64057443-1.5351533-.07097842-.0499326c-.1782574-.1512223-.23064015-.411466-.11359234-.6230383l7.74762289-14.00437827c.3022559-.52894776.8060156-.91936158 1.3979334-1.07048951.5919177-.16372193 1.2216174-.07556397 1.7505652.22669189z"/></svg>