<svg height="32" viewBox="0 0 32 32" width="32" xmlns="http://www.w3.org/2000/svg"><g fill="none"><g fill="#b34874"><path d="m25.0938363 24.3365571c-.5932254 0-1.0785916.4745803-1.0785916 1.0785916 0 .5932253.4853662 1.0785915 1.0785916 1.0785915.5932253 0 1.0785915-.4745803 1.0785915-1.0785915 0-.5932254-.4853662-1.0785916-1.0785915-1.0785916z"/><path d="m17.468194 24.3365571c-.5932253 0-1.0785915.4745803-1.0785915 1.0785916 0 .5932253.4853662 1.0785915 1.0785915 1.0785915.5932254 0 1.0785916-.4745803 1.0785916-1.0785915 0-.5932254-.4745803-1.0785916-1.0785916-1.0785916z"/><path d="m21.297194 24.3365571c-.5932253 0-1.0785915.4745803-1.0785915 1.0785916 0 .5932253.4853662 1.0785915 1.0785915 1.0785915.5932254 0 1.0785916-.4745803 1.0785916-1.0785915 0-.5932254-.4853662-1.0785916-1.0785916-1.0785916z"/><path d="m13.6499799 24.3365571c-.5932253 0-1.0785915.4745803-1.0785915 1.0785916 0 .5932253.4853662 1.0785915 1.0785915 1.0785915.5932254 0 1.0785916-.4745803 1.0785916-1.0785915 0-.5932254-.4853662-1.0785916-1.0785916-1.0785916z"/></g><path d="m6.83049788 26.4937402h-.94637711l4.06385461-6.9029859 2.02299562 1.2276665c-1.4414458 2.9577858-2.16680782 4.4413179-2.17608603 4.4505961-.65411358 1.2247233-1.37781372 1.2247233-2.96438709 1.2247233z" fill="#abc3ca"/><path d="m6.83049788 26.4937402h-.94637711l.72848038-1.2247233c2.13080076-.0092782 3.19156203-.0092782 3.18228382 0-.65411358 1.2247233-1.37781372 1.2247233-2.96438709 1.2247233z" fill="#86a2aa"/><path d="m11.7376952 22.1626237-2.63889103-1.5337959c-.23517618-.1366909-.31793294-.4363095-.18625416-.6743283l7.74762289-14.00437827c.3022559-.52894776.8060156-.91936158 1.3979334-1.07048951.5919177-.16372193 1.2216174-.07556397 1.7505652.22669189.5289477.30225587.9193615.80601564 1.0704895 1.39793336.1637219.59191773.0755639 1.22161745-.2266919 1.7505652l-8.2347042 13.73265203c-.1406427.2345436-.4436274.3125762-.6800697.1751495z" fill="#66848c"/></g></svg>