<svg height="32" viewBox="0 0 32 32" width="32" xmlns="http://www.w3.org/2000/svg"><path d="m25.23125 24.6822222c-.55 0-1 .44-1 1 0 .55.45 1 1 1s1-.44 1-1c0-.55-.45-1-1-1zm-7.07 0c-.55 0-1 .44-1 1 0 .55.45 1 1 1s1-.44 1-1c0-.55-.44-1-1-1zm3.55 0c-.55 0-1 .44-1 1 0 .55.45 1 1 1s1-.44 1-1c0-.55-.45-1-1-1zm-7.09 0c-.55 0-1 .44-1 1 0 .55.45 1 1 1s1-.44 1-1c0-.55-.45-1-1-1zm-.21-3.44 6.57-11.37999998c.41-.7.51-1.52.3-2.3-.2-.77-.72-1.45-1.41-1.84-.7-.4-1.52-.51-2.3-.3-.79.2-1.44.71-1.84 1.41l-6.57 11.36999998c-.16.27-.2.58-.12.88.05.19.15.36.28.5l-3.47 5.89c-.11.19-.11.42 0 .6.11.19.31.3.52.3h1.73c1.17 0 2.38 0 3.18-1.51.09-.15 1.11-1.88 1.83-3.1.09.02.19.04.29.04.42.02.8-.21 1.01-.56zm-4.18 3.06c-.47.88-.99.88-2.13.88h-.68l2.92-4.96 1.71.99c-1.81 3.07-1.81 3.08-1.82 3.09zm3.16-3.7-.19-.11-.02-.01-2.73-1.58c-.01-.01-.02-.01-.02-.02l-.21-.12 6.55-11.33999998c.24-.42.64-.73 1.11-.85.47-.13.97-.06 1.39.18s.73.64.85 1.11c.13.47.06.97-.18 1.39z"/></svg>