<svg fill="none" height="32" viewBox="0 0 32 32" width="32" xmlns="http://www.w3.org/2000/svg"><g fill="#000"><path d="m19.5996 17.999c3.3724 2.6047 6.4004.0004 6.4004 7.4131 0 1.8757-6.2495 2.5878-10 2.5879-3.7494 0-10-.7121-10-2.5879.00001-7.4127 3.02696-4.8084 6.4004-7.4131l3.0478 3.7266c.2857.3487.818.3487 1.1026 0z"/><path clip-rule="evenodd" d="m16 4c3.6321 0 4.4403.98801 4.4453.99414.002.00212.6585.71272.8809 3.46973.0745.45992.1183.95259.1445 1.47656.3235.29517.5293.76857.5293 1.57517 0 1.1984-.423 1.6668-1.0195 1.9063-.5241 1.3243-1.3916 2.4391-2.3799 3.1816-.8381.628-1.7542.9961-2.6006.9961-.8517 0-1.773-.3726-2.6143-1.0058-.9829-.7426-1.8462-1.8529-2.3671-3.1719-.5955-.2395-1.0186-.708-1.0186-1.9063 0-.8643.2419-1.3401.6074-1.6279.0714-3.95209.9492-4.89356.9492-4.89356.0172-.02084.8392-.99412 4.4434-.99414zm-.002 4.7207c-1.597.00006-2.8232.37609-3.7031.78223-.2964.23153-.4948.51937-.5429.91307l-.001-.001c-.0037.0927-.035.1674-.0889.2217-.0518.052-.1131.0746-.1377.084l-.0029.001-.044.0156c-.0872.0318-.1385.0528-.1836.1279-.0528.0886-.1044.2693-.1044.6514 0 .3887.0505.5761.1025.6699.0445.0801.0932.1011.1689.1319.3038.1212.5447.3628.6651.667.0032.008.0078.016.0117.0244.664-.2705 1.9902-.6894 3.8603-.6895 1.8691 0 3.1955.4191 3.8604.6895.0046-.0098.0099-.019.0137-.0284.1213-.303.3607-.5427.664-.665l.0967-.0469c.027-.0188.0502-.0443.0723-.084.0519-.0936.1025-.2811.1025-.6699 0-.3826-.0516-.5637-.1045-.6523-.0452-.0755-.0971-.0961-.1845-.1279l-.0401-.0137-.0039-.002c-.0254-.0095-.0875-.0318-.1396-.084-.0542-.0544-.0862-.1291-.0899-.2216-.0472-.3926-.2451-.67753-.54-.90922-.8798-.40704-2.1072-.78418-3.7071-.78418zm-.1572-3.92187c-.1323 0-.2412.10888-.2412.24121v.55957h-.5596c-.1322.00008-.2391.10699-.2392.24023v.31934c0 .13333.107.24015.2392.24023h.5596v.56055c.0002.13218.109.24024.2412.24024h.3194c.133-.00021.24-.10819.2402-.24024v-.56055h.5596c.1323 0 .2402-.10685.2402-.24023v-.31934c-.0001-.13329-.108-.24023-.2402-.24023h-.5596v-.55957c0-.13221-.107-.241-.2402-.24121z" fill-rule="evenodd"/></g></svg>