<svg fill="none" height="32" viewBox="0 0 32 32" width="32" xmlns="http://www.w3.org/2000/svg"><path d="m19.5846 21.5586c-1.4228-.0001-2.7122-.8382-3.2899-2.1385l-.0085-.0191c-.0329-.0743-.1317-.3003-.2288-.5229-.1257-.2883.0004-.6243.2848-.7588.2805-.1328.616-.0224.7611.252.1229.2325.2493.4744.2796.5425l.0085.0191c.3851.8669 1.2447 1.4256 2.1932 1.4257h2.5108c.0014-.5916.0017-.6609.0022-.7709.0004-.1112.0011-.2641.0033-1.0403.0003-.1232.0305-.2437.0873-.3516l.0656-.1033c.2293-.3043.6435-.3872.9684-.2102l.0945.0609 3.2194 2.4268c.0573.0431.1081.0942.151.1516.2282.3052.1922.726-.0685.9886l-.0849.0737-3.2319 2.4165c-.1318.0985-.292.1515-.4565.1511-.3842-.001-.701-.2874-.7503-.658l-.0067-.103c.0017-.7586.0031-1.3573.0042-1.8319z" fill="#979797"/><g fill="#005a7d"><path d="m7.15869 15.1024c1.29195-.4699 2.70805-.4699 4.00001 0 .8936.3249 1.5648 1.04 1.8498 1.9112.8754-.0705 1.6492-.6161 2.0054-1.4302l1.2888-3.0346c.5733-1.3103 1.8679-2.157 3.2981-2.157h2.4944l-.0041-1.84799c-.0011-.41919.3378-.75988.757-.76097.1645-.00043.3247.05261.4565.15112l3.2319 2.41644c.3358.251.4044.7266.1534 1.0624-.0429.0574-.0937.1084-.151.1516l-3.2194 2.4267c-.3347.2523-.8106.1855-1.063-.1492-.0988-.1311-.1524-.2907-.1529-.4549l-.0051-1.7952h-2.4977c-.9535 0-1.8165.5645-2.1987 1.438l-1.2888 3.0346c-.527 1.2045-1.6635 2.0172-2.9546 2.1406v4.8974h-8.00001v-5.1446l.00381-.1527c.06078-1.2152.84351-2.2836 1.99619-2.7027z"/><path d="m11.9614 10.7402c0 1.6515-1.3387 2.9903-2.99021 2.9903-1.65146 0-2.99023-1.3388-2.99023-2.9903 0-1.65143 1.33877-2.9902 2.99023-2.9902 1.65151 0 2.99021 1.33877 2.99021 2.9902z"/></g></svg>