<svg height="32" viewBox="0 0 32 32" width="32" xmlns="http://www.w3.org/2000/svg"><path d="m23.0298656 18.0367332c.0753211.1028514.1159254.2270201.1159254.3545022l-.0009848 1.4379593 4.3363214.0002473c.297 0 .5535.2187.60183.50301l.00817.09699c0 .297-.2187.5454-.50301.59211l-.09699.00789-4.3463214-.0002473.0009848 1.4395699c0 .3313709-.2686291.6-.6.6-.1274821 0-.2516507-.0406043-.3545021-.1159254l-2.7839441-2.0387646c-.2673471-.1957861-.3253586-.5712297-.1295725-.8385768.0363018-.0495703.0800022-.0932706.1295725-.1295724l2.7839441-2.0387646c.267347-.1957861.6427906-.1377746.8385767.1295724zm-2.5627993-7.2867729c.5647113 0 1.0267478.4106991 1.0986201.9754104.0718724.5647112-.2874894 1.0678176-.8419332 1.2012949l-4.9489243 1.2012949.4611219 4.4096657c-.1475336-.0434929-.303705-.0668327-.4653278-.0668327-.9072914 0-1.6427964.735505-1.6427964 1.6427964s.735505 1.6427965 1.6427964 1.6427965c.2825337 0 .548409-.0713235.7806028-.1969477l.4967704 4.7560179c.0513374.4928389-.256687.9343404-.7392584 1.0575502-.4825715.1129422-.9651429-.1334772-1.13969-.5852463l-2.4333923-6.1194167-2.4231247 6.1091493c-.1540122.3798966-.51337392.6160486-.90353807.6160486-.08213982 0-.16427965-.0102674-.23615199-.0308024-.48257146-.1232097-.79059579-.5647113-.7392584-1.0575502l1.27316724-12.1772286-4.94892428-1.2012949c-.5544438-.1334773-.90353805-.6365837-.84193318-1.2012949.07187234-.5647113.52364137-.9754104 1.09862012-.9754104zm-4.6964433 8.5601341c.4437583 0 .8034956.3597372.8034956.8034955 0 .4437584-.3597373.8034956-.8034956.8034956s-.8034955-.3597372-.8034955-.8034956c0-.4437583.3597372-.8034955.8034955-.8034955zm-3.0349675-14.71035332c1.4682493 0 2.6695442 1.2012949 2.6695442 2.66954422s-1.2012949 2.66954422-2.6695442 2.66954422-2.6695442-1.2012949-2.6695442-2.66954422 1.2012949-2.66954422 2.6695442-2.66954422z"/></svg>