<svg height="32" viewBox="0 0 32 32" width="32" xmlns="http://www.w3.org/2000/svg"><g fill="none" fill-rule="evenodd"><circle cx="16.786327" cy="20.42998" fill="#d9541a" r="1.5"/><g fill-rule="nonzero"><path d="m21.4741912 10.2529843c1.0519873 0 1.2645094 1.4489378.330901 1.7866608l-.1128279.0338909-5.5932611 1.3594732 1.4525809 13.8714939c.1077766 1.0292179-1.2757639 1.4072705-1.7299267.5386721l-.0465149-.1016714-2.8615956-7.2046678-2.861608 7.2046678c-.38199944.9617597-1.78303194.6548135-1.78240271-.3253531l.00596105-.1116476 1.45259075-13.8714915-5.59327091-1.3594756c-1.02222598-.2484577-.88652653-1.7065976.10043284-1.8142672l.11764026-.0062845zm-8.5606505-6.86431484c1.5256152 0 2.7700102 1.24439499 2.7700102 2.77001018 0 1.5256152-1.244395 2.77001019-2.7700102 2.77001019s-2.7700102-1.24439499-2.7700102-2.77001019c0-1.52561519 1.244395-2.77001018 2.7700102-2.77001018z" fill="#e09ab7"/><path d="m21.4741912 10.2529843c1.0924483 0 1.2796155 1.562538.2180731 1.8205517l-5.5932611 1.3594732 1.4525809 13.8714939c.1117684 1.0673371-1.380294 1.4343811-1.7764416.4370007l-2.8616018-7.2046678v-10.2838517zm-8.5606505-6.86431484c1.5256152 0 2.7700102 1.24439499 2.7700102 2.77001018 0 1.5256152-1.244395 2.77001019-2.7700102 2.77001019z" fill="#e9acc5"/><path d="m16.674327 18.9349796.3127913 2.9816773c-.0656805.0087866-.1327062.0133227-.2007913.0133227-.8284272 0-1.5-.6715728-1.5-1.5 0-.8284271.6715728-1.5 1.5-1.5z" fill="#a7460d"/><path d="m23.2880234 18.0367332c.0753211.1028514.1159254.2270201.1159254.3545022l-.0009848 1.4379593 4.3363214.0002473c.297 0 .5535.2187.60183.50301l.00817.09699c0 .297-.2187.5454-.50301.59211l-.09699.00789-4.3463214-.0002473.0009848 1.4395699c0 .3313709-.2686292.6-.6.6-.1274821 0-.2516508-.0406043-.3545022-.1159254l-2.783944-2.0387646c-.2673471-.1957861-.3253586-.5712297-.1295725-.8385768.0363018-.0495703.0800021-.0932706.1295725-.1295724l2.783944-2.0387646c.2673471-.1957861.6427907-.1377746.8385768.1295724z" fill="#d9541a"/></g></g></svg>