<svg height="32" viewBox="0 0 32 32" width="32" xmlns="http://www.w3.org/2000/svg"><path d="m21.7252241 10.7499603c.5647113 0 1.0267478.4106991 1.0986201.9754104.0718723.5647112-.2874894 1.0678176-.8419332 1.2012949l-4.9489243 1.2012949.3968917 3.7954382c.0317375.3035033-.1633675.5784435-.4485435.6561039l-.1018234.018716c-.340035.0335237-.6433334-.2138003-.6789222-.5536252l-.4510373-4.3067971c-.0308024-.3080243.1642797-.5852462.472304-.6673861l4.4355504-1.0780851h-13.32718616l4.43555036 1.0780851c.2977569.0718724.5031064.3593618.472304.6673861l-1.13969 10.8835264 2.32045-5.8421948c.0924073-.236152.3182918-.3901642.5749787-.3901642.256687 0 .4825715.1540122.5749788.3901642l2.3204499 5.8421948-.2428869-2.3123509c-.0356798-.3396821.2097702-.6443701.5492614-.6818226.303312-.0334612.5793509.1600742.6586292.4447986l.0192864.1016405.4326219 4.1418683c.0513374.4928389-.256687.9343404-.7392584 1.0575502-.4825715.1129422-.9651429-.1334772-1.1396901-.5852463l-2.4333922-6.1194167-2.4231247 6.1091493c-.1540122.3798966-.5133739.6160486-.9035381.6160486-.0821398 0-.1642796-.0102674-.236152-.0308024-.48257143-.1232097-.79059576-.5647113-.73925837-1.0575502l1.27316727-12.1772286-4.94892432-1.2012949c-.5544438-.1334773-.90353804-.6365837-.84193317-1.2012949.07187234-.5647113.52364136-.9754104 1.09862012-.9754104zm1.5627993 7.2867729c.0753211.1028514.1159254.2270201.1159254.3545022l-.0009848 1.4379593 4.3363214.0002473c.297 0 .5535.2187.60183.50301l.00817.09699c0 .297-.2187.5454-.50301.59211l-.09699.00789-4.3463214-.0002473.0009848 1.4395699c0 .3313709-.2686292.6-.6.6-.1274821 0-.2516508-.0406043-.3545022-.1159254l-2.783944-2.0387646c-.2673471-.1957861-.3253586-.5712297-.1295725-.8385768.0363018-.0495703.0800021-.0932706.1295725-.1295724l2.783944-2.0387646c.2673471-.1957861.6427907-.1377746.8385768.1295724zm-6.2592426 1.4340603c.3550067 0 .6427964.2877897.6427964.6427964s-.2877897.6427965-.6427964.6427965-.6427965-.2877898-.6427965-.6427965.2877898-.6427964.6427965-.6427964zm-3.0349675-14.87105242c1.4682493 0 2.6695442 1.2012949 2.6695442 2.66954422s-1.2012949 2.66954422-2.6695442 2.66954422-2.6695442-1.2012949-2.6695442-2.66954422 1.2012949-2.66954422 2.6695442-2.66954422zm0 1.23209733c-.7905958 0-1.4374469.6468511-1.4374469 1.43744689s.6468511 1.43744689 1.4374469 1.43744689 1.4374469-.6468511 1.4374469-1.43744689-.6468511-1.43744689-1.4374469-1.43744689z"/></svg>