<svg height="32" viewBox="0 0 32 32" width="32" xmlns="http://www.w3.org/2000/svg"><path d="m20.3293697 4.36579539.1630265.05966996c.6493027.26894999 1.0820908.8959552 1.0877672 1.58120886l.0452957 1.42617075c.0365985 1.02862304.6579523 1.93665563 1.592817 2.32388927.2793732.11572018.5790816.17751352.9031165.18728862l1.4325115.04582366c.7481695.04105649 1.3910322.53531129 1.6490776 1.32611109l.016385.0829616c.1189343.5735206-.0445337 1.1582768-.4468202 1.5855768l-.9723386 1.0427753c-.9160708.997753-.9196943 2.5686865-.0150475 3.5637833l.9658615 1.0367658c.4787352.512375.609049 1.255992.3446626 1.89368-.2335283.6098936-.7746284 1.0316777-1.4121284 1.1256422l-.170865.0170716-1.4234305.0618085c-1.3437322.054796-2.4510265 1.1672101-2.5125057 2.5259248l-.0497165 1.4193364c-.0101436.5522569-.2798662 1.0582059-.8135186 1.4303377l.0046745.006881c-.6761965.4593593-1.5890715.3906298-2.1760881-.1754753l-.0196436-.0127659-1.009498-.9592439c-.2323111-.2187067-.4990491-.3930979-.781824-.5102271-.927766-.3842933-2.0199113-.1811619-2.7694495.5168716l-1.025284.9548571c-.4595078.451735-1.137303.6149147-1.7415895.429109l-.1609416-.0585495c-.6443167-.2668847-1.07559726-.8865138-1.0993374-1.5860014l-.04529576-1.4261708c-.03659849-1.028623-.65795226-1.9366556-1.59281697-2.3238893-.27937322-.1157201-.57908159-.1775135-.90311654-.1872886l-1.43251144-.0458236c-.74816958-.0410565-1.39103223-.5353113-1.62891963-1.2498283l-.03654298-.1592444c-.11893433-.5735206.04453364-1.1582769.44682016-1.5855768l.97233858-1.0427753c.30681799-.3341757.51128044-.7326489.61341646-1.1523882l4.04020972-.0008672c.2478159 0 .4717275-.1376341.585586-.351446l.0418074-.0961185.6298875-1.8299432 1.7531514 5.8438351c.1805857.6019521.9972853.6262796 1.2379895.0896458l.0380862-.1071885 1.1704224-4.3305615h1.6503285c.2765598.6741066.9394215 1.1488678 1.7131696 1.1488678 1.0222637 0 1.8509722-.8287085 1.8509722-1.8509722s-.8287085-1.8509722-1.8509722-1.8509722c-.7494224 0-1.3948211.4453786-1.6859485 1.0858881l-.0568708.1401475h-2.1286761c-.2664705 0-.5035204.1588195-.6078414.3973648l-.032697.0930372-.6956941 2.5740673-1.6765284-5.5884254c-.1743231-.5810769-.9533937-.6306562-1.2193499-.1263487l-.0435808.101054-1.14657802 3.3310276-3.57958292.000073c-.10450747-.3956358-.30086962-.7702544-.58906169-1.0872417l-.94966191-1.0358816-.01957475-.0135653c-.47873525-.5123749-.60904905-1.2559919-.33839975-1.9093972.27064931-.6534052.88861172-1.0870761 1.58350825-1.1106338l1.42343048-.06180841c1.34373213-.05479597 2.45102646-1.16721015 2.51250569-2.52592483l.04971647-1.41933642c.0101436-.55225691.27986615-1.05820586.81351855-1.43033762.6695266-.46488474 1.5941938-.39450843 2.1720691.1690202l.0189882.01233992 1.0094979.95924394c.2323112.21870667.4990491.3930979.7818241.51022712.927766.38429326 2.0199113.18116187 2.7694495-.51687163l1.0177472-.94814447.0123294-.01828291c.4606603-.45286799 1.1346267-.60472078 1.7462822-.4138666z"/></svg>