<svg height="32" viewBox="0 0 32 32" width="32" xmlns="http://www.w3.org/2000/svg"><path d="m10.0840935 5.3137931c.3313709 0 .6.26862915.6.6s-.2686291.6-.6.6h-.93103445c-.77319865 0-1.4.62680135-1.4 1.4v5.4572191c0 1.0567921-.50109382 2.0184271-1.30187936 2.6289878.80078554.6105607 1.30187936 1.5721957 1.30187936 2.6289878v5.4572191c0 .7731986.62680135 1.4 1.4 1.4h.93103445c.3313709 0 .6.2686291.6.6 0 .3313708-.2686291.6-.6.6h-.93103445c-1.43594035 0-2.6-1.1640597-2.6-2.6v-5.4572191c0-.9547148-.64213017-1.7874899-1.56030046-2.0331428h-1.23808871c-.33137085 0-.6-.2686292-.6-.6 0-.3313709.26862915-.6.6-.6h1.26825571c.90203763-.2556592 1.53013346-1.0806087 1.53013346-2.0248328v-5.4572191c0-1.43594035 1.16405965-2.6 2.6-2.6zm12.8310345 0c1.4359404 0 2.6 1.16405965 2.6 2.6v5.3762902c0 .9702887.665325 1.8140049 1.6088683 2.0402484.0621296.0148975.1179669.0372378.1675119.0655133h.9538219c.3313709 0 .6.2686291.6.6 0 .3313708-.2686291.6-.6.6h-1.4274132c-.778179.3182741-1.3027889 1.0800647-1.3027889 1.9416579v5.3762902c0 1.4359404-1.1640596 2.6-2.6 2.6h-.9310345c-.3313708 0-.6-.2686291-.6-.6 0-.3313708.2686292-.6.6-.6h.9310345c.7731987 0 1.4-.6268013 1.4-1.4v-5.3762902c0-1.0548022.5001899-2.0144476 1.2993073-2.6237098-.7991174-.6092622-1.2993073-1.5689075-1.2993073-2.6237098v-5.3762902c0-.77319865-.6268013-1.4-1.4-1.4h-.9310345c-.3313708 0-.6-.26862915-.6-.6s.2686292-.6.6-.6zm-11.5329829 6.5991046c.5448143-.7884532 1.6256413-.9859616 2.4140945-.4411473.1622336.112102.3038716.2508256.4190972.4099751l.0813761.1230952 1.740957 2.8929724 2.4024043-3.4348113c.1898789-.2715743.5639607-.3378016.835535-.1479227.244417.1708911.3225027.4909864.197254.7512743l-.0493313.0842608-2.708862 3.8731989 2.0474967 3.4036287.0560573.0767245c.1648187.1874858.4450434.2362648.6665291.1030185.0402595-.0242202.0770042-.0536643.1093126-.087488l.1086276-.1279923c.205325-.2031715.5334026-.2335609.7745619-.0581027.2679548.1949534.3271341.5702148.1321806.8381696-.1359601.1868711-.3080525.3445455-.5060768.4636774-.7716733.4642404-1.7607886.2546537-2.2823996-.4583801l-.0870566-.1310209-1.7722328-2.9452347-2.4017441 3.4362251c-.1898789.2715743-.5639607.3378016-.835535.1479227-.244417-.1708911-.3225027-.4909864-.197254-.7512743l.0493313-.0842608 2.7082018-3.8746127-2.016221-3.3513664-.0435449-.0619843c-.0318417-.0391167-.0691336-.0736365-.1108375-.1024535-.1891684-.1307137-.4328958-.1229048-.6109512.0014561l-.0719382.0603693-.1235802.14986c-.2003214.2081065-.5275626.2464685-.7729191.0769293-.2726184-.188377-.3409096-.5620875-.1525327-.8347059z"/></svg>