<svg height="32" viewBox="0 0 32 32" width="32" xmlns="http://www.w3.org/2000/svg"><path d="m10.0840935 5.1137931c.4418278 0 .8.3581722.8.8 0 .40784105-.3051881.74440158-.6996497.79376687l-.1003503.00623313h-.93103445c-.62132035 0-1.13235255.47219968-1.19380454 1.07730697l-.00619546.12269303v5.4572191c0 .8811706-.33009746 1.7147941-.90493368 2.3506085l-.14875838.1547456-.13436699.1236337.13436699.1236337c.56378047.5516524.92788949 1.2800414 1.02657912 2.0694267l.0202853.2167123.00682764.2192151v5.4572191c0 .6213203.47219968 1.1323525 1.07730697 1.1938045l.12269303.0061955h.93103445c.4418278 0 .8.3581722.8.8 0 .407841-.3051881.7444016-.6996497.7937669l-.1003503.0062331h-.93103445c-1.48912333 0-2.7067389-1.1624629-2.79488996-2.6294318l-.00511004-.1705682v-5.4572191c0-.8088018-.50967532-1.5225681-1.21641716-1.7864665l-.1438833-.0466763h-1.23808871c-.4418278 0-.8-.3581722-.8-.8 0-.407841.30518815-.7444016.6996497-.7937669l.1003503-.0062331 1.21371902.0075792c.76703095-.2173951 1.31287412-.8884273 1.3781083-1.6738935l.00656185-.1585185v-5.4572191c0-1.48912332 1.16246286-2.7067389 2.62943181-2.79488995l.17056819-.00511005zm12.8310345 0c1.4891233 0 2.7067389 1.16246286 2.79489 2.62943181l.00511.17056819v5.3762902c0 .8261607.5331734 1.5508896 1.3075514 1.8039335l.1479512.0418278c.0527695.0126531.1031099.0297531.1507084.0511051l.016661.0080503.9073301.000845c.3707646 0 .6826197.2522216.7733453.5944449l.0204216.1052048.0062331.1003503c0 .407841-.3051881.7444016-.6996497.7937669l-.1003503.0062331-1.3517013-.0148846c-.6625927.2709994-1.1149508.8929342-1.1723204 1.6031076l-.0061804.1534349v5.3762902c0 1.4891233-1.1624628 2.7067389-2.6294318 2.79489l-.1705682.00511h-.9310345c-.4418278 0-.8-.3581722-.8-.8 0-.407841.3051882-.7444016.6996497-.7937669l.1003503-.0062331h.9310345c.6213204 0 1.1323526-.4721997 1.1938045-1.077307l.0061955-.122693v-5.3762902c0-.8795442.3294953-1.71158.9032572-2.3461742l.14848-.1544483.1331348-.1238804-.1331348-.1222941c-.5627243-.5505922-.9261649-1.277589-1.0246738-2.0655037l-.0202482-.2163094-.0068152-.2188095v-5.3762902c0-.62132034-.4721997-1.13235254-1.077307-1.19380453l-.122693-.00619547h-.9310345c-.4418278 0-.8-.3581722-.8-.8 0-.40784104.3051882-.74440158.6996497-.79376686l.1003503-.00623314zm-11.6975226 6.6854091c.6076066-.879326 1.8130037-1.0995982 2.6923298-.4919915.1355156.0936401.2582876.204035.367533.3313119l.1047075.1329088.0859004.1302649 1.5819239 2.6283037 2.2261645-3.1816202c.2088668-.2987318.5848978-.4111111.9134364-.2991352l.1074594.0456868.093151.0562181c.2902729.2029525.4078324.567734.2997172.9050645l-.0444694.1111672-.0580335.097838-2.6344256 3.7657808 1.9706555 3.2784331.0447781.0626638c.1032293.1174262.2774623.1453618.4132184.0636906l.0347331-.0237806.0251951-.021745.1204391-.1407423c.2769694-.2740644.7146739-.3091923 1.0329007-.0776629.3572731.259938.4361787.7602864.1762408 1.1175595-.1517099.2085183-.3437375.3844578-.5647009.5173899-.8082672.4862554-1.8390204.3119822-2.4489464-.3897837l-.1031347-.1292897-.0918439-.138588-1.6135349-2.6821447-2.2251645 3.1846202c-.2088668.2987318-.5848978.4111111-.9134364.2991352l-.1074594-.0456868-.093151-.0562181c-.2902729-.2029525-.4078324-.567734-.2997172-.9050645l.0444694-.1111672.0580008-.0977911 2.6334583-3.7688277-1.9412038-3.2276047-.0349997-.0506926c-.0199825-.024548-.0433522-.0461576-.0694255-.0641741-.0929664-.0642389-.2092645-.0760275-.3031724-.0429669l-.0655183.0330859-.0462011.03441-.1337914.1613172c-.2702199.2807214-.7069402.3264875-1.0307056.1027685-.3634911-.2511692-.4545461-.7494499-.2033768-1.1129411z"/></svg>