<svg height="32" viewBox="0 0 32 32" width="32" xmlns="http://www.w3.org/2000/svg"><path d="m13.5257613 4.83951998.9635866.91562696c.1703031.16032988.3641813.28691525.5661622.37057848.6180176.25599126 1.3432215.14933091 1.8802705-.26824102l.1301715-.11084036.9500479-.88664404.0235995-.02662205c.5534765-.54411414 1.3466495-.75913825 2.0973498-.58731471l.1723561.04654499.2068293.07551265c.7895506.32704254 1.3321545 1.06381119 1.4027925 1.88291926l.007768.16482247.0432494 1.36187542c.0267239.75109256.4782245 1.41012702 1.1535535 1.68985744.148514.06151651.3065242.10192792.4777099.12135007l.1757138.01243002 1.3839212.04442596c.9198641.05047835 1.6990289.62932038 2.0686859 1.57060068l.0644462.1806969.0145434.0737763c.1408389.679148-.0265586 1.372788-.4532926 1.9062649l-.122775.1413915-.9269196.9940399c-.6263567.6822064-.6669105 1.7424295-.1256548 2.4630928l.1083025.13097.9232689.9910474c.6166285.6599576.7896599 1.6207113.4515944 2.435524-.2796049.7302295-.9044143 1.259143-1.6824193 1.4284586l-.1689902.0307202-.1970582.0187371-1.3631239.0591877c-.921967.0375969-1.6978001.7706091-1.814774 1.6838219l-.0133071.1537823-.0472884 1.3476409c-.0124069.6754846-.3219067 1.2831556-.8773178 1.7311375l-.0704434.051484-.0125652.016217-.0760914.0611846c-.830571.5642302-1.9313434.5142588-2.6958741-.1087504l-.1057893-.0938273-.0490593-.0388378-.9635866-.9156269c-.1703031-.1603299-.3641814-.2869153-.5661623-.3705785-.6180175-.2559913-1.3432214-.1493309-1.8803261.2682929l-.1301866.1108544-.9689925.902133c-.5522786.5429365-1.3478021.7668121-2.1151623.5935108l-.1764597-.0470786-.1784302-.0655238c-.7822501-.3240186-1.32027161-1.0491105-1.40976902-1.8839756l-.01185863-.1683503-.04324935-1.3618754c-.02672393-.7510926-.47822459-1.4101271-1.15355354-1.6898575-.14851401-.0615165-.30652421-.1019279-.47770992-.12135l-.17571382-.0124301-1.3839212-.0444259c-.90512753-.0496697-1.69138257-.6153365-2.04822151-1.4923497l-.06179927-.1680386-.03765467-.1646856c-.14083892-.679148.02655857-1.372788.45329254-1.9062649l.12277509-.1413915.92691954-.9940399c.62671721-.682599.66661405-1.7428361.12016749-2.4690375l-.10932982-.1320746-.89300831-.9729984-.03022896-.0266511c-.5361683-.5738437-.73521304-1.3723471-.55165464-2.1233599l.0491721-.1723437.06287985-.1699145c.32668618-.7886902 1.04945705-1.3306753 1.87629119-1.42033122l.16666781-.0118392 1.36312393-.05918771c.92196699-.03759684 1.6978001-.77060911 1.81477393-1.68382187l.01330718-.15378231.04728832-1.34764089c.01353489-.73689223.38063469-1.39308075 1.03584149-1.84997452.8273514-.5744702 1.9469961-.52338318 2.7082491.10759364l.0982887.08825328zm6.4261058.59861777c-.3381974-.10552737-.7017629-.0410548-.9735982.16649131l-.0974097.08448377-.0234365.02863071-.973574.90699222c-.8875696.82658001-2.1814224 1.06782177-3.2875587.6096451-.2704308-.11201609-.5271189-.2667005-.7607586-.45757685l-.1707627-.14984207-.9577687-.90996194-.1318077-.10996089c-.2804326-.2073481-.660309-.25551699-.9899516-.13190223l-.1209689.05443252-.1044092.06358356c-.3025588.21098329-.4700447.46913353-.5115898.76695328l-.010121.13004392-.0478004 1.36374333c-.0701168 1.54960749-1.28507666 2.82557251-2.80048426 2.97609151l-.17614003.0123246-1.36724204.0593414c-.42804052.0145111-.81126335.2833372-.98066128.6923-.15264067.3685071-.10193896.7787376.1254624 1.0879924l.07503381.0902327.02985686.0260614.91005069.9926817c.37301893.4102897.61630115.9005641.72985752 1.4154722l2.55869861-.0002077 1.14657802-3.3310276c.2097909-.6094827 1.0777124-.5920995 1.2629307.0252947l1.6765284 5.5884254.6956941-2.5740673c.0782152-.289396.3407591-.490402.6405384-.490402h2.1286761c.2563291-.7147592.9398667-1.2260356 1.7428193-1.2260356 1.0222637 0 1.8509722.8287085 1.8509722 1.8509722s-.8287085 1.8509722-1.8509722 1.8509722c-.7737481 0-1.4366098-.4747612-1.7131696-1.1488678h-1.6503285l-1.1704224 4.3305615c-.1742181.6446069-1.0842034.6571168-1.2760757.0175427l-1.7531514-5.8438351-.6298875 1.8299432c-.092179.2677975-.3441753.4475645-.6273934.4475645l-3.02267051.0008802c-.09689791.4717292-.30181907.9249324-.61475521 1.3175461l-.14072862.1644309-.93203106.9995377c-.21856141.2321512-.32339443.5368246-.29823832.8410254l.01878711.1301301.0194324.0969867c.13645239.4098475.48189791.702787.88537055.7715355l.12263163.0137915 1.36913699.0437974c.38194262.011522.74018358.0857068 1.07536882.2245451 1.05034271.4350662 1.76707812 1.4202475 1.88003972 2.5561879l.0136119.2019438.0432835 1.3628581c.0132213.3895577.2307137.7400163.5477774.9200354l.109232.0535137.1251602.0463497c.3285178.1010126.6957523.0312697.9786986-.1871801l.1019136-.0888463.9807124-.9133471c.8875696-.82658 2.1814223-1.0678217 3.2875587-.6096451.2704307.1120161.5271189.2667005.7607585.4575769l.1707628.1498421.9500667.9032797.1397958.1159321c.2849996.2102853.6626604.2592156.9961812.135364l.122734-.0545658.059289-.0367303.0368393-.0294708c.2593362-.1808428.4194351-.3963389.4860476-.6417668l.0255423-.1251864.010121-.130044.0478004-1.3637433c.0701168-1.5496075 1.2850766-2.8255725 2.8004842-2.9760915l.1761401-.0123246 1.3279201-.0567134.1355951-.0128886c.4016616-.059203.7343476-.3227703.8839717-.7129082.1458207-.3517128.0964807-.7547145-.1238458-1.0620757l-.0905902-.1104903-.9288182-.9970685c-1.0305233-1.133559-1.0672714-2.8832065-.1108539-4.0701032l.1303824-.1515244.9320311-.9995377c.2185614-.2321511.3233944-.5368246.2956727-.853046l-.0200513-.1360527-.0506732-.1375601c-.1685109-.3968278-.4820427-.6493233-.8488246-.7127369l-.124107-.0140735-1.369137-.0437974c-.3819426-.011522-.7401836-.0857068-1.0753688-.2245451-1.0503427-.4350662-1.7670781-1.42024753-1.8800398-2.55618793l-.0136118-.20194375-.0436082-1.37824003c-.0030679-.37035881-.2183068-.71952811-.5368604-.90020347l-.1098617-.05378254z"/></svg>