<svg height="32" viewBox="0 0 32 32" width="32" xmlns="http://www.w3.org/2000/svg"><g fill="none"><path d="m11.2176054 11.7992022c-.2511693.3634912-.1601143.8617719.2033768 1.1129411.3237654.223719.7604857.1779529 1.0307056-.1027685l.1337914-.1613172.0462011-.03441c.0998189-.0687627.2524828-.0704176.3686907.009881.0260733.0180165.049443.0396261.0694255.0641741l.0349997.0506926 1.9412038 3.2276047-2.6334583 3.7688277-.0580008.0977911c-.1765767.3654373-.0672776.7907289.2552478 1.0162317l.093151.0562181c.3503719.1803352.7888215.0784759 1.0208958-.2534484l2.2251645-3.1846202 1.6135349 2.6821447.0918439.138588c.5910257.8082673 1.6962688 1.033932 2.5520811.5190734.2209634-.1329321.412991-.3088716.5647009-.5173899.2599379-.3572731.1810323-.8576215-.1762408-1.1175595-.3182268-.2315294-.7559313-.1964015-1.0329007.0776629l-.1204391.1407423c-.012208.0122811-.0350029.0305305-.0599282.0455256-.1357561.0816712-.3099891.0537356-.4132184-.0636906l-.0447781-.0626638-1.9706555-3.2784331 2.6344256-3.7657808.0580335-.097838c.1765767-.3654373.0672776-.7907289-.2552478-1.0162317l-.093151-.0562181c-.3503719-.1803352-.7888215-.0784759-1.0208958.2534484l-2.2261645 3.1816202-1.5819239-2.6283037-.0859004-.1302649c-.1335209-.1847274-.291553-.3393672-.4722405-.4642207-.8793261-.6076067-2.0847232-.3873345-2.6923298.4919915z" fill="#c33c75"/><g fill="#74a2ab"><path d="m10.0840935 5.3137931c.3313709 0 .6.26862915.6.6s-.2686291.6-.6.6h-.93103445c-.77319865 0-1.4.62680135-1.4 1.4v5.4572191c0 1.0567921-.50109382 2.0184271-1.30187936 2.6289878.80078554.6105607 1.30187936 1.5721957 1.30187936 2.6289878v5.4572191c0 .7731986.62680135 1.4 1.4 1.4h.93103445c.3313709 0 .6.2686291.6.6 0 .3313708-.2686291.6-.6.6h-.93103445c-1.43594035 0-2.6-1.1640597-2.6-2.6v-5.4572191c0-.9547148-.64213017-1.7874899-1.56030046-2.0331428h-1.23808871c-.33137085 0-.6-.2686292-.6-.6 0-.3313709.26862915-.6.6-.6h1.26825571c.90203763-.2556592 1.53013346-1.0806087 1.53013346-2.0248328v-5.4572191c0-1.43594035 1.16405965-2.6 2.6-2.6z"/><path d="m22.915128 5.3137931c1.4359404 0 2.6 1.16405965 2.6 2.6v5.3762902c0 .9702887.665325 1.8140049 1.6088683 2.0402484.0621296.0148975.1179669.0372378.1675119.0655133h.9538219c.3313709 0 .6.2686291.6.6 0 .3313708-.2686291.6-.6.6h-1.4274132c-.778179.3182741-1.3027889 1.0800647-1.3027889 1.9416579v5.3762902c0 1.4359404-1.1640596 2.6-2.6 2.6h-.9310345c-.3313708 0-.6-.2686291-.6-.6 0-.3313708.2686292-.6.6-.6h.9310345c.7731987 0 1.4-.6268013 1.4-1.4v-5.3762902c0-1.0548022.5001899-2.0144476 1.2993073-2.6237098-.7991174-.6092622-1.2993073-1.5689075-1.2993073-2.6237098v-5.3762902c0-.77319865-.6268013-1.4-1.4-1.4h-.9310345c-.3313708 0-.6-.26862915-.6-.6s.2686292-.6.6-.6z"/></g></g></svg>