<svg height="32" viewBox="0 0 32 32" width="32" xmlns="http://www.w3.org/2000/svg"><path d="m26.0753318 24.7664751c0 .2982338-.2175896.5456468-.5026768.5921471l-.0973232.0078529h-18.95066365c-.29823376 0-.54564675-.2175896-.59214701-.5026768l-.00785299-.0973232v-17.53295024c0-.33137085.26862915-.6.6-.6h18.95066365c.3313709 0 .6.26862915.6.6zm-13.9346636-4.0829502h-5.01600005v3.482h5.01600005zm6.518 0h-5.318v3.481l5.318.001zm6.216 0h-5.016v3.481l5.016.001zm-12.734-4.683h-5.01600005v3.483h5.01600005zm6.518 0h-5.318v3.483h5.318zm6.216 0h-5.016v3.483h5.016zm-12.734-4.682h-5.01600005v3.482h5.01600005zm6.518 0h-5.318v3.482h5.318zm6.216 0h-5.016v3.482h5.016zm0-3.48448277h-17.75000005v2.28499997h17.75000005z"/></svg>