<svg height="32" viewBox="0 0 32 32" width="32" xmlns="http://www.w3.org/2000/svg"><path d="m28.895 21.86h-1.59v-9.5c0-1.89-1.6-3.42-3.57-3.42h-4.85c-1.24 0-2.34.61-2.98 1.54-.64-.93-1.74-1.54-2.98-1.54h-4.85c-1.97 0-3.57 1.53-3.57 3.42v9.5h-1.4c-.33 0-.6.27-.6.6s.27.6.6.6h2c.33 0 .6-.27.6-.6v-10.1c0-1.22 1.06-2.22 2.37-2.22h4.85c1.31 0 2.37 1 2.37 2.22v10.1c0 .33.27.6.6.6h13c.33 0 .6-.27.6-.6s-.27-.6-.6-.6zm-12.4-9.36c.01-.04.02-.09.02-.14 0-1.22 1.06-2.22 2.37-2.22h4.85c1.31 0 2.37 1 2.37 2.22v9.5h-9.61zm-4.15 4.21c-.01-.07-.04-.14-.07-.2l-1.11-2.93c-.09-.23-.31-.39-.56-.39h-.2c-.25 0-.47.15-.56.39l-1.52 4.02c-.12.31.04.66.35.77.07.03.14.04.21.04.24 0 .47-.15.56-.39l.23-.61h1.65l.23.61c.12.31.46.47.77.35s.47-.46.35-.77zm-2.22-.49.37-.99.37.99zm13.04-1.45c0-.96-.73-1.57-1.85-1.57h-1.31c-.33 0-.6.27-.6.6v4.02c0 .33.27.6.6.6h1.43c1.45 0 1.97-.9 1.97-1.68 0-.46-.17-.85-.46-1.14.14-.24.23-.53.22-.83zm-2.56-.38h.71c.65 0 .65.29.65.38v.02c0 .15-.09.28-.23.33h-1.14v-.73zm.82 2.83h-.83v-.89h1.1c.02 0 .04.01.07.01.43.04.43.31.43.41 0 .11 0 .47-.77.47z"/></svg>