<svg height="32" viewBox="0 0 32 32" width="32" xmlns="http://www.w3.org/2000/svg"><path d="m12.925 8.94c1.24 0 2.34.61 2.98 1.54.6-.871875 1.6042969-1.4625 2.7492187-1.53292236l.2307813-.00707764h4.85c1.9043333 0 3.4629222 1.4297 3.5647122 3.2322433l.0052878.1877567v9.5h1.59c.33 0 .6.27.6.6 0 .297-.2187.5454-.50301.59211l-.09699.00789h-13c-.297 0-.5454-.2187-.59211-.50301l-.00789-.09699v-10.1c0-1.1691667-.9735069-2.1362847-2.2076107-2.2148481l-.1623893-.0051519h-4.85c-1.25541667 0-2.28123264.9184028-2.36453776 2.0687023l-.00546224.1512977v10.1c0 .297-.2187.5454-.50301.59211l-.09699.00789h-2c-.33 0-.6-.27-.6-.6 0-.297.2187-.5454.50301-.59211l.09699-.00789h1.4v-9.5c0-1.827 1.49511111-3.3176 3.37427889-3.41494333l.19572111-.00505667zm8.39 4.26h-1.31l-.09699.00789c-.25272.04152-.4536.2424-.49512.49512l-.00789.09699v4.02l.00789.09699c.04152.25272.2424.4536.49512.49512l.09699.00789h1.43l.1920013-.0054827c1.304197-.0760875 1.7779987-.9299718 1.7779987-1.6745173 0-.46-.17-.85-.46-1.14.14-.24.23-.53.22-.83 0-.9094737-.6551801-1.5048199-1.6764485-1.5649687zm-10.71-.01c.21875 0 .4145312.1225.5203516.307207l.0396484.082793 1.11 2.93c.02.04.04.0844444.0540741.1303704l.0159259.0696296.33.89c.12.31-.04.65-.35.77-.279.108-.5823-.0108-.72765-.26163l-.04235-.08837-.23-.61h-1.65l-.23.61c-.09.24-.32.39-.56.39-.07 0-.14-.01-.21-.04-.279-.099-.4365-.3924-.37773-.67608l.02773-.09392 1.52-4.02c.07875-.21.2570312-.3510937.4678516-.3830859l.0921484-.0069141zm9.99 3.14h1.1l.07.01c.3518182.0327273.4157851.2194215.4274155.3409992l.0009358.1226873-.0108702.0681292c-.0338232.1351903-.159028.3151032-.6225057.3441499l-.1349754.0040344h-.83zm-10.1-1.1-.37.99h.74zm10.82-.84c.5571429 0 .6367347.2130612.648105.3306122l.001895.0693878-.0073148.0730556c-.0192593.0944444-.0755556.1755555-.1570371.2255555l-.0656481.0313889h-1.14v-.73z"/></svg>