<svg height="32" viewBox="0 0 32 32" width="32" xmlns="http://www.w3.org/2000/svg"><g fill="none"><path d="m29.0866989 23.4921751h-25.79992539v-1.7417161h1.58149711c.34282641 0 .62332073-.2804943.62332073-.6233207v-10.4925657c0-1.26741877 1.10119996-2.30628666 2.46211689-2.30628666h5.03850926c1.3609169 0 2.4621169 1.03886789 2.4621169 2.30628666v10.4925657c0 .3428264.2804943.6233207.6233207.6233207h13.0090438z" fill="#168bb1"/><path d="m16.7009758 10.7800141c.0103887-.0415547.0207774-.0934981.0207774-.1454415 0-1.26741877 1.1011999-2.30628666 2.4621169-2.30628666h5.0385092c1.3609169 0 2.4621169 1.03886789 2.4621169 2.30628666v9.8692449h-9.9835204z" fill="#ea9500"/><g fill="#fff"><path d="m10.582044 11.9124174c.259717 0 .4882679.1662189.581766.4051585l1.1531433 3.0438829c.0311661.0623321.0623321.1350528.0727208.2077736l.3428264.9245924c.1246641.322049-.0415547.6752641-.3636038.7999282-.322049.1246642-.6752641-.0415547-.7999282-.3636037l-.2389396-.6337094h-1.71413205l-.23893961.6337094c-.09349811.2493283-.33243772.4051585-.58176602.4051585-.07272075 0-.1454415-.0103887-.21816225-.0415548-.32204905-.1142754-.48826791-.4778792-.36360376-.7999282l1.57907918-4.1762489c.09349811-.2493283.32204901-.4051585.58176601-.4051585zm-.1142755 2.1192905-.3843811 1.0284792h.7687622z"/><path d="m23.6302246 13.5538287c.0103887.3116603-.0831094.612932-.2285509.8622603.3012717.3012717.4778792.7064302.4778792 1.1843094 0 .8103169-.5402113 1.745298-2.0465697 1.745298h-1.4855811c-.3428264 0-.6233207-.2804943-.6233207-.6233207v-4.1762489c0-.3428264.2804943-.6233207.6233207-.6233207h1.3609169c1.163532 0 1.9219056.6337094 1.9219056 1.6310226zm-1.9219056-.3947698h-.7479849v.7583735h1.1843094c.1454415-.0519434.2389396-.1869962.2389396-.3428264v-.0207773c0-.0934981 0-.3947698-.6752641-.3947698zm.1142755 2.9399961c.7999283 0 .7999283-.3739925.7999283-.4882679 0-.1038868 0-.3843811-.4467132-.4259359-.0311661 0-.0519434-.0103886-.0727208-.0103886h-1.1427547v.9245924z"/></g></g></svg>