<svg height="32" viewBox="0 0 32 32" width="32" xmlns="http://www.w3.org/2000/svg"><g fill="none"><path d="m26.5292633 14.660375c0 .31625-.1265.6072-.3542.8349l-10.5754 10.7019c-.46805.46805-1.2397.46805-1.70775 0l-8.18455-8.10865c-.2277-.21505-.34155-.51865-.3542-.82225 0-.31625.11385-.6072.34155-.8349l.01265-.01265 10.5754-10.7019c.2277-.2277.5313-.3542.8602-.3542h7.19785c1.20175 0 2.18845.97405 2.18845 2.16315z" fill="#d36592"/><path d="m26.5292633 14.660375c0 .31625-.1265.6072-.3542.8349l-9.8923 9.8834479v-19.6618979c.2277-.2277.5313-.3542.8602-.3542h7.19785c1.20175 0 2.18845.97405 2.18845 2.16315z" fill="#b34874"/><path d="m21.0817133 12.8403563c-1.12125 0-2.01825-.897-2.01825-2.01825 0-1.12125005.897-2.01825005 2.01825-2.01825005s2.01825.897 2.01825 2.01825005c0 1.12125-.897 2.01825-2.01825 2.01825z" fill="#fff"/></g></svg>