<svg height="32" viewBox="0 0 32 32" width="32" xmlns="http://www.w3.org/2000/svg"><path d="m24.3408133 5.362625c1.20175 0 2.18845.97405 2.18845 2.16315v7.1346c0 .31625-.1265.6072-.3542.8349l-10.5754 10.7019c-.46805.46805-1.2397.46805-1.70775 0l-8.18455-8.10865c-.2277-.21505-.34155-.51865-.3542-.82225 0-.2710714.0836449-.5235551.2509347-.7335525l.1032653-.1139975 10.5754-10.7019c.2277-.2277.5313-.3542.8602-.3542zm-3.2591 3.44123125c-1.12125 0-2.01825.897-2.01825 2.01824995 0 1.12125.897 2.01825 2.01825 2.01825s2.01825-.897 2.01825-2.01825c0-1.12124995-.897-2.01824995-2.01825-2.01824995z"/></svg>