<svg height="32" viewBox="0 0 32 32" width="32" xmlns="http://www.w3.org/2000/svg"><path d="m22.6251633 6.435h-5.69c-.57 0-1.11.22-1.52.63l-8.36 8.45-.02.02c-.4.4-.62.94-.61 1.51s.23 1.1.63 1.5l6.47 6.4c.42.41.97.62 1.52.62s1.1-.21 1.53-.63l8.37-8.46c.41-.4.63-.94.63-1.51v-5.62c-.02-1.61-1.33-2.91-2.95-2.91zm1.73 8.54c0 .25-.1.48-.28.66l-8.36 8.46c-.37.37-.98.37-1.35 0l-6.47-6.41c-.18-.17-.27-.41-.28-.65 0-.25.09-.48.27-.66l.01-.01 8.36-8.46c.18-.18.42-.28.68-.28h5.69c.95 0 1.73.77 1.73 1.71zm-3.9-5.54c-1.16 0-2.1.94-2.1 2.1s.94 2.1 2.1 2.1 2.1-.94 2.1-2.1-.94-2.1-2.1-2.1zm0 3c-.5 0-.9-.4-.9-.9s.4-.9.9-.9.9.4.9.9-.4.9-.9.9z"/></svg>