<svg height="32" viewBox="0 0 32 32" width="32" xmlns="http://www.w3.org/2000/svg"><path d="m22.4379793 3.5-.0009793 5.26003232h5.2610116l-3.9450242 3.94502428-3.5682404.0000967c1.1811919 1.5574347 1.8820867 3.49917 1.8820867 5.604608 0 5.1270895-4.1563273 9.2834168-9.2834169 9.2834168-5.12708951 0-9.2834168-4.1563273-9.2834168-9.2834168 0-5.1270896 4.15632729-9.28341687 9.2834168-9.28341687 2.1528985 0 4.1346307.7328499 5.7093421 1.96269507l.0001962-3.54401526zm-9.6545625 8.5351386c-3.46537838 0-6.27462265 2.8092442-6.27462265 6.2746227 0 3.4653784 2.80924427 6.2746227 6.27462265 6.2746227 3.4653785 0 6.2746227-2.8092443 6.2746227-6.2746227 0-1.4046845-.4615786-2.7015615-1.2413355-3.7472305l-2.3979673 2.399949c.2070054.4040975.3237968.8620504.3237968 1.3472815 0 1.634275-1.3248416 2.9591166-2.9591167 2.9591166-1.634275 0-2.95911664-1.3248416-2.95911664-2.9591166s1.32484164-2.9591167 2.95911664-2.9591167c.5417076 0 1.0494177.1455605 1.4861509.399702l2.3844323-2.3783466-.0647726-.0513093c-1.0556316-.8064938-2.374776-1.2855521-3.8058106-1.2855521z" fill-rule="evenodd"/></svg>