<svg height="32" viewBox="0 0 32 32" width="32" xmlns="http://www.w3.org/2000/svg"><path d="m15.4333974 6.4c.1587498 0 .3110296.0630306.4234877.17507825l5.3254045 5.30596765c.1220745.121629.1770924.2712335.1777104.4181786l-.002.0257755.0056385.0007541v1.2490704c0 .3313709-.2686292.6-.6.6-.2982338 0-.5456468-.2175896-.592147-.5026768l-.007853-.0973232-.0006385-.6688245-4.7426841.0000849c-.3313709 0-.6-.2686291-.6-.6l-.0007003-4.70696763-8.4596156.00088273v12.2420485l-.001.0119515.001 4.546h13.8v-3.9046191c0-.3313708.2686292-.6.6-.6s.6.2686292.6.6v4.5046191c0 .297-.2187.5454-.50301.59211l-.09699.00789h-15c-.297 0-.5454-.2187-.59211-.50301l-.00789-.09699v-18c0-.297.2187-.5454.50301-.59211l.09699-.00789zm-3.3777395 5.9257541c.297 0 .5454.2187.59211.50301l.00789.09699v.51c0 .3222618.0280402.621676.0844554.8975733.1186447.5802305.3627886 1.0564481.7355446 1.4224267.534.516 1.2192.7224 1.71432.80496l.23014.03182c.03519.00387.068665.007095.1002275.0097825l.3053125.0134375h8.103187l-.04-2.66c0-.23.13-.45.34-.55.18-.0857143.3893878-.0832653.5588922.0136443l.0811078.0563557 3.79 3.04c.14.12.23.29.21.48 0 .15-.0625.3-.1643518.4094908l-.0656482.0605092-3.7 2.96c-.1.09-.24.13-.37.13-.09 0-.18-.02-.26-.06-.1714285-.0771428-.2987755-.242449-.3316618-.4329446l-.0083382-.0970554-.03-2.14h-7.913187c-.04.0133333-.08.0222222-.1229629.0266667l-.0670371.0033333-.1091154.0008585-.1462676.0072446-.2022174.0193583c-.4905324.0592645-1.2949248.2447608-1.8923996.8225386-.5041666.4858333-.7814583 1.1901389-.8241724 2.0821065l-.0058276.2478935v.51c0 .33-.27.6-.6.6-.297 0-.5454-.2187-.59211-.50301l-.00789-.09699v-.51c0-1.36.41-2.44 1.21-3.21.25-.24.53-.44.81-.59-.29-.16-.58-.36-.84-.62-.728-.7186667-1.1249778-1.6986667-1.1746726-2.9156089l-.0053274-.2643911v-.51c0-.33.27-.6.6-.6zm3.964658-3.89387943v3.27421023h3.2862044z"/></svg>