<svg height="32" viewBox="0 0 32 32" width="32" xmlns="http://www.w3.org/2000/svg"><g fill="none" fill-rule="evenodd"><path d="m4.42771459 26.0231487v-15.6219284l5.32660249-5.30716124h11.40178182v20.92908964z" fill="#afdfef" transform="matrix(-1 0 0 1 25.583814 0)"/><path d="m21.1549009 10.4000267h-5.338486v-5.30596764h.0130815z" fill="#45889f"/><path d="m21.1560989 15.738449-5.339684-5.3384223h5.338486l.001198.0011936z" fill="#8bc6da"/><path d="m23.2577474 16.5921325.0341615 2.7784679c0 .2619048.1594203.5010352.3871636.6035197.0910973.0455486.1935818.068323.2960662.068323.1480332 0 .3074534-.0455487.4213251-.1480332l4.2132505-3.3706004c.1594203-.1252588.2619048-.3302277.2619048-.5351967 0-.2049689-.0910973-.3985507-.2505176-.5351967l-4.315735-3.4616977c-.204969-.1708074-.4896481-.1935818-.7287785-.0797101-.2391304.1138716-.3871636.3643892-.3871636.626294l.0341615 2.6873706h-6.3426501c-.0113871 0-1.60559.0455486-2.6532091-.9679089-.626294-.6149069-.9451346-1.5031056-.9451346-2.6532091v-.4213251c0-.3757764-.3074534-.6832298-.6832298-.6832298s-.6832298.3074534-.6832298.6832298v.4213251c0 1.5486542.4668737 2.7784679 1.3778468 3.6552795.2846791.2732919.5807453.489648.8995859.6604555-.3074534.1708074-.6149068.3871635-.8995859.6604554-.9109731.8768116-1.3778468 2.1066253-1.3778468 3.6552795v.5807454c0 .3757764.3074534.6832298.6832298.6832298s.6832298-.3074534.6832298-.6832298v-.5807454c0-1.1501035.3188406-2.0496894.9451346-2.6532091 1.0362319-1.0020704 2.6190476-.9679089 2.6532091-.9679089h6.3768116z" fill="#252d4f" fill-rule="nonzero"/></g></svg>