<svg height="32" viewBox="0 0 32 32" width="32" xmlns="http://www.w3.org/2000/svg"><path d="m13.3896167 15.5120405c.33-.02.58-.3.56-.63s-.3-.58-.63-.56c-1.01.06-1.95.49-2.67 1.2-1.59999999 1.61-1.59999999 4.23 0 5.84.78.78 1.81 1.21 2.91 1.21s2.13-.43 2.91-1.21c.74-.75 1.17-1.74 1.2-2.79.01-.33-.25-.61-.58-.62s-.61.25-.62.58c-.02.75-.32 1.45-.85 1.98-.55.55-1.28.86-2.06.86s-1.51-.3-2.06-.86c-1.14-1.14-1.14-3 0-4.15.51-.51 1.18-.81 1.89-.85zm13.09-5.72999999c-.09-.22-.31-.37-.55-.37h-3.4v-3.4c0-.24-.15-.46-.37-.55s-.48-.04-.65.13l-3 3c-.11.11-.18.27-.18.42v3.74999999l-4.82 4.82c-.23.23-.23.61 0 .85.12.12.27.18.42.18s.31-.06.42-.18l4.82-4.82h3.76c.16 0 .31-.06.42-.18l3-3c.18-.17.23-.43.13-.64999999zm-6.95-.52 1.8-1.8v2.3l-1.8 1.79999999zm3.15 3.14999999h-2.3l1.8-1.8h2.3zm-2.05 3.35c-.32.09-.5.42-.41.74.7 2.43.03 5.06-1.75 6.85-1.31 1.31-3.04 2.03-4.89 2.03s-3.57999999-.72-4.88999999-2.03c-2.7-2.71-2.7-7.12 0-9.83 1.79999999-1.81 4.43999999-2.48 6.87999999-1.74.32.1.65-.08.75-.4s-.08-.65-.4-.75c-2.87-.85999999-5.95999999-.08-8.07999999 2.04-3.16 3.18-3.16 8.35 0 11.52 1.53 1.54 3.56999999 2.39 5.73999999 2.39s4.21-.85 5.74-2.39c2.09-2.1 2.88-5.17 2.06-8.02-.09-.32-.43-.5-.75-.41z"/></svg>