<svg height="32" viewBox="0 0 32 32" width="32" xmlns="http://www.w3.org/2000/svg"><g fill="none" fill-rule="evenodd"><path d="m12.7834168 27.5931781c-5.12708951 0-9.2834168-4.1563273-9.2834168-9.2834168 0-5.1270896 4.15632729-9.28341687 9.2834168-9.28341687 5.1270896 0 9.2834169 4.15632727 9.2834169 9.28341687 0 5.1270895-4.1563273 9.2834168-9.2834169 9.2834168zm0-3.0087941c3.4653785 0 6.2746227-2.8092443 6.2746227-6.2746227 0-3.4653785-2.8092442-6.2746227-6.2746227-6.2746227-3.46537838 0-6.27462265 2.8092442-6.27462265 6.2746227 0 3.4653784 2.80924427 6.2746227 6.27462265 6.2746227z" fill="#59adcb"/><path d="m12.7834168 24.584384c-3.46537838 0-6.27462265-2.8092443-6.27462265-6.2746227 0-3.4653785 2.80924427-6.2746227 6.27462265-6.2746227 3.4653785 0 6.2746227 2.8092442 6.2746227 6.2746227 0 3.4653784-2.8092442 6.2746227-6.2746227 6.2746227zm0-3.3155061c1.6342751 0 2.9591167-1.3248416 2.9591167-2.9591166s-1.3248416-2.9591167-2.9591167-2.9591167c-1.634275 0-2.95911664 1.3248417-2.95911664 2.9591167s1.32484164 2.9591166 2.95911664 2.9591166z" fill="#b75c64"/><circle cx="12.783417" cy="18.309761" fill="#f1eb7c" r="2.959117"/><g fill-rule="nonzero"><path d="m22.0540741 17.818806c.0084712.1625798.0127596.3262667.0127596.4909553 0 .2642724-.0110426.5259658-.0326916.7846437h-3.024687c.032066-.2570426.0485844-.5189141.0485844-.7846437 0-.1652211-.0063858-.3289506-.0189242-.4909553z" fill="#4588a0"/><path d="m19.0391153 17.818806c.0125384.1620047.0189242.3257342.0189242.4909553 0 .2657296-.0165184.5276011-.0485844.7846437h-3.3720729c.0685464-.2498894.1051513-.5129918.1051513-.7846437 0-.1672556-.0138763-.3312702-.0405405-.4909553z" fill="#9d3a42"/><path d="m15.701993 17.818806c.0266642.1596851.0405405.3236997.0405405.4909553 0 .2716519-.0366049.5347543-.1051513.7846437h-2.8959761c-.3522469 0-.6377995-.2855526-.6377995-.6377995s.2855526-.6377995.6377995-.6377995z" fill="#af8c1d"/></g><path d="m18.4929551 12.7050566v-5.26003236l3.9450242-3.94502424v5.26003232h5.2600323l-3.9450242 3.94502428z" fill="#42896b"/><path d="m21.5642086 8.76003232-9.2737948 9.24558088c-.2490762.2490762-.2490762.6529085 0 .9019847s.6529085.2490762.9019847 0l9.2455808-9.25222983v-.89533575z" fill="#252d4f" fill-rule="nonzero"/></g></svg>