<svg height="32" viewBox="0 0 32 32" width="32" xmlns="http://www.w3.org/2000/svg"><path d="m15.4333974 6.4c.1587498 0 .3110296.0630306.4234877.17507825l5.3254045 5.30596765c.1220745.121629.1770924.2712335.1777104.4181786l-.002 4.3157755 2.5708449.0007541-.04-2.66c0-.23.13-.45.34-.55.18-.0857143.3893878-.0832653.5588922.0136443l.0811078.0563557 3.79 3.04c.14.12.23.29.21.48 0 .15-.0625.3-.1643518.4094908l-.0656482.0605092-3.7 2.96c-.1.09-.24.13-.37.13-.09 0-.18-.02-.26-.06-.1714285-.0771428-.2987755-.242449-.3316618-.4329446l-.0083382-.0970554-.03-2.14-2.5808449-.0007541.002 7.175c0 .297-.2187.5454-.50301.59211l-.09699.00789h-15c-.297 0-.5454-.2187-.59211-.50301l-.00789-.09699v-18c0-.297.2187-.5454.50301-.59211l.09699-.00789zm-3.3777395 5.9257541c-.297 0-.5454.2187-.59211.50301l-.00789.09699v.51l.0053274.2643911c.0496948 1.2169422.4466726 2.1969422 1.1746726 2.9156089.26.26.55.46.84.62-.28.15-.56.35-.81.59-.7466666.7186667-1.1536 1.7073778-1.2045392 2.9417422l-.0054608.2682578v.51l.00789.09699c.04671.28431.29511.50301.59211.50301s.5454-.2187.59211-.50301l.00789-.09699v-.51l.0058276-.2478935c.0427141-.8919676.3200058-1.5962732.8241724-2.0821065.5476852-.5296296 1.2692387-.7296339 1.7635291-.8049387l.1288705-.0175999.2022174-.0193583.1462676-.0072446.1091154-.0008585.0670371-.0033333.0625925-.01.0603704-.0166667h3.7840398l.1022204-.0086781c.2847128-.048858.5002651-.2980779.4978417-.5963219-.0025306-.3014442-.2233472-.5503388-.5116636-.5971033l-.0983985-.0078967h-3.9740398l-.3053125-.0134375-.1002275-.0097825-.23014-.03182c-.49512-.08256-1.18032-.28896-1.71432-.80496-.372756-.3659786-.6168999-.8421962-.7355446-1.4224267-.0423114-.2069229-.0686618-.4270742-.0791926-.6601713l-.0052628-.237402v-.51l-.00789-.09699c-.04671-.28431-.29511-.50301-.59211-.50301zm3.964658-3.89387943v3.27421023h3.2862044z"/></svg>