<svg height="32" viewBox="0 0 32 32" width="32" xmlns="http://www.w3.org/2000/svg"><g fill="none" fill-rule="evenodd"><path d="m10 19.7368421c.3778639.139213.715844.347852 1.0016614.6083074l-.0016614 6.6548505h-7v-4.3948993c0-1.2806481.79831265-2.4255317 2-2.8682586 1.29092125-.4756026 2.70907875-.4756026 4 0zm-2-8.7368421c1.65685425 0 3 1.3431458 3 3s-1.34314575 3-3 3-3-1.3431458-3-3 1.34314575-3 3-3z" fill="#7ebca2"/><path d="m27 19.7368421c1.2016873.4427269 2 1.5876105 2 2.8682586v4.3948993h-7l-.0009377-6.6555098c.2856641-.2601482.6233926-.4685525 1.0009377-.6076481 1.2909212-.4756026 2.7090788-.4756026 4 0zm-2-8.7368421c1.6568542 0 3 1.3431458 3 3s-1.3431458 3-3 3-3-1.3431458-3-3 1.3431458-3 3-3z" fill="#7ebca2"/><path d="m19.25 16c1.6509819.600357 2.75 2.1694252 2.75 3.926175v7.073825h-11v-7.073825c0-1.7567498 1.0990181-3.325818 2.75-3.926175 1.776431-.6459749 3.723569-.6459749 5.5 0zm-2.9172075-11c2.318969 0 4.1988648 1.91530714 4.1988648 4.27795824 0 2.36265106-1.8798958 4.27795826-4.1988648 4.27795826s-4.1988648-1.9153072-4.1988648-4.27795826c0-2.3626511 1.8798958-4.27795824 4.1988648-4.27795824z" fill="#40896b"/></g></svg>