<svg height="32" viewBox="0 0 32 32" width="32" xmlns="http://www.w3.org/2000/svg"><path d="m9.80644164 19.6693981-.00644164.2567769-.001 7.073825h-5.799v-4.3948993c0-1.2806481.79831265-2.4255317 2-2.8682586 1.22670619-.4519444 2.5683051-.4744257 3.80644164-.067444zm17.19355836.067444c1.2016873.4427269 2 1.5876105 2 2.8682586v4.3948993h-5.801l.001-7.073825-.007-.256175.0668053-.021937c1.2196381-.3847097 2.5353349-.3551166 3.7401947.0887791zm-13.25-3.7368421c1.776431-.6459749 3.723569-.6459749 5.5 0 1.5849426.5763428 2.6611954 2.0454497 2.7447597 3.7163159l.0052403.2098591v7.073825h-11v-7.073825l.0052403-.2098591c.0835643-1.6708662 1.1598171-3.1399731 2.7447597-3.7163159zm-5.75-5c1.65685425 0 3 1.3431458 3 3s-1.34314575 3-3 3-3-1.3431458-3-3 1.34314575-3 3-3zm17 0c1.6568542 0 3 1.3431458 3 3s-1.3431458 3-3 3-3-1.3431458-3-3 1.3431458-3 3-3zm-8.6672075-6c2.318969 0 4.1988648 1.91530714 4.1988648 4.27795824 0 2.22162966-1.6621795 4.04772366-3.7886216 4.25779976l-.2006775.014923-.2095657.0052355-.2095657-.0052355c-2.2216102-.1112545-3.9892991-1.9816672-3.9892991-4.27272276 0-2.3626511 1.8798958-4.27795824 4.1988648-4.27795824z" fill-rule="evenodd"/></svg>