<svg height="32" viewBox="0 0 32 32" width="32" xmlns="http://www.w3.org/2000/svg"><path d="m18.6925458 16.8861239c1.593969.5796251 2.7174816 1.9849137 2.9589045 3.6281769l.1911265-.0773067c1.3602587-.5011479 2.8545877-.5011479 4.2148464 0 1.3148675.4844249 2.2084309 1.7022164 2.2869472 3.0886964l.0056296.1991552v2.2743375c0 .3313708-.2686292.6-.6.6-.2982338 0-.5456468-.2175896-.592147-.5026769l-.007853-.0973231v-2.2743375c0-.9652394-.6016975-1.8281514-1.5074232-2.1618398-1.0924917-.402497-2.2926619-.402497-3.3851536 0-.2008336.0739913-.3885575.1746369-.5590968.2987339l.0016736 4.1378031c0 .3313708-.2686292.6-.6.6-.2982338 0-.5456468-.2175896-.592147-.5026769l-.007853-.0973231v-4.8196767c0-1.4166084-.8862266-2.6818741-2.2175458-3.1659901-1.555155-.565511-3.2597534-.565511-4.8149084 0-1.2708047.4621108-2.1360601 1.6359715-2.2120941 2.9738135l-.0054517.1921766v4.8196767c0 .3313708-.2686292.6-.6.6-.2982338 0-.5456468-.2175896-.592147-.5026769l-.007853-.0973231.0001114-4.1389389c-.17012265-.1235749-.3573135-.2238325-.55753462-.2975981-1.09249166-.402497-2.2926619-.402497-3.38515356 0-.85244772.3140597-1.43558328 1.0969126-1.50123781 1.9926525l-.00618541.1691873v2.2743375c0 .3313708-.26862915.6-.6.6-.29823376 0-.54564675-.2175896-.59214701-.5026769l-.00785299-.0973231v-2.2743375c0-1.4679921.91509653-2.7803588 2.29257678-3.2878516 1.36025871-.5011479 2.85458773-.5011479 4.21484644 0l.19112648.0773067c.2414229-1.6432632 1.3649355-3.0485518 2.9589045-3.6281769 1.8200639-.6618414 3.8150277-.6618414 5.6350916 0zm-11.1925458-4.4861239c1.71208272 0 3.1 1.3879173 3.1 3.1s-1.38791728 3.1-3.1 3.1-3.1-1.3879173-3.1-3.1 1.38791728-3.1 3.1-3.1zm16 0c1.7120827 0 3.1 1.3879173 3.1 3.1s-1.3879173 3.1-3.1 3.1-3.1-1.3879173-3.1-3.1 1.3879173-3.1 3.1-3.1zm-16 1.2c-1.04934102 0-1.9.850659-1.9 1.9s.85065898 1.9 1.9 1.9 1.9-.850659 1.9-1.9-.85065898-1.9-1.9-1.9zm16 0c-1.049341 0-1.9.850659-1.9 1.9s.850659 1.9 1.9 1.9 1.9-.850659 1.9-1.9-.850659-1.9-1.9-1.9zm-8-7.2c2.2643675 0 4.1 1.83563253 4.1 4.1 0 2.2643675-1.8356325 4.1-4.1 4.1s-4.1-1.8356325-4.1-4.1c0-2.26436747 1.8356325-4.1 4.1-4.1zm0 1.2c-1.6016258 0-2.9 1.29837423-2.9 2.9 0 1.6016258 1.2983742 2.9 2.9 2.9s2.9-1.2983742 2.9-2.9c0-1.60162577-1.2983742-2.9-2.9-2.9z"/></svg>