<svg height="32" viewBox="0 0 32 32" width="32" xmlns="http://www.w3.org/2000/svg"><path d="m18 20.75c.1380712 0 .25.1119288.25.25v4c0 .1380712-.1119288.25-.25.25h-11c-.13807119 0-.25-.1119288-.25-.25v-4c0-.1380712.11192881-.25.25-.25zm7 0c.1380712 0 .25.1119288.25.25v4c0 .1380712-.1119288.25-.25.25h-4c-.1380712 0-.25-.1119288-.25-.25v-4c0-.1380712.1119288-.25.25-.25zm-14-7c.1380712 0 .25.1119288.25.25v4c0 .1380712-.1119288.25-.25.25h-4c-.13807119 0-.25-.1119288-.25-.25v-4c0-.1380712.11192881-.25.25-.25zm14-7c.1380712 0 .25.11192881.25.25v11c0 .1380712-.1119288.25-.25.25h-4c-.1380712 0-.25-.1119288-.25-.25v-11c0-.13807119.1119288-.25.25-.25zm-7 7c.1380712 0 .25.1119288.25.25v4c0 .1380712-.1119288.25-.25.25h-4c-.1380712 0-.25-.1119288-.25-.25v-4c0-.1380712.1119288-.25.25-.25zm0-7c.1380712 0 .25.11192881.25.25v4c0 .1380712-.1119288.25-.25.25h-11c-.13807119 0-.25-.1119288-.25-.25v-4c0-.13807119.11192881-.25.25-.25z"/></svg>