<svg height="32" viewBox="0 0 32 32" width="32" xmlns="http://www.w3.org/2000/svg"><g fill="none"><path d="m6.75 14c0-.1380712.11192881-.25.25-.25h4c.1380712 0 .25.1119288.25.25v4c0 .1380712-.1119288.25-.25.25h-4c-.13807119 0-.25-.1119288-.25-.25z" fill="#87c471"/><path d="m18.25 25c0 .1380712-.1119288.25-.25.25h-11c-.13807119 0-.25-.1119288-.25-.25v-4c0-.1380712.11192881-.25.25-.25h11c.1380712 0 .25.1119288.25.25z" fill="#50c9e3"/><path d="m25.25 25c0 .1380712-.1119288.25-.25.25h-4c-.1380712 0-.25-.1119288-.25-.25v-4c0-.1380712.1119288-.25.25-.25h4c.1380712 0 .25.1119288.25.25z" fill="#f5a623"/><path d="m25.25 18c0 .1380712-.1119288.25-.25.25h-4c-.1380712 0-.25-.1119288-.25-.25v-11c0-.13807119.1119288-.25.25-.25h4c.1380712 0 .25.11192881.25.25z" fill="#9373b9"/><path d="m18.25 11c0 .1380712-.1119288.25-.25.25h-11c-.13807119 0-.25-.1119288-.25-.25v-4c0-.13807119.11192881-.25.25-.25h11c.1380712 0 .25.11192881.25.25z" fill="#4088a1"/><path d="m18.25 18c0 .1380712-.1119288.25-.25.25h-4c-.1380712 0-.25-.1119288-.25-.25v-4c0-.1380712.1119288-.25.25-.25h4c.1380712 0 .25.1119288.25.25z" fill="#b95c63"/></g></svg>