<svg height="32" viewBox="0 0 32 32" width="32" xmlns="http://www.w3.org/2000/svg"><path d="m7 18.6h4c.33 0 .6-.27.6-.6v-4c0-.33-.27-.6-.6-.6h-4c-.33 0-.6.27-.6.6v4c0 .33.27.6.6.6zm.6-4h2.8v2.8h-2.8zm10.4 5.8h-11c-.33 0-.6.27-.6.6v4c0 .33.27.6.6.6h11c.33 0 .6-.27.6-.6v-4c0-.33-.27-.6-.6-.6zm-.6 4h-9.8v-2.8h9.8zm7.6-4h-4c-.33 0-.6.27-.6.6v4c0 .33.27.6.6.6h4c.33 0 .6-.27.6-.6v-4c0-.33-.27-.6-.6-.6zm-.6 4h-2.8v-2.8h2.8zm.6-18h-4c-.33 0-.6.27-.6.6v11c0 .33.27.6.6.6h4c.33 0 .6-.27.6-.6v-11c0-.33-.27-.6-.6-.6zm-.6 11h-2.8v-9.8h2.8zm-6.4-11h-11c-.33 0-.6.27-.6.6v4c0 .33.27.6.6.6h11c.33 0 .6-.27.6-.6v-4c0-.33-.27-.6-.6-.6zm-.6 4h-9.8v-2.8h9.8zm.6 3h-4c-.33 0-.6.27-.6.6v4c0 .33.27.6.6.6h4c.33 0 .6-.27.6-.6v-4c0-.33-.27-.6-.6-.6zm-.6 4h-2.8v-2.8h2.8z"/></svg>