<svg height="32" viewBox="0 0 32 32" width="32" xmlns="http://www.w3.org/2000/svg"><path d="m21.112698 17.4870537v4.4681061c0 2.7990377-2.0086835 5.0681061-4.4865202 5.0681061v-2.3572586c1.3253545 0 2.3997666-1.2136878 2.3997666-2.7108475h-1.7997666c-.3313708 0-.6-.2686291-.6-.6v-3.8681061c0-.3313708.2686292-.6.6-.6h3.2865202c.3313709 0 .6.2686292.6.6zm5.8933091 0v4.4681061c0 2.7990377-2.0086835 5.0681061-4.4865202 5.0681061v-2.3572586c1.3253545 0 2.3997666-1.2136878 2.3997666-2.7108475h-1.7997666c-.3313708 0-.6-.2686291-.6-.6v-3.8681061c0-.3313708.2686292-.6.6-.6h3.2865202c.3313708 0 .6.2686292.6.6zm-11.7773656-12.08895576v2.35725865c-1.3253545 0-2.3997666 1.21368775-2.3997666 2.71084741h1.7997666c.3313708 0 .6.2686292.6.6v3.8681061c0 .3313709-.2686292.6-.6.6h-3.2865202c-.3313709 0-.6-.2686291-.6-.6v-4.4681061c0-2.79903767 2.0086835-5.06810606 4.4865202-5.06810606zm-5.89330912 0v2.35725865c-1.32535449 0-2.39976659 1.21368775-2.39976659 2.71084741h1.79976659c.33137085 0 .6.2686292.6.6v3.8681061c0 .3313709-.26862915.6-.6.6h-3.28652016c-.33137085 0-.6-.2686291-.6-.6v-4.4681061c0-2.79903767 2.0086835-5.06810606 4.48652016-5.06810606z"/></svg>