<svg height="32" viewBox="0 0 32 32" width="32" xmlns="http://www.w3.org/2000/svg"><g fill="none"><path d="m12.8288749 10.466204h2.3997666v5.0681061h-4.4865202v-5.0681061c0-2.79903767 2.0086835-5.06810606 4.4865202-5.06810606v2.35725865c-1.3253545 0-2.3997666 1.21368775-2.3997666 2.71084741z" fill="#455f92"/><path d="m6.93556579 10.466204h2.39976659v5.0681061h-4.48652016v-5.0681061c0-2.79903767 2.0086835-5.06810606 4.48652016-5.06810606v2.35725865c-1.32535449 0-2.39976659 1.21368775-2.39976659 2.71084741z" fill="#455f92"/><g fill="#b34874"><path d="m19.0259444 21.9551598h-2.3997666v-5.0681061h4.4865202v5.0681061c0 2.7990377-2.0086835 5.0681061-4.4865202 5.0681061v-2.3572586c1.3253545 0 2.3997666-1.2136878 2.3997666-2.7108475z"/><path d="m24.9192535 21.9551598h-2.3997666v-5.0681061h4.4865202v5.0681061c0 2.7990377-2.0086835 5.0681061-4.4865202 5.0681061v-2.3572586c1.3253545 0 2.3997666-1.2136878 2.3997666-2.7108475z"/></g></g></svg>