<svg height="32" viewBox="0 0 32 32" width="32" xmlns="http://www.w3.org/2000/svg"><path d="m20.8638858 17.4119852c.3313708 0 .6.2686291.6.6v3.1450767c0 3.1152271-2.2599257 5.6681061-5.0865202 5.6681061-.3313708 0-.6-.2686292-.6-.6 0-.3313709.2686292-.6.6-.6 1.9544715 0 3.5957625-1.6729853 3.8518242-3.8681061h-2.5103807c-.3313709 0-.6-.2686292-.6-.6v-3.1450767c0-.3313709.2686291-.6.6-.6zm6.893309 0c.3313709 0 .6.2686291.6.6v3.1450767c0 3.1152271-2.2599256 5.6681061-5.0865201 5.6681061-.3313709 0-.6-.2686292-.6-.6 0-.3313709.2686291-.6.6-.6 1.9544715 0 3.5957625-1.6729853 3.8518242-3.8681061h-2.5103807c-.3313709 0-.6-.2686292-.6-.6v-3.1450767c0-.3313709.2686291-.6.6-.6zm-11.7773656-12.4119852c.3313709 0 .6.26862915.6.6s-.2686291.6-.6.6c-1.9544715 0-3.5957625 1.67298529-3.8518241 3.8681061h2.5103807c.3313708 0 .6.2686292.6.6v3.1450767c0 .3313708-.2686292.6-.6.6h-3.1450767c-.3313709 0-.6-.2686292-.6-.6v-3.1450767c0-3.11522712 2.2599256-5.6681061 5.0865201-5.6681061zm-6.89330904 0c.33137085 0 .6.26862915.6.6s-.26862915.6-.6.6c-1.95447152 0-3.59576253 1.67298529-3.85182416 3.8681061h2.51038069c.33137085 0 .6.2686292.6.6v3.1450767c0 .3313708-.26862915.6-.6.6h-3.14507669c-.33137085 0-.6-.2686292-.6-.6v-3.1450767c0-3.11522712 2.25992566-5.6681061 5.08652016-5.6681061z"/></svg>