<svg height="32" viewBox="0 0 32 32" width="32" xmlns="http://www.w3.org/2000/svg"><path d="m4.385 14.04h6c.33 0 .6-.27.6-.6s-.27-.6-.6-.6h-6c-.33 0-.6.27-.6.6s.27.6.6.6zm0-5.13h9.12c.33 0 .6-.27.6-.6s-.27-.6-.6-.6h-9.12c-.33 0-.6.27-.6.6s.27.6.6.6zm13.85 0h9.27c.33 0 .6-.27.6-.6s-.27-.6-.6-.6h-9.27c-.33 0-.6.27-.6.6s.27.6.6.6zm-7.55 14.18h-6.3c-.33 0-.6.27-.6.6s.27.6.6.6h6.3c.33 0 .6-.27.6-.6s-.27-.6-.6-.6zm13.85 0h-6.3c-.33 0-.6.27-.6.6s.27.6.6.6h6.3c.33 0 .6-.27.6-.6s-.27-.6-.6-.6zm3.08-5.13h-9.38c-.33 0-.6.27-.6.6s.27.6.6.6h9.38c.33 0 .6-.27.6-.6s-.27-.6-.6-.6zm-9.38-3.92h6c.33 0 .6-.27.6-.6s-.27-.6-.6-.6h-6c-.33 0-.6.27-.6.6s.26.6.6.6zm-4.47 3.92h-9.38c-.33 0-.6.27-.6.6s.27.6.6.6h9.38c.33 0 .6-.27.6-.6s-.27-.6-.6-.6z"/></svg>