<svg height="32" viewBox="0 0 32 32" width="32" xmlns="http://www.w3.org/2000/svg"><path d="m13.535 23.4c.33 0 .6.27.6.6s-.27.6-.6.6h-5.5c-.33 0-.6-.27-.6-.6s.27-.6.6-.6zm7.5605926-10.67c.6125362 0 1.1587466.2719417 1.5504325.7066854.3916997-.4347417.937932-.7066854 1.5504711-.7066854h.5713995c.3442814 0 .6233766.2790952.6233766.6233766s-.2790952.6233766-.6233766.6233766h-.5713995c-.4607762 0-.8676257.4222206-.921136.9928702l-.0059391.1280115v7.1410834c.0028765.6311988.4341538 1.1145285.9270751 1.1145285h.5668206c.3442814 0 .6233767.2790952.6233767.6233766s-.2790953.6233766-.6233767.6233766h-.5668206c-.6125309 0-1.1587673-.2719675-1.5504711-.7067252-.39169.4347596-.9379045.7067252-1.5504325.7067252h-.6184962c-.3442814 0-.6233766-.2790952-.6233766-.6233766s.2790952-.6233766.6233766-.6233766h.6184962c.4945371 0 .9270063-.4865442.9270607-1.1209035l.0000145-7.1298242c-.0000589-.6392764-.4324924-1.1257659-.9270752-1.1257659h-.6249833c-.3442814 0-.6233766-.2790952-.6233766-.6233766s.2790952-.6233766.6233766-.6233766zm-2.5605926 5.34c.33 0 .6.27.6.6s-.27.6-.6.6h-10.5c-.33 0-.6-.27-.6-.6s.27-.6.6-.6zm-1.38-5.34c.33 0 .6.27.6.6s-.27.6-.6.6h-9.12c-.33 0-.6-.27-.6-.6s.27-.6.6-.6zm7.5916209-5.33c.33 0 .6.27.6.6s-.27.6-.6.6h-16.7116209c-.33 0-.6-.27-.6-.6s.27-.6.6-.6z"/></svg>