<svg height="32" viewBox="0 0 32 32" width="32" xmlns="http://www.w3.org/2000/svg"><g fill="none"><path d="m13.8120043 22.621115v1.2467532h-6.90228827v-1.2467532z" fill="#7c969d"/><path d="m23.2694111 15.183743.00001.0035573v6.5957733c.0028765.6311988.4341538 1.1145284.9270751 1.1145284h.6233766v1.2467533h-.6233766c-.6125309 0-1.1587673-.2719675-1.5504711-.7067252-.39169.4347596-.9379045.7067252-1.5504325.7067252h-.6233766v-1.2467533h.6233766c.4945371 0 .9270063-.4865441.9270607-1.1209035.0000001-.0016286.0000049-.0032541.0000145-.0048764v-6.5796376c-.0000095-.0016104-.0000143-.0032239-.0000145-.0048405-.0000444-.6344359-.4324779-1.1209253-.9270607-1.1209253h-.6233766v-1.2467533h.6233766c.6125362 0 1.1587466.2719418 1.5504325.7066854.3916997-.4347417.937932-.7066854 1.5504711-.7066854h.6233766v1.2467533h-.6233766c-.4936888 0-.9254719.4846919-.9270851 1.1173243z" fill="#1a91b7"/><g fill="#7c969d"><path d="m25.1126381 8.07566044v1.24675325h-18.01554506v-1.24675325z"/><path d="m17.8897269 12.9358839v1.2467532h-10.80619362v-1.2467532z"/><path d="m19.2937221 17.7961073v1.2467533h-12.21018882v-1.2467533z"/></g></g></svg>