<svg height="32" viewBox="0 0 32 32" width="32" xmlns="http://www.w3.org/2000/svg"><path d="m8.43791251 13.5239008 9.99799999 10.172-4.2603147 4.2612482c-.5054987.5054361-1.1798851.7848919-1.8944078.7848919-.7145682 0-1.3889558-.2794398-1.8944052-.7848892l-3.95452142-3.9539804c-.34881259-.3489163-.42428074-.8874121-.1845808-1.3181047l.04092569-.0736877-.07178744.03987c-.43118855.2415946-.97200372.1656187-1.32020091-.1837211l-.80581553-.8063566c-.50543609-.5054987-.78489188-1.1798851-.78489188-1.8944078 0-.7145905.2794567-1.3890353.78491358-1.8944295zm16.13682949-9.14599996c1.7359969 0 3.1469246 1.41092766 3.1469246 3.14692455 0 .98351041-.4675839 1.92447968-1.244543 2.50685561l-.0143999.0104529-6.2508259 4.3924716c-.4887679.3667682-.781696.9529047-.781696 1.5638567 0 .5232868.2025717 1.012376.5725437 1.382348l1.2307856 1.2307856c.3604236.3604236.5656844.8562893.5656844 1.3660566v.16657c0 .5097673-.2052608 1.005633-.5656844 1.3660566l-1.3811428 1.3811427c-.1904533.1904533-.4802866.2209571-.7025741.091511l-.0069017.0059681-10.10250166-10.2787517c-.01488046-.1655226.04103112-.3362108.16773484-.4629145l1.38114272-1.3811427c.3604236-.3604237.8562893-.5656845 1.3660566-.5656845h.16657c.5097673 0 1.005633.2052608 1.3660566.5656845l1.2307856 1.2307855c.7961291.7961291 2.270878.6910353 2.9465137-.2094861l4.3916675-6.25051673c.5915649-.78900322 1.531284-1.25897373 2.5178036-1.25897373zm-.3923386 2.58550351c-.4338299 0-.7855185.35168863-.7855185.78551855 0 .43382991.3516886.78551854.7855185.78551854s.7855186-.35168863.7855186-.78551854c0-.43382992-.3516887-.78551855-.7855186-.78551855z"/></svg>