<svg height="32" viewBox="0 0 32 32" width="32" xmlns="http://www.w3.org/2000/svg"><g fill="none" fill-rule="evenodd"><path d="m27.7799699 7.73783343-7.1211816 5.00446587c-.7218113.5416425-1.1523234 1.4034869-1.1523234 2.3053409 0 .7697722.2997556 1.4935398.8440485 2.0378327l1.3988802 1.3988802c.2859352.2859352.4496332.6816756.4496332 1.0859354v.1893193c0 .4042597-.163698.8000001-.4496332 1.0859354l-1.5697724 1.5697723-11.16459974-11.1645366 1.56977234-1.56977237c.2859352-.28593522.6816757-.44963329 1.0859354-.44963329h.1893193c.4042598 0 .8000002.16369807 1.0859354.44963329l1.3988802 1.39888017c1.1819202 1.1819203 3.328864 1.0439065 4.3556687-.3253767l4.9794757-7.08767217c.5475744-.73033068 1.4198946-1.16683783 2.3336125-1.16683783 1.6085829 0 2.916716 1.30813312 2.916716 2.91671595 0 .91371795-.4365072 1.78603809-1.1503671 2.32111748z" fill="#af8c1d" fill-rule="nonzero"/><path d="m9.30676679 11.5360515-6.10795884 6.1080707c-.45075908.4507031-.69880795 1.0493859-.69880795 1.6864751s.24810477 1.2357161.69880795 1.6864752l.91599746.9166124c.18750415.1881191.47927045.2294326.71105107.0995661l2.10223793-1.1675683-1.16756832 2.1022379c-.12930743.2323397-.08849704.522932.09956615.7110511l4.49450916 4.4938942c.450759.450759 1.0493859.6988079 1.6864751.6988079s1.2357161-.2481048 1.6864752-.6988079l6.1080706-6.1080707z" fill="#252d4f"/><circle cx="26.066267" cy="5.36407" fill="#755b0a" r="1"/><path d="m3.19880795 17.6441222c-.45075908.4507031-.69880795 1.0493859-.69880795 1.6864751s.24810477 1.2357161.69880795 1.6864752l.91599746.9166124c.18750415.1881191.47927045.2294326.71105107.0995661l2.10223793-1.1675683-1.16756832 2.1022379c-.12930743.2323397-.08849704.522932.09956615.7110511l4.49450916 4.4938942c.450759.450759 1.0493859.6988079 1.6864751.6988079s1.2357161-.2481048 1.6864752-.6988079c2.1593936-2.1652811 3.5512035-3.560302 4.1754297-4.1850627-5.2272176-1.3769093-7.54838-6.0140142-14.70417345-6.343681z" fill="#fa8bb9"/><path d="m14.9685806 22.7845226c.8996647.4956765 1.8550843.9189762 2.9344008 1.2032806-.6242262.6247607-2.0160361 2.0197816-4.1754297 4.1850627-.4507591.4507031-1.049386.6988079-1.6864752.6988079s-1.2357161-.2480489-1.6864751-.6988079l-.38720853-.3871555z" fill="#dc6a99"/></g></svg>