<svg height="32" viewBox="0 0 32 32" width="32" xmlns="http://www.w3.org/2000/svg"><path d="m24.8760191 3.97284641c1.7937189 0 3.25156 1.45784108 3.25156 3.25155995 0 1.01621218-.4831311 1.98846873-1.2859241 2.59020865l-.0148787.01080046-6.4586661 4.53852153c-.5050196.3789633-.8076875.9845888-.8076875 1.615855 0 .5406861.2093072 1.0460376.5915808 1.4283112l1.2717093 1.2717092c.3724077.3724077.5844934.884761.5844934 1.4114781v.1721084c0 .5267171-.2120857 1.0390704-.5844934 1.4114781l-1.4270658 1.4270658c-.1967859.1967859-.4962563.2283039-.7259348.0945537l-5.1396093 5.1396093c-.5223066.5222418-1.2191163.8109895-1.957397.8109895-.7383276 0-1.4351386-.2887312-1.9573943-.8109868l-4.0860094-4.0854504c-.36041063-.3605178-.43838811-.9169186-.19071813-1.3619317l.04228647-.0761379-.07417437.0411957c-.4455256.2496276-1.00432289.1711256-1.36409766-.1898299l-.83260893-.8331679c-.52224187-.5223066-.81098958-1.2191163-.81098958-1.957397 0-.7383507.28874865-1.4352208.811012-1.9574194l5.15750915-5.1576036c-.09030921-.2176031-.04698875-.4775802.12996156-.6545305l1.42706579-1.4270658c.3724077-.3724077.884761-.5844935 1.4114781-.5844935h.1721084c.5267171 0 1.0390704.2120858 1.4114781.5844935l1.2717092 1.2717092c.8226005.8226005 2.3463848.7140123 3.0444855-.2164515l4.5376906-6.45834671c.6112345-.81523762 1.5821993-1.30083468 2.6015207-1.30083468zm-15.19098559 9.66606449-5.1255158 5.1256097c-.29724396.2972071-.45951771.6888409-.45951771 1.1088688 0 .41997.16228575.8116.45968637 1.1090376l.80162532.8021642 1.87290806-1.0402001c.52747071-.2929536 1.10880473.2883804.81585117.8158511l-1.04020595 1.8729181 4.05494583 4.054391c.2972793.2972794.6888816.459544 1.1088951.459544.41997 0 .8116-.1622857 1.1088952-.459544l5.125561-5.125561zm15.19098559-8.46606449c-.6415402 0-1.2567896.30769734-1.6305167.80568026l-4.5377188 6.45838433c-1.147104 1.529707-3.5249298 1.6991561-4.8639894.3600965l-1.2717093-1.2717093c-.1472939-.1472938-.3543935-.2330216-.5629499-.2330216h-.1721084c-.2085565 0-.4156561.0857278-.56295.2330216l-.9998587.9998587 9.3011287 9.30103.999838-.9998381c.1472939-.1472938.2330216-.3543935.2330216-.5629499v-.1721084c0-.2085564-.0857277-.4156561-.2330216-.5629499l-1.2717092-1.2717093c-.6073256-.6073256-.9430527-1.4179052-.9430527-2.2768393 0-1.0088395.4803781-1.9700554 1.3025812-2.5866667l6.4657617-4.54386441c.4954862-.37491137.7988135-.98823978.7988135-1.62485453 0-1.13097717-.9205828-2.05155995-2.05156-2.05155995zm.3063843.79055794c.4338299 0 .7855186.35168863.7855186.78551855 0 .43382991-.3516887.78551854-.7855186.78551854s-.7855185-.35168863-.7855185-.78551854c0-.43382992.3516886-.78551855.7855185-.78551855z"/></svg>