<svg fill="none" height="32" viewBox="0 0 33 32" width="33" xmlns="http://www.w3.org/2000/svg"><g clip-rule="evenodd" fill="#000" fill-rule="evenodd"><path d="m12.1074 10.8997c-.2982 0-.54.2417-.54.54v9.1205c0 .2983.2418.54.54.54h7.9858c.2982 0 .54-.2417.54-.54v-9.1205c0-.2983-.2418-.54-.54-.54zm.54 9.1205v-8.0405h6.9058v8.0405z"/><path d="m9.36422 5.38248c-.29823-.00001-.54.24176-.54.54l.00001 20.15512c0 .2982.24177.54.54001.54h1.55056c.2796-.0001.513-.2135.5378-.4921.0603-.6761.6288-1.1989 1.3113-1.1984.6843-.0002 1.2528.5225 1.3127 1.1982.0248.2786.2582.4923.5379.4923h2.6642c.2797 0 .5131-.2135.5379-.4921.0603-.6761.6287-1.1989 1.3112-1.1984.6844-.0003 1.2528.5224 1.3128 1.1982.0247.2786.2581.4923.5379.4923h1.8578c.2982 0 .54-.2418.54-.54v-20.15509c0-.29823-.2418-.53999-.54-.54h-1.5501c-.2795.00001-.5129.21338-.5378.49183-.0605.67599-.6292 1.19894-1.3131 1.19921-.6825-.00055-1.2514-.52392-1.312-1.19929-.025-.27842-.2583-.49176-.5378-.49176l-2.6632-.00001c-.2796 0-.513.21339-.5379.49186-.0605.67599-.6292 1.19893-1.3131 1.19918-.6825-.00053-1.2514-.5239-1.312-1.19927-.0249-.27842-.2583-.49176-.5378-.49176zm.53945 20.15522v-19.07534h.87563l.0519.14789c.3457.90562 1.2228 1.54249 2.2399 1.54328l.1683-.00589c.946-.06605 1.7467-.68142 2.0732-1.5371l.0494-.14755 1.7813-.00063.0518.14789c.3458.90561 1.2229 1.54249 2.24 1.5433l.1683-.0059c.9459-.06607 1.7466-.68143 2.0732-1.53708l.0494-.14758.5696-.00063v19.07534h-.8757l-.0506-.148c-.3454-.9063-1.223-1.543-2.2413-1.5426l-.1681.0057c-.9446.0651-1.7453.6806-2.0717 1.5366l-.0516.1483h-1.7807l-.0506-.148c-.3453-.9063-1.223-1.543-2.2412-1.5426l-.1681.0057c-.9447.0651-1.7454.6806-2.0718 1.5366l-.0516.1483z"/></g></svg>