<svg fill="none" height="32" viewBox="0 0 33 32" width="33" xmlns="http://www.w3.org/2000/svg"><path d="m11.2206 5.92246h-1.85732v20.15504h1.55062c.0845-.9482.8806-1.6912 1.8495-1.6904.97-.0004 1.7661.7425 1.8502 1.6904h2.6642c.0846-.9482.8806-1.6912 1.8496-1.6904.9699-.0004 1.766.7425 1.8501 1.6904h1.8578v-20.15504h-1.55c-.0848.9479-.8808 1.69065-1.8508 1.69105-.9689-.00079-1.765-.74393-1.85-1.69105h-2.6632c-.0848.9479-.8808 1.69065-1.8507 1.69105-.969-.00079-1.7651-.74393-1.85-1.69105z" fill="#f8c31c"/><path clip-rule="evenodd" d="m11.567 11.4391c0-.2982.2418-.54.54-.54h7.9858c.2982 0 .54.2418.54.54v9.1206c0 .2982-.2418.54-.54.54h-7.9858c-.2982 0-.54-.2418-.54-.54zm1.08.54v8.0406h6.9058v-8.0406z" fill="#af8c1d" fill-rule="evenodd"/><path d="m11.2206 5.92246h-1.85732v20.15504h1.55062c.0845-.9482.8806-1.6912 1.8495-1.6904.97-.0004 1.7661.7425 1.8502 1.6904h2.6642c.0846-.9482.8806-1.6912 1.8496-1.6904.9699-.0004 1.766.7425 1.8501 1.6904h1.8578v-20.15504l-1.55-.00001c-.0848.9479-.8808 1.69066-1.8508 1.69105-.9689-.00079-1.765-.74392-1.85-1.69104h-2.6632c-.0848.94789-.8808 1.69065-1.8507 1.69104-.969-.00079-1.7651-.74392-1.85-1.69104z" fill="#f8c31c"/><path clip-rule="evenodd" d="m11.567 11.4391c0-.2982.2418-.54.54-.54h7.9858c.2982 0 .54.2418.54.54v9.1206c0 .2982-.2418.54-.54.54h-7.9858c-.2982 0-.54-.2418-.54-.54zm1.08.54v8.0406h6.9058v-8.0406z" fill="#af8c1d" fill-rule="evenodd"/></svg>