<svg fill="none" height="32" viewBox="0 0 33 32" width="33" xmlns="http://www.w3.org/2000/svg"><g fill="#000"><path d="m12.6467 20.02v-8.0406h6.9058v8.0406z"/><path clip-rule="evenodd" d="m9.36328 5.92247h1.85732c.0849.94712.881 1.69026 1.85 1.69105.9699-.0004 1.7659-.74315 1.8507-1.69105h2.6632c.085.94712.8811 1.69026 1.85 1.69105.97-.0004 1.766-.74315 1.8508-1.69105h1.55v20.15503h-1.8578c-.0841-.9479-.8802-1.6908-1.8501-1.6904-.969-.0008-1.765.7423-1.8496 1.6904h-2.6642c-.0841-.9479-.8802-1.6908-1.8502-1.6904-.9689-.0008-1.765.7423-1.8495 1.6904h-1.55062zm2.74342 4.97693c-.2982 0-.54.2418-.54.54v9.1206c0 .2982.2418.54.54.54h7.9858c.2982 0 .54-.2418.54-.54v-9.1206c0-.2982-.2418-.54-.54-.54z" fill-rule="evenodd"/></g></svg>