<svg fill="none" height="96" viewBox="0 0 99 96" width="99" xmlns="http://www.w3.org/2000/svg"><path clip-rule="evenodd" d="m60.7101 16.4196c1.15-3.7908 5.1553-5.9316 8.9461-4.7816.3081.0935.6096.2076.9024.3415 3.8357 1.7552 5.5223 6.2876 3.7471 10.1656l-.1545.3143-7.6904 14.7313c-1.0786 2.066.1503 5.2024 2.5253 6.4423l3.2686 1.6927c2.082 1.0825 3.0761 3.5116 2.3595 5.7146l-2.3319 7.5984-.0171.038-.2217.7795c-4.2891 14.4921-14.7956 25.8449-24.0635 24.8034l-.5545-.0775-5.833-1.3196c-1.6402-.371-1.921-2.5886-.4252-3.3568.8844-.4542 1.7217-1.0088 2.5116-1.6652l.1583-.1438-.0666.0363-1.0679.4957c-3.9054 1.7474-6.9393 2.1635-10.0187.6345l-3.3789-1.6645c-2.1172-1.0509-3.5434-1.8171-5.009-2.7209-.9479-.5846-1.1429-1.8811-.4088-2.7186l1.5497-1.7679.1602-.1906-.0792.0116c-.8349.0598-1.695.0588-2.5821-.0033l-.8963-.0824c-3.4015-.6331-7.0453-3.0909-11.0239-7.3092-.9831-1.0424-.4134-2.7598.9978-3.0079 13.3344-2.344 19.6017-6.4329 25.8715-17.3394l.0152-.0254 2.7745-5.5147c1.0109-2.0104 3.2684-3.031 5.4174-2.5092l.428.1251 3.6349 1.2465c2.3164.7944 4.8382-.4394 5.6128-2.6949zm-20.5629 28.8921-.195.3232c-5.8227 9.4343-12.1614 13.9145-23.1197 16.4703l-.8083.1805.15.1378c2.2439 1.9865 4.2484 3.1956 5.9414 3.6419l.4539.1028c2.5456.2854 4.8232-.0584 6.8699-1.0228 1.5996-.7538 3.2135 1.0097 2.3213 2.5364-.5996 1.0261-1.7861 2.5563-3.6059 4.6702l-.1216.1337.2598.1438c.5675.3072 1.182.6263 1.8803.9783l.7276.3639 3.379 1.6646c1.8883.9375 3.9338.657 6.9296-.6833l1.0276-.477c3.1223-1.4906 5.7346-3.7266 7.8549-6.7318 1.2089-1.7133 3.8742-.3263 3.1646 1.6469-1.5888 4.4179-3.7169 7.9068-6.3914 10.4345l-.478.4301 1.7318.3954c6.8617 1.1453 16.1077-8.5019 20.1912-21.3021l.088-.2913-2.421-1.182zm19.0456-11.5073 4.9621-16.3393c.573-1.8886 2.5681-2.955 4.4563-2.3821.1534.0465.3036.1033.4494.1701 2.0278.9279 2.9195 3.324 1.9916 5.3518l-.1134.2302-7.6693 14.6896c-2.0541 3.9345.0039 9.1871 4.0559 11.3024l3.2712 1.6941.205.1349c.3751.3068.5355.8213.38 1.2995l-1.7244 5.6101-2.472-1.203-25.092-12.249 1.9977-3.9664c.2696-.5362.8938-.7907 1.4614-.5961l3.6349 1.2466c4.1971 1.4393 8.7663-.7963 10.2056-4.9934z" fill="#000" fill-rule="evenodd"/></svg>