<svg fill="none" height="96" viewBox="0 0 99 96" width="99" xmlns="http://www.w3.org/2000/svg"><path clip-rule="evenodd" d="m71.2892 10.501c-.2193-.1003-.4451-.1858-.6759-.2558-2.8395-.86139-5.8397.7422-6.7011 3.5817l-4.9425 16.2783c-1.1168 3.2568-4.6623 4.9915-7.919 3.8747l-3.6349-1.2466c-1.4191-.4866-2.9795.1498-3.6534 1.4901l-2.8142 5.5966 30.483 14.8469 2.4488-7.5309c.4535-1.3947-.1678-2.9128-1.4691-3.5894l-3.3829-1.7589c-3.1007-1.6187-4.302-5.4445-2.6833-8.5452l7.6904-14.7313.1334-.2726c1.3416-2.9318.0524-6.396-2.8793-7.7376zm-.7337 47.6026-31.1129-15.1364c-6.7873 11.8067-13.8274 15.8784-27.1203 18.2151 0 0 5.6116 5.9498 10.0437 6.7747 4.3026.4824 7.8377-1.1833 7.8377-1.1833-.5288.9048-1.6639 2.3687-3.4055 4.3919l-1.5602 1.7801c1.5833.9764 3.1299 1.7796 4.8645 2.6407l3.374 1.6621c2.8818 1.4308 5.8337.5248 8.4881-.6629l1.045-.4852c3.4046-1.6254 6.2547-4.0649 8.5503-7.3185-2.1785 6.0578-5.3696 10.1661-9.5732 12.325l5.833 1.3196c8.4436 1.4093 18.8097-10.1121 22.7358-24.3229z" fill="#000" fill-rule="evenodd"/></svg>