<svg fill="none" height="96" viewBox="0 0 99 96" width="99" xmlns="http://www.w3.org/2000/svg"><path clip-rule="evenodd" d="m70.0389 70.0855c1.3171.0048 2.5072-.7849 3.0146-2.0004s.2319-2.617-.6978-3.55c-.9296-.9331-2.3301-1.2136-3.5474-.7107-1.2174.5029-2.0114 1.6901-2.0114 3.0073 0 1.7924 1.4496 3.2473 3.242 3.2538z" fill="#f5f5f5" fill-rule="evenodd"/><path clip-rule="evenodd" d="m64.7479 79.3394c1.3171.0048 2.5072-.7849 3.0146-2.0004.5073-1.2155.2319-2.617-.6978-3.55-.9296-.9331-2.3301-1.2136-3.5474-.7107-1.2174.5029-2.0114 1.6901-2.0114 3.0073-.0001 1.7924 1.4496 3.2473 3.242 3.2538z" fill="#f5f5f5" fill-rule="evenodd"/><path d="m39.4544 42.9291 31.1128 15.1364c-3.9261 14.2108-13.7052 26.2516-22.6868 24.485l-5.882-1.4817c4.2036-2.1589 7.3947-6.2672 9.5732-12.325-2.2956 3.2537-5.1456 5.6932-8.5502 7.3185l-1.0451.4853c-2.6544 1.1876-5.6062 2.0937-8.488.6628l-3.3741-1.6621c-1.7346-.8611-3.2812-1.6643-4.8645-2.6407l1.5603-1.7801c1.7415-2.0232 2.8767-3.4871 3.4054-4.3919 0 0-3.4054 2.0082-7.8376 1.1833s-10.0438-6.7746-10.0438-6.7746c13.2929-2.3368 20.333-6.4085 27.1204-18.2152z" fill="#252d4f"/><path d="m39.4544 42.9291 27.3161 13.3333c-4.2132 12.9734-11.3914 25.6127-21.5413 25.6127l-3.2308-.8063c.2492-.128.4948-.2628.7369-.4045 3.9957-2.3164 8.2217-7.0369 10.125-16.7904-2.2956 3.2537-14.6518 14.1218-22.6449 11.6744h-.1012c-1.7346-.8611-3.2812-1.6643-4.8645-2.6407l1.5603-1.7801.9721-1.1468c1.1992-1.4396 2.0103-2.5213 2.4333-3.2451l-.0871.0385c1.072-1.549 2.0125-3.0751 2.3721-4.0304-5.5374 2.535-10.0576 3.4519-13.5605 2.7508-1.0945-.2191-2.0619-.5113-2.9024-.8766-1.1853-.9554-2.4213-2.1142-3.7035-3.4736 12.9431-2.2753 19.9582-6.1954 26.5839-17.299z" fill="#353f6b"/><g clip-rule="evenodd" fill-rule="evenodd"><path d="m71.9324 10.1048c2.9326 1.3419 4.1319 4.8748 2.6223 7.7247l-10.757 20.3075c-.2128.4018-.0575.9.3459 1.1097l8.3073 4.3193c1.2847.668 1.909 2.1583 1.4839 3.5424l-3.3767 10.9952-31.1128-15.1364 4.3262-8.7241c.6693-1.3497 2.2358-1.9937 3.6609-1.505l8.9825 3.0804c.4112.141.8579-.0848.9882-.4996l6.8454-21.795c1.0111-3.2193 4.6156-4.8232 7.6839-3.4191z" fill="#8a6d11"/><path d="m71.1129 9.77619.1849.0629c.0804 1.05681-.098 2.14831-.5703 3.18031l-.0806.1696-9.1005 17.1862c-1.7375 3.2802-.6169 7.3135 2.485 9.2478l.4828.2755 4.0645 2.1132c1.2847.668 1.909 2.1583 1.4839 3.5425l-3.2903 10.7082-27.327-13.2952 4.3262-8.7241c.6693-1.3497 2.2358-1.9937 3.6609-1.505l3.621 1.2418c3.2887 1.1278 6.8691-.624 7.9969-3.9128l5.26-16.7401c.8979-2.859 3.9436-4.44878 6.8026-3.55081z" fill="#af8c1d"/><path d="m75.3241 79.0855c1.3171.0048 2.5072-.7849 3.0146-2.0004.5073-1.2155.2319-2.617-.6978-3.55-.9297-.9331-2.3301-1.2136-3.5475-.7107-1.2173.5029-2.0114 1.6901-2.0114 3.0073 0 1.7924 1.4496 3.2473 3.2421 3.2538z" fill="#f5f5f5"/></g></svg>