<svg height="32" viewBox="0 0 32 32" width="32" xmlns="http://www.w3.org/2000/svg"><path d="m17.5299822 3.20483287c.4418278 0 .8.3581722.8.8 0 .40784105-.3051882.74440158-.6996497.79376687l-.1003503.00623313h-.7506002l.0006294.94585318c2.3412676.16383407 4.4697669 1.11696458 6.1201772 2.59407066l1.4846535-1.48430906c.3124194-.31241944.8189514-.31241944 1.1313708 0 .3124195.31241943.3124195.81895141 0 1.13137085l-1.5097156 1.5085683c1.4522435 1.7724917 2.3250067 4.0367904 2.3250067 6.4996132 0 5.6599203-4.6212448 10.2745301-10.2850801 10.2745301-5.379067 0-9.84422148-4.175777-10.2438592-9.507099l-1.46068868.0073966c-.38107159.0019297-.69155546-.3054256-.69348513-.6864972-.00076026-.1501356.04746943-.2964225.13737208-.4166672l2.19419003-2.9347282c.2281893-.3052031.66058927-.3676351.96579236-.1394458.0521938.0390234.09859603.0852442.13782355.1372848l1.54543349 2.0500716c.58292696-3.5407678 3.6690616-6.25485498 7.3709976-6.25485498 4.1155523 0 7.4700093 3.35445698 7.4700093 7.47000928s-3.354457 7.4700093-7.4700093 7.4700093c-3.8525141 0-7.03811195-2.9393713-7.42957848-6.6908987l-1.19541327.0129386c.39943598 4.4585267 4.16102615 7.923425 8.68196565 7.923425 4.803726 0 8.7154742-3.9117482 8.7154742-8.7154742s-3.9117482-8.71547419-8.7154742-8.71547419c-2.3279754 0-4.5156851.90497808-6.16309064 2.55238358-.03012472.03012473-.06219655.0572195-.09583473.08128654-.03313661.05734395-.0742375.11074717-.12292624.15943597-.28401767.2840176-.72845893.3098374-1.04164452.0774593l-.08972633-.0774593-2-2.00000005c-.31241943-.31241943-.31241943-.81895142 0-1.13137085.28401767-.28401767.72845893-.30983745 1.04164452-.07745936l.08972633.07745936 1.45891255 1.45798857c1.70536116-1.5567551 3.84952196-2.47985146 6.14568736-2.65008165l-.0003402-.94933505h-.7493998c-.4078411 0-.7444016-.30518815-.7937669-.6996497l-.0062331-.1003503c0-.40784104.3051881-.74440158.6996497-.79376686l.1003503-.00623314zm-5.7433179 8.72948173c-.3124194.3124194-.3124194.8189514 0 1.1313708l4 4c.3124194.3124195.8189514.3124195 1.1313709 0 .3124194-.3124194.3124194-.8189514 0-1.1313708l-4-4c-.3124195-.3124195-.8189515-.3124195-1.1313709 0z"/></svg>