<svg height="32" viewBox="0 0 32 32" width="32" xmlns="http://www.w3.org/2000/svg"><g fill="none"><path d="m7.12 8.7c-.69 0-1.25.56-1.25 1.25s.56 1.25 1.25 1.25 1.25-.56 1.25-1.25-.56-1.24-1.25-1.25z" fill="#b34874"/><path d="m7.12 18.6c-.69 0-1.25.56-1.25 1.25s.56 1.25 1.25 1.25 1.25-.56 1.25-1.25-.56-1.24-1.25-1.25z" fill="#b34874"/><g fill="#252d4f"><path d="m11.71 12.1c-.33 0-.6.27-.6.6s.27.6.6.6h7.91c.33 0 .6-.27.6-.6s-.27-.6-.6-.6z"/><path d="m11.71 9.97h13.82c.33 0 .6-.27.6-.6s-.27-.6-.6-.6h-13.82c-.33 0-.6.27-.6.6s.27.6.6.6z"/><path d="m19.63 22.1h-7.91c-.33 0-.6.27-.6.6s.27.6.6.6h7.91c.33 0 .6-.27.6-.6s-.27-.6-.6-.6z"/><path d="m25.53 18.77h-13.82c-.33 0-.6.27-.6.6s.27.6.6.6h13.82c.33 0 .6-.27.6-.6s-.27-.6-.6-.6z"/></g></g></svg>