<svg fill="none" height="32" viewBox="0 0 32 32" width="32" xmlns="http://www.w3.org/2000/svg"><path d="m15.9991 4.87c-6.13196 0-11.12996 4.998-11.12996 11.13s4.998 11.13 11.12996 11.13c6.132 0 11.13-4.998 11.13-11.13s-4.998-11.13-11.13-11.13z" fill="#b5e0db"/><path d="m16 4.85v22.26c-1.0299 0-2.0279-.141-2.9755-.4047-4.69445-1.3062-8.1545-5.6232-8.1545-10.7253 0-5.0997 3.45685-9.41506 8.1479-10.72349.9496-.26486 1.9498-.40651 2.9821-.40651z" fill="#8dd2c9"/><g clip-rule="evenodd" fill-rule="evenodd"><path d="m27.916 15.98c0-6.57667-5.3599-11.9365-11.9365-11.9365-6.5767 0-11.93653 5.35983-11.93653 11.9365 0 6.5767 5.35983 11.9365 11.93653 11.9365 6.5766 0 11.9365-5.3598 11.9365-11.9365zm-2.3165 0c0 5.3009-4.3191 9.62-9.62 9.62-5.301 0-9.62003-4.3191-9.62003-9.62s4.31903-9.62 9.62003-9.62c5.3009 0 9.62 4.3191 9.62 9.62z" fill="#4b8f87"/><path d="m17 8c.5523 0 1 .44772 1 1v8.3849c0 .5523-.4477 1-1 1h-5.8066c-.5523 0-1-.4477-1-1s.4477-1 1-1h4.8066v-7.3849c0-.55228.4477-1 1-1z" fill="#252d4f"/></g></svg>