<svg height="32" viewBox="0 0 32 32" width="32" xmlns="http://www.w3.org/2000/svg"><path d="m22.67 5.4c.33 0 .6.27.6.6v2.03c0 1.9-.81 3.72-2.23 4.99l-3.31 2.98 3.31 2.98c1.41 1.27 2.22 3.09 2.22 4.99v2.03c0 .33-.27.6-.6.6h-13.33c-.33 0-.6-.27-.6-.6v-2.03c0-1.9.81-3.72 2.22-4.99l3.31-2.98-3.31-2.98c-1.41-1.27-2.22-3.09-2.22-4.99v-2.03c0-.33.27-.6.6-.6zm-6.2512 14.4771c-.2853-.1944-.6678-.1701-.9288.0729l-3.25 2.97-.0791211.0840625c-.1677539.2078125-.2158789.4921875-.1108789.7459375.12.29.39.48.7.48h6.5l.1020302-.0069136c.2680933-.0365432.500192-.2153086.5979698-.4730864.11-.29.03-.62-.19-.83l-3.25-2.97zm1.1112-8.6271h-3.05l-.1020302.0069136c-.2680933.0365432-.500192.2153086-.5979698.4730864-.11.29-.04.62.19.83l1.53 1.39.08856.07072c.12384.08448.26944.12928.42144.12928.18 0 .36-.07.51-.2l1.53-1.39.0791211-.0840625c.1677539-.2078125.2158789-.4921875.1108789-.7459375-.13-.29-.4-.48-.71-.48z"/></svg>