<svg height="32" viewBox="0 0 32 32" width="32" xmlns="http://www.w3.org/2000/svg"><path d="m15.8488424 3.9h1.5004419c.3313709 0 .6.26862915.6.6 0 .29823376-.2175896.54564675-.5026768.59214701l-.0973232.00785299-.9004419-.001.0004447 1.30806993c2.2288909.08518316 4.2664978.93540952 5.8568615 2.29471999l1.6270357-1.62605399c.2343145-.23431457.6142135-.23431457.8485281 0 .2343146.23431458.2343146.61421356 0 .84852814l-1.6129239 1.61263561c1.5580904 1.70753442 2.5099378 3.97710272 2.5099378 6.46310032 0 5.29-4.32 9.6-9.61 9.6-5.09 0-9.26999999-3.99-9.57999999-9.01l-.88-.01c-.23 0-.44-.14-.53-.34-.1-.21-.07-.45.07-.63l1.43-1.79c.11-.14.29-.23.47-.23s.35.08.47.22l1.47 1.83c.15.18.17.43.07.64s-.32.34-.55.34l-.81-.01c.31 4.35 3.94999999 7.79 8.37999999 7.79 4.63 0 8.4-3.77 8.4-8.4s-3.77-8.4-8.4-8.4c-2.24 0-4.35.87-5.94 2.46-.22999999.23-.60999999.23-.84999999 0l-.0342541-.0372489-.06730366-.0442541-.06214828-.05423293-2-2c-.23431457-.23431458-.23431457-.61421356 0-.84852814.20827962-.20827962.53158891-.2314218.76543067-.06942654l.08309747.06942654 1.73704684 1.73660422c1.54864345-1.37539666 3.47434425-2.20220987 5.53826365-2.37730469l-.0000165-1.33603546-.8995581.001c-.2982337 0-.5456467-.21758961-.592147-.50267688l-.007853-.09732312c0-.29823376.2175897-.54564675.5026769-.59214701l.0973231-.00785299h3zm-3.0693984 8.1063094.0830975.0694265 4 4c.2343146.2343146.2343146.6142136 0 .8485282-.2082796.2082796-.5315889.2314218-.7654307.0694265l-.0830974-.0694265-4-4c-.2343146-.2343146-.2343146-.6142136 0-.8485282.2082796-.2082796.5315889-.2314218.7654306-.0694265z"/></svg>