<svg height="32" viewBox="0 0 32 32" width="32" xmlns="http://www.w3.org/2000/svg"><g fill="none"><path d="m20.804559 12.3257268-3.5154353 3.158621c-.2820429.2580393-.3061658.6959618-.077651.9529211l.0741533.075212 3.5170768 3.1601201c1.3258185 1.188665 2.0856547 2.9042714 2.0856547 4.695899v1.5015c0 .2899495-.2350505.525-.525.525h-12.73661584c-.28994949 0-.525-.2350505-.525-.525v-1.5015c0-1.7787996.76050249-3.4861124 2.08511564-4.6955191l3.5143929-3.1576858c.1440615-.1315344.2226355-.2947265.2290807-.4860958.0113607-.176092-.0497168-.3471091-.1518203-.4664682l-.0741533-.075212-3.5170768-3.1601201c-1.32577887-1.1886294-2.08553884-2.90421642-2.08553884-4.695899v-1.5015c0-.28994949.23505051-.525.525-.525h12.73661584c.2899495 0 .525.23505051.525.525l-.0000105 1.49817183c.0112912 1.78108464-.7501153 3.49035127-2.083788 4.69755497z" fill="#77c4de"/><path d="m16.0130674 26.395v-20.79h6.3502901c.2899495 0 .5251133.23505051.5251133.525v1.49817183c.0111674 1.78108464-.7502391 3.49035127-2.0839118 4.69755497l-.001433.0012923-3.5140023 3.1573287c-.2820429.2580393-.3061658.6959618-.077651.9529211l.0741533.075212 3.5170768 3.1601201c1.3258185 1.188665 2.085768 2.9042714 2.085768 4.695899v1.5015c0 .2899495-.2351638.525-.5251133.525z" fill="#afdfef"/><g fill="#b34874"><path d="m15.4629563 20.1475-3.4125 3.1185c-.2415.2205-.3255.567-.1995.8715s.4095.504.735.504h6.825c.3255 0 .6195-.1995.735-.504s.0315-.651-.1995-.8715l-3.4125-3.1185c-.3045-.2835-.7665-.2835-1.071 0z"/><path d="m17.5887805 11.0125h-3.2025c-.3255 0-.6195.1995-.735.504s-.042.651.1995.8715l1.6065 1.4595c.147.1365.336.21.5355.21.189 0 .378-.0735.5355-.21l1.6065-1.4595c.2415-.2205.3255-.567.1995-.8715-.1365-.3045-.42-.504-.7455-.504z"/></g></g></svg>