<svg height="32" viewBox="0 0 32 32" width="32" xmlns="http://www.w3.org/2000/svg"><g fill="none"><path d="m16 8.52999072c-4.1155523 0-7.47000928 3.35445698-7.47000928 7.47000928s3.35445698 7.4700093 7.47000928 7.4700093 7.4700093-3.354457 7.4700093-7.4700093-3.354457-7.47000928-7.4700093-7.47000928z" fill="#b5e0db"/><g transform="translate(3.648382 3.204833)"><path d="m13.8816001 0c.4418278 0 .8.3581722.8.8s-.3581722.8-.8.8h-.7506001l.0006294.94585318c2.3412675.16383406 4.4697669 1.11696458 6.1201771 2.59407065l1.4846535-1.48430905c.3124195-.31241944.8189514-.31241944 1.1313709 0 .3124194.31241943.3124194.81895141 0 1.13137085l-1.5097157 1.5085683c1.4522435 1.77249173 2.3250067 4.03679047 2.3250067 6.49961317 0 5.6599203-4.6212447 10.2745301-10.2850801 10.2745301-5.37906699 0-9.84422142-4.175777-10.24385914-9.507099l-1.46068868.0073966c-.38107159.0019297-.69155546-.3054255-.69348513-.6864971-.00076026-.1501357.04746943-.2964225.13737208-.4166673l2.19419003-2.93472821c.2281893-.30520309.66058927-.3676351.96579236-.1394458.05219381.03902342.09859603.08524429.13782355.13728488l2.21425878 2.93751283c.22938274.3043072.16864452.7369483-.13566263.966331-.11769856.0887197-.26071373.1374193-.40809668.1389653l-1.37906013.0144659c.39943598 4.4585267 4.16102614 7.923425 8.68196559 7.923425 4.8037261 0 8.7154742-3.9117481 8.7154742-8.7154742 0-4.803726-3.9117481-8.71547416-8.7154742-8.71547416-2.3279753 0-4.51568507.90497808-6.16309057 2.55238358-.03012473.03012473-.06219656.0572195-.09583474.08128654-.03313661.05734394-.0742375.11074718-.12292624.15943592-.31241943.31241943-.81895141.31241943-1.13137085 0l-2-2c-.31241943-.31241943-.31241943-.81895142 0-1.13137085.31241944-.31241943.81895142-.31241943 1.13137085 0l1.45891255 1.45798857c1.70536117-1.5567551 3.84952192-2.47985146 6.1456873-2.65008165l-.0003401-.94933505h-.7493999c-.407841 0-.7444015-.30518815-.7937668-.6996497l-.0062332-.1003503c0-.4418278.3581722-.8.8-.8z" fill="#45889f"/><path d="m13.2696531 12.7294817-3.99999998-4c-.31241944-.31241943-.81895142-.31241943-1.13137085 0-.31241944.31241944-.31241944.81895142 0 1.13137085l4.00000003 4.00000005c.3124194.3124194.8189514.3124194 1.1313708 0 .3124194-.3124195.3124194-.8189515 0-1.1313709z" fill="#b75c64"/></g></g></svg>