<svg height="32" viewBox="0 0 32 32" width="32" xmlns="http://www.w3.org/2000/svg"><path d="m23.27 8.03v-2.03c0-.33-.27-.6-.6-.6h-13.34c-.33 0-.6.27-.6.6v2.03c0 1.9.81 3.72 2.22 4.99l3.31 2.98-3.31 2.98c-1.41 1.27-2.22 3.09-2.22 4.99v2.03c0 .33.27.6.6.6h13.33c.33 0 .6-.27.6-.6v-2.03c0-1.9-.81-3.72-2.22-4.99l-3.31-2.98 3.31-2.98c1.42-1.27 2.23-3.09 2.23-4.99zm-3.03 4.1-3.35 3.01c-.47.43-.51 1.16-.09 1.63l.09.09 3.35 3.01c1.16 1.04 1.8201104 2.54 1.8201104 4.1v1.43h-12.1301104v-1.43c0-1.56.67-3.05 1.82-4.1l3.35-3.01c.23-.21.37-.49.38-.8.02-.31-.09-.6-.29-.83l-.09-.09-3.35-3.01c-1.16-1.04-1.82-2.54-1.82-4.1v-1.43h12.1301104v1.43c.0098896 1.56-.6601104 3.05-1.8201104 4.1zm-4.75 7.82-3.25 2.97c-.23.21-.31.54-.19.83s.39.48.7.48h6.5c.31 0 .59-.19.7-.48s.03-.62-.19-.83l-3.25-2.97c-.29-.27-.73-.27-1.02 0zm2.04-8.7h-3.05c-.31 0-.59.19-.7.48s-.04.62.19.83l1.53 1.39c.14.13.32.2.51.2.18 0 .36-.07.51-.2l1.53-1.39c.23-.21.31-.54.19-.83-.13-.29-.4-.48-.71-.48z"/></svg>