<svg fill="none" height="32" viewBox="0 0 32 32" width="32" xmlns="http://www.w3.org/2000/svg"><g clip-rule="evenodd" fill-rule="evenodd"><path d="m5.40039 16c0-5.84 4.76001-10.6 10.60001-10.6s10.6 4.76 10.6 10.6-4.76 10.6-10.6 10.6-10.60001-4.76-10.60001-10.6zm1.2 0c0 5.18 4.22001 9.4 9.40001 9.4s9.4-4.22 9.4-9.4-4.22-9.4-9.4-9.4-9.40001 4.22-9.40001 9.4z" fill="#000"/><path d="m16.9996 8.4c.3314 0 .6.26863.6.6v8.3849c0 .3314-.2686.6-.6.6h-5.8066c-.3314 0-.6-.2686-.6-.6s.2686-.6.6-.6h5.2066v-7.7849c0-.33137.2686-.6.6-.6z" fill="#252d4f"/></g></svg>