<svg height="32" viewBox="0 0 32 32" width="32" xmlns="http://www.w3.org/2000/svg"><path d="m7.12 8.7c-.69 0-1.25.56-1.25 1.25s.56 1.25 1.25 1.25 1.25-.56 1.25-1.25-.56-1.24-1.25-1.25zm0 9.9c-.69 0-1.25.56-1.25 1.25s.56 1.25 1.25 1.25 1.25-.56 1.25-1.25-.56-1.24-1.25-1.25zm4.59-6.5c-.33 0-.6.27-.6.6s.27.6.6.6h7.91c.33 0 .6-.27.6-.6s-.27-.6-.6-.6zm0-2.13h13.82c.33 0 .6-.27.6-.6s-.27-.6-.6-.6h-13.82c-.33 0-.6.27-.6.6s.27.6.6.6zm7.92 12.13h-7.91c-.33 0-.6.27-.6.6s.27.6.6.6h7.91c.33 0 .6-.27.6-.6s-.27-.6-.6-.6zm5.9-3.33h-13.82c-.33 0-.6.27-.6.6s.27.6.6.6h13.82c.33 0 .6-.27.6-.6s-.27-.6-.6-.6z"/></svg>