<svg height="32" viewBox="0 0 32 32" width="32" xmlns="http://www.w3.org/2000/svg"><path d="m21.1458451 7.85415485c.8156063 0 1.5551941.32547347 2.0959663.85362319l-7.2568114 8.79722196-2.9987089-3.230374-.1013655-.0973665c-.5142366-.4322957-1.2496822-.4164247-1.7298536.0293519-.5244627.4868954-.5549171 1.3067631-.0680217 1.8312258l4.0075791 4.3167917.1028926.098721c.5645808.4732806 1.3874043.4006139 1.8463645-.1558593l7.1012684-8.6113357.0006902 9.4596902c0 1.6568543-1.3431457 3-3 3h-10.2916902c-1.6568543 0-3.00000005-1.3431457-3.00000005-3v-10.2916902c0-1.6568543 1.34314575-3.00000005 3.00000005-3.00000005z" fill-rule="evenodd"/></svg>