<svg height="32" viewBox="0 0 32 32" width="32" xmlns="http://www.w3.org/2000/svg"><g fill="none" fill-rule="evenodd"><path d="m10.5853882 8.79904719h10.8292236c1.7433915 0 3.1566896 1.41329801 3.1566896 3.15668951v10.8292237c0 1.7433915-1.4132981 3.1566895-3.1566896 3.1566895h-10.8292236c-1.74339153 0-3.15668957-1.413298-3.15668957-3.1566895v-10.8292237c0-1.7433915 1.41329804-3.15668951 3.15668957-3.15668951z" fill="#b5d588"/><path d="m10.5853882 6.05835006h10.8292236c1.7433915 0 3.1566896 1.41329804 3.1566896 3.15668953v10.82922371c0 1.7433915-1.4132981 3.1566895-3.1566896 3.1566895h-10.8292236c-1.74339153 0-3.15668957-1.413298-3.15668957-3.1566895v-10.82922371c0-1.74339149 1.41329804-3.15668953 3.15668957-3.15668953z" fill="#d2eab1"/><path d="m15.719 16.109-3.4437012-3.7100144-.1066678-.1021458c-.5117934-.4299914-1.2507388-.4140448-1.7331487.0338099-.52692444.4891808-.55752175 1.3128968-.068341 1.8398213l4.4570907 4.8009863.1083036.1035923c.562257.471076 1.3890083.3980624 1.8501031-.1609988l9.7308711-11.79833941.0871191-.11926488c.3584018-.56424572.2447039-1.29456585-.2631109-1.71339431-.5546737-.45747606-1.3751831-.37868184-1.8326592.17599182z" fill="#257843" fill-rule="nonzero"/></g></svg>