<svg height="32" viewBox="0 0 32 32" width="32" xmlns="http://www.w3.org/2000/svg"><g fill="none" fill-rule="evenodd" stroke="#000" stroke-width="1.2"><path d="m21.1458451 8.45415485c.6627417 0 1.2627417.26862915 1.6970563.70294373.4343146.43431457.7029437 1.03431462.7029437 1.69705632v10.2916902c0 .6627417-.2686291 1.2627417-.7029437 1.6970563s-1.0343146.7029437-1.6970563.7029437h-10.2916902c-.6627417 0-1.26274175-.2686291-1.69705632-.7029437-.43431458-.4343146-.70294373-1.0343146-.70294373-1.6970563v-10.2916902c0-.6627417.26862915-1.26274175.70294373-1.69705632.43431457-.43431458 1.03431462-.70294373 1.69705632-.70294373z"/><path d="m12 15.1115422.1013257.0964002 3.8494348 4.1462125 9.4867138-11.50000005" stroke-linecap="round" stroke-linejoin="round"/></g></svg>