<svg height="32" viewBox="0 0 32 32" width="32" xmlns="http://www.w3.org/2000/svg"><path d="m7.66098011 8.5091103c.32044954-.34831472.84526549-.36982357 1.20291391-.05502441.34443319.31573043.36632786.85433933.04544334 1.20312587-1.58500062 1.73085954-2.4543745 3.97950404-2.4543745 6.34116264 0 2.3458881.87552141 4.6063718 2.45767838 6.3448431.3121522.3547184.29029705.8923551-.05090168 1.1919336-.15289356.1528936-.36328099.2332233-.5767767.2332233-.23293919 0-.45856314-.1015308-.62490133-.2817398-1.86496327-2.0494101-2.89509867-4.7105933-2.89509867-7.4882602 0-2.7771432 1.02650423-5.4358696 2.89601725-7.4892641zm15.48882579-.05841425c.3541865-.31168415.8907432-.29036184 1.2014393.06093529 1.870166 2.05489446 2.8939501 4.71422616 2.8837177 7.48674306 0 2.7771433-1.0265043 5.4358696-2.8891535 7.4814856-.1550286.1832157-.3929258.2885144-.6308465.2885144-.1986897 0-.3939952-.0795689-.5692642-.2260172-.3483147-.3204496-.3698235-.8452655-.0551103-1.2028201 1.5850006-1.7308596 2.4543745-3.979504 2.4543745-6.3411627 0-2.3458881-.8755214-4.6063717-2.4576784-6.344843-.3121522-.35471841-.2902971-.89235511.0625214-1.20283535zm-11.9728556 3.90900335c.2586609-.3879914.7968575-.4952504 1.1801462-.2269977.3894533.265627.4934297.7880217.2358789 1.1743478-.5341937.8012907-.8180125 1.7334886-.8180125 2.6913249 0 .9761784.2783905 1.8960776.8144516 2.6861267.268791.3819662.1635869.9079864-.2302328 1.1847887-.1477117.0939984-.3037795.1390846-.4742188.1390846-.276725 0-.5404314-.1337641-.706769-.3694774-.7262856-1.0686773-1.113231-2.3369986-1.113231-3.6405226 0-1.299672.3847988-2.558285 1.1119874-3.638675zm8.4741392-.2257766c.3806869-.2678908.903385-.1642151 1.1906423.223929.7262856 1.0686774 1.1132311 2.3369987 1.1132311 3.6405226 0 1.299672-.3847989 2.558285-1.1157581 3.6441708-.1638106.2320651-.427517.3658292-.7042419.3658292-.1758773 0-.343705-.0474295-.4786751-.1419874-.3885791-.2590527-.4955747-.7984886-.2293375-1.1766876.5341938-.8012907.8180126-1.7334886.8180126-2.691325 0-.9761783-.2783906-1.8960775-.8144516-2.6861266-.2687911-.3819662-.163587-.9079865.2205782-1.178325zm-3.6510895 2.3660772c.84 0 1.5.675 1.5 1.5 0 .84-.675 1.5-1.5 1.5s-1.5-.675-1.5-1.5c0-.84.675-1.5 1.5-1.5z"/></svg>