<svg height="32" viewBox="0 0 32 32" width="32" xmlns="http://www.w3.org/2000/svg"><g fill="none"><path d="m11.1769503 12.3596994c-.7271886 1.08039-1.1119874 2.339003-1.1119874 3.638675 0 1.303524.3869454 2.5718453 1.113231 3.6405226.1663376.2357133.430044.3694774.706769.3694774.1704393 0 .3265071-.0450862.4742188-.1390846.3938197-.2768023.4990238-.8028225.2302328-1.1847887-.5360611-.7900491-.8144516-1.7099483-.8144516-2.6861267 0-.9578363.2838188-1.8900342.8180125-2.6913249.2575508-.3863261.1535744-.9087208-.2358789-1.1743478-.3832887-.2682527-.9214853-.1609937-1.1801462.2269977z" fill="#ff905e"/><path d="m19.4305113 13.3122478c.536061.7900491.8144516 1.7099483.8144516 2.6861266 0 .9578364-.2838188 1.8900343-.8180126 2.691325-.2662372.378199-.1592416.9176349.2293375 1.1766876.1349701.0945579.3027978.1419874.4786751.1419874.2767249 0 .5404313-.1337641.7042419-.3658292.7309592-1.0858858 1.1157581-2.3444988 1.1157581-3.6441708 0-1.3035239-.3869455-2.5718452-1.1132311-3.6405226-.2872573-.3881441-.8099554-.4918198-1.1906423-.223929-.3841652.2703385-.4893693.7963588-.2205782 1.178325z" fill="#ff905e"/><path d="m7.66098011 8.5091103c-1.86951302 2.0533945-2.89601725 4.7121209-2.89601725 7.4892641 0 2.7776669 1.0301354 5.4388501 2.89509867 7.4882602.16633819.180209.39196214.2817398.62490133.2817398.21349571 0 .42388314-.0803297.5767767-.2332233.34119873-.2995785.36305388-.8372152.05090168-1.1919336-1.58215697-1.7384713-2.45767838-3.998955-2.45767838-6.3448431 0-2.3616586.86937388-4.6103031 2.4543745-6.34116264.32088452-.34878654.29898985-.88739544-.04544334-1.20312587-.35764842-.31479916-.88246437-.29329031-1.20291391.05502441z" fill="#ffcab2"/><path d="m23.1498059 8.45069605c-.3528185.31048024-.3746736.84811694-.0625214 1.20283535 1.582157 1.7384713 2.4576784 3.9989549 2.4576784 6.344843 0 2.3616587-.8693739 4.6103031-2.4543745 6.3411627-.3147132.3575546-.2932044.8823705.0551103 1.2028201.175269.1464483.3705745.2260172.5692642.2260172.2379207 0 .4758179-.1052987.6308465-.2885144 1.8626492-2.045616 2.8891535-4.7043423 2.8891535-7.4814856.0102324-2.7725169-1.0135517-5.4318486-2.8837177-7.48674306-.3106961-.35129713-.8472528-.37261944-1.2014393-.06093529z" fill="#ffcab2"/><path d="m16 14.5c-.825 0-1.5.66-1.5 1.5 0 .825.675 1.5 1.5 1.5s1.5-.66 1.5-1.5c0-.825-.66-1.5-1.5-1.5z" fill="#c54e1a"/></g></svg>