<svg height="32" viewBox="0 0 32 32" width="32" xmlns="http://www.w3.org/2000/svg"><path d="m12.2149629 12.3383744c-.27-.19-.65-.11-.83.16-.7 1.04-1.07 2.25-1.07 3.5s.37 2.47 1.07 3.5c.12.17.31.26.5.26.12 0 .23-.03.34-.1.27-.19.35-.56.16-.83-.57-.84-.86-1.81-.86-2.83 0-1.01.3-1.99.86-2.83.18-.27.11-.64-.17-.83zm7.58 0c-.27.19-.35.56-.16.83.57.84.86 1.81.86 2.83 0 1.01-.3 1.99-.86 2.83-.19.27-.11.65.16.83.1.07.22.1.34.1.19 0 .38-.09.5-.26.7-1.04 1.07-2.25 1.07-3.5s-.37-2.47-1.07-3.5c-.2-.27-.57-.35-.84-.16zm-11.10000004-3.69999997c-.25-.22-.62-.21-.85.04-1.83 2.00999997-2.83 4.60999997-2.83 7.31999997 0 2.72 1.01 5.32 2.83 7.32.12.13.28.2.44.2.14 0 .29-.05.4-.16.25-.22.26-.6.04-.85-1.62-1.78-2.52-4.1-2.52-6.51 0-2.42.89-4.73 2.52-6.50999997.23-.25.21-.63-.03-.85zm15.47000004.04c-.22-.25-.6-.26-.85-.04s-.26.6-.04.85c1.62 1.77999997 2.52 4.09999997 2.52 6.50999997 0 2.42-.89 4.73-2.52 6.51-.22.25-.21.62.04.85.12.1.26.16.4.16.16 0 .33-.07.44-.2 1.83-2.01 2.83-4.61 2.83-7.32.01-2.71-.99-5.31-2.82-7.31999997zm-8.16 6.57999997c-.55 0-1 .44-1 1 0 .55.45 1 1 1s1-.44 1-1c0-.55-.44-1-1-1z"/></svg>