<svg height="32" viewBox="0 0 32 32" width="32" xmlns="http://www.w3.org/2000/svg"><g fill="none"><g fill="#d8c6ea"><path d="m10.6974718 6.89257263c.2580075-.14958449.581185-.08543816.7644038.137873l.0556079.0802572 1.6332419 2.81706078c.166205.28667499.0685447.65380669-.2181302.82001169-.2580075.1495845-.581185.0854382-.7644038-.137873l-.0556079-.0802572-1.6332419-2.81706075c-.166205-.28667498-.0685448-.65380673.2181302-.82001172z"/><path d="m12.1125835 21.3321495c.1662049-.286675.5333367-.3843352.8200117-.2181302.2580075.1495845.362913.4619197.2601506.7318769l-.0420204.0881348-1.6332419 2.8170608c-.166205.286675-.5333367.3843352-.8200117.2181302-.2580075-.1495845-.362913-.4619197-.2601506-.7318769l.0420204-.0881348z"/><path d="m20.2020087 7.11070283c.166205-.28667497.5333368-.38433519.8200117-.2181302.2580075.14958449.362913.46191966.2601506.73187691l-.0420204.08813481-1.6332418 2.81706075c-.166205.286675-.5333367.3843352-.8200117.2181302-.2580075-.1495845-.362913-.4619196-.2601506-.7318769l.0420204-.08813479z"/><path d="m5.94001286 15.3682754 3.25626712.0058986c.33137031.0006002.59951241.2697155.59891316.6010858-.00054124.2982333-.21857867.5452518-.50374971.5912355l-.09733718.0076767-3.25626712-.0058986c-.3313703-.0006002-.59951241-.2697155-.59891316-.6010858.00054124-.2982333.21857867-.5452517.50374971-.5912355z"/><path d="m22.3008596 15.2631999 3.2562671.0058985c.3313703.0006003.5995124.2697156.5989132.6010859-.0005413.2982333-.2185787.5452517-.5037497.5912355l-.0973372.0076766-3.2562671-.0058985c-.3313703-.0006003-.5995124-.2697156-.5989132-.6010859.0005412-.2982333.2185787-.5452517.5037497-.5912355z"/><path d="m18.7868971 21.1140193c.2580075-.1495845.5811849-.0854382.7644038.137873l.0556079.0802572 1.6332418 2.8170608c.166205.286675.0685448.6538067-.2181302.8200117-.2580074.1495845-.5811849.0854382-.7644038-.137873l-.0556079-.0802572-1.6332418-2.8170608c-.166205-.2866749-.0685448-.6538067.2181302-.8200117z"/></g><path d="m10.6435008 23.1949002c1.1412864 0 2.0664818.9251954 2.0664818 2.0664818 0 1.1412863-.9251954 2.0664818-2.0664818 2.0664818-1.14128639 0-2.06648179-.9251955-2.06648179-2.0664818 0-1.1412864.9251954-2.0664818 2.06648179-2.0664818zm10.690467 0c1.1412864 0 2.0664818.9251954 2.0664818 2.0664818 0 1.1412863-.9251954 2.0664818-2.0664818 2.0664818s-2.0664818-.9251955-2.0664818-2.0664818c0-1.1412864.9251954-2.0664818 2.0664818-2.0664818zm-5.3339678-11.4767248c2.3647864 0 4.2818246 1.9170382 4.2818246 4.2818246s-1.9170382 4.2818246-4.2818246 4.2818246-4.2818246-1.9170382-4.2818246-4.2818246 1.9170382-4.2818246 4.2818246-4.2818246zm-10.69412277 2.2153428c1.14128637 0 2.06648178.9251954 2.06648178 2.0664818s-.92519541 2.0664818-2.06648178 2.0664818-2.06648178-.9251954-2.06648178-2.0664818.92519541-2.0664818 2.06648178-2.0664818zm21.38824557 0c1.1412863 0 2.0664817.9251954 2.0664817 2.0664818s-.9251954 2.0664818-2.0664817 2.0664818c-1.1412864 0-2.0664818-.9251954-2.0664818-2.0664818s.9251954-2.0664818 2.0664818-2.0664818zm-16.050622-9.26138195c1.1412864 0 2.0664818.9251954 2.0664818 2.06648177 0 1.14128638-.9251954 2.06648178-2.0664818 2.06648178-1.14128639 0-2.06648179-.9251954-2.06648179-2.06648178 0-1.14128637.9251954-2.06648177 2.06648179-2.06648177zm10.690467 0c1.1412864 0 2.0664818.9251954 2.0664818 2.06648177 0 1.14128638-.9251954 2.06648178-2.0664818 2.06648178s-2.0664818-.9251954-2.0664818-2.06648178c0-1.14128637.9251954-2.06648177 2.0664818-2.06648177z" fill="#7d5b9f"/></g></svg>