<svg height="32" viewBox="0 0 32 32" width="32" xmlns="http://www.w3.org/2000/svg"><path d="m12.9325952 21.1140193c.2580075.1495845.362913.4619197.2601506.7318769l-.0420204.0881348-1.0690743 1.8434112c.3874955.3756121.6283315.9016508.6283315 1.4839398 0 1.1412863-.9251954 2.0664818-2.0664818 2.0664818-1.14128639 0-2.06648179-.9251955-2.06648179-2.0664818 0-1.1412864.9251954-2.0664818 2.06648179-2.0664818.1261495 0 .249659.0113036.3695707.0329531l1.099512-1.8957038c.1662049-.286675.5333367-.3843352.8200117-.2181302zm6.6187057.137873.0556079.0802572 1.129588 1.9504375c.1891462-.0570323.3897287-.0876868.597471-.0876868 1.1412864 0 2.0664818.9251954 2.0664818 2.0664818 0 1.1412863-.9251954 2.0664818-2.0664818 2.0664818s-2.0664818-.9251955-2.0664818-2.0664818c0-.49812.1762431-.9550762.4697733-1.3119126l-1.1684924-2.0154384c-.166205-.2866749-.0685448-.6538067.2181302-.8200117.2580075-.1495845.5811849-.0854382.7644038.137873zm-3.5513009-9.5337169c2.3647864 0 4.2818246 1.9170382 4.2818246 4.2818246s-1.9170382 4.2818246-4.2818246 4.2818246-4.2818246-1.9170382-4.2818246-4.2818246 1.9170382-4.2818246 4.2818246-4.2818246zm-10.69412277 2.2153428c.92169429 0 1.70245283.6034176 1.96877875 1.436756l1.921624.0038998c.33137031.0006002.59951241.2697155.59891316.6010858-.00054124.2982333-.21857867.5452518-.50374971.5912355l-.09733718.0076767-1.90168328-.0030432c-.24780025.8634998-1.04338438 1.495353-1.98654574 1.495353-1.14128637 0-2.06648178-.9251954-2.06648178-2.0664818s.92519541-2.0664818 2.06648178-2.0664818zm21.38824557 0c1.1412863 0 2.0664817.9251954 2.0664817 2.0664818s-.9251954 2.0664818-2.0664817 2.0664818c-.9801975 0-1.801-.6824508-2.0131794-1.5981241l-2.3822575-.0051598c-.3313703-.0006003-.5995124-.2697156-.5989132-.6010859.0005412-.2982333.2185787-.5452517.5037497-.5912355l.0973372-.0076766 2.4604616.0040417c.2957146-.7795855 1.0495452-1.3337234 1.9328016-1.3337234zm-16.050622-9.26138195c1.1412864 0 2.0664818.9251954 2.0664818 2.06648177 0 .55595938-.2195485 1.06064048-.5766752 1.43207318l1.017418 1.75707241c.166205.28667499.0685447.65380669-.2181302.82001169-.2580075.1495845-.581185.0854382-.7644038-.137873l-.0556079-.0802572-1.0280015-1.7717226c-.1421221.03089995-.2897008.0471773-.4410812.0471773-1.14128639 0-2.06648179-.9251954-2.06648179-2.06648178 0-1.14128637.9251954-2.06648177 2.06648179-2.06648177zm10.690467 0c1.1412864 0 2.0664818.9251954 2.0664818 2.06648177 0 1.14128638-.9251954 2.06648178-2.0664818 2.06648178-.2325529 0-.4561337-.03841382-.6647433-.10924228l-1.0623157 1.83378758c-.166205.286675-.5333367.3843352-.8200117.2181302-.2580075-.1495845-.362913-.4619196-.2601506-.7318769l.0420204-.08813479 1.1215166-1.93650851c-.2652566-.34753315-.4227975-.78168729-.4227975-1.25263708 0-1.14128637.9251954-2.06648177 2.0664818-2.06648177z"/></svg>