<svg height="32" viewBox="0 0 32 32" width="32" xmlns="http://www.w3.org/2000/svg"><path d="m27.2511579 25.0511579c0 1.2150264-.9849736 2.2-2.2 2.2h-18.10231579c-1.21502644 0-2.2-.9849736-2.2-2.2v-18.10231579c0-1.21502644.98497356-2.2 2.2-2.2h18.10231579c1.2150264 0 2.2.98497356 2.2 2.2zm-3.7561579-4.5511931-.0062556-.1000808-.0204884-.1050086c-.0819057-.3075513-.343331-.5433879-.6642457-.5874797l-.1090103-.0074309h-9.112l-.0280155-2.2124895-.0084193-.1125517c-.0388803-.259123-.2094462-.4893224-.4494923-.5973431-.2386677-.1136964-.5142259-.0996642-.7409388.0312723l-.0939222.0632415-3.70215091 2.9616967-.07600626.068512c-.14284657.1471134-.22905473.3516535-.22905473.5576618 0 .1988247.07336604.3884764.2044155.5375371l.08542623.0843142 3.79501857 3.0441617.0924619.0623143c.159875.0925827.3464858.1284303.5279833.1020928l.1080301-.0233083.1076149-.0401198.1042071-.0587857.0925878-.0713457c.1442406-.1285329.2371459-.3030764.2641076-.4920196l.008147-.114841-.027-2.19h9.077l.1000807-.0062556c.3577846-.0450341.6434975-.3281622.6924883-.6847342zm0-9.04c0-.2060083-.0862082-.4105484-.2299204-.5583481l-.0765153-.0689156-3.6986253-2.9589101-.0946398-.063798c-.1956063-.11318433-.4263155-.13951726-.6406951-.07213364l-.1055908.0415333-.0971498.05290974-.0878752.06641694c-.1380997.12104905-.2328307.29161414-.2605716.47787556l-.0084167.11336986-.027 2.20900004-9.113.001-.10008075.0062556c-.35778458.0450341-.6434974.3281622-.69248829.6847341l-.00743096.1090103.0062556.1000807.0204884.1050086c.08190575.3075513.34333099.5433879.66424575.5874797l.10901025.007431 9.078-.001-.0279842 2.1884897.0081123.115657c.0321689.2280981.1582469.4337737.3466412.5607538l.099244.0566716.1071645.0413762.1137574.0252255c.1895903.0290743.3773499-.0061591.5362166-.0976919l.0916363-.0616115 3.7923516-3.0418574.0875405-.0860675c.1339538-.1514691.2073198-.3411208.2073198-.5399455z" fill-rule="evenodd"/></svg>