<svg height="32" viewBox="0 0 32 32" width="32" xmlns="http://www.w3.org/2000/svg"><path d="m23.6200352 21.1249648c0 .4065756-.3063562.7442069-.6999192.7937444l-.1000808.0062556h-9.077l.027 2.19c0 .2321263-.0991658.4526211-.2722546.6068606l-.0925878.0713457-.1042071.0587857-.1076149.0401198c-.2138138.0617154-.4441633.0323148-.6360134-.0787845l-.0924619-.0623143-3.79501854-3.0441617c-.18419462-.1578811-.28984172-.3832616-.28984172-.6218513 0-.2060083.08620816-.4105484.22905473-.5576618l.07600626-.068512 3.70215087-2.9616967c.2411513-.1875621.562098-.2244525.8348611-.0945138.2400461.1080207.4106119.3382201.4494923.5973431l.0084192.1125517.0280155 2.2124895h9.112c.3696143 0 .6822497.2531869.773256.5949106l.0204884.1050086zm0-10.04c0 .1988247-.073366.3884764-.2073197.5399455l-.0875406.0860675-3.7923515 3.0418574c-.1754725.1364786-.4003446.1941926-.627853.1593034l-.1137574-.0252255-.1071645-.0413762c-.2430037-.1157161-.4083548-.351311-.4458851-.6174254l-.0081124-.115657.0279842-2.1884897-9.07799996.001c-.36961423 0-.68224962-.253187-.77325601-.5949107l-.0204884-.1050086-.00625559-.1000807c0-.4065757.3063562-.7442069.69991925-.7937444l.10008075-.0062556 9.11299996-.001.027-2.20900004c0-.2294246.1032687-.44598657.2689884-.59124542l.0878751-.06641694.0971498-.05290974c.2420923-.11528202.5180786-.10144804.746286.03060034l.0946397.063798 3.6986253 2.9589101c.1890968.1485761.3064357.3869207.3064357.6272637z" fill="#005a7d"/></svg>