<svg height="32" viewBox="0 0 32 32" width="32" xmlns="http://www.w3.org/2000/svg"><path d="m12.1291133 16.745199c.2227989.1060947.3607221.3395031.3607221.5835209l-.0318285 2.5356639h8.6999962c.3501126 0 .6365683.2864557.6365683.6365683s-.2864557.6365683-.6365683.6365683h-8.7212151l-.0318284 2.5568828c0 .2440179-.1485326.4668168-.3607221.5623021-.0848758.0424378-.180361.0636568-.2758463.0636568-.1379231 0-.2864557-.0424379-.3925504-.1379232l-3.92550472-3.1404037c-.14853261-.1167042-.24401786-.3076747-.24401786-.4986452-.01060947-.20158.07426631-.381941.22279892-.4986452l4.02098996-3.2252795c.1909705-.1591421.4562073-.1803611.6790062-.0742663zm7.7417734-9.00000004c.2227989-.10609472.4880357-.08487577.6790062.07426631l4.02099 3.22527953c.1485326.1167042.2334084.2970652.2227989.4986452 0 .1909705-.0954853.381941-.2440179.4986452l-3.9255047 3.1404037c-.1060947.0954853-.2546273.1379232-.3925504.1379232-.0954853 0-.1909705-.021219-.2758463-.0636568-.2121895-.0954853-.3607221-.3182842-.3607221-.5623021l-.0318284-2.5568828h-8.7212151c-.3501126 0-.6365683-.2864557-.6365683-.6365683s.2864557-.6365683.6365683-.6365683h8.6999962l-.0318285-2.53566387c0-.24401786.1379232-.47742624.3607221-.58352097z"/></svg>