<svg height="32" viewBox="0 0 32 32" width="32" xmlns="http://www.w3.org/2000/svg"><path d="m24.0982751 9.25496828c.3296741 0 .5914578.2640326.5998728.58309215l-.0041262.08822351-1.8788464 15.69517286c-.111385.8910804-.8268446 1.5690534-1.7093808 1.6416334l-.157387.0064441h-10.0681223c-.90068008 0-1.6599894-.6284685-1.84120664-1.4953748l-.02588967-.1553792-1.88992056-15.69206771c-.03943937-.32746629.19162951-.61902953.50756601-.66534933l.08812917-.00639498zm-.6762751 1.19980732h-15.027l1.8092508 15.0178396c.0343924.2751388.2240059.4920838.4764061.5678562l.0974126.0216351.1022157.0074278h10.0681223c.3127684 0 .5753192-.2049264.6557648-.4943683l.0198896-.0994457zm-3.4820082 1.8790825c.3317499.0153966.5882049.2968145.5728083.6285644l-.4896085 10.549557-.011021.0889463c-.0618353.2944893-.3220601.4975755-.6175434.483862-.3317499-.0153966-.5882049-.2968145-.5728083-.6285644l.4896084-10.549557.011021-.0889463c.0549647-.2617683.2666816-.4513168.5205787-.4805756zm-3.8953457-.0132589c.2629346 0 .490099.1698228.5711274.4161814l.02332.0957899.0068855.0893617v10.521162c0 .332107-.2692259.6013329-.6013329.6013329-.2629346 0-.490099-.1698227-.5711274-.4161814l-.02332-.0957899-.0068855-.0893616v-10.521162c0-.332107.2692259-.601333.6013329-.601333zm-3.8952377.0155846.0969648.0032864c.2221599.0256014.4120256.1739247.4928429.3859698l.0277357.0946057.011021.0889464.487493 10.5039748c.0153966.3317499-.2410584.6131678-.5728083.6285644-.2626519.0121898-.4974452-.1469189-.5898077-.3892562l-.0277358-.0946057-.011021-.0889464-.4874929-10.5039748c-.013857-.2985749.1924859-.5563809.4757387-.6161805zm5.8784918-7.55573633c1.3458982 0 2.4495347 1.0498006 2.5356722 2.37416443l.0054116.16691942v1.87295404h4.7532474c.3614473 0 .6571768.29572958.6571768.65717685 0 .32858839-.2444046.60286469-.5604025.65001749l-.0967743.0071594h-18.82745312c-.36144727 0-.65717686-.2957296-.65717686-.65717689 0-.32858842.24440462-.60286472.56040251-.65001753l.09677435-.00715932h5.27898882v-1.87295404c0-1.3458982 1.0498006-2.44953473 2.3741644-2.53567221l.1669195-.00541164zm.0109529 1.31435372h-3.7130492c-.6366401 0-1.1577608.4813307-1.220414 1.10104398l-.0063161.12568615v1.87295404h6.1665095v-1.87295404c0-.63664008-.4813307-1.15776079-1.101044-1.22041401z"/></svg>