<svg height="32" viewBox="0 0 32 32" width="32" xmlns="http://www.w3.org/2000/svg"><g fill="none"><path d="m25.3223459 9.11508302h-4.7532474v-1.87295404c0-1.40197729-1.1391065-2.54108385-2.5410838-2.54108385h-3.7130493c-1.4019773 0-2.5410838 1.13910656-2.5410838 2.54108385v1.87295404h-5.27898886c-.36144727 0-.65717686.29572958-.65717686.65717685 0 .36144723.29572959.65717683.65717686.65717683h18.82745316c.3614472 0 .6571768-.2957296.6571768-.65717683 0-.36144727-.2957296-.65717685-.6571768-.65717685zm-12.2231577-1.87295404c0-.67908275.5476474-1.22673013 1.2267302-1.22673013h3.7130492c.6790828 0 1.2267301.54764738 1.2267301 1.22673013v1.87295404h-6.1665095z" fill="#7f7e7e"/><path d="m22.6294973 27.1401497c-.0853832.6830657-.6586704 1.1953649-1.3539337 1.1953649h-10.721691c-.69526327 0-1.2685505-.5122992-1.35393371-1.1953649l-2.01260412-16.710713h17.44256903z" fill="#9b9b9b"/><path d="m15.9086193 28.3355146v-17.9060779h8.7212845l-2.0004065 16.710713c-.0853832.6830657-.6586704 1.1953649-1.3539337 1.1953649z" fill="#a0a0a0"/><path d="m24.6299038 10.4294367-2.0004065 16.710713c-.0853832.6830657-.6586704 1.1953649-1.3539337 1.1953649h-1.8373291l.8310271-14.9889537-4.3606423-.9601242v-1.957z" fill="#7f7e7e"/><path d="m15.9086193 28.3355146h-3.5296152l-.8310271-17.9060779h4.3606423z" fill="#b6b6b6"/><path d="m15.9086193 10.4294367-.0006423 1.957-4.313-.949-.047-1.008z" fill="#8f8f8f"/><path d="m12.3790041 28.3355146h-1.8251315c-.69526327 0-1.2685505-.5122992-1.35393371-1.1953649l-2.01260412-16.710713h4.36064223z" fill="#d0d0d0"/><path d="m11.547977 10.4294367.0463578 1.008-4.40200003-.969-.005-.039z" fill="#a7a7a7"/></g></svg>