<svg height="32" viewBox="0 0 32 32" width="32" xmlns="http://www.w3.org/2000/svg"><path d="m24.6299038 10.4294367-2.0004065 16.710713c-.0853832.6830657-.6586704 1.1953649-1.3539337 1.1953649h-10.721691c-.69526327 0-1.2685505-.5122992-1.35393371-1.1953649l-2.01260412-16.710713zm-3.9734658 1.9760108c-.2648116-.01229-.4974821.1490194-.5878235.3835142l-.0269911.09117-.0123565.0968544-.585968 12.6258096.0033326.0975825c.0332335.2869365.2702929.5157623.568206.5295886.2648116.01229.4974822-.1490194.5878235-.3835142l.0269911-.09117.0123565-.0968544.585968-12.6258095-.0033326-.0975826c-.0332334-.2869365-.2702929-.5157623-.568206-.5295886zm-4.656438-.0157396c-.2982338 0-.5456468.2175896-.592147.5026769l-.007853.0973231v12.5918261l.007853.0973232c.0465002.2850872.2939132.5026768.592147.5026768s.5456468-.2175896.592147-.5026768l.007853-.0973232v-12.5918261l-.007853-.0973231c-.0465002-.2850873-.2939132-.5026769-.592147-.5026769zm-4.6563089.018523c-.2979131.0138263-.5349725.2426521-.568206.5295886l-.0033326.0975826.5834362 12.5712563.0123565.0968544c.059667.282625.3169015.4885105.6148146.4746842.2979131-.0138262.5349726-.2426521.568206-.5295886l.0033326-.0975825-.5834361-12.5712563-.0123565-.0968545c-.0596671-.2826249-.3169016-.4885104-.6148147-.4746842zm6.6843236-8.94724308c1.3458982 0 2.4495347 1.04980059 2.5356722 2.37416442l.0054116.16691942v1.87295404h4.7532474c.3614472 0 .6571768.29572959.6571768.65717686 0 .32858842-.2444046.60286472-.5604025.65001753l-.0967743.00715932h-18.82745316c-.36144727 0-.65717686-.29572958-.65717686-.65717685 0-.32858843.24440462-.60286472.56040251-.65001753l.09677435-.00715933h5.27898886v-1.87295404c0-1.3458982 1.0498006-2.44953473 2.3741644-2.53567221l.1669194-.00541163zm.0109529 1.31435371h-3.7130492c-.6366401 0-1.1577608.4813307-1.220414 1.10104399l-.0063162.12568614v1.87295404h6.1665095v-1.87295404c0-.63664008-.4813307-1.15776079-1.101044-1.220414z"/></svg>