<svg height="32" viewBox="0 0 32 32" width="32" xmlns="http://www.w3.org/2000/svg"><g fill="none"><path d="m12.1866808 5.53118232v-1.1411823h-.394905c-.2733809 0-.495-.22161905-.495-.49500001s.2216191-.49500001.495-.49500001h3.4155001c.2733809 0 .495.22161905.495.49500001s-.2216191.49500001-.495.49500001h-.3205951v1.16990269l.9011687.41507286h-4.5786924z" fill="#252d4f"/><path d="m15.7878495 16.2190027-1.7795042 2.3067275h-1.002546l-1.7966422-2.3067275v-10.26054766h4.5786924z" fill="#ba97dc"/><path d="m21.1703184 26.1978228v-9.5839282c0-2.2911476-1.8573421-4.1484897-4.1484897-4.1484897h-1.2339792v-2.70000001h1.2339792c3.7823164 0 6.8484897 3.06617331 6.8484897 6.84848971v9.5839282h.5350912c.6213204 0 1.125.5036796 1.125 1.125 0 .6213203-.5036796 1.125-1.125 1.125h-16.33745764c-.62132034 0-1.125-.5036797-1.125-1.125 0-.6213204.50367966-1.125 1.125-1.125z" fill="#9373b3"/><path d="m22.5203184 18.4977563c1.5177648 0 2.7481563 1.2303916 2.7481563 2.7481564 0 1.5177649-1.2303915 2.7481564-2.7481563 2.7481564-1.2402279 0-2.3101541-.8276121-2.6424217-1.9906564h-11.6528538c-.4183557 0-.75750001-.3391443-.75750001-.7575s.33914431-.7575.75750001-.7575h11.6528538c.3322676-1.1630442 1.4021938-1.9906564 2.6424217-1.9906564z" fill="#252d4f"/><path d="m22.5203184 22.7415691c-.8260282 0-1.4956564-.6696282-1.4956564-1.4956564s.6696282-1.4956564 1.4956564-1.4956564 1.4956563.6696282 1.4956563 1.4956564-.6696281 1.4956564-1.4956563 1.4956564z" fill="#9373b3"/></g></svg>