<svg height="32" viewBox="0 0 32 32" width="32" xmlns="http://www.w3.org/2000/svg"><path d="m20.3428247 26.4864663v-3.1867213c-.3644305-.356233-.6283354-.8148713-.7451829-1.3293836h-5.4346728c-.8 0-.8-1.2 0-1.2s.8 1.2 0 1.2h-5.54897805c-.8 0-.8-1.2 0-1.2h10.98365085c.1168475-.5145122.3807524-.9731506.7451829-1.3293835v-2.4820623c0-1.8506745-1.5002681-3.3509426-3.3509425-3.3509426h-.5752183v2.9748551c0 .1326115-.0439331.2614869-.1249335.3664857l-1.6947659 2.1968834c-.1136038.1472619-.2890775.2335142-.4750665.2335142h-.9548057c-.1850109 0-.3596755-.085352-.4733606-.2313134l-1.7110878-2.1968833c-.0820729-.1053744-.1266394-.2351212-.1266394-.3686866v-9.77195015c0-.33137085.2686291-.6.6-.6h.532375v-.69734421h-.4489286c-.8 0-.8-1.2 0-1.2h4.1957143c.8 0 .8 1.2 0 1.2h-.4489286v.69734421h.5304273c.3313709 0 .6.26862915.6.6v3.02566652h.5752183c3.9335769 0 7.1223711 3.18879413 7.1223711 7.12237113v2.4820623c.5011043.4898324.8121429 1.1732845.8121429 1.9293835 0 .7560991-.3110386 1.4395512-.8121429 1.9293836v3.1867213h.9810393c.8 0 .8 1.2 0 1.2h-8.8511703c-.8 0-.8-1.2 0-1.2s.8 1.2 0 1.2h-8.85117034c-.8 0-.8-1.2 0-1.2zm1.2 0h1.3714286v-2.5061636c-.2189549.0573696-.4487673.0879159-.6857143.0879159-.2369469 0-.4667594-.0305463-.6857143-.0879159zm0-7.7260462c.2189549-.0573695.4487674-.0879158.6857143-.0879158.236947 0 .4667594.0305463.6857143.0879158v-1.8015045c0-3.2708353-2.6515359-5.9223711-5.9223711-5.9223711h-1.1752183c-.3313708 0-.6-.2686292-.6-.6v-3.02566655h-3.1606594v8.96585725l1.4042851 1.8029762h.3666844l1.3896899-1.8014209v-3.3703175c0-.3313708.2686292-.6.6-.6h1.1752183c2.5134161 0 4.5509425 2.0375264 4.5509425 4.5509426zm-7.3798557 3.2099413v-1.2zm2.0811533 5.7161049v-1.2z"/></svg>