<svg height="32" viewBox="0 0 32 32" width="32" xmlns="http://www.w3.org/2000/svg"><path d="m23.3564442 5.14146653c.1586484 0 .3125914.0538917.4365994.15284281l3.8172017 3.04590315c.3021866.24112717.351685.68156999.1105579.98375656-.0326084.04086561-.0696923.07794948-.1105579.11055784l-3.8172017 3.04590311c-.3021866.2411272-.7426294.1916288-.9837566-.1105578-.0989511-.124008-.1528428-.277951-.1528428-.4365994l-.0001165-2.52880627-3.7125295.00009394c-1.2702549 0-2.3100212.98683903-2.3944631 2.23568123l-.0055369.1643188v9.5c0 1.9240888-1.5094666 3.4956228-3.4088078 3.5950099l-.1911922.0049901-3.78103862.0002802c-.0313666.1295942-.07316875.2578291-.12563736.3835299-.39822332.9540369-1.33232245 1.5738984-2.36612853 1.5701459-1.40687841-.0051066-2.54467526-1.147048-2.54466599-2.5539351.00000681-1.0338124.62326119-1.9656509 1.57874032-2.3604022s2.05469615-.174543 2.78438192.5578007c.33788282.3391136.56566734.7570613.67332989 1.2028456l3.78101837-.000265c1.2702549 0 2.3100213-.9868391 2.3944631-2.2356813l.0055369-.1643187v-9.5c0-1.92408883 1.5094666-3.49562282 3.4088078-3.59500994l.1911922-.00499009 3.7125295-.00009394.0001165-2.363c0-.38659932.3134007-.7.7-.7z" fill-rule="evenodd"/></svg>