<svg height="32" viewBox="0 0 32 32" width="32" xmlns="http://www.w3.org/2000/svg"><g fill="none" fill-rule="evenodd"><path d="m24.476339 8.16719078c.4142135 0 .75.33578644.75.75 0 .37969577-.2821539.69349096-.6482295.74315339l-.1017705.00684661h-5.6588685c-1.190864 0-2.1656449.92516162-2.2448092 2.09595122l-.0051908.1540488v9.5c0 2.0042592-1.572361 3.6412737-3.5508414 3.744802l-.1991586.005198h-4.24396149c-.41421356 0-.75-.3357865-.75-.75 0-.3796958.28215388-.693491.64822944-.7431534l.10177056-.0068466h4.24396149c1.190864 0 2.1656449-.9251616 2.2448092-2.0959512l.0051908-.1540488v-9.5c0-2.00425919 1.5723611-3.64127376 3.5508414-3.74480201l.1991586-.00519801z" fill="#17bfa8" fill-rule="nonzero"/><path d="m23.6667159 5.40693965 3.8172017 3.04590315c.3021866.24112717.351685.68156999.1105579.98375656-.0326084.0408656-.0696923.07794948-.1105579.11055784l-3.8172017 3.0459032c-.3021866.2411271-.7426294.1916287-.9837566-.1105579-.0989511-.124008-.1528428-.277951-.1528428-.4365993v-6.09180636c0-.38659932.3134007-.7.7-.7.1586484 0 .3125914.0538917.4365994.15284281z" fill="#6ec18d"/><path d="m6.54466599 26.9711468c1.03380608.0037525 1.96790521-.616109 2.36612852-1.5701459.39822332-.954037.18201351-2.054047-.54767227-2.7863907s-1.82890279-.952552-2.78438192-.5578007-1.57873351 1.3265898-1.57874032 2.3604022c-.00000927 1.4068871 1.13778757 2.5488285 2.54466599 2.5539351z" fill="#31afd8"/></g></svg>