<svg height="32" viewBox="0 0 32 32" width="32" xmlns="http://www.w3.org/2000/svg"><path d="m23.3564442 5.14146653c.1586484 0 .3125914.0538917.4365994.15284281l3.8172017 3.04590315c.3021866.24112717.351685.68156999.1105579.98375656-.0326084.04086561-.0696923.07794948-.1105579.11055784l-3.8172017 3.04590311c-.3021866.2411272-.7426294.1916288-.9837566-.1105578-.0989511-.124008-.1528428-.277951-.1528428-.4365994l-.0001165-2.37880627-3.7125295.00009394c-1.190864 0-2.1656449.92516163-2.2448092 2.09595123l-.0051908.1540488v9.5c0 2.0042591-1.572361 3.6412737-3.5508414 3.744802l-.1991586.005198-3.82230648.0005448c-.02416672.0785241-.05227227.1563688-.0843695.2332653-.39822332.9540369-1.33232245 1.5738984-2.36612853 1.5701629-1.40687841-.0051236-2.54466599-1.147065-2.54466599-2.5539521 0-1.0338124.62326119-1.9656509 1.57874032-2.3604022s2.05469615-.174543 2.78438192.5578007c.29965557.3007471.51271609.6634991.63218963 1.0526835l3.82215863-.0001029c1.190864 0 2.1656449-.9251616 2.2448092-2.0959512l.0051908-.1540488v-9.5c0-2.0042592 1.5723611-3.64127377 3.5508414-3.74480202l.1991586-.00519801 3.7125295-.00009394.0001165-2.213c0-.38659932.3134007-.7.7-.7z" fill-rule="evenodd"/></svg>