<svg fill="none" height="32" viewBox="0 0 32 32" width="32" xmlns="http://www.w3.org/2000/svg"><path clip-rule="evenodd" d="m16.3025 4.38281c.3311.00027.6006.2684.6006.59961v1.53906c5.7897.26413 10.7072 3.86772 12.872 8.92872.0319.0745.0479.1553.0479.2363v.0156c-.0001.1916-.0914.3715-.2461.4844-.1548.1129-.3547.1454-.5371.0869-.0243-.0076-.8637-.2682-2.0098-.2529-1.1704.0157-2.6194.3178-3.8672 1.4287-.0892.0795-.1989.1271-.3134.1436-.0092.0013-.0182.003-.0274.0039-.0101.001-.0201.0015-.0303.0019-.0096.0005-.0195.002-.0293.002h-.038c-.0713 0-.1422-.0123-.209-.0371-1.757-.6543-3.644-1.0428-5.6123-1.1162v8.5683c-.0002 1.4612-1.1854 2.646-2.6465 2.6465-1.4614-.0001-2.6473-1.1851-2.6475-2.6465v-.6572c.0003-.3311.2695-.5995.6006-.5996.331.0003.5994.2686.5996.5996v.6572c.0002.7987.6486 1.4462 1.4473 1.4463.7983-.0005 1.4461-.6478 1.4463-1.4463v-8.5742c-2.0282.0572-3.9721.4495-5.77835 1.1221-.06678.0247-.13775.0371-.20898.0371h-.04004c-.00557 0-.01107-.0018-.0166-.002-.0289-.0012-.0576-.0034-.08594-.0088-.02412-.0041-.04727-.0106-.07031-.0175-.00786-.0025-.01569-.005-.02344-.0078-.09111-.0318-.17224-.083-.2373-.1514-1.23325-1.0762-2.65566-1.3746-3.81055-1.3926-1.1554-.0179-2.00218.2453-2.02344.252-.17958.0572-.37654.027-.53027-.0821-.15353-.1091-.24666-.2844-.25196-.4726l-.00097-.0352c-.00241-.0869.01355-.174.04785-.2539 2.19016-5.0982 7.17679-8.71113 13.0303-8.91308v-1.5332c0-.33124.2684-.5994.5996-.59961zm-.0987 3.38477c-.2866.17758-.7675.50729-1.3427 1.02441-.0278.02497-.0558.05033-.084.07617-1.3517 1.23904-3.1808 3.49484-4.2383 7.21974 1.796-.5545 3.7039-.8535 5.6807-.8535l.4414.0049c1.8227.0411 3.5834.3368 5.248.8515-1.5472-5.4525-4.747-7.75707-5.6865-8.33396-.006.00368-.0124.00692-.0186.01074zm-2.1181.10449c-.504.07979-.9986.18749-1.4824.32129-.2891.07992-.5742.16954-.8545.26758-3.22631 1.12852-5.89549 3.44396-7.48343 6.42386.3439-.0419.74518-.0713 1.18457-.0645 1.13452.0177 2.5498.2717 3.875 1.1504.09029-.3312.18889-.6513.29004-.9619.04084-.1254.08256-.249.125-.3711.03313-.0953.06556-.1899.09961-.2832.04123-.113.08444-.2239.12696-.334.06235-.1614.12655-.3194.19145-.4746.0531-.127.1045-.253.1591-.376.0401-.0902.0822-.1785.1231-.2666.043-.0927.085-.185.1289-.2754.0517-.1065.1045-.2111.1572-.3144.0462-.0906.0937-.1795.1406-.2676.0438-.0821.0876-.1632.1319-.2432.0518-.0937.1047-.1855.1572-.2763.2018-.3488.4071-.6765.6152-.9834.0174-.0256.0334-.0519.0508-.0772.0707-.1029.1429-.2025.2139-.3008.0214-.0296.042-.0596.0635-.0888.0663-.09058.1328-.17907.1992-.26565.0355-.04636.0719-.0915.1074-.13672.3017-.38416.601-.7282.8916-1.03418.0396-.0417.0789-.08274.1182-.12305.0533-.05478.1056-.10889.1582-.16113.0285-.02833.0577-.05542.0859-.08301.1462-.14277.2876-.27696.4258-.40039zm4.2773.00098c.1344.1201.2721.25026.4141.38867.0355.03463.0715.06966.1074.10547.0547.05452.1095.11069.1651.16797.0375.03875.0753.07813.1132.11816.0591.06238.119.12589.1787.19141.0361.03948.0712.08046.1075.12109.0533.05977.1084.11935.1621.18164.0942.10916.1882.2228.2832.33984.0288.03559.057.07208.0859.1084.0727.09122.146.18434.2188.28028.0294.03887.0584.0785.0879.11816.0774.10416.1551.21076.2324.32036.0274.0389.0546.0784.082.1181.058.0839.1152.1698.1729.2569.0397.06.0805.12.1201.1816.8521 1.3247 1.655 3.0025 2.2265 5.0986 1.332-.8835 2.7559-1.1341 3.8936-1.1494.4283-.0057.8201.0228 1.1572.0635-1.9564-3.6701-5.5512-6.33372-9.8086-7.01075z" fill="#000" fill-rule="evenodd"/></svg>