<svg fill="none" height="32" viewBox="0 0 32 32" width="32" xmlns="http://www.w3.org/2000/svg"><path d="m11.6099 25.0154v-.6572c.0002-.3312.2684-.5997.5996-.5997s.5993.2685.5996.5997v.6572c0 .7988.6484 1.4463 1.4472 1.4463.7987-.0003 1.4463-.6476 1.4463-1.4463v-20.03322c0-.33133.2683-.59953.5996-.59961.3314 0 .6006.26824.6006.59961v20.03322c0 1.4614-1.185 2.6462-2.6465 2.6465-1.4616 0-2.6464-1.1849-2.6464-2.6465z" fill="#654e06"/><path d="m16.144 7.10526c-.6228.34091-4.8679 2.89108-6.45992 9.89554-2.76607-2.4626-6.39656-1.3197-6.45898-1.2998l-.00098-.0352c2.15367-5.0135 7.12458-8.53011 12.91988-8.56054z" fill="#ffa077"/><path d="m16.3032 7.10526c5.7998.03349 10.7719 3.55904 12.9199 8.58104v.0156c-.0335-.0107-3.6826-1.1741-6.4599 1.2989-1.5925-7.00621-5.8389-9.55569-6.46-9.89554z" fill="#bb3600"/><g fill="#f76423"><path d="m9.68555 17.0008h-.00977v-.0088c.00318.0028.00659.0059.00977.0088z"/><path d="m16.3027 7.10526c.6211.33985 4.8675 2.8894 6.46 9.89554h-.0381c-2.0252-.7542-4.2169-1.167-6.5049-1.167-2.2876 0-4.4789.413-6.50388 1.167h-.03027c1.59165-7.00221 5.83325-9.55339 6.45805-9.89554.0253-.00014.0507-.00098.0761-.00098.0277 0 .0554.00082.083.00098z"/></g></svg>