<svg fill="none" height="32" viewBox="0 0 32 32" width="32" xmlns="http://www.w3.org/2000/svg"><path d="m16.3848 4.18652c.4027.04122.7188.38136.7188.7959v1.44922c5.7436.33791 10.6087 3.94196 12.7637 8.97946.037.0869.0566.1812.0566.2754v.0156c0 .2231-.1066.4335-.2871.5655-.1805.1316-.4136.1693-.626.1015h-.0019c-.0013-.0004-.0033-.0011-.0059-.0019-.0057-.0017-.0145-.0044-.0264-.0078-.024-.007-.0608-.0171-.1084-.0293-.095-.0245-.2349-.0575-.4111-.0899-.3529-.0648-.85-.1278-1.4248-.1201-1.155.0155-2.5793.3133-3.8037 1.4033-.1277.1136-.2929.1777-.4649.1778h-.039c-.0827 0-.1658-.0149-.2442-.044-1.6861-.6279-3.4933-1.0071-5.3769-1.0986v8.457c-.0002 1.5717-1.2752 2.8462-2.8467 2.8467-1.572 0-2.8465-1.2748-2.8467-2.8467v-.6572c.0004-.4413.358-.7998.7998-.7998.4137.0003.7547.3149.7959.7178l.0039.082v.6572c.0002.6882.5587 1.2461 1.2471 1.2461.6452-.0004 1.1765-.4908 1.2402-1.1191l.0059-.127v-8.4658c-1.9436.0765-3.8072.4612-5.54297 1.1074-.07851.0292-.16164.0439-.24414.044h-.04004c-.19892 0-.37501-.0855-.50098-.2158-1.20829-1.0536-2.603-1.3471-3.74121-1.3653-1.14045-.0181-1.97764.2423-1.99609.2481-.20653.0656-.43176.0314-.60938-.0909-.17798-.123-.28879-.3224-.30078-.538l-.00195-.0352c-.0059-.1081.01323-.2157.05566-.3145 2.1805-5.0756 7.11347-8.69043 12.92188-8.96675v-1.44043c0-.44182.3581-.7997.7998-.7998z" fill="#000"/></svg>