<svg fill="none" height="32" viewBox="0 0 33 32" width="33" xmlns="http://www.w3.org/2000/svg"><g clip-rule="evenodd" fill="#000" fill-rule="evenodd"><path d="m23.4114 17.9541c3.0078 0 5.4462 2.4385 5.4463 5.4463 0 3.0078-2.4385 5.4462-5.4463 5.4463-3.0078-.0001-5.4463-2.4385-5.4463-5.4463s2.4385-5.4462 5.4463-5.4463zm-1.6309 2.6924c-.3138-.2436-.7674-.2209-1.0557.0674-.2837.284-.3093.7279-.0771 1.041l.0771.0898 1.5557 1.5547-1.5557 1.5567-.0664.0751c-.2439.3138-.2218.7683.0664 1.0567.284.2837.729.3093 1.042.0771l.0889-.0771 1.5557-1.5576 1.5556 1.5576.0762.0664c.3137.2436.7674.2216 1.0557-.0664.284-.284.3095-.7288.0771-1.042l-.0771-.0898-1.5557-1.5567 1.5557-1.5547.0664-.0752c.2439-.3137.2217-.7672-.0664-1.0556-.2841-.2839-.7289-.3105-1.042-.0782l-.0899.0782-1.5556 1.5537-1.5557-1.5537z"/><path d="m16.3147 4.38281c.3311.00027.6006.2684.6006.59961v1.53906c5.7897.26413 10.7071 3.86782 12.872 8.92872.0319.0745.0479.1553.0479.2363v.0156c-.0001.1916-.0914.3715-.2461.4844-.1548.1127-.3548.1454-.5371.0869-.0324-.0101-.8695-.2682-2.0098-.2529-1.1704.0158-2.6196.318-3.8672 1.4287-.0892.0793-.199.1271-.3134.1436-.009.0013-.0183.003-.0274.0039-.0099.0009-.0203.0015-.0303.0019-.0095.0005-.0197.002-.0293.002h-.038c-.0711-.0001-.1424-.0124-.209-.0371-1.7568-.6542-3.6441-1.0428-5.6123-1.1162v8.5683c-.0002 1.4612-1.1854 2.646-2.6465 2.6465-1.4612-.0004-2.6473-1.1852-2.6475-2.6465v-.6572c.0003-.3309.2697-.5992.6006-.5996.331.0003.5994.2686.5996.5996v.6572c.0002.7985.6488 1.4459 1.4473 1.4463.7984-.0005 1.4461-.6478 1.4463-1.4463v-8.5742c-2.028.0573-3.9722.4496-5.77834 1.1221-.06666.0246-.1379.0371-.20899.0371h-.04003c-.00541-.0001-.01123-.0018-.01661-.002-.02873-.0012-.05775-.0035-.08593-.0088-.02396-.0041-.04742-.0106-.07032-.0175-.00771-.0025-.01582-.0051-.02343-.0078-.09094-.0318-.17235-.0831-.23731-.1514-1.23318-1.076-2.65574-1.3746-3.81055-1.3926-1.15515-.0179-2.00217.2453-2.02343.252-.17947.057-.37666.0269-.53028-.0821-.15334-.1091-.24666-.2845-.25195-.4726l-.00098-.0352c-.0024-.0868.01361-.174.04786-.2539 2.1901-5.0981 7.17699-8.71095 13.03029-8.91308v-1.5332c0-.33108.2686-.59915.5996-.59961zm-.0986 3.38477c-.2868.17763-.7678.50749-1.3428 1.02441-.0277.02489-.0559.05041-.084.07617-1.3517 1.23914-3.1808 3.49504-4.2383 7.21974 1.7959-.5544 3.7041-.8534 5.6807-.8535l.4414.0049c1.8225.0411 3.5835.3369 5.248.8515-1.5472-5.4524-4.747-7.75708-5.6865-8.33396-.0059.00359-.0125.00699-.0185.01074zm-2.1182.10449c-.5038.07978-.9988.18753-1.4824.32129-.289.07989-.5743.16959-.8545.26758-3.22611 1.12857-5.89556 3.44406-7.48342 6.42386.34377-.0419.74536-.0713 1.18457-.0645 1.13443.0177 2.54989.2719 3.875 1.1504.09027-.3311.1889-.6514.29004-.9619.04081-.1253.08258-.2491.125-.3711.0331-.0952.06558-.19.09961-.2832.04121-.1129.08445-.224.12695-.334.06235-.1613.12655-.3194.19145-.4746.053-.127.1045-.2531.1591-.376.0401-.0901.0823-.1786.1231-.2666.043-.0927.0851-.185.1289-.2754.0517-.1065.1046-.2112.1572-.3144.0462-.0906.0938-.1796.1406-.2676.0437-.082.0876-.1633.1319-.2432.0518-.0936.1047-.1856.1572-.2763.2017-.3487.4071-.6766.6152-.9834.0173-.0255.0335-.052.0508-.0772.0707-.1028.143-.2026.2139-.3008.0213-.0295.0421-.0597.0635-.0888.0663-.0905.1328-.17915.1992-.26565.0355-.04628.0719-.09157.1074-.13672.3016-.38406.6011-.72826.8916-1.03418.0395-.04162.079-.08282.1182-.12305.0532-.0547.1057-.10896.1582-.16113.0284-.02825.0578-.0555.0859-.08301.1461-.14268.2877-.27703.4258-.40039zm4.6914.38965c.0355.03456.0716.06974.1074.10547.0546.05444.1096.11077.1651.16797.0375.03867.0754.07821.1132.11816.059.06231.1191.12597.1788.19141.0359.0394.0712.08054.1074.12109.0532.0597.1085.11943.1621.18164.0941.10909.1882.22288.2832.33984.0288.03551.0571.07216.0859.1084.0726.09115.146.18442.2188.28028.0294.0388.0585.07858.0879.11816.0774.10406.1552.21076.2324.32036.0274.0389.0547.0785.082.1181.058.0838.1152.1699.1729.2569.0397.0599.0806.1201.1201.1816.8521 1.3247 1.655 3.0025 2.2265 5.0986 1.3319-.8834 2.756-1.1341 3.8936-1.1494.4281-.0057.8202.0229 1.1572.0635-1.9564-3.67-5.5513-6.33373-9.8086-7.01075.1344.12004.2722.25035.4141.38867z"/></g></svg>