<svg height="32" viewBox="0 0 32 32" width="32" xmlns="http://www.w3.org/2000/svg"><path d="m11.97453 20.6h3c.61 0 1.1-.49 1.1-1.1v-.5c0-.33-.27-.6-.6-.6s-.6.27-.6.6v.4h-2.8v-.4c0-.33-.27-.6-.6-.6s-.6.27-.6.6v.5c0 .61.49 1.1 1.1 1.1zm-.5-10.2c-.33 0-.6.27-.6.6v.5c0 .61.49 1.1 1.1 1.1h3c.61 0 1.1-.49 1.1-1.1v-.5c0-.33-.27-.6-.6-.6s-.6.27-.6.6v.4h-2.8v-.4c0-.33-.27-.6-.6-.6zm15.65 4.18-.19-2.52c-.02-.23-.17-.43-.38-.52-.22-.08-.46-.03-.63.13l-.62.59c-.92-.91-2.14-1.41-3.44-1.41-2.51 0-4.59 1.91-4.87 4.35h-10.91999998v-6.6h14.79999998v.65c0 .33.27.6.6.6s.6-.27.6-.6v-1.25c0-.33-.27-.6-.6-.6h-15.99999998c-.33 0-.6.27-.6.6v16c0 .33.27.6.6.6h15.99999998c.33 0 .6-.27.6-.6v-9.98c0-.33-.27-.6-.6-.6s-.6.27-.6.6v1.18h-2.67c.27-1.78 1.8-3.15 3.66-3.15.97 0 1.88.37 2.57 1.04l-.77.73c-.17.16-.23.4-.16.62s.26.38.48.41l2.44.36.09.01c.15 0 .3-.06.41-.16.14-.12.21-.3.2-.48zm-6.25 8.82h-14.79999998v-7h14.79999998z"/></svg>