<svg height="32" viewBox="0 0 32 32" width="32" xmlns="http://www.w3.org/2000/svg"><g fill="none"><path d="m3.596 7.946c0-.74558441.60441559-1.35 1.35-1.35h16.1172c.7455844 0 1.35.60441559 1.35 1.35v16.1172c0 .7455844-.6044156 1.35-1.35 1.35h-16.1172c-.74558441 0-1.35-.6044156-1.35-1.35z" fill="#785d07"/><path d="m21.0632 24.0632h-16.1172v-7.623h16.1172z" fill="#af8c1d"/><path d="m21.0632 15.1334h-16.1172v-7.1874h16.1172z" fill="#af8c1d"/><path d="m11.3711 21.2624h3.267c.66429 0 1.1979-.53361 1.1979-1.1979v-.5445c0-.35937-.29403-.6534-.6534-.6534s-.6534.29403-.6534.6534c0 .2405752-.1950248.4356-.4356.4356h-2.178c-.2405752 0-.4356-.1950248-.4356-.4356 0-.35937-.29403-.6534-.6534-.6534s-.6534.29403-.6534.6534v.5445c0 .66429.53361 1.1979 1.1979 1.1979z" fill="#f3eb5b"/><path d="m11.3711 12.5504h3.267c.66429 0 1.1979-.53361 1.1979-1.1979v-.5445c0-.35937-.29403-.6534-.6534-.6534s-.6534.29403-.6534.6534c0 .2405752-.1950248.4356-.4356.4356h-2.178c-.2405752 0-.4356-.1950248-.4356-.4356 0-.35937-.29403-.6534-.6534-.6534s-.6534.29403-.6534.6534v.5445c0 .66429.53361 1.1979 1.1979 1.1979z" fill="#f3eb5b"/><g fill="#b75c64"><path d="m30.0418248 15.7025526-.2185-2.898c-.023-.2645-.1955-.4945-.437-.598-.253-.092-.529-.0345-.7245.1495l-.713.6785c-1.058-1.0465-2.461-1.6215-3.956-1.6215-2.8865 0-5.2785 2.1965-5.6005 5.0025h1.3915c.3105-2.047 2.07-3.6225 4.209-3.6225 1.1155 0 2.162.4255 2.9555 1.196l-.8855.8395c-.1955.184-.2645.46-.184.713s.299.437.552.4715l2.9095.4255c.1725 0 .345-.069.4715-.184.161-.138.2415-.345.23-.552z"/><path d="m22.402315 11.6428725c-2.1350467.6324378-3.749559 2.5032082-4.0099902 4.7726801h1.3915c.2307363-1.5211499 1.2616324-2.7819304 2.6538108-3.3293066z"/></g></g></svg>