<svg height="32" viewBox="0 0 32 32" width="32" xmlns="http://www.w3.org/2000/svg"><path d="m21.1102619 16.3131274c.2982338 0 .5456468.2175896.592147.5026768l.007853.0973232v8c0 .2982337-.2175896.5456467-.5026769.592147l-.0973231.007853h-15.8c-.29823376 0-.54564675-.2175896-.59214701-.5026769l-.00785299-.0973231v-8c0-.2982338.21758961-.5456468.50267688-.592147l.09732312-.007853zm-6.0370799 3.5922301c-.33 0-.6.27-.6.6v.4h-2.8v-.4c0-.33-.27-.6-.6-.6s-.6.27-.6.6v.5c0 .61.49 1.1 1.1 1.1h3c.61 0 1.1-.49 1.1-1.1v-.5c0-.33-.27-.6-.6-.6zm7.6908494-9.0044501.0973283.0077882c.0917416.0148397.1829029.0322533.2733951.0522206.8068917.1780432 1.5495555.5566047 2.1707893 1.1060808l.202918.1899104.6160679-.5869074c.1457143-.1371429.3428572-.1934694.5347522-.1563848l.0952478.0263848c.18.0771429.3159184.235102.3636735.4234985l.0163265.0965015.19 2.52c.01.18-.06.36-.2.48-.088.08-.2016.1344-.32032.15296l-.08968.00704-.09-.01-2.44-.36c-.22-.03-.41-.19-.48-.41-.06-.1885714-.0244898-.3918367.0939359-.5468222l.0660641-.0731778.77-.73-.0614039-.0645742-.0793447-.0742929c-.4654021-.4067375-1.0175048-.6859933-1.6175907-.8184041-.0682922-.0150689-.137128-.0282179-.206446-.0394304-.327119-.052913-.5494069-.3609899-.4964939-.6881089.0476217-.2944071.3019262-.503901.5907806-.5042821zm-1.6895014-4.91480008c.2982338 0 .5456468.21758961.592147.50267688l.007853.09732312.0002312 4.27934258c-2.3282931.1852642-4.207749 2.015121-4.4787097 4.3214478l-11.92152148-.0007904c-.29823376 0-.54564675-.2175896-.59214701-.5026769l-.00785299-.0973231v-7.99999998c0-.29823377.21758961-.54564675.50267689-.59214701l.09732311-.00785299zm.6007728 6.08409708-.0007728 2.5159029c0 .2982338-.2175896.5456468-.5026769.592147l-.0973231.007853h-2.669l.0327077-.175209c.3206309-1.5633196 1.6208453-2.7718788 3.2370651-2.9406939zm-6.6021208-2.44561481c-.33 0-.6.27-.6.60000001v.4h-2.8v-.4c0-.33000001-.27-.60000001-.6-.60000001s-.6.27-.6.60000001v.5c0 .61.49 1.1 1.1 1.1h3c.61 0 1.1-.49 1.1-1.1v-.5c0-.33000001-.27-.60000001-.6-.60000001z"/></svg>