<svg height="32" viewBox="0 0 32 32" width="32" xmlns="http://www.w3.org/2000/svg"><path d="m8.32879397 12.5148356c-.24089736-.2267475-.58026835-.2969622-.88875852-.184784-.31686856.115225-.53020145.4050357-.5443475.7445408l-.35952803 4.8318638c-.01445081.2593227.08496257.5116797.26974127.6822447.1581048.1437414.36825177.2262991.57957003.2262991.01654414.0000143.01654414.0000143.03925292-.0005417.04515715-.0016724.08620038-.0077529.12980402-.0222875l4.64733174-.6798332c.3206595-.0417914.5818901-.2673997.6818428-.5815367.0994527-.3125658.0124762-.6525648-.2268903-.8778509l-1.6944036-1.6313342.1398391-.1398391c1.405052-1.405052 3.2622518-2.1767767 5.2432233-2.1767767 4.0919288 0 7.42 3.3280712 7.42 7.42 0 .4680712.3819288.85.85.85s.85-.3819288.85-.85c0-5.0112557-4.095118-9.1-9.12-9.1-2.4406262 0-4.7332189.9494031-6.44730358 2.6737518l-.16608437.1660836z" fill="#b75c64"/></svg>