<svg height="32" viewBox="0 0 32 32" width="32" xmlns="http://www.w3.org/2000/svg"><path d="m16.0457359 9.53979235v2.17281935c-2.527907 0-4.5771806 2.0492736-4.5771806 4.5771807 0 2.527907 2.0492736 4.5771806 4.5771806 4.5771806 2.5279071 0 4.5771807-2.0492736 4.5771807-4.5771806 0-1.2639536-.5123184-2.4082487-1.3406252-3.2365555l1.8679221-1.8684251c1.7860545 1.1157517 3.2556862 2.5758878 4.2058044 3.6416289.7247075.8176187.7247075 2.1090846-.0092911 2.9267033l-.3074179.3399608-.3391244.3601106c-.0590891.061431-.119444.1235017-.1810369.186112l-.3841927.3813383c-1.9265984 1.8667049-4.8478461 4.0191267-8.088641 4.0191267-3.2482795 0-6.1709825-2.1463926-8.0978639-4.0156097l-.38423616-.3819847-.35449883-.3693049-.3234424-.3518555c-.05124575-.0569234-.10114252-.1129211-.14966282-.1678936-.7247075-.8176187-.7247075-2.1090846 0-2.9267033l.31694786-.3502882c.05566194-.0602936.11272255-.1214708.17115185-.1834223l.36676018-.3801298c.12756826-.1292259.26037144-.2606771.39816971-.3934811l.42814027-.4015979c1.84435794-1.6829649 4.43172634-3.4409919 7.29369414-3.57015094zm0 3.68888015v3.0611199l2.1645386-2.1645386c.5539538.5539537.8965813 1.3192337.8965813 2.1645386 0 1.6906098-1.3705101 3.0611198-3.0611199 3.0611198s-3.0611198-1.37051-3.0611198-3.0611198c0-1.6906099 1.37051-3.0611199 3.0611198-3.0611199zm-12.30987305-2.049218 1.02940389.5924404c.37673988.2168206.50796865.6969921.29387092 1.075286-.2125486.3755567-.68930215.5077008-1.06485885.2951522l-1.04675678-.603174c-.37248464-.2248161-.50049811-.6933861-.28374555-1.0745228.2248161-.3724847.69338614-.5004981 1.07208637-.2851818zm24.49756445-.0003538c.3780818-.2149625.8466519-.0869491 1.0732579.2885905.1970491.346575.1059029.7691852-.199393 1.0114576l-.0885164.0614105-1.0443829.6017738c-.3755567.2125486-.8523102.0804045-1.0648588-.2951522-.1962563-.3467694-.1023423-.7791443.2048585-1.0158057l.0890124-.0594803zm-18.68820143-4.41708325.59526973 1.02777038c.217856.37614205.0914177.85759718-.28314331 1.07816042-.34086327.20072006-.77172191.1133056-1.00982518-.1890772l-.06299601-.09296897-.60188073-1.04051628c-.21017311-.38093877-.086751-.85073907.29153059-1.07243689.38093877-.21017311.85073906-.086751 1.07104491.28906854zm13.91712343-.28731786c.3797535.22261413.5081359.69602415.2872288 1.07285764l-.5718941.99305633c-.1978199.34350128-.6165635.48038295-.9736168.33458744l-.0991432-.04885976c-.3754181-.2187961-.5034161-.69985885-.2863729-1.07629311l.5695426-.98780051c.2231058-.38059927.6965159-.50898165 1.0742556-.28754803zm-7.495623-2.16228208c.4323393 0 .7855067.35316747.7855067.78550673v1.11781858c0 .43411646-.3506418.78671167-.7847516.78915988-.4318348.00236237-.7838508-.34576414-.7862618-.77759892v-1.12937954c0-.43233926.3531674-.78550673.7855067-.78550673z"/></svg>