<svg height="32" viewBox="0 0 32 32" width="32" xmlns="http://www.w3.org/2000/svg"><g fill="none" fill-rule="evenodd"><g fill-rule="nonzero"><g fill="#b34874"><path d="m8.18265037 7.5453858c-.21017311-.38093877-.086751-.85073907.29153059-1.07243689.38093877-.21017311.85073906-.086751 1.07104491.28906854l.59526973 1.02777038c.217856.37614205.0914177.85759718-.28314331 1.07816042-.37185084.21896734-.85080361.09503078-1.06977095-.27682006l-.00305024-.00522611z"/><path d="m2.94752203 12.5391591c-.37248464-.2248161-.50049811-.6933861-.28374555-1.0745228.2248161-.3724847.69338614-.5004981 1.07208637-.2851818l1.02940389.5924404c.37673988.2168206.50796865.6969921.29387092 1.075286-.2125486.3755567-.68930215.5077008-1.06485885.2951522z"/><path d="m29.0187758 12.5405593c.3748585-.2262163.502872-.6947863.2879094-1.0728681-.226606-.3755396-.6951761-.503553-1.0732579-.2885905l-1.0300223.5927942c-.3767399.2168206-.5079687.6969921-.2938709 1.075286.2125486.3755567.6893021.5077008 1.0648588.2951522z"/><path d="m15.1812196 5.09792424c0-.43233926.3531674-.78550673.7855067-.78550673s.7855067.35316747.7855067.78550673v1.11781858c0 .43411646-.3506418.78671167-.7847516.7891478-.4318348.00237445-.7838508-.34575206-.7862618-.77758684z"/><path d="m22.3880937 6.76224762c.2231058-.38059927.6965159-.50898165 1.0742556-.28754803.3797535.22261413.5081359.69602415.2872288 1.07285764l-.5718941.99305633c-.2158035.37472867-.6945245.50356292-1.0692532.28775936l-.0035068-.00203168c-.3754181-.2187961-.5034161-.69985885-.2863729-1.07629311z"/></g><path d="m25.3560179 14.8264407c-1.756022-1.9697179-5.2866483-5.28664835-9.309704-5.28664835-4.0323469 0-7.56297321 3.31693045-9.30970411 5.28664835-.7247075.8176187-.7247075 2.1090846 0 2.9267033 1.7467309 1.979009 5.27735721 5.2866484 9.30970411 5.2866484 4.0230557 0 7.553682-3.3169305 9.3004129-5.2866484.7339986-.8176187.7339986-2.1090846.0092911-2.9267033z" fill="#afdfef"/></g><circle cx="16.045736" cy="16.289792" fill="#69520c" r="4.577181"/><circle cx="16.045736" cy="16.289792" fill="#000" r="3.06112"/><path d="m16.0463139 9.53979235c1.8464556 0 3.5891801.69871815 5.1042092 1.64521285l-5.1047872 5.1047872v-6.75000005z" fill="#fff" fill-rule="nonzero"/></g></svg>