<svg height="32" viewBox="0 0 32 32" width="32" xmlns="http://www.w3.org/2000/svg"><path d="m15.9983035 13.875c-.88 0-1.76.34-2.43 1.02-1.34 1.37-1.34 3.58 0 4.95l.06.06c1.34 1.31 3.49 1.28 4.8-.06.67-.68 1.01-1.58 1.01-2.47h-3.44zm12.15-.11c-.17-.29-.53-.39-.82-.22l-2.33 1.34c-.87-.88-1.97-1.84-3.21-2.65l1.29-2.24c.17-.29.07-.65-.22-.82s-.65-.07-.82.22l-1.28 2.22c-1.28-.7-2.69-1.21-4.16-1.32v-2.5c0-.33-.27-.6-.6-.6s-.6.27-.6.6v2.5c-1.48.11-2.88.62-4.16 1.31l-1.27999998-2.21c-.17-.29-.53-.38-.82-.22-.29.17-.38.53-.22.82l1.28999998 2.23c-1.24999998.82-2.33999998 1.78-3.20999998 2.66l-2.32-1.34c-.29-.17-.65-.07-.82.22s-.07.65.22.82l2.07 1.19-.17.19c-.78.88-.78 2.27 0 3.15 1.88 2.13 5.67999998 5.69 10.01999998 5.69 4.33 0 8.13-3.57 10.01-5.69.78-.88.78-2.27 0-3.15l-.16-.18 2.08-1.2c.28-.16.38-.53.22-.82zm-3.03 4.56c-1.75 1.97-5.26 5.29-9.12 5.29s-7.36999998-3.31-9.11999998-5.29c-.38-.43-.38-1.13 0-1.56 1.75-1.98 5.24999998-5.29 9.11999998-5.29 3.86 0 7.37 3.31 9.12 5.29.38.43.38 1.13 0 1.56z"/></svg>