<svg height="32" viewBox="0 0 32 32" width="32" xmlns="http://www.w3.org/2000/svg"><path d="m16 18.155588c4.1798404 0 7.8621785 2.7483757 9.0512134 6.755527l.3428484 1.1554289c.1415903.4771717-.215943.9562032-.7136785.9562032h-17.36076659c-.49773553 0-.85526881-.4790315-.7136785-.9562032l.34284837-1.1554289c1.18903489-4.0071513 4.87137302-6.755527 9.05121342-6.755527zm.0805865 1.2909049c-.5984163 0-1.0880297.4787331-1.0880297 1.0880298 0 .5984164.4896134 1.0880297 1.0880297 1.0880297.5984164 0 1.0880298-.478733 1.0880298-1.0880297 0-.5984164-.4787331-1.0880298-1.0880298-1.0880298zm-.0805865-14.46924001c3.2723485 0 5.9251112 2.65276263 5.9251112 5.92511121 0 3.2723485-2.6527627 5.9251111-5.9251112 5.9251111s-5.9251112-2.6527626-5.9251112-5.9251111c0-3.27234858 2.6527627-5.92511121 5.9251112-5.92511121zm.0119969 1.749339-.2117928.00498079c-.9767321.04886859-1.7894194.4368073-2.4124089 1.14953281l-.1553276.18705849-.1194361.16953177c-.2997199.47757079-.4525422 1.12518889-.4525422 1.6990419 0 .40966515.3343498.74401485.7440149.74401485s.7440149-.3343497.7440149-.74401485l.0069239-.15762185c.022672-.26664102.0989648-.54537628.1982855-.72227402l.0521435-.07663235c.396682-.51238091.9091224-.75659079 1.5917698-.75659079.6263559 0 1.1082336.20564583 1.4889652.63273916l.1169412.13920077.0531838.07805291c.1649882.26957957.2365574.73499188.1661709 1.14956422l-.0350673.1608059-.0045395.0605033-.044585.1168068c-.1123659.3126487-.3260165.6213478-.6825211 1.0125632l-.1594588.1711315-.2905723.3015895-.2398971.2419136-.2432587.2578195c-.5619379.6210494-.8512424 1.1652384-.8512424 1.7878823 0 .4096651.3343498.7440149.7440149.7440149.3648444 0 .6755916-.2668253.7342153-.6236511l.0178271-.2010851c.0259648-.1449605.152659-.3534916.3757634-.6122536l.1091137-.1224884.2020608-.2123078.4887882-.4969215c.6288322-.6549252.9983469-1.1666353 1.2115873-1.7870228l.0716068-.2398308.00832-.0661528.0364285-.1317893c.1829752-.90085538-.0125047-1.88274534-.5059513-2.50412249-.621828-.83518765-1.4807306-1.29167188-2.5333074-1.34808993z"/></svg>