<svg height="32" viewBox="0 0 32 32" width="32" xmlns="http://www.w3.org/2000/svg"><path d="m16 18.155588c4.1798404 0 7.8621785 2.7483757 9.0512134 6.755527l.3428484 1.1554289c.1415903.4771717-.215943.9562032-.7136785.9562032h-17.36076659c-.49773553 0-.85526881-.4790315-.7136785-.9562032l.34284837-1.1554289c1.18903489-4.0071513 4.87137302-6.755527 9.05121342-6.755527zm0 1.2c-3.559587 0-6.70583045 2.2834533-7.82098788 5.6429303l-.07980324.2539595-.16920888.5695222h16.139l-.1682089-.5695222c-1.012592-3.4125236-4.0967136-5.7792091-7.6346224-5.8926272z"/><path d="m16.0805865 20.4464929c-.5984163 0-1.0880297.4787331-1.0880297 1.0880298 0 .5984164.4896134 1.0880297 1.0880297 1.0880297.5984164 0 1.0880298-.478733 1.0880298-1.0880297 0-.5984164-.4787331-1.0880298-1.0880298-1.0880298z"/><path d="m16 4.97725289c3.2723485 0 5.9251112 2.65276263 5.9251112 5.92511121 0 3.2723485-2.6527627 5.9251111-5.9251112 5.9251111s-5.9251112-2.6527626-5.9251112-5.9251111c0-3.27234858 2.6527627-5.92511121 5.9251112-5.92511121zm0 1.2c-2.6096068 0-4.7251112 2.11550433-4.7251112 4.72511121 0 2.6096068 2.1155044 4.7251111 4.7251112 4.7251111s4.7251112-2.1155043 4.7251112-4.7251111c0-2.60960688-2.1155044-4.72511121-4.7251112-4.72511121z"/><path d="m16.1901386 7.48682101-.1794163-.00481912-.1734973.00403279c-.802324.04013102-1.4702658.35897502-1.9817216.94410144l-.1264462.15225793-.0986378.13980462c-.2480118.39509707-.3734231.92655457-.3734231 1.39800803 0 .3528155.2878365.640652.6406521.640652.3207414 0 .5877811-.2378814.633683-.5462081l.0148019-.24430351c.020428-.20291214.0789546-.41144334.1535214-.54425237l.0391491-.05741332c.3140165-.40560465.7179435-.59810113 1.2592861-.59810113.4967513 0 .8766859.16214065 1.1776963.49980508l.0940036.11192247.0409533.06044493c.127352.20822562.1838946.57592035.1283443.90310805l-.0280781.1285632-.0045394.0570579-.0344689.0835537c-.0883926.2457937-.2588888.4921398-.5445743.8056409l-.1288773.1383079-.2349277.2438275-.1939336.195558-.1976994.2095162c-.461429.5099563-.6998625.9584556-.6998625 1.474258 0 .3528156.2878365.6406521.6406521.6406521.3142224 0 .5817238-.2296921.6322117-.5369969l.0148039-.165796c.0191318-.1056585.1187072-.2695537.2952868-.474355l.0879808-.0987576.1628265-.1710536.3954746-.4020476c.5131758-.5344658.8153001-.9528526.9902302-1.4617828l.0584843-.1957687.0083201-.0644301.0284989-.0980542c.150592-.74133798-.0100245-1.54810984-.4170542-2.06066584-.5097361-.68466422-1.21589-1.05996651-2.0797033-1.10626685z"/></svg>