<svg height="32" viewBox="0 0 32 32" width="32" xmlns="http://www.w3.org/2000/svg"><path d="m14.2087832 20.2296455-3.2220759-3.2220758c-.3029804-.3029805-.1998851-.8167333.1965303-.9793653.4822652-.1978524 1.0786673-.2868676 1.7499408-.2644877.907004.0335927 1.8832908.2683864 2.530432.623424l4.2-7.74000001c.1913054-.35254851.6679984-.42172586.9516251-.13809917l6.03 6.02999998c.2835612.2835613.2144922.7601276-.1379042.9515192l-7.7682936 4.2172549c.5820026 1.1770978.7758159 3.0572188.3182788 4.1901678-.16098.398617-.6766272.5035682-.9806092.1995863l-3.019396-3.0193961-3.540733 3.540733c-.2343146.2343146-.6142135.2343146-.8485281 0-.2343146-.2343145-.2343146-.6142135 0-.8485281zm3.9022981 2.2052419c.0093766-.7464252-.1587944-1.6110584-.4504409-2.2007324-.2786703-.5772456-.0586535-1.2754935.5052243-1.5787852l7.0627568-3.8358859-4.8936171-4.89361719-3.8111024 7.02309259c-.3060027.5916051-1.0487537.8119126-1.6295938.4914366-.475582-.2586499-1.2726866-.4503585-2.0033257-.4774234-.0868828-.0028961-.1714495-.0034337-.2535158-.0016998zm-6.1696269-16.05702997c.24-.23.62-.23.85 0 .24.24.24.62 0 .85l-1.87 1.87 1.86 1.86999997c.23.24.23.62 0 .85-.24.23-.62.23-.85 0l-1.87-1.86999997-1.87000003 1.86999997c-.11.12-.27.18-.42.18s-.3-.06-.42-.18c-.23-.24-.23-.62 0-.85l1.87-1.86999997-1.87-1.87c-.23-.24-.23-.62 0-.85.24-.23.62-.23.85 0l1.87000003 1.87z"/></svg>