<svg height="32" viewBox="0 0 32 32" width="32" xmlns="http://www.w3.org/2000/svg"><g fill="none"><path d="m13.2551744 20.5206192 1.5242421 1.5490093c-4.1039893 3.3903362-6.16586358 5.0750737-6.37803741 4.8511231-.21211808-.2240064 1.46993332-2.2896688 4.85379531-6.4001324z" fill="#3e5b63"/><path d="m17.8275873 20.4949921c-.3351702.1795555-.4668442.5985183-.2992591.9456588.5506367 1.1132439.8618662 3.1841169.3591109 4.4290348l-8.48698832-8.4869883c.46684421-.1915258 1.07733282-.2872887 1.79555462-.263348.9695995.0359111 2.034962.2872888 2.7172727.65837.3471406.1915259.7900441.0598519.9695995-.2872887l5.0275531-9.26506199 7.2181297 7.21812969z" fill="#a9bec3"/><path d="m17.8275873 20.4949921c-.3351702.1795555-.4668442.5985183-.2992591.9456588.5506367 1.1132439.8618662 3.1841169.3591109 4.4290348l-4.247193-4.247193 9.8792494-9.7416861 3.6090649 3.5626918z" fill="#7b9095"/><path d="m11.3041219 9.848171 1.873833 1.873833c.3309763.3309763.3309763.8711052 0 1.2020815s-.8711052.3309763-1.2020815 0l-1.873833-1.873833-1.87383295 1.873833c-.33097631.3309763-.87110522.3309763-1.20208153 0s-.33097631-.8711052 0-1.2020815l1.87383297-1.873833-1.87383297-1.87383297c-.33097631-.33097631-.33097631-.87110521 0-1.20208152.33097631-.33097632.87110522-.33097632 1.20208153 0l1.87383295 1.87383297 1.873833-1.87383297c.3309763-.33097632.8711052-.33097632 1.2020815 0 .3309763.33097631.3309763.87110521 0 1.20208152z" fill="#b75c64"/></g></svg>