<svg height="32" viewBox="0 0 32 32" width="32" xmlns="http://www.w3.org/2000/svg"><path d="m17.028 6c1.995 0 3.885.756 5.3445 2.121 1.1445 1.071 1.9425 2.4675 2.2785 3.99 1.197.042 2.3625.546 3.2025 1.3965.8925.8925 1.3755 2.079 1.3755 3.339 0 1.2705-.4935 2.4675-1.386 3.36-.833.8428-1.9312533 1.32888-3.1069484 1.3899449l-.2530516.0065551-7.115-.001 2.9411481 2.9520924c.3259848.340158.3531501.8633733.075124 1.2284357l-.0833968.095385c-.340158.3259847-.8633733.3531501-1.2252835.078344l-.0944448-.0824364-2.962557-2.962557-2.9542713 2.9539269c-.1696068.1850257-.4164695.2871757-.6647174.2871757-.2426436 0-.4762833-.0983746-.6605467-.282726-.3259848-.340158-.3531502-.8633733-.078344-1.2252836l.0824364-.0944447 2.946853-2.947912-5.5265.001c-1.54164706 0-3.00888581-.5673633-4.14785264-1.6057969l-.20964736-.2002031c-1.1655-1.1655-1.806-2.709-1.806-4.3575 0-1.659.6405-3.2025 1.806-4.368s2.7195-1.806 4.368-1.806c.3885 0 .798.042 1.218.126.0525.0105.1155.0315.1785.042.5985-.903 1.4175-1.68 2.3625-2.268 1.134-.70753846 2.4200947-1.10194083 3.7509231-1.1584315l.3335769-.0070685zm3.2880557 11.300912c-.3597121-.3597121-.9486469-.3597121-1.3197283-.0040924l-1.8679405 1.8678165-.0838053.0958915c-.2792781.3669459-.2513503.8929529.0837834 1.2280865l.095886.083796c.3669562.2792742.8929694.2513354 1.2281005-.0838094l1.8637042-1.86378.079262-.0862985c.2906272-.3604688.2642065-.8941417-.079262-1.2376102zm-7.3434448-.0824364c-.3619102-.2748062-.8851255-.2476408-1.2252835.078344l-.0833968.095385c-.2780262.3650624-.2508608.8882777.075124 1.2284357l1.8385158 1.8382683c.0000685.0000685.0001369.0001369.0002054.0002054l.0958385.0836923c.366811.2789567.892463.2508486 1.2272507-.0841922.3653852-.3656613.3652966-.95825-.000198-1.3238021l-1.8336113-1.8339z"/></svg>