<svg height="32" viewBox="0 0 32 32" width="32" xmlns="http://www.w3.org/2000/svg"><path d="m19.635 17.09c-.23-.23-.61-.23-.85 0l-2.87 2.87-2.87-2.87c-.23-.23-.61-.23-.85 0-.23.23-.23.61 0 .85l2.87 2.87-2.87 2.87c-.23.23-.23.61 0 .85.12.12.27.18.42.18s.31-.06.42-.18l2.87-2.87 2.87 2.87c.23.23.61.23.85 0 .23-.23.23-.61 0-.85l-2.86-2.87 2.87-2.87c.24-.23.24-.61 0-.85zm7.54-2.65c-.8-.81-1.91-1.29-3.05-1.33-.32-1.45-1.08-2.78-2.17-3.8-1.39-1.3-3.19-2.02-5.09-2.02h-.01c-1.38 0-2.72.38-3.89 1.11-.9.56-1.68 1.3-2.25 2.16-.06-.01-.12-.03-.17-.04-.4-.08-.79-.12-1.16-.12-1.57 0-3.05.61-4.16 1.72s-1.72 2.58-1.72 4.16c0 1.57.61 3.04 1.72 4.15s2.59 1.72 4.15 1.72c.33 0 .6-.27.6-.6s-.27-.6-.6-.6c-1.25 0-2.42-.49-3.31-1.37-.88-.88-1.37-2.05-1.37-3.3s.49-2.43 1.37-3.31 2.06-1.37 3.31-1.37c.29 0 .61.03.93.09.14.03.3.07.49.13.27.09.56-.03.7-.27.5-.86 1.23-1.6 2.1-2.15.98-.61 2.11-.93 3.27-.93 1.59 0 3.1.6 4.27 1.69 1.02.96 1.7 2.25 1.9 3.64.05.33.35.55.68.51.08-.01.16-.02.25-.02h.02c.87 0 1.73.36 2.34.98.63.63.97 1.46.97 2.35s-.34 1.72-.97 2.35c-.62.63-1.46.97-2.35.97h-1.78c-.33 0-.6.27-.6.6s.27.6.6.6h1.78c1.21 0 2.35-.47 3.2-1.33.85-.85 1.32-1.99 1.32-3.2-.01-1.18-.47-2.32-1.32-3.17z"/></svg>