<svg height="32" viewBox="0 0 32 32" width="32" xmlns="http://www.w3.org/2000/svg"><path d="m16.86 6.62c1.9 0 3.7.72 5.09 2.02 1.09 1.02 1.85 2.35 2.17 3.8 1.14.04 2.25.52 3.05 1.33.85.85 1.31 1.99 1.33 3.17 0 1.21-.47 2.35-1.32 3.2-.7933333.8026667-1.8392889 1.2656-2.9589985 1.323757l-.2410015.006243-7.048.004.0003964 4.8425093c0 .3417453-.2541908.6270039-.5828415.6760447l-.1006492.007446c-.3417454 0-.6270039-.2541908-.6760448-.5828415l-.007446-.1006492-.0004149-4.8415093-6.195.005c-1.46823529 0-2.86560554-.540346-3.95033584-1.5293303l-.19966416-.1906697c-1.11-1.11-1.72-2.58-1.72-4.15 0-1.58.61-3.05 1.72-4.16s2.59-1.72 4.16-1.72c.37 0 .76.04 1.16.12l.17.04c.57-.86 1.35-1.6 2.25-2.16 1.08-.67384615 2.3048521-1.04946746 3.5723077-1.10326809zm-.5313538 4.7809876c-.2050472 0-.3987029.0911321-.535401.2506132l-3.4630197 4.3173831c-.1708727.2050473-.1936557.4898351-.0797406.7290568.1139151.2392218.3645284.3873114.6265332.3873114l2.6883968-.0341745v2.2653317c0 .3759199.3075709.6834907.6834908.6834907s.6834907-.3075708.6834907-.6834907v-2.2881147l2.779529-.0455661c.2620047 0 .5012265-.1594811.6037501-.3873114.045566-.0911321.0683491-.1936557.0683491-.2961793 0-.1480897-.0455661-.3075708-.1480897-.421486l-3.3718876-4.2148594c-.1253066-.1594812-.3303538-.2620048-.5354011-.2620048z"/></svg>