<svg height="32" viewBox="0 0 32 32" width="32" xmlns="http://www.w3.org/2000/svg"><g fill="none"><path d="m27.7385 12.7025c-.84-.8505-2.0055-1.3545-3.2025-1.3965-.336-1.5225-1.134-2.919-2.2785-3.99-1.4595-1.365-3.3495-2.121-5.3445-2.121h-.0105c-1.449 0-2.856.399-4.0845 1.1655-.945.588-1.764 1.365-2.3625 2.268-.063-.0105-.126-.0315-.1785-.042-.42-.084-.8295-.126-1.218-.126-1.6485 0-3.2025.6405-4.368 1.806s-1.806 2.709-1.806 4.368c0 1.6485.6405 3.192 1.806 4.3575s2.7195 1.806 4.3575 1.806h15.3195c1.2705 0 2.4675-.4935 3.36-1.3965.8925-.8925 1.386-2.0895 1.386-3.36 0-1.26-.483-2.4465-1.3755-3.339z" fill="#afdfef"/><path d="m28.1097403 19.8140284c-.6289303.6390743-1.4810295.9839716-2.3838488.9839716h-14.7900066c-1.2680047 0-2.45485708-.4970578-3.35767641-1.3897331-.8926753-.8926753-1.38973313-2.0795277-1.38973313-3.3475324s.49705783-2.4650011 1.38973313-3.3576764 2.08967171-1.3897331 3.35767641-1.3897331c.2941771 0 .6187863.0304321.9433955.0912963.1420165.0304321.3043211.0710083.4970578.1318725.273889.0912963.5680661-.0304321.7100826-.273889.5072019-.8723872 1.2477166-1.623046 2.1302479-2.18096806.9941157-.61878628 2.1403919-.94339548 3.3069562-.94339548h.010144c1.612902 0 3.1446516.60864225 4.331504 1.71434233 1.0346918.97382761 1.7244864 2.28240841 1.9273671 3.69242961.0507202.3347533.3550414.5579221.6897946.5173459.0811523-.010144.1623046-.020288.2536009-.020288h.0202881c.8825313 0 1.7549185.3651853 2.3737048.9941156.6390743.6390744.9839716 1.4810295.9839716 2.3838488-.0202881.9129634-.3651853 1.7549185-1.0042597 2.3939929z" fill="#7bc8e2" transform="matrix(-1 0 0 1 35.302476 0)"/><path d="m18.3870346 23.7341114c.0911321.045566.1936557.068349.2961793.068349.1480897 0 .3075708-.045566.4214859-.1480896l4.2148595-3.3718876c.1594812-.1253066.2620048-.3303539.2620048-.5354011s-.0911321-.3987029-.2506132-.535401l-4.3173831-3.4630197c-.2050473-.1708727-.4898351-.1936557-.7290568-.0797406-.2392218.1139151-.3873114.3645284-.3873114.6265332l.0341745 2.6883968h-8.26533168c-.3759199 0-.68349072.3075708-.68349072.6834907s.30757082.6834908.68349072.6834908h8.28811468l.0455661 2.7795289c0 .2620048.1594811.5012266.3873114.6037502z" fill="#252d4f" transform="matrix(0 -1 1 0 -3.418436 35.982552)"/></g></svg>