<svg height="32" viewBox="0 0 32 32" width="32" xmlns="http://www.w3.org/2000/svg"><path d="m16.3286462 12.4009876c.2050473 0 .4100945.1025236.5354011.2620048l3.3718876 4.2148594c.1025236.1139152.1480897.2733963.1480897.421486 0 .1025236-.0227831.2050472-.0683491.2961793-.1025236.2278303-.3417454.3873114-.6037501.3873114l-2.779529.0455661v8.2881147c0 .3759199-.3075708.6834907-.6834907.6834907s-.6834908-.3075708-.6834908-.6834907v-8.2653317l-2.6883968.0341745c-.2620048 0-.5126181-.1480896-.6265332-.3873114-.1139151-.2392217-.0911321-.5240095.0797406-.7290568l3.4630197-4.3173831c.1366981-.1594811.3303538-.2506132.535401-.2506132zm.5313538-5.7809876c1.9 0 3.7.72 5.09 2.02 1.09 1.02 1.85 2.35 2.17 3.8 1.14.04 2.25.52 3.05 1.33.85.85 1.31 1.99 1.33 3.17 0 1.21-.47 2.35-1.32 3.2-.85.86-1.99 1.33-3.2 1.33h-3.78c-.33 0-.6-.27-.6-.6s.27-.6.6-.6h3.78c.89 0 1.73-.34 2.35-.97.63-.63.97-1.46.97-2.35s-.34-1.72-.97-2.35c-.61-.62-1.47-.98-2.34-.98h-.02c-.09 0-.17.01-.25.02-.33.04-.63-.18-.68-.51-.2-1.39-.88-2.68-1.9-3.64-1.17-1.09-2.68-1.69-4.27-1.69-1.16 0-2.29.32-3.27.93-.87.55-1.6 1.29-2.1 2.15-.14.24-.43.36-.7.27-.19-.06-.35-.1-.49-.13-.32-.06-.64-.09-.93-.09-1.25 0-2.43.49-3.31 1.37s-1.37 2.06-1.37 3.31.49 2.42 1.37 3.3c.89.88 2.06 1.37 3.31 1.37h3.25c.33 0 .6.27.6.6s-.27.6-.6.6h-3.26c-1.56 0-3.04-.61-4.15-1.72s-1.72-2.58-1.72-4.15c0-1.58.61-3.05 1.72-4.16s2.59-1.72 4.16-1.72c.37 0 .76.04 1.16.12.05.01.11.03.17.04.57-.86 1.35-1.6 2.25-2.16 1.17-.73 2.51-1.11 3.89-1.11z"/></svg>