<svg height="32" viewBox="0 0 32 32" width="32" xmlns="http://www.w3.org/2000/svg"><g fill="none" fill-rule="evenodd"><path d="m10.7362 13.9086817c2.3431457 2.3431457 6.1421356 2.3431457 8.4852813 0 2.3431458-2.3431458 2.3431458-6.14213566 0-8.48528141-2.3431457-2.34314575-6.1421356-2.34314575-8.4852813 0-2.34314579 2.34314575-2.34314579 6.14213561 0 8.48528141z" fill="#8ad047"/><path d="m8.97884065 9.66604097c0 3.31370853 2.68629155 6.00000003 6.00000005 6.00000003 3.3137084 0 6-2.6862915 6-6.00000003z" fill="#cbedac"/><circle cx="14.978841" cy="9.666041" fill="#007b3d" r="3.955883"/><path d="m7.78724548 18.5505986c.11931832-.1253981.27280518-.2130341.4414446-.2520505l.25886057-.0598899c1.15808084-.2679335 2.37279145.0741773 3.22082405.9071121l1.5630395 1.5352971.348826-11.07412736c.0202911-.76633475.6473638-1.37702355 1.4139671-1.37702355.7607757 0 1.3775062.61673052 1.3775062 1.37750618v6.07729273l7.99995 3.3871023-.6877715 6.4016491c-.1495815 1.6206383-1.5091412 2.8604922-3.1366678 2.8604922h-3.5998857c-1.3030464 0-2.5322902-.6048037-3.3274177-1.6371321l-2.0168535-2.6185174c-.4705777-.6109596-.9689526-1.199996-1.493551-1.7652495l-2.33120094-2.5118634c-.35392282-.3367634-.36783327-.8966752-.03106988-1.250598z" fill="#e39b5a"/><path d="m24.4417221 18.5466779-.0300586.5251398-.3040071 2.7546246.0349789-.3920789c.0349788-.4883156.0233192-.8388065-.0349789-1.0514727l-.0240479-.0732893c-.2320034-.5910052-.8669132-.9057984-1.4681581-.7503005l-.1664839.0550157c-.3599252.1354954-.7659354.0446462-1.0337978-.2313155l-.3048352-.3111834c-.304204-.3019645-.7680194-.3742285-1.1496637-.1791124l-.2228954.1139482c-.2982811.1524869-.6597832.1046046-.9080802-.1202785l-.4289091-.3884638c-.3488535-.3159573-.8511285-.3966707-1.2814083-.2059167-.2542509.1127158-.5517363-.002021-.6644521-.2562719-.0284917-.0642681-.0432112-.1337897-.0432112-.2040902v-2.4984606c0-.7834139.6350824-1.4184964 1.4184964-1.4184964.7373307 0 1.3432675.5625644 1.4120029 1.2818857l.0064935.1366107-.0009875.5704873c.2531393-.3879513.6910405-.6443637 1.18883-.6443637.7373308 0 1.3432676.5625644 1.4120029 1.2818857l.0064935.1366107-.0009875.5438505c.2531394-.3879514.6910406-.6443638 1.1888301-.6443638.7373307 0 1.3432675.5625644 1.4120029 1.2818857.0043274.2292553-.0000653.4585923-.0131686.6875137z" fill="#ab6723"/></g></svg>