<svg height="32" viewBox="0 0 32 32" width="32" xmlns="http://www.w3.org/2000/svg"><path d="m15.6484705 9.95548691c.8682097 0 1.5806846.66677969 1.653277 1.51619119l.0060908.1431767-.0008383 2.9791452.0648864-.0198262.1384964-.0298486.1424502-.0182814.1458966-.0062066c.6164832 0 1.1601753.331219 1.4564228.8400009l.0688057.1308057.0490419.1193562.1207362-.0277053.0761003-.0123227.0769961-.0088794.1562958-.0071786c.6164831 0 1.1601752.331219 1.4564228.8400009l.0688057.1308057.0416431.1002794.1281349-.0291135.0761004-.0123227.0769961-.0088794.1562957-.0071786c.8733512 0 1.6006147.6647381 1.6857907 1.5745076v.2872755l-.0110009.2870663-.024523.4230355-.2352956 2.6300275-.0184983.1065818-.2752876 2.9957426c-.1324865 1.4354224-1.2542299 2.5595223-2.6543023 2.7239672l-.1764073.0155105-.1789979.0052327h-2.7684835c-1.1139883 0-2.1688255-.4847374-2.8937766-1.3210071l-.1405115-.1719016-1.5510563-2.0137645c-.233795-.3035402-.4767968-.5998192-.7286581-.8884261l-.384393-.4271051-1.86249896-2.0068301c-.41679099-.4925314-.40400143-1.230336.05091444-1.7084316.13815498-.1451945.30796012-.2554102.49532392-.3226013l.1435948-.0422005.1990761-.0460582c1.0222687-.236512 2.0914016.0318219 2.8789921.712516l.1536669.1416096.2208048.2167475.2292726-8.1403977c.0215885-.8153333.6188012-1.4830129 1.3964109-1.61813782l.1478193-.01900108zm0 1.19999999c-.2349951 0-.4319709.1664009-.4777764.3897092l-.0098699.0861943-.2682638 9.5165313c-.0138389.4909292-.5699245.745363-.9473259.4727705l-.0728842-.0616316-1.20204-1.180705c-.463713-.4554573-1.1112206-.6648926-1.7480247-.5735275l-.1732623.0324167-.1990761.0460583c-.0153056.0035411-.0292359.0114948-.0400651.0228758-.0229232.0240913-.0279439.0586987-.0044218.0985777l.0334303.041442 1.7928046 1.9317425c.2772877.2987769.5453347.6059344.8037715.9210357l.380401.4785551 1.5510564 2.0137645c.4596012.5967085 1.1508289.9653075 1.896223 1.0184842l.1873743.0066724h2.7684835c.889327 0 1.640364-.6398532 1.7939604-1.5007026l.02081-.1541234.2875519-3.1253713.0072016-.0547659.0111254-.051961.2215071-2.477891.0303805-.5631119.0046035-.2781154c-.0238617-.2497148-.2352231-.4429047-.4886182-.4429047-.1346288 0-.2594614.0542144-.3503508.1469212l-.0534187.0650599.0005088.0027824-.0130382.0264687c-.0538116.1092431-.0868204.227166-.0977303.3477631l-.0034956.1212663c0 .2761423-.2238576.5-.5.5-.2454599 0-.4496083-.1768752-.4919443-.4101244l-.0080557-.0898756.001117-1.2871029c-.0267166-.2467276-.2366814-.4367505-.4879909-.4367505-.1346288 0-.2594615.0542144-.3503509.1469212l-.0700199.0866517-.0493491.1665657c-.0269794.1149307-.0406719.232781-.0406719.3512293v.3823821c0 .2761423-.2238576.5-.5.5-.2454599 0-.4496084-.1768752-.4919443-.4101244l-.0080557-.0898756-.000979-1.1911771-.0028953-.0480651.0014352-.4092058-.0029498-.0764741c-.0238617-.2497148-.235223-.4429047-.4886181-.4429047-.2409882 0-.4414176.173653-.4829824.402653l-.0099896.1159967.0020842.0293488v1c0 .3313709-.2686292.6-.6.6-.2982338 0-.5456468-.2175896-.592147-.5026768l-.007853-.0973232v-1l.0019158-.0293488-.0019193-.0277584v-4.5958737c0-.2537019-.205666-.4593679-.4593678-.4593679zm-.2297922-7.53614274c4.120602 0 7.4610098 3.34040786 7.4610098 7.46100974 0 .8529844-.1434172 1.6872228-.4208941 2.4761549-.1099451.3125999-.4524856.4768841-.7650855.3669389-.3125999-.1099451-.476884-.4524856-.3669389-.7650855.2326391-.6614478.3529185-1.3610966.3529185-2.0780083 0-3.45786018-2.8031495-6.26100974-6.2610098-6.26100974-3.4578602 0-6.26100974 2.80314956-6.26100974 6.26100974 0 2.2125881 1.15651074 4.2247766 3.01279164 5.3536775.2831248.172183.373061.5412828.2008781.8244077-.172183.2831248-.5412828.373061-.8244077.2008781-2.21063636-1.3444029-3.58926204-3.7430446-3.58926204-6.3789633 0-4.12060188 3.34040784-7.46100974 7.46100974-7.46100974zm0 2.95173194c2.4904054 0 4.5092779 2.01887246 4.5092779 4.5092778 0 .3531146-.0407052.701375-.1205778 1.0396533-.0761478.322503-.3993181.5222133-.721821.4460655-.322503-.0761478-.5222133-.3993181-.4460655-.7218211.0585744-.2480755.0884643-.5038039.0884643-.7638977 0-1.82766364-1.4816142-3.3092778-3.3092779-3.3092778-1.8276636 0-3.3092778 1.48161416-3.3092778 3.3092778 0 .6098219.1646359 1.1940342.4719553 1.7043489.1709511.2838703.079412.6525759-.2044583.823527-.2838703.1709512-.652576.0794121-.8235271-.2044583-.4190908-.695915-.6439699-1.4939012-.6439699-2.3234176 0-2.49040534 2.0188725-4.5092778 4.5092778-4.5092778z"/></svg>