<svg height="32" viewBox="0 0 32 32" width="32" xmlns="http://www.w3.org/2000/svg"><path d="m15.5173986 10.191284c.6883208 0 1.2463151.5579943 1.2463151 1.2463151l-.0000451 5.2207451.0066712-.1215257c.065723-.647163.6122725-1.1521812 1.2767754-1.1521812.6671088 0 1.2153373.5089869 1.2775265 1.1598014l.005875.1236001-.0008934.5161552c.2290308-.3510035.6252271-.5829957 1.0756081-.5829957.6671088 0 1.2153373.5089868 1.2775265 1.1598014l.005875.1236001-.0008934.4920552c.2290308-.3510036.6252271-.5829958 1.0756081-.5829958.6671088 0 1.2153373.5089868 1.2775265 1.1598014.0039153.2074214-.0000591.4149167-.0119145.6220361l-.0271959.4751265-.6222694 5.7419683c-.1353356 1.4662917-1.3654135 2.5880643-2.8379376 2.5880643h-3.2570394c-1.1789467 0-2.2911197-.5472033-3.0105208-1.4812148l-1.8247721-2.3691347c-.4257609-.552773-.8766714-1.0857107-1.3513081-1.5971306l-2.10918183-2.2726383c-.32021588-.3046906-.33280153-.8112775-.02811083-1.1314934.10795466-.1134554.24682373-.1927451.39940225-.2280456l.23420718-.0541862c1.04778743-.242416 2.14681133.0671128 2.91407883.8207205l1.4141787 1.3890783.3156044-10.0194485c.0183586-.6933505.5857101-1.2458785 1.2793036-1.2458785zm-.0987203-6.57193984c4.120602 0 7.4610098 3.34040786 7.4610098 7.46100974 0 .8529844-.1434172 1.6872228-.4208941 2.4761549-.1099451.3125999-.4524856.4768841-.7650855.3669389-.3125999-.1099451-.476884-.4524856-.3669389-.7650855.2326391-.6614478.3529185-1.3610966.3529185-2.0780083 0-3.45786018-2.8031495-6.26100974-6.2610098-6.26100974-3.4578602 0-6.26100974 2.80314956-6.26100974 6.26100974 0 2.2125881 1.15651074 4.2247766 3.01279164 5.3536775.2831248.172183.373061.5412828.2008781.8244077-.172183.2831248-.5412828.373061-.8244077.2008781-2.21063636-1.3444029-3.58926204-3.7430446-3.58926204-6.3789633 0-4.12060188 3.34040784-7.46100974 7.46100974-7.46100974zm0 2.95173194c2.4904054 0 4.5092779 2.01887246 4.5092779 4.5092778 0 .3531146-.0407052.701375-.1205778 1.0396533-.0761478.322503-.3993181.5222133-.721821.4460655-.322503-.0761478-.5222133-.3993181-.4460655-.7218211.0585744-.2480755.0884643-.5038039.0884643-.7638977 0-1.82766364-1.4816142-3.3092778-3.3092779-3.3092778-1.8276636 0-3.3092778 1.48161416-3.3092778 3.3092778 0 .6098219.1646359 1.1940342.4719553 1.7043489.1709511.2838703.079412.6525759-.2044583.823527-.2838703.1709512-.652576.0794121-.8235271-.2044583-.4190908-.695915-.6439699-1.4939012-.6439699-2.3234176 0-2.49040534 2.0188725-4.5092778 4.5092778-4.5092778z"/></svg>