<svg height="32" viewBox="0 0 32 32" width="32" xmlns="http://www.w3.org/2000/svg"><path d="m16.0109212 4.5c6.3384102 0 11.4945264 5.15611614 11.4836312 11.4945264 0 3.2184674-1.3575008 6.316516-3.7439835 8.4950024l-.0109471.0109472c-2.1128035 1.9376487-4.8714898 2.999524-7.7396478 2.999524-2.8791052 0-5.6268444-1.0728225-7.75059497-3.0104712-2.37553546-2.1784864-3.74393146-5.276535-3.74393146-8.4950024 0-6.33841026 5.15611613-11.4945264 11.50547363-11.4945264zm.9882154 17.3762948h-1.8883053c-1.9965384 0-3.8261622 1.0168736-4.8899775 2.6452879 1.7002261 1.1564509 3.7042288 1.7784173 5.7791202 1.7784173 2.1099867 0 4.149967-.6407665 5.8571626-1.8268333-1.0687236-1.6008741-2.8822125-2.5968719-4.858-2.5968719zm-.9882154-16.1762948c-5.6850973 0-10.30547363 4.6173406-10.30547363 10.2945264 0 2.8792383 1.22511311 5.6573856 3.3527296 7.6085231.06894625.0629046.13861644.1247859.20898976.1856358 1.28303587-1.9081637 3.45435747-3.1123905 5.84366437-3.1123905h1.8883053c2.36518 0 4.5167548 1.1800294 5.8045255 3.0548013.0292948-.0262004.0584393-.0525834.0874315-.0791483l.0504485-.0486896c2.1322672-1.9464274 3.3530239-4.7205078 3.3530239-7.610801.0097357-5.6728837-4.6068054-10.2924572-10.2836448-10.2924572zm-.0109212 3.32695551c2.8714611 0 5.1992403 2.32777919 5.1992403 5.19924029s-2.3277792 5.1992403-5.1992403 5.1992403-5.1992403-2.3277792-5.1992403-5.1992403 2.3277792-5.19924029 5.1992403-5.19924029zm0 1.19999999c-2.2087194 0-3.9992403 1.7905209-3.9992403 3.9992403s1.7905209 3.9992403 3.9992403 3.9992403 3.9992403-1.7905209 3.9992403-3.9992403-1.7905209-3.9992403-3.9992403-3.9992403z"/></svg>