<svg height="32" viewBox="0 0 32 32" width="32" xmlns="http://www.w3.org/2000/svg"><path d="m23.7626234 18c1.5849426.5763428 2.6611954 2.0454497 2.7447598 3.7163159l.0052402.2098591v3.073825l-8.8260425-.0004812.0007957-3.0733438-.0056143-.2398143c-.0502772-1.0087564-.3731851-1.9536957-.9061814-2.7516888.414374-.4056438.9179124-.7277155 1.4870425-.9346719 1.7764311-.6459749 3.723569-.6459749 5.5 0zm-10.0252468 0c1.5849426.5763428 2.6611954 2.0454497 2.7447597 3.7163159l.0052403.2098591v3.073825h-11.00000004v-3.073825l.00524028-.2098591c.08356432-1.6708662 1.15981713-3.1399731 2.74475972-3.7163159 1.77643104-.6459749 3.72356894-.6459749 5.50000004 0zm7.1080393-11c2.318969 0 4.1988648 1.91530714 4.1988648 4.2779582 0 2.2216297-1.6621795 4.0477237-3.7886216 4.2577998l-.2006775.014923-.2095657.0052355-.2095657-.0052355c-2.2216101-.1112545-3.9892991-1.9816672-3.9892991-4.2727228 0-2.36265106 1.8798958-4.2779582 4.1988648-4.2779582zm-10.0252469 0c2.3189691 0 4.1988649 1.91530714 4.1988649 4.2779582 0 2.2216297-1.6621796 4.0477237-3.7886216 4.2577998l-.2006776.014923-.2095657.0052355-.2095657-.0052355c-2.22161009-.1112545-3.98929908-1.9816672-3.98929908-4.2727228 0-2.36265106 1.87989581-4.2779582 4.19886478-4.2779582z" fill-rule="evenodd"/></svg>