<svg height="32" viewBox="0 0 32 32" width="32" xmlns="http://www.w3.org/2000/svg"><path d="m19.0865905 5.96039536c.2677735.19520232.3266042.57051845.1314019.83829204-.1952024.26777358-.5705185.32660422-.8382921.1314019-.7207585-.52542052-1.5876521-.81269999-2.4994573-.81269999-.3313708 0-.6-.26862915-.6-.6s.2686292-.6.6-.6c1.1680259 0 2.2819664.36914825 3.2063475 1.04300605zm1.9542874 6.15558134c-.1064158.3138189-.4470834.4819523-.7609023.3755365s-.4819524-.4470833-.3755366-.7609022c.1506139-.4441585.2238086-.9051043.2232046-1.4438533-.0076525-.42212302-.0768311-.83465318-.2040259-1.22842765-.1018557-.31532849.0711982-.65352309.3865267-.75537877.3153285-.10185567.6535231.07119824.7553788.38652674.1633386.50566969.2521267 1.03513664.2620332 1.58563678.0008559.6783404-.0930914 1.2699757-.2866785 1.8408619zm-5.3372871 3.6948244c-.3312022-.0105716-.5911247-.2876339-.5805531-.6188361.0105715-.3312022.2876338-.5911247.618836-.5805531l.2339675.0011534c.859877-.018935 1.6764551-.2938598 2.3636806-.7827148.2700225-.1920794.6446301-.1288941.8367095.1411284s.128894.6446301-.1411285.8367095c-.8814909.627045-1.9307777.980318-3.0416062 1.004715zm-5.0630014-3.9481106c-.0909011-.3186591.0937332-.6506733.4123923-.7415744s.6506733.0937332.7415744.4123923c.2464117.8638102.7635942 1.626757 1.470009 2.1796084.2609553.2042278.3069421.5813331.1027143.8422884-.2042277.2609553-.5813331.3069421-.8422884.1027144-.9050405-.708299-1.5680151-1.6863182-1.8844016-2.7954291zm2.2455443-6.04945617c.2767048-.1823214.648819-.10580854.8311405.17089626.1823214.2767048.1058085.64881906-.1708963.83114046-.748996.49351512-1.3267774 1.21342703-1.6430257 2.05291234-.1168188.3100968-.4629022.46677963-.772999.3499609-.3100968-.11681874-.4667796-.46290215-.3499609-.77299895.405836-1.07729674 1.1459981-1.99953406 2.1057414-2.63191101zm6.2856845 12.57697937c.3063457.1263287.4522784.4770806.3259497.7834263-.1263287.3063458-.4770806.4522784-.7834263.3259498-.8561051-.3530346-1.7753723-.5367676-2.7143416-.5367676-.3313708 0-.6-.2686292-.6-.6 0-.3313709.2686292-.6.6-.6 1.0966222 0 2.1712522.2147853 3.1718182.6273915zm4.8837917 5.580281c.094763.3175321-.085827.6517633-.403359.7465263-.3175321.094763-.6517633-.0858269-.7465263-.403359l-.0999409-.3349954c-.2529487-.8164955-.6469635-1.5730427-1.1623862-2.2412363-.2023924-.2623813-.1537617-.6391549.1086196-.8415473.2623814-.2023923.6391549-.1537617.8415473.1086197.6024276.7809868 1.0630277 1.6653842 1.3602891 2.6250265zm-6.2531179 2.247718c-.3313708 0-.6-.2686291-.6-.6 0-.3313708.2686292-.6.6-.6h3c.3313709 0 .6.2686292.6.6 0 .3313709-.2686291.6-.6.6zm-7 0c-.3313708 0-.6-.2686291-.6-.6 0-.3313708.2686292-.6.6-.6h3c.3313709 0 .6.2686292.6.6 0 .3313709-.2686291.6-.6.6zm-1.18948769-5.4707951c.21263857-.2541486.59104429-.2877991.84519279-.0751605.2541486.2126386.2877991.5910443.0751605.8451928-.59449755.7105517-1.04630667 1.5321275-1.32842107 2.4269163-.09964146.3160352-.43661394.4914569-.75264909.3918154-.31603516-.0996414-.4914569-.4366139-.39181544-.7526491.32954135-1.0452139.8577273-2.0056744 1.55253231-2.8361149zm6.28830039-2.9840155c.331348-.0038951.6031162.2615578.6070114.5929057.0038952.331348-.2615577.6031163-.5929057.6070114-.8126216.0095528-1.6097237.1567557-2.3632285.4325827-.3111774.1139091-.6557781-.0460083-.7696873-.3571857-.1139091-.3111773.0460084-.655778.3571857-.7696872.8807201-.3223952 1.8125002-.4944694 2.7616244-.5056269z" stroke="#000" stroke-width=".4"/></svg>