<svg height="32" viewBox="0 0 32 32" width="32" xmlns="http://www.w3.org/2000/svg"><g fill="none" fill-rule="evenodd"><path d="m23.7626234 18c1.5849426.5763428 2.6611954 2.0454497 2.7447598 3.7163159l.0052402.2098591v3.073825h-11v-3.073825l.0052403-.2098591c.0835643-1.6708662 1.1598171-3.1399731 2.7447597-3.7163159 1.7764311-.6459749 3.723569-.6459749 5.5 0zm-2.9172075-11c2.318969 0 4.1988648 1.91530714 4.1988648 4.2779582 0 2.2216297-1.6621795 4.0477237-3.7886216 4.2577998l-.2006775.014923-.2095657.0052355-.2095657-.0052355c-2.2216101-.1112545-3.9892991-1.9816672-3.9892991-4.2727228 0-2.36265106 1.8798958-4.2779582 4.1988648-4.2779582z" fill="#d0e7ef"/><path d="m13.7373766 18c1.5849426.5763428 2.6611954 2.0454497 2.7447597 3.7163159l.0052403.2098591v3.073825h-11.00000004v-3.073825l.00524028-.2098591c.08356432-1.6708662 1.15981713-3.1399731 2.74475972-3.7163159 1.77643104-.6459749 3.72356894-.6459749 5.50000004 0zm-2.9172076-11c2.3189691 0 4.1988649 1.91530714 4.1988649 4.2779582 0 2.2216297-1.6621796 4.0477237-3.7886216 4.2577998l-.2006776.014923-.2095657.0052355-.2095657-.0052355c-2.22161009-.1112545-3.98929908-1.9816672-3.98929908-4.2727228 0-2.36265106 1.87989581-4.2779582 4.19886478-4.2779582z" fill="#007880"/></g></svg>