<svg height="32" viewBox="0 0 32 32" width="32" xmlns="http://www.w3.org/2000/svg"><path d="m16.0121934 4.64574519c6.3385609 0 11.4932296 5.15805459 11.482359 11.49219861 0 3.2272005-1.3630543 6.324642-3.7438695 8.4979549l-.056329.0543651c-.0323717.0296614-.0649134.0591198-.0976229.0883742-1.4378799-2.0933049-3.8402533-3.4108846-6.4811308-3.4108846h-2.1084158c-2.6678167 0-5.0922386 1.3445977-6.5248317 3.4751868-.0785764-.0679429-.1563677-.1370375-.23335068-.2072746-2.37562233-2.178572-3.7435409-5.2805543-3.7435409-8.4954114 0-6.3389476 5.158951-11.49450901 11.50673228-11.49450901zm-.0121934 5.11614058c-2.4655703 0-4.46431 1.99873963-4.46431 4.46431003 0 2.4655703 1.9987397 4.46431 4.46431 4.46431s4.46431-1.9987397 4.46431-4.46431c0-2.4655704-1.9987397-4.46431003-4.46431-4.46431003z"/></svg>