<svg height="32" viewBox="0 0 32 32" width="32" xmlns="http://www.w3.org/2000/svg"><g fill="none"><path d="m16.0109385 4.5c-6.34935748 0-11.50547362 5.15611614-11.50547362 11.4945264 0 3.2184674 1.36839601 6.316516 3.74393147 8.4950024 2.12375055 1.9376487 4.87148975 3.0104712 7.75059495 3.0104712 2.868158 0 5.6268444-1.0618753 7.7396478-2.999524l.0109472-.0109472c2.3864826-2.1784864 3.7439488-5.276535 3.7439488-8.4950024.0109298-6.33841026-5.1451864-11.4945264-11.4835966-11.4945264z" fill="#afdfef"/><path d="m23.4054125 24.7951656c-2.0653239 1.7503581-4.6861727 2.7048344-7.4054212 2.7048344-2.6901269 0-5.2655669-.936609-7.32447387-2.6401585 1.11651361-2.5177074 3.62514987-4.1835467 6.43533117-4.1835467h1.8883053c2.7860479 0 5.2757079 1.6373503 6.4062586 4.1188708zm-7.4686651-5.3697295c-2.8714612 0-5.1992403-2.3277792-5.1992403-5.1992403s2.3277791-5.19924029 5.1992403-5.19924029c2.8714611 0 5.1992402 2.32777919 5.1992402 5.19924029s-2.3277791 5.1992403-5.1992402 5.1992403z" fill="#007880"/></g></svg>