<svg height="32" viewBox="0 0 32 32" width="32" xmlns="http://www.w3.org/2000/svg"><path d="m5.48737656 24.4v-2.473825l.00524028-.2098591c.08356432-1.6708662 1.15981713-3.1399731 2.74475972-3.7163159 1.77643104-.6459749 3.72356894-.6459749 5.50000004 0 .9942579.3615484 1.7883343 1.0744207 2.2627476 1.9680333.4741649-.8936126 1.2682413-1.6064849 2.2624992-1.9680333 1.7764311-.6459749 3.723569-.6459749 5.5 0 1.5849426.5763428 2.6611954 2.0454497 2.7447598 3.7163159l.0052402.2098591v2.473825c0 .3313708-.2686291.6-.6.6h-19.82524684c-.33137085 0-.6-.2686292-.6-.6zm13.18533854-5.2722479c-1.0639788.3869014-1.8099805 1.3405636-1.9389349 2.4257405l-.0162904.1927785-.0048664.1799039-.0006234 1.873825h8.6l.0009974-1.8438698-.0041163-.1798742c-.0597042-1.1937836-.8297836-2.2388436-1.9563493-2.6485039-1.5115221-.5496444-3.1682946-.5496444-4.6798167 0zm-10.02524686 0c-1.06397877.3869014-1.80998051 1.3405636-1.93893489 2.4257405l-.01629045.1927785-.00486634.1799039-.00037656 1.873825h8.6l.0007505-1.8438698-.0041163-.1798742c-.0597042-1.1937836-.8297836-2.2388436-1.9563493-2.6485039-1.5115221-.5496444-3.1682946-.5496444-4.67981666 0zm12.19794766-12.1277521c2.318969 0 4.1988648 1.91530714 4.1988648 4.2779582 0 2.2216297-1.6621795 4.0477237-3.7886216 4.2577998l-.2006775.014923-.2095657.0052355-.2095657-.0052355c-2.2216101-.1112545-3.9892991-1.9816672-3.9892991-4.2727228 0-2.29105557 1.767689-4.1614682 3.9892991-4.27272272zm-10.0252469 0c2.3189691 0 4.1988649 1.91530714 4.1988649 4.2779582 0 2.2216297-1.6621796 4.0477237-3.7886216 4.2577998l-.2006776.014923-.2095657.0052355-.2095657-.0052355c-2.22161009-.1112545-3.98929908-1.9816672-3.98929908-4.2727228 0-2.29105557 1.76768899-4.1614682 3.98929908-4.27272272zm10.0252469 1.2c-1.6511631 0-2.9988648 1.37308814-2.9988648 3.0779582 0 1.586581 1.1706901 2.8945568 2.6475521 3.0592205l.1717167.0138766.1496263.0052355.1505456-.0023056.1716909-.0124137c1.5237942-.1505392 2.706598-1.4707219 2.706598-3.0636133 0-1.70487006-1.3477016-3.0779582-2.9988648-3.0779582zm-10.0252469 0c-1.65116311 0-2.99886478 1.37308814-2.99886478 3.0779582 0 1.586581 1.17069008 2.8945568 2.64755208 3.0592205l.1717167.0138766.1496264.0052355.1505456-.0023056.1716908-.0124137c1.5237942-.1505392 2.7065981-1.4707219 2.7065981-3.0636133 0-1.70487006-1.3477017-3.0779582-2.9988649-3.0779582z"/></svg>