<svg height="32" viewBox="0 0 32 32" width="32" xmlns="http://www.w3.org/2000/svg"><path d="m20.802492 24.8182127c.4418278 0 .8.3581722.8.8s-.3581722.8-.8.8h-3c-.4418278 0-.8-.3581722-.8-.8s.3581722-.8.8-.8zm.8273705-4.0806908c.3498418-.2698565.8522065-.2050156 1.122063.1448262.6196259.8032825 1.0899359 1.7097174 1.3935755 2.6899866l.1017564.3409655c.1263507.423376-.1144359.8690176-.537812.9953684-.4233761.1263507-.8690177-.114436-.9953737-.5378298l-.0993304-.3329877c-.2449835-.7907844-.626958-1.5265053-1.1297049-2.1782662-.2698565-.3498418-.2050157-.8522065.1448261-1.122063zm-7.8273705 4.0806908h-3c-.4418278 0-.8.3581722-.8.8s.3581722.8.8.8h3c.4418278 0 .8-.3581722.8-.8s-.3581722-.8-.8-.8zm-4.3428799-4.1991339c-.71420042.8536222-1.25369012 1.8380003-1.58988419 2.9043148-.13285528.4213802.10104038.8706768.52242058 1.0035321.42138021.1328553.87067685-.1010403 1.00353213-.5224206.27317592-.8664383.71107578-1.6655003 1.29106918-2.3587164.2835181-.3388648.2386508-.8434057-.1002139-1.1269238-.3388648-.2835181-.84340571-.2386508-1.1269238.1002139zm6.5403879-3.0562566c1.1186125 0 2.2194531.2183242 3.2480643.6424955.408461.1684382.6030378.6361074.4345996 1.0445684s-.6361074.6030379-1.0445684.4345997c-.7309123-.3014085-1.506465-.4747508-2.3109851-.5140095l-.3785669-.011087-.0307822.0039161c-.674683.0079313-1.3403204.1134981-1.9795156.3129036l-.3173136.107505c-.4149031.1518789-.8743707-.0613444-1.0262496-.4762475s.0613444-.8743708.4762475-1.0262496c.791887-.2898771 1.6216028-.460193 2.4655364-.5058706l.3769495-.0115771.0321276.0016201zm2.2235916-3.8959447c-.6590773.4688319-1.4377893.7278035-2.2521534.7457363l-.2285785-.0011995c-.4362084-.013996-.8056248.3325673-.8197202.7741702s.3324679.8110194.7740708.8251148l.2951809.001701c1.1483982-.0251465 2.238-.3868441 3.1586418-1.0417389.36003-.2561059.4442771-.7555827.1881713-1.1156127-.2561059-.36003-.7555827-.4442771-1.1156127-.1881712zm-7.2254736-2.7380892c-.4248788.1212015-.6710579.5638871-.5498564.9887659.3270111 1.1463561 1.0123197 2.161509 1.9534671 2.8980658.3479404.2723037.8507475.210988 1.1230512-.1369524.2723036-.3479404.2109879-.8507476-.1369525-1.1230512-.675276-.5284818-1.1668706-1.2564158-1.4009435-2.0769717-.1212015-.4248788-.5638871-.6710579-.9887659-.5498564zm9.2505511-2.8161546c-.420438.13580757-.6511766.5867337-.515369 1.00717169.1216586.37663518.1871101.76975866.1943764 1.17057741.000542.5092892-.0679066.9491718-.2126439 1.3760005-.1418878.4184253.0822902.8726487.5007154 1.0145364s.8726486-.0822902 1.0145364-.5007154c.2020746-.5959158.2981493-1.2099084.2972778-1.9053418-.0102385-.57017774-.1013256-1.11934224-.2717214-1.64685982-.1358076-.420438-.5867337-.65117655-1.0071717-.51536898zm-7.4725761-2.46640549c-.9967338.65675011-1.7628773 1.61355957-2.1828607 2.72841079-.1557583.41346239.0531522.87490695.4666146 1.03066526s.8749069-.05315213 1.0306652-.46661453c.3008137-.79851359.850833-1.48524909 1.5659065-1.95641256.3689397-.2430952.4709569-.73924755.2278617-1.10818728s-.7392476-.47095688-1.1081873-.22786168zm3.10415-.9288389c-.4418278 0-.8.3581722-.8.8s.3581722.8.8.8c.8632549 0 1.6900611.27016492 2.3816423.77431565.3570315.26026976.857453.18182891 1.1177227-.17520254.2602698-.35703145.1818289-.85745296-.1752025-1.11772272-.9648106-.70333024-2.1214326-1.08139039-3.3241625-1.08139039z"/></svg>