<svg height="32" viewBox="0 0 32 32" width="32" xmlns="http://www.w3.org/2000/svg"><path d="m16 17.9597449c3.8000866 0 7.1478707 2.4986756 8.2288774 6.1417626l.3116993 1.0504539c.1287263.4338189-.1963237.8693286-.6488382.8693286h-15.78347704c-.45251443 0-.77756449-.4355097-.64883818-.8693286l.31169933-1.0504539c1.05526844-3.5563468 4.27065759-6.0221293 7.95823639-6.1375314zm0 1.2c-3.1804762 0-5.9926299 2.0347419-6.99881742 5.0312159l-.07963767.2519094-.11354491.3781298h14.383l-.1125449-.3781298c-.9047468-3.0490756-3.6553942-5.166225-6.8142988-5.2784382zm-.119757-13.1810349c2.9750437 0 5.3867931 2.41174939 5.3867931 5.386793 0 2.9024816-2.2955378 5.2688117-5.170139 5.3825158l-.2166541.0042773c-2.9750436 0-5.386793-2.4117494-5.386793-5.3867931 0-2.90248157 2.2955378-5.26881159 5.170139-5.38251568zm0 1.2c-2.3123019 0-4.186793 1.87449109-4.186793 4.186793 0 2.312302 1.8744911 4.1867931 4.186793 4.1867931 2.312302 0 4.1867931-1.8744911 4.1867931-4.1867931 0-2.31230191-1.8744911-4.186793-4.1867931-4.186793z"/></svg>