<svg height="32" viewBox="0 0 32 32" width="32" xmlns="http://www.w3.org/2000/svg"><path d="m24.48 20.3120388v-14.50173424h-13.8v5.02000004c0 .33-.27.6-.6.6s-.6-.27-.6-.6v-5.62000004c0-.33.27-.6.6-.6h15c.33 0 .6.27.6.6v15.21752134c1.7318085.4278944 3.0158571 1.9919831 3.0158571 3.8559774 0 2.193545-1.7782195 3.9717646-3.9717645 3.9717646h-8.9364703c-2.193545 0-3.9717646-1.7782196-3.9717646-3.9717646 0-.1602259.0094877-.3182359.0279318-.4734987h-1.7637895c-.33 0-.6-.27-.6-.6v-5.62c0-.33.27-.6.6-.6s.6.27.6.6v5.02h1.5045861c.6314954-1.3573054 2.0073792-2.2982658 3.6030362-2.2982658zm-10.2-5.5317342v.02h-5.6c-.03 0-1.42-.03-2.33.85-.55.53-.83 1.32-.83 2.33v.51c0 .33-.27.6-.6.6s-.6-.27-.6-.6v-.51c0-1.36.41-2.44 1.21-3.21.25-.24.52-.43.79-.58-.28-.15-.54-.34-.79-.58-.8-.77-1.21-1.85-1.21-3.21v-.37c0-.33000004.27-.60000004.6-.60000004s.6.27.6.60000004v.37c0 1.01.28 1.79.83 2.33.92.89 2.32.85 2.33.85h5.57l-.03-2.36c0-.23.13-.45.34-.55s.46-.08.64.07l3.79 3.04c.14.12.22.29.22.47s-.09.36-.23.47l-3.7 2.96c-.1.09-.24.13-.37.13-.09 0-.18-.02-.26-.06-.2-.09-.34-.3-.34-.53zm2.3066631 11.5109248c.9014811 0 1.4491957-.5477147 1.4491957-1.5057018v-2.1031437c0-.2255814-.1804251-.4060066-.4060066-.4060066-.2289072 0-.4103532.1794073-.4103532.4060066v2.1292234c0 .4709206-.2171625.7023818-.6241426.7023818-.406312 0-.6284892-.2440307-.6284892-.7241149v-2.1074903c0-.2255814-.1804252-.4060066-.4060067-.4060066-.2289072 0-.4103532.1794073-.4103532.4060066v2.1292234c0 .9369394.5439967 1.4796221 1.4361558 1.4796221zm3.8687946-.4320863v-2.7837924h.6024095c.2125092 0 .3842735-.1760054.3842735-.3886202 0-.2126147-.1717643-.3886201-.3842735-.3886201h-2.0211789c-.2157805 0-.3886201.1749475-.3886201.3886201 0 .2136727.1728396.3886202.3886201.3886202h.5980629v2.7837924c0 .2254777.1846318.4060066.4103532.4060066s.4103533-.1805289.4103533-.4060066zm2.4543717.0043466v-1.9769422l.480858.721287c.0832906.1281569.1954565.201818.3388826.201818.1467301 0 .2594801-.0729559.3441297-.203186l.4843041-.7278627v1.9805393c0 .2212348.1847718.4060066.4060066.4060066.2289072 0 .4103532-.1794073.4103532-.4060066v-3.1680659c0-.2267454-.1815678-.4103533-.4103532-.4103533h-.0565061c-.1564252 0-.280354.0720127-.3631814.2058109l-.8059577 1.2599935-.8028632-1.2573139c-.0823621-.1304099-.2069587-.2084905-.3664799-.2084905h-.056506c-.2287854 0-.4103533.1836079-.4103533.4103533v3.1724125c0 .2255814.1760786.40166.40166.40166.2257251 0 .4060066-.1761842.4060066-.40166z"/></svg>