<svg height="32" viewBox="0 0 32 32" width="32" xmlns="http://www.w3.org/2000/svg"><path d="m25.415 4.46530456c.33 0 .6.27.6.6v14.86000004c0 .33-.27.6-.6.6h-2.215v.786l1.5240926.0007342c2.193545 0 3.9717645 1.7782195 3.9717645 3.9717645s-1.7782195 3.9717646-3.9717645 3.9717646h-8.9364703c-2.193545 0-3.9717646-1.7782196-3.9717646-3.9717646 0-.3592343.0476923-.7073295.1370905-1.0382992l-5.3679482-.0001995c-.33 0-.6-.27-.6-.6v-14.86000004c0-.33.27-.6.6-.6h3.16v-3.12c0-.33.27-.6.6-.6zm-7.7851478 18.81107274c-.2002938 0-.3642501.1373587-.4021096.3235022l-.0082436.0825044v2.1292234c0 .4709206-.2171625.7023818-.6241426.7023818-.3693746 0-.5865716-.2016782-.6230093-.5990414l-.0054799-.1250735v-2.1074903c0-.2255814-.1804252-.4060066-.4060067-.4060066-.2002938 0-.3642501.1373587-.4021096.3235022l-.0082436.0825044v2.1292234c0 .9369394.5439967 1.4796221 1.4361558 1.4796221.8484528 0 1.3835346-.4851728 1.4435496-1.3409321l.0056461-.1647697v-2.1031437c0-.2255814-.1804251-.4060066-.4060066-.4060066zm3.428015.0217331h-2.0211789c-.2157805 0-.3886201.1749475-.3886201.3886201 0 .1869636.1323303.3442782.309969.3806856l.0786511.0079346h.5980629v2.7837924c0 .2254777.1846318.4060066.4103532.4060066.1975063 0 .3635533-.1382174.401979-.3238243l.0083743-.0821823v-2.7837924h.6024095c.2125092 0 .3842735-.1760054.3842735-.3886202 0-.2126147-.1717643-.3886201-.3842735-.3886201zm1.5111549-.0173865h-.056506c-.2001873 0-.3642236.1405748-.4021047.3276202l-.0082486.0827331v3.1724125c0 .2255814.1760786.40166.40166.40166.1975095 0 .3602262-.1348911.3978193-.319665l.0081873-.081995v-1.9769422l.480858.721287c.0832906.1281569.1954565.201818.3388826.201818.1173841 0 .2130209-.0466918.2899209-.1320463l.0542088-.0711397.4843041-.7278627v1.9805393c0 .2212348.1847718.4060066.4060066.4060066.2002938 0 .3642502-.1373588.4021096-.3235023l.0082436-.0825043v-3.1680659c0-.1984022-.1390128-.3637773-.3270344-.402021l-.0833188-.0083323h-.0565061c-.1251401 0-.2294826.0460881-.3086216.133028l-.0545598.0727829-.8059577 1.2599935-.8028632-1.2573139c-.0823621-.1304099-.2069587-.2084905-.3664799-.2084905zm-12.8140221-13.90541934h-2.57v13.66000004l5.3280314.0001845c.7160715-1.0409417 1.915627-1.7234503 3.2745909-1.7234503l6.2123777-.0007342v-.786h-11.645c-.33 0-.6-.27-.6-.6zm15.06-3.71h-13.87v13.66000004h13.87zm-4.45 6.40000004 2.16 1.63v3.29h-9.29v-1.22l1.67-1.78 2.6.79zm-4.59-3.19000004c.8.01 1.44.66 1.44 1.46000004-.01.8-.66 1.44-1.46 1.44-.8-.01-1.44-.65-1.44-1.45v-.01c.01-.80000004.66-1.44000004 1.46-1.44000004z"/></svg>