<svg height="32" viewBox="0 0 32 32" width="32" xmlns="http://www.w3.org/2000/svg"><g fill="none" fill-rule="evenodd"><path d="m8.65317431 23.7465476v-14.67330878l5.00315209-4.98489136h10.7094246v19.65820014z" fill="#afdfef" transform="matrix(-1 0 0 1 33.018926 0)"/><path d="m24.3646258 9.07211771h-5.014314v-4.98377025h.0122872z" fill="#45889f"/><path d="m24.365751 14.0863718-5.0154392-5.01425409h5.014314l.0011252.00112111z" fill="#8bc6da"/><g fill-rule="nonzero"><path d="m13.0821369 14.5302438.0291701 2.3724994c0 .2236372.136127.4278277.3305941.515338.0777869.0388934.1652971.0583401.2528073.0583401.1264037 0 .2625307-.0388934.3597643-.1264036l3.5976426-2.8781141c.136127-.1069569.2236372-.2819774.2236372-.4569978 0-.1750205-.0777869-.3403176-.2139139-.4569979l-3.6851528-2.9559009c-.1750204-.1458504-.4181044-.1652971-.6222949-.0680635s-.3305942.3111475-.3305942.5347847l.0291701 2.2947126h-5.41591056c-.00972335 0-1.37099351.0388934-2.26554247-.8264855-.53478471-.5250613-.80703874-1.2834833-.80703874-2.2655425v-.35976422c0-.32087082-.26253067-.58340149-.5834015-.58340149-.32087082 0-.58340149.26253067-.58340149.58340149v.35976422c0 1.3223768.39865769 2.3724995 1.17652635 3.121198.24308396.2333606.49589127.4181045.7681453.5639548-.26253067.1458504-.52506134.3305942-.7681453.5639548-.77786866.7486986-1.17652635 1.7988213-1.17652635 3.121198v.4958913c0 .3208708.26253067.5834015.58340149.5834015.32087083 0 .5834015-.2625307.5834015-.5834015v-.4958913c0-.9820592.27225403-1.7502045.80703874-2.2655425.8848256-.8556555 2.2363724-.8264854 2.26554247-.8264854h5.44508066z" fill="#252d4f"/><path d="m15.7876223 20.3120388h8.9364703c2.193545 0 3.9717645 1.7782195 3.9717645 3.9717645s-1.7782195 3.9717646-3.9717645 3.9717646h-8.9364703c-2.193545 0-3.9717646-1.7782196-3.9717646-3.9717646s1.7782196-3.9717645 3.9717646-3.9717645z" fill="#b34874"/><path d="m16.5866631 26.2912294c-.8921591 0-1.4361558-.5426827-1.4361558-1.4796221v-2.1292234c0-.2265993.181446-.4060066.4103532-.4060066.2255815 0 .4060067.1804252.4060067.4060066v2.1074903c0 .4800842.2221772.7241149.6284892.7241149.4069801 0 .6241426-.2314612.6241426-.7023818v-2.1292234c0-.2265993.181446-.4060066.4103532-.4060066.2255815 0 .4060066.1804252.4060066.4060066v2.1031437c0 .9579871-.5477146 1.5057018-1.4491957 1.5057018zm3.8687946-.4320863c0 .2254777-.1846319.4060066-.4103533.4060066s-.4103532-.1805289-.4103532-.4060066v-2.7837924h-.5980629c-.2157805 0-.3886201-.1749475-.3886201-.3886202 0-.2136726.1728396-.3886201.3886201-.3886201h2.0211789c.2125092 0 .3842735.1760054.3842735.3886201 0 .2126148-.1717643.3886202-.3842735.3886202h-.6024095zm2.4543717.0043466c0 .2254758-.1802815.40166-.4060066.40166-.2255814 0-.40166-.1760786-.40166-.40166v-3.1724125c0-.2267454.1815679-.4103533.4103533-.4103533h.056506c.1595212 0 .2841178.0780806.3664799.2084905l.8028632 1.2573139.8059577-1.2599935c.0828274-.1337982.2067562-.2058109.3631814-.2058109h.0565061c.2287854 0 .4103532.1836079.4103532.4103533v3.1680659c0 .2265993-.181446.4060066-.4103532.4060066-.2212348 0-.4060066-.1847718-.4060066-.4060066v-1.9805393l-.4843041.7278627c-.0846496.1302301-.1973996.203186-.3441297.203186-.1434261 0-.255592-.0736611-.3388826-.201818l-.480858-.721287z" fill="#fff"/></g></g></svg>