<svg height="32" viewBox="0 0 32 32" width="32" xmlns="http://www.w3.org/2000/svg"><g fill="none"><path d="m4.20461511 25.2586488v-19.09457564h2.21618296v16.95347864h14.14119363v2.141097z" fill="#f5a8c6"/><path d="m26.5508959 23.2520724h-20.37137653v-20.10857564h20.37137653z" fill="#fff"/><path d="m25.0438959 21.7450724v-17.09457564h-17.35737653v17.09457564z" fill="#6ec38c"/><path d="m22.1781142 14.5462839-2.7030954-2.0398359-3.5790985 3.3913836-3.253726-.9886321-2.0898932 2.2275508v1.5267484h11.6258131z" fill="#257843"/><path d="m13.8655484 12.46054c1.0011464 0 1.8145779-.8009171 1.8270923-1.8020636 0-1.00114641-.8009172-1.8145779-1.8020637-1.82709224-1.0011464 0-1.8145779.80091716-1.8270922 1.80206364v.0125143c0 1.0011465.8009171 1.8020636 1.8020636 1.8145779z" fill="#257843"/><path d="m15.7876223 20.3120388h8.9364703c2.193545 0 3.9717645 1.7782195 3.9717645 3.9717645s-1.7782195 3.9717646-3.9717645 3.9717646h-8.9364703c-2.193545 0-3.9717646-1.7782196-3.9717646-3.9717646s1.7782196-3.9717645 3.9717646-3.9717645z" fill="#b34874"/><path d="m16.5866631 26.2912294c-.8921591 0-1.4361558-.5426827-1.4361558-1.4796221v-2.1292234c0-.2265993.181446-.4060066.4103532-.4060066.2255815 0 .4060067.1804252.4060067.4060066v2.1074903c0 .4800842.2221772.7241149.6284892.7241149.4069801 0 .6241426-.2314612.6241426-.7023818v-2.1292234c0-.2265993.181446-.4060066.4103532-.4060066.2255815 0 .4060066.1804252.4060066.4060066v2.1031437c0 .9579871-.5477146 1.5057018-1.4491957 1.5057018zm3.8687946-.4320863c0 .2254777-.1846319.4060066-.4103533.4060066s-.4103532-.1805289-.4103532-.4060066v-2.7837924h-.5980629c-.2157805 0-.3886201-.1749475-.3886201-.3886202 0-.2136726.1728396-.3886201.3886201-.3886201h2.0211789c.2125092 0 .3842735.1760054.3842735.3886201 0 .2126148-.1717643.3886202-.3842735.3886202h-.6024095zm2.4543717.0043466c0 .2254758-.1802815.40166-.4060066.40166-.2255814 0-.40166-.1760786-.40166-.40166v-3.1724125c0-.2267454.1815679-.4103533.4103533-.4103533h.056506c.1595212 0 .2841178.0780806.3664799.2084905l.8028632 1.2573139.8059577-1.2599935c.0828274-.1337982.2067562-.2058109.3631814-.2058109h.0565061c.2287854 0 .4103532.1836079.4103532.4103533v3.1680659c0 .2265993-.181446.4060066-.4103532.4060066-.2212348 0-.4060066-.1847718-.4060066-.4060066v-1.9805393l-.4843041.7278627c-.0846496.1302301-.1973996.203186-.3441297.203186-.1434261 0-.255592-.0736611-.3388826-.201818l-.480858-.721287z" fill="#fff"/></g></svg>