<svg height="32" viewBox="0 0 32 32" width="32" xmlns="http://www.w3.org/2000/svg"><g fill="none" fill-rule="evenodd"><g fill-rule="nonzero"><path d="m12.3417323 22.7781789-5.97517373-4.8000195 1.65024163-9.72081277 5.6942041-.06363144c2.9831569 3.11039951 4.8231666 5.75231011 4.8269236 5.75898261 2.4394228 4.332416.3740243 7.2742431-6.1961956 8.8254811z" fill="#e39b5a"/><path d="m13.8334117 13.6928165-1.7259806 1.1699374c-.6218519.4215156-1.4081915.519062-2.11418854.2622678-.47239769-.1718265-.7160588-.6940734-.54423231-1.1664711.02812431-.0773213.06660298-.1504722.11436334-.2174686 2.63065901-3.6877256 4.01320251-5.53684788 4.14763071-5.54736681h9.0670346l2.4349155 9.58344631-2.2666734 1.4329434-4.138078-4.9782483c-1.3028913-1.3729224-3.4080671-1.6010273-4.9747913-.5390401z" fill="#744920"/><g fill="#4b2603"><path d="m23.1923854 13.2672572 4.7082317 3.2657456-4.7555425 2.5452864-4.6071467-5.1312351c1.1312898-1.4153708 3.1656208-1.7124907 4.6544575-.6797969z"/><path d="m23.1923854 13.2672572 4.7082317 3.2657456-4.5892251 2.2207976-4.7734641-4.8067463c1.1312898-1.4153708 3.1656208-1.7124907 4.6544575-.6797969z"/></g></g><path d="m22.783923 8.14698351 3.6190531-.95942468 2.5942024 11.06312137-3.6190531.9594247z" fill="#ff82bb"/><path d="m3.18068194 8.14698351 3.61905308-.95942468 2.59420241 11.06312137-3.61905307.9594247z" fill="#6ad1eb" transform="matrix(-1 0 0 1 12.57462 0)"/><path d="m13.3990524 23.5851813-1.0614458-.817967c.2403815-.3422206.6323813-.5459141 1.0505896-.5459141h.2327848c.4970094 0 .8999152-.4029057.8999152-.8999152v-.87702c0-.4084432.3311087-.7395519.7395519-.7395519.4234863 0 .7816759-.3132459.8381165-.7329543l.1089272-.8100135c.0648412-.4821778.4763437-.8420473.9628618-.8420473.474115 0 .8631766-.3752672.8802843-.8490735l.0444808-1.2319128c.0166021-.4598028.1661972-.9049231.430659-1.2814257 3.2533537 2.6190108 4.9766176 4.3818935 5.1697917 5.2886481.2897612 1.3601319-8.7900407 5.2445483-10.296517 4.3391472z" fill="#ab6723" fill-rule="nonzero"/></g></svg>