<svg height="32" viewBox="0 0 32 32" width="32" xmlns="http://www.w3.org/2000/svg"><path d="m10.0490641 11.9029366 1.2929359-3.3239366-.5957698.0770557c-.75155709.10471124-1.46508711.23927768-2.14265285.4009323l-.56257735.142012-1.658 8.108 8.2600435 6.2411409.113842.0766515c.3658433.2186419.8226429.2349783 1.2004347.0514851l.1227713-.0685621.1419085-.0947154-1.5579983-1.5712325-.0651305-.078264c-.1765665-.2513294-.1486515-.5875315.0693184-.7963732.2280356-.2279425.5710763-.2532104.8114283-.0743674l.0760154.067176 2.096205 2.1083826.8917145.8918756.077282.0719537c.2483215.2009768.6077108.2197632.8856292.0429079.1977628-.1271305.3213219-.3242662.3479529-.5485503.0129079-.2141988-.0380401-.4012073-.1484708-.5506838l-.0733615-.0850994-3.3351728-3.3601489-.0651069-.0782418c-.17651-.2512825-.1485697-.5874773.0693847-.7963042.2280356-.2279425.5710763-.2532104.8116235-.0741705l.076088.0672491 3.3311337 3.3675254.4224425.4354038.088729.0740602c.2534413.1838526.5844918.1985651.8396041.0408593.1939573-.1339395.3159234-.3298206.3428656-.5449984.0189357-.188784-.0232892-.3608521-.131549-.512916l-.0729191-.0888116-4.1149533-4.1522103-.0651444-.0782771c-.1765997-.251357-.1486996-.5875635.0692794-.7964139.2280356-.2279425.5710763-.2532104.811545-.0742498l.0760588.0672197 4.1043771 4.1407515.2969739.2973314.0887869.0794114c.3193389.252914.7678114.279088 1.1014606.0567998.2379689-.1452295.3992194-.4041365.4262152-.6875925.0237719-.2496041-.0471518-.4919102-.1998405-.6879863l-.0830983-.0940053-5.8881033-5.9366338-.1300805-.1212804c-.8193229-.7102897-2.0167037-.7842176-2.9127042-.1959805l-.1548509.1106855-1.6025787 1.2503385-.1459566.1044804c-.7223625.4762476-1.6662133.5349592-2.4406604.1477342-1.0744029-.5316657-1.59277109-1.7509621-1.25193771-2.8859354zm-4.8550641-4.1089366-2.049 10.057 1.781.368 1.9581853-9.59135943.02063845-.08128229.08317625-.38535828zm15.7852561 1.08869545c-1.7042475-.63336535-3.1490085-.77800123-5.9687658-.58886214l-.7678543.0568102-.5209513.04142856-.9566847.06492793-1.5214477 3.8895381-.0412691.1216002c-.1516745.538721.1043015 1.1084496.6213728 1.3669991.3629381.1873413.8058638.1672918 1.1536463-.0430121l.1121634-.0771243 1.6013988-1.2494756.1679645-.1224237c1.3987309-.9597777 3.2744745-.8295716 4.5275133.2975547l.153307.1460763 5.2223507 5.2712673.809-.501-3.9039489-8.33252294-.0773839-.09059525-.3022113-.13055837zm3.5068036-1.28356262-1.658.758 4.279 9.32499997 1.659-.759z"/></svg>