<svg height="32" viewBox="0 0 32 32" width="32" xmlns="http://www.w3.org/2000/svg"><path d="m27.7854076 16.885625-4.27-8.5c-.15-.3-.51-.42-.81-.27l-2.28 1.14c-.13.07-.23.18-.28.31-4.19-1.51-8.49-.85-10.4-.41.02-.29-.18-.56-.48-.62l-2.49-.51c-.16-.03-.32 0-.45.09s-.23.22-.26.38l-1.9 9.32c-.03.16 0 .32.09.45s.22.23.38.26l2.5.51c.04.01.08.01.12.01.28 0 .53-.2.59-.48l.04-.21 6.33 4.78c.71.54 1.7.58 2.45.1l.25-.16.39.39c.34.34.79.52 1.25.52.33 0 .65-.09.94-.27.37-.24.63-.6.74-1.01.1.02.2.03.3.03.32 0 .64-.09.93-.27.38-.24.64-.61.75-1.04.1.02.2.02.29.02.35 0 .71-.1 1.02-.3.49-.31.8-.82.86-1.39.05-.44-.06-.88-.3-1.25l.24-.15.11.23c.07.14.2.25.35.3.06.02.13.03.19.03.09 0 .19-.02.27-.06l2.28-1.14c.29-.17.4-.53.26-.83zm-22.32.59 1.66-8.15 1.32.27-.05.23-.02.08-1.6 7.84zm17.72 2.14c-.02.21-.14.4-.32.51-.27.18-.64.13-.87-.1l-.25-.25-3.39-3.42c-.23-.24-.61-.24-.85 0-.24.23-.24.61 0 .85l3.39 3.42c.15.16.16.33.15.43-.02.16-.11.3-.24.39-.21.13-.48.1-.66-.07l-.36-.37-2.75-2.78c-.23-.24-.61-.24-.85 0-.24.23-.24.61 0 .85l2.75 2.77c.12.12.17.28.16.45-.02.17-.11.31-.25.4-.22.14-.51.11-.69-.08l-.72-.72-.02-.02-1.73-1.74c-.23-.24-.61-.24-.85 0-.24.23-.24.61 0 .85l1.21 1.22-.03.02c-.33.21-.77.2-1.09-.04l-6.79-5.13 1.35-6.6c.49-.13 1.38-.34 2.53-.48l-1.02 2.62c-.38 1.01.06 2.14 1.03 2.62.72.36 1.6.27 2.23-.22l1.32-1.03c.76-.59 1.85-.52 2.53.16l4.61 4.65.01.01.25.25c.16.16.23.37.21.58zm.06-2.01-4.27-4.31c-1.11-1.12-2.88-1.23-4.12-.27l-1.32 1.03c-.27.21-.65.25-.96.09-.42-.21-.61-.69-.44-1.12l1.24-3.17c2.13-.12 4.79.08 7.31 1.22l3.11 6.19zm1.99-.11-.14-.29-3.59-7.14 1.2-.6 3.73 7.43z"/></svg>