<svg height="32" viewBox="0 0 32 32" width="32" xmlns="http://www.w3.org/2000/svg"><path d="m23.234057 4.09744748c2.3164393 0 4.2171313 1.83652801 4.3269329 4.12289121l.0050101.20905182v10.41200409c0 2.3277897-1.8365237 4.2288198-4.1335875 4.3386315l-.2100544.0050104-5.2263581-.0000365-4.9137578 5.0436733c-.3300095.3386408-.8748008.1745725-1.0023827-.2351915l-.0207228-.0914735-.0065994-.0920876-.0005373-4.6139207-4.34235809.0007354c-2.25725065 0-4.11321402-1.7269057-4.32375209-3.9260706l-.0148794-.2075169-.00501042-.2100544v-10.41200411c0-2.32778973 1.83652374-4.22881984 4.13358752-4.33863149l.21005439-.00501042zm0 1.2h-15.52441509c-1.67224153 0-3.045904 1.31316276-3.13865095 2.96536705l-.00499096.17827486v10.41200411c0 1.6722415 1.31316276 3.045904 2.96536705 3.1386509l.17827486.004991h4.94289539c.2982337 0 .5456467.2175896.592147.5026769l.007853.0973231-.0005373 3.7372646 4.0625449-4.1677161c.0677606-.0695328.1506487-.1208753.2410697-.1508241l.0926505-.0226988.0959847-.0077245h5.4781083c1.6722415 0 3.045904-1.3131628 3.1386509-2.9653671l.004991-.1782748v-10.41200409c0-1.66094289-1.3131597-3.03421881-2.9548368-3.12695254zm-5.170515 4.30550095c.7901318 0 1.4389715.60494347 1.5086261 1.37697237l.0061906.1378857-.0003587.6751935 2.6084241-1.3034144c.3436981-.1717836.7396325.019757.8426867.3612916l.0194621.0883851.0060976.0870205v5.1229805c0 .4162947-.4088902.6967548-.7877625.5701211l-.0805675-.0334657-2.6083405-1.3049187.0003587.676781c0 .7436534-.5358668 1.362151-1.2425264 1.4904141l-.1344111.0182152-.1378792.0061906h-7.5015045c-.7901341 0-1.43897461-.6049457-1.50862932-1.3769406l-.00619056-.1378793v-4.9400159c0-.7901326.6049442-1.43897157 1.37694028-1.50862611l.1378796-.00619056zm0 1.19999997h-7.5015045c-.1490327 0-.273877.1035537-.3065053.2426321l-.0083146.0721846v4.9400159c0 .1490313.1035549.2738766.2426346.3065053l.0721853.0083146h7.5015045c.149029 0 .2738736-.1035552.3065021-.2426087l.0083146-.0721698-.0001136-1.6467451c-.0000287-.4163116.4088722-.6968001.7877592-.5701636l.0805708.0334668 2.6074249 1.3036195v-3.182l-2.6075085 1.3045307c-.3437121.1717905-.7396593-.0197724-.842697-.3613249l-.0194574-.0883895-.006092-.0870242.0001136-1.646027c0-.1490301-.1035538-.2738739-.2426321-.3065021z"/></svg>