<svg height="32" viewBox="0 0 32 32" width="32" xmlns="http://www.w3.org/2000/svg"><path d="m10.75 22.13c.95 0 1.75.63 2.01 1.5h12.24c.33 0 .6.27.6.6s-.27.6-.6.6h-12.24c-.26.87-1.06 1.5-2.01 1.5s-1.75-.63-2.01-1.5h-1.74c-.33 0-.6-.27-.6-.6s.27-.6.6-.6h1.74c.26-.87 1.06-1.5 2.01-1.5zm14.25-16.46c.33 0 .6.27.6.6v13.5c0 .33-.27.6-.6.6h-18c-.33 0-.6-.27-.6-.6v-13.5c0-.33.27-.6.6-.6zm-11.33 4.65c-.18.11-.29.3-.29.51v4.4c0 .2.11.4.29.51.1.06.2.09.31.09.09 0 .19-.02.28-.07l4.27-2.2c.2-.1.32-.31.32-.53s-.13-.43-.32-.53l-4.27-2.2c-.19-.1-.41-.09-.59.02z"/></svg>