<svg height="32" viewBox="0 0 32 32" width="32" xmlns="http://www.w3.org/2000/svg"><path d="m23.234057 4.69744748c2.059003 0 3.731943 1.68463886 3.731943 3.73194303v10.41200409c0 2.0707019-1.6846389 3.7436419-3.7436419 3.7436419h-5.4781083l-5.0917125 5.2248842v-5.2131853h-4.94289539c-2.07070193 0-3.74364191-1.6846389-3.74364191-3.7436419v-10.41200411c0-2.07070193 1.68463886-3.74364191 3.74364191-3.74364191zm-5.170515 5.50550092h-7.5015045c-.5052425 0-.91481988.4095774-.91481988.9148167v4.9400159c0 .5052393.40957738.9148199.91481988.9148199h7.5015045c.5052393 0 .9148167-.4095806.9148167-.9148199l-.0001136-1.6467451 3.4764254 1.7382274v-5.1229805l-3.4764254 1.7375507.0001136-1.6460684c0-.5052393-.4095774-.9148167-.9148167-.9148167z"/></svg>