<svg height="32" viewBox="0 0 32 32" width="32" xmlns="http://www.w3.org/2000/svg"><g fill="none" fill-rule="evenodd"><path d="m10.19 10.185274 10.701274 10.7009009c-.2457992.547109-.7954733.9281098-1.4341342.9281098h-12.88570805c-.8678803 0-1.57143175-.703557-1.57143175-1.5714318v-8.4857114c0-.8678747.70355145-1.5714262 1.57143175-1.5714262zm9.2671398.0004413c.8678748 0 1.5714262.7035515 1.5714262 1.5714262l-.0001951 2.8275337 5.9716291-2.9846774v8.7999989l-5.9716291-2.9858398-.0003709.9921171-8.222-8.221z" fill="#48ad99"/><path d="m25.7307759 4.5710098c.2343146-.23431451.6142136-.2343144.8485281.00000024.2082796.20827969.2314216.53158897.0694263.7654307l-.0694265.08309744-21.15503985 21.15502762c-.23431465.2343145-.61421363.2343144-.84852814-.0000003-.20827956-.2082797-.23142165-.531589-.06942632-.7654307l.06942656-.0830974z" fill="#ac4000" fill-rule="nonzero" transform="matrix(-1 0 0 1 31.15504 0)"/></g></svg>