<svg height="32" viewBox="0 0 32 32" width="32" xmlns="http://www.w3.org/2000/svg"><g fill="none" fill-rule="evenodd"><path d="m.4001187.48352976h31.1688312v31.16883114h-31.1688312z"/><path d="m5.594924 7.13288h21.285428v17.910909h-21.285428z" fill="#c3c3c3"/><path d="m5.594924 7.13288h21.285428v11.940606h-21.285428z" fill="#20c4d2"/><path d="m5.59492389 7.1328804h21.28542801l-21.28542801 11.9406059z" fill="#17b3c4"/><path d="m18.69093 14.0519518-3.5978066 2.3775203c-.0656577.0495935-.1453311.0744472-.2388044.0744472-.0704015 0-.1428514-.0199514-.2176732-.0592841-.1546029-.0893822-.23212-.2280158-.23212-.4162428v-4.7553828c0-.188455.0775171-.3269746.23212-.4164708.1591311-.0891541.3111465-.0842518.4564776.0150491l3.5978066 2.3778624c.1406951.0840238.2109888.217755.2109888.4010797 0 .1835527-.0702937.3171699-.2109888.4014218z" fill="#fff"/><path d="m11.9296726 20.6622874c.6122471 0 1.1307899.4011955 1.3070731.9550311l10.949613.000813c.2295209 0 .4155844.1860635.4155844.4155845 0 .2295209-.1860635.4155844-.4155844.4155844l-10.949613.0008131c-.1762832.5538355-.694826.955031-1.3070731.955031s-1.13079-.4011955-1.3070732-.955031l-2.33368233-.0008131c-.22952094 0-.41558442-.1860635-.41558442-.4155844 0-.229521.18606348-.4155845.41558442-.4155845l2.33368233-.000813c.1762832-.5538356.6948261-.9550311 1.3070732-.9550311z" fill="#345c64" fill-rule="nonzero"/></g></svg>