<svg height="32" viewBox="0 0 32 32" width="32" xmlns="http://www.w3.org/2000/svg"><path d="m4.57573581 4.57101004c.20827956-.20827968.53158884-.23142195.76543065-.06942676l.08309749.06942652 21.15503985 21.1550276.0694265.0830974c.1619953.2338417.1388533.557151-.0694263.7654307s-.5315888.231422-.7654307.0694268l-.0830974-.0694265-6.2077759-6.2072918-.0008559.0186108c-.0722576.8008444-.7453448 1.4283999-1.5650043 1.4283999h-10.88570805c-.8678803 0-1.57143175-.703557-1.57143175-1.5714318v-8.4857114c0-.8678747.70355145-1.5714262 1.57143175-1.5714262l2.26856825-.0014413-4.76426395-4.76473582-.06942656-.08309744c-.16199533-.23384173-.13885324-.55715101.06942632-.7654307zm21.50299429 7.66265806.0187097.0846284.0064725.0898424v7.1837166c0 .4305161-.4345155.7107513-.8176644.5594362l-.08114-.0391325-4.2442691-2.4374352c-.1596978-.0917126-.2669145-.2506168-.2942887-.4294469l-.0069068-.0908567v-2.3097952c0-.18419.0844308-.3563256.2259139-.4691204l.0753691-.0512335 4.2442691-2.4364863c.346665-.1990083.7674803-.0086546.8735347.3458831zm-13.2727301-2.0483941 5.1511398.0004413c.8678748 0 1.5714262.7035515 1.5714262 1.5714262l-.000566 5.1491325z"/></svg>