<svg height="32" viewBox="0 0 32 32" width="32" xmlns="http://www.w3.org/2000/svg"><path d="m4.57573581 4.57101004c.20827956-.20827968.53158884-.23142195.76543065-.06942676l.08309749.06942652 5.01473605 5.01426419 9.0181398.00044133c1.1471045 0 2.0864595.88948088 2.1659742 2.01638808l.005452.1550795-.000566 1.8558171 5.1037536-2.5496994c.3436981-.1717836.7396325.019757.8426867.3612916l.0194621.0883851.0060976.0870205v8.7999989c0 .4162947-.4088901.6967548-.7877625.570121l-.0805675-.0334656-5.10367-2.5526521.000566 1.8588529c0 .1643345-.0182552.3244053-.0528485.4782951l5.0035863 5.0048894.0694265.0830974c.1619953.2338417.1388533.557151-.0694263.7654307s-.5315888.231422-.7654307.0694268l-.0830974-.0694265-4.7678429-4.7672007c-.3111282.299524-.7113861.5071163-1.1570617.5790647l-.1936571.0224028-.1550744.0054521h-12.88570805c-1.14710827 0-2.08646493-.8894846-2.16597967-2.0163572l-.00545208-.1550746v-8.4857114c0-1.1471056.88948202-2.0864596 2.0163568-2.16597412l.15507495-.00545206 2.16956825-.00044133-4.16526395-4.16573581-.06942656-.08309744c-.16199533-.23384173-.13885324-.55715101.06942632-.7654307zm5.36526419 6.21426396-3.36956825.0004413c-.49818685 0-.90878162.3750091-.96489625.8581373l-.0065355.1132889v8.4857114c0 .4981843.37501148.9087813.85814224.9648962l.11328951.0065356h12.88570805c.2534015 0 .4841422-.0970266.6570977-.255951zm9.5161398.0004413-7.8181398-.0004413 8.789 8.789.0003709-2.1600757c-.0000288-.4163117.4088722-.6968002.7877592-.5701636l.0805707.0334668 5.1032992 2.5514985v-6.859l-5.1033827 2.5513724c-.3437121.1717905-.7396593-.0197724-.842697-.3613249l-.0194574-.0883895-.006092-.0870242.0001951-2.8274923c0-.4981822-.3750095-.9087762-.8581373-.9648907z"/></svg>