<svg fill="none" height="32" viewBox="0 0 33 32" width="33" xmlns="http://www.w3.org/2000/svg"><path clip-rule="evenodd" d="m8.37846 8.58572h10.88574c1.1992 0 2.1714.97218 2.1714 2.17148l-.0006 2.4707 5.1038-3.54972c.3723-.1861.806.05421.8621.44972l.0061.087v11.5261c0 .446-.4694.7361-.8683.5366l-5.1037-3.5526.0006 2.5179c0 1.1471-.8895 2.0864-2.0164 2.1659l-.155.0055h-10.88574c-1.19925 0-2.17143-.9722-2.17143-2.1714v-10.4858c0-1.1992.97218-2.17138 2.17143-2.17138zm10.88574 1.2h-10.88574c-.53651 0-.97143.43488-.97143.97138v10.4858c0 .5365.43493.9714.97143.9714h10.88574c.5365 0 .9714-.4349.9714-.9714l-.0002-3.8287c0-.446.4694-.7362.8683-.5367l5.1033 3.5515v-8.859l-5.1034 3.5514c-.3723.1861-.806-.0542-.8621-.4497l-.0061-.0871.0002-3.8275c0-.5365-.4349-.97138-.9714-.97138z" fill="#000" fill-rule="evenodd"/></svg>