<svg height="32" viewBox="0 0 32 32" width="32" xmlns="http://www.w3.org/2000/svg"><g fill="none" fill-rule="evenodd"><path d="m7.70964191 4.69744748c-2.05900305 0-3.74364191 1.67293998-3.74364191 3.74364191v10.41200411c0 2.059003 1.67293998 3.7436419 3.74364191 3.7436419h4.94289539v5.2131853l5.0917125-5.2248842h5.4781083c2.059003 0 3.7436419-1.67294 3.7436419-3.7436419v-10.41200409c0-2.04730417-1.67294-3.73194303-3.731943-3.73194303z" fill="#48ad99" fill-rule="nonzero"/><path d="m18.063542 10.2029484c.5052393 0 .9148167.4095774.9148167.9148167l-.0001136 1.6460684 3.4764254-1.7375507v5.1229805l-3.4764254-1.7382274.0001136 1.6467451c0 .5052393-.4095774.9148199-.9148167.9148199h-7.5015045c-.5052425 0-.91481988-.4095806-.91481988-.9148199v-4.9400159c0-.5052393.40957738-.9148167.91481988-.9148167z" fill="#fff"/></g></svg>