<svg height="32" viewBox="0 0 32 32" width="32" xmlns="http://www.w3.org/2000/svg"><path d="m12.8611755 20.2935379c.9024536.4449336 1.8642989.754717 2.8535611.8259512l-.0002073 4.3176703-.4489879-.1493606c-1.4157273-.5237467-2.6746861-2.1749765-3.4467128-4.4356298l-.0979106-.2982814-.0820057-.2601321zm7.9704143.0002176-.1809743.5519485c-.7770179 2.2793786-2.0431406 3.9296498-3.4630091 4.4472791l-.1782601.0587681-.2565766.075672-.0003437-4.3231992c.9252611-.0934068 1.8257687-.3923466 2.6741078-.8104628zm-10.2813864 0 .1589456.5375616c.3973645 1.2762847.9487617 2.408109 1.61419 3.3255087l.2030095.2687172.4783267.6076594-.7129546-.2995699c-1.855584-.7796809-3.41221143-2.1173133-4.45181319-3.8356799l-.1780477-.3071573-.16482468-.2970398zm13.905001 0-.3548209.610793c-.8136487 1.3413943-1.9387578 2.4484296-3.2931248 3.2433683l-.3165785.1778718-.7488843.4024148.4909323-.6940828c.6218092-.8791175 1.1411014-1.9628285 1.5256581-3.1831564l.1231511-.4117426.0412264-.1454661zm-14.1767886-7.6818247-.1121547.7236661-.0065278.040073c-.88004074.7392109-1.62279436 1.509256-2.17319532 2.129921-.20105441.2178089-.20105441.6199177 0 .8544812.55730941.6277064 1.30564643 1.4012511 2.18963212 2.1415516l.0043841.0288749.0828016.4955496.0433894.2361433h-3.26748174l-.16128708-.4804946c-.58681842-1.8641371-.58570424-3.8359988.0001304-5.6908553l.1166954-.3463596.04748385-.1325512zm14.626799-.0071769.1612908.4804452c.5868213 1.8639252.5857062 3.8357768-.0001284 5.6906323l-.1166954.3463595-.0474838.1325511h-2.7378099l.1220337-.7288609.0268127-.1930534c.8013488-.6901696 1.4807272-1.3959661 1.9922197-1.9727556.2010544-.2345635.2010544-.6366723 0-.8544812-.511743-.5763842-1.1845532-1.2757338-1.975555-1.9593987l-.0279501-.213947-.0764863-.4939097-.0397851-.2335816zm-6.1063554 3.3693118c0 1.4461005-1.1722961 2.6183965-2.6183966 2.6183965s-2.6183966-1.172296-2.6183966-2.6183965 1.1722961-2.6183966 2.6183966-2.6183966v2.6183966l1.851486-1.851486c.4738366.4738366.7669106 1.1284357.7669106 1.851486zm-3.0843301-9.53183227-.0000398 4.30389777c-.9921561.0712176-1.9555837.3815127-2.8584634.8267495l-1.2800298.0000366.1671477-.5459787c.7489491-2.34713816 2.0225266-3.98058743 3.5321035-4.46644789l.1899054-.05472414zm-2.8611398.44774651-.4780622.62208137c-.72015.93709949-1.3065527 2.13894543-1.7170547 3.52332369l-.1075622.3820215-.0396151.1484248h-3.02242727l.35592827-.6105594c.94330638-1.54925009 2.3102425-2.78941185 3.9580078-3.59311001l.3332551-.15488238zm7.0364604.30447846.7491352.42091704c1.4198691.79778275 2.6140243 1.9494363 3.4660141 3.34912316l.1772896.3036908.1665031.2976419h-2.4900308l-.1561653-.5542032c-.3178818-1.06937561-.7339086-2.01815147-1.2347213-2.81645736l-.1917529-.29225309zm-3.1370802-.76908715.4455211.13083285c1.5053499.49374728 2.7696015 2.12457102 3.5231045 4.4574202l.1678801.552207-1.4704508.000391c-.8453517-.4154159-1.7426322-.7119802-2.6656063-.8048538z"/></svg>