<svg height="32" viewBox="0 0 32 32" width="32" xmlns="http://www.w3.org/2000/svg"><path d="m5.065 15.8c0-5.29 4.3-9.6 9.6-9.6 5.29 0 9.6 4.31 9.6 9.6 0 .33-.27.6-.6.6s-.6-.27-.6-.6c0-.83-.12-1.64-.35-2.4h-3.61c.11.77.16 1.57.16 2.4 0 .33-.27.6-.6.6s-.6-.27-.6-.6c0-.87-.06-1.67-.17-2.4h-6.45c-.11.73-.17 1.53-.17 2.4 0 .85.08 1.65.22 2.4h3.17c.33 0 .6.27.6.6s-.27.6-.6.6h-2.89c.78 2.66 2.27 4.42 3.16 4.86h.01l.03.02.02.01.03.02.04.04c.01.01.02.01.02.02l.02.02c.01.01.01.02.02.02l.02.02c.01.01.01.02.02.02l.02.03.01.02c.01.01.01.02.02.04 0 0 0 .01.01.01l.02.04s0 .01.01.01l.01.04v.02c0 .01 0 .02.01.03v.21c0 .01 0 .02-.01.03 0 .01 0 .02-.01.02 0 .01-.01.02-.01.04 0 .01 0 .01-.01.02l-.02.04v.01l-.04.07s0 .01-.01.01l-.04.05-.01.02-.05.05s-.01 0-.01.01l-.05.04-.08.04-.07.03h-.01c-.02.0100347-.04.0100347-.06.0100347h-.09c-5.33.0099653-9.63-4.3000347-9.63-9.5900347zm1.55 2.4h3.65c-.13-.73-.2-1.54-.2-2.4 0-.83.06-1.63.16-2.4h-3.61c-.23.76-.35 1.57-.35 2.4s.12 1.64.35 2.4zm11.34-8.66c.4.8.71 1.69.93 2.66h3.37c-1.07-2.25-3.11-3.94-5.57-4.55.48.53.91 1.17 1.27 1.89zm-.3 2.66c-.62-2.47-1.84-4.02-2.99-4.71-1.15.7-2.37 2.24-2.99 4.71zm-6.28-2.66c.36-.72.79-1.36 1.27-1.9-2.46.61-4.5 2.31-5.57 4.55h3.37c.22-.95.53-1.85.93-2.65zm1.46 14.46c-.43-.52-.85-1.13-1.21-1.81-.37-.7-.79-1.64-1.09-2.79h-3.45c1.09 2.3 3.2 4.03 5.75 4.6zm7.9425-4.53v1.94h1.91c0 .5-.19 1-.56 1.38-.73.74-1.92.76-2.67.03l-.03-.03c-.75-.76-.75-1.99 0-2.75.37-.38.86-.57 1.35-.57zm-5.7625.98c1.07-1.21 3.25-3.25 5.76-3.25 2.52 0 4.69 2.04 5.77 3.25.52.59.52 1.51 0 2.1-1.08 1.22-3.25 3.25-5.76 3.25s-4.69-2.04-5.76-3.25c-.54-.58-.54-1.51-.01-2.1zm.89 1.31c.94 1.06 2.83 2.85 4.87 2.85s3.92-1.78 4.87-2.85c.12-.14.12-.38 0-.51-.94-1.06-2.82-2.85-4.87-2.85-2.04 0-3.92 1.78-4.87 2.85-.12.13-.12.37 0 .51z"/></svg>