<svg height="32" viewBox="0 0 32 32" width="32" xmlns="http://www.w3.org/2000/svg"><g fill="none" fill-rule="evenodd"><path d="m6.5 24.9903121v-1c0 .9375415.72202616 1.7064447 1.64035997 1.7809912l.14655479.0059236h14.44416804c.9375415 0 1.7064448-.7220262 1.7809912-1.64036l.0059236-.1465548v1c0 .9868858-.800029 1.7869148-1.7869148 1.7869148h-14.44416804c-.98688577 0-1.78691476-.800029-1.78691476-1.7869148v-1z" fill="#b75c64"/><path d="m8.28691476 6.06877297h14.44416804c.9868858 0 1.7869148.80002899 1.7869148 1.78691476v16.13462437c0 .9868858-.800029 1.7869148-1.7869148 1.7869148h-14.44416804c-.98688577 0-1.78691476-.800029-1.78691476-1.7869148v-16.13462437c0-.98688577.80002899-1.78691476 1.78691476-1.78691476z" fill="#f8813d"/><path d="m17.6533251 4.59623883c-.3326962-.93395419-1.1673749-1.59623883-2.1443263-1.59623883-.9770462 0-1.8116301.66228464-2.1443263 1.59623883-.4021738 1.10645097-1.2381795 1.9754228-2.2801536 2.35934398-.9152462.32913415-1.5755201 1.26648679-1.5755201 2.37129003h12c0-1.10480324-.6603687-2.04215588-1.5756149-2.37129003-1.0419741-.38392118-1.877885-1.25289301-2.2800588-2.35934398z" fill="#85cfe8"/><circle cx="15.508999" cy="5.306948" fill="#69b5cf" r="1"/><g fill-rule="nonzero"><path d="m14.2624197 13.3848702v-1.2467532h7.0658783v1.2467532z" fill="#d86929"/><path d="m14.2624197 18.1040261v-1.2467533h7.0658783v1.2467533z" fill="#d86929"/><path d="m14.2624197 22.8231819v-1.2467532h7.0658783v1.2467532z" fill="#d86929"/><g fill="#fff"><path d="m9.86612505 21.1887468h1.61302025c.174595 0 .3209727.1269782.3513456.2931473l.0057806.063979v1.6427807c0 .1745951-.1269782.3209727-.2931472.3513456l-.063979.0057807h-1.61302025c-.17988581 0-.32214845-.1269783-.35154156-.2931473l-.00558469-.063979v-1.6427807c0-.1745951.12697822-.3209728.29314725-.3513457z"/><path d="m11.4791453 16.4943734c.174595 0 .3209727.1269782.3513456.2931473l.0057806.063979v1.6427807c0 .1745951-.1269782.3209727-.2931472.3513456l-.063979.0057806h-1.61302025c-.17988581 0-.32214845-.1269782-.35154156-.2931472l-.00558469-.063979v-1.6427807c0-.1745951.12697822-.3209728.29314725-.3513457l.063979-.0057806z"/><path d="m11.4791453 11.8c.174595 0 .3209727.1269782.3513456.2931473l.0057806.0639789v1.6427808c0 .1745951-.1269782.3209727-.2931472.3513456l-.063979.0057806h-1.61302025c-.17988581 0-.32214845-.1269782-.35154156-.2931472l-.00558469-.063979v-1.6427808c0-.174595.12697822-.3209727.29314725-.3513456l.063979-.0057806z"/><path d="m14.2624197 12.3585752c0-.5587549.3050708-.7086824.6911371-.3595626l.0507973.048375 5.7018604 5.7018603c.3926898.3926898.2801932.7141188-.2428345.7402228l-.0705414.0017116-2.2590968-.0004122 1.6810133 3.982673c.1639599.3884773-.0180475.8363162-.4065249 1.0002761-.3585945.1513476-.7677692.0079065-.9575562-.3206049l-.0427199-.0859199-1.6554378-3.9213018-1.8102803 2.1363173c-.3609148.4256957-.6544214.3388582-.6782537-.1810249l-.0015626-.0702602z"/></g></g></g></svg>