<svg height="32" viewBox="0 0 32 32" width="32" xmlns="http://www.w3.org/2000/svg"><path d="m22.7310828 4.96877297c1.3182567 0 2.3869148 1.06865814 2.3869148 2.38691476v17.13462437c0 1.3182566-1.0686581 2.3869148-2.3869148 2.3869148h-14.44416804c-1.31825662 0-2.38691476-1.0686582-2.38691476-2.3869148v-17.13462437c0-1.31825662 1.06865814-2.38691476 2.38691476-2.38691476l3.89350294.00068294c-.3161876.37146813-.7089193.66908266-1.1479628.8605162l-.335183.13586463c-.7402808.34639324-1.2727343.93172859-1.55799335 1.64954466l-.07688561.21788149c-.27072534.77969804.30824853 1.59360995 1.13360986 1.59360995h10.6259159c.8233525 0 1.4021406-.81024218 1.1351629-1.58910823l-.0520545-.15186081c-.2957978-.7653635-.8238643-1.35543353-1.5032981-1.68328864l-.4449384-.18454187c-.4201167-.18348182-.8039966-.47610904-1.1185606-.84903219zm-11.1065247 16.21997383h-1.6130202l-.06397898.0057806c-.14243059.0260339-.25606794.1372958-.28562901.2785027l-.00751824.072843v1.6427807l.00558469.063979c.02519409.1424306.13331274.2560679.27697048.285629l.07457106.0075183h1.6130202l.063979-.0057807c.1424306-.0260339.256068-.1372958.2856291-.2785027l.0075182-.0728429v-1.6427807l-.0057806-.063979c-.0303729-.1661691-.1767506-.2931473-.3513457-.2931473zm2.8354956-8.9482247-.0040013.1062732.0015626 8.7426098c.0222435.4852242.2794033.5932176.6070295.2593538l.0712242-.0783289 1.8102804-2.1363173 1.6554377 3.9213017.04272.08592c.1897869.3285114.5989617.4719525.9575562.3206049.3561042-.1502966.5387163-.5391303.4403879-.9021187l-.0338631-.0981574-1.6810133-3.982673 2.2590968.0004122.0705414-.0017116c.4881592-.0243637.6187002-.3059884.3146647-.6627014l-.0718302-.0775214-5.7526577-5.7502353c-.3603285-.3258451-.650101-.2169647-.6871358.2532894zm-2.8354956 4.2538513h-1.6130202l-.06397898.0057806c-.14243059.0260339-.25606794.1372958-.28562901.2785027l-.00751824.072843v1.6427807l.00558469.063979c.02519409.1424306.13331274.2560679.27697048.285629l.07457106.0075182h1.6130202l.063979-.0057806c.1424306-.0260339.256068-.1372958.2856291-.2785027l.0075182-.0728429v-1.6427807l-.0057806-.063979c-.0303729-.1661691-.1767506-.2931473-.3513457-.2931473zm0-4.6943734h-1.6130202l-.06397898.0057806c-.14243059.0260339-.25606794.1372958-.28562901.2785027l-.00751824.0728429v1.6427808l.00558469.063979c.02519409.1424306.13331274.2560679.27697048.285629l.07457106.0075182h1.6130202l.063979-.0057806c.1424306-.0260339.256068-.1372958.2856291-.2785027l.0075182-.0728429v-1.6427808l-.0057806-.0639789c-.0303729-.1661691-.1767506-.2931473-.3513457-.2931473zm3.8844407-8.7c.5988536 0 1.1469041.35263863 1.4517701.91230366l.0710388.14414504.1501166.37995195c.4258532 1.00478908 1.1731981 1.81870718 2.1026294 2.28970249l.217653.10253463.3780136.15473116c.3510952.16941803.6380051.46403618.8187863.8303955l.0708576.1612476.0520545.15186081h-10.6259159l.0584453-.16832468c.1525349-.3838335.4161778-.70264183.7483407-.90273857l.1464265-.07833118.3628592-.14752217c.9597903-.41849168 1.7455213-1.19061513 2.2200731-2.16514475l.1039257-.22841562.149057-.37700454c.2859804-.64556448.875057-1.05939133 1.5238685-1.05939133z"/></svg>