<svg height="32" viewBox="0 0 32 32" width="32" xmlns="http://www.w3.org/2000/svg"><path d="m15.5089988 1.9c1.1583386 0 2.1789804.72946099 2.6406928 1.81823805l.147429.37404151c.1398684.32350586.3235753.61872323.5419156.87661635l3.8920466-.00012294c1.3182567 0 2.3869148 1.06865814 2.3869148 2.38691476v17.13462437c0 1.3182566-1.0686581 2.3869148-2.3869148 2.3869148h-14.44416804c-1.31825662 0-2.38691476-1.0686582-2.38691476-2.3869148v-17.13462437c0-1.31825662 1.06865814-2.38691476 2.38691476-2.38691476l3.89212144.0001095c.2101169-.24786637.387864-.52994302.5251628-.83810187l.1634011-.41087834c.46138-1.08972531 1.4824064-1.81990226 2.6413987-1.81990226zm5.1894271 4.26754049c.8603224.54960484 1.4105729 1.55126133 1.4105729 2.65933235 0 .29823376-.2175896.54564675-.5026769.59214701l-.0973231.00785299h-12c-.33137085 0-.6-.26862915-.6-.6 0-1.1089535.551058-2.11130323 1.4099787-2.65970259l-2.03206274.00160272c-.65551492 0-1.18691476.53139984-1.18691476 1.18691476v17.13462437c0 .6555149.53139984 1.1869148 1.18691476 1.1869148h14.44416804c.655515 0 1.1869148-.5313999 1.1869148-1.1869148v-17.13462437c0-.65551492-.5313998-1.18691476-1.1869148-1.18691476zm-9.0738678 15.02120631c.1745951 0 .3209728.1269782.3513457.2931473l.0057806.063979v1.6427807c0 .1745951-.1269782.3209727-.2931473.3513456l-.063979.0057807h-1.6130202c-.17988579 0-.32214843-.1269783-.35154154-.2931473l-.00558469-.063979v-1.6427807c0-.1745951.12697822-.3209728.29314725-.3513457l.06397898-.0057806zm3.5226314-9.2015141.0507974.0483749 5.7018603 5.7018604c.3926898.3926898.2801932.7141188-.2428345.7402228l-.0705414.0017116-2.2590968-.0004122 1.6810133 3.982673c.1639599.3884773-.0180475.8363162-.4065248 1.0002761-.3585945.1513476-.7677693.0079065-.9575562-.3206049l-.04272-.08592-1.6554377-3.9213017-1.8102804 2.1363173c-.3609147.4256957-.6544214.3388582-.6782537-.1810249l-.0015626-.0702602v-8.6723496c0-.5587549.3050708-.7086824.6911371-.3595626zm-3.5226314 4.5071407c.1745951 0 .3209728.1269782.3513457.2931473l.0057806.063979v1.6427807c0 .1745951-.1269782.3209727-.2931473.3513456l-.063979.0057806h-1.6130202c-.17988579 0-.32214843-.1269782-.35154154-.2931472l-.00558469-.063979v-1.6427807c0-.1745951.12697822-.3209728.29314725-.3513457l.06397898-.0057806zm0-4.6943734c.1745951 0 .3209728.1269782.3513457.2931473l.0057806.0639789v1.6427808c0 .1745951-.1269782.3209727-.2931473.3513456l-.063979.0057806h-1.6130202c-.17988579 0-.32214843-.1269782-.35154154-.2931472l-.00558469-.063979v-1.6427808c0-.174595.12697822-.3209727.29314725-.3513456l.06397898-.0057806zm3.8844407-8.7c-.6488115 0-1.2378881.41382685-1.5238685 1.05939133l-.149057.37700454c-.4586258 1.08206452-1.2903785 1.94287702-2.3239988 2.39356037l-.3628592.14752217c-.4009954.18866687-.7204416.5424029-.8947672.98106975l-.0584453.16832468h10.6259159l-.0520545-.15186081c-.1709744-.4408752-.4883923-.7980225-.8896439-.9916431l-.3780136-.15473116c-1.0302059-.44944119-1.8616712-1.31015657-2.3202824-2.39223712l-.1501166-.37995195c-.2849159-.64258809-.8740509-1.0564487-1.5228089-1.0564487z"/></svg>