<svg height="32" viewBox="0 0 32 32" width="32" xmlns="http://www.w3.org/2000/svg"><path d="m16.7220073 4.53706445.1742797.02557271.1466836.06145838c.1928825.11293256.3143306.32048769.3142935.54824716-.0000049.31872978-.234751.58309356-.5414091.62852158l-.093992.00689577-.08718-.00007846v1.64l.4187159.0413737c.393035.04876051.7823346.12466406 1.1661688.22751212.3836013.10278566.7583964.23158645 1.1227944.38567513l.3823209.17343905.821-1.421-.0747558-.042392-.1259407-.09699227-.0129454-.01304229-.0962281-.12697337c-.1099424-.19410387-.1110346-.4340221.0025987-.6308476.1579156-.27358128.4884953-.38513665.7744504-.27685524l.0933675.0443152 1.2503123.72187366.1252871.09637745.0130199.01308296.096256.12660415c.1104383.19417464.1118436.43452942-.0020348.6317796-.157219.27233516-.4874936.38538737-.7741198.2770109l-.0936281-.04441179-.0756392-.04352936-.82 1.42.3431537.24699699c.6443076.48794293 1.2165781 1.06547532 1.7002303 1.71474382l.215616.3032592 1.424-.822-.0427922-.0748997-.0602758-.1459661-.0047419-.017852-.0200978-.15770268c.0013662-.22343888.1203148-.4324043.3176582-.54634057.2733743-.15783274.6155055-.08944403.8091018.14739162l.0587327.08510474.7218712 1.25031749.0602757.1459661.004742.017852.0200978.1577027c-.0013663.2234389-.1203148.4324043-.317614.546315-.2733815.157868-.6155453.0894674-.8091458-.147367l-.058733-.0851038-.0430789-.0754178-1.425.822.1747642.3844843c.3167046.7463982.5260608 1.5324273.6217268 2.3346368l.035509.3688789h1.64l.0006931-.0855529.0205874-.1557103.0048187-.0179179.0611362-.1464835c.112745-.1932905.320474-.3152214.5486898-.3152179.3191747-.0000297.5831511.2350146.628509.5414517l.0068854.0939092v1.4436355l-.0207262.1563388-.0048144.0178389-.0613772.1466182c-.1128659.1929413-.3204216.3145299-.5482472.3145264-.317928.0000651-.5829722-.2339946-.6285379-.5412176l-.0069188-.0942009-.0006979-.0870177h-1.64l-.0406063.4186624c-.0487672.3931314-.1246633.7824446-.2274948 1.1662168-.1027856.3836013-.2315864.7583965-.3856751 1.1227944l-.1742238.3823264 1.421.821.0431767-.0747612.0974008-.1263458.0131255-.0130031.1279004-.0965771c.1938506-.1091455.4331299-.1099681.6293249.0033504.2733203.1577963.3853205.4881954.2769368.7742126l-.0443713.0933977-.7220199 1.2505655-.0955257.1244377-.0130837.013073-.126392.0964988c-.1946657.1112441-.4355329.11246-.6327961-.0014544-.2734785-.1578875-.3852185-.4883773-.2769496-.7744024l.0443181-.0933971.0429551-.0755946-1.421-.82-.245437.3431338c-.4879429.6443075-1.0654753 1.216578-1.7147439 1.7002302l-.3038191.215636.822 1.424.0755024-.0428007.1460798-.060306.0178451-.0047364.1575857-.0200676c.2232352.0013638.4323241.120114.546324.3176064.157857.2734164.0894795.6155182-.1473961.8091576l-.08512.05875-1.2502711.7218444-.1460067.0602865-.0178491.0047399-.1575839.0200874c-.2233107-.0013363-.4324059-.1201365-.5463949-.3176102-.157857-.2734165-.0894795-.6155182.147396-.8091577l.08512-.05875.0747688-.0430436-.822-1.425-.3839225.1748024c-.7464553.3167114-1.5325205.5260638-2.3347711.6217228l-.3703064.0354748v1.64l.0869422.0006275.1579186.0211857.0179582.0049031.1473631.0623513c.1911369.1130231.3121058.3195983.3120897.5468219-.0000048.3188003-.2348617.5830583-.5413542.6284705l-.0939336.0068939h-1.4437086l-.1564167-.0207471-.0178371-.0048166-.1466378-.0614131c-.1929008-.112891-.3144271-.3204258-.3144307-.5483396.0000048-.3189111.2350093-.5830339.5414795-.6284166l.0939215-.0068886.0856459-.0006323v-1.64l-.4171818-.040663c-.3930349-.0487605-.7823345-.1246641-1.1661687-.2275121-.3836013-.1027857-.7583965-.2315865-1.1227944-.3856751l-.3848551-.1741498-.819 1.421.0752899.0431027.1258967.0969479.0129465.0130406.0961884.1268701c.1099684.1940218.111219.4339952-.0024893.6309506-.1578725.2735067-.4884037.3852197-.7744437.2769162l-.0934009-.0443298-1.25031233-.7218737-.12528714-.0963774-.01301983-.013083-.09625604-.1266041c-.11043831-.1941747-.11184362-.4345295.00203485-.6317796.15721894-.2723352.48749357-.3853874.77411969-.2770109l.0936282.0444118.075105.0438186.82-1.421-.3426195-.2462863c-.6443076-.4879429-1.21657811-1.0654753-1.70023029-1.7147438l-.21615018-.3039699-1.424.822.04332638.0756104.06027574.1459661.00474196.017852.0200978.1577027c-.00136625.2234389-.12031482.4324043-.31765823.5463406-.27337433.1578327-.6155055.089444-.80910181-.1473917l-.05873274-.0851047-.72187115-1.2503175-.06027574-.1459661-.02483976-.1755547c.00136624-.2234388.12031482-.4324043.31761395-.546315.27338156-.157868.61554531-.0894674.80914581.147367l.05873301.0851038.04254478.0747071 1.425-.822-.17423409-.383803c-.31671144-.7464553-.52606383-1.5325205-.62172281-2.3347711l-.0360431-.3704259h-1.641l.00094084.0870617-.02058734.1557103-.00481871.0179179-.06113622.1464835c-.11274504.1932905-.32047402.3152214-.54868981.3152179-.31917466.0000297-.5831511-.2350146-.62850901-.5414517l-.00688539-.0939092v-1.4436355l.0207734-.1565137.0048187-.0178331.06139898-.1465614c.1128487-.1928109.32032719-.3144176.54817391-.3144141.31792804-.0000651.58297223.2339946.62853794.5412176l.00691876.0942009-.00093605.0855089h1.64l.04223129-.4170623c.04876052-.3930349.12466406-.7823345.22751212-1.1661687.1027669-.3835313.23157763-.7583269.38570457-1.1228047l.17255202-.3849643-1.42-.819-.04245744.0752929-.09740072.1263457-.01312555.0130031-.12790035.0965772c-.19385059.1091454-.4331299.1099681-.62932497-.0033505-.27340894-.1578474-.38529616-.4882916-.27695679-.7744822l.04435018-.0934604.72195544-1.25035191.09542234-.12432672.01309157-.01308646.12634235-.09651014c.19469324-.11133043.4356303-.1125749.63294169.00136737.27347856.15788749.38521855.48837724.27694961.77440236l-.04431806.0933972-.0435693.0741825 1.421.821.24613908-.3426362c.48797449-.6442822 1.06548439-1.21651565 1.71467719-1.70011481l.3031837-.216249-.822-1.424-.0749027.04343756-.1460798.06030594-.0178451.00473638-.1575857.02006762c-.22323516-.00136381-.43232413-.12011397-.54632396-.31760638-.15785702-.27341646-.08947953-.61551821.14739602-.80915762l.08511999-.05874999 1.25027115-.72184439.1460067-.06028654.0178491-.00473984.1575839-.02008747c.2233107.00133638.4324059.12013658.5463949.31761028.157857.27341644.0894795.6155182-.147396.80915762l-.08512.05875-.0753685.04240683.822 1.425.3845222-.17416559c.7464553-.31671144 1.5325205-.52606383 2.3347711-.6217228l.3697067-.03611161v-1.64l-.0863425.00000934-.1579186-.02118572-.0179582-.00490307-.1473631-.06235136c-.1911369-.1130231-.3121058-.31959825-.3120897-.54682186.0000048-.31880035.2348617-.5830583.5413542-.62847049l.0939336-.00689398zm.9384257 15.54886715c-.4871151 0-.882.3948848-.882.882 0 .4871151.3948849.882.882.882.4871152 0 .882-.3948849.882-.882 0-.4871152-.3948848-.882-.882-.882zm-4.41 0c-.4871151 0-.882.3948848-.882.882 0 .4871151.3948849.882.882.882.4871152 0 .882-.3948849.882-.882 0-.4871152-.3948848-.882-.882-.882zm7.7175-2.205c-.4871151 0-.882.3948848-.882.882 0 .4871151.3948849.882.882.882.4871152 0 .882-.3948849.882-.882 0-.4871152-.3948848-.882-.882-.882zm-6.615-1.1466c-.5114709 0-.9261.4146291-.9261.9261s.4146291.9261.9261.9261.9261-.4146291.9261-.9261-.4146291-.9261-.9261-.9261zm3.3075 0c-.5114709 0-.9261.4146291-.9261.9261s.4146291.9261.9261.9261.9261-.4146291.9261-.9261-.4146291-.9261-.9261-.9261zm-6.615.0441c-.4871151 0-.882.3948848-.882.882 0 .4871151.3948849.882.882.882.4871152 0 .882-.3948849.882-.882 0-.4871152-.3948848-.882-.882-.882zm6.615-3.3516c-.5114709 0-.9261.4146291-.9261.9261s.4146291.9261.9261.9261.9261-.4146291.9261-.9261-.4146291-.9261-.9261-.9261zm-3.3075 0c-.5114709 0-.9261.4146291-.9261.9261s.4146291.9261.9261.9261.9261-.4146291.9261-.9261-.4146291-.9261-.9261-.9261zm6.615.0441c-.4871151 0-.882.3948848-.882.882 0 .4871151.3948849.882.882.882.4871152 0 .882-.3948849.882-.882 0-.4871152-.3948848-.882-.882-.882zm-9.9225-1.1025c-.4871151 0-.882.3948848-.882.882 0 .4871151.3948849.882.882.882.4871152 0 .882-.3948849.882-.882 0-.4871152-.3948848-.882-.882-.882zm7.7175-2.205c-.4871151 0-.882.3948848-.882.882 0 .4871151.3948849.882.882.882.4871152 0 .882-.3948849.882-.882 0-.4871152-.3948848-.882-.882-.882zm-4.41 0c-.4871151 0-.882.3948848-.882.882 0 .4871151.3948849.882.882.882.4871152 0 .882-.3948849.882-.882 0-.4871152-.3948848-.882-.882-.882z"/></svg>