<svg height="32" viewBox="0 0 32 32" width="32" xmlns="http://www.w3.org/2000/svg"><g fill="none" fill-rule="evenodd" transform="translate(4.5 4.5)"><path d="m10.7413013 0h1.4437086l.1742797.02557271.1466836.06145838c.1928825.11293256.3143306.32048769.3142935.54824716-.0000049.31872978-.234751.58309356-.5414091.62852158l-.0939919.00689576-.0871801-.00007846v1.64l.4187159.0413737c.393035.04876052.7823346.12466407 1.1661688.22751213.3836013.10278566.7583964.23158645 1.1227944.38567512l.3823209.17343905.821-1.421-.0747558-.04239199-.1259407-.09699227-.0129454-.0130423-.0962281-.12697337c-.1099424-.19410387-.1110346-.43402209.0025987-.63084759.1579156-.27358129.4884953-.38513666.7744504-.27685525l.0933675.04431521 1.2503123.72187366.1252872.09637745.0130198.01308296.096256.12660415c.1104383.19417464.1118436.43452942-.0020348.63177959-.157219.27233517-.4874936.38538737-.7741197.27701091l-.0936282-.0444118-.0756392-.04352936-.82 1.42.3431537.246997c.6443076.48794293 1.2165781 1.06547532 1.7002303 1.71474384l.215616.30325916 1.424-.822-.0427922-.07489973-.0602758-.14596606-.0047419-.01785203-.0200978-.15770264c.0013662-.22343888.1203148-.43240431.3176582-.54634058.2733743-.15783274.6155055-.08944402.8091018.14739163l.0587327.08510474.7218712 1.25031752.0602757.14596607.004742.01785202.0200978.15770265c-.0013662.22343888-.1203148.4324043-.3176139.54631501-.2733816.15786798-.6155454.08946746-.8091459-.14736701l-.058733-.08510378-.0430789-.07541781-1.425.822.1747642.38448434c.3167047.74639819.5260608 1.53242727.6217268 2.33463683l.035509.3688788h1.64l.0006931-.0855529.0205874-.1557103.0048187-.0179178.0611362-.1464835c.112745-.1932906.320474-.3152214.5486898-.315218.3191747-.0000296.5831511.2350146.628509.5414517l.0068854.0939093v1.4436354l-.0207261.1563389-.0048145.0178388-.0613772.1466183c-.1128659.1929412-.3204216.3145298-.5482472.3145264-.317928.000065-.5829722-.2339947-.6285379-.5412177l-.0069188-.0942008-.0006979-.0870178h-1.64l-.0406063.4186624c-.0487671.3931315-.1246633.7824446-.2274948 1.1662169-.1027856.3836013-.2315864.7583964-.3856751 1.1227944l-.1742238.3823263 1.421.821.0431768-.0747612.0974007-.1263457.0131255-.0130031.1279004-.0965772c.1938506-.1091454.4331299-.1099681.6293249.0033505.2733203.1577962.3853205.4881954.2769368.7742126l-.0443713.0933976-.7220199 1.2505655-.0955257.1244378-.0130837.0130729-.126392.0964988c-.1946657.1112442-.4355329.1124601-.6327961-.0014544-.2734785-.1578875-.3852185-.4883772-.2769496-.7744024l.0443181-.0933971.0429551-.0755946-1.421-.82-.245437.3431338c-.4879429.6443076-1.0654753 1.2165781-1.7147438 1.7002303l-.3038192.2156359.822 1.424.0755024-.0428007.1460798-.0603059.0178452-.0047364.1575856-.0200676c.2232352.0013638.4323241.1201139.546324.3176063.157857.2734165.0894795.6155182-.1473961.8091577l-.0851199.0587499-1.2502712.7218444-.1460067.0602866-.0178491.0047398-.1575839.0200875c-.2233107-.0013364-.4324059-.1201366-.5463949-.3176103-.157857-.2734164-.0894795-.6155182.147396-.8091576l.08512-.05875.0747688-.0430437-.822-1.425-.3839225.1748024c-.7464553.3167115-1.5325204.5260639-2.3347711.6217228l-.3703064.0354748v1.64l.0869422.0006275.1579186.0211857.0179582.0049031.1473631.0623514c.1911369.1130231.3121058.3195982.3120897.5468218-.0000048.3188004-.2348617.5830583-.5413542.6284705l-.0939336.006894h-1.4437086l-.1564167-.0207472-.0178371-.0048166-.1466377-.061413c-.1929009-.112891-.3144271-.3204259-.3144308-.5483397.0000048-.3189111.2350093-.5830338.5414795-.6284165l.0939215-.0068887.0856459-.0006323v-1.64l-.4171817-.0406629c-.393035-.0487606-.78233461-.1246641-1.16616878-.2275122-.3836013-.1027856-.75839646-.2315864-1.1227944-.3856751l-.38485508-.1741498-.819 1.421.07528991.0431028.1258967.0969479.01294642.0130406.09618846.1268701c.10996838.1940217.11121903.4339951-.0024893.6309506-.15787255.2735066-.48840373.3852196-.7744437.2769161l-.09340096-.0443298-1.25031229-.7218736-.12528714-.0963775-.01301983-.0130829-.09625604-.1266042c-.11043831-.1941746-.11184362-.4345294.00203485-.6317796.15721894-.2723352.48749358-.3853874.77411972-.2770109l.09362817.0444118.07510503.0438186.82-1.421-.34261955-.2462862c-.64430757-.487943-1.21657809-1.0654754-1.70023027-1.7147439l-.21615018-.3039699-1.424.822.04332638.0756105.06027574.1459661.00474196.017852.0200978.1577026c-.00136624.2234389-.12031482.4324043-.31765823.5463406-.27337433.1578327-.6155055.089444-.80910181-.1473916l-.05873274-.0851048-.72187115-1.2503175-.06027574-.1459661-.02483976-.1755546c.00136625-.2234389.12031482-.4324043.31761395-.546315.27338156-.157868.61554531-.0894675.80914581.147367l.05873301.0851038.04254478.074707 1.425-.822-.17423409-.3838029c-.31671144-.7464553-.52606383-1.5325205-.62172281-2.3347712l-.0360431-.3704259h-1.641l.00094084.0870618-.02058734.1557103-.00481871.0179178-.06113621.1464835c-.11274504.1932906-.32047403.3152214-.54868981.315218-.31917467.0000296-.5831511-.2350147-.62850901-.5414518l-.0068854-.0939092v-1.4436354l.0207734-.1565138.00481871-.0178331.06139897-.1465614c.11284871-.1928108.32032719-.3144175.54817391-.3144141.31792804-.0000651.58297224.2339946.62853794.5412177l.00691876.0942008-.00093605.0855089h1.64l.04223129-.4170622c.04876052-.3930349.12466407-.78233457.22751212-1.16616874.1027669-.38353129.23157763-.75832696.38570457-1.12280474l.17255202-.38496429-1.42-.819-.04245744.07529288-.09740072.12634577-.01312555.01300309-.12790035.09657719c-.19385059.10914543-.4331299.10996809-.62932497-.00335048-.27340893-.15784743-.38529616-.48829161-.27695679-.77448227l.04435019-.0934604.72195543-1.25035187.09542234-.12432673.01309157-.01308646.12634235-.09651013c.19469324-.11133043.4356303-.11257491.63294169.00136737.27347857.15788749.38521855.48837724.27694961.7744024l-.04431806.09339713-.0435693.07418251 1.421.821.24613908-.34263615c.48797449-.64428219 1.06548437-1.21651569 1.71467723-1.70011485l.30318369-.216249-.822-1.424-.0749027.04343756-.14607984.06030595-.01784513.00473638-.15758565.02006761c-.22323517-.0013638-.43232414-.12011396-.54632396-.31760637-.15785703-.27341646-.08947954-.61551821.14739601-.80915762l.08511999-.05875 1.25027116-.72184438.14600673-.06028654.0178491-.00473984.15758384-.02008748c.22331072.00133638.43240589.12013659.5463949.31761028.15785702.27341645.08947956.6155182-.147396.80915763l-.08512.05875-.07536845.04240682.822 1.425.38452215-.17416558c.7464553-.31671144 1.53252048-.52606383 2.33477121-.62172281l.3697066-.03611161v-1.64l-.0863425.00000935-.1579185-.02118572-.0179582-.00490307-.1473632-.06235137c-.1911369-.1130231-.3121058-.31959825-.3120897-.54682186.0000048-.31880034.2348617-.58305829.5413542-.62847048zm-6.33447607 9.57226598c-1.0425394 3.89081002 1.27468483 7.90436012 5.16549485 8.94689952s7.90436012-1.2746848 8.94689952-5.1654949c1.0425394-3.89080997-1.2746848-7.90436007-5.1654949-8.94689947-3.89080996-1.0425394-7.90436006 1.27468483-8.94689947 5.16549485z" fill="#b75c64" fill-rule="nonzero"/><circle cx="11.463003" cy="11.462936" fill="#e9acc5" r="8.700681"/><path d="m11.4630026 20.1636168c4.8052536 0 8.7006813-3.8954277 8.7006813-8.7006813 0-4.80525353-3.8954277-8.70068121-8.7006813-8.70068121z" fill="#d18ea9"/><path d="m13.2304239 15.8127715c.5186287 0 .9390604.4204317.9390604.9390604s-.4204317.9390604-.9390604.9390604-.9390604-.4204317-.9390604-.9390604.4204317-.9390604.9390604-.9390604zm-4.69530202 0c.51862874 0 .93906041.4204317.93906041.9390604s-.42043167.9390604-.93906041.9390604-.9390604-.4204317-.9390604-.9390604.42043166-.9390604.9390604-.9390604zm8.21677852-2.347651c.5186288 0 .9390604.4204317.9390604.9390604s-.4204316.9390604-.9390604.9390604c-.5186287 0-.9390604-.4204317-.9390604-.9390604s.4204317-.9390604.9390604-.9390604zm-3.5214765-1.2207785c.5445602 0 .9860134.4414532.9860134.9860134s-.4414532.9860134-.9860134.9860134-.9860134-.4414532-.9860134-.9860134.4414532-.9860134.9860134-.9860134zm-3.52147651 0c.54456021 0 .98601341.4414532.98601341.9860134s-.4414532.9860134-.98601341.9860134c-.54456018 0-.98601343-.4414532-.98601343-.9860134s.44145325-.9860134.98601343-.9860134zm-3.52147652.046953c.51862874 0 .93906041.4204316.93906041.9390604 0 .5186287-.42043167.9390604-.93906041.9390604s-.9390604-.4204317-.9390604-.9390604c0-.5186288.42043166-.9390604.9390604-.9390604zm3.52147652-3.56842955c.54456021 0 .98601341.44145325.98601341.98601342 0 .54456023-.4414532.98601343-.98601341.98601343-.54456018 0-.98601343-.4414532-.98601343-.98601343 0-.54456017.44145325-.98601342.98601343-.98601342zm3.52147651 0c.5445602 0 .9860134.44145325.9860134.98601342 0 .54456023-.4414532.98601343-.9860134.98601343s-.9860134-.4414532-.9860134-.98601343c0-.54456017.4414532-.98601342.9860134-.98601342zm3.5214765.04695302c.5186288 0 .9390604.42043166.9390604.9390604 0 .51862873-.4204316.93906043-.9390604.93906043-.5186287 0-.9390604-.4204317-.9390604-.93906043 0-.51862874.4204317-.9390604.9390604-.9390604zm-10.56442953-1.1738255c.51862874 0 .93906041.42043166.93906041.9390604s-.42043167.9390604-.93906041.9390604-.9390604-.42043166-.9390604-.9390604.42043166-.9390604.9390604-.9390604zm3.52147652-2.34765101c.51862871 0 .93906041.42043166.93906041.9390604s-.4204317.9390604-.93906041.9390604c-.51862874 0-.93906041-.42043166-.93906041-.9390604s.42043167-.9390604.93906041-.9390604zm4.69530201 0c.5186287 0 .9390604.42043166.9390604.9390604s-.4204317.9390604-.9390604.9390604-.9390604-.42043166-.9390604-.9390604.4204317-.9390604.9390604-.9390604z" fill="#b75c64"/></g></svg>