<svg height="32" viewBox="0 0 32 32" width="32" xmlns="http://www.w3.org/2000/svg"><path d="m19.5183729 17.3561028c-.0318558.1934946.0220901.6302674.0987913.7913653l3.2340605 7.036018c.0150261.0327286.0150261.0327286.0308691.0673946.3071863.6741642.3690711 1.1542965.001439 1.7150909-.2763096.4328851-.7566019.6957024-1.2708956.6957024-.72709 0-1.0926385-.3410333-1.5020762-1.0363161l-3.438079-5.7807848-.5907681 1.2047073c-.2759347.5721586-.8153777 1.3504207-1.2519675 1.8113088l-2.1818479 2.3625913c-.4929946.5319153-.7884222.7323501-1.3619163.7323501-.580937 0-1.106821-.3295311-1.36262004-.8536963-.34064319-.7185831-.15427467-1.1992742.40505734-1.8946594l2.1631343-2.6832401c.1685739-.1986296.4319974-.7094016.5218444-.9997141l.7949056-2.8023301c.1045597-.3517007.2296611-1.0436337.2647577-1.4471662l.2647816-3.2217403c-.1063537.0712021-.2139103.1489512-.3221036.2329347-1.1345147.970743-2.1379844 2.2528982-2.5091387 2.8885421-.0427328.0681054-.1707472.2638299-.1694657.2618365-.0235673.0370425-.043278.0670963-.0650515.0921359-.3164189.4360275-.6854411.6609321-1.2324536.6609321-.55008922 0-1.05391142-.2917759-1.31193225-.7600975-.30275409-.5224517-.25688278-.979111.02191961-1.5237482.01686788-.0329512.0366556-.0640929.0590337-.0930986.03321387-.0613691.07075599-.1251107.12072637-.2070871.13712778-.2387039.49782129-.7753574.92150191-1.3214795.68641196-.8847815 1.44435306-1.6874596 2.24264866-2.3152504 1.5752597-1.33065413 3.192365-2.08776703 4.8006307-2.22831456 1.7608792-.15328248 2.6376745.8089095 3.6235464 2.88872646.169726.3457382.2056228.4175317.274735.5449361l.8191695 1.4892439c.1012299.182332.1012299.182332.2019917.3644271.1005793.1819507.1005793.1819507.2008963.3635607.3760031.6806059.5752454 1.0378471.8095149 1.4477075l.472015.8567932c.3833446.7176211.1372224 1.6128671-.5624025 2.0156238-.706723.4191387-1.6106021.1943495-2.0388233-.5000069l-1.0286663-1.6427802zm-9.2813904-1.3189547c-.0046528.0254634-.0046192.0422974-.0045545.0746947 0-.0345504.0029831-.0688821.0088425-.1026315zm.004288-.0279368c.0136522-.0786342.0429191-.1541077.0864504-.221823.0041424-.0064438.1268625-.1940737.1523742-.2341447.4238299-.7265655 1.5076935-2.1114416 2.7770755-3.1967313.5423007-.4220159 1.0696996-.7206321 1.5791651-.8875998.4078111-.1336523.8199952.1915952.7848433.6193068l-.3523893 4.2876287c-.0420673.4837733-.1814966 1.2549532-.3081347 1.6807508l-.7967551 2.808432c-.13904.4501127-.4764091 1.1042633-.7477514 1.4236879l-2.1530668 2.6710557c-.2935997.3650159-.3325032.4653578-.2583539.6218662.0519323.1063979.15964.17389.2812544.17389.1342396 0 .2014863-.045624.4810684-.347277l2.1862841-2.367326c.3572531-.3771928.8257644-1.0531207 1.0492307-1.516455l1.0804178-2.203241c.2098381-.4279121.8107823-.452151 1.054402-.0425289l4.0058766 6.7354905c.2117109.3595091.3060064.4474808.4693754.4474808.1048946 0 .2036684-.0540493.2633323-.1474411.0802765-.1224732.0661308-.2322223-.0858586-.5657848-.0145011-.03173-.0145011-.03173-.0294044-.0641926l-3.2303594-7.0281032c-.1819788-.3818991-.266553-1.0666537-.1937225-1.5081195l.4332733-2.3101765c.1007132-.536994.8082891-.6708921 1.0982485-.2078271l1.8458716 2.9478832c.0873854.1416893.2648837.185832.4141632.0973564.1398956-.080546.1900894-.2631211.1131096-.4073343l-.4636548-.841671c-.2334025-.4081928-.4347748-.7692529-.8135074-1.4547997-.1003409-.1816532-.1003409-.1816532-.2006242-.3630683-.1003057-.1812707-.1003057-.1812707-.2020422-.3645246l-.8221171-1.4946113c-.0820224-.1511785-.1201047-.2273432-.3024068-.5988266-.7846011-1.6551074-1.3785885-2.30694702-2.4385117-2.21468198-1.3409382.11718558-2.7327255.76880678-4.146652 1.96270768-1.2583795.9903302-2.3912784 2.450631-2.88942068 3.3173991-.06540263.1075979-.09861053.1655608-.12496787.2194214-.01660939.033941-.03629063.0660437-.05869694.0959585-.07192768.1522799-.06733072.202169-.00641231.3075303.05132985.0931099.15059591.1505974.2673532.1505974.128766 0 .1662704-.0246758.2891489-.205516.1116943-.1643803.2975369-.262788.4962742-.262788-.4146905.1214097-.4146905.1214097-.550633.3725563-.0218895.0783496-.032405.115988-.0374376.1435304zm9.1735243-9.22458483c-.1327307-.81083573-.8962998-1.35984146-1.7030156-1.22583028-.8141656.13241664-1.3589674.89360212-1.2240058 1.71004429.1280721.80241051.8960577 1.3513207 1.7086315 1.21720659.8057165-.13275263 1.351951-.89350687 1.2183899-1.7014206zm-1.0231397 2.88542961c-1.4666816.24207366-2.8556271-.75066153-3.0883476-2.20878572-.242575-1.46734059.7454323-2.84776359 2.213826-3.08658097 1.4601737-.24256957 2.841755.75064922 3.0816695 2.21468136.2414865 1.46232447-.748045 2.84027851-2.2071479 3.08068533z"/></svg>