<svg height="32" viewBox="0 0 32 32" width="32" xmlns="http://www.w3.org/2000/svg"><path d="m15.6377998 6.54412609c-.2304667-1.39419496.7049315-2.70106766 2.0950973-2.92715978 1.3844575-.22998531 2.6929081.71076689 2.9203505 2.09825648.2284272 1.3836714-.7071508 2.68941707-2.089982 2.9172761-.0350658.00578708-.0700854.01082946-.1050423.01513889.7954369.38204931 1.4388721 1.24113347 2.1384058 2.71692522.2018008.4112168.2356821.478394.3130541.6210324l.9026259 1.6409906.1125174.2027568.1105167.1996421.1103435.1996327.1104496.1999354c.4382312.7932454.6465683 1.1658544.895397 1.6012562l.5157402.9363857c.314801.5897457.1086932 1.3302297-.4632358 1.6594231-.5880203.3485104-1.335491.1692189-1.690826-.4069789l-1.6908642-2.7003341-.3551317 1.8926441c-.051254.3106783.0202563.8749412.142072 1.1307622l3.5535895 7.7313361.0168499.0367245.0165469.0361875c.3000505.6585036.3240275 1.0460655.0332225 1.4896015-.2317554.3627663-.6285655.582269-1.0565306.582269-.5746444 0-.8958584-.2534169-1.2984401-.9370653l-4.1385566-6.958579c-.6011028 1.5516971-1.374306 2.832646-2.3197142 3.8402198l-2.4060142 2.6052495c-.4909256.5296804-.7281508.6734173-1.1965954.6734173-.4818138 0-.91758216-.272707-1.13175321-.7116613-.26882911-.5674224-.15482904-.9573684.39808491-1.6447741l2.3684832-2.9369295c.6350563-.9146812 1.1102226-2.1602913 1.444034-3.5961588.2164941-.9312349.3410379-1.7888244.3952973-2.4126665l.354802-4.316985c-.3449519.1569465-.7066691.3806099-1.0692857.661919-1.1039777.9438731-2.3145627 2.3480572-2.8625882 3.2874357l-.0159222.026025c-.112578.1768252-.1519487.237063-.1886067.2869551-.2964733.4325823-.59366258.6140586-1.06353286.6140586-.45428592 0-.87162645-.238295-1.08188638-.6201635-.23694482-.4098072-.1967111-.8114399.04204085-1.2993243.04228963-.086418.08825852-.1677022.16585904-.2948086.74968546-1.3044536 2.13157945-2.9089741 3.38025445-3.8909879 1.6865168-1.42407252 3.3878032-2.22329915 5.0694924-2.37026319.0109504-.00095322.0218704-.00185988.0327601-.00271979-.7273036-.34563431-1.2779919-1.02759827-1.4133787-1.87589703z"/></svg>