<svg height="32" viewBox="0 0 32 32" width="32" xmlns="http://www.w3.org/2000/svg"><path d="m15.9924753 18.4172222c.33 0 .6-.27.6-.6v-5.03c0-.33-.27-.6-.6-.6s-.6.27-.6.6v5.03c0 .33.27.6.6.6zm0 1.38c-.55 0-1 .44-1 1 0 .55.45 1 1 1s1-.44 1-1c0-.55-.44-1-1-1zm9.85 2.08-8.01-13.87999998c-.19-.32-.46-.59-.78-.78-.49-.28-1.06-.36-1.61-.21s-1.01.5-1.29.99l-8.00999997 13.87999998c-.19.32-.28.69-.28 1.06 0 1.17.95 2.13 2.13 2.13h16.03999997c.76 0 1.46-.41 1.83-1.06.37-.66.37-1.48-.02-2.13zm-1.04 1.53c-.16.28-.46.46-.79.46h-16.02999997c-.25 0-.48-.1-.65-.27s-.27-.41-.27-.65c0-.16.04-.32.12-.46l8.00999997-13.88999998c.12-.21.32-.37.56-.43.08-.02.16-.03.24-.03.16 0 .32.04.46.12s.26.2.34.34l8.01 13.87999998c.17.28.17.64 0 .93z"/></svg>