<svg height="32" viewBox="0 0 32 32" width="32" xmlns="http://www.w3.org/2000/svg"><path d="m15.4145991 6.55758333c.5775-.1575 1.176-.0735 1.6905.2205.28.16625.5235417.39083334.7123958.65552084l.1066042.16347916 8.4105 14.57399997c.4095.6825.4095 1.5435.021 2.2365-.36075.63375-1.0202679 1.0502143-1.7515676 1.1064758l-.1699324.0065242h-16.84200001c-1.239 0-2.2365-1.008-2.2365-2.2365 0-.32375.065625-.6475.20295139-.940868l.09104861-.172132 8.41050001-14.57399997c.294-.5145.777-.882 1.3545-1.0395zm.5778762 13.46643927c-.6911576 0-1.25.5549883-1.25 1.25 0 .6880712.5619288 1.25 1.25 1.25.6911576 0 1.25-.5549883 1.25-1.25 0-.6911576-.5549883-1.25-1.25-1.25zm0-8.0868004c-.4320657 0-.790732.3254305-.8433548.7436474l-.0066452.1063526v5.03l.0066452.1063527c.0526228.4182169.4112891.7436473.8433548.7436473s.790732-.3254304.8433549-.7436473l.0066451-.1063527v-5.03l-.0066451-.1063526c-.0526229-.4182169-.4112892-.7436474-.8433549-.7436474z"/></svg>