<svg height="32" viewBox="0 0 32 32" width="32" xmlns="http://www.w3.org/2000/svg"><g fill="none"><path d="m26.3345991 22.1710833-8.4105-14.57399997c-.1995-.336-.483-.6195-.819-.819-.5145-.294-1.113-.378-1.6905-.2205s-1.0605.525-1.3545 1.0395l-8.41050001 14.57399997c-.1995.336-.294.7245-.294 1.113 0 1.2285.9975 2.2365 2.2365 2.2365h16.84200001c.798 0 1.533-.4305 1.9215-1.113.3885-.693.3885-1.554-.021-2.2365z" fill="#f8c31c"/><path d="m15.9922058 6.47941667c.3875891-.00053133.7690047.10215889 1.1128933.29866666.28.16625.5235417.39083334.7123958.65552084l.1066042.16347916 8.4105 14.57399997c.4095.6825.4095 1.5435.021 2.2365-.36075.63375-1.0202679 1.0502143-1.7515676 1.1064758l-.1699324.0065242h-8.4425z" fill="#dfad10"/><g fill="#000"><path d="m15.9924753 11.9372222c-.4680712 0-.85.3819288-.85.85v5.03c0 .4680712.3819288.85.85.85s.85-.3819288.85-.85v-5.03c0-.4680712-.3819288-.85-.85-.85z"/><path d="m15.9924753 20.0240226c-.6911576 0-1.25.5549883-1.25 1.25 0 .6880712.5619288 1.25 1.25 1.25.6911576 0 1.25-.5549883 1.25-1.25 0-.6911576-.5549883-1.25-1.25-1.25z"/></g></g></svg>