<svg height="32" viewBox="0 0 32 32" width="32" xmlns="http://www.w3.org/2000/svg"><g fill="none"><path d="m13.8602923 6.32898945c-.5584447.32241821-.7727262 1.01201982-.5139546 1.58778114l.0580999.11349186 3.9438245 6.83090455c.1145785.1984557.0465042.4525125-.1519516.567091-.1736487.1002561-.3898671.0606688-.517967-.0837444l-.049124-.0682072-3.5286851-6.11186194-.0692369-.10706191c-.3692381-.51198346-1.0735914-.67121103-1.6320361-.34879282s-.7727262 1.01201982-.5139546 1.58778117l.0580999.1134918 3.9438245 6.8309045c.1145785.1984558.0465042.4525126-.1519515.567091-.1736488.1002562-.3898671.0606688-.5179671-.0837444l-.0491239-.0682071-2.6984063-4.6737768-.0692369-.1070619c-.3692381-.5119835-1.0735914-.671211-1.63203613-.3487928-.55844472.3224182-.77272623 1.0120198-.51395461 1.5877811l.05809988.1134919 5.68364976 9.8399652.1450718.2248387.1155824.1657633.1307708.1757504.14604.1834154.1613901.188758.1768208.1917781.1923324.192476c.066705.064017.1360087.1277632.2079247.1908515l.2235977.1869047c1.3887674 1.1049431 3.6282429 1.871351 6.7969347.0419059 2.9343895-1.6941706 3.9041219-3.7400173 4.0746301-5.7729312l.4332611-7.2126758c.0429146-.9087198-.6002172-1.6706186-1.4400042-1.7053954-.7877293-.0234381-1.4659219.6032526-1.5825192 1.4392349l-.3208803 2.992216-5.1892428-8.98803227-.0692369-.10706192c-.3692381-.51198345-1.0735914-.67121103-1.6320361-.34879281-.5584448.32241821-.7727263 1.01201982-.5139547 1.58778114l.0580999.11349187 3.1135457 5.39281929c.1145785.1984558.0465042.4525126-.1519515.567091-.1736488.1002562-.3898671.0606689-.5179671-.0837443l-.0491239-.0682072-3.9438246-6.83090453-.0692369-.10706191c-.3692381-.51198345-1.0735914-.67121103-1.6320361-.34879281z" fill="#fdd052"/><path d="m11.3992614 8.70858973c-.5584447.32241821-.7727262 1.01201982-.5139546 1.58778117l.0580999.1134918 3.9438245 6.8309045c.1145785.1984558.0465042.4525126-.1519515.567091-.1736488.1002562-.3898671.0606688-.5179671-.0837444l-.0491239-.0682071-2.6984063-4.6737768-.0692369-.1070619c-.3692381-.5119835-1.0735914-.671211-1.63203613-.3487928-.55844472.3224182-.77272623 1.0120198-.51395461 1.5877811l.05809988.1134919 5.68364976 9.8399652.094415.1486643.1707307.2481716.133349.1786944.1490701.1864622.1648757.1918048.1807655.1947223.1967398.1952144c.0341258.0324421.0689208.0648035.1043866.0970339l.2208592.1914054c1.3736265 1.1341449 3.6212483 1.9674613 6.8248516.1426261l-6.0187814-10.4271811-.0212557.0131263c-.1736487.1002561-.3898671.0606688-.517967-.0837444l-.049124-.0682072-3.5286851-6.11186194-.0692369-.10706191c-.3692381-.51198346-1.0735914-.67121103-1.6320361-.34879282z" fill="#f8be1b"/><path d="m7.72206056 17.0486169c.28464218-.1696628.65292914-.0764536.82259194.2081886.22774653.3820889.48727581.7474183.77747655 1.0932661.28802816.3432586.60020393.6600966.93409685.9489819.2505947.2168155.2779782.5957263.0611627.846321-.2168154.2505947-.59572622.2779782-.84632092.0611627-.38209377-.3305889-.7391167-.6929438-1.06819196-1.0851205-.33155948-.3951372-.62837636-.8129549-.88900376-1.2502078-.13573024-.2277138-.10322239-.5089602.06094675-.6992176l.06766362-.0667991zm17.45493944-11.73539951c.4012242.49629173.7650011 1.02588892 1.0883167 1.58588806.3397385.58844424.6280521 1.19876843.8637805 1.82623982.116537.3102028-.0404602.65614373-.350663.7726807-.3102028.11653696-.6561437-.04046022-.7726807-.35066302-.2126353-.56600138-.4728264-1.11679354-.7796673-1.6482575-.2920172-.50578878-.6203309-.98375749-.9822725-1.43145894-.2083299-.25769228-.1683137-.63547787.0893786-.84380772s.6354778-.16831368.8438077.0893786zm-20.6807588 11.29744611.08819345-.0418972c.30977947-.1176576.65628571.0380879.77394336.3478674.21001905.5529567.46550869 1.0912614.76561918 1.611068.29786346.5159147.63348691 1.0028769 1.00403189 1.4582878.209138.2570368.1703083.6349462-.08672855.8440842-.25703684.209138-.63494622.1703083-.84408421-.0867286-.41077182-.5048508-.78265717-1.0444261-1.11244962-1.6156434-.33228187-.5755291-.61537812-1.1719996-.84819938-1.784992-.09412612-.2478236-.01327421-.5191523.18143868-.6780115zm17.4055842-10.75930604c.3736395.32533133.7231176.68115018 1.0457297 1.06562421.3390004.40400505.6416744.83171176.9064772 1.27964382.1686326.28525369.0740926.65320128-.2111448.82186208-.28527.16860451-.6532176.07406448-.8218502-.21118921-.2313864-.39140598-.4960274-.76536853-.7927356-1.11897156-.2823756-.33652215-.5879641-.64765501-.9144801-.93195558-.2499127-.21760127-.2761062-.59659617-.058505-.84650882.2176013-.24991264.5965962-.2761062.8465088-.05850494z" fill="#7f7f7f"/></g></svg>