<svg height="32" viewBox="0 0 32 32" width="32" xmlns="http://www.w3.org/2000/svg"><path d="m17.6534616 6.1065169c.5185558-.29938834 1.1629206-.18348006 1.5479597.24452837l.0840764.10426444.0692369.10706192 5.1892429 8.98803227.3057098-2.8331244.0151705-.1590916c.1165973-.8359823.7947898-1.462673 1.5825192-1.4392349.7931321.0328448 1.4108527.7142644 1.4408882 1.5554011l-.0008841.1499943-.433261 7.2126758c-.1705082 2.0329139-1.1402406 4.0787606-4.0746302 5.7729312-3.4327494 1.9818988-5.7749602.9172757-7.1264488-.3238881l-.2001184-.1919541-.1845665-.1924173-.1690954-.1905584-.1537049-.1863769-.1383954-.1798733-.1790641-.2525352-.1450718-.2248387-5.6836498-9.8399652-.05809989-.1134919c-.25877162-.5757613-.04449011-1.2653629.51395462-1.5877811.51855577-.2993884 1.16292057-.1834801 1.54795967.2445283l.0840764.1042645.0692369.1070619 2.6984063 4.6737768.049124.0682071c.1280999.1444132.3443182.1840006.517967.0837444.1736488-.1002561.2474743-.3073004.1864588-.4904448l-.0345072-.0766462-3.9438246-6.8309045-.0580999-.1134918c-.2587716-.57576135-.0444901-1.26536296.5139547-1.58778117.5185558-.29938834 1.1629205-.18348006 1.5479596.24452837l.0840765.10426445.0692369.10706191 3.5286851 6.11186194.049124.0682072c.1280999.1444132.3443182.1840005.517967.0837444.1736488-.1002562.2474743-.3073005.1864587-.4904449l-.0345071-.0766461-3.9438246-6.83090455-.0580999-.11349186c-.2587716-.57576132-.0444901-1.26536293.5139547-1.58778114.5185558-.29938835 1.1629205-.18348006 1.5479596.24452837l.0840765.10426444.0692369.10706191 3.9438245 6.83090453.049124.0682072c.1280999.1444132.3443182.1840005.517967.0837443.1736488-.1002561.2474743-.3073004.1864588-.4904448l-.0345072-.0766462-3.1135457-5.39281929-.0580999-.11349187c-.2587716-.57576132-.0444901-1.26536293.5139546-1.58778114zm-12.38065925 10.8101168c.21001906.5529567.4655087 1.0912614.76561918 1.611068.29786347.5159147.63348692 1.0028769 1.0040319 1.4582878.20913799.2570368.1703083.6349462-.08672855.8440842s-.63494622.1703083-.84408421-.0867286c-.41077182-.5048508-.78265718-1.0444261-1.11244962-1.6156434-.33228187-.5755291-.61537813-1.1719996-.84819939-1.784992-.09412611-.2478236-.01327421-.5191523.18143869-.6780115l.0782352-.0540347.08819345-.0418972c.30977947-.1176576.65628571.0380879.77394335.3478674zm3.1862745.3401718c.22774652.3820889.4872758.7474183.77747655 1.0932661.28802815.3432586.60020392.6600966.9340968.9489819.2505947.2168155.2779782.5957263.0611628.846321-.2168155.2505947-.59572627.2779782-.84632097.0611627-.38209377-.3305889-.7391167-.6929438-1.06819197-1.0851205-.33155948-.3951372-.62837635-.8129549-.88900375-1.2502078-.13573024-.2277138-.1032224-.5089602.06094675-.6992176l.06766362-.0667991.07957822-.0565753c.28464219-.1696628.65292915-.0764536.82259195.2081886zm16.63234745-11.94358811c.4012242.49629173.7650011 1.02588892 1.0883168 1.58588806.3397384.58844424.6280521 1.19876843.8637805 1.82623982.1165369.3102028-.0404602.65614373-.350663.7726807-.3102028.11653696-.6561438-.04046022-.7726807-.35066302-.2126354-.56600138-.4728265-1.11679354-.7796673-1.6482575-.2920173-.50578878-.6203309-.98375749-.9822726-1.43145894-.2083298-.25769228-.1683137-.63547787.0893786-.84380772s.6354779-.16831368.8438077.0893786zm-3.2751745.53814007c.3736394.32533133.7231176.68115018 1.0457296 1.06562421.3390005.40400505.6416744.83171176.9064772 1.27964382.1686327.28525369.0740926.65320128-.2111448.82186208-.2852699.16860451-.6532175.07406448-.8218502-.21118921-.2313864-.39140598-.4960274-.76536853-.7927355-1.11897156-.2823756-.33652215-.5879641-.64765501-.9144802-.93195558-.2499126-.21760127-.2761062-.59659617-.0585049-.84650882.2176012-.24991264.5965961-.2761062.8465088-.05850494z" fill="#030104"/></svg>