<svg height="32" viewBox="0 0 32 32" width="32" xmlns="http://www.w3.org/2000/svg"><path d="m19.5986176 6.24264053 3.7499483 6.48557897.5358781-1.4975736c.3600784-1.0065666 1.394677-1.60567527 2.4469195-1.41694622 1.0539278.18903132 1.8007299 1.13530242 1.7396489 2.20430462l-.4435573 7.7628589c-.2143616 2.5583042-1.5495214 4.6278061-4.3736531 6.2583193-4.1827838 2.4149313-7.299064.9925573-9.1075325-1.9477162l-5.53230796-9.5891861c-.59478973-1.0310041-.24140727-2.3489616.78939742-2.944097l.13599829-.0722703c.22910234-.1115614.46970545-.1788628.71143055-.2046851l.0923344-.0070975-.2804014-.4842296c-.59513245-1.03079966-.24195439-2.34887812.7888453-2.9440106l.1359983-.07227028c.3207433-.15618594.664028-.2256223 1.001375-.21594007l.0672076.00349662-.0024338-.03799908c-.0298944-.77362806.3592608-1.53748992 1.0763389-1.95149513l.1359983-.07227028c.9164093-.44624556 2.0168308-.18433123 2.6370251.60776065l.0247328.03391778.0625832-.09107118c.1718705-.23571467.3946606-.44016522.6635649-.59541717l.1359994-.0722734c1.0080592-.49091049 2.2387866-.12532509 2.8086618.86031197zm-2.3446612.25119192c-.4242165.24492151-.5894831.76611348-.3997459 1.2050984l3.2141945 5.58000035c.4.6928203-.6392305 1.2928203-1.0392305.6l-3.9943423-6.91840376c-.2449215-.42421651-.7661134-.58948305-1.2050984-.39974586l-.0996817.05013107c-.4568486.26376163-.6133764.8479316-.3496148 1.30478015l3.9943423 6.9184037c.3809523.6598289-.651433 1.2558768-1.0228551.6125549l-3.5955783-6.21191603c-.2637616-.45684854-.8479316-.61337641-1.3047801-.34961478s-.6133764.8479316-.3496148 1.30478011l3.9933275 6.9166461c.3809524.6598289-.6514329 1.2558769-1.0323853.596048l-2.7547544-4.7555663c-.2637616-.4568486-.8479316-.6133764-1.3047801-.3496148-.45698965.2638431-.61365571.8481369-.34996587 1.305215l5.52365937 9.5746707c1.497555 2.4343249 3.9549525 3.555963 7.4767495 1.5226526 2.4866289-1.4356559 3.5966267-3.156156 3.7767296-5.3034642l.4424349-7.7469379c.0264546-.4629917-.2969902-.8728278-.7534531-.9546984-.4752617-.0852424-.9425542.1853543-1.1051892.6399857l-.9720121 2.7171723c-.1721299.4811737-.8285761.5406378-1.0843687.0982274l-4.3981831-7.60695037c-.2641968-.45694594-.8486938-.61336673-1.3058039-.34945408zm-12.16739234 10.06825265c.21001905.5529568.4655087 1.0912615.76561918 1.6110681.29786347.5159146.63348692 1.0028768 1.0040319 1.4582877.20913799.2570369.1703083.6349462-.08672855.8440842s-.63494622.1703083-.84408421-.0867285c-.41077182-.5048509-.78265718-1.0444262-1.11244962-1.6156434-.33228187-.5755291-.61537813-1.1719996-.84819939-1.784992-.09412611-.2478236-.01327421-.5191523.18143868-.6780116l.0782352-.0540346.08819346-.0418972c.30977947-.1176576.65628571.0380879.77394335.3478673zm3.1862745.3401719c.22774652.3820888.4872758.7474183.77747655 1.0932661.28802815.3432586.60020392.6600965.93409682.9489819.25059467.2168154.27797817.5957262.06116277.8463209-.21681548.2505947-.59572626.2779782-.84632096.0611628-.38209377-.330589-.73911671-.6929439-1.06819197-1.0851205-.33155948-.3951372-.62837635-.812955-.88900375-1.2502079-.13573024-.2277137-.1032224-.5089601.06094675-.6992175l.06766361-.0667991.07957823-.0565753c.28464219-.1696628.65292915-.0764536.82259195.2081886zm16.63234744-11.94358815c.4012242.49629173.7650011 1.02588891 1.0883168 1.58588806.3397384.58844423.6280521 1.19876843.8637805 1.82623982.1165369.3102028-.0404602.65614373-.350663.77268069s-.6561438-.04046022-.7726807-.35066301c-.2126354-.56600138-.4728264-1.11679355-.7796673-1.6482575-.2920173-.50578879-.6203309-.98375749-.9822726-1.43145894-.2083298-.25769229-.1683137-.63547787.0893786-.84380772s.6354779-.16831369.8438077.0893786zm-3.2751745.53814007c.3736394.32533132.7231176.68115017 1.0457296 1.06562421.3390005.40400504.6416744.83171176.9064772 1.27964382.1686327.28525369.0740926.65320127-.2111448.82186208-.2852699.1686045-.6532175.07406448-.8218502-.21118921-.2313864-.39140599-.4960273-.76536853-.7927355-1.11897156-.2823756-.33652215-.5879641-.64765501-.9144802-.93195559-.2499126-.21760126-.2761062-.59659617-.0585049-.84650881.2176012-.24991265.5965961-.2761062.8465088-.05850494z"/></svg>