<svg height="32" viewBox="0 0 32 32" width="32" xmlns="http://www.w3.org/2000/svg"><path d="m25.24 18.772775h-4.158c.15015-.84315.231-1.7787.231-2.772 0-.95865-.0693-1.88265-.1848-2.772h4.16955c.26565.8778.40425 1.81335.40425 2.772s-.1386 1.8942-.40425 2.772zm-.47355-6.93h-3.89235c-.2541-1.1088-.61215-2.1483-1.07415-3.0723-.4158-.8316-.91245-1.5708-1.46685-2.1945 2.8413.7161 5.1975 2.66805 6.43335 5.2668zm-8.76645 13.7445c-1.02795-.7161-2.5179-2.6565-3.33795-5.4285h6.66435c-.8085 2.772-2.29845 4.7124-3.3264 5.4285zm-3.6729-6.8145c-.1617-.86625-.2541-1.79025-.2541-2.772 0-1.00485.0693-1.92885.19635-2.772h7.44975c.12705.84315.19635 1.76715.19635 2.772 0 .98175-.0924 1.90575-.2541 2.772zm3.6729-12.37005c1.32825.8085 2.73735 2.5872 3.45345 5.44005h-6.89535c.70455-2.85285 2.11365-4.6431 3.4419-5.44005zm-2.3331.1848c-.5544.6237-1.05105 1.3629-1.46685 2.1945-.462.924-.82005 1.95195-1.07415 3.0723h-3.89235c1.23585-2.6103 3.59205-4.56225 6.43335-5.2668zm-6.96465 12.18525c-.26565-.8778-.40425-1.81335-.40425-2.772s.1386-1.8942.40425-2.772h4.16955c-.12705.88935-.1848 1.81335-.1848 2.772 0 .9933.0924 1.92885.231 2.772zm.5313 1.386h3.98475c.35805 1.32825.8316 2.41395 1.25895 3.22245.4158.77385.9009 1.48995 1.39755 2.09055-2.9337-.65835-5.37075-2.6565-6.64125-5.313zm10.8801 5.313c.49665-.6006.98175-1.30515 1.39755-2.09055.42735-.8085.91245-1.8942 1.25895-3.22245h3.98475c-1.25895 2.6565-3.696 4.65465-6.64125 5.313z"/></svg>