<svg height="32" viewBox="0 0 32 32" width="32" xmlns="http://www.w3.org/2000/svg"><path d="m22.6192136 16.7068042c-.3626757 4.9617929-4.5123875 8.8931958-9.5742578 8.8931958-5.30000002 0-9.60000002-4.31-9.60000002-9.6s4.31-9.6 9.60000002-9.6c5.0411486 0 9.1775916 3.8992809 9.5696136 8.8323117l1.1985338.0006249.0044975-1.6529362c.0003196-.1231341.0305775-.2437007.0873783-.3515979l.0655227-.1032999c.2293827-.3043072.6435458-.387188.968446-.2101698l.0945181.0609409 3.2194005 2.426742c.0572446.0431503.1080876.0941927.1510134.1516059.2281893.3052031.1921774.7260397-.0684901.9886193l-.0849003.0737523-3.23197 2.4164269c-.1317558.098509-.2919507.1515434-.4564604.15118-.3842508-.0010608-.7010694-.2874237-.7503662-.6580214l-.0066614-.1030094.0036719-1.716371zm-6.6942578 2.8931958h-5.77c.71 2.4 2 4.08 2.89 4.7.8513043-.5930435 2.0685822-2.1559168 2.7854311-4.3910676zm-7.02000002 0h-3.45c1.1 2.3 3.21 4.03 5.75000002 4.6-.43-.52-.85-1.14-1.21000002-1.81-.32888888-.6222222-.68938271-1.4340741-.983155-2.4144856zm11.72000002 0h-3.45c-.3 1.15-.72 2.09-1.09 2.79-.36.68-.78 1.29-1.21 1.81 2.4519231-.5480769 4.4970414-2.1686391 5.6197371-4.3371785zm-2.9961268-2.8925654c-.0206997.4487112-.0610537.8803535-.1194806 1.2901828l-.0643926.4023826h3.65c.1641913-.5425452.2723246-1.1105712.320762-1.693164zm-1.3638732-3.1074346h-6.45000002c-.11.73-.17 1.53-.17 2.4 0 .7083333.05555556 1.3819444.1550926 2.0208333l.0649074.3791667h6.35000002c.1005085-.5384383.1700926-1.1026468.201352-1.6926256l-3.366352-.0004578c-.3730739.0000055-.6814005-.277223-.7302021-.6369135l-.0067287-.1000064c0-.4069974.3299334-.7369357.7369308-.7369417l3.3689266-.0005302c-.0184729-.4337564-.0525918-.8482939-.1009179-1.2436125zm-7.66000002 0h-3.61c-.23.76-.35 1.57-.35 2.4 0 .7114286.08816327 1.4081633.25819242 2.071312l.09180758.328688h3.65c-.12-.73-.2-1.54-.2-2.4 0-.664.032-1.3088.10112-1.9344zm12.49000002 0h-3.61c.0688296.5299877.1187091 1.0741879.143117 1.6326006l3.7823276-.0006903c-.0406201-.4489262-.1167362-.8889441-.226675-1.3150334zm-10.07-5.75c-2.36160002.5856-4.33612802 2.166528-5.43697922 4.2915686l-.1330208.2684314h3.37c.22-.97.53-1.86.93-2.66.36000002-.72.79000002-1.36 1.27000002-1.9zm4.04-.01c.48.54.91 1.18 1.27 1.9.3428571.6857143.6195918 1.444898.8302041 2.2523615l.0997959.4076385h3.37c-1.07-2.25-3.11-3.94-5.57-4.56zm-2.02-.15c-1.1.66-2.2640454 2.1068431-2.8970313 4.3930385l-.0829687.3169615h5.97c-.62-2.47-1.84-4.01-2.99-4.71z"/></svg>