<svg height="32" viewBox="0 0 32 32" width="32" xmlns="http://www.w3.org/2000/svg"><path d="m16.4733558 20.158775c-.8085 2.772-2.29845 4.7124-3.3264 5.4285-1.02795-.7161-2.5179-2.6565-3.33795002-5.4285zm-8.10810002 0c.35805 1.32825.8316 2.41395 1.25895 3.22245.41580002.77385.90090002 1.48995 1.39755002 2.09055-2.93370002-.65835-5.37075002-2.6565-6.64125002-5.313zm13.53660002 0c-1.25895 2.6565-3.696 4.65465-6.64125 5.313.49665-.6006.98175-1.30515 1.39755-2.09055.42735-.8085.91245-1.8942 1.25895-3.22245zm3.0370919-7.2438422.0945181.0609409 3.2194005 2.426742c.0572446.0431503.1080876.0941927.1510134.1516059.2281893.3052031.1921774.7260397-.0684901.9886193l-.0849003.0737523-3.23197 2.4164269c-.1317558.098509-.2919507.1515434-.4564604.1511873-.3842508-.0010681-.7010694-.287431-.7503662-.6580287l-.0066614-.1030094.0036719-1.716371-.9850144.0006099c-.0510754.7113204-.1790445 1.4047003-.378983 2.0653668h-4.21575c.1139392-.6398124.1879732-1.3328316.2170552-2.0639169l3.0165822-.0020504c.3733622-.0000048.6821668-.2769877.731847-.6368785l.0069783-.1000617c-.0000025-.3738577-.2765299-.6815327-.6353013-.7302116l-.0997399-.0067098-3.0211208-.0010496c-.0260878-.686173-.0857837-1.3538802-.1701007-2.0031215h4.16955c.1942367.6418256.3205503 1.3145254.3744258 2.0045546l.9939716-.000393.0044975-1.6529362c.0003196-.1231341.0305775-.2437007.0873783-.3515979l.0655227-.1032999c.2293827-.3043072.6435458-.387188.968446-.2101698zm-8.0728919.3138422c.0939256.6233246.1562888 1.2908366.1824228 2.0025361l-4.1016791.0017439c-.318205.0000054-.5816361.2726822-.6269028.6280429l-.0068717.1088988.0057868.1000064c.0377732.3237214.2563357.5806442.5335705.6287916l.0944172.0081219 4.0994781.0013193c-.0330227.7212124-.1156777 1.409392-.2379718 2.0645391h-7.33425002c-.1617-.86625-.2541-1.79025-.2541-2.772 0-1.00485.0693-1.92885.19635-2.772zm-8.84730002 0c-.12705.88935-.1848 1.81335-.1848 2.772 0 .9933.0924 1.92885.231 2.772h-4.21575c-.26565-.8778-.40425-1.81335-.40425-2.772s.1386-1.8942.40425-2.772zm2.79510002-6.64125c-.5544.6237-1.05105002 1.3629-1.46685002 2.1945-.462.924-.82005 1.95195-1.07415 3.0723h-3.89235c1.23585-2.6103 3.59205-4.56225 6.43335002-5.2668zm4.6662-.01155c2.8413.7161 5.1975 2.66805 6.43335 5.2668h-3.89235c-.2541-1.1088-.61215-2.1483-1.07415-3.0723-.4158-.8316-.91245-1.5708-1.46685-2.1945zm-2.3331-.17325c1.32825.8085 2.73735 2.5872 3.45345 5.44005h-6.89535002c.70455002-2.85285 2.11365002-4.6431 3.44190002-5.44005z"/></svg>