<svg height="32" viewBox="0 0 32 32" width="32" xmlns="http://www.w3.org/2000/svg"><g fill="none" fill-rule="evenodd"><path d="m21.7061592 12.2906674c-1.4021468-3.37620214-4.5782867-5.61840847-8.1892609-5.83606264-.0641087-.00632623-.1344601-.00632623-.2050517-.01289269h-.0256914c-.0380971 0-.0765943-.00624614-.1150115-.00624614h-.0193686c-.0703515 0-.1407029-.00656647-.2176173-.00656647-1.2487182 0-2.465182.24335947-3.62410011.72383225-2.34328753.96751203-4.16818332 2.79338869-5.1351756 5.13793569-.97323507 2.3447873-.97323507 4.9263676 0 7.2649087 1.47289844 3.561985 4.91755832 5.8680141 8.77208141 5.8680141.051303 0 .0959629 0 .1472659-.0063262.0256114 0 .0575457.0063262.0831571.0063262.0128058 0 .0256115 0 .0321744-.0063262.0575457 0 .1088487-.0065665.1663144-.0065665h.0641086c.0190485 0 .0319343 0 .051303-.0062461 1.0563922-.0575767 2.0937359-.2946099 3.0860195-.7047735 2.3436077-.9671917 4.1684234-2.7929883 5.1351756-5.1378557.9669923-2.3447872.9732351-4.9263675 0-7.2645883-.0063228 0-.0063228 0-.0063228-.0065665z" fill="#349c6a"/><path d="m12.9473991 6.43109677h-.4102988v18.99511333h.4102988c5.2326161 0 9.4975567-4.2649405 9.4975567-9.4975566 0-5.2326162-4.2649406-9.49755673-9.4975567-9.49755673z" fill="#007c20"/><path d="m9.63020081 8.40212111c-.70407475.91618152-1.26776674 2.11392009-1.63889264 3.50440829h-2.2219533c.86446645-1.5506458 2.20914757-2.77400958 3.86084594-3.50440829zm-4.43702351 4.77910259h2.52272775c-.14726583.864851-.22418022 1.7873588-.22418022 2.7545505 0 .9546994.08315718 1.8836936.24322874 2.7548708h-2.54177627c-.64028623-1.7939252-.64028623-3.7220625 0-5.5094213zm.57617757 6.771303h2.26013036c.3970575 1.4161134.99884652 2.6394772 1.73509565 3.5747976-1.67730982-.7047735-3.09226235-1.9475164-3.99522601-3.5747976zm6.76774543 4.1130873c-1.3253125-.3909447-2.5032791-1.9797081-3.17581971-4.1130873h3.17581971zm0-5.3815355h-3.50220561c-.17944022-.8711772-.27540312-1.799851-.27540312-2.7545504 0-.9671918.08972011-1.896266.24322873-2.7546306h3.53438zm0-6.7713029h-3.23336543c.64660905-2.20376852 1.82489583-3.76058042 3.23336543-4.11941351z" fill="#42c787"/><path d="m20.1117664 11.9065294h-1.7607871c-.3264659-1.2237641-.7937948-2.29353679-1.3831783-3.15222174 1.2999411.73039871 2.3948306 1.81306404 3.1439654 3.15222174zm-6.3068994-4.11941345c1.4087098.36507923 2.5805136 1.92189113 3.2336056 4.11941345h-3.2336056zm0 5.39410775h3.53438c.1600716.8582846.2435489 1.7811126.2435489 2.7545505 0 .9546994-.096283 1.8836936-.2754831 2.7548708h-3.5024458zm0 10.8843903v-4.1130873h3.1757397c-.6721405 2.1333792-1.8501871 3.7221426-3.1757397 4.1130873zm3.0351168-.8905564c.6208376-.8777436 1.1267437-1.9793877 1.4790612-3.2225309h1.7927214c-.7619406 1.3710291-1.8886843 2.4793196-3.2717826 3.2225309zm3.8479602-4.4909791h-2.0809302c.1600715-.8711772.2435488-1.7936049.2435488-2.7545504 0-.9671918-.0769143-1.8900198-.2241802-2.7546306h2.0615616c.6402862 1.793685.6402862 3.7218223 0 5.509181z" fill="#009f27"/><path d="m24.9389477 12.9149328.0945181.0609409 3.2194005 2.426742c.0572446.0431503.1080876.0941927.1510134.1516059.2281893.3052031.1921774.7260397-.0684901.9886193l-.0849003.0737523-3.23197 2.4164269c-.1317558.098509-.2919507.1515434-.4564604.1511453-.3842508-.0010261-.7010694-.287389-.7503662-.6579867l-.0066614-.1030094.0036719-1.716371-7.9182138.0001183c-.3730739.0000055-.6814005-.277223-.7302021-.6369135l-.0067287-.1000064c0-.4069974.3299334-.7369357.7369308-.7369417l7.9226138-.0001184.0044975-1.6529362c.0003196-.1231341.0305775-.2437007.0873783-.3515979l.0655227-.1032999c.2293827-.3043072.6435458-.387188.968446-.2101698z" fill="#00b1dd" fill-rule="nonzero"/><path d="m22.4196147 15.2320906c.0167955.2300516.0253411.4623377.0253411.6965629 0 .2618343-.010679.5212456-.0316237.7778209l-6.5228427.0004422c-.3730739.0000055-.6814005-.277223-.7302021-.6369135l-.0067287-.1000064c0-.4069974.3299334-.7369357.7369308-.7369417z" fill="#005a7d"/></g></svg>