<svg height="32" viewBox="0 0 32 32" width="32" xmlns="http://www.w3.org/2000/svg"><g fill="none" fill-rule="evenodd"><path d="m25.9165307 11.8016235c-1.5906903-3.83019246-5.1939185-6.37390318-9.2904522-6.62082481-.0727292-.0071769-.1525407-.0071769-.2326245-.01462634h-.0291462c-.0432198 0-.0868937-.00708605-.1304767-.00708605h-.0219731c-.0798115 0-.1596229-.00744944-.2468798-.00744944-1.4166306 0-2.7966695.27608346-4.1114246.82116433-2.65838412 1.09761118-4.7286695 3.16900932-5.82569104 5.82882231-1.10410378 2.6600854-1.10410378 5.5888049 0 8.2418044 1.67095575 4.040957 5.57881124 6.6570726 9.95164334 6.6570726.0582015 0 .1088668 0 .1670683-.0071769.0290553 0 .0652838.0071769.0943391.0071769.0145277 0 .0290554 0 .0365008-.0071769.0652838 0 .1234853-.0074494.1886783-.0074494h.0727292c.0216099 0 .0362284 0 .0582015-.0070861 1.1984429-.0653188 2.3752759-.3342254 3.5009896-.7995428 2.6587473-1.0972478 4.7289419-3.1685551 5.825691-5.8287314 1.0970215-2.6600855 1.1041038-5.588805 0-8.241441-.007173 0-.007173 0-.007173-.0074494z" fill="#349c6a"/><path d="m15.98 5.15412963h-.4654707v21.54934307h.4654707c5.9362341 0 10.7746716-4.8384374 10.7746716-10.7746715 0-5.93623415-4.8384375-10.77467157-10.7746716-10.77467157z" fill="#007c20"/><path d="m12.2167456 7.39019314c-.7987501 1.03937837-1.4382405 2.39817413-1.8592708 3.97563816h-2.52073432c.98070929-1.75915766 2.50620662-3.14702439 4.38000512-3.97563816zm-5.03365998 5.42173766h2.86195318c-.1670683.9811456-.25432518 2.0277009-.25432518 3.1249487 0 1.0830756.09433913 2.1369895.27593518 3.125312h-2.88356318c-.72638407-2.0351503-.72638407-4.2225598 0-6.2502607zm.65365486 7.6818247h2.56404492c.450449 1.606535 1.1331592 2.9944018 1.9684101 4.0554925-1.9028539-.7995428-3.50807189-2.2093944-4.53245502-4.0554925zm7.67778882 4.6661648c-1.5035243-.4435142-2.8398893-2.2459149-3.602865-4.6661648h3.602865zm0-6.1051783h-3.9731393c-.2035691-.9883224-.3124359-2.0418729-.3124359-3.1249486 0-1.0972478.1017845-2.1512525.2759351-3.1250395h4.0096401zm0-7.6818247h-3.6681488c.7335571-2.5001042 2.0702854-4.26625706 3.6681488-4.67334162z" fill="#42c787"/><path d="m24.1077435 11.3658313h-1.9975561c-.3703651-1.38832097-.9005347-2.60194353-1.5691712-3.57609388 1.4747412.82861376 2.716858 2.05686265 3.5667273 3.57609388zm-7.1549738-4.67334167c1.5981357.41417061 2.9275094 2.18032347 3.6684211 4.67334167h-3.6684211zm0 6.11944117h4.00964c.1815961.9736962.2762984 2.0206148.2762984 3.1249487 0 1.0830756-.10923 2.1369895-.3125268 3.125312h-3.9734116zm0 12.3479895v-4.6661648h3.6027742c-.7625217 2.4202499-2.0989776 4.2226506-3.6027742 4.6661648zm3.4432421-1.0103074c.7043201-.9957719 1.2782543-2.2455515 1.6779472-3.6558574h2.0337845c-.864397 1.5553883-2.1426514 2.8127081-3.7117317 3.6558574zm4.3653866-5.0948709h-2.3607482c.181596-.9883224.2762983-2.0347869.2762983-3.1249486 0-1.0972478-.0872569-2.1441664-.2543252-3.1250395h2.3387751c.7263841 2.0348778.7263841 4.2222873 0 6.2499881z" fill="#009f27"/></g></svg>