<svg height="32" viewBox="0 0 32 32" width="32" xmlns="http://www.w3.org/2000/svg"><path d="m25.6 16c0-5.29-4.3-9.6-9.6-9.6-5.29 0-9.6 4.31-9.6 9.6s4.3 9.6 9.6 9.6 9.6-4.31 9.6-9.6zm-1.6 2.4h-3.6c.13-.73.2-1.54.2-2.4 0-.83-.06-1.63-.16-2.4h3.61c.23.76.35 1.57.35 2.4s-.12 1.64-.35 2.4zm-.41-6h-3.37c-.22-.96-.53-1.86-.93-2.66-.36-.72-.79-1.36-1.27-1.9 2.46.62 4.5 2.31 5.57 4.56zm-7.59 11.9c-.89-.62-2.18-2.3-2.89-4.7h5.77c-.7 2.4-1.99 4.08-2.88 4.7zm-3.18-5.9c-.14-.75-.22-1.55-.22-2.4 0-.87.06-1.67.17-2.4h6.45c.11.73.17 1.53.17 2.4 0 .85-.08 1.65-.22 2.4zm3.18-10.71c1.15.7 2.37 2.24 2.99 4.71h-5.97c.61-2.47 1.83-4.02 2.98-4.71zm-2.02.16c-.48.54-.91 1.18-1.27 1.9-.4.8-.71 1.69-.93 2.66h-3.37c1.07-2.26 3.11-3.95 5.57-4.56zm-6.03 10.55c-.23-.76-.35-1.57-.35-2.4s.12-1.64.35-2.4h3.61c-.11.77-.16 1.57-.16 2.4 0 .86.08 1.67.2 2.4zm.46 1.2h3.45c.31 1.15.72 2.09 1.09 2.79.36.67.78 1.29 1.21 1.81-2.54-.57-4.65-2.3-5.75-4.6zm9.42 4.6c.43-.52.85-1.13 1.21-1.81.37-.7.79-1.64 1.09-2.79h3.45c-1.09 2.3-3.2 4.03-5.75 4.6z"/></svg>