<svg height="32" viewBox="0 0 32 32" width="32" xmlns="http://www.w3.org/2000/svg"><path d="m24.8701347 4.38586527c1.5154694 0 2.744 1.22853065 2.744 2.744v17.74026943c0 1.5154694-1.2285306 2.744-2.744 2.744h-17.74026943c-1.51546935 0-2.744-1.2285306-2.744-2.744v-17.74026943c0-1.51546935 1.22853065-2.744 2.744-2.744zm0 1.176h-17.74026943c-.86598249 0-1.568.70201751-1.568 1.568v17.74026943c0 .8659825.70201751 1.568 1.568 1.568h17.74026943c.8659825 0 1.568-.7020175 1.568-1.568v-17.74026943c0-.86598249-.7020175-1.568-1.568-1.568zm-9.1342751 2.01214413c2.6381914 0 5.1679855.76249901 7.3534466 2.21510844.5631993.37434146.6954076 1.14540876.2890814 1.68598636l-2.8797213 3.8311905c-.364173.4844969-1.0369278.6128575-1.5539058.2964829-.7967287-.4875733-1.6833038-.7827609-2.6152446-.8709008-.201299-.0190382-.5936563-.043077-1.1873125 0-.5936563.0430769-1.818516.3833275-2.6152446.8709008-.5169781.3163746-1.1897329.188014-1.5539059-.2964829l-2.87972131-3.8311905c-.40632612-.5405776-.27411789-1.3116449.28908145-1.68598636 2.18546106-1.45260943 4.71525526-2.21510844 7.35344656-2.21510844zm0 1.176c-2.4095814 0-4.7124046.69576297-6.70247388 2.0185014l2.87972138 3.8311905c.9501851-.581484 2.0089628-.9336761 3.1183682-1.0386v-2.1469048c0-.3890623.315322-.7043844.7043843-.7043844s.7043844.3153221.7043844.7043844v2.1469048c1.1094053.1049239 2.168183.457116 3.1183682 1.0386l2.8797213-3.8311905c-1.9900692-1.32273843-4.2928924-2.0185014-6.7024739-2.0185014z"/></svg>