<svg height="32" viewBox="0 0 32 32" width="32" xmlns="http://www.w3.org/2000/svg"><path d="m25.0511579 4.74884211c1.2150264 0 2.2.98497356 2.2 2.2v18.10231579c0 1.2150264-.9849736 2.2-2.2 2.2h-18.10231579c-1.21502644 0-2.2-.9849736-2.2-2.2v-18.10231579c0-1.21502644.98497356-2.2 2.2-2.2zm-9.3206889 3.33631389c-2.6362622 0-5.1557228.76121667-7.33300725 2.2083914l3.15063035 4.1916086c1.0395735-.6361869 2.1979554-1.0215114 3.4117278-1.136306v-2.3488743c0-.4256632.3449859-.7706491.7706491-.7706491s.7706491.3449859.7706491.7706491v2.3488743c1.2137724.1147946 2.3721543.5001191 3.4117278 1.136306l3.1506304-4.1916086c-2.1772845-1.44717473-4.6967451-2.2083914-7.3330073-2.2083914z" fill-rule="evenodd"/></svg>