<svg height="32" viewBox="0 0 32 32" width="32" xmlns="http://www.w3.org/2000/svg"><g fill="none" fill-rule="evenodd"><path d="m25.0511579 4.74884211c1.2150264 0 2.2.98497356 2.2 2.2v18.10231579c0 1.2150264-.9849736 2.2-2.2 2.2h-18.10231579c-1.21502644 0-2.2-.9849736-2.2-2.2v-18.10231579c0-1.21502644.98497356-2.2 2.2-2.2z" fill="#74a2ab"/><path d="m25.0511579 4.74884211c1.2150264 0 2.2.98497356 2.2 2.2v18.10231579c0 1.2150264-.9849736 2.2-2.2 2.2h-13.0511579l7-22.50231579z" fill="#43808c"/><path d="m15.730469 7.085156c-2.8299812 0-5.5425596.81759158-7.88655545 2.37557421-.47891101.31831756-.59133297.97398709-.24581756 1.43366189l3.15063031 4.1916086c.1888969.2513091.4849802.3991553.7993658.3991553h8.3647538c.3143856 0 .6104689-.1478462.7993658-.3991553l3.1506303-4.1916086c.3455154-.4596748.2330935-1.11534433-.2458175-1.43366189-2.3439959-1.55798263-5.0565743-2.37557421-7.8865555-2.37557421z" fill="#345c64" fill-rule="nonzero"/><path d="m18.2070762 7.298223c1.9275333.3360589 3.7600483 1.06586895 5.4099483 2.16250721.478911.31831756.5913329.97398709.2458175 1.43366189l-3.1506303 4.1916086c-.1888969.2513091-.4849802.3991553-.7993658.3991553l-4.2524796-.000933z" fill="#1b3d44" fill-rule="nonzero"/><path d="m15.730469 8.085156c2.6362622 0 5.1557228.76121667 7.3330073 2.2083914l-3.1442828 4.1830674c-1.2445735-.8236432-2.6834168-1.2568037-4.1887245-1.2568037-1.4026095 0-2.7475142.3760727-3.9313228 1.093693l-.2576845.1626519-3.14399995-4.1826086c2.17728445-1.44717473 4.69674505-2.2083914 7.33300725-2.2083914z" fill="#fff"/><path d="m15.730469 10.2293266.7706491.7706491.0006154 2.2581696c-.254681-.0254834-.5119868-.0383342-.7712645-.0383342-.2593517 0-.5167305.0128581-.7714827.038356l.0008336-2.2581914z" fill="#bb3600"/></g></svg>