<svg height="32" viewBox="0 0 32 32" width="32" xmlns="http://www.w3.org/2000/svg"><path d="m16.0005251 22.3333c.6247208 0 1.13335.5086292 1.13335 1.13335s-.5086292 1.13335-1.13335 1.13335c-.6247209 0-1.13335-.5086292-1.13335-1.13335s.5086291-1.13335 1.13335-1.13335zm4.1056725-2.7969121c.2560458.2103501.2930896.5884387.0827395.8444846-.21035.2560459-.5884386.2930896-.8444845.0827396-1.8703457-1.5365502-4.8153147-1.5365502-6.6857105.0000044-.2560483.2103471-.6341365.1732989-.8444836-.0827495-.210347-.2560483-.1732988-.6341365.0827495-.8444835 2.3131042-1.9002454 5.8961352-1.9002454 8.2091896.0000044zm-4.1056725-6.8030879c2.9516882 0 5.7832857 1.1072498 7.9726846 3.1169325.2441195.2240811.2603639.6036326.0362828.8477521-.224081.2441195-.6036325.2603639-.847752.0362829-1.9684665-1.8068856-4.510657-2.8009675-7.1612154-2.8009675-2.6505116 0-5.1927173.9941003-7.1612212 2.8009728-.24412243.2240778-.62367374.2078285-.84775158-.036294-.22407785-.2441224-.2078285-.6236737.03629394-.8477516 2.18943154-2.00966 5.02103814-3.1169272 7.97267884-3.1169272zm0-5.3333c4.3907463 0 8.5750998 1.68052259 11.7789848 4.7296165.2400414.2284442.2494428.6082268.0209987.8482683-.2284442.2400414-.6082269.2494429-.8482683.0209987-2.9812764-2.8372404-6.8696305-4.3988835-10.9517152-4.3988835-4.0842151 0-7.97296353 1.5563048-10.9534754 4.3835582-.24041411.228052-.62018089.2180305-.84823286-.0223836s-.21803048-.6201809.02238362-.8482328c3.2030991-3.03839526 7.38729904-4.7129418 11.77932464-4.7129418z"/></svg>