<svg height="32" viewBox="0 0 32 32" width="32" xmlns="http://www.w3.org/2000/svg"><path d="m16.0005251 22.1333c.7351778 0 1.33335.5981722 1.33335 1.33335s-.5981722 1.33335-1.33335 1.33335-1.33335-.5981722-1.33335-1.33335.5981722-1.33335 1.33335-1.33335zm-4.2304727-2.7514554c2.3868897-1.9608612 6.0762644-1.9608598 8.4631027.000006.3413945.2804667.3907862.7845849.1103194 1.1259794-.2804667.3413945-.7845849.3907862-1.1259794.1103194-1.7965617-1.4759342-4.635187-1.4759329-6.4317973.000006-.3413978.2804627-.8455153.2310651-1.1259781-.1103327-.2804627-.3413978-.2310651-.8455153.1103327-1.1259781zm4.2304727-6.8485446c3.0016532 0 5.8815428 1.125959 8.1079295 3.1695934.3254926.2987747.3471518.8048434.0483771 1.1303361-.2987747.3254926-.8048434.3471518-1.1303361.0483771-1.9314757-1.7729311-4.4253732-2.7483066-7.0259705-2.7483066-2.6005401 0-5.0944566.9753869-7.02597823 2.7483137-.32549658.2987704-.83156499.2771046-1.13033545-.0483919-.29877045-.3254966-.27710465-.831565.04839192-1.1303355 2.22642916-2.0436198 5.10633056-3.1695863 8.10792176-3.1695863zm0-5.3333c4.4418377 0 8.6756196 1.70009121 11.9168631 4.7847387.3200552.3045922.3325905.8109691.0279982 1.1310244-.3045922.3200552-.8109691.3325905-1.1310243.0279982-2.9440694-2.8018309-6.7830513-4.3437613-10.813837-4.3437613-4.0328809 0-7.87239613 1.5365753-10.81583384 4.328661-.32055213.3040693-.82690785.2907073-1.13097714-.0298448-.30406929-.3205522-.29070731-.8269079.02984483-1.1309772 3.24049374-3.07386702 7.47404565-4.767839 11.91696615-4.767839z" fill="#ec4800"/></svg>