<svg height="32" viewBox="0 0 32 32" width="32" xmlns="http://www.w3.org/2000/svg"><path d="m25.0511579 4.74884211c1.2150264 0 2.2.98497356 2.2 2.2v18.10231579c0 1.2150264-.9849736 2.2-2.2 2.2h-18.10231579c-1.21502644 0-2.2-.9849736-2.2-2.2v-18.10231579c0-1.21502644.98497356-2.2 2.2-2.2zm-9.0507798 15.56209419c-.5879649 0-1.0661838.4782189-1.0661838 1.0661838 0 .587965.4782189 1.0661839 1.0661838 1.0661839.587965 0 1.0661839-.4782189 1.0661839-1.0661839 0-.5879649-.4782189-1.0661838-1.0661839-1.0661838zm3.1154036-1.9573725c-1.7579802-1.4442382-4.4712354-1.4442393-6.2292526-.000005-.2910805.2391263-.3331976.6689439-.0940712.9600243.2391264.2910805.668944.3331976.9600244.0940712 1.2547371-1.030783 3.2426317-1.0307839 4.4973338-.0000051.2910776.2391298.7208957.1970178.9600255-.0940599.2391298-.2910776.1970178-.7208957-.0940599-.9600255zm-3.1154036-4.9560831c-2.1881907 0-4.2877135.8208587-5.9105913 2.3104841-.27752281.2547357-.29599537.6862166-.0412596.9637395.2547358.2775228.6862167.2959954.9637395.0412596 1.3714804-1.2588699 3.1419226-1.9513013 4.9881114-1.9513013 1.8462298 0 3.6166579.6924231 4.9881049 1.9512953.2775195.2547394.7090006.2362724.96374-.0412471s.2362725-.7090006-.041247-.96374c-1.6228475-1.4896366-3.7223623-2.3104901-5.9105979-2.3104901zm0-3.84078469c-3.226756 0-6.30164677 1.23035669-8.65495167 3.46265429-.27330715.2592536-.28469976.6909794-.02544611.9642866.25925365.2733071.69097948.2846997.96428663.0254461 2.10006505-1.9920794 4.83900745-3.088205 7.71611115-3.088205 2.8755186 0 5.6140288 1.0999249 7.7145477 3.0989603.2728835.2596996.7046274.2490118.9643269-.0238717s.2490118-.7046273-.0238717-.9643268c-2.3538464-2.2401238-5.4289511-3.47494379-8.6550029-3.47494379z" fill-rule="evenodd"/></svg>