<svg height="32" viewBox="0 0 32 32" width="32" xmlns="http://www.w3.org/2000/svg"><path d="m17.4960735 4.10001733c.3300991 0 .5985577.26596284.6016409.5960475l.0022856.24470413-.0001795 1.44824837 5.573 1.098.0001863-1.26179066c0-.33137085.2686292-.6.6-.6.3279246 0 .5946149.26421088.5976777.59212119l.0023223.24863045-.0001863 1.25703902 1.782.351756c.2488889.05333333.4345679.24888889.4657339.49536351l.0042661.09463649v13.66999997c0 .2577778-.1580246.4760494-.3897942.5635117l-.0902058.0264883-12.38 2.44c-.04.01-.08.01-.12.01-.14 0-.27-.05-.38-.14-.112-.088-.1856-.2144-.21056-.3536l-.00944-.1064v-2l-3.91999996.77c-.04.01-.08.01-.12.01-.14 0-.27-.05-.38-.14-.112-.088-.1856-.2144-.21056-.3536l-.00944-.1064v-2.24l-3.31.65c-.18.03-.36-.02-.5-.13-.112-.088-.1856-.2144-.21056-.3536l-.00944-.1064v-11.12999997c0-.18.08-.35.22-.46.112-.096.2496-.1408.39232-.13952l.10768.00952 3.31.65v-1.66c0-.18.08-.35.22-.46.112-.096.2496-.1408.39232-.13952l.10768.00952 3.91999996.77v-2c0-.18.08-.35.22-.46.112-.096.2496-.1408.39232-.13952l.10768.00952 2.635.518244.0001795-1.4569265c0-.32920231.2668712-.5960735.5960735-.5960735zm-2.741253 2.854756v17.07999997l11.18-2.21v-12.65999997l-1.062-.210756.0001863.55914454c0 .32920231-.2668712.59607353-.5960735.59607353-.330099 0-.5985577-.26596287-.6016408-.59604753l-.002472-.79617054-5.573-1.102.0001795 1.07356155c0 .32920231-.2668712.59607351-.5960735.59607351-.3300991 0-.5985577-.26596285-.6016409-.59604751l-.0022856-.24470412-.0001795-1.06588343zm-4.64 1.81v13.44999997l3.44-.67v-12.09999997zm6.9027095 10.57957597.0875213.0072317c.3408016.0569683.5963649.4447315.6386735.957347l.0061552.1427449-.0047139.1426749c-.0398195.5647834-.3265733 1.0509216-.6935005 1.1829688l-.0933056.0254755-.089912.0093606c-.3845695.0079347-.6983698-.4018643-.7412363-.9786748l-.0049917-.1359607.0049661-.1389648c.0459266-.6405482.4044386-1.1613466.8263239-1.2101057zm2.32703-.2673556.0813718.0078567c.2927087.0570882.519547.4194446.5594587.8953105l.0061595.1324518-.0040288.1431234c-.0340886.5184447-.2764729.9597685-.5890549 1.0807044l-.0868863.0248563-.0778575.0076774c-.3311422.0029053-.6030539-.3768685-.6457753-.9067965l-.0058072-.1354756.0041059-.138109c.0387721-.5904033.3448862-1.0676255.7078741-1.1085264zm2.03021-.2335521.0771526.008506c.2521046.0561793.4500396.385341.4899567.8292087l.0071307.1364433-.003114.1335153c-.0282558.4835642-.2381493.8942949-.5115626 1.0038194l-.0760534.0222308-.0727235.0062697c-.2851247-.004631-.5215059-.3553774-.5637792-.8431378l-.0066073-.1362655.0036504-.1387182c.0313155-.500925.2557012-.91023.5356466-1.002645l.077623-.017178zm1.78189-.2058946.0686337.0080437c.2221972.0525892.3987851.3580874.4377146.7698212l.0077517.1409781-.0024475.1358415c-.0240703.4465294-.2039694.8234646-.4409009.9256981l-.0726916.022224-.0689711.0048187c-.2493633-.0118013-.4560952-.341903-.4950258-.7966846l-.0063631-.1269771.0023908-.1298376c.0268297-.5113942.2565992-.9197284.5359592-.9518773zm-17.07183946-8.2727737v9.68l2.83-.56v-8.56zm10.86480946 5.2816683.093166.007895c.3658455.0625676.6456636.4898698.6879647 1.0258131l.0055393.1361009-.0046704.1398986c-.0394759.5514115-.3239008.9976763-.6883465 1.088506l-.0926831.0151577-.0891371-.0006288c-.3812218-.0342167-.6918687-.470933-.7343018-1.0414225l-.0049411-.1339038.0049155-.1361911c.0422127-.5805746.3512306-1.0299919.7300462-1.0935287zm2.32218-.0112679.0796888.0073418c.311571.0577824.559941.4501236.603335.94518l.0066462.1373879-.0039952.1402107c-.0338458.5058075-.2747052.9135636-.5856553.99986l-.0864395.0153974-.0827204-.0015209c-.3263145-.0370647-.5932243-.439133-.6351902-.9623674l-.0057094-.1331918.0040628-.1353943c.0354502-.5321042.2967606-.9441173.6208353-1.0051035zm2.02439-.0112678.0753624.0079854c.2693764.0574912.4842127.4189989.5264293.875688l.0073683.1396534-.002699.130909c-.0268474.4722963-.2365078.8534239-.5085126.931145l-.0756384.0135147-.0779665-.0021792c-.2816404-.0387734-.5124756-.4094435-.5538201-.8904638l-.0064734-.1337569.0034102-.1358759c.0303782-.4887955.2532389-.8676922.532247-.9281755zm1.77801-.0102436.0733012.008793c.2393902.0579813.4261264.3962958.4647805.8234704l.0070583.1306267-.0024649.1334905c-.024177.4368906-.2045756.7867587-.439593.8622808l-.0720421.014239-.0685565-.002756c-.2459105-.038397-.4510998-.3802556-.4917563-.8264259l-.0071372-.1367813.0025797-.1275039c.0251574-.4586436.219398-.8138198.4640163-.8712874zm1.57722-.0081948.0642103.008311c.208215.0542501.3769828.3680906.4164326.7643633l.0082371.1349009-.0018928.12616c-.0202064.408683-.175755.73591-.3816773.8102745l-.0703899.0151877-.0658511-.0036771c-.2163527-.0409681-.3975653-.3628622-.4347374-.7801371l-.0067215-.1278583.0019209-.1300897c.0213647-.424507.1890153-.7519733.4030328-.8087098zm-.071295-2.8158133.013095.0008963.0650248.0147695c.2104102.0748785.3766966.4023173.41498.7976807l.0079052.1340503-.0016509.1239524c-.0196077.4041089-.1773618.7120663-.3862542.7590751l-.0641149.0061093-.0655716-.010646c-.2368394-.0698438-.4299367-.4707137-.4388284-.9430249-.0097808-.4544705.1564933-.8177026.3800261-.8750852zm-1.594195-.1619755.03298.0020487.0728555.0160167c.2356514.0805359.4209071.4285057.4620837.8477699l.0082608.1421262-.0026484.1310049c-.024598.4271865-.2035653.7535384-.4369828.8029953l-.0715588.0063542-.0738132-.011639c-.2661449-.0752103-.4783593-.5000244-.4916968-1.0014443-.00776-.5347113.2134-.9352326.50052-.9352326zm-1.77025-.1802858.0388.0020487.0751717.0155778c.2687984.0843116.4842652.4637062.5266012.918453l.0073871.1384648-.002872.1285568c-.0272991.4620234-.2354345.8152199-.5051131.862866l-.0749849.0052709-.0773452-.0108473c-.3049553-.0756891-.5517371-.5307193-.5580048-1.0677945-.00582-.5685149.25123-.9925962.57036-.9925962zm-2.0176-.2058946.04656.0020487.0854907.0172573c.3080896.0929534.5528196.5050536.5949168.9955159l.0063525.1355244-.0033328.1275011c-.0311053.4971267-.2712402.8770969-.5816206.9289138l-.0862866.0058373-.0819328-.0102778c-.3502814-.0770168-.6332343-.5678953-.6368372-1.1462147-.0026862-.5597685.2475394-.9859956.5736766-1.0482567z"/></svg>