<svg height="32" viewBox="0 0 32 32" width="32" xmlns="http://www.w3.org/2000/svg"><path d="m10.4351596 15.3463816c.4142135 0 .75.3357865.75.75 0 .4142136-.3357865.75-.75.75-1.62953896 0-2.95000003 1.3204691-2.95000003 2.9500163 0 1.5713451 1.22782286 2.8552874 2.77663493 2.9449933l.1733651.0050067 10.7528068-.0000393-.0279664-1.7369166c0-.1971429.0955102-.3869388.2550437-.5001167l.0849563-.0498833c.18-.0942857.3893878-.0857143.5588921.0131195l.0811079.0568805 3.12 2.54c.14.11.22.29.22.46 0 .152-.0512.2912-.14336.39712l-.07664.07288-3.05 2.47c-.11.08-.25.13-.38.13-.08 0-.17-.02-.25-.06-.18-.0771429-.3085714-.242449-.3416327-.4329446l-.0083673-.0970554-.0280336-1.7630834-10.7668068.0000393c-2.4579702 0-4.45000003-1.9920299-4.45000003-4.45 0-2.4579723 1.99203191-4.4500163 4.45000003-4.4500163zm5.1830027-2.4777352c.1874517-.1874516.4784301-.2082796.6888876-.0624839l.0747878.0624839 2.7495159 2.7495159c.1874516.1874517.2082796.4784301.0624839.6888876l-.0624839.0747878-2.7495159 2.7495159c-.1874517.1874516-.4784301.2082796-.6888876.0624839l-.0747878-.0624839-2.7495159-2.7495159c-.1874516-.1874517-.2082796-.4784301-.0624839-.6888876l.0624839-.0747878zm-7.76511251-7.00028778c1.22042697 0 2.25039901.81543446 2.57480111 1.93118835l10.7489394-.000105c2.4579702 0 4.45 1.99202982 4.45 4.45000003 0 2.4579701-1.9920298 4.45-4.45 4.45-.4142136 0-.75-.3357865-.75-.75 0-.4142136.3357864-.75.75-.75 1.629543 0 2.95-1.320457 2.95-2.95 0-1.5713451-1.2278229-2.85528744-2.7766349-2.94499334l-.1733651-.00500669-10.7492307.00089618c-.324727 1.11524045-1.35444791 1.93018715-2.57450981 1.93018715-1.48072145 0-2.68108335-1.2003619-2.68108335-2.68108333 0-1.48072145 1.2003619-2.68108335 2.68108335-2.68108335z"/></svg>