<svg height="32" viewBox="0 0 32 32" width="32" xmlns="http://www.w3.org/2000/svg"><path d="m17.4960735 4.10001733c.3300991 0 .5985577.26596284.6016409.5960475l.0022856.24470413-.0001618 1.74124837 5.573 1.102.0001686-1.56271715c0-.32920231.2668712-.59607351.5960735-.59607351.3300991 0 .5985577.26596285.6016409.59604751l.0022856.24470413-.0001686 1.55503902 2.1159646.41844626v15.11061951l-12.3672566 2.4446902v-19.99999997l2.278292.450244.0001618-1.7489265c0-.32920231.2668712-.5960735.5960735-.5960735zm-8.00727066 3.89696839 3.80530976.75221239v14.49115039l-3.80530976.7411505zm8.30650716 12.12097858c-.02134 0-.04268.0011359-.06402.0045437-.4218853.0540697-.7803973.6315914-.8263239 1.3419056l-.0049661.1541004c0 .7209539.3350479 1.2502214.7517796 1.2358782l.0843604-.010221c.412832-.0858756.7470811-.6674967.7874469-1.3505098l.0040731-.1477681c-.002716-.6488372-.2758249-1.1561742-.6505564-1.2209355zm2.4026914-.2889529-.0756614-.0075221-.05044.0034077c-.3648493.0455883-.6722402.5799955-.7084495 1.2393451l-.0035305.143069c.0036213.6647401.2928452 1.1592841.6515825 1.1557923l.0778575-.0085136c.3557821-.0738347.6421449-.6050684.6765789-1.2371844l.0033911-.1475015c-.0054043-.6022807-.2491762-1.0762547-.5713286-1.1408925zm1.9545486-.2665118-.04268.0022719c-.3170514.0400817-.5822474.5307062-.6138552 1.141732l-.0030648.142993c.0063373.6212722.2619431 1.085212.5751764 1.0861262l.0679336-.0070027c.3098031-.063961.5567915-.5528231.587616-1.1378036l.003114-.1480573c-.0080585-.5714549-.2227441-1.0083739-.5029148-1.0722108zm-17.12171176-9.79560238 3.13053097.61946898v10.5752213l-3.13053097.619469zm18.96704776 9.57489378-.063446-.0076112-.03395.0022718c-.27936.0356504-.5091295.4884589-.5359592 1.0555521l-.0023908.143979c.0081064.5790755.2319983 1.0151527.506252 1.0244735l.064108-.0055537c.2739877-.0555727.4901198-.5128173.5141203-1.0626065l.0019197-.1391964c-.0080585-.5379016-.2012549-.9509461-.450654-1.0113086zm-6.1834154-3.3168601-.0870606-.0076361c-.422144.0031806-.7770347.527834-.8224945 1.2211663l-.0049155.1510245c0 .7039672.3286964 1.2624761.7392429 1.3033382l.0891371.0006974c.410116-.0360465.7416491-.5668491.7816648-1.2340724l.0040352-.1449339c-.0018107-.6668605-.3002085-1.2189376-.6996094-1.289584zm2.3148082-.0119898-.0796888-.0081414c-.3659487.0010602-.6706839.4889603-.7065471 1.1330715l-.0034929.1402943c.0036213.6541382.2903102 1.1756817.6463436 1.2155308l.0772764.001039c.3539807-.0316435.6385421-.5197064.6727279-1.1367756l.0033621-.1445417c-.0054043-.6191572-.2700856-1.130576-.6099812-1.2004769zm2.0200636-.0117813-.0753624-.0088552c-.3190607.0010547-.5825196.4526523-.6131072 1.0492071l-.0028428.1401006c.006305.6075547.2559959 1.0946381.5657864 1.1365657l.0724736.0016257c.3080123-.025165.554863-.476199.584151-1.0475484l.002699-.1451671c-.0071631-.5777462-.2374836-1.0558003-.5337976-1.1259284zm1.7704151-.0118923-.0677675-.0083221c-.2777185.002097-.5063859.4203843-.5338303.9752176l-.0025797.1413913c.0071631.5672607.228392 1.021279.4988935 1.0681159l.0685565.0030562c.2713015-.0230679.4880535-.4449041.5121653-.9831841l.0019347-.1368326c-.0089538-.5441928-.2113108-.993533-.4773725-1.0594422zm1.5736628-.0081933-.0642103-.0092162c-.2481708.0010485-.4497701.3940901-.4709361.9173494l-.0014539.1333762c.0080585.5337074.206214.9628833.4464578 1.0078837l.0608522.0030846c.240075-.0197839.4296157-.4118181.4520672-.9153683l.0018928-.1399009c-.01067-.5081347-.1933197-.9303654-.4246697-.9972085zm-.1224103-3.1307231-.013095-.0009939-.013095-.000142c-.25414 0-.45299.4293776-.44232.9791627.0089538.5274161.2046987.9744979.4438035 1.0473064l.0605965.0102346c.2417538.0083884.4314376-.3606981.450797-.8588854l.001223-.1270927c-.0097808-.5029284-.1890961-.9409516-.4228852-1.0332115zm-1.60729-.1806112c-.28712 0-.50828.4441446-.50052 1.0370946.0134308.5599209.2285297 1.0337002.4972881 1.1122105l.0682219.0112139c.2695108.0094368.484472-.3818303.5090818-.9084523l.0021082-.1343219c-.0089538-.536853-.2113108-1.0049863-.4758466-1.0997396l-.0842072-.0172952zm-1.77025-.1999218c-.31913 0-.57618.4702707-.57036 1.100706.006305.5991164.2559959 1.1061654.5634565 1.1855485l.0718935.0105748c.3071436.0116026.5532316-.4087282.5806069-.972687l.0023631-.1325627c-.0071631-.5704064-.2383101-1.0691893-.5339883-1.1720332l-.0751717-.0172746zm-2.0176-.2283198c-.36569 0-.6596.4986686-.65669 1.171133.0036213.6445965.2894652 1.1912312.6422314 1.2723335l.0765386.0101197c.3512786.0116026.6339742-.4351731.6679072-1.0365606l.0033328-.141388c-.0045036-.6117738-.2682842-1.1481307-.607279-1.256192l-.079481-.0171738z"/></svg>