<svg height="32" viewBox="0 0 32 32" width="32" xmlns="http://www.w3.org/2000/svg"><path d="m22.5360647 5.875c.4142136 0 .75.33578644.75.75v2.52235006h2.238889c.4142136 0 .75.33578644.75.75l-.0007916 7.73662604c.0747336.0212394.1497339.048152.2246104.0808548l.1121732.0534114.1480292.1071881c.270346.2220885.4462601.5356046.49415.8804722l.0125882.1495448.0219597.6287527c.0110406.2586836.2055706.4821404.4454016.5380022l.0917902.0128336.6285761.0222558c.5455285.018516 1.0299006.3549287 1.2311105.8420294.1856185.4159649.1541339.8892874-.0859024 1.2910482l-.0877245.131093-.0704112.0845479-.4290477.4679964c-.1718469.1864581-.190244.4800202-.0557328.6924007l.0576082.0754696.4236181.4544942c.3108423.3224748.4353073.7630441.3548743 1.2349075-.1132442.5930487-.5995352 1.0411766-1.1896555 1.1078262l-.1279454.0083569-.0057552.002065-.6160229.0157181c-.0702159.002118-.1371416.0161715-.1945894.0399672-.1665214.0689754-.290122.2243914-.3269973.4067722l-.0110078.0931621-.0217788.6061766c-.0039194.4594808-.2382419.8869073-.6350153 1.1477775l-.1238375.0731299-.0930349.0427659c-.4582175.1897999-.9793797.1204241-1.3708674-.1745485l-.1133635-.0952261-.4608297-.4324645c-.1641247-.1528468-.3956277-.1961095-.5925542-.1145399-.0368731.0152734-.0724951.0356904-.1081616.0626818l-.0536951.0455967-.4747636.4451168c-.3958111.3546299-.9520325.4529376-1.4844579.2425311l-.1444785-.065077-.067088-.0421662c-.3390182-.2225603-.5609648-.5757459-.6156962-.9698803l-.0125881-.1495447-.0219597-.6287528c-.0110471-.2588338-.2057009-.4821724-.4503796-.5382018l-.0938386-.0129109-.6086125-.0260889-.0202107.0010973c-.4515313-.0153256-.8593379-.248064-1.1062213-.6138799l-.0761735-.1267518-.0242535-.0519866-12.296.0001527c-.41421356 0-.75-.3357864-.75-.75v-15.03280264c0-.41417924.33582076-.74995147.74999999-.75008786l2.23800001-.0002622.00068693-2.522c0-.41421356.33578643-.75.75-.75.41421356 0 .75.33578644.75.75l-.00068693 2.522 11.7980647.00035006v-2.52235006c0-.41421356.3357864-.75.75-.75zm-.252708 12.8758684-.0528302.0134696-.0199684.0096517c-.0449697.0235802-.0770045.0629529-.0904335.1072148l-.007017.0454878.0015174.0257339-.0218808.6180113c-.0244873.6882298-.4471342 1.3046046-1.0780265 1.5659287-.145129.0601144-.2997167.0999855-.4593108.1189173l-.161098.0119262-.6158248.0151579-.0625565.0103449c-.0274954.0093748-.0534024.0270777-.0739439.0503364l-.0263162.0387084-.0092923.0260197-.0079492.0753081.0048611.0503608.0162964.0414392.02766.0361133.4346421.4662425c.5805471.6355743.6170727 1.603112.1057698 2.2719976l-.1022901.1217623-.431851.471017c-.0493983.0528652-.0634932.1332045-.0326984.2075498.0231252.055829.0664981.0960895.1183273.1138025l.0542114.0099388.0160929-.0016693.6265702.0272132c.8593494.0408889 1.5669662.7069689 1.6758512 1.5523668l.0129088.1509586.0222329.6362546c.0014561.0482941.0191933.0913333.0366267.1161891l.0167179.0183158.0400285.0236807.0584448.0208799c.0399704.0076722.0807997.0031987.1155554-.0113205l.0467118-.0290507.4638652-.4351071c.1570806-.1478809.3319211-.2627319.5243974-.3424582.584977-.2423054 1.2519859-.1447046 1.7503374.2435146l.1209291.1030809.4615487.4331352c.0412296.0385229.096683.0563099.1410372.0551611l.0397166-.0075302.0418092-.0186563c.0408434-.0216332.0726402-.0626224.0863708-.1160588l.0073745-.0573296.0221365-.6223935c.0244872-.6882298.4471341-1.3046045 1.0780264-1.5659287.145129-.0601144.2997167-.0999855.4593108-.1189173l.161098-.0119262.613813-.0153852.0639386-.0101488c.0285368-.0092299.0545313-.0265588.074935-.0496629l.0260313-.038697.0085106-.0263596.0086544-.0756218-.0048611-.0503608-.0162964-.0414393-.0276599-.0361133-.4346422-.4662425c-.5805471-.6355742-.6170727-1.6031119-.1057697-2.2719976l.1022901-.1217622.4059045-.441354.0310857-.0369515c.0437173-.0588326.0521502-.1315788.0172381-.2103663-.0209918-.0507263-.0638725-.089554-.1158424-.1068785l-.0545256-.009801-.6367577-.0225894c-.8577231-.0408377-1.5648029-.707348-1.6736145-1.5523558l-.0129006-.1508809-.0222329-.6362547c-.0014561-.048294-.0191932-.0913333-.0505762-.1244137l-.0358341-.0295866-.0371737-.0140875c-.0400763-.0118895-.0768433-.0142276-.1090204-.0087501l-.044663.013861-.0368176.0242826-.4638652.4351072c-.1570807.1478809-.3319212.2627319-.5243975.3424581-.584977.2423054-1.2519859.1447046-1.7503374-.2435146l-.120929-.1030808-.472655-.4437823c-.0217598-.0214022-.0517669-.0356308-.085025-.0409752zm1.8208411 2.9383827c.8775623 0 1.5863627.7172385 1.5863627 1.6032389s-.7172385 1.6032388-1.5863627 1.6032388-1.5863627-.7172384-1.5863627-1.6032388.7088004-1.6032389 1.5863627-1.6032389zm-8.6156391-.7913214c-.4057778.167645-.6704675.5633829-.6704675 1.0024277 0 .597484.4832014 1.0824494 1.0806817 1.0846254.4390421.0015864.83574-.2616596 1.0048595-.6668248.1691196-.4051653.0772985-.8723232-.2325882-1.1833387-.3098867-.3110154-.7767078-.4045346-1.1824855-.2368896zm-3.362562 0c-.4057777.167645-.6704675.5633829-.6704675 1.0024277 0 .597484.4832015 1.0824494 1.0806818 1.0846254.439042.0015864.83574-.2616596 1.0048595-.6668248.1691195-.4051653.0772984-.8723232-.2325883-1.1833387-.3098866-.3110154-.7767077-.4045346-1.1824855-.2368896zm-3.36035564 0c-.40577776.167645-.6704675.5633829-.6704675 1.0024277 0 .597484.48320143 1.0824494 1.08068174 1.0846254.43904204.0015864.83574-.2616596 1.0048595-.6668248.1691195-.4051653.0772985-.8723232-.23258822-1.1833387-.30988668-.3110154-.77670777-.4045346-1.18248552-.2368896zm0-3.3157572c-.40577776.167645-.6704675.5633829-.6704675 1.0024277 0 .5974839.48320143 1.0824494 1.08068174 1.0846253.43904204.0015865.83574-.2616595 1.0048595-.6668248.1691195-.4051652.0772985-.8723231-.23258822-1.1833386-.30988668-.3110154-.77670777-.4045346-1.18248552-.2368896zm10.08686874 0c-.4057778.167645-.6704675.5633829-.6704675 1.0024277 0 .5974839.4832014 1.0824494 1.0806817 1.0846253.4390421.0015865.83574-.2616595 1.0048596-.6668248.1691195-.4051652.0772984-.8723231-.2325883-1.1833386-.3098867-.3110154-.7767078-.4045346-1.1824855-.2368896zm-3.3639511 0c-.4057778.167645-.6704675.5633829-.6704675 1.0024277 0 .5974839.4832014 1.0824494 1.0806817 1.0846253.4390421.0015865.83574-.2616595 1.0048595-.6668248.1691196-.4051652.0772985-.8723231-.2325882-1.1833386-.3098867-.3110154-.7767078-.4045346-1.1824855-.2368896zm-3.362562 0c-.4057777.167645-.6704675.5633829-.6704675 1.0024277 0 .5974839.4832015 1.0824494 1.0806818 1.0846253.439042.0015865.83574-.2616595 1.0048595-.6668248.1691195-.4051652.0772984-.8723231-.2325883-1.1833386-.3098866-.3110154-.7767077-.4045346-1.1824855-.2368896zm0-3.3155558c-.4057777.167645-.6704675.563383-.6704675 1.0024277 0 .597484.4832015 1.0824495 1.0806818 1.0846254.439042.0015864.83574-.2616595 1.0048595-.6668248s.0772984-.8723232-.2325883-1.1833386c-.3098866-.3110155-.7767077-.4045347-1.1824855-.2368897zm3.362562 0c-.4057778.167645-.6704675.563383-.6704675 1.0024277 0 .597484.4832014 1.0824495 1.0806817 1.0846254.4390421.0015864.83574-.2616595 1.0048595-.6668248.1691196-.4051653.0772985-.8723232-.2325882-1.1833386-.3098867-.3110155-.7767078-.4045347-1.1824855-.2368897zm3.3617652 0c-.4057777.167645-.6704675.563383-.6704675 1.0024277 0 .597484.4832014 1.0824495 1.0806818 1.0846254.439042.0015864.83574-.2616595 1.0048595-.6668248s.0772984-.8723232-.2325883-1.1833386c-.3098866-.3110155-.7767077-.4045347-1.1824855-.2368897zm3.3589461 0c-.4057778.167645-.6704675.563383-.6704675 1.0024277 0 .597484.4832014 1.0824495 1.0806817 1.0846254.4390421.0015864.8357401-.2616595 1.0048596-.6668248s.0772984-.8723232-.2325883-1.1833386c-.3098867-.3110155-.7767078-.4045347-1.1824855-.2368897z"/></svg>