<svg height="32" viewBox="0 0 32 32" width="32" xmlns="http://www.w3.org/2000/svg"><g fill="none"><path d="m21.1767903 7.79944197c2.4579702 0 4.45 1.99202982 4.45 4.45000003 0 2.4579701-1.9920298 4.45-4.45 4.45-.4142136 0-.75-.3357865-.75-.75 0-.4142136.3357864-.75.75-.75 1.629543 0 2.95-1.320457 2.95-2.95 0-1.5713451-1.2278229-2.85528744-2.7766349-2.94499334l-.1733651-.00500669h-11.38142912c-.41421356 0-.75-.33578644-.75-.75 0-.37969577.28215388-.69349096.64822945-.74315339l.10177055-.00684661z" fill="#fa8bb9"/><path d="m18.1165887 15.3463816c2.4579701 0 4.45 1.9920298 4.45 4.45 0 2.4579723-1.9920319 4.4500163-4.45 4.4500163-.4142136 0-.75-.3357865-.75-.75 0-.4142136.3357864-.75.75-.75 1.6295389 0 2.95-1.3204691 2.95-2.9500163 0-1.5713451-1.2278229-2.8552874-2.7766349-2.9449933l-.1733651-.0050067h-11.38142913c-.41421356 0-.75-.3357864-.75-.75 0-.3796957.28215389-.6934909.64822945-.7431534l.10177055-.0068466z" fill="#6ec18d" transform="matrix(-1 0 0 -1 28.551748 39.59278)"/><path d="m25.26 23.069442-3.12-2.54c-.18-.15-.43-.18-.64-.07-.21.1-.34.32-.34.55l.03 1.89.01 1.2.03 1.91c0 .23.14.44.35.53.08.04.17.06.25.06.13 0 .27-.05.38-.13l3.05-2.47c.14-.11.22-.28.22-.47 0-.17-.08-.35-.22-.46z" fill="#257843"/><circle cx="7.85305" cy="8.549442" fill="#b75c64" r="2.681083"/><path d="m19.1313536 15.6181623-2.7495159-2.7495159c-.2108832-.2108831-.5527922-.2108831-.7636754 0l-2.7495159 2.7495159c-.2108831.2108832-.2108831.5527922 0 .7636754l2.7495159 2.7495159c.2108832.2108831.5527922.2108831.7636754 0l2.7495159-2.7495159c.2108831-.2108832.2108831-.5527922 0-.7636754z" fill="#31afd8"/></g></svg>