<svg height="32" viewBox="0 0 32 32" width="32" xmlns="http://www.w3.org/2000/svg"><path d="m22.195 6.575c.297 0 .5454.2187.59211.50301l.00789.09699v2.45h2.78c.297 0 .5454.2187.59211.50301l.00789.09699-.000704 7.9966911.1026305.0449799.031226.020926c.217648.1428826.3500647.3780597.3579268.6388101l.0221392.6333777c.0256738.601541.5183007 1.0964457 1.115416 1.1248754l.6294531.0222862c.3115194.0105734.5862078.203343.7035416.4868772.1182968.265099.0807941.5677467-.0900465.7976559l-.0483394.0590711-.4279764.4668309c-.4051302.4395764-.4035209 1.1372611.0042179 1.5836474l.4304902.4617433c.1703936.1767702.2446428.4205743.1938746.7052746l.0036321.0006936c-.0613394.3212286-.317384.5682659-.6321997.6192526l-.1171155.011729-.6188024.0157956c-.1417611.0042761-.280414.0333019-.4061093.0853666-.4123981.1708209-.6918273.577944-.708016 1.0329355l-.0221361.6223854c-.0024431.286416-.1641938.5507459-.4125305.6822801l-.0689891.0321832c-.286403.1186321-.6167182.0594316-.8440386-.1529651l-.462502-.4340278c-.3348136-.3118069-.8155206-.4019139-1.2310742-.229786-.1241832.0514384-.2378081.1262183-.3427292.2249945l-.4646608.4358548c-.2480646.2222553-.6054761.2689648-.9048298.1191536l-.0615386-.0385667c-.217648-.1428827-.3500647-.3780598-.3579268-.6388101l-.0221392-.6333778c-.0256738-.6015409-.5183007-1.0964456-1.1176427-1.1249631l-.6344998-.0252112c-.2939216-.0099761-.5550558-.1821451-.6846681-.4455145l-12.6633333-.002449c-.297 0-.5454-.2187-.59211-.50301l-.00789-.09699v-14.6c0-.15.07-.31.18-.42.088-.096.2016-.1536.32544-.1728l.09456-.0072h2.78v-2.45c0-.33.27-.6.6-.6.297 0 .5454.2187.59211.50301l.00789.09699v2.45h11.19v-2.45c0-.33.27-.6.6-.6zm1.2960365 15.2297939c-.8107619.3358285-1.1911327 1.2697166-.852075 2.0882743.3390576.8185576 1.2761748 1.2067243 2.0791409.8741248.8029661-.3325994 1.1911327-1.2697166.8520751-2.0882743-.3390577-.8185576-1.2683791-1.2099534-2.079141-.8741248zm-14.2860365-10.9797939h-2.18v13.4h12.471l.1470955-.1594588c.4051302-.4395765.4035209-1.1372611-.0042179-1.5836474l-.4304902-.4617434c-.1703936-.1767701-.2446428-.4205743-.1938746-.7052746l-.0036321-.0006935c.0611584-.3202807.3206064-.5698061.6334196-.6197957l.1158956-.011186.6188024-.0157955c.1417611-.0042761.280414-.0333019.4061093-.0853666.4123982-.1708209.6918273-.5779441.708016-1.0329356l.0218771-.6179065-.0018713-.0096219c.0024492-.2871344.1665567-.5467006.4187964-.6789642l.0699965-.0324864c.2886194-.1195501.6217269-.058505.8388956.1550954l.462502.4340279c.3348136.3118068.8155206.4019139 1.2310742.229786.1241832-.0514384.2378081-.1262183.3427292-.2249945l.0968767-.0910387.001-7.888h-2.18v1.35c0 .33-.27.6-.6.6-.297 0-.5454-.2187-.59211-.50301l-.00789-.09699v-1.35h-11.19v1.35c0 .33-.27.6-.6.6-.297 0-.5454-.2187-.59211-.50301l-.00789-.09699zm.61 9.53c.56 0 1 .45 1 1 0 .56-.45 1-1 1s-1-.45-1-1c0-.56.45-1 1-1zm3.1 0c.55 0 1 .45 1 1 0 .56-.45 1-1 1s-1-.45-1-1c0-.56.45-1 1-1zm3.1 0c.55 0 1 .44 1 1s-.45 1-1 1-1-.45-1-1c0-.56.45-1 1-1zm-6.2-3.06c.56 0 1 .45 1 1 0 .56-.45 1-1 1s-1-.45-1-1c0-.56.45-1 1-1zm3.1 0c.55 0 1 .45 1 1 0 .56-.45 1-1 1s-1-.45-1-1c0-.56.45-1 1-1zm6.2 0c.56 0 1 .45 1 1 0 .56-.45 1-1 1s-1-.45-1-1c0-.56.45-1 1-1zm-3.1 0c.55 0 1 .45 1 1 0 .56-.45 1-1 1s-1-.45-1-1c0-.56.45-1 1-1zm-3.1-3.06c.55 0 1 .45 1 1 0 .56-.45 1-1 1s-1-.45-1-1c0-.56.45-1 1-1zm6.19 0c.56 0 1 .45 1 1 0 .56-.45 1-1 1s-.99-.45-1-1c0-.56.44-1 1-1zm3.11 0c.56 0 1 .45 1 1 0 .56-.45 1-1 1s-1-.45-1-1 .45-1 1-1zm-6.2 0c.55 0 1 .45 1 1 0 .56-.45 1-1 1s-1-.45-1-1c0-.56.45-1 1-1z"/></svg>