<svg height="32" viewBox="0 0 32 32" width="32" xmlns="http://www.w3.org/2000/svg"><path d="m10.4351596 15.5463816c-2.34750931 0-4.25000003 1.9024991-4.25000003 4.2500163 0 2.2784687 1.79222154 4.137704 4.04405783 4.2450998l.2059414.0049002 10.9636528-.00004.0304493 1.9459054.0061607.0800346c.0217169.1251303.1067721.2333478.2340211.2882586.0499617.0249809.1090563.0388855.1605573.0388855.0630878 0 .1347795-.0193569.1964672-.0505564l.0576638-.0348689 3.0380476-2.4595066.0635796-.059229c.0606099-.0696594.0942418-.1623684.0942418-.2658391 0-.0914409-.0359198-.186358-.0964412-.2569502l-.049827-.0479488-3.1085664-2.5313543-.0670142-.047852c-.090239-.0526161-.1955228-.0656023-.2892098-.0399222l-.0676745.0264949-.0705006.0405364c-.0844208.0598906-.1430587.1540429-.1631504.2561324l-.0076418.0776439.0312385 1.9401358-10.9618265-.0000434-.1791561-.0052579c-1.66081978-.0961933-2.96507043-1.4735564-2.96507043-3.1446587 0-1.7400041 1.41000412-3.1500163 3.15000003-3.1500163.3037566 0 .55-.2462434.55-.55s-.2462434-.55-.55-.55zm5.6875105-2.613184c-.0980271-.0378825-.2093708-.0281715-.2997594.0270006l-.063327.0498696-2.7374554 2.7363261-.0515618.060448c-.0772656.1115336-.0793334.2572616-.0103683.3702474l.0498696.063327 2.7363261 2.7374554.060448.0515618c.1115336.0772656.2572616.0793334.3702474.0103683l.063327-.0498696 2.7374554-2.7363261.0515618-.060448c.0772656-.1115336.0793334-.2572616.0103683-.3702474l-.0498696-.063327-2.7363261-2.7374554-.0656061-.0551283zm-8.26962031-6.86483898c-1.3702645 0-2.48108335 1.11081885-2.48108335 2.48108335 0 1.37026449 1.11081885 2.48108333 2.48108335 2.48108333 1.05197253 0 1.9746024-.6605439 2.32879141-1.62296284l.0536929-.16313679.0419506-.144075 10.9050791-.00082535.179156.00525797c1.6608198.09619329 2.9650705 1.47355631 2.9650705 3.14465871 0 1.74-1.41 3.15-3.15 3.15-.3037566 0-.55.2462434-.55.55s.2462434.55.55.55c2.3475132 0 4.25-1.9024868 4.25-4.25 0-2.27846875-1.7922216-4.13770408-4.0440567-4.24509987l-.2059414-.00490016-10.8990734.00010647-.0419153-.14416426c-.30545462-1.0505856-1.27198667-1.78702556-2.38275371-1.78702556z"/></svg>