<svg height="32" viewBox="0 0 32 32" width="32" xmlns="http://www.w3.org/2000/svg"><g fill="none" fill-rule="evenodd"><path d="m.17489548.39606083h31.16883122v31.16883117h-31.16883122z"/><path d="m5.72425945 9.00450491 3.30805348.72446137v11.69300002l-3.30803735.7263747c-.21063763.0461668-.40796265-.1254617-.40796265-.3548359v-12.43416071c0-.22936705.19731338-.4009939.40794652-.35483948z" fill="#516972"/><path d="m18.1 3.70001733v3.74388343c0 .4643343-.2686292.84075163-.6.84075163-.2982338 0-.5456468-.30489804-.592147-.70437735l-.007853-.13637428v-3.74388343c0-.33137085.2686292-.6.6-.6s.6.26862915.6.6z" fill="#7c969d" fill-rule="nonzero"/><path d="m24.8730068 5.22522667v3.04325707c0 .46433431-.2686291.84075164-.6.84075164-.2982337 0-.5456467-.30489804-.592147-.70437735l-.007853-.13637429v-3.04325707c0-.33137085.2686292-.6.6-.6.3313709 0 .6.26862915.6.6z" fill="#7c969d" fill-rule="nonzero"/><path d="m9.43926846 7.02187509 4.15477734.88583985v15.87699996l-4.15477729.8868761c-.2101503.0448399-.40622271-.1266111-.40622271-.3552122v-16.93929146c0-.22860109.19607238-.40005216.40622266-.35521225z" fill="#8facb4"/><path d="m26.3319604 24.0862519-12.3327953 2.5679245c-.2097116.043666-.4046741-.1276242-.4046741-.3555387v-20.54339594c0-.22791449.1949625-.39920466.4046741-.35553867l12.3327953 2.56792449c.1594646.03320359.2745433.18223267.2745433.35553868v15.40754694c0 .173306-.1150787.3223351-.2745433.3555387z" fill="#d0e7ef"/><path d="m13.594491 9.86136155v-4.10611979c0-.22791449.1949625-.39920466.4046741-.35553867l12.3327953 2.56792449c.1594646.03320359.2745433.18223267.2745433.35553868v3.02473084z" fill="#d9541a"/><g fill="#7c969d"><path d="m18.5698908 14.3140324c.0041218.670127.3524069 1.2311379.7635482 1.2443641.4018675.012124.7192397-.4915734.7130571-1.1429633-.0051521-.6392659-.3297374-1.1936637-.729544-1.2355466-.0164868-.0011022-.0329737-.0022044-.0494606-.0022044-.3884718 0-.7006919.4838582-.6976007 1.1363502z"/><path d="m20.8048922 14.4672358c.007213.6260397.3142809 1.1484742.6749312 1.1605982.3513764.012124.6275315-.4618145.619288-1.0724236-.0082434-.5995873-.2957332-1.1176131-.6471096-1.1539851-.014426-.0011022-.0278216-.0022044-.0412172-.0022044-.3390112 0-.612075.4563036-.6058924 1.0680149z"/><path d="m22.7596167 14.5994977c.0154564.5885655.2823376 1.0790367.6007403 1.0900586.3101592.0099196.5523101-.4364643.5430363-1.0118036-.0103043-.5643175-.2617291-1.05038-.5770405-1.0823433-.0123651-.0011022-.0236999-.0022044-.0350346-.0022044-.3050071 0-.539945.4309534-.5317015 1.0062927z"/><path d="m24.5010423 14.7174312c.0103043.5543979.2534856 1.0173145.5358233 1.026132.2782159.0088175.4915148-.4122163.4801801-.9566945-.0113348-.5323541-.2369988-.9897599-.518306-1.0184166-.0092739-.0011022-.0185477-.0011022-.0278216-.0011022-.2699725 0-.4812105.416625-.4698758.9500813z"/><path d="m25.0585046 16.7972497c-.2833681.0011022-.511093.4485883-.4997583 1.0195189.0092739.5610109.2555465 1.0029861.5389146.9809425.2782159-.0209415.4925452-.4717342.482241-1.0239276-.0123652-.5378651-.2421509-.9765338-.5193364-.9765338-.0010305 0-.0020609 0-.0020609 0z"/></g><path d="m23.3830264 16.8060672c-.3173722.0022044-.57601.4783472-.5677665 1.0834455.0082434.5962807.283368 1.0636061.6028011 1.0393581.3122201-.024248.5564319-.5025952.5461276-1.086752-.0103043-.5720327-.2617291-1.0360516-.5791013-1.0360516s-.0010304 0-.0020609 0z" fill="#fe5e00"/><g fill="#7c969d"><path d="m21.493219 16.817089c-.3616807.0011022-.6584444.5092084-.6512314 1.1539852.007213.6348571.314281 1.1341458.6780225 1.1043869.3544677-.0264524.6326837-.5378651.6234098-1.1572917-.0082434-.6073026-.2947028-1.1010804-.6471096-1.1010804-.0010305 0-.0020609 0-.0030913 0z"/><path d="m19.3427129 16.829213c-.4132022.0011022-.7553048.5444782-.751183 1.2355467.0041217.6800466.3534372 1.2124008.7687003 1.1804375.4049587-.0330655.7243918-.579748.7182092-1.2432619-.0061825-.6469812-.3317982-1.1727223-.7326352-1.1727223-.0010305 0-.0020609 0-.0030913 0z"/><path d="m16.8748345 16.841337c-.4760583.0033066-.8748345.5874633-.8748345 1.3314366 0 .7318492.400837 1.3016776.8799867 1.2653055.4667845-.0374742.8377391-.6260396.8346478-1.3380496-.0020609-.6932728-.3658025-1.2586925-.8356782-1.2586925-.0010305 0-.0030913 0-.0041218 0z"/><path d="m23.4366088 20.0619145c-.321494.0374742-.5811622.5499891-.5718883 1.1639048.0092738.6050982.2843985 1.0492778.6058924.9886577.3153114-.0584157.5584928-.5742371.5481885-1.1661091-.0092739-.5654197-.2493639-.9886578-.5461276-.9886578-.0113347 0-.0236999 0-.036065.0022044z"/><path d="m21.5344361 20.2834532c-.3627111.0418829-.6615356.5907698-.655353 1.2465684.007213.645879.3184026 1.116511.6831746 1.0470735.3565286-.0672332.6347445-.6183244.6275315-1.2476707-.0092738-.6006895-.276155-1.0481756-.6100142-1.0481756-.0154564 0-.0298824.0011022-.0453389.0022044z"/><path d="m19.369504 20.535853c-.415263.0473938-.7604568.6392659-.7563351 1.3413561.0041217.6910685.3565285 1.1925616.7748829 1.1132044.4070196-.0771527.7285135-.6690248.722331-1.3435605-.0061826-.6293462-.3060376-1.1143066-.6872964-1.1143066-.0175173 0-.0360651.0011022-.0535824.0033066z"/><path d="m16.883078 20.8246248c-.4801801.0562113-.883078.6954772-.883078 1.4515744 0 .7461776.4049587 1.2807362.8882301 1.189255.4698758-.0892768.8439217-.730747.8408304-1.4537788-.0030913-.6745357-.33592-1.1914593-.7779742-1.1914593-.0226694 0-.0453389.0011022-.0680083.0044087z"/></g></g></svg>