<svg height="32" viewBox="0 0 32 32" width="32" xmlns="http://www.w3.org/2000/svg"><g fill="none" fill-rule="evenodd"><path d="m22.5360647 5.875c.4142136 0 .75.33578644.75.75v2.52235006h-1.5v-2.52235006c0-.41421356.3357864-.75.75-.75zm-13.29737777 0c.41421356 0 .75.33578644.75.75v2.52235006h-1.5v-2.52235006c0-.41421356.33578643-.75.75-.75z" fill="#7c969d" fill-rule="nonzero"/><path d="m5.5 9.25h20.77v16.43h-20.77z" fill="#d0e7ef"/><path d="m5.5 11.8589358h20.7749537v-2.71158574h-20.7749537z" fill="#d9541a"/><path d="m15.4885587 20.8979297c.4057777-.167645.8725988-.0741258 1.1824855.2368896.3098867.3110155.4017078.7781734.2325882 1.1833387-.1691195.4051652-.5658174.6684112-1.0048595.6668176-.5974803-.0021688-1.0806857-.4871342-1.0806817-1.0846182.0000029-.4390448.2646897-.8347827.6704675-1.0024277zm-3.362562 0c.4057778-.167645.8725989-.0741258 1.1824855.2368896.3098867.3110155.4017078.7781734.2325883 1.1833387-.1691195.4051652-.5658175.6684112-1.0048595.6668176-.5974803-.0021688-1.0806857-.4871342-1.0806818-1.0846182.0000029-.4390448.2646898-.8347827.6704675-1.0024277zm-3.36035564 0c.40577775-.167645.87259884-.0741258 1.18248552.2368896.30988672.3110155.40170772.7781734.23258822 1.1833387-.1691195.4051652-.56581746.6684112-1.0048595.6668176-.59748031-.0021688-1.08068567-.4871342-1.08068174-1.0846182.00000289-.4390448.26468974-.8347827.6704675-1.0024277zm0-3.3157572c.40577775-.167645.87259884-.0741258 1.18248552.2368896.30988672.3110155.40170772.7781734.23258822 1.1833386-.1691195.4051653-.56581746.6684113-1.0048595.6668176-.59748031-.0021687-1.08068567-.4871342-1.08068174-1.0846181.00000289-.4390448.26468974-.8347827.6704675-1.0024277zm6.72291764 0c.4057777-.167645.8725988-.0741258 1.1824855.2368896.3098867.3110155.4017078.7781734.2325882 1.1833386-.1691195.4051653-.5658174.6684113-1.0048595.6668176-.5974803-.0021687-1.0806857-.4871342-1.0806817-1.0846181.0000029-.4390448.2646897-.8347827.6704675-1.0024277zm-3.362562 0c.4057778-.167645.8725989-.0741258 1.1824855.2368896.3098867.3110155.4017078.7781734.2325883 1.1833386-.1691195.4051653-.5658175.6684113-1.0048595.6668176-.5974803-.0021687-1.0806857-.4871342-1.0806818-1.0846181.0000029-.4390448.2646898-.8347827.6704675-1.0024277zm0-3.3155558c.4057778-.167645.8725989-.0741258 1.1824855.2368897.3098867.3110154.4017078.7781733.2325883 1.1833386s-.5658175.6684112-1.0048595.6668176c-.5974803-.0021687-1.0806857-.4871342-1.0806818-1.0846182.0000029-.4390447.2646898-.8347827.6704675-1.0024277zm3.362562 0c.4057777-.167645.8725988-.0741258 1.1824855.2368897.3098867.3110154.4017078.7781733.2325882 1.1833386-.1691195.4051653-.5658174.6684112-1.0048595.6668176-.5974803-.0021687-1.0806857-.4871342-1.0806817-1.0846182.0000029-.4390447.2646897-.8347827.6704675-1.0024277zm3.3617652 0c.4057778-.167645.8725989-.0741258 1.1824855.2368897.3098867.3110154.4017078.7781733.2325883 1.1833386s-.5658175.6684112-1.0048595.6668176c-.5974804-.0021687-1.0806857-.4871342-1.0806818-1.0846182.0000029-.4390447.2646898-.8347827.6704675-1.0024277zm3.3589461 0c.4057777-.167645.8725988-.0741258 1.1824855.2368897.3098867.3110154.4017078.7781733.2325883 1.1833386s-.5658175.6684112-1.0048596.6668176c-.5974803-.0021687-1.0806856-.4871342-1.0806817-1.0846182.0000029-.4390447.2646897-.8347827.6704675-1.0024277z" fill="#7c969d"/><path d="m19.262724 19.6692183c.4390421.0015937.83574-.2616523 1.0048596-.6668176.1691195-.4051652.0772984-.8723231-.2325883-1.1833386-.3098867-.3110154-.7767078-.4045346-1.1824855-.2368896-.4057778.167645-.6704646.5633829-.6704675 1.0024277-.000004.5974839.4832014 1.0824494 1.0806817 1.0846181z" fill="#fe5e00"/><path d="m22.0019223 18.2101239c.2886194-.1195501.6217269-.058505.8388956.1550954l.462502.4340279c.3348136.3118068.8155206.4019139 1.2310742.229786.1241832-.0514384.2378081-.1262183.3427292-.2249945l.4646609-.4358549c.2480645-.2222553.605476-.2689647.9351423-.1015128l.031226.020926c.217648.1428826.3500647.3780597.3579268.6388101l.0221392.6333777c.0256738.601541.5183007 1.0964457 1.115416 1.1248754l.6294531.0222862c.3115194.0105734.5862078.203343.7035416.4868772.1182968.265099.0807941.5677467-.0900465.7976559l-.0483394.0590711-.4279764.4668309c-.4051302.4395764-.4035209 1.1372611.0042179 1.5836474l.4304902.4617433c.1703936.1767702.2446428.4205743.1938746.7052746l.0036321.0006936c-.0613394.3212286-.317384.5682659-.6321997.6192526l-.1171155.011729-.6188024.0157956c-.1417611.0042761-.280414.0333019-.4061093.0853666-.4123981.1708209-.6918273.577944-.708016 1.0329355l-.0221361.6223854c-.0024431.286416-.1641938.5507459-.4125305.6822801l-.0689891.0321832c-.286403.1186321-.6167182.0594316-.8440386-.1529651l-.462502-.4340278c-.3348136-.3118069-.8155206-.4019139-1.2310742-.229786-.1241832.0514384-.2378081.1262183-.3427292.2249945l-.4646608.4358548c-.2480646.2222553-.6054761.2689648-.9048298.1191536l-.0615386-.0385667c-.217648-.1428827-.3500647-.3780598-.3579268-.6388101l-.0221392-.6333778c-.0256738-.6015409-.5183007-1.0964456-1.1176427-1.1249631l-.6344998-.0252112c-.3115194-.0105734-.5862078-.2033429-.7065132-.4937859-.1203054-.2904429-.0623801-.6209856.1486309-.8468056l.4279764-.4668308c.4051302-.4395765.4035209-1.1372611-.0042179-1.5836474l-.4304902-.4617434c-.1703936-.1767701-.2446428-.4205743-.1938746-.7052746l-.0036321-.0006935c.0611584-.3202807.3206064-.5698061.6334196-.6197957l.1158956-.011186.6188024-.0157955c.1417611-.0042761.280414-.0333019.4061093-.0853666.4123982-.1708209.6918273-.5779441.708016-1.0329356l.0218771-.6179065-.0018713-.0096219c.0024492-.2871344.1665567-.5467006.4187964-.6789642zm1.4891142 3.59467c-.8107619.3358285-1.1911327 1.2697166-.852075 2.0882743.3390576.8185576 1.2761748 1.2067243 2.0791409.8741248.8029661-.3325994 1.1911327-1.2697166.8520751-2.0882743-.3390577-.8185576-1.2683791-1.2099534-2.079141-.8741248z" fill="#005a7d" fill-rule="nonzero"/></g></svg>