<svg height="32" viewBox="0 0 32 32" width="32" xmlns="http://www.w3.org/2000/svg"><path d="m16.9133049 23.855-1.07.54c-.39.2-.82.15-1.16-.14-.33-.28-.45-.7-.31-1.11l2.87-8.68c.29-.88.03-1.8-.67-2.4-.7-.61-1.65-.72-2.48-.3l-1.07.54c-.3.15-.41.51-.26.81s.51.41.81.26l1.07-.54c.39-.2.82-.15 1.16.14.33.28.45.7.31 1.11l-2.87 8.68c-.29.88-.03 1.8.67 2.4.42.36.94.55 1.46.55.35 0 .7-.08 1.03-.25l1.07-.54c.3-.15.41-.51.26-.81-.17-.29-.53-.41-.82-.26zm.5576579-17.422c-.7344 0-1.332.5904-1.3392 1.332 0 .7344.5976 1.332 1.3248 1.332h.0072c.7344 0 1.332-.5976 1.332-1.3248.0072-.7344-.5904-1.3392-1.3248-1.3392z" fill="#005a7d"/></svg>