<svg height="32" viewBox="0 0 32 32" width="32" xmlns="http://www.w3.org/2000/svg"><path d="m23.06 15.53h-5.78l-.11-.03-1.79-.49c-1.94-.53-3.14-1.23-3.14-3.13 0-2.02 1.53-3.28 4-3.28 1.29 0 2.33.35 3.03 1.01.5.47.8 1.09.87 1.74.03.33.32.57.65.54s.57-.32.54-.65c-.09-.94-.53-1.83-1.24-2.5-.92-.88-2.26-1.34-3.86-1.34-3.11 0-5.2 1.8-5.2 4.48 0 1.96.99 3.01 2.26 3.64h-4.37c-.33 0-.6.27-.6.6s.27.6.6.6h8.2c2.72.76 3.6 1.59 3.6 3.32 0 1.95-1.83 3.36-4.36 3.36-4.02 0-4.41-2.89-4.44-3.22s-.32-.57-.65-.54-.57.33-.54.65c.05.49.27 1.73 1.35 2.79 1.03 1.01 2.47 1.52 4.29 1.52 3.22 0 5.56-1.92 5.56-4.56 0-1.63-.68-2.63-1.68-3.32h2.83c.33 0 .6-.27.6-.6s-.29-.59-.62-.59z"/></svg>