<svg height="32" viewBox="0 0 32 32" width="32" xmlns="http://www.w3.org/2000/svg"><path d="m27.2467532 24.1205826c.3313709 0 .6.2686292.6.6 0 .2982338-.2175896.5456468-.5026768.592147l-.0973232.007853h-22.24486788c-.33137085 0-.6-.2686291-.6-.6 0-.2982338.21758961-.5456467.50267688-.592147l.09732312-.007853zm-.0888888-4.5551456c.3313708 0 .6.2686291.6.6 0 .2982337-.2175897.5456467-.5026769.592147l-.0973231.007853h-9.5723193c-.3313708 0-.6-.2686292-.6-.6 0-.2982338.2175896-.5456468.5026769-.5921471l.0973231-.0078529zm-17.10886-7.4297686.0948978.0688052 3.6573369 2.9338288c.2122013.1818868.3344755.4427384.3344755.7192058 0 .2403422-.0995965.476982-.265152.6473986l-.0881187.0794003-3.5463273 2.8363034c-.1597095.1437385-.37450185.215336-.59121639.215336-.13914553 0-.27706194-.030982-.40098377-.0916691-.28210635-.1297335-.47983565-.4025271-.52025978-.7066028l-.00764293-.1152764-.03512841-2.3053982-3.679.0009732c-.33137085 0-.6-.2686291-.6-.6 0-.2982337.21758961-.5456467.50267688-.592147l.09732312-.007853 3.661-.0009732-.03355913-2.2763832c0-.3184749.16124258-.6180244.42429098-.7888576l.10329921-.0578144c.29109348-.138616.62903274-.1231148.89208802.0417236zm17.10886 2.8746229c.3313708 0 .6.2686292.6.6 0 .2982338-.2175897.5456468-.5026769.592147l-.0973231.007853h-9.5723193c-.3313708 0-.6-.2686291-.6-.6 0-.2982338.2175896-.5456467.5026769-.592147l.0973231-.007853zm0-4.5551456c.3313708 0 .6.2686291.6.6 0 .2982337-.2175897.5456467-.5026769.592147l-.0973231.007853h-9.5723193c-.3313708 0-.6-.2686292-.6-.6 0-.2982338.2175896-.5456468.5026769-.5921471l.0973231-.0078529zm.0888888-4.5551457c.3313709 0 .6.26862915.6.6 0 .29823376-.2175896.54564675-.5026768.59214701l-.0973232.00785299h-22.24486788c-.33137085 0-.6-.26862915-.6-.6 0-.29823376.21758961-.54564675.50267688-.59214701l.09732312-.00785299z"/></svg>