<svg height="32" viewBox="0 0 32 32" width="32" xmlns="http://www.w3.org/2000/svg"><path d="m27.2467532 24.5102913c.3313709 0 .6.2686292.6.6 0 .2982338-.2175896.5456468-.5026768.592147l-.0973232.007853h-22.24486789c-.33137085 0-.6-.2686291-.6-.6 0-.2982338.21758962-.5456467.50267689-.592147l.09732311-.007853zm-12.6725486-4.5551456c.3313708 0 .6.2686291.6.6 0 .2982337-.2175896.5456467-.5026769.592147l-.0973231.007853h-9.57231929c-.33137085 0-.6-.2686292-.6-.6 0-.2982338.21758962-.5456468.50267689-.5921471l.09732311-.0078529zm7.6254296-7.6374505c.2301733-.1442337.5176797-.1741309.7809698-.0864897l.1111182.044766.1032992.0578145c.2301673.149479.3823896.3975065.4168488.670531l.0074422.1183265-.0335592 2.2763833 3.661.0009732.0973232.007853c.2850872.0465002.5026768.2939132.5026768.592147s-.2175896.5456468-.5026768.592147l-.0973232.007853-3.679-.0009732-.0351284 2.3053982-.0076429.1152764c-.0404241.3040757-.2381534.5768693-.5202598.7066028-.1239218.0606871-.2618382.091669-.4009837.091669-.1733717 0-.3455131-.0458223-.4892061-.1377454l-.1020103-.0775906-3.5463274-2.8363033-.0881186-.0794003c-.1655556-.1704166-.265152-.4070564-.265152-.6473986 0-.2369721.0898341-.4624713.2491321-.6366044l.0853434-.0826014 3.6573369-2.9338288zm-7.6254296 3.0823048c.3313708 0 .6.2686292.6.6 0 .2982338-.2175896.5456468-.5026769.592147l-.0973231.007853h-9.57231929c-.33137085 0-.6-.2686292-.6-.6 0-.2982338.21758962-.5456468.50267689-.592147l.09732311-.007853zm0-4.5551457c.3313708 0 .6.2686292.6.6 0 .2982338-.2175896.5456468-.5026769.5921471l-.0973231.0078529h-9.57231929c-.33137085 0-.6-.2686291-.6-.6 0-.2982337.21758962-.5456467.50267689-.592147l.09732311-.007853zm12.6725486-4.5551456c.3313709 0 .6.26862915.6.6 0 .29823376-.2175896.54564675-.5026768.59214701l-.0973232.00785299h-22.24486789c-.33137085 0-.6-.26862915-.6-.6 0-.29823377.21758962-.54564676.50267689-.59214702l.09732311-.00785298z"/></svg>