<svg height="32" viewBox="0 0 32 32" width="32" xmlns="http://www.w3.org/2000/svg"><path d="m7.485 15.83c.33 0 .6-.27.6-.6v-.01c0-.06.02-.36.46-.36.3 0 .45.12.45.35s-.2.46-.38.66l-1.37 1.54c-.1.11-.15.25-.15.4v.01c0 .33.27.6.6.6h1.98c.33 0 .6-.27.6-.6s-.27-.6-.6-.6h-.66l.5-.56c.25-.29.68-.77.68-1.45 0-.77-.57-1.55-1.65-1.55s-1.66.8-1.66 1.56v.01c0 .33.27.6.6.6zm.56-6.78.1-.06v2.73c0 .33.27.6.6.6s.6-.27.6-.6v-3.84c0-.33-.27-.6-.6-.6h-.01c-.12 0-.23.03-.33.1l-1.01.66c-.28.18-.36.55-.17.83.17.28.55.36.82.18zm5.2 1.91h11.4c.33 0 .6-.27.6-.6s-.27-.6-.6-.6h-11.4c-.33 0-.6.27-.6.6s.27.6.6.6zm11.4 4.86h-11.4c-.33 0-.6.27-.6.6s.27.6.6.6h11.4c.33 0 .6-.27.6-.6s-.27-.6-.6-.6zm-14.51 5.43c0-.88-.7-1.52-1.66-1.52-1.07 0-1.65.79-1.65 1.54 0 .33.27.6.6.6s.6-.27.6-.6c0-.06.02-.34.45-.34.21 0 .46.06.46.32 0 .28-.24.31-.25.31-.31.03-.54.29-.54.6 0 .32.24.58.56.6.02 0 .41.03.41.33 0 .31-.31.43-.58.43-.42 0-.58-.23-.58-.38 0-.33-.27-.6-.6-.6s-.6.27-.6.6c0 .99.91 1.58 1.78 1.58 1.01 0 1.78-.7 1.78-1.63 0-.36-.14-.74-.41-1.03.15-.22.23-.49.23-.81zm14.51.63h-11.4c-.33 0-.6.27-.6.6s.27.6.6.6h11.4c.33 0 .6-.27.6-.6s-.27-.6-.6-.6z"/></svg>