<svg height="32" viewBox="0 0 32 32" width="32" xmlns="http://www.w3.org/2000/svg"><path d="m22.7486667 6.86c-.75-.75-1.75-1.16-2.81-1.16h-.01c-1.06 0-2.06.42-2.82 1.17l-5.12 5.12c-1.55 1.55-1.56 4.08-.01 5.63.75.75 1.75 1.16 2.81 1.16h.01c1.06 0 2.06-.42 2.82-1.17.23-.23.23-.61 0-.85-.23-.23-.61-.23-.85 0-.53.53-1.23.82-1.97.82s-1.44-.29-1.96-.81c-1.08-1.08-1.08-2.85.01-3.94l5.11-5.11c.53-.53 1.23-.82 1.97-.82s1.44.29 1.96.81.81 1.22.81 1.97c0 .74-.29 1.44-.82 1.97l-.86.86c-.23.23-.23.61 0 .85.23.23.61.23.85 0l.86-.86c.75-.75 1.17-1.75 1.17-2.82.01-1.07-.4-2.07-1.15-2.82zm-5.54 6.35c-1.07 0-2.07.42-2.82 1.17-.23.23-.23.61 0 .85.23.23.61.23.85 0 .53-.53 1.23-.82 1.97-.82s1.44.29 1.96.81c1.08 1.08 1.08 2.85-.01 3.94l-5.12 5.12c-1.09 1.09-2.85 1.09-3.93.01s-1.08-2.85.01-3.93l.86-.86c.23-.23.23-.61 0-.85-.23-.23-.61-.23-.85 0l-.86.86c-1.55 1.55-1.56 4.08-.01 5.63.77.77 1.79 1.16 2.81 1.16s2.04-.39 2.82-1.17l5.12-5.12c1.55-1.55 1.56-4.08.01-5.63-.75-.76-1.75-1.17-2.81-1.17z"/></svg>