<svg height="32" viewBox="0 0 32 32" width="32" xmlns="http://www.w3.org/2000/svg"><g fill="none"><path d="m13.27 10.575h10c.33 0 .6-.27.6-.6s-.27-.6-.6-.6h-10c-.33 0-.6.27-.6.6s.27.6.6.6z" fill="#005a7d"/><path d="m9.13 8.975c-.55 0-1 .44-1 1 0 .55.45 1 1 1s1-.44 1-1c0-.55-.45-1-1-1z" fill="#c33c75"/><path d="m23.27 15.485h-10c-.33 0-.6.27-.6.6s.27.6.6.6h10c.33 0 .6-.27.6-.6s-.27-.6-.6-.6z" fill="#005a7d"/><path d="m9.13 15.085c-.55 0-1 .44-1 1 0 .55.45 1 1 1s1-.44 1-1c0-.55-.45-.99-1-1z" fill="#c33c75"/><path d="m23.08 21.425h-10c-.33 0-.6.27-.6.6s.27.6.6.6h10c.33 0 .6-.27.6-.6s-.27-.6-.6-.6z" fill="#005a7d"/><path d="m9.13 21.025c-.55 0-1 .44-1 1 0 .55.45 1 1 1s1-.44 1-1c0-.55-.45-1-1-1z" fill="#c33c75"/></g></svg>