<svg height="32" viewBox="0 0 32 32" width="32" xmlns="http://www.w3.org/2000/svg"><path d="m9.13 20.825c.66045695 0 1.2.5395431 1.2 1.2 0 .6673197-.53637948 1.2-1.2 1.2-.66045695 0-1.2-.5395431-1.2-1.2 0-.6673197.53637948-1.2 1.2-1.2zm13.95.4c.4404569 0 .8.3595431.8.8 0 .4065756-.3063562.7442069-.6999193.7937444l-.1000807.0062556h-10c-.4404569 0-.8-.3595431-.8-.8 0-.4065756.3063562-.7442069.6999193-.7937444l.1000807-.0062556zm-13.94636424-6.339967c.66145822.0120266 1.19636424.5432436 1.19636424 1.199967 0 .6673197-.53637948 1.2-1.2 1.2-.66045695 0-1.2-.5395431-1.2-1.2 0-.6256122.47142727-1.132889 1.07716215-1.1938548zm14.13636424.399967c.4404569 0 .8.3595431.8.8 0 .4065756-.3063562.7442069-.6999193.7937444l-.1000807.0062556h-10c-.4404569 0-.8-.3595431-.8-.8 0-.4065756.3063562-.7442069.6999193-.7937444l.1000807-.0062556zm-14.14-6.51c.66045695 0 1.2.53954305 1.2 1.2 0 .6673197-.53637948 1.2-1.2 1.2-.66045695 0-1.2-.5395431-1.2-1.2 0-.66731969.53637948-1.2 1.2-1.2zm14.14.4c.4404569 0 .8.35954305.8.8 0 .4065756-.3063562.7442069-.6999193.7937444l-.1000807.0062556h-10c-.4404569 0-.8-.3595431-.8-.8 0-.40657565.3063562-.7442069.6999193-.7937444l.1000807-.0062556z"/></svg>