<svg height="32" viewBox="0 0 32 32" width="32" xmlns="http://www.w3.org/2000/svg"><path d="m6.91952625 15.918135 6.53999995-6.52000003c.23-.23.24-.61 0-.85-.23-.23-.61-.24-.85 0l-6.96999995 6.95000003c-.11.11-.18.27-.18.42s.06.31.18.42l7.12999995 7.11c.12.12.27.18.42.18s.31-.06.42-.18c.23-.23.23-.61 0-.85zm19.44999995-.26-7.13-7.11000003c-.23-.23-.61-.23-.85 0-.23.23-.23.61 0 .85l6.7 6.68000003-6.54 6.52c-.23.23-.24.61 0 .85.12.12.27.18.42.18s.31-.06.42-.18l6.97-6.95c.11-.11.18-.27.18-.42.01-.15-.06-.31-.17-.42z" fill="#005a7d"/></svg>