<svg height="32" viewBox="0 0 32 32" width="32" xmlns="http://www.w3.org/2000/svg"><g fill="none" fill-rule="evenodd"><path d="m15.2178226 12.2637893-.0003571 1.79-3.3373029.0008572-.1003503.0062331c-.3944615.0493653-.6996497.3859259-.6996497.7937669s.3051882.7444016.6996497.7937669l.1003503.0062331 3.3373029-.0008572v1.27l-1.5192907.0008996-.1003503.0062332c-.3944616.0493653-.6996497.3859258-.6996497.7937668 0 .4078411.3051881.7444016.6996497.7937669l.1003503.0062331 1.5192907-.0008996v1.151l-1.5192907.0006352-.1003503.0062332c-.3944616.0493653-.6996497.3859258-.6996497.7937668 0 .4078411.3051881.7444016.6996497.7937669l.1003503.0062331 1.5192907-.0006352v1.219l-1.5192907.0005462-.1003503.0062331c-.3944616.0493653-.6996497.3859258-.6996497.7937669 0 .407841.3051881.7444015.6996497.7937668l.1003503.0062332 1.5192907-.0005462.0003571 1.862-8.74900001.000605c-1.1045695 0-2-.8954305-2-2v-9.6922991c0-1.1045695.8954305-2 2-2zm10.3490565.0003059c1.1045695 0 2 .8954305 2 2v9.6922991c0 1.1045695-.8954305 2-2 2l-8.7490565-.000605-.0003571-1.862 1.6116506.0005462.1003503-.0062332c.3944615-.0493653.6996497-.3859258.6996497-.7937668 0-.4078411-.3051882-.7444016-.6996497-.7937669l-.1003503-.0062331-1.6116506-.0005462v-1.219l1.6116506.0006352.1003503-.0062331c.3944615-.0493653.6996497-.3859258.6996497-.7937669 0-.407841-.3051882-.7444015-.6996497-.7937668l-.1003503-.0062332-1.6116506-.0006352v-1.151l1.6116506.0008996.1003503-.0062331c.3944615-.0493653.6996497-.3859258.6996497-.7937669 0-.407841-.3051882-.7444015-.6996497-.7937668l-.1003503-.0062332-1.6116506-.0008996v-1.27l3.3559429.0008572.1003503-.0062331c.3944615-.0493653.6996497-.3859259.6996497-.7937669s-.3051882-.7444016-.6996497-.7937669l-.1003503-.0062331-3.3559429-.0008572.0003571-1.79zm-15.4584136 3.8890563c-.40784107 0-.74440161.3051881-.79376689.6996497l-.00623313.1003503v6.6014064l.00623313.1003503.02042158.1052048c.09072562.3422233.4025807.5944449.77334531.5944449.407841 0 .7444016-.3051882.7937668-.6996497l.0062332-.1003503v-6.6014064l-.0062332-.1003503-.0204215-.1052048c-.0907257-.3422233-.4025807-.5944449-.7733453-.5944449zm11.8187707 0c-.4078411 0-.7444016.3051881-.7937669.6996497l-.0062331.1003503v6.6014064l.0062331.1003503.0204216.1052048c.0907256.3422233.4025807.5944449.7733453.5944449.407841 0 .7444016-.3051882.7937669-.6996497l.0062331-.1003503v-6.6014064l-.0062331-.1003503-.0204216-.1052048c-.0907256-.3422233-.4025807-.5944449-.7733453-.5944449z" fill="#005a7d"/><path d="m16.0178881 4.0892557c1.9407756 0 3.5139734 1.57328881 3.5139734 3.51401064 0 1.94072182-1.5731978 3.51401066-3.5139734 3.51401066-1.9407013 0-3.5140479-1.57328884-3.5140479-3.51401066 0-1.94072183 1.5733466-3.51401064 3.5140479-3.51401064z" fill="#ff82bb"/></g></svg>