<svg height="32" viewBox="0 0 32 32" width="32" xmlns="http://www.w3.org/2000/svg"><path d="m25.5668791 12.0640952c1.7063694 0 3.100796 1.3355862 3.1949343 3.0184134l.0050657.1815866v8.6922991c0 1.7063695-1.3355863 3.100796-3.0184881 3.1949344l-.1815949.0050656h-19.09797351c-1.70636943 0-3.10079599-1.3355862-3.19493436-3.0184134l-.00506564-.1815866v-8.6922991c0-1.7063695 1.33558623-3.100796 3.01837563-3.1949344l.18158242-.0050656zm-10.2500565 1.1996941-8.84800001.0003059-.15665047.0060444c-.92756063.0718635-1.67769495.7764897-1.81928258 1.6827581l-.01858121.1619351-.00548574.1492624v8.6922991l.00604447.1566505c.0718635.9275606.77648963 1.6776949 1.68275804 1.8192826l.16193515.0185812.14926234.0054857 8.84800001-.000605.0006429-1.4418309h-1.6193267l-.0941149-.0060407-.1000037-.0203157c-.2919075-.0826358-.5058454-.3551416-.5058454-.6736436 0-.2839236.170515-.5340254.4221003-.6427498l.09797-.0339345.0986349-.0189149.0874942-.0045931 1.6130913-.0003538v-1.4183648h-1.6193325l-.0941091-.0060408-.1000037-.0203157c-.2919075-.0826357-.5058454-.3551416-.5058454-.6736435 0-.2839236.170515-.5340255.4221003-.6427498l.09797-.0339345.0986349-.0189149.0874942-.0045931 1.6130913-.0004429v-1.3501004h-1.6193499l-.0940917-.0060408-.1000037-.0203157c-.2919075-.0826357-.5058454-.3551416-.5058454-.6736435 0-.2839236.170515-.5340254.4221003-.6427498l.09797-.0339345.0986349-.0189149.0874942-.0045931h1.6130913v-1.4698501h-3.4373286l-.0941252-.0060408-.1000037-.0203157c-.2919075-.0826358-.5058454-.3551416-.5058454-.6736435 0-.2839237.1705151-.5340255.4221004-.6427499l.0979699-.0339345.098635-.0189149.0874941-.0045931 3.4311035-.0006648zm10.2500565.0003059-8.8490565-.0003059-.0003571 1.408783 3.4559173.0008572.0941764.0060408.1021078.0198444c.2968168.0789741.5037414.3288591.5037414.6401074 0 .2910765-.1767269.5641318-.424171.6764049l-.0958994.0342869-.0986349.0189149-.0874942.0045931h-3.4497434v1.4689504l1.7115948.0008997.0942067.0060408.1000037.0203156c.2919075.0826358.5058454.3551416.5058454.6736436 0 .2839236-.1705151.5340254-.4221004.6427498l-.0979699.0339345-.098635.0189149-.0874941.0045931h-1.7054512v1.349908l1.7116112.0006353.0941903.0060408.1000037.0203156c.2919075.0826358.5058454.3551416.5058454.6736436 0 .2839236-.1705151.5340254-.4221004.6427498l-.0979699.0339345-.098635.0189149-.0874941.0045931h-1.7054512v1.4181724l1.7116167.0005462.0941848.0060408.1000037.0203157c.2919075.0826358.5058454.3551416.5058454.6736435 0 .2839236-.1705151.5340255-.4221004.6427498l-.0979699.0339345-.098635.0189149-.0874941.0045932h-1.7054512l.0003571 1.4424784 8.8490565.000605.1492623-.0054857.1619352-.0185812c.8529585-.133259 1.5272996-.8055766 1.6635955-1.657525l.0191625-.1617576.0060445-.1566505v-8.6922991l-.0060445-.1566505c-.0718635-.9275606-.7764896-1.6776949-1.682758-1.8192826l-.1619352-.0185812zm-15.4584136 3.3944381c.2859542 0 .5398622.173032.647238.4328361l.0313595.0935911.0170017.0922781.0045931.0874941-.0001923 6.595207-.0060408.0941509-.0187816.0923486c-.0791552.2976924-.3557635.5135005-.6751776.5135005-.28595428 0-.53986229-.173032-.64723802-.4328361l-.03135957-.0935911-.01700166-.0922781-.00459312-.0874941.00019235-6.595207.00604078-.0941509.01878157-.0923486c.0791552-.2976924.35576356-.5135005.67517767-.5135005zm11.8187707 0c.2859542 0 .5398623.173032.647238.4328361l.0313596.0935911.0170016.0922781.0045931.0874941-.0001923 6.595207-.0060408.0941509-.0187816.0923486c-.0791552.2976924-.3557635.5135005-.6751776.5135005-.2859543 0-.5398623-.173032-.647238-.4328361l-.0313596-.0935911-.0170016-.0922781-.0045932-.0874941.0001924-6.595207.0060408-.0941509.0187815-.0923486c.0791552-.2976924.3557636-.5135005.6751777-.5135005zm-5.9093481-12.5692776c1.9407756 0 3.5139734 1.57328881 3.5139734 3.51401064 0 1.94072182-1.5731978 3.51401066-3.5139734 3.51401066-1.9407013 0-3.5140479-1.57328884-3.5140479-3.51401066 0-1.94072183 1.5733466-3.51401064 3.5140479-3.51401064zm0 1.2c-1.2779788 0-2.3140479 1.03604972-2.3140479 2.31401064 0 1.27796091 1.0360691 2.31401063 2.3140479 2.31401063 1.2780015 0 2.3139734-1.03599804 2.3139734-2.31401063 0-1.2780126-1.0359719-2.31401064-2.3139734-2.31401064z"/></svg>