<svg width="49" height="58" viewBox="0 0 49 58" fill="none" xmlns="http://www.w3.org/2000/svg">
<g filter="url(#filter0_d_2855_367889)">
<path fill-rule="evenodd" clip-rule="evenodd" d="M8.19853 37.3575C-0.150509 28.7333 -0.0653148 14.9735 8.45411 6.45411C17.0596 -2.15137 31.0118 -2.15137 39.6173 6.45411C48.2228 15.0596 48.2228 29.0118 39.6173 37.6173C39.3204 37.9142 39.0172 38.2008 38.708 38.4772L24.0105 53.1737L8.45411 37.6173L8.19853 37.3575Z" fill="#FFCE34"/>
<path d="M8.80762 6.80762C17.2178 -1.60258 30.8535 -1.60254 39.2637 6.80762C47.6739 15.2178 47.6739 28.8535 39.2637 37.2637C38.9734 37.5539 38.6772 37.8343 38.375 38.1045L38.3643 38.1143L38.3545 38.124L24.0107 52.4668L8.80762 37.2637L8.55469 37.0068C0.398189 28.5782 0.482541 15.1327 8.80762 6.80762Z" stroke="white"/>
</g>
<rect width="27" height="27" transform="translate(10.5352 7.5)" fill="#FFCE34"/>
<path fill-rule="evenodd" clip-rule="evenodd" d="M18.8093 24.0961L18.8039 24.3127L18.8031 30.2812H13.9102V26.5731C13.9102 25.4925 14.5837 24.5265 15.5977 24.153C16.6327 23.7716 17.7647 23.7527 18.8093 24.0961ZM33.3164 24.153C34.3303 24.5265 35.0039 25.4925 35.0039 26.5731V30.2812H30.1093L30.1102 24.3127L30.1042 24.0966L30.1606 24.0781C31.1897 23.7535 32.2998 23.7784 33.3164 24.153ZM22.1367 21C23.6356 20.455 25.2785 20.455 26.7773 21C28.1146 21.4863 29.0227 22.7258 29.0932 24.1356L29.0977 24.3127V30.2812H19.8164V24.3127L19.8208 24.1356C19.8913 22.7258 20.7994 21.4863 22.1367 21ZM17.2852 16.7812C18.6831 16.7812 19.8164 17.9145 19.8164 19.3125C19.8164 20.7105 18.6831 21.8438 17.2852 21.8438C15.8872 21.8438 14.7539 20.7105 14.7539 19.3125C14.7539 17.9145 15.8872 16.7812 17.2852 16.7812ZM31.6289 16.7812C33.0269 16.7812 34.1602 17.9145 34.1602 19.3125C34.1602 20.7105 33.0269 21.8438 31.6289 21.8438C30.2309 21.8438 29.0977 20.7105 29.0977 19.3125C29.0977 17.9145 30.2309 16.7812 31.6289 16.7812ZM24.3159 11.7188C26.2726 11.7188 27.8587 13.3348 27.8587 15.3283C27.8587 17.2028 26.4563 18.7435 24.6621 18.9208L24.4928 18.9334L24.3159 18.9378L24.1391 18.9334C22.2646 18.8395 20.7732 17.2614 20.7732 15.3283C20.7732 13.3348 22.3593 11.7188 24.3159 11.7188Z" fill="#3C3C3C"/>
<defs>
<filter id="filter0_d_2855_367889" x="0" y="0" width="48.0723" height="57.1737" filterUnits="userSpaceOnUse" color-interpolation-filters="sRGB">
<feFlood flood-opacity="0" result="BackgroundImageFix"/>
<feColorMatrix in="SourceAlpha" type="matrix" values="0 0 0 0 0 0 0 0 0 0 0 0 0 0 0 0 0 0 127 0" result="hardAlpha"/>
<feOffset dy="2"/>
<feGaussianBlur stdDeviation="1"/>
<feComposite in2="hardAlpha" operator="out"/>
<feColorMatrix type="matrix" values="0 0 0 0 0 0 0 0 0 0 0 0 0 0 0 0 0 0 0.25 0"/>
<feBlend mode="normal" in2="BackgroundImageFix" result="effect1_dropShadow_2855_367889"/>
<feBlend mode="normal" in="SourceGraphic" in2="effect1_dropShadow_2855_367889" result="shape"/>
</filter>
</defs>
</svg>
