<svg width="60" height="61" viewBox="0 0 60 61" fill="none" xmlns="http://www.w3.org/2000/svg">
<g filter="url(#filter0_d_2854_367886)">
<path fill-rule="evenodd" clip-rule="evenodd" d="M14.1634 40.3575C5.81433 31.7333 5.89953 17.9735 14.419 9.45411C23.0244 0.84863 36.9767 0.84863 45.5821 9.45411C54.1876 18.0596 54.1876 32.0118 45.5821 40.6173C45.2853 40.9142 44.982 41.2008 44.6728 41.4772L29.9753 56.1737L14.419 40.6173L14.1634 40.3575Z" fill="#005FCF"/>
<path d="M14.7725 9.80762C23.1827 1.39742 36.8183 1.39746 45.2285 9.80762C53.6387 18.2178 53.6387 31.8535 45.2285 40.2637C44.9383 40.5539 44.642 40.8343 44.3398 41.1045L44.3291 41.1143L44.3193 41.124L29.9756 55.4668L14.7725 40.2637L14.5195 40.0068C6.36303 31.5782 6.44738 18.1327 14.7725 9.80762Z" stroke="white"/>
</g>
<rect width="27" height="27" transform="translate(16.5 10.5)" fill="#005FCF"/>
<path fill-rule="evenodd" clip-rule="evenodd" d="M24.7742 27.0961L24.7688 27.3127L24.7679 33.2812H19.875V29.5731C19.875 28.4925 20.5486 27.5265 21.5625 27.153C22.5975 26.7716 23.7295 26.7527 24.7742 27.0961ZM39.2812 27.153C40.2952 27.5265 40.9688 28.4925 40.9688 29.5731V33.2812H36.0742L36.075 27.3127L36.0691 27.0966L36.1255 27.0781C37.1545 26.7535 38.2646 26.7784 39.2812 27.153ZM28.1016 24C29.6004 23.455 31.2433 23.455 32.7422 24C34.0795 24.4863 34.9876 25.7258 35.0581 27.1356L35.0625 27.3127V33.2812H25.7812V27.3127L25.7857 27.1356C25.8562 25.7258 26.7643 24.4863 28.1016 24ZM23.25 19.7812C24.648 19.7812 25.7812 20.9145 25.7812 22.3125C25.7812 23.7105 24.648 24.8438 23.25 24.8438C21.852 24.8438 20.7188 23.7105 20.7188 22.3125C20.7188 20.9145 21.852 19.7812 23.25 19.7812ZM37.5938 19.7812C38.9917 19.7812 40.125 20.9145 40.125 22.3125C40.125 23.7105 38.9917 24.8438 37.5938 24.8438C36.1958 24.8438 35.0625 23.7105 35.0625 22.3125C35.0625 20.9145 36.1958 19.7812 37.5938 19.7812ZM30.2808 14.7188C32.2374 14.7188 33.8236 16.3348 33.8236 18.3283C33.8236 20.2028 32.4211 21.7435 30.6269 21.9208L30.4576 21.9334L30.2808 21.9378L30.104 21.9334C28.2295 21.8395 26.738 20.2614 26.738 18.3283C26.738 16.3348 28.3242 14.7188 30.2808 14.7188Z" fill="white"/>
<defs>
<filter id="filter0_d_2854_367886" x="5.96484" y="3" width="48.0723" height="57.1737" filterUnits="userSpaceOnUse" color-interpolation-filters="sRGB">
<feFlood flood-opacity="0" result="BackgroundImageFix"/>
<feColorMatrix in="SourceAlpha" type="matrix" values="0 0 0 0 0 0 0 0 0 0 0 0 0 0 0 0 0 0 127 0" result="hardAlpha"/>
<feOffset dy="2"/>
<feGaussianBlur stdDeviation="1"/>
<feComposite in2="hardAlpha" operator="out"/>
<feColorMatrix type="matrix" values="0 0 0 0 0 0 0 0 0 0 0 0 0 0 0 0 0 0 0.25 0"/>
<feBlend mode="normal" in2="BackgroundImageFix" result="effect1_dropShadow_2854_367886"/>
<feBlend mode="normal" in="SourceGraphic" in2="effect1_dropShadow_2854_367886" result="shape"/>
</filter>
</defs>
</svg>
