<svg width="291" height="24" viewBox="0 0 291 24" fill="none" xmlns="http://www.w3.org/2000/svg">
<g clip-path="url(#clip0_20214_21715)">
<path fill-rule="evenodd" clip-rule="evenodd" d="M11.562 4.36857C11.6422 4.46842 11.6587 4.58121 11.5228 4.6934C11.3569 4.83023 11.1297 4.71559 10.9325 4.68168C9.9786 4.49924 7.08855 3.97964 5.94843 4.93131C5.33124 5.45522 5.54921 6.12521 4.89834 6.66823C4.24441 7.21311 3.637 6.87533 3.01123 7.39986C1.87052 8.35216 1.86072 11.3052 1.86134 12.2821C1.86134 12.4849 1.93359 12.7308 1.76765 12.8713C1.63539 12.9823 1.52457 12.9465 1.44374 12.8467C1.13882 12.4787 -0.655217 6.25526 2.41914 3.67455C5.49778 1.09382 11.2515 3.99752 11.562 4.36857ZM1.28522 3.58011C1.98936 3.58011 2.5637 3.0038 2.5637 2.29128C2.5637 1.57938 1.98936 1 1.28522 1C0.574949 1 0 1.57938 0 2.29128C0 3.0038 0.574949 3.58011 1.28522 3.58011Z" fill="#F37321"/>
<path fill-rule="evenodd" clip-rule="evenodd" d="M14.5308 17.952C14.4053 17.9718 14.3 17.928 14.2724 17.7511C14.2363 17.5391 14.453 17.4004 14.5896 17.2475C15.2313 16.5208 17.1618 14.2982 16.9334 12.8208C16.8104 12.014 16.1326 11.8593 15.9991 11.0173C15.8717 10.1747 16.4761 9.82035 16.3524 9.01472C16.1222 7.5398 13.613 6.00626 12.7808 5.51009C12.6131 5.40716 12.362 5.33998 12.3308 5.12856C12.3014 4.95105 12.3914 4.87647 12.5151 4.85675C12.9872 4.78463 19.2125 6.43957 19.8296 10.4225C20.4389 14.4061 15.0023 17.8775 14.5308 17.952ZM21.585 11.44C22.291 11.44 22.8648 10.8631 22.8648 10.1488C22.8648 9.4381 22.291 8.86054 21.585 8.86054C20.8766 8.86054 20.3035 9.4381 20.3035 10.1488C20.3035 10.8631 20.8766 11.44 21.585 11.44Z" fill="#00A389"/>
<path fill-rule="evenodd" clip-rule="evenodd" d="M1.56645 13.9176C1.60992 13.798 1.69993 13.7308 1.86525 13.7955C2.06364 13.8732 2.07772 14.1296 2.1365 14.3238C2.4353 15.2483 3.38008 18.6124 6.34792 19.786C9.31448 20.9552 12.2804 19.1357 13.1224 18.6617C13.2999 18.5619 13.4787 18.3807 13.6814 18.4614C13.8467 18.5274 13.8682 18.6352 13.8173 18.7591C13.6453 19.2048 9.08856 23.785 5.36209 22.3137C1.63625 20.8406 1.39255 14.3663 1.56645 13.9176ZM6.99936 19.2738C7.70169 19.2776 8.28518 18.708 8.28764 17.9955C8.29374 17.2811 7.72432 16.695 7.01589 16.6931C6.31177 16.687 5.72945 17.2583 5.72455 17.9721C5.71721 18.6846 6.28974 19.267 6.99936 19.2738Z" fill="#2A51A3"/>
<path fill-rule="evenodd" clip-rule="evenodd" d="M36.5763 3.96436V8.75105H36.2046C36.0791 7.8345 35.8611 7.10165 35.5452 6.55679C35.2311 6.01315 34.7823 5.58046 34.1969 5.26303C33.6103 4.9413 33.0078 4.77919 32.3814 4.77919C31.6743 4.77919 31.0914 4.99738 30.6309 5.42822C30.1674 5.86153 29.9353 6.35092 29.9353 6.90442C29.9353 7.32661 30.0829 7.70751 30.3725 8.05456C30.7913 8.56551 31.7918 9.24476 33.3691 10.0972C34.6586 10.7875 35.536 11.3188 36.0112 11.6905C36.4789 12.0609 36.8421 12.4948 37.0955 13.0021C37.3539 13.5051 37.48 14.0321 37.48 14.585C37.48 15.6284 37.0735 16.532 36.2665 17.2902C35.4528 18.0489 34.41 18.4268 33.137 18.4268C32.7329 18.4268 32.36 18.3959 32.0067 18.333C31.7949 18.2979 31.3583 18.1728 30.7019 17.9583C30.0357 17.7407 29.6218 17.6329 29.4418 17.6329C29.2734 17.6329 29.1393 17.6834 29.0407 17.7863C28.9403 17.8917 28.8681 18.105 28.8209 18.4268H28.4511V13.6826H28.8209C28.9991 14.6743 29.2355 15.4195 29.5342 15.9144C29.8306 16.4063 30.2874 16.818 30.9015 17.1441C31.5163 17.4689 32.1904 17.6329 32.9203 17.6329C33.7689 17.6329 34.44 17.4079 34.9304 16.9616C35.424 16.5111 35.6695 15.9804 35.6695 15.3683C35.6695 15.0281 35.5752 14.6848 35.3915 14.339C35.2011 13.9926 34.9158 13.669 34.519 13.3682C34.2563 13.1649 33.5356 12.7303 32.3545 12.0714C31.1752 11.4076 30.3358 10.8806 29.8373 10.4849C29.3371 10.091 28.9569 9.65403 28.6997 9.17883C28.4395 8.70485 28.3115 8.18027 28.3115 7.60766C28.3115 6.61411 28.6948 5.75982 29.4553 5.04053C30.2151 4.32431 31.1844 3.96436 32.36 3.96436C33.0923 3.96436 33.8694 4.14433 34.6947 4.50367C35.0768 4.67318 35.3468 4.75823 35.4993 4.75823C35.6762 4.75823 35.8226 4.70584 35.9334 4.59921C36.0455 4.49382 36.133 4.28055 36.2046 3.96436H36.5763Z" fill="#2A51A3"/>
<path fill-rule="evenodd" clip-rule="evenodd" d="M46.7784 14.5731C46.5237 15.8119 46.0351 16.7574 45.2991 17.4157C44.5619 18.0746 43.7512 18.4013 42.8616 18.4013C41.8035 18.4013 40.8814 17.9587 40.0897 17.0644C39.3004 16.1725 38.9043 14.9632 38.9043 13.4432C38.9043 11.9726 39.3439 10.7744 40.2195 9.85474C41.0908 8.9327 42.1421 8.47534 43.3673 8.47534C44.2882 8.47534 45.0414 8.71508 45.6353 9.20263C46.2225 9.68528 46.5207 10.1926 46.5207 10.7165C46.5207 10.9728 46.4368 11.1805 46.2703 11.3408C46.1037 11.5011 45.871 11.5824 45.5722 11.5824C45.1712 11.5824 44.8718 11.4499 44.6734 11.1904C44.5503 11.0437 44.4695 10.7719 44.4297 10.3632C44.3936 9.96077 44.2582 9.65136 44.0164 9.43564C43.7819 9.23226 43.4476 9.12868 43.0275 9.12868C42.346 9.12868 41.7962 9.37832 41.3866 9.88683C40.8318 10.5617 40.5575 11.4462 40.5575 12.5483C40.5575 13.6731 40.8275 14.6636 41.3755 15.5253C41.9241 16.3864 42.6614 16.816 43.5884 16.816C44.2582 16.816 44.854 16.5929 45.3873 16.1454C45.7578 15.831 46.1227 15.2622 46.4754 14.4313L46.7784 14.5731Z" fill="#2A51A3"/>
<path fill-rule="evenodd" clip-rule="evenodd" d="M50.7678 8.47534V10.5722C51.5405 9.17427 52.3353 8.47534 53.1502 8.47534C53.5207 8.47534 53.8268 8.58754 54.0705 8.81555C54.313 9.04178 54.4361 9.30682 54.4361 9.60639C54.4361 9.8702 54.3442 10.0952 54.1685 10.2776C53.9928 10.4619 53.7852 10.5531 53.5415 10.5531C53.3039 10.5531 53.0412 10.4354 52.7504 10.2018C52.4571 9.96755 52.2343 9.85169 52.0971 9.85169C51.9765 9.85169 51.8424 9.91946 51.704 10.0532C51.4003 10.3362 51.0886 10.7954 50.7678 11.4326V15.9272C50.7678 16.448 50.8321 16.84 50.9619 17.1063C51.0519 17.2937 51.2074 17.4459 51.4364 17.5673C51.6636 17.6888 51.9881 17.7516 52.4137 17.7516V18.1239H47.612V17.7516C48.0841 17.7516 48.4392 17.674 48.6652 17.5217C48.8384 17.4133 48.9505 17.2382 49.0178 16.9978C49.0558 16.8795 49.073 16.546 49.073 15.9968V12.3733C49.073 11.2921 49.0503 10.6425 49.0074 10.4354C48.9627 10.2289 48.8819 10.0772 48.7631 9.98485C48.6468 9.88621 48.4992 9.83934 48.3241 9.83934C48.1147 9.83934 47.8838 9.88988 47.6188 9.99285L47.5146 9.61806L50.338 8.47534H50.7678Z" fill="#2A51A3"/>
<path fill-rule="evenodd" clip-rule="evenodd" d="M58.4842 8.47564V15.9971C58.4842 16.5864 58.5258 16.9753 58.6128 17.1725C58.6899 17.3649 58.8185 17.5103 58.9838 17.6077C59.1424 17.7008 59.4431 17.7519 59.8774 17.7519V18.1242H55.3737V17.7519C55.8238 17.7519 56.1305 17.7051 56.2866 17.6151C56.4354 17.5269 56.5616 17.3809 56.6534 17.1775C56.7452 16.9692 56.7924 16.5759 56.7924 15.9971V12.421C56.7924 11.3966 56.7587 10.7284 56.7012 10.4276C56.6534 10.2076 56.5769 10.0523 56.477 9.96662C56.3748 9.88339 56.2365 9.83964 56.0626 9.83964C55.874 9.83964 55.6468 9.89017 55.375 9.99315L55.2354 9.61835L58.0384 8.47564H58.4842ZM57.6403 3.58899C57.9256 3.58899 58.1693 3.69131 58.3689 3.89224C58.5734 4.09441 58.6695 4.33849 58.6695 4.6251C58.6695 4.91047 58.5734 5.15579 58.3689 5.36289C58.1693 5.56814 57.9256 5.67107 57.6403 5.67107C57.3556 5.67107 57.1137 5.56814 56.9079 5.36289C56.7053 5.15579 56.6067 4.91047 56.6067 4.6251C56.6067 4.33849 56.7004 4.09441 56.9061 3.89224C57.1045 3.69131 57.35 3.58899 57.6403 3.58899Z" fill="#2A51A3"/>
<path fill-rule="evenodd" clip-rule="evenodd" d="M60.2083 9.66456L63.071 8.52056H63.4589V10.6939C63.9378 9.8735 64.4203 9.29655 64.9016 8.96741C65.3877 8.63832 65.8959 8.47559 66.4323 8.47559C67.3638 8.47559 68.1438 8.8417 68.7652 9.58011C69.5273 10.4806 69.911 11.6493 69.911 13.0977C69.911 14.7144 69.4489 16.0482 68.5324 17.1047C67.7733 17.9726 66.8184 18.4015 65.6685 18.4015C65.171 18.4015 64.7394 18.3325 64.37 18.1919C64.1006 18.0872 63.7959 17.885 63.4589 17.5811V20.4361C63.4589 21.0809 63.4948 21.4895 63.575 21.6646C63.6528 21.839 63.7875 21.9758 63.9803 22.0819C64.1773 22.1829 64.5281 22.2359 65.0375 22.2359V22.6076H60.1406V22.2359H60.3962C60.7674 22.2433 61.0871 22.1724 61.3565 22.022C61.4864 21.9469 61.5821 21.8273 61.6552 21.6596C61.7276 21.4926 61.7671 21.0691 61.7671 20.3912V11.4884C61.7671 10.8843 61.736 10.5009 61.6839 10.3383C61.6276 10.1743 61.5432 10.0535 61.4271 9.97214C61.3062 9.88951 61.1493 9.84759 60.9494 9.84759C60.7824 9.84759 60.5806 9.89691 60.3286 9.9931L60.2083 9.66456ZM63.4589 11.298V14.8051C63.4589 15.5614 63.487 16.0612 63.5499 16.2992C63.6463 16.6948 63.8731 17.0443 64.2437 17.3464C64.6131 17.6459 65.0758 17.7957 65.6361 17.7957C66.3126 17.7957 66.8592 17.5288 67.2806 16.995C67.8266 16.2992 68.1025 15.3185 68.1025 14.0544C68.1025 12.6182 67.79 11.5149 67.1669 10.7457C66.7346 10.2101 66.2228 9.94323 65.6295 9.94323C65.3051 9.94323 64.9842 10.0289 64.6645 10.1916C64.4239 10.313 64.0198 10.6816 63.4589 11.298Z" fill="#2A51A3"/>
<path fill-rule="evenodd" clip-rule="evenodd" d="M70.6044 9.66432L73.4665 8.52032H73.8532V10.6936C74.3363 9.87326 74.8152 9.29637 75.2953 8.96723C75.788 8.63808 76.2932 8.47534 76.8296 8.47534C77.7593 8.47534 78.5369 8.84146 79.1631 9.57986C79.9276 10.4804 80.3077 11.649 80.3077 13.0975C80.3077 14.7142 79.8486 16.048 78.9267 17.1045C78.1682 17.9723 77.2157 18.4013 76.064 18.4013C75.5671 18.4013 75.1295 18.3323 74.7685 18.1917C74.4979 18.087 74.1908 17.8847 73.8532 17.5809V20.4359C73.8532 21.0806 73.8921 21.4893 73.9729 21.6643C74.0501 21.8388 74.1836 21.9756 74.3794 22.0816C74.5728 22.1827 74.9248 22.2357 75.4318 22.2357V22.6073H70.5361V22.2357H70.7929C71.1683 22.2431 71.485 22.1722 71.7526 22.0218C71.8819 21.9466 71.9771 21.827 72.0519 21.6594C72.1261 21.4924 72.159 21.0689 72.159 20.3927V11.4881C72.159 10.8841 72.1363 10.5007 72.0812 10.338C72.0226 10.174 71.9399 10.0532 71.8172 9.97189C71.7035 9.88927 71.5418 9.84735 71.3443 9.84735C71.1773 9.84735 70.9707 9.89666 70.7259 9.99285L70.6044 9.66432ZM73.852 11.2978V14.805C73.852 15.5612 73.8843 16.0611 73.946 16.299C74.04 16.6947 74.271 17.0442 74.6356 17.3462C75.0128 17.6458 75.4689 17.7956 76.0346 17.7956C76.7093 17.7956 77.2565 17.5287 77.6731 16.9949C78.2227 16.299 78.4956 15.3184 78.4956 14.0542C78.4956 12.6181 78.1861 11.5148 77.5636 10.7456C77.1301 10.21 76.6177 9.94311 76.0239 9.94311C75.7012 9.94311 75.3797 10.0287 75.0618 10.1915C74.814 10.3129 74.4147 10.6815 73.852 11.2978Z" fill="#2A51A3"/>
<path fill-rule="evenodd" clip-rule="evenodd" d="M87.4749 8.47534V11.6743H87.1013C86.8517 10.6696 86.5261 9.98729 86.1322 9.62545C85.7347 9.26245 85.2306 9.07998 84.62 9.07998C84.1542 9.07998 83.7735 9.20696 83.4904 9.45966C83.209 9.71052 83.0683 9.99157 83.0683 10.2961C83.0683 10.6788 83.1659 11.0055 83.37 11.2773C83.5676 11.5578 83.9908 11.8518 84.6332 12.1661L86.1136 12.8922C87.4881 13.5665 88.1717 14.4603 88.1717 15.5617C88.1717 16.4135 87.8526 17.0995 87.2193 17.6216C86.5835 18.1418 85.8777 18.4019 85.0899 18.4019C84.5272 18.4019 83.8831 18.3051 83.1569 18.1072C82.936 18.0395 82.7528 18.0056 82.6133 18.0056C82.4571 18.0056 82.341 18.0918 82.2554 18.2626H81.8794V14.9213H82.2554C82.4397 15.8742 82.7959 16.5935 83.3245 17.0724C83.8513 17.555 84.4464 17.7954 85.0989 17.7954C85.5599 17.7954 85.9346 17.6586 86.2279 17.3818C86.5165 17.1063 86.6625 16.7747 86.6625 16.3864C86.6625 15.9179 86.4985 15.5222 86.1729 15.2017C85.8478 14.8825 85.1947 14.4787 84.2153 13.9881C83.2329 13.5006 82.5888 13.0586 82.2913 12.6629C81.9842 12.2734 81.8369 11.7809 81.8369 11.1873C81.8369 10.4157 82.0925 9.76974 82.6133 9.25133C83.139 8.73299 83.8082 8.47534 84.6332 8.47534C84.9971 8.47534 85.4377 8.55485 85.9514 8.71325C86.2956 8.81805 86.5261 8.86737 86.6386 8.86737C86.747 8.86737 86.8284 8.8458 86.8942 8.79709C86.9511 8.74777 87.0229 8.63991 87.1013 8.47534H87.4749Z" fill="#2A51A3"/>
</g>
<line x1="98.5" y1="23" x2="98.5" y2="2.18557e-08" stroke="black"/>
<path d="M108.308 19V6.10833H110.904L114.938 14.3406L118.971 6.10833H121.549V19H119.726V8.48408L114.919 18.0792L110.112 8.48408V19H108.308ZM128.056 19.1842C127.147 19.1842 126.319 18.9693 125.57 18.5396C124.833 18.1099 124.25 17.5267 123.82 16.79C123.39 16.0533 123.175 15.2307 123.175 14.3222C123.175 13.4136 123.39 12.591 123.82 11.8543C124.25 11.1054 124.833 10.5161 125.57 10.0863C126.319 9.65661 127.147 9.44175 128.056 9.44175C128.977 9.44175 129.805 9.65661 130.542 10.0863C131.279 10.5161 131.862 11.0992 132.292 11.8359C132.721 12.5726 132.936 13.4013 132.936 14.3222C132.936 15.2307 132.721 16.0533 132.292 16.79C131.862 17.5267 131.279 18.1099 130.542 18.5396C129.805 18.9693 128.977 19.1842 128.056 19.1842ZM128.056 17.5635C128.633 17.5635 129.149 17.4223 129.603 17.1399C130.069 16.8453 130.438 16.4524 130.708 15.9612C130.99 15.4701 131.131 14.9238 131.131 14.3222C131.131 13.7083 130.99 13.1619 130.708 12.6831C130.438 12.192 130.069 11.8052 129.603 11.5228C129.149 11.2282 128.633 11.0808 128.056 11.0808C127.491 11.0808 126.975 11.2282 126.509 11.5228C126.042 11.8052 125.668 12.192 125.385 12.6831C125.115 13.1619 124.98 13.7083 124.98 14.3222C124.98 14.9238 125.115 15.4701 125.385 15.9612C125.668 16.4524 126.042 16.8453 126.509 17.1399C126.975 17.4223 127.491 17.5635 128.056 17.5635ZM137.785 19.1658C136.876 19.1658 136.183 18.957 135.704 18.5396C135.225 18.1099 134.985 17.4898 134.985 16.6795V11.1729H132.996V9.62592H134.985V7.23175L136.827 6.78975V9.62592H139.59V11.1729H136.827V16.2559C136.827 16.7347 136.931 17.0785 137.14 17.2873C137.349 17.4837 137.705 17.5819 138.208 17.5819C138.454 17.5819 138.675 17.5635 138.871 17.5267C139.08 17.4898 139.307 17.4284 139.553 17.3425V18.9079C139.307 18.9939 139.019 19.0553 138.687 19.0921C138.356 19.1412 138.055 19.1658 137.785 19.1658ZM140.686 19V9.62592H142.546V19H140.686ZM141.606 8.11575C141.299 8.11575 141.035 8.00525 140.814 7.78425C140.593 7.55097 140.483 7.28086 140.483 6.97392C140.483 6.65469 140.593 6.38458 140.814 6.16358C141.035 5.94258 141.299 5.83208 141.606 5.83208C141.926 5.83208 142.196 5.94258 142.417 6.16358C142.638 6.38458 142.748 6.65469 142.748 6.97392C142.748 7.28086 142.638 7.55097 142.417 7.78425C142.196 8.00525 141.926 8.11575 141.606 8.11575ZM147.366 19L143.315 9.62592H145.34L148.269 16.6242L151.197 9.62592H153.167L149.134 19H147.366ZM158.165 19.1658C157.244 19.1658 156.409 18.9509 155.66 18.5212C154.924 18.0914 154.334 17.5082 153.892 16.7716C153.463 16.0349 153.248 15.2123 153.248 14.3037C153.248 13.4075 153.457 12.591 153.874 11.8543C154.291 11.1177 154.856 10.5345 155.568 10.1048C156.28 9.67503 157.079 9.46017 157.963 9.46017C158.822 9.46017 159.589 9.68117 160.265 10.1232C160.952 10.5529 161.492 11.1422 161.885 11.8912C162.29 12.6278 162.493 13.4627 162.493 14.3958V14.9115H155.108C155.194 15.4149 155.378 15.8692 155.66 16.2743C155.955 16.6795 156.323 16.9987 156.765 17.232C157.22 17.4653 157.711 17.5819 158.239 17.5819C158.705 17.5819 159.141 17.5144 159.546 17.3793C159.964 17.232 160.32 17.0294 160.615 16.7716L161.793 17.9318C161.253 18.3493 160.688 18.6624 160.099 18.8711C159.51 19.0675 158.865 19.1658 158.165 19.1658ZM155.108 13.5118H160.651C160.565 13.033 160.394 12.6094 160.136 12.2411C159.878 11.8605 159.552 11.5658 159.16 11.3571C158.779 11.1361 158.362 11.0256 157.907 11.0256C157.441 11.0256 157.011 11.1299 156.618 11.3387C156.225 11.5474 155.9 11.8421 155.642 12.2227C155.384 12.591 155.206 13.0207 155.108 13.5118Z" fill="#0047BA"/>
<path d="M183.021 15.9151H184.654C185.073 15.9151 185.461 15.8428 185.819 15.6981C186.177 15.5535 186.489 15.3517 186.756 15.0929C187.03 14.8264 187.239 14.5181 187.384 14.1678C187.536 13.81 187.612 13.4255 187.612 13.0144C187.612 12.5957 187.536 12.2112 187.384 11.861C187.239 11.5032 187.03 11.191 186.756 10.9246C186.489 10.6581 186.177 10.4525 185.819 10.3079C185.461 10.1632 185.073 10.0909 184.654 10.0909H183.021V15.9151ZM181.811 17V9.006H184.632C185.241 9.006 185.8 9.10878 186.31 9.31434C186.82 9.51229 187.262 9.79017 187.635 10.148C188.016 10.5058 188.313 10.9284 188.526 11.4156C188.739 11.9029 188.846 12.4358 188.846 13.0144C188.846 13.5854 188.739 14.1145 188.526 14.6018C188.32 15.0814 188.027 15.5002 187.646 15.858C187.266 16.2158 186.82 16.4975 186.31 16.7031C185.8 16.901 185.241 17 184.632 17H181.811ZM191.718 17V9.006H197.622V10.0566H192.929V12.4548H196.001V13.4826H192.929V15.9494H197.668V17H191.718ZM203.194 17.1142C202.555 17.1142 201.938 16.9924 201.344 16.7488C200.751 16.4975 200.225 16.1397 199.768 15.6753L200.499 14.8188C200.933 15.2451 201.375 15.5649 201.824 15.7781C202.281 15.9836 202.76 16.0864 203.263 16.0864C203.644 16.0864 203.979 16.0293 204.268 15.9151C204.557 15.8009 204.782 15.6448 204.942 15.4469C205.109 15.2413 205.193 15.0091 205.193 14.7503C205.193 14.3924 205.067 14.1184 204.816 13.928C204.565 13.7377 204.15 13.593 203.571 13.4941L202.235 13.2771C201.504 13.1553 200.956 12.9231 200.591 12.5805C200.233 12.2379 200.054 11.7811 200.054 11.2101C200.054 10.7456 200.176 10.3421 200.419 9.99954C200.663 9.64933 201.006 9.37905 201.447 9.18872C201.896 8.99839 202.418 8.90322 203.012 8.90322C203.583 8.90322 204.146 8.99839 204.702 9.18872C205.265 9.37144 205.772 9.63791 206.221 9.98812L205.558 10.9017C204.698 10.247 203.826 9.9196 202.943 9.9196C202.593 9.9196 202.288 9.96909 202.03 10.0681C201.771 10.167 201.569 10.3079 201.424 10.4906C201.28 10.6657 201.207 10.8751 201.207 11.1187C201.207 11.4385 201.318 11.6821 201.539 11.8496C201.759 12.0171 202.125 12.1427 202.635 12.2264L203.925 12.4434C204.77 12.5805 205.391 12.8279 205.787 13.1857C206.183 13.5435 206.381 14.0346 206.381 14.6589C206.381 15.1462 206.247 15.5763 205.981 15.9494C205.722 16.3148 205.349 16.6003 204.862 16.8059C204.382 17.0114 203.826 17.1142 203.194 17.1142ZM209.09 17V9.006H210.301V17H209.09ZM217.359 17.1256C216.773 17.1256 216.225 17.019 215.714 16.8059C215.212 16.5927 214.77 16.2996 214.39 15.9265C214.009 15.5459 213.712 15.1081 213.499 14.6132C213.286 14.1107 213.179 13.574 213.179 13.003C213.179 12.432 213.282 11.8991 213.488 11.4042C213.701 10.9017 213.998 10.464 214.378 10.0909C214.759 9.71023 215.201 9.41331 215.703 9.20014C216.206 8.98697 216.75 8.88038 217.336 8.88038C217.968 8.88038 218.566 9.00219 219.129 9.24582C219.7 9.48945 220.176 9.83205 220.557 10.2736L219.734 11.0616C219.437 10.719 219.08 10.4563 218.661 10.2736C218.242 10.0833 217.801 9.98812 217.336 9.98812C216.917 9.98812 216.529 10.0643 216.171 10.2165C215.821 10.3688 215.513 10.582 215.246 10.856C214.98 11.1301 214.77 11.4499 214.618 11.8153C214.474 12.1731 214.401 12.569 214.401 13.003C214.401 13.4293 214.477 13.829 214.63 14.2021C214.782 14.5675 214.991 14.8873 215.258 15.1614C215.524 15.4278 215.836 15.6372 216.194 15.7895C216.552 15.9417 216.94 16.0179 217.359 16.0179C217.831 16.0179 218.257 15.9227 218.638 15.7324C219.019 15.5344 219.331 15.2642 219.574 14.9216C219.818 14.5713 219.97 14.1793 220.031 13.7453H217.37V12.6947H221.287V13.1058C221.287 13.6768 221.188 14.2059 220.991 14.6932C220.793 15.1804 220.515 15.6068 220.157 15.9722C219.807 16.3376 219.392 16.6231 218.912 16.8287C218.432 17.0266 217.915 17.1256 217.359 17.1256ZM224.143 17V9.006H225.319L229.773 14.933V9.006H230.915V17H229.841L225.285 10.8903V17H224.143ZM240.831 17.1142C240.192 17.1142 239.575 16.9924 238.981 16.7488C238.387 16.4975 237.862 16.1397 237.405 15.6753L238.136 14.8188C238.57 15.2451 239.012 15.5649 239.461 15.7781C239.918 15.9836 240.397 16.0864 240.9 16.0864C241.281 16.0864 241.616 16.0293 241.905 15.9151C242.194 15.8009 242.419 15.6448 242.579 15.4469C242.746 15.2413 242.83 15.0091 242.83 14.7503C242.83 14.3924 242.704 14.1184 242.453 13.928C242.202 13.7377 241.787 13.593 241.208 13.4941L239.872 13.2771C239.141 13.1553 238.593 12.9231 238.228 12.5805C237.87 12.2379 237.691 11.7811 237.691 11.2101C237.691 10.7456 237.813 10.3421 238.056 9.99954C238.3 9.64933 238.643 9.37905 239.084 9.18872C239.533 8.99839 240.055 8.90322 240.649 8.90322C241.22 8.90322 241.783 8.99839 242.339 9.18872C242.902 9.37144 243.408 9.63791 243.858 9.98812L243.195 10.9017C242.335 10.247 241.463 9.9196 240.58 9.9196C240.23 9.9196 239.925 9.96909 239.667 10.0681C239.408 10.167 239.206 10.3079 239.061 10.4906C238.917 10.6657 238.844 10.8751 238.844 11.1187C238.844 11.4385 238.955 11.6821 239.175 11.8496C239.396 12.0171 239.762 12.1427 240.272 12.2264L241.562 12.4434C242.407 12.5805 243.028 12.8279 243.424 13.1857C243.82 13.5435 244.018 14.0346 244.018 14.6589C244.018 15.1462 243.884 15.5763 243.618 15.9494C243.359 16.3148 242.986 16.6003 242.499 16.8059C242.019 17.0114 241.463 17.1142 240.831 17.1142ZM248.902 17V13.8252L245.682 9.006H247.087L249.542 12.7632L251.997 9.006H253.333L250.102 13.8481V17H248.902ZM258.293 17.1142C257.653 17.1142 257.037 16.9924 256.443 16.7488C255.849 16.4975 255.324 16.1397 254.867 15.6753L255.598 14.8188C256.032 15.2451 256.473 15.5649 256.922 15.7781C257.379 15.9836 257.859 16.0864 258.361 16.0864C258.742 16.0864 259.077 16.0293 259.366 15.9151C259.656 15.8009 259.88 15.6448 260.04 15.4469C260.208 15.2413 260.291 15.0091 260.291 14.7503C260.291 14.3924 260.166 14.1184 259.914 13.928C259.663 13.7377 259.248 13.593 258.67 13.4941L257.334 13.2771C256.603 13.1553 256.054 12.9231 255.689 12.5805C255.331 12.2379 255.152 11.7811 255.152 11.2101C255.152 10.7456 255.274 10.3421 255.518 9.99954C255.761 9.64933 256.104 9.37905 256.546 9.18872C256.995 8.99839 257.516 8.90322 258.11 8.90322C258.681 8.90322 259.244 8.99839 259.8 9.18872C260.364 9.37144 260.87 9.63791 261.319 9.98812L260.657 10.9017C259.796 10.247 258.925 9.9196 258.042 9.9196C257.691 9.9196 257.387 9.96909 257.128 10.0681C256.869 10.167 256.667 10.3079 256.523 10.4906C256.378 10.6657 256.306 10.8751 256.306 11.1187C256.306 11.4385 256.416 11.6821 256.637 11.8496C256.858 12.0171 257.223 12.1427 257.733 12.2264L259.024 12.4434C259.869 12.5805 260.489 12.8279 260.885 13.1857C261.281 13.5435 261.479 14.0346 261.479 14.6589C261.479 15.1462 261.346 15.5763 261.079 15.9494C260.82 16.3148 260.447 16.6003 259.96 16.8059C259.48 17.0114 258.925 17.1142 258.293 17.1142ZM266.214 17V10.0795H263.405V9.006H270.222V10.0795H267.425V17H266.214ZM272.836 17V9.006H278.74V10.0566H274.046V12.4548H277.118V13.4826H274.046V15.9494H278.786V17H272.836ZM281.606 17V9.006H283.216L285.717 14.1107L288.218 9.006H289.817V17H288.686V10.4792L285.705 16.429L282.725 10.4792V17H281.606Z" fill="#B1B1B1"/>
<path d="M166.564 8.106V4.2H167.502L168.65 6.538L169.798 4.2H170.736V8.106H170.008L170.036 5.124L168.65 7.854L167.264 5.152L167.278 8.106H166.564ZM163.778 8.106V4.858H162.42V4.2H165.892V4.858H164.534V8.106H163.778Z" fill="#0047BA"/>
<defs>
<clipPath id="clip0_20214_21715">
<rect width="88" height="22" fill="white" transform="translate(0 1)"/>
</clipPath>
</defs>
</svg>
