<svg width="326" height="116" viewBox="0 0 326 116" fill="none" xmlns="http://www.w3.org/2000/svg">
<path d="M46.7502 17.4017C49.3802 16.0317 52.2902 14.6217 55.2302 16.0017C56.1402 19.1217 56.4202 22.3717 56.3202 25.6017C56.2102 37.2517 56.1902 48.8917 56.0602 60.5417C55.9802 63.3917 56.3302 66.2417 57.3102 68.9317C59.1802 66.8317 60.8602 64.5617 62.2102 62.0917C67.5502 52.3017 72.4802 42.2917 77.1602 32.1817C78.5302 29.2517 78.7602 25.9317 80.2502 23.0617C81.4602 21.7617 83.3502 22.3017 84.9102 22.1017C85.5902 28.7017 83.5002 35.1017 83.0902 41.6417C82.7102 47.2017 81.5602 52.8317 82.6902 58.3817C83.0602 60.4017 83.5602 62.7317 85.4402 63.9017C88.9502 63.8617 91.3502 60.7017 92.9202 57.9217C94.9202 52.4917 94.7802 45.9617 98.6502 41.3917C101.17 40.2917 102.82 42.5817 104.1 44.3617C101.58 50.5417 98.6802 56.8417 98.6702 63.6517C107.51 59.4617 111.55 49.7517 118.11 43.0217C120.1 41.7817 122.42 43.4617 122.12 45.7317C122.7 59.7717 122.81 74.3817 117.75 87.7117C115.36 93.5217 111.96 99.6217 105.95 102.282C102.95 103.622 98.6202 103.522 96.7802 100.412C94.0002 95.9117 95.2002 90.1217 97.6802 85.7717C102.05 78.1917 109.04 72.6117 116.11 67.6817C116.15 62.1717 116.15 56.6617 115.96 51.1517C112.32 56.3117 108.02 61.0617 103.03 64.9417C100.91 66.4417 98.0802 68.2217 95.4602 66.8317C94.4602 65.8817 93.7702 64.6717 92.9802 63.5517C90.5002 65.6517 88.0602 68.4717 84.5802 68.6417C81.0202 68.6517 78.9302 65.1317 78.0102 62.1217C76.3602 56.8217 76.3302 51.2017 76.1402 45.7017C71.3802 54.4117 67.4302 63.6617 61.3802 71.6017C59.4002 73.8717 57.1302 76.9517 53.6902 76.3217C51.2402 76.3517 50.3302 73.5117 49.5502 71.6417C46.9802 63.3017 47.4102 54.4517 46.8502 45.8417C44.7302 53.8117 42.1802 61.8217 37.8102 68.8717C34.6802 73.7517 29.6302 78.3617 23.4402 78.0017C21.2202 78.3017 20.5502 76.0017 20.6502 74.2617C23.1002 74.1817 25.6302 74.6017 28.0502 74.0217C32.4302 71.9417 35.0002 67.5117 37.2102 63.4017C42.0602 53.4617 44.8302 42.6217 46.6302 31.7517C47.4702 26.9917 46.7102 22.1817 46.7502 17.4017ZM100.34 88.2917C98.5802 91.7817 98.4402 95.9217 100.16 99.4617C102.37 99.3817 104.75 99.1817 106.17 97.2217C112.61 90.3617 114.35 80.4817 115.56 71.4817C109.71 76.2617 103.6 81.3017 100.34 88.2917Z" fill="#005FCF"/>
<path fill-rule="evenodd" clip-rule="evenodd" d="M154.427 28.5488V43.6172H153.249C152.851 40.732 152.16 38.425 151.158 36.7097C150.162 34.9984 148.74 33.6363 146.884 32.637C145.025 31.6242 143.115 31.1139 141.13 31.1139C138.888 31.1139 137.04 31.8008 135.581 33.157C134.111 34.5211 133.376 36.0617 133.376 37.8041C133.376 39.1332 133.844 40.3323 134.762 41.4247C136.089 43.0332 139.261 45.1714 144.26 47.8548C148.348 50.0279 151.129 51.7005 152.635 52.8705C154.118 54.0366 155.269 55.4026 156.072 56.9994C156.892 58.5827 157.291 60.2417 157.291 61.9821C157.291 65.2671 156.003 68.1115 153.445 70.4981C150.865 72.8866 147.56 74.076 143.525 74.076C142.244 74.076 141.062 73.979 139.942 73.7811C139.27 73.6705 137.886 73.2766 135.806 72.6014C133.694 71.9165 132.382 71.5769 131.811 71.5769C131.278 71.5769 130.853 71.736 130.54 72.06C130.222 72.3918 129.993 73.0632 129.843 74.076H128.671V59.1415H129.843C130.408 62.2635 131.157 64.6093 132.104 66.1674C133.044 67.7157 134.492 69.0118 136.438 70.0383C138.387 71.0608 140.524 71.5769 142.838 71.5769C145.528 71.5769 147.655 70.8687 149.21 69.4639C150.774 68.0456 151.552 66.375 151.552 64.4483C151.552 63.3772 151.253 62.2965 150.671 61.208C150.067 60.1175 149.163 59.0988 147.905 58.152C147.073 57.5117 144.788 56.1438 141.044 54.0696C137.306 51.9799 134.645 50.3209 133.065 49.0753C131.48 47.8354 130.274 46.4597 129.459 44.9638C128.634 43.4717 128.229 41.8205 128.229 40.0179C128.229 36.8902 129.444 34.2009 131.854 31.9366C134.263 29.682 137.335 28.5488 141.062 28.5488C143.383 28.5488 145.846 29.1154 148.462 30.2466C149.673 30.7802 150.529 31.0479 151.013 31.0479C151.574 31.0479 152.037 30.883 152.389 30.5473C152.744 30.2155 153.021 29.5442 153.249 28.5488H154.427Z" fill="#2A51A3"/>
<path fill-rule="evenodd" clip-rule="evenodd" d="M184.766 61.9442C183.959 65.8442 182.41 68.8206 180.077 70.8928C177.74 72.967 175.171 73.9954 172.351 73.9954C168.997 73.9954 166.074 72.6022 163.564 69.7869C161.062 66.9792 159.807 63.1724 159.807 58.3876C159.807 53.758 161.2 49.9861 163.976 47.0912C166.738 44.1885 170.07 42.7488 173.954 42.7488C176.873 42.7488 179.26 43.5036 181.143 45.0383C183.004 46.5576 183.949 48.1545 183.949 49.8037C183.949 50.6109 183.683 51.2648 183.156 51.7692C182.628 52.2737 181.89 52.5298 180.943 52.5298C179.672 52.5298 178.723 52.1127 178.094 51.2958C177.704 50.834 177.447 49.9783 177.321 48.6919C177.207 47.4249 176.778 46.4509 176.011 45.7718C175.268 45.1315 174.208 44.8055 172.877 44.8055C170.716 44.8055 168.973 45.5913 167.675 47.1921C165.917 49.3167 165.047 52.101 165.047 55.5703C165.047 59.1113 165.903 62.2294 167.64 64.9419C169.379 67.6525 171.716 69.0049 174.654 69.0049C176.778 69.0049 178.666 68.3025 180.357 66.8939C181.531 65.9043 182.688 64.1134 183.806 61.4979L184.766 61.9442Z" fill="#2A51A3"/>
<path fill-rule="evenodd" clip-rule="evenodd" d="M195.413 42.7488V49.3497C197.862 44.9491 200.381 42.7488 202.965 42.7488C204.139 42.7488 205.109 43.1019 205.882 43.8198C206.65 44.5319 207.04 45.3662 207.04 46.3092C207.04 47.1397 206.749 47.8479 206.192 48.4222C205.635 49.0024 204.977 49.2895 204.205 49.2895C203.452 49.2895 202.619 48.9189 201.697 48.1836C200.767 47.4462 200.061 47.0815 199.626 47.0815C199.244 47.0815 198.819 47.2949 198.38 47.7159C197.417 48.6065 196.43 50.0521 195.413 52.0583V66.207C195.413 67.8466 195.616 69.0806 196.028 69.9188C196.313 70.5087 196.806 70.9879 197.532 71.3701C198.252 71.7524 199.281 71.9503 200.63 71.9503V73.1222H185.409V71.9503C186.906 71.9503 188.031 71.7058 188.748 71.2266C189.297 70.8851 189.652 70.334 189.865 69.5773C189.986 69.2048 190.04 68.1551 190.04 66.4263V55.0192C190.04 51.616 189.968 49.5709 189.832 48.9189C189.691 48.2689 189.435 47.7916 189.058 47.5006C188.689 47.1901 188.222 47.0427 187.666 47.0427C187.003 47.0427 186.271 47.2018 185.431 47.5258L185.101 46.3461L194.05 42.7488H195.413Z" fill="#2A51A3"/>
<path fill-rule="evenodd" clip-rule="evenodd" d="M218.87 42.7496V66.4271C218.87 68.282 219.002 69.5064 219.278 70.1273C219.522 70.7326 219.93 71.1906 220.454 71.4971C220.957 71.7901 221.91 71.9512 223.286 71.9512V73.1231H209.01V71.9512C210.437 71.9512 211.409 71.8037 211.904 71.5204C212.376 71.2429 212.776 70.7831 213.067 70.1428C213.358 69.487 213.507 68.2491 213.507 66.4271V55.1695C213.507 51.9447 213.401 49.8414 213.218 48.8946C213.067 48.2019 212.824 47.7129 212.508 47.4432C212.184 47.1813 211.745 47.0435 211.194 47.0435C210.596 47.0435 209.876 47.2026 209.014 47.5267L208.572 46.347L217.457 42.7496H218.87ZM216.195 27.3668C217.1 27.3668 217.872 27.6889 218.505 28.3214C219.153 28.9579 219.458 29.7262 219.458 30.6285C219.458 31.5268 219.153 32.2991 218.505 32.951C217.872 33.5971 217.1 33.9212 216.195 33.9212C215.293 33.9212 214.526 33.5971 213.874 32.951C213.232 32.2991 212.919 31.5268 212.919 30.6285C212.919 29.7262 213.216 28.9579 213.868 28.3214C214.497 27.6889 215.275 27.3668 216.195 27.3668Z" fill="#2A51A3"/>
<path fill-rule="evenodd" clip-rule="evenodd" d="M222.336 46.4925L231.41 42.8913H232.64V49.7328C234.158 47.1502 235.687 45.3341 237.213 44.298C238.754 43.2619 240.365 42.7496 242.065 42.7496C245.017 42.7496 247.49 43.9022 249.46 46.2267C251.876 49.0614 253.091 52.7402 253.091 57.2999C253.091 62.3893 251.628 66.5882 248.722 69.9138C246.316 72.6458 243.29 73.9962 239.645 73.9962C238.067 73.9962 236.699 73.7789 235.528 73.3365C234.674 73.0067 233.708 72.3702 232.64 71.4137V80.4011C232.64 82.4307 232.755 83.7171 233.009 84.2682C233.255 84.8173 233.682 85.248 234.294 85.5817C234.917 85.9 236.029 86.0668 237.644 86.0668V87.2368H222.123V86.0668H222.932C224.108 86.0901 225.121 85.867 225.975 85.3935C226.387 85.1568 226.691 84.7804 226.922 84.2526C227.151 83.7268 227.278 82.3938 227.278 80.2595V52.2338C227.278 50.3323 227.179 49.1255 227.014 48.6132C226.835 48.0971 226.567 47.7168 226.2 47.4607C225.816 47.2007 225.319 47.0687 224.685 47.0687C224.157 47.0687 223.516 47.224 222.718 47.5267L222.336 46.4925ZM232.64 51.6343V62.6747C232.64 65.0554 232.729 66.629 232.929 67.3779C233.234 68.6236 233.954 69.7238 235.128 70.6745C236.299 71.6175 237.766 72.089 239.542 72.089C241.687 72.089 243.418 71.2488 244.755 69.5685C246.484 67.3779 247.36 64.2909 247.36 60.3114C247.36 55.7905 246.37 52.3173 244.394 49.8958C243.024 48.2097 241.401 47.3696 239.521 47.3696C238.492 47.3696 237.475 47.6393 236.462 48.1515C235.699 48.5337 234.418 49.694 232.64 51.6343Z" fill="#2A51A3"/>
<path fill-rule="evenodd" clip-rule="evenodd" d="M252.29 46.4916L261.364 42.8904H262.588V49.7319C264.12 47.1494 265.638 45.3333 267.161 44.2971C268.722 43.261 270.323 42.7488 272.023 42.7488C274.971 42.7488 277.436 43.9013 279.42 46.2258C281.844 49.0606 283.049 52.7394 283.049 57.2991C283.049 62.3885 281.594 66.5873 278.671 69.913C276.266 72.6449 273.248 73.9954 269.597 73.9954C268.021 73.9954 266.635 73.778 265.49 73.3357C264.632 73.0058 263.66 72.3694 262.588 71.4128V80.4003C262.588 82.4298 262.713 83.7163 262.969 84.2673C263.213 84.8164 263.637 85.2472 264.258 85.5809C264.869 85.8991 265.985 86.066 267.592 86.066V87.236H252.075V86.066H252.888C254.078 86.0893 255.083 85.8661 255.931 85.3927C256.341 85.156 256.642 84.7795 256.878 84.2518C257.115 83.726 257.218 82.393 257.218 80.2645V52.233C257.218 50.3315 257.146 49.1246 256.972 48.6124C256.785 48.0962 256.525 47.7159 256.135 47.4598C255.774 47.1998 255.262 47.0679 254.637 47.0679C254.107 47.0679 253.453 47.2231 252.676 47.5258L252.29 46.4916ZM262.584 51.6339V62.6743C262.584 65.055 262.687 66.6286 262.883 67.3775C263.18 68.6232 263.911 69.7234 265.068 70.6741C266.264 71.6171 267.71 72.0886 269.503 72.0886C271.642 72.0886 273.375 71.2484 274.697 69.5681C276.438 67.3775 277.304 64.2905 277.304 60.311C277.304 55.7901 276.323 52.3169 274.35 49.8954C272.975 48.2093 271.351 47.3692 269.468 47.3692C268.445 47.3692 267.426 47.6389 266.419 48.1511C265.633 48.5334 264.368 49.6937 262.584 51.6339Z" fill="#2A51A3"/>
<path fill-rule="evenodd" clip-rule="evenodd" d="M303.768 42.7488V52.8189H302.584C301.792 49.6562 300.76 47.5083 299.512 46.3694C298.252 45.2265 296.653 44.6522 294.718 44.6522C293.243 44.6522 292.036 45.0519 291.137 45.8474C290.246 46.6371 289.8 47.5219 289.8 48.4804C289.8 49.6854 290.108 50.7137 290.756 51.5694C291.381 52.4522 292.725 53.3777 294.761 54.3673L299.454 56.653C303.809 58.7757 305.977 61.5891 305.977 65.0564C305.977 67.7379 304.966 69.8975 302.957 71.5409C300.942 73.1785 298.704 73.9973 296.208 73.9973C294.425 73.9973 292.383 73.6927 290.081 73.0698C289.38 72.8564 288.8 72.7497 288.358 72.7497C287.863 72.7497 287.494 73.0213 287.222 73.5588H286.03V63.0404H287.222C287.806 66.0401 288.936 68.3045 290.611 69.8121C292.282 71.3313 294.169 72.0881 296.236 72.0881C297.697 72.0881 298.885 71.6573 299.815 70.7861C300.731 69.9188 301.193 68.8749 301.193 67.6525C301.193 66.1779 300.672 64.9322 299.64 63.9233C298.609 62.9182 296.54 61.6473 293.435 60.1028C290.322 58.568 288.28 57.1768 287.337 55.9312C286.362 54.7049 285.896 53.1546 285.896 51.2861C285.896 48.8568 286.706 46.8234 288.358 45.1916C290.023 43.5598 292.144 42.7488 294.761 42.7488C295.913 42.7488 297.311 42.9991 298.939 43.4977C300.03 43.8276 300.76 43.9828 301.117 43.9828C301.46 43.9828 301.719 43.9149 301.926 43.7616C302.107 43.6064 302.336 43.2668 302.584 42.7488H303.768Z" fill="#2A51A3"/>
</svg>
