<svg width="147" height="36" viewBox="0 0 147 36" fill="none" xmlns="http://www.w3.org/2000/svg">
<path fill-rule="evenodd" clip-rule="evenodd" d="M19.3138 5.51221C19.4478 5.6756 19.4754 5.86017 19.2483 6.04374C18.9712 6.26765 18.5917 6.08005 18.2623 6.02457C16.6688 5.72603 11.8411 4.87578 9.93659 6.43306C8.90559 7.29036 9.26971 8.38671 8.18246 9.27528C7.09009 10.1669 6.07545 9.61417 5.03013 10.4725C3.12462 12.0308 3.10825 16.863 3.10928 18.4616C3.10928 18.7934 3.22997 19.1958 2.95278 19.4258C2.73185 19.6074 2.54672 19.5489 2.41171 19.3855C1.90235 18.7833 -1.09451 8.59952 4.04106 4.37653C9.1838 0.15353 18.7952 4.90503 19.3138 5.51221M2.1469 4.22199C3.32314 4.22199 4.28254 3.27895 4.28254 2.11301C4.28254 0.948081 3.32314 0 2.1469 0C0.960427 0 0 0.948081 0 2.11301C0 3.27895 0.960427 4.22199 2.1469 4.22199" fill="#F37321"/>
<path fill-rule="evenodd" clip-rule="evenodd" d="M24.2737 27.7396C24.064 27.7719 23.8881 27.7003 23.8421 27.4108C23.7817 27.0638 24.1438 26.8369 24.3719 26.5868C25.4438 25.3976 28.6687 21.7606 28.2872 19.343C28.0816 18.0228 26.9494 17.7696 26.7264 16.3919C26.5137 15.0131 27.5232 14.4332 27.3166 13.1149C26.932 10.7014 22.7405 8.19197 21.3505 7.38005C21.0702 7.21161 20.6509 7.10168 20.5987 6.75573C20.5496 6.46525 20.7 6.34321 20.9066 6.31094C21.6952 6.19293 32.0942 8.90102 33.1252 15.4186C34.1429 21.9371 25.0613 27.6176 24.2737 27.7396M36.0575 17.0836C37.2368 17.0836 38.1952 16.1396 38.1952 14.9706C38.1952 13.8077 37.2368 12.8626 36.0575 12.8626C34.8741 12.8626 33.9167 13.8077 33.9167 14.9706C33.9167 16.1396 34.8741 17.0836 36.0575 17.0836" fill="#00A389"/>
<path fill-rule="evenodd" clip-rule="evenodd" d="M2.61676 21.1379C2.68938 20.9423 2.83973 20.8323 3.11589 20.9382C3.44729 21.0653 3.47081 21.4849 3.569 21.8026C4.06814 23.3155 5.64635 28.8204 10.604 30.7408C15.5595 32.6541 20.514 29.6767 21.9204 28.9011C22.217 28.7377 22.5157 28.4412 22.8543 28.5733C23.1304 28.6812 23.1662 28.8577 23.0813 29.0605C22.7939 29.7897 15.1821 37.2846 8.95721 34.877C2.73336 32.4665 2.32628 21.8722 2.61676 21.1379M11.6922 29.9027C12.8654 29.9088 13.8401 28.9768 13.8442 27.8109C13.8544 26.6419 12.9032 25.6828 11.7198 25.6797C10.5436 25.6697 9.57087 26.6046 9.56269 27.7726C9.55042 28.9385 10.5068 29.8916 11.6922 29.9027" fill="#2A51A3"/>
<path fill-rule="evenodd" clip-rule="evenodd" d="M61.0995 4.85083V12.6836H60.4786C60.2689 11.1838 59.9048 9.98459 59.377 9.09299C58.8523 8.20341 58.1026 7.49537 57.1248 6.97594C56.1449 6.44946 55.1385 6.1842 54.0921 6.1842C52.9108 6.1842 51.9371 6.54124 51.1679 7.24625C50.3936 7.95529 50.006 8.75612 50.006 9.66184C50.006 10.3527 50.2525 10.976 50.7363 11.5439C51.4359 12.38 53.1072 13.4915 55.7419 14.8864C57.896 16.016 59.3617 16.8854 60.1554 17.4936C60.9368 18.0998 61.5434 18.8098 61.9668 19.6399C62.3984 20.4629 62.6091 21.3253 62.6091 22.23C62.6091 23.9375 61.93 25.4161 60.5819 26.6567C59.2226 27.8983 57.4807 28.5166 55.3543 28.5166C54.6792 28.5166 54.0563 28.4661 53.4662 28.3632C53.1123 28.3058 52.383 28.101 51.2865 27.75C50.1737 27.394 49.4823 27.2175 49.1816 27.2175C48.9003 27.2175 48.6763 27.3002 48.5116 27.4686C48.3439 27.6411 48.2232 27.9901 48.1444 28.5166H47.5267V20.7534H48.1444C48.4421 22.3762 48.8369 23.5956 49.336 24.4055C49.8311 25.2104 50.5941 25.8841 51.62 26.4177C52.6469 26.9492 53.773 27.2175 54.9922 27.2175C56.4098 27.2175 57.5309 26.8493 58.3501 26.1191C59.1745 25.3818 59.5847 24.5134 59.5847 23.5119C59.5847 22.9552 59.4272 22.3934 59.1203 21.8275C58.8022 21.2607 58.3256 20.7312 57.6628 20.239C57.224 19.9062 56.0201 19.1951 54.0471 18.1169C52.0772 17.0307 50.6749 16.1683 49.8423 15.5208C49.0067 14.8763 48.3715 14.1612 47.9419 13.3836C47.5072 12.608 47.2935 11.7496 47.2935 10.8126C47.2935 9.18679 47.9337 7.78887 49.2041 6.61184C50.4734 5.43985 52.0925 4.85083 54.0563 4.85083C55.2796 4.85083 56.5776 5.14534 57.9563 5.73335C58.5946 6.01072 59.0456 6.1499 59.3003 6.1499C59.5959 6.1499 59.8404 6.06417 60.0255 5.88969C60.2127 5.71722 60.3589 5.36824 60.4786 4.85083H61.0995Z" fill="#2A51A3"/>
<path fill-rule="evenodd" clip-rule="evenodd" d="M78.1417 22.2104C77.7162 24.2376 76.9 25.7848 75.6706 26.862C74.4391 27.9402 73.0849 28.4748 71.5988 28.4748C69.8313 28.4748 68.291 27.7506 66.9685 26.2871C65.65 24.8277 64.9883 22.8488 64.9883 20.3616C64.9883 17.9551 65.7227 15.9944 67.1853 14.4895C68.6408 12.9807 70.3969 12.2323 72.4436 12.2323C73.9819 12.2323 75.24 12.6246 76.2321 13.4224C77.213 14.2122 77.7111 15.0423 77.7111 15.8996C77.7111 16.3191 77.571 16.659 77.2928 16.9213C77.0146 17.1835 76.6259 17.3166 76.1268 17.3166C75.4568 17.3166 74.9567 17.0998 74.6253 16.6752C74.4197 16.4351 74.2847 15.9903 74.2182 15.3216C74.1579 14.663 73.9318 14.1567 73.5278 13.8037C73.1361 13.4709 72.5776 13.3014 71.8759 13.3014C70.7375 13.3014 69.8191 13.7099 69.1348 14.542C68.2081 15.6464 67.7499 17.0937 67.7499 18.8971C67.7499 20.7378 68.201 22.3586 69.1164 23.7686C70.0328 25.1776 71.2643 25.8806 72.8128 25.8806C73.9318 25.8806 74.927 25.5155 75.8179 24.7833C76.4367 24.2689 77.0463 23.338 77.6354 21.9784L78.1417 22.2104Z" fill="#2A51A3"/>
<path fill-rule="evenodd" clip-rule="evenodd" d="M84.8058 12.2323V15.6635C86.0966 13.376 87.4242 12.2323 88.7856 12.2323C89.4044 12.2323 89.9158 12.4159 90.3229 12.789C90.7279 13.1592 90.9335 13.5929 90.9335 14.0831C90.9335 14.5148 90.7801 14.8829 90.4866 15.1814C90.193 15.483 89.8463 15.6323 89.4392 15.6323C89.0423 15.6323 88.6035 15.4396 88.1177 15.0574C87.6278 14.6741 87.2555 14.4845 87.0264 14.4845C86.8249 14.4845 86.6009 14.5954 86.3697 14.8143C85.8624 15.2773 85.3418 16.0287 84.8058 17.0715V24.4262C84.8058 25.2785 84.9132 25.92 85.1301 26.3557C85.2804 26.6623 85.5402 26.9114 85.9227 27.1101C86.3022 27.3088 86.8443 27.4117 87.5552 27.4117V28.0209H79.5342V27.4117C80.3228 27.4117 80.916 27.2846 81.2935 27.0355C81.5829 26.858 81.7701 26.5715 81.8826 26.1782C81.946 25.9845 81.9747 25.4389 81.9747 24.5402V18.6107C81.9747 16.8416 81.9368 15.7785 81.8652 15.4396C81.7905 15.1018 81.6555 14.8536 81.4571 14.7024C81.2628 14.541 81.0163 14.4643 80.7237 14.4643C80.3739 14.4643 79.9883 14.547 79.5455 14.7155L79.3716 14.1022L84.0878 12.2323H84.8058Z" fill="#2A51A3"/>
<path fill-rule="evenodd" clip-rule="evenodd" d="M97.6956 12.2329V24.5408C97.6956 25.505 97.7652 26.1414 97.9104 26.4642C98.0393 26.7789 98.2541 27.0169 98.5303 27.1763C98.7952 27.3286 99.2974 27.4123 100.023 27.4123V28.0215H92.4997V27.4123C93.2515 27.4123 93.7639 27.3356 94.0247 27.1884C94.2733 27.0441 94.484 26.8051 94.6374 26.4723C94.7908 26.1314 94.8696 25.4879 94.8696 24.5408V18.6889C94.8696 17.0126 94.8133 15.9193 94.7172 15.4271C94.6374 15.067 94.5096 14.8129 94.3428 14.6727C94.172 14.5365 93.9409 14.4649 93.6504 14.4649C93.3354 14.4649 92.9559 14.5476 92.5018 14.7161L92.2686 14.1028L96.951 12.2329H97.6956ZM96.2859 4.23657C96.7625 4.23657 97.1696 4.404 97.503 4.7328C97.8447 5.06362 98.0052 5.46303 98.0052 5.93202C98.0052 6.399 97.8447 6.80043 97.503 7.13931C97.1696 7.47518 96.7625 7.64361 96.2859 7.64361C95.8103 7.64361 95.4063 7.47518 95.0626 7.13931C94.724 6.80043 94.5594 6.399 94.5594 5.93202C94.5594 5.46303 94.7159 5.06362 95.0595 4.7328C95.3909 4.404 95.8011 4.23657 96.2859 4.23657V4.23657Z" fill="#2A51A3"/>
<path fill-rule="evenodd" clip-rule="evenodd" d="M100.575 14.1784L105.357 12.3064H106.005V15.8627C106.805 14.5203 107.611 13.5762 108.415 13.0376C109.227 12.4991 110.076 12.2328 110.972 12.2328C112.528 12.2328 113.831 12.8319 114.869 14.0402C116.142 15.5138 116.783 17.4261 116.783 19.7963C116.783 22.4418 116.011 24.6244 114.48 26.3531C113.212 27.7733 111.617 28.4752 109.696 28.4752C108.865 28.4752 108.144 28.3623 107.527 28.1323C107.077 27.9609 106.568 27.63 106.005 27.1328V31.8046C106.005 32.8596 106.065 33.5283 106.199 33.8148C106.329 34.1002 106.554 34.3241 106.876 34.4976C107.205 34.663 107.791 34.7497 108.642 34.7497V35.3579H100.462V34.7497H100.889C101.509 34.7618 102.043 34.6458 102.493 34.3997C102.71 34.2767 102.87 34.081 102.992 33.8067C103.113 33.5334 103.179 32.8404 103.179 31.731V17.1628C103.179 16.1744 103.127 15.547 103.04 15.2808C102.946 15.0125 102.805 14.8148 102.611 14.6817C102.409 14.5465 102.147 14.4779 101.813 14.4779C101.534 14.4779 101.197 14.5586 100.776 14.716L100.575 14.1784ZM106.005 16.8513V22.5902C106.005 23.8277 106.052 24.6457 106.157 25.035C106.318 25.6825 106.697 26.2544 107.316 26.7486C107.933 27.2388 108.706 27.4839 109.642 27.4839C110.772 27.4839 111.685 27.0472 112.389 26.1737C113.301 25.035 113.762 23.4303 113.762 21.3617C113.762 19.0117 113.24 17.2063 112.199 15.9476C111.477 15.0711 110.622 14.6344 109.631 14.6344C109.089 14.6344 108.553 14.7746 108.019 15.0408C107.617 15.2395 106.942 15.8427 106.005 16.8513V16.8513Z" fill="#2A51A3"/>
<path fill-rule="evenodd" clip-rule="evenodd" d="M117.942 14.1779L122.723 12.3059H123.369V15.8622C124.176 14.5198 124.976 13.5758 125.778 13.0372C126.601 12.4986 127.445 12.2323 128.341 12.2323C129.894 12.2323 131.193 12.8314 132.239 14.0397C133.516 15.5133 134.151 17.4256 134.151 19.7958C134.151 22.4413 133.384 24.6239 131.844 26.3527C130.577 27.7728 128.986 28.4747 127.062 28.4747C126.232 28.4747 125.501 28.3618 124.898 28.1318C124.446 27.9604 123.933 27.6295 123.369 27.1323V31.8041C123.369 32.8591 123.434 33.5278 123.569 33.8143C123.698 34.0997 123.921 34.3236 124.248 34.4971C124.571 34.6625 125.159 34.7492 126.006 34.7492V35.3574H117.828V34.7492H118.257C118.884 34.7613 119.413 34.6453 119.86 34.3992C120.076 34.2762 120.235 34.0805 120.36 33.8062C120.484 33.5329 120.539 32.84 120.539 31.7335V17.1623C120.539 16.1739 120.501 15.5466 120.409 15.2803C120.311 15.012 120.173 14.8143 119.968 14.6812C119.778 14.546 119.508 14.4774 119.178 14.4774C118.899 14.4774 118.554 14.5581 118.145 14.7155L117.942 14.1779ZM123.367 16.8509V22.5899C123.367 23.8274 123.421 24.6454 123.524 25.0347C123.681 25.6822 124.067 26.2541 124.676 26.7483C125.306 27.2385 126.068 27.4836 127.013 27.4836C128.14 27.4836 129.054 27.0469 129.75 26.1734C130.668 25.0347 131.124 23.43 131.124 21.3614C131.124 19.0114 130.607 17.206 129.567 15.9472C128.843 15.0708 127.987 14.6341 126.995 14.6341C126.456 14.6341 125.919 14.7742 125.388 15.0405C124.974 15.2392 124.307 15.8424 123.367 16.8509V16.8509Z" fill="#2A51A3"/>
<path fill-rule="evenodd" clip-rule="evenodd" d="M146.123 12.2323V17.4669H145.499C145.082 15.8229 144.538 14.7064 143.88 14.1143C143.216 13.5203 142.374 13.2217 141.354 13.2217C140.576 13.2217 139.94 13.4295 139.467 13.843C138.997 14.2535 138.762 14.7134 138.762 15.2117C138.762 15.838 138.925 16.3726 139.266 16.8174C139.596 17.2763 140.303 17.7574 141.376 18.2718L143.849 19.4599C146.145 20.5633 147.287 22.0258 147.287 23.8281C147.287 25.222 146.754 26.3446 145.696 27.1989C144.634 28.0501 143.455 28.4758 142.139 28.4758C141.199 28.4758 140.123 28.3174 138.91 27.9936C138.541 27.8827 138.235 27.8272 138.002 27.8272C137.741 27.8272 137.547 27.9684 137.404 28.2478H136.776V22.7802H137.404C137.712 24.3395 138.307 25.5165 139.19 26.3002C140.07 27.0899 141.064 27.4833 142.154 27.4833C142.924 27.4833 143.55 27.2594 144.04 26.8065C144.522 26.3557 144.766 25.8131 144.766 25.1776C144.766 24.4111 144.492 23.7636 143.948 23.2391C143.405 22.7167 142.314 22.056 140.678 21.2532C139.037 20.4554 137.961 19.7322 137.464 19.0847C136.951 18.4473 136.705 17.6414 136.705 16.6701C136.705 15.4074 137.132 14.3504 138.002 13.5021C138.88 12.6539 139.998 12.2323 141.376 12.2323C141.984 12.2323 142.72 12.3624 143.578 12.6216C144.153 12.7931 144.538 12.8738 144.726 12.8738C144.907 12.8738 145.043 12.8385 145.153 12.7588C145.248 12.6781 145.368 12.5016 145.499 12.2323H146.123Z" fill="#2A51A3"/>
</svg>
