<svg width="147" height="36" viewBox="0 0 147 36" fill="none" xmlns="http://www.w3.org/2000/svg">
<g clip-path="url(#clip0_14940_55666)">
<path fill-rule="evenodd" clip-rule="evenodd" d="M19.3138 5.51221C19.4478 5.6756 19.4754 5.86017 19.2483 6.04374C18.9712 6.26765 18.5917 6.08005 18.2623 6.02457C16.6688 5.72603 11.8411 4.87578 9.93659 6.43306C8.90559 7.29036 9.26971 8.38671 8.18246 9.27528C7.09009 10.1669 6.07545 9.61417 5.03013 10.4725C3.12462 12.0308 3.10825 16.863 3.10928 18.4616C3.10928 18.7934 3.22997 19.1958 2.95278 19.4258C2.73185 19.6074 2.54672 19.5489 2.41171 19.3855C1.90235 18.7833 -1.09451 8.59952 4.04106 4.37653C9.1838 0.15353 18.7952 4.90503 19.3138 5.51221ZM2.1469 4.22199C3.32314 4.22199 4.28254 3.27895 4.28254 2.11301C4.28254 0.948081 3.32314 0 2.1469 0C0.960427 0 0 0.948081 0 2.11301C0 3.27895 0.960427 4.22199 2.1469 4.22199Z" fill="#F37321"/>
<path fill-rule="evenodd" clip-rule="evenodd" d="M24.2737 27.7395C24.064 27.7718 23.8881 27.7002 23.8421 27.4107C23.7817 27.0637 24.1438 26.8368 24.3719 26.5867C25.4438 25.3975 28.6687 21.7605 28.2872 19.3429C28.0816 18.0227 26.9494 17.7695 26.7264 16.3918C26.5137 15.013 27.5232 14.4331 27.3166 13.1148C26.932 10.7013 22.7405 8.19185 21.3505 7.37993C21.0702 7.21149 20.6509 7.10156 20.5987 6.75561C20.5496 6.46513 20.7 6.34309 20.9066 6.31082C21.6952 6.19281 32.0942 8.9009 33.1252 15.4185C34.1429 21.937 25.0613 27.6175 24.2737 27.7395ZM36.0575 17.0835C37.2368 17.0835 38.1952 16.1395 38.1952 14.9705C38.1952 13.8076 37.2368 12.8625 36.0575 12.8625C34.8741 12.8625 33.9167 13.8076 33.9167 14.9705C33.9167 16.1395 34.8741 17.0835 36.0575 17.0835Z" fill="#00A389"/>
<path fill-rule="evenodd" clip-rule="evenodd" d="M2.61676 21.1378C2.68938 20.9422 2.83973 20.8322 3.11589 20.9381C3.44729 21.0652 3.47081 21.4848 3.569 21.8025C4.06814 23.3154 5.64635 28.8203 10.604 30.7407C15.5595 32.654 20.514 29.6766 21.9204 28.901C22.217 28.7376 22.5157 28.4411 22.8543 28.5732C23.1304 28.6811 23.1662 28.8576 23.0813 29.0604C22.7939 29.7896 15.1821 37.2845 8.95721 34.8769C2.73336 32.4664 2.32628 21.8721 2.61676 21.1378ZM11.6922 29.9026C12.8654 29.9087 13.8401 28.9767 13.8442 27.8108C13.8544 26.6418 12.9032 25.6827 11.7198 25.6796C10.5436 25.6696 9.57087 26.6045 9.56269 27.7725C9.55042 28.9384 10.5068 29.8915 11.6922 29.9026Z" fill="#2A51A3"/>
<path fill-rule="evenodd" clip-rule="evenodd" d="M61.0995 4.85059V12.6834H60.4786C60.2689 11.1836 59.9048 9.98435 59.377 9.09275C58.8523 8.20317 58.1026 7.49513 57.1248 6.9757C56.1449 6.44922 55.1385 6.18396 54.0921 6.18396C52.9108 6.18396 51.9371 6.541 51.1679 7.24601C50.3936 7.95505 50.006 8.75588 50.006 9.6616C50.006 10.3525 50.2525 10.9758 50.7363 11.5437C51.4359 12.3798 53.1072 13.4913 55.7419 14.8862C57.896 16.0158 59.3617 16.8852 60.1554 17.4934C60.9368 18.0996 61.5434 18.8096 61.9668 19.6397C62.3984 20.4627 62.6091 21.3251 62.6091 22.2298C62.6091 23.9373 61.93 25.4159 60.5819 26.6565C59.2226 27.8981 57.4807 28.5164 55.3543 28.5164C54.6792 28.5164 54.0563 28.4659 53.4662 28.363C53.1123 28.3056 52.383 28.1008 51.2865 27.7498C50.1737 27.3938 49.4823 27.2173 49.1816 27.2173C48.9003 27.2173 48.6763 27.3 48.5116 27.4684C48.3439 27.6409 48.2232 27.9899 48.1444 28.5164H47.5267V20.7532H48.1444C48.4421 22.376 48.8369 23.5954 49.336 24.4053C49.8311 25.2102 50.5941 25.8839 51.62 26.4175C52.6469 26.949 53.773 27.2173 54.9922 27.2173C56.4098 27.2173 57.5309 26.8491 58.3501 26.1189C59.1745 25.3816 59.5847 24.5132 59.5847 23.5117C59.5847 22.955 59.4272 22.3932 59.1203 21.8273C58.8022 21.2605 58.3256 20.731 57.6628 20.2388C57.224 19.906 56.0201 19.1949 54.0471 18.1167C52.0772 17.0305 50.6749 16.1681 49.8423 15.5206C49.0067 14.8761 48.3715 14.161 47.9419 13.3834C47.5072 12.6078 47.2935 11.7494 47.2935 10.8124C47.2935 9.18655 47.9337 7.78863 49.2041 6.6116C50.4734 5.43961 52.0925 4.85059 54.0563 4.85059C55.2796 4.85059 56.5776 5.1451 57.9563 5.73311C58.5946 6.01048 59.0456 6.14966 59.3003 6.14966C59.5959 6.14966 59.8404 6.06393 60.0255 5.88945C60.2127 5.71698 60.3589 5.368 60.4786 4.85059H61.0995Z" fill="white"/>
<path fill-rule="evenodd" clip-rule="evenodd" d="M78.1417 22.2105C77.7162 24.2377 76.9 25.7849 75.6706 26.8621C74.4391 27.9403 73.0849 28.4749 71.5988 28.4749C69.8313 28.4749 68.291 27.7507 66.9685 26.2872C65.65 24.8278 64.9883 22.8489 64.9883 20.3617C64.9883 17.9552 65.7227 15.9945 67.1853 14.4896C68.6408 12.9808 70.3969 12.2324 72.4436 12.2324C73.9819 12.2324 75.24 12.6247 76.2321 13.4225C77.213 14.2123 77.7111 15.0424 77.7111 15.8997C77.7111 16.3192 77.571 16.6591 77.2928 16.9214C77.0146 17.1836 76.6259 17.3167 76.1268 17.3167C75.4568 17.3167 74.9567 17.0999 74.6253 16.6753C74.4197 16.4352 74.2847 15.9904 74.2182 15.3217C74.1579 14.6631 73.9318 14.1568 73.5278 13.8038C73.1361 13.471 72.5776 13.3015 71.8759 13.3015C70.7375 13.3015 69.8191 13.71 69.1348 14.5421C68.2081 15.6465 67.7499 17.0938 67.7499 18.8972C67.7499 20.7379 68.201 22.3587 69.1164 23.7687C70.0328 25.1777 71.2643 25.8807 72.8128 25.8807C73.9318 25.8807 74.927 25.5156 75.8179 24.7834C76.4367 24.269 77.0463 23.3381 77.6354 21.9785L78.1417 22.2105Z" fill="white"/>
<path fill-rule="evenodd" clip-rule="evenodd" d="M84.8058 12.2324V15.6636C86.0966 13.3761 87.4242 12.2324 88.7856 12.2324C89.4044 12.2324 89.9158 12.416 90.3229 12.7891C90.7279 13.1593 90.9335 13.593 90.9335 14.0832C90.9335 14.5149 90.7801 14.883 90.4866 15.1815C90.193 15.4831 89.8463 15.6324 89.4392 15.6324C89.0423 15.6324 88.6035 15.4397 88.1177 15.0575C87.6278 14.6742 87.2555 14.4846 87.0264 14.4846C86.8249 14.4846 86.6009 14.5955 86.3697 14.8144C85.8624 15.2774 85.3418 16.0288 84.8058 17.0716V24.4263C84.8058 25.2786 84.9132 25.9201 85.1301 26.3558C85.2804 26.6624 85.5402 26.9115 85.9227 27.1102C86.3022 27.3089 86.8443 27.4118 87.5552 27.4118V28.021H79.5342V27.4118C80.3228 27.4118 80.916 27.2847 81.2935 27.0356C81.5829 26.8581 81.7701 26.5716 81.8826 26.1783C81.946 25.9846 81.9747 25.439 81.9747 24.5403V18.6108C81.9747 16.8417 81.9368 15.7786 81.8652 15.4397C81.7905 15.1019 81.6555 14.8537 81.4571 14.7025C81.2628 14.5411 81.0163 14.4644 80.7237 14.4644C80.3739 14.4644 79.9883 14.5471 79.5455 14.7156L79.3716 14.1023L84.0878 12.2324H84.8058Z" fill="white"/>
<path fill-rule="evenodd" clip-rule="evenodd" d="M97.6956 12.2327V24.5406C97.6956 25.5048 97.7652 26.1412 97.9104 26.464C98.0393 26.7787 98.2541 27.0167 98.5303 27.1761C98.7952 27.3284 99.2974 27.4121 100.023 27.4121V28.0213H92.4997V27.4121C93.2515 27.4121 93.7639 27.3354 94.0247 27.1882C94.2733 27.0439 94.484 26.8049 94.6374 26.4721C94.7908 26.1312 94.8696 25.4877 94.8696 24.5406V18.6887C94.8696 17.0124 94.8133 15.9191 94.7172 15.4269C94.6374 15.0668 94.5096 14.8127 94.3428 14.6725C94.172 14.5363 93.9409 14.4647 93.6504 14.4647C93.3354 14.4647 92.9559 14.5474 92.5018 14.7159L92.2686 14.1026L96.951 12.2327H97.6956ZM96.2859 4.23633C96.7625 4.23633 97.1696 4.40376 97.503 4.73256C97.8447 5.06338 98.0052 5.46279 98.0052 5.93178C98.0052 6.39876 97.8447 6.80019 97.503 7.13907C97.1696 7.47494 96.7625 7.64337 96.2859 7.64337C95.8103 7.64337 95.4063 7.47494 95.0626 7.13907C94.724 6.80019 94.5594 6.39876 94.5594 5.93178C94.5594 5.46279 94.7159 5.06338 95.0595 4.73256C95.3909 4.40376 95.8011 4.23633 96.2859 4.23633Z" fill="white"/>
<path fill-rule="evenodd" clip-rule="evenodd" d="M100.575 14.1785L105.357 12.3065H106.005V15.8628C106.805 14.5204 107.611 13.5763 108.415 13.0377C109.227 12.4992 110.076 12.2329 110.972 12.2329C112.528 12.2329 113.831 12.832 114.869 14.0403C116.142 15.5139 116.783 17.4262 116.783 19.7964C116.783 22.4419 116.011 24.6245 114.48 26.3532C113.212 27.7734 111.617 28.4753 109.696 28.4753C108.865 28.4753 108.144 28.3624 107.527 28.1324C107.077 27.961 106.568 27.6301 106.005 27.1329V31.8047C106.005 32.8597 106.065 33.5284 106.199 33.8149C106.329 34.1003 106.554 34.3242 106.876 34.4977C107.205 34.6631 107.791 34.7498 108.642 34.7498V35.358H100.462V34.7498H100.889C101.509 34.7619 102.043 34.6459 102.493 34.3998C102.71 34.2768 102.87 34.0811 102.992 33.8068C103.113 33.5335 103.179 32.8405 103.179 31.7311V17.1629C103.179 16.1745 103.127 15.5471 103.04 15.2809C102.946 15.0126 102.805 14.8149 102.611 14.6818C102.409 14.5466 102.147 14.478 101.813 14.478C101.534 14.478 101.197 14.5587 100.776 14.7161L100.575 14.1785ZM106.005 16.8514V22.5903C106.005 23.8278 106.052 24.6458 106.157 25.0351C106.318 25.6826 106.697 26.2545 107.316 26.7487C107.933 27.2389 108.706 27.484 109.642 27.484C110.772 27.484 111.685 27.0473 112.389 26.1738C113.301 25.0351 113.762 23.4304 113.762 21.3618C113.762 19.0118 113.24 17.2064 112.199 15.9477C111.477 15.0712 110.622 14.6345 109.631 14.6345C109.089 14.6345 108.553 14.7747 108.019 15.0409C107.617 15.2396 106.942 15.8428 106.005 16.8514Z" fill="white"/>
<path fill-rule="evenodd" clip-rule="evenodd" d="M117.942 14.178L122.723 12.306H123.369V15.8623C124.176 14.5199 124.976 13.5759 125.778 13.0373C126.601 12.4987 127.445 12.2324 128.341 12.2324C129.894 12.2324 131.193 12.8315 132.239 14.0398C133.516 15.5134 134.151 17.4257 134.151 19.7959C134.151 22.4414 133.384 24.624 131.844 26.3528C130.577 27.7729 128.986 28.4748 127.062 28.4748C126.232 28.4748 125.501 28.3619 124.898 28.1319C124.446 27.9605 123.933 27.6296 123.369 27.1324V31.8042C123.369 32.8592 123.434 33.5279 123.569 33.8144C123.698 34.0998 123.921 34.3237 124.248 34.4972C124.571 34.6626 125.159 34.7493 126.006 34.7493V35.3575H117.828V34.7493H118.257C118.884 34.7614 119.413 34.6454 119.86 34.3993C120.076 34.2763 120.235 34.0806 120.36 33.8063C120.484 33.533 120.539 32.8401 120.539 31.7336V17.1624C120.539 16.174 120.501 15.5467 120.409 15.2804C120.311 15.0121 120.173 14.8144 119.968 14.6813C119.778 14.5461 119.508 14.4775 119.178 14.4775C118.899 14.4775 118.554 14.5582 118.145 14.7156L117.942 14.178ZM123.367 16.851V22.59C123.367 23.8275 123.421 24.6455 123.524 25.0348C123.681 25.6823 124.067 26.2542 124.676 26.7484C125.306 27.2386 126.068 27.4837 127.013 27.4837C128.14 27.4837 129.054 27.047 129.75 26.1735C130.668 25.0348 131.124 23.4301 131.124 21.3615C131.124 19.0115 130.607 17.2061 129.567 15.9473C128.843 15.0709 127.987 14.6342 126.995 14.6342C126.456 14.6342 125.919 14.7743 125.388 15.0406C124.974 15.2393 124.307 15.8425 123.367 16.851Z" fill="white"/>
<path fill-rule="evenodd" clip-rule="evenodd" d="M146.123 12.2324V17.467H145.499C145.082 15.823 144.538 14.7065 143.88 14.1144C143.216 13.5204 142.374 13.2218 141.354 13.2218C140.576 13.2218 139.94 13.4296 139.467 13.8431C138.997 14.2536 138.762 14.7135 138.762 15.2118C138.762 15.8381 138.925 16.3727 139.266 16.8175C139.596 17.2764 140.303 17.7575 141.376 18.2719L143.849 19.46C146.145 20.5634 147.287 22.0259 147.287 23.8282C147.287 25.2221 146.754 26.3447 145.696 27.199C144.634 28.0502 143.455 28.4759 142.139 28.4759C141.199 28.4759 140.123 28.3175 138.91 27.9937C138.541 27.8828 138.235 27.8273 138.002 27.8273C137.741 27.8273 137.547 27.9685 137.404 28.2479H136.776V22.7803H137.404C137.712 24.3396 138.307 25.5166 139.19 26.3003C140.07 27.09 141.064 27.4834 142.154 27.4834C142.924 27.4834 143.55 27.2595 144.04 26.8066C144.522 26.3558 144.766 25.8132 144.766 25.1777C144.766 24.4112 144.492 23.7637 143.948 23.2392C143.405 22.7168 142.314 22.0561 140.678 21.2533C139.037 20.4555 137.961 19.7323 137.464 19.0848C136.951 18.4474 136.705 17.6415 136.705 16.6702C136.705 15.4075 137.132 14.3505 138.002 13.5022C138.88 12.654 139.998 12.2324 141.376 12.2324C141.984 12.2324 142.72 12.3625 143.578 12.6217C144.153 12.7932 144.538 12.8739 144.726 12.8739C144.907 12.8739 145.043 12.8386 145.153 12.7589C145.248 12.6782 145.368 12.5017 145.499 12.2324H146.123Z" fill="white"/>
</g>
<defs>
<clipPath id="clip0_14940_55666">
<rect width="147" height="36" fill="white"/>
</clipPath>
</defs>
</svg>
